<svg xmlns="http://www.w3.org/2000/svg" xmlns:xlink="http://www.w3.org/1999/xlink" width="408.628" height="476.6" viewBox="0 0 408.628 476.6">
  <defs>
    <clipPath id="clip-path">
      <rect id="Rectángulo_352282" data-name="Rectángulo 352282" width="32.451" height="12.74" fill="none"/>
    </clipPath>
    <clipPath id="clip-path-2">
      <rect id="Rectángulo_352283" data-name="Rectángulo 352283" width="26.065" height="5.648" fill="none"/>
    </clipPath>
    <clipPath id="clip-path-3">
      <rect id="Rectángulo_352284" data-name="Rectángulo 352284" width="2.046" height="8.421" fill="none"/>
    </clipPath>
    <clipPath id="clip-path-4">
      <rect id="Rectángulo_352285" data-name="Rectángulo 352285" width="8.786" height="10.329" fill="none"/>
    </clipPath>
    <clipPath id="clip-path-5">
      <rect id="Rectángulo_352289" data-name="Rectángulo 352289" width="3.602" height="7.734" fill="none"/>
    </clipPath>
    <clipPath id="clip-path-6">
      <rect id="Rectángulo_352293" data-name="Rectángulo 352293" width="11.962" height="2.201" fill="none"/>
    </clipPath>
    <clipPath id="clip-path-8">
      <rect id="Rectángulo_352299" data-name="Rectángulo 352299" width="11.964" height="2.201" fill="none"/>
    </clipPath>
    <clipPath id="clip-path-9">
      <rect id="Rectángulo_352302" data-name="Rectángulo 352302" width="10.955" height="14.43" fill="none"/>
    </clipPath>
    <clipPath id="clip-path-10">
      <rect id="Rectángulo_352304" data-name="Rectángulo 352304" width="10.955" height="13.695" fill="none"/>
    </clipPath>
    <clipPath id="clip-path-11">
      <rect id="Rectángulo_352305" data-name="Rectángulo 352305" width="60.435" height="0.602" fill="none"/>
    </clipPath>
    <clipPath id="clip-path-12">
      <rect id="Rectángulo_352308" data-name="Rectángulo 352308" width="10.956" height="13.695" fill="none"/>
    </clipPath>
    <clipPath id="clip-path-14">
      <rect id="Rectángulo_352311" data-name="Rectángulo 352311" width="60.433" height="0.602" fill="none"/>
    </clipPath>
    <clipPath id="clip-path-19">
      <rect id="Rectángulo_352322" data-name="Rectángulo 352322" width="10.955" height="13.985" fill="none"/>
    </clipPath>
  </defs>
  <g id="Grupo_1036271" data-name="Grupo 1036271" transform="translate(-3151.912 10505.126)">
    <rect id="Rectángulo_352172" data-name="Rectángulo 352172" width="41.916" height="11.088" transform="translate(3405.861 -10265.624)" fill="#ebebeb"/>
    <rect id="Rectángulo_352173" data-name="Rectángulo 352173" width="41.916" height="11.089" transform="translate(3497.876 -10408.99)" fill="#ebebeb"/>
    <rect id="Rectángulo_352174" data-name="Rectángulo 352174" width="41.916" height="11.089" transform="translate(3486.915 -10324.196)" fill="#f5f5f5"/>
    <path id="Trazado_733176" data-name="Trazado 733176" d="M316.323,177.687a1.179,1.179,0,0,1-.013-.2c0-.149-.008-.335-.014-.569q-.012-.782-.031-2.182c-.017-1.915-.042-4.667-.072-8.136l.13.13-41.913.083c.094-.095-.216.213.21-.213v2.835q0,1.41,0,2.8,0,2.777,0,5.455l-.208-.209,29.87.1,8.817.059,2.384.028.623.013a1.5,1.5,0,0,1,.221.014.931.931,0,0,1-.194.014l-.6.013-2.339.028-8.769.06-30.016.095H274.2v-.209q0-2.675,0-5.455,0-1.388,0-2.8V166.6c.427-.428.12-.119.216-.214l41.913.083h.131v.131c-.03,3.5-.054,6.28-.072,8.214q-.021,1.381-.031,2.153c-.006.223-.01.4-.014.546a.83.83,0,0,1-.013.176" transform="translate(3194.784 -10479.114)" fill="#e0e0e0"/>
    <rect id="Rectángulo_352175" data-name="Rectángulo 352175" width="41.917" height="11.089" transform="translate(3460.945 -10488.789)" fill="#f5f5f5"/>
    <path id="Trazado_733177" data-name="Trazado 733177" d="M293.866,35.349a1.359,1.359,0,0,1-.013-.2c0-.149-.008-.335-.014-.569q-.01-.782-.031-2.182c-.017-1.915-.042-4.667-.072-8.136l.13.13-41.913.083c.094-.095-.216.213.21-.213V27.1q0,1.41,0,2.8,0,2.777,0,5.455l-.208-.209,29.87.095,8.817.06,2.384.028.623.013a1.484,1.484,0,0,1,.221.014.933.933,0,0,1-.194.014l-.6.013-2.339.028-8.769.06-30.016.095h-.209v-.209q0-2.675,0-5.455,0-1.388,0-2.8V24.261c.427-.428.12-.119.216-.214l41.913.083H294v.131c-.03,3.5-.054,6.28-.072,8.212q-.019,1.381-.031,2.154c-.006.223-.01.4-.014.546a.735.735,0,0,1-.013.176" transform="translate(3191.272 -10501.37)" fill="#e0e0e0"/>
    <path id="Trazado_733178" data-name="Trazado 733178" d="M255.579,126.092a1.352,1.352,0,0,1-.013-.2c0-.149-.008-.335-.014-.569q-.012-.782-.031-2.182c-.017-1.915-.042-4.667-.072-8.136l.13.13-41.913.083c.094-.095-.216.214.21-.213v2.835q0,1.41,0,2.8,0,2.777,0,5.455l-.208-.209,29.87.095,8.817.06,2.384.028.623.013a1.482,1.482,0,0,1,.221.014.935.935,0,0,1-.194.014l-.6.013-2.339.028-8.769.059-30.016.1h-.209v-.209q0-2.675,0-5.455,0-1.388,0-2.8V115c.427-.428.12-.119.216-.214l41.913.083h.131V115c-.03,3.5-.054,6.28-.072,8.212q-.019,1.382-.031,2.153c-.006.224-.01.4-.014.547a.833.833,0,0,1-.013.176" transform="translate(3185.286 -10487.182)" fill="#e0e0e0"/>
    <path id="Trazado_733179" data-name="Trazado 733179" d="M258.232,116.507a1.2,1.2,0,0,1-.016-.21c0-.16-.01-.353-.016-.589-.009-.545-.022-1.287-.038-2.223-.021-1.945-.049-4.69-.083-8.067l.154.153-25.183.06c-.192.191.258-.26.212-.213v2.89q0,1.429,0,2.821c0,1.855-.006,3.654-.008,5.377l-.2-.2,18.015.1,5.249.056,1.415.025a4.531,4.531,0,0,1,.505.025,3.106,3.106,0,0,1-.457.025l-1.374.025-5.2.056-18.152.1h-.2v-.2c0-1.723-.006-3.522-.008-5.377q0-1.391,0-2.821v-2.89c-.047.046.4-.4.215-.214l25.183.06h.155v.154c-.035,3.416-.064,6.193-.083,8.159q-.024,1.382-.038,2.189a6.421,6.421,0,0,1-.032.74" transform="translate(3188.316 -10488.684)" fill="#e0e0e0"/>
    <path id="Trazado_733180" data-name="Trazado 733180" d="M145.729,20.935a1.349,1.349,0,0,1-.013-.2c0-.149-.008-.335-.014-.569q-.01-.782-.031-2.182c-.017-1.915-.042-4.667-.072-8.136l.13.13-41.913.083c.094-.095-.215.214.21-.213v2.835q0,1.41,0,2.8,0,2.777,0,5.455l-.208-.209,29.87.095,8.817.06,2.384.028.623.013a1.485,1.485,0,0,1,.221.014.932.932,0,0,1-.194.014l-.6.013-2.339.028-8.769.059-30.016.1H103.6v-.209q0-2.675,0-5.455,0-1.388,0-2.8V9.847c.428-.428.12-.119.216-.214l41.913.083h.131v.131c-.03,3.5-.054,6.28-.072,8.214q-.019,1.381-.031,2.153c-.006.223-.01.4-.014.546a.829.829,0,0,1-.013.176" transform="translate(3168.11 -10503.623)" fill="#e0e0e0"/>
    <path id="Trazado_733181" data-name="Trazado 733181" d="M148.382,11.35a1.2,1.2,0,0,1-.016-.212c0-.158-.01-.352-.016-.587q-.014-.819-.038-2.223c-.021-1.945-.049-4.69-.083-8.067l.154.153L123.2.474c-.192.191.258-.26.212-.213v2.89q0,1.429,0,2.822c0,1.855-.006,3.654-.008,5.377l-.2-.2,18.015.1,5.249.056,1.415.025a4.536,4.536,0,0,1,.505.025,3.1,3.1,0,0,1-.457.025l-1.374.025-5.2.056-18.152.1h-.2v-.2c0-1.723-.006-3.522-.008-5.377q0-1.391,0-2.822V.261c-.047.046.4-.4.215-.214l25.183.06h.155V.261c-.035,3.416-.064,6.192-.083,8.159q-.024,1.382-.038,2.189a6.446,6.446,0,0,1-.032.74" transform="translate(3171.141 -10505.126)" fill="#e0e0e0"/>
    <rect id="Rectángulo_352176" data-name="Rectángulo 352176" width="164.504" height="54.448" transform="translate(3384.721 -10175.859)" fill="#ebebeb"/>
    <path id="Trazado_733182" data-name="Trazado 733182" d="M365.875,339.234s-.014-.33-.02-.957-.012-1.567-.021-2.781c-.012-2.455-.028-6.059-.049-10.729-.025-9.341-.062-22.927-.109-39.981l.2.2-164.493.1h-.01l.3-.3c0,18.912-.007,37.264-.009,54.448l-.291-.291,117.682.135,34.375.082,9.228.037,2.394.018c.54.006.824.018.824.018s-.26.013-.789.018l-2.358.019-9.166.037-34.307.082-117.884.135h-.293v-.291c0-17.185-.006-35.536-.009-54.448v-.3h.312l164.493.1h.2v.2c-.046,17.1-.083,30.731-.109,40.1-.021,4.65-.037,8.239-.049,10.684q-.012,1.8-.021,2.746c-.006.615-.02.918-.02.918" transform="translate(3183.351 -10460.646)" fill="#e0e0e0"/>
    <rect id="Rectángulo_352177" data-name="Rectángulo 352177" width="11.299" height="14.124" transform="translate(3462.751 -10136.443)" fill="#fafafa"/>
    <rect id="Rectángulo_352178" data-name="Rectángulo 352178" width="11.299" height="14.124" transform="translate(3462.751 -10175.883)" fill="#fafafa"/>
    <rect id="Rectángulo_352179" data-name="Rectángulo 352179" width="61.428" height="56.416" transform="translate(3386.356 -10232.321)" fill="#ebebeb"/>
    <path id="Trazado_733183" data-name="Trazado 733183" d="M264.222,292.375s-.018-.37-.029-1.06c-.007-.712-.016-1.726-.029-3.037-.016-2.67-.038-6.545-.067-11.47-.032-9.867-.077-23.937-.132-40.849l.257.257-61.423.045c-.072.062.565-.567.3-.293v3.825q0,1.913,0,3.809,0,3.793,0,7.516,0,7.441-.007,14.556c-.01,9.467-.02,18.432-.028,26.7l-.264-.264,44.405.133,12.536.069,3.325.031.862.015a2.5,2.5,0,0,1,.3.015,1.717,1.717,0,0,1-.272.015l-.831.015-3.274.031-12.477.069-44.574.133h-.265v-.265c-.008-8.268-.017-17.233-.027-26.7q0-7.1-.008-14.556,0-3.722,0-7.516,0-1.9,0-3.809v-3.825c-.269.265.365-.378.306-.31l61.423.044h.258v.257c-.054,16.98-.1,31.1-.132,41.012-.029,4.9-.051,8.755-.067,11.412q-.019,1.934-.029,2.987c-.009.673-.029,1-.029,1" transform="translate(3183.563 -10468.28)" fill="#e0e0e0"/>
    <rect id="Rectángulo_352180" data-name="Rectángulo 352180" width="11.299" height="14.397" transform="translate(3411.42 -10231.405)" fill="#fafafa"/>
    <rect id="Rectángulo_352181" data-name="Rectángulo 352181" width="11.299" height="14.395" transform="translate(3411.42 -10190.824)" fill="#fafafa"/>
    <path id="Trazado_733184" data-name="Trazado 733184" d="M264.164,258.916c0,.167-13.75.3-30.709.3s-30.712-.134-30.712-.3,13.748-.3,30.712-.3,30.709.134,30.709.3" transform="translate(3183.612 -10464.69)" fill="#e0e0e0"/>
    <rect id="Rectángulo_352182" data-name="Rectángulo 352182" width="91.014" height="56.416" transform="translate(3453.397 -10232.321)" fill="#ebebeb"/>
    <path id="Trazado_733185" data-name="Trazado 733185" d="M351.775,292.374s-.016-.358-.025-1.033q-.009-1.039-.027-2.973c-.014-2.619-.034-6.437-.059-11.328-.03-9.79-.073-23.864-.125-41.083l.236.236-91.007.066h-.007l.3-.3c-.008,20-.016,39.067-.023,56.416l-.277-.279,65.461.136,18.79.075,5.013.034,1.3.017c.294,0,.451.016.451.016s-.135.012-.419.016l-1.267.017-4.957.034-18.727.075-65.644.136h-.279v-.279c-.007-17.349-.015-36.417-.023-56.416v-.3h.309l91.007.065h.237v.236c-.052,17.281-.095,31.4-.125,41.23-.025,4.866-.045,8.667-.059,11.273q-.017,1.908-.027,2.93c-.008.658-.025.983-.025.983" transform="translate(3192.636 -10468.279)" fill="#e0e0e0"/>
    <rect id="Rectángulo_352183" data-name="Rectángulo 352183" width="11.299" height="14.124" transform="translate(3492.801 -10231.268)" fill="#fafafa"/>
    <rect id="Rectángulo_352184" data-name="Rectángulo 352184" width="11.299" height="14.124" transform="translate(3492.801 -10190.689)" fill="#fafafa"/>
    <path id="Trazado_733186" data-name="Trazado 733186" d="M351.857,258.916c0,.167-20.579.3-45.958.3s-45.963-.134-45.963-.3,20.574-.3,45.963-.3,45.958.134,45.958.3" transform="translate(3192.555 -10464.69)" fill="#e0e0e0"/>
    <path id="Trazado_733187" data-name="Trazado 733187" d="M365.735,307.927c0,.167-36.665.3-81.883.3-45.233,0-81.89-.134-81.89-.3s36.656-.3,81.89-.3c45.218,0,81.883.134,81.883.3" transform="translate(3183.49 -10457.027)" fill="#e0e0e0"/>
    <rect id="Rectángulo_352185" data-name="Rectángulo 352185" width="179.864" height="10.356" transform="translate(3380.676 -10122.692)" fill="#e0e0e0"/>
    <rect id="Rectángulo_352186" data-name="Rectángulo 352186" width="15.972" height="12.167" transform="translate(3380.958 -10112.336)" fill="#e0e0e0"/>
    <rect id="Rectángulo_352187" data-name="Rectángulo 352187" width="15.972" height="12.167" transform="translate(3462.623 -10112.336)" fill="#e0e0e0"/>
    <rect id="Rectángulo_352188" data-name="Rectángulo 352188" width="15.972" height="12.167" transform="translate(3544.569 -10112.336)" fill="#e0e0e0"/>
    <rect id="Rectángulo_352190" data-name="Rectángulo 352190" width="195.981" height="13.221" transform="translate(3163.278 -10125.107)" fill="#d1e6e6"/>
    <path id="Trazado_733188" data-name="Trazado 733188" d="M205.851,341.9s-.013-.288-.02-.844-.014-1.4-.024-2.492q-.019-3.318-.059-9.885l.1.1-195.971.2H9.87l.3-.3V341.9l-.3-.3,138.955.126,41.733.09,11.325.043,2.95.021c.667.007,1.019.021,1.019.021s-.324.014-.977.021l-2.911.021-11.256.043-41.662.09L9.87,342.2h-.3v-.3c0-4.2,0-8.691,0-13.221v-.3H9.88l195.971.2h.1v.1q-.04,6.612-.059,9.945c-.01,1.086-.018,1.9-.024,2.468-.007.546-.02.808-.02.808" transform="translate(3153.408 -10453.783)" fill="#263238"/>
    <rect id="Rectángulo_352191" data-name="Rectángulo 352191" width="58.545" height="53.768" transform="translate(3171.952 -10360.955)" fill="#12263f"/>
    <path id="Trazado_733189" data-name="Trazado 733189" d="M75.925,178.487s-.019-.354-.029-1.012c-.007-.681-.016-1.648-.029-2.894-.016-2.549-.038-6.242-.067-10.933-.032-9.406-.077-22.813-.132-38.929l.257.257-58.539.045c-.073.064.564-.567.295-.293V132q0,3.615,0,7.162,0,7.094-.007,13.874c-.01,9.023-.019,17.567-.028,25.447l-.264-.264,42.317.133,11.95.069,3.17.031.821.015a2.28,2.28,0,0,1,.288.015,1.544,1.544,0,0,1-.258.015l-.792.015-3.119.031-11.89.069-42.487.133h-.264v-.265c-.009-7.879-.018-16.424-.028-25.447q0-6.77-.007-13.874,0-3.545,0-7.162v-7.276c-.268.264.365-.377.308-.31l58.539.044h.258v.257c-.054,16.183-.1,29.645-.132,39.092-.029,4.667-.051,8.34-.067,10.874q-.019,1.84-.029,2.846c-.01.641-.029.956-.029.956" transform="translate(3154.572 -10485.674)" fill="#263238"/>
    <rect id="Rectángulo_352192" data-name="Rectángulo 352192" width="10.769" height="13.461" transform="translate(3194.665 -10359.951)" fill="#fff"/>
    <rect id="Rectángulo_352193" data-name="Rectángulo 352193" width="10.769" height="13.461" transform="translate(3194.665 -10359.951)" fill="none"/>
    <rect id="Rectángulo_352194" data-name="Rectángulo 352194" width="10.769" height="13.461" transform="translate(3194.665 -10321.276)" fill="#fff"/>
    <rect id="Rectángulo_352195" data-name="Rectángulo 352195" width="10.769" height="13.462" transform="translate(3194.665 -10321.277)" fill="none"/>
    <path id="Trazado_733190" data-name="Trazado 733190" d="M75.985,146.6c0,.167-13.3.3-29.7.3s-29.7-.134-29.7-.3,13.3-.3,29.7-.3,29.7.134,29.7.3" transform="translate(3154.505 -10482.252)"/>
    <rect id="Rectángulo_352196" data-name="Rectángulo 352196" width="59.402" height="0.602" transform="translate(3171.087 -10335.955)" fill="none"/>
    <rect id="Rectángulo_352197" data-name="Rectángulo 352197" width="58.545" height="53.768" transform="translate(3171.952 -10414.961)" fill="#ffa031"/>
    <path id="Trazado_733191" data-name="Trazado 733191" d="M75.925,131.783s-.019-.354-.029-1.012q-.01-1.022-.029-2.9c-.016-2.547-.038-6.241-.067-10.932-.032-9.406-.077-22.813-.132-38.929l.257.257-58.539.045c-.073.062.564-.567.295-.293V85.3q0,3.615,0,7.162,0,7.094-.007,13.874c-.01,9.023-.019,17.566-.028,25.447l-.264-.264,42.317.133,11.95.069,3.17.031.821.015a2.266,2.266,0,0,1,.288.015,1.547,1.547,0,0,1-.258.015l-.792.015-3.119.031-11.89.069-42.487.133h-.264v-.265c-.009-7.881-.018-16.424-.028-25.447q0-6.77-.007-13.874,0-3.545,0-7.162V78.024c-.268.264.365-.378.308-.31l58.539.044h.258v.257c-.054,16.183-.1,29.645-.132,39.091-.029,4.668-.051,8.341-.067,10.876q-.019,1.84-.029,2.846c-.01.641-.029.956-.029.956" transform="translate(3154.572 -10492.976)" fill="#263238"/>
    <rect id="Rectángulo_352198" data-name="Rectángulo 352198" width="10.769" height="13.461" transform="translate(3194.665 -10413.957)" fill="#fff"/>
    <rect id="Rectángulo_352199" data-name="Rectángulo 352199" width="10.769" height="13.461" transform="translate(3194.665 -10413.957)" fill="none"/>
    <rect id="Rectángulo_352200" data-name="Rectángulo 352200" width="10.769" height="13.461" transform="translate(3194.665 -10375.282)" fill="#fff"/>
    <rect id="Rectángulo_352201" data-name="Rectángulo 352201" width="10.769" height="13.462" transform="translate(3194.665 -10375.283)" fill="none"/>
    <path id="Trazado_733192" data-name="Trazado 733192" d="M75.985,99.894c0,.167-13.3.3-29.7.3s-29.7-.134-29.7-.3,13.3-.3,29.7-.3,29.7.134,29.7.3" transform="translate(3154.505 -10489.554)"/>
    <rect id="Rectángulo_352202" data-name="Rectángulo 352202" width="59.402" height="0.602" transform="translate(3171.087 -10389.961)" fill="none"/>
    <rect id="Rectángulo_352203" data-name="Rectángulo 352203" width="58.545" height="53.768" transform="translate(3287.897 -10360.955)" fill="#12263f"/>
    <path id="Trazado_733193" data-name="Trazado 733193" d="M176.193,178.487s-.02-.354-.029-1.012c-.007-.681-.016-1.648-.029-2.894-.016-2.549-.038-6.242-.067-10.933-.032-9.406-.077-22.813-.132-38.929l.257.257-58.539.045c-.073.064.564-.567.295-.293V132q0,3.615,0,7.162,0,7.094-.007,13.874c-.009,9.023-.019,17.567-.028,25.447l-.264-.264,42.317.133,11.949.069,3.171.031.821.015a2.279,2.279,0,0,1,.288.015,1.544,1.544,0,0,1-.258.015l-.792.015-3.119.031-11.89.069-42.487.133h-.264v-.265c-.009-7.879-.019-16.424-.028-25.447q0-6.77-.007-13.874,0-3.545,0-7.162v-7.276c-.269.264.364-.377.306-.31l58.539.044h.258v.257c-.054,16.183-.1,29.645-.132,39.092-.029,4.667-.051,8.34-.067,10.874q-.019,1.84-.029,2.846c-.01.641-.029.956-.029.956" transform="translate(3170.25 -10485.674)" fill="#263238"/>
    <rect id="Rectángulo_352204" data-name="Rectángulo 352204" width="10.769" height="13.461" transform="translate(3310.61 -10359.951)" fill="#fff"/>
    <rect id="Rectángulo_352205" data-name="Rectángulo 352205" width="10.769" height="13.461" transform="translate(3310.61 -10359.951)" fill="none"/>
    <rect id="Rectángulo_352206" data-name="Rectángulo 352206" width="10.769" height="13.461" transform="translate(3310.61 -10321.276)" fill="#fff"/>
    <rect id="Rectángulo_352207" data-name="Rectángulo 352207" width="10.769" height="13.462" transform="translate(3310.61 -10321.277)" fill="none"/>
    <path id="Trazado_733194" data-name="Trazado 733194" d="M176.253,146.6c0,.167-13.3.3-29.7.3s-29.7-.134-29.7-.3,13.3-.3,29.7-.3,29.7.134,29.7.3" transform="translate(3170.182 -10482.252)"/>
    <rect id="Rectángulo_352208" data-name="Rectángulo 352208" width="59.402" height="0.602" transform="translate(3287.033 -10335.955)" fill="none"/>
    <rect id="Rectángulo_352209" data-name="Rectángulo 352209" width="58.545" height="53.768" transform="translate(3287.897 -10414.961)" fill="#ffa031"/>
    <path id="Trazado_733195" data-name="Trazado 733195" d="M176.193,131.783s-.02-.354-.029-1.012q-.01-1.022-.029-2.9c-.016-2.547-.038-6.241-.067-10.932-.032-9.406-.077-22.813-.132-38.929l.257.257-58.539.045c-.073.062.564-.567.295-.293V85.3q0,3.615,0,7.162,0,7.094-.007,13.874c-.009,9.023-.019,17.566-.028,25.447l-.264-.264,42.317.133,11.949.069,3.171.031.821.015a2.266,2.266,0,0,1,.288.015,1.547,1.547,0,0,1-.258.015l-.792.015-3.119.031-11.89.069-42.487.133h-.264v-.265c-.009-7.881-.019-16.424-.028-25.447q0-6.77-.007-13.874,0-3.545,0-7.162V78.024c-.269.264.364-.378.306-.31l58.539.044h.258v.257c-.054,16.183-.1,29.645-.132,39.091-.029,4.668-.051,8.341-.067,10.876q-.019,1.84-.029,2.846c-.01.641-.029.956-.029.956" transform="translate(3170.25 -10492.976)" fill="#263238"/>
    <rect id="Rectángulo_352210" data-name="Rectángulo 352210" width="10.769" height="13.461" transform="translate(3310.61 -10413.957)" fill="#fff"/>
    <rect id="Rectángulo_352211" data-name="Rectángulo 352211" width="10.769" height="13.461" transform="translate(3310.61 -10413.957)" fill="none"/>
    <rect id="Rectángulo_352212" data-name="Rectángulo 352212" width="10.769" height="13.461" transform="translate(3310.61 -10375.282)" fill="#fff"/>
    <rect id="Rectángulo_352213" data-name="Rectángulo 352213" width="10.769" height="13.462" transform="translate(3310.61 -10375.283)" fill="none"/>
    <path id="Trazado_733196" data-name="Trazado 733196" d="M176.253,99.894c0,.167-13.3.3-29.7.3s-29.7-.134-29.7-.3,13.3-.3,29.7-.3,29.7.134,29.7.3" transform="translate(3170.182 -10489.554)"/>
    <rect id="Rectángulo_352214" data-name="Rectángulo 352214" width="59.402" height="0.602" transform="translate(3287.033 -10389.961)" fill="none"/>
    <rect id="Rectángulo_352215" data-name="Rectángulo 352215" width="58.545" height="53.768" transform="translate(3229.658 -10360.955)" fill="#ffa031"/>
    <path id="Trazado_733197" data-name="Trazado 733197" d="M125.829,178.487s-.019-.354-.029-1.012c-.007-.681-.016-1.648-.029-2.894-.016-2.549-.038-6.242-.067-10.933-.032-9.406-.077-22.813-.132-38.929l.257.257-58.539.045c-.073.064.564-.567.295-.293V132q0,3.615,0,7.162,0,7.094-.007,13.874c-.009,9.023-.019,17.567-.028,25.447l-.264-.264,42.317.133,11.95.069,3.17.031.821.015a2.28,2.28,0,0,1,.288.015,1.544,1.544,0,0,1-.258.015l-.792.015-3.119.031-11.89.069-42.487.133H67.02v-.265c-.009-7.879-.018-16.424-.028-25.447q0-6.77-.007-13.874,0-3.545,0-7.162v-7.276c-.269.264.364-.377.306-.31l58.539.044h.258v.257c-.054,16.183-.1,29.645-.132,39.092-.029,4.667-.051,8.34-.067,10.874q-.019,1.84-.029,2.846c-.01.641-.029.956-.029.956" transform="translate(3162.375 -10485.674)" fill="#263238"/>
    <rect id="Rectángulo_352216" data-name="Rectángulo 352216" width="10.769" height="13.461" transform="translate(3252.372 -10359.951)" fill="#fff"/>
    <rect id="Rectángulo_352217" data-name="Rectángulo 352217" width="10.769" height="13.461" transform="translate(3252.372 -10359.951)" fill="none"/>
    <rect id="Rectángulo_352218" data-name="Rectángulo 352218" width="10.769" height="13.461" transform="translate(3252.372 -10321.276)" fill="#fff"/>
    <rect id="Rectángulo_352219" data-name="Rectángulo 352219" width="10.769" height="13.462" transform="translate(3252.372 -10321.277)" fill="none"/>
    <path id="Trazado_733198" data-name="Trazado 733198" d="M125.889,146.6c0,.167-13.3.3-29.7.3s-29.7-.134-29.7-.3,13.3-.3,29.7-.3,29.7.134,29.7.3" transform="translate(3162.308 -10482.252)"/>
    <rect id="Rectángulo_352220" data-name="Rectángulo 352220" width="59.402" height="0.602" transform="translate(3228.795 -10335.955)" fill="none"/>
    <rect id="Rectángulo_352221" data-name="Rectángulo 352221" width="58.545" height="53.768" transform="translate(3229.658 -10414.736)" fill="#12263f"/>
    <path id="Trazado_733199" data-name="Trazado 733199" d="M125.829,131.978s-.019-.354-.029-1.012c-.007-.681-.016-1.648-.029-2.894-.016-2.549-.038-6.242-.067-10.933-.032-9.406-.077-22.813-.132-38.929l.257.257-58.539.045c-.073.064.564-.567.295-.293v7.276q0,3.615,0,7.162,0,7.094-.007,13.874c-.009,9.023-.019,17.567-.028,25.447l-.264-.264,42.317.133,11.95.069,3.17.031.821.015a2.28,2.28,0,0,1,.288.015,1.541,1.541,0,0,1-.258.015l-.792.015-3.119.031-11.89.069-42.487.133H67.02v-.265c-.009-7.879-.018-16.424-.028-25.447q0-6.77-.007-13.874,0-3.545,0-7.162V78.219c-.269.265.364-.378.306-.31l58.539.044h.258v.257c-.054,16.183-.1,29.645-.132,39.092-.029,4.667-.051,8.34-.067,10.874q-.019,1.84-.029,2.846c-.01.641-.029.956-.029.956" transform="translate(3162.375 -10492.945)" fill="#263238"/>
    <rect id="Rectángulo_352222" data-name="Rectángulo 352222" width="10.769" height="13.461" transform="translate(3252.372 -10413.732)" fill="#fff"/>
    <rect id="Rectángulo_352223" data-name="Rectángulo 352223" width="10.769" height="13.461" transform="translate(3252.372 -10413.732)" fill="none"/>
    <rect id="Rectángulo_352224" data-name="Rectángulo 352224" width="10.769" height="13.461" transform="translate(3252.372 -10375.058)" fill="#fff"/>
    <rect id="Rectángulo_352225" data-name="Rectángulo 352225" width="10.769" height="13.461" transform="translate(3252.372 -10375.058)" fill="none"/>
    <path id="Trazado_733200" data-name="Trazado 733200" d="M125.889,100.089c0,.167-13.3.3-29.7.3s-29.7-.134-29.7-.3,13.3-.3,29.7-.3,29.7.134,29.7.3" transform="translate(3162.308 -10489.523)"/>
    <rect id="Rectángulo_352226" data-name="Rectángulo 352226" width="59.402" height="0.601" transform="translate(3228.795 -10389.735)" fill="none"/>
    <rect id="Rectángulo_352227" data-name="Rectángulo 352227" width="179.864" height="10.356" transform="translate(3171.087 -10307.02)" fill="#99601d"/>
    <rect id="Rectángulo_352228" data-name="Rectángulo 352228" width="15.972" height="12.167" transform="translate(3171.37 -10296.664)" fill="#99601d"/>
    <rect id="Rectángulo_352229" data-name="Rectángulo 352229" width="15.972" height="2.939" transform="translate(3171.37 -10296.663)"/>
    <rect id="Rectángulo_352230" data-name="Rectángulo 352230" width="15.972" height="2.939" transform="translate(3171.369 -10296.663)" fill="none"/>
    <rect id="Rectángulo_352231" data-name="Rectángulo 352231" width="15.972" height="12.167" transform="translate(3253.034 -10296.664)" fill="#99601d"/>
    <rect id="Rectángulo_352232" data-name="Rectángulo 352232" width="15.972" height="2.939" transform="translate(3253.034 -10296.663)"/>
    <rect id="Rectángulo_352233" data-name="Rectángulo 352233" width="15.973" height="2.939" transform="translate(3253.033 -10296.663)" fill="none"/>
    <rect id="Rectángulo_352234" data-name="Rectángulo 352234" width="15.972" height="12.167" transform="translate(3334.979 -10296.664)" fill="#99601d"/>
    <rect id="Rectángulo_352235" data-name="Rectángulo 352235" width="15.972" height="2.939" transform="translate(3334.979 -10296.663)"/>
    <rect id="Rectángulo_352236" data-name="Rectángulo 352236" width="15.972" height="2.939" transform="translate(3334.979 -10296.663)" fill="none"/>
    <rect id="Rectángulo_352237" data-name="Rectángulo 352237" width="202.13" height="13.221" transform="translate(3158.573 -10284.123)" fill="#d1e6e6"/>
    <path id="Trazado_733201" data-name="Trazado 733201" d="M207.93,204.381s-.013-.286-.02-.841-.013-1.389-.023-2.483c-.013-2.209-.032-5.5-.058-9.9l.1.1-202.119.2H5.8l.3-.3c0,4.529,0,9.025,0,13.221l-.3-.3,143.3.126,43.048.09,11.684.043,3.044.021c.688.007,1.05.021,1.05.021s-.334.014-1.008.021l-3,.021-11.613.043-42.978.09L5.8,204.682H5.5V190.86h.311l202.119.2h.1v.1c-.025,4.424-.045,7.734-.058,9.955-.01,1.085-.019,1.9-.023,2.461-.007.544-.02.8-.02.8" transform="translate(3152.772 -10475.284)" fill="#263238"/>
    <rect id="Rectángulo_352238" data-name="Rectángulo 352238" width="195.781" height="13.221" transform="translate(3162.881 -10462.331)" fill="#d1e6e6"/>
    <path id="Trazado_733202" data-name="Trazado 733202" d="M205.308,50.269s-.013-.288-.02-.845-.014-1.395-.024-2.491q-.019-3.32-.059-9.885l.1.1-195.771.2h-.01l.3-.3V50.269l-.3-.3,138.814.126,41.689.09,11.314.043,2.948.021c.666.007,1.018.021,1.018.021s-.324.014-.976.021l-2.908.021-11.244.043-41.618.09L9.527,50.57h-.3V36.748h.311l195.771.2h.1v.1q-.04,6.612-.059,9.944c-.01,1.086-.018,1.9-.024,2.469-.007.546-.02.808-.02.808" transform="translate(3153.355 -10499.38)" fill="#263238"/>
    <rect id="Rectángulo_352239" data-name="Rectángulo 352239" width="58.545" height="53.768" transform="translate(3287.894 -10200.529)" fill="#ffa031"/>
    <path id="Trazado_733203" data-name="Trazado 733203" d="M176.19,317.221s-.019-.354-.029-1.012c-.007-.681-.016-1.648-.029-2.894-.016-2.549-.038-6.242-.067-10.933-.032-9.406-.077-22.813-.132-38.929l.257.257-58.539.044c-.073.064.564-.565.295-.291v7.276q0,3.615,0,7.162,0,7.094-.007,13.874c-.009,9.023-.018,17.567-.028,25.447l-.264-.264,42.317.133,11.949.069,3.171.031.821.015a2.275,2.275,0,0,1,.288.015,1.54,1.54,0,0,1-.258.015l-.792.015-3.119.031-11.89.069-42.487.133h-.264v-.265c-.009-7.879-.018-16.424-.028-25.447q0-6.77-.007-13.874,0-3.545,0-7.162v-7.276c-.269.264.364-.378.306-.31l58.539.044h.258v.257c-.054,16.183-.1,29.646-.132,39.092-.029,4.667-.051,8.34-.067,10.874q-.019,1.84-.029,2.846c-.01.641-.029.956-.029.956" transform="translate(3170.249 -10463.981)" fill="#263238"/>
    <rect id="Rectángulo_352240" data-name="Rectángulo 352240" width="10.769" height="13.461" transform="translate(3310.606 -10199.525)" fill="#fff"/>
    <rect id="Rectángulo_352241" data-name="Rectángulo 352241" width="10.768" height="13.461" transform="translate(3310.607 -10199.525)" fill="none"/>
    <rect id="Rectángulo_352242" data-name="Rectángulo 352242" width="10.769" height="13.461" transform="translate(3310.606 -10160.852)" fill="#fff"/>
    <rect id="Rectángulo_352243" data-name="Rectángulo 352243" width="10.768" height="13.461" transform="translate(3310.607 -10160.852)" fill="none"/>
    <path id="Trazado_733204" data-name="Trazado 733204" d="M176.249,285.332c0,.167-13.3.3-29.7.3s-29.7-.134-29.7-.3,13.3-.3,29.7-.3,29.7.134,29.7.3" transform="translate(3170.182 -10460.561)"/>
    <rect id="Rectángulo_352244" data-name="Rectángulo 352244" width="59.402" height="0.602" transform="translate(3287.029 -10175.529)" fill="none"/>
    <rect id="Rectángulo_352245" data-name="Rectángulo 352245" width="58.545" height="53.768" transform="translate(3287.894 -10254.535)" fill="#ffa031"/>
    <path id="Trazado_733205" data-name="Trazado 733205" d="M176.19,270.517s-.019-.354-.029-1.012c-.007-.681-.016-1.648-.029-2.894-.016-2.549-.038-6.242-.067-10.933-.032-9.406-.077-22.813-.132-38.929l.257.257-58.539.045c-.073.062.564-.567.295-.293v7.276q0,3.615,0,7.162,0,7.094-.007,13.874c-.009,9.023-.018,17.567-.028,25.447l-.264-.264,42.317.133,11.949.069,3.171.031.821.015a2.3,2.3,0,0,1,.288.015,1.537,1.537,0,0,1-.258.015l-.792.015-3.119.031-11.89.069-42.487.133h-.264v-.265c-.009-7.879-.018-16.424-.028-25.447q0-6.77-.007-13.874,0-3.545,0-7.162v-7.276c-.269.264.364-.378.306-.31l58.539.044h.258v.257c-.054,16.183-.1,29.645-.132,39.092-.029,4.667-.051,8.34-.067,10.874q-.019,1.84-.029,2.846c-.01.641-.029.956-.029.956" transform="translate(3170.249 -10471.284)" fill="#263238"/>
    <rect id="Rectángulo_352246" data-name="Rectángulo 352246" width="10.769" height="13.461" transform="translate(3310.606 -10253.531)" fill="#fff"/>
    <rect id="Rectángulo_352247" data-name="Rectángulo 352247" width="10.768" height="13.461" transform="translate(3310.607 -10253.531)" fill="none"/>
    <rect id="Rectángulo_352248" data-name="Rectángulo 352248" width="10.769" height="13.461" transform="translate(3310.606 -10214.856)" fill="#fff"/>
    <rect id="Rectángulo_352249" data-name="Rectángulo 352249" width="10.768" height="13.462" transform="translate(3310.607 -10214.857)" fill="none"/>
    <path id="Trazado_733206" data-name="Trazado 733206" d="M176.249,238.628c0,.167-13.3.3-29.7.3s-29.7-.134-29.7-.3,13.3-.3,29.7-.3,29.7.134,29.7.3" transform="translate(3170.182 -10467.862)"/>
    <rect id="Rectángulo_352250" data-name="Rectángulo 352250" width="59.402" height="0.602" transform="translate(3287.029 -10229.535)" fill="none"/>
    <rect id="Rectángulo_352251" data-name="Rectángulo 352251" width="179.864" height="10.356" transform="translate(3168.593 -10147.802)" fill="#99601d"/>
    <rect id="Rectángulo_352252" data-name="Rectángulo 352252" width="15.972" height="12.167" transform="translate(3168.875 -10137.445)" fill="#99601d"/>
    <rect id="Rectángulo_352253" data-name="Rectángulo 352253" width="15.972" height="2.939" transform="translate(3168.875 -10137.445)"/>
    <rect id="Rectángulo_352254" data-name="Rectángulo 352254" width="15.972" height="2.939" transform="translate(3168.875 -10137.445)" fill="none"/>
    <rect id="Rectángulo_352255" data-name="Rectángulo 352255" width="15.972" height="12.167" transform="translate(3250.539 -10137.445)" fill="#ae7461"/>
    <rect id="Rectángulo_352256" data-name="Rectángulo 352256" width="15.972" height="2.939" transform="translate(3250.539 -10137.445)"/>
    <rect id="Rectángulo_352257" data-name="Rectángulo 352257" width="15.972" height="2.939" transform="translate(3250.539 -10137.445)" fill="none"/>
    <rect id="Rectángulo_352258" data-name="Rectángulo 352258" width="15.972" height="12.167" transform="translate(3332.485 -10137.445)" fill="#99601d"/>
    <rect id="Rectángulo_352259" data-name="Rectángulo 352259" width="15.972" height="2.939" transform="translate(3332.485 -10137.445)"/>
    <rect id="Rectángulo_352260" data-name="Rectángulo 352260" width="15.973" height="2.939" transform="translate(3332.484 -10137.445)" fill="none"/>
    <path id="Trazado_733323" data-name="Trazado 733323" d="M0,0H115.141V57.909H0Z" transform="translate(3170.431 -10205.883)" fill="#cc8027"/>
    <path id="Trazado_733207" data-name="Trazado 733207" d="M131.2,316.731s-.016-.363-.023-1.047q-.009-1.049-.025-3.024c-.013-2.663-.031-6.557-.056-11.561-.029-10.015-.069-24.463-.12-42.278l.224.223-115.131.077h-.008l.3-.3c-.007,20.418-.013,40.009-.017,57.909l-.283-.283,82.689.135,23.853.079,6.374.035,1.652.017c.372.006.571.017.571.017s-.176.012-.538.017l-1.619.017-6.316.035-23.789.078-82.878.136h-.284v-.284c-.006-17.9-.012-37.491-.017-57.909v-.3h.31L131.2,258.6h.224v.224c-.051,17.873-.091,32.366-.12,42.414-.024,4.984-.043,8.86-.055,11.512q-.017,1.948-.025,2.983c-.007.67-.023,1-.023,1" transform="translate(3154.375 -10464.705)" fill="#263238"/>
    <rect id="Rectángulo_352264" data-name="Rectángulo 352264" width="23.391" height="10.5" transform="translate(3180.436 -10197.516)" fill="#fff"/>
    <rect id="Rectángulo_352265" data-name="Rectángulo 352265" width="23.39" height="10.5" transform="translate(3180.436 -10197.516)" fill="none"/>
    <rect id="Rectángulo_352266" data-name="Rectángulo 352266" width="6.809" height="6.809" transform="translate(3180.436 -10159.689)" fill="#fff"/>
    <rect id="Rectángulo_352267" data-name="Rectángulo 352267" width="6.809" height="4.417" transform="translate(3189.43 -10157.298)" fill="#fff"/>
    <rect id="Rectángulo_352268" data-name="Rectángulo 352268" width="3.995" height="4.417" transform="translate(3199.832 -10157.298)" fill="#fff"/>
    <rect id="Rectángulo_352269" data-name="Rectángulo 352269" width="9.268" height="11.586" transform="translate(3222.682 -10205.582)" fill="#fff"/>
    <rect id="Rectángulo_352270" data-name="Rectángulo 352270" width="9.268" height="11.586" transform="translate(3222.682 -10205.582)" fill="none"/>
    <rect id="Rectángulo_352271" data-name="Rectángulo 352271" width="115.141" height="57.909" transform="translate(3170.431 -10263.683)" fill="#ffa031"/>
    <path id="Trazado_733208" data-name="Trazado 733208" d="M131.2,266.747s-.016-.363-.023-1.047q-.009-1.049-.025-3.024c-.013-2.663-.031-6.557-.056-11.561-.029-10.015-.069-24.463-.12-42.278l.224.223-115.131.077h-.008l.3-.3c-.007,20.418-.013,40.009-.017,57.909l-.283-.283,82.689.135,23.853.079,6.374.035,1.652.017c.372.006.571.017.571.017s-.176.012-.538.017l-1.619.017-6.316.035-23.789.077-82.878.137h-.284v-.284c-.006-17.9-.012-37.491-.017-57.909v-.3h.31l115.131.077h.224v.224c-.051,17.873-.091,32.366-.12,42.414-.024,4.984-.043,8.86-.055,11.512q-.017,1.948-.025,2.983c-.007.67-.023,1-.023,1" transform="translate(3154.375 -10472.521)" fill="#263238"/>
    <rect id="Rectángulo_352272" data-name="Rectángulo 352272" width="23.391" height="10.5" transform="translate(3180.436 -10255.315)" fill="#fff"/>
    <rect id="Rectángulo_352273" data-name="Rectángulo 352273" width="23.39" height="10.5" transform="translate(3180.436 -10255.315)" fill="none"/>
    <rect id="Rectángulo_352274" data-name="Rectángulo 352274" width="6.809" height="6.809" transform="translate(3180.436 -10217.488)" fill="#fff"/>
    <rect id="Rectángulo_352275" data-name="Rectángulo 352275" width="6.809" height="4.417" transform="translate(3189.43 -10215.097)" fill="#fff"/>
    <rect id="Rectángulo_352276" data-name="Rectángulo 352276" width="3.995" height="4.417" transform="translate(3199.832 -10215.097)" fill="#fff"/>
    <rect id="Rectángulo_352277" data-name="Rectángulo 352277" width="9.268" height="11.586" transform="translate(3222.682 -10263.38)" fill="#fff"/>
    <rect id="Rectángulo_352278" data-name="Rectángulo 352278" width="9.268" height="11.586" transform="translate(3222.682 -10263.38)" fill="none"/>
    <rect id="Rectángulo_352279" data-name="Rectángulo 352279" width="115.141" height="5.753" transform="translate(3170.431 -10205.884)"/>
    <rect id="Rectángulo_352280" data-name="Rectángulo 352280" width="115.14" height="5.752" transform="translate(3170.432 -10205.883)" fill="none"/>
    <path id="Trazado_733209" data-name="Trazado 733209" d="M.26,402.206H12.98V16.941H.26Zm9.122-13.829a2.763,2.763,0,1,1-5.525,0V377.919a2.763,2.763,0,0,1,5.525,0Zm0-28.8a2.763,2.763,0,1,1-5.525,0V349.119a2.763,2.763,0,1,1,5.525,0Zm0-28.8a2.763,2.763,0,0,1-5.525,0V320.319a2.763,2.763,0,0,1,5.525,0Zm0-28.8a2.763,2.763,0,0,1-5.525,0V291.52a2.763,2.763,0,1,1,5.525,0Zm0-28.8a2.763,2.763,0,1,1-5.525,0V262.72a2.763,2.763,0,1,1,5.525,0Zm0-28.8a2.763,2.763,0,0,1-5.525,0V233.92a2.763,2.763,0,1,1,5.525,0Zm0-28.8a2.763,2.763,0,1,1-5.525,0V205.119a2.763,2.763,0,1,1,5.525,0Zm0-28.8a2.763,2.763,0,0,1-5.525,0V176.319a2.763,2.763,0,1,1,5.525,0Zm0-28.8a2.763,2.763,0,1,1-5.525,0V147.52a2.763,2.763,0,0,1,5.525,0Zm0-28.8a2.763,2.763,0,1,1-5.525,0V118.72a2.763,2.763,0,1,1,5.525,0Zm0-28.8a2.763,2.763,0,1,1-5.525,0V89.92a2.763,2.763,0,0,1,5.525,0Zm0-28.8a2.763,2.763,0,1,1-5.525,0V61.12a2.763,2.763,0,0,1,5.525,0Zm0-30.276a2.763,2.763,0,0,1-5.525,0V30.844a2.763,2.763,0,0,1,5.525,0Z" transform="translate(3151.953 -10502.478)" fill="#d1e6e6"/>
    <path id="Trazado_733210" data-name="Trazado 733210" d="M8.937,39.835a7.25,7.25,0,0,1-.117-1.5c-.025-1.089-.058-2.464-.1-4.1-.012-.878-.024-1.824-.037-2.832,0-.51-.01-1.037-.015-1.577a3.034,3.034,0,0,0-.257-1.511,2.474,2.474,0,0,0-4.7,1.066c-.008,2.635-.016,5.146-.023,7.449-.006,1.131-.01,2.21-.016,3.229a2.545,2.545,0,0,0,1.374,2.065,2.593,2.593,0,0,0,2.108.117A2.679,2.679,0,0,0,8.435,41.2a4.345,4.345,0,0,0,.5-1.368.8.8,0,0,1,.03.4,2.532,2.532,0,0,1-.332,1.1,2.853,2.853,0,0,1-1.353,1.222A2.931,2.931,0,0,1,4.858,42.5a2.985,2.985,0,0,1-1.682-2.4c-.037-1.06-.028-2.117-.042-3.271-.007-2.3-.015-4.814-.023-7.449a3.049,3.049,0,0,1,5.8-1.306A3.576,3.576,0,0,1,9.2,29.821c-.006.54-.01,1.067-.015,1.577-.014,1.008-.025,1.954-.037,2.832-.038,1.639-.071,3.012-.1,4.1a7.25,7.25,0,0,1-.117,1.5" transform="translate(3152.398 -10501.01)" fill="#263238"/>
    <path id="Trazado_733211" data-name="Trazado 733211" d="M8.937,66.017a7.25,7.25,0,0,1-.117-1.5c-.025-1.089-.058-2.463-.1-4.1-.012-.878-.024-1.824-.037-2.831Q8.68,56.815,8.672,56a3.037,3.037,0,0,0-.257-1.511,2.474,2.474,0,0,0-4.7,1.067C3.7,58.194,3.7,60.7,3.689,63.007c-.006,1.131-.01,2.21-.016,3.229A2.544,2.544,0,0,0,5.047,68.3a2.593,2.593,0,0,0,2.108.117,2.684,2.684,0,0,0,1.28-1.031,4.345,4.345,0,0,0,.5-1.369.8.8,0,0,1,.03.4,2.532,2.532,0,0,1-.332,1.1A2.848,2.848,0,0,1,7.282,68.73a2.935,2.935,0,0,1-2.424-.046,2.989,2.989,0,0,1-1.682-2.405c-.037-1.06-.028-2.117-.042-3.271-.007-2.3-.015-4.814-.023-7.449a3.049,3.049,0,0,1,5.8-1.306A3.576,3.576,0,0,1,9.2,56q-.009.812-.015,1.578c-.014,1.007-.025,1.953-.037,2.831-.038,1.639-.071,3.012-.1,4.1a7.25,7.25,0,0,1-.117,1.5" transform="translate(3152.398 -10496.917)" fill="#263238"/>
    <path id="Trazado_733212" data-name="Trazado 733212" d="M8.937,90.923a7.256,7.256,0,0,1-.117-1.5c-.025-1.088-.058-2.463-.1-4.1-.012-.878-.024-1.824-.037-2.832q-.007-.767-.015-1.577A3.034,3.034,0,0,0,8.415,79.4a2.474,2.474,0,0,0-4.7,1.066C3.7,83.1,3.7,85.61,3.689,87.913c-.006,1.131-.01,2.21-.016,3.229a2.545,2.545,0,0,0,1.374,2.065,2.593,2.593,0,0,0,2.108.117,2.679,2.679,0,0,0,1.28-1.033,4.345,4.345,0,0,0,.5-1.368c.016,0,.045.135.03.4a2.524,2.524,0,0,1-.332,1.094,2.849,2.849,0,0,1-1.353,1.223,2.935,2.935,0,0,1-2.424-.046,2.989,2.989,0,0,1-1.682-2.405c-.037-1.06-.028-2.117-.042-3.271-.007-2.3-.015-4.814-.023-7.449a3.049,3.049,0,0,1,5.8-1.306A3.577,3.577,0,0,1,9.2,80.909q-.009.81-.015,1.577c-.014,1.008-.025,1.954-.037,2.832-.038,1.639-.071,3.012-.1,4.1a7.257,7.257,0,0,1-.117,1.5" transform="translate(3152.398 -10493.022)" fill="#263238"/>
    <path id="Trazado_733213" data-name="Trazado 733213" d="M8.937,115.828a7.231,7.231,0,0,1-.117-1.5c-.025-1.089-.058-2.463-.1-4.1-.012-.878-.024-1.824-.037-2.832q-.007-.767-.015-1.577a3.037,3.037,0,0,0-.257-1.511,2.474,2.474,0,0,0-4.7,1.066c-.008,2.635-.016,5.146-.023,7.448-.006,1.131-.01,2.211-.016,3.23a2.545,2.545,0,0,0,1.374,2.065,2.593,2.593,0,0,0,2.108.117,2.679,2.679,0,0,0,1.28-1.033,4.345,4.345,0,0,0,.5-1.369.806.806,0,0,1,.03.4,2.524,2.524,0,0,1-.332,1.094,2.849,2.849,0,0,1-1.353,1.223,2.936,2.936,0,0,1-2.424-.046,2.989,2.989,0,0,1-1.682-2.405c-.037-1.06-.028-2.117-.042-3.272-.007-2.3-.015-4.813-.023-7.448a3.048,3.048,0,0,1,5.8-1.306,3.576,3.576,0,0,1,.286,1.751q-.009.81-.015,1.577c-.014,1.008-.025,1.954-.037,2.832-.038,1.639-.071,3.012-.1,4.1a7.231,7.231,0,0,1-.117,1.5" transform="translate(3152.398 -10489.129)" fill="#263238"/>
    <path id="Trazado_733214" data-name="Trazado 733214" d="M8.937,140.734a7.25,7.25,0,0,1-.117-1.5c-.025-1.089-.058-2.463-.1-4.1-.012-.878-.024-1.824-.037-2.832q-.007-.765-.015-1.577a3.037,3.037,0,0,0-.257-1.511,2.474,2.474,0,0,0-4.7,1.067c-.008,2.634-.016,5.145-.023,7.448-.006,1.131-.01,2.21-.016,3.229a2.544,2.544,0,0,0,1.374,2.065,2.593,2.593,0,0,0,2.108.117,2.679,2.679,0,0,0,1.28-1.033,4.335,4.335,0,0,0,.5-1.368.8.8,0,0,1,.03.4,2.532,2.532,0,0,1-.332,1.1,2.853,2.853,0,0,1-1.353,1.222,2.935,2.935,0,0,1-2.424-.046A2.989,2.989,0,0,1,3.176,141c-.037-1.06-.028-2.117-.042-3.271-.007-2.3-.015-4.814-.023-7.449a3.049,3.049,0,0,1,5.8-1.306A3.576,3.576,0,0,1,9.2,130.72q-.009.812-.015,1.577c-.014,1.008-.025,1.954-.037,2.832-.038,1.639-.071,3.012-.1,4.1a7.25,7.25,0,0,1-.117,1.5" transform="translate(3152.398 -10485.234)" fill="#263238"/>
    <path id="Trazado_733215" data-name="Trazado 733215" d="M8.937,165.64a7.256,7.256,0,0,1-.117-1.5c-.025-1.088-.058-2.463-.1-4.1-.012-.878-.024-1.824-.037-2.832,0-.51-.01-1.037-.015-1.577a3.034,3.034,0,0,0-.257-1.511,2.474,2.474,0,0,0-4.7,1.066c-.008,2.635-.016,5.146-.023,7.449-.006,1.131-.01,2.21-.016,3.229a2.545,2.545,0,0,0,1.374,2.065,2.593,2.593,0,0,0,2.108.117,2.679,2.679,0,0,0,1.28-1.033,4.345,4.345,0,0,0,.5-1.368.8.8,0,0,1,.03.4,2.524,2.524,0,0,1-.332,1.094,2.849,2.849,0,0,1-1.353,1.223,2.931,2.931,0,0,1-2.424-.047,2.985,2.985,0,0,1-1.682-2.4c-.037-1.06-.028-2.117-.042-3.271-.007-2.3-.015-4.814-.023-7.449a3.049,3.049,0,0,1,5.8-1.306,3.576,3.576,0,0,1,.286,1.751c-.006.54-.01,1.067-.015,1.577-.014,1.008-.025,1.954-.037,2.832-.038,1.637-.071,3.012-.1,4.1a7.257,7.257,0,0,1-.117,1.5" transform="translate(3152.398 -10481.341)" fill="#263238"/>
    <path id="Trazado_733216" data-name="Trazado 733216" d="M8.937,190.546a7.25,7.25,0,0,1-.117-1.5c-.025-1.089-.058-2.463-.1-4.1-.012-.878-.024-1.824-.037-2.832,0-.51-.01-1.037-.015-1.577a3.036,3.036,0,0,0-.257-1.511,2.474,2.474,0,0,0-4.7,1.066c-.008,2.635-.016,5.146-.023,7.449-.006,1.131-.01,2.21-.016,3.229a2.545,2.545,0,0,0,1.374,2.065,2.6,2.6,0,0,0,2.108.117,2.679,2.679,0,0,0,1.28-1.033,4.345,4.345,0,0,0,.5-1.368.8.8,0,0,1,.03.4,2.532,2.532,0,0,1-.332,1.1,2.853,2.853,0,0,1-1.353,1.222,2.931,2.931,0,0,1-2.424-.047,2.985,2.985,0,0,1-1.682-2.4c-.037-1.06-.028-2.117-.042-3.271-.007-2.3-.015-4.814-.023-7.449a3.049,3.049,0,0,1,5.8-1.306,3.577,3.577,0,0,1,.286,1.751c-.006.54-.01,1.067-.015,1.577-.014,1.008-.025,1.954-.037,2.832-.038,1.639-.071,3.012-.1,4.1a7.25,7.25,0,0,1-.117,1.5" transform="translate(3152.398 -10477.446)" fill="#263238"/>
    <path id="Trazado_733217" data-name="Trazado 733217" d="M8.937,215.452a7.25,7.25,0,0,1-.117-1.5c-.025-1.089-.058-2.463-.1-4.1-.012-.878-.024-1.824-.037-2.832,0-.51-.01-1.037-.015-1.577a3.036,3.036,0,0,0-.257-1.511,2.474,2.474,0,0,0-4.7,1.066c-.008,2.635-.016,5.146-.023,7.449-.006,1.131-.01,2.21-.016,3.229a2.545,2.545,0,0,0,1.374,2.065,2.6,2.6,0,0,0,2.108.117,2.679,2.679,0,0,0,1.28-1.033,4.345,4.345,0,0,0,.5-1.368c.016,0,.045.135.03.4a2.532,2.532,0,0,1-.332,1.1,2.853,2.853,0,0,1-1.353,1.222,2.931,2.931,0,0,1-2.424-.047,2.985,2.985,0,0,1-1.682-2.4c-.037-1.06-.028-2.117-.042-3.271-.007-2.3-.015-4.814-.023-7.449a3.049,3.049,0,0,1,5.8-1.306,3.576,3.576,0,0,1,.286,1.751c-.006.54-.01,1.067-.015,1.577-.014,1.008-.025,1.954-.037,2.832-.038,1.639-.071,3.012-.1,4.1a7.25,7.25,0,0,1-.117,1.5" transform="translate(3152.398 -10473.552)" fill="#263238"/>
    <path id="Trazado_733218" data-name="Trazado 733218" d="M8.937,240.358a7.25,7.25,0,0,1-.117-1.5c-.025-1.089-.058-2.463-.1-4.1-.012-.878-.024-1.824-.037-2.831q-.007-.767-.015-1.578a3.037,3.037,0,0,0-.257-1.511,2.474,2.474,0,0,0-4.7,1.066c-.008,2.635-.016,5.146-.023,7.449-.006,1.131-.01,2.21-.016,3.229a2.545,2.545,0,0,0,1.374,2.065,2.593,2.593,0,0,0,2.108.117,2.679,2.679,0,0,0,1.28-1.033,4.335,4.335,0,0,0,.5-1.368.8.8,0,0,1,.03.4,2.532,2.532,0,0,1-.332,1.1,2.853,2.853,0,0,1-1.353,1.222,2.931,2.931,0,0,1-2.424-.047,2.985,2.985,0,0,1-1.682-2.4c-.037-1.06-.028-2.117-.042-3.271-.007-2.3-.015-4.814-.023-7.449a3.049,3.049,0,0,1,5.8-1.306,3.576,3.576,0,0,1,.286,1.751q-.009.812-.015,1.578c-.014,1.007-.025,1.953-.037,2.831-.038,1.639-.071,3.012-.1,4.1a7.25,7.25,0,0,1-.117,1.5" transform="translate(3152.398 -10469.657)" fill="#263238"/>
    <path id="Trazado_733219" data-name="Trazado 733219" d="M8.937,265.263a7.244,7.244,0,0,1-.117-1.5c-.025-1.089-.058-2.463-.1-4.1-.012-.877-.024-1.824-.037-2.831q-.007-.767-.015-1.577a3.041,3.041,0,0,0-.257-1.513,2.475,2.475,0,0,0-4.7,1.066c-.008,2.636-.016,5.147-.023,7.449-.006,1.131-.01,2.211-.016,3.23a2.545,2.545,0,0,0,1.374,2.064,2.588,2.588,0,0,0,2.108.117,2.678,2.678,0,0,0,1.28-1.031,4.345,4.345,0,0,0,.5-1.369.806.806,0,0,1,.03.4,2.528,2.528,0,0,1-.332,1.094,2.849,2.849,0,0,1-1.353,1.223,2.936,2.936,0,0,1-2.424-.047,2.987,2.987,0,0,1-1.682-2.4c-.037-1.062-.028-2.118-.042-3.272-.007-2.3-.015-4.813-.023-7.449a3.049,3.049,0,0,1,5.8-1.306,3.581,3.581,0,0,1,.286,1.752q-.009.812-.015,1.577c-.014,1.007-.025,1.954-.037,2.831-.038,1.64-.071,3.013-.1,4.1a7.244,7.244,0,0,1-.117,1.5" transform="translate(3152.398 -10465.764)" fill="#263238"/>
    <path id="Trazado_733220" data-name="Trazado 733220" d="M8.937,290.169a7.25,7.25,0,0,1-.117-1.5c-.025-1.089-.058-2.463-.1-4.1-.012-.878-.024-1.824-.037-2.832q-.007-.767-.015-1.577a3.037,3.037,0,0,0-.257-1.511,2.474,2.474,0,0,0-4.7,1.066c-.008,2.635-.016,5.146-.023,7.449-.006,1.131-.01,2.21-.016,3.229a2.545,2.545,0,0,0,1.374,2.065,2.6,2.6,0,0,0,2.108.117,2.679,2.679,0,0,0,1.28-1.033,4.344,4.344,0,0,0,.5-1.368c.016,0,.045.135.03.4a2.524,2.524,0,0,1-.332,1.094,2.85,2.85,0,0,1-1.353,1.223,2.932,2.932,0,0,1-2.424-.047,2.985,2.985,0,0,1-1.682-2.4c-.037-1.06-.028-2.117-.042-3.271-.007-2.3-.015-4.814-.023-7.449a3.049,3.049,0,0,1,5.8-1.306,3.576,3.576,0,0,1,.286,1.751q-.009.81-.015,1.577c-.014,1.008-.025,1.954-.037,2.832-.038,1.639-.071,3.012-.1,4.1a7.25,7.25,0,0,1-.117,1.5" transform="translate(3152.398 -10461.869)" fill="#263238"/>
    <path id="Trazado_733221" data-name="Trazado 733221" d="M8.937,315.075a7.249,7.249,0,0,1-.117-1.5c-.025-1.089-.058-2.463-.1-4.1-.012-.878-.024-1.824-.037-2.831q-.007-.767-.015-1.578a3.037,3.037,0,0,0-.257-1.511,2.474,2.474,0,0,0-4.7,1.066c-.008,2.635-.016,5.146-.023,7.449-.006,1.131-.01,2.21-.016,3.229a2.545,2.545,0,0,0,1.374,2.065,2.6,2.6,0,0,0,2.108.117,2.679,2.679,0,0,0,1.28-1.033,4.345,4.345,0,0,0,.5-1.368.8.8,0,0,1,.03.4,2.532,2.532,0,0,1-.332,1.1,2.854,2.854,0,0,1-1.353,1.222,2.932,2.932,0,0,1-2.424-.047,2.985,2.985,0,0,1-1.682-2.4c-.037-1.06-.028-2.117-.042-3.271-.007-2.3-.015-4.814-.023-7.449a3.049,3.049,0,0,1,5.8-1.306,3.577,3.577,0,0,1,.286,1.751q-.009.812-.015,1.578c-.014,1.007-.025,1.953-.037,2.831-.038,1.638-.071,3.012-.1,4.1a7.25,7.25,0,0,1-.117,1.5" transform="translate(3152.398 -10457.975)" fill="#263238"/>
    <path id="Trazado_733222" data-name="Trazado 733222" d="M8.937,339.981a7.25,7.25,0,0,1-.117-1.5c-.025-1.089-.058-2.463-.1-4.1-.012-.878-.024-1.824-.037-2.832q-.007-.765-.015-1.577a3.034,3.034,0,0,0-.257-1.511,2.474,2.474,0,0,0-4.7,1.066c-.008,2.635-.016,5.146-.023,7.449-.006,1.131-.01,2.21-.016,3.229a2.545,2.545,0,0,0,1.374,2.065,2.593,2.593,0,0,0,2.108.117,2.679,2.679,0,0,0,1.28-1.033,4.345,4.345,0,0,0,.5-1.368.8.8,0,0,1,.03.4,2.524,2.524,0,0,1-.332,1.094,2.85,2.85,0,0,1-1.353,1.223,2.932,2.932,0,0,1-2.424-.047,2.985,2.985,0,0,1-1.682-2.4c-.037-1.06-.028-2.117-.042-3.271-.007-2.3-.015-4.814-.023-7.449a3.049,3.049,0,0,1,5.8-1.306,3.576,3.576,0,0,1,.286,1.751q-.009.812-.015,1.577c-.014,1.008-.025,1.954-.037,2.832-.038,1.639-.071,3.012-.1,4.1a7.25,7.25,0,0,1-.117,1.5" transform="translate(3152.398 -10454.081)" fill="#263238"/>
    <path id="Trazado_733223" data-name="Trazado 733223" d="M.3,16.951s.984-.017,3.072-.03l9.647-.043h.073v.073c.024,41.743.118,198.463.228,385.246v.32H0v-.3c.049-107.1.091-203.447.124-273.035C.162,94.424.193,66.354.215,46.963c.019-9.675.032-17.182.043-22.281.009-2.535.016-4.468.021-5.778S.3,16.951.3,16.951s.014.682.021,2,.013,3.266.022,5.818C.353,29.879.368,37.41.386,47.117c.022,19.407.053,47.5.091,82.289.031,69.53.075,165.8.124,272.811l-.3-.3h12.72l-.3.3v-.02c.111-186.783.2-343.5.229-385.246l.072.072-9.606-.042C1.321,16.968.3,16.951.3,16.951" transform="translate(3151.912 -10502.486)" fill="#263238"/>
    <path id="Trazado_733224" data-name="Trazado 733224" d="M177.448,402.206h12.72V16.941h-12.72Zm9.122-13.829a2.763,2.763,0,1,1-5.525,0V377.919a2.763,2.763,0,0,1,5.525,0Zm0-28.8a2.763,2.763,0,1,1-5.525,0V349.119a2.763,2.763,0,1,1,5.525,0Zm0-28.8a2.763,2.763,0,0,1-5.525,0V320.319a2.763,2.763,0,0,1,5.525,0Zm0-28.8a2.763,2.763,0,0,1-5.525,0V291.52a2.763,2.763,0,1,1,5.525,0Zm0-28.8a2.763,2.763,0,1,1-5.525,0V262.72a2.763,2.763,0,1,1,5.525,0Zm0-28.8a2.763,2.763,0,1,1-5.525,0V233.92a2.763,2.763,0,1,1,5.525,0Zm0-28.8a2.763,2.763,0,1,1-5.525,0V205.119a2.763,2.763,0,1,1,5.525,0Zm0-28.8a2.763,2.763,0,1,1-5.525,0V176.319a2.763,2.763,0,1,1,5.525,0Zm0-28.8a2.763,2.763,0,1,1-5.525,0V147.52a2.763,2.763,0,1,1,5.525,0Zm0-28.8a2.763,2.763,0,1,1-5.525,0V118.72a2.763,2.763,0,1,1,5.525,0Zm0-28.8a2.763,2.763,0,1,1-5.525,0V89.92a2.763,2.763,0,1,1,5.525,0Zm0-28.8a2.763,2.763,0,1,1-5.525,0V61.12a2.763,2.763,0,1,1,5.525,0Zm0-30.276a2.763,2.763,0,1,1-5.525,0V30.844a2.763,2.763,0,1,1,5.525,0Z" transform="translate(3179.657 -10502.478)" fill="#d1e6e6"/>
    <path id="Trazado_733225" data-name="Trazado 733225" d="M186.125,39.835a7.249,7.249,0,0,1-.117-1.5c-.025-1.089-.058-2.464-.1-4.1-.012-.878-.024-1.824-.037-2.832,0-.51-.01-1.037-.015-1.577a3.034,3.034,0,0,0-.257-1.511,2.474,2.474,0,0,0-4.7,1.066c-.008,2.635-.016,5.146-.023,7.449-.006,1.131-.012,2.21-.016,3.229a2.547,2.547,0,0,0,1.375,2.065,2.59,2.59,0,0,0,2.107.117,2.679,2.679,0,0,0,1.28-1.033,4.346,4.346,0,0,0,.5-1.368.8.8,0,0,1,.03.4,2.532,2.532,0,0,1-.332,1.1,2.854,2.854,0,0,1-1.353,1.222,2.931,2.931,0,0,1-2.424-.047,2.985,2.985,0,0,1-1.683-2.4c-.037-1.06-.028-2.117-.042-3.271-.007-2.3-.015-4.814-.023-7.449a3.049,3.049,0,0,1,5.8-1.306,3.577,3.577,0,0,1,.286,1.751c0,.54-.01,1.067-.015,1.577-.013,1.008-.025,1.954-.037,2.832-.038,1.639-.071,3.012-.1,4.1a7.251,7.251,0,0,1-.117,1.5" transform="translate(3180.103 -10501.01)" fill="#263238"/>
    <path id="Trazado_733226" data-name="Trazado 733226" d="M186.125,66.017a7.249,7.249,0,0,1-.117-1.5c-.025-1.089-.058-2.463-.1-4.1-.012-.878-.024-1.824-.037-2.831q-.007-.767-.015-1.578a3.036,3.036,0,0,0-.257-1.511,2.474,2.474,0,0,0-4.7,1.067c-.008,2.634-.016,5.145-.023,7.448-.006,1.131-.012,2.21-.016,3.229a2.545,2.545,0,0,0,1.375,2.065,2.59,2.59,0,0,0,2.107.117,2.684,2.684,0,0,0,1.28-1.031,4.346,4.346,0,0,0,.5-1.369.8.8,0,0,1,.03.4,2.532,2.532,0,0,1-.332,1.1,2.848,2.848,0,0,1-1.353,1.222,2.935,2.935,0,0,1-2.424-.046,2.989,2.989,0,0,1-1.683-2.405c-.037-1.06-.028-2.117-.042-3.271-.007-2.3-.015-4.814-.023-7.449a3.049,3.049,0,0,1,5.8-1.306A3.577,3.577,0,0,1,186.39,56q-.007.812-.015,1.578c-.013,1.007-.025,1.953-.037,2.831-.038,1.639-.071,3.012-.1,4.1a7.251,7.251,0,0,1-.117,1.5" transform="translate(3180.103 -10496.917)" fill="#263238"/>
    <path id="Trazado_733227" data-name="Trazado 733227" d="M186.125,90.923a7.256,7.256,0,0,1-.117-1.5c-.025-1.088-.058-2.463-.1-4.1-.012-.878-.024-1.824-.037-2.832q-.007-.767-.015-1.577A3.034,3.034,0,0,0,185.6,79.4a2.474,2.474,0,0,0-4.7,1.066c-.008,2.635-.016,5.146-.023,7.449-.006,1.131-.012,2.21-.016,3.229a2.547,2.547,0,0,0,1.375,2.065,2.59,2.59,0,0,0,2.107.117,2.679,2.679,0,0,0,1.28-1.033,4.346,4.346,0,0,0,.5-1.368c.016,0,.045.135.03.4a2.524,2.524,0,0,1-.332,1.094,2.85,2.85,0,0,1-1.353,1.223,2.935,2.935,0,0,1-2.424-.046,2.989,2.989,0,0,1-1.683-2.405c-.037-1.06-.028-2.117-.042-3.271-.007-2.3-.015-4.814-.023-7.449a3.049,3.049,0,0,1,5.8-1.306,3.577,3.577,0,0,1,.286,1.751q-.007.81-.015,1.577c-.013,1.008-.025,1.954-.037,2.832-.038,1.639-.071,3.012-.1,4.1a7.257,7.257,0,0,1-.117,1.5" transform="translate(3180.103 -10493.022)" fill="#263238"/>
    <path id="Trazado_733228" data-name="Trazado 733228" d="M186.125,115.828a7.23,7.23,0,0,1-.117-1.5c-.025-1.089-.058-2.463-.1-4.1-.012-.878-.024-1.824-.037-2.832q-.007-.767-.015-1.577a3.036,3.036,0,0,0-.257-1.511,2.474,2.474,0,0,0-4.7,1.066c-.008,2.635-.016,5.146-.023,7.448-.006,1.131-.012,2.211-.016,3.23a2.547,2.547,0,0,0,1.375,2.065,2.59,2.59,0,0,0,2.107.117,2.679,2.679,0,0,0,1.28-1.033,4.346,4.346,0,0,0,.5-1.369.806.806,0,0,1,.03.4,2.524,2.524,0,0,1-.332,1.094,2.85,2.85,0,0,1-1.353,1.223,2.936,2.936,0,0,1-2.424-.046,2.989,2.989,0,0,1-1.683-2.405c-.037-1.06-.028-2.117-.042-3.272-.007-2.3-.015-4.813-.023-7.448a3.048,3.048,0,0,1,5.8-1.306,3.577,3.577,0,0,1,.286,1.751q-.007.81-.015,1.577c-.013,1.008-.025,1.954-.037,2.832-.038,1.639-.071,3.012-.1,4.1a7.231,7.231,0,0,1-.117,1.5" transform="translate(3180.103 -10489.129)" fill="#263238"/>
    <path id="Trazado_733229" data-name="Trazado 733229" d="M186.125,140.734a7.249,7.249,0,0,1-.117-1.5c-.025-1.089-.058-2.463-.1-4.1-.012-.878-.024-1.824-.037-2.832q-.007-.765-.015-1.577a3.036,3.036,0,0,0-.257-1.511,2.474,2.474,0,0,0-4.7,1.067c-.008,2.634-.016,5.145-.023,7.448-.006,1.131-.012,2.21-.016,3.229a2.545,2.545,0,0,0,1.375,2.065,2.59,2.59,0,0,0,2.107.117,2.679,2.679,0,0,0,1.28-1.033,4.335,4.335,0,0,0,.5-1.368.8.8,0,0,1,.03.4,2.532,2.532,0,0,1-.332,1.1,2.854,2.854,0,0,1-1.353,1.222,2.935,2.935,0,0,1-2.424-.046A2.989,2.989,0,0,1,180.364,141c-.037-1.06-.028-2.117-.042-3.271-.007-2.3-.015-4.814-.023-7.449a3.049,3.049,0,0,1,5.8-1.306,3.577,3.577,0,0,1,.286,1.751q-.007.812-.015,1.577c-.013,1.008-.025,1.954-.037,2.832-.038,1.639-.071,3.012-.1,4.1a7.251,7.251,0,0,1-.117,1.5" transform="translate(3180.103 -10485.234)" fill="#263238"/>
    <path id="Trazado_733230" data-name="Trazado 733230" d="M186.125,165.64a7.255,7.255,0,0,1-.117-1.5c-.025-1.088-.058-2.463-.1-4.1-.012-.878-.024-1.824-.037-2.832,0-.51-.01-1.037-.015-1.577a3.034,3.034,0,0,0-.257-1.511,2.474,2.474,0,0,0-4.7,1.066c-.008,2.635-.016,5.146-.023,7.449-.006,1.131-.012,2.21-.016,3.229a2.547,2.547,0,0,0,1.375,2.065,2.59,2.59,0,0,0,2.107.117,2.679,2.679,0,0,0,1.28-1.033,4.346,4.346,0,0,0,.5-1.368.8.8,0,0,1,.03.4,2.524,2.524,0,0,1-.332,1.094,2.85,2.85,0,0,1-1.353,1.223,2.931,2.931,0,0,1-2.424-.047,2.985,2.985,0,0,1-1.683-2.4c-.037-1.06-.028-2.117-.042-3.271-.007-2.3-.015-4.814-.023-7.449a3.049,3.049,0,0,1,5.8-1.306,3.577,3.577,0,0,1,.286,1.751c0,.54-.01,1.067-.015,1.577-.013,1.008-.025,1.954-.037,2.832-.038,1.637-.071,3.012-.1,4.1a7.257,7.257,0,0,1-.117,1.5" transform="translate(3180.103 -10481.341)" fill="#263238"/>
    <path id="Trazado_733231" data-name="Trazado 733231" d="M186.125,190.546a7.249,7.249,0,0,1-.117-1.5c-.025-1.089-.058-2.463-.1-4.1-.012-.878-.024-1.824-.037-2.832,0-.51-.01-1.037-.015-1.577a3.036,3.036,0,0,0-.257-1.511,2.474,2.474,0,0,0-4.7,1.066c-.008,2.635-.016,5.146-.023,7.449-.006,1.131-.012,2.21-.016,3.229a2.544,2.544,0,0,0,1.375,2.065,2.6,2.6,0,0,0,2.107.117,2.679,2.679,0,0,0,1.28-1.033,4.346,4.346,0,0,0,.5-1.368.8.8,0,0,1,.03.4,2.532,2.532,0,0,1-.332,1.1,2.853,2.853,0,0,1-1.353,1.222,2.931,2.931,0,0,1-2.424-.047,2.986,2.986,0,0,1-1.683-2.4c-.037-1.06-.028-2.117-.042-3.271-.007-2.3-.015-4.814-.023-7.449a3.049,3.049,0,0,1,5.8-1.306,3.577,3.577,0,0,1,.286,1.751c0,.54-.01,1.067-.015,1.577-.013,1.008-.025,1.954-.037,2.832-.038,1.639-.071,3.012-.1,4.1a7.25,7.25,0,0,1-.117,1.5" transform="translate(3180.103 -10477.446)" fill="#263238"/>
    <path id="Trazado_733232" data-name="Trazado 733232" d="M186.125,215.452a7.249,7.249,0,0,1-.117-1.5c-.025-1.089-.058-2.463-.1-4.1-.012-.878-.024-1.824-.037-2.832,0-.51-.01-1.037-.015-1.577a3.036,3.036,0,0,0-.257-1.511,2.474,2.474,0,0,0-4.7,1.066c-.008,2.635-.016,5.146-.023,7.449-.006,1.131-.012,2.21-.016,3.229a2.544,2.544,0,0,0,1.375,2.065,2.6,2.6,0,0,0,2.107.117,2.679,2.679,0,0,0,1.28-1.033,4.346,4.346,0,0,0,.5-1.368c.016,0,.045.135.03.4a2.533,2.533,0,0,1-.332,1.1,2.854,2.854,0,0,1-1.353,1.222,2.931,2.931,0,0,1-2.424-.047,2.985,2.985,0,0,1-1.683-2.4c-.037-1.06-.028-2.117-.042-3.271-.007-2.3-.015-4.814-.023-7.449a3.049,3.049,0,0,1,5.8-1.306,3.577,3.577,0,0,1,.286,1.751c0,.54-.01,1.067-.015,1.577-.013,1.008-.025,1.954-.037,2.832-.038,1.639-.071,3.012-.1,4.1a7.251,7.251,0,0,1-.117,1.5" transform="translate(3180.103 -10473.552)" fill="#263238"/>
    <path id="Trazado_733233" data-name="Trazado 733233" d="M186.125,240.358a7.249,7.249,0,0,1-.117-1.5c-.025-1.089-.058-2.463-.1-4.1-.012-.878-.024-1.824-.037-2.831q-.007-.767-.015-1.578a3.036,3.036,0,0,0-.257-1.511,2.474,2.474,0,0,0-4.7,1.066c-.008,2.635-.016,5.146-.023,7.449-.006,1.131-.012,2.21-.016,3.229a2.544,2.544,0,0,0,1.375,2.065,2.59,2.59,0,0,0,2.107.117,2.679,2.679,0,0,0,1.28-1.033,4.336,4.336,0,0,0,.5-1.368.8.8,0,0,1,.03.4,2.533,2.533,0,0,1-.332,1.1,2.854,2.854,0,0,1-1.353,1.222,2.931,2.931,0,0,1-2.424-.047,2.985,2.985,0,0,1-1.683-2.4c-.037-1.06-.028-2.117-.042-3.271-.007-2.3-.015-4.814-.023-7.449a3.049,3.049,0,0,1,5.8-1.306,3.577,3.577,0,0,1,.286,1.751q-.007.812-.015,1.578c-.013,1.007-.025,1.953-.037,2.831-.038,1.639-.071,3.012-.1,4.1a7.251,7.251,0,0,1-.117,1.5" transform="translate(3180.103 -10469.657)" fill="#263238"/>
    <path id="Trazado_733234" data-name="Trazado 733234" d="M186.125,265.263a7.243,7.243,0,0,1-.117-1.5c-.025-1.089-.058-2.463-.1-4.1-.012-.877-.024-1.824-.037-2.831q-.007-.767-.015-1.577a3.041,3.041,0,0,0-.257-1.513,2.475,2.475,0,0,0-4.7,1.066c-.008,2.636-.016,5.147-.023,7.449-.006,1.131-.012,2.211-.016,3.23a2.544,2.544,0,0,0,1.375,2.064,2.585,2.585,0,0,0,2.107.117,2.678,2.678,0,0,0,1.28-1.031,4.346,4.346,0,0,0,.5-1.369.806.806,0,0,1,.03.4,2.529,2.529,0,0,1-.332,1.094,2.85,2.85,0,0,1-1.353,1.223,2.936,2.936,0,0,1-2.424-.047,2.987,2.987,0,0,1-1.683-2.4c-.037-1.062-.028-2.118-.042-3.272-.007-2.3-.015-4.813-.023-7.449a3.049,3.049,0,0,1,5.8-1.306,3.581,3.581,0,0,1,.286,1.752q-.007.812-.015,1.577c-.013,1.007-.025,1.954-.037,2.831-.038,1.64-.071,3.013-.1,4.1a7.245,7.245,0,0,1-.117,1.5" transform="translate(3180.103 -10465.764)" fill="#263238"/>
    <path id="Trazado_733235" data-name="Trazado 733235" d="M186.125,290.169a7.249,7.249,0,0,1-.117-1.5c-.025-1.089-.058-2.463-.1-4.1-.012-.878-.024-1.824-.037-2.832q-.007-.767-.015-1.577a3.036,3.036,0,0,0-.257-1.511,2.474,2.474,0,0,0-4.7,1.066c-.008,2.635-.016,5.146-.023,7.449-.006,1.131-.012,2.21-.016,3.229a2.544,2.544,0,0,0,1.375,2.065,2.6,2.6,0,0,0,2.107.117,2.679,2.679,0,0,0,1.28-1.033,4.345,4.345,0,0,0,.5-1.368c.016,0,.045.135.03.4a2.524,2.524,0,0,1-.332,1.094,2.85,2.85,0,0,1-1.353,1.223,2.932,2.932,0,0,1-2.424-.047,2.985,2.985,0,0,1-1.683-2.4c-.037-1.06-.028-2.117-.042-3.271-.007-2.3-.015-4.814-.023-7.449a3.049,3.049,0,0,1,5.8-1.306,3.577,3.577,0,0,1,.286,1.751q-.007.81-.015,1.577c-.013,1.008-.025,1.954-.037,2.832-.038,1.639-.071,3.012-.1,4.1a7.251,7.251,0,0,1-.117,1.5" transform="translate(3180.103 -10461.869)" fill="#263238"/>
    <path id="Trazado_733236" data-name="Trazado 733236" d="M186.125,315.075a7.248,7.248,0,0,1-.117-1.5c-.025-1.089-.058-2.463-.1-4.1-.012-.878-.024-1.824-.037-2.831q-.007-.767-.015-1.578a3.036,3.036,0,0,0-.257-1.511,2.474,2.474,0,0,0-4.7,1.066c-.008,2.635-.016,5.146-.023,7.449-.006,1.131-.012,2.21-.016,3.229a2.544,2.544,0,0,0,1.375,2.065,2.6,2.6,0,0,0,2.107.117,2.679,2.679,0,0,0,1.28-1.033,4.346,4.346,0,0,0,.5-1.368.8.8,0,0,1,.03.4,2.532,2.532,0,0,1-.332,1.1,2.854,2.854,0,0,1-1.353,1.222,2.932,2.932,0,0,1-2.424-.047,2.985,2.985,0,0,1-1.683-2.4c-.037-1.06-.028-2.117-.042-3.271-.007-2.3-.015-4.814-.023-7.449a3.049,3.049,0,0,1,5.8-1.306,3.577,3.577,0,0,1,.286,1.751q-.007.812-.015,1.578c-.013,1.007-.025,1.953-.037,2.831-.038,1.638-.071,3.012-.1,4.1a7.25,7.25,0,0,1-.117,1.5" transform="translate(3180.103 -10457.975)" fill="#263238"/>
    <path id="Trazado_733237" data-name="Trazado 733237" d="M186.125,339.981a7.249,7.249,0,0,1-.117-1.5c-.025-1.089-.058-2.463-.1-4.1-.012-.878-.024-1.824-.037-2.832q-.007-.765-.015-1.577a3.034,3.034,0,0,0-.257-1.511,2.474,2.474,0,0,0-4.7,1.066c-.008,2.635-.016,5.146-.023,7.449-.006,1.131-.012,2.21-.016,3.229a2.544,2.544,0,0,0,1.375,2.065,2.59,2.59,0,0,0,2.107.117,2.679,2.679,0,0,0,1.28-1.033,4.346,4.346,0,0,0,.5-1.368.8.8,0,0,1,.03.4,2.524,2.524,0,0,1-.332,1.094,2.85,2.85,0,0,1-1.353,1.223,2.932,2.932,0,0,1-2.424-.047,2.985,2.985,0,0,1-1.683-2.4c-.037-1.06-.028-2.117-.042-3.271-.007-2.3-.015-4.814-.023-7.449a3.049,3.049,0,0,1,5.8-1.306,3.577,3.577,0,0,1,.286,1.751q-.007.812-.015,1.577c-.013,1.008-.025,1.954-.037,2.832-.038,1.639-.071,3.012-.1,4.1a7.251,7.251,0,0,1-.117,1.5" transform="translate(3180.103 -10454.081)" fill="#263238"/>
    <path id="Trazado_733238" data-name="Trazado 733238" d="M177.489,16.951s.984-.017,3.072-.03l9.648-.043h.073v.073c.024,41.743.118,198.463.228,385.246v.32H177.188v-.3c.049-107.1.091-203.447.124-273.035.038-34.757.069-62.827.091-82.218.019-9.675.032-17.182.043-22.281.009-2.535.016-4.468.021-5.778s.022-1.953.022-1.953.014.682.021,2,.013,3.266.022,5.818c.009,5.115.024,12.646.043,22.352.022,19.407.053,47.5.091,82.289.031,69.53.075,165.8.124,272.811l-.3-.3h12.72l-.3.3v-.02c.111-186.783.2-343.5.229-385.246l.072.072-9.606-.042c-2.094-.013-3.114-.03-3.114-.03" transform="translate(3179.616 -10502.486)" fill="#263238"/>
    <path id="Trazado_733239" data-name="Trazado 733239" d="M44.822,359.955c-.11.136-3.7,7.1-4.289,8.453s-.571,6.071.338,7.05,1.352,1.669,1.746,1.64a10.517,10.517,0,0,0,2.086-1.57,1.944,1.944,0,0,0,3.189-.683s1.825.811,2.413-1.477c0,0,1.846-.389,1.634-1.84l-.315-.945a55.218,55.218,0,0,0,.9-6.049,8.476,8.476,0,0,0-.474-2.973Z" transform="translate(3158.242 -10494.036)" fill="#ffc09d"/>
    <path id="Trazado_733240" data-name="Trazado 733240" d="M60.552,312.055c-.543.542,2.712,21.275,2.087,23.385S51.3,369.212,51.3,369.212l-7.646-.456,7.261-37.6L49.28,318.351Z" transform="translate(3158.792 -10501.525)" fill="#ffc09d"/>
    <path id="Trazado_733241" data-name="Trazado 733241" d="M44.352,374.077a9.954,9.954,0,0,1,.821-1.7,18.217,18.217,0,0,0,.787-1.857,3.043,3.043,0,0,0,.246-1.065.758.758,0,0,0-.453-.731,1.331,1.331,0,0,0-.964.32,7.654,7.654,0,0,0-.925.705,13.439,13.439,0,0,0-1.378,1.457c-.734.893-1.184,1.466-1.258,1.415a5.236,5.236,0,0,1,.919-1.673,10.4,10.4,0,0,1,1.341-1.607,7.3,7.3,0,0,1,.977-.79,1.814,1.814,0,0,1,1.45-.408,1.323,1.323,0,0,1,.881,1.3,3.375,3.375,0,0,1-.318,1.274,12.8,12.8,0,0,1-.932,1.864c-.62,1.013-1.133,1.541-1.195,1.5" transform="translate(3158.411 -10492.761)" fill="#ff9b6c"/>
    <path id="Trazado_733242" data-name="Trazado 733242" d="M45.788,369.574c-.061-.014.027-.556.737-1a1.6,1.6,0,0,1,1.443-.088,1.468,1.468,0,0,1,.907,1.543,5.582,5.582,0,0,1-1.944,3.6c-.163-.087.956-1.608,1.344-3.651a.941.941,0,0,0-.539-.99,1.226,1.226,0,0,0-1.025-.034c-.6.25-.844.672-.923.617" transform="translate(3159.123 -10492.723)" fill="#ff9b6c"/>
    <path id="Trazado_733243" data-name="Trazado 733243" d="M49.334,372.214c-.153-.088.569-1.4.731-3.173a.871.871,0,0,0-.023-.464c-.023-.053-.114-.094-.265-.076a1.705,1.705,0,0,0-.787.414c-.424.377-.68.676-.754.62-.058-.043.052-.407.449-.917a1.856,1.856,0,0,1,1-.664.8.8,0,0,1,.852.3,1.262,1.262,0,0,1,.128.845c-.185,1.944-1.212,3.219-1.33,3.114" transform="translate(3159.506 -10492.789)" fill="#ff9b6c"/>
    <path id="Trazado_733244" data-name="Trazado 733244" d="M40.855,369.181A17.951,17.951,0,0,0,43.7,373.46c.361.4.871.826,1.383.65.475-.162.644-.742.687-1.243a6.565,6.565,0,0,0-1.034-4.095,5.417,5.417,0,0,0,1.375-6.871" transform="translate(3158.354 -10493.731)" fill="#ffc09d"/>
    <path id="Trazado_733245" data-name="Trazado 733245" d="M46.114,361.9c.027-.016.163.14.35.473a4.568,4.568,0,0,1,.488,1.559,5.553,5.553,0,0,1-.234,2.48,5.322,5.322,0,0,1-1.805,2.593l.069-.393a6.751,6.751,0,0,1,.977,2.377,6.451,6.451,0,0,1,.079,2.13,1.784,1.784,0,0,1-.482,1.034,1.077,1.077,0,0,1-1.166.182,4,4,0,0,1-1.339-1.249c-.339-.427-.634-.841-.887-1.228a8.063,8.063,0,0,1-1.309-2.677c.086-.043.587.977,1.658,2.434.269.363.576.75.923,1.153a3.8,3.8,0,0,0,1.162,1.052c.435.2.784-.179.857-.792a6.126,6.126,0,0,0-.087-1.921,6.4,6.4,0,0,0-.875-2.176l-.146-.23.216-.164a5.354,5.354,0,0,0,2.017-4.569,10.785,10.785,0,0,0-.467-2.068" transform="translate(3158.354 -10493.731)" fill="#ff9b6c"/>
    <path id="Trazado_733246" data-name="Trazado 733246" d="M40.98,274.675a3.714,3.714,0,0,1,1.537-2.059c7.213-4.454,16.137-5.5,24.518-4.263,2.177.319,4.546.917,5.822,2.729l.032.128a4.044,4.044,0,0,1-.635,4.018,8.513,8.513,0,0,1-3.311,2.285c-5.877,2.625-12.462,3.15-18.895,3.1a20.756,20.756,0,0,1-4.5-.4,7.951,7.951,0,0,1-3.962-2.093,3.212,3.212,0,0,1-.6-3.444" transform="translate(3158.336 -10508.434)" fill="#455a64"/>
    <g id="Grupo_1032999" data-name="Grupo 1032999" transform="translate(3199.07 -10240.562)" opacity="0.3">
      <g id="Grupo_1032998" data-name="Grupo 1032998">
        <g id="Grupo_1032997" data-name="Grupo 1032997" clip-path="url(#clip-path)">
          <path id="Trazado_733247" data-name="Trazado 733247" d="M40.98,274.675a3.714,3.714,0,0,1,1.537-2.059c7.213-4.454,16.137-5.5,24.518-4.263,2.177.319,4.546.917,5.822,2.729l.032.128a4.044,4.044,0,0,1-.635,4.018,8.513,8.513,0,0,1-3.311,2.285c-5.877,2.625-12.462,3.15-18.895,3.1a20.756,20.756,0,0,1-4.5-.4,7.951,7.951,0,0,1-3.962-2.093,3.212,3.212,0,0,1-.6-3.444" transform="translate(-40.734 -267.872)"/>
        </g>
      </g>
    </g>
    <path id="Trazado_733248" data-name="Trazado 733248" d="M65.914,283.9a49.639,49.639,0,0,0,.857-8.525,17.338,17.338,0,0,0-1.974-8.258c-.212-.378-1.9-2.874-2.323-2.765-.3.077.875,2.468.762,2.757a14.7,14.7,0,0,0-.315,8.728,38.788,38.788,0,0,0,2.993,8.062" transform="translate(3161.725 -10508.984)" fill="#263238"/>
    <path id="Trazado_733249" data-name="Trazado 733249" d="M43.871,276.307a12.821,12.821,0,0,1,10.071-14.176l.649-.138c7.092-1.07,11.963,4.355,12.837,11.473l2.065,23.578L59.45,304.512H55.976l-.561-2.538s-.6-3.116-.611-3.115-6.955.376-8.461-6.34c-.727-3.244-1.68-10.046-2.472-16.212" transform="translate(3158.81 -10509.373)" fill="#ffc09d"/>
    <path id="Trazado_733250" data-name="Trazado 733250" d="M53.312,294.457a16.623,16.623,0,0,0,8.219-4.444s-1,5.5-7.849,6.314Z" transform="translate(3160.302 -10504.972)" fill="#ff9b6c"/>
    <path id="Trazado_733251" data-name="Trazado 733251" d="M47.8,279.4a.982.982,0,0,0,1.131.775.94.94,0,0,0,.808-1.077.983.983,0,0,0-1.131-.775A.939.939,0,0,0,47.8,279.4" transform="translate(3159.439 -10506.801)" fill="#263238"/>
    <path id="Trazado_733252" data-name="Trazado 733252" d="M45.616,276.705c.146.1.76-.593,1.8-.808,1.031-.231,1.9.141,1.988-.009.044-.068-.126-.268-.508-.439a2.692,2.692,0,0,0-1.624-.148,2.591,2.591,0,0,0-1.4.8c-.266.311-.326.561-.256.6" transform="translate(3159.094 -10507.281)" fill="#263238"/>
    <path id="Trazado_733253" data-name="Trazado 733253" d="M56.03,278.109a.982.982,0,0,0,1.132.774.94.94,0,0,0,.808-1.075.985.985,0,0,0-1.132-.776.942.942,0,0,0-.808,1.078" transform="translate(3160.725 -10507.003)" fill="#263238"/>
    <path id="Trazado_733254" data-name="Trazado 733254" d="M54.458,275.216c.146.1.762-.593,1.8-.808,1.031-.23,1.9.141,1.989-.009.043-.068-.125-.268-.508-.439a2.7,2.7,0,0,0-1.625-.148,2.6,2.6,0,0,0-1.4.8c-.265.311-.326.561-.256.6" transform="translate(3160.477 -10507.515)" fill="#263238"/>
    <path id="Trazado_733255" data-name="Trazado 733255" d="M53.077,283.75a7,7,0,0,0-1.745.052c-.269.028-.531.029-.613-.142a1.369,1.369,0,0,1,.01-.821q.17-1.037.356-2.176a35.57,35.57,0,0,0,.644-5.634,35.385,35.385,0,0,0-1.1,5.568c-.112.762-.22,1.488-.321,2.183a1.558,1.558,0,0,0,.082,1.065.674.674,0,0,0,.516.295,1.832,1.832,0,0,0,.463-.032,6.877,6.877,0,0,0,1.7-.357" transform="translate(3159.825 -10507.314)" fill="#263238"/>
    <path id="Trazado_733256" data-name="Trazado 733256" d="M55.828,282.634c-.17.025.065,1.149-.729,2.15s-2.014,1.129-1.99,1.288c0,.074.312.162.821.068A2.854,2.854,0,0,0,55.6,285.13a2.49,2.49,0,0,0,.539-1.788c-.057-.479-.241-.731-.316-.708" transform="translate(3160.27 -10506.125)" fill="#263238"/>
    <path id="Trazado_733257" data-name="Trazado 733257" d="M53.738,271.551c.162.26,1.167-.091,2.411-.2,1.243-.135,2.3.013,2.405-.273.046-.136-.18-.365-.634-.554a4.2,4.2,0,0,0-3.669.362c-.408.273-.585.542-.513.666" transform="translate(3160.366 -10508.061)" fill="#263238"/>
    <path id="Trazado_733258" data-name="Trazado 733258" d="M45.361,273.658c.231.2.893-.2,1.748-.391.848-.222,1.615-.176,1.731-.457.047-.135-.117-.347-.48-.5a2.594,2.594,0,0,0-2.8.683c-.251.305-.3.569-.2.666" transform="translate(3159.051 -10507.766)" fill="#263238"/>
    <path id="Trazado_733259" data-name="Trazado 733259" d="M64.664,276.393c.1-.074,4.337-2.346,5.163,2.288s-4.876,4.687-4.909,4.555-.254-6.843-.254-6.843" transform="translate(3162.077 -10507.198)" fill="#ffc09d"/>
    <path id="Trazado_733260" data-name="Trazado 733260" d="M66.633,280.855c.017-.018.091.042.238.08a.812.812,0,0,0,.606-.095,2.026,2.026,0,0,0,.6-1.957,2.7,2.7,0,0,0-.431-1.116.949.949,0,0,0-.718-.511.417.417,0,0,0-.437.305c-.038.141.007.229-.016.241s-.113-.06-.11-.258a.523.523,0,0,1,.131-.323.625.625,0,0,1,.426-.2,1.15,1.15,0,0,1,.971.569,2.792,2.792,0,0,1,.51,1.242,2.13,2.13,0,0,1-.821,2.211.882.882,0,0,1-.761.008c-.164-.089-.207-.187-.192-.2" transform="translate(3162.344 -10507.003)" fill="#ff9b6c"/>
    <path id="Trazado_733261" data-name="Trazado 733261" d="M45.358,268.243c-.822-.288,1.022-3.1,2.726-4.251,2.578-1.737,6.7-3.237,9.4-2.942,3.246.355,6.079,1.462,8.111,4.017a18.5,18.5,0,0,1,3.623,8.974,5.622,5.622,0,0,1-.175,2.946c-.475,1.136-1.608,1.992-1.316,3.4a1.962,1.962,0,0,1-.243,1.5c-.695,1.047-1.879.374-2.5-.4a13.609,13.609,0,0,1-2.249-5.864,13.757,13.757,0,0,1-.454-4.465c.1-.812.338-1.6.391-2.42a2.836,2.836,0,0,0-.722-2.262,2.959,2.959,0,0,0-.442-.318,4.908,4.908,0,0,0-4.956-.1c-2.457,1.366-6.688,3.5-8,2.811a7.24,7.24,0,0,1-2.434-1.757Z" transform="translate(3159.027 -10509.506)" fill="#263238"/>
    <path id="Trazado_733262" data-name="Trazado 733262" d="M43.836,274.543a16.325,16.325,0,0,1,7.125-3.032c11.524-1.683,18.667,1.4,18.667,1.4l-.4-3.37s-17.355-.656-17.473-.642-5.036,1.691-5.149,1.752-3.035,1.03-3.035,1.03a9.68,9.68,0,0,0,.264,2.864" transform="translate(3158.778 -10508.273)" fill="#455a64"/>
    <g id="Grupo_1033002" data-name="Grupo 1033002" transform="translate(3202.342 -10239.378)" opacity="0.6">
      <g id="Grupo_1033001" data-name="Grupo 1033001">
        <g id="Grupo_1033000" data-name="Grupo 1033000" clip-path="url(#clip-path-2)">
          <path id="Trazado_733263" data-name="Trazado 733263" d="M43.836,274.543a16.325,16.325,0,0,1,7.125-3.032c11.524-1.683,18.667,1.4,18.667,1.4l-.4-3.37s-17.355-.656-17.473-.642-5.036,1.691-5.149,1.752-3.035,1.03-3.035,1.03a9.68,9.68,0,0,0,.264,2.864" transform="translate(-43.564 -268.895)"/>
        </g>
      </g>
    </g>
    <path id="Trazado_733264" data-name="Trazado 733264" d="M40.719,277.677s2.162-5.505,15.768-5.878c14.274-.391,16.693,3.047,16.693,3.047s.451-3.344-2.088-4.6a17.623,17.623,0,0,0-5.463-10.008,26.118,26.118,0,0,0-5.095-2.887l-.222-.925s-1.147-.979-5.9-.379c-4.913.62-5.672,2.293-5.672,2.293l.013.855a15.882,15.882,0,0,0-6.224,14.419s-2.4,2.165-1.81,4.062" transform="translate(3158.319 -10510.313)" fill="#455a64"/>
    <g id="Grupo_1033005" data-name="Grupo 1033005" transform="translate(3216.806 -10253.886)" opacity="0.3">
      <g id="Grupo_1033004" data-name="Grupo 1033004">
        <g id="Grupo_1033003" data-name="Grupo 1033003" clip-path="url(#clip-path-3)">
          <path id="Trazado_733265" data-name="Trazado 733265" d="M57.9,256.35c-.648,1.044-1.768,2.846-1.817,4.235a27.281,27.281,0,0,0,.286,4.186c.155-4.672.722-5.419,1.752-7.5Z" transform="translate(-56.072 -256.35)"/>
        </g>
      </g>
    </g>
    <path id="Trazado_733266" data-name="Trazado 733266" d="M70.836,268.47a1.081,1.081,0,0,0-.286-.094l-.836-.209c-.363-.092-.809-.192-1.334-.275s-1.119-.212-1.785-.278a49.563,49.563,0,0,0-10.44-.191,36.214,36.214,0,0,0-10.2,2.192c-.613.274-1.169.521-1.637.774-.456.281-.86.5-1.163.72l-.67.548c-.15.128-.224.2-.217.207a1.136,1.136,0,0,0,.259-.157l.7-.495c.31-.2.72-.4,1.176-.665.471-.235,1.028-.465,1.639-.723a38.645,38.645,0,0,1,10.148-2.084,54.586,54.586,0,0,1,10.386.1c.665.052,1.257.163,1.782.23s.975.148,1.339.221l.846.15a1.086,1.086,0,0,0,.3.031" transform="translate(3158.574 -10508.533)" fill="#263238"/>
    <path id="Trazado_733267" data-name="Trazado 733267" d="M57.934,256.35a5.255,5.255,0,0,0-.774,1.021,6.811,6.811,0,0,0-1.23,2.857,9.2,9.2,0,0,0,.089,3.107,3.753,3.753,0,0,0,.369,1.232,7.861,7.861,0,0,0-.145-1.266,11.182,11.182,0,0,1,0-3.025,7.66,7.66,0,0,1,1.107-2.786,5.151,5.151,0,0,0,.582-1.14" transform="translate(3160.697 -10510.235)" fill="#263238"/>
    <g id="Grupo_1033008" data-name="Grupo 1033008" transform="translate(3219.147 -10251.563)" opacity="0.3">
      <g id="Grupo_1033007" data-name="Grupo 1033007">
        <g id="Grupo_1033006" data-name="Grupo 1033006" clip-path="url(#clip-path-4)">
          <path id="Trazado_733268" data-name="Trazado 733268" d="M58.128,259.2a.934.934,0,0,1,.036-.6.527.527,0,0,1,.5-.239,1.476,1.476,0,0,1,.552.185,15.146,15.146,0,0,1,7.66,9.82.249.249,0,0,1-.327.3,16.96,16.96,0,0,0-5.252-1.14c-.591-.039-1.41.125-1.743-.436a3.152,3.152,0,0,1-.327-1.118l-1.1-6.77" transform="translate(-58.097 -258.358)" fill="#fff"/>
        </g>
      </g>
    </g>
    <path id="Trazado_733269" data-name="Trazado 733269" d="M48.608,263.865a51.472,51.472,0,0,0-1.053-5.444,15.851,15.851,0,0,0,1.053,5.444" transform="translate(3159.397 -10509.911)" fill="#263238"/>
    <path id="Trazado_733270" data-name="Trazado 733270" d="M41.173,270.308a2.752,2.752,0,0,1,1.676-1.8,3.763,3.763,0,0,1,4.945,2.1,1.6,1.6,0,0,1,1.615-.182,1.484,1.484,0,0,1,.856,1.305l1-.105c-.071.9-1.234,1.592-2.035,2.017a2.75,2.75,0,0,1-2.6-.045,2.3,2.3,0,1,1-4.415-1.2,1.8,1.8,0,0,1-1.035-2.087" transform="translate(3158.397 -10508.379)" fill="#263238"/>
    <path id="Trazado_733271" data-name="Trazado 733271" d="M50.173,433.221l-2.5,13.016s-14.457,4.627-14.569,7.317l27.453.5L62.718,433.3Z" transform="translate(3157.143 -10482.58)" fill="#455a64"/>
    <path id="Trazado_733272" data-name="Trazado 733272" d="M55.112,444.193a1.149,1.149,0,0,1,.82,1.3,1.1,1.1,0,0,1-1.277.823,1.211,1.211,0,0,1-.861-1.376,1.145,1.145,0,0,1,1.423-.71" transform="translate(3160.372 -10480.871)" fill="#fff"/>
    <path id="Trazado_733273" data-name="Trazado 733273" d="M60.58,451.506l.445-1.992-26.981.177a1.949,1.949,0,0,0-1.064,1.518Z" transform="translate(3157.123 -10480.032)" fill="#263238"/>
    <path id="Trazado_733274" data-name="Trazado 733274" d="M45.308,444.378c.007.138.7.186,1.381.615.7.411,1.056,1,1.181.941.127-.029-.094-.846-.932-1.351s-1.662-.332-1.629-.206" transform="translate(3159.051 -10480.856)" fill="#263238"/>
    <path id="Trazado_733275" data-name="Trazado 733275" d="M42.776,445.474c-.029.133.571.355,1.049.927.495.559.626,1.184.762,1.176.13.018.208-.788-.4-1.488s-1.412-.747-1.412-.615" transform="translate(3158.655 -10480.674)" fill="#263238"/>
    <path id="Trazado_733276" data-name="Trazado 733276" d="M41.541,448.867c.125.027.3-.664-.065-1.41s-1.015-1.031-1.072-.916c-.075.115.35.51.643,1.126s.357,1.188.494,1.2" transform="translate(3158.282 -10480.502)" fill="#263238"/>
    <path id="Trazado_733277" data-name="Trazado 733277" d="M46.313,441.81c.06.124.687-.076,1.464-.04s1.389.271,1.457.153c.079-.1-.522-.6-1.439-.63s-1.552.413-1.482.518" transform="translate(3159.207 -10481.318)" fill="#263238"/>
    <path id="Trazado_733278" data-name="Trazado 733278" d="M105.646,431.764l11.469,7.957s-8.162,12.8-6.528,14.94l21.967-17.6L115.067,422.58Z" transform="translate(3168.485 -10484.244)" fill="#455a64"/>
    <path id="Trazado_733279" data-name="Trazado 733279" d="M120.648,431.7a1.149,1.149,0,0,1,1.459.472,1.107,1.107,0,0,1-.456,1.451,1.212,1.212,0,0,1-1.543-.509,1.146,1.146,0,0,1,.641-1.456" transform="translate(3170.736 -10482.834)" fill="#fff"/>
    <path id="Trazado_733280" data-name="Trazado 733280" d="M131.927,435.3l-1.782-1.476L109.825,451.3a1.946,1.946,0,0,0,.151,1.848Z" transform="translate(3169.113 -10482.485)" fill="#263238"/>
    <path id="Trazado_733281" data-name="Trazado 733281" d="M115.186,437.691c.094.1.653-.3,1.455-.409.8-.129,1.45.093,1.51-.031.079-.1-.614-.59-1.581-.443s-1.489.807-1.384.883" transform="translate(3169.975 -10482.023)" fill="#263238"/>
    <path id="Trazado_733282" data-name="Trazado 733282" d="M113.945,440.1c.064.123.666-.09,1.4.044.738.113,1.238.511,1.338.417.111-.068-.343-.739-1.258-.889s-1.562.328-1.479.428" transform="translate(3169.781 -10481.576)" fill="#263238"/>
    <path id="Trazado_733283" data-name="Trazado 733283" d="M115.165,443.463c.113-.059-.191-.7-.951-1.042s-1.441-.146-1.411-.021.6.169,1.214.457c.626.273,1.035.685,1.147.606" transform="translate(3169.604 -10481.172)" fill="#263238"/>
    <path id="Trazado_733284" data-name="Trazado 733284" d="M113.474,435.508c.126.057.479-.5,1.1-.967s1.24-.679,1.218-.815c-.006-.127-.784-.126-1.509.436s-.931,1.309-.809,1.346" transform="translate(3169.704 -10482.512)" fill="#263238"/>
    <path id="Trazado_733285" data-name="Trazado 733285" d="M130.678,437.1,100.7,398.771l-5.968-35.687L71.652,373.7,79.02,405.3A20.233,20.233,0,0,0,84.9,415.482l32.76,34.217Z" transform="translate(3163.17 -10493.546)" fill="#12263f"/>
    <path id="Trazado_733286" data-name="Trazado 733286" d="M101.772,352.042a12.013,12.013,0,0,1-.149,3.143c-.587,3.2-.046,8.386-2.771,12.345a134.62,134.62,0,0,1-11.232,13.444L73.782,414.741,61.5,458.814l-16.892-2.5L53.35,402.44,67.379,351.8Z" transform="translate(3158.941 -10495.312)" fill="#12263f"/>
    <path id="Trazado_733287" data-name="Trazado 733287" d="M73.221,405.639a.676.676,0,0,0,.082-.143c.054-.113.125-.257.212-.435.179-.386.461-.948.779-1.691.656-1.478,1.522-3.652,2.491-6.375s2.016-6,3.419-9.542A29.776,29.776,0,0,1,86.644,377c1.521-1.591,3.069-3.087,4.462-4.639q.526-.581,1-1.192l.888-1.235c.3-.4.549-.834.819-1.245l.392-.617.35-.635a20.813,20.813,0,0,0,2.057-5.035,17.187,17.187,0,0,0,.482-4.716c-.006-.727-.108-1.413-.175-2.062-.123-.642-.2-1.255-.348-1.811-.131-.561-.256-1.081-.4-1.551s-.264-.9-.4-1.285c-.254-.768-.48-1.354-.639-1.747l-.182-.449a.644.644,0,0,0-.072-.149.6.6,0,0,0,.043.158c.039.121.09.271.153.46.141.4.349.992.585,1.762.13.383.249.813.377,1.288s.256.989.378,1.546c.141.556.207,1.166.321,1.8.059.645.154,1.324.151,2.043a17.11,17.11,0,0,1-.511,4.647,20.761,20.761,0,0,1-2.057,4.961l-.349.627c-.128.2-.259.406-.39.611-.269.406-.513.834-.816,1.23l-.883,1.222q-.465.6-.986,1.172c-1.386,1.538-2.936,3.032-4.461,4.628a29.832,29.832,0,0,0-6.48,10.554c-1.4,3.564-2.406,6.854-3.363,9.576-.941,2.729-1.776,4.91-2.4,6.4-.3.749-.565,1.317-.726,1.711l-.185.447a.7.7,0,0,0-.053.156" transform="translate(3163.415 -10495.806)" fill="#455a64"/>
    <path id="Trazado_733288" data-name="Trazado 733288" d="M45.677,329.892c.353.24,10.315,1.65,10.315,1.65l-6.339-29.975a14.18,14.18,0,0,0-3.272,8.212c-.53,5.429-.7,20.113-.7,20.113" transform="translate(3159.108 -10503.165)" fill="#e0e0e0"/>
    <path id="Trazado_733289" data-name="Trazado 733289" d="M98.632,350.475c-.622-3.444-3.937-11.743-3.558-12.652l-4.2-13.024-.169-3.223-9.017-29.489-10.841-2.719H69.18c-6.368,7.394-12.478,12.227-14.852,8.048l-2.064,2.293s-1.973,6.036-1.981,6.21c-.141,3.059-.356,2.758.354,8.168.428,3.249,4.214,25.675,4.214,25.675s3.935,17.64,5.385,20.384c.239.452,1.154,9.888,1.154,9.888,12.737,2.913,26.275,2.315,40.482-1.208,0,0-2.617-14.908-3.239-18.351" transform="translate(3159.806 -10505.072)" fill="#e0e0e0"/>
    <path id="Trazado_733290" data-name="Trazado 733290" d="M70.188,289.1a78.342,78.342,0,0,0-5.458,15.186c-.717,3.092-4.58,18.1-4.58,18.1L52.6,299.468s-5.223,5.014-5.223,6.794c0,0,4.881,20.218,5.032,21.211.458,3.008,5.789,27.68,5.983,28.639.191.94,1.757,16.513,1.757,16.513l6.758-.214.235-3.844,1.031,3.869c14.448-.781,25.455-2.874,35.8-6.821-.978-6.565-2.849-13.006-5.641-22.1l-1.386-5.657-6.162-30.633L81.4,291.511A36.964,36.964,0,0,0,70.188,289.1" transform="translate(3159.375 -10505.114)" fill="#ffa031"/>
    <path id="Trazado_733291" data-name="Trazado 733291" d="M55.119,339.857l40.616-8.592,1.388,5.657-40.8,8.587Z" transform="translate(3160.585 -10498.521)" fill="#fff"/>
    <path id="Trazado_733292" data-name="Trazado 733292" d="M56.622,346.953l40.869-9.088,1.7,5.7-41.8,8.692-.282-2.626Z" transform="translate(3160.82 -10497.489)" fill="#fff"/>
    <path id="Trazado_733293" data-name="Trazado 733293" d="M65.173,362.852a3.815,3.815,0,0,1-.105-.661q-.08-.711-.214-1.891c-.171-1.68-.408-4.018-.695-6.841v-.024c-.128-1.8-.5-3.878-.838-6.081-.365-2.209-.757-4.572-1.163-7.028-1.049-6.176-2-11.764-2.694-15.861-.33-2-.6-3.631-.794-4.812-.082-.538-.149-.972-.2-1.309a2.368,2.368,0,0,1-.046-.461,2.151,2.151,0,0,1,.118.449c.068.333.156.764.266,1.3.222,1.174.531,2.8.908,4.79.748,4.048,1.753,9.649,2.8,15.846.415,2.457.8,4.824,1.147,7.036l.474,3.2c.074.511.141,1.011.2,1.5q.042.368.083.725.019.369.038.73v-.024c.236,2.828.43,5.171.57,6.854q.085,1.183.135,1.9a3.856,3.856,0,0,1,.018.67" transform="translate(3161.101 -10500.614)" fill="#263238"/>
    <path id="Trazado_733294" data-name="Trazado 733294" d="M82.731,328.712a4.569,4.569,0,0,1-.623.691c-.417.43-1.036,1.037-1.81,1.777-1.546,1.48-3.73,3.476-6.219,5.591s-4.817,3.944-6.529,5.23c-.856.643-1.554,1.153-2.048,1.494a4.469,4.469,0,0,1-.784.5,4.817,4.817,0,0,1,.7-.615c.522-.417,1.183-.949,1.976-1.584,1.67-1.334,3.964-3.193,6.449-5.3s4.692-4.072,6.28-5.5c.755-.678,1.389-1.245,1.886-1.693a4.512,4.512,0,0,1,.72-.59" transform="translate(3162.085 -10498.921)" fill="#263238"/>
    <path id="Trazado_733295" data-name="Trazado 733295" d="M317.744,444.872a6.866,6.866,0,1,1-6.866-6.866,6.867,6.867,0,0,1,6.866,6.866" transform="translate(3199.5 -10481.832)" fill="#263238"/>
    <path id="Trazado_733296" data-name="Trazado 733296" d="M314.32,444.465a3.851,3.851,0,1,1-3.851-3.851,3.851,3.851,0,0,1,3.851,3.851" transform="translate(3199.908 -10481.424)" fill="#455a64"/>
    <path id="Trazado_733297" data-name="Trazado 733297" d="M208.947,422.07c-.657.111-13.822,3.571-13.822,3.571v-1.785H183.633v7.475h11.381l14.727-1.45Z" transform="translate(3180.679 -10484.323)" fill="#12263f"/>
    <rect id="Rectángulo_352286" data-name="Rectángulo 352286" width="2.83" height="16.747" transform="translate(3369.781 -10093.477)" fill="#e0e0e0"/>
    <path id="Trazado_733298" data-name="Trazado 733298" d="M167.859,398.358l-1.43.446s-40.219-27.975-40.4-27.706-2.86,3.307-2.86,3.307l42.9,28.6,1.162,1.608,10.368,6.525.626,1.248,10.636,5.156s3.665-6.136,3.851-6.4Z" transform="translate(3171.225 -10492.294)" fill="#12263f"/>
    <path id="Trazado_733299" data-name="Trazado 733299" d="M122.117,343.418c-5.978-.149-28.845,23.165-28.681,26.157s34.382,9.157,34.382,9.157l2.861-3.307s-2.584-31.856-8.562-32.007m4.046,22.338c-.552,1.1-7.82,6.532-9.519,6.993-1.4.379-13.337-2.69-17.459-3.772a1.155,1.155,0,0,1-.641-1.805c3.843-5.141,21.076-21.009,23.018-20.317,2.207.786,5.152,17.8,4.6,18.9" transform="translate(3166.576 -10496.622)" fill="#12263f"/>
    <rect id="Rectángulo_352287" data-name="Rectángulo 352287" width="150.098" height="6.05" transform="translate(3389.731 -10050.01)" fill="#ffa031"/>
    <path id="Trazado_733300" data-name="Trazado 733300" d="M228.651,441.48l-12.6-46.758a4.563,4.563,0,0,0-4.406-3.375H187.907v5.489h14.145l6.333,48.978Z" transform="translate(3181.347 -10489.128)" fill="#ffa031"/>
    <rect id="Rectángulo_352288" data-name="Rectángulo 352288" width="13.428" height="14.84" transform="translate(3363.938 -10074.751)" fill="#455a64"/>
    <path id="Trazado_733301" data-name="Trazado 733301" d="M186.853,412.576h6.322v-.82a2.468,2.468,0,0,0-2.468-2.469h-1.386a2.469,2.469,0,0,0-2.468,2.469Z" transform="translate(3181.182 -10486.322)" fill="#455a64"/>
    <path id="Trazado_733302" data-name="Trazado 733302" d="M188.116,413.689s-8.669-6.792-9.117-6.883-3.039,1.43-3.039,1.43V426.8h10.1Z" transform="translate(3179.479 -10486.711)" fill="#455a64"/>
    <path id="Trazado_733303" data-name="Trazado 733303" d="M179.412,409.042a.844.844,0,1,1-.844-.844.844.844,0,0,1,.844.844" transform="translate(3179.755 -10486.493)" fill="#263238"/>
    <path id="Trazado_733304" data-name="Trazado 733304" d="M183.674,425.237c-.167,0-.3-2.985-.3-6.665s.134-6.665.3-6.665.3,2.983.3,6.665-.134,6.665-.3,6.665" transform="translate(3180.638 -10485.913)" fill="#263238"/>
    <path id="Trazado_733305" data-name="Trazado 733305" d="M193.632,430.872a14.49,14.49,0,0,1,0-5.873,14.493,14.493,0,0,1,0,5.873" transform="translate(3182.195 -10483.866)" fill="#455a64"/>
    <g id="Grupo_1033011" data-name="Grupo 1033011" transform="translate(3384.717 -10061.691)" opacity="0.3">
      <g id="Grupo_1033010" data-name="Grupo 1033010">
        <g id="Grupo_1033009" data-name="Grupo 1033009" clip-path="url(#clip-path-5)">
          <path id="Trazado_733306" data-name="Trazado 733306" d="M201.279,423.236c.032.3.764,7.054.764,7.054l2.838-.28-.964-7.454Z" transform="translate(-201.279 -422.556)"/>
        </g>
      </g>
    </g>
    <path id="Trazado_733307" data-name="Trazado 733307" d="M204.656,432.583c0-.166,4.765-.3,10.642-.3s10.643.134,10.643.3-4.764.3-10.643.3-10.642-.134-10.642-.3" transform="translate(3183.966 -10482.728)" fill="#263238"/>
    <path id="Trazado_733308" data-name="Trazado 733308" d="M202.2,441.438a12.18,12.18,0,1,1-12.18-12.18,12.18,12.18,0,0,1,12.18,12.18" transform="translate(3179.773 -10483.2)" fill="#12263f"/>
    <path id="Trazado_733309" data-name="Trazado 733309" d="M196.127,440.715a6.831,6.831,0,1,1-6.831-6.831,6.831,6.831,0,0,1,6.831,6.831" transform="translate(3180.496 -10482.477)" fill="#455a64"/>
    <rect id="Rectángulo_352290" data-name="Rectángulo 352290" width="134.719" height="7.757" transform="translate(3414.938 -10055.42)" fill="#ae7461"/>
    <rect id="Rectángulo_352291" data-name="Rectángulo 352291" width="11.964" height="9.113" transform="translate(3415.149 -10047.663)" fill="#ae7461"/>
    <g id="Grupo_1033014" data-name="Grupo 1033014" transform="translate(3415.15 -10047.663)" opacity="0.3">
      <g id="Grupo_1033013" data-name="Grupo 1033013">
        <g id="Grupo_1033012" data-name="Grupo 1033012" clip-path="url(#clip-path-6)">
          <rect id="Rectángulo_352292" data-name="Rectángulo 352292" width="11.964" height="2.202" transform="translate(-0.001 0)"/>
        </g>
      </g>
    </g>
    <rect id="Rectángulo_352294" data-name="Rectángulo 352294" width="11.962" height="9.113" transform="translate(3476.316 -10047.663)" fill="#ae7461"/>
    <g id="Grupo_1033017" data-name="Grupo 1033017" transform="translate(3476.316 -10047.663)" opacity="0.3">
      <g id="Grupo_1033016" data-name="Grupo 1033016">
        <g id="Grupo_1033015" data-name="Grupo 1033015" clip-path="url(#clip-path-6)">
          <rect id="Rectángulo_352295" data-name="Rectángulo 352295" width="11.962" height="2.202" transform="translate(0 0)"/>
        </g>
      </g>
    </g>
    <rect id="Rectángulo_352297" data-name="Rectángulo 352297" width="11.964" height="9.113" transform="translate(3537.693 -10047.663)" fill="#ae7461"/>
    <g id="Grupo_1033020" data-name="Grupo 1033020" transform="translate(3537.693 -10047.663)" opacity="0.3">
      <g id="Grupo_1033019" data-name="Grupo 1033019">
        <g id="Grupo_1033018" data-name="Grupo 1033018" clip-path="url(#clip-path-8)">
          <rect id="Rectángulo_352298" data-name="Rectángulo 352298" width="11.964" height="2.202" transform="translate(0 0)"/>
        </g>
      </g>
    </g>
    <rect id="Rectángulo_352300" data-name="Rectángulo 352300" width="59.562" height="54.701" transform="translate(3480.81 -10110.122)" fill="#12263f"/>
    <path id="Trazado_733310" data-name="Trazado 733310" d="M343.99,435.417s-.02-.36-.029-1.029c-.007-.691-.016-1.676-.029-2.944-.016-2.593-.038-6.348-.067-11.123-.032-9.569-.077-23.209-.132-39.605l.257.256-59.557.045c-.072.064.565-.565.3-.293v3.71q0,1.854,0,3.693,0,3.677,0,7.287,0,7.216-.007,14.113c-.01,9.18-.02,17.873-.028,25.89l-.264-.264,43.053.133,12.156.069,3.225.031.835.015a2.363,2.363,0,0,1,.293.015,1.6,1.6,0,0,1-.262.015l-.807.015-3.173.031-12.1.069-43.222.133h-.265v-.265c-.008-8.017-.017-16.709-.027-25.89q0-6.886-.008-14.113,0-3.608,0-7.287,0-1.839,0-3.693v-3.71c-.268.265.365-.377.306-.31l59.557.045h.258v.257c-.054,16.464-.1,30.16-.132,39.768-.029,4.749-.051,8.487-.067,11.064q-.019,1.873-.029,2.9c-.01.652-.029.974-.029.974" transform="translate(3196.381 -10490.837)" fill="#263238"/>
    <g id="Grupo_1033023" data-name="Grupo 1033023" transform="translate(3503.917 -10109.836)" opacity="0.3">
      <g id="Grupo_1033022" data-name="Grupo 1033022">
        <g id="Grupo_1033021" data-name="Grupo 1033021" clip-path="url(#clip-path-9)">
          <rect id="Rectángulo_352301" data-name="Rectángulo 352301" width="10.955" height="14.43" transform="translate(0 0)" fill="#fff"/>
        </g>
      </g>
    </g>
    <g id="Grupo_1033026" data-name="Grupo 1033026" transform="translate(3503.917 -10069.755)" opacity="0.3">
      <g id="Grupo_1033025" data-name="Grupo 1033025">
        <g id="Grupo_1033024" data-name="Grupo 1033024" clip-path="url(#clip-path-10)">
          <rect id="Rectángulo_352303" data-name="Rectángulo 352303" width="10.955" height="13.695" transform="translate(0 0)" fill="#fff"/>
        </g>
      </g>
    </g>
    <g id="Grupo_1033029" data-name="Grupo 1033029" transform="translate(3479.93 -10084.683)" opacity="0.3">
      <g id="Grupo_1033028" data-name="Grupo 1033028">
        <g id="Grupo_1033027" data-name="Grupo 1033027" clip-path="url(#clip-path-11)">
          <path id="Trazado_733311" data-name="Trazado 733311" d="M344.052,402.975c0,.167-13.529.3-30.216.3s-30.218-.134-30.218-.3,13.527-.3,30.218-.3,30.216.134,30.216.3" transform="translate(-283.618 -402.674)"/>
        </g>
      </g>
    </g>
    <rect id="Rectángulo_352306" data-name="Rectángulo 352306" width="59.562" height="54.701" transform="translate(3421.559 -10110.122)" fill="#12263f"/>
    <path id="Trazado_733312" data-name="Trazado 733312" d="M292.751,435.417s-.02-.36-.029-1.029c-.007-.691-.016-1.676-.029-2.944-.016-2.593-.038-6.348-.067-11.123-.032-9.569-.078-23.209-.132-39.605l.257.256-59.557.045c-.072.064.565-.565.3-.293v3.71q0,1.854,0,3.693,0,3.677,0,7.287,0,7.216-.007,14.113c-.01,9.18-.02,17.873-.028,25.89l-.264-.264,43.053.133,12.156.069,3.225.031.835.015a2.364,2.364,0,0,1,.293.015,1.6,1.6,0,0,1-.263.015l-.806.015-3.174.031-12.1.069-43.222.133h-.265v-.265c-.008-8.017-.017-16.709-.027-25.89q0-6.886-.008-14.113,0-3.608,0-7.287,0-1.839,0-3.693v-3.71c-.269.265.365-.377.306-.31l59.557.045h.258v.257c-.054,16.464-.1,30.16-.132,39.768-.029,4.749-.051,8.487-.067,11.064q-.019,1.873-.029,2.9c-.01.652-.029.974-.029.974" transform="translate(3188.369 -10490.837)" fill="#263238"/>
    <g id="Grupo_1033032" data-name="Grupo 1033032" transform="translate(3444.667 -10109.102)" opacity="0.3">
      <g id="Grupo_1033031" data-name="Grupo 1033031">
        <g id="Grupo_1033030" data-name="Grupo 1033030" clip-path="url(#clip-path-12)">
          <rect id="Rectángulo_352307" data-name="Rectángulo 352307" width="10.955" height="13.695" transform="translate(0.001)" fill="#fff"/>
        </g>
      </g>
    </g>
    <g id="Grupo_1033035" data-name="Grupo 1033035" transform="translate(3444.667 -10069.755)" opacity="0.3">
      <g id="Grupo_1033034" data-name="Grupo 1033034">
        <g id="Grupo_1033033" data-name="Grupo 1033033" clip-path="url(#clip-path-12)">
          <rect id="Rectángulo_352309" data-name="Rectángulo 352309" width="10.955" height="13.695" transform="translate(0.001 0)" fill="#fff"/>
        </g>
      </g>
    </g>
    <g id="Grupo_1033038" data-name="Grupo 1033038" transform="translate(3420.68 -10084.683)" opacity="0.3">
      <g id="Grupo_1033037" data-name="Grupo 1033037">
        <g id="Grupo_1033036" data-name="Grupo 1033036" clip-path="url(#clip-path-14)">
          <path id="Trazado_733313" data-name="Trazado 733313" d="M292.813,402.975c0,.167-13.529.3-30.216.3s-30.218-.134-30.218-.3,13.527-.3,30.218-.3,30.216.134,30.216.3" transform="translate(-232.38 -402.674)"/>
        </g>
      </g>
    </g>
    <rect id="Rectángulo_352312" data-name="Rectángulo 352312" width="59.562" height="54.701" transform="translate(3421.559 -10164.838)" fill="#12263f"/>
    <path id="Trazado_733314" data-name="Trazado 733314" d="M292.751,388.1s-.02-.36-.029-1.029c-.007-.691-.016-1.676-.029-2.944-.016-2.591-.038-6.35-.067-11.123-.032-9.569-.078-23.209-.132-39.605l.257.257-59.557.044c-.072.064.565-.565.3-.293v3.71q0,1.854,0,3.693,0,3.677,0,7.287,0,7.216-.007,14.113c-.01,9.18-.02,17.873-.028,25.89l-.264-.264,43.053.133,12.156.069,3.225.031.835.015a2.379,2.379,0,0,1,.293.015,1.6,1.6,0,0,1-.263.015l-.806.015-3.174.031-12.1.069-43.222.133h-.265V388.1c-.008-8.017-.017-16.709-.027-25.89q0-6.886-.008-14.113,0-3.608,0-7.287,0-1.839,0-3.693v-3.71c-.269.265.365-.377.306-.31l59.557.045h.258v.257c-.054,16.464-.1,30.16-.132,39.768-.029,4.749-.051,8.486-.067,11.065-.013,1.248-.022,2.214-.029,2.894-.01.652-.029.974-.029.974" transform="translate(3188.369 -10498.236)" fill="#263238"/>
    <g id="Grupo_1033041" data-name="Grupo 1033041" transform="translate(3444.667 -10163.816)" opacity="0.3">
      <g id="Grupo_1033040" data-name="Grupo 1033040">
        <g id="Grupo_1033039" data-name="Grupo 1033039" clip-path="url(#clip-path-12)">
          <rect id="Rectángulo_352313" data-name="Rectángulo 352313" width="10.955" height="13.695" transform="translate(0.001)" fill="#fff"/>
        </g>
      </g>
    </g>
    <g id="Grupo_1033044" data-name="Grupo 1033044" transform="translate(3444.667 -10124.471)" opacity="0.3">
      <g id="Grupo_1033043" data-name="Grupo 1033043">
        <g id="Grupo_1033042" data-name="Grupo 1033042" clip-path="url(#clip-path-12)">
          <rect id="Rectángulo_352315" data-name="Rectángulo 352315" width="10.955" height="13.695" transform="translate(0.001 0)" fill="#fff"/>
        </g>
      </g>
    </g>
    <g id="Grupo_1033047" data-name="Grupo 1033047" transform="translate(3420.68 -10139.397)" opacity="0.3">
      <g id="Grupo_1033046" data-name="Grupo 1033046">
        <g id="Grupo_1033045" data-name="Grupo 1033045" clip-path="url(#clip-path-14)">
          <path id="Trazado_733315" data-name="Trazado 733315" d="M292.813,355.658c0,.166-13.529.3-30.216.3s-30.218-.134-30.218-.3,13.527-.3,30.218-.3,30.216.134,30.216.3" transform="translate(-232.38 -355.357)"/>
        </g>
      </g>
    </g>
    <rect id="Rectángulo_352318" data-name="Rectángulo 352318" width="59.562" height="54.701" transform="translate(3481.249 -10164.838)" fill="#12263f"/>
    <path id="Trazado_733316" data-name="Trazado 733316" d="M344.37,388.1s-.02-.36-.029-1.029c-.007-.691-.016-1.676-.029-2.944-.016-2.591-.038-6.35-.067-11.123-.032-9.569-.077-23.209-.132-39.605l.257.257-59.557.044c-.072.064.565-.565.3-.293v3.71q0,1.854,0,3.693,0,3.677,0,7.287,0,7.216-.007,14.113c-.01,9.18-.02,17.873-.028,25.89l-.264-.264,43.053.133,12.156.069,3.225.031.835.015a2.376,2.376,0,0,1,.293.015,1.592,1.592,0,0,1-.262.015l-.806.015-3.174.031-12.1.069-43.223.133h-.264V388.1c-.008-8.017-.017-16.709-.027-25.89q0-6.886-.008-14.113,0-3.608,0-7.287,0-1.839,0-3.693v-3.71c-.268.265.365-.377.306-.31l59.557.045h.258v.257c-.054,16.464-.1,30.16-.132,39.768-.029,4.749-.051,8.486-.067,11.065-.013,1.248-.022,2.214-.029,2.894-.009.652-.029.974-.029.974" transform="translate(3196.44 -10498.236)" fill="#263238"/>
    <g id="Grupo_1033050" data-name="Grupo 1033050" transform="translate(3504.357 -10163.816)" opacity="0.3">
      <g id="Grupo_1033049" data-name="Grupo 1033049">
        <g id="Grupo_1033048" data-name="Grupo 1033048" clip-path="url(#clip-path-10)">
          <rect id="Rectángulo_352319" data-name="Rectángulo 352319" width="10.955" height="13.695" fill="#fff"/>
        </g>
      </g>
    </g>
    <g id="Grupo_1033053" data-name="Grupo 1033053" transform="translate(3504.357 -10124.471)" opacity="0.3">
      <g id="Grupo_1033052" data-name="Grupo 1033052">
        <g id="Grupo_1033051" data-name="Grupo 1033051" clip-path="url(#clip-path-19)">
          <rect id="Rectángulo_352321" data-name="Rectángulo 352321" width="10.955" height="13.985" transform="translate(0 0)" fill="#fff"/>
        </g>
      </g>
    </g>
    <g id="Grupo_1033056" data-name="Grupo 1033056" transform="translate(3480.37 -10139.397)" opacity="0.3">
      <g id="Grupo_1033055" data-name="Grupo 1033055">
        <g id="Grupo_1033054" data-name="Grupo 1033054" clip-path="url(#clip-path-14)">
          <path id="Trazado_733317" data-name="Trazado 733317" d="M344.432,355.658c0,.166-13.529.3-30.216.3s-30.218-.134-30.218-.3,13.527-.3,30.218-.3,30.216.134,30.216.3" transform="translate(-283.999 -355.357)"/>
        </g>
      </g>
    </g>
    <path id="Trazado_733318" data-name="Trazado 733318" d="M110.516,325.611c-1.359-4.616-1.893-7-5.222-10.479L85.4,296.249c-3.537-3.669-5.237-3.948-9.08-3.61a5.629,5.629,0,0,0-4.541,2.406c-2.819,3.941-.977,8.537-.678,9.942l27.622,23.521,9.92,26.113,8.008-1.173Z" transform="translate(3162.949 -10504.578)" fill="#ffc09d"/>
    <path id="Trazado_733319" data-name="Trazado 733319" d="M68.93,304.385a12.031,12.031,0,0,1,1.648-9.968,8.9,8.9,0,0,1,5.761-3.084,12.42,12.42,0,0,1,10.2,4.126l14.132,13.8L88.294,323.723S70.518,309.065,68.93,304.385" transform="translate(3162.677 -10504.772)" fill="#e0e0e0"/>
    <path id="Trazado_733320" data-name="Trazado 733320" d="M105.346,355.233s1.219-1.1,1.718,1.051a2.712,2.712,0,0,1-1.092,3.056s.668,2.823,2.562,3.22a2.195,2.195,0,0,0,2.559-1.163s.542.192.789.245c2.051.437,2.292-2.744,2.292-2.744,1.423,0,1.922-2.016,1.922-2.016a18.1,18.1,0,0,0-.286-3.593c-.33-1.4-3.987-6.861-3.987-6.861s-1.909-8.412-1.985-9l-8.7,2.894s2.817,8.067,2.893,8.68c0,0-1.395,2.791-1.552,3.333-.35,1.2-1.855,1.994-.811,4.173,0,0,1.282,1.256,1.79.538a12.7,12.7,0,0,1,1.889-1.81" transform="translate(3167.78 -10497.559)" fill="#ffc09d"/>
    <path id="Trazado_733321" data-name="Trazado 733321" d="M109.456,356.138c.087-.059.5.481.548,1.286s-.28,1.393-.374,1.346.029-.616-.024-1.321-.252-1.257-.15-1.311" transform="translate(3169.076 -10494.634)" fill="#ff9b6c"/>
    <path id="Trazado_733322" data-name="Trazado 733322" d="M112.181,354.39c.108-.02.242.42.3.982s.013,1.021-.1,1.022-.244-.438-.3-.982-.01-1,.1-1.022" transform="translate(3169.488 -10494.906)" fill="#ff9b6c"/>
  </g>
</svg>
