<svg xmlns="http://www.w3.org/2000/svg" xmlns:xlink="http://www.w3.org/1999/xlink" width="176" height="176" viewBox="0 0 176 176">
  <defs>
    <clipPath id="clip-path">
      <circle id="Elipse_8399" data-name="Elipse 8399" cx="86" cy="86" r="86" fill="#fff"/>
    </clipPath>
  </defs>
  <g id="Grupo_1036337" data-name="Grupo 1036337" transform="translate(-345 -4310)">
    <g id="Grupo_1029622" data-name="Grupo 1029622" transform="translate(345.438 4310)">
      <circle id="Elipse_8399-2" data-name="Elipse 8399" cx="88" cy="88" r="88" transform="translate(-0.438)" fill="#fff"/>
    </g>
    <g id="Enmascarar_grupo_1026454" data-name="Enmascarar grupo 1026454" transform="translate(349 4312)" clip-path="url(#clip-path)">
      <g id="Page-1" transform="translate(19.545 35.055)">
        <g id="_005---Truck" data-name="005---Truck" transform="translate(0 0)">
          <g id="Grupo_1030222" data-name="Grupo 1030222" transform="translate(2.215 2.215)">
            <circle id="Oval" cx="13.291" cy="13.291" r="13.291" transform="translate(81.961 70.885)" fill="#37474f"/>
            <circle id="Oval-2" data-name="Oval" cx="13.291" cy="13.291" r="13.291" transform="translate(8.861 70.885)" fill="#37474f"/>
            <path id="Shape" d="M25.085,96.8a13.291,13.291,0,0,0-13.291,13.291H9.579a6.645,6.645,0,0,1,0-13.291Z" transform="translate(-2.933 -25.915)" fill="#545c60"/>
            <path id="Shape-2" data-name="Shape" d="M105.367,96.8a13.291,13.291,0,0,0-13.291,13.291H45.558A13.291,13.291,0,0,0,32.267,96.8Z" transform="translate(-10.115 -25.915)" fill="#7f8e94"/>
            <path id="Shape-3" data-name="Shape" d="M115.958,96.8a13.291,13.291,0,0,0-13.291,13.291h6.645A13.291,13.291,0,0,1,122.6,96.8Z" transform="translate(-27.352 -25.915)" fill="#545c60"/>
            <path id="Shape-4" data-name="Shape" d="M157.985,63.76V87.706a4.444,4.444,0,0,1-4.43,4.43H138.048a13.291,13.291,0,0,0-13.291-13.291H111.467V23.467h13.291V58.909a4.444,4.444,0,0,0,4.43,4.43h28.775a2.677,2.677,0,0,1,.022.421Z" transform="translate(-29.506 -7.961)" fill="#f5f5f5"/>
            <path id="Shape-5" data-name="Shape" d="M124.7,63.339h6.645a4.444,4.444,0,0,1-4.43-4.43V23.467h-6.645V58.909A4.444,4.444,0,0,0,124.7,63.339Z" transform="translate(-31.661 -7.961)" fill="#cfd8dc"/>
            <path id="Shape-6" data-name="Shape" d="M169.454,76.267h-6.645a2.682,2.682,0,0,1,.022.421v23.946a4.444,4.444,0,0,1-4.43,4.43h6.645a4.444,4.444,0,0,0,4.43-4.43V76.688A2.68,2.68,0,0,0,169.454,76.267Z" transform="translate(-40.997 -20.888)" fill="#cfd8dc"/>
            <path id="Shape-7" data-name="Shape" d="M162.272,63.339H133.5a4.444,4.444,0,0,1-4.43-4.43V23.467H143.82a4.43,4.43,0,0,1,4.1,2.747L161.3,58.688A12.95,12.95,0,0,1,162.272,63.339Z" transform="translate(-33.815 -7.961)" fill="#02a9f4"/>
            <path id="Shape-8" data-name="Shape" d="M163.926,58.688l-13.38-32.474a4.43,4.43,0,0,0-4.1-2.747H139.8a4.43,4.43,0,0,1,4.1,2.747l13.38,32.474a12.95,12.95,0,0,1,.975,4.652H164.9A12.95,12.95,0,0,0,163.926,58.688Z" transform="translate(-36.444 -7.961)" fill="#0377bc"/>
            <path id="Shape-9" data-name="Shape" d="M84.894,7.364V73.818H7.364a4.444,4.444,0,0,1-4.43-4.43V7.364a4.444,4.444,0,0,1,4.43-4.43h73.1A4.444,4.444,0,0,1,84.894,7.364Z" transform="translate(-2.933 -2.933)" fill="#ffa031"/>
            <path id="Shape-10" data-name="Shape" d="M103.445,2.933H96.8a4.444,4.444,0,0,1,4.43,4.43V73.818h6.645V7.364A4.444,4.444,0,0,0,103.445,2.933Z" transform="translate(-25.915 -2.933)" fill="#c81e1e"/>
          </g>
          <path id="Shape-11" data-name="Shape" d="M171.63,88H167.2" transform="translate(-40.936 -21.545)" fill="none" stroke="#000" stroke-linecap="round" stroke-linejoin="round" stroke-width="5.867" fill-rule="evenodd"/>
          <path id="Shape-12" data-name="Shape" d="M171.63,99.733H167.2" transform="translate(-40.936 -24.418)" fill="none" stroke="#000" stroke-linecap="round" stroke-linejoin="round" stroke-width="5.867" fill-rule="evenodd"/>
          <circle id="Oval-3" data-name="Oval" cx="4.43" cy="4.43" r="4.43" transform="translate(93.036 81.961)" fill="#9e9e9e"/>
          <circle id="Oval-4" data-name="Oval" cx="4.43" cy="4.43" r="4.43" transform="translate(19.936 81.961)" fill="#9e9e9e"/>
          <path id="Shape-13" data-name="Shape" d="M20.594,16.164H13.948a2.215,2.215,0,0,1,0-4.43h6.645a2.215,2.215,0,0,1,0,4.43Z" transform="translate(-2.873 -2.873)" fill="#f5f5f5"/>
          <path id="Shape-14" data-name="Shape" d="M83.215,16.164H34.482a2.215,2.215,0,1,1,0-4.43H83.215a2.215,2.215,0,0,1,0,4.43Z" transform="translate(-7.9 -2.873)" fill="#f5f5f5"/>
          <path id="Shape-15" data-name="Shape" d="M126.912,105.6a6.645,6.645,0,1,0,6.645,6.645A6.645,6.645,0,0,0,126.912,105.6Zm0,8.861a2.215,2.215,0,1,1,2.215-2.215A2.215,2.215,0,0,1,126.912,114.461Z" transform="translate(-29.445 -25.855)" fill="#12263f"/>
          <path id="Shape-16" data-name="Shape" d="M30.112,105.6a6.645,6.645,0,1,0,6.645,6.645A6.645,6.645,0,0,0,30.112,105.6Zm0,8.861a2.215,2.215,0,1,1,2.215-2.215A2.215,2.215,0,0,1,30.112,114.461Z" transform="translate(-5.745 -25.855)" fill="#12263f"/>
          <path id="Shape-17" data-name="Shape" d="M118.367,19.62a6.626,6.626,0,0,0-6.147-4.114H86.391V6.645A6.645,6.645,0,0,0,79.745,0H6.645A6.645,6.645,0,0,0,0,6.645V68.67a6.6,6.6,0,0,0,2.392,5.064A8.843,8.843,0,0,0,8.861,88.606h.177a15.486,15.486,0,0,0,30.658,0H82.138a15.486,15.486,0,0,0,30.658,0h13.468a6.645,6.645,0,0,0,6.645-6.645V58.008a15.46,15.46,0,0,0-1.167-5.906Zm-4.1,1.688,13.375,32.485a11.075,11.075,0,0,1,.481,1.586H101.9a2.215,2.215,0,0,1-2.215-2.215V19.936H112.22a2.215,2.215,0,0,1,2.049,1.371ZM35.2,75.315H86.635a15.462,15.462,0,0,0-4.5,8.861H39.7A15.462,15.462,0,0,0,35.2,75.315ZM4.43,6.645A2.215,2.215,0,0,1,6.645,4.43h73.1a2.215,2.215,0,0,1,2.215,2.215V70.885H6.645A2.215,2.215,0,0,1,4.43,68.67Zm1.3,76.23a4.43,4.43,0,0,1,3.13-7.56h4.674a15.462,15.462,0,0,0-4.5,8.861H8.861a4.393,4.393,0,0,1-3.13-1.3ZM24.367,97.467A11.076,11.076,0,1,1,35.442,86.391,11.076,11.076,0,0,1,24.367,97.467Zm73.1,0a11.076,11.076,0,1,1,11.076-11.076A11.076,11.076,0,0,1,97.467,97.467Zm28.8-13.291H112.8A15.506,15.506,0,0,0,97.467,70.885H86.391V19.936h8.861V53.164a6.645,6.645,0,0,0,6.645,6.645h26.582v4.43h-2.215a2.215,2.215,0,1,0,0,4.43h2.215V73.1h-2.215a2.215,2.215,0,1,0,0,4.43h2.215v4.43a2.215,2.215,0,0,1-2.215,2.215Z" transform="translate(0 0)" fill="#12263f"/>
        </g>
      </g>
    </g>
  </g>
</svg>
