<svg xmlns="http://www.w3.org/2000/svg" xmlns:xlink="http://www.w3.org/1999/xlink" width="399.2" height="462.429" viewBox="0 0 399.2 462.429">
  <defs>
    <clipPath id="clip-path">
      <rect id="Rectángulo_350572" data-name="Rectángulo 350572" width="88.756" height="52.675" fill="none"/>
    </clipPath>
  </defs>
  <g id="Grupo_1033888" data-name="Grupo 1033888" transform="translate(11125.973 10232.932)">
    <path id="Trazado_727775" data-name="Trazado 727775" d="M287.076,134.842A49.561,49.561,0,0,0,279.995,152l-9.582.9,0,18.557,9.583.9a49.58,49.58,0,0,0,7.081,17.16l-6.12,7.392,13.122,13.121,7.392-6.12A49.548,49.548,0,0,0,318.629,211l.9,9.583h18.556l.9-9.581a49.6,49.6,0,0,0,17.16-7.082l7.392,6.12,13.122-13.121-6.12-7.393a49.584,49.584,0,0,0,7.081-17.159l9.581-.9,0-18.557-9.582-.9a49.593,49.593,0,0,0-7.082-17.158l6.12-7.393-13.122-13.121-7.392,6.12a49.579,49.579,0,0,0-17.159-7.082l-.9-9.583H319.532l-.9,9.583a49.553,49.553,0,0,0-17.158,7.081l-7.393-6.12-13.122,13.122Zm59.5,9.576a25.122,25.122,0,1,1-35.527,0,25.124,25.124,0,0,1,35.527,0" transform="translate(-11278.221 -10138.414)" fill="#e0e0e0"/>
    <path id="Trazado_727776" data-name="Trazado 727776" d="M180.954,97.167a27.888,27.888,0,0,0-3.986,9.657l-5.393.508v10.444l5.393.508a27.9,27.9,0,0,0,3.986,9.657l-3.445,4.16,7.385,7.385,4.161-3.444a27.886,27.886,0,0,0,9.657,3.985l.507,5.393h10.444l.508-5.392a27.928,27.928,0,0,0,9.658-3.986l4.16,3.444,7.385-7.385-3.444-4.16a27.913,27.913,0,0,0,3.985-9.657l5.393-.508V107.332l-5.393-.509a27.9,27.9,0,0,0-3.986-9.656l3.445-4.161-7.385-7.384-4.16,3.444a27.913,27.913,0,0,0-9.657-3.986l-.508-5.393H199.22l-.507,5.393a27.888,27.888,0,0,0-9.657,3.986l-4.161-3.445-7.385,7.385Zm33.486,5.389a14.139,14.139,0,1,1-20,0,14.14,14.14,0,0,1,20,0" transform="translate(-11256.763 -10133.182)" fill="#e0e0e0"/>
    <path id="Trazado_727777" data-name="Trazado 727777" d="M218.243,41.616a13.961,13.961,0,0,0-1.992,4.827l-2.7.254v5.22l2.7.254A13.931,13.931,0,0,0,218.243,57l-1.722,2.079,3.691,3.691,2.079-1.722a13.94,13.94,0,0,0,4.827,1.992l.254,2.7h5.22l.254-2.695a13.943,13.943,0,0,0,4.827-1.992l2.079,1.722,3.691-3.691L241.722,57a13.944,13.944,0,0,0,1.991-4.827l2.7-.254V46.7l-2.7-.254a13.944,13.944,0,0,0-1.991-4.827l1.721-2.079-3.691-3.691-2.079,1.722a13.947,13.947,0,0,0-4.827-1.992l-.254-2.7h-5.22l-.254,2.695a13.941,13.941,0,0,0-4.827,1.992l-2.079-1.722-3.691,3.691ZM234.98,44.31a7.066,7.066,0,1,1-9.994,0,7.068,7.068,0,0,1,9.994,0" transform="translate(-11265.877 -10123.021)" fill="#e0e0e0"/>
    <g id="Grupo_1033889" data-name="Grupo 1033889" transform="translate(-10.794 -76.303)">
      <path id="Trazado_727778" data-name="Trazado 727778" d="M152.87,226.208l-33.684,6.627a2.749,2.749,0,0,1-3.228-2.167l-8.817-44.813a2.749,2.749,0,0,1,2.166-3.228L142.991,176a2.75,2.75,0,0,1,3.229,2.167l8.817,44.813a2.75,2.75,0,0,1-2.167,3.229" transform="translate(-11081.067 -10332.576)" fill="#e6e6e6"/>
      <path id="Trazado_727779" data-name="Trazado 727779" d="M142.439,194.79,120.547,199.1a1.39,1.39,0,0,1-1.632-1.1l-.119-.608a1.389,1.389,0,0,1,1.094-1.632l21.891-4.308a1.389,1.389,0,0,1,1.632,1.1l.119.608a1.388,1.388,0,0,1-1.094,1.632" transform="translate(-11084.845 -10335.814)" fill="#f0f0f0"/>
      <path id="Trazado_727780" data-name="Trazado 727780" d="M144.582,205.686l-21.891,4.308a1.389,1.389,0,0,1-1.632-1.1l-.119-.608a1.388,1.388,0,0,1,1.094-1.631l21.891-4.308a1.389,1.389,0,0,1,1.632,1.1l.119.608a1.388,1.388,0,0,1-1.094,1.632" transform="translate(-11085.31 -10338.18)" fill="#f0f0f0"/>
      <path id="Trazado_727781" data-name="Trazado 727781" d="M146.726,216.581l-21.891,4.308a1.39,1.39,0,0,1-1.632-1.1l-.119-.608a1.389,1.389,0,0,1,1.094-1.632l21.891-4.308a1.389,1.389,0,0,1,1.632,1.1l.119.608a1.388,1.388,0,0,1-1.094,1.632" transform="translate(-11085.775 -10340.545)" fill="#f0f0f0"/>
      <path id="Trazado_727782" data-name="Trazado 727782" d="M137.224,230.4l-10.246,2.016a1.389,1.389,0,0,1-1.632-1.1l-.12-.608a1.389,1.389,0,0,1,1.1-1.632l10.246-2.016a1.389,1.389,0,0,1,1.632,1.1l.12.608a1.389,1.389,0,0,1-1.1,1.632" transform="translate(-11086.24 -10343.546)" fill="#f0f0f0"/>
    </g>
    <path id="Trazado_727783" data-name="Trazado 727783" d="M200.863,287.5l-21.318-2.545a2.749,2.749,0,0,1-2.4-3.056l3.456-28.945a2.749,2.749,0,0,1,3.056-2.4l21.318,2.545a2.75,2.75,0,0,1,2.4,3.056L203.919,285.1a2.749,2.749,0,0,1-3.056,2.4" transform="translate(-11257.967 -10170.273)" fill="#e6e6e6"/>
    <path id="Trazado_727784" data-name="Trazado 727784" d="M202.576,264.665l-14.585-1.741a1.15,1.15,0,0,1,.272-2.285l14.584,1.741a1.15,1.15,0,1,1-.272,2.284" transform="translate(-11260.106 -10172.465)" fill="#f0f0f0"/>
    <path id="Trazado_727785" data-name="Trazado 727785" d="M201.685,272.131,187.1,270.39a1.15,1.15,0,1,1,.272-2.284l14.584,1.741a1.15,1.15,0,0,1-.272,2.285" transform="translate(-11259.913 -10174.086)" fill="#f0f0f0"/>
    <path id="Trazado_727786" data-name="Trazado 727786" d="M200.794,279.6l-14.584-1.741a1.15,1.15,0,1,1,.272-2.284l14.584,1.741a1.15,1.15,0,0,1-.272,2.285" transform="translate(-11259.72 -10175.707)" fill="#f0f0f0"/>
    <path id="Trazado_727787" data-name="Trazado 727787" d="M191.923,286.11l-6.6-.788a1.15,1.15,0,0,1,.273-2.285l6.6.788a1.15,1.15,0,0,1-.272,2.285" transform="translate(-11259.526 -10177.328)" fill="#f0f0f0"/>
    <path id="Trazado_727788" data-name="Trazado 727788" d="M650.64,169.419l-25.207-9.563a2.75,2.75,0,0,1-1.595-3.546l12.843-33.849a2.749,2.749,0,0,1,3.545-1.6l25.206,9.563a2.749,2.749,0,0,1,1.595,3.546l-12.841,33.849a2.749,2.749,0,0,1-3.546,1.6" transform="translate(-11408.233 -10296.923)" fill="#e6e6e6"/>
    <path id="Trazado_727789" data-name="Trazado 727789" d="M661.472,142.765l-16.965-6.437a1.15,1.15,0,0,1-.668-1.484l.166-.438a1.15,1.15,0,0,1,1.484-.668l16.966,6.437a1.15,1.15,0,0,1,.667,1.484l-.166.438a1.15,1.15,0,0,1-1.484.668" transform="translate(-11412.599 -10299.741)" fill="#f0f0f0"/>
    <path id="Trazado_727790" data-name="Trazado 727790" d="M658.262,151.225,641.3,144.788a1.15,1.15,0,0,1-.668-1.484l.166-.438a1.151,1.151,0,0,1,1.484-.668l16.966,6.437a1.151,1.151,0,0,1,.667,1.484l-.166.438a1.15,1.15,0,0,1-1.484.668" transform="translate(-11411.901 -10301.578)" fill="#f0f0f0"/>
    <path id="Trazado_727791" data-name="Trazado 727791" d="M655.052,159.686l-16.965-6.436a1.151,1.151,0,0,1-.668-1.484l.166-.438a1.151,1.151,0,0,1,1.484-.668l16.966,6.437a1.15,1.15,0,0,1,.667,1.484l-.166.438a1.15,1.15,0,0,1-1.484.668" transform="translate(-11411.205 -10303.414)" fill="#f0f0f0"/>
    <path id="Trazado_727792" data-name="Trazado 727792" d="M642.8,164.716l-7.922-3.006a1.15,1.15,0,0,1-.668-1.484l.166-.438a1.151,1.151,0,0,1,1.484-.667l7.923,3.006a1.15,1.15,0,0,1,.667,1.484l-.166.438a1.15,1.15,0,0,1-1.484.668" transform="translate(-11410.508 -10305.252)" fill="#f0f0f0"/>
    <path id="Trazado_727793" data-name="Trazado 727793" d="M395.207,37.477h-7.943a1.231,1.231,0,0,1-1.23-1.23V26.4a1.231,1.231,0,0,1,1.23-1.231h7.943a1.23,1.23,0,0,1,1.23,1.231v9.85a1.23,1.23,0,0,1-1.23,1.23" transform="translate(-11303.321 -10121.347)" fill="#e0e0e0"/>
    <path id="Trazado_727794" data-name="Trazado 727794" d="M415.191,34.822h-7.943a1.231,1.231,0,0,1-1.23-1.23V14.168a1.23,1.23,0,0,1,1.23-1.23h7.943a1.23,1.23,0,0,1,1.23,1.23V33.592a1.23,1.23,0,0,1-1.23,1.23" transform="translate(-11307.66 -10118.691)" fill="#e0e0e0"/>
    <path id="Trazado_727795" data-name="Trazado 727795" d="M436.705,32.475h-7.943a1.23,1.23,0,0,1-1.23-1.23V2.092a1.23,1.23,0,0,1,1.23-1.23h7.943a1.23,1.23,0,0,1,1.23,1.23V31.245a1.23,1.23,0,0,1-1.23,1.23" transform="translate(-11312.331 -10116.069)" fill="#e0e0e0"/>
    <path id="Trazado_727796" data-name="Trazado 727796" d="M474.1,227.553a26.822,26.822,0,0,0-3.835,9.292l-5.189.489v10.049l5.19.489a26.835,26.835,0,0,0,3.835,9.292l-3.315,4,7.106,7.106,4-3.314a26.845,26.845,0,0,0,9.293,3.835l.489,5.19h10.049l.489-5.188a26.862,26.862,0,0,0,9.293-3.835l4,3.314,7.106-7.106-3.314-4a26.847,26.847,0,0,0,3.835-9.292l5.188-.489V237.334l-5.189-.489a26.842,26.842,0,0,0-3.835-9.292l3.315-4-7.106-7.106-4,3.314a26.853,26.853,0,0,0-9.293-3.835l-.489-5.189H491.671l-.489,5.189a26.837,26.837,0,0,0-9.292,3.835l-4-3.315-7.106,7.106Zm32.221,5.186a13.6,13.6,0,1,1-19.24,0,13.606,13.606,0,0,1,19.24,0" transform="translate(-11320.48 -10161.633)" fill="#e0e0e0"/>
    <path id="Trazado_727797" data-name="Trazado 727797" d="M554.888,260.4a12.67,12.67,0,0,0-1.809,4.385l-2.449.23v4.742l2.449.231a12.666,12.666,0,0,0,1.809,4.385l-1.563,1.888,3.353,3.353,1.888-1.563a12.675,12.675,0,0,0,4.385,1.809l.23,2.449h4.742l.231-2.448a12.682,12.682,0,0,0,4.385-1.809l1.888,1.563,3.353-3.353-1.563-1.889a12.672,12.672,0,0,0,1.809-4.384l2.448-.231V265.01l-2.449-.23a12.677,12.677,0,0,0-1.81-4.385l1.564-1.888-3.353-3.353-1.889,1.563a12.657,12.657,0,0,0-4.384-1.809l-.231-2.449h-4.742l-.23,2.449a12.65,12.65,0,0,0-4.384,1.809l-1.889-1.564-3.353,3.353Zm15.2,2.447a6.419,6.419,0,1,1-9.078,0,6.42,6.42,0,0,1,9.078,0" transform="translate(-11339.056 -10170.691)" fill="#e0e0e0"/>
    <path id="Trazado_727798" data-name="Trazado 727798" d="M501.028,168.222a12.669,12.669,0,0,0-1.809,4.385l-2.449.23v4.742l2.449.231a12.665,12.665,0,0,0,1.809,4.385l-1.563,1.888,3.353,3.353,1.888-1.563a12.682,12.682,0,0,0,4.385,1.809l.23,2.449h4.742l.231-2.448a12.682,12.682,0,0,0,4.385-1.809l1.888,1.563,3.353-3.353-1.563-1.889a12.671,12.671,0,0,0,1.809-4.384l2.448-.231v-4.742l-2.449-.23a12.675,12.675,0,0,0-1.809-4.385l1.563-1.889-3.353-3.352-1.888,1.563a12.666,12.666,0,0,0-4.385-1.809l-.231-2.449h-4.742l-.23,2.449a12.656,12.656,0,0,0-4.384,1.809l-1.889-1.564-3.353,3.353Zm15.2,2.447a6.42,6.42,0,1,1-9.079,0,6.42,6.42,0,0,1,9.079,0" transform="translate(-11327.362 -10150.681)" fill="#f5f5f5"/>
    <path id="Trazado_727799" data-name="Trazado 727799" d="M549.379,188.527a23.769,23.769,0,0,0-3.4,8.233l-4.6.433v8.9l4.6.433a23.782,23.782,0,0,0,3.4,8.233l-2.936,3.546,6.3,6.3,3.547-2.936a23.779,23.779,0,0,0,8.232,3.4l.433,4.6h8.9l.434-4.6a23.789,23.789,0,0,0,8.232-3.4l3.547,2.936,6.3-6.3-2.936-3.547a23.765,23.765,0,0,0,3.4-8.232l4.6-.433v-8.9l-4.6-.434a23.8,23.8,0,0,0-3.4-8.231l2.936-3.547-6.3-6.294-3.547,2.936a23.779,23.779,0,0,0-8.232-3.4l-.433-4.6h-8.9l-.433,4.6a23.793,23.793,0,0,0-8.232,3.4l-3.547-2.936-6.3,6.3Zm28.545,4.595a12.052,12.052,0,1,1-17.045,0,12.054,12.054,0,0,1,17.045,0" transform="translate(-11337.048 -10153.577)" fill="#f5f5f5"/>
    <path id="Trazado_727800" data-name="Trazado 727800" d="M144.333,30.444a20.794,20.794,0,0,0-2.968,7.192l-4.015.378v7.777l4.017.379a20.784,20.784,0,0,0,2.967,7.192l-2.565,3.1,5.5,5.5,3.1-2.566a20.764,20.764,0,0,0,7.192,2.968l.378,4.016h7.777l.378-4.016a20.783,20.783,0,0,0,7.193-2.968l3.1,2.566,5.5-5.5-2.566-3.1a20.776,20.776,0,0,0,2.968-7.191l4.015-.379V38.014l-4.016-.378a20.77,20.77,0,0,0-2.968-7.191l2.565-3.1-5.5-5.5-3.1,2.566a20.781,20.781,0,0,0-7.192-2.969l-.378-4.016h-7.777l-.378,4.016a20.763,20.763,0,0,0-7.192,2.967l-3.1-2.565-5.5,5.5Zm24.937,4.014a10.529,10.529,0,1,1-14.89,0,10.53,10.53,0,0,1,14.89,0" transform="translate(-11249.332 -10119.666)" fill="#f5f5f5"/>
    <path id="Trazado_727802" data-name="Trazado 727802" d="M424.793,215.3H283.287a4.6,4.6,0,0,1-4.59-4.589V4.589A4.6,4.6,0,0,1,283.287,0H424.793a4.594,4.594,0,0,1,4.589,4.589V210.706a4.594,4.594,0,0,1-4.589,4.589M283.287.2a4.4,4.4,0,0,0-4.394,4.394V210.706a4.4,4.4,0,0,0,4.394,4.394H424.793a4.4,4.4,0,0,0,4.394-4.394V4.589A4.4,4.4,0,0,0,424.793.2Z" transform="translate(-11280.019 -10115.883)" fill="#e0e0e0"/>
    <rect id="Rectángulo_350566" data-name="Rectángulo 350566" width="11.451" height="0.33" transform="translate(-10831.943 -9826.202)" fill="#ebebeb"/>
    <rect id="Rectángulo_350568" data-name="Rectángulo 350568" width="8.343" height="0.33" transform="translate(-11119.068 -9839.796)" fill="#ebebeb"/>
    <rect id="Rectángulo_350569" data-name="Rectángulo 350569" width="123.395" height="0.33" transform="translate(-11083.613 -9834.233)" fill="#ebebeb"/>
    <path id="Trazado_727804" data-name="Trazado 727804" d="M518.928,417.127c0,2.652-89.164,4.8-199.153,4.8s-199.153-2.149-199.153-4.8,89.164-4.8,199.153-4.8,199.153,2.149,199.153,4.8" transform="translate(-11245.701 -10205.398)" fill="#f5f5f5"/>
    <path id="Trazado_727805" data-name="Trazado 727805" d="M156.819,137.405H74.474a3.205,3.205,0,0,1-3.205-3.206V87.936a3.205,3.205,0,0,1,3.205-3.206h82.345a3.206,3.206,0,0,1,3.206,3.206V134.2a3.206,3.206,0,0,1-3.206,3.206" transform="translate(-11154.958 -10270.056)" fill="#407bff"/>
    <g id="Grupo_1029861" data-name="Grupo 1029861" transform="translate(-11083.688 -10185.326)" opacity="0.8">
      <g id="Grupo_1029860" data-name="Grupo 1029860">
        <g id="Grupo_1029859" data-name="Grupo 1029859" clip-path="url(#clip-path)">
          <path id="Trazado_727806" data-name="Trazado 727806" d="M156.819,137.405H74.474a3.205,3.205,0,0,1-3.205-3.206V87.936a3.205,3.205,0,0,1,3.205-3.206h82.345a3.206,3.206,0,0,1,3.206,3.206V134.2a3.206,3.206,0,0,1-3.206,3.206" transform="translate(-71.269 -84.73)" fill="#fff"/>
        </g>
      </g>
    </g>
    <path id="Trazado_727807" data-name="Trazado 727807" d="M88.313,117.292c.385-.347,10.773-10.6,10.773-10.6l10.246,5.043,10.015-11.783,10.246,14.764,9.992-6.521" transform="translate(-11158.658 -10273.36)" fill="none" stroke="#263238" stroke-miterlimit="10" stroke-width="0.5"/>
    <rect id="Rectángulo_350573" data-name="Rectángulo 350573" width="4.803" height="10.644" transform="translate(-11071.938 -10151.45)" fill="#407bff"/>
    <rect id="Rectángulo_350574" data-name="Rectángulo 350574" width="4.803" height="17.676" transform="translate(-11062.049 -10158.482)" fill="#ffa031"/>
    <rect id="Rectángulo_350575" data-name="Rectángulo 350575" width="4.804" height="15.899" transform="translate(-11051.972 -10156.705)" fill="#407bff"/>
    <rect id="Rectángulo_350576" data-name="Rectángulo 350576" width="4.804" height="25.865" transform="translate(-11041.713 -10166.671)" fill="#ffa031"/>
    <rect id="Rectángulo_350577" data-name="Rectángulo 350577" width="4.804" height="12.15" transform="translate(-11031.345 -10152.956)" fill="#407bff"/>
    <path id="Trazado_727808" data-name="Trazado 727808" d="M91.21,119.846a2.581,2.581,0,1,1-2.58-2.58,2.58,2.58,0,0,1,2.58,2.58" transform="translate(-11158.166 -10277.119)" fill="#407bff"/>
    <path id="Trazado_727809" data-name="Trazado 727809" d="M103.842,107.842a2.581,2.581,0,1,1-2.58-2.58,2.58,2.58,0,0,1,2.58,2.58" transform="translate(-11160.908 -10274.514)" fill="#407bff"/>
    <path id="Trazado_727810" data-name="Trazado 727810" d="M117.026,113.254a2.581,2.581,0,1,1-2.58-2.58,2.58,2.58,0,0,1,2.58,2.58" transform="translate(-11163.771 -10275.688)" fill="#407bff"/>
    <path id="Trazado_727811" data-name="Trazado 727811" d="M129.818,99.232a2.581,2.581,0,1,1-2.58-2.58,2.581,2.581,0,0,1,2.58,2.58" transform="translate(-11166.548 -10272.645)" fill="#407bff"/>
    <path id="Trazado_727812" data-name="Trazado 727812" d="M142.9,118.09a2.581,2.581,0,1,1-2.58-2.58,2.581,2.581,0,0,1,2.58,2.58" transform="translate(-11169.389 -10276.738)" fill="#407bff"/>
    <rect id="Rectángulo_350578" data-name="Rectángulo 350578" width="4.804" height="18.242" transform="translate(-11021.078 -10159.049)" fill="#ffa031"/>
    <rect id="Rectángulo_350585" data-name="Rectángulo 350585" width="4.803" height="12.15" transform="translate(-11010.45 -10152.956)" fill="#407bff"/>
    <line id="Línea_2740" data-name="Línea 2740" x2="11.023" y2="6.121" transform="translate(-11019.073 -10165.169)" fill="none" stroke="#263238" stroke-miterlimit="10" stroke-width="0.5"/>
    <path id="Trazado_727813" data-name="Trazado 727813" d="M156.4,109.761a2.581,2.581,0,1,1-2.581-2.58,2.581,2.581,0,0,1,2.581,2.58" transform="translate(-11172.319 -10274.931)" fill="#407bff"/>
    <path id="Trazado_727814" data-name="Trazado 727814" d="M169.748,117.579a2.581,2.581,0,1,1-2.58-2.58,2.58,2.58,0,0,1,2.58,2.58" transform="translate(-11175.217 -10276.627)" fill="#407bff"/>
    <path id="Trazado_727823" data-name="Trazado 727823" d="M535.443,144.528l8.779,41.337a2.3,2.3,0,0,1-3.272,2.547l-30.662-15.089a2.305,2.305,0,0,1-.753-3.544l21.884-26.248a2.3,2.3,0,0,1,4.025,1" transform="translate(-11330.017 -10146.863)" fill="#4db1f0"/>
    <path id="Trazado_727825" data-name="Trazado 727825" d="M523.553,151.179l-3.406-23.623a44.57,44.57,0,1,0-49.466-33l-23.109,5.97a68.431,68.431,0,1,1,75.98,50.654" transform="translate(-11316.211 -10119.14)" fill="#4db1f0"/>
    <path id="Trazado_727827" data-name="Trazado 727827" d="M548.2,109.7a27.662,27.662,0,1,1,.581-39.116A27.661,27.661,0,0,1,548.2,109.7" transform="translate(-11328.341 -10129.384)" fill="#407bff"/>
    <path id="Trazado_727828" data-name="Trazado 727828" d="M548.2,109.7a27.662,27.662,0,1,1,.581-39.116A27.661,27.661,0,0,1,548.2,109.7" transform="translate(-11328.341 -10129.385)"/>
    <rect id="Rectángulo_350594" data-name="Rectángulo 350594" width="55.324" height="55.324" transform="translate(-10827.065 -10067.193)" fill="none"/>
    <path id="Trazado_727829" data-name="Trazado 727829" d="M546.348,107.789a27.662,27.662,0,1,1,.581-39.115,27.663,27.663,0,0,1-.581,39.115" transform="translate(-11327.938 -10128.969)" fill="#ffa031"/>
    <path id="Trazado_727830" data-name="Trazado 727830" d="M544.386,105.729a22.981,22.981,0,1,1,.483-32.5,22.981,22.981,0,0,1-.483,32.5" transform="translate(-11329.235 -10130.267)" fill="#fff"/>
    <path id="Trazado_727831" data-name="Trazado 727831" d="M518.262,106.506l3.053-4.523c.089.06.179.12.27.178l-2.941,4.6c-.128-.082-.256-.166-.381-.251m-6.095-6.6q-.113-.2-.221-.4l4.812-2.569c.051.095.1.189.156.282Zm14.933,9.854.6-5.422.339.034-.5,5.433q-.221-.02-.44-.045m-17.487-18.92c0-.151-.009-.3-.01-.453l5.457-.054.006.329Zm26.823,17.7-1.985-5.082.307-.123,2.174,5-.129.054c-.088.038-.227.092-.366.147m-24.87-26.905q.1-.206.2-.409l4.859,2.481c-.049.1-.1.193-.144.291Zm28.5,17.866c.067-.078.134-.157.2-.236l4.214,3.467c-.1.121-.2.24-.3.359ZM520.818,78.765l-3.237-4.391.355-.257,3.161,4.448Zm22.328,14.679.072-.325,5.336,1.141c-.031.146-.063.292-.1.437ZM527.107,76.136l-.842-5.391c.144-.023.29-.043.435-.063l.745,5.4Zm15.963,10.5c-.027-.1-.054-.2-.084-.307l5.247-1.5q.063.223.121.445Zm-9.182-9.905,1.761-5.164c.148.051.294.1.442.157l-1.909,5.112c-.1-.037-.2-.071-.294-.1m5.953,3.912-.222-.239,3.96-3.755c.1.11.207.221.309.333Z" transform="translate(-11330.147 -10131.228)"/>
    <path id="Trazado_727832" data-name="Trazado 727832" d="M527.364,84.7l5.485,9.436,8.874-8.633" transform="translate(-11334.005 -10134.271)" fill="none" stroke="#000" stroke-linecap="round" stroke-linejoin="round" stroke-width="1"/>
    <path id="Trazado_727833" data-name="Trazado 727833" d="M535.581,96.509a1.716,1.716,0,1,1-.159-2.422,1.716,1.716,0,0,1,.159,2.422" transform="translate(-11335.136 -10136.216)"/>
    <path id="Trazado_727834" data-name="Trazado 727834" d="M513.053,74.4a22.979,22.979,0,0,1,37.369,8.018,22.975,22.975,0,1,0-43.358,15.086,22.965,22.965,0,0,1,5.989-23.1" transform="translate(-11329.247 -10130.223)"/>
    <rect id="Rectángulo_350595" data-name="Rectángulo 350595" width="44.973" height="31.452" transform="translate(-10823.797 -10064.169)" fill="none"/>
    <path id="Trazado_727835" data-name="Trazado 727835" d="M231.657,250.677A120.411,120.411,0,0,1,290.369,53.658L281.5,64.8l15.544,14.212a94.2,94.2,0,0,0-45.918,154.116Z" transform="translate(-11263.087 -10127.531)" fill="#4db1f0"/>
    <path id="Trazado_727836" data-name="Trazado 727836" d="M242.828,301.943c.972-.243,33.06,0,33.06,0l-16.18-19.053-19.468,17.553Z" transform="translate(-11271.67 -10177.298)" fill="#4db1f0"/>
    <path id="Trazado_727839" data-name="Trazado 727839" d="M546.132,349.35V307.091a2.3,2.3,0,0,1,3.73-1.811l26.859,21.129a2.3,2.3,0,0,1,0,3.623l-26.859,21.13a2.3,2.3,0,0,1-3.73-1.812" transform="translate(-11338.078 -10182.051)" fill="#4db1f0"/>
    <rect id="Rectángulo_350597" data-name="Rectángulo 350597" width="149.29" height="25.123" transform="translate(-10936.881 -9866.392)" fill="#4db1f0"/>
    <path id="Trazado_727841" data-name="Trazado 727841" d="M317.174,48.691V74.443c54.148,0,98.2,41.5,98.2,92.516s-44.053,92.517-98.2,92.517H141.735v25.752H317.174c69.22,0,125.535-53.055,125.535-118.269S386.394,48.691,317.174,48.691" transform="translate(-11267.708 -10126.454)" fill="#115089"/>
    <path id="Trazado_727842" data-name="Trazado 727842" d="M350.5,37.616l-.085,42.259a2.3,2.3,0,0,1-3.734,1.8L319.87,60.5a2.3,2.3,0,0,1,.007-3.623l26.9-21.075a2.3,2.3,0,0,1,3.727,1.819" transform="translate(-11288.768 -10123.547)" fill="#115089"/>
    <path id="Trazado_727843" data-name="Trazado 727843" d="M350.078,318.872c.512,0-10.49,6.969-17.925,6.908l-.7,18.8h-4.92l-9.4-25.123Z" transform="translate(-11288.361 -10185.11)"/>
    <rect id="Rectángulo_350599" data-name="Rectángulo 350599" width="32.97" height="25.709" transform="translate(-10971.235 -9866.238)" fill="none"/>
    <path id="Trazado_727844" data-name="Trazado 727844" d="M337.658,151.114c3.45,5.449,4.718,8.747,5.256,14.1.629,6.257.6,11.808-.723,13.48-1.739,2.194-21.5,5.094-32.644,5.159-.4,0-.9-3.514-.9-3.514s-1.418,3.522-1.942,3.523c-3.042,0-4.992-.019-4.992-.019s2.276-5.3,4.494-24.124c1.084-9.2,10.093-13.265,15.469-14.2,8.961-1.562,15.984,5.6,15.984,5.6" transform="translate(-11285.016 -10147.427)" fill="#263238"/>
    <path id="Trazado_727845" data-name="Trazado 727845" d="M314.037,169.892c-3.146-4.9-6.664-18.336,5.274-23.085,14.9-5.927,22.132,3.417,23.878,12.927s-3.315,16.994-13.355,16.732-13.62-3.185-15.8-6.575" transform="translate(-11287.031 -10147.352)" fill="#263238"/>
    <path id="Trazado_727846" data-name="Trazado 727846" d="M341.893,194.8s-3.352,2.578-7.669,6.3a15.961,15.961,0,0,1-2.937,2c-2.829,1.5-5.407,2.362-6.105,1a4.64,4.64,0,0,1-.363-.965c-.593-2.284-.35-5.494,1.5-6.963,2.082-1.657,3.085-3.074,2.71-5.316a16.8,16.8,0,0,0-1.195-3.859l1.638-1.914,8.566-8.645c-.215,5.772-.651,15.231,3.86,18.364" transform="translate(-11289.969 -10154.186)" fill="#ebb373"/>
    <path id="Trazado_727847" data-name="Trazado 727847" d="M330.131,192.82c2.356-1.4,4.941-3.824,4.631-6.6a13,13,0,0,0-.669-2.982l-4.785,6.335a15.975,15.975,0,0,1,.824,3.242" transform="translate(-11291.006 -10155.664)"/>
    <rect id="Rectángulo_350600" data-name="Rectángulo 350600" width="5.48" height="9.577" transform="translate(-10961.699 -9972.421)" fill="none"/>
    <path id="Trazado_727848" data-name="Trazado 727848" d="M337.881,161.082c-.806,8.8-.961,12.533-5.5,17.148-6.831,6.942-17.341,4.607-19.151-4.117-1.628-7.852-.036-20.925,8.6-24.625a11.32,11.32,0,0,1,16.05,11.593" transform="translate(-11287.393 -10148.11)" fill="#ebb373"/>
    <path id="Trazado_727849" data-name="Trazado 727849" d="M330.154,168.219c-.049.886-.594,1.616-1.217,1.628s-1.087-.694-1.038-1.581.593-1.615,1.217-1.628,1.087.7,1.038,1.581" transform="translate(-11290.7 -10152.06)" fill="#263238"/>
    <path id="Trazado_727850" data-name="Trazado 727850" d="M318.478,168.034c-.049.846-.585,1.542-1.2,1.556s-1.067-.662-1.019-1.509.585-1.543,1.2-1.556,1.067.662,1.019,1.509" transform="translate(-11288.174 -10152.035)" fill="#263238"/>
    <path id="Trazado_727851" data-name="Trazado 727851" d="M331.221,164.056a.449.449,0,0,1-.347-.068,3.644,3.644,0,0,0-3.2-.513.428.428,0,0,1-.571-.241.478.478,0,0,1,.308-.574,4.552,4.552,0,0,1,4.057.6.417.417,0,0,1,.054.612.522.522,0,0,1-.3.18" transform="translate(-11290.523 -10151.146)" fill="#263238"/>
    <path id="Trazado_727852" data-name="Trazado 727852" d="M315.052,162.7a.4.4,0,0,1-.211-.23.427.427,0,0,1,.287-.534,4.539,4.539,0,0,1,4,.391.394.394,0,0,1,.064.582.468.468,0,0,1-.622.085,3.628,3.628,0,0,0-3.175-.276.463.463,0,0,1-.347-.018" transform="translate(-11287.861 -10150.979)" fill="#263238"/>
    <path id="Trazado_727853" data-name="Trazado 727853" d="M335.114,154.021c-2.8,2.941-1.408,14.048,6.453,15.5,9.056-2.131,1.9-24.275-6.453-15.5" transform="translate(-11291.979 -10148.876)" fill="#263238"/>
    <path id="Trazado_727854" data-name="Trazado 727854" d="M322.056,178.214a24.961,24.961,0,0,1,1.578,3.24c.207-.043.415-.086.62-.14,2.8-.655,3.885-1.885,4.236-3.05a3.717,3.717,0,0,0,.057-1.755,3.591,3.591,0,0,0-.309-.957c-1.278,1.235-3.842,2.047-5.231,2.424-.58.164-.952.239-.952.239" transform="translate(-11289.432 -10153.995)" fill="#263238"/>
    <path id="Trazado_727855" data-name="Trazado 727855" d="M323.272,177.976l.49.943c2.638-.625,4.411-1.418,5.05-2.411a3.589,3.589,0,0,0-.309-.957c-1.278,1.235-3.842,2.048-5.231,2.425" transform="translate(-11289.695 -10153.995)" fill="#fff"/>
    <path id="Trazado_727856" data-name="Trazado 727856" d="M324.864,182.066c2.8-.656,3.885-1.886,4.236-3.05a9.254,9.254,0,0,0-2.967,1.344,3.475,3.475,0,0,0-1.269,1.706" transform="translate(-11290.041 -10154.746)" fill="#dc5753"/>
    <path id="Trazado_727857" data-name="Trazado 727857" d="M321.3,167.663a26.768,26.768,0,0,1-3.388,5.909c1.126,1.087,3.135.516,3.135.516Z" transform="translate(-11288.533 -10152.282)" fill="#e4873e"/>
    <path id="Trazado_727858" data-name="Trazado 727858" d="M327.21,166.1l2.02.477c-.915,1.03-2.02-.477-2.02-.477" transform="translate(-11290.551 -10151.943)" fill="#263238"/>
    <path id="Trazado_727859" data-name="Trazado 727859" d="M315.68,165.99l2.02.477c-.915,1.03-2.02-.477-2.02-.477" transform="translate(-11288.048 -10151.919)" fill="#263238"/>
    <path id="Trazado_727860" data-name="Trazado 727860" d="M322.293,147.348c-3.475,1.179-7.167,7.194-7.783,9.508,4.942.809,18.266-3.821,18.266-3.821s8.89,2.455,4.387-2.053-14.87-3.635-14.87-3.635" transform="translate(-11287.794 -10147.856)" fill="#263238"/>
    <path id="Trazado_727861" data-name="Trazado 727861" d="M346.263,172.28a7.084,7.084,0,0,1-4.278,3.327c-2.329.584-3.532-3.161-2.737-5.5a4.683,4.683,0,0,1,5.272-3.034c2.234.452,2.931,3.139,1.743,5.2" transform="translate(-11293.111 -10152.137)" fill="#ebb373"/>
    <path id="Trazado_727862" data-name="Trazado 727862" d="M306.408,161.559a54.861,54.861,0,0,1-2.306,11.465c-1.306,3.681-4.018,11.274-7.267,13.442" transform="translate(-11283.956 -10150.957)" fill="none" stroke="#263238" stroke-miterlimit="10" stroke-width="0.5"/>
    <path id="Trazado_727863" data-name="Trazado 727863" d="M341.909,177.247a1.641,1.641,0,1,0,1.641-1.641,1.641,1.641,0,0,0-1.641,1.641" transform="translate(-11293.742 -10154.007)" fill="#4db1f0"/>
    <path id="Trazado_727864" data-name="Trazado 727864" d="M344.98,170.514a2.671,2.671,0,0,0-3.4,2.479" transform="translate(-11293.671 -10152.88)" fill="none" stroke="#000" stroke-linecap="round" stroke-linejoin="round" stroke-width="0.5"/>
    <rect id="Rectángulo_350601" data-name="Rectángulo 350601" width="3.787" height="2.969" transform="translate(-10952.282 -9982.659)" fill="none"/>
    <path id="Trazado_727865" data-name="Trazado 727865" d="M258.249,269.051c.438-1.214,3.566-5.276,5.233-6.791s7.563-4.827,7.563-4.827l4.981,4.715s-.467,2.7-2.468,3.694c-1.154.572-2.352,1.035-2.352,1.035a9.652,9.652,0,0,1-.26,2.165c-.3,1.229-.937,2.68-1.935,2.377s-.546-3.648-.476-4.129c-.074.487-.636,3.886-2.017,3.66-1.332-.218-.667-3.745-.667-3.745s-.478,1.6-.729,2.417-1.261,1.325-1.8.212a5.856,5.856,0,0,1-.231-3.15,28.534,28.534,0,0,0-2.62,2.977c-1.185,1.5-2.6.416-2.227-.611" transform="translate(-11275.566 -10171.771)" fill="#ebb373"/>
    <path id="Trazado_727866" data-name="Trazado 727866" d="M271.259,269.887a10.366,10.366,0,0,1,.5-1.866,3.471,3.471,0,0,1,1.132-1.538" transform="translate(-11278.403 -10173.736)" fill="none" stroke="#000" stroke-linecap="round" stroke-linejoin="round" stroke-width="0.5"/>
    <rect id="Rectángulo_350602" data-name="Rectángulo 350602" width="2.023" height="3.796" transform="translate(-11007.34 -9907.45)" fill="none"/>
    <path id="Trazado_727867" data-name="Trazado 727867" d="M267.742,269.594a10.325,10.325,0,0,1,.5-1.867,3.473,3.473,0,0,1,1.132-1.538" transform="translate(-11277.641 -10173.673)" fill="none" stroke="#000" stroke-linecap="round" stroke-linejoin="round" stroke-width="0.5"/>
    <rect id="Rectángulo_350603" data-name="Rectángulo 350603" width="2.023" height="3.796" transform="translate(-11010.094 -9907.679)" fill="none"/>
    <path id="Trazado_727868" data-name="Trazado 727868" d="M264.456,268.449a10.331,10.331,0,0,1,.5-1.867,3.48,3.48,0,0,1,1.132-1.538" transform="translate(-11276.927 -10173.424)" fill="none" stroke="#000" stroke-linecap="round" stroke-linejoin="round" stroke-width="0.5"/>
    <rect id="Rectángulo_350604" data-name="Rectángulo 350604" width="2.023" height="3.796" transform="translate(-11012.667 -9908.575)" fill="none"/>
    <path id="Trazado_727869" data-name="Trazado 727869" d="M300.1,216.562c0,.556-1.568,20.526-1.568,20.526-1.111,2.083-23.983,10.022-26.91,12.927l5.335,5.49s27.213-5.49,31.606-8.683c3.749-2.725,3.433-7.507,3.433-14.035s2.279-15.651,2.279-15.651Z" transform="translate(-11278.482 -10162.898)" fill="#ebb373"/>
    <path id="Trazado_727870" data-name="Trazado 727870" d="M315.672,201.491c-10.789,1.845-12.27,17.816-12.27,17.816l-1.639,12.683-6.119,4.464,5.721,12.221s12.217-4.65,17.589-7.829,5.511-27.544,5.511-27.544Z" transform="translate(-11283.697 -10159.626)" fill="#3a91c8"/>
    <path id="Trazado_727871" data-name="Trazado 727871" d="M316.617,247.207a51.262,51.262,0,0,1-4.521,2.724c-.055.034-1.705-6.973-1.761-6.94a58.046,58.046,0,0,1-.842-21.1c1.971,4.1,6.624,21.884,7.124,25.317" transform="translate(-11286.579 -10164.055)"/>
    <rect id="Rectángulo_350605" data-name="Rectángulo 350605" width="7.709" height="28.04" transform="translate(-10977.666 -9942.164)" fill="none"/>
    <path id="Trazado_727872" data-name="Trazado 727872" d="M321.782,272.143c8.992-.9,20.689-1.616,35.912-1.959,0,0,11.35,26.732-2.11,34.719-4.067,2.413-10.779,3.367-18.166,3.525a15.283,15.283,0,0,1-15.635-15.26Z" transform="translate(-11289.372 -10174.539)" fill="#263238"/>
    <path id="Trazado_727873" data-name="Trazado 727873" d="M342.905,294.549v12.56c-11.194,3.229-34.428,2-48.239.872a11.978,11.978,0,0,1-11-11.943V285.732a8.194,8.194,0,0,1,5.31-7.675c6.7-2.518,18.879-6.271,31.625-6.074a22.6,22.6,0,0,1,22.306,22.565" transform="translate(-11281.098 -10174.929)" fill="#263238"/>
    <path id="Trazado_727874" data-name="Trazado 727874" d="M357.087,254.156c-1.74-2.3-5.768-7.785-6.278-13.562l0-.049c-.032-.37-.05-.742-.051-1.115-.092-2.456-.077-5.364.085-8.855.022-.545.054-1.123.087-1.7.1-1.832.24-3.8.414-5.952.327-3.849.8-8.242,1.429-13.235.141-1.156,1.23-2.948,1.394-4.169.73-5.44-4.228-9.371-9.581-9.153-1.428.054-2.944.153-4.481.3a113.937,113.937,0,0,0-16.157,2.322c-1.733.4-3.521.894-5.233,1.385-6.149,1.766-8.983,9.637-9.06,15.971-.076,5.9,4.064,17.952,6.9,28.534.417,6.071-2.9,9.378-1.9,11.493s30.342-3.633,42.433,3.576c0,0,1.855-3.345,0-5.8" transform="translate(-11286.739 -10158.512)" fill="#407bff"/>
    <path id="Trazado_727875" data-name="Trazado 727875" d="M357.087,254.156c-1.74-2.3-5.768-7.785-6.278-13.562l0-.049c-.032-.37-.05-.742-.051-1.115-.092-2.456-.077-5.364.085-8.855.022-.545.054-1.123.087-1.7.1-1.832.24-3.8.414-5.952.327-3.849.8-8.242,1.429-13.235.141-1.156,1.23-2.948,1.394-4.169.73-5.44-4.228-9.371-9.581-9.153-1.428.054-2.944.153-4.481.3a113.937,113.937,0,0,0-16.157,2.322c-1.733.4-3.521.894-5.233,1.385-6.149,1.766-8.983,9.637-9.06,15.971-.076,5.9,4.064,17.952,6.9,28.534.417,6.071-2.9,9.378-1.9,11.493s30.342-3.633,42.433,3.576c0,0,1.855-3.345,0-5.8" transform="translate(-11286.739 -10158.512)" fill="#4db1f0"/>
    <rect id="Rectángulo_350606" data-name="Rectángulo 350606" width="48.26" height="63.596" transform="translate(-10977.086 -9962.156)" fill="none"/>
    <path id="Trazado_727876" data-name="Trazado 727876" d="M354.445,258.733s-10.355,2.274-15.174,2.494-15.245,3.5-15.245,3.5l-3.709,2.3-1.307-3.06,6.242-5.646,27.4-5.555a31.433,31.433,0,0,0,1.789,5.963" transform="translate(-11288.771 -10170.759)"/>
    <rect id="Rectángulo_350607" data-name="Rectángulo 350607" width="35.435" height="14.261" transform="translate(-10969.761 -9917.989)" fill="none"/>
    <path id="Trazado_727877" data-name="Trazado 727877" d="M347.132,216.821l-1.308,17.7-5.871,5.754,4.109,3.2,5.588-3.372,2.891-9.955Z" transform="translate(-11293.317 -10162.954)"/>
    <rect id="Rectángulo_350608" data-name="Rectángulo 350608" width="12.586" height="26.654" transform="translate(-10953.364 -9946.133)" fill="none"/>
    <path id="Trazado_727878" data-name="Trazado 727878" d="M292.325,417.471l13.741-6.063,4.347-4.852,1.346,1.827,1.642-.716c.766-6.1-2.2-8.952-3.753-10.248-.111-.1-.271-.21-.456-.358a1.741,1.741,0,0,0-.186-.135c-.024-.013-.05-.038-.074-.05-.061-.049-.135-.1-.209-.16-.013-.012-.026-.012-.05-.024v-.013a1.077,1.077,0,0,0-.124-.074L301,399.938s-.124.395-.358,1.037c-.754,2.123-2.618,6.964-4.679,9.544-.087.11-.173.222-.26.321a5.7,5.7,0,0,1-.766.766c-5.779,4.642-2.616,5.865-2.616,5.865" transform="translate(-11282.789 -10201.985)" fill="#263238"/>
    <path id="Trazado_727879" data-name="Trazado 727879" d="M296.848,410.462c2.149.839,5.186-1.284,7.495-4.062a41.631,41.631,0,0,0,3.642-6.1,13.413,13.413,0,0,1,1.939-2.951c.321-.284.617-.408.877-.284a.044.044,0,0,1-.013-.024c-.111-.1-.272-.21-.457-.359-.049-.037-.111-.086-.185-.135-.025-.013-.05-.038-.074-.049-.062-.049-.136-.1-.21-.16-.012-.013-.025-.013-.049-.025V396.3a1.073,1.073,0,0,0-.124-.074c-.79-.593-1.667-1.2-1.667-1.2l-7.1,1.776.553,2.718c-.79,2.8-2.457,8.137-4.37,10.618-.087.111-.174.222-.26.321" transform="translate(-11283.96 -10201.643)" fill="#ebb373"/>
    <path id="Trazado_727880" data-name="Trazado 727880" d="M278.538,332.8c4.381,10.882,11.184,24.747,16.2,42.133.1.316.186.633.272.95.1.338.2.665.3,1l5.184-1.266.228-.9s1.79-1.391,1.486-1.707c-.2-.205-.065-.589-.1-.917v-.011c-1.4-12.126-6.778-56.634-12.115-65.879,0,0,6.046,1.124,10.63.349,3.307-.556,7.312-23.421,7.312-23.421a70.553,70.553,0,0,0-17.07-2.423h-.121s-16.991,5.026-21.311,8.832c-4.06,3.577-4.668,9.439-2.417,16.406,2.065,6.388,6.09,13.369,11.519,26.851" transform="translate(-11277.202 -10176.824)" fill="#ebb373"/>
    <path id="Trazado_727881" data-name="Trazado 727881" d="M275.776,294.941c1.006-3.954,8.285-7.821,15.806-9.894,1.221-1.582-1.9-3.452-1.9-3.452l14.8-1.34,2.584,1.859,4.417.92-3.936,17.687-16.172,2.832,10.23,47.474,1.208,9.38s-17.327-37.193-20.951-45.1-7.831-13.509-6.087-20.364" transform="translate(-11279.296 -10176.726)"/>
    <rect id="Rectángulo_350609" data-name="Rectángulo 350609" width="36.114" height="80.152" transform="translate(-11003.926 -9896.471)" fill="none"/>
    <path id="Trazado_727882" data-name="Trazado 727882" d="M311.043,283.806s-23.1,4.894-27.614,8.458c-3.844,3.036-3.947,7-2.7,10.74,3.443,10.344,15.8,27.593,29.936,77.1l8.1-2.544c-.777,0-2.814-25.846-3.415-46.606-.283-9.793-5.3-18.236-7.27-21.646,0,0,8.257,1.115,12.84.346,5.888-.987,9.611-20.633-9.878-25.844" transform="translate(-11280.306 -10177.497)" fill="#ebb373"/>
    <path id="Trazado_727883" data-name="Trazado 727883" d="M314.561,315.555s-3.065-5.083-6.886-7.227c0,0,4.7.307,7.642,6.446l-1.232-.147Z" transform="translate(-11286.31 -10182.82)"/>
    <rect id="Rectángulo_350610" data-name="Rectángulo 350610" width="7.642" height="7.227" transform="translate(-10978.635 -9874.492)" fill="none"/>
    <path id="Trazado_727884" data-name="Trazado 727884" d="M326.8,414.012l-1.688.368-1.4-2.335a.522.522,0,0,0-.8-.114l-4.8,4.445L305,419.253s-2.918-3.085,3.6-5.05a2.833,2.833,0,0,0,.875-.575c3.224-2.473,7.089-9.287,7.089-9.287l7.765-1.7a10.162,10.162,0,0,1,.882.98c1.223,1.522,3.475,4.787,1.589,10.4" transform="translate(-11285.588 -10203.295)" fill="#263238"/>
    <path id="Trazado_727885" data-name="Trazado 727885" d="M326.628,403.214l.005.023c-1.276-.918-4.841,5.126-7.883,7.584-2.718,2.191-6,3.614-7.859,2.4,3.224-2.474,7.261-11.072,7.261-11.072l6.245-1.37s1.705,1.78,2.23,2.43" transform="translate(-11287.009 -10202.893)" fill="#ebb373"/>
    <path id="Trazado_727886" data-name="Trazado 727886" d="M292.7,285.277l22.778-8.665a.528.528,0,0,0-.154-1.012l-36.554-.438a.453.453,0,0,0-.251.074l-14.056,9.1a.529.529,0,0,0,.246.968h27.833a.443.443,0,0,0,.159-.029" transform="translate(-11276.878 -10175.62)" fill="#263238"/>
    <path id="Trazado_727887" data-name="Trazado 727887" d="M292.7,285.277l22.778-8.665a.528.528,0,0,0-.154-1.012l-36.554-.438a.453.453,0,0,0-.251.074l-14.056,9.1a.529.529,0,0,0,.246.968h27.833a.443.443,0,0,0,.159-.029" transform="translate(-11276.877 -10175.62)" fill="#fff"/>
    <rect id="Rectángulo_350611" data-name="Rectángulo 350611" width="51.572" height="10.144" transform="translate(-11012.649 -9900.458)" fill="none"/>
    <path id="Trazado_727888" data-name="Trazado 727888" d="M300,283.182l14.688-5.415-17.207-.359Z" transform="translate(-11284.098 -10176.107)" fill="#fff"/>
    <rect id="Rectángulo_350612" data-name="Rectángulo 350612" width="17.207" height="5.774" transform="translate(-10986.613 -9898.699)" fill="none"/>
    <path id="Trazado_727889" data-name="Trazado 727889" d="M323.113,276.733,300.335,285.4a.46.46,0,0,1-.159.029h-.355l-.428-1.255,23.566-8.451a.528.528,0,0,1,.153,1.012" transform="translate(-11284.511 -10175.741)"/>
    <rect id="Rectángulo_350613" data-name="Rectángulo 350613" width="24.041" height="9.706" transform="translate(-10985.117 -9900.021)" fill="none"/>
    <path id="Trazado_727890" data-name="Trazado 727890" d="M258.265,279.057H287.92a.846.846,0,0,0,.919-.75.622.622,0,0,0-.046-.227L275.6,247.835a2.578,2.578,0,0,0-2.454-1.459H243.473a.833.833,0,0,0-.908.73.6.6,0,0,0,.054.247L255.812,277.6a2.6,2.6,0,0,0,2.453,1.459" transform="translate(-11272.175 -10169.37)" fill="#636363"/>
    <rect id="Rectángulo_350614" data-name="Rectángulo 350614" width="46.275" height="32.681" transform="translate(-11029.609 -9922.994)" fill="none"/>
    <path id="Trazado_727892" data-name="Trazado 727892" d="M267.1,267.279c.641,1.452,1.94,2.448,2.908,2.245s1.227-1.525.6-2.981-1.936-2.429-2.9-2.226-1.257,1.472-.608,2.962" transform="translate(-11277.426 -10173.26)" fill="#fff"/>
    <path id="Trazado_727893" data-name="Trazado 727893" d="M281.4,246.376h.176a2.578,2.578,0,0,1,2.454,1.459l13.193,30.245a.622.622,0,0,1,.046.227.846.846,0,0,1-.919.75H295.4Z" transform="translate(-11280.605 -10169.37)"/>
    <rect id="Rectángulo_350615" data-name="Rectángulo 350615" width="15.869" height="32.681" transform="translate(-10999.203 -9922.994)" fill="none"/>
    <path id="Trazado_727894" data-name="Trazado 727894" d="M342.886,214.685c0,.556,1.783,20.337,1.783,20.337-1.111,2.083-23.983,10.021-26.911,12.927l5.336,5.49s27.213-5.49,31.606-8.683c3.749-2.725,3.433-7.507,3.433-14.035a135.71,135.71,0,0,0-1.427-16.036Z" transform="translate(-11288.499 -10162.49)" fill="#ebb373"/>
    <path id="Trazado_727895" data-name="Trazado 727895" d="M350.9,198.826c-5.618,2.346-1.329,32.429-1.329,32.429l-5.53,2.341,3.4,12.807s6.81-1.293,13.616-2.681c7.195-1.467,8.249-18.075,4.649-31.524s-8.231-16.118-14.8-13.372" transform="translate(-11294.205 -10158.838)" fill="#3a91c8"/>
    <path id="Trazado_727896" data-name="Trazado 727896" d="M305.558,271.579c.126-1.284,2.162-5.99,3.406-7.867s6.146-6.537,6.146-6.537l5.986,3.348s.21,2.733-1.485,4.187c-.978.838-2.026,1.58-2.026,1.58a9.6,9.6,0,0,1,.28,2.163c.008,1.266-.251,2.828-1.293,2.779s-1.424-3.4-1.475-3.886c.049.491.337,3.923-1.056,4.044-1.344.116-1.566-3.466-1.566-3.466s-.07,1.669-.113,2.522-.9,1.595-1.689.646a5.853,5.853,0,0,1-1-3,28.494,28.494,0,0,0-1.809,3.53c-.781,1.741-2.415,1.04-2.309-.045" transform="translate(-11285.85 -10171.715)" fill="#ebb373"/>
    <path id="Trazado_727897" data-name="Trazado 727897" d="M317.791,269.959a10.409,10.409,0,0,1,.026-1.932,3.483,3.483,0,0,1,.719-1.769" transform="translate(-11288.499 -10173.687)" fill="none" stroke="#000" stroke-linecap="round" stroke-linejoin="round" stroke-width="0.5"/>
    <rect id="Rectángulo_350616" data-name="Rectángulo 350616" width="1.17" height="4.093" transform="translate(-10970.936 -9907.626)" fill="none"/>
    <path id="Trazado_727898" data-name="Trazado 727898" d="M314.311,270.539a10.341,10.341,0,0,1,.026-1.932,3.483,3.483,0,0,1,.72-1.769" transform="translate(-11287.743 -10173.813)" fill="none" stroke="#000" stroke-linecap="round" stroke-linejoin="round" stroke-width="0.5"/>
    <rect id="Rectángulo_350617" data-name="Rectángulo 350617" width="1.17" height="4.093" transform="translate(-10973.661 -9907.172)" fill="none"/>
    <path id="Trazado_727899" data-name="Trazado 727899" d="M310.844,270.236a10.338,10.338,0,0,1,.026-1.932,3.483,3.483,0,0,1,.719-1.769" transform="translate(-11286.99 -10173.747)" fill="none" stroke="#000" stroke-linecap="round" stroke-linejoin="round" stroke-width="0.5"/>
    <rect id="Rectángulo_350618" data-name="Rectángulo 350618" width="1.169" height="4.093" transform="translate(-10976.374 -9907.408)" fill="none"/>
    <path id="Trazado_727912" data-name="Trazado 727912" d="M419.021,365.579s77.221-18.092,80.894-2.007c5.243,22.959-50.472,38.4-80.149,37.459s-.745-35.451-.745-35.451" transform="translate(-11307.739 -10193.367)" fill="#263238"/>
    <rect id="Rectángulo_350624" data-name="Rectángulo 350624" width="93.879" height="44.163" transform="translate(-10901.357 -9836.458)" fill="none"/>
    <path id="Trazado_727913" data-name="Trazado 727913" d="M419.021,365.579s77.221-18.092,80.894-2.007c5.243,22.959-50.472,38.4-80.149,37.459s-.745-35.451-.745-35.451" transform="translate(-11307.739 -10193.367)"/>
    <rect id="Rectángulo_350625" data-name="Rectángulo 350625" width="93.879" height="44.163" transform="translate(-10901.357 -9836.458)" fill="none"/>
    <path id="Trazado_727914" data-name="Trazado 727914" d="M482.721,371.382l-36.265,23.047,4.84,6.878s-2.549,3.777-7.4-7.827l22.437-14.83s-7.023-.705-6.846-1.8c.3-1.8,15.726-5.234,22.762-6.779a.7.7,0,1,1,.474,1.315" transform="translate(-11315.883 -10196.215)"/>
    <rect id="Rectángulo_350626" data-name="Rectángulo 350626" width="39.289" height="31.869" transform="translate(-10871.988 -9826.189)" fill="none"/>
    <path id="Trazado_727915" data-name="Trazado 727915" d="M438,397.064l6.291,10.193a125.359,125.359,0,0,1-23.521,1.852,22.328,22.328,0,0,1-7.578-1.372l-2.209-4.041,4.758-9.573Z" transform="translate(-11308.736 -10201.446)"/>
    <rect id="Rectángulo_350627" data-name="Rectángulo 350627" width="33.309" height="15.001" transform="translate(-10897.76 -9807.323)" fill="none"/>
    <path id="Trazado_727916" data-name="Trazado 727916" d="M456.351,392.7l-16.13,10.229,2.891,7.829,18.938-8.511Z" transform="translate(-11315.086 -10201.138)" fill="#b97964"/>
    <path id="Trazado_727917" data-name="Trazado 727917" d="M428.88,407.8l1.583,5.631a2.216,2.216,0,0,1,1.56,1.435,7.285,7.285,0,0,1-.282,2.5l4.239,15.516a6.289,6.289,0,0,0,1.477-.586,7.225,7.225,0,0,0,1.24-1.113c1.145-1.324,1.271-3.241,1.314-4.662.072-2.381,1.44-9.335,1.44-9.335a7.742,7.742,0,0,1,2.436-3.408,3.459,3.459,0,0,0,1.46-2.709,2.03,2.03,0,0,0-2.547-1.792l-1.542.188a2.691,2.691,0,0,1-.742-3.545s.911-3.38-.506-2.811c-.808.325-4.369,1.913-7.22,3.085l-1.845.757v0c-1.224.5-2.065.849-2.065.849" transform="translate(-11312.624 -10203.383)" fill="#263238"/>
    <path id="Trazado_727918" data-name="Trazado 727918" d="M443.758,425.6a.225.225,0,0,0-.052-.263,2.562,2.562,0,0,0-1.209-.623c-.244-.051-.356.343-.109.395a2.256,2.256,0,0,1,1.067.545.188.188,0,0,0,.3-.049l0,0" transform="translate(-11315.525 -10208.086)" fill="#407bff"/>
    <path id="Trazado_727919" data-name="Trazado 727919" d="M444.163,423.841a.225.225,0,0,0-.052-.263,2.562,2.562,0,0,0-1.209-.623c-.244-.051-.356.343-.109.395a2.251,2.251,0,0,1,1.066.545.188.188,0,0,0,.3-.049l0,0" transform="translate(-11315.613 -10207.704)" fill="#407bff"/>
    <path id="Trazado_727920" data-name="Trazado 727920" d="M444.5,422.054a.225.225,0,0,0-.053-.263,2.558,2.558,0,0,0-1.209-.623c-.243-.051-.355.343-.108.395a2.254,2.254,0,0,1,1.066.545.188.188,0,0,0,.3-.049l0,0" transform="translate(-11315.687 -10207.317)" fill="#407bff"/>
    <path id="Trazado_727921" data-name="Trazado 727921" d="M430.945,408v0c-1.224.5-2.065.849-2.065.849l1.584,5.631a2.215,2.215,0,0,1,1.559,1.435,7.285,7.285,0,0,1-.282,2.5l4.239,15.516a6.3,6.3,0,0,0,1.477-.586,8.024,8.024,0,0,0,.629-.507l-6.834-24.966-.308.126" transform="translate(-11312.624 -10204.431)" fill="#fff"/>
    <rect id="Rectángulo_350629" data-name="Rectángulo 350629" width="9.207" height="26.058" transform="translate(-10883.744 -9796.562)" fill="none"/>
    <path id="Trazado_727922" data-name="Trazado 727922" d="M444.638,422.026a9.583,9.583,0,0,1,1.6-.489,3.218,3.218,0,0,1,1.658.093.788.788,0,0,1,.551.5.73.73,0,0,1-.359.687,1.978,1.978,0,0,1-1.51.283,7.359,7.359,0,0,1-1.945-1.079" transform="translate(-11316.045 -10207.385)" fill="none" stroke="#407bff" stroke-miterlimit="10" stroke-width="0.25"/>
    <path id="Trazado_727923" data-name="Trazado 727923" d="M444.6,421.139a9.594,9.594,0,0,0,1.252-1.117,3.215,3.215,0,0,0,.782-1.465.789.789,0,0,0-.144-.734.729.729,0,0,0-.774-.05,1.978,1.978,0,0,0-1.026,1.143,7.37,7.37,0,0,0-.089,2.223" transform="translate(-11316.028 -10206.562)" fill="none" stroke="#407bff" stroke-miterlimit="10" stroke-width="0.25"/>
    <path id="Trazado_727924" data-name="Trazado 727924" d="M459.5,304.994s2.82,25.107,3.574,26.453C465.618,336,482.5,343.813,482.5,343.813l8.608-1.8,6.168,5.151-4.067,3.186-4.772-1.8a44.426,44.426,0,0,1-7.89.691c-4.447,0-25.89-5.434-29.469-11.413s-5.223-33.663-5.223-33.663Z" transform="translate(-11316.309 -10181.915)" fill="#b97964"/>
    <path id="Trazado_727925" data-name="Trazado 727925" d="M444.695,309.793s-6.616-22.049,1.627-28.17,14.8,24.194,14.8,24.194Z" transform="translate(-11315.512 -10176.846)" fill="#407bff"/>
    <path id="Trazado_727926" data-name="Trazado 727926" d="M444.695,309.793s-6.616-22.049,1.627-28.17,14.8,24.194,14.8,24.194Z" transform="translate(-11315.511 -10176.846)" fill="#3a91c8"/>
    <rect id="Rectángulo_350630" data-name="Rectángulo 350630" width="18.936" height="28.986" transform="translate(-10873.328 -9896.039)" fill="none"/>
    <path id="Trazado_727927" data-name="Trazado 727927" d="M437.189,348.922l-.064-29.224-.628-40.014-17.267-3.746-15.028-.662L387.1,283.1l-.4,9.818S388.66,338,388.55,339.362c-.134,1.666-4.984,12.124-4.984,12.124,21.6,4.922,53.964-1.075,53.623-2.565" transform="translate(-11302.785 -10175.645)" fill="#407bff"/>
    <path id="Trazado_727928" data-name="Trazado 727928" d="M437.189,348.922l-.064-29.224-.628-40.014-17.267-3.746-15.028-.662L387.1,283.1l-.4,9.818S388.66,338,388.55,339.362c-.134,1.666-4.984,12.124-4.984,12.124,21.6,4.922,53.964-1.075,53.623-2.565" transform="translate(-11302.786 -10175.645)" fill="#4db1f0"/>
    <rect id="Rectángulo_350631" data-name="Rectángulo 350631" width="53.626" height="78.117" transform="translate(-10919.22 -9900.369)" fill="none"/>
    <path id="Trazado_727929" data-name="Trazado 727929" d="M448.844,243.983a2,2,0,0,0,.175-3.949l-4.427-.444q.316,4.263.633,8.526a4.6,4.6,0,0,0,2.616-.022,2.84,2.84,0,0,0,1.825-1.787,2.071,2.071,0,0,0-.82-2.324" transform="translate(-11316.034 -10167.897)" fill="#263238"/>
    <path id="Trazado_727930" data-name="Trazado 727930" d="M424.691,262.816l-9.512-11.969a.159.159,0,0,0-.006.041c0,1.131-.038,2.425-.132,3.8,0,.009-1.022-.489-1.025-.479-.407,6.219-2.866,16.828-2.753,17.746l10,4.967h2.008l.164-5.866c-1.005-2.533-.058-5.487,1.26-8.244" transform="translate(-11308.798 -10170.342)" fill="#b97964"/>
    <path id="Trazado_727931" data-name="Trazado 727931" d="M424.925,269.973l-6.017-4.755c-.15,2.421,1.115,6.222,5.94,8.2a7.047,7.047,0,0,1,.077-3.444" transform="translate(-11310.455 -10173.462)"/>
    <rect id="Rectángulo_350632" data-name="Rectángulo 350632" width="6.028" height="8.199" transform="translate(-10891.559 -9908.244)" fill="none"/>
    <path id="Trazado_727932" data-name="Trazado 727932" d="M418.372,240.812c-1.969,8.054-2.71,11.924.041,17.185,4.138,7.915,14.247,7.983,18.6.657,3.913-6.594,6.475-18.658-.323-24.137a11.44,11.44,0,0,0-18.314,6.295" transform="translate(-11309.96 -10166.241)" fill="#b97964"/>
    <path id="Trazado_727933" data-name="Trazado 727933" d="M419.532,228.33c2.437-4.019,8.819-4.671,11.177-1.5.352.474-3.46.589-3.024.568l-2.234,6.345c-.436-.25-1.527.013-2.457,1.321,0,0-1.437,8.729-5.961,11.171-4.441-6.129-3.934-17.895,2.5-17.906" transform="translate(-11309.421 -10164.691)" fill="#263238"/>
    <path id="Trazado_727934" data-name="Trazado 727934" d="M412.259,249.378a7.783,7.783,0,0,0,2.364,5.512c1.995,1.9,4.311.431,4.86-2.128.495-2.3.052-6.071-2.48-7.005a3.579,3.579,0,0,0-4.744,3.621" transform="translate(-11309.016 -10169.187)" fill="#b97964"/>
    <path id="Trazado_727935" data-name="Trazado 727935" d="M432.763,251.554c-.251.809-.024,1.594.507,1.753s1.166-.367,1.417-1.177.024-1.593-.507-1.752-1.165.367-1.416,1.176" transform="translate(-11313.443 -10170.233)" fill="#263238"/>
    <path id="Trazado_727936" data-name="Trazado 727936" d="M442.9,254.847c-.251.809-.024,1.593.507,1.753s1.166-.367,1.417-1.176.024-1.594-.507-1.753-1.165.367-1.416,1.176" transform="translate(-11315.644 -10170.948)" fill="#263238"/>
    <path id="Trazado_727937" data-name="Trazado 727937" d="M438.91,252.42s1.005,3.686,1.465,5.874a.871.871,0,0,1-.817,1.049,4.791,4.791,0,0,1-2.259-.622Z" transform="translate(-11314.451 -10170.683)" fill="#a24e3f"/>
    <path id="Trazado_727938" data-name="Trazado 727938" d="M431.671,245.425a.4.4,0,0,0,.4.065,3.194,3.194,0,0,1,2.867.223.4.4,0,0,0,.557-.087.393.393,0,0,0-.086-.551,3.977,3.977,0,0,0-3.619-.322.392.392,0,0,0-.114.672" transform="translate(-11313.198 -10168.957)" fill="#263238"/>
    <path id="Trazado_727939" data-name="Trazado 727939" d="M447.351,249.915a.4.4,0,0,0,.243-.658,3.907,3.907,0,0,0-3.334-1.36.4.4,0,0,0-.334.453.39.39,0,0,0,.445.332A3.047,3.047,0,0,1,447,249.788a.39.39,0,0,0,.352.128" transform="translate(-11315.889 -10169.696)" fill="#263238"/>
    <path id="Trazado_727940" data-name="Trazado 727940" d="M431.3,261.4a5.936,5.936,0,0,0,.885.6.206.206,0,1,0,.2-.359,5.747,5.747,0,0,1-2.973-4.274.218.218,0,0,0-.225-.193.189.189,0,0,0-.193.225,5.874,5.874,0,0,0,2.309,4" transform="translate(-11312.646 -10171.716)" fill="#263238"/>
    <path id="Trazado_727941" data-name="Trazado 727941" d="M445.763,234.1c-.542-1.609-2.458-2.285-4.151-2.406a2.136,2.136,0,0,0,1.9-2.16,3.573,3.573,0,0,0-1.491-2.694,5.549,5.549,0,0,0-5.383-.769.812.812,0,0,0,.346-.96,1.8,1.8,0,0,0-.68-.856,4.983,4.983,0,0,0-6.219.307,4.115,4.115,0,0,0-4.8-2.712c-1.917.5-5.532.885-6.091,5.794a3.983,3.983,0,1,0-4.7,6.431,1.879,1.879,0,0,0-2.328,1.08,2.683,2.683,0,0,0,.53,2.663,4.837,4.837,0,0,0,2.421,1.43,4.68,4.68,0,0,0,2.649.081,2.547,2.547,0,0,0,1.788-1.831,1.912,1.912,0,0,0,2.043,1.509,2.215,2.215,0,0,0,1.863-1.823,2.64,2.64,0,0,0-1.031-2.458,2.4,2.4,0,0,0,3.689-.728,7.519,7.519,0,0,0,3.456,3.594,3.886,3.886,0,0,0,4.6-.984,7.976,7.976,0,0,0,1.675,1.6,2.691,2.691,0,0,0,2.219.4,1.648,1.648,0,0,0,1.164-1.779,4.751,4.751,0,0,0,4.45,1.033,3.172,3.172,0,0,0,2.079-3.767" transform="translate(-11308.96 -10164.021)" fill="#263238"/>
    <path id="Trazado_727942" data-name="Trazado 727942" d="M420.243,283.245s4.192,3.733,6.338-1.092l1.118.871s-.109,3.589-2.142,4.79c.493,1.992,9,30.977,10.528,45.585l-2.327,5.924-6.18-4.878s-3-25.064-4.027-46.357a8.663,8.663,0,0,1-5.342-5.064Z" transform="translate(-11310.308 -10177.139)" fill="#115089"/>
    <path id="Trazado_727943" data-name="Trazado 727943" d="M427.715,282.533l3.633,2.826.594-8.483-1.154-.247-.96,5.717-1.728-1Z" transform="translate(-11312.37 -10175.938)"/>
    <rect id="Rectángulo_350633" data-name="Rectángulo 350633" width="4.228" height="8.729" transform="translate(-10884.655 -9899.31)" fill="none"/>
    <path id="Trazado_727944" data-name="Trazado 727944" d="M405.352,276.825c-.061.028,8.556,10.536,8.556,10.536l2.925-2.227,2.011-1.7.522-.641-11.406-7.923a16.465,16.465,0,0,1-1.686,1.561,5.313,5.313,0,0,0-.922.4" transform="translate(-11307.516 -10175.557)"/>
    <rect id="Rectángulo_350634" data-name="Rectángulo 350634" width="14.015" height="12.496" transform="translate(-10902.164 -9900.691)" fill="none"/>
    <path id="Trazado_727945" data-name="Trazado 727945" d="M406.135,276.108l4.168-3.72,11.407,10.678-2.984-1.056-4.346,3.34Z" transform="translate(-11307.685 -10175.018)" fill="#407bff"/>
    <path id="Trazado_727946" data-name="Trazado 727946" d="M426.009,283.256c-.253-.482.247-9.992.247-9.992l4.707,2.573c-.214-.045-.355,8.018-.486,8.018S427.8,281.1,427.8,281.1Z" transform="translate(-11311.984 -10175.208)" fill="#407bff"/>
    <path id="Trazado_727947" data-name="Trazado 727947" d="M451.422,311.085l-.884-18.847,4.216,18.04Z" transform="translate(-11317.325 -10179.327)"/>
    <rect id="Rectángulo_350635" data-name="Rectángulo 350635" width="4.215" height="18.847" transform="translate(-10866.786 -9887.089)" fill="none"/>
    <path id="Trazado_727948" data-name="Trazado 727948" d="M404.21,314.928c.532-.1,3.225-.986,3.225-.986l-5.985-16.651,8.217,18.421-4.94,1.967Z" transform="translate(-11306.668 -10180.424)"/>
    <rect id="Rectángulo_350636" data-name="Rectángulo 350636" width="8.217" height="20.387" transform="translate(-10905.219 -9883.134)" fill="none"/>
    <path id="Trazado_727949" data-name="Trazado 727949" d="M406.135,276.108l4.168-3.72,11.407,10.678-2.984-1.056-4.346,3.34Z" transform="translate(-11307.685 -10175.018)" fill="#3a91c8"/>
    <rect id="Rectángulo_350637" data-name="Rectángulo 350637" width="15.575" height="12.962" transform="translate(-10901.55 -9902.631)" fill="none"/>
    <path id="Trazado_727950" data-name="Trazado 727950" d="M426.009,283.256c-.253-.482.247-9.992.247-9.992l4.707,2.573c-.214-.045-.355,8.018-.486,8.018S427.8,281.1,427.8,281.1Z" transform="translate(-11311.984 -10175.208)" fill="#3a91c8"/>
    <path id="Trazado_727951" data-name="Trazado 727951" d="M434.291,305.727l1.913,9.4,5.574,2.02,3.772-3.288-.69-8.88Z" transform="translate(-11313.798 -10182.094)" fill="#3a91c8"/>
    <rect id="Rectángulo_350639" data-name="Rectángulo 350639" width="11.26" height="12.168" transform="translate(-10879.507 -9877.112)" fill="none"/>
    <path id="Trazado_727952" data-name="Trazado 727952" d="M426.13,284.984l-1.765.431c-.005,0-.067.112-.024.041.024-.041-.965,3.343-.965,3.343.285.251,1.234,1.892,1.343,1.865s2.453-.244,2.453-.244l.85-2.482-1.892-2.953" transform="translate(-11311.429 -10177.753)" fill="#407bff"/>
    <path id="Trazado_727953" data-name="Trazado 727953" d="M426.13,284.984l-1.765.431c-.005,0-.067.112-.024.041.024-.041-.965,3.343-.965,3.343.285.251,1.234,1.892,1.343,1.865s2.453-.244,2.453-.244l.85-2.482-1.892-2.953" transform="translate(-11311.429 -10177.753)"/>
    <rect id="Rectángulo_350640" data-name="Rectángulo 350640" width="4.647" height="5.68" transform="translate(-10888.053 -9892.769)" fill="none"/>
    <path id="Trazado_727954" data-name="Trazado 727954" d="M398.014,302.18s4.189,27.874,6.608,30.479c4.088,4.4,24.342,16.086,24.342,16.086l10.109-3.545a2.265,2.265,0,0,1,2.071.337l6.911,5.275-.66.557a.958.958,0,0,1-1.034.122l-1.074-.535,1.2,1.178-.381.321a1.546,1.546,0,0,1-1.39.3l-3.091-.828,2.853,1.9a2.557,2.557,0,0,1-2.336.492l-4.522-1.289a57.441,57.441,0,0,1-9.388,1.344c-5.324.328-30.465-8.457-35.151-14.888s-9.518-33.138-9.518-33.138Z" transform="translate(-11302.785 -10181.485)" fill="#b97964"/>
    <path id="Trazado_727955" data-name="Trazado 727955" d="M384.3,316.945s-6.265-25.262,1.978-31.383S402.686,311.4,402.686,311.4Z" transform="translate(-11302.45 -10177.709)" fill="#407bff"/>
    <path id="Trazado_727956" data-name="Trazado 727956" d="M384.3,316.945s-6.265-25.262,1.978-31.383S402.686,311.4,402.686,311.4Z" transform="translate(-11302.45 -10177.709)" fill="#3a91c8"/>
    <rect id="Rectángulo_350641" data-name="Rectángulo 350641" width="20.664" height="32.162" transform="translate(-10920.429 -9892.926)" fill="none"/>
    <path id="Trazado_727957" data-name="Trazado 727957" d="M462.223,366.878H430.176v.011c.008,1.223,1.375,2.21,3.052,2.2h52.2c1.664-.012,3-1,2.995-2.216Z" transform="translate(-11312.904 -10195.531)" fill="#263238"/>
    <path id="Trazado_727958" data-name="Trazado 727958" d="M492.995,360.6H463.718a.835.835,0,0,1-.907-.741.617.617,0,0,1,.045-.224l13.024-29.858a2.545,2.545,0,0,1,2.422-1.44H507.6a.823.823,0,0,1,.9.72.593.593,0,0,1-.053.244l-13.024,29.858a2.562,2.562,0,0,1-2.421,1.44" transform="translate(-11319.989 -10187.165)" fill="#afafaf"/>
    <rect id="Rectángulo_350642" data-name="Rectángulo 350642" width="71.232" height="32.387" transform="translate(-10882.729 -9858.825)" fill="none"/>
    <path id="Trazado_727960" data-name="Trazado 727960" d="M496.49,347.826c-.633,1.433-1.915,2.417-2.871,2.216s-1.211-1.505-.6-2.943,1.911-2.4,2.868-2.2,1.241,1.454.6,2.924" transform="translate(-11326.476 -10190.755)" fill="#fff"/>
    <line id="Línea_2741" data-name="Línea 2741" x2="0.537" transform="translate(-10857.179 -9828.653)" fill="none" stroke="#000" stroke-linecap="round" stroke-linejoin="round" stroke-width="0"/>
    <path id="Trazado_727961" data-name="Trazado 727961" d="M476.03,329.779,463.5,358.511h1.358l13.6-30.172a2.547,2.547,0,0,0-2.422,1.44" transform="translate(-11320.139 -10187.164)"/>
    <rect id="Rectángulo_350643" data-name="Rectángulo 350643" width="15.492" height="30.172" transform="translate(-10857.179 -9858.825)" fill="none"/>
    <path id="Trazado_727962" data-name="Trazado 727962" d="M481.437,406.149l18.858,3.035,3.026-7.777L483.5,395.223Z" transform="translate(-11324.033 -10201.685)" fill="#b97964"/>
    <path id="Trazado_727963" data-name="Trazado 727963" d="M512.951,411.393l2.547-5.265a2.215,2.215,0,0,1-.215-2.108,7.291,7.291,0,0,1,1.869-1.686l7.113-14.426a6.321,6.321,0,0,0-1.495-.541,7.248,7.248,0,0,0-1.666.013c-1.735.231-3.1,1.583-4.074,2.619-1.632,1.735-7.267,6.034-7.267,6.034a7.737,7.737,0,0,1-4.082.937,3.46,3.46,0,0,0-2.89,1.06,2.031,2.031,0,0,0,.719,3.031l1.279.881a2.691,2.691,0,0,1-1.794,3.146s-2.923,1.926-1.485,2.44c.82.293,4.54,1.464,7.45,2.477l1.883.657v0l2.109.734" transform="translate(-11328.305 -10199.971)" fill="#263238"/>
    <path id="Trazado_727964" data-name="Trazado 727964" d="M515.832,395.4a.225.225,0,0,0-.135.232,2.553,2.553,0,0,0,.492,1.267c.15.2.494-.02.343-.222a2.259,2.259,0,0,1-.438-1.116.188.188,0,0,0-.258-.163l0,0" transform="translate(-11331.471 -10201.721)" fill="#407bff"/>
    <path id="Trazado_727965" data-name="Trazado 727965" d="M514.366,396.445a.225.225,0,0,0-.135.232,2.552,2.552,0,0,0,.492,1.268c.15.2.494-.02.343-.222a2.259,2.259,0,0,1-.438-1.116.187.187,0,0,0-.258-.163l0,0" transform="translate(-11331.152 -10201.947)" fill="#407bff"/>
    <path id="Trazado_727966" data-name="Trazado 727966" d="M512.93,397.56a.224.224,0,0,0-.135.231,2.553,2.553,0,0,0,.492,1.268c.15.2.494-.02.343-.222a2.259,2.259,0,0,1-.438-1.116.187.187,0,0,0-.258-.163l0,0" transform="translate(-11330.841 -10202.189)" fill="#407bff"/>
    <path id="Trazado_727967" data-name="Trazado 727967" d="M517.893,404.021a7.308,7.308,0,0,1,1.869-1.686l7.113-14.426a6.321,6.321,0,0,0-1.495-.541c-.283-.028-.55-.038-.807-.038l-11.435,23.222.314.11h0l2.109.734,2.548-5.265a2.216,2.216,0,0,1-.216-2.108" transform="translate(-11330.915 -10199.972)" fill="#fff"/>
    <rect id="Rectángulo_350644" data-name="Rectángulo 350644" width="13.736" height="24.064" transform="translate(-10817.777 -9812.642)" fill="none"/>
    <path id="Trazado_727968" data-name="Trazado 727968" d="M512.308,397.037a9.567,9.567,0,0,1-1.526-.7,3.2,3.2,0,0,1-1.179-1.169.785.785,0,0,1-.078-.743.729.729,0,0,1,.724-.277,1.978,1.978,0,0,1,1.318.79,7.361,7.361,0,0,1,.741,2.1" transform="translate(-11330.117 -10201.45)" fill="none" stroke="#407bff" stroke-miterlimit="10" stroke-width="0.25"/>
    <path id="Trazado_727969" data-name="Trazado 727969" d="M512.057,397.909a9.53,9.53,0,0,0-1.678.007,3.2,3.2,0,0,0-1.556.578.785.785,0,0,0-.378.644.73.73,0,0,0,.546.551,1.978,1.978,0,0,0,1.526-.175,7.359,7.359,0,0,0,1.541-1.6" transform="translate(-11329.896 -10202.261)" fill="none" stroke="#407bff" stroke-miterlimit="10" stroke-width="0.25"/>
    <path id="Trazado_727970" data-name="Trazado 727970" d="M389.294,390.508c-4.067-6.476-13.259-24.03,5.395-27.449s80.979,26.2,80.979,26.2l-3.949,11.895-58.01-9.144s7.937,10.6-1.689,10.113c-14-1.386-17.367-4.737-22.726-11.613" transform="translate(-11302.752 -10194.643)" fill="#263238"/>
    <path id="Trazado_727971" data-name="Trazado 727971" d="M419.456,399.131l-15.915-5.007s13.352,8.167,18.249,9.139Z" transform="translate(-11307.122 -10201.446)"/>
    <rect id="Rectángulo_350645" data-name="Rectángulo 350645" width="18.248" height="9.139" transform="translate(-10903.58 -9807.323)" fill="none"/>
  </g>
</svg>
