<svg xmlns="http://www.w3.org/2000/svg" xmlns:xlink="http://www.w3.org/1999/xlink" width="92.928" height="92.928" viewBox="0 0 92.928 92.928">
  <defs>
    <clipPath id="clip-path">
      <path id="Trazado_728312" data-name="Trazado 728312" d="M46.464,0A46.464,46.464,0,1,1,0,46.464,46.464,46.464,0,0,1,46.464,0Z" transform="translate(221 398)" fill="#d2e1f1"/>
    </clipPath>
    <clipPath id="clip-path-2">
      <path id="path810" d="M0-88H72.272v72.272H0Z" transform="translate(0 88)"/>
    </clipPath>
  </defs>
  <g id="Grupo_1036341" data-name="Grupo 1036341" transform="translate(-218.536 -395.536)">
    <g id="Grupo_1026479" data-name="Grupo 1026479" transform="translate(0 -25)">
      <g id="Grupo_1013412" data-name="Grupo 1013412" transform="translate(-3 14)">
        <path id="Trazado_710239" data-name="Trazado 710239" d="M44,0A44,44,0,1,1,0,44,44,44,0,0,1,44,0Z" transform="translate(224 409)" fill="#fff"/>
      </g>
    </g>
    <g id="Enmascarar_grupo_1026459" data-name="Enmascarar grupo 1026459" transform="translate(-2.464 -2.464)" clip-path="url(#clip-path)">
      <g id="g804" transform="translate(231.328 408.328)">
        <g id="g806" transform="translate(0 0)">
          <g id="g808" transform="translate(0 0)" clip-path="url(#clip-path-2)">
            <g id="g814" transform="translate(46.864 18.633)">
              <path id="path816" d="M-2.609-2.8H-13.742a.856.856,0,0,1-.856-.856V-14.784a.856.856,0,0,1,.856-.856H-2.609a.856.856,0,0,1,.856.856V-3.652a.856.856,0,0,1-.856.856" transform="translate(14.598 15.641)" fill="#115089"/>
            </g>
            <g id="g818" transform="translate(46.864 18.633)">
              <path id="path820" d="M-.983-2.609V-13.742A.856.856,0,0,1-.127-14.6H-4.644a.856.856,0,0,0-.856.856V-2.609a.856.856,0,0,0,.856.856H-.127a.856.856,0,0,1-.856-.856" transform="translate(5.5 14.598)" fill="#12263f"/>
            </g>
            <g id="g822" transform="translate(46.864 18.633)">
              <path id="path824" d="M-2.8-.8V-3.612a.856.856,0,0,0-.856-.856H-14.784a.856.856,0,0,0-.856.856V7.52a.856.856,0,0,0,.856.856H-3.652A.856.856,0,0,0-2.8,7.52V4.142" transform="translate(15.641 4.469)" fill="none" stroke="#12263f" stroke-linecap="round" stroke-linejoin="round" stroke-miterlimit="10" stroke-width="2.2"/>
            </g>
            <g id="g826" transform="translate(9.677 26.885)">
              <path id="path828" d="M-3.648-4.143l7-19.037h-23.76l7,19.037Z" transform="translate(20.411 23.18)" fill="#fff0ad"/>
            </g>
            <g id="g830" transform="translate(9.677 26.885)">
              <path id="path832" d="M0,0,7,19.037h5.946L5.946,0Z" fill="#ffe177"/>
            </g>
            <g id="g834" transform="translate(9.677 26.885)">
              <path id="path836" d="M-3.648-4.143l7-19.037h-23.76l7,19.037Z" transform="translate(20.411 23.18)" fill="none" stroke="#12263f" stroke-linecap="round" stroke-linejoin="round" stroke-miterlimit="10" stroke-width="2.2"/>
            </g>
            <g id="g838" transform="translate(17.786 52.913)">
              <path id="path840" d="M-1.181-1.516H-4.488A2.117,2.117,0,0,1-6.605-3.633V-6.364A2.117,2.117,0,0,1-4.488-8.481h3.307A2.117,2.117,0,0,1,.937-6.364v2.731A2.117,2.117,0,0,1-1.181-1.516" transform="translate(6.605 8.481)" fill="#02c7dd"/>
            </g>
            <g id="g842" transform="translate(17.786 52.913)">
              <path id="path844" d="M-1.181-1.516H-4.488A2.117,2.117,0,0,1-6.605-3.633V-6.364A2.117,2.117,0,0,1-4.488-8.481h3.307A2.117,2.117,0,0,1,.937-6.364v2.731A2.117,2.117,0,0,1-1.181-1.516Z" transform="translate(6.605 8.481)" fill="none" stroke="#12263f" stroke-linecap="round" stroke-linejoin="round" stroke-miterlimit="10" stroke-width="2.2"/>
            </g>
            <g id="g846" transform="translate(16.011 48.733)">
              <path id="path848" d="M-2.26-1.516h-9.679a.706.706,0,0,1-.706-.706V-7.775a.706.706,0,0,1,.706-.706H-2.26a.706.706,0,0,1,.706.706v5.554a.706.706,0,0,1-.706.706" transform="translate(12.645 8.481)" fill="#a6e7f0"/>
            </g>
            <g id="g850" transform="translate(16.011 48.733)">
              <path id="path852" d="M-2.26-1.516h-9.679a.706.706,0,0,1-.706-.706V-7.775a.706.706,0,0,1,.706-.706H-2.26a.706.706,0,0,1,.706.706v5.554A.706.706,0,0,1-2.26-1.516Z" transform="translate(12.645 8.481)" fill="none" stroke="#12263f" stroke-linecap="round" stroke-linejoin="round" stroke-miterlimit="10" stroke-width="2.2"/>
            </g>
            <g id="g854" transform="translate(5.049 6.803)">
              <path id="path856" d="M-7.185-3.592A16.507,16.507,0,0,1-23.692,12.915,16.507,16.507,0,0,1-40.2-3.592,16.507,16.507,0,0,1-23.692-20.1,16.507,16.507,0,0,1-7.185-3.592" transform="translate(40.2 20.1)" fill="#ffe177"/>
            </g>
            <g id="g858" transform="translate(5.049 6.803)">
              <path id="path860" d="M-1.546-3.592A16.513,16.513,0,0,1,11.408-19.715,16.569,16.569,0,0,0,7.855-20.1,16.507,16.507,0,0,0-8.652-3.592,16.507,16.507,0,0,0,7.855,12.915a16.568,16.568,0,0,0,3.553-.385A16.513,16.513,0,0,1-1.546-3.592" transform="translate(8.652 20.1)" fill="#ffd15c"/>
            </g>
            <g id="g862" transform="translate(5.049 6.803)">
              <path id="path864" d="M-6.938-4.9A16.465,16.465,0,0,0-5.8-10.933,16.507,16.507,0,0,0-22.309-27.441,16.507,16.507,0,0,0-38.817-10.933,16.507,16.507,0,0,0-22.309,5.574,16.475,16.475,0,0,0-9.422-.618" transform="translate(38.817 27.441)" fill="none" stroke="#12263f" stroke-linecap="round" stroke-linejoin="round" stroke-miterlimit="10" stroke-width="2.2"/>
            </g>
            <g id="g866" transform="translate(12.781 22.266)">
              <path id="path868" d="M-.682-1.364A3.134,3.134,0,0,1-3.816-4.5,3.134,3.134,0,0,1-.682-7.633,3.134,3.134,0,0,1,2.452-4.5" transform="translate(3.816 7.633)" fill="none" stroke="#12263f" stroke-linecap="round" stroke-linejoin="round" stroke-miterlimit="10" stroke-width="2.2"/>
            </g>
            <g id="g870" transform="translate(24.064 22.266)">
              <path id="path872" d="M0-.682A3.134,3.134,0,0,1,3.134-3.816,3.134,3.134,0,0,1,6.269-.682,3.134,3.134,0,0,1,3.134,2.452" transform="translate(0 3.816)" fill="none" stroke="#12263f" stroke-linecap="round" stroke-linejoin="round" stroke-miterlimit="10" stroke-width="2.2"/>
            </g>
            <g id="g874" transform="translate(15.915 28.534)">
              <path id="path876" d="M0,0H11.284" fill="#fff" stroke="#12263f" stroke-linecap="round" stroke-linejoin="round" stroke-miterlimit="10" stroke-width="2.2"/>
            </g>
            <g id="g878" transform="translate(19.049 25.4)">
              <path id="path880" d="M0,0V21.8" fill="#fff" stroke="#12263f" stroke-linecap="round" stroke-linejoin="round" stroke-miterlimit="10" stroke-width="2.2"/>
            </g>
            <g id="g882" transform="translate(24.064 25.4)">
              <path id="path884" d="M0,0V21.8" fill="#fff" stroke="#12263f" stroke-linecap="round" stroke-linejoin="round" stroke-miterlimit="10" stroke-width="2.2"/>
            </g>
            <g id="g886" transform="translate(13.894 44.415)">
              <path id="path888" d="M-3.028-1.516h-12.5a1.411,1.411,0,0,1-1.412-1.412V-7.069A1.411,1.411,0,0,1-15.53-8.481h12.5A1.412,1.412,0,0,1-1.616-7.069v4.142A1.412,1.412,0,0,1-3.028-1.516" transform="translate(16.942 8.481)" fill="#eaf9fa"/>
            </g>
            <g id="g890" transform="translate(13.894 44.415)">
              <path id="path892" d="M-2.321-1.516H.925A1.412,1.412,0,0,0,2.337-2.927V-7.069A1.412,1.412,0,0,0,.925-8.481h-12.5a1.411,1.411,0,0,0-1.412,1.412v4.142a1.411,1.411,0,0,0,1.412,1.412h4.315" transform="translate(12.988 8.481)" fill="none" stroke="#12263f" stroke-linecap="round" stroke-linejoin="round" stroke-miterlimit="10" stroke-width="2.2"/>
            </g>
            <g id="g894" transform="translate(34.882 38.873)">
              <path id="path896" d="M-6.031-3.679a4.957,4.957,0,0,1-3.158-.86.424.424,0,0,0-.67.344V2.593a.706.706,0,0,1-.706.706h-6.788a.424.424,0,0,0-.344.67,4.957,4.957,0,0,1,.86,3.158,4.993,4.993,0,0,1-4.612,4.617,4.976,4.976,0,0,1-5.327-4.963,4.949,4.949,0,0,1,.88-2.825.422.422,0,0,0-.352-.658h-6.787a.706.706,0,0,1-.706-.706V-2.738a.7.7,0,0,1,.76-.7,5.064,5.064,0,0,0,.792.014,4.992,4.992,0,0,0,4.655-4.612,4.976,4.976,0,0,0-4.963-5.33q-.235,0-.464.021a.708.708,0,0,1-.78-.7v-5.829a.706.706,0,0,1,.706-.706h5.558a.7.7,0,0,1,.7.722q0,.074,0,.149A4.976,4.976,0,0,0-21.8-14.737a4.976,4.976,0,0,0,4.975-4.975c0-.05,0-.1,0-.149a.7.7,0,0,1,.7-.722h5.558a.706.706,0,0,1,.706.706v6.788a.422.422,0,0,0,.658.352,4.95,4.95,0,0,1,2.825-.88A4.976,4.976,0,0,1-1.413-8.291,4.992,4.992,0,0,1-6.031-3.679" transform="translate(33.741 20.584)" fill="#fe9738"/>
            </g>
            <g id="g898" transform="translate(34.882 38.873)">
              <path id="path900" d="M-6.031-3.679a4.957,4.957,0,0,1-3.158-.86.424.424,0,0,0-.67.344V2.593a.706.706,0,0,1-.706.706h-6.788a.424.424,0,0,0-.344.67,4.957,4.957,0,0,1,.86,3.158,4.993,4.993,0,0,1-4.612,4.617,4.976,4.976,0,0,1-5.327-4.963,4.949,4.949,0,0,1,.88-2.825.422.422,0,0,0-.352-.658h-6.787a.706.706,0,0,1-.706-.706V-2.738a.7.7,0,0,1,.76-.7,5.064,5.064,0,0,0,.792.014,4.992,4.992,0,0,0,4.655-4.612,4.976,4.976,0,0,0-4.963-5.33q-.235,0-.464.021a.708.708,0,0,1-.78-.7v-5.829a.706.706,0,0,1,.706-.706h5.558a.7.7,0,0,1,.7.722q0,.074,0,.149A4.976,4.976,0,0,0-21.8-14.737a4.976,4.976,0,0,0,4.975-4.975c0-.05,0-.1,0-.149a.7.7,0,0,1,.7-.722h5.558a.706.706,0,0,1,.706.706v6.788a.422.422,0,0,0,.658.352,4.95,4.95,0,0,1,2.825-.88A4.976,4.976,0,0,1-1.413-8.291,4.992,4.992,0,0,1-6.031-3.679" transform="translate(33.741 20.584)" fill="#fe9738"/>
            </g>
            <g id="g902" transform="translate(34.882 38.873)">
              <path id="path904" d="M-.17-1.575Q.059-1.6.294-1.6A4.964,4.964,0,0,1,4.1.174V-8.1a.706.706,0,0,1,.706-.706H-.244A.706.706,0,0,0-.949-8.1v5.829a.708.708,0,0,0,.78.7" transform="translate(0.949 8.81)" fill="#fe860a"/>
            </g>
            <g id="g906" transform="translate(34.882 54.26)">
              <path id="path908" d="M-1.1-1.7V-9.484A4.972,4.972,0,0,1-4.6-7.715a5.082,5.082,0,0,1-.792-.014.7.7,0,0,0-.76.7V-1.7a.706.706,0,0,0,.706.706H-.393A.706.706,0,0,1-1.1-1.7" transform="translate(6.148 9.484)" fill="#fe860a"/>
            </g>
            <g id="g910" transform="translate(34.882 38.873)">
              <path id="path912" d="M-6.031-3.679a4.957,4.957,0,0,1-3.158-.86.424.424,0,0,0-.67.344V2.593a.706.706,0,0,1-.706.706h-6.788a.424.424,0,0,0-.344.67,4.957,4.957,0,0,1,.86,3.158,4.993,4.993,0,0,1-4.612,4.617,4.976,4.976,0,0,1-5.327-4.963,4.949,4.949,0,0,1,.88-2.825.422.422,0,0,0-.352-.658h-6.787a.706.706,0,0,1-.706-.706V-2.738a.7.7,0,0,1,.76-.7,5.064,5.064,0,0,0,.792.014,4.992,4.992,0,0,0,4.655-4.612,4.976,4.976,0,0,0-4.963-5.33q-.235,0-.464.021a.708.708,0,0,1-.78-.7v-5.829a.706.706,0,0,1,.706-.706h5.558a.7.7,0,0,1,.7.722q0,.074,0,.149A4.976,4.976,0,0,0-21.8-14.737a4.976,4.976,0,0,0,4.975-4.975c0-.05,0-.1,0-.149a.7.7,0,0,1,.7-.722h5.558a.706.706,0,0,1,.706.706v6.788a.422.422,0,0,0,.658.352,4.95,4.95,0,0,1,2.825-.88A4.976,4.976,0,0,1-1.413-8.291,4.992,4.992,0,0,1-6.031-3.679Z" transform="translate(33.741 20.584)" fill="none" stroke="#12263f" stroke-linecap="round" stroke-linejoin="round" stroke-miterlimit="10" stroke-width="2.2"/>
            </g>
            <g id="g914" transform="translate(30.707 1.059)">
              <path id="path916" d="M-5.016-2.508A11.525,11.525,0,0,1-16.541,9.017,11.525,11.525,0,0,1-28.066-2.508,11.525,11.525,0,0,1-16.541-14.033,11.525,11.525,0,0,1-5.016-2.508" transform="translate(28.066 14.033)" fill="#4db1f0"/>
            </g>
            <g id="g918" transform="translate(30.707 1.059)">
              <path id="path920" d="M-1.3-2.508A11.528,11.528,0,0,1,7.253-13.643a11.536,11.536,0,0,0-2.976-.39A11.525,11.525,0,0,0-7.248-2.508,11.525,11.525,0,0,0,4.277,9.017a11.536,11.536,0,0,0,2.976-.39A11.528,11.528,0,0,1-1.3-2.508" transform="translate(7.248 14.033)" fill="#115089"/>
            </g>
            <g id="g922" transform="translate(30.707 1.059)">
              <path id="path924" d="M-5.016-2.508A11.525,11.525,0,0,1-16.541,9.017,11.525,11.525,0,0,1-28.066-2.508,11.525,11.525,0,0,1-16.541-14.033,11.525,11.525,0,0,1-5.016-2.508Z" transform="translate(28.066 14.033)" fill="none" stroke="#12263f" stroke-linecap="round" stroke-linejoin="round" stroke-miterlimit="10" stroke-width="2.2"/>
            </g>
            <g id="g926" transform="translate(36.395 9.37)">
              <path id="path928" d="M0-.479,4.737,5.146l6.935-7.824" transform="translate(0 2.678)" fill="none" stroke="#12263f" stroke-linecap="round" stroke-linejoin="round" stroke-miterlimit="10" stroke-width="2.2"/>
            </g>
          </g>
        </g>
      </g>
    </g>
  </g>
</svg>
