<svg xmlns="http://www.w3.org/2000/svg" xmlns:xlink="http://www.w3.org/1999/xlink" width="190" height="190" viewBox="0 0 190 190">
  <defs>
    <clipPath id="clip-path">
      <circle id="Elipse_8399" data-name="Elipse 8399" cx="95" cy="95" r="95" fill="#fff"/>
    </clipPath>
    <clipPath id="clip-path-2">
      <path id="path4203" d="M0-190H154.381V-35.619H0Z" transform="translate(0 190)" fill="#12263f"/>
    </clipPath>
  </defs>
  <g id="Grupo_1036335" data-name="Grupo 1036335" transform="translate(-705 -2390)">
    <g id="Grupo_1024924" data-name="Grupo 1024924" transform="translate(705 2390)">
      <circle id="Elipse_8399-2" data-name="Elipse 8399" cx="95" cy="95" r="95" fill="#fff"/>
    </g>
    <g id="Enmascarar_grupo_1026452" data-name="Enmascarar grupo 1026452" transform="translate(705 2390)" clip-path="url(#clip-path)">
      <g id="g4197" transform="translate(0 190)">
        <g id="g4199" transform="translate(17.81 8.81)">
          <g id="g4201" transform="translate(0 -190)" clip-path="url(#clip-path-2)">
            <g id="g4207" transform="translate(2.261 93.612)">
              <path id="path4209" d="M0-.348V7.441A1.508,1.508,0,0,0,1.508,8.949H35.157a1.508,1.508,0,0,0,1.508-1.508V-.348a1.508,1.508,0,0,0-1.508-1.508H1.508A1.508,1.508,0,0,0,0-.348" transform="translate(0 1.855)" fill="#91dafa"/>
            </g>
            <g id="g4211" transform="translate(29.88 93.612)">
              <path id="path4213" d="M-1.739,0H-9.277A1.508,1.508,0,0,1-7.77,1.508V9.3A1.508,1.508,0,0,1-9.277,10.8h7.538A1.508,1.508,0,0,0-.232,9.3V1.508A1.508,1.508,0,0,0-1.739,0" transform="translate(9.277)" fill="#6cbff8"/>
            </g>
            <g id="g4215" transform="translate(58.858 93.612)">
              <path id="path4217" d="M0-.348V7.441A1.507,1.507,0,0,0,1.508,8.949H35.157a1.508,1.508,0,0,0,1.508-1.508V-.348a1.508,1.508,0,0,0-1.508-1.508H1.508A1.508,1.508,0,0,0,0-.348" transform="translate(0 1.855)" fill="#91dafa"/>
            </g>
            <g id="g4219" transform="translate(115.455 93.612)">
              <path id="path4221" d="M0-.348V7.441A1.507,1.507,0,0,0,1.508,8.949H35.157a1.508,1.508,0,0,0,1.508-1.508V-.348a1.508,1.508,0,0,0-1.508-1.508H1.508A1.508,1.508,0,0,0,0-.348" transform="translate(0 1.855)" fill="#91dafa"/>
            </g>
            <g id="g4223" transform="translate(7.338 104.417)">
              <path id="path4225" d="M-.438-5.865l-1.9-25.419H24.175l-1.9,25.419a1.508,1.508,0,0,1-1.5,1.4H1.065a1.507,1.507,0,0,1-1.5-1.4" transform="translate(2.337 31.284)" fill="#ffa031"/>
            </g>
            <g id="g4227" transform="translate(63.935 104.417)">
              <path id="path4229" d="M-.438-5.865l-1.9-25.419H24.175l-1.9,25.419a1.508,1.508,0,0,1-1.5,1.4H1.065a1.507,1.507,0,0,1-1.5-1.4" transform="translate(2.336 31.284)" fill="#6dc17d"/>
            </g>
            <g id="g4231" transform="translate(120.531 104.417)">
              <path id="path4233" d="M-.438-5.865l-1.9-25.419H24.175l-1.9,25.419a1.507,1.507,0,0,1-1.5,1.4H1.065a1.507,1.507,0,0,1-1.5-1.4" transform="translate(2.337 31.284)" fill="#4db1f0"/>
            </g>
            <g id="g4235" transform="translate(143.074 93.612)">
              <path id="path4237" d="M-1.739,0H-9.277A1.508,1.508,0,0,1-7.77,1.508V9.3A1.507,1.507,0,0,1-9.277,10.8h7.538A1.507,1.507,0,0,0-.232,9.3V1.508A1.508,1.508,0,0,0-1.739,0" transform="translate(9.277)" fill="#6cbff8"/>
            </g>
            <g id="g4239" transform="translate(136.103 104.417)">
              <path id="path4241" d="M-.785,0l-1.9,25.419a1.508,1.508,0,0,1-1.5,1.4H3.351a1.508,1.508,0,0,0,1.5-1.4L6.753,0Z" transform="translate(4.187)" fill="#4071f7"/>
            </g>
            <g id="g4243" transform="translate(86.477 93.612)">
              <path id="path4245" d="M-1.739,0H-9.277A1.508,1.508,0,0,1-7.77,1.508V9.3A1.508,1.508,0,0,1-9.277,10.8h7.538A1.508,1.508,0,0,0-.232,9.3V1.508A1.508,1.508,0,0,0-1.739,0" transform="translate(9.277)" fill="#6cbff8"/>
            </g>
            <g id="g4247" transform="translate(79.506 104.417)">
              <path id="path4249" d="M-.785,0l-1.9,25.419a1.507,1.507,0,0,1-1.5,1.4H3.351a1.507,1.507,0,0,0,1.5-1.4L6.753,0Z" transform="translate(4.187)" fill="#5ea570"/>
            </g>
            <g id="g4251" transform="translate(22.909 104.417)">
              <path id="path4253" d="M-.785,0l-1.9,25.419a1.508,1.508,0,0,1-1.5,1.4H3.351a1.508,1.508,0,0,0,1.5-1.4L6.753,0Z" transform="translate(4.187)" fill="#e38523"/>
            </g>
            <g id="g4255" transform="translate(9.381 23.15)">
              <path id="path4257" d="M-29.677-10.707v-2.479A20.948,20.948,0,0,0-50.626-34.134H-70.24A16.034,16.034,0,0,1-86.274-50.169v-5.8a1.143,1.143,0,0,0-1.143-1.143h-6.157a1.143,1.143,0,0,0-1.143,1.143v5.8a16.034,16.034,0,0,1-16.034,16.035h-19.614a20.948,20.948,0,0,0-20.948,20.948v2.479A1.508,1.508,0,0,1-152.821-9.2h-3.974a1.508,1.508,0,0,0-1.084,2.555l9.7,10.041a1.507,1.507,0,0,0,2.168,0l9.7-10.041A1.508,1.508,0,0,0-137.39-9.2h-3.973a1.508,1.508,0,0,1-1.508-1.508v-2.479a12.506,12.506,0,0,1,12.506-12.505h19.614a24.328,24.328,0,0,0,14.289-4.623,1.105,1.105,0,0,1,1.745.9v18.7A1.508,1.508,0,0,1-96.224-9.2H-100.2a1.508,1.508,0,0,0-1.084,2.555L-91.58,3.4a1.507,1.507,0,0,0,2.169,0l9.7-10.041A1.508,1.508,0,0,0-80.793-9.2h-3.974a1.507,1.507,0,0,1-1.508-1.508v-18.7a1.105,1.105,0,0,1,1.745-.9A24.326,24.326,0,0,0-70.24-25.692h19.614A12.505,12.505,0,0,1-38.12-13.186v2.479A1.507,1.507,0,0,1-39.628-9.2H-43.6a1.508,1.508,0,0,0-1.084,2.555l9.7,10.041a1.507,1.507,0,0,0,2.169,0l9.7-10.041A1.508,1.508,0,0,0-24.2-9.2H-28.17a1.507,1.507,0,0,1-1.508-1.508" transform="translate(158.305 57.114)" fill="#ffa031"/>
            </g>
            <g id="g4259" transform="translate(2.261 93.612)">
              <path id="path4261" d="M0-.348V7.441A1.508,1.508,0,0,0,1.508,8.949H35.157a1.508,1.508,0,0,0,1.508-1.508V-.348a1.508,1.508,0,0,0-1.508-1.508H1.508A1.508,1.508,0,0,0,0-.348Z" transform="translate(0 1.855)" fill="none" stroke="#12263f" stroke-linecap="round" stroke-linejoin="round" stroke-miterlimit="10" stroke-width="5.566"/>
            </g>
            <g id="g4263" transform="translate(7.338 104.417)">
              <path id="path4265" d="M-6.117,0l-1.9,25.419a1.508,1.508,0,0,1-1.5,1.4H-29.226a1.507,1.507,0,0,1-1.5-1.4L-32.628,0" transform="translate(32.628)" fill="none" stroke="#12263f" stroke-linecap="round" stroke-linejoin="round" stroke-miterlimit="10" stroke-width="5.566"/>
            </g>
            <g id="g4267" transform="translate(58.858 93.612)">
              <path id="path4269" d="M-3.012,0H-14.56a1.508,1.508,0,0,0-1.508,1.508V9.3A1.507,1.507,0,0,0-14.56,10.8H19.089A1.508,1.508,0,0,0,20.6,9.3V1.508A1.508,1.508,0,0,0,19.089,0H7.541" transform="translate(16.068)" fill="none" stroke="#12263f" stroke-linecap="round" stroke-linejoin="round" stroke-miterlimit="10" stroke-width="5.566"/>
            </g>
            <g id="g4271" transform="translate(63.935 104.417)">
              <path id="path4273" d="M-6.117,0l-1.9,25.419a1.507,1.507,0,0,1-1.5,1.4H-29.226a1.508,1.508,0,0,1-1.5-1.4L-32.628,0" transform="translate(32.628)" fill="none" stroke="#12263f" stroke-linecap="round" stroke-linejoin="round" stroke-miterlimit="10" stroke-width="5.566"/>
            </g>
            <g id="g4275" transform="translate(115.455 93.612)">
              <path id="path4277" d="M0-.348V7.441A1.507,1.507,0,0,0,1.508,8.949H35.157a1.508,1.508,0,0,0,1.508-1.508V-.348a1.508,1.508,0,0,0-1.508-1.508H1.508A1.508,1.508,0,0,0,0-.348Z" transform="translate(0 1.855)" fill="none" stroke="#12263f" stroke-linecap="round" stroke-linejoin="round" stroke-miterlimit="10" stroke-width="5.566"/>
            </g>
            <g id="g4279" transform="translate(120.531 104.417)">
              <path id="path4281" d="M-6.117,0l-1.9,25.419a1.508,1.508,0,0,1-1.5,1.4H-29.226a1.508,1.508,0,0,1-1.5-1.4L-32.628,0" transform="translate(32.628)" fill="none" stroke="#12263f" stroke-linecap="round" stroke-linejoin="round" stroke-miterlimit="10" stroke-width="5.566"/>
            </g>
            <g id="g4283" transform="translate(9.381 23.149)">
              <path id="path4285" d="M-23.881-5.3H-39.323A16.034,16.034,0,0,1-55.358-21.336v-5.8A1.143,1.143,0,0,0-56.5-28.281h-6.156A1.143,1.143,0,0,0-63.8-27.138v5.8A16.034,16.034,0,0,1-79.835-5.3H-99.449A20.948,20.948,0,0,0-120.4,15.647v2.479a1.508,1.508,0,0,1-1.508,1.508h-3.973a1.508,1.508,0,0,0-1.084,2.555l9.7,10.041a1.508,1.508,0,0,0,2.168,0l9.7-10.041a1.508,1.508,0,0,0-1.084-2.555h-3.973a1.507,1.507,0,0,1-1.508-1.508V15.647A12.506,12.506,0,0,1-99.449,3.141h19.614A24.324,24.324,0,0,0-65.546-1.482a1.105,1.105,0,0,1,1.745.9v18.7a1.507,1.507,0,0,1-1.508,1.508h-3.973a1.508,1.508,0,0,0-1.084,2.555l9.7,10.041a1.508,1.508,0,0,0,2.168,0l9.7-10.041a1.508,1.508,0,0,0-1.084-2.555H-53.85a1.508,1.508,0,0,1-1.508-1.508V-.578a1.105,1.105,0,0,1,1.745-.9A24.324,24.324,0,0,0-39.323,3.141h19.614A12.506,12.506,0,0,1-7.2,15.647v2.479a1.508,1.508,0,0,1-1.508,1.508h-3.973a1.508,1.508,0,0,0-1.084,2.555l9.7,10.041a1.508,1.508,0,0,0,2.168,0L7.8,22.189A1.508,1.508,0,0,0,6.72,19.633H2.747a1.507,1.507,0,0,1-1.508-1.508V15.647A20.958,20.958,0,0,0-13.328-4.312" transform="translate(127.389 28.281)" fill="none" stroke="#12263f" stroke-linecap="round" stroke-linejoin="round" stroke-miterlimit="10" stroke-width="5.566"/>
            </g>
          </g>
        </g>
      </g>
    </g>
  </g>
</svg>
