<svg xmlns="http://www.w3.org/2000/svg" xmlns:xlink="http://www.w3.org/1999/xlink" width="176" height="176" viewBox="0 0 176 176">
  <defs>
    <clipPath id="clip-path">
      <circle id="Elipse_8399" data-name="Elipse 8399" cx="83" cy="83" r="83" transform="translate(0 0.253)" fill="#fff"/>
    </clipPath>
  </defs>
  <g id="Grupo_1036339" data-name="Grupo 1036339" transform="translate(8212 7387)">
    <g id="Grupo_1029626" data-name="Grupo 1029626" transform="translate(-8211.632 -7387)">
      <circle id="Elipse_8399-2" data-name="Elipse 8399" cx="88" cy="88" r="88" transform="translate(-0.368)" fill="#fff"/>
    </g>
    <g id="Grupo_1030232" data-name="Grupo 1030232" transform="translate(-8205.632 -7382.253)">
      <g id="Enmascarar_grupo_1026458" data-name="Enmascarar grupo 1026458" transform="translate(-0.368)" clip-path="url(#clip-path)">
        <g id="papeleria" transform="translate(24.534 23.019)">
          <path id="Trazado_728289" data-name="Trazado 728289" d="M53.318,10.483H41.473V5.1a2.473,2.473,0,0,1,2.473-2.473h6.9A2.473,2.473,0,0,1,53.318,5.1Zm0,0" transform="translate(-13.145 -0.831)" fill="#ffa031"/>
          <path id="Trazado_728290" data-name="Trazado 728290" d="M41.623,62.282l4.441,11.2a1.483,1.483,0,0,0,2.758,0l4.442-11.2Zm0,0" transform="translate(-13.193 -19.741)" fill="#ffa031"/>
          <path id="Trazado_728291" data-name="Trazado 728291" d="M51.522,47.332H42.095a2.474,2.474,0,0,1-2.474-2.474V14.819a2.474,2.474,0,0,1,2.474-2.474h9.428A2.474,2.474,0,0,1,54,14.819V44.858A2.474,2.474,0,0,1,51.522,47.332Zm0,0" transform="translate(-12.558 -3.913)" fill="#ffa031"/>
          <path id="Trazado_728292" data-name="Trazado 728292" d="M57.456,14.818v30.04a2.472,2.472,0,0,1-2.473,2.473H50.542a2.474,2.474,0,0,0,2.473-2.473V14.818a2.475,2.475,0,0,0-2.473-2.474h4.442A2.473,2.473,0,0,1,57.456,14.818Zm0,0" transform="translate(-16.02 -3.913)" fill="#fc3e81"/>
          <path id="Trazado_728293" data-name="Trazado 728293" d="M19.645,15.925,14.774,3.65a1.626,1.626,0,0,0-3.024,0L6.88,15.925Zm0,0" transform="translate(-2.181 -0.831)" fill="#4e7693"/>
          <path id="Trazado_728294" data-name="Trazado 728294" d="M20.4,24.119V95.143a2.712,2.712,0,0,1-2.712,2.712H7.534a2.711,2.711,0,0,1-2.711-2.712V24.119a2.709,2.709,0,0,1,2.711-2.712H17.687A2.71,2.71,0,0,1,20.4,24.119Zm0,0" transform="translate(-1.529 -6.785)" fill="#4db1f0"/>
          <path id="Trazado_728295" data-name="Trazado 728295" d="M24.012,24.118V95.143A2.712,2.712,0,0,1,21.3,97.855H16.225V21.406H21.3a2.71,2.71,0,0,1,2.712,2.712Zm0,0" transform="translate(-5.143 -6.785)" fill="#1685fb"/>
          <path id="Trazado_728296" data-name="Trazado 728296" d="M20.4,118.1v7.692a2.711,2.711,0,0,1-2.711,2.712H7.534a2.712,2.712,0,0,1-2.712-2.712V118.1Zm0,0" transform="translate(-1.528 -37.432)" fill="#ffa031"/>
          <path id="Trazado_728297" data-name="Trazado 728297" d="M53.659,112.391H40.542V96.933a2.712,2.712,0,0,1,2.712-2.711h7.692a2.712,2.712,0,0,1,2.712,2.711Zm0,0" transform="translate(-12.85 -29.864)" fill="#e3f4ff"/>
          <path id="Trazado_728298" data-name="Trazado 728298" d="M51.857,123.885H40.766a2.712,2.712,0,0,1-2.712-2.712V106.242a2.712,2.712,0,0,1,2.712-2.712H51.857a2.711,2.711,0,0,1,2.711,2.712v14.931A2.711,2.711,0,0,1,51.857,123.885Zm0,0" transform="translate(-12.062 -32.815)" fill="#4db1f0"/>
          <path id="Trazado_728299" data-name="Trazado 728299" d="M131.678,91.327H75.936a2.712,2.712,0,0,1-2.712-2.712V8.056a2.712,2.712,0,0,1,2.712-2.712h55.742a5.424,5.424,0,0,1,5.423,5.423V85.9a5.425,5.425,0,0,1-5.423,5.423Zm0,0" transform="translate(-23.209 -1.694)" fill="#a5bed4"/>
          <path id="Trazado_728300" data-name="Trazado 728300" d="M161.741,10.767V85.9a5.423,5.423,0,0,1-5.423,5.423h-5.355a5.422,5.422,0,0,0,5.423-5.423V10.767a5.422,5.422,0,0,0-5.423-5.423h5.355A5.423,5.423,0,0,1,161.741,10.767Zm0,0" transform="translate(-47.849 -1.694)" fill="#4e7693"/>
          <path id="Trazado_728301" data-name="Trazado 728301" d="M91.461,92.34H88.612a1.627,1.627,0,0,1-1.626-1.627V4.205a1.627,1.627,0,0,1,1.626-1.627h2.849a1.627,1.627,0,0,1,1.627,1.627V90.713A1.627,1.627,0,0,1,91.461,92.34Zm0,0" transform="translate(-27.571 -0.817)" fill="#4db1f0"/>
          <path id="Trazado_728302" data-name="Trazado 728302" d="M113.529,163.921H5.29a2.712,2.712,0,0,1-2.712-2.712v-15.05a2.712,2.712,0,0,1,2.712-2.711H113.529a2.712,2.712,0,0,1,2.712,2.711v15.05a2.712,2.712,0,0,1-2.712,2.712Zm0,0" transform="translate(-0.817 -45.467)" fill="#ffa031"/>
          <path id="Trazado_728303" data-name="Trazado 728303" d="M165.359,146.162V161.21a2.713,2.713,0,0,1-2.711,2.712h-5.1a2.713,2.713,0,0,0,2.712-2.712V146.162a2.712,2.712,0,0,0-2.712-2.712h5.1A2.711,2.711,0,0,1,165.359,146.162Zm0,0" transform="translate(-49.935 -45.467)" fill="#f80"/>
          <path id="Trazado_728304" data-name="Trazado 728304" d="M39.076,44.569l3.9,9.831a3.245,3.245,0,0,0,6.032,0l3.9-9.831a4.232,4.232,0,0,0,2.032-3.61V32.643a1.761,1.761,0,1,0-3.522,0v8.316a.713.713,0,0,1-.713.713H41.278a.713.713,0,0,1-.713-.713V10.919a.713.713,0,0,1,.713-.712h9.428a.713.713,0,0,1,.713.712V24.974a1.761,1.761,0,1,0,3.522,0V10.919a4.218,4.218,0,0,0-1.265-3.013V4.278A4.239,4.239,0,0,0,49.441.045h-6.9a4.238,4.238,0,0,0-4.234,4.234V7.907a4.221,4.221,0,0,0-1.265,3.014V40.96a4.232,4.232,0,0,0,2.032,3.61Zm6.915,7.883-2.879-7.259h5.759ZM42.541,3.566h6.9a.712.712,0,0,1,.712.712V6.686H41.83V4.278A.712.712,0,0,1,42.541,3.566Zm0,0" transform="translate(-11.741 -0.014)"/>
          <path id="Trazado_728305" data-name="Trazado 728305" d="M6.715,92.843H16.869a4.478,4.478,0,0,0,4.473-4.472V17.346a4.463,4.463,0,0,0-1.808-3.583L14.942,2.183a3.388,3.388,0,0,0-6.3,0L4.05,13.762a4.466,4.466,0,0,0-1.808,3.583V88.371a4.477,4.477,0,0,0,4.472,4.472ZM16.869,16.4a.952.952,0,0,1,.951.95V78.967a1.779,1.779,0,0,0-.41-.05H13.553V16.4ZM10.031,78.918H6.173a1.766,1.766,0,0,0-.409.05V17.346a.952.952,0,0,1,.95-.95h3.316Zm6.838,10.4H6.715a.951.951,0,0,1-.95-.95V82.389a1.723,1.723,0,0,0,.409.05H17.411a1.779,1.779,0,0,0,.41-.05v5.982a.951.951,0,0,1-.951.95ZM11.792,3.8l3.6,9.078h-7.2Zm0,0" transform="translate(-0.711 -0.014)"/>
          <path id="Trazado_728306" data-name="Trazado 728306" d="M39.949,121.879H51.04a4.478,4.478,0,0,0,4.472-4.473V102.475a4.465,4.465,0,0,0-1.7-3.5V96.116a4.478,4.478,0,0,0-4.473-4.472H41.649a4.478,4.478,0,0,0-4.473,4.472v2.856a4.463,4.463,0,0,0-1.7,3.5v14.931a4.478,4.478,0,0,0,4.473,4.473Zm12.042-4.473a.951.951,0,0,1-.95.951H39.949a.953.953,0,0,1-.951-.951V102.475a.952.952,0,0,1,.951-.951H51.04a.952.952,0,0,1,.95.951ZM41.649,95.166h7.692a.952.952,0,0,1,.951.95V98H40.7V96.116a.952.952,0,0,1,.951-.95Zm0,0" transform="translate(-11.244 -29.047)"/>
          <path id="Trazado_728307" data-name="Trazado 728307" d="M75.119,91.394H80.4a3.387,3.387,0,0,0,3.034,1.889h2.849a3.387,3.387,0,0,0,3.034-1.889H130.86a7.192,7.192,0,0,0,7.184-7.184V9.073a7.192,7.192,0,0,0-7.184-7.184H89.316A3.389,3.389,0,0,0,86.282,0H83.433A3.389,3.389,0,0,0,80.4,1.889h-5.28a4.478,4.478,0,0,0-4.473,4.473v18.6a1.761,1.761,0,1,0,3.522,0V6.362a.952.952,0,0,1,.951-.951h4.926V87.872H75.119a.953.953,0,0,1-.951-.951V32.629a1.761,1.761,0,1,0-3.522,0V86.921a4.478,4.478,0,0,0,4.473,4.473Zm59.4-82.32V84.21a3.666,3.666,0,0,1-3.662,3.662H89.67V5.411h41.191a3.667,3.667,0,0,1,3.661,3.662ZM83.567,3.522h2.581v86.24H83.567Zm0,0" transform="translate(-22.392 0)"/>
          <path id="Trazado_728308" data-name="Trazado 728308" d="M141.54,118.788h6.08a1.761,1.761,0,1,0,0-3.522h-6.08a1.761,1.761,0,1,0,0,3.522Zm0,0" transform="translate(-44.304 -36.535)"/>
          <path id="Trazado_728309" data-name="Trazado 728309" d="M150.155,112.131h.01a1.761,1.761,0,0,0-.009-3.522h-.031a1.761,1.761,0,0,0,.03,3.522Zm0,0" transform="translate(-47.032 -34.424)"/>
          <path id="Trazado_728310" data-name="Trazado 728310" d="M112.712,140.87H4.473A4.478,4.478,0,0,0,0,145.343v15.049a4.478,4.478,0,0,0,4.473,4.473H89.4a1.761,1.761,0,0,0,0-3.522H4.473a.952.952,0,0,1-.951-.951V145.343a.952.952,0,0,1,.951-.951h6.559v2.656a1.761,1.761,0,0,0,3.522,0v-2.656H19.36v2.656a1.761,1.761,0,0,0,3.522,0v-2.656h4.805v2.656a1.761,1.761,0,0,0,3.522,0v-2.656h4.805v2.656a1.761,1.761,0,0,0,3.522,0v-2.656h4.805v2.656a1.761,1.761,0,0,0,3.522,0v-2.656h4.806v2.656a1.761,1.761,0,0,0,3.522,0v-2.656H61v2.656a1.761,1.761,0,0,0,3.522,0v-2.656h4.805v2.656a1.761,1.761,0,0,0,3.522,0v-2.656h4.805v2.656a1.761,1.761,0,0,0,3.522,0v-2.656h4.805v2.656a1.761,1.761,0,0,0,3.522,0v-2.656H94.3v2.656a1.761,1.761,0,0,0,3.522,0v-2.656h4.805v2.656a1.761,1.761,0,0,0,3.522,0v-2.656h6.56a.952.952,0,0,1,.95.951v15.049a.952.952,0,0,1-.95.951H97.073a1.761,1.761,0,0,0,0,3.522h15.64a4.478,4.478,0,0,0,4.472-4.473V145.343a4.478,4.478,0,0,0-4.473-4.473Zm0,0" transform="translate(0 -44.65)"/>
        </g>
      </g>
    </g>
  </g>
</svg>
