<svg xmlns="http://www.w3.org/2000/svg" xmlns:xlink="http://www.w3.org/1999/xlink" width="176" height="176" viewBox="0 0 176 176">
  <defs>
    <clipPath id="clip-path">
      <circle id="Elipse_8399" data-name="Elipse 8399" cx="88" cy="88" r="88" transform="translate(-0.368)" fill="#fff"/>
    </clipPath>
  </defs>
  <g id="Grupo_1036341" data-name="Grupo 1036341" transform="translate(8573 7387)">
    <g id="Grupo_1029625" data-name="Grupo 1029625" transform="translate(-8572.632 -7387)">
      <circle id="Elipse_8399-2" data-name="Elipse 8399" cx="88" cy="88" r="88" transform="translate(-0.368)" fill="#fff"/>
    </g>
    <g id="Grupo_1030230" data-name="Grupo 1030230" transform="translate(-8572.632 -7387)">
      <g id="Enmascarar_grupo_1026457" data-name="Enmascarar grupo 1026457" clip-path="url(#clip-path)">
        <g id="broom-swab-dustpan-beson-trashcan" transform="translate(22.504 22.872)">
          <path id="Trazado_728246" data-name="Trazado 728246" d="M175.1,143.733v23.7h-7.9l5.255-15.764Z" transform="translate(-52.687 -45.023)" fill="#c6c5ca"/>
          <path id="Trazado_728247" data-name="Trazado 728247" d="M167.438,143.733l-2.647,7.941-.119-.04H143.733v-7.9h23.7Z" transform="translate(-45.023 -45.023)" fill="#c6c5ca"/>
          <g id="Grupo_1030231" data-name="Grupo 1030231" transform="translate(98.71 98.71)">
            <path id="Trazado_728248" data-name="Trazado 728248" d="M175.1,143.733v23.7h-7.9l5.255-15.764Z" transform="translate(-151.397 -143.733)" fill="#898890"/>
            <path id="Trazado_728249" data-name="Trazado 728249" d="M175.1,143.733l-2.647,7.941-.119-.04H167.2v-7.9Z" transform="translate(-151.397 -143.733)" fill="#898890"/>
            <path id="Trazado_728250" data-name="Trazado 728250" d="M164.791,155.506l-5.255,15.764h-7.9l-7.9-15.8h20.939Z" transform="translate(-143.733 -147.565)" fill="#898890"/>
            <path id="Trazado_728251" data-name="Trazado 728251" d="M164.791,155.506l-5.255,15.764h-7.9l-7.9-15.8h20.939Z" transform="translate(-143.733 -147.565)" fill="#898890"/>
          </g>
          <path id="Trazado_728252" data-name="Trazado 728252" d="M152.533,132h11.852v7.9H152.533Z" transform="translate(-47.897 -41.192)" fill="#ffa031"/>
          <path id="Trazado_728253" data-name="Trazado 728253" d="M161.333,132h5.926v7.9h-5.926Z" transform="translate(-50.771 -41.192)" fill="#ff5023"/>
          <path id="Trazado_728254" data-name="Trazado 728254" d="M163.368,71.417v39.508h-7.9V71.417a3.951,3.951,0,1,1,7.9,0Z" transform="translate(-48.855 -20.117)" fill="#99601d"/>
          <path id="Trazado_728255" data-name="Trazado 728255" d="M139.9,155.467l7.9,15.8h-7.9l-7.9-15.8h7.9Z" transform="translate(-41.192 -48.855)" fill="#fee9ab"/>
          <path id="Trazado_728256" data-name="Trazado 728256" d="M132.238,143.733v7.9h-23.7v-7.9h23.7Z" transform="translate(-33.528 -45.023)" fill="#ffa031"/>
          <path id="Trazado_728257" data-name="Trazado 728257" d="M130.084,155.467l7.9,15.8H126.133v-15.8Z" transform="translate(-39.276 -48.855)" fill="#c0ab91"/>
          <path id="Trazado_728258" data-name="Trazado 728258" d="M128.168,71.417v47.409h-7.9V71.417a3.951,3.951,0,1,1,7.9,0Z" transform="translate(-37.36 -20.117)" fill="#c0ab91"/>
          <path id="Trazado_728259" data-name="Trazado 728259" d="M120.386,155.467v15.8H108.533l7.9-15.8Z" transform="translate(-33.528 -48.855)" fill="#fee9ab"/>
          <path id="Trazado_728260" data-name="Trazado 728260" d="M112.6,155.467l-7.9,15.8H96.8l7.9-15.8Z" transform="translate(-29.696 -48.855)" fill="#c0ab91"/>
          <path id="Trazado_728261" data-name="Trazado 728261" d="M8.8,26.4H60.16V42.2H8.8Z" transform="translate(-0.958 -6.706)" fill="#4db1f0"/>
          <path id="Trazado_728262" data-name="Trazado 728262" d="M60.16,49.867l-3.951,79.016H12.751L8.8,49.867Z" transform="translate(-0.958 -14.369)" fill="#065958"/>
          <path id="Trazado_728263" data-name="Trazado 728263" d="M78.361,49.867,74.41,128.882H64.533l3.951-79.016Z" transform="translate(-19.159 -14.369)" fill="#007579"/>
          <path id="Trazado_728264" data-name="Trazado 728264" d="M20.533,8.8H56.09V20.652H20.533Z" transform="translate(-4.79 -0.958)" fill="#065958"/>
          <path id="Trazado_728265" data-name="Trazado 728265" d="M70.4,26.4h9.877V42.2H70.4Z" transform="translate(-21.075 -6.706)" fill="#00b6bd"/>
          <path id="Trazado_728266" data-name="Trazado 728266" d="M58.667,8.8h9.877V20.652H58.667Z" transform="translate(-17.243 -0.958)" fill="#007579"/>
          <path id="Trazado_728267" data-name="Trazado 728267" d="M63.635,167.2v3.951a3.951,3.951,0,1,1-7.9,0V167.2Z" transform="translate(-16.285 -52.687)" fill="#898890"/>
          <path id="Trazado_728268" data-name="Trazado 728268" d="M64.593,167.2v3.951a3.951,3.951,0,0,1-5.926,3.417,3.951,3.951,0,0,0,1.975-3.417V167.2Z" transform="translate(-17.243 -52.687)" fill="#787680"/>
          <path id="Trazado_728269" data-name="Trazado 728269" d="M34.3,167.2v3.951a3.951,3.951,0,1,1-7.9,0V167.2Z" transform="translate(-6.706 -52.687)" fill="#898890"/>
          <path id="Trazado_728270" data-name="Trazado 728270" d="M129.126,71.417v47.409h-3.951V71.417a3.862,3.862,0,0,0-1.165-2.785A3.581,3.581,0,0,0,123.2,68a3.945,3.945,0,0,1,5.926,3.417Z" transform="translate(-38.318 -20.117)" fill="#99601d"/>
          <path id="Trazado_728271" data-name="Trazado 728271" d="M164.326,71.417v39.508h-3.951V71.417a3.862,3.862,0,0,0-1.165-2.785A3.582,3.582,0,0,0,158.4,68a3.945,3.945,0,0,1,5.926,3.417Z" transform="translate(-49.813 -20.117)" fill="#a78966"/>
          <path id="Trazado_728272" data-name="Trazado 728272" d="M35.259,167.2v3.951a3.951,3.951,0,0,1-5.926,3.417,3.951,3.951,0,0,0,1.975-3.417V167.2Z" transform="translate(-7.664 -52.687)" fill="#787680"/>
          <path id="Trazado_728273" data-name="Trazado 728273" d="M132,143.733h7.9v7.9H132Z" transform="translate(-41.192 -45.023)" fill="#ff5023"/>
          <path id="Trazado_728274" data-name="Trazado 728274" d="M153.111,117.869a1.835,1.835,0,0,0-.356-1.146,1.942,1.942,0,0,0-1.6-.83h-3.951v-5.926a1.975,1.975,0,0,0-1.975-1.975V70.46a5.926,5.926,0,1,0-11.852,0v37.532a1.975,1.975,0,0,0-1.975,1.975v5.926h-9.877V70.46a5.926,5.926,0,1,0-11.852,0v45.434h-5.926a1.975,1.975,0,0,0-1.975,1.975V125.3l-7.684,15.388a1.975,1.975,0,0,0,1.758,2.864h55.311a1.975,1.975,0,0,0,1.975-1.975v-23.7ZM137.328,70.46a1.975,1.975,0,1,1,3.951,0v37.532h-3.951Zm-1.975,41.483h7.9v3.951h-7.9Zm-5.926,7.9H148.41l-1.3,3.951h-17.68Zm-15.8-49.385a1.975,1.975,0,1,1,3.951,0v45.434h-3.951Zm-7.9,49.385h19.754V123.8H105.722ZM99.045,139.6l5.926-11.852h3.477L102.522,139.6Zm14.578,0h-6.677l5.926-11.852h.751Zm3.951,0V127.746h.751l5.926,11.852Zm11.1,0-5.926-11.852h3.477l5.926,11.852Zm13.156,0h-5.255l-5.926-11.852h15.131Zm7.348,0H146l3.18-9.561Z" transform="translate(-28.741 -19.159)" fill="#12263f"/>
          <path id="Trazado_728287" data-name="Trazado 728287" d="M59.2,17.719H53.276V7.842A1.975,1.975,0,0,0,51.3,5.867H15.744a1.975,1.975,0,0,0-1.975,1.975v9.877H7.842a1.975,1.975,0,0,0-1.975,1.975V35.6l3.951,79.016a1.989,1.989,0,0,0,1.975,1.877h5.926v1.975a5.926,5.926,0,1,0,11.852,0v-1.975h7.9v1.975a5.926,5.926,0,1,0,11.852,0v-1.975h5.926a1.989,1.989,0,0,0,1.975-1.877L61.178,35.6v-15.9A1.975,1.975,0,0,0,59.2,17.719Zm-41.483-7.9H49.325v7.9H17.719Zm7.9,108.646a1.975,1.975,0,1,1-3.951,0v-1.975h3.951Zm19.754,0a1.975,1.975,0,1,1-3.951,0v-1.975h3.951Zm8-5.926H13.669L9.916,37.473H57.128Zm3.852-79.016H9.817V21.67H57.227Z" fill="#12263f"/>
          <path id="Trazado_728288" data-name="Trazado 728288" d="M32.267,35.2H54v3.951H32.267Z" transform="translate(-8.621 -9.579)" fill="#12263f"/>
        </g>
      </g>
    </g>
  </g>
</svg>
