<svg xmlns="http://www.w3.org/2000/svg" xmlns:xlink="http://www.w3.org/1999/xlink" width="177" height="176" viewBox="0 0 177 176">
  <defs>
    <clipPath id="clip-path">
      <circle id="Elipse_8399" data-name="Elipse 8399" cx="88" cy="88" r="88" transform="translate(-0.368)" fill="#fff"/>
    </clipPath>
  </defs>
  <g id="Grupo_1036340" data-name="Grupo 1036340" transform="translate(-1080 -4310)">
    <g id="Grupo_1029624" data-name="Grupo 1029624" transform="translate(1080.368 4310)">
      <circle id="Elipse_8399-2" data-name="Elipse 8399" cx="88" cy="88" r="88" transform="translate(-0.368)" fill="#fff"/>
    </g>
    <g id="Grupo_1030225" data-name="Grupo 1030225" transform="translate(1081.368 4310)">
      <g id="Enmascarar_grupo_1026456" data-name="Enmascarar grupo 1026456" clip-path="url(#clip-path)">
        <g id="ropa-protectora" transform="translate(23.41 19.829)">
          <g id="Grupo_1030228" data-name="Grupo 1030228" transform="translate(2.082 1.86)">
            <path id="Trazado_728230" data-name="Trazado 728230" d="M145.2,122.7,143.907,136.8v10H105.965l-12.328-10v10H72.827V122.985L99.6,77.777,111.88,89.77l-.626,3.895a10.534,10.534,0,0,0,8.312,12l15.26,3.088A13.017,13.017,0,0,1,145.2,122.7Z" transform="translate(-22.294 -23.512)" fill="#afafaf"/>
            <path id="Trazado_728231" data-name="Trazado 728231" d="M72.827,149.3v-26.6l12.823,7.918.592,25.733Z" transform="translate(-22.294 -36.02)" fill="#b4acb7"/>
            <path id="Trazado_728232" data-name="Trazado 728232" d="M72.827,159.565H93.636v10H72.827Z" transform="translate(-22.294 -46.281)" fill="#655e66"/>
            <path id="Trazado_728233" data-name="Trazado 728233" d="M72.827,159.565h13.23v10H72.827Z" transform="translate(-22.294 -46.281)" fill="#535057"/>
            <path id="Trazado_728234" data-name="Trazado 728234" d="M151.935,159.565v10H113.993l-12.328-10Z" transform="translate(-30.322 -46.281)" fill="#636363"/>
            <path id="Trazado_728235" data-name="Trazado 728235" d="M113.169,51.4,108.18,82.428h-1.721A8.465,8.465,0,0,0,98.32,93.213L99.374,96.9A14.708,14.708,0,0,1,85.23,115.642h-16.1V102.855L59.534,51.4Z" transform="translate(-18.594 -16.17)" fill="#636363"/>
            <path id="Trazado_728236" data-name="Trazado 728236" d="M69.127,115.642V102.855L59.534,51.4h21.05l1.476,64.241Z" transform="translate(-18.594 -16.17)" fill="#535057"/>
            <g id="Grupo_1030227" data-name="Grupo 1030227">
              <path id="Trazado_728237" data-name="Trazado 728237" d="M67.364,20.249V62.935A13.079,13.079,0,0,1,61.619,73.77l3.59,10.549H12.423l3.59-10.551V67.153l-1.288-1.489V11.856a6.579,6.579,0,0,1,13.159,0V9.16a6.58,6.58,0,1,1,13.161,0v4.967a6.579,6.579,0,0,1,13.159,0v6.124a6.58,6.58,0,0,1,13.16,0Z" transform="translate(-5.479 -2.578)" fill="#76b1dd"/>
              <g id="Grupo_1030226" data-name="Grupo 1030226" transform="translate(6.945)">
                <path id="Trazado_728238" data-name="Trazado 728238" d="M29.243,102.383v8.611H12.423l3.59-10.551V98.4a15.046,15.046,0,0,0,4.573.7h5.38a3.278,3.278,0,0,1,3.278,3.278Z" transform="translate(-12.423 -29.254)" fill="#76b1dd"/>
                <path id="Trazado_728239" data-name="Trazado 728239" d="M15.612,66.7V12.9a6.584,6.584,0,0,1,9.373-5.961A6.582,6.582,0,0,0,21.2,12.9V66.7Z" transform="translate(-13.311 -3.619)" fill="#76b1dd"/>
                <path id="Trazado_728240" data-name="Trazado 728240" d="M33.849,40.305V9.159A6.584,6.584,0,0,1,43.222,3.2a6.582,6.582,0,0,0-3.788,5.961V34.721A5.585,5.585,0,0,1,33.849,40.305Z" transform="translate(-18.388 -2.578)" fill="#76b1dd"/>
                <path id="Trazado_728241" data-name="Trazado 728241" d="M52.085,40.379V16.04a6.584,6.584,0,0,1,9.373-5.961A6.582,6.582,0,0,0,57.67,16.04V34.794A5.585,5.585,0,0,1,52.085,40.379Z" transform="translate(-23.465 -4.494)" fill="#76b1dd"/>
                <path id="Trazado_728242" data-name="Trazado 728242" d="M70.322,44.687V24.526A6.584,6.584,0,0,1,79.7,18.566a6.582,6.582,0,0,0-3.788,5.961V39.1a5.585,5.585,0,0,1-5.585,5.585Z" transform="translate(-28.542 -6.856)" fill="#76b1dd"/>
              </g>
              <path id="Trazado_728243" data-name="Trazado 728243" d="M10.353,43.273A7.553,7.553,0,0,0,2.8,50.826V68.654A15.107,15.107,0,0,0,17.906,83.76V50.826a7.553,7.553,0,0,0-7.553-7.553Z" transform="translate(-2.8 -13.907)" fill="#76b1dd"/>
              <path id="Trazado_728244" data-name="Trazado 728244" d="M16.071,83.649A15.106,15.106,0,0,1,2.8,68.655V50.826a7.558,7.558,0,0,1,10.553-6.935A7.559,7.559,0,0,0,8.8,50.826v19.9a15.1,15.1,0,0,0,7.273,12.919Z" transform="translate(-2.799 -13.907)" fill="#76b1dd"/>
            </g>
          </g>
          <g id="Grupo_1030229" data-name="Grupo 1030229" transform="translate(0.221 0)">
            <path id="Trazado_728245" data-name="Trazado 728245" d="M118.988,86.705a1.86,1.86,0,1,0-1.74,3.289,11.125,11.125,0,0,1,5.889,10.886l-1.14,12.4H54.475V103.193H68.719A16.566,16.566,0,0,0,84.65,82.083L83.6,78.393A6.6,6.6,0,0,1,89.48,70l-.277,1.72a12.362,12.362,0,0,0,9.78,14.117L110.6,88.183a1.86,1.86,0,0,0,.738-3.647L99.721,82.187a8.651,8.651,0,0,1-6.844-9.88l5.616-34.921a1.86,1.86,0,0,0-1.837-2.156H65.828v-15.7a8.445,8.445,0,0,0-13.2-6.972,8.452,8.452,0,0,0-8.4-7.593,8.365,8.365,0,0,0-4.933,1.59A8.446,8.446,0,0,0,23.456,4.784,8.437,8.437,0,0,0,9.468,11.138v3.4a1.86,1.86,0,1,0,3.721,0v-3.4a4.719,4.719,0,0,1,9.438,0s0,0,0,0v28.45a1.86,1.86,0,1,0,3.721,0V11.145s0,0,0-.007v-2.7a4.719,4.719,0,1,1,9.438,0v4.966s0,0,0,.007V38.55a1.86,1.86,0,1,0,3.721,0V13.407s0,0,0,0a4.728,4.728,0,0,1,4.72-4.717,4.725,4.725,0,0,1,4.718,4.72v6.124c0,.007,0,.014,0,.022V40.409a1.86,1.86,0,1,0,3.721,0V19.531s0-.007,0-.01a4.72,4.72,0,0,1,9.44.011V62.217a11.225,11.225,0,0,1-4.929,9.293,1.86,1.86,0,0,0-.716,2.138l2.753,8.093H11.624l2.753-8.093a1.852,1.852,0,0,0,.074-.3,17.022,17.022,0,0,0,2.737.224,1.86,1.86,0,1,0,0-3.721A13.261,13.261,0,0,1,3.942,56.607V38.779a5.693,5.693,0,0,1,11.386,0V55.835a1.86,1.86,0,0,0,3.721,0V38.779a9.427,9.427,0,0,0-5.86-8.715V21.983a1.86,1.86,0,0,0-3.721,0V29.37A9.423,9.423,0,0,0,.221,38.78V56.608A16.991,16.991,0,0,0,10.755,72.3v.438L7.265,83a1.86,1.86,0,0,0,1.761,2.459h41.12l.607,3.255v36.426a1.86,1.86,0,0,0,1.86,1.86H73.424a1.86,1.86,0,0,0,1.86-1.86v-6.095l9.3,7.54a1.86,1.86,0,0,0,1.172.415h37.942a1.86,1.86,0,0,0,1.86-1.86V115.23l1.287-14.009a14.836,14.836,0,0,0-7.853-14.516ZM61.812,85.462A1.86,1.86,0,0,0,63.574,83l-3.156-9.277a14.937,14.937,0,0,0,5.41-11.508V38.952H94.473L90.082,66.259h-.134A10.324,10.324,0,0,0,80.02,79.414l1.052,3.69A12.846,12.846,0,0,1,68.719,99.472H54.475V88.546a1.855,1.855,0,0,0-.032-.341l-.512-2.742Zm-7.337,37.821v-6.278H71.563v6.278Zm31.937,0-7.74-6.278h43.163v6.278Z" transform="translate(-0.221 0)" fill="#12263f"/>
            <circle id="Elipse_8417" data-name="Elipse 8417" cx="1.86" cy="1.86" r="1.86" transform="translate(44.601 43.861)" fill="#12263f"/>
            <circle id="Elipse_8418" data-name="Elipse 8418" cx="1.86" cy="1.86" r="1.86" transform="translate(29.798 43.861)" fill="#12263f"/>
            <circle id="Elipse_8419" data-name="Elipse 8419" cx="1.86" cy="1.86" r="1.86" transform="translate(37.2 43.861)" fill="#12263f"/>
            <circle id="Elipse_8420" data-name="Elipse 8420" cx="1.86" cy="1.86" r="1.86" transform="translate(33.164 50.087)" fill="#12263f"/>
            <circle id="Elipse_8421" data-name="Elipse 8421" cx="1.86" cy="1.86" r="1.86" transform="translate(41.236 50.087)" fill="#12263f"/>
            <circle id="Elipse_8422" data-name="Elipse 8422" cx="1.86" cy="1.86" r="1.86" transform="translate(29.798 56.316)" fill="#12263f"/>
            <circle id="Elipse_8423" data-name="Elipse 8423" cx="1.86" cy="1.86" r="1.86" transform="translate(44.601 56.316)" fill="#12263f"/>
            <circle id="Elipse_8424" data-name="Elipse 8424" cx="1.86" cy="1.86" r="1.86" transform="translate(37.2 56.316)" fill="#12263f"/>
            <circle id="Elipse_8425" data-name="Elipse 8425" cx="1.86" cy="1.86" r="1.86" transform="translate(41.236 62.542)" fill="#12263f"/>
            <circle id="Elipse_8426" data-name="Elipse 8426" cx="1.86" cy="1.86" r="1.86" transform="translate(33.164 62.542)" fill="#12263f"/>
            <circle id="Elipse_8427" data-name="Elipse 8427" cx="1.86" cy="1.86" r="1.86" transform="translate(49.31 62.542)" fill="#12263f"/>
            <circle id="Elipse_8428" data-name="Elipse 8428" cx="1.86" cy="1.86" r="1.86" transform="translate(52.001 56.316)" fill="#12263f"/>
            <circle id="Elipse_8429" data-name="Elipse 8429" cx="1.86" cy="1.86" r="1.86" transform="translate(49.31 50.087)" fill="#12263f"/>
            <circle id="Elipse_8430" data-name="Elipse 8430" cx="1.86" cy="1.86" r="1.86" transform="translate(52.001 43.861)" fill="#12263f"/>
            <circle id="Elipse_8431" data-name="Elipse 8431" cx="1.86" cy="1.86" r="1.86" transform="translate(22.396 43.861)" fill="#12263f"/>
            <circle id="Elipse_8432" data-name="Elipse 8432" cx="1.86" cy="1.86" r="1.86" transform="translate(25.09 50.087)" fill="#12263f"/>
            <circle id="Elipse_8433" data-name="Elipse 8433" cx="1.86" cy="1.86" r="1.86" transform="translate(22.396 56.316)" fill="#12263f"/>
            <circle id="Elipse_8434" data-name="Elipse 8434" cx="1.86" cy="1.86" r="1.86" transform="translate(25.09 62.542)" fill="#12263f"/>
          </g>
        </g>
      </g>
    </g>
  </g>
</svg>
