<svg xmlns="http://www.w3.org/2000/svg" xmlns:xlink="http://www.w3.org/1999/xlink" width="389.737" height="291.508" viewBox="0 0 389.737 291.508">
  <defs>
    <clipPath id="clip-path">
      <rect id="Rectángulo_350762" data-name="Rectángulo 350762" width="283.836" height="261.59" fill="none"/>
    </clipPath>
    <clipPath id="clip-path-3">
      <rect id="Rectángulo_350741" data-name="Rectángulo 350741" width="0.052" height="0.027" fill="none"/>
    </clipPath>
    <clipPath id="clip-path-7">
      <rect id="Rectángulo_350745" data-name="Rectángulo 350745" width="42.931" height="42.931" fill="none"/>
    </clipPath>
    <clipPath id="clip-path-8">
      <rect id="Rectángulo_350746" data-name="Rectángulo 350746" width="16.721" height="14.674" fill="none"/>
    </clipPath>
    <clipPath id="clip-path-10">
      <rect id="Rectángulo_350748" data-name="Rectángulo 350748" width="116.714" height="107.054" fill="none"/>
    </clipPath>
    <clipPath id="clip-path-11">
      <rect id="Rectángulo_350749" data-name="Rectángulo 350749" width="33.626" height="85.406" fill="none"/>
    </clipPath>
    <clipPath id="clip-path-12">
      <rect id="Rectángulo_350750" data-name="Rectángulo 350750" width="23.752" height="13.093" fill="none"/>
    </clipPath>
    <clipPath id="clip-path-14">
      <rect id="Rectángulo_350754" data-name="Rectángulo 350754" width="283.836" height="261.59" fill="#12263f"/>
    </clipPath>
    <clipPath id="clip-path-15">
      <rect id="Rectángulo_350753" data-name="Rectángulo 350753" width="23.123" height="21.463" fill="#12263f"/>
    </clipPath>
    <clipPath id="clip-path-18">
      <rect id="Rectángulo_350756" data-name="Rectángulo 350756" width="38.705" height="23.279" fill="none"/>
    </clipPath>
    <clipPath id="clip-path-20">
      <rect id="Rectángulo_350758" data-name="Rectángulo 350758" width="59.368" height="35.707" fill="none"/>
    </clipPath>
    <clipPath id="clip-path-21">
      <rect id="Rectángulo_350759" data-name="Rectángulo 350759" width="47.939" height="26.104" fill="none"/>
    </clipPath>
  </defs>
  <g id="Grupo_1033895" data-name="Grupo 1033895" transform="translate(9953.438 4331.001)">
    <path id="Trazado_113636" data-name="Trazado 113636" d="M291.508,145.754A145.754,145.754,0,1,0,145.754,291.508,145.754,145.754,0,0,0,291.508,145.754" transform="translate(-9563.7 -4039.493) rotate(180)" fill="#8acbef"/>
    <path id="Trazado_113665" data-name="Trazado 113665" d="M6.514,3.257A3.257,3.257,0,1,0,3.257,6.514,3.257,3.257,0,0,0,6.514,3.257" transform="translate(-9597.944 -4260.945) rotate(180)" fill="#fff"/>
    <path id="Trazado_113666" data-name="Trazado 113666" d="M6.514,3.257A3.257,3.257,0,1,0,3.257,6.514,3.257,3.257,0,0,0,6.514,3.257" transform="translate(-9612.276 -4260.945) rotate(180)" fill="#fff"/>
    <path id="Trazado_113667" data-name="Trazado 113667" d="M6.514,3.257A3.257,3.257,0,1,0,3.257,6.514,3.257,3.257,0,0,0,6.514,3.257" transform="translate(-9626.607 -4260.945) rotate(180)" fill="#fff"/>
    <path id="Trazado_113668" data-name="Trazado 113668" d="M6.515,3.257A3.257,3.257,0,1,0,3.257,6.514,3.257,3.257,0,0,0,6.515,3.257" transform="translate(-9640.939 -4260.945) rotate(180)" fill="#fff"/>
    <path id="Trazado_113669" data-name="Trazado 113669" d="M6.514,3.257A3.257,3.257,0,1,0,3.257,6.514,3.257,3.257,0,0,0,6.514,3.257" transform="translate(-9655.271 -4260.945) rotate(180)" fill="#fff"/>
    <path id="Trazado_113670" data-name="Trazado 113670" d="M6.514,3.257A3.257,3.257,0,1,0,3.257,6.514,3.257,3.257,0,0,0,6.514,3.257" transform="translate(-9597.944 -4247.266) rotate(180)" fill="#fff"/>
    <path id="Trazado_113671" data-name="Trazado 113671" d="M6.514,3.257A3.257,3.257,0,1,0,3.257,6.514,3.257,3.257,0,0,0,6.514,3.257" transform="translate(-9612.276 -4247.266) rotate(180)" fill="#fff"/>
    <path id="Trazado_113672" data-name="Trazado 113672" d="M6.514,3.257A3.257,3.257,0,1,0,3.257,6.514,3.257,3.257,0,0,0,6.514,3.257" transform="translate(-9626.607 -4247.266) rotate(180)" fill="#fff"/>
    <path id="Trazado_113673" data-name="Trazado 113673" d="M6.515,3.257A3.257,3.257,0,1,0,3.257,6.514,3.257,3.257,0,0,0,6.515,3.257" transform="translate(-9640.939 -4247.266) rotate(180)" fill="#fff"/>
    <path id="Trazado_113674" data-name="Trazado 113674" d="M6.514,3.257A3.257,3.257,0,1,0,3.257,6.514,3.257,3.257,0,0,0,6.514,3.257" transform="translate(-9655.271 -4247.266) rotate(180)" fill="#fff"/>
    <path id="Trazado_113675" data-name="Trazado 113675" d="M6.514,3.257A3.257,3.257,0,1,0,3.257,6.514,3.257,3.257,0,0,0,6.514,3.257" transform="translate(-9597.944 -4233.586) rotate(180)" fill="#fff"/>
    <path id="Trazado_113676" data-name="Trazado 113676" d="M6.514,3.257A3.257,3.257,0,1,0,3.257,6.514,3.257,3.257,0,0,0,6.514,3.257" transform="translate(-9612.276 -4233.586) rotate(180)" fill="#fff"/>
    <path id="Trazado_113677" data-name="Trazado 113677" d="M6.514,3.257A3.257,3.257,0,1,0,3.257,6.514,3.257,3.257,0,0,0,6.514,3.257" transform="translate(-9626.607 -4233.586) rotate(180)" fill="#fff"/>
    <path id="Trazado_113678" data-name="Trazado 113678" d="M6.515,3.257A3.257,3.257,0,1,0,3.257,6.514,3.257,3.257,0,0,0,6.515,3.257" transform="translate(-9640.939 -4233.586) rotate(180)" fill="#fff"/>
    <path id="Trazado_113679" data-name="Trazado 113679" d="M6.514,3.257A3.257,3.257,0,1,0,3.257,6.514,3.257,3.257,0,0,0,6.514,3.257" transform="translate(-9655.271 -4233.586) rotate(180)" fill="#fff"/>
    <path id="Trazado_113680" data-name="Trazado 113680" d="M6.514,3.257A3.257,3.257,0,1,0,3.257,6.514,3.257,3.257,0,0,0,6.514,3.257" transform="translate(-9597.944 -4219.906) rotate(180)" fill="#fff"/>
    <path id="Trazado_113681" data-name="Trazado 113681" d="M6.514,3.257A3.257,3.257,0,1,0,3.257,6.514,3.257,3.257,0,0,0,6.514,3.257" transform="translate(-9612.276 -4219.906) rotate(180)" fill="#fff"/>
    <path id="Trazado_113682" data-name="Trazado 113682" d="M6.514,3.257A3.257,3.257,0,1,0,3.257,6.514,3.257,3.257,0,0,0,6.514,3.257" transform="translate(-9626.607 -4219.906) rotate(180)" fill="#fff"/>
    <path id="Trazado_113683" data-name="Trazado 113683" d="M6.515,3.257A3.257,3.257,0,1,0,3.257,6.514,3.257,3.257,0,0,0,6.515,3.257" transform="translate(-9640.939 -4219.906) rotate(180)" fill="#fff"/>
    <path id="Trazado_113684" data-name="Trazado 113684" d="M6.514,3.257A3.257,3.257,0,1,0,3.257,6.514,3.257,3.257,0,0,0,6.514,3.257" transform="translate(-9655.271 -4219.906) rotate(180)" fill="#fff"/>
    <path id="Trazado_113685" data-name="Trazado 113685" d="M6.514,3.257A3.257,3.257,0,1,0,3.257,6.514,3.257,3.257,0,0,0,6.514,3.257" transform="translate(-9597.944 -4206.226) rotate(180)" fill="#fff"/>
    <path id="Trazado_113686" data-name="Trazado 113686" d="M6.514,3.257A3.257,3.257,0,1,0,3.257,6.514,3.257,3.257,0,0,0,6.514,3.257" transform="translate(-9612.276 -4206.226) rotate(180)" fill="#fff"/>
    <path id="Trazado_113687" data-name="Trazado 113687" d="M6.514,3.257A3.257,3.257,0,1,0,3.257,6.514,3.257,3.257,0,0,0,6.514,3.257" transform="translate(-9626.607 -4206.226) rotate(180)" fill="#fff"/>
    <path id="Trazado_113688" data-name="Trazado 113688" d="M6.515,3.257A3.257,3.257,0,1,0,3.257,6.514,3.257,3.257,0,0,0,6.515,3.257" transform="translate(-9640.939 -4206.226) rotate(180)" fill="#fff"/>
    <path id="Trazado_113689" data-name="Trazado 113689" d="M6.514,3.257A3.257,3.257,0,1,0,3.257,6.514,3.257,3.257,0,0,0,6.514,3.257" transform="translate(-9655.271 -4206.226) rotate(180)" fill="#fff"/>
    <g id="Grupo_1033897" data-name="Grupo 1033897" transform="translate(-9953.438 -4301.082)">
      <g id="Grupo_1030321" data-name="Grupo 1030321" clip-path="url(#clip-path)">
        <g id="Grupo_1030273" data-name="Grupo 1030273">
          <g id="Grupo_1030272" data-name="Grupo 1030272" clip-path="url(#clip-path)">
            <path id="Trazado_728507" data-name="Trazado 728507" d="M282,106.148c.09.006.153.358.141.788s-.1.778-.185.778-.154-.352-.141-.788.1-.784.185-.778" transform="translate(-105.238 -39.639)" fill="#e0e0e0"/>
            <path id="Trazado_728508" data-name="Trazado 728508" d="M283.507,96.441a4.711,4.711,0,0,1-.309,1.526,4.628,4.628,0,0,1-.508,1.471,3.291,3.291,0,0,1,.194-1.557,3.252,3.252,0,0,1,.623-1.44" transform="translate(-105.551 -36.014)" fill="#e0e0e0"/>
            <path id="Trazado_728509" data-name="Trazado 728509" d="M287.83,87.846a4.8,4.8,0,0,1-.8,1.335c-.482.7-.877,1.27-.957,1.226a3.211,3.211,0,0,1,.689-1.41c.491-.716,1-1.207,1.068-1.15" transform="translate(-106.825 -32.803)" fill="#e0e0e0"/>
            <path id="Trazado_728510" data-name="Trazado 728510" d="M294.8,81.275c.049.077-.492.513-1.17,1.028a4.623,4.623,0,0,1-1.3.855c-.06-.066.413-.591,1.1-1.115a3.341,3.341,0,0,1,1.367-.768" transform="translate(-109.164 -30.347)" fill="#e0e0e0"/>
            <path id="Trazado_728511" data-name="Trazado 728511" d="M303.413,76.782a7.494,7.494,0,0,1-2.842,1.26,7.5,7.5,0,0,1,2.842-1.26" transform="translate(-112.243 -28.666)" fill="#e0e0e0"/>
            <path id="Trazado_728512" data-name="Trazado 728512" d="M312.8,73.873a7.489,7.489,0,0,1-3,.806,7.5,7.5,0,0,1,3-.806" transform="translate(-115.69 -27.575)" fill="#e0e0e0"/>
            <path id="Trazado_728513" data-name="Trazado 728513" d="M322.514,72.023a7.491,7.491,0,0,1-3.066.513,7.491,7.491,0,0,1,3.066-.513" transform="translate(-119.292 -26.879)" fill="#e0e0e0"/>
            <path id="Trazado_728514" data-name="Trazado 728514" d="M332.36,71.013a7.48,7.48,0,0,1-3.1.2,7.482,7.482,0,0,1,3.1-.2" transform="translate(-122.956 -26.484)" fill="#e0e0e0"/>
            <path id="Trazado_728515" data-name="Trazado 728515" d="M342.258,71.482a7.492,7.492,0,0,1-3.09-.339,7.492,7.492,0,0,1,3.09.339" transform="translate(-126.657 -26.543)" fill="#e0e0e0"/>
            <path id="Trazado_728516" data-name="Trazado 728516" d="M351.944,73.557a7.476,7.476,0,0,1-2.981-.88,7.476,7.476,0,0,1,2.981.88" transform="translate(-130.315 -27.13)" fill="#e0e0e0"/>
            <path id="Trazado_728517" data-name="Trazado 728517" d="M361.081,77.362a7.457,7.457,0,0,1-2.756-1.43,3.8,3.8,0,0,1,1.453.571c.766.4,1.349.783,1.3.86" transform="translate(-133.81 -28.35)" fill="#e0e0e0"/>
            <path id="Trazado_728518" data-name="Trazado 728518" d="M369.262,82.921c-.063.066-.617-.353-1.274-.9s-1.175-1.007-1.122-1.081a3.425,3.425,0,0,1,1.33.83c.667.549,1.128,1.083,1.067,1.147" transform="translate(-136.999 -30.224)" fill="#e0e0e0"/>
            <path id="Trazado_728519" data-name="Trazado 728519" d="M376,90.153c-.076.05-.517-.488-1.032-1.167a4.426,4.426,0,0,1-.843-1.31c.067-.058.582.423,1.1,1.113A3.4,3.4,0,0,1,376,90.153" transform="translate(-139.708 -32.739)" fill="#e0e0e0"/>
            <path id="Trazado_728520" data-name="Trazado 728520" d="M380.9,98.736a10.182,10.182,0,0,1-1.269-2.836,5.932,5.932,0,0,1,1.269,2.836" transform="translate(-141.763 -35.811)" fill="#e0e0e0"/>
            <path id="Trazado_728521" data-name="Trazado 728521" d="M383.734,108.2a10.361,10.361,0,0,1-.587-3.051,5.863,5.863,0,0,1,.587,3.051" transform="translate(-143.068 -39.268)" fill="#e0e0e0"/>
            <path id="Trazado_728522" data-name="Trazado 728522" d="M384.1,118.072a10.879,10.879,0,0,1,.189-3.1,5.733,5.733,0,0,1-.189,3.1" transform="translate(-143.414 -42.934)" fill="#e0e0e0"/>
            <path id="Trazado_728523" data-name="Trazado 728523" d="M381.493,127.707a3.848,3.848,0,0,1,.419-1.5,4.108,4.108,0,0,1,.623-1.427,3.6,3.6,0,0,1-.316,1.536,3.825,3.825,0,0,1-.726,1.39" transform="translate(-142.455 -46.597)" fill="#e0e0e0"/>
            <path id="Trazado_728524" data-name="Trazado 728524" d="M376.1,136.262c-.068-.062.348-.619.865-1.294s.95-1.218,1.028-1.169a3.278,3.278,0,0,1-.769,1.368c-.528.689-1.059,1.155-1.123,1.1" transform="translate(-140.447 -49.964)" fill="#e0e0e0"/>
            <path id="Trazado_728525" data-name="Trazado 728525" d="M368.364,142.836c-.042-.081.538-.462,1.245-.932a4.825,4.825,0,0,1,1.347-.778c.056.068-.442.571-1.167,1.05a3.165,3.165,0,0,1-1.425.659" transform="translate(-137.559 -52.698)" fill="#e0e0e0"/>
            <path id="Trazado_728526" data-name="Trazado 728526" d="M358.9,146.244a5.288,5.288,0,0,1,1.516-.335,5.171,5.171,0,0,1,1.541-.189,4.89,4.89,0,0,1-3.057.524" transform="translate(-134.026 -54.406)" fill="#e0e0e0"/>
            <path id="Trazado_728527" data-name="Trazado 728527" d="M349.329,144.445a5.412,5.412,0,0,1,1.476.48,5.563,5.563,0,0,1,1.432.6,2.958,2.958,0,0,1-1.546-.293,3,3,0,0,1-1.362-.786" transform="translate(-130.45 -53.935)" fill="#e0e0e0"/>
            <path id="Trazado_728528" data-name="Trazado 728528" d="M341.91,137.987c.076-.052.524.475,1.1,1.1s1.049,1.127.99,1.2-.645-.331-1.231-.978a3.021,3.021,0,0,1-.854-1.32" transform="translate(-127.677 -51.528)" fill="#e0e0e0"/>
            <path id="Trazado_728529" data-name="Trazado 728529" d="M338.566,128.772a6.274,6.274,0,0,1,.345,1.509,5.908,5.908,0,0,1,.266,1.526,2.871,2.871,0,0,1-.586-1.461,2.8,2.8,0,0,1-.026-1.575" transform="translate(-126.4 -48.088)" fill="#e0e0e0"/>
            <path id="Trazado_728530" data-name="Trazado 728530" d="M340.714,119.494a5.992,5.992,0,0,1-.674,1.394,6.085,6.085,0,0,1-.746,1.357,2.822,2.822,0,0,1,.457-1.506c.4-.779.9-1.3.963-1.244" transform="translate(-126.695 -44.622)" fill="#e0e0e0"/>
            <path id="Trazado_728531" data-name="Trazado 728531" d="M347.653,113.315c.04.083-.553.444-1.273.892a5.192,5.192,0,0,1-1.358.754c-.056-.068.445-.573,1.186-1.031a3.141,3.141,0,0,1,1.445-.615" transform="translate(-128.841 -42.31)" fill="#e0e0e0"/>
            <path id="Trazado_728532" data-name="Trazado 728532" d="M356.875,110.425a4.571,4.571,0,0,1-1.494.44,4.634,4.634,0,0,1-1.539.231,5.621,5.621,0,0,1,3.033-.67" transform="translate(-132.136 -41.218)" fill="#e0e0e0"/>
            <path id="Trazado_728533" data-name="Trazado 728533" d="M366.735,110.107a7.488,7.488,0,0,1-3.106-.112,7.489,7.489,0,0,1,3.106.112" transform="translate(-135.791 -41.032)" fill="#e0e0e0"/>
            <path id="Trazado_728534" data-name="Trazado 728534" d="M376.5,111.711a10.193,10.193,0,0,1-3.007-.782,5.927,5.927,0,0,1,3.007.782" transform="translate(-139.475 -41.41)" fill="#e0e0e0"/>
            <path id="Trazado_728535" data-name="Trazado 728535" d="M385.646,115.462a10.666,10.666,0,0,1-2.732-1.474,3.35,3.35,0,0,1,1.467.549c.762.41,1.313.85,1.265.925" transform="translate(-142.992 -42.561)" fill="#e0e0e0"/>
            <path id="Trazado_728536" data-name="Trazado 728536" d="M393.517,121.413c-.068.06-.61-.38-1.212-.982-.586-.618-1.086-1.1-1.023-1.175a3.086,3.086,0,0,1,1.25.941c.612.612,1.053,1.157.985,1.216" transform="translate(-146.116 -44.532)" fill="#e0e0e0"/>
            <path id="Trazado_728537" data-name="Trazado 728537" d="M399.452,129.292c-.082.04-.449-.55-.877-1.285a4.547,4.547,0,0,1-.684-1.4c.073-.051.532.485.966,1.234a3.345,3.345,0,0,1,.595,1.449" transform="translate(-148.582 -47.279)" fill="#e0e0e0"/>
            <path id="Trazado_728538" data-name="Trazado 728538" d="M403.169,138.439a10.119,10.119,0,0,1-.867-2.982,5.946,5.946,0,0,1,.867,2.982" transform="translate(-150.225 -50.584)" fill="#e0e0e0"/>
            <path id="Trazado_728539" data-name="Trazado 728539" d="M404.754,148.2a7.468,7.468,0,0,1-.238-3.1,7.467,7.467,0,0,1,.238,3.1" transform="translate(-151.029 -54.186)" fill="#e0e0e0"/>
            <path id="Trazado_728540" data-name="Trazado 728540" d="M404.322,158.1a7.495,7.495,0,0,1,.318-3.091,7.47,7.47,0,0,1-.318,3.091" transform="translate(-150.962 -57.884)" fill="#e0e0e0"/>
            <path id="Trazado_728541" data-name="Trazado 728541" d="M402.1,167.809a7.482,7.482,0,0,1,.828-3,7.481,7.481,0,0,1-.828,3" transform="translate(-150.148 -61.547)" fill="#e0e0e0"/>
            <path id="Trazado_728542" data-name="Trazado 728542" d="M398.3,177.063a3.845,3.845,0,0,1,.528-1.469c.372-.769.695-1.385.785-1.348a3.516,3.516,0,0,1-.489,1.486,3.836,3.836,0,0,1-.823,1.33" transform="translate(-148.732 -65.069)" fill="#e0e0e0"/>
            <path id="Trazado_728543" data-name="Trazado 728543" d="M393.256,185.712a3.864,3.864,0,0,1,.692-1.4c.457-.722.891-1.271.969-1.226a3.823,3.823,0,0,1-.692,1.4c-.461.728-.894,1.277-.969,1.226" transform="translate(-146.851 -68.369)" fill="#e0e0e0"/>
            <path id="Trazado_728544" data-name="Trazado 728544" d="M387.309,193.757a3.849,3.849,0,0,1,.834-1.321c.53-.672,1.018-1.173,1.09-1.12s-.3.645-.834,1.321-1.021,1.177-1.09,1.119" transform="translate(-144.631 -71.443)" fill="#e0e0e0"/>
            <path id="Trazado_728545" data-name="Trazado 728545" d="M380.705,201.251c-.065-.063.354-.623.936-1.251s1.108-1.09,1.175-1.029-.352.62-.936,1.251-1.111,1.092-1.175,1.029" transform="translate(-142.166 -74.3)" fill="#e0e0e0"/>
            <path id="Trazado_728546" data-name="Trazado 728546" d="M373.656,208.3c-.062-.066.388-.6,1.005-1.2s1.168-1.026,1.231-.962-.386.6-1.005,1.2-1.169,1.028-1.231.962" transform="translate(-139.533 -76.979)" fill="#e0e0e0"/>
            <path id="Trazado_728547" data-name="Trazado 728547" d="M366.339,215.047c-.06-.067.408-.588,1.044-1.162s1.2-.986,1.263-.92-.407.586-1.044,1.162-1.2.987-1.263.92" transform="translate(-136.801 -79.526)" fill="#e0e0e0"/>
            <path id="Trazado_728548" data-name="Trazado 728548" d="M360.744,220.608c-.06-.068.156-.355.481-.64s.637-.464.7-.4-.156.355-.481.641-.637.463-.7.4" transform="translate(-134.71 -81.99)" fill="#e0e0e0"/>
            <path id="Trazado_728549" data-name="Trazado 728549" d="M72.438,200.321c.076-.048.327.209.56.571s.36.7.285.747-.326-.206-.56-.571-.362-.7-.285-.747" transform="translate(-27.042 -74.804)" fill="#e0e0e0"/>
            <path id="Trazado_728550" data-name="Trazado 728550" d="M67.568,191.57a7.63,7.63,0,0,1,1.459,2.78c-.079.044-.47-.544-.874-1.315a3.9,3.9,0,0,1-.585-1.466" transform="translate(-25.227 -71.538)" fill="#e0e0e0"/>
            <path id="Trazado_728551" data-name="Trazado 728551" d="M63.578,182.379a7.646,7.646,0,0,1,1.178,2.91,7.646,7.646,0,0,1-1.178-2.91" transform="translate(-23.735 -68.106)" fill="#e0e0e0"/>
            <path id="Trazado_728552" data-name="Trazado 728552" d="M60.519,172.838a7.628,7.628,0,0,1,.882,3.013,7.637,7.637,0,0,1-.882-3.013" transform="translate(-22.589 -64.543)" fill="#e0e0e0"/>
            <path id="Trazado_728553" data-name="Trazado 728553" d="M58.439,163.036a7.624,7.624,0,0,1,.57,3.088,7.624,7.624,0,0,1-.57-3.088" transform="translate(-21.807 -60.883)" fill="#e0e0e0"/>
            <path id="Trazado_728554" data-name="Trazado 728554" d="M57.385,153.071a7.636,7.636,0,0,1,.239,3.13,7.636,7.636,0,0,1-.239-3.13" transform="translate(-21.399 -57.162)" fill="#e0e0e0"/>
            <path id="Trazado_728555" data-name="Trazado 728555" d="M57.368,143.049a7.613,7.613,0,0,1-.11,3.138,7.641,7.641,0,0,1,.11-3.138" transform="translate(-21.338 -53.419)" fill="#e0e0e0"/>
            <path id="Trazado_728556" data-name="Trazado 728556" d="M58.411,133.108a7.629,7.629,0,0,1-.474,3.1,7.63,7.63,0,0,1,.474-3.1" transform="translate(-21.617 -49.707)" fill="#e0e0e0"/>
            <path id="Trazado_728557" data-name="Trazado 728557" d="M60.617,123.385a7.645,7.645,0,0,1-.851,3.023,7.637,7.637,0,0,1,.851-3.023" transform="translate(-22.308 -46.076)" fill="#e0e0e0"/>
            <path id="Trazado_728558" data-name="Trazado 728558" d="M63.992,114.028a7.646,7.646,0,0,1-1.212,2.9,7.646,7.646,0,0,1,1.212-2.9" transform="translate(-23.437 -42.581)" fill="#e0e0e0"/>
            <path id="Trazado_728559" data-name="Trazado 728559" d="M68.475,105.169a7.654,7.654,0,0,1-1.55,2.731,3.892,3.892,0,0,1,.633-1.446c.43-.756.841-1.331.917-1.284" transform="translate(-24.987 -39.273)" fill="#e0e0e0"/>
            <path id="Trazado_728560" data-name="Trazado 728560" d="M74,96.948a3.937,3.937,0,0,1-.8,1.357c-.514.694-.991,1.214-1.065,1.164a3.867,3.867,0,0,1,.8-1.358c.518-.7.994-1.219,1.065-1.163" transform="translate(-26.933 -36.202)" fill="#e0e0e0"/>
            <path id="Trazado_728561" data-name="Trazado 728561" d="M80.507,89.485c.063.065-.369.623-.966,1.249s-1.134,1.083-1.2,1.023.365-.618.966-1.249,1.138-1.088,1.2-1.023" transform="translate(-29.252 -33.415)" fill="#e0e0e0"/>
            <path id="Trazado_728562" data-name="Trazado 728562" d="M87.922,82.932c.054.072-.446.571-1.117,1.115a3.953,3.953,0,0,1-1.323.861c-.059-.068.441-.567,1.118-1.115s1.269-.933,1.323-.861" transform="translate(-31.92 -30.966)" fill="#e0e0e0"/>
            <path id="Trazado_728563" data-name="Trazado 728563" d="M96.15,77.438c.044.079-.518.506-1.255.955a3.938,3.938,0,0,1-1.424.676c-.05-.075.512-.5,1.255-.955a3.873,3.873,0,0,1,1.424-.676" transform="translate(-34.904 -28.913)" fill="#e0e0e0"/>
            <path id="Trazado_728564" data-name="Trazado 728564" d="M105.08,73.149a7.652,7.652,0,0,1-2.883,1.242,7.626,7.626,0,0,1,2.883-1.242" transform="translate(-38.163 -27.309)" fill="#e0e0e0"/>
            <path id="Trazado_728565" data-name="Trazado 728565" d="M114.554,70.147a7.631,7.631,0,0,1-3.026.837,7.631,7.631,0,0,1,3.026-.837" transform="translate(-41.648 -26.184)" fill="#e0e0e0"/>
            <path id="Trazado_728566" data-name="Trazado 728566" d="M124.372,68.434a7.615,7.615,0,0,1-3.107.43,7.619,7.619,0,0,1,3.107-.43" transform="translate(-45.284 -25.535)" fill="#e0e0e0"/>
            <path id="Trazado_728567" data-name="Trazado 728567" d="M134.36,67.979a7.617,7.617,0,0,1-3.14.021,7.646,7.646,0,0,1,3.14-.021" transform="translate(-49.002 -25.329)" fill="#e0e0e0"/>
            <path id="Trazado_728568" data-name="Trazado 728568" d="M144.347,68.722a7.627,7.627,0,0,1-3.114-.393,7.623,7.623,0,0,1,3.114.393" transform="translate(-52.741 -25.495)" fill="#e0e0e0"/>
            <path id="Trazado_728569" data-name="Trazado 728569" d="M154.149,70.748a7.639,7.639,0,0,1-3.033-.814,7.631,7.631,0,0,1,3.033.814" transform="translate(-56.432 -26.105)" fill="#e0e0e0"/>
            <path id="Trazado_728570" data-name="Trazado 728570" d="M163.576,74.117a7.624,7.624,0,0,1-2.885-1.239,7.624,7.624,0,0,1,2.885,1.239" transform="translate(-60.007 -27.208)" fill="#e0e0e0"/>
            <path id="Trazado_728571" data-name="Trazado 728571" d="M172.409,78.825a3.951,3.951,0,0,1-1.419-.689,4.194,4.194,0,0,1-1.251-.962c.048-.086.682.226,1.422.685s1.3.892,1.247.967" transform="translate(-63.385 -28.814)" fill="#e0e0e0"/>
            <path id="Trazado_728572" data-name="Trazado 728572" d="M180.49,84.735a3.95,3.95,0,0,1-1.315-.873c-.666-.549-1.162-1.053-1.107-1.124s.643.319,1.315.872,1.168,1.057,1.108,1.125" transform="translate(-66.495 -30.894)" fill="#e0e0e0"/>
            <path id="Trazado_728573" data-name="Trazado 728573" d="M187.758,91.622c-.067.06-.6-.4-1.2-1.024s-1.028-1.185-.965-1.249.6.394,1.2,1.024,1.031,1.189.964,1.249" transform="translate(-69.304 -33.363)" fill="#e0e0e0"/>
            <path id="Trazado_728574" data-name="Trazado 728574" d="M194.219,99.274c-.073.053-.56-.459-1.088-1.143a3.941,3.941,0,0,1-.83-1.343c.07-.057.557.455,1.088,1.143a3.9,3.9,0,0,1,.83,1.343" transform="translate(-71.809 -36.142)" fill="#e0e0e0"/>
            <path id="Trazado_728575" data-name="Trazado 728575" d="M199.921,107.508c-.077.046-.517-.507-.982-1.236a3.927,3.927,0,0,1-.706-1.412c.075-.05.514.5.981,1.236a3.9,3.9,0,0,1,.707,1.411" transform="translate(-74.023 -39.158)" fill="#e0e0e0"/>
            <path id="Trazado_728576" data-name="Trazado 728576" d="M204.932,116.182a7.623,7.623,0,0,1-1.482-2.768c.078-.044.475.541.885,1.307a3.937,3.937,0,0,1,.6,1.461" transform="translate(-75.97 -42.352)" fill="#e0e0e0"/>
            <path id="Trazado_728577" data-name="Trazado 728577" d="M208.681,123.761c-.082.037-.3-.251-.477-.642s-.263-.741-.181-.779.3.249.477.642.263.742.181.779" transform="translate(-77.671 -45.684)" fill="#e0e0e0"/>
            <path id="Trazado_728578" data-name="Trazado 728578" d="M86.515,245.228c-.04-.081.249-.292.646-.472s.747-.258.781-.174-.255.294-.646.471-.741.255-.781.175" transform="translate(-32.306 -91.323)" fill="#e0e0e0"/>
            <path id="Trazado_728579" data-name="Trazado 728579" d="M78.363,249.925c-.059-.067.415-.578,1.1-1.093a3.3,3.3,0,0,1,1.35-.759c.05.077-.482.51-1.154,1.019s-1.234.9-1.294.833" transform="translate(-29.262 -92.635)" fill="#e0e0e0"/>
            <path id="Trazado_728580" data-name="Trazado 728580" d="M71.71,256.8c-.074-.053.308-.629.852-1.287s1.039-1.141,1.1-1.08a3.793,3.793,0,0,1-.853,1.288c-.536.648-1.031,1.132-1.1,1.079" transform="translate(-26.775 -95.011)" fill="#e0e0e0"/>
            <path id="Trazado_728581" data-name="Trazado 728581" d="M66.753,265.026a3.727,3.727,0,0,1,.561-1.438c.393-.758.774-1.334.852-1.288a7.293,7.293,0,0,1-1.413,2.726" transform="translate(-24.922 -97.951)" fill="#e0e0e0"/>
            <path id="Trazado_728582" data-name="Trazado 728582" d="M63.62,274.166a7.3,7.3,0,0,1,.83-2.957,7.324,7.324,0,0,1-.83,2.957" transform="translate(-23.747 -101.278)" fill="#e0e0e0"/>
            <path id="Trazado_728583" data-name="Trazado 728583" d="M62.437,283.824a7.3,7.3,0,0,1,.2-3.065,7.305,7.305,0,0,1-.2,3.065" transform="translate(-23.282 -104.845)" fill="#e0e0e0"/>
            <path id="Trazado_728584" data-name="Trazado 728584" d="M63.172,293.572a5.764,5.764,0,0,1-.494-3.031,10.039,10.039,0,0,1,.494,3.031" transform="translate(-23.382 -108.498)" fill="#e0e0e0"/>
            <path id="Trazado_728585" data-name="Trazado 728585" d="M66.058,302.913a5.769,5.769,0,0,1-1.2-2.825,9.966,9.966,0,0,1,1.2,2.825" transform="translate(-24.212 -112.062)" fill="#e0e0e0"/>
            <path id="Trazado_728586" data-name="Trazado 728586" d="M70.992,311.347c-.07.057-.531-.457-1.031-1.15a3.712,3.712,0,0,1-.766-1.34c.076-.048.538.466,1.031,1.15a3.8,3.8,0,0,1,.766,1.34" transform="translate(-25.836 -115.336)" fill="#e0e0e0"/>
            <path id="Trazado_728587" data-name="Trazado 728587" d="M77.6,318.554c-.057.07-.613-.34-1.243-.915s-1.088-1.093-1.023-1.157.621.347,1.243.916,1.08,1.086,1.023,1.156" transform="translate(-28.13 -118.183)" fill="#e0e0e0"/>
            <path id="Trazado_728588" data-name="Trazado 728588" d="M85.5,324.326a3.711,3.711,0,0,1-1.4-.661c-.728-.444-1.277-.865-1.226-.939a3.805,3.805,0,0,1,1.4.661c.719.439,1.268.86,1.226.939" transform="translate(-30.947 -120.512)" fill="#e0e0e0"/>
            <path id="Trazado_728589" data-name="Trazado 728589" d="M94.339,328.5a7.318,7.318,0,0,1-2.875-1.08,7.309,7.309,0,0,1,2.875,1.08" transform="translate(-34.155 -122.263)" fill="#e0e0e0"/>
            <path id="Trazado_728590" data-name="Trazado 728590" d="M103.817,330.909a7.3,7.3,0,0,1-3.028-.5,7.3,7.3,0,0,1,3.028.5" transform="translate(-37.638 -123.368)" fill="#e0e0e0"/>
            <path id="Trazado_728591" data-name="Trazado 728591" d="M113.579,331.26a7.3,7.3,0,0,1-3.066.135,7.306,7.306,0,0,1,3.066-.135" transform="translate(-41.269 -123.663)" fill="#e0e0e0"/>
            <path id="Trazado_728592" data-name="Trazado 728592" d="M123.223,329.328a7.315,7.315,0,0,1-2.971.775,7.291,7.291,0,0,1,2.971-.775" transform="translate(-44.906 -122.971)" fill="#e0e0e0"/>
            <path id="Trazado_728593" data-name="Trazado 728593" d="M132.354,325.5c.044.079-.543.444-1.311.815a3.71,3.71,0,0,1-1.453.521,7.307,7.307,0,0,1,2.764-1.336" transform="translate(-48.392 -121.548)" fill="#e0e0e0"/>
            <path id="Trazado_728594" data-name="Trazado 728594" d="M140.674,320.077c.057.07-.454.535-1.142,1.039a3.726,3.726,0,0,1-1.335.776c-.05-.075.462-.541,1.142-1.039a3.793,3.793,0,0,1,1.335-.776" transform="translate(-51.606 -119.524)" fill="#e0e0e0"/>
            <path id="Trazado_728595" data-name="Trazado 728595" d="M147.956,313.313c.068.059-.355.606-.945,1.221s-1.119,1.061-1.18.995.361-.612.945-1.221,1.113-1.054,1.181-.995" transform="translate(-54.456 -117)" fill="#e0e0e0"/>
            <path id="Trazado_728596" data-name="Trazado 728596" d="M154.014,305.426a3.737,3.737,0,0,1-.722,1.366c-.477.709-.921,1.239-.993,1.185a3.8,3.8,0,0,1,.722-1.367c.471-.7.916-1.231.993-1.184" transform="translate(-56.87 -114.055)" fill="#e0e0e0"/>
            <path id="Trazado_728597" data-name="Trazado 728597" d="M158.634,296.646a7.306,7.306,0,0,1-1.235,2.811,7.306,7.306,0,0,1,1.235-2.811" transform="translate(-58.772 -110.777)" fill="#e0e0e0"/>
            <path id="Trazado_728598" data-name="Trazado 728598" d="M161.275,289.583c.088.019.073.378-.034.8s-.264.744-.352.719-.071-.382.035-.8.263-.738.351-.719" transform="translate(-60.06 -108.14)" fill="#e0e0e0"/>
            <path id="Trazado_728599" data-name="Trazado 728599" d="M252.2,23.38,224.184,30.9a2.037,2.037,0,0,1-2.5-1.439l-5.2-19.375a2.037,2.037,0,0,1,1.439-2.5L245.939.07a2.037,2.037,0,0,1,2.5,1.439l5.2,19.376a2.038,2.038,0,0,1-1.439,2.5" transform="translate(-80.817 0)" fill="#f5f5f5"/>
            <path id="Trazado_728600" data-name="Trazado 728600" d="M248.188,4.06a1.7,1.7,0,0,1-.2.325l-.635.892-2.385,3.246-3.571,4.788-2.118,2.821-1.122,1.491a3.136,3.136,0,0,1-3.633,1.027l-1.722-.732-3.241-1.392-5.481-2.376-3.684-1.627-.995-.458a1.668,1.668,0,0,1-.338-.18,1.731,1.731,0,0,1,.364.12l1.019.4,3.724,1.533,5.508,2.311,3.249,1.375,1.714.724a2.817,2.817,0,0,0,3.258-.921l1.126-1.487,2.133-2.809,3.627-4.746L247.248,5.2l.684-.855a1.686,1.686,0,0,1,.256-.285" transform="translate(-81.804 -1.516)" fill="#e0e0e0"/>
            <path id="Trazado_728601" data-name="Trazado 728601" d="M235.121,25.247c.077.047-1.49,2.756-3.5,6.051s-3.7,5.928-3.778,5.881,1.489-2.756,3.5-6.051,3.7-5.928,3.778-5.881" transform="translate(-85.084 -9.428)" fill="#e0e0e0"/>
            <path id="Trazado_728602" data-name="Trazado 728602" d="M252.079,21.856c.047-.077,2.756,1.49,6.051,3.5s5.928,3.7,5.881,3.778-2.756-1.489-6.051-3.5-5.927-3.7-5.88-3.778" transform="translate(-94.135 -8.161)" fill="#e0e0e0"/>
            <path id="Trazado_728603" data-name="Trazado 728603" d="M112.012,389.612a3.452,3.452,0,1,1-4.137-2.593,3.452,3.452,0,0,1,4.137,2.593" transform="translate(-39.283 -144.493)" fill="#ebebeb"/>
            <path id="Trazado_728604" data-name="Trazado 728604" d="M90.074,381.589l25.877-5.944L113.7,374a7.166,7.166,0,0,1-2.766-4.188l-1.612-7.018a9.675,9.675,0,0,0-18.858,4.332l1.551,6.75a7.168,7.168,0,0,1-.5,4.654Z" transform="translate(-33.637 -132.676)" fill="#ebebeb"/>
            <path id="Trazado_728605" data-name="Trazado 728605" d="M101.512,356.25l-.33.076a1.134,1.134,0,0,1-1.358-.851l-.732-3.186a1.134,1.134,0,0,1,.851-1.358l.33-.076a1.133,1.133,0,0,1,1.358.851l.732,3.185a1.133,1.133,0,0,1-.851,1.358" transform="translate(-36.993 -131.011)" fill="#ebebeb"/>
            <path id="Trazado_728606" data-name="Trazado 728606" d="M116.081,387.868c.013.053-5.732,1.417-12.828,3.044s-12.862,2.9-12.874,2.851,5.731-1.417,12.83-3.045,12.86-2.9,12.873-2.85" transform="translate(-33.751 -144.842)" fill="#e0e0e0"/>
            <path id="Trazado_728607" data-name="Trazado 728607" d="M105.377,392.918a5.768,5.768,0,0,0,3.523.415,5.537,5.537,0,0,0,3.2-1.959Z" transform="translate(-39.351 -146.153)" fill="#e0e0e0"/>
            <path id="Trazado_728608" data-name="Trazado 728608" d="M112.343,365.159a1.953,1.953,0,0,0-.387-.827.676.676,0,0,0-.831-.161.725.725,0,0,0-.408.821c.252,1.11.8,3.564,1.075,5.035a5.712,5.712,0,0,1-.214,3.629,4.123,4.123,0,0,1-2.133,1.813,15.4,15.4,0,0,1-2.756.737,14.672,14.672,0,0,0-3.435,1.093,1.782,1.782,0,0,0-.756.583.7.7,0,0,0,.06.885,1.06,1.06,0,0,0,.848.125,44.222,44.222,0,0,0,8.893-1.91,3.059,3.059,0,0,0,1.573-1,3.11,3.11,0,0,0,.305-2.081,49.706,49.706,0,0,0-1.835-8.744" transform="translate(-38.229 -135.962)" fill="#e0e0e0"/>
            <g id="Grupo_1030271" data-name="Grupo 1030271" transform="translate(61.636 225.086)" opacity="0.2">
              <g id="Grupo_1030270" data-name="Grupo 1030270">
                <g id="Grupo_1030269" data-name="Grupo 1030269" clip-path="url(#clip-path-3)">
                  <path id="Trazado_728609" data-name="Trazado 728609" d="M98.371,359.264l.021-.009.031-.018Z" transform="translate(-98.371 -359.237)" fill="#fff"/>
                </g>
              </g>
            </g>
            <path id="Trazado_728610" data-name="Trazado 728610" d="M105.518,355.911c-.014.038-.585-.207-1.554-.4a10.36,10.36,0,0,0-1.722-.19,10.548,10.548,0,0,0-4.151.742,10.271,10.271,0,0,0-1.55.774c-.843.518-1.294.944-1.321.913a1.781,1.781,0,0,1,.305-.31,3.744,3.744,0,0,1,.39-.328,6.256,6.256,0,0,1,.55-.394,9.4,9.4,0,0,1,1.556-.825,10.032,10.032,0,0,1,4.226-.756,9.323,9.323,0,0,1,1.746.237,6.026,6.026,0,0,1,.652.18,3.615,3.615,0,0,1,.48.174,1.83,1.83,0,0,1,.393.185" transform="translate(-35.558 -132.618)" fill="#e0e0e0"/>
            <path id="Trazado_728611" data-name="Trazado 728611" d="M93.321,389.275c-.057-.023.276-.833.4-1.891s0-1.923.06-1.932a5.195,5.195,0,0,1-.457,3.823" transform="translate(-34.847 -143.941)" fill="#fff"/>
            <path id="Trazado_728612" data-name="Trazado 728612" d="M110.26,396.043c.011.021-.174.15-.521.249a2.644,2.644,0,0,1-2.6-.71c-.249-.261-.342-.466-.322-.479s.158.154.419.377a2.937,2.937,0,0,0,2.471.675,3.908,3.908,0,0,1,.552-.112" transform="translate(-39.889 -147.544)" fill="#fff"/>
            <path id="Trazado_728613" data-name="Trazado 728613" d="M99.972,351.588a2.641,2.641,0,0,0-.125,1.9,1.391,1.391,0,0,1,.125-1.9" transform="translate(-37.168 -131.294)" fill="#fff"/>
            <path id="Trazado_728614" data-name="Trazado 728614" d="M11.776,121.09a9.245,9.245,0,0,1,2.259-.982l.466-2.236,3.778-.066.543,2.217a9.261,9.261,0,0,1,2.293.9l1.909-1.252,2.718,2.625-1.184,1.952a9.271,9.271,0,0,1,.982,2.259l2.236.466.066,3.778-2.218.544a9.276,9.276,0,0,1-.9,2.291l1.251,1.91-2.624,2.718L21.4,137.032a9.238,9.238,0,0,1-2.259.981l-.466,2.236-3.777.066-.544-2.218a9.247,9.247,0,0,1-2.292-.9l-1.909,1.252-2.718-2.625,1.184-1.951a9.251,9.251,0,0,1-.982-2.259L5.4,131.146l-.066-3.777,2.218-.544a9.246,9.246,0,0,1,.9-2.292L7.2,122.624l2.624-2.718Zm2.014,5.032a4.053,4.053,0,1,0,5.731-.1,4.053,4.053,0,0,0-5.731.1" transform="translate(-1.991 -43.993)" fill="#ebebeb"/>
            <path id="Trazado_728615" data-name="Trazado 728615" d="M419.492,265.612a8.981,8.981,0,0,1,2.193-.953l.452-2.17,3.667-.065.528,2.153a8.982,8.982,0,0,1,2.225.876l1.854-1.215,2.638,2.548L431.9,268.68a8.979,8.979,0,0,1,.953,2.193l2.17.452.065,3.667-2.153.528a9,9,0,0,1-.876,2.225l1.215,1.853-2.548,2.638-1.895-1.148a9,9,0,0,1-2.193.952l-.452,2.171-3.667.064-.528-2.153a8.981,8.981,0,0,1-2.225-.876l-1.853,1.216-2.639-2.548,1.149-1.894a8.987,8.987,0,0,1-.954-2.194l-2.17-.452-.065-3.667,2.153-.528a8.981,8.981,0,0,1,.876-2.225L415.05,267.1l2.547-2.639Zm1.955,4.885a3.935,3.935,0,1,0,5.563-.1,3.935,3.935,0,0,0-5.563.1" transform="translate(-154.316 -97.998)" fill="#ebebeb"/>
          </g>
        </g>
        <g id="Grupo_1030275" data-name="Grupo 1030275">
          <g id="Grupo_1030274" data-name="Grupo 1030274" clip-path="url(#clip-path)">
            <path id="Trazado_728616" data-name="Trazado 728616" d="M282.666,417.14c0,.09-61.858.163-138.147.163-76.315,0-138.16-.073-138.16-.163s61.845-.163,138.16-.163c76.288,0,138.147.073,138.147.163" transform="translate(-2.375 -155.713)" fill="#263238"/>
          </g>
        </g>
        <g id="Grupo_1030277" data-name="Grupo 1030277">
          <g id="Grupo_1030276" data-name="Grupo 1030276" clip-path="url(#clip-path)">
            <path id="Trazado_728617" data-name="Trazado 728617" d="M204.931,106.975,99.861,116.45c-14,1.263-24.261,14.424-22.91,29.4l5.537,61.4c1.35,14.972,13.8,26.085,27.8,24.822l40.784-3.678a3.717,3.717,0,0,1,3.248,1.45l11.534,14.682a3.644,3.644,0,0,0,6.184-.558l8.721-16.509a3.714,3.714,0,0,1,2.936-2.008l31.663-2.856c14-1.263,24.261-14.424,22.91-29.4l-5.537-61.4c-1.35-14.972-13.8-26.086-27.8-24.823" transform="translate(-28.691 -39.911)" fill="#fff"/>
            <path id="Trazado_728618" data-name="Trazado 728618" d="M204.847,106.966s.453-.028,1.339-.065l.746-.031a5.617,5.617,0,0,1,.9.005c.655.049,1.419.085,2.279.167l1.354.24a11.236,11.236,0,0,1,1.493.316l1.613.465c.566.149,1.113.427,1.706.648a25.718,25.718,0,0,1,7.363,4.639,27.284,27.284,0,0,1,6.455,8.766l.621,1.386c.221.462.347.968.527,1.458.163.5.348.992.5,1.5q.185.778.373,1.571a48.648,48.648,0,0,1,.886,6.7c.845,9.293,1.807,19.873,2.871,31.569q.8,8.773,1.667,18.36.217,2.394.439,4.836.11,1.221.222,2.454l.111,1.236.055,1.251a28.683,28.683,0,0,1-1.291,10.083,27.348,27.348,0,0,1-5.032,9.232,25.464,25.464,0,0,1-8.533,6.687,24.448,24.448,0,0,1-5.27,1.818,11.1,11.1,0,0,1-1.388.242l-1.4.2c-.935.1-1.874.175-2.816.264L201.187,224l-11.74,1.061-5.966.544a3.526,3.526,0,0,0-2.4,1.473,14.251,14.251,0,0,0-.729,1.306l-.711,1.346-5.751,10.892-1.456,2.757a7.262,7.262,0,0,1-.826,1.362,3.952,3.952,0,0,1-1.27,1.009,3.792,3.792,0,0,1-3.182.048,3.885,3.885,0,0,1-1.313-.968c-.367-.409-.663-.828-1-1.241l-7.9-10.051L154.951,231c-.333-.418-.667-.861-1-1.26a3.754,3.754,0,0,0-1.242-.914,3.49,3.49,0,0,0-1.51-.3c-.522.034-1.076.093-1.613.139l-3.253.293L119.9,231.347l-6.675.6a41.014,41.014,0,0,1-6.668.291c-.555-.046-1.112-.066-1.664-.133l-1.64-.3c-.272-.053-.548-.09-.817-.156l-.8-.232-1.593-.469-1.536-.623-.766-.313-.731-.387-1.461-.771-1.376-.907a26.983,26.983,0,0,1-8.622-9.649c-.129-.237-.273-.467-.39-.71l-.33-.739-.659-1.476c-.2-.5-.351-1.016-.528-1.523a15.472,15.472,0,0,1-.481-1.534,36.466,36.466,0,0,1-1.035-6.3c-1.514-16.833-2.976-33.071-4.368-48.539q-.522-5.8-1.029-11.454a28.935,28.935,0,0,1,1.09-11.128,26.556,26.556,0,0,1,13.336-16.122l1.165-.576,1.212-.453c.4-.147.8-.308,1.209-.444l1.242-.319c.414-.1.824-.217,1.237-.311l1.258-.182,1.252-.18,1.247-.113,9.768-.876,18.362-1.645,55.412-4.945,15.067-1.328,3.919-.338c.883-.074,1.336-.1,1.336-.1s-.451.052-1.333.137l-3.916.369-15.061,1.389-55.4,5.048-18.36,1.667-9.767.885-1.247.115-1.238.18-1.244.18c-.409.093-.815.207-1.224.31l-1.228.316c-.4.134-.8.294-1.195.44l-1.2.449-1.151.571A26.284,26.284,0,0,0,78.1,134.986,28.645,28.645,0,0,0,77.029,146q.512,5.651,1.036,11.453l4.387,48.537a36.091,36.091,0,0,0,1.027,6.244,15.137,15.137,0,0,0,.476,1.518c.175.5.328,1.011.523,1.506l.651,1.459.326.731c.116.24.258.467.386.7a26.669,26.669,0,0,0,8.52,9.533l1.358.9,1.442.762.722.382.757.308,1.516.616,1.572.462.788.229c.266.065.538.1.806.154l1.618.291c.544.066,1.094.086,1.641.132a40.715,40.715,0,0,0,6.618-.291l6.675-.6,26.432-2.383,3.253-.293c.546-.046,1.072-.1,1.632-.14a3.807,3.807,0,0,1,1.652.328,4.082,4.082,0,0,1,1.352.994c.36.43.674.851,1.013,1.276l1.994,2.539,7.9,10.053c.328.407.645.85.983,1.225a3.575,3.575,0,0,0,1.207.892,3.478,3.478,0,0,0,2.912-.043,3.632,3.632,0,0,0,1.165-.927,6.971,6.971,0,0,0,.791-1.307l1.457-2.757,5.756-10.89.711-1.345a14.643,14.643,0,0,1,.751-1.341,3.841,3.841,0,0,1,2.612-1.6l5.979-.543L201.16,223.7l11.452-1.029c.94-.089,1.882-.16,2.814-.263l1.383-.2a10.714,10.714,0,0,0,1.371-.238,24.185,24.185,0,0,0,5.209-1.793,25.193,25.193,0,0,0,8.441-6.607,27.086,27.086,0,0,0,4.989-9.135,28.426,28.426,0,0,0,1.287-9.989l-.052-1.239-.11-1.236q-.111-1.233-.221-2.454-.218-2.442-.434-4.836-.858-9.577-1.645-18.361l-2.823-31.574a48.663,48.663,0,0,0-.869-6.677q-.186-.789-.367-1.563c-.148-.508-.331-1-.492-1.495-.179-.487-.3-.991-.521-1.451l-.614-1.38a27.185,27.185,0,0,0-6.4-8.737,25.678,25.678,0,0,0-7.316-4.644c-.59-.223-1.133-.5-1.7-.654l-1.6-.471a11.3,11.3,0,0,0-1.486-.323l-1.35-.247c-.858-.087-1.618-.128-2.272-.183a5.656,5.656,0,0,0-.9-.013l-.744.023c-.885.027-1.34.032-1.34.032" transform="translate(-28.607 -39.903)" fill="#263238"/>
          </g>
        </g>
        <g id="Grupo_1030285" data-name="Grupo 1030285">
          <g id="Grupo_1030284" data-name="Grupo 1030284" clip-path="url(#clip-path)">
            <path id="Trazado_728619" data-name="Trazado 728619" d="M343.352,53.758a21.465,21.465,0,1,1-20.923-21.994,21.465,21.465,0,0,1,20.923,21.994" transform="translate(-112.19 -11.859)" fill="#ff725e"/>
            <g id="Grupo_1030280" data-name="Grupo 1030280" transform="translate(188.238 19.897)" opacity="0.3">
              <g id="Grupo_1030279" data-name="Grupo 1030279">
                <g id="Grupo_1030278" data-name="Grupo 1030278" clip-path="url(#clip-path-7)">
                  <path id="Trazado_728620" data-name="Trazado 728620" d="M343.352,53.758a21.465,21.465,0,1,1-20.923-21.994,21.465,21.465,0,0,1,20.923,21.994" transform="translate(-300.428 -31.756)"/>
                </g>
              </g>
            </g>
            <path id="Trazado_728621" data-name="Trazado 728621" d="M343.447,49.975A21.465,21.465,0,1,1,322.524,27.98a21.465,21.465,0,0,1,20.923,21.995" transform="translate(-112.226 -10.446)" fill="#ffa031"/>
            <path id="Trazado_728622" data-name="Trazado 728622" d="M340.586,54.023A14.378,14.378,0,1,1,326.572,39.29a14.379,14.379,0,0,1,14.014,14.732" transform="translate(-116.45 -14.671)" fill="#fff"/>
            <path id="Trazado_728623" data-name="Trazado 728623" d="M337.622,58.215A7.036,7.036,0,1,1,330.764,51a7.035,7.035,0,0,1,6.858,7.21" transform="translate(-120.825 -19.046)" fill="#ffa031"/>
            <path id="Trazado_728624" data-name="Trazado 728624" d="M359,32.116l-.469-4.593,4.784-4.871.212,4.949Z" transform="translate(-133.887 -8.459)" fill="#455a64"/>
            <path id="Trazado_728625" data-name="Trazado 728625" d="M369.683,32.041l-4.718-.5-4.853,4.44,4.727.625Z" transform="translate(-134.478 -11.777)" fill="#455a64"/>
            <g id="Grupo_1030283" data-name="Grupo 1030283" transform="translate(210.705 24.24)" opacity="0.3">
              <g id="Grupo_1030282" data-name="Grupo 1030282">
                <g id="Grupo_1030281" data-name="Grupo 1030281" clip-path="url(#clip-path-8)">
                  <path id="Trazado_728626" data-name="Trazado 728626" d="M336.286,53.361l16.721-12.117a19.877,19.877,0,0,0-1.991-2.557l-14.7,13.558Z" transform="translate(-336.286 -38.687)"/>
                </g>
              </g>
            </g>
            <path id="Trazado_728627" data-name="Trazado 728627" d="M354.639,29.314l-6.847,6.515L336.93,46.164l-2.5,2.376a.848.848,0,0,0,1.177,1.221l6.847-6.515L353.319,32.91l2.5-2.375a.848.848,0,0,0-1.177-1.221" transform="translate(-124.79 -10.858)" fill="#263238"/>
          </g>
        </g>
        <g id="Grupo_1030296" data-name="Grupo 1030296">
          <g id="Grupo_1030295" data-name="Grupo 1030295" clip-path="url(#clip-path)">
            <g id="Grupo_1030288" data-name="Grupo 1030288" transform="translate(72.857 67.038)" opacity="0.2">
              <g id="Grupo_1030287" data-name="Grupo 1030287">
                <g id="Grupo_1030286" data-name="Grupo 1030286" clip-path="url(#clip-path-10)">
                  <path id="Trazado_728628" data-name="Trazado 728628" d="M232.925,158.9a107.024,107.024,0,0,0-2.763-18.495q-.48-2.043-.957-4.075c-.335-1.348-.717-2.677-1.071-4.009-.692-2.672-1.477-5.289-2.278-7.879-1.539-5.2-3.9-11.5-5.717-16.408-3.19-1.143-7.263-1.311-12.09-.651L172.8,112.467a182.275,182.275,0,0,1-19.412,16.63c-.073-.486-.152-.97-.219-1.459l-30.237,13.773c-5.682,3.546-8.61,10.913-5.2,19.412l3.348,9.259,2.32,4.759c2.692,5.525,8.076,8.313,13.105,7.2l-.312.125.379-.139a10.429,10.429,0,0,0,2.6-.962q.917-.344,1.823-.687l24.852,31.965a4.249,4.249,0,0,0,6.913-.144l8-11.149a4.956,4.956,0,0,0-.865-6.682c-5.185-4.138-14.435-12.075-17.813-18.5a16.851,16.851,0,0,1-1.21-3.488q2.37-.978,4.867-2,2.752-.571,5.644-1.1a116.707,116.707,0,0,1,12.548-1.618,70.2,70.2,0,0,1,13.587.594c9.367,1.157,19.125,3.6,29.43,5.952l.5.087.578-.026a3.639,3.639,0,0,0,1.075-.356c.3-.232.61-.45.885-.707l.712-.886a12.8,12.8,0,0,0,1.632-4.244,35.262,35.262,0,0,0,.593-9.177" transform="translate(-116.28 -106.993)"/>
                </g>
              </g>
            </g>
            <path id="Trazado_728629" data-name="Trazado 728629" d="M138.112,121.843s12.651-4.812,32.293-21.432a193.606,193.606,0,0,0,30.123-32.9,6.858,6.858,0,0,1,9.789-1.582c4.808,3.687,11.741,13.285,20.264,38.286,15.024,44.081,6.961,53.191,3.3,52.754s-28.036-7.051-43.759-6.7-39.29,6.8-39.29,6.8Z" transform="translate(-51.576 -24.099)" fill="#e0e0e0"/>
            <path id="Trazado_728630" data-name="Trazado 728630" d="M138.112,121.755s.083.208.231.61l.657,1.786,2.523,6.913,9.4,25.883-.126-.066c6.884-1.826,14.746-3.66,23.48-5.137a124.609,124.609,0,0,1,13.761-1.611,84.46,84.46,0,0,1,14.9.724c5.1.641,10.32,1.57,15.647,2.64,2.664.535,5.354,1.115,8.072,1.716l4.1.9c.687.153,1.377.293,2.068.431.346.069.691.117,1.037.176a2.3,2.3,0,0,0,.982-.107,3.789,3.789,0,0,0,1.652-1.175,8.5,8.5,0,0,0,1.117-1.778,16.445,16.445,0,0,0,1.179-4.11,39.533,39.533,0,0,0,.268-8.726,105.322,105.322,0,0,0-3-17.7c-1.3-5.3-2.851-10.471-4.5-15.525s-3.412-9.991-5.309-14.774A137.535,137.535,0,0,0,220,79.04a71.03,71.03,0,0,0-3.758-6.3,33.1,33.1,0,0,0-4.542-5.507c-.419-.414-.869-.787-1.322-1.154-.221-.192-.469-.333-.7-.5-.251-.138-.5-.288-.758-.4a6.472,6.472,0,0,0-3.319-.551,6.7,6.7,0,0,0-3.129,1.128l-.344.236-.319.268a6.191,6.191,0,0,0-.6.575,14.678,14.678,0,0,0-1.029,1.315c-2.653,3.62-5.351,7.042-8.056,10.269a190.739,190.739,0,0,1-16.071,17.031,178.721,178.721,0,0,1-26.922,20.556c-3.422,2.082-6.177,3.533-8.074,4.45-.947.464-1.684.786-2.181,1s-.76.3-.76.3l.747-.33c.492-.222,1.224-.553,2.165-1.026,1.886-.936,4.628-2.4,8.036-4.5s7.472-4.835,12.012-8.254c1.13-.861,2.31-1.738,3.491-2.693s2.419-1.911,3.65-2.951c2.5-2.034,5.055-4.288,7.678-6.719a191.441,191.441,0,0,0,16.02-17.036c2.7-3.227,5.388-6.648,8.033-10.265a14.959,14.959,0,0,1,1.048-1.341,6.621,6.621,0,0,1,.623-.6l.333-.279.357-.247a7,7,0,0,1,3.263-1.179,6.766,6.766,0,0,1,3.47.573c.273.119.531.274.792.419.241.174.506.327.729.521.462.372.919.752,1.344,1.17a33.427,33.427,0,0,1,4.59,5.553,71.308,71.308,0,0,1,3.779,6.321,137.749,137.749,0,0,1,6.281,13.813c1.9,4.791,3.665,9.732,5.32,14.791s3.207,10.236,4.505,15.548a105.483,105.483,0,0,1,3.005,17.759,39.778,39.778,0,0,1-.273,8.8A16.766,16.766,0,0,1,237.9,153.8a8.8,8.8,0,0,1-1.166,1.852,4.1,4.1,0,0,1-1.794,1.269,2.61,2.61,0,0,1-1.118.12c-.353-.06-.711-.11-1.058-.18-.7-.14-1.388-.28-2.076-.434l-4.1-.9c-2.717-.6-5.4-1.184-8.065-1.721-5.322-1.073-10.533-2-15.623-2.649a84.356,84.356,0,0,0-14.848-.739A124.53,124.53,0,0,0,174.321,152c-8.724,1.461-16.588,3.278-23.467,5.085l-.094.024-.033-.09-9.316-25.98-2.466-6.909-.63-1.776c-.14-.4-.2-.6-.2-.6" transform="translate(-51.576 -24.011)" fill="#263238"/>
            <g id="Grupo_1030291" data-name="Grupo 1030291" transform="translate(150.55 43.288)" opacity="0.3">
              <g id="Grupo_1030290" data-name="Grupo 1030290">
                <g id="Grupo_1030289" data-name="Grupo 1030289" clip-path="url(#clip-path-11)">
                  <path id="Trazado_728631" data-name="Trazado 728631" d="M266.074,108.517c7.848,23.514,10.187,44.041,5.226,45.848s-15.345-15.789-23.193-39.3-10.187-44.041-5.226-45.848,15.345,15.788,23.193,39.3" transform="translate(-240.278 -69.087)"/>
                </g>
              </g>
            </g>
            <path id="Trazado_728632" data-name="Trazado 728632" d="M246.175,119.683s11.8-6.231,16.645,10.323-7.168,18.028-7.168,18.028a111.357,111.357,0,0,1-9.477-28.351" transform="translate(-91.93 -44.264)" fill="#fff"/>
            <path id="Trazado_728633" data-name="Trazado 728633" d="M118.967,180.105l4.858,16.945a4.738,4.738,0,0,0,4.962,3.414,4.736,4.736,0,0,1,4.049,1.69l27.851,33.473a4.737,4.737,0,0,0,7.4-.144l8.563-11.149a4.733,4.733,0,0,0-.925-6.682c-6.291-4.692-18.179-14.267-20.155-20.992-1.258-4.281-1.1-6.379-.568-7.4a4.976,4.976,0,0,0,.283-4.275l-4.3-10.045a4.737,4.737,0,0,0-4.762-2.855l-23.106,1.994a4.737,4.737,0,0,0-4.147,6.025" transform="translate(-44.357 -64.256)" fill="#ffa031"/>
            <g id="Grupo_1030294" data-name="Grupo 1030294" transform="translate(88.565 131.123)" opacity="0.3">
              <g id="Grupo_1030293" data-name="Grupo 1030293">
                <g id="Grupo_1030292" data-name="Grupo 1030292" clip-path="url(#clip-path-12)">
                  <path id="Trazado_728634" data-name="Trazado 728634" d="M141.35,216.151l5.172,6.215,18.581-9.3s-1.435-2.92-1.316-3.8Z" transform="translate(-141.35 -209.273)"/>
                </g>
              </g>
            </g>
            <path id="Trazado_728635" data-name="Trazado 728635" d="M102.555,171.51l3.582,9.259,2.484,4.759c3.4,6.528,10.831,9.258,16.9,6.212l31.949-12.031c-9.557-11.915-14.7-25.958-16.987-41.383L108.122,152.1c-6.081,3.546-9.214,10.913-5.567,19.412" transform="translate(-37.716 -51.655)" fill="#ffa031"/>
            <path id="Trazado_728636" data-name="Trazado 728636" d="M143.489,161.722c.1.226-5.787,3.008-13.139,6.213s-13.393,5.623-13.489,5.4,5.786-3.006,13.14-6.213,13.392-5.622,13.488-5.4" transform="translate(-43.639 -60.387)" fill="#263238"/>
            <path id="Trazado_728637" data-name="Trazado 728637" d="M146.679,169.393c.1.226-5.787,3.007-13.139,6.212s-13.393,5.623-13.489,5.4,5.786-3.006,13.14-6.212,13.392-5.622,13.488-5.4" transform="translate(-44.83 -63.252)" fill="#263238"/>
            <path id="Trazado_728638" data-name="Trazado 728638" d="M149.87,177.063c.1.225-5.787,3.008-13.14,6.212s-13.393,5.623-13.489,5.4,5.786-3.006,13.14-6.213,13.392-5.622,13.488-5.4" transform="translate(-46.022 -66.116)" fill="#263238"/>
            <path id="Trazado_728639" data-name="Trazado 728639" d="M153.059,184.734c.1.226-5.787,3.008-13.14,6.213s-13.392,5.623-13.489,5.4,5.786-3.006,13.141-6.213,13.392-5.622,13.488-5.4" transform="translate(-47.213 -68.981)" fill="#263238"/>
            <path id="Trazado_728640" data-name="Trazado 728640" d="M170.173,204.372a1.685,1.685,0,0,1-.345.167l-1.011.417-3.739,1.484c-3.16,1.242-7.527,2.958-12.368,4.808s-9.253,3.459-12.466,4.565c-1.605.555-2.909.992-3.814,1.28l-1.044.326a1.664,1.664,0,0,1-.372.093,1.715,1.715,0,0,1,.35-.155l1.024-.384,3.778-1.377c3.19-1.162,7.585-2.8,12.426-4.654l12.4-4.719,3.776-1.388,1.033-.36a1.67,1.67,0,0,1,.368-.1" transform="translate(-50.419 -76.319)" fill="#263238"/>
            <path id="Trazado_728641" data-name="Trazado 728641" d="M265.57,158.949a.83.83,0,0,1-.116-.155l-.313-.474-1.176-1.838c-1-1.607-2.425-3.953-4.084-6.909a164.319,164.319,0,0,1-11.029-24.055c-1.764-4.865-3.192-9.59-4.3-13.933-.293-1.082-.539-2.147-.779-3.182s-.466-2.039-.689-3.01c-.435-1.943-.849-3.753-1.2-5.41-.706-3.316-1.146-6.028-1.359-7.912-.113-.941-.177-1.675-.211-2.172-.015-.234-.026-.421-.035-.567a.857.857,0,0,1,0-.194.88.88,0,0,1,.034.191c.017.145.039.33.067.563.055.495.14,1.226.272,2.162.251,1.876.725,4.575,1.459,7.879l1.237,5.4.7,3c.244,1.031.494,2.093.79,3.172,1.125,4.33,2.559,9.041,4.32,13.9a172.813,172.813,0,0,0,10.924,24.055c1.63,2.967,3.021,5.328,3.991,6.955l1.123,1.87.286.491a.845.845,0,0,1,.088.173" transform="translate(-89.726 -33.287)" fill="#263238"/>
          </g>
        </g>
        <g id="Grupo_1030298" data-name="Grupo 1030298">
          <g id="Grupo_1030297" data-name="Grupo 1030297" clip-path="url(#clip-path)">
            <path id="Trazado_728645" data-name="Trazado 728645" d="M182.261,48.972A1.071,1.071,0,1,1,181.19,47.9a1.071,1.071,0,0,1,1.071,1.071" transform="translate(-67.263 -17.888)" fill="#fff"/>
          </g>
        </g>
        <g id="Grupo_1030303" data-name="Grupo 1030303">
          <g id="Grupo_1030302" data-name="Grupo 1030302" clip-path="url(#clip-path-14)">
            <g id="Grupo_1030301" data-name="Grupo 1030301" transform="translate(162.409 153.889)" opacity="0.1">
              <g id="Grupo_1030300" data-name="Grupo 1030300">
                <g id="Grupo_1030299" data-name="Grupo 1030299" clip-path="url(#clip-path-15)">
                  <path id="Trazado_728646" data-name="Trazado 728646" d="M263.347,257.274l-3.933-8.5a2.228,2.228,0,0,1,2.223-3.154l9.331.846,9.331.846a2.227,2.227,0,0,1,1.62,3.5l-5.4,7.658-5.4,7.658a2.227,2.227,0,0,1-3.842-.348Z" transform="translate(-259.205 -245.607)" fill="#12263f"/>
                </g>
              </g>
            </g>
            <path id="Trazado_728647" data-name="Trazado 728647" d="M255.517,249.445l-3.933-8.5a2.228,2.228,0,0,1,2.223-3.154l9.331.846,9.331.846a2.227,2.227,0,0,1,1.62,3.5l-5.4,7.658-5.4,7.658a2.227,2.227,0,0,1-3.842-.348Z" transform="translate(-93.872 -88.794)" fill="#12263f"/>
          </g>
        </g>
        <g id="Grupo_1030305" data-name="Grupo 1030305">
          <g id="Grupo_1030304" data-name="Grupo 1030304" clip-path="url(#clip-path)">
            <path id="Trazado_728648" data-name="Trazado 728648" d="M38.093,224.126,1.532,214.764a2.037,2.037,0,0,1-1.468-2.479l6.558-25.607A2.038,2.038,0,0,1,9.1,185.21l36.561,9.363a2.037,2.037,0,0,1,1.468,2.479l-6.558,25.607a2.037,2.037,0,0,1-2.479,1.468" transform="translate(0 -69.14)" fill="#ffa031"/>
            <path id="Trazado_728649" data-name="Trazado 728649" d="M49.8,199.939a2.7,2.7,0,0,1-.429.223l-1.257.581-4.645,2.082-6.907,3.049-4.083,1.79-2.162.944A3.921,3.921,0,0,1,25.73,207.5l-1.442-1.873-2.707-3.543-4.569-6.011L13.953,192l-.818-1.117a2.688,2.688,0,0,1-.268-.4,2.677,2.677,0,0,1,.32.363l.867,1.079,3.14,4.007,4.625,5.968,2.722,3.531,1.439,1.862a3.593,3.593,0,0,0,1.934,1.212c1.581.451,3.009-.594,4.437-1.133l4.09-1.773,6.935-2.985,4.687-1.986,1.281-.525a2.692,2.692,0,0,1,.456-.163" transform="translate(-4.805 -71.132)" fill="#263238"/>
            <path id="Trazado_728650" data-name="Trazado 728650" d="M20.748,212.719c.044.079-3.372,2.073-7.628,4.455s-7.744,4.249-7.788,4.17,3.371-2.073,7.629-4.456,7.743-4.248,7.787-4.17" transform="translate(-1.991 -79.435)" fill="#263238"/>
            <path id="Trazado_728651" data-name="Trazado 728651" d="M45.935,216.818c.079-.044,2.073,3.372,4.455,7.628s4.249,7.744,4.17,7.788-2.073-3.371-4.456-7.629-4.248-7.743-4.17-7.787" transform="translate(-17.153 -80.967)" fill="#263238"/>
          </g>
        </g>
        <path id="Trazado_728652" data-name="Trazado 728652" d="M402.736,216.88,426.487,181.5l-43.7,1.232,6.88,11.625-1.88,8.273,7.767,2.148Z" transform="translate(-142.944 -67.778)" fill="#fff"/>
        <g id="Grupo_1030310" data-name="Grupo 1030310">
          <g id="Grupo_1030309" data-name="Grupo 1030309" clip-path="url(#clip-path)">
            <g id="Grupo_1030308" data-name="Grupo 1030308" transform="translate(244.838 113.721)" opacity="0.3">
              <g id="Grupo_1030307" data-name="Grupo 1030307">
                <g id="Grupo_1030306" data-name="Grupo 1030306" clip-path="url(#clip-path-18)">
                  <path id="Trazado_728653" data-name="Trazado 728653" d="M392.642,194.356,429.466,181.5l-30.938,23.279-7.767-2.149Z" transform="translate(-390.761 -181.498)"/>
                </g>
              </g>
            </g>
          </g>
        </g>
        <line id="Línea_2748" data-name="Línea 2748" x1="38.705" y2="21.131" transform="translate(244.838 113.721)"/>
        <g id="Grupo_1030318" data-name="Grupo 1030318">
          <g id="Grupo_1030317" data-name="Grupo 1030317" clip-path="url(#clip-path)">
            <path id="Trazado_728654" data-name="Trazado 728654" d="M390.761,202.628c-.043-.079,8.587-4.874,19.273-10.708s19.388-10.5,19.432-10.423-8.585,4.873-19.275,10.709-19.387,10.5-19.43,10.422" transform="translate(-145.923 -67.777)" fill="#263238"/>
            <path id="Trazado_728655" data-name="Trazado 728655" d="M399.65,204.741a.919.919,0,0,1,.148-.133l.455-.364,1.769-1.374,6.545-5.006,21.68-16.43.152.284-.13.045-25.793,8.943-7.828,2.675-2.133.712-.558.177a.857.857,0,0,1-.194.05.955.955,0,0,1,.182-.081l.547-.207,2.114-.77,7.794-2.773,25.761-9.033.13-.045a.163.163,0,0,1,.152.284l-21.737,16.353-6.607,4.924-1.806,1.325-.474.338a.913.913,0,0,1-.169.107" transform="translate(-147.044 -67.741)" fill="#263238"/>
            <path id="Trazado_728656" data-name="Trazado 728656" d="M402.578,216.784c0,.005-.042-.061-.124-.193l-.365-.6-1.422-2.35-5.363-8.911.06.045-7.773-2.127-.113-.031.026-.114,1.865-8.276.016.1-6.894-11.617-.133-.226.263-.008,21.092-.6,22.612-.628.3-.008-.167.246-17.189,25.458-4.929,7.271-1.309,1.922-.336.489a1.893,1.893,0,0,1-.114.157s.039-.066.115-.183l.336-.514,1.3-1.971,4.888-7.353,16.98-25.445.132.238-22.612.648-21.093.586.128-.232c2.45,4.151,4.77,8.081,6.866,11.633l.028.048-.012.053c-.677,2.954-1.317,5.743-1.9,8.269l-.086-.145,7.761,2.169.04.011.021.034,5.219,8.91,1.4,2.4.361.625c.081.142.123.221.123.221" transform="translate(-142.785 -67.682)" fill="#263238"/>
            <path id="Trazado_728657" data-name="Trazado 728657" d="M63.274,128.537,26.845,74.266l67.036,1.891L83.328,93.988l2.885,12.689-11.914,3.3Z" transform="translate(-10.025 -27.733)" fill="#fff"/>
            <g id="Grupo_1030313" data-name="Grupo 1030313" transform="translate(16.82 46.533)" opacity="0.3">
              <g id="Grupo_1030312" data-name="Grupo 1030312">
                <g id="Grupo_1030311" data-name="Grupo 1030311" clip-path="url(#clip-path-20)">
                  <path id="Trazado_728658" data-name="Trazado 728658" d="M83.328,93.988,26.845,74.266,74.3,109.973l11.914-3.3Z" transform="translate(-26.845 -74.266)"/>
                </g>
              </g>
            </g>
            <line id="Línea_2749" data-name="Línea 2749" x2="59.368" y2="32.412" transform="translate(16.82 46.533)"/>
            <path id="Trazado_728659" data-name="Trazado 728659" d="M86.212,106.677c-.043.079-13.369-7.113-29.761-16.061S26.8,74.345,26.844,74.266,40.21,81.377,56.608,90.329s29.647,16.269,29.6,16.348" transform="translate(-10.024 -27.733)" fill="#263238"/>
            <path id="Trazado_728660" data-name="Trazado 728660" d="M74.423,109.969s-.089-.053-.253-.17l-.722-.525-2.761-2.046L60.569,99.653l-33.326-25.1a.163.163,0,0,1,.152-.284l.2.07L67.116,88.166,79.08,92.393l3.247,1.165.841.31c.189.072.283.117.283.117s-.1-.023-.294-.085l-.852-.28-3.268-1.107-12-4.128L27.487,74.643l-.2-.07.152-.284,33.269,25.18,10.055,7.657,2.724,2.095.7.551c.157.126.233.2.233.2" transform="translate(-10.149 -27.73)" fill="#263238"/>
            <path id="Trazado_728661" data-name="Trazado 728661" d="M63.1,128.441s.063-.117.187-.332l.556-.952c.492-.84,1.213-2.07,2.149-3.665l8.044-13.667.021-.035.039-.011,11.909-3.316-.086.145c-.886-3.875-1.864-8.153-2.9-12.685l-.013-.053.028-.048c3.218-5.446,6.778-11.474,10.539-17.84l.128.232-32.353-.9-34.682-.988.132-.239,26.1,39.033,7.509,11.257,2,3.011c.225.339.4.6.516.782s.176.274.176.274-.059-.079-.175-.247l-.516-.757c-.461-.68-1.133-1.674-2.006-2.961L52.853,113.3c-6.474-9.608-15.616-23.176-26.31-39.045l-.166-.247.3.008,34.682.968,32.353.922.262.008-.133.225L83.272,93.963l.016-.1c1.024,4.534,1.992,8.815,2.868,12.692l.026.114-.112.031-11.919,3.274.059-.046c-3.5,5.843-6.278,10.482-8.189,13.669l-2.174,3.616-.559.924c-.125.206-.189.3-.189.3" transform="translate(-9.85 -27.637)" fill="#263238"/>
            <path id="Trazado_728662" data-name="Trazado 728662" d="M37.6,276.9,6.778,318.032l52.716,1.247-7.56-14.432L54.716,295,45.5,291.928Z" transform="translate(-2.531 -103.404)" fill="#fff"/>
            <g id="Grupo_1030316" data-name="Grupo 1030316" transform="translate(4.247 188.524)" opacity="0.3">
              <g id="Grupo_1030315" data-name="Grupo 1030315">
                <g id="Grupo_1030314" data-name="Grupo 1030314" clip-path="url(#clip-path-21)">
                  <path id="Trazado_728663" data-name="Trazado 728663" d="M51.934,313.8,6.778,326.988l38.718-26.1,9.221,3.073Z" transform="translate(-6.778 -300.884)"/>
                </g>
              </g>
            </g>
            <line id="Línea_2750" data-name="Línea 2750" y1="23.031" x2="47.939" transform="translate(4.247 191.596)"/>
            <path id="Trazado_728664" data-name="Trazado 728664" d="M54.717,305.787c.039.081-10.662,5.3-23.9,11.662s-24,11.451-24.041,11.369,10.659-5.3,23.9-11.664,24-11.449,24.039-11.368" transform="translate(-2.531 -114.191)" fill="#263238"/>
            <path id="Trazado_728665" data-name="Trazado 728665" d="M45.576,300.884a1.347,1.347,0,0,1-.189.148l-.573.407-2.221,1.539-8.2,5.612L7.247,327.015l-.137-.292.159-.046,31.622-9.169,9.593-2.742,2.613-.73.682-.182a1.354,1.354,0,0,1,.235-.051,1.231,1.231,0,0,1-.226.083l-.673.213-2.6.789-9.564,2.841L7.361,326.99l-.16.046a.163.163,0,0,1-.137-.292l27.2-18.345,8.26-5.526,2.254-1.489.591-.38a1.29,1.29,0,0,1,.207-.12" transform="translate(-2.611 -112.36)" fill="#263238"/>
            <path id="Trazado_728666" data-name="Trazado 728666" d="M37.416,276.9s.046.078.137.243l.4.746,1.563,2.923,5.888,11.068-.058-.049,9.228,3.053.11.037-.031.112c-.845,3.009-1.779,6.331-2.767,9.851l-.011-.1,7.574,14.424.122.232-.263-.006-25.442-.593-27.274-.655-.3-.007.179-.237,22.273-29.588,6.387-8.458,1.7-2.238.436-.57c.1-.127.147-.185.147-.185s-.051.075-.149.211l-.437.6-1.695,2.288-6.351,8.543L6.721,318.123l-.118-.244,27.274.635,25.442.61-.14.226-7.545-14.44-.026-.049.015-.053,2.8-9.842.078.149-9.214-3.093-.039-.013-.019-.036c-2.454-4.724-4.4-8.476-5.744-11.059-.667-1.289-1.182-2.285-1.536-2.97l-.4-.773c-.089-.175-.134-.271-.134-.271" transform="translate(-2.352 -103.404)" fill="#263238"/>
          </g>
        </g>
        <g id="Grupo_1030320" data-name="Grupo 1030320">
          <g id="Grupo_1030319" data-name="Grupo 1030319" clip-path="url(#clip-path)">
            <path id="Trazado_728667" data-name="Trazado 728667" d="M267.072,314.359l-3.875.167-13.952,30.286-22.066,11,1.051,11.359s27.168-5.011,33.94-8.8,15.409-28.423,15.409-28.423c.044.175-9.179-15.586-9.179-15.586" transform="translate(-84.836 -117.392)" fill="#ffc09d"/>
            <path id="Trazado_728668" data-name="Trazado 728668" d="M215.543,356.467l-2.828-2.973a3.2,3.2,0,0,0-1.83-.508l-8.962.273a5.612,5.612,0,0,0-4.146,2.511l-3.259,5.546s-2.19,3.794-1.911,4.717a1.639,1.639,0,0,0,1.89,1.108s.31,1.754.9,2.11a2.748,2.748,0,0,0,2.177.14,1.849,1.849,0,0,0,1.764,1.068,2.157,2.157,0,0,0,.466-.086c1.064-.322,1.543-2.382,1.543-2.382l4.544-.841s6.526,4.363,8.826,7.222,8.325.674,8.325.674l2.254-10.777Z" transform="translate(-71.917 -131.816)" fill="#ffc09d"/>
            <path id="Trazado_728669" data-name="Trazado 728669" d="M210.091,360.569a7.132,7.132,0,0,1-1.96.326c-1.236.137-2.984.187-4.952.442l.212-.157a18.867,18.867,0,0,1-1.164,2.146,23.951,23.951,0,0,1-4.308,5.1,8.238,8.238,0,0,1-2.248,1.607c-.051-.071.783-.708,1.975-1.9a29.54,29.54,0,0,0,4.1-5.105,21.1,21.1,0,0,0,1.147-2.075l.067-.14.146-.016c2.023-.228,3.765-.2,5-.247a9.659,9.659,0,0,1,1.981.02" transform="translate(-73.07 -134.632)" fill="#ff9b6c"/>
            <path id="Trazado_728670" data-name="Trazado 728670" d="M212.042,367.243a4.332,4.332,0,0,1-1.689.45,12.879,12.879,0,0,1-4.383-.153l.319-.181a14.641,14.641,0,0,1-.655,1.625,13.679,13.679,0,0,1-3.368,4.425,5.682,5.682,0,0,1-1.924,1.262c-.05-.075.665-.577,1.653-1.555a15.848,15.848,0,0,0,3.13-4.376,16.424,16.424,0,0,0,.642-1.558l.084-.234.236.053a21.894,21.894,0,0,0,5.956.242" transform="translate(-74.813 -137.031)" fill="#ff9b6c"/>
            <path id="Trazado_728671" data-name="Trazado 728671" d="M225.212,368.118l-7.992-3.716a6.279,6.279,0,0,0-7.184.194l-4.3,2.226a1.033,1.033,0,0,0-.57.515.966.966,0,0,0,.37.907,6.332,6.332,0,0,0,8.327.34,17.187,17.187,0,0,0,2.7,5.323,5.833,5.833,0,0,0,5.267,2.245" transform="translate(-76.605 -135.694)" fill="#ffc09d"/>
            <path id="Trazado_728672" data-name="Trazado 728672" d="M221.658,376c0,.013-.07.037-.215.07a3.121,3.121,0,0,1-.651.074,5.089,5.089,0,0,1-2.407-.584,7.52,7.52,0,0,1-2.833-2.582,20.856,20.856,0,0,1-2.093-4.459l.4.1a6.367,6.367,0,0,1-4.654,1.456,6.757,6.757,0,0,1-2.595-.726,6.221,6.221,0,0,1-1.154-.8,3.417,3.417,0,0,1-.516-.528,1.056,1.056,0,0,1-.227-.87,1.011,1.011,0,0,1,.477-.6c.19-.118.354-.191.521-.281l1-.515,1.95-1a17.529,17.529,0,0,1,3.853-1.679,5.907,5.907,0,0,1,3.793.575c1.081.492,2.055.973,2.96,1.4l4.254,2.077a10.216,10.216,0,0,1,1.527.831,10.323,10.323,0,0,1-1.62-.632l-4.33-1.914-2.976-1.335a5.467,5.467,0,0,0-3.495-.5,17.592,17.592,0,0,0-3.711,1.663l-1.945,1.012-1,.517c-.34.173-.694.342-.71.513-.068.207.24.575.569.839a5.656,5.656,0,0,0,1.042.726,6.245,6.245,0,0,0,2.375.675,5.894,5.894,0,0,0,4.284-1.289l.278-.238.122.342a21.381,21.381,0,0,0,1.968,4.4,7.416,7.416,0,0,0,2.625,2.548,5.754,5.754,0,0,0,3.134.7" transform="translate(-76.438 -135.542)" fill="#ff9b6c"/>
            <path id="Trazado_728673" data-name="Trazado 728673" d="M395.044,185.255c.486-6.08,1.856-12.08,2.036-18.176s-.991-12.539-4.938-17.189-11.2-6.815-16.4-3.632l-1.37,5.11c.362,23.6-1.523,47.422-1.161,71.017.048,3.1,2.36,6.06,3.574,8.912s3.873,5.318,6.973,5.339c4.056.026,6.984-3.889,8.5-7.651,5.5-13.636,1.618-29.072,2.789-43.729" transform="translate(-139.351 -54.055)" fill="#12263f"/>
            <path id="Trazado_728674" data-name="Trazado 728674" d="M382.438,153.668a17,17,0,0,0-2.809-4.4,5.814,5.814,0,0,0-4.682-1.925,2.409,2.409,0,0,0-1.992,1.258,1.305,1.305,0,0,0,1.008,1.82l.164.161q2.569,2.6,5.239,5.1a4.764,4.764,0,0,0,1.487,1.065,1.653,1.653,0,0,0,1.726-.246c.722-.712.311-1.925-.142-2.832" transform="translate(-139.237 -55.01)" fill="#ffa031"/>
            <path id="Trazado_728675" data-name="Trazado 728675" d="M362.034,159.277c-5.561-7.823-13.415-12.643-22.98-13.452-5.4-.456-7.707.515-11.669,1.3a17.09,17.09,0,0,0-10.158,5.771c-3.022,3.726-5.635,7.95-6.479,12.672a41.167,41.167,0,0,0-.156,13.661A54.21,54.21,0,0,0,316.8,195.8l8.223,1.57c6.873.7,13.842,1.4,20.66.286s13.585-4.284,17.578-9.922c5.548-7.833,4.335-20.638-1.227-28.462" transform="translate(-115.8 -54.412)" fill="#12263f"/>
            <path id="Trazado_728676" data-name="Trazado 728676" d="M351.959,161.419l-16.181-7.739-4.378.21c-9.777-.629-17.251,9.694-17.852,17.607-.668,8.791-1.137,19.55-.179,26.128,1.925,13.227,12.977,15.067,12.977,15.067s-.7,6.932-1.08,11.3l25.584-.11,5.2-57.7a4.643,4.643,0,0,0-4.093-4.763" transform="translate(-116.819 -57.389)" fill="#ffc09d"/>
            <path id="Trazado_728677" data-name="Trazado 728677" d="M341.675,219.517a2.783,2.783,0,0,0-.843-1.777,2.843,2.843,0,0,0-3.427-.43,3.809,3.809,0,0,0-1.685,3.468,3.461,3.461,0,0,0,2.374,1.6,4.243,4.243,0,0,0,.463.046,3.11,3.11,0,0,0,2.146-.685,2.771,2.771,0,0,0,.972-2.224" transform="translate(-125.365 -81.006)" fill="#ff9b6c"/>
            <path id="Trazado_728678" data-name="Trazado 728678" d="M318.374,200.4a1.693,1.693,0,0,0,1.61,1.729,1.62,1.62,0,0,0,1.765-1.5,1.694,1.694,0,0,0-1.608-1.73,1.62,1.62,0,0,0-1.767,1.5" transform="translate(-118.891 -74.272)" fill="#263238"/>
            <path id="Trazado_728679" data-name="Trazado 728679" d="M318.243,188.421c.207.224,1.5-.709,3.324-.68,1.82,0,3.145.957,3.345.736.1-.1-.111-.5-.687-.93a4.65,4.65,0,0,0-2.675-.862,4.464,4.464,0,0,0-2.649.817c-.565.423-.761.82-.659.92" transform="translate(-118.833 -69.714)" fill="#263238"/>
            <path id="Trazado_728680" data-name="Trazado 728680" d="M332.575,204.4a12.1,12.1,0,0,0-2.952-.572c-.464-.055-.9-.152-.977-.471a2.366,2.366,0,0,1,.328-1.375q.678-1.68,1.422-3.524c1.974-5.018,3.412-9.147,3.209-9.225s-1.969,3.927-3.944,8.945c-.476,1.238-.93,2.417-1.364,3.546a2.7,2.7,0,0,0-.265,1.823,1.17,1.17,0,0,0,.756.69,3.173,3.173,0,0,0,.789.12,11.878,11.878,0,0,0,3,.043" transform="translate(-122.467 -70.664)" fill="#263238"/>
            <path id="Trazado_728681" data-name="Trazado 728681" d="M334.2,245.163a33.584,33.584,0,0,0,17.739-4.487s-4.828,9.088-18.023,7.682Z" transform="translate(-124.696 -89.877)" fill="#ff9b6c"/>
            <path id="Trazado_728682" data-name="Trazado 728682" d="M340.363,215.558c-.3-.021-.326,1.956-2.036,3.338s-3.813,1.137-3.831,1.413c-.029.124.464.39,1.353.426a4.924,4.924,0,0,0,3.2-1.068,4.289,4.289,0,0,0,1.581-2.8c.086-.826-.128-1.319-.263-1.309" transform="translate(-124.911 -80.497)" fill="#263238"/>
            <path id="Trazado_728683" data-name="Trazado 728683" d="M319.912,178.463c.3.449,1.7.169,3.327.326,1.633.1,2.973.6,3.336.207.162-.194-.011-.629-.57-1.084a5.18,5.18,0,0,0-5.369-.43c-.62.36-.855.763-.725.981" transform="translate(-119.453 -66.07)" fill="#263238"/>
            <path id="Trazado_728684" data-name="Trazado 728684" d="M346.025,201.115a1.692,1.692,0,0,1-1.716,1.623,1.619,1.619,0,0,1-1.667-1.612,1.694,1.694,0,0,1,1.715-1.625,1.62,1.62,0,0,1,1.668,1.613" transform="translate(-127.954 -74.501)" fill="#263238"/>
            <path id="Trazado_728685" data-name="Trazado 728685" d="M353.554,189.834c-.22.21-1.454-.8-3.274-.89-1.816-.113-3.2.756-3.385.523-.092-.1.142-.491.744-.885a4.652,4.652,0,0,1,2.724-.692,4.467,4.467,0,0,1,2.592.983c.538.458.707.866.6.96" transform="translate(-129.535 -70.162)" fill="#263238"/>
            <path id="Trazado_728686" data-name="Trazado 728686" d="M352.3,180.363c-.379.395-1.761-.1-3.448-.21-1.684-.158-3.132.12-3.439-.328-.134-.217.112-.62.756-.979a5.217,5.217,0,0,1,2.839-.536,5.148,5.148,0,0,1,2.71.969c.575.455.749.89.581,1.084" transform="translate(-128.975 -66.58)" fill="#263238"/>
            <path id="Trazado_728687" data-name="Trazado 728687" d="M375.813,206.555c.015-.983,1.181-3.286,2.154-3.425,2.6-.37,7.268-.1,7.226,6.482-.058,9-9.082,7.086-9.1,6.828-.011-.2-.336-6.492-.284-9.886" transform="translate(-140.339 -75.816)" fill="#ffc09d"/>
            <path id="Trazado_728688" data-name="Trazado 728688" d="M380.261,214.976c.039-.029.156.111.42.234a1.57,1.57,0,0,0,1.173.032c.953-.343,1.763-1.848,1.816-3.47a5.17,5.17,0,0,0-.424-2.248,1.811,1.811,0,0,0-1.172-1.211.8.8,0,0,0-.929.424c-.122.251-.066.431-.113.446-.026.023-.192-.152-.118-.523a1,1,0,0,1,.358-.563,1.188,1.188,0,0,1,.868-.224,2.207,2.207,0,0,1,1.629,1.407,5.324,5.324,0,0,1,.527,2.512c-.069,1.813-1.008,3.5-2.312,3.873a1.681,1.681,0,0,1-1.432-.248c-.278-.223-.323-.425-.292-.441" transform="translate(-141.999 -77.624)" fill="#ff9b6c"/>
            <path id="Trazado_728689" data-name="Trazado 728689" d="M362.96,183.909l-2.438,2.207c-9.2-10.08-26.815-34.954-25.837-33.477a28.7,28.7,0,0,1,14.153-.571c7.228,1.742,20.85,6.343,20.051,14.954s-5.929,16.887-5.929,16.887" transform="translate(-124.968 -56.545)" fill="#12263f"/>
            <path id="Trazado_728690" data-name="Trazado 728690" d="M377.174,182.376a2.336,2.336,0,0,0-.1-.528,9.122,9.122,0,0,0-.515-1.455,13.081,13.081,0,0,0-3.46-4.469,24.557,24.557,0,0,0-7.3-4.139c-2.932-1.18-6.261-2.168-9.481-3.818a44.027,44.027,0,0,1-8.519-5.561,46.016,46.016,0,0,1-5.88-5.888,49.034,49.034,0,0,1-3.323-4.534l-.815-1.3a2.4,2.4,0,0,0-.309-.44,2.331,2.331,0,0,0,.229.486c.167.309.4.772.743,1.345a41.287,41.287,0,0,0,3.224,4.646,43.9,43.9,0,0,0,5.859,6.008,43.139,43.139,0,0,0,8.586,5.647,98.831,98.831,0,0,0,9.531,3.8,24.926,24.926,0,0,1,7.241,3.993,13.515,13.515,0,0,1,3.509,4.3c.58,1.189.731,1.92.779,1.905" transform="translate(-126.024 -56.107)" fill="#455a64"/>
            <path id="Trazado_728691" data-name="Trazado 728691" d="M374.632,184.771a4.724,4.724,0,0,0-.215-1.982,9.176,9.176,0,0,0-3.081-4.449,20.338,20.338,0,0,0-7.281-3.44,44.318,44.318,0,0,1-9.094-3.58,39.47,39.47,0,0,1-7.939-5.677,40.6,40.6,0,0,1-5.3-5.969,42.968,42.968,0,0,1-2.872-4.568l-.675-1.306a2.209,2.209,0,0,0-.264-.444,2.172,2.172,0,0,0,.18.483l.6,1.35a36.735,36.735,0,0,0,2.766,4.675,38.689,38.689,0,0,0,13.287,11.863,43.306,43.306,0,0,0,9.19,3.581,20.519,20.519,0,0,1,7.2,3.286,9.279,9.279,0,0,1,3.117,4.249,10.669,10.669,0,0,1,.386,1.93" transform="translate(-126.186 -57.267)" fill="#455a64"/>
            <path id="Trazado_728692" data-name="Trazado 728692" d="M377.72,201.55c-.005-.061.77-.108,2.12-.365a12.865,12.865,0,0,0,5.207-2.463,18.06,18.06,0,0,0,5.143-6.813,31.492,31.492,0,0,0,2.646-10.209,24.331,24.331,0,0,0-1.221-10.424,26.012,26.012,0,0,0-4.153-7.546,42.135,42.135,0,0,0-5.66-5.653,1.973,1.973,0,0,1,.48.291c.3.216.757.505,1.294.95a27.487,27.487,0,0,1,4.213,4.15,25.593,25.593,0,0,1,4.341,7.627,24.414,24.414,0,0,1,1.3,10.659,31.2,31.2,0,0,1-2.741,10.387,18.092,18.092,0,0,1-5.383,6.914,12.473,12.473,0,0,1-5.417,2.357,11.247,11.247,0,0,1-1.6.145,1.966,1.966,0,0,1-.56-.006" transform="translate(-141.053 -59.031)" fill="#455a64"/>
            <path id="Trazado_728693" data-name="Trazado 728693" d="M329.141,259.322l25.393-2.742,4.646,4.231-18.127,10.656-8,4.142-7.9-2.4-2.5-4.707Z" transform="translate(-120.491 -95.816)" fill="#ffc09d"/>
            <path id="Trazado_728694" data-name="Trazado 728694" d="M278.38,290.307s7.959-15.275,9.93-18.612c3.359-5.689,9.627-8.912,9.627-8.912l14.67-3.393s-1.522,7.35,7.607,7.858c11.61.646,18.823-10.487,18.823-10.487s13.248,1.363,16.906,2.9,14.006,5.866,15.524,19.626l3.545,22.462-27.989,2.133.387,29.9,13.769,23.561H293.629c1.056.283,4.778-15.449,2.338-27.883l-4.61-11.192a43.379,43.379,0,0,1-3.264-14.065c-.179-3.184-.091-5.593-.091-5.593s-7.179-2.468-9.622-8.3" transform="translate(-103.957 -95.882)" fill="#ffa031"/>
            <path id="Trazado_728695" data-name="Trazado 728695" d="M312.833,371.3l46.924-14.085-.332-26.333,23.9-1.821s-1.907,13.645-2.186,20.642c-.4,10.063-5.242,24.126-8.48,27.112s-61.068,6.231-61.068,6.231Z" transform="translate(-116.357 -122.881)" fill="#ffc09d"/>
            <path id="Trazado_728696" data-name="Trazado 728696" d="M267.935,398.934a1.848,1.848,0,0,0,1.857.9,2.186,2.186,0,0,0,.455-.13c1.029-.42.764-2.562.764-2.562L276,395.923s6.906,3.732,9.464,6.362,8.352-.11,8.352-.11l1.234-10.941-9.962-7.7s.61.457-.154-1.068-3.643-.7-3.643-.7c-.516-.744-2.448-.875-2.448-.875l-8.093,1.573a5.614,5.614,0,0,0-3.893,2.888l-3.03,5.734s-1.519,4.076-1.155,4.969a1.639,1.639,0,0,0,1.986.927s.6,2.556,1.288,2.593a5.592,5.592,0,0,0,1.984-.641" transform="translate(-98.071 -142.238)" fill="#ffc09d"/>
            <path id="Trazado_728697" data-name="Trazado 728697" d="M288.747,395.1c0,.086-1.1.07-2.834.281a24.835,24.835,0,0,0-6.568,1.763,23.771,23.771,0,0,0-3.323,1.736c-.944.632-1.938,1.168-2.2,1.912a1,1,0,0,0,.165.966,1.393,1.393,0,0,0,.657.473,2.174,2.174,0,0,0,.724.049c.021.01-.236.244-.776.147a1.534,1.534,0,0,1-.83-.484,1.308,1.308,0,0,1-.291-1.263,2.614,2.614,0,0,1,.927-1.226c.422-.326.865-.66,1.362-.979a21.439,21.439,0,0,1,10.115-3.461,9.409,9.409,0,0,1,2.87.086" transform="translate(-102.103 -147.496)" fill="#ff9b6c"/>
            <path id="Trazado_728698" data-name="Trazado 728698" d="M290.65,403.357c0,.155-3.331.274-7.4.83-4.068.541-7.313,1.309-7.352,1.158a8.184,8.184,0,0,1,2.086-.681,47.92,47.92,0,0,1,10.469-1.411,8.181,8.181,0,0,1,2.192.1" transform="translate(-103.031 -150.586)" fill="#ff9b6c"/>
            <path id="Trazado_728699" data-name="Trazado 728699" d="M270.936,401.357a3.747,3.747,0,0,1-.17-.862,19.04,19.04,0,0,1-.19-2.391,10.126,10.126,0,0,1,.1-1.674,5.073,5.073,0,0,1,.664-1.841,11.188,11.188,0,0,1,2.818-3.371,15.416,15.416,0,0,1,3.753-2.276,14.1,14.1,0,0,1,3.486-.81c1.008-.114,1.823-.155,2.385-.177a2.874,2.874,0,0,1,.88.021,26.734,26.734,0,0,1-3.214.521,15.358,15.358,0,0,0-3.358.892,16.066,16.066,0,0,0-3.6,2.236,11.234,11.234,0,0,0-2.73,3.206,6.229,6.229,0,0,0-.811,3.278c-.043,1.992.1,3.244-.009,3.249" transform="translate(-101.042 -144.871)" fill="#ff9b6c"/>
            <path id="Trazado_728700" data-name="Trazado 728700" d="M279.927,384.229c.007.078-1.214.2-3.147.58-1.857.434-4.853.8-6.365,3.527a27.8,27.8,0,0,0-3.625,6.725,16.685,16.685,0,0,0-.537,3.117,2.264,2.264,0,0,1-.114-.863,8.178,8.178,0,0,1,.3-2.356,24.334,24.334,0,0,1,3.549-6.918,8.974,8.974,0,0,1,1.464-1.727,5.8,5.8,0,0,1,1.851-1.051,17.55,17.55,0,0,1,3.419-.818,12.471,12.471,0,0,1,3.21-.216" transform="translate(-99.384 -143.47)" fill="#ff9b6c"/>
            <path id="Trazado_728701" data-name="Trazado 728701" d="M283.4,400.544a2.945,2.945,0,0,1-.514-.333l-1.452-.993a57.116,57.116,0,0,0-5.653-3.281l.118.014-4.986,1.251.156-.227a5.572,5.572,0,0,1,0,1.243,2.3,2.3,0,0,1-.479,1.26,1.257,1.257,0,0,1-.647.36,1.784,1.784,0,0,1-.708.1,2.075,2.075,0,0,1-1.311-.6,2.212,2.212,0,0,1-.243-.282l-.053-.078-.026-.039-.013-.019,0,0c-.067-.019.58.162.305.086l-.006,0-.01.006-.155.078c-.207.1-.418.194-.635.281a5.567,5.567,0,0,1-.679.226,2.458,2.458,0,0,1-.373.07.86.86,0,0,1-.475-.054,1.511,1.511,0,0,1-.548-.63,5.646,5.646,0,0,1-.3-.676,12.084,12.084,0,0,1-.435-1.406l.311.182a1.925,1.925,0,0,1-1.934-.5,1.564,1.564,0,0,1-.427-.991,4.573,4.573,0,0,1,.1-.992,27.31,27.31,0,0,1,1.113-3.744l.006-.014.008-.017,1.615-3.059,1.025-1.939a10.05,10.05,0,0,1,1.142-1.889,5.462,5.462,0,0,1,1.739-1.36,7.121,7.121,0,0,1,2.049-.594l7.63-1.461.033-.006.027,0a7.155,7.155,0,0,1,1.378.251,2.3,2.3,0,0,1,1.236.729l-.29-.066a2.831,2.831,0,0,1,2.635-.056,3.31,3.31,0,0,1,1.457,1.967l-.07-.1,6.863,5.273,1.851,1.459a4.58,4.58,0,0,1,.623.539,4.5,4.5,0,0,1-.69-.45l-1.914-1.376-6.966-5.135-.047-.034-.023-.068a2.93,2.93,0,0,0-1.283-1.707,2.415,2.415,0,0,0-2.219.075l-.173.089-.117-.155a1.942,1.942,0,0,0-1-.546,6.824,6.824,0,0,0-1.283-.223l.06,0-7.623,1.5a6.626,6.626,0,0,0-1.918.556,4.947,4.947,0,0,0-1.571,1.234,9.6,9.6,0,0,0-1.077,1.8l-1.024,1.939-1.617,3.058.013-.031a27.226,27.226,0,0,0-1.1,3.66,4.172,4.172,0,0,0-.1.875,1.06,1.06,0,0,0,.294.674,1.43,1.43,0,0,0,1.419.357l.251-.061.06.243a11.867,11.867,0,0,0,.409,1.345,2.475,2.475,0,0,0,.613,1.052.484.484,0,0,0,.207.006,2.057,2.057,0,0,0,.306-.056,5.259,5.259,0,0,0,.622-.2c.2-.08.407-.169.6-.263l.146-.072.008,0,0,0c-.273-.077.376.1.31.086v0l.011.016.02.031.041.061a1.706,1.706,0,0,0,.19.224,1.62,1.62,0,0,0,1.018.477,1.347,1.347,0,0,0,.554-.075.824.824,0,0,0,.447-.229,3.178,3.178,0,0,0,.39-2.155l-.013-.187.17-.04,5-1.184.064-.015.054.028a48.966,48.966,0,0,1,5.606,3.435c.624.45,1.094.813,1.4,1.07a2.923,2.923,0,0,1,.456.41" transform="translate(-97.922 -142.098)" fill="#ff9b6c"/>
            <path id="Trazado_728702" data-name="Trazado 728702" d="M166.581,384.616l-17.736-46.579a2.679,2.679,0,0,1,2.5-3.632H208.3a2.679,2.679,0,0,1,2.425,1.543l17.056,44.429,35.778.607a2.678,2.678,0,0,1,0,5.357H169.084a2.678,2.678,0,0,1-2.5-1.725" transform="translate(-55.517 -124.878)" fill="#12263f"/>
            <path id="Trazado_728703" data-name="Trazado 728703" d="M211.281,373.622a3.737,3.737,0,1,1-3.737-3.737,3.737,3.737,0,0,1,3.737,3.737" transform="translate(-76.108 -138.128)" fill="#fff"/>
            <path id="Trazado_728704" data-name="Trazado 728704" d="M300.7,283.374c.081.045-.68,1.469-1.747,3.84a66.358,66.358,0,0,0-5.433,19.476c-.314,2.581-.4,4.193-.493,4.19a4.431,4.431,0,0,1-.055-1.137c-.005-.731.043-1.79.151-3.094a55.211,55.211,0,0,1,5.469-19.6c.583-1.172,1.09-2.1,1.472-2.726a4.447,4.447,0,0,1,.636-.944" transform="translate(-109.404 -105.821)" fill="#263238"/>
            <path id="Trazado_728705" data-name="Trazado 728705" d="M413.818,304.212a2.648,2.648,0,0,1-.58.09l-1.68.165-6.273.525-21.451,1.616-.276.021-.018-.276c-.18-2.848-.37-5.856-.565-8.949-.3-5.385-.565-10.517-.647-15.2a21.533,21.533,0,0,1,2.752-12.049,14.865,14.865,0,0,1,6.013-5.78,12.053,12.053,0,0,1,2.13-.828,4.179,4.179,0,0,1,.773-.189c.026.077-1.064.3-2.8,1.211a15.025,15.025,0,0,0-5.77,5.786,21.363,21.363,0,0,0-2.576,11.838c.111,4.663.387,9.792.69,15.173.19,3.091.375,6.1.549,8.944l-.294-.256,21.465-1.419,6.284-.363,1.687-.073a2.647,2.647,0,0,1,.586.007" transform="translate(-142.762 -98.347)" fill="#263238"/>
            <path id="Trazado_728706" data-name="Trazado 728706" d="M341.482,345.491a3.375,3.375,0,0,1-.938-.345,7.57,7.57,0,0,1-1.048-.525,12.793,12.793,0,0,1-1.326-.813,19.066,19.066,0,0,1-3.09-2.622,20.473,20.473,0,0,1-4.873-8.571,19.1,19.1,0,0,1-.673-4,12.8,12.8,0,0,1-.021-1.556,7.586,7.586,0,0,1,.085-1.169,3.419,3.419,0,0,1,.183-.982c.112.01-.071,1.422.152,3.674a21.112,21.112,0,0,0,.774,3.882,21.53,21.53,0,0,0,4.754,8.362,21.128,21.128,0,0,0,2.94,2.651c1.821,1.343,3.129,1.908,3.08,2.009" transform="translate(-123.046 -121.333)" fill="#263238"/>
          </g>
        </g>
      </g>
    </g>
  </g>
</svg>
