<svg xmlns="http://www.w3.org/2000/svg" xmlns:xlink="http://www.w3.org/1999/xlink" width="121" height="122" viewBox="0 0 121 122">
  <defs>
    <clipPath id="clip-path">
      <ellipse id="Elipse_8399" data-name="Elipse 8399" cx="60.5" cy="61" rx="60.5" ry="61" transform="translate(0.206 -0.494)" fill="#fff"/>
    </clipPath>
  </defs>
  <g id="Grupo_1036335" data-name="Grupo 1036335" transform="translate(-322 -2384)">
    <g id="Grupo_1030468" data-name="Grupo 1030468" transform="translate(321.794 2384.494)">
      <ellipse id="Elipse_8399-2" data-name="Elipse 8399" cx="60.5" cy="61" rx="60.5" ry="61" transform="translate(0.205 -0.495)" fill="#4db1f0"/>
    </g>
    <g id="Grupo_1030475" data-name="Grupo 1030475" transform="translate(321.794 2384.494)">
      <g id="Enmascarar_grupo_1026468" data-name="Enmascarar grupo 1026468" clip-path="url(#clip-path)">
        <g id="_23-Litter" data-name="23-Litter" transform="translate(-10.087 -0.307)">
          <path id="Trazado_729341" data-name="Trazado 729341" d="M117.693,1.933h-.154v.038l-7.507,1.886H78.848A25.711,25.711,0,0,0,64.026,8.381L31.032,31.789a6.755,6.755,0,0,0-2.04,4.793,3.224,3.224,0,0,0,1.752,2.926,8.437,8.437,0,0,0,4.216.924h.135a14.909,14.909,0,0,0,7.373-1.906v1.29a3.03,3.03,0,0,0,3.349,2.541h.5a10.333,10.333,0,0,0,4.312-.885,3.124,3.124,0,0,0,3.388,2.81h.192A14.375,14.375,0,0,0,60.85,42.7l20.116-9.971h21.79a18.287,18.287,0,0,0,11.492-3.888l7.142-3.811V1.933Z" transform="translate(-0.039 -0.008)" fill="#ffc9bd"/>
          <path id="Trazado_729342" data-name="Trazado 729342" d="M71.8,23.193H98.44a3.85,3.85,0,0,1-3.85,3.85H69.566a3.838,3.838,0,0,0-3.448,2.167,3.981,3.981,0,0,1-.21-1.205A5.434,5.434,0,0,1,71.8,23.193Z" transform="translate(-0.189 -0.094)" fill="#ffb4a3"/>
          <path id="Trazado_729343" data-name="Trazado 729343" d="M65.813,28.006a4.287,4.287,0,0,0,1.363,3.08l-.037.019a2.358,2.358,0,0,1-1.9.1,6.98,6.98,0,0,0-5.865.123L46.535,38.337A7.679,7.679,0,0,0,43.382,41.6a2.225,2.225,0,0,1-.86-1.694v-1.29a6.488,6.488,0,0,0,.616-.366c7.18-4.716,22.483-15.053,22.483-15.053H71.7a5.434,5.434,0,0,0-5.89,4.812Z" transform="translate(-0.094 -0.094)" fill="#fa9d82"/>
          <path id="Trazado_729344" data-name="Trazado 729344" d="M69.787,34.775a7.709,7.709,0,0,0-4.081,1.17L52.63,44.119a2.859,2.859,0,0,1-1.913-2.529q.577-.26,1.155-.577l15.361-9.875c.116.115.231.212.346.308a6.6,6.6,0,0,0,4.158,1.405h9.317l-3.883,1.925Z" transform="translate(-0.128 -0.126)" fill="#fa8f70"/>
          <path id="Trazado_729345" data-name="Trazado 729345" d="M117.693,1.933h-.154v.038l-7.507,1.886H78.848A25.711,25.711,0,0,0,64.026,8.381L31.032,31.789a6.755,6.755,0,0,0-2.04,4.793,3.219,3.219,0,0,0,.427,1.634L69.379,10.98a7.7,7.7,0,0,1,4.337-1.347h38.156a7.723,7.723,0,0,0,3.444-.812l6.073-3.038V1.933Z" transform="translate(-0.039 -0.008)" fill="#ffdad1"/>
          <path id="Trazado_729346" data-name="Trazado 729346" d="M21.261,88.909h80.847v7.7H21.261Z" transform="translate(-0.008 -0.361)" fill="#64e9f0"/>
          <path id="Trazado_729347" data-name="Trazado 729347" d="M28.976,121.664,25.126,96.64H98.274l-3.85,25.024Z" transform="translate(-0.024 -0.393)" fill="#afb4c8"/>
          <path id="Trazado_729348" data-name="Trazado 729348" d="M50.765,102.415h46.62l.889-5.775H25.126l3.85,25.024h11.55l-1.088-5.434a11.55,11.55,0,0,1,11.326-13.815Z" transform="translate(-0.024 -0.393)" fill="#8a90a0"/>
          <path id="Trazado_729349" data-name="Trazado 729349" d="M25.111,88.909a3.85,3.85,0,0,0,3.85,3.85H94.408a3.85,3.85,0,0,0,3.85-3.85h3.85v7.7H21.261v-7.7Z" transform="translate(-0.008 -0.361)" fill="#4db1f0"/>
          <path id="Trazado_729350" data-name="Trazado 729350" d="M79.2,65.7v5.775l-5.775,5.775-5.775-1.925V65.7l5.775-3.85Z" transform="translate(-0.196 -0.251)" fill="#eef2fa"/>
          <path id="Trazado_729351" data-name="Trazado 729351" d="M57.929,65.7l-7.7,7.7H44.454V61.849h5.775Z" transform="translate(-0.102 -0.251)" fill="#eef2fa"/>
          <path id="Trazado_729352" data-name="Trazado 729352" d="M75.324,57.968,73.4,61.818l-5.775,3.85-5.775-1.925v-7.7l7.7-1.925Z" transform="translate(-0.173 -0.22)" fill="#dce1eb"/>
          <path id="Trazado_729353" data-name="Trazado 729353" d="M61.8,56.035v7.7l5.775,1.925v7.7h-7.7l-1.925-7.7-7.7-3.85V56.035l1.925-3.85h7.7Z" transform="translate(-0.126 -0.212)" fill="#bec3d2"/>
          <path id="Trazado_729354" data-name="Trazado 729354" d="M67.577,73.415V75.34l-1.925,3.85-3.85,3.85-5.775-1.925-5.775-7.7,7.7-7.7,1.925,7.7h7.7Z" transform="translate(-0.126 -0.267)" fill="#dce1eb"/>
          <path id="Trazado_729355" data-name="Trazado 729355" d="M120.474,23.327l-7.14,3.815a1.942,1.942,0,0,0-.312.206A16.42,16.42,0,0,1,102.755,30.8H71.637c-2.146,0-3.96-1.322-3.96-2.887s1.813-2.887,3.96-2.887H98.282v-3.85H65.558a1.925,1.925,0,0,0-1.078.331c-.154.1-15.369,10.395-22.466,15.028A12.884,12.884,0,0,1,34.951,38.5c-.951,0-4.042-.139-4.042-1.925a5.184,5.184,0,0,1,1.224-3.234l33-23.4a23.846,23.846,0,0,1,13.7-4.166h31.184a1.99,1.99,0,0,0,.477-.06l7.507-1.925L117.046.06l-7.27,1.865H78.84A27.7,27.7,0,0,0,62.909,6.8L29.87,30.222a8.68,8.68,0,0,0-2.81,6.352c0,3.563,3.026,5.775,8.025,5.775a17.23,17.23,0,0,0,5.775-1.03,5.218,5.218,0,0,0,4.955,2.955h.495a12.283,12.283,0,0,0,3.157-.385A5.582,5.582,0,0,0,54.2,46.2a16.331,16.331,0,0,0,7.494-1.781l12.347-6.112-1.709-3.465L59.945,40.978a12.722,12.722,0,0,1-5.936,1.371,2.014,2.014,0,0,1-.739-.144l13.8-8.855a8.6,8.6,0,0,0,4.568,1.3h31.119a20.092,20.092,0,0,0,12.554-4.2l6.978-3.725Zm-74.661,17.1c-.953,0-1.43-.5-1.43-.622v-.219c5.39-3.53,15.015-10.01,19.634-13.124a5.736,5.736,0,0,0,.4,4.017L50.84,39.192a8.624,8.624,0,0,1-4.531,1.232Z" transform="translate(-0.031)" fill="#12263f"/>
          <path id="Trazado_729356" data-name="Trazado 729356" d="M76.314,56.351,70.539,52.5A1.925,1.925,0,0,0,69,52.235l-6.2,1.54-1.218-2.458a1.925,1.925,0,0,0-1.732-1.064h-7.7a1.925,1.925,0,0,0-1.723,1.064L48.5,55.167a1.925,1.925,0,0,0-.2.86v3.85h-3.85A1.925,1.925,0,0,0,42.522,61.8v11.55a1.925,1.925,0,0,0,1.925,1.925h4.812l5.2,6.93a1.9,1.9,0,0,0,.932.67L61.163,84.8a1.9,1.9,0,0,0,.608.1,1.925,1.925,0,0,0,1.361-.564l3.85-3.85a1.925,1.925,0,0,0,.362-.5l1.178-2.356,4.191,1.4a1.925,1.925,0,0,0,1.969-.464l5.775-5.775a1.925,1.925,0,0,0,.564-1.361V65.652a1.925,1.925,0,0,0-.857-1.6L75.8,61.142l1.167-2.329a1.925,1.925,0,0,0-.654-2.462ZM46.371,63.727h3.4l4.9,2.452-5.247,5.247H46.371ZM61.249,80.773l-4.075-1.347-4.412-5.892,4.117-4.117,1.1,4.4a1.925,1.925,0,0,0,1.867,1.459H63.7v-3.85H61.349l-1.561-6.241h-.031a1.913,1.913,0,0,0-.976-1.265l-6.635-3.309V56.482l1.19-2.379h5.321l1.392,2.785a1.925,1.925,0,0,0,2.189,1.007l6.874-1.719,3.657,2.437-.937,1.871-5.349,3.567a1.925,1.925,0,0,0-.86,1.6v9.17l-1.582,3.163ZM77.17,66.682V70.63L72.8,75l-3.328-1.109V66.682l3.85-2.57Z" transform="translate(-0.094 -0.204)" fill="#12263f"/>
          <path id="Trazado_729357" data-name="Trazado 729357" d="M102.1,86.976H21.253A1.925,1.925,0,0,0,19.328,88.9v7.7a1.925,1.925,0,0,0,1.925,1.925h2.2l3.6,23.392,3.8-.577L27.347,98.525H96.006L92.5,121.332l3.8.577,3.6-23.384h2.2a1.925,1.925,0,0,0,1.925-1.925V88.9A1.925,1.925,0,0,0,102.1,86.976Zm-1.925,7.7h-77v-3.85h77Z" transform="translate(0 -0.353)" fill="#12263f"/>
        </g>
      </g>
    </g>
  </g>
</svg>
