<svg xmlns="http://www.w3.org/2000/svg" xmlns:xlink="http://www.w3.org/1999/xlink" width="398" height="308.51" viewBox="0 0 398 308.51">
  <defs>
    <clipPath id="clip-path">
      <rect id="Rectángulo_350790" data-name="Rectángulo 350790" width="388.671" height="305.578" fill="none"/>
    </clipPath>
    <clipPath id="clip-path-2">
      <rect id="Rectángulo_350789" data-name="Rectángulo 350789" width="388.671" height="272.918" fill="none"/>
    </clipPath>
    <clipPath id="clip-path-3">
      <rect id="Rectángulo_350791" data-name="Rectángulo 350791" width="6.78" height="15.765" fill="none"/>
    </clipPath>
    <clipPath id="clip-path-4">
      <rect id="Rectángulo_350792" data-name="Rectángulo 350792" width="5.816" height="3.506" fill="none"/>
    </clipPath>
    <clipPath id="clip-path-5">
      <rect id="Rectángulo_350793" data-name="Rectángulo 350793" width="1.493" height="96.765" fill="none"/>
    </clipPath>
    <clipPath id="clip-path-6">
      <rect id="Rectángulo_350794" data-name="Rectángulo 350794" width="4.148" height="7.429" fill="none"/>
    </clipPath>
    <clipPath id="clip-path-7">
      <rect id="Rectángulo_350795" data-name="Rectángulo 350795" width="11.146" height="26.978" fill="#a7d9f8"/>
    </clipPath>
    <clipPath id="clip-path-8">
      <rect id="Rectángulo_350796" data-name="Rectángulo 350796" width="20.521" height="10.574" fill="none"/>
    </clipPath>
    <clipPath id="clip-path-9">
      <rect id="Rectángulo_350798" data-name="Rectángulo 350798" width="33.964" height="24.757" fill="none"/>
    </clipPath>
    <clipPath id="clip-path-11">
      <rect id="Rectángulo_350799" data-name="Rectángulo 350799" width="8.609" height="2.677" fill="none"/>
    </clipPath>
    <clipPath id="clip-path-12">
      <rect id="Rectángulo_350800" data-name="Rectángulo 350800" width="5.912" height="13.748" fill="none"/>
    </clipPath>
    <clipPath id="clip-path-13">
      <rect id="Rectángulo_350801" data-name="Rectángulo 350801" width="5.072" height="3.058" fill="none"/>
    </clipPath>
    <clipPath id="clip-path-14">
      <rect id="Rectángulo_350802" data-name="Rectángulo 350802" width="25.495" height="93.226" fill="none"/>
    </clipPath>
    <clipPath id="clip-path-15">
      <rect id="Rectángulo_350803" data-name="Rectángulo 350803" width="1.303" height="84.386" fill="none"/>
    </clipPath>
    <clipPath id="clip-path-16">
      <rect id="Rectángulo_350804" data-name="Rectángulo 350804" width="5.505" height="7.75" fill="none"/>
    </clipPath>
    <clipPath id="clip-path-17">
      <rect id="Rectángulo_350805" data-name="Rectángulo 350805" width="2.68" height="6.245" fill="none"/>
    </clipPath>
    <clipPath id="clip-path-18">
      <rect id="Rectángulo_350806" data-name="Rectángulo 350806" width="3.617" height="6.479" fill="none"/>
    </clipPath>
    <clipPath id="clip-path-19">
      <rect id="Rectángulo_350808" data-name="Rectángulo 350808" width="7.537" height="34.539" fill="none"/>
    </clipPath>
    <clipPath id="clip-path-21">
      <rect id="Rectángulo_350809" data-name="Rectángulo 350809" width="17.897" height="9.221" fill="none"/>
    </clipPath>
    <clipPath id="clip-path-22">
      <rect id="Rectángulo_350810" data-name="Rectángulo 350810" width="9.721" height="23.526" fill="#a7d9f8"/>
    </clipPath>
    <clipPath id="clip-path-23">
      <rect id="Rectángulo_350811" data-name="Rectángulo 350811" width="8.454" height="2.546" fill="none"/>
    </clipPath>
    <clipPath id="clip-path-24">
      <rect id="Rectángulo_350812" data-name="Rectángulo 350812" width="19.232" height="19.389" fill="none"/>
    </clipPath>
    <clipPath id="clip-path-25">
      <rect id="Rectángulo_350813" data-name="Rectángulo 350813" width="19.356" height="18.991" fill="none"/>
    </clipPath>
  </defs>
  <g id="Grupo_1033899" data-name="Grupo 1033899" transform="translate(5844 10311.583)">
    <g id="Grupo_1030389" data-name="Grupo 1030389" transform="translate(-5844 -10311.583)" clip-path="url(#clip-path)">
      <g id="Grupo_1030388" data-name="Grupo 1030388" transform="translate(0 32.66)" opacity="0.2">
        <g id="Grupo_1030387" data-name="Grupo 1030387">
          <g id="Grupo_1030386" data-name="Grupo 1030386" clip-path="url(#clip-path-2)">
            <path id="Trazado_729054" data-name="Trazado 729054" d="M374.32,426H17.731c-22.552-12.084-33.4-131.387,29-131.387,82.675,0,2.124-112.38,72.805-137.2C207.283,126.594,230.555,271.241,315.885,248c116.181-31.649,58.435,178,58.435,178" transform="translate(0 -153.081)" fill="#abc7f2"/>
          </g>
        </g>
      </g>
    </g>
    <path id="Trazado_729055" data-name="Trazado 729055" d="M946.389,2.01h94.892V302.785H946.389ZM944.494,304.8h98.681V0H944.494Z" transform="translate(-6658.088 -10308.651)" fill="#b3c0cc"/>
    <path id="Trazado_729056" data-name="Trazado 729056" d="M1156.847,48.949l-.6-.4-66.6-44.594.337-.567,67.2,45Z" transform="translate(-6772.273 -10311.314)" fill="#b3c0cc"/>
    <path id="Trazado_729057" data-name="Trazado 729057" d="M1254.747,31.17l-.6-.4L1214.1,3.952l.337-.567L1255.083,30.6Z" transform="translate(-6870.173 -10311.314)" fill="#b3c0cc"/>
    <path id="Trazado_729058" data-name="Trazado 729058" d="M1045.535,317.773l-97.39-65.212.337-.567,97.39,65.212Z" transform="translate(-6660.96 -10506.881)" fill="#b3c0cc"/>
    <path id="Trazado_729059" data-name="Trazado 729059" d="M1045.535,403.614,948.145,338.4l.337-.567,97.39,65.212Z" transform="translate(-6660.96 -10574.407)" fill="#b3c0cc"/>
    <path id="Trazado_729060" data-name="Trazado 729060" d="M1045.535,489.454l-97.39-65.212.337-.567,97.39,65.212Z" transform="translate(-6660.96 -10641.933)" fill="#b3c0cc"/>
    <path id="Trazado_729061" data-name="Trazado 729061" d="M1045.535,575.294l-97.39-65.212.337-.567,97.39,65.212Z" transform="translate(-6660.96 -10709.458)" fill="#b3c0cc"/>
    <path id="Trazado_729062" data-name="Trazado 729062" d="M1056.005,67.262l-8.042-5.384L961.456,3.952l.337-.567,16.278,10.9,78.271,52.408Z" transform="translate(-6671.431 -10311.313)" fill="#b3c0cc"/>
    <path id="Trazado_729063" data-name="Trazado 729063" d="M1045.535,146.093l-97.39-65.212.337-.567,97.39,65.212Z" transform="translate(-6660.96 -10371.83)" fill="#b3c0cc"/>
    <path id="Trazado_729064" data-name="Trazado 729064" d="M1045.535,231.933l-97.39-65.212.337-.567,97.39,65.212Z" transform="translate(-6660.96 -10439.355)" fill="#b3c0cc"/>
    <path id="Trazado_729065" data-name="Trazado 729065" d="M1045.535,661.135l-97.39-65.212.337-.567,97.39,65.212Z" transform="translate(-6660.96 -10776.985)" fill="#b3c0cc"/>
    <path id="Trazado_729066" data-name="Trazado 729066" d="M1045.535,746.975l-97.39-65.212.337-.567,97.39,65.212Z" transform="translate(-6660.96 -10844.51)" fill="#b3c0cc"/>
    <path id="Trazado_729067" data-name="Trazado 729067" d="M1045.535,832.816,948.145,767.6l.337-.567,97.39,65.212Z" transform="translate(-6660.96 -10912.037)" fill="#b3c0cc"/>
    <path id="Trazado_729068" data-name="Trazado 729068" d="M1045.535,918.655l-97.39-65.212.337-.567,97.39,65.212Z" transform="translate(-6660.96 -10979.563)" fill="#b3c0cc"/>
    <path id="Trazado_729069" data-name="Trazado 729069" d="M1045.535,1004.5l-97.39-65.212.337-.567,97.39,65.212Z" transform="translate(-6660.96 -11047.088)" fill="#b3c0cc"/>
    <path id="Trazado_729070" data-name="Trazado 729070" d="M1045.535,1090.336l-97.39-65.212.337-.567,97.39,65.212Z" transform="translate(-6660.96 -11114.614)" fill="#b3c0cc"/>
    <path id="Trazado_729071" data-name="Trazado 729071" d="M1045.535,1176.177l-97.39-65.212.337-.567,97.39,65.212Z" transform="translate(-6660.96 -11182.14)" fill="#b3c0cc"/>
    <path id="Trazado_729072" data-name="Trazado 729072" d="M1020.253,1245.086l-23.787-15.93L948.145,1196.8l.337-.567,72.108,48.285Z" transform="translate(-6660.961 -11249.662)" fill="#b3c0cc"/>
    <path id="Trazado_729073" data-name="Trazado 729073" d="M944.975,317.773l-.337-.567,97.389-65.212.337.567Z" transform="translate(-6658.202 -10506.881)" fill="#b3c0cc"/>
    <path id="Trazado_729074" data-name="Trazado 729074" d="M944.975,403.614l-.337-.567,97.389-65.212.337.567Z" transform="translate(-6658.202 -10574.407)" fill="#b3c0cc"/>
    <path id="Trazado_729075" data-name="Trazado 729075" d="M944.975,489.454l-.337-.567,97.389-65.212.337.567Z" transform="translate(-6658.202 -10641.933)" fill="#b3c0cc"/>
    <path id="Trazado_729076" data-name="Trazado 729076" d="M944.975,575.294l-.337-.567,97.389-65.212.337.567Z" transform="translate(-6658.202 -10709.458)" fill="#b3c0cc"/>
    <path id="Trazado_729077" data-name="Trazado 729077" d="M944.97,67.262l-.337-.566,8.041-5.384,86.51-57.926.337.567Z" transform="translate(-6658.197 -10311.314)" fill="#b3c0cc"/>
    <path id="Trazado_729078" data-name="Trazado 729078" d="M944.97,46.6l-.337-.566,6.286-4.209,57.4-38.436.337.567Z" transform="translate(-6658.197 -10311.314)" fill="#b3c0cc"/>
    <path id="Trazado_729079" data-name="Trazado 729079" d="M944.97,28.156l-.337-.566,6.193-4.146L980.78,3.385l.337.567Z" transform="translate(-6658.197 -10311.313)" fill="#b3c0cc"/>
    <path id="Trazado_729080" data-name="Trazado 729080" d="M944.975,146.093l-.337-.567,97.389-65.212.337.567Z" transform="translate(-6658.202 -10371.83)" fill="#b3c0cc"/>
    <path id="Trazado_729081" data-name="Trazado 729081" d="M944.975,231.933l-.337-.567,97.389-65.212.337.567Z" transform="translate(-6658.202 -10439.355)" fill="#b3c0cc"/>
    <path id="Trazado_729082" data-name="Trazado 729082" d="M944.975,661.135l-.337-.567,97.389-65.212.337.567Z" transform="translate(-6658.202 -10776.985)" fill="#b3c0cc"/>
    <path id="Trazado_729083" data-name="Trazado 729083" d="M944.975,746.975l-.337-.567,97.389-65.212.337.567Z" transform="translate(-6658.202 -10844.51)" fill="#b3c0cc"/>
    <path id="Trazado_729084" data-name="Trazado 729084" d="M944.975,832.816l-.337-.567,97.389-65.212.337.567Z" transform="translate(-6658.202 -10912.037)" fill="#b3c0cc"/>
    <path id="Trazado_729085" data-name="Trazado 729085" d="M944.975,918.655l-.337-.567,97.389-65.212.337.567Z" transform="translate(-6658.202 -10979.563)" fill="#b3c0cc"/>
    <path id="Trazado_729086" data-name="Trazado 729086" d="M944.975,1004.5l-.337-.567,97.389-65.212.337.567Z" transform="translate(-6658.202 -11047.088)" fill="#b3c0cc"/>
    <path id="Trazado_729087" data-name="Trazado 729087" d="M944.975,1090.336l-.337-.567,97.389-65.212.337.567Z" transform="translate(-6658.202 -11114.614)" fill="#b3c0cc"/>
    <path id="Trazado_729088" data-name="Trazado 729088" d="M944.975,1176.177l-.337-.567,97.389-65.212.337.567Z" transform="translate(-6658.202 -11182.14)" fill="#b3c0cc"/>
    <path id="Trazado_729089" data-name="Trazado 729089" d="M1063.464,1245.086l-.337-.567,72.109-48.285.337.567Z" transform="translate(-6751.411 -11249.662)" fill="#b3c0cc"/>
    <path id="Trazado_729090" data-name="Trazado 729090" d="M1889.263,1419.926v1.515h7.1l.817-2.932Z" transform="translate(-7401.286 -11424.514)" fill="#29274f"/>
    <path id="Trazado_729091" data-name="Trazado 729091" d="M1809.693,1346.36s-2.648,8.051-6.672,10.445c-3.245,1.93-9.446,2.219-11.1,6.055a1.294,1.294,0,0,0,1.119,1.825h16.653s6.059-1.787,8.919-1.352,2.723-6.905,1.906-9.618-.136-7.355-.136-7.355Z" transform="translate(-7324.626 -11367.758)" fill="#44bca2"/>
    <path id="Trazado_729092" data-name="Trazado 729092" d="M2010.1,1419.926v1.515h7.1l.817-2.932Z" transform="translate(-7496.342 -11424.514)" fill="#29274f"/>
    <path id="Trazado_729093" data-name="Trazado 729093" d="M1930.53,1346.36s-2.648,8.051-6.672,10.445c-3.245,1.93-9.446,2.219-11.1,6.055a1.294,1.294,0,0,0,1.119,1.825h16.653s6.059-1.787,8.919-1.352,2.723-6.905,1.906-9.618-.136-7.355-.136-7.355Z" transform="translate(-7419.682 -11367.758)" fill="#52ceb5"/>
    <path id="Trazado_729094" data-name="Trazado 729094" d="M1813.27,693.422s-5.755,11.573-4.141,31.168c.993,12.057,2.756,34.753,5.027,58.376,2.778,28.905,2.236,52.739,2.971,53.66,1.291,1.617,18.537-.559,18.537-.559a268.969,268.969,0,0,0,1.73-31.911c0-10.364-1.766-65.9-.554-68.479,0,0,24.02-34.815,21.283-41.522Z" transform="translate(-7338.024 -10854.128)" fill="#bfdeff"/>
    <path id="Trazado_729095" data-name="Trazado 729095" d="M1939.895,689.693s-5.755,11.573-4.141,31.168c.993,12.057,2.756,34.753,5.026,58.376,2.779,28.905,2.237,52.739,2.972,53.66,1.291,1.617,18.536-.559,18.536-.559a268.985,268.985,0,0,0,1.73-31.911c0-10.364-.664-65.62-.554-68.479.787-20.405-.761-36.56-3.5-43.267Z" transform="translate(-7437.633 -10850.399)" fill="#bfdeff"/>
    <path id="Trazado_729096" data-name="Trazado 729096" d="M1776.734,391.8s45.494-19.611,44.959-26.414c-.078-1,1.157-3.472,1.447-7.978.017-.317.033-.65.044-.99.089-3.138-.545-14.34-.684-19.078-.017-.588-.028-1.08-.028-1.442,0-.141,0-.266.006-.367.05-1.335.095-2.652.134-3.936.256-7.775,4.479-15.838,2.832-19.8-3.171-7.645-8.017-11.032-19.211-13.017-5.124-.91-16.9-.933-30.137,3.913a19.447,19.447,0,0,0-12.406,15.126l4.415,4.434s7.274,47.22,7.563,50.448c.4,4.4,2.246,13.041,1.067,19.1" transform="translate(-7302.504 -10543.313)" fill="#bfdeff"/>
    <g id="Grupo_1030392" data-name="Grupo 1030392" transform="translate(-5507.355 -10132.235)">
      <g id="Grupo_1030391" data-name="Grupo 1030391" clip-path="url(#clip-path-3)">
        <path id="Trazado_729097" data-name="Trazado 729097" d="M1911.166,827.078a54.817,54.817,0,0,1,6.479,15.449.142.142,0,0,0,.274-.077,55.077,55.077,0,0,0-6.508-15.518.142.142,0,0,0-.245.146" transform="translate(-1911.143 -826.865)" fill="#4b83db"/>
      </g>
    </g>
    <g id="Grupo_1030395" data-name="Grupo 1030395" transform="translate(-5512.075 -10128.69)">
      <g id="Grupo_1030394" data-name="Grupo 1030394" clip-path="url(#clip-path-4)">
        <path id="Trazado_729098" data-name="Trazado 729098" d="M1891.636,843.741a5.32,5.32,0,0,1,2.921,3.144l.208-.163a14.837,14.837,0,0,0-5.606-1.431c-.182-.01-.182.278,0,.288a14.413,14.413,0,0,1,5.463,1.392c.1.048.255-.034.208-.163a5.61,5.61,0,0,0-3.051-3.316c-.166-.074-.31.174-.143.249" transform="translate(-1889.022 -843.479)" fill="#4b83db"/>
      </g>
    </g>
    <g id="Grupo_1030398" data-name="Grupo 1030398" transform="translate(-5507.034 -10118.798)">
      <g id="Grupo_1030397" data-name="Grupo 1030397" clip-path="url(#clip-path-5)">
        <path id="Trazado_729099" data-name="Trazado 729099" d="M1913.859,889.984c-1.882,25.056-1.106,50.228-.72,75.325q.163,10.582.325,21.163a.142.142,0,0,0,.283,0c-.385-25.047-1.221-50.143-.626-75.191.169-7.106.488-14.208,1.021-21.3.014-.185-.27-.184-.283,0" transform="translate(-1912.649 -889.845)" fill="#4b83db"/>
      </g>
    </g>
    <g id="Grupo_1030401" data-name="Grupo 1030401" transform="translate(-5514.938 -10057.118)">
      <g id="Grupo_1030400" data-name="Grupo 1030400" clip-path="url(#clip-path-6)">
        <path id="Trazado_729100" data-name="Trazado 729100" d="M1879.48,1179.009l-3.865,7.142c-.088.163.157.308.245.146l3.865-7.142c.088-.163-.157-.308-.245-.146" transform="translate(-1875.597 -1178.938)" fill="#4b83db"/>
      </g>
    </g>
    <path id="Trazado_729101" data-name="Trazado 729101" d="M1795.784,454.169a45.209,45.209,0,0,0,24.247-3.52l2.774-.4s14.788,23.551,22.495,25.7a42.883,42.883,0,0,1,.792,9.8c-.451,13.391,4.237,35.5,4.237,35.5h-54.718s1.193-21.551.257-30.333-4.065-36.1-4.065-36.1Z" transform="translate(-7324.62 -10662.838)" fill="#bfdeff"/>
    <path id="Trazado_729102" data-name="Trazado 729102" d="M2015.3,469.1a19.94,19.94,0,0,1,5.345,2.608c.147.1.009.346-.14.244a19.667,19.667,0,0,0-5.279-2.579c-.171-.054-.1-.327.074-.273" transform="translate(-7500.296 -10677.663)" fill="#63a3f4"/>
    <path id="Trazado_729103" data-name="Trazado 729103" d="M1865.3,233.359a71.521,71.521,0,0,1-1.852-9.853,25.142,25.142,0,0,1,.688-4.864c-.11.038-15.085,5.216-13.024,9.869.092.208.177.428.256.657a19.635,19.635,0,0,1,.835,5.31c.026.6.718,4.319.708,4.887-.016.869,12.737-4.887,12.388-6" transform="translate(-7371.122 -10480.645)" fill="#fabba5"/>
    <path id="Trazado_729104" data-name="Trazado 729104" d="M1865.355,239.149c-.062.707.012,2.18.044,2.987-3.11,7.238-11.41,8.414-11.532,8.467a19.624,19.624,0,0,0-.835-5.31c3.333-1.887,10.376-6.356,12.324-6.144" transform="translate(-7372.784 -10496.771)" fill="#ed938b"/>
    <path id="Trazado_729105" data-name="Trazado 729105" d="M1866.955,272.928s-3.98-4.043-3.85-6.927c0,0-3.854,4.677-6.57,5.4s-2.216,3.96-2.216,3.96-.44-3.36-1.68-3.36-2.182-1.175-2.775-2.1c0,0-.177,4.44-1.594,5.46s7.641,3.9,7.641,3.9l10.66-3.66Z" transform="translate(-7368.92 -10517.898)" fill="#bfdeff"/>
    <path id="Trazado_729106" data-name="Trazado 729106" d="M1874.269,303.92a63.412,63.412,0,0,0,.523,20.46c.7,3.615,1.915,7.036,2.862,10.578a20.457,20.457,0,0,1-.062,10.509c-1.365,5.552-4,11.313-2.14,17.077,1.116,3.452,2.735,6.385,3.062,10.087a86.492,86.492,0,0,1-.142,10.095,29.014,29.014,0,0,0,1.346,10.544c1.472,4.251,2.195,8.132.71,12.521-.093.274.335.392.427.12a16.3,16.3,0,0,0,.521-8.924c-.8-3.483-2.293-6.522-2.522-10.165-.411-6.547,1.284-13.352-1.066-19.676-1.208-3.252-2.709-6.062-2.53-9.659.16-3.218,1.2-6.311,2.081-9.381a28.766,28.766,0,0,0,1.481-8.78c-.105-3.306-1.36-6.4-2.268-9.533a62.572,62.572,0,0,1-1.854-25.753c.038-.283-.388-.406-.427-.12" transform="translate(-7389.028 -10547.6)" fill="#63a3f4"/>
    <path id="Trazado_729107" data-name="Trazado 729107" d="M1963.714,351.512s-24.918,7.692-21.7,4.357c2.285-2.368-15.926-23.557-19.435-24.114-5.595-.888-11.389-12.177-15.311-21.623-1.161-2.8-7.254-10.633-7.254-10.633a54.393,54.393,0,0,1,11.926-.512c13.811,1.14,26.39,7.3,30.5,16.67,5.276,12.036,18.852,22.887,21.275,35.856" transform="translate(-7409.744 -10543.739)" fill="#bfdeff"/>
    <path id="Trazado_729108" data-name="Trazado 729108" d="M1992.5,452.328c-3.356-4.056-8.118-6.079-12.859-7.968-.165-.066-.093-.339.074-.273,4.785,1.907,9.6,3.949,12.981,8.04.114.138-.081.339-.2.2" transform="translate(-7472.307 -10657.981)" fill="#63a3f4"/>
    <g id="Grupo_1030404" data-name="Grupo 1030404" transform="translate(-5490.458 -10212.879)">
      <g id="Grupo_1030403" data-name="Grupo 1030403" clip-path="url(#clip-path-7)">
        <path id="Trazado_729109" data-name="Trazado 729109" d="M1991.425,467.651c-.462,3.031,7.383,6.978,10.009,8.21.017-.317.033-.65.044-.99.089-3.138-.545-14.34-.684-19.078-1.53-1.934-4.562-4.631-10.454-6.91a7.533,7.533,0,0,0,3.027,5.751c3.065,2.234-2.381,2.889-1.513,6.661s.128,2.725-.428,6.356" transform="translate(-1990.34 -448.884)" fill="#a7d9f8"/>
      </g>
    </g>
    <path id="Trazado_729110" data-name="Trazado 729110" d="M1817.573,89.014a6.228,6.228,0,0,1-.542-6.715,5.97,5.97,0,0,1,6.01-2.938c3.785.571,7.686,4.862,11.62,2.4.132-.083.01-.3-.123-.212-2.657,1.665-5.634-.033-8.095-1.238-1.947-.953-4.024-1.676-6.167-.953a6.318,6.318,0,0,0-2.912,9.785c.094.124.3,0,.209-.125" transform="translate(-7343.716 -10370.843)" fill="#6d2f3b"/>
    <path id="Trazado_729111" data-name="Trazado 729111" d="M1889.139,129.615a4.44,4.44,0,0,1,3.554-.122,4.741,4.741,0,0,0-2.6.757c-1.225.824-.954-.635-.954-.635" transform="translate(-7401.169 -10410.257)" fill="#2d2b4e"/>
    <path id="Trazado_729112" data-name="Trazado 729112" d="M1914.808,214.1c-.224.06-1.372.366-2.924.867.073-.833,2.575-.82,2.924-.867" transform="translate(-7419.081 -10477.073)" fill="#fabba5"/>
    <path id="Trazado_729113" data-name="Trazado 729113" d="M1836.887,150.423c-.646,1.893-7.426,3.29-10.132,3.528-1.783.156-4.519.513-6.016-.579-1.269-.926-4.726-8.714-3.8-12.668a24.777,24.777,0,0,0,.189-6.178c-.462-3.628,2.157-9.549,2.157-9.549,10.435-7.159,19.2,3.441,19.875,7.471s.329,10.342-2.276,17.976" transform="translate(-7344.272 -10405.058)" fill="#fabba5"/>
    <path id="Trazado_729114" data-name="Trazado 729114" d="M1863.062,167.6c.518.1.58-.327.142-.622-1.041-.7-2.337-1.411-5.526-.57-3,.789-2.793,2.5-1.083,2.274,1.5-.2,3.031-1.718,6.468-1.081" transform="translate(-7374.613 -10439.251)" fill="#752d4b"/>
    <path id="Trazado_729115" data-name="Trazado 729115" d="M1818.171,167.816c-.277.046-.3-.886-.065-1.123.548-.562,1.487-.97,2.973-.075,1.632.983,1.454,2.057.526,1.712a5.259,5.259,0,0,0-3.433-.514" transform="translate(-7345.186 -10439.309)" fill="#752d4b"/>
    <path id="Trazado_729116" data-name="Trazado 729116" d="M1874.992,183.684a1.248,1.248,0,1,1-2.495-.052,1.27,1.27,0,0,1,.179-.628,4.324,4.324,0,0,1,1.776-.194c.246.179.443.264.51.573a1.266,1.266,0,0,1,.03.3" transform="translate(-7388.098 -10452.45)" fill="#752d4b"/>
    <path id="Trazado_729117" data-name="Trazado 729117" d="M1867.992,182.946c.185.53-1.024-1.327-3.913-.819a4.964,4.964,0,0,0-2,.975c-.208.157-.219-.1-.029-.275a3.841,3.841,0,0,1,2.5-1.231,4.282,4.282,0,0,1,3.439,1.35" transform="translate(-7379.772 -10451.493)" fill="#752d4b"/>
    <path id="Trazado_729118" data-name="Trazado 729118" d="M1839.061,180.458a2.537,2.537,0,0,1,1.242,2.382,5.127,5.127,0,0,1-1.215,2.85c-.421.561-1.452,1.42-1.1,2.235a1.654,1.654,0,0,0,.885.7,6.667,6.667,0,0,0,1.444.491c.147.033.215-.2.067-.229a6.349,6.349,0,0,1-1.612-.578c-.428-.227-.743-.528-.534-1.061a2.843,2.843,0,0,1,.49-.73,9.166,9.166,0,0,0,1.52-2.346c.537-1.355.334-3.191-1.067-3.917-.134-.069-.258.134-.123.2" transform="translate(-7360.895 -10450.436)" fill="#cf8171"/>
    <path id="Trazado_729119" data-name="Trazado 729119" d="M1841.024,248.518a3.553,3.553,0,0,1,2.38,0c.287.1.42-.359.134-.458a3.986,3.986,0,0,0-2.63-.008c-.284.1-.172.562.116.463" transform="translate(-7363.119 -10503.609)" fill="#ef9f8a"/>
    <path id="Trazado_729120" data-name="Trazado 729120" d="M1846.063,108.54c-1.535,5.138-7.084,7.7-7.084,7.7.579-3.21.965-9.869.2-9.873s-2.911,2.351-2.687,1.17,1.407-2.9-.055-5.476-.1-5.685-.1-5.685l-.034.012-.021.008a6.233,6.233,0,0,1-.929.292l-.011,0a15.835,15.835,0,0,1-3.2.368,31.509,31.509,0,0,1-3.246-.088c-1.169-.091-2.318-.236-3.348-.416a18.929,18.929,0,0,1-2.528-.6,7.559,7.559,0,0,0-1.116-.283,4.554,4.554,0,0,0-.7-.069c-1.477-.02-1.675.882-1.675.882a7.149,7.149,0,0,1-1.112-7.124c1.038-3.438,4.039-6.1,8.488-4.81,4.361,1.262,3.561,1.409,7.832,1.126,9.9-.656,9.6,6.179,9.6,6.179,4.765,2.916,3.277,11.547,1.742,16.685" transform="translate(-7345.161 -10374.901)" fill="#6d2f3b"/>
    <path id="Trazado_729121" data-name="Trazado 729121" d="M1842.363,226.217a3.1,3.1,0,0,1-1.082,1.575,4.021,4.021,0,0,1-2.818,1.12,3.729,3.729,0,0,1-1.785-.588,2.925,2.925,0,0,1-1.373-1.839.905.905,0,0,1-.008-.263.1.1,0,0,1,.021-.057c.047-.079.182-.1.3-.119.461-.074,1.3.166,2.66.249.9.054,2.432-.261,3.346-.313.125-.006.245-.011.35-.006.221,0,.377.037.39.134a.262.262,0,0,1,0,.106" transform="translate(-7358.83 -10486.412)" fill="#e33b58"/>
    <path id="Trazado_729122" data-name="Trazado 729122" d="M1842.075,225.979a5.466,5.466,0,0,1-6.656.235.33.33,0,0,1,0-.045c.048-.079.182-.1.3-.119.461-.074,1.3.166,2.659.249.9.054,2.433-.261,3.346-.313.124-.006.244-.011.35-.006" transform="translate(-7358.928 -10486.415)" fill="#fff"/>
    <path id="Trazado_729123" data-name="Trazado 729123" d="M1846.392,233.174a4.021,4.021,0,0,1-2.818,1.12,3.731,3.731,0,0,1-1.785-.588,6.987,6.987,0,0,1,3.285-.877,3.387,3.387,0,0,1,1.318.345" transform="translate(-7363.941 -10491.795)" fill="#ff6576"/>
    <path id="Trazado_729124" data-name="Trazado 729124" d="M1826.106,85.124a7.324,7.324,0,0,0-6.663,1.368,5.258,5.258,0,0,0-1.415,5.985c.061.145.269.019.209-.125a5.044,5.044,0,0,1,1.713-5.956,7.175,7.175,0,0,1,6.092-1.035c.152.036.215-.2.064-.237" transform="translate(-7344.93 -10375.413)" fill="#6d2f3b"/>
    <path id="Trazado_729125" data-name="Trazado 729125" d="M1939.142,104.236a5.936,5.936,0,0,1-.865,4.2c-.085.134.125.256.209.124a6.2,6.2,0,0,0,.889-4.393c-.025-.156-.258-.089-.233.066" transform="translate(-7439.828 -10390.525)" fill="#6d2f3b"/>
    <path id="Trazado_729126" data-name="Trazado 729126" d="M1938.363,118.548a11.541,11.541,0,0,1,3.254,1.631c.128.091.248-.122.121-.213a11.77,11.77,0,0,0-3.312-1.656c-.149-.047-.212.191-.064.237" transform="translate(-7439.844 -10401.715)" fill="#6d2f3b"/>
    <path id="Trazado_729127" data-name="Trazado 729127" d="M1849.44,109.374c-2.245-.524-2.5-3.71-2.107-5.6.492-2.349,2.712-2.878,4.763-2.951.155-.006.155-.252,0-.246-2.338.083-4.654.813-5.053,3.464-.3,1.968.035,5.029,2.336,5.565.151.035.215-.2.063-.237" transform="translate(-7368 -10387.772)" fill="#7a3a49"/>
    <path id="Trazado_729128" data-name="Trazado 729128" d="M1859.885,115.049a5.445,5.445,0,0,0-2.784,2.5,4.354,4.354,0,0,0-.1,3.263c.052.148.286.083.233-.066a4.116,4.116,0,0,1,.2-3.327,5.466,5.466,0,0,1,2.573-2.16c.14-.071.016-.283-.123-.212" transform="translate(-7375.694 -10399.142)" fill="#7a3a49"/>
    <path id="Trazado_729129" data-name="Trazado 729129" d="M1904.292,127.487a21.246,21.246,0,0,0,4.869-3.348c.116-.106-.056-.279-.172-.173a21.017,21.017,0,0,1-4.82,3.31c-.14.07-.017.282.123.212" transform="translate(-7412.963 -10406.143)" fill="#7a3a49"/>
    <path id="Trazado_729130" data-name="Trazado 729130" d="M1824.714,183.135a2.881,2.881,0,0,0-1.785-1.161,1.263,1.263,0,0,0-.513.069,8.1,8.1,0,0,0-1.1.729c-.147.095,1.723-2.605,3.253-.131.052.084.1.174.156.272s.113.222.168.345c.135.3.052.157-.183-.123" transform="translate(-7347.832 -10451.5)" fill="#752d4b"/>
    <path id="Trazado_729131" data-name="Trazado 729131" d="M1829.354,183.944a1.312,1.312,0,0,1-.015.222.8.8,0,0,1-.3.536,1.194,1.194,0,0,1-.978.166,1.319,1.319,0,0,1-.712-.493,1.055,1.055,0,0,1,0-1.12c.073-.092.145-.185.2-.25l.079-.1.855.165.489.322.192.253.03.027c.051.084.1.174.156.272" transform="translate(-7352.457 -10452.532)" fill="#752d4b"/>
    <path id="Trazado_729132" data-name="Trazado 729132" d="M1838.634,187.72c8.38-1.375-2.987,14.045-7.5,16.111s-8.822,2.486-10.947.566-3.158-9.746-2.93-10.276,4.389-4.281,5.841-3.677c1.216.506,2.9,3.921,8.035,1.512,2.732-1.282,5.162-3.852,7.5-4.236" transform="translate(-7344.62 -10456.251)" fill="#52ceb5"/>
    <g id="Grupo_1030407" data-name="Grupo 1030407" transform="translate(-5530.696 -10272.704)">
      <g id="Grupo_1030406" data-name="Grupo 1030406" clip-path="url(#clip-path-8)">
        <path id="Trazado_729133" data-name="Trazado 729133" d="M1801.857,171.26c.184-1.192,6.91-4.659,18.762-1.452a2.249,2.249,0,0,1,1.637,2.268,33.184,33.184,0,0,1-.579,6.012c-.484,1.191-6.729.949-8.2-.693s-2.1-4.534-3.244-4.144-1.163,4.169-2.2,5.063c-.7.605-2.519.726-3.618.741a1.422,1.422,0,0,1-1.309-.826,11.686,11.686,0,0,1-1.25-6.969" transform="translate(-1801.737 -168.482)" fill="#fff"/>
      </g>
    </g>
    <path id="Trazado_729134" data-name="Trazado 729134" d="M1801.78,177.27a11.962,11.962,0,0,1-1.274-7.141c.051-.331.365-.69.931-1.065,2.209-1.462,8.527-3.24,18.19-.625a2.556,2.556,0,0,1,1.852,2.564,31.851,31.851,0,0,1-.6,6.112c-.158.389-.645.651-1.487.8-2.062.366-5.989-.064-7.191-1.409a11.744,11.744,0,0,1-1.487-2.337c-.512-.968-1-1.882-1.452-1.726s-.747,1.317-1,2.342a5.531,5.531,0,0,1-1.1,2.667c-.741.637-2.476.792-3.8.81h-.023a1.721,1.721,0,0,1-1.551-.993m9.442-3.378a11.343,11.343,0,0,0,1.406,2.221c.958,1.07,4.566,1.6,6.664,1.225.693-.123,1-.317,1.052-.447a30.323,30.323,0,0,0,.557-5.912,1.965,1.965,0,0,0-1.423-1.972c-11.855-3.208-17.492.395-17.726.55-.505.334-.663.581-.676.664a11.419,11.419,0,0,0,1.225,6.8,1.116,1.116,0,0,0,1.045.659,6.4,6.4,0,0,0,3.435-.671,5.6,5.6,0,0,0,.917-2.363c.321-1.284.623-2.5,1.38-2.754a.967.967,0,0,1,.313-.055c.74,0,1.251.964,1.831,2.059" transform="translate(-7331.368 -10440.102)" fill="#383463"/>
    <path id="Trazado_729135" data-name="Trazado 729135" d="M1905.655,189.068s2.444-3.644,4.628-1.924-.153,4.766-1.032,5.935c-.941,1.251-1.472,1.25-3.077.806s-.52-4.817-.52-4.817" transform="translate(-7413.898 -10455.503)" fill="#fabba5"/>
    <path id="Trazado_729136" data-name="Trazado 729136" d="M1908.872,193.538a1.7,1.7,0,0,0,2.53.345,4.855,4.855,0,0,0,1.16-1.364,12.149,12.149,0,0,0,1.035-1.9c.459-1.116.692-2.649-.357-3.507a2.431,2.431,0,0,0-3.3.415c-.113.118.061.3.175.185a2.168,2.168,0,0,1,3.076-.309c.922.888.52,2.4.048,3.414a9.434,9.434,0,0,1-1.61,2.528c-.647.67-1.976,1.1-2.533.065a.127.127,0,0,0-.22.125" transform="translate(-7416.698 -10455.467)" fill="#ef9f8a"/>
    <path id="Trazado_729137" data-name="Trazado 729137" d="M1913.178,192.1a1.871,1.871,0,0,0-.97.713,1.331,1.331,0,0,0-.058,1.188c.218.828-.608.976-1.025,1.491a.865.865,0,0,0-.127.99.127.127,0,0,0,.22-.125c-.431-.786,1.084-1.2,1.234-1.914.063-.3-.092-.5-.157-.778-.156-.66.411-1.11.944-1.317.15-.058.09-.307-.062-.248" transform="translate(-7418.303 -10459.76)" fill="#ef9f8a"/>
    <path id="Trazado_729138" data-name="Trazado 729138" d="M1533.241,327.9s2.549-3.338,1.307-6.136-4.491-9.664-5.729-9.487.636,3.708-.442,4.616c0,0-3.294-3.16-5.871-2.476s-4.787,4.365-4.563,6.722c.651,6.853,14.789,12.906,14.789,12.906Z" transform="translate(-7109.177 -10554.298)" fill="#3cb198"/>
    <path id="Trazado_729139" data-name="Trazado 729139" d="M1635.148,310.686s-12.969,26.152-15.412,28.6a87.344,87.344,0,0,1-11.761,15.656,69.017,69.017,0,0,1-14.385,11.823c-8.371,5.046-16.078,4.986-20.126,3.473l-.1-.037c-14.318-5.656-18.222-38.814-17.883-40.534,1.787-9.043,8.649-11.094,8.649-11.094,7.112,11.036,15.25,25.908,16.332,25.88,2.105-.055,16.984-21.616,23.754-29.011,7.362-8.032,21.907-6.733,30.932-4.761" transform="translate(-7138.702 -10551.878)" fill="#bfdeff"/>
    <path id="Trazado_729140" data-name="Trazado 729140" d="M1672.5,472.751a16.345,16.345,0,0,1,3.54,3.354c.729.946,1.691,2.107,1.732,3.356.006.18-.272.172-.279-.007-.045-1.357-1.34-2.815-2.171-3.784a16.283,16.283,0,0,0-2.971-2.678c-.145-.1,0-.343.148-.24" transform="translate(-7230.607 -10680.519)" fill="#63a3f4"/>
    <g id="Grupo_1030413" data-name="Grupo 1030413" transform="translate(-5565.239 -10205.495)">
      <g id="Grupo_1030412" data-name="Grupo 1030412" clip-path="url(#clip-path-9)">
        <g id="Grupo_1030411" data-name="Grupo 1030411" opacity="0.3">
          <g id="Grupo_1030410" data-name="Grupo 1030410">
            <g id="Grupo_1030409" data-name="Grupo 1030409" clip-path="url(#clip-path-9)">
              <path id="Trazado_729141" data-name="Trazado 729141" d="M1672.448,483.641a82.968,82.968,0,0,1,1.358,8.99,63.49,63.49,0,0,1-13.837,11.247c-8.371,5.046-16.078,4.986-20.126,3.472,1.674-1.874,6.183-2.218,13.474-4.264,12.28-3.447,18.647-21.405,19.13-19.446" transform="translate(-1639.843 -483.492)" fill="#4b83db"/>
            </g>
          </g>
        </g>
      </g>
    </g>
    <path id="Trazado_729142" data-name="Trazado 729142" d="M1673.851,473.66a40.321,40.321,0,0,1,2.23,5.384c.067.2-.235.344-.3.141a40.38,40.38,0,0,0-2.23-5.384c-.1-.19.207-.331.3-.141" transform="translate(-7231.581 -10681.182)" fill="#63a3f4"/>
    <path id="Trazado_729143" data-name="Trazado 729143" d="M1548.625,286.056s4.45-6.383,3.93-8.009-2.287.921-3.332-.2-2.007-2.62-3.235-1.523-1.272.646-2.223-.453-2.361,2.568-1.315,5.634,6.175,4.55,6.175,4.55" transform="translate(-7128.177 -10525.508)" fill="#66619e"/>
    <path id="Trazado_729144" data-name="Trazado 729144" d="M1398.681,395.147a31.014,31.014,0,0,0,3.422,4.261c15.983,16.607,44.29,6.825,51.341-5.892q.415-.748.771-1.505c12.678-26.815-27.772-60.883-27.772-60.883l-1.572,4.226c-14.6,16.742-35.547,45.83-26.191,59.793" transform="translate(-7013.543 -10569.13)" fill="#727997"/>
    <path id="Trazado_729145" data-name="Trazado 729145" d="M1521.794,366.105s3.923,7.1,3.507,7.955-4.9-5.769-6.142-6-.31,3.039-1.382,2.911-1.611-5.056-2.414-2.916-1.875,12.19-3.417,9.623,1.351-10.123.94-10.1-2.862,3-4.241,4.063.456-3.592,1.992-5.88,11.157.345,11.157.345" transform="translate(-7101.492 -10595.64)" fill="#514f8c"/>
    <path id="Trazado_729146" data-name="Trazado 729146" d="M1423.292,604.956c15.983,16.607,44.29,6.825,51.341-5.892q.415-.748.771-1.505a13.264,13.264,0,0,0-.289-4.144,1.321,1.321,0,0,0-2.406-.357,51.135,51.135,0,0,0-3.267,7.636,6.59,6.59,0,0,1-1.352,2.293,2.512,2.512,0,0,1-2.442.728,1.7,1.7,0,0,1-.975-.878,1,1,0,0,0-1.61-.31,12.158,12.158,0,0,0-1.643,2.216c-.834,1.307-1.994,2.7-3.546,2.682-2.047-.018-3.132-2.324-4.114-4.122a15.9,15.9,0,0,0-3.833-4.641,3.448,3.448,0,0,0-2.5-.821c-2.2.209-2.678,2.444-2.352,4.219.333,1.809,1.273,3.519.783,5.428a2.542,2.542,0,0,1-1.593,1.824c-1.284.434-2.272-.484-3.314-1.063-.867-.484-2.152-.653-2.7.179-.2.307-.25.689-.436,1.006a2.1,2.1,0,0,1-2.621.5c-1.764-.743-2.81-2.523-3.889-4.1-1.19-1.739-2.855-3.513-5.056-3.215a3.862,3.862,0,0,0-2.966,2.339h0" transform="translate(-7034.732 -10774.679)" fill="#514f8c"/>
    <path id="Trazado_729147" data-name="Trazado 729147" d="M1539.129,298.19c-2.635-2.168-3.966-2.438-5.027-1.163s-.644,1.986,1.991,4.155,5.68,4.306,6.742,3.032-1.071-3.855-3.705-6.023" transform="translate(-7121.475 -10541.702)" fill="#52ceb5"/>
    <path id="Trazado_729148" data-name="Trazado 729148" d="M1526.313,311.31c-3.225-2.654-4.763-3.094-5.825-1.82s-.51,2.1,2.715,4.751,6.912,5.32,7.974,4.046-1.639-4.323-4.864-6.977" transform="translate(-7110.805 -10551.569)" fill="#52ceb5"/>
    <path id="Trazado_729149" data-name="Trazado 729149" d="M1518.531,325.534c-3.061-2.518-4.541-2.911-5.6-1.636s-.547,2.066,2.513,4.585,6.569,5.037,7.63,3.763-1.481-4.193-4.541-6.711" transform="translate(-7104.848 -10562.888)" fill="#52ceb5"/>
    <path id="Trazado_729150" data-name="Trazado 729150" d="M1513.354,340.088c-2.2-1.81-3.318-2.026-4.223-.939s-.561,1.685,1.639,3.5,4.745,3.59,5.65,2.5-.867-3.25-3.066-5.06" transform="translate(-7101.891 -10574.921)" fill="#52ceb5"/>
    <path id="Trazado_729151" data-name="Trazado 729151" d="M1541.455,315.765l-5.5-4.14c-.174-.131.039-.386.212-.256l5.5,4.14c.174.131-.039.386-.213.256" transform="translate(-7123.304 -10553.56)" fill="#3cb198"/>
    <path id="Trazado_729152" data-name="Trazado 729152" d="M1529.855,328.729a66.112,66.112,0,0,1-7.64-5.993c-.16-.145.051-.4.213-.256a66.065,66.065,0,0,0,7.64,5.993c.18.121-.033.376-.213.256" transform="translate(-7112.505 -10562.294)" fill="#3cb198"/>
    <path id="Trazado_729153" data-name="Trazado 729153" d="M1522.08,343.278a47.714,47.714,0,0,1-6.122-4.947c-.156-.149.055-.406.212-.256a47.717,47.717,0,0,0,6.122,4.947c.179.122-.034.377-.213.256" transform="translate(-7107.585 -10574.56)" fill="#3cb198"/>
    <path id="Trazado_729154" data-name="Trazado 729154" d="M1523.532,500.108v-.664a5.151,5.151,0,0,1-1.926-.457,7.533,7.533,0,0,0-.806,1.329,5.176,5.176,0,0,1,1.319,1.1l.85-.552h0a1.1,1.1,0,0,1,.562-.756m-.179,4.648a5.118,5.118,0,0,1-1.534,3.659,7.606,7.606,0,0,0,12.05-.43,5.135,5.135,0,0,1-9.13-3.228c0-.135.005-.269.016-.4a5.086,5.086,0,0,1,.657-2.139l-.593-.342a1.1,1.1,0,0,1-1.6-.076l-.561.365a5.091,5.091,0,0,1,.689,2.238c.008.116.012.235.012.354m11.656,0a5.107,5.107,0,0,1-.255,1.6,7.606,7.606,0,0,0-6.174-10.343,5.109,5.109,0,0,1-2.272,2.743l-.015.009a5.117,5.117,0,0,1-1.843.634v.652a1.1,1.1,0,0,1,.7.957l.784.454a5.134,5.134,0,0,1,9.072,3.3" transform="translate(-7111.438 -10698.838)" fill="#252346"/>
    <path id="Trazado_729155" data-name="Trazado 729155" d="M1483.871,506.684a5.136,5.136,0,0,1,7.465-6.034,5.178,5.178,0,0,1,1.319,1.1l.85-.553h0a1.1,1.1,0,0,1,.562-.755v-.664a5.141,5.141,0,0,1-4.61-3.339,7.611,7.611,0,0,0-5.587,10.244m.885,1.628a7.6,7.6,0,0,0,12.05.438,5.116,5.116,0,0,1-1.532-3.66c0-.134.005-.268.016-.4a5.088,5.088,0,0,1,.656-2.139l-.593-.342a1.1,1.1,0,0,1-1.6-.076l-.561.366a5.089,5.089,0,0,1,.689,2.238c.008.116.012.234.012.353a5.135,5.135,0,0,1-9.132,3.222m13.073-7.66a7.589,7.589,0,0,0-.986-1.561l-.015.009a5.122,5.122,0,0,1-1.844.633v.652a1.1,1.1,0,0,1,.7.957l.784.454a5.144,5.144,0,0,1,1.357-1.145" transform="translate(-7081.972 -10699.173)" fill="#252346"/>
    <path id="Trazado_729156" data-name="Trazado 729156" d="M1499.2,472.262a7.53,7.53,0,0,0,.607,2.584,5.132,5.132,0,0,1,5.311,1.6l.85-.553h0a1.1,1.1,0,0,1,.562-.756v-.664a5.136,5.136,0,0,1-.842-10.159,7.611,7.611,0,0,0-6.489,7.947m7.012,4.567-.561.365a5.091,5.091,0,0,1,.689,2.239,7.534,7.534,0,0,0,1.413-.046,5.089,5.089,0,0,1,.657-2.139l-.593-.342a1.1,1.1,0,0,1-1.6-.076m1.939-.79.784.454a5.142,5.142,0,0,1,4.889-1.751,7.605,7.605,0,0,0-6.283-10.469,5.135,5.135,0,0,1,1.765,9.515l-.015.009a5.121,5.121,0,0,1-1.844.633v.652a1.1,1.1,0,0,1,.7.957" transform="translate(-7094.439 -10673.869)" fill="#252346"/>
    <path id="Trazado_729157" data-name="Trazado 729157" d="M1517.057,492.531a4.59,4.59,0,0,0,1.434,1.3,4.208,4.208,0,0,1,4.817-.126,4.586,4.586,0,0,0,1.365-1.368,6.116,6.116,0,0,0-7.616.2" transform="translate(-7108.493 -10694.972)" fill="#252346"/>
    <path id="Trazado_729158" data-name="Trazado 729158" d="M1510.608,522.021a4.591,4.591,0,0,0,.362-1.9,4.208,4.208,0,0,1-2.611-4.05,4.586,4.586,0,0,0-1.879-.456,6.116,6.116,0,0,0,4.127,6.4" transform="translate(-7100.147 -10714.259)" fill="#252346"/>
    <path id="Trazado_729159" data-name="Trazado 729159" d="M1547.238,515.2a4.592,4.592,0,0,0-1.855.541,4.209,4.209,0,0,1-2.42,4.167,4.587,4.587,0,0,0,.449,1.88,6.116,6.116,0,0,0,3.826-6.589" transform="translate(-7128.871 -10713.929)" fill="#252346"/>
    <path id="Trazado_729160" data-name="Trazado 729160" d="M1790.265,487.87c-.761-6.257-1.26-12.545-1.944-18.811-.633-5.8-1.153-11.818-2.83-17.421-.061-.2.258-.271.318-.069,1.677,5.6,2.2,11.623,2.83,17.422.684,6.266,1.183,12.554,1.944,18.811.026.21-.293.28-.318.069" transform="translate(-7319.648 -10663.778)" fill="#63a3f4"/>
    <path id="Trazado_729161" data-name="Trazado 729161" d="M1779.735,460.36a11.347,11.347,0,0,0-2.836-2.948c-.17-.123.01-.4.181-.275a11.792,11.792,0,0,1,2.945,3.073c.117.176-.175.324-.29.15" transform="translate(-7312.842 -10668.23)" fill="#63a3f4"/>
    <path id="Trazado_729162" data-name="Trazado 729162" d="M1948.451,633.836s-.023-6.882-1.226-7.794-1.187,1.828-2.513,1.549-2.784-.876-3.115.542-.592,1.114-1.839.8-.4,3.058,1.912,4.746,6.781.154,6.781.154" transform="translate(-7440.556 -10800.977)" fill="#66619e"/>
    <path id="Trazado_729163" data-name="Trazado 729163" d="M1905.68,730.361a27.432,27.432,0,0,0,3.684,3.129c16.654,11.753,39.6-1.471,43.6-13.693q.236-.719.418-1.436c6.531-25.4-34.288-48.236-34.288-48.236l-.659,3.933c-9.887,16.979-23.216,45.739-12.759,56.3" transform="translate(-7411.202 -10835.802)" fill="#66619e"/>
    <path id="Trazado_729164" data-name="Trazado 729164" d="M1978.949,698.45s4.592,5.507,4.375,6.323-5.215-4.193-6.337-4.187.238,2.691-.714,2.759-2.244-4.122-2.584-2.129.408,10.9-1.36,8.928-.517-9.017-.87-8.928-1.985,3.081-3,4.237-.2-3.2.748-5.439,9.747-1.564,9.747-1.564" transform="translate(-7463.21 -10858.007)" fill="#514f8c"/>
    <path id="Trazado_729165" data-name="Trazado 729165" d="M1937,895.782c16.654,11.753,39.6-1.471,43.6-13.693q.236-.719.418-1.436a11.723,11.723,0,0,0-.944-3.551,1.168,1.168,0,0,0-2.149.092,45.259,45.259,0,0,0-1.562,7.177,5.822,5.822,0,0,1-.792,2.217,2.22,2.22,0,0,1-2,1.04,1.506,1.506,0,0,1-.993-.6.889.889,0,0,0-1.45,0,10.765,10.765,0,0,0-1.057,2.2c-.506,1.275-1.281,2.676-2.631,2.921-1.781.326-3.109-1.495-4.261-2.892a14.059,14.059,0,0,0-4.1-3.39,3.05,3.05,0,0,0-2.3-.3c-1.874.549-1.917,2.57-1.338,4.057.592,1.515,1.693,2.843,1.587,4.583a2.249,2.249,0,0,1-1.079,1.85c-1.042.591-2.054-.041-3.056-.369-.834-.275-1.979-.208-2.311.606-.122.3-.1.64-.21.946a1.857,1.857,0,0,1-2.193.873c-1.656-.351-2.861-1.722-4.063-2.915-1.324-1.311-3.066-2.574-4.928-1.948a3.415,3.415,0,0,0-2.185,2.526h0" transform="translate(-7438.836 -10998.095)" fill="#514f8c"/>
    <path id="Trazado_729166" data-name="Trazado 729166" d="M2016.594,721.916a83.145,83.145,0,0,1,6.69,12.224c.066.149-.154.279-.22.129a83.166,83.166,0,0,0-6.69-12.223c-.091-.137.13-.265.22-.129" transform="translate(-7501.26 -10876.496)" fill="#514f8c"/>
    <path id="Trazado_729167" data-name="Trazado 729167" d="M2011.018,724.429l1.465,4.5c.051.156-.2.223-.246.068l-1.465-4.5c-.051-.156.2-.223.246-.068" transform="translate(-7496.865 -10878.45)" fill="#514f8c"/>
    <path id="Trazado_729168" data-name="Trazado 729168" d="M1967.114,737.24l-2.187,7.476a.128.128,0,0,1-.246-.068l2.186-7.476a.128.128,0,0,1,.246.068" transform="translate(-7460.609 -10888.473)" fill="#514f8c"/>
    <path id="Trazado_729169" data-name="Trazado 729169" d="M1960.11,737.326a11.535,11.535,0,0,1-2.123,3.842c-.105.126-.285-.055-.18-.181a11.163,11.163,0,0,0,2.058-3.729c.051-.155.3-.089.246.068" transform="translate(-7455.181 -10888.542)" fill="#514f8c"/>
    <path id="Trazado_729170" data-name="Trazado 729170" d="M1955.548,641.875s-3.553-2.672-6.614-2.717c-2.1-.031-3.261-1.166-4.1,0a4.042,4.042,0,0,0-.689,2.711c-.4.708-5.318,1.735-7.35,2.309-1.073.3-3.154,2.259-1.412,3.646a5.03,5.03,0,0,1,1.7,2.357c.488,1.36,3.154,1.353,3.346,2.192.442,1.93,3.183,1.13,6.438.7,3.2-.426,6.454-1.436,8.073-3.022s.609-8.173.609-8.173" transform="translate(-7437.037 -10811.028)" fill="#52ceb5"/>
    <path id="Trazado_729171" data-name="Trazado 729171" d="M2021.984,565.756s12.467-6.961,22.3-13.563c9.046-6.073,10.653-14.516,10.88-17.148a1.977,1.977,0,0,0-1.289-2.041c-3.07-1.1-11.065-3.307-16.14,1.266-6.385,5.755-8.173,9.263-13.248,13.376-3.057,2.477-7.843,6.039-8.132,7.392s.062,3.063-.027,4.755,4.535,6.329,5.657,5.964" transform="translate(-7501.17 -10726.749)" fill="#bfdeff"/>
    <g id="Grupo_1030416" data-name="Grupo 1030416" transform="translate(-5466.844 -10192.217)">
      <g id="Grupo_1030415" data-name="Grupo 1030415" clip-path="url(#clip-path-11)">
        <path id="Trazado_729172" data-name="Trazado 729172" d="M2101.419,548.406s3.97-2.64,8.213-1.838c0,0-4.685-1.79-8.607-.143a2.819,2.819,0,0,1,.395,1.981" transform="translate(-2101.023 -545.729)" fill="#4b83db"/>
      </g>
    </g>
    <path id="Trazado_729173" data-name="Trazado 729173" d="M2102.288,550.5a13.428,13.428,0,0,1,9.978-1.654c.157.034.091.278-.066.244a13.145,13.145,0,0,0-9.786,1.628c-.138.083-.264-.135-.126-.219" transform="translate(-7568.814 -10740.144)" fill="#63a3f4"/>
    <path id="Trazado_729174" data-name="Trazado 729174" d="M2102.422,556.092a13.81,13.81,0,0,1,4.851-.381c.158.015.16.269,0,.253a13.645,13.645,0,0,0-4.785.372.127.127,0,0,1-.066-.244" transform="translate(-7568.897 -10745.745)" fill="#63a3f4"/>
    <path id="Trazado_729175" data-name="Trazado 729175" d="M2024.754,618.059a15.024,15.024,0,0,1-4.368,2.486c-.629.222-.865.375-1.4.17a7.334,7.334,0,0,1-1.758-1.375c-2.223-2.016-4.008-4.992-3.542-8.129.377-2.533,2.028-3.667,3.864-5.093,2.064-1.6,4.075-3.292,6.046-5.013.193-.168.474.116.28.285-1.463,1.277-2.958,2.516-4.462,3.742a38.866,38.866,0,0,0-3.884,3.048c-2.311,2.47-1.68,6.177.087,8.745.778,1.131,2.373,3.175,3.755,3.355,1.633.213,3.876-1.53,5.1-2.507.2-.159.481.125.28.285" transform="translate(-7499.104 -10781.467)" fill="#63a3f4"/>
    <path id="Trazado_729176" data-name="Trazado 729176" d="M2007.781,824.492l-.119-.575a4.555,4.555,0,0,1-1.75-.051,6.666,6.666,0,0,0-.46,1.3,4.574,4.574,0,0,1,1.34.718l.637-.631h0a.973.973,0,0,1,.351-.755m.677,4.057a4.529,4.529,0,0,1-.673,3.443,6.726,6.726,0,0,0,10.358-2.53,4.542,4.542,0,0,1-8.485-1.161c-.024-.116-.043-.233-.058-.349a4.5,4.5,0,0,1,.186-1.97l-.575-.19a.976.976,0,0,1-1.4.221l-.421.417a4.507,4.507,0,0,1,1,1.815c.027.1.052.2.073.3m10.1-2.084a4.521,4.521,0,0,1,.066,1.429,6.726,6.726,0,0,0-7.2-7.852,4.52,4.52,0,0,1-1.477,2.782l-.011.01a4.528,4.528,0,0,1-1.483.879l.117.565a.976.976,0,0,1,.781.7l.76.253a4.54,4.54,0,0,1,8.448,1.231" transform="translate(-7492.687 -10953.713)" fill="#252346"/>
    <path id="Trazado_729177" data-name="Trazado 729177" d="M1976.176,838.482a4.543,4.543,0,0,1,5.385-6.563,4.583,4.583,0,0,1,1.34.718l.637-.631h0a.975.975,0,0,1,.351-.755l-.119-.575a4.548,4.548,0,0,1-4.59-2.066,6.731,6.731,0,0,0-3,9.873m1.058,1.252a6.723,6.723,0,0,0,10.514-1.778,4.525,4.525,0,0,1-1.982-2.9q-.036-.175-.058-.349a4.492,4.492,0,0,1,.185-1.97l-.575-.19a.976.976,0,0,1-1.4.222l-.421.417a4.51,4.51,0,0,1,1,1.816q.041.149.073.3a4.541,4.541,0,0,1-7.332,4.426m9.95-8.975a6.719,6.719,0,0,0-1.134-1.175l-.011.01a4.538,4.538,0,0,1-1.483.879l.117.565a.976.976,0,0,1,.781.7l.761.252a4.565,4.565,0,0,1,.97-1.235" transform="translate(-7468.793 -10960.472)" fill="#252346"/>
    <path id="Trazado_729178" data-name="Trazado 729178" d="M1983.37,804.311a6.661,6.661,0,0,0,.989,2.129,4.539,4.539,0,0,1,4.887.436l.637-.631h0a.975.975,0,0,1,.351-.755l-.119-.575a4.542,4.542,0,0,1-2.549-8.648,6.732,6.732,0,0,0-4.2,8.044m6.891,2.7-.421.417a4.509,4.509,0,0,1,1,1.815,6.636,6.636,0,0,0,1.216-.293,4.5,4.5,0,0,1,.186-1.97l-.575-.19a.976.976,0,0,1-1.4.221m1.538-1.031.76.252a4.547,4.547,0,0,1,3.921-2.392,6.726,6.726,0,0,0-7.316-7.942,4.541,4.541,0,0,1,3.232,7.925l-.012.01a4.524,4.524,0,0,1-1.483.879l.117.565a.976.976,0,0,1,.781.7" transform="translate(-7475.14 -10934.711)" fill="#252346"/>
    <path id="Trazado_729179" data-name="Trazado 729179" d="M1998.922,821.3a4.059,4.059,0,0,0,1.474.865,3.723,3.723,0,0,1,4.149-.972,4.054,4.054,0,0,0,.937-1.43,5.409,5.409,0,0,0-6.56,1.536" transform="translate(-7487.549 -10953.106)" fill="#252346"/>
    <path id="Trazado_729180" data-name="Trazado 729180" d="M1997.771,850.755a4.063,4.063,0,0,0-.026-1.709,3.723,3.723,0,0,1-2.986-3.04,4.05,4.05,0,0,0-1.709-.058,5.409,5.409,0,0,0,4.721,4.807" transform="translate(-7482.93 -10974.061)" fill="#252346"/>
    <path id="Trazado_729181" data-name="Trazado 729181" d="M2031.282,835.722a4.058,4.058,0,0,0-1.51.8,3.722,3.722,0,0,1-1.349,4.042,4.048,4.048,0,0,0,.725,1.548,5.408,5.408,0,0,0,2.133-6.391" transform="translate(-7510.756 -10966.067)" fill="#252346"/>
    <path id="Trazado_729182" data-name="Trazado 729182" d="M1305.565,1359.952h-4.06a2.643,2.643,0,0,1-2.643-2.643v-14.323a2.643,2.643,0,0,1,2.643-2.643h4.06a2.643,2.643,0,0,1,2.643,2.643v14.323a2.643,2.643,0,0,1-2.643,2.643" transform="translate(-6936.851 -11363.025)" fill="#39364b"/>
    <path id="Trazado_729183" data-name="Trazado 729183" d="M1688.545,1359.952h-4.06a2.643,2.643,0,0,1-2.643-2.643v-14.323a2.643,2.643,0,0,1,2.643-2.643h4.06a2.643,2.643,0,0,1,2.643,2.643v14.323a2.643,2.643,0,0,1-2.643,2.643" transform="translate(-7238.12 -11363.025)" fill="#39364b"/>
    <path id="Trazado_729184" data-name="Trazado 729184" d="M1353.9,882.137h-66.643a6.144,6.144,0,0,1-6.118-5.574l-12.763-136.914a6.144,6.144,0,0,1,6.117-6.714h88.821a6.144,6.144,0,0,1,6.13,6.566l-9.415,136.914a6.144,6.144,0,0,1-6.13,5.723" transform="translate(-6912.846 -10885.21)" fill="#ffa031"/>
    <path id="Trazado_729185" data-name="Trazado 729185" d="M1352.665,724.455H1250.053a2.8,2.8,0,0,1-2.8-2.8v-7.65a2.8,2.8,0,0,1,2.8-2.8h102.612a2.8,2.8,0,0,1,2.8,2.8v7.65a2.8,2.8,0,0,1-2.8,2.8" transform="translate(-6896.255 -10868.121)" fill="#ffa031"/>
    <path id="Trazado_729186" data-name="Trazado 729186" d="M1283.661,773.291s56.359,8.435,89.8.417Z" transform="translate(-6924.893 -10916.956)" fill="#ff4f67"/>
    <path id="Trazado_729187" data-name="Trazado 729187" d="M1656.679,861.758a49.634,49.634,0,0,0-4.2,11.644c-.09.4.527.573.617.17a48.927,48.927,0,0,1,4.14-11.491c.186-.366-.366-.691-.553-.323" transform="translate(-7215.011 -10986.421)" fill="#ff4f67"/>
    <path id="Trazado_729188" data-name="Trazado 729188" d="M1659.984,906.354a31.965,31.965,0,0,0-3.108,8.694c-.081.4.536.574.617.17a31.354,31.354,0,0,1,3.044-8.541c.193-.364-.359-.688-.553-.323" transform="translate(-7218.474 -11021.503)" fill="#ff4f67"/>
    <path id="Trazado_729189" data-name="Trazado 729189" d="M1379.991,1296.2q5.164-9.619,11.137-18.766c.226-.346-.328-.667-.553-.323q-5.969,9.141-11.137,18.766c-.195.363.357.687.553.323" transform="translate(-7000.203 -11313.165)" fill="#ff4f67"/>
    <path id="Trazado_729190" data-name="Trazado 729190" d="M1418.19,1317.868l2.233-3.124c.24-.336-.315-.656-.553-.323l-2.233,3.124c-.24.336.315.656.553.323" transform="translate(-7030.238 -11342.523)" fill="#ff4f67"/>
    <path id="Trazado_729191" data-name="Trazado 729191" d="M1457.995,1007.113h0l1.172.762a7.137,7.137,0,0,1,1.819-1.518,10.4,10.4,0,0,0-1.11-1.832,7.1,7.1,0,0,1-2.655.63v.915a1.519,1.519,0,0,1,.774,1.042m-.513,4.878a7.02,7.02,0,0,1,.951-3.086l-.774-.5a1.521,1.521,0,0,1-2.212.1l-.818.472a7.014,7.014,0,0,1,.9,2.949c.015.182.022.366.022.552a7.078,7.078,0,0,1-12.587,4.446,10.477,10.477,0,0,0,16.61.6,7.056,7.056,0,0,1-2.113-5.044c0-.164.005-.327.016-.487m-10.316-6.471a7.166,7.166,0,0,1,1.311-.121,7.064,7.064,0,0,1,5.429,2.538l1.081-.625a1.521,1.521,0,0,1,.971-1.319v-.9a7.056,7.056,0,0,1-2.541-.874l-.021-.012a7.045,7.045,0,0,1-3.131-3.782,10.49,10.49,0,0,0-8.517,14.254,7.083,7.083,0,0,1,5.418-9.159" transform="translate(-7048.678 -11095.63)" fill="#fff"/>
    <path id="Trazado_729192" data-name="Trazado 729192" d="M1512.614,1011.313a10.487,10.487,0,0,0-8.424-10.281,7.078,7.078,0,0,1-6.356,4.6v.915a1.518,1.518,0,0,1,.774,1.042h0l1.172.762a7.135,7.135,0,0,1,1.819-1.518,7.081,7.081,0,0,1,10.288,8.322,10.46,10.46,0,0,0,.727-3.844m-7.456,8.721a7.08,7.08,0,0,1-7.079-7.079c0-.164.005-.327.016-.487a7.023,7.023,0,0,1,.951-3.085l-.773-.5a1.521,1.521,0,0,1-2.212.1l-.818.472a7.007,7.007,0,0,1,.9,2.949c.015.181.022.366.022.551a7.053,7.053,0,0,1-2.113,5.044,10.485,10.485,0,0,0,16.611-.6,7.063,7.063,0,0,1-5.508,2.633m-10.639-11.62,1.082-.625a1.521,1.521,0,0,1,.971-1.319v-.9a7.057,7.057,0,0,1-2.541-.874l-.021-.012a10.5,10.5,0,0,0-1.36,2.151,7.1,7.1,0,0,1,1.87,1.579" transform="translate(-7089.291 -11096.107)" fill="#fff"/>
    <path id="Trazado_729193" data-name="Trazado 729193" d="M1481.818,958.021a10.435,10.435,0,0,0-3.695-1.284,7.08,7.08,0,0,1,1.489,13.375,7.1,7.1,0,0,1-2.655.63v.915a1.519,1.519,0,0,1,.774,1.042h0l1.172.762a7.135,7.135,0,0,1,1.819-1.518,7.092,7.092,0,0,1,5.5-.688,10.48,10.48,0,0,0-4.407-13.235m-5.578,16.5a1.516,1.516,0,0,1-1.056-.427l-.818.472a7.017,7.017,0,0,1,.9,2.949,10.35,10.35,0,0,0,1.948.065,7.019,7.019,0,0,1,.951-3.085l-.774-.5a1.52,1.52,0,0,1-1.156.531m-.546-2.94v-.9a7.052,7.052,0,0,1-2.541-.874l-.021-.012a7.078,7.078,0,0,1,2.437-13.116,10.481,10.481,0,0,0-8.667,14.429,7.172,7.172,0,0,1,1.31-.121,7.066,7.066,0,0,1,5.429,2.538l1.081-.625a1.521,1.521,0,0,1,.971-1.319" transform="translate(-7068.416 -11061.217)" fill="#fff"/>
    <path id="Trazado_729194" data-name="Trazado 729194" d="M1501.061,995.635a6.332,6.332,0,0,1-1.978,1.785,5.8,5.8,0,0,0-6.64-.176,6.318,6.318,0,0,1-1.881-1.887,8.431,8.431,0,0,1,10.5.278" transform="translate(-7087.65 -11090.308)" fill="#fff"/>
    <path id="Trazado_729195" data-name="Trazado 729195" d="M1525.658,1036.3a6.331,6.331,0,0,1-.5-2.617,5.8,5.8,0,0,0,3.6-5.582,6.316,6.316,0,0,1,2.59-.627,8.431,8.431,0,0,1-5.693,8.826" transform="translate(-7114.865 -11116.905)" fill="#fff"/>
    <path id="Trazado_729196" data-name="Trazado 729196" d="M1476.093,1026.866a6.337,6.337,0,0,1,2.557.747,5.8,5.8,0,0,0,3.333,5.746,6.317,6.317,0,0,1-.62,2.592,8.431,8.431,0,0,1-5.271-9.084" transform="translate(-7076.196 -11116.43)" fill="#fff"/>
    <path id="Trazado_729197" data-name="Trazado 729197" d="M1426.247,932.551h-37.2a10.133,10.133,0,0,1-9-14.795l18.327-35.373a9.978,9.978,0,0,1,8.936-5.471h.065a9.975,9.975,0,0,1,8.937,5.364l18.87,35.373a10.133,10.133,0,0,1-8.94,14.9m-18.867-52.413h-.045a6.8,6.8,0,0,0-6.091,3.73l-18.327,35.373a6.907,6.907,0,0,0,6.133,10.085h37.2a6.908,6.908,0,0,0,6.095-10.159l-18.87-35.373a6.8,6.8,0,0,0-6.092-3.656" transform="translate(-6999.816 -10998.47)" fill="#fff"/>
    <path id="Trazado_729198" data-name="Trazado 729198" d="M937.736,602.9s-.144-3.615,2.116-4.972,7.95-4.589,8.735-3.851-2.284,2.3-1.973,3.472c0,0,3.886-.6,5.364,1.161s1.213,5.447-.111,7c-3.851,4.509-16.814,1.777-16.814,1.777Z" transform="translate(-6650.661 -10775.892)" fill="#3cb198"/>
    <path id="Trazado_729199" data-name="Trazado 729199" d="M801.132,502.115c-.612,1.381-19.777,22.821-32.669,19.72l-.092-.024c-3.6-.936-6.314-5.769-7.537-8.6-.276-.64-.477-1.176-.6-1.544q-.048-.161-.077-.316c-.509-2.938-2.652-53.842-2.652-53.842,7.337,3.077,13.354,5.41,14.568,14.715,1.113,8.565,2.67,26.87,4.126,27.95.749.554,13.847-5.9,24.325-10.16,0,0,3.823,4.844.6,12.1" transform="translate(-6510.998 -10668.547)" fill="#bfdeff"/>
    <path id="Trazado_729200" data-name="Trazado 729200" d="M819.456,656.026a14.09,14.09,0,0,0-4.156.612,5.587,5.587,0,0,0-2.882,1.508c-.094.124.107.256.2.133.7-.935,2.338-1.321,3.4-1.593a14.006,14.006,0,0,1,3.42-.417c.153,0,.169-.243.015-.243" transform="translate(-6554.173 -10824.71)" fill="#63a3f4"/>
    <path id="Trazado_729201" data-name="Trazado 729201" d="M684.281,1421.5v1.321h-6.189l-.712-2.557Z" transform="translate(-6447.964 -11425.896)" fill="#29274f"/>
    <path id="Trazado_729202" data-name="Trazado 729202" d="M685.179,1357.348s2.309,7.021,5.818,9.109c2.83,1.683,8.238,1.936,9.679,5.28a1.128,1.128,0,0,1-.976,1.592H685.179s-5.284-1.558-7.778-1.179-2.375-6.022-1.662-8.388.119-6.414.119-6.414Z" transform="translate(-6446.324 -11376.401)" fill="#52ceb5"/>
    <path id="Trazado_729203" data-name="Trazado 729203" d="M456.191,1401.619l-.192,1.306-6.121-.931-.332-2.636Z" transform="translate(-6268.739 -11409.45)" fill="#29274f"/>
    <path id="Trazado_729204" data-name="Trazado 729204" d="M460.4,1338.618s1.262,7.292,4.428,9.884c2.554,2.09,7.865,3.153,8.8,6.678a1.123,1.123,0,0,1-1.2,1.427l-14.362-2.184s-5-2.336-7.52-2.335-1.472-6.313-.423-8.545,1.051-6.326,1.051-6.326Z" transform="translate(-6268.308 -11360.565)" fill="#52ceb5"/>
    <path id="Trazado_729205" data-name="Trazado 729205" d="M509.65,787.941s5.018,10.092,3.611,27.18c-.866,10.515-2.4,30.307-4.384,50.908-2.423,25.208-1.95,45.992-2.591,46.8-1.126,1.41-16.165-.487-16.165-.487a234.572,234.572,0,0,1-1.509-27.828c0-9.038,1.54-57.466.483-59.719,0,0-3.54,17.3-10.819,41.847-2.747,9.265-21.585,42.8-22.2,45.043a18.42,18.42,0,0,1-7.994-1.566c-1.644-.72-5.425-2.728-6.7-4.047-1.677-1.734,16.323-29.451,19.231-65.526,2.631-32.64,7.537-46.112,9.924-51.961Z" transform="translate(-6262.23 -10928.48)" fill="#bfdeff"/>
    <path id="Trazado_729206" data-name="Trazado 729206" d="M610.805,524.1s-42.4-16.3-41.933-22.23c.068-.873-1.009-3.028-1.261-6.958-.015-.276-.029-.567-.039-.863-.078-2.737.476-12.505.6-16.638.015-.513.024-.942.024-1.257,0-.123,0-.232,0-.32-.044-1.164-.082-2.313-.116-3.432-.223-6.78-3.906-13.812-2.469-17.269,2.766-6.667,6.991-9.621,16.753-11.351,4.468-.794,14.739-.814,26.282,3.412a16.959,16.959,0,0,1,10.819,13.191l.868,5.207s-11.062,39.839-11.314,42.654c-.344,3.836.767,10.567,1.8,15.854" transform="translate(-6359.774 -10657.429)" fill="#bfdeff"/>
    <g id="Grupo_1030419" data-name="Grupo 1030419" transform="translate(-5773.667 -10115.711)">
      <g id="Grupo_1030418" data-name="Grupo 1030418" clip-path="url(#clip-path-12)">
        <path id="Trazado_729207" data-name="Trazado 729207" d="M668.828,904.5a47.812,47.812,0,0,0-5.65,13.473.124.124,0,0,1-.239-.067,48.033,48.033,0,0,1,5.675-13.533.124.124,0,0,1,.214.127" transform="translate(-662.935 -904.313)" fill="#4b83db"/>
      </g>
    </g>
    <g id="Grupo_1030422" data-name="Grupo 1030422" transform="translate(-5768.71 -10112.619)">
      <g id="Grupo_1030421" data-name="Grupo 1030421" clip-path="url(#clip-path-13)">
        <path id="Trazado_729208" data-name="Trazado 729208" d="M688.957,919.03a4.64,4.64,0,0,0-2.547,2.742l-.182-.142a12.941,12.941,0,0,1,4.889-1.248c.159-.009.159.243,0,.251a12.578,12.578,0,0,0-4.764,1.214c-.088.042-.222-.029-.182-.142a4.893,4.893,0,0,1,2.661-2.892c.144-.064.27.152.125.217" transform="translate(-686.164 -918.801)" fill="#4b83db"/>
      </g>
    </g>
    <g id="Grupo_1030425" data-name="Grupo 1030425" transform="translate(-5820.126 -10116.574)">
      <g id="Grupo_1030424" data-name="Grupo 1030424" clip-path="url(#clip-path-14)">
        <path id="Trazado_729209" data-name="Trazado 729209" d="M470.664,900.418c-2.133,6.051-2.122,12.509-2.153,18.854-.015,3.122-.042,6.251-.347,9.361a55.817,55.817,0,0,1-1.844,9.055,22.5,22.5,0,0,0-.894,4.978c-.053,1.457.412,2.892.3,4.338a4,4,0,0,1-1.377,2.489,2.182,2.182,0,0,0-.6,2.5,4.154,4.154,0,0,1,.412,1.857c-.117,1.436-1.07,2.86-1.677,4.12l-2.254,4.68-4.6,9.539L445.4,993.427c-.07.145-.283.018-.214-.127,6.01-12.477,12.172-24.89,18.034-37.439a4.217,4.217,0,0,0,.524-3.19,4.747,4.747,0,0,1-.469-1.741c.068-.948.885-1.545,1.452-2.2,1.181-1.371.616-3,.479-4.616a15.153,15.153,0,0,1,.35-4.35c.642-3.1,1.688-6.062,2.13-9.208a74.2,74.2,0,0,0,.564-9.654c.062-6.9-.153-13.954,2.172-20.548.053-.151.292-.086.238.067" transform="translate(-445.177 -900.266)" fill="#4b83db"/>
      </g>
    </g>
    <g id="Grupo_1030428" data-name="Grupo 1030428" transform="translate(-5769.337 -10103.993)">
      <g id="Grupo_1030427" data-name="Grupo 1030427" clip-path="url(#clip-path-15)">
        <path id="Trazado_729210" data-name="Trazado 729210" d="M683.473,959.357c1.642,21.85.964,43.8.628,65.689q-.142,9.228-.284,18.455a.124.124,0,0,1-.247,0c.336-21.843,1.065-43.728.546-65.572-.147-6.2-.426-12.391-.89-18.572-.012-.161.235-.16.247,0" transform="translate(-683.225 -959.236)" fill="#4b83db"/>
      </g>
    </g>
    <g id="Grupo_1030431" data-name="Grupo 1030431" transform="translate(-5798.313 -10061.498)">
      <g id="Grupo_1030430" data-name="Grupo 1030430" clip-path="url(#clip-path-16)">
        <path id="Trazado_729211" data-name="Trazado 729211" d="M547.643,1158.477a20.945,20.945,0,0,0,5.241,7.473c.119.108-.056.285-.175.178a21.1,21.1,0,0,1-5.28-7.523c-.061-.147.152-.276.214-.127" transform="translate(-547.418 -1158.411)" fill="#4b83db"/>
      </g>
    </g>
    <g id="Grupo_1030434" data-name="Grupo 1030434" transform="translate(-5798.816 -10060.037)">
      <g id="Grupo_1030433" data-name="Grupo 1030433" clip-path="url(#clip-path-17)">
        <path id="Trazado_729212" data-name="Trazado 729212" d="M545.3,1165.341l2.422,6.011c.06.15-.179.215-.238.067l-2.422-6.011c-.06-.15.179-.215.238-.067" transform="translate(-545.057 -1165.257)" fill="#4b83db"/>
      </g>
    </g>
    <g id="Grupo_1030437" data-name="Grupo 1030437" transform="translate(-5764.757 -10050.204)">
      <g id="Grupo_1030436" data-name="Grupo 1030436" clip-path="url(#clip-path-18)">
        <path id="Trazado_729213" data-name="Trazado 729213" d="M704.924,1211.406l3.371,6.228c.077.142-.137.269-.214.127l-3.371-6.228c-.076-.142.137-.268.214-.127" transform="translate(-704.694 -1211.344)" fill="#4b83db"/>
      </g>
    </g>
    <g id="Grupo_1030443" data-name="Grupo 1030443" transform="translate(-5750.163 -10181.274)">
      <g id="Grupo_1030442" data-name="Grupo 1030442" clip-path="url(#clip-path-19)">
        <g id="Grupo_1030441" data-name="Grupo 1030441" opacity="0.3">
          <g id="Grupo_1030440" data-name="Grupo 1030440">
            <g id="Grupo_1030439" data-name="Grupo 1030439" clip-path="url(#clip-path-19)">
              <path id="Trazado_729214" data-name="Trazado 729214" d="M780.633,631.556c-3.6-.936-6.314-5.769-7.537-8.6.527-3.155,1.158-6.633,1.158-6.633s2.034-14.181,3.957-19.211c.62-1.623-2.755,18.657-1.027,23.131,2.35,6.085,3.2,9.166,3.449,11.316" transform="translate(-773.096 -597.017)" fill="#4b83db"/>
            </g>
          </g>
        </g>
      </g>
    </g>
    <path id="Trazado_729215" data-name="Trazado 729215" d="M827.832,655.893a34.751,34.751,0,0,0-4.237,2.691c-.146.108,0,.358.143.249a34.749,34.749,0,0,1,4.237-2.691c.162-.087.018-.336-.143-.249" transform="translate(-6562.936 -10824.592)" fill="#63a3f4"/>
    <path id="Trazado_729216" data-name="Trazado 729216" d="M794.1,584.545a9.9,9.9,0,0,1,2.437-2.605c.147-.109-.013-.348-.161-.238a10.285,10.285,0,0,0-2.531,2.716c-.1.155.156.28.255.127" transform="translate(-6539.562 -10766.222)" fill="#63a3f4"/>
    <path id="Trazado_729217" data-name="Trazado 729217" d="M603.07,579.3a39.426,39.426,0,0,1-21.145-3.069l-2.419-.348s-12.9,20.538-19.616,22.41a37.4,37.4,0,0,0-.691,8.547c.394,11.678-3.694,30.958-3.694,30.958H603.22s-.733-17.687.083-25.345,2.13-32.526,2.13-32.526Z" transform="translate(-6352.091 -10761.663)" fill="#bfdeff"/>
    <path id="Trazado_729218" data-name="Trazado 729218" d="M581.88,592.319a17.385,17.385,0,0,0-4.661,2.274c-.128.089-.007.3.123.213a17.153,17.153,0,0,1,4.6-2.25c.149-.047.085-.285-.064-.238" transform="translate(-6369.13 -10774.591)" fill="#63a3f4"/>
    <path id="Trazado_729219" data-name="Trazado 729219" d="M666.92,289.52a3.592,3.592,0,0,0-2.98.363,3.811,3.811,0,0,1,2.259.318c1.12.558.721-.681.721-.681" transform="translate(-6437.392 -10536.264)" fill="#421c26"/>
    <path id="Trazado_729220" data-name="Trazado 729220" d="M673.774,285.821a3.8,3.8,0,0,1-2.325-2.006,3.943,3.943,0,0,0,2.065,1.021c1.227.169.26.985.26.985" transform="translate(-6443.299 -10531.913)" fill="#421c26"/>
    <path id="Trazado_729221" data-name="Trazado 729221" d="M769.312,305.946s.575,5.045.013,6.49-1.912-5.948-1.912-5.948Z" transform="translate(-6518.789 -10549.322)" fill="#421c26"/>
    <path id="Trazado_729222" data-name="Trazado 729222" d="M684.36,386.735a62.354,62.354,0,0,0,1.615-8.592,21.931,21.931,0,0,0-.6-4.242c.1.033,13.155,4.549,11.358,8.606-.08.181-.155.373-.223.572a17.119,17.119,0,0,0-.728,4.63c-.023.523-.626,3.767-.617,4.262.014.757-11.108-4.262-10.8-5.236" transform="translate(-6453.451 -10602.778)" fill="#fabba5"/>
    <path id="Trazado_729223" data-name="Trazado 729223" d="M689.751,391.785c.054.617-.3,2.891-.326,3.594,2.712,6.312,10.238,6.348,10.345,6.394a17.118,17.118,0,0,1,.728-4.63c-2.907-1.646-9.049-5.543-10.747-5.358" transform="translate(-6457.44 -10616.841)" fill="#ed938b"/>
    <path id="Trazado_729224" data-name="Trazado 729224" d="M688.733,320.367c.437,1.706,6.062,3.324,8.325,3.688,1.491.24,3.772.71,5.093-.168,1.119-.745,4.464-7.415,3.9-10.955a22.946,22.946,0,0,1,.188-5.459c.592-3.173-1.279-8.544-1.279-8.544-8.376-6.907-16.345,1.941-17.137,5.456s-.856,9.1.907,15.982" transform="translate(-6455.764 -10541.784)" fill="#fabba5"/>
    <path id="Trazado_729225" data-name="Trazado 729225" d="M713.628,335.06c-.441.055-.47-.321-.085-.557.915-.56,2.045-1.111,4.681-.189,2.476.866,2.21,2.361.784,2.067-1.25-.258-2.454-1.688-5.38-1.322" transform="translate(-6476.201 -10571.249)" fill="#752d4b"/>
    <path id="Trazado_729226" data-name="Trazado 729226" d="M762.979,338.54c.231.057.3-.764.118-.986-.43-.527-1.2-.94-2.5-.236-1.427.774-1.338,1.731-.538,1.48a4.251,4.251,0,0,1,2.917-.258" transform="translate(-6512.554 -10573.706)" fill="#752d4b"/>
    <path id="Trazado_729227" data-name="Trazado 729227" d="M748.9,348.58a2.262,2.262,0,0,0-1.179,2.03,4.662,4.662,0,0,0,.862,2.582c.323.518,1.142,1.334.8,2.033a1.4,1.4,0,0,1-.784.567,5.438,5.438,0,0,1-1.242.351c-.126.02-.17-.185-.044-.206a5.167,5.167,0,0,0,1.388-.418c.373-.176.655-.424.509-.906a2.522,2.522,0,0,0-.371-.671,8.184,8.184,0,0,1-1.146-2.156c-.376-1.225-.1-2.834,1.117-3.393.117-.054.209.133.092.187" transform="translate(-6502.918 -10582.705)" fill="#cf8171"/>
    <path id="Trazado_729228" data-name="Trazado 729228" d="M743.9,408.408a2.868,2.868,0,0,0-2-.133c-.247.072-.333-.34-.087-.412a3.214,3.214,0,0,1,2.213.143c.234.1.113.505-.123.4" transform="translate(-6498.531 -10629.391)" fill="#ef9f8a"/>
    <path id="Trazado_729229" data-name="Trazado 729229" d="M661.528,281.224c1,4.618,5.526,7.2,5.526,7.2-.307-2.863-.258-8.758.389-8.717s2.317,2.239,2.194,1.185-1.021-2.634.353-4.826a6.5,6.5,0,0,0,.4-5.008l.028.013.017.008a5.1,5.1,0,0,0,.766.31l.009,0a12.8,12.8,0,0,0,2.673.508,25.445,25.445,0,0,0,2.736.108c.988-.014,1.963-.076,2.839-.176a15.322,15.322,0,0,0,2.16-.388,6.131,6.131,0,0,1,.955-.186,3.664,3.664,0,0,1,.6-.02c1.243.066,1.359.873,1.359.873a6.557,6.557,0,0,0,1.335-6.219,8.193,8.193,0,0,0-2.985-4.68,2.716,2.716,0,0,1-1.9,1.173,3.246,3.246,0,0,0,.181-.712,2.643,2.643,0,0,0-.133-1.311.006.006,0,0,1,0,0s-2.628,2.352-8.686,1.356c-8.259-1.358-8.418,4.9-8.418,4.9-4.172,2.3-3.4,10-2.4,14.614" transform="translate(-6434.873 -10513.454)" fill="#421c26"/>
    <path id="Trazado_729230" data-name="Trazado 729230" d="M675.7,268.636c1.176,2.966,6.465,4.443,6.465,4.443l.028.013.017.008c.1.043.371.157.766.31l.009,0a12.792,12.792,0,0,0,2.674.507,25.434,25.434,0,0,0,2.736.108c.988-.014,1.963-.076,2.839-.176.83-.1,1.561-.3,2.16-.388,2.75-.4.233-4.786.233-4.786a3.45,3.45,0,0,1-2.375,1.594c1.027-1.536-.374-3.476-.374-3.476-1.557,2.716-4.2.9-4.2.9a3.976,3.976,0,0,0,2.237-1.388,3.316,3.316,0,0,0,.439-3.375s-1.434,1.646-5.236.806c-8.122-1.795-8.418,4.9-8.418,4.9" transform="translate(-6446.642 -10515.481)" fill="#6d2f3b"/>
    <path id="Trazado_729231" data-name="Trazado 729231" d="M722.652,263.672a4.12,4.12,0,0,1-3.638,1.639l-.093-.554a6.659,6.659,0,0,0,3.731-1.084" transform="translate(-6480.643 -10516.067)" fill="#6d2f3b"/>
    <path id="Trazado_729232" data-name="Trazado 729232" d="M755.792,263.26s-.233,1.738-1.339,2.071l.024-.54a2.792,2.792,0,0,0,1.316-1.531" transform="translate(-6508.594 -10515.743)" fill="#421c26"/>
    <path id="Trazado_729233" data-name="Trazado 729233" d="M762.708,290.4s.979,4.232-1.2,4.512l.269-1.507a3.652,3.652,0,0,0,.934-3.005" transform="translate(-6514.141 -10537.096)" fill="#6d2f3b"/>
    <path id="Trazado_729234" data-name="Trazado 729234" d="M746.032,283.073s.265,2.576-.767,3.242-.826-.474-.826-.474a3.529,3.529,0,0,0,1.593-2.768" transform="translate(-6500.703 -10531.329)" fill="#6d2f3b"/>
    <path id="Trazado_729235" data-name="Trazado 729235" d="M758.518,355.07a2.579,2.579,0,0,1,1.635-.98,1.135,1.135,0,0,1,.458.079,7.263,7.263,0,0,1,.958.689c.129.09-1.459-2.39-2.909-.226-.049.073-.1.152-.149.238s-.108.2-.162.3c-.13.263-.051.139.168-.1" transform="translate(-6511.61 -10586.921)" fill="#752d4b"/>
    <path id="Trazado_729236" data-name="Trazado 729236" d="M761.348,355.47a1.265,1.265,0,0,0-.064.43.871.871,0,0,0,.2.521,1.073,1.073,0,0,0,.836.306,1.173,1.173,0,0,0,.705-.319.943.943,0,0,0,.172-.988c-.049-.094-.1-.187-.137-.253l-.053-.1-.78.007-.482.2a1.474,1.474,0,0,0-.4.194" transform="translate(-6513.964 -10587.961)" fill="#752d4b"/>
    <path id="Trazado_729237" data-name="Trazado 729237" d="M726.119,354.222a1.044,1.044,0,1,0,2.081.083,1.154,1.154,0,0,0-.118-.558,1.076,1.076,0,0,0-.335-.4c-.393-.019-.779-.025-1.141-.02a1.109,1.109,0,0,0-.447.634,1.149,1.149,0,0,0-.04.262" transform="translate(-6486.304 -10586.591)" fill="#752d4b"/>
    <path id="Trazado_729238" data-name="Trazado 729238" d="M717.884,352.99c-.181.453.92-1.106,3.3-.512a4.087,4.087,0,0,1,1.618.955c.165.148.187-.072.038-.239a3.167,3.167,0,0,0-2.024-1.205,3.489,3.489,0,0,0-2.934,1" transform="translate(-6479.812 -10585.516)" fill="#752d4b"/>
    <path id="Trazado_729239" data-name="Trazado 729239" d="M668.62,421.242s3.471-3.526,3.357-6.041c0,0,3.361,4.078,5.73,4.706s1.933,3.454,1.933,3.454.384-2.93,1.465-2.93,1.9-1.025,2.42-1.831c0,0,.155,3.872,1.39,4.762s-6.664,3.4-6.664,3.4l-9.3-3.192Z" transform="translate(-6441.074 -10635.267)" fill="#bfdeff"/>
    <path id="Trazado_729240" data-name="Trazado 729240" d="M696.489,448.373a54.606,54.606,0,0,1-.947,19.918c-.731,3.074-2.013,6.04-2.487,9.172a18.324,18.324,0,0,0,.537,7.142c.66,2.684,1.618,5.292,2.121,8.017a14.848,14.848,0,0,1-1.2,9.045,21.149,21.149,0,0,0-1.807,7.607c-.13,2.943.188,5.881.215,8.822a25.11,25.11,0,0,1-.431,5.381,48.733,48.733,0,0,1-1.464,4.65,14.411,14.411,0,0,0,.093,9.083c.08.238.454.136.372-.1a14.468,14.468,0,0,1,.167-9.643,25.884,25.884,0,0,0,1.639-7.993c.078-3.037-.261-6.067-.232-9.1a23.352,23.352,0,0,1,2.093-9.221,13.9,13.9,0,0,0,1.151-7.127,44.265,44.265,0,0,0-1.75-7.321c-.851-2.968-1.592-6.022-1.131-9.13.45-3.036,1.7-5.914,2.42-8.888a55.187,55.187,0,0,0,1.015-20.411c-.033-.249-.406-.143-.372.1" transform="translate(-6458.157 -10661.167)" fill="#63a3f4"/>
    <path id="Trazado_729241" data-name="Trazado 729241" d="M438.6,490.44s22.64,5.238,19.834,2.329c-1.993-2.065,13.159-19.741,16.219-20.227,4.879-.774,9.932-10.619,13.352-18.857,1.012-2.439,6.326-9.273,6.326-9.273a47.433,47.433,0,0,0-10.4-.447c-12.044.994-23.014,6.365-26.6,14.537-4.5,10.278-16.4,20.285-18.872,31.314a1.272,1.272,0,0,0,.137.624" transform="translate(-6260.014 -10657.801)" fill="#bfdeff"/>
    <path id="Trazado_729242" data-name="Trazado 729242" d="M687.188,350.942c-3.919-.76,1.547,13.43,5.482,15.231s7.693,2.168,9.547.493,2.754-8.5,2.555-8.961-3.828-3.733-5.094-3.206c-1.061.441-2.531,3.419-7.007,1.318-2.383-1.118-3.455-4.482-5.482-4.875" transform="translate(-6454.618 -10584.694)" fill="#52ceb5"/>
    <g id="Grupo_1030446" data-name="Grupo 1030446" transform="translate(-5764.833 -10236.211)">
      <g id="Grupo_1030445" data-name="Grupo 1030445" clip-path="url(#clip-path-21)">
        <path id="Trazado_729243" data-name="Trazado 729243" d="M722.13,341.956c-.161-1.039-6.026-4.063-16.361-1.266a1.961,1.961,0,0,0-1.428,1.978,28.9,28.9,0,0,0,.5,5.243c.422,1.039,5.868.828,7.148-.6s1.832-3.954,2.829-3.614,1.014,3.636,1.92,4.415c.614.528,2.2.633,3.155.646a1.241,1.241,0,0,0,1.142-.721,10.191,10.191,0,0,0,1.09-6.077" transform="translate(-704.339 -339.533)" fill="#fff"/>
      </g>
    </g>
    <path id="Trazado_729244" data-name="Trazado 729244" d="M718.986,348.063h-.02a6.111,6.111,0,0,1-3.314-.707,4.824,4.824,0,0,1-.963-2.326c-.223-.894-.476-1.907-.875-2.042s-.819.662-1.266,1.505a10.241,10.241,0,0,1-1.3,2.038c-1.048,1.173-4.473,1.548-6.271,1.228-.735-.131-1.159-.359-1.3-.7a27.772,27.772,0,0,1-.524-5.33,2.229,2.229,0,0,1,1.615-2.236c8.427-2.281,13.936-.73,15.863.545.494.327.768.64.812.929a10.431,10.431,0,0,1-1.111,6.227,1.5,1.5,0,0,1-1.352.866m-5.285-5.608a.841.841,0,0,1,.273.048c.66.225.924,1.282,1.2,2.4a4.879,4.879,0,0,0,.8,2.061,5.583,5.583,0,0,0,3,.585.973.973,0,0,0,.911-.575,9.958,9.958,0,0,0,1.068-5.927c-.011-.073-.149-.287-.589-.579-.2-.135-5.119-3.277-15.458-.479a1.714,1.714,0,0,0-1.241,1.72,26.428,26.428,0,0,0,.486,5.156c.046.113.313.282.918.389,1.829.325,4.976-.135,5.811-1.068a9.893,9.893,0,0,0,1.226-1.937c.506-.955.951-1.8,1.6-1.8" transform="translate(-6468.243 -10574.796)" fill="#383463"/>
    <path id="Trazado_729245" data-name="Trazado 729245" d="M687.626,375.9s3.211,8.351,6.451,9.143L690.423,374.9Z" transform="translate(-6456.024 -10603.566)" fill="#52ceb5"/>
    <path id="Trazado_729246" data-name="Trazado 729246" d="M683.1,351.768s-1.594-3.3-3.527-1.9-.139,4.211.535,5.292c.722,1.157,1.711,2.485,2.893,1.711,1.679-1.1.1-5.1.1-5.1" transform="translate(-6449.002 -10583.599)" fill="#fabba5"/>
    <path id="Trazado_729247" data-name="Trazado 729247" d="M682.783,355.74a1.4,1.4,0,0,1-2.147.16,4.272,4.272,0,0,1-.9-1.269,10.948,10.948,0,0,1-.764-1.732c-.323-1.01-.434-2.375.5-3.072a1.988,1.988,0,0,1,2.755.554c.088.111-.069.264-.157.153a1.773,1.773,0,0,0-2.57-.447c-.826.73-.572,2.085-.232,3.008a8.436,8.436,0,0,0,1.212,2.321c.506.628,1.6,1.087,2.127.2.073-.123.252,0,.178.122" transform="translate(-6449.034 -10583.564)" fill="#ef9f8a"/>
    <path id="Trazado_729248" data-name="Trazado 729248" d="M688.061,354.393a1.593,1.593,0,0,1,.776.684,1.225,1.225,0,0,1-.018,1.051c-.23.718.456.9.779,1.373a.8.8,0,0,1,.051.88c-.074.122-.253,0-.178-.123.407-.668-.845-1.12-.931-1.758-.036-.265.106-.437.176-.677a1.077,1.077,0,0,0-.72-1.215c-.122-.06-.058-.276.066-.215" transform="translate(-6456.263 -10587.424)" fill="#ef9f8a"/>
    <path id="Trazado_729249" data-name="Trazado 729249" d="M648.682,745.847s.023-6.7,1.194-7.591,1.156,1.781,2.447,1.509,2.712-.853,3.034.528.577,1.085,1.791.781.394,2.979-1.862,4.623-6.6.15-6.6.15" transform="translate(-6425.39 -10889.254)" fill="#413f74"/>
    <path id="Trazado_729250" data-name="Trazado 729250" d="M989.859,572.438s.023-6.7,1.194-7.591,1.156,1.781,2.447,1.509,2.712-.853,3.034.528.577,1.086,1.791.781.394,2.979-1.862,4.623-6.6.15-6.6.15" transform="translate(-6693.774 -10752.842)" fill="#514f8c"/>
    <path id="Trazado_729251" data-name="Trazado 729251" d="M577.312,577.691c2.927-3.537,7.079-5.3,11.213-6.949.144-.057.081-.3-.065-.238-4.172,1.663-8.368,3.444-11.32,7.012-.1.121.071.3.172.174" transform="translate(-6369.087 -10757.428)" fill="#63a3f4"/>
    <g id="Grupo_1030449" data-name="Grupo 1030449" transform="translate(-5792.21 -10186.038)">
      <g id="Grupo_1030448" data-name="Grupo 1030448" clip-path="url(#clip-path-22)">
        <path id="Trazado_729252" data-name="Trazado 729252" d="M584.8,591.054c.4,2.643-6.438,6.085-8.728,7.16-.015-.276-.029-.567-.039-.863-.078-2.737.475-12.505.6-16.637,1.334-1.687,3.978-4.039,9.116-6.026A6.568,6.568,0,0,1,583.1,579.7c-2.673,1.948,2.076,2.52,1.32,5.809s-.112,2.377.374,5.542" transform="translate(-576.021 -574.688)" fill="#a7d9f8"/>
      </g>
    </g>
    <path id="Trazado_729253" data-name="Trazado 729253" d="M536.081,839.861a26.744,26.744,0,0,1-3.588,3.048c-16.221,11.447-38.573-1.432-42.469-13.336q-.229-.7-.407-1.4c-6.361-24.744,33.4-46.98,33.4-46.98l.642,3.83c9.629,16.537,22.612,44.549,12.426,54.838" transform="translate(-6299.72 -10923.172)" fill="#727997"/>
    <path id="Trazado_729254" data-name="Trazado 729254" d="M597.146,808.78s-4.473,5.364-4.261,6.159,5.079-4.084,6.172-4.078-.232,2.621.7,2.688,2.185-4.015,2.517-2.073-.4,10.616,1.324,8.7.5-8.782.848-8.7,1.933,3,2.927,4.126.2-3.112-.728-5.3-9.494-1.523-9.494-1.523" transform="translate(-6381.491 -10944.8)" fill="#514f8c"/>
    <path id="Trazado_729255" data-name="Trazado 729255" d="M535.035,1000.978c-16.221,11.447-38.573-1.432-42.469-13.336q-.23-.7-.407-1.4a11.427,11.427,0,0,1,.919-3.458,1.138,1.138,0,0,1,2.093.089,44.039,44.039,0,0,1,1.521,6.991,5.673,5.673,0,0,0,.771,2.16,2.163,2.163,0,0,0,1.947,1.013,1.466,1.466,0,0,0,.968-.584.866.866,0,0,1,1.413,0,10.488,10.488,0,0,1,1.029,2.142c.493,1.242,1.247,2.607,2.563,2.845,1.734.318,3.027-1.456,4.15-2.817a13.7,13.7,0,0,1,4-3.3,2.97,2.97,0,0,1,2.245-.288c1.826.535,1.868,2.5,1.3,3.951-.576,1.476-1.649,2.769-1.546,4.464a2.191,2.191,0,0,0,1.051,1.8c1.015.576,2-.04,2.976-.36.813-.268,1.927-.2,2.251.59.119.292.1.624.2.922a1.809,1.809,0,0,0,2.135.85c1.613-.342,2.787-1.677,3.958-2.839,1.289-1.278,2.986-2.507,4.8-1.9a3.327,3.327,0,0,1,2.128,2.461h0" transform="translate(-6302.261 -11081.242)" fill="#514f8c"/>
    <path id="Trazado_729256" data-name="Trazado 729256" d="M590.66,831.636a80.987,80.987,0,0,0-6.516,11.905c-.064.145.15.271.214.125a80.981,80.981,0,0,1,6.516-11.905c.089-.134-.127-.258-.214-.125" transform="translate(-6374.612 -10962.808)" fill="#514f8c"/>
    <path id="Trazado_729257" data-name="Trazado 729257" d="M614.834,834.084l-1.427,4.38c-.05.152.19.218.239.066l1.427-4.38c.05-.152-.19-.217-.239-.066" transform="translate(-6397.636 -10964.711)" fill="#514f8c"/>
    <path id="Trazado_729258" data-name="Trazado 729258" d="M655.013,846.561l2.129,7.281a.124.124,0,0,0,.24-.066l-2.13-7.281a.124.124,0,0,0-.239.066" transform="translate(-6430.365 -10974.473)" fill="#514f8c"/>
    <path id="Trazado_729259" data-name="Trazado 729259" d="M662.2,846.644a11.229,11.229,0,0,0,2.068,3.742c.1.123.277-.053.176-.176a10.877,10.877,0,0,1-2-3.632c-.049-.151-.289-.087-.239.066" transform="translate(-6436.018 -10974.54)" fill="#514f8c"/>
    <path id="Trazado_729260" data-name="Trazado 729260" d="M929.483,667.058a26.737,26.737,0,0,1-3.059,3.578c-14.2,13.875-38.312,4.7-44.047-6.432q-.338-.655-.624-1.316c-10.205-23.422,25.522-51.682,25.522-51.682l1.241,3.68c12.13,14.8,29.391,40.4,20.966,52.173" transform="translate(-6607.292 -10789.452)" fill="#727997"/>
    <path id="Trazado_729261" data-name="Trazado 729261" d="M965.224,641.164s-3.565,6.005-3.23,6.757,4.367-4.838,5.447-5.006.187,2.625,1.113,2.543,1.521-4.31,2.156-2.446,1.291,10.544,2.687,8.375-.9-8.751-.542-8.72,2.385,2.656,3.544,3.61-.3-3.1-1.559-5.115-9.615,0-9.615,0" transform="translate(-6671.837 -10812.315)" fill="#514f8c"/>
    <path id="Trazado_729262" data-name="Trazado 729262" d="M933.136,845.043c-14.2,13.875-38.312,4.7-44.046-6.432q-.338-.655-.624-1.316a11.419,11.419,0,0,1,.359-3.56,1.138,1.138,0,0,1,2.081-.244,44.04,44.04,0,0,1,2.61,6.661,5.676,5.676,0,0,0,1.1,2.01,2.163,2.163,0,0,0,2.083.692,1.468,1.468,0,0,0,.863-.73.866.866,0,0,1,1.395-.224,10.485,10.485,0,0,1,1.356,1.951c.683,1.148,1.645,2.375,2.981,2.4,1.763.039,2.758-1.918,3.651-3.44a13.692,13.692,0,0,1,3.423-3.894,2.971,2.971,0,0,1,2.171-.641c1.887.238,2.241,2.175,1.913,3.695-.335,1.549-1.189,3-.818,4.653a2.19,2.19,0,0,0,1.323,1.612c1.094.408,1.969-.357,2.881-.827.76-.394,1.87-.506,2.316.225.164.27.2.6.348.878a1.809,1.809,0,0,0,2.243.5c1.539-.593,2.486-2.1,3.457-3.431,1.07-1.466,2.551-2.949,4.438-2.635a3.326,3.326,0,0,1,2.491,2.092h0" transform="translate(-6614.004 -10963.859)" fill="#514f8c"/>
    <path id="Trazado_729263" data-name="Trazado 729263" d="M526.8,974.42a16.668,16.668,0,0,0,.875,6.247c.051.15.291.086.24-.066a16.473,16.473,0,0,1-.866-6.181c.008-.16-.24-.159-.248,0" transform="translate(-6329.496 -11075.079)" fill="#514f8c"/>
    <path id="Trazado_729264" data-name="Trazado 729264" d="M599.106,753.678s3.46-2.6,6.441-2.646c2.048-.03,3.176-1.136,4,0a3.935,3.935,0,0,1,.671,2.641c.393.69,5.18,1.69,7.16,2.249,1.046.3,3.072,2.2,1.375,3.551a4.9,4.9,0,0,0-1.656,2.3c-.476,1.325-3.072,1.318-3.259,2.135-.431,1.88-3.1,1.1-6.271.68-3.119-.414-6.286-1.4-7.863-2.943s-.592-7.96-.592-7.96" transform="translate(-6386.152 -10899.044)" fill="#52ceb5"/>
    <path id="Trazado_729265" data-name="Trazado 729265" d="M470.537,679.539s-12.142-6.78-21.719-13.21c-8.811-5.915-10.376-14.138-10.6-16.7a1.926,1.926,0,0,1,1.256-1.988c2.99-1.071,10.777-3.221,15.72,1.233,6.22,5.605,7.96,9.022,12.9,13.028,2.978,2.413,7.639,5.881,7.92,7.2s-.06,2.984.027,4.631-4.417,6.164-5.51,5.808" transform="translate(-6259.826 -10816.957)" fill="#bfdeff"/>
    <g id="Grupo_1030452" data-name="Grupo 1030452" transform="translate(-5809.742 -10167.874)">
      <g id="Grupo_1030451" data-name="Grupo 1030451" clip-path="url(#clip-path-23)">
        <path id="Trazado_729266" data-name="Trazado 729266" d="M502.3,660.5c-3.813-1.579-8.454.112-8.454.112,4.132-.781,8.008,1.761,8.008,1.761l0,0a3.354,3.354,0,0,1,.443-1.869" transform="translate(-493.849 -659.824)" fill="#4b83db"/>
      </g>
    </g>
    <path id="Trazado_729267" data-name="Trazado 729267" d="M494.973,664.171a13.081,13.081,0,0,0-9.718-1.61c-.153.033-.088.271.064.237a12.8,12.8,0,0,1,9.531,1.586c.135.081.257-.132.122-.213" transform="translate(-6296.762 -10829.601)" fill="#63a3f4"/>
    <path id="Trazado_729268" data-name="Trazado 729268" d="M513.146,669.615a13.457,13.457,0,0,0-4.725-.371c-.154.015-.156.262,0,.247a13.29,13.29,0,0,1,4.66.362.123.123,0,0,0,.064-.238" transform="translate(-6314.963 -10835.057)" fill="#63a3f4"/>
    <path id="Trazado_729269" data-name="Trazado 729269" d="M567.389,730.481a14.63,14.63,0,0,0,4.255,2.422c.613.216.843.366,1.363.165a7.148,7.148,0,0,0,1.712-1.339c2.165-1.964,3.9-4.862,3.45-7.917-.367-2.467-1.976-3.572-3.764-4.961-2.01-1.562-3.969-3.207-5.888-4.882-.187-.164-.462.113-.273.278,1.425,1.244,2.881,2.451,4.346,3.645a37.876,37.876,0,0,1,3.783,2.969c2.251,2.406,1.637,6.017-.085,8.518-.758,1.1-2.311,3.092-3.658,3.268-1.591.207-3.776-1.49-4.968-2.442-.193-.154-.469.122-.273.278" transform="translate(-6361.388 -10870.252)" fill="#63a3f4"/>
    <path id="Trazado_729270" data-name="Trazado 729270" d="M987.876,593.963c2.931-.224,4,.245,4.12,1.668s-.529,1.719-3.46,1.943-6.136.224-6.253-1.2,2.663-2.187,5.593-2.411" transform="translate(-6687.812 -10775.848)" fill="#52ceb5"/>
    <path id="Trazado_729271" data-name="Trazado 729271" d="M982.668,609.609c3.587-.274,4.889.177,5.007,1.6s-.679,1.73-4.266,2-7.506.328-7.624-1.1,3.3-2.236,6.883-2.51" transform="translate(-6682.701 -10788.137)" fill="#52ceb5"/>
    <path id="Trazado_729272" data-name="Trazado 729272" d="M983.282,623.472c3.4-.26,4.641.2,4.759,1.62s-.637,1.727-4.041,1.988-7.124.3-7.241-1.125,3.119-2.222,6.523-2.483" transform="translate(-6683.467 -10799.047)" fill="#52ceb5"/>
    <path id="Trazado_729273" data-name="Trazado 729273" d="M991.613,637.04c2.446-.187,3.342.214,3.442,1.429s-.439,1.466-2.885,1.653-5.122.182-5.222-1.032,2.22-1.862,4.666-2.049" transform="translate(-6691.482 -10809.74)" fill="#52ceb5"/>
    <path id="Trazado_729274" data-name="Trazado 729274" d="M993.043,610.136l5.929-.194c.187-.006.164-.292-.023-.285l-5.929.194c-.187.006-.164.292.023.286" transform="translate(-6696.16 -10788.234)" fill="#3cb198"/>
    <path id="Trazado_729275" data-name="Trazado 729275" d="M985.877,625.046a56.9,56.9,0,0,0,8.352-.443c.185-.023.163-.309-.023-.285a56.917,56.917,0,0,1-8.352.443c-.187,0-.163.282.023.285" transform="translate(-6690.522 -10799.766)" fill="#3cb198"/>
    <path id="Trazado_729276" data-name="Trazado 729276" d="M990.012,639.157a41.1,41.1,0,0,0,6.764-.456c.183-.028.162-.313-.023-.286a41.111,41.111,0,0,1-6.764.457c-.187,0-.163.283.023.285" transform="translate(-6693.775 -10810.855)" fill="#3cb198"/>
    <g id="Grupo_1030455" data-name="Grupo 1030455" transform="translate(-5794.372 -10115.852)">
      <g id="Grupo_1030454" data-name="Grupo 1030454" clip-path="url(#clip-path-24)">
        <path id="Trazado_729277" data-name="Trazado 729277" d="M576.885,932.279h0l.621.614a4.46,4.46,0,0,1,1.3-.7,6.476,6.476,0,0,0-.448-1.261,4.438,4.438,0,0,1-1.7.05l-.116.56a.948.948,0,0,1,.342.735m-.93,2.92a4.386,4.386,0,0,1,.971-1.768l-.41-.406a.95.95,0,0,1-1.367-.216l-.56.185a4.379,4.379,0,0,1,.181,1.919c-.014.113-.033.227-.056.34a4.423,4.423,0,0,1-8.264,1.131,6.547,6.547,0,0,0,10.089,2.464,4.409,4.409,0,0,1-.656-3.354c.021-.1.045-.2.071-.3m-5.5-5.263a4.475,4.475,0,0,1,.817.092,4.414,4.414,0,0,1,3,2.239l.741-.246a.951.951,0,0,1,.761-.685l.114-.55a4.408,4.408,0,0,1-1.445-.856l-.011-.01A4.4,4.4,0,0,1,573,927.21a6.555,6.555,0,0,0-7.012,7.647,4.427,4.427,0,0,1,4.473-4.921" transform="translate(-565.891 -922.165)" fill="#252346"/>
        <path id="Trazado_729278" data-name="Trazado 729278" d="M610.4,942.909a6.553,6.553,0,0,0-3.857-7.356,4.422,4.422,0,0,1-4.471,2.013l-.115.56a.949.949,0,0,1,.342.735h0l.621.615a4.454,4.454,0,0,1,1.3-.7,4.424,4.424,0,0,1,5.244,6.392,6.531,6.531,0,0,0,.931-2.26m-5.664,4.395a4.424,4.424,0,0,1-3.438-5.226c.021-.1.045-.2.071-.3a4.389,4.389,0,0,1,.972-1.768l-.41-.406a.95.95,0,0,1-1.367-.216l-.56.186a4.377,4.377,0,0,1,.181,1.919c-.014.113-.033.227-.056.34a4.406,4.406,0,0,1-1.93,2.82,6.551,6.551,0,0,0,10.241,1.732,4.413,4.413,0,0,1-3.7.916m-5.043-8.455.741-.246a.951.951,0,0,1,.761-.685l.113-.55a4.407,4.407,0,0,1-1.445-.856l-.011-.01a6.554,6.554,0,0,0-1.1,1.144,4.438,4.438,0,0,1,.945,1.2" transform="translate(-591.307 -928.748)" fill="#252346"/>
        <path id="Trazado_729279" data-name="Trazado 729279" d="M597.663,905.3a6.519,6.519,0,0,0-2.1-1.252,4.426,4.426,0,0,1,1.989,6.41,4.423,4.423,0,0,1-4.471,2.013l-.116.56a.948.948,0,0,1,.342.735h0l.621.614a4.45,4.45,0,0,1,1.305-.7,4.432,4.432,0,0,1,3.454.274,6.548,6.548,0,0,0-1.025-8.656m-5.5,9.391a.948.948,0,0,1-.593-.4l-.56.185a4.384,4.384,0,0,1,.181,1.919,6.493,6.493,0,0,0,1.184.286,4.386,4.386,0,0,1,.971-1.768l-.41-.406a.95.95,0,0,1-.774.18m.037-1.868.114-.55a4.412,4.412,0,0,1-1.445-.856l-.011-.01a4.423,4.423,0,0,1,3.148-7.718,6.549,6.549,0,0,0-7.126,7.735,4.479,4.479,0,0,1,.817.092,4.414,4.414,0,0,1,3,2.239l.741-.246a.951.951,0,0,1,.761-.685" transform="translate(-582.313 -903.656)" fill="#252346"/>
        <path id="Trazado_729280" data-name="Trazado 729280" d="M609.249,928.438a3.953,3.953,0,0,1-1.436.843,3.626,3.626,0,0,0-4.041-.947,3.95,3.95,0,0,1-.913-1.392,5.268,5.268,0,0,1,6.39,1.5" transform="translate(-594.972 -921.574)" fill="#252346"/>
        <path id="Trazado_729281" data-name="Trazado 729281" d="M616.694,957.122a3.953,3.953,0,0,1,.026-1.664,3.625,3.625,0,0,0,2.908-2.961,3.948,3.948,0,0,1,1.664-.057,5.268,5.268,0,0,1-4.6,4.682" transform="translate(-605.795 -941.982)" fill="#252346"/>
        <path id="Trazado_729282" data-name="Trazado 729282" d="M589.84,942.48a3.959,3.959,0,0,1,1.471.78,3.625,3.625,0,0,0,1.314,3.937,3.946,3.946,0,0,1-.706,1.508,5.268,5.268,0,0,1-2.078-6.225" transform="translate(-584.477 -934.197)" fill="#252346"/>
      </g>
    </g>
    <g id="Grupo_1030458" data-name="Grupo 1030458" transform="translate(-5710.575 -10153.795)">
      <g id="Grupo_1030457" data-name="Grupo 1030457" clip-path="url(#clip-path-25)">
        <path id="Trazado_729283" data-name="Trazado 729283" d="M969.323,756.963h0l.717.5a4.456,4.456,0,0,1,1.165-.913,6.507,6.507,0,0,0-.659-1.165,4.441,4.441,0,0,1-1.67.343l-.017.572a.949.949,0,0,1,.464.665M968.91,760a4.389,4.389,0,0,1,.653-1.909l-.474-.33a.95.95,0,0,1-1.384.023l-.52.279a4.383,4.383,0,0,1,.508,1.859c.006.114.007.229,0,.345a4.423,4.423,0,0,1-7.945,2.538,6.547,6.547,0,0,0,10.363.689,4.409,4.409,0,0,1-1.224-3.19c0-.1.01-.2.019-.3m-6.32-4.237a4.48,4.48,0,0,1,.821-.051,4.414,4.414,0,0,1,3.342,1.688l.687-.37a.95.95,0,0,1,.631-.805l.017-.562a4.406,4.406,0,0,1-1.57-.594l-.013-.008a4.4,4.4,0,0,1-1.884-2.422,6.555,6.555,0,0,0-5.59,8.741,4.427,4.427,0,0,1,3.558-5.618" transform="translate(-958.648 -746.915)" fill="#252346"/>
        <path id="Trazado_729284" data-name="Trazado 729284" d="M1003.69,760.785a6.552,6.552,0,0,0-5.066-6.581,4.423,4.423,0,0,1-4.057,2.753l-.017.571a.949.949,0,0,1,.464.666h0l.717.5a4.452,4.452,0,0,1,1.165-.913,4.424,4.424,0,0,1,6.267,5.393,6.534,6.534,0,0,0,.527-2.387m-4.822,5.305a4.424,4.424,0,0,1-4.287-4.556c0-.1.01-.2.019-.3a4.385,4.385,0,0,1,.652-1.909l-.473-.329a.95.95,0,0,1-1.384.023l-.52.279a4.378,4.378,0,0,1,.509,1.859c.006.114.007.229,0,.345a4.407,4.407,0,0,1-1.416,3.11,6.551,6.551,0,0,0,10.386-.058,4.413,4.413,0,0,1-3.49,1.54m-6.424-7.459.687-.37a.951.951,0,0,1,.631-.806l.017-.562a4.416,4.416,0,0,1-1.571-.594l-.013-.008a6.567,6.567,0,0,0-.891,1.317,4.436,4.436,0,0,1,1.138,1.022" transform="translate(-984.337 -748.146)" fill="#252346"/>
        <path id="Trazado_729285" data-name="Trazado 729285" d="M985.134,726.77a6.523,6.523,0,0,0-2.283-.872,4.423,4.423,0,0,1-.994,8.725l-.017.572a.948.948,0,0,1,.464.665h0l.717.5a4.455,4.455,0,0,1,1.165-.913,4.433,4.433,0,0,1,3.45-.325,6.548,6.548,0,0,0-2.5-8.35m-3.8,10.2a.949.949,0,0,1-.652-.287l-.52.279a4.379,4.379,0,0,1,.509,1.859,6.477,6.477,0,0,0,1.216.077,4.389,4.389,0,0,1,.652-1.909l-.474-.329a.95.95,0,0,1-.732.31m-.285-1.847.017-.561a4.413,4.413,0,0,1-1.57-.594l-.013-.008a4.423,4.423,0,0,1,1.771-8.146,6.549,6.549,0,0,0-5.687,8.847,4.483,4.483,0,0,1,.821-.051,4.414,4.414,0,0,1,3.343,1.688l.687-.37a.951.951,0,0,1,.632-.806" transform="translate(-971.628 -725.812)" fill="#252346"/>
        <path id="Trazado_729286" data-name="Trazado 729286" d="M997.06,750.311a3.958,3.958,0,0,1-1.269,1.078,3.626,3.626,0,0,0-4.144-.236,3.947,3.947,0,0,1-1.139-1.214,5.268,5.268,0,0,1,6.552.373" transform="translate(-983.711 -744.03)" fill="#252346"/>
        <path id="Trazado_729287" data-name="Trazado 729287" d="M1011.318,776.262a3.955,3.955,0,0,1-.261-1.644,3.625,3.625,0,0,0,2.355-3.418,3.944,3.944,0,0,1,1.629-.342,5.268,5.268,0,0,1-3.723,5.4" transform="translate(-999.87 -761.247)" fill="#252346"/>
        <path id="Trazado_729288" data-name="Trazado 729288" d="M980.9,769a3.957,3.957,0,0,1,1.583.515,3.626,3.626,0,0,0,1.972,3.652,3.948,3.948,0,0,1-.436,1.607A5.268,5.268,0,0,1,980.9,769" transform="translate(-976.084 -759.788)" fill="#252346"/>
      </g>
    </g>
    <path id="Trazado_729289" data-name="Trazado 729289" d="M780.695,608.659c.587-5.465.946-10.954,1.466-16.427.481-5.063.862-10.319,2.256-15.226.05-.178-.228-.233-.278-.056-1.394,4.906-1.775,10.162-2.256,15.226-.52,5.472-.879,10.961-1.466,16.427-.02.183.259.241.278.056" transform="translate(-6529.017 -10762.421)" fill="#63a3f4"/>
    <path id="Trazado_729290" data-name="Trazado 729290" d="M853.68,1372.853h-3.336a2.171,2.171,0,0,1-2.171-2.171v-11.767a2.171,2.171,0,0,1,2.171-2.172h3.336a2.171,2.171,0,0,1,2.171,2.172v11.767a2.171,2.171,0,0,1-2.171,2.171" transform="translate(-6582.318 -11375.926)" fill="#39364b"/>
    <path id="Trazado_729291" data-name="Trazado 729291" d="M1168.317,1372.853h-3.335a2.171,2.171,0,0,1-2.171-2.171v-11.767a2.171,2.171,0,0,1,2.171-2.172h3.335a2.171,2.171,0,0,1,2.172,2.172v11.767a2.172,2.172,0,0,1-2.172,2.171" transform="translate(-6829.826 -11375.926)" fill="#39364b"/>
    <path id="Trazado_729292" data-name="Trazado 729292" d="M893.387,980.3H838.636a5.048,5.048,0,0,1-5.026-4.579L823.125,863.243a5.048,5.048,0,0,1,5.026-5.516h72.971a5.048,5.048,0,0,1,5.036,5.394L898.423,975.6a5.048,5.048,0,0,1-5.036,4.7" transform="translate(-6562.597 -10983.377)" fill="#ffa031"/>
    <path id="Trazado_729293" data-name="Trazado 729293" d="M892.375,850.761h-84.3a2.3,2.3,0,0,1-2.3-2.3v-6.285a2.3,2.3,0,0,1,2.3-2.3h84.3a2.3,2.3,0,0,1,2.3,2.3v6.285a2.3,2.3,0,0,1-2.3,2.3" transform="translate(-6548.967 -10969.338)" fill="#ffa031"/>
    <path id="Trazado_729294" data-name="Trazado 729294" d="M835.684,890.882s46.3,6.93,73.779.343Z" transform="translate(-6572.494 -11009.459)" fill="#ff4f67"/>
    <path id="Trazado_729295" data-name="Trazado 729295" d="M1142.137,963.562a40.765,40.765,0,0,0-3.454,9.566c-.074.33.433.47.507.14a40.2,40.2,0,0,1,3.4-9.44c.153-.3-.3-.567-.454-.265" transform="translate(-6810.84 -11066.528)" fill="#ff4f67"/>
    <path id="Trazado_729296" data-name="Trazado 729296" d="M1144.852,1000.2a26.258,26.258,0,0,0-2.554,7.142c-.066.33.441.472.507.14a25.779,25.779,0,0,1,2.5-7.017c.159-.3-.3-.565-.454-.265" transform="translate(-6813.685 -11095.35)" fill="#ff4f67"/>
    <path id="Trazado_729297" data-name="Trazado 729297" d="M914.824,1320.476q4.243-7.9,9.15-15.418c.186-.284-.269-.548-.454-.265q-4.9,7.51-9.15,15.417c-.16.3.294.564.454.266" transform="translate(-6634.365 -11334.965)" fill="#ff4f67"/>
    <path id="Trazado_729298" data-name="Trazado 729298" d="M946.208,1338.279l1.835-2.566c.2-.276-.259-.538-.454-.265l-1.835,2.566c-.2.276.259.539.454.265" transform="translate(-6659.041 -11359.083)" fill="#ff4f67"/>
    <path id="Trazado_729299" data-name="Trazado 729299" d="M977.919,1084.546h0l.983.64a5.992,5.992,0,0,1,1.527-1.274,8.716,8.716,0,0,0-.932-1.538,5.959,5.959,0,0,1-2.228.529v.768a1.275,1.275,0,0,1,.65.875m-.431,4.094a5.894,5.894,0,0,1,.8-2.59l-.649-.423a1.276,1.276,0,0,1-1.857.088l-.686.4a5.884,5.884,0,0,1,.759,2.475c.012.152.018.307.018.463a5.941,5.941,0,0,1-10.564,3.732,8.795,8.795,0,0,0,13.941.5,5.924,5.924,0,0,1-1.773-4.234c0-.137,0-.274.013-.409m-8.658-5.431a6,6,0,0,1,1.1-.1,5.929,5.929,0,0,1,4.557,2.13l.908-.525a1.277,1.277,0,0,1,.815-1.107v-.755a5.926,5.926,0,0,1-2.133-.734l-.018-.01a5.913,5.913,0,0,1-2.628-3.175,8.806,8.806,0,0,0-7.148,11.964,5.945,5.945,0,0,1,4.548-7.688" transform="translate(-6673.175 -11157.388)" fill="#fff"/>
    <path id="Trazado_729300" data-name="Trazado 729300" d="M1023.762,1088.073a8.8,8.8,0,0,0-7.071-8.629,5.939,5.939,0,0,1-5.335,3.861v.768a1.274,1.274,0,0,1,.65.875h0l.984.64a5.986,5.986,0,0,1,1.527-1.274,5.943,5.943,0,0,1,8.635,6.985,8.778,8.778,0,0,0,.611-3.226m-6.258,7.32a5.942,5.942,0,0,1-5.941-5.942c0-.137,0-.274.014-.409a5.893,5.893,0,0,1,.8-2.59l-.649-.423a1.276,1.276,0,0,1-1.857.087l-.686.4a5.886,5.886,0,0,1,.759,2.475c.012.152.018.307.018.463a5.919,5.919,0,0,1-1.774,4.234,8.8,8.8,0,0,0,13.942-.5,5.928,5.928,0,0,1-4.623,2.21m-8.93-9.753.908-.524a1.278,1.278,0,0,1,.815-1.107v-.755a5.927,5.927,0,0,1-2.133-.734l-.018-.01a8.8,8.8,0,0,0-1.142,1.805,5.967,5.967,0,0,1,1.57,1.325" transform="translate(-6707.262 -11157.79)" fill="#fff"/>
    <path id="Trazado_729301" data-name="Trazado 729301" d="M997.916,1043.343a8.763,8.763,0,0,0-3.1-1.078,5.945,5.945,0,0,1,4.356,7.893,5.979,5.979,0,0,1-.417.884,5.938,5.938,0,0,1-4.919,2.977v.768a1.275,1.275,0,0,1,.65.874h0l.983.64a5.986,5.986,0,0,1,1.527-1.274,5.953,5.953,0,0,1,4.619-.577,8.8,8.8,0,0,0-3.7-11.109m-4.682,13.847a1.272,1.272,0,0,1-.887-.359l-.686.4a5.883,5.883,0,0,1,.759,2.475,8.705,8.705,0,0,0,1.635.054,5.894,5.894,0,0,1,.8-2.59l-.649-.423a1.275,1.275,0,0,1-.97.446m-.458-2.468v-.755a5.924,5.924,0,0,1-2.133-.734l-.018-.01a5.941,5.941,0,0,1,2.045-11.009,8.8,8.8,0,0,0-7.274,12.111,6,6,0,0,1,1.1-.1,5.929,5.929,0,0,1,4.557,2.13l.908-.524a1.278,1.278,0,0,1,.815-1.107" transform="translate(-6689.741 -11128.504)" fill="#fff"/>
    <path id="Trazado_729302" data-name="Trazado 729302" d="M1014.065,1074.913a5.31,5.31,0,0,1-1.66,1.5,4.87,4.87,0,0,0-5.573-.148,5.3,5.3,0,0,1-1.579-1.584,7.076,7.076,0,0,1,8.812.233" transform="translate(-6705.884 -11152.921)" fill="#fff"/>
    <path id="Trazado_729303" data-name="Trazado 729303" d="M1034.71,1109.042a5.319,5.319,0,0,1-.418-2.2,4.869,4.869,0,0,0,3.022-4.685,5.3,5.3,0,0,1,2.174-.526,7.076,7.076,0,0,1-4.778,7.408" transform="translate(-6728.726 -11175.246)" fill="#fff"/>
    <path id="Trazado_729304" data-name="Trazado 729304" d="M993.109,1101.126a5.318,5.318,0,0,1,2.146.627,4.87,4.87,0,0,0,2.8,4.823,5.3,5.3,0,0,1-.52,2.175,7.076,7.076,0,0,1-4.424-7.625" transform="translate(-6696.271 -11174.846)" fill="#fff"/>
    <path id="Trazado_729305" data-name="Trazado 729305" d="M951.272,1021.966H920.051a8.5,8.5,0,0,1-7.552-12.418l15.382-29.689a8.375,8.375,0,0,1,7.5-4.592h.055a8.372,8.372,0,0,1,7.5,4.5l15.838,29.689a8.5,8.5,0,0,1-7.5,12.508m-15.836-43.992H935.4a5.708,5.708,0,0,0-5.113,3.13L914.9,1010.793a5.8,5.8,0,0,0,5.148,8.465h31.221a5.8,5.8,0,0,0,5.115-8.526l-15.838-29.689a5.709,5.709,0,0,0-5.113-3.069" transform="translate(-6632.163 -11075.839)" fill="#fff"/>
    <rect id="Rectángulo_350814" data-name="Rectángulo 350814" width="66.452" height="66.452" transform="translate(-5696.402 -10278.23)" fill="#ffa031"/>
    <path id="Trazado_729306" data-name="Trazado 729306" d="M1100.177,216.223h-60.013V156.21h60.013Zm-57.332-2.681H1097.5V158.891h-54.651Z" transform="translate(-6733.347 -10431.532)" fill="#fff"/>
    <path id="Trazado_729307" data-name="Trazado 729307" d="M1124.409,256.731h0l1.143.744a6.954,6.954,0,0,1,1.775-1.481,10.156,10.156,0,0,0-1.083-1.787,6.923,6.923,0,0,1-2.59.614v.893a1.482,1.482,0,0,1,.755,1.016m-.5,4.759a6.842,6.842,0,0,1,.927-3.01l-.754-.492a1.484,1.484,0,0,1-2.158.1l-.8.46a6.839,6.839,0,0,1,.882,2.877c.014.177.021.357.021.538a6.905,6.905,0,0,1-12.279,4.337,10.222,10.222,0,0,0,16.2.584,6.883,6.883,0,0,1-2.061-4.921c0-.16.005-.319.016-.475m-10.064-6.313a6.992,6.992,0,0,1,1.278-.118,6.891,6.891,0,0,1,5.3,2.476l1.055-.61a1.485,1.485,0,0,1,.947-1.287v-.877a6.884,6.884,0,0,1-2.479-.853l-.021-.012a6.872,6.872,0,0,1-3.055-3.69,10.234,10.234,0,0,0-8.308,13.906,6.909,6.909,0,0,1,5.286-8.936" transform="translate(-6786.591 -10505.476)" fill="#fff"/>
    <path id="Trazado_729308" data-name="Trazado 729308" d="M1177.692,260.831a10.231,10.231,0,0,0-8.218-10.03,6.905,6.905,0,0,1-6.2,4.488v.893a1.481,1.481,0,0,1,.755,1.016h0l1.143.744a6.96,6.96,0,0,1,1.775-1.481,6.908,6.908,0,0,1,10.036,8.118,10.2,10.2,0,0,0,.71-3.749m-7.274,8.508a6.907,6.907,0,0,1-6.906-6.906c0-.16.006-.319.016-.475a6.848,6.848,0,0,1,.927-3.01l-.754-.492a1.484,1.484,0,0,1-2.158.1l-.8.46a6.839,6.839,0,0,1,.882,2.877c.014.177.021.357.021.538a6.88,6.88,0,0,1-2.062,4.921,10.228,10.228,0,0,0,16.2-.584,6.89,6.89,0,0,1-5.373,2.569M1160.038,258l1.055-.61a1.484,1.484,0,0,1,.947-1.287v-.877a6.881,6.881,0,0,1-2.479-.853l-.021-.012a10.226,10.226,0,0,0-1.327,2.1,6.924,6.924,0,0,1,1.824,1.54" transform="translate(-6826.21 -10505.942)" fill="#fff"/>
    <path id="Trazado_729309" data-name="Trazado 729309" d="M1147.65,208.841a10.184,10.184,0,0,0-3.6-1.252,6.906,6.906,0,0,1-1.138,13.662v.893a1.48,1.48,0,0,1,.755,1.016h0l1.143.744a6.962,6.962,0,0,1,1.775-1.481,6.919,6.919,0,0,1,5.368-.671,10.224,10.224,0,0,0-4.3-12.912m-5.442,16.095a1.48,1.48,0,0,1-1.031-.417l-.8.46a6.839,6.839,0,0,1,.882,2.877,10.111,10.111,0,0,0,1.9.063,6.848,6.848,0,0,1,.928-3.01l-.755-.492a1.483,1.483,0,0,1-1.128.518m-.532-2.868v-.877a6.886,6.886,0,0,1-2.479-.853l-.021-.012a6.9,6.9,0,0,1,2.377-12.8,10.224,10.224,0,0,0-8.455,14.076,6.991,6.991,0,0,1,1.278-.118,6.892,6.892,0,0,1,5.3,2.476l1.055-.61a1.484,1.484,0,0,1,.947-1.287" transform="translate(-6805.845 -10471.903)" fill="#fff"/>
    <path id="Trazado_729310" data-name="Trazado 729310" d="M1166.42,245.534a6.172,6.172,0,0,1-1.929,1.742,5.66,5.66,0,0,0-6.478-.172,6.167,6.167,0,0,1-1.835-1.841,8.224,8.224,0,0,1,10.242.271" transform="translate(-6824.608 -10500.282)" fill="#fff"/>
    <path id="Trazado_729311" data-name="Trazado 729311" d="M1190.417,285.2a6.175,6.175,0,0,1-.486-2.553,5.66,5.66,0,0,0,3.513-5.445,6.164,6.164,0,0,1,2.526-.612,8.225,8.225,0,0,1-5.553,8.61" transform="translate(-6851.158 -10526.231)" fill="#fff"/>
    <path id="Trazado_729312" data-name="Trazado 729312" d="M1142.063,276a6.175,6.175,0,0,1,2.495.729,5.661,5.661,0,0,0,3.252,5.605,6.162,6.162,0,0,1-.6,2.528,8.224,8.224,0,0,1-5.142-8.862" transform="translate(-6813.435 -10525.767)" fill="#fff"/>
  </g>
</svg>
