<svg xmlns="http://www.w3.org/2000/svg" xmlns:xlink="http://www.w3.org/1999/xlink" width="121" height="122" viewBox="0 0 121 122">
  <defs>
    <clipPath id="clip-path">
      <ellipse id="Elipse_8399" data-name="Elipse 8399" cx="60.5" cy="61" rx="60.5" ry="61" transform="translate(0.206 -0.494)" fill="#fff"/>
    </clipPath>
  </defs>
  <g id="Grupo_1036337" data-name="Grupo 1036337" transform="translate(-322 -2741)">
    <g id="Grupo_1030476" data-name="Grupo 1030476" transform="translate(321.794 2741.494)">
      <ellipse id="Elipse_8399-2" data-name="Elipse 8399" cx="60.5" cy="61" rx="60.5" ry="61" transform="translate(0.205 -0.495)" fill="#4db1f0"/>
    </g>
    <g id="Grupo_1030477" data-name="Grupo 1030477" transform="translate(321.794 2741.494)">
      <g id="Enmascarar_grupo_1026469" data-name="Enmascarar grupo 1026469" clip-path="url(#clip-path)">
        <g id="cronograma" transform="translate(14.929 12.977)">
          <g id="Grupo_1030490" data-name="Grupo 1030490" transform="translate(3.597 2.555)">
            <g id="Grupo_1030484" data-name="Grupo 1030484">
              <g id="Grupo_1030483" data-name="Grupo 1030483">
                <g id="Grupo_1030482" data-name="Grupo 1030482">
                  <g id="Grupo_1030481" data-name="Grupo 1030481">
                    <g id="Grupo_1030480" data-name="Grupo 1030480">
                      <g id="Grupo_1030479" data-name="Grupo 1030479">
                        <path id="Trazado_729358" data-name="Trazado 729358" d="M73.685,26.267V62.945L57.078,79.552H7.152A3.092,3.092,0,0,1,4.059,76.46V26.267Z" transform="translate(-4.059 -8.563)" fill="#ffe2e2"/>
                        <path id="Trazado_729359" data-name="Trazado 729359" d="M11.79,79.551H7.152a3.092,3.092,0,0,1-3.093-3.093V26.267H8.7V76.459A3.092,3.092,0,0,0,11.79,79.551Z" transform="translate(-4.059 -8.563)" fill="#ffefee"/>
                        <path id="Trazado_729360" data-name="Trazado 729360" d="M90.29,62.945V26.267H85.651V62.945H73.684V79.551L90.291,62.945Z" transform="translate(-20.665 -8.563)" fill="#ffcfcf"/>
                        <path id="Trazado_729361" data-name="Trazado 729361" d="M73.685,13.488v8.993H4.059V13.488A3.092,3.092,0,0,1,7.152,10.4h63.44a3.092,3.092,0,0,1,3.093,3.093Z" transform="translate(-4.059 -4.777)" fill="#ffa031"/>
                        <path id="Trazado_729362" data-name="Trazado 729362" d="M11.79,10.4A3.092,3.092,0,0,0,8.7,13.488v8.993H4.059V13.488A3.092,3.092,0,0,1,7.152,10.4H11.79Z" transform="translate(-4.059 -4.777)" fill="#f973a3"/>
                        <path id="Trazado_729363" data-name="Trazado 729363" d="M93.069,13.488v8.993H88.431V13.488A3.092,3.092,0,0,0,85.338,10.4h4.639a3.092,3.092,0,0,1,3.093,3.093Z" transform="translate(-23.444 -4.777)" fill="#ea2a6a"/>
                        <g id="Grupo_1030478" data-name="Grupo 1030478" transform="translate(11.066)">
                          <path id="Trazado_729364" data-name="Trazado 729364" d="M18.591,3.018h5.364V14.254H18.591Z" transform="translate(-18.591 -3.018)" fill="#87828e"/>
                          <path id="Trazado_729365" data-name="Trazado 729365" d="M73.915,3.018h5.364V14.254H73.915Z" transform="translate(-31.786 -3.018)" fill="#87828e"/>
                        </g>
                      </g>
                    </g>
                  </g>
                </g>
              </g>
            </g>
            <g id="Grupo_1030487" data-name="Grupo 1030487" transform="translate(38.659 40.244)">
              <g id="Grupo_1030486" data-name="Grupo 1030486">
                <g id="Grupo_1030485" data-name="Grupo 1030485">
                  <path id="Trazado_729390" data-name="Trazado 729390" d="M24.852,0A24.852,24.852,0,1,1,0,24.852,24.852,24.852,0,0,1,24.852,0Z" fill="#ffa031"/>
                  <circle id="Elipse_8453" data-name="Elipse 8453" cx="19.646" cy="19.646" r="19.646" transform="translate(5.205 5.205)" fill="#ffe2e2"/>
                  <path id="Trazado_729366" data-name="Trazado 729366" d="M82.948,101.926q-.81.069-1.64.068a19.646,19.646,0,0,1,0-39.291q.83,0,1.64.068a19.646,19.646,0,0,0,0,39.156Z" transform="translate(-56.456 -57.496)" fill="#ffefee"/>
                  <path id="Trazado_729367" data-name="Trazado 729367" d="M106.593,82.348a19.646,19.646,0,0,1-19.646,19.646q-.83,0-1.64-.068a19.646,19.646,0,0,0,0-39.156q.81-.069,1.64-.068A19.646,19.646,0,0,1,106.593,82.348Z" transform="translate(-62.095 -57.496)" fill="#ffcfcf"/>
                </g>
              </g>
            </g>
            <g id="Grupo_1030489" data-name="Grupo 1030489" transform="translate(11.03 27.407)">
              <path id="Trazado_729368" data-name="Trazado 729368" d="M21.644,45.208a3.1,3.1,0,1,1,3.1-3.1,3.1,3.1,0,0,1-3.1,3.1Z" transform="translate(-18.544 -39.008)" fill="#ffa031"/>
              <g id="Grupo_1030488" data-name="Grupo 1030488" transform="translate(13.789)">
                <path id="Trazado_729369" data-name="Trazado 729369" d="M39.751,45.208a3.1,3.1,0,1,1,3.1-3.1A3.1,3.1,0,0,1,39.751,45.208Z" transform="translate(-36.651 -39.008)" fill="#44c7b6"/>
                <path id="Trazado_729370" data-name="Trazado 729370" d="M57.858,45.208a3.1,3.1,0,1,1,3.1-3.1,3.1,3.1,0,0,1-3.1,3.1Z" transform="translate(-40.969 -39.008)" fill="#44c7b6"/>
                <path id="Trazado_729371" data-name="Trazado 729371" d="M75.965,45.208a3.1,3.1,0,1,1,3.1-3.1A3.1,3.1,0,0,1,75.965,45.208Z" transform="translate(-45.288 -39.008)" fill="#44c7b6"/>
              </g>
              <path id="Trazado_729372" data-name="Trazado 729372" d="M21.644,62.065a3.1,3.1,0,1,1,3.1-3.1,3.1,3.1,0,0,1-3.1,3.1Z" transform="translate(-18.544 -43.029)" fill="#ffa031"/>
              <path id="Trazado_729373" data-name="Trazado 729373" d="M39.751,62.065a3.1,3.1,0,1,1,3.1-3.1A3.1,3.1,0,0,1,39.751,62.065Z" transform="translate(-22.862 -43.029)" fill="#44c7b6"/>
              <path id="Trazado_729374" data-name="Trazado 729374" d="M57.858,62.065a3.1,3.1,0,1,1,3.1-3.1,3.1,3.1,0,0,1-3.1,3.1Z" transform="translate(-27.181 -43.029)" fill="#44c7b6"/>
              <path id="Trazado_729375" data-name="Trazado 729375" d="M21.644,78.763a3.1,3.1,0,1,1,3.1-3.1,3.1,3.1,0,0,1-3.1,3.1Z" transform="translate(-18.544 -47.011)" fill="#ffa031"/>
              <path id="Trazado_729376" data-name="Trazado 729376" d="M39.751,78.763a3.1,3.1,0,1,1,3.1-3.1A3.1,3.1,0,0,1,39.751,78.763Z" transform="translate(-22.862 -47.011)" fill="#44c7b6"/>
            </g>
          </g>
          <g id="Grupo_1030491" data-name="Grupo 1030491" transform="translate(2.119 1.077)">
            <path id="Trazado_729377" data-name="Trazado 729377" d="M74.7,42.439V11.266A4.574,4.574,0,0,0,70.131,6.7h-6.5V2.554a1.477,1.477,0,0,0-1.477-1.477H56.792a1.477,1.477,0,0,0-1.477,1.477V6.7H21.5V2.554a1.477,1.477,0,0,0-1.477-1.477H14.661a1.479,1.479,0,0,0-1.477,1.477V6.7h-6.5a4.574,4.574,0,0,0-4.568,4.568V70.451A4.574,4.574,0,0,0,6.688,75.02H41.831A26.328,26.328,0,1,0,74.7,42.439ZM58.269,4.031h2.408v8.284H58.269Zm-42.131,0H18.55v8.284H16.138ZM6.688,9.652h6.5v4.14a1.479,1.479,0,0,0,1.477,1.477h5.366A1.477,1.477,0,0,0,21.5,13.792V9.652h33.81v4.14a1.477,1.477,0,0,0,1.477,1.477h5.362a1.477,1.477,0,0,0,1.477-1.477V9.652h6.5a1.616,1.616,0,0,1,1.614,1.614v7.515H5.074V11.266A1.616,1.616,0,0,1,6.688,9.652Zm0,62.413a1.616,1.616,0,0,1-1.614-1.614V21.735H71.745v20a26.263,26.263,0,0,0-22.657,6.74,4.583,4.583,0,1,0-1.2,1.2,26.265,26.265,0,0,0-6.74,22.391ZM46.928,45.9A1.623,1.623,0,1,1,45.3,44.275,1.627,1.627,0,0,1,46.928,45.9ZM67.107,91.025A23.375,23.375,0,1,1,90.48,67.652,23.4,23.4,0,0,1,67.107,91.025Z" transform="translate(-2.119 -1.077)" fill="#12263f"/>
            <path id="Trazado_729378" data-name="Trazado 729378" d="M80.844,60.762a21.123,21.123,0,1,0,21.124,21.124A21.148,21.148,0,0,0,80.844,60.762Zm0,39.291a18.168,18.168,0,1,1,18.17-18.166A18.19,18.19,0,0,1,80.844,100.053Z" transform="translate(-15.857 -15.312)" fill="#12263f"/>
            <path id="Trazado_729379" data-name="Trazado 729379" d="M102.926,78.375a1.477,1.477,0,0,0-2.685,1.23,15.741,15.741,0,0,1,1.016,6.555,1.477,1.477,0,1,0,2.951.148,18.722,18.722,0,0,0-1.282-7.933Z" transform="translate(-25.49 -19.308)" fill="#12263f"/>
            <path id="Trazado_729380" data-name="Trazado 729380" d="M102.036,94.217a1.479,1.479,0,0,0-1.9.875c-.107.288-.222.58-.343.868a1.477,1.477,0,1,0,2.714,1.163c.144-.336.281-.676.4-1.012a1.477,1.477,0,0,0-.875-1.895Z" transform="translate(-25.386 -23.269)" fill="#12263f"/>
            <path id="Trazado_729381" data-name="Trazado 729381" d="M85.151,72.576a1.479,1.479,0,0,0-1.477,1.477V84.077l-5.447,5.285a1.477,1.477,0,0,0,2.057,2.12l5.9-5.717a1.49,1.49,0,0,0,.447-1.06V74.054A1.479,1.479,0,0,0,85.151,72.576Z" transform="translate(-20.164 -18.129)" fill="#12263f"/>
            <path id="Trazado_729382" data-name="Trazado 729382" d="M21.181,37.067a4.578,4.578,0,1,0,4.576,4.579A4.583,4.583,0,0,0,21.181,37.067Zm0,6.2A1.623,1.623,0,1,1,22.8,41.646,1.623,1.623,0,0,1,21.181,43.267Z" transform="translate(-5.574 -9.66)" fill="#12263f"/>
            <path id="Trazado_729383" data-name="Trazado 729383" d="M39.289,37.067a4.578,4.578,0,1,0,4.576,4.579A4.583,4.583,0,0,0,39.289,37.067Zm0,6.2a1.623,1.623,0,1,1,1.621-1.621A1.624,1.624,0,0,1,39.289,43.267Z" transform="translate(-9.892 -9.66)" fill="#12263f"/>
            <path id="Trazado_729384" data-name="Trazado 729384" d="M57.394,46.222a4.578,4.578,0,1,0-4.576-4.576A4.583,4.583,0,0,0,57.394,46.222Zm0-6.2a1.623,1.623,0,1,1-1.621,1.625A1.627,1.627,0,0,1,57.394,40.021Z" transform="translate(-14.211 -9.66)" fill="#12263f"/>
            <path id="Trazado_729385" data-name="Trazado 729385" d="M75.5,46.222a4.578,4.578,0,1,0-4.576-4.576A4.582,4.582,0,0,0,75.5,46.222Zm0-6.2a1.623,1.623,0,1,1-1.621,1.625A1.624,1.624,0,0,1,75.5,40.021Z" transform="translate(-18.53 -9.66)" fill="#12263f"/>
            <path id="Trazado_729386" data-name="Trazado 729386" d="M21.181,53.924A4.578,4.578,0,1,0,25.757,58.5a4.583,4.583,0,0,0-4.576-4.579Zm0,6.2A1.623,1.623,0,1,1,22.8,58.5,1.623,1.623,0,0,1,21.181,60.125Z" transform="translate(-5.574 -13.681)" fill="#12263f"/>
            <path id="Trazado_729387" data-name="Trazado 729387" d="M39.289,53.924A4.578,4.578,0,1,0,43.865,58.5a4.583,4.583,0,0,0-4.576-4.579Zm0,6.2A1.623,1.623,0,1,1,40.91,58.5,1.624,1.624,0,0,1,39.289,60.125Z" transform="translate(-9.892 -13.681)" fill="#12263f"/>
            <path id="Trazado_729388" data-name="Trazado 729388" d="M21.181,70.622A4.578,4.578,0,1,0,25.757,75.2,4.583,4.583,0,0,0,21.181,70.622Zm0,6.2A1.623,1.623,0,1,1,22.8,75.2,1.623,1.623,0,0,1,21.181,76.823Z" transform="translate(-5.574 -17.663)" fill="#12263f"/>
            <path id="Trazado_729389" data-name="Trazado 729389" d="M39.289,70.622A4.578,4.578,0,1,0,43.865,75.2,4.583,4.583,0,0,0,39.289,70.622Zm0,6.2A1.623,1.623,0,1,1,40.91,75.2,1.624,1.624,0,0,1,39.289,76.823Z" transform="translate(-9.892 -17.663)" fill="#12263f"/>
          </g>
        </g>
      </g>
    </g>
  </g>
</svg>
