<svg id="Grupo_1030385" data-name="Grupo 1030385" xmlns="http://www.w3.org/2000/svg" xmlns:xlink="http://www.w3.org/1999/xlink" width="243.325" height="135.968" viewBox="0 0 243.325 135.968">
  <defs>
    <clipPath id="clip-path">
      <rect id="Rectángulo_350788" data-name="Rectángulo 350788" width="243.325" height="135.968" fill="none"/>
    </clipPath>
  </defs>
  <g id="Grupo_1030384" data-name="Grupo 1030384" clip-path="url(#clip-path)">
    <path id="Trazado_728975" data-name="Trazado 728975" d="M237.232,105.471c-8.179-11.55-22.564-17.65-36.7-18.269a62.083,62.083,0,0,0-39.066,11.848c1.035-6.423-3.376-12.927-9.325-15.559s-12.972-1.9-18.965.633-11.134,6.7-16.034,10.975c-1.187-12.958-5.377-31.879-16.985-39.39-10.04-6.5-22.831-7.269-34.656-5.484-15.9,2.4-31.6,9.485-41.679,22.019s-13.453,30.985-5.866,45.166C6,118.772-2.839,132.481.846,143.93a30.467,30.467,0,0,0,6.766,10.837l.131.144A36.4,36.4,0,0,0,34.67,166.677H192.93a36.463,36.463,0,0,0,12.094-2.049q1.6-.561,3.174-1.173c10.833-4.21,25.976-10.96,31.253-21.817,5.622-11.569,5.327-25.511-2.22-36.167" transform="translate(0 -31.641)" fill="#e0eaf4"/>
    <path id="Trazado_728976" data-name="Trazado 728976" d="M222.411,49.283c-.161,0-.3.322-.368.792-.015.1-.07.178-.138.187l-.735.1c-.071.009-.136-.058-.16-.162-.046-.2-.118-.343-.2-.381a5.359,5.359,0,0,0-.928-2.219c.038-.083-.006-.234-.12-.414-.057-.09-.059-.184,0-.227l.589-.451a.2.2,0,0,1,.23.035c.381.284.707.413.82.3.161-.161-.167-.751-.734-1.318s-1.157-.895-1.318-.734c-.114.114.015.44.3.82a.2.2,0,0,1,.035.23l-.451.589c-.043.057-.137.055-.227,0-.188-.118-.344-.162-.424-.115a5.36,5.36,0,0,0-2.2-.893c0-.1-.157-.187-.391-.24-.1-.024-.171-.089-.162-.16l.1-.735c.009-.067.084-.123.187-.138.47-.068.792-.207.792-.368,0-.228-.649-.413-1.45-.413s-1.451.185-1.451.413c0,.161.322.3.792.368.1.015.178.07.187.138l.1.735c.009.071-.058.136-.162.16-.237.054-.392.143-.392.244,0,0,0,.006,0,.009a5.362,5.362,0,0,0-2.164.915.1.1,0,0,0-.012-.023c-.071-.071-.243-.025-.449.1-.09.057-.184.059-.227,0l-.451-.589a.2.2,0,0,1,.035-.23c.284-.381.413-.707.3-.82-.161-.161-.751.167-1.318.734s-.895,1.157-.734,1.318c.114.114.44-.015.82-.3a.2.2,0,0,1,.229-.035l.589.451c.057.043.055.137,0,.227-.129.206-.176.378-.1.449a.1.1,0,0,0,.03.016,5.365,5.365,0,0,0-.891,2.17.11.11,0,0,0-.04-.013c-.1,0-.19.155-.244.391-.024.1-.088.171-.16.162l-.735-.1c-.067-.009-.123-.084-.138-.187-.068-.47-.207-.792-.368-.792-.228,0-.413.649-.413,1.45s.185,1.45.413,1.45c.161,0,.3-.322.368-.792.015-.1.07-.178.138-.187l.735-.1c.071-.009.136.058.16.162.054.237.143.392.244.392a.109.109,0,0,0,.038-.012,5.366,5.366,0,0,0,.888,2.172.1.1,0,0,0-.027.014c-.071.071-.025.243.1.449.057.09.058.184,0,.227l-.589.451a.2.2,0,0,1-.229-.035c-.381-.284-.707-.413-.82-.3-.161.161.167.751.734,1.318s1.156.895,1.318.734c.114-.114-.016-.44-.3-.82a.2.2,0,0,1-.035-.229l.451-.589c.043-.057.137-.055.227,0,.206.129.378.176.449.1,0,0,.006-.013.009-.018a5.362,5.362,0,0,0,2.165.916v0c0,.1.155.19.392.244.1.024.171.088.162.16l-.1.735c-.009.067-.084.123-.187.138-.47.068-.792.207-.792.368,0,.228.649.413,1.451.413s1.45-.185,1.45-.413c0-.161-.322-.3-.792-.368-.1-.015-.178-.07-.187-.138l-.1-.735c-.009-.071.058-.136.162-.16.229-.052.379-.137.39-.233a5.365,5.365,0,0,0,2.207-.9c.082.041.235,0,.418-.119.09-.056.184-.058.227,0l.451.589a.2.2,0,0,1-.035.229c-.284.381-.413.707-.3.82.161.161.751-.167,1.318-.734s.895-1.156.734-1.318c-.114-.113-.44.016-.82.3a.2.2,0,0,1-.23.035l-.589-.451c-.057-.043-.055-.137,0-.227.111-.178.156-.326.122-.41a5.363,5.363,0,0,0,.927-2.224c.082-.038.153-.179.2-.38.024-.1.089-.171.16-.162l.735.1c.067.009.123.084.138.187.068.47.207.792.368.792.228,0,.413-.649.413-1.45s-.185-1.45-.413-1.45" transform="translate(-133.301 -27.779)" fill="#8eb2c2"/>
    <path id="Trazado_728977" data-name="Trazado 728977" d="M186.087,96.566a3.431,3.431,0,0,1-.74-.317c-2.879-1.613-5.468-3.155-5.494-3.171a.221.221,0,1,1,.226-.38c.026.015,2.61,1.554,5.484,3.164.674.378,1.191.436,1.536.174.842-.639.759-3.128.243-5.257-.657-2.709-4.679-3.991-6.179-3.918a13.742,13.742,0,0,0-3.341.668.221.221,0,0,1-.147-.417,13.931,13.931,0,0,1,3.466-.693c1.9-.093,5.961,1.491,6.631,4.255.411,1.7.788,4.807-.406,5.713a1.4,1.4,0,0,1-1.279.177" transform="translate(-113.726 -55.36)" fill="#97e8ce"/>
    <path id="Trazado_728978" data-name="Trazado 728978" d="M71.967,97.888a13.37,13.37,0,0,1-1.442-.49,6.878,6.878,0,0,1-4.261-4.053c-.561-1.659-.518-2.781.133-3.429,1.3-1.293,4.68-.133,7.148.714.35.12.679.233.98.331,3.162,1.034,4.76.467,4.776.461a.221.221,0,1,1,.153.414c-.07.026-1.76.622-5.066-.455-.3-.1-.634-.212-.986-.333-2.226-.764-5.589-1.918-6.693-.819-.512.51-.521,1.511-.026,2.974a6.46,6.46,0,0,0,4.009,3.785c4.227,1.724,10.791,1.284,13.836-.262a.221.221,0,1,1,.2.394c-2.813,1.428-8.417,1.982-12.762.767" transform="translate(-42.2 -57.231)" fill="#97e8ce"/>
    <path id="Trazado_728979" data-name="Trazado 728979" d="M132.214,83.85l-2.7-6.065a.442.442,0,0,0-.271-.243c-1.321-.411-2.361-1.21-6.814-4.453-4.661-3.394-9.622,1.032-12.3,2.579-2,1.154-6.614,3.518-8.192,4.322a.448.448,0,0,0-.118.71l5.243,5.421a.452.452,0,0,0,.368.134c3.477-.333,3.82.728,8.683,1.389,4.962.674,8.114-.383,10.681-2.266a6.265,6.265,0,0,1,4.923-.906.447.447,0,0,0,.5-.621" transform="translate(-65.147 -46.021)" fill="#97e8ce"/>
    <path id="Trazado_728980" data-name="Trazado 728980" d="M108.285,83.592a.613.613,0,0,1,.16-.971c2.109-1.085,4.97-2.576,6.461-3.438.443-.256.93-.576,1.447-.915,2.132-1.4,5.05-3.317,7.748-2.563a5.214,5.214,0,0,1,1.659.823l.874.636c3.291,2.4,4.526,3.3,5.714,3.79a.609.609,0,0,1,.325.316l1.453,3.265a.614.614,0,0,1-.513.86,6.839,6.839,0,0,0-3.489,1.28c-2.657,1.949-5.654,2.573-9.718,2.021a26.634,26.634,0,0,1-3.885-.807l-.512-.144a10.822,10.822,0,0,0-3.894-.5.612.612,0,0,1-.47-.186Z" transform="translate(-69.258 -48.389)" fill="#52d1ce"/>
    <path id="Trazado_728981" data-name="Trazado 728981" d="M115.6,82.645c.472-.272.988-.612,1.536-.971,2.228-1.463,5.279-3.467,8.065-2.688a5.349,5.349,0,0,1,1.7.847l.924.673c3.489,2.543,4.795,3.5,6.066,4.02a.141.141,0,0,0,.075.008l-.163-.367c-1.184-.531-2.522-1.507-5.806-3.9l-.923-.672a5.647,5.647,0,0,0-1.8-.893c-2.915-.815-6.031,1.231-8.307,2.726-.543.357-1.057.694-1.521.962-1.439.832-4.09,2.22-6.253,3.337l.214.221c2.151-1.111,4.76-2.478,6.187-3.3" transform="translate(-69.953 -50.298)" fill="#97e8ce"/>
    <path id="Trazado_728982" data-name="Trazado 728982" d="M137.442,90.1c-1.238-.511-2.536-1.457-6.006-3.986l-.923-.673a5.66,5.66,0,0,0-1.8-.893c-2.915-.815-6.031,1.232-8.312,2.73-.541.355-1.052.691-1.515.958-1.24.716-3.377,1.845-5.328,2.858l.214.221c1.933-1,4.034-2.114,5.261-2.823.47-.272.984-.61,1.536-.971,2.228-1.464,5.279-3.468,8.065-2.689a5.371,5.371,0,0,1,1.705.847l.925.674c3.488,2.543,4.793,3.494,6.064,4.019a.145.145,0,0,0,.193-.08.147.147,0,0,0-.08-.193" transform="translate(-72.747 -54.041)" fill="#97e8ce"/>
    <path id="Trazado_728983" data-name="Trazado 728983" d="M133.948,91.28a5.652,5.652,0,0,0-1.8-.893c-2.915-.815-6.031,1.232-8.312,2.73-.541.355-1.052.691-1.515.958-1.045.6-2.731,1.5-4.4,2.377l.007.007a.61.61,0,0,0,.3.166c1.621-.848,3.234-1.709,4.248-2.3.47-.271.984-.609,1.536-.971,2.228-1.463,5.279-3.467,8.065-2.688a5.364,5.364,0,0,1,1.7.847l.924.673c1.794,1.307,3.01,2.194,3.941,2.818q.2-.052.393-.092c-.952-.625-2.215-1.545-4.161-2.964Z" transform="translate(-75.539 -57.784)" fill="#97e8ce"/>
    <path id="Trazado_728984" data-name="Trazado 728984" d="M141.109,97.123a5.652,5.652,0,0,0-1.8-.893c-2.915-.815-6.031,1.232-8.306,2.726-.543.357-1.056.694-1.521.963-.387.223-.861.487-1.39.775q.206.051.416.109c.42-.23.8-.443,1.121-.628.473-.273.989-.612,1.536-.971,2.228-1.463,5.279-3.468,8.065-2.689a5.364,5.364,0,0,1,1.7.847l.925.675c.678.494,1.272.927,1.8,1.31q.147-.08.294-.151c-.558-.4-1.192-.865-1.924-1.4Z" transform="translate(-82.057 -61.527)" fill="#97e8ce"/>
    <path id="Trazado_728985" data-name="Trazado 728985" d="M146.989,102.966a5.658,5.658,0,0,0-1.8-.893c-2.914-.815-6.03,1.232-8.306,2.726-.21.139-.415.272-.615.4.132.029.268.057.41.086l.368-.241c2.228-1.463,5.279-3.467,8.065-2.688a5.37,5.37,0,0,1,1.705.847l.9.659c.086-.058.171-.118.256-.178l-.064-.047Z" transform="translate(-87.295 -65.27)" fill="#97e8ce"/>
    <path id="Trazado_728986" data-name="Trazado 728986" d="M222.343,115.069a3.414,3.414,0,0,1-.74-.317c-2.879-1.613-5.468-3.155-5.494-3.171a.221.221,0,0,1,.226-.38c.026.015,2.61,1.554,5.484,3.164.674.378,1.191.436,1.536.174.842-.639.759-3.128.243-5.257-.657-2.709-4.679-3.992-6.179-3.918a13.731,13.731,0,0,0-3.341.668.221.221,0,1,1-.147-.417,13.907,13.907,0,0,1,3.466-.693c1.9-.093,5.961,1.491,6.631,4.255.411,1.7.788,4.807-.406,5.713a1.4,1.4,0,0,1-1.279.177" transform="translate(-136.952 -67.213)" fill="#9de2f5"/>
    <path id="Trazado_728987" data-name="Trazado 728987" d="M108.224,116.39a13.37,13.37,0,0,1-1.442-.49,6.878,6.878,0,0,1-4.261-4.053c-.561-1.659-.518-2.781.133-3.429,1.3-1.293,4.68-.133,7.148.714.35.12.679.233.98.331,3.162,1.034,4.76.467,4.776.461a.221.221,0,1,1,.153.414c-.07.026-1.76.622-5.066-.455-.3-.1-.634-.212-.986-.333-2.226-.764-5.589-1.918-6.693-.819-.512.51-.521,1.511-.026,2.974a6.46,6.46,0,0,0,4.009,3.785c4.227,1.724,10.791,1.285,13.836-.262a.221.221,0,0,1,.2.394c-2.813,1.428-8.417,1.982-12.762.767" transform="translate(-65.426 -69.084)" fill="#9de2f5"/>
    <path id="Trazado_728988" data-name="Trazado 728988" d="M168.47,102.352l-2.7-6.065a.443.443,0,0,0-.271-.243c-1.321-.411-2.361-1.21-6.814-4.453-4.661-3.394-9.622,1.032-12.3,2.579-2,1.154-6.614,3.518-8.191,4.322a.447.447,0,0,0-.119.71l5.243,5.421a.452.452,0,0,0,.368.134c3.477-.333,3.82.728,8.683,1.389,4.962.674,8.114-.383,10.681-2.266a6.265,6.265,0,0,1,4.922-.906.447.447,0,0,0,.5-.621" transform="translate(-88.373 -57.873)" fill="#9de2f5"/>
    <path id="Trazado_728989" data-name="Trazado 728989" d="M144.541,102.094a.613.613,0,0,1,.16-.971c2.109-1.085,4.97-2.576,6.461-3.438.443-.256.931-.576,1.447-.915,2.132-1.4,5.05-3.317,7.748-2.563a5.214,5.214,0,0,1,1.659.823l.874.636c3.291,2.4,4.526,3.3,5.714,3.79a.609.609,0,0,1,.325.316l1.453,3.265a.614.614,0,0,1-.513.86,6.839,6.839,0,0,0-3.489,1.28c-2.657,1.949-5.654,2.573-9.718,2.021a26.633,26.633,0,0,1-3.885-.807l-.512-.144a10.822,10.822,0,0,0-3.894-.5.611.611,0,0,1-.47-.186Z" transform="translate(-92.484 -60.242)" fill="#5598de"/>
    <path id="Trazado_728990" data-name="Trazado 728990" d="M151.854,101.147c.472-.272.988-.612,1.536-.971,2.228-1.463,5.279-3.467,8.065-2.689a5.357,5.357,0,0,1,1.7.847l.924.673c3.489,2.543,4.795,3.5,6.066,4.02a.141.141,0,0,0,.075.008l-.163-.367c-1.184-.531-2.522-1.507-5.806-3.9l-.923-.673a5.653,5.653,0,0,0-1.8-.892c-2.915-.815-6.031,1.231-8.307,2.726-.543.357-1.057.694-1.521.962-1.439.832-4.09,2.22-6.253,3.337l.214.221c2.151-1.111,4.76-2.478,6.187-3.3" transform="translate(-93.179 -62.151)" fill="#9de2f5"/>
    <path id="Trazado_728991" data-name="Trazado 728991" d="M173.7,108.6c-1.238-.511-2.536-1.457-6.006-3.986l-.923-.673a5.651,5.651,0,0,0-1.8-.892c-2.915-.815-6.031,1.231-8.312,2.73-.541.355-1.052.691-1.515.958-1.24.716-3.377,1.845-5.328,2.858l.214.221c1.933-1,4.035-2.114,5.261-2.823.47-.272.984-.61,1.536-.971,2.228-1.463,5.279-3.468,8.065-2.689a5.364,5.364,0,0,1,1.7.847l.925.675c3.488,2.543,4.793,3.494,6.064,4.019a.144.144,0,0,0,.192-.08.147.147,0,0,0-.08-.193" transform="translate(-95.974 -65.894)" fill="#9de2f5"/>
    <path id="Trazado_728992" data-name="Trazado 728992" d="M170.2,109.782a5.652,5.652,0,0,0-1.8-.893c-2.915-.815-6.031,1.232-8.312,2.73-.541.355-1.052.691-1.515.958-1.045.6-2.731,1.5-4.4,2.377l.007.007a.61.61,0,0,0,.3.166c1.621-.848,3.234-1.709,4.248-2.3.47-.272.984-.61,1.536-.972,2.228-1.463,5.279-3.467,8.065-2.688a5.364,5.364,0,0,1,1.7.847l.924.673c1.794,1.307,3.01,2.194,3.941,2.818q.2-.052.393-.093c-.952-.625-2.215-1.545-4.161-2.964Z" transform="translate(-98.766 -69.637)" fill="#9de2f5"/>
    <path id="Trazado_728993" data-name="Trazado 728993" d="M177.366,115.625a5.652,5.652,0,0,0-1.8-.893c-2.915-.815-6.031,1.232-8.306,2.726-.543.357-1.056.694-1.521.963-.387.223-.861.487-1.39.775q.206.052.416.109c.42-.23.8-.443,1.121-.628.473-.273.989-.612,1.536-.971,2.228-1.463,5.279-3.468,8.065-2.689a5.364,5.364,0,0,1,1.7.847l.925.675c.678.494,1.272.927,1.8,1.31q.147-.08.294-.151c-.558-.4-1.192-.865-1.924-1.4Z" transform="translate(-105.284 -73.38)" fill="#9de2f5"/>
    <path id="Trazado_728994" data-name="Trazado 728994" d="M183.245,121.469a5.652,5.652,0,0,0-1.8-.893c-2.914-.815-6.03,1.232-8.306,2.726-.211.139-.415.272-.616.4.132.029.268.057.41.086l.368-.241c2.228-1.463,5.279-3.467,8.065-2.688a5.364,5.364,0,0,1,1.7.847l.9.659c.086-.057.17-.118.256-.178l-.064-.046Z" transform="translate(-110.521 -77.124)" fill="#9de2f5"/>
    <path id="Trazado_728995" data-name="Trazado 728995" d="M220.161,200.284a12.971,12.971,0,0,1,1.159-7.237,11.978,11.978,0,0,1,5.037-5.3c3.218-1.733,7.078-2.065,10.5-3.265a14.317,14.317,0,0,0-.52,2.155c-.235.949-.394,1.915-.548,2.88a26.018,26.018,0,0,1-1.236,5.424,16.273,16.273,0,0,1-5.273,6.666c-1.741,1.368-4.337,3.378-6.725,3.019-1.781-.268-2.216-2.9-2.4-4.341" transform="translate(-140.971 -118.181)" fill="#065958"/>
    <path id="Trazado_728996" data-name="Trazado 728996" d="M237.066,192.353a23.464,23.464,0,0,0-7.968,7.3c-1.957,2.728-3.821,6.107-4.207,9.493-.043.38.529.648.688.235,1.233-3.218,2.219-6.331,4.184-9.215a35.008,35.008,0,0,1,7.505-7.508.181.181,0,0,0-.2-.3" transform="translate(-144.066 -123.208)" fill="#213006"/>
    <path id="Trazado_728997" data-name="Trazado 728997" d="M215.576,233.08a12.968,12.968,0,0,1,5.177-5.188,11.976,11.976,0,0,1,7.186-1.348c3.623.479,6.947,2.47,10.427,3.5a14.332,14.332,0,0,0-1.683,1.443c-.746.632-1.44,1.322-2.13,2.013a26,26,0,0,1-4.178,3.674,16.275,16.275,0,0,1-8.178,2.317c-2.213.09-5.494.2-7.219-1.49-1.287-1.26-.1-3.648.6-4.923" transform="translate(-137.351 -145.064)" fill="#065958"/>
    <path id="Trazado_728998" data-name="Trazado 728998" d="M234.638,237.822a23.46,23.46,0,0,0-10.731,1.25c-3.184,1.066-6.673,2.714-8.969,5.233-.257.282.05.835.42.593,2.884-1.888,5.506-3.833,8.787-5.021a35.02,35.02,0,0,1,10.48-1.693.181.181,0,0,0,.013-.362" transform="translate(-137.631 -152.225)" fill="#484a04"/>
    <path id="Trazado_728999" data-name="Trazado 728999" d="M299.874,247.71c3.76,5.5,5.362,12.919,3.3,18.865-3.723,10.71-19.124,12.871-28.888,12.921a32.545,32.545,0,0,1-15.861-3.716,14.321,14.321,0,0,1-6.077-5.724c-2.171-4.263.491-8.985,2.084-13.02,2.059-5.212,4.964-10.2,9.185-13.889a30.241,30.241,0,0,1,11.551-6.094c1.381-.4,3.818.02,4.911-.792,1.9-1.413-.75-3.97.321-4.81a1.658,1.658,0,0,1,1.15-.22,12.8,12.8,0,0,1,6.008,1.729c.011.008-3.208,3.112-2.955,3.928.513,1.65,2.528,1.908,3.905,2.434a31.914,31.914,0,0,1,5.687,2.769,19.825,19.825,0,0,1,5.683,5.621" transform="translate(-161.13 -148.12)" fill="#12263f"/>
    <path id="Trazado_729000" data-name="Trazado 729000" d="M343.876,264.051a15.579,15.579,0,0,0-4.423-4.406,27.025,27.025,0,0,0-11.65-4.163,4,4,0,0,0-4.4,3.973v1.425a4.006,4.006,0,0,0,2.629,3.75,48.459,48.459,0,0,1,14.237,8.4,19.6,19.6,0,0,1,4.587,5.72q.118.222.229.445a.853.853,0,0,0,1.569-.105l.006-.019c1.508-4.337.39-10.372-2.783-15.016" transform="translate(-207.175 -163.652)" fill="#1c466d"/>
    <path id="Trazado_729001" data-name="Trazado 729001" d="M228,257.711c3.76,5.5,5.362,12.919,3.3,18.865-3.723,10.71-19.124,12.871-28.888,12.921a32.549,32.549,0,0,1-15.861-3.717,14.322,14.322,0,0,1-6.077-5.723c-2.171-4.263.491-8.985,2.084-13.021,2.059-5.212,4.964-10.2,9.185-13.889a30.241,30.241,0,0,1,11.551-6.095c1.382-.4,3.819.02,4.911-.792,1.9-1.413-.75-3.97.321-4.81a1.66,1.66,0,0,1,1.15-.22,12.8,12.8,0,0,1,6.008,1.729c.012.008-3.208,3.112-2.955,3.927.513,1.65,2.528,1.908,3.905,2.434a31.914,31.914,0,0,1,5.687,2.769A19.825,19.825,0,0,1,228,257.711" transform="translate(-115.086 -154.527)" fill="#12263f"/>
    <path id="Trazado_729002" data-name="Trazado 729002" d="M272,274.052a15.579,15.579,0,0,0-4.423-4.406,27.025,27.025,0,0,0-11.65-4.163,4,4,0,0,0-4.4,3.973v1.425a4.006,4.006,0,0,0,2.629,3.75,48.459,48.459,0,0,1,14.237,8.4,19.6,19.6,0,0,1,4.587,5.72q.118.222.229.445a.853.853,0,0,0,1.569-.105l.007-.019c1.508-4.337.39-10.372-2.783-15.016" transform="translate(-161.13 -170.059)" fill="#1c466d"/>
    <path id="Trazado_729003" data-name="Trazado 729003" d="M46.131,239.11q-.339-.271-.7-.533c-2.9-2.117-4.964-5.439-8.847-5.946-3.648-.475-6.573,3.311-7.235,6.552a22.127,22.127,0,0,0,.35,8.152,4.395,4.395,0,0,0-7.836,1.527,7.139,7.139,0,0,0,1.352,5.362,34.8,34.8,0,0,1,3.056,4.785,6.893,6.893,0,0,0-5.784,1.427,5.441,5.441,0,0,0-1.687,5.578c.721,2.264,2.952,3.64,5.017,4.817a6.353,6.353,0,0,0-4.205,5.3,4.42,4.42,0,0,0,.432,2.506c1.092,2.028,3.79,2.4,6.09,2.524,8.7.461,17.5.736,26.066-.868,7.027-1.316,6.141-11.849,5.813-16.886a33.382,33.382,0,0,0-1.158-7.48,40.2,40.2,0,0,0-4.209-8.653,27.927,27.927,0,0,0-6.516-8.162" transform="translate(-11.904 -149)" fill="#065958"/>
    <rect id="Rectángulo_350784" data-name="Rectángulo 350784" width="5.062" height="5.062" transform="translate(25.013 22.524) rotate(-18.118)" fill="#84d5e6"/>
    <rect id="Rectángulo_350785" data-name="Rectángulo 350785" width="3.442" height="5.062" transform="translate(25.783 22.272) rotate(-18.117)" fill="#6aa5d9"/>
    <rect id="Rectángulo_350786" data-name="Rectángulo 350786" width="1.377" height="5.062" transform="translate(26.764 21.951) rotate(-18.113)" fill="#84d5e6"/>
    <path id="Trazado_729004" data-name="Trazado 729004" d="M52.769,45.047,54.1,49.126a1.457,1.457,0,0,1-.932,1.839l-6.7,2.191a1.458,1.458,0,0,1-1.839-.932l-.353-1.078a1.457,1.457,0,0,0-1.839-.932l-7.928,2.594-.453-1.385L50.93,44.115a1.458,1.458,0,0,1,1.839.932" transform="translate(-21.822 -28.214)" fill="#ebfdff"/>
    <path id="Trazado_729005" data-name="Trazado 729005" d="M68.606,71.008l7.716-2.525a.6.6,0,0,1,.754.382l.737,2.252a.6.6,0,0,1-.382.753l-7.716,2.525a.6.6,0,0,1-.753-.382l-.737-2.252a.6.6,0,0,1,.382-.753" transform="translate(-43.686 -43.852)" fill="#0090b8"/>
    <path id="Trazado_729006" data-name="Trazado 729006" d="M89.465,70.27a.385.385,0,0,1,.485.246l.554,1.693a.385.385,0,0,1-.731.239l-.554-1.693a.384.384,0,0,1,.246-.485" transform="translate(-57.142 -45.003)" fill="#00558f"/>
    <path id="Trazado_729007" data-name="Trazado 729007" d="M85.717,71.5a.385.385,0,0,1,.485.246l.554,1.693a.385.385,0,0,1-.731.239l-.554-1.693a.384.384,0,0,1,.246-.485" transform="translate(-54.741 -45.789)" fill="#00558f"/>
    <path id="Trazado_729008" data-name="Trazado 729008" d="M81.969,72.723a.385.385,0,0,1,.485.246l.554,1.693a.385.385,0,0,1-.731.239l-.554-1.693a.384.384,0,0,1,.246-.485" transform="translate(-52.34 -46.575)" fill="#00558f"/>
    <path id="Trazado_729009" data-name="Trazado 729009" d="M78.221,73.949a.385.385,0,0,1,.485.246l.554,1.693a.385.385,0,0,1-.731.239l-.554-1.693a.384.384,0,0,1,.246-.485" transform="translate(-49.939 -47.36)" fill="#00558f"/>
    <path id="Trazado_729010" data-name="Trazado 729010" d="M74.473,75.176a.385.385,0,0,1,.485.246l.554,1.693a.385.385,0,0,1-.731.239l-.554-1.693a.384.384,0,0,1,.246-.485" transform="translate(-47.538 -48.146)" fill="#00558f"/>
    <path id="Trazado_729011" data-name="Trazado 729011" d="M70.725,76.4a.385.385,0,0,1,.485.246l.554,1.693a.385.385,0,0,1-.731.239l-.554-1.693a.384.384,0,0,1,.246-.485" transform="translate(-45.137 -48.932)" fill="#00558f"/>
    <path id="Trazado_729012" data-name="Trazado 729012" d="M37.92,50.348a19.729,19.729,0,0,1,6.046-1.262A1.832,1.832,0,0,1,45,49.347a5.054,5.054,0,0,1,.719.879,2.341,2.341,0,0,0,1.906.683,6.926,6.926,0,0,0,2.017-.541,4.047,4.047,0,0,0,2.166-1.427c.944-1.552.2-3.366-1.089-4.733l.214-.092a1.457,1.457,0,0,1,1.839.932L54.1,49.127a1.458,1.458,0,0,1-.932,1.839l-6.7,2.191a1.457,1.457,0,0,1-1.839-.932l-.353-1.078a1.458,1.458,0,0,0-1.839-.932l-7.928,2.594-.454-1.385,1.006-.436a18.083,18.083,0,0,0,2.849-.64" transform="translate(-21.822 -28.214)" fill="#bfdde0"/>
    <path id="Trazado_729013" data-name="Trazado 729013" d="M59.351,92.861c-1.36-5.869,4.958-12.225,4.958-12.225l1.8-.59,3.254-1.065,1.8-.59s8.853,1.392,11.224,6.931,5.962,22.069,4.665,24.091c-.633.984-3.174,2.785-6.373,4.159q-.2.084-.393.165a17.72,17.72,0,0,1-2.45.8q-.206.051-.411.1c-3.393.783-6.506.833-7.6.413-2.243-.864-9.118-16.318-10.481-22.188" transform="translate(-37.898 -50.218)" fill="#ebfdff"/>
    <path id="Trazado_729014" data-name="Trazado 729014" d="M80.629,115.11c.382-.125.766-.266,1.137-.419q.191-.078.378-.159c3.121-1.34,5.418-3.029,5.894-3.747.265-.587.179-3.768-1.138-10.181a80.607,80.607,0,0,0-3.6-12.939c-1.908-4.456-8.808-6-10.182-6.262l-6.355,2.08c-.951,1.025-5.607,6.348-4.512,11.07A80.675,80.675,0,0,0,67,107.117c2.73,5.952,4.541,8.568,5.1,8.884.806.3,3.658.3,6.97-.462l.395-.095c.39-.1.783-.21,1.166-.335" transform="translate(-39.773 -52.148)" fill="#a1d8df"/>
    <path id="Trazado_729015" data-name="Trazado 729015" d="M86.713,111.243c-2.23-6.136-4.382-12.44-5.355-15.685a27.721,27.721,0,0,1-.931-11.545l2.224-.728a27.726,27.726,0,0,1,6.073,9.863c1.134,3.191,3.124,9.546,4.953,15.816.847,2.9,1.5,5.233,1.983,7.044-.48.241-.983.475-1.5.7q-.2.084-.394.165a17.688,17.688,0,0,1-2.45.8q-.206.051-.411.1c-.552.128-1.1.235-1.626.325-.679-1.748-1.532-4.012-2.564-6.853" transform="translate(-51.372 -53.353)" fill="#fff"/>
    <path id="Trazado_729016" data-name="Trazado 729016" d="M68.936,126.869a58.749,58.749,0,0,0,20.893-6.836l-2.924-10.515a58.8,58.8,0,0,1-21.826,7.141l3.857,10.209" transform="translate(-41.69 -70.158)" fill="#ebfdff"/>
    <path id="Trazado_729017" data-name="Trazado 729017" d="M90.684,129.708q.989-.26,1.968-.554l-.667-2q1.368-.411,2.713-.888l.644,2.008q.963-.341,1.915-.716l.854,2.736q-.941.37-1.894.707l.619,1.93q-1.309.463-2.638.863l-.642-1.922q-.967.291-1.945.549-.461-1.345-.929-2.711" transform="translate(-58.093 -80.887)" fill="#0090b8"/>
    <rect id="Rectángulo_350787" data-name="Rectángulo 350787" width="3.747" height="3.747" transform="matrix(0.975, -0.223, 0.223, 0.975, 122.505, 118.841)" fill="#fff"/>
    <path id="Trazado_729018" data-name="Trazado 729018" d="M351.644,316.249l-3.1.708a1.079,1.079,0,0,1-1.292-.811l-1.162-5.084a1.08,1.08,0,0,1,.811-1.293l.818-.187a1.08,1.08,0,0,0,.812-1.292l-1.376-6.02,1.052-.24,4.247,12.928a1.079,1.079,0,0,1-.811,1.292" transform="translate(-221.692 -193.483)" fill="#a1d8df"/>
    <path id="Trazado_729019" data-name="Trazado 729019" d="M336.946,326.678l1.339,5.859a.442.442,0,0,1-.333.53l-1.709.391a.443.443,0,0,1-.53-.332l-1.339-5.859a.442.442,0,0,1,.332-.53l1.71-.391a.442.442,0,0,1,.529.332" transform="translate(-214.197 -209.053)" fill="#0090b8"/>
    <path id="Trazado_729020" data-name="Trazado 729020" d="M340.738,342.433a.285.285,0,0,1-.215.341l-1.286.294a.285.285,0,1,1-.127-.555l1.285-.294a.285.285,0,0,1,.341.214" transform="translate(-217.097 -219.225)" fill="#00558f"/>
    <path id="Trazado_729021" data-name="Trazado 729021" d="M340.088,339.588a.285.285,0,0,1-.214.341l-1.285.294a.285.285,0,0,1-.127-.555l1.286-.294a.285.285,0,0,1,.341.214" transform="translate(-216.68 -217.402)" fill="#00558f"/>
    <path id="Trazado_729022" data-name="Trazado 729022" d="M339.437,336.742a.285.285,0,0,1-.215.341l-1.285.294a.285.285,0,0,1-.128-.555l1.286-.294a.285.285,0,0,1,.341.214" transform="translate(-216.263 -215.579)" fill="#00558f"/>
    <path id="Trazado_729023" data-name="Trazado 729023" d="M338.787,333.9a.284.284,0,0,1-.214.341l-1.286.294a.285.285,0,0,1-.127-.555l1.286-.294a.285.285,0,0,1,.341.214" transform="translate(-215.847 -213.756)" fill="#00558f"/>
    <path id="Trazado_729024" data-name="Trazado 729024" d="M338.137,331.05a.285.285,0,0,1-.214.341l-1.286.294a.285.285,0,0,1-.127-.555l1.286-.294a.285.285,0,0,1,.341.214" transform="translate(-215.43 -211.933)" fill="#00558f"/>
    <path id="Trazado_729025" data-name="Trazado 729025" d="M337.486,328.205a.284.284,0,0,1-.214.341l-1.286.294a.285.285,0,0,1-.127-.555l1.286-.294a.285.285,0,0,1,.341.214" transform="translate(-215.013 -210.11)" fill="#00558f"/>
    <path id="Trazado_729026" data-name="Trazado 729026" d="M279.312,317.174c-4.419.607-16.276,4.63-17.065,6.225a12.727,12.727,0,0,0-.21,5.629c.014.1.029.206.045.31a13.133,13.133,0,0,0,.425,1.86q.046.151.095.3a12.724,12.724,0,0,0,2.634,4.979c1.4,1.093,13.83-.435,18.074-1.809s5.868-7.8,5.868-7.8l-.313-1.369-.565-2.471-.313-1.369s-4.258-5.087-8.677-4.482" transform="translate(-167.744 -203.153)" fill="#a1d8df"/>
    <path id="Trazado_729027" data-name="Trazado 729027" d="M267.237,337.019c4.674-1.229,9.466-2.389,11.924-2.886a20.523,20.523,0,0,1,8.574.094l.386,1.689a20.528,20.528,0,0,1-7.681,3.81c-2.428.62-7.249,1.657-11.994,2.581-2.2.428-3.959.75-5.327.985-.145-.37-.284-.757-.414-1.155q-.048-.15-.095-.3a13.09,13.09,0,0,1-.425-1.86q-.024-.156-.045-.31c-.057-.416-.1-.824-.129-1.221,1.334-.383,3.061-.858,5.225-1.427" transform="translate(-167.848 -213.791)" fill="#fff"/>
    <path id="Trazado_729028" data-name="Trazado 729028" d="M282.637,326.051a37.244,37.244,0,0,0,3.106,13.589l6.809-1.237a37.288,37.288,0,0,1-3.245-14.2l-6.67,1.844" transform="translate(-181.06 -207.691)" fill="#ebfdff"/>
    <path id="Trazado_729029" data-name="Trazado 729029" d="M290.675,340q.107.64.236,1.275l1.3-.305q.18.887.4,1.765l-1.3.29q.16.628.341,1.251l-1.777.38q-.179-.616-.337-1.237l-1.254.279q-.216-.853-.392-1.715l1.251-.294q-.128-.628-.234-1.26l1.766-.429" transform="translate(-184.427 -217.808)" fill="#0090b8"/>
    <path id="Trazado_729030" data-name="Trazado 729030" d="M54.224,147,61,224.927a4.683,4.683,0,0,0,4.665,4.277h43.593a4.683,4.683,0,0,0,4.665-4.277L120.7,147Z" transform="translate(-34.736 -94.168)" fill="#cc8027"/>
    <path id="Trazado_729031" data-name="Trazado 729031" d="M112.236,163.854H71.89a6.267,6.267,0,0,0-6.244,6.81l5.613,60.471a3.076,3.076,0,0,0,3.064,2.809h40.249a3.076,3.076,0,0,0,3.076-3.075l-2.336-63.939a3.076,3.076,0,0,0-3.076-3.076" transform="translate(-42.038 -104.967)" fill="#ffa031"/>
    <path id="Trazado_729032" data-name="Trazado 729032" d="M92.949,267.7H84.855a2.011,2.011,0,0,0-2,2.185l2.193,25.22a2.008,2.008,0,0,0,2.829,1.658q2.931-1.333,6.15-2.542a3.075,3.075,0,0,0,2-2.877V270.772a3.072,3.072,0,0,0-3.072-3.072" transform="translate(-53.07 -171.492)" fill="#ffdeb7"/>
    <path id="Trazado_729033" data-name="Trazado 729033" d="M115.162,112.612H42.381a1.9,1.9,0,0,0-1.724,2.047l.089,8.314a1.887,1.887,0,0,0,1.724,2h72.6a1.887,1.887,0,0,0,1.725-2l.088-8.314a1.9,1.9,0,0,0-1.724-2.047" transform="translate(-26.045 -72.14)" fill="#ffa031"/>
    <path id="Trazado_729034" data-name="Trazado 729034" d="M75.445,121.612H50.795a1.071,1.071,0,0,0-1.071,1.082l.04,3.747a1.071,1.071,0,0,0,1.071,1.059h6.936a.561.561,0,0,0,.412-.17c1.81-1.934,8.277-3.595,17.321-4.621a.551.551,0,0,0-.059-1.1" transform="translate(-31.854 -77.906)" fill="#ffdeb7"/>
    <path id="Trazado_729035" data-name="Trazado 729035" d="M147.121,199.031c-.419-.243-.833-.454-1.211-.719a.546.546,0,0,1-.155-.463,2.345,2.345,0,0,0-1.606-2.715c-.116-.034-.277-.178-.284-.279-.031-.458-.013-.92-.013-1.372a7.757,7.757,0,0,0,1.469-15.268c2.005-.192,5.6,2.332,7.059,4.993a10.239,10.239,0,0,1,.589,8.721,10.221,10.221,0,0,1,8.216,13.177c.5-4.625-1.145-7.953-5.682-9.241-3.4-.966-6.2.335-8.382,3.167" transform="translate(-92.15 -114.16)" fill="#12263f"/>
    <path id="Trazado_729036" data-name="Trazado 729036" d="M131.23,245.759a10.174,10.174,0,0,1-15.659-.385,10.147,10.147,0,0,1-9.464,3.645,9.512,9.512,0,0,1-5.785-3.032c3.4,2.424,6.882,2.746,10.17,0,2.978-2.484,3.374-5.74,1.971-9.322.4-.236.806-.492,1.231-.706.091-.046.286.028.39.105a2.31,2.31,0,0,0,3.076,0,.513.513,0,0,1,.437-.052c.414.206.805.457,1.21.693-1.565,4.033-.932,7.559,2.754,9.994,3.349,2.213,6.661,1.579,9.67-.945" transform="translate(-64.267 -151.15)" fill="#12263f"/>
    <path id="Trazado_729037" data-name="Trazado 729037" d="M106.893,198.962a7.837,7.837,0,0,0-9.424-2.947,7.637,7.637,0,0,0-4,3.711,7.98,7.98,0,0,0-.6,5.37c-1.885-4.4.684-12.074,8.013-13.283a10.15,10.15,0,0,1,7.717-13.622,8.031,8.031,0,0,0-4.365,2.96,7.541,7.541,0,0,0-1.494,5.091,7.829,7.829,0,0,0,7.249,7.231c0,.454.022.916-.014,1.374a.548.548,0,0,1-.3.34,2.344,2.344,0,0,0-1.471,2.663.552.552,0,0,1-.171.443c-.35.245-.736.438-1.137.668" transform="translate(-59.112 -114.152)" fill="#12263f"/>
    <path id="Trazado_729038" data-name="Trazado 729038" d="M121.882,238.418a9.625,9.625,0,0,1-5.87-9.558c.016-.3.1-.46.433-.372.562.148,1.137.257,1.683.447a.678.678,0,0,1,.359.506,7.192,7.192,0,0,0,3.7,6.376.555.555,0,0,1,.252.429c-.152.712-.355,1.413-.555,2.171" transform="translate(-74.308 -146.356)" fill="#12263f"/>
    <path id="Trazado_729039" data-name="Trazado 729039" d="M158.172,228.54a9.487,9.487,0,0,1-5.781,10.007c-.191-.752-.394-1.484-.546-2.227-.021-.1.188-.3.331-.384a7.133,7.133,0,0,0,3.486-4.888,8.183,8.183,0,0,0,.141-1.434c.007-.281.072-.462.353-.536.658-.174,1.315-.35,2.016-.537" transform="translate(-97.273 -146.405)" fill="#12263f"/>
    <path id="Trazado_729040" data-name="Trazado 729040" d="M138.326,206.7c-.557.543-1.07,1.063-1.612,1.553a.491.491,0,0,1-.446.006,7.232,7.232,0,0,0-7.466-.007.532.532,0,0,1-.486-.023c-.532-.477-1.031-.99-1.548-1.5a9.451,9.451,0,0,1,11.557-.033" transform="translate(-81.21 -131.165)" fill="#12263f"/>
    <path id="Trazado_729041" data-name="Trazado 729041" d="M445.575,187.924c-.226,0-.423.454-.519,1.117-.021.144-.1.251-.194.264l-1.038.138c-.1.013-.192-.082-.225-.228-.065-.285-.166-.484-.283-.537a7.57,7.57,0,0,0-1.31-3.131c.054-.117-.009-.33-.169-.585-.08-.128-.082-.259,0-.321l.831-.636a.281.281,0,0,1,.324.049c.537.4,1,.583,1.157.423.227-.227-.236-1.06-1.035-1.859s-1.631-1.262-1.859-1.035c-.16.16.022.62.423,1.157a.281.281,0,0,1,.049.324l-.636.831c-.061.08-.193.078-.321,0-.264-.166-.484-.229-.6-.164a7.566,7.566,0,0,0-3.1-1.259c-.005-.14-.221-.263-.551-.339-.147-.033-.241-.125-.228-.225l.138-1.037c.013-.095.119-.174.263-.194.663-.1,1.117-.293,1.117-.519,0-.322-.916-.583-2.046-.583s-2.046.261-2.046.583c0,.227.454.423,1.117.519.144.021.251.1.264.194l.137,1.037c.013.1-.082.192-.228.225-.334.077-.552.2-.552.344,0,0,0,.008,0,.013a7.565,7.565,0,0,0-3.053,1.291.146.146,0,0,0-.017-.033c-.1-.1-.344-.035-.634.148-.128.08-.26.082-.321,0l-.636-.831a.281.281,0,0,1,.049-.324c.4-.537.583-1,.423-1.157-.228-.227-1.059.236-1.858,1.035s-1.263,1.631-1.035,1.859c.16.16.62-.022,1.157-.423a.281.281,0,0,1,.324-.049l.831.636c.08.061.078.193,0,.321-.182.29-.248.533-.147.634a.156.156,0,0,0,.043.022,7.567,7.567,0,0,0-1.257,3.062.152.152,0,0,0-.056-.018c-.142,0-.268.218-.344.552-.033.147-.125.242-.225.228l-1.038-.138c-.095-.013-.173-.12-.194-.264-.1-.663-.293-1.117-.519-1.117-.322,0-.583.916-.583,2.046s.261,2.046.583,2.046c.227,0,.423-.454.519-1.117.021-.144.1-.251.194-.264l1.038-.138c.1-.013.192.082.225.228.076.334.2.552.344.552a.149.149,0,0,0,.055-.017,7.565,7.565,0,0,0,1.253,3.064.149.149,0,0,0-.037.02c-.1.1-.035.343.147.634.08.127.082.259,0,.321l-.831.636a.281.281,0,0,1-.324-.049c-.537-.4-1-.583-1.157-.423-.228.227.236,1.06,1.035,1.859s1.631,1.262,1.858,1.035c.16-.16-.022-.62-.423-1.157a.281.281,0,0,1-.049-.324l.636-.831c.061-.08.193-.078.321,0,.29.183.533.248.634.147.007-.006.008-.018.013-.026a7.568,7.568,0,0,0,3.054,1.293v0c0,.142.218.267.552.344.147.034.242.125.228.225l-.137,1.037c-.013.095-.12.173-.264.194-.663.1-1.117.293-1.117.519,0,.322.916.583,2.046.583s2.046-.261,2.046-.583c0-.226-.454-.423-1.117-.519-.144-.021-.251-.1-.263-.194l-.138-1.037c-.013-.1.082-.192.228-.225.322-.073.534-.193.549-.328a7.571,7.571,0,0,0,3.113-1.266c.116.058.331,0,.59-.167.128-.08.259-.082.321,0l.636.831a.281.281,0,0,1-.049.324c-.4.537-.583,1-.423,1.157.227.227,1.059-.236,1.859-1.035s1.262-1.631,1.035-1.859c-.16-.16-.62.022-1.157.423a.281.281,0,0,1-.324.049l-.831-.636c-.08-.061-.078-.193,0-.321.157-.25.22-.46.172-.579a7.572,7.572,0,0,0,1.308-3.138c.116-.054.216-.252.281-.536.033-.147.125-.242.225-.228l1.038.138c.095.013.173.119.194.264.1.663.293,1.117.519,1.117.322,0,.583-.916.583-2.046s-.261-2.046-.583-2.046" transform="translate(-272.492 -115.036)" fill="#8eb2c2"/>
    <path id="Trazado_729042" data-name="Trazado 729042" d="M527.45,82.255c-.162,0-.3.326-.372.8-.015.1-.071.18-.139.189l-.744.1c-.071.009-.137-.059-.161-.164-.047-.2-.119-.348-.2-.385a5.424,5.424,0,0,0-.939-2.244c.039-.084-.006-.236-.122-.419-.057-.091-.059-.186,0-.23l.6-.456a.2.2,0,0,1,.232.035c.385.288.715.418.829.3.163-.163-.169-.76-.742-1.333s-1.169-.9-1.333-.742c-.115.115.016.445.3.83a.2.2,0,0,1,.035.232l-.456.6c-.044.058-.138.056-.23,0-.19-.119-.348-.164-.429-.117a5.423,5.423,0,0,0-2.225-.9c0-.1-.159-.189-.4-.243-.1-.024-.173-.09-.163-.161l.1-.744c.009-.068.086-.124.189-.139.476-.069.8-.21.8-.372,0-.231-.657-.418-1.467-.418s-1.467.187-1.467.418c0,.162.326.3.8.372.1.015.18.071.189.139l.1.744c.009.072-.058.137-.164.161-.239.055-.4.144-.4.246,0,0,0,.006,0,.009a5.424,5.424,0,0,0-2.189.925.119.119,0,0,0-.012-.024c-.072-.072-.246-.025-.454.106-.091.057-.186.059-.23,0l-.456-.6a.2.2,0,0,1,.035-.232c.287-.385.418-.715.3-.83-.163-.163-.76.169-1.333.742s-.9,1.169-.742,1.333c.115.115.445-.016.829-.3a.2.2,0,0,1,.232-.035l.6.456c.057.044.056.138,0,.23-.131.208-.178.382-.106.454a.108.108,0,0,0,.031.016,5.422,5.422,0,0,0-.9,2.2.107.107,0,0,0-.04-.013c-.1,0-.192.156-.247.4-.024.1-.09.173-.161.164l-.744-.1c-.068-.009-.124-.086-.139-.189-.069-.475-.21-.8-.372-.8-.231,0-.418.657-.418,1.467s.187,1.467.418,1.467c.162,0,.3-.326.372-.8.015-.1.071-.18.139-.189l.744-.1c.072-.009.137.059.161.164.055.239.145.4.247.4a.107.107,0,0,0,.039-.012,5.427,5.427,0,0,0,.9,2.2.107.107,0,0,0-.027.014c-.072.072-.025.246.106.454.057.091.059.186,0,.23l-.6.456a.2.2,0,0,1-.232-.035c-.385-.287-.714-.418-.829-.3-.163.163.169.76.742,1.333s1.169.9,1.333.742c.115-.115-.016-.445-.3-.829a.2.2,0,0,1-.035-.232l.456-.6c.044-.057.139-.056.23,0,.208.13.382.178.454.106,0-.005.006-.013.01-.019a5.414,5.414,0,0,0,2.189.927v0c0,.1.157.192.4.247.105.024.173.089.164.161l-.1.744c-.009.068-.086.124-.189.139-.475.069-.8.21-.8.372,0,.231.657.418,1.467.418s1.467-.187,1.467-.418c0-.162-.326-.3-.8-.372-.1-.015-.18-.072-.189-.139l-.1-.744c-.01-.072.059-.138.163-.161.231-.053.383-.138.394-.236a5.429,5.429,0,0,0,2.232-.907c.083.041.238,0,.423-.12.091-.058.186-.059.23,0l.456.6a.2.2,0,0,1-.035.232c-.287.385-.418.714-.3.829.163.163.76-.169,1.333-.742s.9-1.17.742-1.333c-.115-.115-.445.016-.829.3a.2.2,0,0,1-.232.035l-.6-.456c-.057-.044-.056-.138,0-.23.113-.18.158-.33.123-.415a5.424,5.424,0,0,0,.938-2.25c.083-.038.155-.181.2-.384.024-.105.09-.173.161-.164l.744.1c.068.009.124.086.139.189.069.475.21.8.372.8.231,0,.418-.657.418-1.467s-.187-1.467-.418-1.467" transform="translate(-328.607 -48.857)" fill="#ebf7f5"/>
    <path id="Trazado_729043" data-name="Trazado 729043" d="M338.782,122.378c-.081,0-.152.163-.186.4-.008.052-.036.09-.07.095l-.372.05c-.036,0-.069-.029-.081-.082-.023-.1-.06-.174-.1-.193a2.716,2.716,0,0,0-.469-1.122c.019-.042,0-.118-.061-.21-.029-.046-.029-.093,0-.115l.3-.228a.1.1,0,0,1,.116.018c.192.143.357.209.415.151.082-.082-.085-.38-.371-.666s-.585-.452-.666-.371c-.057.058.008.222.151.415a.1.1,0,0,1,.018.116l-.228.3c-.022.029-.069.028-.115,0-.095-.06-.174-.082-.215-.059a2.712,2.712,0,0,0-1.112-.451c0-.05-.079-.095-.2-.121-.052-.012-.087-.045-.082-.081l.05-.372c0-.034.043-.062.095-.07.238-.035.4-.1.4-.186,0-.115-.328-.209-.733-.209s-.733.093-.733.209c0,.081.163.152.4.186.052.008.09.036.095.07l.05.372c0,.036-.029.069-.082.081-.12.027-.2.072-.2.123v0a2.709,2.709,0,0,0-1.094.463s0-.009-.006-.012c-.036-.036-.123-.013-.227.053-.046.029-.093.029-.115,0l-.228-.3a.1.1,0,0,1,.018-.116c.144-.192.209-.357.152-.415-.082-.082-.38.084-.666.371s-.452.585-.371.666c.057.058.222-.008.415-.151a.1.1,0,0,1,.116-.018l.3.228c.029.022.028.069,0,.115-.065.1-.089.191-.053.227a.053.053,0,0,0,.015.008,2.714,2.714,0,0,0-.451,1.1.053.053,0,0,0-.02-.006c-.051,0-.1.078-.123.2-.012.052-.045.087-.081.082l-.372-.05c-.034,0-.062-.043-.07-.095-.035-.238-.1-.4-.186-.4-.115,0-.209.328-.209.734s.093.734.209.734c.081,0,.152-.163.186-.4.008-.051.036-.09.07-.095l.372-.049c.036,0,.069.029.081.082.027.12.072.2.123.2a.057.057,0,0,0,.02-.006,2.717,2.717,0,0,0,.449,1.1.06.06,0,0,0-.013.007c-.036.036-.013.123.053.227.029.046.029.093,0,.115l-.3.228a.1.1,0,0,1-.116-.018c-.193-.144-.358-.209-.415-.152-.081.082.085.38.371.666s.585.452.666.371c.057-.057-.008-.222-.152-.415a.1.1,0,0,1-.018-.116l.228-.3c.022-.029.069-.028.115,0,.1.065.191.089.227.053a.048.048,0,0,0,.005-.009,2.714,2.714,0,0,0,1.095.464h0c0,.051.078.1.2.123.052.012.087.045.082.08l-.05.372c0,.034-.043.062-.095.07-.237.034-.4.1-.4.186,0,.115.328.209.733.209s.733-.093.733-.209c0-.081-.163-.152-.4-.186-.052-.008-.09-.036-.095-.07l-.05-.372c0-.036.029-.069.082-.08.115-.027.192-.069.2-.118a2.708,2.708,0,0,0,1.116-.454c.042.021.119,0,.212-.06.046-.029.093-.029.115,0l.228.3a.1.1,0,0,1-.018.116c-.143.193-.209.358-.151.415.082.082.38-.084.666-.371s.452-.585.371-.666c-.057-.057-.222.008-.415.152a.1.1,0,0,1-.116.018l-.3-.228c-.029-.022-.028-.069,0-.115a.27.27,0,0,0,.062-.207,2.713,2.713,0,0,0,.469-1.125c.041-.019.077-.091.1-.192.012-.053.045-.087.081-.082l.372.049c.034,0,.062.043.07.095.034.238.1.4.186.4.115,0,.209-.328.209-.734s-.093-.734-.209-.734" transform="translate(-212.386 -76.479)" fill="#ebf7f5"/>
    <path id="Trazado_729044" data-name="Trazado 729044" d="M298.133,5.507c-.15,0-.279.3-.342.736-.014.1-.065.166-.128.174l-.684.091c-.066.009-.127-.054-.148-.151-.043-.188-.11-.319-.187-.354a4.982,4.982,0,0,0-.864-2.064c.036-.078-.006-.217-.111-.386-.053-.084-.054-.171,0-.211l.548-.42a.186.186,0,0,1,.213.032c.354.264.657.385.763.279.15-.15-.155-.7-.682-1.226s-1.076-.832-1.226-.682c-.106.106.015.409.279.763a.185.185,0,0,1,.032.213l-.419.548c-.041.053-.128.051-.211,0-.175-.11-.319-.151-.395-.107a4.988,4.988,0,0,0-2.046-.831c0-.092-.146-.174-.364-.223-.1-.022-.159-.083-.15-.148L292.1.855c.008-.063.079-.114.174-.128.437-.064.736-.193.736-.342,0-.212-.6-.384-1.349-.384s-1.349.172-1.349.384c0,.15.3.279.736.342.1.014.166.065.174.128l.091.684c.009.066-.054.126-.151.148-.22.05-.364.133-.364.226,0,0,0,.006,0,.009a4.987,4.987,0,0,0-2.013.851c0-.007-.006-.016-.011-.022-.066-.066-.226-.023-.418.1-.084.053-.171.054-.211,0l-.419-.548a.185.185,0,0,1,.032-.213c.264-.354.385-.657.279-.763-.15-.15-.7.156-1.226.682s-.832,1.075-.682,1.226c.106.106.409-.015.763-.279a.186.186,0,0,1,.213-.032l.548.42c.053.04.051.127,0,.211-.12.191-.164.351-.1.418a.091.091,0,0,0,.028.015,4.986,4.986,0,0,0-.829,2.019.1.1,0,0,0-.037-.012c-.093,0-.176.144-.227.364-.022.1-.082.159-.148.151l-.684-.091c-.063-.008-.114-.079-.128-.174-.064-.437-.193-.736-.342-.736-.212,0-.384.6-.384,1.349s.172,1.349.384,1.349c.149,0,.279-.3.342-.737.014-.095.065-.166.128-.174l.684-.091c.066-.009.126.054.148.151.05.22.133.364.227.364a.106.106,0,0,0,.036-.011,4.984,4.984,0,0,0,.826,2.02.114.114,0,0,0-.024.013c-.066.066-.023.226.1.418.053.084.054.171,0,.211l-.548.419a.185.185,0,0,1-.213-.032c-.354-.264-.657-.384-.763-.279-.15.15.156.7.682,1.226s1.076.832,1.226.682c.106-.106-.015-.409-.279-.763a.186.186,0,0,1-.032-.214l.419-.548c.041-.053.128-.051.211,0,.192.12.352.164.418.1a.132.132,0,0,0,.009-.017,4.986,4.986,0,0,0,2.014.852v0c0,.094.144.176.364.227.1.022.159.083.151.148l-.091.684c-.008.063-.079.114-.174.128-.437.063-.736.193-.736.342,0,.212.6.384,1.349.384s1.349-.172,1.349-.384c0-.149-.3-.279-.736-.342-.1-.014-.166-.066-.174-.128l-.091-.684c-.009-.066.054-.127.15-.148.212-.049.353-.127.362-.217a4.986,4.986,0,0,0,2.053-.835c.077.038.219,0,.389-.11.084-.053.171-.054.211,0l.419.548a.186.186,0,0,1-.032.214c-.264.354-.385.657-.279.763.15.15.7-.155,1.226-.682s.832-1.076.682-1.226c-.106-.106-.409.014-.763.279a.185.185,0,0,1-.213.032l-.548-.419c-.053-.04-.051-.127,0-.211.1-.165.145-.3.114-.382a4.988,4.988,0,0,0,.863-2.069c.077-.035.143-.166.185-.353.022-.1.082-.159.148-.151l.684.091c.063.008.114.079.128.174.064.437.193.737.342.737.212,0,.384-.6.384-1.349s-.172-1.349-.384-1.349" transform="translate(-92.4 24.605)" fill="#8eb2c2"/>
    <path id="Trazado_729045" data-name="Trazado 729045" d="M418.614,347.812a3.6,3.6,0,0,1-.787-.229c-3.144-1.27-5.991-2.5-6.02-2.516a.245.245,0,0,1-.14-.294.2.2,0,0,1,.277-.114c.028.012,2.87,1.243,6.009,2.511.736.3,1.25.293,1.528-.012.679-.742.061-3.229-.9-5.3-1.223-2.639-5.406-3.438-6.847-3.182a12.22,12.22,0,0,0-3.1,1.074.233.233,0,0,1-.3-.1.212.212,0,0,1,.07-.3,12.418,12.418,0,0,1,3.215-1.114c1.825-.323,6.11.775,7.358,3.466.766,1.651,1.8,4.727.842,5.78a1.269,1.269,0,0,1-1.2.332" transform="translate(-261.562 -216.641)" fill="#9de2f5"/>
    <path id="Trazado_729046" data-name="Trazado 729046" d="M308.431,363.23a13.754,13.754,0,0,1-1.506-.317,7.791,7.791,0,0,1-5.013-3.55c-.9-1.6-1.1-2.727-.612-3.456.981-1.454,4.515-.7,7.095-.148.365.078.71.152,1.022.214,3.293.655,4.722-.107,4.736-.115a.232.232,0,0,1,.3.1.213.213,0,0,1-.065.3c-.063.034-1.574.837-5.017.156-.315-.063-.662-.137-1.029-.215-2.326-.5-5.841-1.248-6.675-.012-.387.573-.179,1.578.618,2.986A7.313,7.313,0,0,0,307,362.482c4.477,1.218,10.755-.017,13.376-1.936a.226.226,0,0,1,.31.061.219.219,0,0,1-.03.31c-2.422,1.773-7.743,3.006-12.224,2.313" transform="translate(-192.848 -227.458)" fill="#9de2f5"/>
    <path id="Trazado_729047" data-name="Trazado 729047" d="M366.5,338.692l-3.932-5.757a.5.5,0,0,0-.316-.212c-1.372-.252-2.554-.928-7.579-3.642-5.259-2.841-9.118,2.2-11.382,4.074-1.69,1.4-5.661,4.329-7.018,5.326a.458.458,0,0,0,.038.727l6.263,4.8a.466.466,0,0,0,.386.09c3.3-.754,3.866.269,8.731.343,4.964.076,7.795-1.365,9.879-3.564a5.663,5.663,0,0,1,4.583-1.5.417.417,0,0,0,.347-.683" transform="translate(-215.316 -210.269)" fill="#9de2f5"/>
    <path id="Trazado_729048" data-name="Trazado 729048" d="M342.85,341.841a.627.627,0,0,1-.055-.993c1.812-1.343,4.268-3.185,5.529-4.229.375-.311.779-.691,1.207-1.093,1.766-1.662,4.186-3.938,6.968-3.508a5.579,5.579,0,0,1,1.789.625l.986.533c3.714,2.008,5.107,2.762,6.367,3.111a.692.692,0,0,1,.383.278l2.117,3.1a.581.581,0,0,1-.312.925,5.98,5.98,0,0,0-3.111,1.706c-2.158,2.277-4.933,3.265-9,3.2a26.589,26.589,0,0,1-3.947-.34l-.528-.083a10.526,10.526,0,0,0-3.888-.026.638.638,0,0,1-.5-.129Z" transform="translate(-219.458 -212.66)" fill="#5598de"/>
    <path id="Trazado_729049" data-name="Trazado 729049" d="M349.609,340c.4-.33.827-.733,1.281-1.16,1.847-1.737,4.376-4.117,7.249-3.672a5.739,5.739,0,0,1,1.839.643l1.042.564c3.937,2.129,5.411,2.926,6.759,3.3a.136.136,0,0,0,.075,0l-.238-.349a43.783,43.783,0,0,1-6.48-3.21l-1.042-.563a6.05,6.05,0,0,0-1.94-.678c-3.006-.465-5.588,1.965-7.475,3.74-.45.423-.876.823-1.268,1.149-1.217,1.008-3.491,2.722-5.349,4.1l.256.2c1.848-1.374,4.086-3.061,5.292-4.061" transform="translate(-220.409 -214.489)" fill="#9de2f5"/>
    <path id="Trazado_729050" data-name="Trazado 729050" d="M372.245,345.036c-1.313-.363-2.777-1.155-6.693-3.272l-1.042-.563a6.042,6.042,0,0,0-1.94-.678c-3.006-.465-5.588,1.965-7.48,3.744-.449.422-.872.82-1.264,1.145-1.048.868-2.879,2.26-4.554,3.511l.255.2c1.659-1.241,3.459-2.609,4.5-3.469.4-.329.824-.731,1.281-1.16,1.847-1.737,4.376-4.117,7.249-3.672a5.734,5.734,0,0,1,1.838.643l1.044.564c3.936,2.129,5.409,2.925,6.757,3.3a.129.129,0,0,0,.17-.1.166.166,0,0,0-.119-.183" transform="translate(-223.748 -218.105)" fill="#9de2f5"/>
    <path id="Trazado_729051" data-name="Trazado 729051" d="M368.923,346.845a6.042,6.042,0,0,0-1.94-.678c-3.006-.465-5.589,1.965-7.48,3.744-.449.422-.872.82-1.264,1.145-.884.732-2.326,1.838-3.762,2.917l.008.006a.656.656,0,0,0,.324.131c1.39-1.047,2.77-2.105,3.628-2.816.4-.329.824-.731,1.281-1.16,1.847-1.737,4.376-4.116,7.249-3.672a5.733,5.733,0,0,1,1.838.643l1.043.564c2.024,1.094,3.4,1.836,4.435,2.35q.181-.077.362-.14c-1.06-.512-2.485-1.283-4.681-2.47Z" transform="translate(-227.082 -221.722)" fill="#9de2f5"/>
    <path id="Trazado_729052" data-name="Trazado 729052" d="M376.522,352.49a6.043,6.043,0,0,0-1.94-.678c-3.006-.465-5.589,1.965-7.475,3.739-.45.423-.875.823-1.269,1.149-.327.271-.731.593-1.182.946.141.018.283.037.427.058.358-.282.682-.542.953-.766.4-.331.828-.734,1.281-1.16,1.847-1.737,4.376-4.117,7.249-3.672a5.733,5.733,0,0,1,1.838.643l1.044.564c.765.414,1.436.777,2.032,1.1.083-.065.168-.128.253-.187-.629-.337-1.344-.724-2.17-1.17Z" transform="translate(-233.603 -225.338)" fill="#9de2f5"/>
    <path id="Trazado_729053" data-name="Trazado 729053" d="M382.979,358.135a6.042,6.042,0,0,0-1.94-.678c-3.006-.465-5.588,1.965-7.475,3.739-.174.164-.344.323-.511.478.134.013.272.025.416.036l.305-.286c1.847-1.737,4.376-4.116,7.248-3.672a5.734,5.734,0,0,1,1.838.643l1.021.552c.071-.068.14-.139.21-.21l-.072-.039Z" transform="translate(-238.982 -228.954)" fill="#9de2f5"/>
  </g>
</svg>
