<svg id="Grupo_1031057" data-name="Grupo 1031057" xmlns="http://www.w3.org/2000/svg" xmlns:xlink="http://www.w3.org/1999/xlink" width="415.506" height="391.522" viewBox="0 0 415.506 391.522">
  <defs>
    <clipPath id="clip-path">
      <rect id="Rectángulo_351162" data-name="Rectángulo 351162" width="415.506" height="391.523" fill="none"/>
    </clipPath>
    <clipPath id="clip-path-5">
      <rect id="Rectángulo_351138" data-name="Rectángulo 351138" width="6.27" height="20.618" fill="none"/>
    </clipPath>
    <clipPath id="clip-path-6">
      <rect id="Rectángulo_351139" data-name="Rectángulo 351139" width="3.912" height="2.504" fill="none"/>
    </clipPath>
    <clipPath id="clip-path-9">
      <rect id="Rectángulo_351152" data-name="Rectángulo 351152" width="18.418" height="19.24" fill="none"/>
    </clipPath>
    <clipPath id="clip-path-10">
      <rect id="Rectángulo_351153" data-name="Rectángulo 351153" width="6.222" height="16.902" fill="none"/>
    </clipPath>
    <clipPath id="clip-path-11">
      <rect id="Rectángulo_351154" data-name="Rectángulo 351154" width="15.641" height="23.155" fill="none"/>
    </clipPath>
    <clipPath id="clip-path-13">
      <rect id="Rectángulo_351156" data-name="Rectángulo 351156" width="79.754" height="53.963" fill="none"/>
    </clipPath>
    <clipPath id="clip-path-14">
      <rect id="Rectángulo_351157" data-name="Rectángulo 351157" width="3.346" height="15.365" fill="none"/>
    </clipPath>
  </defs>
  <g id="Grupo_1031056" data-name="Grupo 1031056" clip-path="url(#clip-path)">
    <rect id="Rectángulo_351118" data-name="Rectángulo 351118" width="15.071" height="34.735" transform="translate(24.97 322.09)" fill="#ebebeb"/>
    <rect id="Rectángulo_351119" data-name="Rectángulo 351119" width="15.071" height="34.735" transform="translate(76.112 322.09)" fill="#ebebeb"/>
    <rect id="Rectángulo_351120" data-name="Rectángulo 351120" width="15.071" height="66.353" transform="translate(50.54 290.472)" fill="#f5f5f5"/>
    <rect id="Rectángulo_351121" data-name="Rectángulo 351121" width="15.071" height="66.353" transform="translate(101.683 290.472)" fill="#f5f5f5"/>
    <rect id="Rectángulo_351122" data-name="Rectángulo 351122" width="15.071" height="64.454" transform="translate(127.254 292.371)" fill="#ebebeb"/>
    <rect id="Rectángulo_351123" data-name="Rectángulo 351123" width="15.071" height="64.454" transform="translate(178.396 292.371)" fill="#ebebeb"/>
    <rect id="Rectángulo_351124" data-name="Rectángulo 351124" width="15.071" height="64.454" transform="translate(229.539 292.371)" fill="#ebebeb"/>
    <rect id="Rectángulo_351125" data-name="Rectángulo 351125" width="15.071" height="98.279" transform="translate(152.825 258.546)" fill="#f5f5f5"/>
    <rect id="Rectángulo_351126" data-name="Rectángulo 351126" width="15.071" height="88.662" transform="translate(203.967 268.163)" fill="#f5f5f5"/>
    <rect id="Rectángulo_351127" data-name="Rectángulo 351127" width="15.071" height="64.454" transform="translate(305.08 292.371)" fill="#ebebeb"/>
    <rect id="Rectángulo_351128" data-name="Rectángulo 351128" width="15.071" height="52.085" transform="translate(279.508 304.74)" fill="#f5f5f5"/>
    <rect id="Rectángulo_351129" data-name="Rectángulo 351129" width="15.071" height="98.852" transform="translate(358.563 257.973)" fill="#ebebeb"/>
    <rect id="Rectángulo_351130" data-name="Rectángulo 351130" width="15.071" height="52.085" transform="translate(332.992 304.74)" fill="#f5f5f5"/>
    <rect id="Rectángulo_351131" data-name="Rectángulo 351131" width="15.071" height="52.085" transform="translate(384.163 304.74)" fill="#f5f5f5"/>
    <rect id="Rectángulo_351132" data-name="Rectángulo 351132" width="15.071" height="75.079" transform="translate(255.11 281.746)" fill="#ebebeb"/>
    <g id="Grupo_1031024" data-name="Grupo 1031024">
      <g id="Grupo_1031023" data-name="Grupo 1031023" clip-path="url(#clip-path)">
        <path id="Trazado_730140" data-name="Trazado 730140" d="M185.194,294.961a3.876,3.876,0,1,1-3.876-3.876,3.876,3.876,0,0,1,3.876,3.876" transform="translate(-22.198 -36.414)" fill="#e0e0e0"/>
        <path id="Trazado_730141" data-name="Trazado 730141" d="M180.866,301.549a7.041,7.041,0,1,1,7.04-7.04,7.049,7.049,0,0,1-7.04,7.04m0-13.514a6.473,6.473,0,1,0,6.473,6.473,6.481,6.481,0,0,0-6.473-6.473" transform="translate(-21.745 -35.962)" fill="#e0e0e0"/>
        <path id="Trazado_730142" data-name="Trazado 730142" d="M184.634,282.51l-.2-7.631,1.906.031-3.559-4.349-3.558,4.389,1.973.012.2,7.529Z" transform="translate(-22.421 -33.847)" fill="#ebebeb"/>
        <path id="Trazado_730143" data-name="Trazado 730143" d="M40.949,349.448a3.876,3.876,0,1,1-3.876-3.876,3.875,3.875,0,0,1,3.876,3.876" transform="translate(-4.153 -43.231)" fill="#e0e0e0"/>
        <path id="Trazado_730144" data-name="Trazado 730144" d="M36.62,356.2a7.041,7.041,0,1,1,7.041-7.04,7.048,7.048,0,0,1-7.041,7.04m0-13.514a6.473,6.473,0,1,0,6.473,6.473,6.481,6.481,0,0,0-6.473-6.473" transform="translate(-3.7 -42.799)" fill="#e0e0e0"/>
        <path id="Trazado_730145" data-name="Trazado 730145" d="M34.7,322.527l.207,7.935-1.982-.031,3.7,4.522,3.7-4.564-2.052-.012-.2-7.829Z" transform="translate(-4.119 -40.348)" fill="#ebebeb"/>
        <path id="Trazado_730146" data-name="Trazado 730146" d="M269.155,303.563l.207,7.935-1.982-.031,3.7,4.522,3.7-4.564-2.052-.012-.2-7.829Z" transform="translate(-33.449 -37.975)" fill="#ebebeb"/>
        <path id="Trazado_730147" data-name="Trazado 730147" d="M282.391,372.632l-45.4-42.584c-28.761-13.886-73.17-34.354-78.348-34.065-5.8.342-115.89,43.756-157.821,60.456L0,354.368c6.169-2.458,151.168-60.178,158.515-60.611.05,0,.1,0,.159,0,8.056,0,72.116,30.824,79.444,34.362l.276.191,44.362,41.613c8.417-4.442,56.661-29.9,57.483-30.26.285-.126,1.052-.437,67.395-.432v2.23c-25.448-.018-63.7.057-66.608.3-2.518,1.276-38.723,20.369-57.932,30.505Z" transform="translate(0 -36.748)" fill="#e0e0e0"/>
        <path id="Trazado_730148" data-name="Trazado 730148" d="M274.932,332.534a3.876,3.876,0,1,1-3.876-3.876,3.875,3.875,0,0,1,3.876,3.876" transform="translate(-33.424 -41.115)" fill="#e0e0e0"/>
        <path id="Trazado_730149" data-name="Trazado 730149" d="M270.6,339.289a7.041,7.041,0,1,1,7.04-7.04,7.049,7.049,0,0,1-7.04,7.04m0-13.514a6.473,6.473,0,1,0,6.473,6.473,6.481,6.481,0,0,0-6.473-6.473" transform="translate(-32.971 -40.683)" fill="#e0e0e0"/>
        <path id="Trazado_730150" data-name="Trazado 730150" d="M392.726,345.747a3.876,3.876,0,1,1-3.876-3.876,3.875,3.875,0,0,1,3.876,3.876" transform="translate(-48.16 -42.768)" fill="#e0e0e0"/>
        <path id="Trazado_730151" data-name="Trazado 730151" d="M388.4,352.5a7.041,7.041,0,1,1,7.041-7.04,7.048,7.048,0,0,1-7.041,7.04m0-13.514a6.473,6.473,0,1,0,6.473,6.473,6.481,6.481,0,0,0-6.473-6.473" transform="translate(-47.707 -42.336)" fill="#e0e0e0"/>
        <path id="Trazado_730152" data-name="Trazado 730152" d="M386.763,319.974l.207,7.934-1.982-.031,3.7,4.522,3.7-4.564-2.052-.012-.2-7.829Z" transform="translate(-48.162 -40.028)" fill="#ebebeb"/>
        <path id="Trazado_730153" data-name="Trazado 730153" d="M394.891,231.463a33.923,33.923,0,1,1,34.463,33.527,34.047,34.047,0,0,1-34.463-33.527m50.136-.809a16.22,16.22,0,1,0-15.957,16.554,16.273,16.273,0,0,0,15.957-16.554" transform="translate(-49.4 -24.624)" fill="#f5f5f5"/>
        <path id="Trazado_730154" data-name="Trazado 730154" d="M394.892,231.464a34.045,34.045,0,0,1,33.373-34.622l.284,17.781a16.295,16.295,0,0,0,.521,32.585l.284,17.781a34.032,34.032,0,0,1-34.462-33.526" transform="translate(-49.4 -24.625)" fill="#e0e0e0"/>
        <path id="Trazado_730155" data-name="Trazado 730155" d="M429.557,193.715a38.759,38.759,0,0,1,39.686,38.609l-20.708.333c-.168-10.509-8.165-17.127-18.627-16.958Z" transform="translate(-53.737 -24.233)" fill="#ebebeb"/>
        <rect id="Rectángulo_351133" data-name="Rectángulo 351133" width="15.279" height="47.721" transform="translate(82.151 7.94)" fill="#ebebeb"/>
        <rect id="Rectángulo_351134" data-name="Rectángulo 351134" width="15.279" height="36.82" transform="translate(104.964 18.84)" fill="#ebebeb"/>
        <rect id="Rectángulo_351135" data-name="Rectángulo 351135" width="15.279" height="21.866" transform="translate(126.085 33.795)" fill="#ebebeb"/>
        <path id="Trazado_730156" data-name="Trazado 730156" d="M307.83,38.292V11.539A26.753,26.753,0,1,1,281.085,38.91Z" transform="translate(-35.163 -1.444)" fill="#ebebeb"/>
        <path id="Trazado_730157" data-name="Trazado 730157" d="M302.147,26.742l-26.753.6a28.221,28.221,0,0,1,7.58-19.262A27.5,27.5,0,0,1,301.731,0Z" transform="translate(-34.452)" fill="#f5f5f5"/>
        <path id="Trazado_730158" data-name="Trazado 730158" d="M33.6,208.821l18.726-14.844A23.9,23.9,0,1,1,24.1,186.892Z" transform="translate(-1.219 -23.38)" fill="#f5f5f5"/>
        <path id="Trazado_730159" data-name="Trazado 730159" d="M31.2,184.059l6.585,17.325,13.937-11.841s-7.382-7.6-20.523-5.484" transform="translate(-3.903 -22.979)" fill="#e0e0e0"/>
      </g>
    </g>
    <g id="Grupo_1031026" data-name="Grupo 1031026">
      <g id="Grupo_1031025" data-name="Grupo 1031025" clip-path="url(#clip-path)">
        <path id="Trazado_730160" data-name="Trazado 730160" d="M393.916,432.8c0,.126-82.3.227-183.79.227-101.53,0-183.809-.1-183.809-.227s82.279-.227,183.809-.227c101.494,0,183.79.1,183.79.227" transform="translate(-3.292 -54.114)" fill="#263238"/>
      </g>
    </g>
    <g id="Grupo_1031034" data-name="Grupo 1031034">
      <g id="Grupo_1031033" data-name="Grupo 1031033" clip-path="url(#clip-path)">
        <path id="Trazado_730161" data-name="Trazado 730161" d="M49.8,74.354A16.537,16.537,0,1,0,34.173,97.5l1.669,3.823,13.283-5.8s-.857-2.18-1.663-4.109A16.533,16.533,0,0,0,49.8,74.354" transform="translate(-2.265 -8.06)" fill="#ffa031"/>
        <path id="Trazado_730162" data-name="Trazado 730162" d="M45.79,99.827s-.026-.065-.066-.193-.1-.328-.177-.574c-.151-.506-.375-1.251-.638-2.219s-.569-2.157-.836-3.557a24.469,24.469,0,0,1-.466-4.818,15.71,15.71,0,0,1,.256-2.812,3.045,3.045,0,0,1,.629-1.383,1.706,1.706,0,0,1,1.46-.581,1.125,1.125,0,0,1,.741.39,1.156,1.156,0,0,1,.276.806,2.347,2.347,0,0,1-.731,1.52,4.521,4.521,0,0,1-3.248,1.152,4.579,4.579,0,0,1-3.244-1.594,3.473,3.473,0,0,1-.853-1.71,1.486,1.486,0,0,1,.918-1.654,1.069,1.069,0,0,1,1,.2,1.5,1.5,0,0,1,.53.882,3.234,3.234,0,0,1-.409,1.971,4.934,4.934,0,0,1-3.085,2.567,4.3,4.3,0,0,1-3.885-.906,2.5,2.5,0,0,1-.9-1.791,1.265,1.265,0,0,1,.372-.96,1.24,1.24,0,0,1,.971-.322,1.65,1.65,0,0,1,.93.386,2.582,2.582,0,0,1,.612.772,4.758,4.758,0,0,1,.527,1.833A4.924,4.924,0,0,1,35.45,90.7,5.011,5.011,0,0,1,32.5,92.5a2.628,2.628,0,0,1-1.68-.128,1.281,1.281,0,0,1-.722-1.423,1.077,1.077,0,0,1,.535-.63,1.566,1.566,0,0,1,.785-.176,2.4,2.4,0,0,1,1.381.635c.74.655,1.395,1.321,2.037,1.948,2.546,2.526,4.5,4.667,5.842,6.159.668.747,1.178,1.335,1.522,1.734l.388.458c.087.1.127.161.127.161s-.051-.048-.143-.147-.23-.255-.4-.444c-.36-.4-.881-.972-1.55-1.709-1.354-1.476-3.328-3.6-5.884-6.11-.642-.62-1.31-1.291-2.036-1.93a2.243,2.243,0,0,0-1.288-.592.991.991,0,0,0-.514,1.91,2.455,2.455,0,0,0,1.568.108A4.843,4.843,0,0,0,35.3,90.587a4.736,4.736,0,0,0,.98-3.341,4.586,4.586,0,0,0-.506-1.756,1.8,1.8,0,0,0-1.385-1.053,1.039,1.039,0,0,0-.817.268,1.06,1.06,0,0,0-.309.813,2.3,2.3,0,0,0,.837,1.643,4.1,4.1,0,0,0,3.7.859,4.731,4.731,0,0,0,2.955-2.462,3.044,3.044,0,0,0,.392-1.84,1.3,1.3,0,0,0-.457-.764.866.866,0,0,0-.821-.165,1.156,1.156,0,0,0-.647.572,1.427,1.427,0,0,0-.136.867,3.281,3.281,0,0,0,.8,1.608A4.4,4.4,0,0,0,43,87.371a4.351,4.351,0,0,0,3.113-1.093,2.182,2.182,0,0,0,.682-1.4.975.975,0,0,0-.865-1.025,1.543,1.543,0,0,0-1.316.521,2.892,2.892,0,0,0-.6,1.31,15.6,15.6,0,0,0-.266,2.78,24.676,24.676,0,0,0,.434,4.8c.255,1.4.55,2.588.8,3.557l.6,2.227.157.579c.035.131.047.2.047.2" transform="translate(-3.761 -10.327)" fill="#263238"/>
        <path id="Trazado_730163" data-name="Trazado 730163" d="M51.8,103.038,40.4,108.017a.934.934,0,1,1-.747-1.711l11.405-4.98a.934.934,0,0,1,.747,1.712" transform="translate(-4.89 -12.666)" fill="#263238"/>
        <path id="Trazado_730164" data-name="Trazado 730164" d="M52.281,104.137l-11.405,4.979a.934.934,0,1,0,.748,1.712l1.251-.547,3.041,2.437a1.2,1.2,0,0,0,1.231.163l4.075-1.78a1.2,1.2,0,0,0,.717-1.025l.239-3.856.85-.372a.934.934,0,1,0-.747-1.711" transform="translate(-5.043 -13.018)" fill="#263238"/>
        <g id="Grupo_1031029" data-name="Grupo 1031029" transform="translate(17.351 62.131)" opacity="0.2">
          <g id="Grupo_1031028" data-name="Grupo 1031028">
            <g id="Grupo_1031027" data-name="Grupo 1031027" clip-path="url(#clip-path-5)">
              <path id="Trazado_730165" data-name="Trazado 730165" d="M20.907,76.39a12.146,12.146,0,0,1,2.154-3.342,8.772,8.772,0,0,1,2.039-1.7c.548-.31.9-.4.979-.289.185.247-.785,1.157-1.882,2.866a13.6,13.6,0,0,0-.337,14.719c1.017,1.758,1.945,2.71,1.748,2.948-.086.1-.432,0-.964-.332a8.8,8.8,0,0,1-1.96-1.79,12.153,12.153,0,0,1-2-3.438,12.883,12.883,0,0,1-.852-4.844" transform="translate(-19.832 -71.015)" fill="#fff"/>
            </g>
          </g>
        </g>
        <g id="Grupo_1031032" data-name="Grupo 1031032" transform="translate(25.198 59.092)" opacity="0.2">
          <g id="Grupo_1031031" data-name="Grupo 1031031">
            <g id="Grupo_1031030" data-name="Grupo 1031030" clip-path="url(#clip-path-6)">
              <path id="Trazado_730166" data-name="Trazado 730166" d="M31.132,69.688c-.965.41-1.927.518-2.248.052a.857.857,0,0,1,.164-.941,3.319,3.319,0,0,1,2.871-1.236c.437.063.731.257.8.528" transform="translate(-28.802 -67.541)" fill="#fff"/>
            </g>
          </g>
        </g>
        <path id="Trazado_730167" data-name="Trazado 730167" d="M52.731,111.343c0,.034-.346.028-.889.1a6.929,6.929,0,0,0-3.8,1.794,8.938,8.938,0,0,1-.643.621,2.579,2.579,0,0,1,.542-.724,6.057,6.057,0,0,1,3.89-1.834,2.529,2.529,0,0,1,.9.042" transform="translate(-5.929 -13.922)" fill="#455a64"/>
        <path id="Trazado_730168" data-name="Trazado 730168" d="M52.6,106.561c.023.052-2.021.993-4.564,2.1s-4.623,1.969-4.646,1.918,2.021-.993,4.564-2.1,4.623-1.969,4.646-1.918" transform="translate(-5.429 -13.33)" fill="#455a64"/>
        <path id="Trazado_730169" data-name="Trazado 730169" d="M52.687,108.464a7.053,7.053,0,0,1-1.074.6c-.675.347-1.62.807-2.676,1.286s-2.025.887-2.731,1.166a7.06,7.06,0,0,1-1.162.409,7.9,7.9,0,0,1,1.106-.542l2.7-1.219,2.7-1.231a7.914,7.914,0,0,1,1.136-.475" transform="translate(-5.635 -13.568)" fill="#455a64"/>
      </g>
    </g>
    <g id="Grupo_1031036" data-name="Grupo 1031036">
      <g id="Grupo_1031035" data-name="Grupo 1031035" clip-path="url(#clip-path)">
        <path id="Trazado_730170" data-name="Trazado 730170" d="M267,270.66h-67.03a4.643,4.643,0,0,1-4.643-4.643V224.975a4.643,4.643,0,0,1,4.643-4.643H267a4.643,4.643,0,0,1,4.643,4.643v41.042A4.643,4.643,0,0,1,267,270.66" transform="translate(-24.436 -27.563)" fill="#fff"/>
        <path id="Trazado_730171" data-name="Trazado 730171" d="M266.974,270.631c0-.014.216-.009.628-.068a4.446,4.446,0,0,0,1.723-.625,4.617,4.617,0,0,0,1.9-2.24c.485-1.1.277-2.514.314-4.059-.015-6.218-.038-15.2-.065-26.286q-.007-4.163-.014-8.711,0-1.135,0-2.294a14.1,14.1,0,0,0-.093-2.3,4.5,4.5,0,0,0-2.927-3.326,6.529,6.529,0,0,0-2.382-.247l-2.508,0-5.137.005-10.721.009-47.737.016a4.443,4.443,0,0,0-4.343,3.5,7.061,7.061,0,0,0-.1,1.515v1.56q0,1.558,0,3.1,0,6.186,0,12.18c0,7.985-.009,15.688-.012,23.026a5.053,5.053,0,0,0,.469,2.574,4.447,4.447,0,0,0,1.744,1.865,4.552,4.552,0,0,0,2.457.611l2.626,0,10.114.01,18.152.025,26.285.066,7.146.038,1.858.02c.419.007.633.021.633.021s-.214.014-.633.021l-1.858.02-7.146.038-26.285.066L212.9,270.8l-10.114.01-2.626,0a4.922,4.922,0,0,1-2.643-.657,4.814,4.814,0,0,1-1.892-2.018,5.44,5.44,0,0,1-.512-2.741c0-7.338-.008-15.04-.012-23.026q0-5.99,0-12.18v-4.664a7.354,7.354,0,0,1,.109-1.6,4.849,4.849,0,0,1,4.744-3.829l47.737.016,10.721.009,5.137.005,2.508,0a6.843,6.843,0,0,1,2.494.27,4.833,4.833,0,0,1,3.137,3.583,14,14,0,0,1,.094,2.366q0,1.159,0,2.294-.008,4.543-.013,8.711c-.028,11.09-.05,20.068-.066,26.286q-.005,1.164-.01,2.2a4.875,4.875,0,0,1-.352,1.907,4.691,4.691,0,0,1-1.968,2.266,4.343,4.343,0,0,1-1.76.594,3.559,3.559,0,0,1-.633.027" transform="translate(-24.406 -27.534)" fill="#263238"/>
        <rect id="Rectángulo_351141" data-name="Rectángulo 351141" width="2.928" height="11.654" transform="translate(205.099 221.992)" fill="#ffa031"/>
        <rect id="Rectángulo_351142" data-name="Rectángulo 351142" width="2.928" height="13.342" transform="translate(180.639 220.304)" fill="#ffa031"/>
        <rect id="Rectángulo_351143" data-name="Rectángulo 351143" width="2.928" height="16.124" transform="translate(186.754 217.522)" fill="#ffa031"/>
        <rect id="Rectángulo_351144" data-name="Rectángulo 351144" width="2.928" height="15.239" transform="translate(192.868 218.407)" fill="#ffa031"/>
        <rect id="Rectángulo_351145" data-name="Rectángulo 351145" width="2.928" height="20.395" transform="translate(198.984 213.252)" fill="#ffa031"/>
        <rect id="Rectángulo_351146" data-name="Rectángulo 351146" width="2.928" height="20.295" transform="translate(211.213 213.351)" fill="#ffa031"/>
        <rect id="Rectángulo_351147" data-name="Rectángulo 351147" width="2.928" height="13.629" transform="translate(217.329 220.017)" fill="#ffa031"/>
        <rect id="Rectángulo_351148" data-name="Rectángulo 351148" width="2.928" height="19.401" transform="translate(223.444 214.245)" fill="#ffa031"/>
        <rect id="Rectángulo_351149" data-name="Rectángulo 351149" width="2.928" height="23.771" transform="translate(229.558 209.875)" fill="#ffa031"/>
        <rect id="Rectángulo_351150" data-name="Rectángulo 351150" width="2.928" height="19.501" transform="translate(235.674 214.145)" fill="#ffa031"/>
        <path id="Trazado_730172" data-name="Trazado 730172" d="M227.966,231.6c0,.126-5.2.227-11.611.227s-11.612-.1-11.612-.227,5.2-.227,11.612-.227,11.611.1,11.611.227" transform="translate(-25.613 -28.945)" fill="#263238"/>
      </g>
    </g>
    <g id="Grupo_1031047" data-name="Grupo 1031047">
      <g id="Grupo_1031046" data-name="Grupo 1031046" clip-path="url(#clip-path)">
        <path id="Trazado_730173" data-name="Trazado 730173" d="M331.415,185.16l3.147,3.934v-6.769h9.913s1.1,15.5.866,18.807a26.814,26.814,0,0,1-1.213,5.056,5.819,5.819,0,0,1-9.609,2.406,33.476,33.476,0,0,1-3.1-3.45c-4.406-5.665-11.725-19.463-11.725-19.463l7.634-4.612Z" transform="translate(-39.993 -22.652)" fill="#ffbe9d"/>
        <path id="Trazado_730174" data-name="Trazado 730174" d="M332.376,184.914a11.3,11.3,0,0,0,1.295,1.73c.836,1.036,1.995,2.465,3.319,4.01s2.575,2.9,3.546,3.827a7.154,7.154,0,0,0,1.684,1.365,16.532,16.532,0,0,0-1.449-1.6c-.9-.973-2.1-2.36-3.428-3.9a48.658,48.658,0,0,0-4.968-5.436" transform="translate(-41.579 -23.132)" fill="#eb996e"/>
        <path id="Trazado_730175" data-name="Trazado 730175" d="M389.581,82.166l.447,36.01c.076,6.123-1.063,15.134-10.751,14.813-8.383-.913-10.607-8.85-10.673-14.564-.031-2.711-.062-4.971-.084-5.25,0,0-9.177-.748-9.952-9.813-.374-4.381-.41-13.466-.348-21.686a16.945,16.945,0,0,1,15.717-16.762l.876-.064c9.48-.138,14.893,7.836,14.768,17.316" transform="translate(-44.81 -8.112)" fill="#ffbe9d"/>
        <path id="Trazado_730176" data-name="Trazado 730176" d="M370,119.462a21.977,21.977,0,0,0,11.558-4.355s-2.4,6.837-11.511,6.682Z" transform="translate(-46.286 -14.4)" fill="#eb996e"/>
        <path id="Trazado_730177" data-name="Trazado 730177" d="M375.934,88.1c.179.185,1.226-.66,2.745-.7,1.517-.064,2.654.7,2.813.509.078-.088-.109-.423-.6-.771a3.8,3.8,0,0,0-2.257-.64,3.657,3.657,0,0,0-2.179.793c-.457.381-.605.725-.516.808" transform="translate(-47.026 -10.821)" fill="#263238"/>
        <path id="Trazado_730178" data-name="Trazado 730178" d="M374.987,92.347a1.229,1.229,0,0,0,1.272,1.15,1.176,1.176,0,0,0,1.183-1.2,1.229,1.229,0,0,0-1.271-1.15,1.175,1.175,0,0,0-1.184,1.2" transform="translate(-46.91 -11.403)" fill="#263238"/>
        <path id="Trazado_730179" data-name="Trazado 730179" d="M371.07,98.736a9.252,9.252,0,0,0-2.294-.243c-.359-.01-.7-.057-.779-.3a1.82,1.82,0,0,1,.16-1.072q.408-1.329.856-2.788c1.18-3.967,2.006-7.218,1.846-7.264s-1.247,3.132-2.427,7.1c-.283.978-.553,1.91-.809,2.8a2.067,2.067,0,0,0-.082,1.41.893.893,0,0,0,.623.478,2.391,2.391,0,0,0,.611.04,9.091,9.091,0,0,0,2.3-.164" transform="translate(-45.966 -10.893)" fill="#263238"/>
        <path id="Trazado_730180" data-name="Trazado 730180" d="M376.675,80.779c.147.337,1.362.083,2.818.158,1.458.044,2.653.4,2.822.072.074-.155-.152-.465-.647-.766a4.6,4.6,0,0,0-2.131-.6,4.548,4.548,0,0,0-2.165.425c-.514.259-.76.55-.7.71" transform="translate(-47.12 -9.963)" fill="#263238"/>
        <path id="Trazado_730181" data-name="Trazado 730181" d="M360.188,83.374c.159.275,1.345-.031,2.78-.074,1.437-.07,2.628.139,2.78-.148.066-.136-.17-.382-.67-.6a5.027,5.027,0,0,0-2.124-.351,5.165,5.165,0,0,0-2.112.521c-.494.257-.724.522-.654.654" transform="translate(-45.058 -10.283)" fill="#263238"/>
        <path id="Trazado_730182" data-name="Trazado 730182" d="M393.783,92.319c.149-.079,6.1-2.3,6.354,3.918s-6.039,5.191-6.058,5.013-.3-8.931-.3-8.931" transform="translate(-49.262 -11.493)" fill="#ffbe9d"/>
        <path id="Trazado_730183" data-name="Trazado 730183" d="M396.181,99.1c.026-.021.111.072.3.148a1.085,1.085,0,0,0,.811-.017,2.682,2.682,0,0,0,1.141-2.455,3.571,3.571,0,0,0-.367-1.538,1.251,1.251,0,0,0-.849-.8.553.553,0,0,0-.627.324c-.076.177-.031.3-.064.311-.017.017-.137-.1-.1-.358a.688.688,0,0,1,.228-.4.816.816,0,0,1,.592-.183,1.522,1.522,0,0,1,1.172.918,3.673,3.673,0,0,1,.446,1.717,2.815,2.815,0,0,1-1.47,2.751,1.163,1.163,0,0,1-1-.124c-.2-.146-.237-.283-.216-.3" transform="translate(-49.561 -11.776)" fill="#eb996e"/>
        <path id="Trazado_730184" data-name="Trazado 730184" d="M373.266,104.752c-.068-.157,1.15-.521,2.006-1.664a6.962,6.962,0,0,0,.861-1.624c.181-.451.318-.735.386-.714s.047.325-.053.816a4.6,4.6,0,0,1-.8,1.819,3.719,3.719,0,0,1-1.589,1.215c-.474.192-.8.2-.812.151" transform="translate(-46.695 -12.604)" fill="#263238"/>
        <path id="Trazado_730185" data-name="Trazado 730185" d="M344.459,72.759a1.471,1.471,0,0,1,.689-.857,4.52,4.52,0,0,1,2.318-.376,13.092,13.092,0,0,0,6.817-2.072,30.544,30.544,0,0,1,3.172-3.845c2.748-2.833,5.009-4.761,7.347-5.7a21.053,21.053,0,0,1,11.238-.884c3.154.828,5.986,3.387,6.424,6.618,1.769-1.5,4.425-1.483,6.579-.617L389.1,65c2.4.856,3.763,3.39,4.471,5.836s1.01,5.063,2.305,7.256c.271.458.592,1.008.356,1.485a1.012,1.012,0,0,1-1.06.462,2.976,2.976,0,0,1-1.116-.506q.4.961.8,1.922a5.672,5.672,0,0,1-2.61-.174,55.616,55.616,0,0,1-1.706,6.452,3.7,3.7,0,0,0-2.54.625c-.84.756-1.216,2.178-2.612,1.638-.71-.275-1.359-1.766-1.6-2.49A35.377,35.377,0,0,1,382.26,72.53,11.392,11.392,0,0,0,378.748,70l.108.1c-2.534-.88-5.4-1.745-7.8-.556-1.864.923-2.96,2.857-4.354,4.4a14.233,14.233,0,0,1-10.144,4.685c-.134,2.553.08,6.16-.053,8.713l-2.148-4.089,0,.021c-.176-.3-.321-.6-.461-.9l-.048-.092v-.011a15.954,15.954,0,0,0-.718-1.452l-.024.022a1.594,1.594,0,0,1-2.33-2.132,3.6,3.6,0,0,1,.771-.775,2.52,2.52,0,0,1-2.4.623,1.979,1.979,0,0,1-1.4-1.957,1.684,1.684,0,0,1,1-1.351,5.677,5.677,0,0,1-3.234-.712c-.639-.364-1.265-.963-1.048-1.766" transform="translate(-43.086 -7.332)" fill="#12263f"/>
        <path id="Trazado_730186" data-name="Trazado 730186" d="M384.644,67.835a7.9,7.9,0,0,1,.91.832,6.51,6.51,0,0,1,1.392,3.011,11.412,11.412,0,0,1,.231,2.3c0,.836-.063,1.73-.127,2.672a23.848,23.848,0,0,0-.068,2.974,10.506,10.506,0,0,0,.2,1.569,3.264,3.264,0,0,0,.64,1.521,1.369,1.369,0,0,0,1.28.43,2.037,2.037,0,0,0,1.151-.651,4.7,4.7,0,0,0,.874-2.305l-.191.023a7.609,7.609,0,0,0,1.1,1.9,2.7,2.7,0,0,0,1.764.961,1.74,1.74,0,0,0,.935-.164,1.506,1.506,0,0,0,.635-.626,1.557,1.557,0,0,0,.192-.8,1.122,1.122,0,0,0-.291-.705l-.1.086a5.846,5.846,0,0,0,1.948,1.462,5.409,5.409,0,0,0,.6.234,1.075,1.075,0,0,0,.216.053,1.079,1.079,0,0,0-.2-.087c-.135-.055-.335-.136-.585-.262a6.033,6.033,0,0,1-1.88-1.484l-.1.087a1.162,1.162,0,0,1,.06,1.347,1.353,1.353,0,0,1-.574.553,1.569,1.569,0,0,1-.848.138,2.528,2.528,0,0,1-1.637-.913,7.49,7.49,0,0,1-1.063-1.859l-.13-.29-.059.314a4.553,4.553,0,0,1-.832,2.2,1.834,1.834,0,0,1-1.031.582,1.154,1.154,0,0,1-1.087-.365,3.092,3.092,0,0,1-.591-1.423,10.455,10.455,0,0,1-.2-1.536,24.277,24.277,0,0,1,.056-2.949c.059-.941.119-1.84.108-2.686a11.3,11.3,0,0,0-.261-2.334,6.42,6.42,0,0,0-1.477-3.034,3.7,3.7,0,0,0-.971-.777" transform="translate(-48.118 -8.486)" fill="#455a64"/>
        <path id="Trazado_730187" data-name="Trazado 730187" d="M352.581,75.93s.023.024.073.062l.227.165a3.1,3.1,0,0,0,.384.246,4.724,4.724,0,0,0,.552.29,8.031,8.031,0,0,0,3.881.7,10.272,10.272,0,0,0,5.472-2.021,17.793,17.793,0,0,0,4.7-5.419c.66-1.1,1.2-2.223,1.79-3.263a12,12,0,0,1,2.026-2.76,6.19,6.19,0,0,1,2.612-1.585,4.426,4.426,0,0,1,1.378-.159,4.9,4.9,0,0,1,1.262.242,5.246,5.246,0,0,1,2.913,2.465,6.241,6.241,0,0,1,.468,1.36.3.3,0,0,0-.007-.094c-.011-.075-.025-.166-.043-.277a4.556,4.556,0,0,0-.344-1.025,5.162,5.162,0,0,0-1.016-1.376,5.308,5.308,0,0,0-1.924-1.194,5,5,0,0,0-1.3-.263,4.562,4.562,0,0,0-1.434.152,6.34,6.34,0,0,0-2.7,1.615,12.126,12.126,0,0,0-2.071,2.8c-.6,1.047-1.137,2.17-1.791,3.257a17.816,17.816,0,0,1-4.634,5.37,10.214,10.214,0,0,1-5.368,2.029,8.152,8.152,0,0,1-3.837-.624,13.053,13.053,0,0,1-1.27-.689" transform="translate(-44.107 -7.758)" fill="#455a64"/>
        <path id="Trazado_730188" data-name="Trazado 730188" d="M351.638,73.365a1.415,1.415,0,0,0,.325.227,7,7,0,0,0,.962.489,9.391,9.391,0,0,0,1.525.5,9.844,9.844,0,0,0,3.913.125,9.349,9.349,0,0,0,1.554-.4,7.029,7.029,0,0,0,.992-.427,1.41,1.41,0,0,0,.339-.2c-.018-.036-.519.221-1.378.489a10.624,10.624,0,0,1-1.537.352,10.6,10.6,0,0,1-3.839-.123,10.7,10.7,0,0,1-1.512-.449c-.841-.322-1.324-.612-1.344-.577" transform="translate(-43.99 -9.177)" fill="#455a64"/>
        <path id="Trazado_730189" data-name="Trazado 730189" d="M360.109,88.1c.18.185,1.227-.66,2.746-.7,1.516-.063,2.652.7,2.812.507.079-.087-.109-.421-.6-.769a3.8,3.8,0,0,0-2.257-.64,3.657,3.657,0,0,0-2.179.793c-.457.381-.605.725-.517.808" transform="translate(-45.046 -10.821)" fill="#263238"/>
        <path id="Trazado_730190" data-name="Trazado 730190" d="M360.478,92.347a1.23,1.23,0,0,0,1.272,1.15,1.175,1.175,0,0,0,1.182-1.2,1.228,1.228,0,0,0-1.27-1.15,1.175,1.175,0,0,0-1.184,1.2" transform="translate(-45.095 -11.403)" fill="#263238"/>
        <path id="Trazado_730191" data-name="Trazado 730191" d="M412.21,397.838l1.881,22.641,6.651,17.478a2.328,2.328,0,0,1-3.594,2.674c-3.8-2.941-17.492-13.748-17.645-15.157-.2-1.823-3.688-24.085-3.688-24.085Z" transform="translate(-49.516 -49.769)" fill="#455a64"/>
        <path id="Trazado_730192" data-name="Trazado 730192" d="M419.717,444.594,399.6,426.477l.2,1.677c.136.918.15,1.416.754,1.99A195.543,195.543,0,0,0,417.407,444.6a2.587,2.587,0,0,0,2.311,0" transform="translate(-49.99 -53.352)" fill="#263238"/>
        <path id="Trazado_730193" data-name="Trazado 730193" d="M403.847,418.386a1.409,1.409,0,0,1,.577,1.788,1.353,1.353,0,0,1-1.767.588,1.485,1.485,0,0,1-.6-1.9,1.4,1.4,0,0,1,1.906-.408" transform="translate(-50.278 -52.32)" fill="#fff"/>
        <path id="Trazado_730194" data-name="Trazado 730194" d="M415.49,436.105c.135.049.518-1.188,1.794-1.968a7.1,7.1,0,0,1,2.549-.773c.013-.058-.291-.2-.828-.221a3.712,3.712,0,0,0-3.36,2.12c-.214.493-.214.83-.156.842" transform="translate(-51.973 -54.185)" fill="#263238"/>
        <path id="Trazado_730195" data-name="Trazado 730195" d="M417.7,439.515c.118.086.765-.725,1.9-1.184a18.846,18.846,0,0,1,2.176-.519,2.578,2.578,0,0,0-2.368.059c-1.288.53-1.829,1.6-1.705,1.644" transform="translate(-52.251 -54.741)" fill="#263238"/>
        <path id="Trazado_730196" data-name="Trazado 730196" d="M411.6,432a11.969,11.969,0,0,1,6.074-3.162A6.366,6.366,0,0,0,411.6,432" transform="translate(-51.489 -53.636)" fill="#263238"/>
        <path id="Trazado_730197" data-name="Trazado 730197" d="M410.288,424.46c.075.129,1.268-.525,2.885-.756,1.615-.254,2.946.023,2.98-.122a5.777,5.777,0,0,0-5.865.878" transform="translate(-51.326 -52.934)" fill="#263238"/>
        <path id="Trazado_730198" data-name="Trazado 730198" d="M409.465,416.872a7.392,7.392,0,0,1,6.058-.432c.031-.052-.245-.309-.8-.555a5.072,5.072,0,0,0-4.549.325c-.512.322-.75.616-.71.662" transform="translate(-51.223 -51.978)" fill="#263238"/>
        <path id="Trazado_730199" data-name="Trazado 730199" d="M412.172,414.039a1.949,1.949,0,0,0-.059-.857,5.974,5.974,0,0,0-.917-2.166,2.65,2.65,0,0,0-1.262-1.137.937.937,0,0,0-1.026.318,1.519,1.519,0,0,0-.249,1.058,3.291,3.291,0,0,0,3.189,2.724,3.819,3.819,0,0,0,3.517-2.381,1.322,1.322,0,0,0-.054-1.1.918.918,0,0,0-1.006-.382,3.255,3.255,0,0,0-1.406.932,6.662,6.662,0,0,0-1.356,1.919,2.038,2.038,0,0,0-.264.818,10.592,10.592,0,0,1,1.863-2.48,3.034,3.034,0,0,1,1.246-.782.489.489,0,0,1,.549.2.908.908,0,0,1-.007.726,3.406,3.406,0,0,1-3.073,2.029,2.855,2.855,0,0,1-2.74-2.272,1.1,1.1,0,0,1,.143-.746.506.506,0,0,1,.563-.184,2.394,2.394,0,0,1,1.087.943,8.833,8.833,0,0,1,1.264,2.82" transform="translate(-51.122 -51.27)" fill="#263238"/>
        <path id="Trazado_730200" data-name="Trazado 730200" d="M350.617,399.145l.838,19.173s-19.207,7.291-19.4,10.85l37.233-.29-.081-29.927Z" transform="translate(-41.54 -49.908)" fill="#455a64"/>
        <path id="Trazado_730201" data-name="Trazado 730201" d="M367.115,419.132a1.519,1.519,0,0,1,1.065,1.727,1.462,1.462,0,0,1-1.7,1.071,1.6,1.6,0,0,1-1.118-1.836,1.518,1.518,0,0,1,1.9-.917" transform="translate(-45.7 -52.425)" fill="#e0e0e0"/>
        <path id="Trazado_730202" data-name="Trazado 730202" d="M369.29,432.726l-.126-3.017-35.651,1.406s-1.653.735-1.456,1.9Z" transform="translate(-41.538 -53.756)" fill="#263238"/>
        <path id="Trazado_730203" data-name="Trazado 730203" d="M353.538,420.852c.007.182.917.257,1.816.835.914.555,1.381,1.339,1.549,1.265.167-.037-.113-1.122-1.214-1.8s-2.193-.464-2.151-.3" transform="translate(-44.227 -52.627)" fill="#263238"/>
        <path id="Trazado_730204" data-name="Trazado 730204" d="M349.089,422.747c-.04.176.75.479,1.374,1.243.646.746.808,1.577.989,1.567.171.027.289-1.039-.5-1.974s-1.855-1.01-1.857-.836" transform="translate(-43.67 -52.876)" fill="#263238"/>
        <path id="Trazado_730205" data-name="Trazado 730205" d="M346.383,427.673c.165.038.411-.873-.063-1.865s-1.328-1.381-1.4-1.229c-.1.15.455.681.832,1.5.4.811.454,1.577.635,1.594" transform="translate(-43.147 -53.11)" fill="#263238"/>
        <path id="Trazado_730206" data-name="Trazado 730206" d="M353.873,415.763c.078.165.91-.092,1.938-.031,1.03.041,1.832.38,1.925.223.1-.132-.682-.8-1.893-.855s-2.06.521-1.969.662" transform="translate(-44.268 -51.928)" fill="#263238"/>
        <path id="Trazado_730207" data-name="Trazado 730207" d="M345.863,241.126c.021,1.11,4.325,154.334,4.325,154.334H373.2l4.662-131.072s5.444,68.532,5.444,70.012,4.8,61.8,4.8,61.8l21.338-1.741-1.4-138-2.607-20.232Z" transform="translate(-43.267 -29.552)" fill="#12263f"/>
        <path id="Trazado_730208" data-name="Trazado 730208" d="M384.532,260.516a4.214,4.214,0,0,1-.934.393c-.611.224-1.5.532-2.6.9l-.21.071-.015-.216c-.128-1.843-.273-4.309-.408-7.01-.146-2.929-.254-5.581-.308-7.5-.028-.961-.042-1.738-.041-2.276a2.98,2.98,0,0,1,.046-.837,3,3,0,0,1,.13.829c.054.535.117,1.311.186,2.269.136,1.917.295,4.567.441,7.5.135,2.7.237,5.168.293,7.015l-.224-.145c1.112-.333,2.018-.6,2.647-.768a4.281,4.281,0,0,1,.995-.221" transform="translate(-47.54 -30.529)" fill="#455a64"/>
        <path id="Trazado_730209" data-name="Trazado 730209" d="M383.034,244.6c-.015-.02.074-.122.305-.2a1.41,1.41,0,0,1,1.017.088,1.268,1.268,0,0,1,.77,1.259A1.543,1.543,0,0,1,383.9,247.1a1.682,1.682,0,0,1-1.7-.768,1.37,1.37,0,0,1,.018-1.455,1.532,1.532,0,0,1,.761-.637c.227-.08.362-.066.367-.042.034.065-.519.176-.842.821a1.087,1.087,0,0,0,.055,1.107,1.29,1.29,0,0,0,1.248.55,1.171,1.171,0,0,0,.9-.969.954.954,0,0,0-.508-.954,1.806,1.806,0,0,0-1.166-.156" transform="translate(-47.788 -30.547)" fill="#455a64"/>
        <path id="Trazado_730210" data-name="Trazado 730210" d="M395.193,246.025c-.125.012-.3-.652-.389-1.483s-.062-1.516.064-1.528.3.652.389,1.484.061,1.515-.064,1.528" transform="translate(-49.383 -30.401)" fill="#455a64"/>
        <path id="Trazado_730211" data-name="Trazado 730211" d="M397.046,245.828c-.126,0-.231-.707-.236-1.58s.094-1.582.22-1.583.231.707.235,1.58-.094,1.582-.22,1.583" transform="translate(-49.64 -30.357)" fill="#455a64"/>
        <path id="Trazado_730212" data-name="Trazado 730212" d="M365.3,246.973a7.338,7.338,0,0,1-.416-3.6,3.834,3.834,0,0,1,.435,1.779,3.8,3.8,0,0,1-.018,1.826" transform="translate(-45.634 -30.445)" fill="#455a64"/>
        <path id="Trazado_730213" data-name="Trazado 730213" d="M367.5,247.117a3.925,3.925,0,0,1-.162-3.766,66.556,66.556,0,0,0,.162,3.766" transform="translate(-45.903 -30.443)" fill="#455a64"/>
        <path id="Trazado_730214" data-name="Trazado 730214" d="M357.808,245.316a2.162,2.162,0,0,1-.077.675,13.159,13.159,0,0,1-.463,1.8,19.028,19.028,0,0,1-2.85,5.46,19.957,19.957,0,0,1-4.5,4.35,14.513,14.513,0,0,1-1.634,1,2.51,2.51,0,0,1-.647.29c-.037-.059.835-.55,2.1-1.513a22.594,22.594,0,0,0,4.338-4.357,21.654,21.654,0,0,0,2.909-5.321c.542-1.455.744-2.4.815-2.385" transform="translate(-43.49 -30.689)" fill="#455a64"/>
        <path id="Trazado_730215" data-name="Trazado 730215" d="M414.258,255.8a2.234,2.234,0,0,1-.7.109,10.919,10.919,0,0,1-1.927-.036,12.633,12.633,0,0,1-5.9-2.18,11.741,11.741,0,0,1-3.928-4.713,9.479,9.479,0,0,1-.6-1.739,1.943,1.943,0,0,1-.1-.666c.073-.018.269.921.962,2.29a12.455,12.455,0,0,0,3.908,4.514,13.332,13.332,0,0,0,5.689,2.221c1.581.227,2.584.128,2.587.2" transform="translate(-50.178 -30.846)" fill="#455a64"/>
        <path id="Trazado_730216" data-name="Trazado 730216" d="M370.863,345.191c-.029.1-3.843-.773-8.519-1.959S353.9,341,353.93,340.9s3.843.773,8.52,1.959,8.442,2.231,8.413,2.335" transform="translate(-44.276 -42.645)" fill="#455a64"/>
        <path id="Trazado_730217" data-name="Trazado 730217" d="M413.519,339.431c.055.094-3.265,1.939-7.414,4.119s-7.557,3.873-7.612,3.78,3.264-1.939,7.415-4.12,7.557-3.872,7.612-3.779" transform="translate(-49.851 -42.462)" fill="#455a64"/>
        <path id="Trazado_730218" data-name="Trazado 730218" d="M358.941,130.557l10.454-4.1,19.257-1.09,9.052,3.442L385.3,135.7l-10.695-.392Z" transform="translate(-44.903 -15.683)" fill="#ffbe9d"/>
        <path id="Trazado_730219" data-name="Trazado 730219" d="M343.3,228.934c.946.163,64.044,2.843,64.044,2.843l-2.216-56.734-.182-11.139-3.584-33.746s-9.431-3.242-14.243-4.791c0,0-5.065,5.278-14.694,5.136-9.415-.139-11.382-2.262-11.382-2.262l-13.162,5.046s-9.359,3.356-10.969,7.5c-1.568,4.032-4.44,27.053-4.44,27.053h13.643l-.258,40.668Z" transform="translate(-41.592 -15.683)" fill="#4db1f0"/>
        <g id="Grupo_1031039" data-name="Grupo 1031039" transform="translate(341.379 136.821)" opacity="0.2">
          <g id="Grupo_1031038" data-name="Grupo 1031038">
            <g id="Grupo_1031037" data-name="Grupo 1031037" clip-path="url(#clip-path-9)">
              <path id="Trazado_730220" data-name="Trazado 730220" d="M390.192,157.1l1.956,14.3,9.465,4.227,7-5.962V156.385Z" transform="translate(-390.192 -156.384)"/>
            </g>
          </g>
        </g>
        <path id="Trazado_730221" data-name="Trazado 730221" d="M408.448,161.8c0,.119-3.934.215-8.785.215s-8.786-.1-8.786-.215,3.933-.215,8.786-.215,8.785.1,8.785.215" transform="translate(-48.898 -20.214)" fill="#263238"/>
        <path id="Trazado_730222" data-name="Trazado 730222" d="M339.987,149.744a1.772,1.772,0,0,1,.1.376c.065.283.149.645.252,1.1a36.094,36.094,0,0,0,1.256,4.025c.628,1.694,1.516,3.682,2.6,5.915,1.027,2.276,1.956,4.894,2.927,7.732l.01.029v.033c-.023,3.4-.048,7.118-.074,11-.091,8.676-.174,16.528-.234,22.26-.05,2.816-.09,5.109-.118,6.744-.023.766-.04,1.376-.053,1.833a3.61,3.61,0,0,1-.046.638,3.762,3.762,0,0,1-.036-.64c-.006-.458-.014-1.068-.024-1.836,0-1.634-.007-3.929-.012-6.746.03-5.732.07-13.583.115-22.257.036-3.885.069-7.6.1-11l.01.061c-.953-2.831-1.865-5.459-2.857-7.717a63.557,63.557,0,0,1-2.53-5.97,30.972,30.972,0,0,1-1.157-4.079c-.094-.484-.161-.857-.192-1.111a1.846,1.846,0,0,1-.038-.388" transform="translate(-42.532 -18.733)" fill="#263238"/>
        <path id="Trazado_730223" data-name="Trazado 730223" d="M416.247,142.157a7.175,7.175,0,0,1-.012,1.211c-.031.852-.073,1.96-.122,3.294-.113,2.853-.263,6.659-.43,10.866-.19,4.208-.362,8.014-.492,10.867-.077,1.333-.14,2.441-.189,3.292a6.732,6.732,0,0,1-.125,1.2,6.846,6.846,0,0,1-.034-1.211c.015-.853.035-1.962.059-3.3.07-2.784.2-6.628.373-10.873s.369-8.086.549-10.865c.09-1.39.178-2.514.253-3.29a6.551,6.551,0,0,1,.171-1.2" transform="translate(-51.896 -17.784)" fill="#263238"/>
        <g id="Grupo_1031042" data-name="Grupo 1031042" transform="translate(297.464 133.072)" opacity="0.3">
          <g id="Grupo_1031041" data-name="Grupo 1031041">
            <g id="Grupo_1031040" data-name="Grupo 1031040" clip-path="url(#clip-path-10)">
              <path id="Trazado_730224" data-name="Trazado 730224" d="M340.024,152.1a23.713,23.713,0,0,0,6.2,16.9c-1.283-5.853-4.488-11.3-6.2-16.9" transform="translate(-339.997 -152.1)"/>
            </g>
          </g>
        </g>
        <g id="Grupo_1031045" data-name="Grupo 1031045" transform="translate(325.204 166.084)" opacity="0.3">
          <g id="Grupo_1031044" data-name="Grupo 1031044">
            <g id="Grupo_1031043" data-name="Grupo 1031043" clip-path="url(#clip-path-11)">
              <path id="Trazado_730225" data-name="Trazado 730225" d="M371.7,212.987a11.811,11.811,0,0,0,7.572-4.214,35.8,35.8,0,0,0,5.086-7.364,29.037,29.037,0,0,0,2.983-11.578c-3.676,9.851-9.066,17.649-15.641,23.155" transform="translate(-371.704 -189.832)"/>
            </g>
          </g>
        </g>
        <path id="Trazado_730226" data-name="Trazado 730226" d="M388.11,184.92a1.219,1.219,0,0,1-.052.363c-.062.282-.137.619-.227,1.025-.1.446-.234.986-.425,1.605s-.38,1.332-.663,2.1a48.8,48.8,0,0,1-2.178,5.3,55.887,55.887,0,0,1-3.471,6.1,54.8,54.8,0,0,1-4.28,5.563,45.97,45.97,0,0,1-4.067,4.036c-.6.553-1.188,1-1.695,1.4s-.952.739-1.332.993l-.867.591a1.249,1.249,0,0,1-.318.183c-.008-.011.086-.1.27-.25l.819-.652c.363-.272.8-.618,1.283-1.043s1.061-.879,1.646-1.442a50.92,50.92,0,0,0,3.977-4.07,58.9,58.9,0,0,0,4.222-5.54,60.309,60.309,0,0,0,3.473-6.038,54.459,54.459,0,0,0,2.243-5.23c.3-.755.513-1.457.717-2.068s.371-1.142.491-1.579c.119-.4.218-.728.3-1a1.261,1.261,0,0,1,.132-.344" transform="translate(-46.103 -23.133)" fill="#263238"/>
        <path id="Trazado_730227" data-name="Trazado 730227" d="M384.642,164.625a3.058,3.058,0,0,1-.073.579c-.073.416-.17.963-.29,1.647-.122.717-.29,1.59-.547,2.59s-.489,2.155-.881,3.4q-.277.936-.578,1.957c-.2.68-.468,1.37-.714,2.094-.474,1.455-1.11,2.961-1.754,4.556a75.772,75.772,0,0,1-11.643,19.025c-1.127,1.3-2.178,2.55-3.259,3.635-.533.549-1.028,1.1-1.54,1.589l-1.479,1.405c-.927.913-1.843,1.653-2.623,2.329s-1.474,1.231-2.057,1.666l-1.335,1.008a3.1,3.1,0,0,1-.482.329,3.2,3.2,0,0,1,.432-.395l1.285-1.067c.566-.453,1.25-1.017,2.008-1.715s1.662-1.443,2.572-2.366l1.456-1.418c.5-.5.991-1.048,1.516-1.6,1.065-1.09,2.1-2.345,3.216-3.643a78.51,78.51,0,0,0,11.586-18.933c.649-1.583,1.295-3.077,1.78-4.521.252-.718.522-1.4.734-2.077l.6-1.942c.409-1.23.668-2.374.937-3.367s.467-1.857.613-2.568l.365-1.63a3.182,3.182,0,0,1,.155-.564" transform="translate(-44.458 -20.594)" fill="#263238"/>
        <path id="Trazado_730228" data-name="Trazado 730228" d="M327.207,143.942c3.889,5.911,19.636,29.856,24.292,36.937a1.094,1.094,0,0,1-1.053,1.685l-27.976-3.52a1.1,1.1,0,0,1-.747-.44L295,142.11a1.1,1.1,0,0,1,.965-1.738l28.784,2.129a3.22,3.22,0,0,1,2.456,1.442" transform="translate(-36.878 -17.56)" fill="#e0e0e0"/>
        <path id="Trazado_730229" data-name="Trazado 730229" d="M327.18,143.915a1.922,1.922,0,0,0-.223-.335,3.132,3.132,0,0,0-.9-.763,3.941,3.941,0,0,0-1.864-.452l-2.6-.214-16.593-1.3-5.5-.422-2.926-.223c-.258-.015-.476-.048-.772-.048a1.249,1.249,0,0,0-.8.334,1.284,1.284,0,0,0-.212,1.643l7.778,10.669L320.4,177.2c.407.549.768,1.064,1.208,1.633a1.331,1.331,0,0,0,.5.337,2.169,2.169,0,0,0,.542.107l.987.124,3.914.492,7.653.959,14.467,1.807c.3.032.549.08.888.1a1.286,1.286,0,0,0,.927-.386,1.327,1.327,0,0,0,.383-.92,1.538,1.538,0,0,0-.337-.9q-.936-1.417-1.844-2.8l-3.528-5.344-6.34-9.588c-3.878-5.84-7.02-10.572-9.207-13.865l-2.522-3.757-.666-.97a2.527,2.527,0,0,0-.241-.322,2.5,2.5,0,0,0,.2.348l.627,1c.572.89,1.4,2.168,2.45,3.8l9.084,13.946,6.291,9.62q1.7,2.592,3.509,5.357l1.836,2.8a1.106,1.106,0,0,1,.265.665.9.9,0,0,1-.263.621.858.858,0,0,1-.622.258c-.237-.013-.56-.066-.837-.1L335.257,180.4l-7.652-.966-3.913-.493-.987-.124a1.819,1.819,0,0,1-.434-.08.857.857,0,0,1-.323-.219l-1.173-1.592L302.9,152.548l-7.8-10.625a.9.9,0,0,1,.146-1.154.867.867,0,0,1,.563-.236c.207,0,.489.03.728.043l2.926.21,5.5.392,16.6,1.154,2.606.171a3.9,3.9,0,0,1,1.829.4,3.691,3.691,0,0,1,1.173,1.016" transform="translate(-36.851 -17.533)" fill="#263238"/>
        <path id="Trazado_730230" data-name="Trazado 730230" d="M295.033,142.358a3.228,3.228,0,0,0,.586.087l1.7.171,6.322.561,21.5,1.755-.171-.1c1.346,2,2.734,4.075,4.128,6.22,5.673,8.72,10.628,16.736,14.371,22.439,1.861,2.858,3.408,5.145,4.485,6.719l1.262,1.8a4.743,4.743,0,0,0,.466.609,4.777,4.777,0,0,0-.388-.661L348.1,180.11l-4.359-6.8c-3.67-5.745-8.58-13.787-14.258-22.516-1.395-2.146-2.788-4.222-4.14-6.221l-.062-.091-.109-.008-21.511-1.6-6.333-.424-1.7-.094a3.214,3.214,0,0,0-.593,0" transform="translate(-36.908 -17.808)" fill="#263238"/>
        <path id="Trazado_730231" data-name="Trazado 730231" d="M314.856,148.324h0l-.011,0Z" transform="translate(-39.387 -18.555)" fill="#fff"/>
        <path id="Trazado_730232" data-name="Trazado 730232" d="M314.064,148.739a.565.565,0,0,1,.692-.417,1.505,1.505,0,0,1,.751.422.749.749,0,0,1,.137.959c-.28.346-.854.218-1.191-.072a.978.978,0,0,1-.388-.892" transform="translate(-39.287 -18.553)" fill="#fff"/>
        <path id="Trazado_730233" data-name="Trazado 730233" d="M326.641,172.015s1.1-2.632-1.7-2.972a97.05,97.05,0,0,0-10.158,0s-4.022.425-3.173,3.311c0,0-2.377,2.123-1.1,4.416s1.783,1.613,1.783,1.613-.339,2.8,1.783,3.226c0,0,2.3,2.717,4.42,2.548s11.118-4.5,11.712-5.349,1.444-1.332.934-2.279c0,0,1.1-2.485-1.274-2.863,0,0-.17-2.075-3.227-1.651" transform="translate(-38.797 -21.128)" fill="#ffbe9d"/>
        <path id="Trazado_730234" data-name="Trazado 730234" d="M314.41,173.385a7.651,7.651,0,0,0,1.893.136c1.168.024,2.782.026,4.564,0a27.085,27.085,0,0,0,4.585-.273c1.209-.28,1.682-.99,1.626-1a4.813,4.813,0,0,1-1.694.682,45.17,45.17,0,0,1-4.524.129c-1.781.027-3.395.078-4.562.138a7.666,7.666,0,0,0-1.888.193" transform="translate(-39.332 -21.547)" fill="#eb996e"/>
        <path id="Trazado_730235" data-name="Trazado 730235" d="M316.7,177.784a1.414,1.414,0,0,0,.609.21,6.5,6.5,0,0,0,1.751.108,12.358,12.358,0,0,0,2.553-.463c.941-.259,1.94-.621,2.995-.945a13.419,13.419,0,0,1,3.014-.621,4.628,4.628,0,0,0,2.567-.519,1.47,1.47,0,0,0,.612-.875,1.209,1.209,0,0,0-.107-.8c-.221-.4-.522-.428-.514-.405-.024.037.217.122.349.479a1.1,1.1,0,0,1-.526,1.323,4.613,4.613,0,0,1-2.405.363,12.487,12.487,0,0,0-3.126.6l-2.978.977a14.248,14.248,0,0,1-2.463.548,16.065,16.065,0,0,1-2.331.01" transform="translate(-39.619 -21.701)" fill="#eb996e"/>
        <path id="Trazado_730236" data-name="Trazado 730236" d="M320.142,181.92a7.538,7.538,0,0,0,1.891-.366c1.151-.29,2.727-.741,4.448-1.3s3.259-1.134,4.359-1.58a7.483,7.483,0,0,0,1.74-.822c-.048-.123-2.813.839-6.244,1.959s-6.228,1.985-6.193,2.113" transform="translate(-40.049 -22.247)" fill="#eb996e"/>
        <path id="Trazado_730237" data-name="Trazado 730237" d="M319.318,185.745a4.134,4.134,0,0,0,1.569-.181,18.7,18.7,0,0,0,3.584-1.262c1.349-.613,2.527-1.241,3.38-1.693a5.6,5.6,0,0,0,1.343-.813,29.43,29.43,0,0,0-4.915,2.081c-2.649,1.27-4.978,1.745-4.961,1.867" transform="translate(-39.946 -22.741)" fill="#eb996e"/>
        <path id="Trazado_730238" data-name="Trazado 730238" d="M415.146,155.1s-5.72,22.917-12.867,31.376c-6.921,8.192-17.769,4.426-21.525-6.172S370.3,145.5,370.3,145.5l8.22-6.284,14.2,27.522,6.4-18.761Z" transform="translate(-46.325 -17.415)" fill="#ffbe9d"/>
        <path id="Trazado_730239" data-name="Trazado 730239" d="M369.205,143.2l-6.027-8.736a15.7,15.7,0,0,1-2.568-.8c-.683-.4-1.355-3.87-1.341-4.547s-1.169-2.261-.689-2.706,2.094-.479,2.007-1.13c-.018-.139-1.2-1.586-.262-2.649a5,5,0,0,1,1.7-.722l-.1-3.333s1.8-3.936,3.64-2.511c0,0,6.937,5.329,7.636,6.18s3.367,11.949,3.841,14.031" transform="translate(-44.844 -14.481)" fill="#ffbe9d"/>
        <path id="Trazado_730240" data-name="Trazado 730240" d="M377.014,136.249a3.111,3.111,0,0,0-.093-.589c-.09-.421-.209-.976-.357-1.668-.325-1.446-.81-3.538-1.467-6.116-.332-1.288-.7-2.7-1.161-4.2-.122-.375-.241-.756-.4-1.143a2.574,2.574,0,0,0-.818-1.005c-.632-.556-1.3-1.1-1.983-1.658-1.373-1.111-2.83-2.257-4.35-3.439a5.1,5.1,0,0,0-1.269-.837,1.738,1.738,0,0,0-1.564.372,7.144,7.144,0,0,0-1.849,2.5l-.021.041,0,.053c.01.323.019.671.03,1.02.023.78.046,1.553.068,2.313l.162-.213a8.027,8.027,0,0,0-1.222.411,1.794,1.794,0,0,0-.592.386,1.691,1.691,0,0,0-.336.617,2.069,2.069,0,0,0,.106,1.326,3.961,3.961,0,0,0,.272.573l.153.262.032.055c-.008-.01,0-.035-.006-.012a.1.1,0,0,1-.01.057c-.018.075-.18.178-.343.242s-.353.125-.538.182-.377.112-.57.188a1.123,1.123,0,0,0-.578.407.954.954,0,0,0-.016.71,4.45,4.45,0,0,0,.2.56c.151.353.318.687.442,1.017a1.386,1.386,0,0,1,.1.468,4.923,4.923,0,0,0,.054.569c.052.364.12.718.192,1.067a14.212,14.212,0,0,0,.566,2.015,2.537,2.537,0,0,0,.529.928,3.084,3.084,0,0,0,.94.413c.612.19,1.206.339,1.785.473l-.1-.066c1.86,2.645,3.38,4.8,4.464,6.345l1.238,1.717a4.389,4.389,0,0,0,.458.582,4.447,4.447,0,0,0-.381-.635l-1.166-1.767-4.346-6.424-.034-.051-.062-.016c-.569-.139-1.16-.295-1.753-.486a2.974,2.974,0,0,1-.812-.352,2.359,2.359,0,0,1-.423-.791,14.12,14.12,0,0,1-.534-1.962c-.068-.343-.131-.691-.179-1.043a4.384,4.384,0,0,1-.047-.516,1.817,1.817,0,0,0-.125-.6c-.135-.363-.3-.7-.444-1.039a4.083,4.083,0,0,1-.183-.507.614.614,0,0,1-.017-.41.9.9,0,0,1,.37-.221c.169-.066.353-.118.541-.175s.381-.113.578-.194a.967.967,0,0,0,.569-.468.5.5,0,0,0,.04-.234.33.33,0,0,0-.038-.156l-.042-.075-.15-.257a3.648,3.648,0,0,1-.244-.516,1.658,1.658,0,0,1-.092-1.06,1.24,1.24,0,0,1,.25-.457,1.452,1.452,0,0,1,.446-.276,7.754,7.754,0,0,1,1.151-.385l.167-.044-.005-.17c-.022-.76-.045-1.534-.066-2.313-.011-.349-.021-.7-.031-1.02l-.019.1a6.809,6.809,0,0,1,1.715-2.336,1.317,1.317,0,0,1,1.187-.308,4.987,4.987,0,0,1,1.137.765c1.522,1.175,2.984,2.313,4.36,3.413.688.55,1.356,1.09,1.982,1.633a2.222,2.222,0,0,1,.732.87c.153.36.276.739.4,1.107.472,1.485.856,2.891,1.206,4.172.666,2.536,1.208,4.6,1.6,6.078.179.685.324,1.234.433,1.649a3.2,3.2,0,0,0,.175.57" transform="translate(-44.814 -14.452)" fill="#eb996e"/>
        <path id="Trazado_730241" data-name="Trazado 730241" d="M362.532,122.765c0,.073.7.017,1.8.123a12.865,12.865,0,0,1,1.9.433,8.7,8.7,0,0,0,2.453.021,4.63,4.63,0,0,1,3.864,1.254,4.984,4.984,0,0,1,.933,1.484,2.288,2.288,0,0,0-.711-1.69,4.5,4.5,0,0,0-1.659-1.164,5.047,5.047,0,0,0-2.456-.309,9.4,9.4,0,0,1-2.346.019,10.466,10.466,0,0,0-1.951-.349,4.785,4.785,0,0,0-1.822.178" transform="translate(-45.352 -15.335)" fill="#eb996e"/>
        <path id="Trazado_730242" data-name="Trazado 730242" d="M365.316,122.323c.1.052.382-.353.346-.929s-.36-.946-.455-.881.005.442.028.906-.031.857.081.9" transform="translate(-45.682 -15.075)" fill="#eb996e"/>
        <path id="Trazado_730243" data-name="Trazado 730243" d="M360.644,126.632a15.127,15.127,0,0,0,5.225-.409,5.189,5.189,0,0,1,1.92-.243,2.087,2.087,0,0,1,1.244.821,12.248,12.248,0,0,1,.686,1.325,2.331,2.331,0,0,0-.437-1.5,2.3,2.3,0,0,0-1.414-1.034,5.04,5.04,0,0,0-2.089.211c-2.8.612-5.138.7-5.135.828" transform="translate(-45.116 -15.705)" fill="#eb996e"/>
        <path id="Trazado_730244" data-name="Trazado 730244" d="M359.591,130.227a2.807,2.807,0,0,0,1.284.006c.789-.087,1.848-.36,3-.586a6.788,6.788,0,0,1,1.617-.162,1.944,1.944,0,0,1,1.164.421,1.858,1.858,0,0,1,.568,1.019c.025,0,.084-.116.072-.353a1.464,1.464,0,0,0-.433-.886,2.126,2.126,0,0,0-1.337-.592,6.136,6.136,0,0,0-1.73.134c-1.189.234-2.218.548-2.976.709a6.146,6.146,0,0,0-1.233.291" transform="translate(-44.984 -16.147)" fill="#eb996e"/>
        <path id="Trazado_730245" data-name="Trazado 730245" d="M361.952,133.248c-.073.054.515.671,1.6.668l-.213-.185c.022.19.042.372.064.558a6.079,6.079,0,0,0,.494,2.2,6.069,6.069,0,0,0-.07-2.251c-.025-.185-.051-.366-.077-.554l-.027-.2-.186.011a7.363,7.363,0,0,1-1.582-.255" transform="translate(-45.279 -16.667)" fill="#eb996e"/>
        <path id="Trazado_730246" data-name="Trazado 730246" d="M409.288,130.843s11.716,2.839,11.691,18.375c-.025,15.476-3.538,23.211-3.538,23.211l-21.6-11.754,4.819-12.1Z" transform="translate(-49.52 -16.368)" fill="#4db1f0"/>
        <path id="Trazado_730247" data-name="Trazado 730247" d="M417.4,172.895a2.128,2.128,0,0,1-.449-.2l-1.253-.636-4.6-2.426-15.4-8.3-.174-.094.071-.184c.37-.968.761-1.991,1.158-3.028l3.892-10.112,1.711-4.408a26.63,26.63,0,0,1,1.71-3.771,11.69,11.69,0,0,1,3.9-4.51,4.724,4.724,0,0,1,1.518-.608,2.847,2.847,0,0,1,.422-.055c.1,0,.145,0,.146,0a5.8,5.8,0,0,0-1.992.809,11.928,11.928,0,0,0-3.709,4.514,27.308,27.308,0,0,0-1.638,3.748c-.525,1.388-1.084,2.867-1.672,4.423l-3.859,10.123c-.4,1.038-.79,2.06-1.162,3.028l-.1-.278,15.328,8.428,4.537,2.548,1.214.706a2.08,2.08,0,0,1,.409.271" transform="translate(-49.479 -16.834)" fill="#263238"/>
      </g>
    </g>
    <g id="Grupo_1031055" data-name="Grupo 1031055">
      <g id="Grupo_1031054" data-name="Grupo 1031054" clip-path="url(#clip-path)">
        <path id="Trazado_730248" data-name="Trazado 730248" d="M90.27,380.65,69.985,399.2l22.954,25.355c2.288-2.34-4.724-19.86-4.724-19.86l12.672-12.256Z" transform="translate(-8.755 -47.619)" fill="#455a64"/>
        <path id="Trazado_730249" data-name="Trazado 730249" d="M83.672,398.01a1.4,1.4,0,0,0-1.83.353,1.344,1.344,0,0,0,.335,1.817,1.474,1.474,0,0,0,1.936-.385,1.393,1.393,0,0,0-.558-1.851" transform="translate(-10.211 -49.766)" fill="#fff"/>
        <path id="Trazado_730250" data-name="Trazado 730250" d="M69.986,401.576l2.118-1.96,21.143,25.223s.521,1.577-.394,2.164Z" transform="translate(-8.755 -49.992)" fill="#263238"/>
        <path id="Trazado_730251" data-name="Trazado 730251" d="M90.891,408.275c-.128.108-.744-.46-1.694-.709-.943-.274-1.764-.1-1.818-.261-.079-.136.829-.621,1.973-.3s1.677,1.193,1.539,1.269" transform="translate(-10.93 -50.903)" fill="#fff"/>
        <path id="Trazado_730252" data-name="Trazado 730252" d="M92.4,412.545c-.094.137-.791-.208-1.695-.155-.906.027-1.568.433-1.675.305-.124-.1.465-.834,1.591-.879s1.894.619,1.779.729" transform="translate(-11.136 -51.517)" fill="#fff"/>
        <path id="Trazado_730253" data-name="Trazado 730253" d="M90.809,417.493c-.157-.109.209-.783,1.3-1.116.964-.3,1.76.038,1.7.184-.038.163-.743.115-1.532.371-.794.236-1.349.674-1.472.562" transform="translate(-11.356 -52.073)" fill="#fff"/>
        <path id="Trazado_730254" data-name="Trazado 730254" d="M94.217,404.76c-.16.05-.5-.673-1.185-1.329s-1.4-1-1.347-1.164c.024-.152.964-.036,1.755.749s.929,1.717.777,1.744" transform="translate(-11.469 -50.316)" fill="#fff"/>
        <path id="Trazado_730255" data-name="Trazado 730255" d="M97.067,400.554c-.05.048-.57-.373-1.143-1.276a7.74,7.74,0,0,1-.794-1.7,8.008,8.008,0,0,1-.273-1.08,2.089,2.089,0,0,1-.048-.654.727.727,0,0,1,.607-.653.915.915,0,0,1,.774.286,2.239,2.239,0,0,1,.365.535,6.059,6.059,0,0,1,.736,2.9,2.864,2.864,0,0,1-.355,1.681c-.092-.019.037-.657-.056-1.662a6.835,6.835,0,0,0-.387-1.71,6.408,6.408,0,0,0-.436-.932c-.172-.333-.377-.563-.559-.524-.068.017-.089.03-.117.157a1.7,1.7,0,0,0,.038.479,9.022,9.022,0,0,0,.224,1.018,9.488,9.488,0,0,0,.64,1.654,11.8,11.8,0,0,1,.785,1.477" transform="translate(-11.859 -49.437)" fill="#fff"/>
        <path id="Trazado_730256" data-name="Trazado 730256" d="M97.021,400.894c-.059-.026.163-.674.923-1.445a5.52,5.52,0,0,1,2.611-1.459,1.413,1.413,0,0,1,1.374.229.8.8,0,0,1,.126.85,2.3,2.3,0,0,1-.347.552,3.794,3.794,0,0,1-.855.775,3.939,3.939,0,0,1-1.8.646,2.21,2.21,0,0,1-1.689-.332,14.178,14.178,0,0,0,1.629-.075,3.94,3.94,0,0,0,1.556-.679,3.5,3.5,0,0,0,.713-.688c.234-.283.36-.581.241-.657a.98.98,0,0,0-.818-.067,5.619,5.619,0,0,0-.973.308,6.158,6.158,0,0,0-1.49.9c-.776.64-1.12,1.192-1.2,1.141" transform="translate(-12.136 -49.778)" fill="#fff"/>
        <path id="Trazado_730257" data-name="Trazado 730257" d="M87.572,401.083l.257,27.489,34.2-.145c-.214-3.266-17.935-9.751-17.935-9.751l.557-17.619Z" transform="translate(-10.955 -50.172)" fill="#455a64"/>
        <path id="Trazado_730258" data-name="Trazado 730258" d="M94.221,419.545a1.4,1.4,0,0,0-.959,1.6,1.343,1.343,0,0,0,1.576.964,1.473,1.473,0,0,0,1.006-1.7,1.392,1.392,0,0,0-1.75-.822" transform="translate(-11.663 -52.477)" fill="#fff"/>
        <path id="Trazado_730259" data-name="Trazado 730259" d="M87.858,432.151l-.041-2.943,32.894,1.115s1.521.667,1.346,1.738Z" transform="translate(-10.986 -53.693)" fill="#263238"/>
        <path id="Trazado_730260" data-name="Trazado 730260" d="M106.646,420.971c-.005.167-.84.247-1.659.787-.834.52-1.255,1.245-1.409,1.179-.154-.032.091-1.031,1.095-1.668s2.008-.451,1.973-.3" transform="translate(-12.952 -52.644)" fill="#fff"/>
        <path id="Trazado_730261" data-name="Trazado 730261" d="M110.875,422.662c.038.162-.683.449-1.248,1.158-.584.692-.724,1.457-.891,1.45-.157.027-.277-.95.441-1.818s1.693-.948,1.7-.789" transform="translate(-13.588 -52.866)" fill="#fff"/>
        <path id="Trazado_730262" data-name="Trazado 730262" d="M113.519,427.156c-.151.036-.388-.8.038-1.714s1.2-1.283,1.276-1.144c.094.136-.41.63-.747,1.388-.355.749-.4,1.453-.566,1.471" transform="translate(-14.176 -53.076)" fill="#fff"/>
        <path id="Trazado_730263" data-name="Trazado 730263" d="M106.219,416.3c-.069.152-.836-.074-1.78-.006-.945.049-1.678.368-1.766.226-.1-.121.618-.741,1.73-.807s1.9.456,1.816.587" transform="translate(-12.843 -52.005)" fill="#fff"/>
        <path id="Trazado_730264" data-name="Trazado 730264" d="M87.141,221.862a48.808,48.808,0,0,0-7.146,10.05c-2.354,4.918-5.973,15.394-5.973,15.394s-4.506,16-3.5,23.544,7.746,59.126,7.746,59.126-1.325,40.895,4.441,59.088l1.065,4.826,19.281-3.423,4.271-101.229,11.765-66.929Z" transform="translate(-8.804 -27.755)" fill="#12263f"/>
        <path id="Trazado_730265" data-name="Trazado 730265" d="M117.2,226.542c-.081.029-.054-.63-.742-1.11a1.424,1.424,0,0,0-1.321-.134,1.37,1.37,0,0,0,.044,2.559,1.426,1.426,0,0,0,1.316-.18c.67-.5.621-1.16.7-1.135.027,0,.075.14.045.407a1.574,1.574,0,0,1-.544.987,1.728,1.728,0,0,1-1.66.327,1.781,1.781,0,0,1-.059-3.367,1.732,1.732,0,0,1,1.67.269,1.574,1.574,0,0,1,.578.969c.039.265,0,.409-.032.408" transform="translate(-14.238 -28.121)" fill="#455a64"/>
        <path id="Trazado_730266" data-name="Trazado 730266" d="M136.434,235.832s7.072,64.174,8.088,75.193-38.986,69.793-38.986,69.793L88.659,360.877l25.752-47.869-8.672-47.682L117.156,222.3l17.751.212Z" transform="translate(-11.091 -27.81)" fill="#12263f"/>
        <path id="Trazado_730267" data-name="Trazado 730267" d="M81.1,378.852a13.34,13.34,0,0,0,.137,1.4c.118.92.345,2.272.664,4.018.641,3.493,1.682,8.557,3.078,14.885l.029.131.134-.023,19.288-3.381.146-.025.006-.149c.535-13.234,1.177-29.051,1.864-46.013.711-18.251,1.371-35.175,1.913-49.058v.016l3.477-26.831c.4-3.206.72-5.723.939-7.459q.151-1.268.233-1.96c.05-.444.062-.674.062-.674s-.049.226-.116.667q-.1.689-.285,1.953c-.241,1.732-.591,4.245-1.036,7.445-.873,6.45-2.121,15.666-3.629,26.811l0,.008v.009c-.563,13.883-1.249,30.8-1.99,49.055-.662,16.963-1.28,32.782-1.8,46.015l.152-.174-19.273,3.465.163.108c-1.433-6.316-2.515-11.37-3.2-14.851-.343-1.74-.593-3.087-.737-4-.079-.457-.123-.8-.155-1.039s-.06-.353-.06-.353" transform="translate(-10.145 -32.993)" fill="#455a64"/>
        <path id="Trazado_730268" data-name="Trazado 730268" d="M114.476,248.444a6.73,6.73,0,0,1,1.055.053,4.846,4.846,0,0,0,2.713-.463,2.515,2.515,0,0,0,1.091-1.46,10.194,10.194,0,0,0,.332-2.209c.137-1.6.274-3.361.4-5.212.248-3.7.383-7.056.467-9.486.041-1.141.076-2.1.1-2.878a4.725,4.725,0,0,1,.09-1.056,4.721,4.721,0,0,1,.087,1.057c.024.681.042,1.666.04,2.884,0,2.435-.087,5.8-.334,9.51-.123,1.854-.273,3.619-.433,5.221a10.069,10.069,0,0,1-.392,2.29,2.829,2.829,0,0,1-1.285,1.618,3.6,3.6,0,0,1-1.638.428,7.025,7.025,0,0,1-1.255-.066,3.668,3.668,0,0,1-1.039-.228" transform="translate(-14.321 -28.239)" fill="#455a64"/>
        <path id="Trazado_730269" data-name="Trazado 730269" d="M141.069,236.328a6.775,6.775,0,0,1-1.843-.976,19.122,19.122,0,0,1-6.586-7.5,6.774,6.774,0,0,1-.729-1.954,25.851,25.851,0,0,0,9.158,10.431" transform="translate(-16.501 -28.259)" fill="#455a64"/>
        <path id="Trazado_730270" data-name="Trazado 730270" d="M72.992,154.239l7.684,27.907,3.4,14.847c0,12.793-3.4,18.621-3.4,18.621L132.985,213s.858-35.4,0-42.093l-6.371-23.176-16.589-4.072-20.709.4Z" transform="translate(-9.131 -17.972)" fill="#4db1f0"/>
        <path id="Trazado_730271" data-name="Trazado 730271" d="M155.1,199.384a3.325,3.325,0,0,1-.2-1.378,9.47,9.47,0,0,1,2.291-6.21,3.322,3.322,0,0,1,1.044-.92,12.552,12.552,0,0,0-3.139,8.508" transform="translate(-19.379 -23.878)" fill="#263238"/>
        <path id="Trazado_730272" data-name="Trazado 730272" d="M167.194,175.659l-13.588,8.116L145.9,164.028a91.892,91.892,0,0,0-4.453-8.467c-4.513-7.92-10.243-7.5-10.243-7.5l-6.912,10.263,7.338,15.721s4.464,29.158,13.124,31.419c13.217,3.452,22.441-29.8,22.441-29.8" transform="translate(-15.549 -18.521)" fill="#4db1f0"/>
        <g id="Grupo_1031050" data-name="Grupo 1031050" transform="translate(66.804 161.14)" opacity="0.3">
          <g id="Grupo_1031049" data-name="Grupo 1031049">
            <g id="Grupo_1031048" data-name="Grupo 1031048" clip-path="url(#clip-path-13)">
              <path id="Trazado_730273" data-name="Trazado 730273" d="M76.356,238.144c6.156-.244,12.552-2.862,17.849-6.008s10.1-7.046,15.093-10.653c11.965-8.639,35.714-27.573,46.812-37.3l-3.216.724L78.2,233.247Z" transform="translate(-76.356 -184.181)"/>
            </g>
          </g>
        </g>
        <path id="Trazado_730274" data-name="Trazado 730274" d="M140.7,206.948a2.09,2.09,0,0,1-.042-.515c-.008-.388-.018-.878-.03-1.479-.006-1.345-.016-3.186-.026-5.435.023-4.644.054-10.956.088-17.93.008-1.753.066-3.458-.046-5.094a29.718,29.718,0,0,0-.643-4.676,24.365,24.365,0,0,0-3.213-7.284c-1.171-1.971-2.1-3.586-2.657-4.749-.278-.58-.475-1.039-.6-1.356a2.314,2.314,0,0,1-.16-.492,2.132,2.132,0,0,1,.245.455c.149.3.37.748.671,1.312.6,1.131,1.567,2.71,2.774,4.664a23.99,23.99,0,0,1,3.347,7.355,29.569,29.569,0,0,1,.679,4.743c.118,1.661.064,3.379.055,5.126-.086,6.974-.163,13.285-.221,17.928-.049,2.248-.088,4.089-.119,5.434-.023.6-.041,1.09-.054,1.478a2.362,2.362,0,0,1-.051.514" transform="translate(-16.685 -19.758)" fill="#263238"/>
        <path id="Trazado_730275" data-name="Trazado 730275" d="M132.183,116.4a3.5,3.5,0,0,1-3.283-1.466,4.167,4.167,0,0,0,2.522-.139c.764-.389,1.2-1.514.6-2.128-.467-.479-1.237-.4-1.9-.444a4.121,4.121,0,0,1-3.5-2.689c-.564-1.622-.048-3.391.155-5.1a14.038,14.038,0,0,0-5.877-12.957L110.206,85.3c-3.875,4.96-5.083,11.643-4.279,17.886s3.451,12.109,6.634,17.539a20.85,20.85,0,0,0,3.223,4.436,8.258,8.258,0,0,0,4.8,2.464,4.955,4.955,0,0,0-.791-4.472,10.777,10.777,0,0,0,7.945-2.846l-2.29-1.756a8.362,8.362,0,0,0,6.731-2.154" transform="translate(-13.222 -10.671)" fill="#12263f"/>
        <path id="Trazado_730276" data-name="Trazado 730276" d="M88.935,99.024a10.011,10.011,0,0,1,7.265-9.43L109.6,85.766c5.813-.8,9.911,6.266,10.46,12.107.61,6.49,1.067,13.344.445,18.22-1.249,9.8-8.689,11.275-8.689,11.275s.126,4.445.2,7.295l-.127,21.765-19.767-21.35L88.9,99.143c-.009-.167.021.1.031-.12" transform="translate(-11.122 -10.722)" fill="#ae7461"/>
        <path id="Trazado_730277" data-name="Trazado 730277" d="M122.216,107.979a1.252,1.252,0,0,1-1.168,1.3,1.2,1.2,0,0,1-1.324-1.089,1.251,1.251,0,0,1,1.166-1.3,1.2,1.2,0,0,1,1.325,1.088" transform="translate(-14.977 -13.371)" fill="#263238"/>
        <path id="Trazado_730278" data-name="Trazado 730278" d="M122.253,103.853c-.15.168-1.12-.5-2.465-.459-1.346.025-2.312.749-2.464.588-.074-.071.075-.37.5-.7a3.436,3.436,0,0,1,1.966-.673,3.3,3.3,0,0,1,1.969.57c.424.3.574.6.5.671" transform="translate(-14.675 -12.837)" fill="#263238"/>
        <path id="Trazado_730279" data-name="Trazado 730279" d="M108.739,108a1.252,1.252,0,0,1-1.168,1.3,1.2,1.2,0,0,1-1.324-1.088,1.253,1.253,0,0,1,1.166-1.3A1.2,1.2,0,0,1,108.739,108" transform="translate(-13.291 -13.373)" fill="#263238"/>
        <path id="Trazado_730280" data-name="Trazado 730280" d="M107.636,104.27c-.15.168-1.121-.5-2.466-.459-1.346.025-2.312.749-2.464.588-.073-.07.073-.37.5-.7a3.44,3.44,0,0,1,1.966-.673,3.3,3.3,0,0,1,1.969.57c.423.3.573.6.5.671" transform="translate(-12.846 -12.889)" fill="#263238"/>
        <path id="Trazado_730281" data-name="Trazado 730281" d="M113.362,114.8a9.016,9.016,0,0,1,2.175-.461c.342-.045.666-.124.717-.36a1.755,1.755,0,0,0-.261-1.012q-.524-1.232-1.1-2.586A45.031,45.031,0,0,1,112.4,103.6a45.22,45.22,0,0,1,3.033,6.56q.552,1.364,1.055,2.6a1.985,1.985,0,0,1,.22,1.344.862.862,0,0,1-.549.521,2.374,2.374,0,0,1-.582.1,8.607,8.607,0,0,1-2.216.071" transform="translate(-14.06 -12.96)" fill="#263238"/>
        <path id="Trazado_730282" data-name="Trazado 730282" d="M100.184,129.78s3.367,6.611,13.1,5.4l-.062-2.295a24.6,24.6,0,0,1-13.04-3.1" transform="translate(-12.533 -16.235)" fill="#6f4439"/>
        <path id="Trazado_730283" data-name="Trazado 730283" d="M106.826,99.351c-.122.37-1.471.238-3.045.477-1.579.207-2.838.709-3.058.388-.1-.155.113-.506.617-.876a5.356,5.356,0,0,1,4.649-.659c.587.216.888.494.836.67" transform="translate(-12.597 -12.312)" fill="#263238"/>
        <path id="Trazado_730284" data-name="Trazado 730284" d="M121.667,99.148c-.227.313-1.164.025-2.281.045-1.116-.02-2.053.269-2.28-.045-.1-.152.039-.464.443-.766a3.3,3.3,0,0,1,3.675,0c.4.3.542.614.443.766" transform="translate(-14.646 -12.238)" fill="#263238"/>
        <path id="Trazado_730285" data-name="Trazado 730285" d="M107.724,119.2a1.757,1.757,0,0,1,1.777-1.386,1.834,1.834,0,0,1,1.441.964,2.254,2.254,0,0,1,.13,1.755l-.024.127a2,2,0,0,1-2.238.543,1.87,1.87,0,0,1-1.086-2" transform="translate(-13.473 -14.739)" fill="#6f4439"/>
        <path id="Trazado_730286" data-name="Trazado 730286" d="M112.094,120.538c0-.2-1.364-.1-2.42-1.188s-1.02-2.548-1.212-2.543c-.087-.012-.239.344-.207.957a3.392,3.392,0,0,0,.934,2.128,2.956,2.956,0,0,0,2.023.91c.572.007.9-.171.882-.263" transform="translate(-13.542 -14.612)" fill="#263238"/>
        <path id="Trazado_730287" data-name="Trazado 730287" d="M94.086,82.365a13.591,13.591,0,0,1,7.854-5.381c3.176-.555,5.09-.01,7.179,1.9a7.907,7.907,0,0,0,3.149,1.864c1.523.3,2.8.045,4.615.975,2.482,1.27,3.57,4.59,4.721,7.13,1.43,3.157,3.466,6.061,4.4,9.4s.437,7.438-2.375,9.462c.537-2.849.98-6.018-.584-8.458-1.193-1.861-3.318-2.892-4.849-4.487-1.846-1.925-2.088-4.5-4.021-6.336-4.416-4.193-12.193,3.184-20.087-6.065" transform="translate(-11.77 -9.605)" fill="#12263f"/>
        <path id="Trazado_730288" data-name="Trazado 730288" d="M122.5,96.52a28.507,28.507,0,0,0-4.354-7.885,15.33,15.33,0,0,0-20.382-2.612l-.77.065a12.934,12.934,0,0,0,10.056,4.845c2.294-.01,4.783-.6,6.751.58,1.892,1.134,2.608,3.515,4.165,5.077,1.06,1.063,2.481,1.717,3.51,2.81a11.5,11.5,0,0,1,2.172,4.211c.685-2.346-.217-4.832-1.148-7.091" transform="translate(-12.134 -10.419)" fill="#12263f"/>
        <path id="Trazado_730289" data-name="Trazado 730289" d="M99.472,87.805l-6.255-5.5c-4.875-.254-8,4.354-9.677,7.91-1.244,2.644-1.631,5.6-2.568,8.37-.962,2.842-2.5,5.468-3.375,8.338s-1,6.2.731,8.657l1.092-2.005a12.116,12.116,0,0,0,3.28,7.487q.21-1.045.419-2.09a11.768,11.768,0,0,0,4.706,5.07l2.93,7.831c4.327-13.18-6.814-14.18,8.717-44.068" transform="translate(-9.629 -10.295)" fill="#12263f"/>
        <path id="Trazado_730290" data-name="Trazado 730290" d="M99.017,88.985a28.359,28.359,0,0,1-1.469,5.235,10.06,10.06,0,0,1-3.219,4.308c-2.139,1.552-4.9,1.871-7.466,2.489s-5.307,1.8-6.366,4.227A60.644,60.644,0,0,1,82.69,94.751c1.146-3.774,2.8-7.621,5.945-10A10.9,10.9,0,0,1,98.9,83.217" transform="translate(-10.07 -10.327)" fill="#12263f"/>
        <path id="Trazado_730291" data-name="Trazado 730291" d="M93.19,109.526c-.13-.327-6.2-2.324-6.1,4.064.1,6.206,6.324,4.806,6.332,4.627s-.234-8.691-.234-8.691" transform="translate(-10.895 -13.633)" fill="#ae7461"/>
        <path id="Trazado_730292" data-name="Trazado 730292" d="M91.687,116.2c-.028-.019-.107.078-.288.164a1.074,1.074,0,0,1-.808.032,2.673,2.673,0,0,1-1.283-2.375,3.564,3.564,0,0,1,.273-1.554,1.247,1.247,0,0,1,.8-.845.549.549,0,0,1,.643.284c.087.171.05.3.083.306.017.015.131-.107.076-.361a.687.687,0,0,0-.252-.385.812.812,0,0,0-.6-.146,1.52,1.52,0,0,0-1.111.983,3.682,3.682,0,0,0-.341,1.737,2.808,2.808,0,0,0,1.628,2.65,1.157,1.157,0,0,0,.985-.184c.189-.157.22-.3.2-.307" transform="translate(-11.118 -13.925)" fill="#6f4439"/>
        <path id="Trazado_730293" data-name="Trazado 730293" d="M91.119,118.169a1.222,1.222,0,1,0,.292.084" transform="translate(-11.223 -14.781)" fill="#fff"/>
        <path id="Trazado_730294" data-name="Trazado 730294" d="M91.393,118.245a1.678,1.678,0,0,1,.582.817,1.052,1.052,0,0,1-.215.981,1.085,1.085,0,0,1-1.925-.553,1.053,1.053,0,0,1,.339-.945,1.675,1.675,0,0,1,.927-.384c0-.015-.1-.061-.293-.059a1.264,1.264,0,0,0-.766.292,1.242,1.242,0,0,0-.465,1.133,1.333,1.333,0,0,0,2.383.685A1.243,1.243,0,0,0,92.166,119a1.269,1.269,0,0,0-.493-.655c-.165-.1-.275-.119-.28-.1" transform="translate(-11.204 -14.774)" fill="#263238"/>
        <path id="Trazado_730295" data-name="Trazado 730295" d="M101.256,89.376a18.157,18.157,0,0,0-2.425-4.005,18.115,18.115,0,0,0-3.642-2.945,3.459,3.459,0,0,1,1.309.524,10.067,10.067,0,0,1,4.416,5.059,3.451,3.451,0,0,1,.343,1.367" transform="translate(-11.908 -10.31)" fill="#455a64"/>
        <path id="Trazado_730296" data-name="Trazado 730296" d="M275.469,112.568a4.825,4.825,0,0,1,.185.755c.094.5.283,1.23.415,2.19a51.93,51.93,0,0,1,.649,8.17,55.793,55.793,0,0,1-1.255,12.091,50.681,50.681,0,0,1-1.967,6.917,45.2,45.2,0,0,1-7.5,13.447,54.067,54.067,0,0,1-4.935,5.237,49.9,49.9,0,0,1-9.913,7.038,39.462,39.462,0,0,1-7.575,3.131c-.92.3-1.665.431-2.158.556a5.063,5.063,0,0,1-.763.147,4.924,4.924,0,0,1,.741-.236c.485-.152,1.22-.307,2.128-.636A42.237,42.237,0,0,0,251,168.129a50.913,50.913,0,0,0,9.782-7.063,54.706,54.706,0,0,0,4.873-5.209,45.391,45.391,0,0,0,7.423-13.318,51.369,51.369,0,0,0,1.976-6.855,58.528,58.528,0,0,0,.84-20.146c-.1-.96-.265-1.693-.329-2.2a4.888,4.888,0,0,1-.094-.772" transform="translate(-30.106 -14.082)" fill="#263238"/>
        <path id="Trazado_730297" data-name="Trazado 730297" d="M270.772,97.883a55.682,55.682,0,0,0-99,3.871,55.905,55.905,0,0,0,1.967,50.888,55.339,55.339,0,0,0,33.57,26.286A55.969,55.969,0,0,0,222.341,181a55.759,55.759,0,0,0,48.432-83.113M235.793,76.658a50.12,50.12,0,0,1,30.4,23.808,50.625,50.625,0,0,1,1.78,46.089,50.426,50.426,0,1,1-45.8-71.769,50.72,50.72,0,0,1,13.614,1.872" transform="translate(-20.839 -8.698)" fill="#263238"/>
        <path id="Trazado_730298" data-name="Trazado 730298" d="M180.7,147.056a1.826,1.826,0,0,1-.223-.41l-.56-1.214a18,18,0,0,1-.793-1.963c-.27-.78-.627-1.654-.88-2.664q-.211-.755-.44-1.573c-.148-.549-.245-1.133-.376-1.731-.283-1.192-.435-2.493-.626-3.857a44.625,44.625,0,0,1,1.558-17.737c.426-1.31.8-2.563,1.289-3.689.234-.566.43-1.124.673-1.639l.707-1.472c.425-.95.929-1.749,1.332-2.47a17.928,17.928,0,0,1,1.122-1.794l.763-1.1a1.744,1.744,0,0,1,.291-.365,1.806,1.806,0,0,1-.215.416c-.184.305-.412.682-.689,1.142a20.965,20.965,0,0,0-1.051,1.825c-.379.728-.859,1.531-1.262,2.484l-.675,1.473c-.232.514-.419,1.071-.643,1.634-.468,1.122-.827,2.369-1.237,3.67a46.024,46.024,0,0,0-1.544,17.573c.178,1.352.313,2.643.578,3.829.122.594.21,1.175.348,1.722s.277,1.066.408,1.568c.232,1.009.564,1.884.811,2.667a20.96,20.96,0,0,0,.717,1.981c.192.5.351.912.479,1.244a1.844,1.844,0,0,1,.139.448" transform="translate(-22.085 -12.933)" fill="#263238"/>
        <path id="Trazado_730299" data-name="Trazado 730299" d="M189.6,163.787c-.055.108-.947-.266-1.809-1.066s-1.31-1.655-1.207-1.719.695.631,1.516,1.384,1.565,1.287,1.5,1.4" transform="translate(-23.339 -20.141)" fill="#263238"/>
        <path id="Trazado_730300" data-name="Trazado 730300" d="M171.725,96.9a54.895,54.895,0,1,1,1.939,50.168A54.616,54.616,0,0,1,171.725,96.9m96.2,44.8a51.2,51.2,0,1,0-21.252,23,51.213,51.213,0,0,0,21.252-23" transform="translate(-20.839 -8.148)" fill="#455a64"/>
        <path id="Trazado_730301" data-name="Trazado 730301" d="M221.457,175.77A56.038,56.038,0,0,1,206.4,173.7a55.43,55.43,0,0,1-33.622-26.328,55.989,55.989,0,0,1-1.971-50.966,55.767,55.767,0,1,1,50.648,79.364m-.168-109.889a54.2,54.2,0,1,0,14.583,2.005,54.325,54.325,0,0,0-14.583-2.005m.164,106.21a52.339,52.339,0,0,1-14.064-1.934,52.117,52.117,0,1,1,59.373-75.82,52.292,52.292,0,0,1,1.84,47.606,52.145,52.145,0,0,1-47.148,30.148m-.158-102.531a50.523,50.523,0,1,0,13.592,1.87,50.591,50.591,0,0,0-13.592-1.87" transform="translate(-20.718 -8.023)" fill="#455a64"/>
        <path id="Trazado_730302" data-name="Trazado 730302" d="M53.86,235l-.988-1.566c-2.115-3.353.285-8.667,2.624-10.143l103.621-65.4c.521-.329,1.327.01,1.8.758l6.941,11a1.427,1.427,0,0,1-.09,1.951L64.745,236.622C62.406,238.1,55.976,238.355,53.86,235" transform="translate(-6.512 -19.737)" fill="#455a64"/>
        <path id="Trazado_730303" data-name="Trazado 730303" d="M164.464,183.334l3.143-3.328s-.369-7.579.925-9.428l.675-1.117s-.673-3.686,1.31-4.538c.561-1.393,1.283-1.96,2.268-1.185,0,0-.555-2.773,2.033-3.143s3.328,11.369,3.328,11.369,1.294,5.269-1.664,5.269a6.639,6.639,0,0,1-3.513,2.033s-.555,3.143-3.143,2.958Z" transform="translate(-20.574 -20.089)" fill="#ae7461"/>
        <path id="Trazado_730304" data-name="Trazado 730304" d="M172.529,180.377c.017-.014.155.1.3.375a2.123,2.123,0,0,1,.149,1.3,2.921,2.921,0,0,1-.971,1.684,6.021,6.021,0,0,1-2.064,1.129,14.732,14.732,0,0,1-4.118.817,5.072,5.072,0,0,1-1.736-.092,26.766,26.766,0,0,0,5.717-1.112,6.09,6.09,0,0,0,1.951-1.027,2.752,2.752,0,0,0,.937-1.458,2.624,2.624,0,0,0-.161-1.616" transform="translate(-20.527 -22.565)" fill="#6f4439"/>
        <path id="Trazado_730305" data-name="Trazado 730305" d="M176.074,174.142c-.126,0-.132-2.359-.7-5.191-.55-2.836-1.44-5.021-1.323-5.068a4.892,4.892,0,0,1,.686,1.393,21.581,21.581,0,0,1,1.442,7.318,4.9,4.9,0,0,1-.106,1.549" transform="translate(-21.772 -20.502)" fill="#6f4439"/>
        <path id="Trazado_730306" data-name="Trazado 730306" d="M173.508,175.641c-.122.009-.345-2.295-.936-5.075s-1.307-4.982-1.192-5.023a24.866,24.866,0,0,1,2.129,10.1" transform="translate(-21.438 -20.709)" fill="#6f4439"/>
        <path id="Trazado_730307" data-name="Trazado 730307" d="M178.427,176.98c.094-.059.481.667.228,1.583s-.944,1.351-1,1.252c-.078-.089.4-.581.6-1.359.22-.773.056-1.437.168-1.476" transform="translate(-22.224 -22.14)" fill="#6f4439"/>
        <path id="Trazado_730308" data-name="Trazado 730308" d="M170.217,176.757a15.851,15.851,0,0,1-.237-2.879,15.9,15.9,0,0,1-.119-2.887,12.061,12.061,0,0,1,.356,5.766" transform="translate(-21.244 -21.391)" fill="#6f4439"/>
        <path id="Trazado_730309" data-name="Trazado 730309" d="M90.28,207.911a9.5,9.5,0,0,1,3.039-2.78c2.063-1.22,6.187-1.7,6.965-3.087s2.047.033,1.362,1.814c-.436,1.135-3.419,3.769-3.419,3.769s2.709,1.233,4.8.49,9.067-1.485,9.6-.43c.608,1.193-1.189,1.225-2.011,1.51-.625.217-5.423,1.591-5.423,1.591s8.809,1.308,9.834,1.927c1.116.673-.306,1.507-.862,1.427a14.427,14.427,0,0,0-3.34,1.809,4.042,4.042,0,0,1-2.848.578l-2.04-.344L112,217.968s.889,1.173-.691,1.409c-.7.106-19.933-.633-21.4-.815-2.538-.314-6.629-.429-6.629-.429l3.151-11.473Z" transform="translate(-10.419 -25.206)" fill="#ae7461"/>
        <path id="Trazado_730310" data-name="Trazado 730310" d="M117.488,216.1a13.651,13.651,0,0,1-4.394.5,13.627,13.627,0,0,1-4.389-.542c.018-.12,1.972.124,4.39.13s4.375-.207,4.392-.087" transform="translate(-13.599 -27.024)" fill="#6f4439"/>
        <path id="Trazado_730311" data-name="Trazado 730311" d="M70.479,196.176l8.807-18.155L71.5,154.447a15.816,15.816,0,0,0-5.852,5.087c-2.775,3.762-5.772,11.76-5.772,11.76s-9.6,21.961-11.178,25.238-4.127,9.347,0,12.746,31.748,3.513,31.748,3.513l2.929-12.213Z" transform="translate(-5.813 -19.321)" fill="#4db1f0"/>
        <path id="Trazado_730312" data-name="Trazado 730312" d="M75.1,168.54c.12-.038,2.177,6.1,4.594,13.708s4.28,13.809,4.16,13.846-2.177-6.1-4.594-13.709-4.28-13.808-4.16-13.845" transform="translate(-9.394 -21.084)" fill="#263238"/>
        <path id="Trazado_730313" data-name="Trazado 730313" d="M84.977,206.4a4.688,4.688,0,0,1-1.025-.224l-2.743-.769c-2.312-.66-5.5-1.617-9.039-2.542a36.559,36.559,0,0,0-9.188-1.539,11.843,11.843,0,0,0-3.759.743,3.523,3.523,0,0,1,.931-.49A8.9,8.9,0,0,1,62.97,201c2.448-.159,5.761.5,9.315,1.42s6.728,1.936,9.018,2.675c1.146.369,2.067.685,2.7.908a4.628,4.628,0,0,1,.972.394" transform="translate(-7.409 -25.142)" fill="#263238"/>
        <g id="Grupo_1031053" data-name="Grupo 1031053" transform="translate(67.627 153.458)" opacity="0.3">
          <g id="Grupo_1031052" data-name="Grupo 1031052">
            <g id="Grupo_1031051" data-name="Grupo 1031051" clip-path="url(#clip-path-14)">
              <path id="Trazado_730314" data-name="Trazado 730314" d="M77.373,175.4a90.935,90.935,0,0,0,.791,15.365l2.479-4.969a74.2,74.2,0,0,0-3.134-10.072" transform="translate(-77.297 -175.4)"/>
            </g>
          </g>
        </g>
        <rect id="Rectángulo_351158" data-name="Rectángulo 351158" width="11.436" height="41.215" transform="translate(210.551 93.843)" fill="#ffa031"/>
        <rect id="Rectángulo_351159" data-name="Rectángulo 351159" width="11.436" height="18.711" transform="translate(174.723 118.097)" fill="#ffa031"/>
        <rect id="Rectángulo_351160" data-name="Rectángulo 351160" width="11.436" height="28.884" transform="translate(192.395 107.923)" fill="#ffa031"/>
        <path id="Trazado_730315" data-name="Trazado 730315" d="M242.391,91.695a2.068,2.068,0,0,1-.275.363l-.849,1-3.228,3.7L226.826,109.4l-.125.141-.158-.1-7.018-4.584.3-.043-.268.316-14.84,17.409-.1.115-.12-.088-5.58-4.144-1.5-1.145a3.671,3.671,0,0,1-.507-.424,3.456,3.456,0,0,1,.56.35c.392.27.908.628,1.554,1.076l5.666,4.025-.218.026,14.739-17.495.268-.316.13-.154.168.111,7.008,4.6-.283.038,11.336-12.535,3.322-3.614.9-.954a2.064,2.064,0,0,1,.332-.312" transform="translate(-24.633 -11.471)" fill="#263238"/>
        <path id="Trazado_730316" data-name="Trazado 730316" d="M247.974,100.314a15.29,15.29,0,0,1-.159-2.63c-.041-1.626-.067-3.878-.068-6.378l.264.225-.227.038c-2.517.416-4.8.766-6.457,1a16.159,16.159,0,0,1-2.7.282,15.978,15.978,0,0,1,2.644-.6c1.643-.313,3.918-.714,6.436-1.129l.227-.038.265-.044v.269c0,2.5-.027,4.752-.068,6.378a15.289,15.289,0,0,1-.159,2.63" transform="translate(-29.852 -11.389)" fill="#263238"/>
      </g>
    </g>
  </g>
</svg>
