<svg id="Grupo_1031022" data-name="Grupo 1031022" xmlns="http://www.w3.org/2000/svg" xmlns:xlink="http://www.w3.org/1999/xlink" width="416.747" height="382.898" viewBox="0 0 416.747 382.898">
  <defs>
    <clipPath id="clip-path">
      <rect id="Rectángulo_351117" data-name="Rectángulo 351117" width="416.747" height="382.898" fill="none"/>
    </clipPath>
    <clipPath id="clip-path-3">
      <rect id="Rectángulo_351084" data-name="Rectángulo 351084" width="48.216" height="27.757" fill="none"/>
    </clipPath>
    <clipPath id="clip-path-7">
      <rect id="Rectángulo_351104" data-name="Rectángulo 351104" width="2.886" height="2.823" fill="none"/>
    </clipPath>
    <clipPath id="clip-path-8">
      <rect id="Rectángulo_351105" data-name="Rectángulo 351105" width="24.134" height="31.24" fill="none"/>
    </clipPath>
    <clipPath id="clip-path-9">
      <rect id="Rectángulo_351106" data-name="Rectángulo 351106" width="2.925" height="2.917" fill="none"/>
    </clipPath>
    <clipPath id="clip-path-10">
      <rect id="Rectángulo_351107" data-name="Rectángulo 351107" width="37.593" height="3.132" fill="none"/>
    </clipPath>
    <clipPath id="clip-path-12">
      <rect id="Rectángulo_351109" data-name="Rectángulo 351109" width="36.486" height="12.028" fill="none"/>
    </clipPath>
    <clipPath id="clip-path-13">
      <rect id="Rectángulo_351110" data-name="Rectángulo 351110" width="37.53" height="3.331" fill="none"/>
    </clipPath>
    <clipPath id="clip-path-14">
      <rect id="Rectángulo_351111" data-name="Rectángulo 351111" width="59.878" height="27.442" fill="none"/>
    </clipPath>
    <clipPath id="clip-path-15">
      <rect id="Rectángulo_351112" data-name="Rectángulo 351112" width="6.17" height="26.658" fill="none"/>
    </clipPath>
    <clipPath id="clip-path-16">
      <rect id="Rectángulo_351113" data-name="Rectángulo 351113" width="23.261" height="18.029" fill="none"/>
    </clipPath>
    <clipPath id="clip-path-17">
      <rect id="Rectángulo_351114" data-name="Rectángulo 351114" width="16.356" height="10.577" fill="none"/>
    </clipPath>
  </defs>
  <g id="Grupo_1031021" data-name="Grupo 1031021" clip-path="url(#clip-path)">
    <rect id="Rectángulo_351042" data-name="Rectángulo 351042" width="95.487" height="85.429" transform="translate(298.145 0.255)" fill="#fafafa"/>
    <g id="Grupo_1030971" data-name="Grupo 1030971">
      <g id="Grupo_1030970" data-name="Grupo 1030970" clip-path="url(#clip-path)">
        <path id="Trazado_729906" data-name="Trazado 729906" d="M419.612,85.684s-.016-.548-.024-1.586-.015-2.581-.025-4.578c-.013-4.01-.032-9.873-.056-17.341-.028-14.926-.065-36.255-.111-61.924l.216.216L324.133.51h-.009l.256-.255c-.011,31.079-.022,60.326-.03,85.428l-.225-.224,69.064.113,19.479.059,5.157.027,1.33.013c.3,0,.458.013.458.013s-.142.008-.433.013l-1.305.013-5.113.026-19.429.06-69.208.113H323.9v-.225c-.009-25.1-.019-54.349-.03-85.428V0h.264l95.479.039h.217V.256c-.046,25.726-.085,47.1-.111,62.061-.024,7.447-.042,13.293-.056,17.293-.011,1.978-.018,3.5-.025,4.535-.008,1.023-.024,1.539-.024,1.539" transform="translate(-25.98)" fill="#e0e0e0"/>
        <path id="Trazado_729907" data-name="Trazado 729907" d="M362,16.758c0,.141-5.026.255-11.224.255s-11.226-.114-11.226-.255,5.025-.255,11.226-.255S362,16.617,362,16.758" transform="translate(-27.238 -1.324)" fill="#e0e0e0"/>
        <path id="Trazado_729908" data-name="Trazado 729908" d="M402.562,23.732c0,.141-13.808.255-30.837.255s-30.839-.114-30.839-.255,13.8-.255,30.839-.255,30.837.114,30.837.255" transform="translate(-27.345 -1.883)" fill="#e0e0e0"/>
        <rect id="Rectángulo_351043" data-name="Rectángulo 351043" width="4.023" height="4.023" transform="translate(312.472 32.714)" fill="#e0e0e0"/>
        <rect id="Rectángulo_351044" data-name="Rectángulo 351044" width="4.023" height="4.023" transform="translate(322.374 32.714)" fill="#e0e0e0"/>
        <rect id="Rectángulo_351045" data-name="Rectángulo 351045" width="4.023" height="4.023" transform="translate(332.459 32.531)" fill="#e0e0e0"/>
        <rect id="Rectángulo_351046" data-name="Rectángulo 351046" width="4.023" height="4.023" transform="translate(342.179 32.714)" fill="#e0e0e0"/>
        <rect id="Rectángulo_351047" data-name="Rectángulo 351047" width="4.023" height="4.023" transform="translate(352.082 32.714)" fill="#e0e0e0"/>
        <rect id="Rectángulo_351048" data-name="Rectángulo 351048" width="4.023" height="4.023" transform="translate(361.984 32.714)" fill="#e0e0e0"/>
        <rect id="Rectángulo_351049" data-name="Rectángulo 351049" width="4.023" height="4.023" transform="translate(371.886 32.714)" fill="#ebebeb"/>
        <rect id="Rectángulo_351050" data-name="Rectángulo 351050" width="4.023" height="4.023" transform="translate(312.472 41.266)" fill="#ebebeb"/>
        <rect id="Rectángulo_351051" data-name="Rectángulo 351051" width="4.023" height="4.023" transform="translate(322.374 41.266)" fill="#e0e0e0"/>
        <rect id="Rectángulo_351052" data-name="Rectángulo 351052" width="4.023" height="4.023" transform="translate(332.277 41.266)" fill="#ebebeb"/>
        <rect id="Rectángulo_351053" data-name="Rectángulo 351053" width="4.023" height="4.023" transform="translate(342.179 41.266)" fill="#e0e0e0"/>
        <rect id="Rectángulo_351054" data-name="Rectángulo 351054" width="4.023" height="4.023" transform="translate(352.082 41.266)" fill="#e0e0e0"/>
        <rect id="Rectángulo_351055" data-name="Rectángulo 351055" width="4.023" height="4.023" transform="translate(362.167 41.083)" fill="#e0e0e0"/>
        <rect id="Rectángulo_351056" data-name="Rectángulo 351056" width="4.023" height="4.023" transform="translate(371.886 41.266)" fill="#e0e0e0"/>
        <rect id="Rectángulo_351057" data-name="Rectángulo 351057" width="4.023" height="4.023" transform="translate(312.472 49.818)" fill="#e0e0e0"/>
        <rect id="Rectángulo_351058" data-name="Rectángulo 351058" width="4.023" height="4.023" transform="translate(322.557 49.636)" fill="#e0e0e0"/>
        <rect id="Rectángulo_351059" data-name="Rectángulo 351059" width="4.023" height="4.023" transform="translate(332.277 49.818)" fill="#e0e0e0"/>
        <rect id="Rectángulo_351060" data-name="Rectángulo 351060" width="4.023" height="4.023" transform="translate(342.179 49.818)" fill="#ebebeb"/>
        <rect id="Rectángulo_351061" data-name="Rectángulo 351061" width="4.023" height="4.023" transform="translate(352.082 49.818)" fill="#e0e0e0"/>
        <rect id="Rectángulo_351062" data-name="Rectángulo 351062" width="4.023" height="4.023" transform="translate(361.984 49.818)" fill="#e0e0e0"/>
        <rect id="Rectángulo_351063" data-name="Rectángulo 351063" width="4.023" height="4.023" transform="translate(371.886 49.818)" fill="#e0e0e0"/>
        <rect id="Rectángulo_351064" data-name="Rectángulo 351064" width="4.023" height="4.023" transform="translate(312.472 58.371)" fill="#e0e0e0"/>
        <rect id="Rectángulo_351065" data-name="Rectángulo 351065" width="4.023" height="4.023" transform="translate(322.374 58.371)" fill="#e0e0e0"/>
        <rect id="Rectángulo_351066" data-name="Rectángulo 351066" width="4.023" height="4.023" transform="translate(332.277 58.371)" fill="#e0e0e0"/>
        <rect id="Rectángulo_351067" data-name="Rectángulo 351067" width="4.023" height="4.023" transform="translate(342.361 58.188)" fill="#e0e0e0"/>
        <rect id="Rectángulo_351068" data-name="Rectángulo 351068" width="4.023" height="4.023" transform="translate(352.082 58.371)" fill="#e0e0e0"/>
        <rect id="Rectángulo_351069" data-name="Rectángulo 351069" width="4.023" height="4.023" transform="translate(361.984 58.371)" fill="#ebebeb"/>
        <rect id="Rectángulo_351070" data-name="Rectángulo 351070" width="4.023" height="4.023" transform="translate(371.886 58.371)" fill="#e0e0e0"/>
        <rect id="Rectángulo_351071" data-name="Rectángulo 351071" width="4.023" height="4.023" transform="translate(312.472 66.923)" fill="#e0e0e0"/>
        <rect id="Rectángulo_351072" data-name="Rectángulo 351072" width="4.023" height="4.023" transform="translate(322.374 66.923)" fill="#ebebeb"/>
        <rect id="Rectángulo_351073" data-name="Rectángulo 351073" width="4.023" height="4.023" transform="translate(332.277 66.923)" fill="#e0e0e0"/>
        <rect id="Rectángulo_351074" data-name="Rectángulo 351074" width="4.023" height="4.023" transform="translate(342.179 66.923)" fill="#e0e0e0"/>
        <rect id="Rectángulo_351075" data-name="Rectángulo 351075" width="4.023" height="4.023" transform="translate(352.082 66.923)" fill="#e0e0e0"/>
        <rect id="Rectángulo_351076" data-name="Rectángulo 351076" width="4.023" height="4.023" transform="translate(362.167 66.74)" fill="#e0e0e0"/>
        <rect id="Rectángulo_351077" data-name="Rectángulo 351077" width="4.023" height="4.023" transform="translate(371.886 66.923)" fill="#e0e0e0"/>
        <rect id="Rectángulo_351078" data-name="Rectángulo 351078" width="169.87" height="78.342" transform="translate(75.888 254.733)" fill="#f5f5f5"/>
        <path id="Trazado_729909" data-name="Trazado 729909" d="M248.673,351.959H86.734V281.431H248.673ZM87.791,350.9H247.617V282.488H87.791Z" transform="translate(-6.958 -22.576)" fill="#e0e0e0"/>
        <rect id="Rectángulo_351079" data-name="Rectángulo 351079" width="41.499" height="78.342" transform="translate(245.758 254.733)" fill="#e0e0e0"/>
        <path id="Trazado_729910" data-name="Trazado 729910" d="M87.29,305.125H248.172a.214.214,0,0,0,0-.427H87.29a.214.214,0,0,0,0,.427" transform="translate(-6.986 -24.442)" fill="#e0e0e0"/>
        <path id="Trazado_729911" data-name="Trazado 729911" d="M175.277,303.056a176.058,176.058,0,0,0,.054-21.28.217.217,0,0,0-.433,0,176.248,176.248,0,0,0,.055,21.28.162.162,0,0,0,.324,0" transform="translate(-14.006 -22.587)" fill="#e0e0e0"/>
        <path id="Trazado_729912" data-name="Trazado 729912" d="M222.035,293.171a2.192,2.192,0,1,1-2.192-2.192,2.192,2.192,0,0,1,2.192,2.192" transform="translate(-17.459 -23.342)" fill="#e0e0e0"/>
        <path id="Trazado_729913" data-name="Trazado 729913" d="M130.24,293.171a2.192,2.192,0,1,1-2.192-2.192,2.192,2.192,0,0,1,2.192,2.192" transform="translate(-10.096 -23.342)" fill="#e0e0e0"/>
        <path id="Trazado_729914" data-name="Trazado 729914" d="M176.766,319.58a2.192,2.192,0,1,1-2.192-2.192,2.192,2.192,0,0,1,2.192,2.192" transform="translate(-13.828 -25.46)" fill="#e0e0e0"/>
        <path id="Trazado_729915" data-name="Trazado 729915" d="M103.825,362.124l-8.746,49.184H100l16.125-49.184Z" transform="translate(-7.627 -29.049)" fill="#e0e0e0"/>
        <path id="Trazado_729916" data-name="Trazado 729916" d="M253.053,362.124l7.314,49.27h-4.92l-14.693-49.27Z" transform="translate(-19.313 -29.049)" fill="#e0e0e0"/>
        <path id="Trazado_729917" data-name="Trazado 729917" d="M288.756,362.124l8.286,49.27h-4.919l-15.666-49.27Z" transform="translate(-22.177 -29.049)" fill="#e0e0e0"/>
        <path id="Trazado_729918" data-name="Trazado 729918" d="M176.606,343.685a2.192,2.192,0,1,1-2.192-2.192,2.192,2.192,0,0,1,2.192,2.192" transform="translate(-13.815 -27.394)" fill="#e0e0e0"/>
        <path id="Trazado_729919" data-name="Trazado 729919" d="M87.29,331.5H248.172a.214.214,0,0,0,0-.427H87.29a.214.214,0,0,0,0,.427" transform="translate(-6.986 -26.558)" fill="#e0e0e0"/>
        <rect id="Rectángulo_351080" data-name="Rectángulo 351080" width="51.361" height="10.455" transform="translate(143.074 217.961) rotate(-0.302)" fill="#e0e0e0"/>
        <rect id="Rectángulo_351081" data-name="Rectángulo 351081" width="57.245" height="16.246" transform="translate(143.33 238.572) rotate(-0.302)" fill="#f5f5f5"/>
        <path id="Trazado_729920" data-name="Trazado 729920" d="M206.146,275.173a59.59,59.59,0,0,1-.278-8.123,59.587,59.587,0,0,1,.278-8.124,59.584,59.584,0,0,1,.278,8.124,59.587,59.587,0,0,1-.278,8.123" transform="translate(-16.514 -20.771)" fill="#e0e0e0"/>
        <path id="Trazado_729921" data-name="Trazado 729921" d="M208.761,275.173a59.585,59.585,0,0,1-.278-8.123,59.582,59.582,0,0,1,.278-8.124,59.587,59.587,0,0,1,.278,8.124,59.59,59.59,0,0,1-.278,8.123" transform="translate(-16.724 -20.771)" fill="#e0e0e0"/>
        <path id="Trazado_729922" data-name="Trazado 729922" d="M165.263,275.173a59.587,59.587,0,0,1-.278-8.123,59.584,59.584,0,0,1,.278-8.124,59.585,59.585,0,0,1,.278,8.124,59.588,59.588,0,0,1-.278,8.123" transform="translate(-13.235 -20.771)" fill="#e0e0e0"/>
        <path id="Trazado_729923" data-name="Trazado 729923" d="M167.878,275.173a59.591,59.591,0,0,1-.278-8.123,59.588,59.588,0,0,1,.278-8.124,59.584,59.584,0,0,1,.278,8.124,59.587,59.587,0,0,1-.278,8.123" transform="translate(-13.445 -20.771)" fill="#e0e0e0"/>
        <path id="Trazado_729924" data-name="Trazado 729924" d="M173.607,268.018c0-.155,5.774-.281,12.9-.281s12.9.126,12.9.281-5.774.281-12.9.281-12.9-.126-12.9-.281" transform="translate(-13.926 -21.477)" fill="#e0e0e0"/>
        <rect id="Rectángulo_351082" data-name="Rectángulo 351082" width="70.639" height="10.455" transform="translate(151.463 228.094) rotate(-0.302)" fill="#ebebeb"/>
        <path id="Trazado_729925" data-name="Trazado 729925" d="M230.245,256.949a3.382,3.382,0,1,1,3.338-3.381,3.36,3.36,0,0,1-3.338,3.381" transform="translate(-18.202 -20.069)" fill="#e0e0e0"/>
        <rect id="Rectángulo_351083" data-name="Rectángulo 351083" width="47.285" height="2.091" transform="translate(155.577 232.453)" fill="#e0e0e0"/>
        <path id="Trazado_729926" data-name="Trazado 729926" d="M410.563,362.286l-1.314,24.174A1.632,1.632,0,0,1,407.631,388l-43.5.319a1.632,1.632,0,0,1-1.644-1.621l-.138-18.817a1.631,1.631,0,0,1,1.63-1.644l26.754-.024a1.632,1.632,0,0,0,1.152-.477l4.615-4.615a1.633,1.633,0,0,1,1.142-.477l11.277-.083a1.633,1.633,0,0,1,1.642,1.721" transform="translate(-29.067 -28.924)" fill="#e8505b"/>
        <g id="Grupo_1030969" data-name="Grupo 1030969" transform="translate(333.283 331.642)" opacity="0.3">
          <g id="Grupo_1030968" data-name="Grupo 1030968">
            <g id="Grupo_1030967" data-name="Grupo 1030967" clip-path="url(#clip-path-3)">
              <path id="Trazado_729927" data-name="Trazado 729927" d="M410.563,362.286l-1.314,24.174A1.632,1.632,0,0,1,407.631,388l-43.5.319a1.632,1.632,0,0,1-1.644-1.621l-.138-18.817a1.631,1.631,0,0,1,1.63-1.644l26.754-.024a1.632,1.632,0,0,0,1.152-.477l4.615-4.615a1.633,1.633,0,0,1,1.142-.477l11.277-.083a1.633,1.633,0,0,1,1.642,1.721" transform="translate(-362.35 -360.565)"/>
            </g>
          </g>
        </g>
        <rect id="Rectángulo_351085" data-name="Rectángulo 351085" width="47.53" height="28.402" transform="translate(333.251 334.473) rotate(-0.419)" fill="#f5f5f5"/>
        <path id="Trazado_729928" data-name="Trazado 729928" d="M413.377,365.9l-3.412,29.644a1.048,1.048,0,0,1-1.035.929l-46.319.339a1.048,1.048,0,0,1-1.053-.959l-2.549-29.6a1.05,1.05,0,0,1,1.038-1.14l52.28-.383a1.049,1.049,0,0,1,1.05,1.169" transform="translate(-28.799 -29.258)" fill="#e0e0e0"/>
        <path id="Trazado_729929" data-name="Trazado 729929" d="M424.477,357.328,423.163,381.5a1.631,1.631,0,0,1-1.617,1.543l-43.5.319a1.632,1.632,0,0,1-1.644-1.621l-.138-18.817a1.632,1.632,0,0,1,1.631-1.644l26.753-.024a1.632,1.632,0,0,0,1.153-.477l4.615-4.615a1.634,1.634,0,0,1,1.142-.477l11.277-.083a1.633,1.633,0,0,1,1.642,1.721" transform="translate(-30.183 -28.526)" fill="#ebebeb"/>
        <rect id="Rectángulo_351086" data-name="Rectángulo 351086" width="47.53" height="28.402" transform="translate(346.048 329.913) rotate(-0.42)" fill="#f5f5f5"/>
        <path id="Trazado_729930" data-name="Trazado 729930" d="M427.291,360.946,423.88,390.59a1.051,1.051,0,0,1-1.036.93l-46.319.339a1.05,1.05,0,0,1-1.053-.96l-2.549-29.6a1.05,1.05,0,0,1,1.038-1.14l52.28-.383a1.049,1.049,0,0,1,1.05,1.169" transform="translate(-29.915 -28.861)" fill="#ebebeb"/>
        <path id="Trazado_729931" data-name="Trazado 729931" d="M440.158,363.482l-1.314,24.174a1.631,1.631,0,0,1-1.618,1.543l-43.5.319a1.632,1.632,0,0,1-1.644-1.621l-.138-18.816a1.631,1.631,0,0,1,1.63-1.645l26.754-.024a1.632,1.632,0,0,0,1.152-.477l4.615-4.614a1.634,1.634,0,0,1,1.142-.478l11.277-.083a1.633,1.633,0,0,1,1.642,1.721" transform="translate(-31.441 -29.02)" fill="#f5f5f5"/>
        <rect id="Rectángulo_351087" data-name="Rectángulo 351087" width="47.53" height="28.401" transform="translate(360.471 335.574) rotate(-0.42)" fill="#fafafa"/>
        <path id="Trazado_729932" data-name="Trazado 729932" d="M442.972,367.1l-3.411,29.644a1.05,1.05,0,0,1-1.036.929l-46.319.339a1.049,1.049,0,0,1-1.053-.959l-2.549-29.6a1.05,1.05,0,0,1,1.038-1.14l52.28-.383a1.049,1.049,0,0,1,1.05,1.169" transform="translate(-31.173 -29.354)" fill="#f5f5f5"/>
        <path id="Trazado_729933" data-name="Trazado 729933" d="M388.6,412.706h59.32v-41.12H388.6Zm19.364-33.723A3.036,3.036,0,0,1,411,375.947H425.52a3.036,3.036,0,0,1,0,6.072H411a3.036,3.036,0,0,1-3.036-3.036" transform="translate(-31.173 -29.808)" fill="#ebebeb"/>
        <rect id="Rectángulo_351088" data-name="Rectángulo 351088" width="31.979" height="41.12" transform="translate(325.447 341.778)" fill="#e0e0e0"/>
      </g>
    </g>
    <g id="Grupo_1030973" data-name="Grupo 1030973">
      <g id="Grupo_1030972" data-name="Grupo 1030972" clip-path="url(#clip-path)">
        <path id="Trazado_729934" data-name="Trazado 729934" d="M25.568,324.26a29.975,29.975,0,0,0-12.82-4.413c-2.1-.214-4.384-.154-6.064,1.116a1.246,1.246,0,0,0-.625,1.107,1.351,1.351,0,0,0,.593.757,18.327,18.327,0,0,0,18.915,1.433" transform="translate(-0.485 -25.65)" fill="#ffa031"/>
        <path id="Trazado_729935" data-name="Trazado 729935" d="M25.725,322.506a62.459,62.459,0,0,1-8.28-7.286,20.942,20.942,0,0,1-5.192-9.6,3.874,3.874,0,0,1,.41-3.213c6.6,5.155,11.786,11.822,13.062,20.1" transform="translate(-0.971 -24.258)" fill="#ffa031"/>
        <path id="Trazado_729936" data-name="Trazado 729936" d="M27.159,322.868A29.943,29.943,0,0,1,27.313,312a14.7,14.7,0,0,1,5.791-8.971c1.141,2.666.65,5.738-.154,8.524a41.416,41.416,0,0,1-5.742,12.089" transform="translate(-2.145 -24.308)" fill="#ffa031"/>
        <path id="Trazado_729937" data-name="Trazado 729937" d="M32.821,337.2a18.949,18.949,0,0,0-10.281,5.2,19.45,19.45,0,0,0-5.881,10.1c3.853-.237,7.121-2.954,9.492-6s4.012-6.389,6.617-9.238" transform="translate(-1.336 -27.05)" fill="#ffa031"/>
        <path id="Trazado_729938" data-name="Trazado 729938" d="M35.6,337.128a25.36,25.36,0,0,1,2.928-23.986c2.238,7.96,1.416,16.951-2.928,23.986" transform="translate(-2.714 -25.12)" fill="#ffa031"/>
        <path id="Trazado_729939" data-name="Trazado 729939" d="M43.5,350.285A18.336,18.336,0,0,0,25.97,360.377c-.218.435-.409.986-.119,1.375a1.3,1.3,0,0,0,1.163.342c3.456-.224,6.518-2.3,9.043-4.67s4.729-5.1,7.522-7.149" transform="translate(-2.062 -28.096)" fill="#ffa031"/>
        <path id="Trazado_729940" data-name="Trazado 729940" d="M44.629,347.566a32.646,32.646,0,0,1-.326-18.24c.642-2.348,1.721-4.82,3.893-5.921a.766.766,0,0,1,.6-.1.783.783,0,0,1,.376.436,10.984,10.984,0,0,1,.918,5.234,32.756,32.756,0,0,1-.82,5.3c-.684,3.238-1.048,6.717-2.824,9.51a19.28,19.28,0,0,0-1.129,2.089c-.337.709-.339.959-.648,1.524" transform="translate(-3.462 -25.932)" fill="#ffa031"/>
        <path id="Trazado_729941" data-name="Trazado 729941" d="M69.305,351.6a23.518,23.518,0,0,1,4.122-19.337c.3-.384.688-.8,1.172-.752.74.068.932,1.055.9,1.8A34.94,34.94,0,0,1,69.305,351.6" transform="translate(-5.509 -26.593)" fill="#ffa031"/>
        <path id="Trazado_729942" data-name="Trazado 729942" d="M71.579,354.284a28.127,28.127,0,0,0,23.081-4.695,18.687,18.687,0,0,0-12.494-1.533c-4.174.955-7.988,2.825-10.587,6.228" transform="translate(-5.742 -27.884)" fill="#ffa031"/>
        <path id="Trazado_729943" data-name="Trazado 729943" d="M73.449,349.194c4.34-7.075,12.659-11.692,20.948-12.113-.955,3.371-3.725,5.991-6.851,7.575A38.076,38.076,0,0,1,77.49,347.6c-1.337.259-3.173.545-4.041,1.6" transform="translate(-5.892 -27.04)" fill="#ffa031"/>
        <path id="Trazado_729944" data-name="Trazado 729944" d="M69.567,325.72a60.908,60.908,0,0,0,2.679-12.268A20.429,20.429,0,0,0,69.8,301.316c-4.053,7.844-4.464,17.008-.357,24.824" transform="translate(-5.339 -24.171)" fill="#ffa031"/>
        <path id="Trazado_729945" data-name="Trazado 729945" d="M84.666,318.913c4.741-8.616,14.411-15.5,24.2-16.461-3.775,9.4-14.07,16.663-24.2,16.461" transform="translate(-6.792 -24.262)" fill="#ffa031"/>
        <path id="Trazado_729946" data-name="Trazado 729946" d="M81.424,322.061c7.069,1.077,13.092,5.592,19.7,8.33a8.832,8.832,0,0,0,4.454.853,3.486,3.486,0,0,0,2.183-6.166,9.5,9.5,0,0,0-3.235-1.963c-7.2-3-14.912-3.07-22.492-1.255" transform="translate(-6.532 -25.722)" fill="#ffa031"/>
        <path id="Trazado_729947" data-name="Trazado 729947" d="M76.977,327.545c1.6.458,2.147,1.287,3.413,2.367a36.864,36.864,0,0,0,14.938,7.674c.571.142,1.321.2,1.6-.317.247-.451-.065-1-.387-1.4a20.56,20.56,0,0,0-9.019-6.123c-3.447-1.284-6.434-2.831-10.548-2.5" transform="translate(-6.175 -26.248)" fill="#ffa031"/>
        <path id="Trazado_729948" data-name="Trazado 729948" d="M71.957,294.95a28.268,28.268,0,0,0,21.674,7.374,1.483,1.483,0,0,0,.987-.354c.545-.593-.109-1.509-.745-2.005C87.5,295,79.783,292.938,71.957,294.95" transform="translate(-5.772 -23.599)" fill="#ffa031"/>
        <path id="Trazado_729949" data-name="Trazado 729949" d="M77.908,292.326a30.209,30.209,0,0,1,27.045-4.463,21.473,21.473,0,0,1-12.888,5.659,40.787,40.787,0,0,1-14.157-1.2" transform="translate(-6.25 -22.978)" fill="#ffa031"/>
        <path id="Trazado_729950" data-name="Trazado 729950" d="M75.224,276.21c-.625-6.36-.22-11.38-.661-17.771-.035-.51-.144-1.125-.623-1.309-.665-.256-1.219.561-1.437,1.24a20.368,20.368,0,0,0,2.712,17.7" transform="translate(-5.741 -20.623)" fill="#ffa031"/>
        <path id="Trazado_729951" data-name="Trazado 729951" d="M75.045,276.9a37.4,37.4,0,0,0,10.536-10.24c2.081-2.848,3.835-6.258,3.362-9.753a10.082,10.082,0,0,0-7.6,3.774,21.215,21.215,0,0,0-3.875,7.8c-.843,2.8-1.434,5.674-2.424,8.424" transform="translate(-6.02 -20.608)" fill="#ffa031"/>
        <path id="Trazado_729952" data-name="Trazado 729952" d="M86.287,274.126a84.95,84.95,0,0,0,25.929-15.289c-3.1-1.248-6.644-.5-9.74.749a30.713,30.713,0,0,0-16.324,14.471" transform="translate(-6.911 -20.712)" fill="#ffa031"/>
        <path id="Trazado_729953" data-name="Trazado 729953" d="M78.21,281.771a52.714,52.714,0,0,0,14.4.07c4.668-.78,9.079-2.63,13.441-4.466a1.58,1.58,0,0,0,.913-.694,1.05,1.05,0,0,0-.327-1.15,2.762,2.762,0,0,0-1.146-.537c-4.742-1.326-9.86-.706-14.525.867a67.4,67.4,0,0,0-12.753,5.909" transform="translate(-6.274 -22.001)" fill="#ffa031"/>
        <path id="Trazado_729954" data-name="Trazado 729954" d="M48.286,293.415a25.469,25.469,0,0,1-.233-21.078c1.986,3.026,2.229,6.879,1.865,10.48s-1.46,7.307-1.531,10.925" transform="translate(-3.681 -21.846)" fill="#ffa031"/>
        <path id="Trazado_729955" data-name="Trazado 729955" d="M32.407,288.1a29.4,29.4,0,0,0-21.845,9.306,20.416,20.416,0,0,0,11.962-2.218,60.887,60.887,0,0,0,10.251-6.862" transform="translate(-0.847 -23.11)" fill="#ffa031"/>
        <path id="Trazado_729956" data-name="Trazado 729956" d="M22.985,284.877c-3.989-.324-7.826-.818-11.661.358a13.987,13.987,0,0,0-8.889,7.537,21.077,21.077,0,0,0,10.933-2.064,62.952,62.952,0,0,0,9.617-5.831" transform="translate(-0.195 -22.821)" fill="#ffa031"/>
        <path id="Trazado_729957" data-name="Trazado 729957" d="M36.856,284.523c-3.588-2.352-7.273-4.745-11.45-5.719s-9.02-.254-11.933,2.895c3.382,1.985,7.485,2.219,11.406,2.217s8.729-.048,12.425,1.26" transform="translate(-1.081 -22.333)" fill="#ffa031"/>
        <path id="Trazado_729958" data-name="Trazado 729958" d="M38.311,283.076c-6.134-6.024-8.46-16.844-5.991-25.08a38.214,38.214,0,0,1,5.991,25.08" transform="translate(-2.515 -20.696)" fill="#ffa031"/>
        <path id="Trazado_729959" data-name="Trazado 729959" d="M57.257,264.981c1.157-2.689,1.97-5.512,3.009-8.25a23.7,23.7,0,0,1,4.289-7.6,11.291,11.291,0,0,1,7.6-3.938,30.6,30.6,0,0,1-14.745,19.836" transform="translate(-4.593 -19.668)" fill="#ffa031"/>
        <path id="Trazado_729960" data-name="Trazado 729960" d="M52.555,269.63c-1.915-2.635-4.126-6.212-6.723-8.18s-5.977-3.157-9.145-2.4A21.3,21.3,0,0,0,52.555,269.63" transform="translate(-2.943 -20.762)" fill="#ffa031"/>
        <path id="Trazado_729961" data-name="Trazado 729961" d="M54.32,265.221a45.42,45.42,0,0,1-3.026-9.8,15.286,15.286,0,0,1,1.533-9.965c3.367,6.366,4.452,13.2,1.664,19.837" transform="translate(-4.097 -19.69)" fill="#ffa031"/>
        <path id="Trazado_729962" data-name="Trazado 729962" d="M57.291,244.279c1.908-6.31,7.685-10.956,13.923-13.088a5.187,5.187,0,0,1,2.441-.366,2.12,2.12,0,0,1,1.8,1.5c.227,1.073-.659,2.035-1.494,2.747a47.384,47.384,0,0,1-16.67,9.2" transform="translate(-4.596 -18.513)" fill="#ffa031"/>
        <path id="Trazado_729963" data-name="Trazado 729963" d="M57.357,238c.243-4.068.5-8.2,1.819-12.051s3.874-7.47,7.584-9.157c.632,4.109-1.181,8.2-3.367,11.733s-4.821,6.874-6.136,10.818" transform="translate(-4.593 -17.39)" fill="#ffa031"/>
        <path id="Trazado_729964" data-name="Trazado 729964" d="M56.225,240.962c-1.577-4.6-1.739-10.44-4.493-14.446-1.925-2.8-5.007-4.708-6.666-7.674a11.676,11.676,0,0,0,.387,8.711,25.208,25.208,0,0,0,5.095,7.293c2.037,2.176,3.782,3.813,5.677,6.116" transform="translate(-3.561 -17.555)" fill="#ffa031"/>
        <path id="Trazado_729965" data-name="Trazado 729965" d="M57.27,378.177c-.122,0-.229-30.677-.237-68.511s.084-68.517.206-68.517.229,30.67.237,68.517-.084,68.511-.206,68.511" transform="translate(-4.575 -19.344)" fill="#263238"/>
        <path id="Trazado_729966" data-name="Trazado 729966" d="M84.1,290.22a6.583,6.583,0,0,1-1.153.433l-3.174,1.071c-2.677.912-6.353,2.232-10.344,3.868-3.951,1.7-7.677,3.071-9.8,4.91a7.2,7.2,0,0,0-1.969,2.6c-.3.72-.359,1.161-.4,1.153a.909.909,0,0,1,.013-.322,4.847,4.847,0,0,1,.225-.894,6.927,6.927,0,0,1,1.922-2.777,17.234,17.234,0,0,1,4.251-2.642c1.7-.794,3.586-1.622,5.588-2.444,4-1.64,7.708-2.918,10.415-3.755,1.353-.422,2.457-.733,3.222-.938a6.538,6.538,0,0,1,1.2-.268" transform="translate(-4.592 -23.28)" fill="#263238"/>
        <path id="Trazado_729967" data-name="Trazado 729967" d="M93.067,266.754a1.883,1.883,0,0,1-.323.345l-.985.924-3.675,3.339L75.853,282.253c-4.775,4.249-8.9,8.311-11.76,11.368-1.432,1.527-2.56,2.792-3.329,3.675l-.889,1.015a1.921,1.921,0,0,1-.332.337,1.92,1.92,0,0,1,.263-.393c.186-.246.456-.614.826-1.07.73-.919,1.824-2.219,3.23-3.777a155.13,155.13,0,0,1,11.7-11.487c4.791-4.24,9.151-8.049,12.32-10.795l3.767-3.233,1.039-.863a1.929,1.929,0,0,1,.383-.278" transform="translate(-4.776 -21.398)" fill="#263238"/>
        <path id="Trazado_729968" data-name="Trazado 729968" d="M71.671,287.377c-.125-.056.872-2.358,1.866-5.271s1.475-5.37,1.6-5.349a17.956,17.956,0,0,1-1.183,5.491,35.89,35.89,0,0,1-1.485,3.687,5.747,5.747,0,0,1-.8,1.442" transform="translate(-5.748 -22.201)" fill="#263238"/>
        <path id="Trazado_729969" data-name="Trazado 729969" d="M55.77,306.536a5.441,5.441,0,0,1-.736-.854l-1.885-2.417c-1.584-2.046-3.772-4.871-6.225-7.963s-4.71-5.865-6.344-7.871l-1.926-2.384a5.5,5.5,0,0,1-.665-.911,5.556,5.556,0,0,1,.8.8c.491.533,1.187,1.316,2.035,2.295,1.7,1.956,3.993,4.7,6.45,7.8s4.608,5.954,6.129,8.05c.761,1.049,1.366,1.9,1.773,2.5a5.5,5.5,0,0,1,.6.957" transform="translate(-3.047 -22.793)" fill="#263238"/>
        <path id="Trazado_729970" data-name="Trazado 729970" d="M50.665,299.477a10.8,10.8,0,0,1-2.462-4.61,13.15,13.15,0,0,1-.558-4.649l.195.017c-.087.355-.152.543-.187.536s-.037-.2-.007-.568l.2.017a21.175,21.175,0,0,0,.786,4.521,34.334,34.334,0,0,0,2.037,4.737" transform="translate(-3.82 -23.279)" fill="#263238"/>
        <path id="Trazado_729971" data-name="Trazado 729971" d="M41.522,289.743a7.945,7.945,0,0,0-1.719-1,11.51,11.51,0,0,0-4.774-.38,29.527,29.527,0,0,0-4.807.776,14.647,14.647,0,0,1-1.978.475,6.865,6.865,0,0,1,1.894-.776A21.924,21.924,0,0,1,35,287.922a10.411,10.411,0,0,1,4.924.531,3.047,3.047,0,0,1,1.6,1.29" transform="translate(-2.266 -23.091)" fill="#263238"/>
        <path id="Trazado_729972" data-name="Trazado 729972" d="M39.1,287.146c-.034.069-1-.4-2.634-.959a26.5,26.5,0,0,0-13.274-1.012c-1.7.3-2.725.622-2.748.549a2.476,2.476,0,0,1,.7-.3,16.356,16.356,0,0,1,1.989-.558,23.427,23.427,0,0,1,13.443,1.025,16.513,16.513,0,0,1,1.882.854,2.5,2.5,0,0,1,.645.4" transform="translate(-1.64 -22.808)" fill="#263238"/>
        <path id="Trazado_729973" data-name="Trazado 729973" d="M56.958,275.583a54.52,54.52,0,0,1-1.921-6.672,54.571,54.571,0,0,1-1.492-6.783,54.538,54.538,0,0,1,1.921,6.673,54.549,54.549,0,0,1,1.491,6.782" transform="translate(-4.294 -21.027)" fill="#263238"/>
        <path id="Trazado_729974" data-name="Trazado 729974" d="M56.931,276.125A32.238,32.238,0,0,0,54.8,272.13a17.529,17.529,0,0,0-3.134-3.234,2.908,2.908,0,0,1,1.21.624,9.749,9.749,0,0,1,2.287,2.356,8.854,8.854,0,0,1,1.766,4.249" transform="translate(-4.145 -21.57)" fill="#263238"/>
        <path id="Trazado_729975" data-name="Trazado 729975" d="M54.84,368.443c-.048.007-.138-.738-.484-2.04a29.087,29.087,0,0,0-2.05-5.312A73.508,73.508,0,0,0,41.43,345.768c-2.428-2.775-4.785-5.392-6.784-7.9a55.508,55.508,0,0,1-4.851-7,33.665,33.665,0,0,1-2.448-5.192c-.225-.64-.39-1.14-.481-1.485a2.521,2.521,0,0,1-.126-.53c.04-.012.263.7.768,1.953a37.907,37.907,0,0,0,2.559,5.1,58.52,58.52,0,0,0,4.9,6.9c2.008,2.48,4.367,5.083,6.8,7.861a69.7,69.7,0,0,1,10.825,15.479,26.444,26.444,0,0,1,1.935,5.406,14.6,14.6,0,0,1,.271,1.539,2.477,2.477,0,0,1,.045.543" transform="translate(-2.145 -25.964)" fill="#263238"/>
        <path id="Trazado_729976" data-name="Trazado 729976" d="M81.516,342.6a11.242,11.242,0,0,1-1.27.713,27.729,27.729,0,0,0-3.294,2.177,37.808,37.808,0,0,0-4.325,3.944c-1.518,1.6-3.08,3.466-4.676,5.462-3.192,4-6.175,7.546-7.962,10.373-.909,1.4-1.567,2.586-2,3.415a11.011,11.011,0,0,1-.7,1.278,1.23,1.23,0,0,1,.118-.36c.094-.228.222-.571.426-.994a32.431,32.431,0,0,1,1.889-3.506,114.255,114.255,0,0,1,7.882-10.484c1.6-2,3.182-3.865,4.729-5.466a34.922,34.922,0,0,1,4.432-3.913,23.018,23.018,0,0,1,3.4-2.079c.42-.212.764-.341.991-.439a1.2,1.2,0,0,1,.36-.121" transform="translate(-4.596 -27.482)" fill="#263238"/>
        <path id="Trazado_729977" data-name="Trazado 729977" d="M82.684,352.247a18.474,18.474,0,0,1-2.684.39,35.4,35.4,0,0,0-6.364,1.254,19.139,19.139,0,0,0-5.7,2.99c-1.313,1.015-1.932,1.855-1.993,1.806a2.039,2.039,0,0,1,.4-.617,10.1,10.1,0,0,1,1.4-1.431,17.253,17.253,0,0,1,5.761-3.17,28.729,28.729,0,0,1,6.47-1.143,14.871,14.871,0,0,1,2.714-.078" transform="translate(-5.29 -28.254)" fill="#263238"/>
        <path id="Trazado_729978" data-name="Trazado 729978" d="M66.794,357.4c-.14-.079,1.07-1.927,2.007-4.411.881-2.507,1.087-4.706,1.244-4.68A4.225,4.225,0,0,1,70,349.746a15.451,15.451,0,0,1-.783,3.392,16.478,16.478,0,0,1-1.556,3.111,4.331,4.331,0,0,1-.868,1.149" transform="translate(-5.357 -27.94)" fill="#263238"/>
        <path id="Trazado_729979" data-name="Trazado 729979" d="M89.362,316.69a1.969,1.969,0,0,1-.43.228l-1.261.573c-.553.237-1.223.537-1.978.936s-1.643.794-2.564,1.347l-1.463.832c-.508.292-1.01.639-1.544.973-1.08.655-2.161,1.462-3.314,2.284a56.881,56.881,0,0,0-12.765,13.209c-.784,1.182-1.553,2.29-2.17,3.391-.316.545-.646,1.06-.92,1.577l-.782,1.491c-.522.94-.894,1.838-1.259,2.609s-.649,1.45-.867,2.01l-.53,1.279a2.016,2.016,0,0,1-.213.437,2.026,2.026,0,0,1,.13-.467c.12-.346.269-.78.453-1.312.194-.572.449-1.265.8-2.046s.7-1.7,1.206-2.651q.366-.724.762-1.514c.268-.524.592-1.046.9-1.6.608-1.118,1.37-2.241,2.15-3.437a54.761,54.761,0,0,1,12.858-13.3c1.169-.82,2.266-1.621,3.361-2.266.543-.33,1.052-.671,1.567-.958l1.487-.813c.936-.538,1.836-.924,2.608-1.3s1.452-.657,2.017-.87l1.3-.5a1.945,1.945,0,0,1,.463-.145" transform="translate(-4.596 -25.404)" fill="#263238"/>
        <path id="Trazado_729980" data-name="Trazado 729980" d="M71.314,330.377a3.09,3.09,0,0,1,1.054-1.569,6.657,6.657,0,0,1,4.248-1.631,11.617,11.617,0,0,1,4.47.874,6.406,6.406,0,0,1,1.691.821,10.6,10.6,0,0,1-1.794-.524,13.451,13.451,0,0,0-4.352-.727,6.92,6.92,0,0,0-4.058,1.423,12.759,12.759,0,0,0-1.258,1.333" transform="translate(-5.72 -26.245)" fill="#263238"/>
        <path id="Trazado_729981" data-name="Trazado 729981" d="M68.2,333.171a11.339,11.339,0,0,0,.935-8.021,2.6,2.6,0,0,1,.5,1.143,8.109,8.109,0,0,1-.686,5.879c-.374.679-.705,1.028-.748,1" transform="translate(-5.47 -26.083)" fill="#263238"/>
        <path id="Trazado_729982" data-name="Trazado 729982" d="M34.255,377.127c.661,11.724,4.194,23.647,9.627,35.7h23.63c5.183-11.935,8.471-23.84,9.056-35.7Z" transform="translate(-2.748 -30.252)" fill="#455a64"/>
        <path id="Trazado_729983" data-name="Trazado 729983" d="M73.064,397.733c0,.122-7.78.222-17.376.222s-17.377-.1-17.377-.222,7.779-.222,17.377-.222,17.376.1,17.376.222" transform="translate(-3.073 -31.887)" fill="#fafafa"/>
        <path id="Trazado_729984" data-name="Trazado 729984" d="M72.68,402.351c0,.122-7.294.222-16.289.222s-16.29-.1-16.29-.222,7.292-.222,16.29-.222,16.289.1,16.289.222" transform="translate(-3.217 -32.258)" fill="#fafafa"/>
      </g>
    </g>
    <path id="Trazado_729985" data-name="Trazado 729985" d="M236.443,164.716H29.569V1.136l207-.39Z" transform="translate(-2.372 -0.06)" fill="#fafafa"/>
    <g id="Grupo_1030984" data-name="Grupo 1030984">
      <g id="Grupo_1030983" data-name="Grupo 1030983" clip-path="url(#clip-path)">
        <path id="Trazado_729986" data-name="Trazado 729986" d="M236.42,164.7c0-1.528-.039-65.619-.1-163.97l.223.179L29.871,1.328h-.325L29.8,1.12c-.013,59.84-.025,115.952-.034,163.58l-.224-.18,206.874.18-206.874.18h-.224v-.18C29.313,117.073,29.3,60.96,29.288,1.12V.913h.582L236.545.551h.223V.73c-.209,98.351-.345,162.443-.348,163.97" transform="translate(-2.349 -0.044)" fill="#263238"/>
        <path id="Trazado_729987" data-name="Trazado 729987" d="M223.661,153.965s-.241.019-.711.029l-2.088.028-8.029.053-29.528.09-97.417.083-42.012-.014h-.27v-.27c.041-27.833.076-51.77.1-68.769.033-8.477.06-15.223.078-19.87.019-2.3.034-4.077.044-5.3.009-.589.017-1.041.023-1.368.007-.307.023-.464.023-.464s.016.156.023.464c.006.327.014.779.023,1.368.01,1.225.025,3,.044,5.3.018,4.647.045,11.393.078,19.87.025,17,.06,40.937.1,68.769l-.269-.27,42.012-.014,97.417.083,29.528.09,8.029.053,2.088.029c.47.009.711.029.711.029" transform="translate(-3.498 -4.668)" fill="#263238"/>
        <rect id="Rectángulo_351091" data-name="Rectángulo 351091" width="18.161" height="18.161" transform="translate(54.989 125.637)" fill="#ffa031"/>
        <rect id="Rectángulo_351092" data-name="Rectángulo 351092" width="18.161" height="31.144" transform="translate(81.614 112.654)" fill="#eecda6"/>
        <rect id="Rectángulo_351093" data-name="Rectángulo 351093" width="18.161" height="45.893" transform="translate(108.344 97.905)" fill="#ffa031"/>
        <rect id="Rectángulo_351094" data-name="Rectángulo 351094" width="18.161" height="62.309" transform="translate(134.258 81.489)" fill="#eecda6"/>
        <rect id="Rectángulo_351095" data-name="Rectángulo 351095" width="18.161" height="83.33" transform="translate(160.774 60.467)" fill="#ffa031"/>
        <rect id="Rectángulo_351096" data-name="Rectángulo 351096" width="18.161" height="98.499" transform="translate(187.092 44.437)" fill="#eecda6"/>
        <path id="Trazado_729988" data-name="Trazado 729988" d="M59.786,109.238a1.332,1.332,0,0,1,.232-.178l.707-.487,2.767-1.852L73.9,99.859l36.038-23.553.418-.272v.5c0,2.572,0,5.325.006,8.128l-.431-.23,14.2-9.523,50.115-33.483,15.223-10.093,4.155-2.72,1.089-.7a2.693,2.693,0,0,1,.381-.222,2.464,2.464,0,0,1-.349.269l-1.058.742-4.095,2.808L174.471,41.759l-50.023,33.62L110.24,84.893l-.432.29v-.521c0-2.8,0-5.556.007-8.128l.418.226L74.084,100.144l-10.493,6.729-2.815,1.778-.733.449a1.384,1.384,0,0,1-.257.139" transform="translate(-4.796 -2.222)" fill="#263238"/>
        <path id="Trazado_729989" data-name="Trazado 729989" d="M206.1,35.353a9.327,9.327,0,0,1-.192-2.24c-.051-1.39-.084-3.322-.09-5.488l.282.282h-.694c-2.326,0-4.432-.032-5.956-.083a10.775,10.775,0,0,1-2.467-.2,10.775,10.775,0,0,1,2.467-.2c1.524-.051,3.629-.083,5.956-.083h.978v.281c-.006,2.166-.04,4.1-.09,5.488a9.324,9.324,0,0,1-.192,2.24" transform="translate(-15.802 -2.193)" fill="#263238"/>
        <path id="Trazado_729990" data-name="Trazado 729990" d="M62.961,51.937s-2.194,20.052.626,31.032L90.381,81.8s-5.741-19.781-2.216-28.544Z" transform="translate(-4.985 -4.166)" fill="#ebebeb"/>
        <path id="Trazado_729991" data-name="Trazado 729991" d="M63.148,51.236s.184,21.65,1.284,28.255l27.155-1.284S89.2,56.924,90.119,51.236Z" transform="translate(-5.066 -4.11)" fill="#ffa031"/>
        <path id="Trazado_729992" data-name="Trazado 729992" d="M86.433,61.12c.006.1-4.068.426-9.1.728s-9.116.467-9.122.367,4.068-.426,9.1-.728,9.115-.467,9.121-.367" transform="translate(-5.472 -4.901)" fill="#fff"/>
        <path id="Trazado_729993" data-name="Trazado 729993" d="M86.441,66.105c.006.1-4.068.426-9.1.728s-9.116.467-9.122.368,4.067-.427,9.1-.729,9.115-.467,9.121-.367" transform="translate(-5.472 -5.3)" fill="#fff"/>
        <path id="Trazado_729994" data-name="Trazado 729994" d="M82.106,71a6.408,6.408,0,0,1-1.513.219c-.937.09-2.233.189-3.667.274s-2.732.144-3.674.168a6.415,6.415,0,0,1-1.528-.037,6.478,6.478,0,0,1,1.512-.22c.938-.088,2.234-.187,3.668-.273s2.732-.144,3.674-.168A6.477,6.477,0,0,1,82.106,71" transform="translate(-5.754 -5.691)" fill="#fff"/>
        <path id="Trazado_729995" data-name="Trazado 729995" d="M130.661,24.358c0,.156-15.883.283-35.47.283s-35.473-.127-35.473-.283,15.879-.283,35.473-.283,35.47.127,35.47.283" transform="translate(-4.79 -1.931)" fill="#263238"/>
        <path id="Trazado_729996" data-name="Trazado 729996" d="M85.719,31.388c0,.156-5.956.283-13.3.283s-13.3-.127-13.3-.283,5.955-.283,13.3-.283,13.3.127,13.3.283" transform="translate(-4.742 -2.495)" fill="#263238"/>
        <path id="Trazado_729997" data-name="Trazado 729997" d="M102.511,31.388a23.458,23.458,0,0,1-5.128.283,23.441,23.441,0,0,1-5.126-.283,23.441,23.441,0,0,1,5.126-.283,23.458,23.458,0,0,1,5.128.283" transform="translate(-7.401 -2.495)" fill="#263238"/>
      </g>
    </g>
    <g id="Grupo_1030998" data-name="Grupo 1030998">
      <g id="Grupo_1030997" data-name="Grupo 1030997" clip-path="url(#clip-path)">
        <path id="Trazado_729998" data-name="Trazado 729998" d="M321.644,363.18l23.327,19.132-23.655,29.143c-2.645-2.43,4-22.043,4-22.043L309.87,377.767Z" transform="translate(-24.857 -29.134)" fill="#ffa031"/>
        <g id="Grupo_1030987" data-name="Grupo 1030987" transform="translate(305.936 349.98)" opacity="0.6">
          <g id="Grupo_1030986" data-name="Grupo 1030986">
            <g id="Grupo_1030985" data-name="Grupo 1030985" clip-path="url(#clip-path-7)">
              <path id="Trazado_729999" data-name="Trazado 729999" d="M333.195,380.765a1.533,1.533,0,0,1,2.026.28,1.474,1.474,0,0,1-.259,2.011,1.616,1.616,0,0,1-2.144-.307,1.528,1.528,0,0,1,.5-2.061" transform="translate(-332.618 -380.503)" fill="#fff"/>
            </g>
          </g>
        </g>
        <g id="Grupo_1030990" data-name="Grupo 1030990" transform="translate(295.888 351.157)" opacity="0.6">
          <g id="Grupo_1030989" data-name="Grupo 1030989">
            <g id="Grupo_1030988" data-name="Grupo 1030988" clip-path="url(#clip-path-8)">
              <path id="Trazado_730000" data-name="Trazado 730000" d="M345.828,383.726l-2.347-1.943L321.8,410.675s-.476,1.76.56,2.347Z" transform="translate(-321.694 -381.783)" fill="#fff"/>
            </g>
          </g>
        </g>
        <path id="Trazado_730001" data-name="Trazado 730001" d="M326.085,391.939c.146.111.788-.548,1.814-.877,1.017-.355,1.927-.216,1.977-.393.079-.154-.944-.632-2.179-.212s-1.767,1.406-1.611,1.482" transform="translate(-26.156 -31.308)" fill="#263238"/>
        <path id="Trazado_730002" data-name="Trazado 730002" d="M324.763,396.443c.111.144.854-.275,1.848-.27.994-.024,1.744.383,1.853.235.131-.115-.623-.89-1.859-.873s-1.976.795-1.842.908" transform="translate(-26.051 -31.729)" fill="#263238"/>
        <path id="Trazado_730003" data-name="Trazado 730003" d="M326.918,401.53c.135-.1-.415-.88-1.491-1.147s-1.926.146-1.857.3c.052.176.821.083,1.7.316.885.212,1.518.658,1.646.528" transform="translate(-25.956 -32.111)" fill="#263238"/>
        <path id="Trazado_730004" data-name="Trazado 730004" d="M322.574,388.517c.178.046.512-.766,1.22-1.527.692-.774,1.47-1.181,1.408-1.354-.036-.167-1.059.017-1.88.924s-.916,1.936-.748,1.956" transform="translate(-25.871 -30.93)" fill="#263238"/>
        <path id="Trazado_730005" data-name="Trazado 730005" d="M319.4,384.446c.058.05.6-.441,1.177-1.466a8.445,8.445,0,0,0,.77-1.908,8.914,8.914,0,0,0,.236-1.2,2.325,2.325,0,0,0,.014-.719.8.8,0,0,0-.7-.68,1,1,0,0,0-.831.359,2.432,2.432,0,0,0-.369.609,6.731,6.731,0,0,0-.425,1.161,6.645,6.645,0,0,0-.21,2.062,3.137,3.137,0,0,0,.489,1.821c.1-.027-.079-.717-.038-1.825a7.518,7.518,0,0,1,.323-1.9,7.031,7.031,0,0,1,.422-1.048c.169-.374.38-.639.581-.606.076.014.1.027.138.165a1.85,1.85,0,0,1-.013.527,9.628,9.628,0,0,1-.185,1.129,10.38,10.38,0,0,1-.6,1.851,12.889,12.889,0,0,0-.773,1.665" transform="translate(-25.594 -30.36)" fill="#263238"/>
        <path id="Trazado_730006" data-name="Trazado 730006" d="M319.319,384.681c.063-.032-.218-.728-1.1-1.53a6.091,6.091,0,0,0-2.947-1.445,1.555,1.555,0,0,0-1.493.333.878.878,0,0,0-.088.94,2.584,2.584,0,0,0,.414.584,4.186,4.186,0,0,0,.982.8,4.317,4.317,0,0,0,2.013.6,2.423,2.423,0,0,0,1.831-.463,15.452,15.452,0,0,1-1.79.014,4.329,4.329,0,0,1-1.746-.651,3.9,3.9,0,0,1-.822-.712c-.272-.3-.428-.615-.3-.706a1.081,1.081,0,0,1,.893-.122,6.3,6.3,0,0,1,1.084.281,6.762,6.762,0,0,1,1.686.9c.888.655,1.3,1.239,1.381,1.179" transform="translate(-25.156 -30.615)" fill="#263238"/>
        <path id="Trazado_730007" data-name="Trazado 730007" d="M330.653,383.141l-.282,30.168-37.535-.159c.235-3.584,19.684-10.7,19.684-10.7l-.613-19.336Z" transform="translate(-23.491 -30.732)" fill="#ffa031"/>
        <g id="Grupo_1030993" data-name="Grupo 1030993" transform="translate(298.803 370.074)" opacity="0.6">
          <g id="Grupo_1030992" data-name="Grupo 1030992">
            <g id="Grupo_1030991" data-name="Grupo 1030991" clip-path="url(#clip-path-9)">
              <path id="Trazado_730008" data-name="Trazado 730008" d="M326.7,402.414a1.532,1.532,0,0,1,1.052,1.754,1.474,1.474,0,0,1-1.729,1.059,1.618,1.618,0,0,1-1.1-1.863,1.529,1.529,0,0,1,1.921-.9" transform="translate(-324.863 -402.349)" fill="#fff"/>
            </g>
          </g>
        </g>
        <g id="Grupo_1030996" data-name="Grupo 1030996" transform="translate(269.334 379.409)" opacity="0.6">
          <g id="Grupo_1030995" data-name="Grupo 1030995">
            <g id="Grupo_1030994" data-name="Grupo 1030994" clip-path="url(#clip-path-10)">
              <path id="Trazado_730009" data-name="Trazado 730009" d="M330.375,415.545l.042-3.046-36.1,1.224s-1.669.73-1.478,1.908Z" transform="translate(-292.824 -412.499)" fill="#fff"/>
            </g>
          </g>
        </g>
        <path id="Trazado_730010" data-name="Trazado 730010" d="M313.575,403.909c.005.183.922.27,1.821.864.914.569,1.376,1.366,1.545,1.293.168-.035-.1-1.131-1.2-1.83s-2.2-.495-2.165-.327" transform="translate(-25.154 -32.387)" fill="#263238"/>
        <path id="Trazado_730011" data-name="Trazado 730011" d="M309.288,405.67c-.043.178.75.493,1.369,1.27.642.76.8,1.6.979,1.591.172.029.3-1.043-.485-2s-1.858-1.04-1.863-.866" transform="translate(-24.81 -32.536)" fill="#263238"/>
        <path id="Trazado_730012" data-name="Trazado 730012" d="M306.708,410.512c.166.04.425-.875-.041-1.881s-1.322-1.408-1.4-1.256c-.1.151.45.692.82,1.523.39.822.439,1.6.621,1.614" transform="translate(-24.487 -32.676)" fill="#263238"/>
        <path id="Trazado_730013" data-name="Trazado 730013" d="M313.954,399.059c.076.167.918-.082,1.954-.007,1.038.054,1.842.4,1.938.248.107-.132-.677-.814-1.9-.885s-2.082.5-1.993.644" transform="translate(-25.184 -31.959)" fill="#263238"/>
        <path id="Trazado_730014" data-name="Trazado 730014" d="M314.948,394.016a3.525,3.525,0,0,0,1.88,0,8.443,8.443,0,0,0,1.969-.6,8.871,8.871,0,0,0,1.082-.568,2.3,2.3,0,0,0,.569-.441.8.8,0,0,0,.088-.974,1,1,0,0,0-.8-.422,2.424,2.424,0,0,0-.706.094,6.681,6.681,0,0,0-1.171.4,6.608,6.608,0,0,0-1.737,1.13c-.875.8-1.175,1.485-1.112,1.521.083.061.509-.511,1.4-1.173a7.481,7.481,0,0,1,1.68-.937,6.9,6.9,0,0,1,1.081-.328c.4-.1.736-.1.837.073.037.068.041.095-.042.211a1.852,1.852,0,0,1-.418.321,9.8,9.8,0,0,1-1,.563,10.306,10.306,0,0,1-1.82.689,13.039,13.039,0,0,0-1.782.442" transform="translate(-25.264 -31.366)" fill="#263238"/>
        <path id="Trazado_730015" data-name="Trazado 730015" d="M314.992,394.044a2.994,2.994,0,0,0,.5-1.814,6.083,6.083,0,0,0-.721-3.2,1.555,1.555,0,0,0-1.195-.954.88.88,0,0,0-.788.521,2.521,2.521,0,0,0-.195.689,4.146,4.146,0,0,0-.007,1.266,4.33,4.33,0,0,0,.795,1.945c.729.976,1.494,1.2,1.509,1.136.062-.091-.576-.448-1.133-1.385a4.307,4.307,0,0,1-.587-1.769,3.872,3.872,0,0,1,.039-1.086c.061-.4.212-.72.361-.679.187,0,.5.3.655.619a6.293,6.293,0,0,1,.462,1.021,6.771,6.771,0,0,1,.356,1.877c.047,1.1-.152,1.787-.052,1.816" transform="translate(-25.072 -31.13)" fill="#263238"/>
        <path id="Trazado_730016" data-name="Trazado 730016" d="M328.949,193.2s5.259,5.633,7.843,11.03,4.236,18.276,4.236,18.276,7.264,16.179,6.161,24.457-8.5,64.889-8.5,64.889.365,55.035-4.874,64.847l-1.169,5.3-21.16-3.756-1.188-2.91L307.072,267.15l-13.188-73.458Z" transform="translate(-23.575 -15.498)" fill="#636363"/>
        <path id="Trazado_730017" data-name="Trazado 730017" d="M321.521,215.32a2.854,2.854,0,0,0,.14-.86c.062-.556.1-1.367.112-2.367a68.519,68.519,0,0,0-.464-7.79c-.344-2.944-.654-5.606-.9-7.734a25.879,25.879,0,0,0-.413-3.2,16.524,16.524,0,0,0,.052,3.233c.128,1.993.427,4.734.753,7.755s.548,5.755.611,7.74.029,3.216.11,3.222" transform="translate(-25.665 -15.512)" fill="#455a64"/>
        <path id="Trazado_730018" data-name="Trazado 730018" d="M317.391,202.306a21.327,21.327,0,0,0,1.175-8.88,34.421,34.421,0,0,0-.624,4.436,34.576,34.576,0,0,0-.551,4.444" transform="translate(-25.458 -15.516)" fill="#455a64"/>
        <path id="Trazado_730019" data-name="Trazado 730019" d="M302.619,198.181c.089.031.06-.692.815-1.219a1.565,1.565,0,0,1,1.45-.147,1.5,1.5,0,0,1-.049,2.808,1.56,1.56,0,0,1-1.443-.2c-.737-.552-.682-1.274-.773-1.245-.029,0-.083.154-.051.446a1.731,1.731,0,0,0,.6,1.083,1.9,1.9,0,0,0,1.822.359,1.955,1.955,0,0,0,.063-3.695,1.9,1.9,0,0,0-1.833.3,1.73,1.73,0,0,0-.635,1.062c-.042.291.006.449.035.448" transform="translate(-24.271 -15.744)" fill="#455a64"/>
        <path id="Trazado_730020" data-name="Trazado 730020" d="M309.842,328.138a2.537,2.537,0,0,0-.037.59c0,.442,0,1-.006,1.692,0,1.469.038,3.595.1,6.22.122,5.253.412,12.5.756,20.509s.582,15.257.693,20.507c.052,2.574.094,4.681.125,6.217.019.689.035,1.249.048,1.691a2.586,2.586,0,0,0,.051.59,2.575,2.575,0,0,0,.052-.59c.013-.442.029-1,.048-1.691.035-1.469.047-3.6.039-6.222-.018-5.255-.2-12.513-.544-20.523-.352-7.974-.671-15.192-.905-20.5-.109-2.573-.2-4.679-.262-6.214-.037-.688-.066-1.247-.089-1.689a2.618,2.618,0,0,0-.066-.589" transform="translate(-24.851 -26.323)" fill="#455a64"/>
        <path id="Trazado_730021" data-name="Trazado 730021" d="M277.795,208.116s-10.412,70.84-11.528,82.933,41.948,75.832,41.948,75.832l19.693-20.506-28.262-52.536,9.186-52.945-12.779-46.781-16.623-.252Z" transform="translate(-21.358 -15.551)" fill="#636363"/>
        <path id="Trazado_730022" data-name="Trazado 730022" d="M337.756,363.253a14.48,14.48,0,0,1-.151,1.54c-.13,1.01-.378,2.494-.729,4.41-.7,3.834-1.845,9.392-3.378,16.335l-.031.144-.147-.026-21.168-3.709-.16-.028-.006-.164c-.589-14.523-1.292-31.882-2.047-50.5-.781-20.03-1.506-38.6-2.1-53.84l0,.018c-1.587-12.241-2.9-22.364-3.816-29.447-.443-3.518-.791-6.281-1.03-8.185-.11-.927-.2-1.645-.256-2.15-.055-.487-.068-.74-.068-.74s.053.247.127.731q.11.756.314,2.143c.264,1.9.648,4.659,1.137,8.171.958,7.078,2.327,17.193,3.983,29.424l0,.009v.009c.618,15.236,1.372,33.807,2.184,53.838.728,18.616,1.405,35.976,1.972,50.5l-.166-.191,21.151,3.8-.178.118c1.573-6.931,2.76-12.479,3.515-16.3.376-1.91.651-3.388.808-4.391.087-.5.135-.884.17-1.141s.066-.387.066-.387" transform="translate(-24.28 -19.005)" fill="#263238"/>
        <path id="Trazado_730023" data-name="Trazado 730023" d="M349.067,109.252a40.966,40.966,0,0,1,9.222,12.2c3.1,6.346,22.03,43.162,19.406,47.163s-10.34,7.4-11.112,7.243-15.273-8.835-15.273-8.835-9.029-28.793-9.125-28.862,6.883-28.908,6.883-28.908" transform="translate(-27.449 -8.764)" fill="#e0e0e0"/>
        <path id="Trazado_730024" data-name="Trazado 730024" d="M269.339,162.491s-3.559,53.219-3.155,56.018,7.456,16.509,7.456,16.509l4.719-16.067-3.849-7.8,6.232-43.846Z" transform="translate(-21.35 -13.035)" fill="#b78876"/>
        <path id="Trazado_730025" data-name="Trazado 730025" d="M293.873,105.015l7.57-1.177s-.353,13.542,11.378,14.029c13.327.553,15.591-13.685,15.591-13.685s12.894,2.373,15.228,4.541-8.819,58.99-8.819,58.99l1.072,36.684s-14.279,7.171-30.984,7.337a36.533,36.533,0,0,1-26.378-10.839l-3.084-7.959,5.836-29.392Z" transform="translate(-22.096 -8.33)" fill="#e8e8e8"/>
        <path id="Trazado_730026" data-name="Trazado 730026" d="M293.284,105.394s-9.338,2.773-12.172,6.556-13.007,47.136-13.007,47.136l12.59,4.836Z" transform="translate(-21.507 -8.454)" fill="#e8e8e8"/>
        <path id="Trazado_730027" data-name="Trazado 730027" d="M288.215,121.27a1.7,1.7,0,0,1-.032.465L288,123.052c-.188,1.213-.441,2.846-.75,4.83-.644,4.145-1.515,9.743-2.476,15.932-.911,6.2-1.734,11.8-2.344,15.954-.292,1.987-.533,3.621-.711,4.835-.086.525-.155.958-.213,1.313a1.715,1.715,0,0,1-.107.453,1.711,1.711,0,0,1,.011-.465c.033-.358.074-.795.124-1.324.118-1.149.309-2.808.56-4.857.5-4.1,1.265-9.75,2.206-15.98s1.886-11.852,2.616-15.916c.365-2.032.673-3.674.9-4.806l.272-1.3a1.693,1.693,0,0,1,.127-.448" transform="translate(-22.572 -9.728)" fill="#263238"/>
        <path id="Trazado_730028" data-name="Trazado 730028" d="M321.237,145.984a8.32,8.32,0,0,1-.829,1.193c-.552.755-1.406,1.806-2.509,3.063a64.492,64.492,0,0,1-20.772,15.609c-1.514.709-2.761,1.237-3.64,1.557a8.5,8.5,0,0,1-1.376.464,8.325,8.325,0,0,1,1.3-.636c.854-.373,2.076-.946,3.563-1.69a71.66,71.66,0,0,0,20.669-15.531c1.129-1.221,2.02-2.235,2.615-2.952a8.4,8.4,0,0,1,.974-1.076" transform="translate(-23.432 -11.71)" fill="#263238"/>
        <path id="Trazado_730029" data-name="Trazado 730029" d="M287.472,122.747c-.056.127-1.793-.548-3.994-1.165s-4.031-.958-4.013-1.1a17.066,17.066,0,0,1,8.007,2.262" transform="translate(-22.418 -9.662)" fill="#455a64"/>
        <path id="Trazado_730030" data-name="Trazado 730030" d="M343.684,127.746a2.568,2.568,0,0,1-.568.008l-1.623-.071-5.963-.347L315.87,126.01c-7.673-.6-14.619-1.071-19.658-1.175-2.518-.063-4.557-.068-5.966-.059l-1.623,0a2.537,2.537,0,0,1-.568-.029,2.514,2.514,0,0,1,.564-.068c.371-.026.917-.068,1.622-.095,1.409-.066,3.452-.112,5.976-.093,5.051.017,12.016.432,19.689,1.036L335.555,127l5.952.5,1.616.16a2.568,2.568,0,0,1,.561.088" transform="translate(-23.107 -9.986)" fill="#455a64"/>
        <path id="Trazado_730031" data-name="Trazado 730031" d="M285.366,133.882a45.031,45.031,0,0,1-9.193-1.227,45.031,45.031,0,0,1,9.193,1.227" transform="translate(-22.154 -10.638)" fill="#455a64"/>
        <path id="Trazado_730032" data-name="Trazado 730032" d="M340.734,143.887a2.487,2.487,0,0,1-.559.008l-1.6-.071c-1.387-.074-3.393-.192-5.871-.365-4.952-.351-11.8-.909-19.3-2.054-3.752-.566-7.3-1.253-10.524-1.865s-6.134-1.106-8.594-1.393-4.462-.4-5.847-.433-2.153-.012-2.155-.056a2.453,2.453,0,0,1,.556-.063c.365-.026.9-.064,1.6-.067a49.188,49.188,0,0,1,5.884.283c2.477.245,5.406.707,8.637,1.3s6.773,1.261,10.516,1.826c7.482,1.142,14.313,1.752,19.256,2.19l5.857.516,1.591.161a2.428,2.428,0,0,1,.553.088" transform="translate(-22.965 -11.032)" fill="#455a64"/>
        <path id="Trazado_730033" data-name="Trazado 730033" d="M308.289,157.874a3.872,3.872,0,0,1-.981-.017c-.628-.042-1.536-.122-2.655-.235-2.24-.224-5.328-.587-8.731-1.059s-6.473-.967-8.689-1.361c-1.107-.2-2-.368-2.619-.5a3.826,3.826,0,0,1-.949-.25,3.911,3.911,0,0,1,.98.066l2.642.349,8.7,1.221,8.7,1.2,2.636.385a3.9,3.9,0,0,1,.96.2" transform="translate(-22.755 -12.389)" fill="#455a64"/>
        <path id="Trazado_730034" data-name="Trazado 730034" d="M339.323,164.981a6.072,6.072,0,0,1-1.235-.047c-.884-.079-2.006-.182-3.346-.3-2.823-.278-6.718-.694-11.018-1.183s-8.191-.959-11-1.323l-3.329-.456a5.9,5.9,0,0,1-1.214-.232,6.11,6.11,0,0,1,1.233.048c.885.079,2.006.182,3.346.3,2.823.277,6.72.694,11.021,1.183s8.191.958,11,1.323l3.328.455a6.042,6.042,0,0,1,1.213.232" transform="translate(-24.721 -12.949)" fill="#455a64"/>
        <path id="Trazado_730035" data-name="Trazado 730035" d="M335.69,181.48a2.506,2.506,0,0,1-.561-.058l-1.593-.26-5.843-1.022c-4.932-.854-11.749-2.055-19.344-2.819-3.8-.381-7.428-.6-10.733-.669s-6.288.006-8.795-.019-4.537-.115-5.934-.238c-.7-.065-1.241-.123-1.606-.178a2.511,2.511,0,0,1-.555-.1,2.488,2.488,0,0,1,.564.006l1.609.087c1.4.066,3.421.115,5.922.086s5.483-.129,8.8-.084,6.964.252,10.773.634c7.619.766,14.439,2.023,19.358,2.963,2.46.475,4.446.881,5.817,1.172l1.576.348a2.529,2.529,0,0,1,.544.154" transform="translate(-22.519 -14.127)" fill="#455a64"/>
        <path id="Trazado_730036" data-name="Trazado 730036" d="M335.679,200.241a2.847,2.847,0,0,1-.592.112c-.39.066-.969.131-1.719.184a35.661,35.661,0,0,1-6.352-.178c-5.36-.539-12.525-2.459-20.6-3.647-8.066-1.265-15.41-2.18-20.7-3.006a59.245,59.245,0,0,1-6.247-1.142,12.316,12.316,0,0,1-1.634-.571,2.408,2.408,0,0,1-.536-.278,3.59,3.59,0,0,1,.572.188,16.531,16.531,0,0,0,1.645.481c1.446.361,3.6.617,6.248.987,5.3.74,12.648,1.6,20.728,2.869,8.1,1.191,15.261,3.166,20.564,3.783a40.055,40.055,0,0,0,6.3.328c1.493-.043,2.314-.162,2.321-.11" transform="translate(-22.244 -15.379)" fill="#455a64"/>
        <path id="Trazado_730037" data-name="Trazado 730037" d="M283.66,148.33a35.057,35.057,0,0,1-5.747-.762,35.048,35.048,0,0,1-5.665-1.234A35.388,35.388,0,0,1,278,147.1a35.417,35.417,0,0,1,5.664,1.233" transform="translate(-21.839 -11.736)" fill="#455a64"/>
        <path id="Trazado_730038" data-name="Trazado 730038" d="M281.588,162.575c0,.029-.188.075-.53.03a4.734,4.734,0,0,1-1.349-.474l-4.162-2c-3.255-1.549-5.931-2.729-5.88-2.855a7.235,7.235,0,0,1,1.834.582c1.106.426,2.617,1.064,4.251,1.84s3.084,1.542,4.113,2.129a6.919,6.919,0,0,0,1.723.744" transform="translate(-21.632 -12.616)" fill="#455a64"/>
        <path id="Trazado_730039" data-name="Trazado 730039" d="M277.659,206.233a2.842,2.842,0,0,1,.586.124l1.657.43c1.439.368,3.531.869,6.141,1.355s5.74.944,9.234,1.292,7.353.535,11.4.825c8.1.575,15.435.917,20.747.743,2.655-.07,4.8-.241,6.279-.361l1.7-.164a2.828,2.828,0,0,1,.6-.027,2.806,2.806,0,0,1-.586.122c-.387.062-.958.156-1.7.254-1.478.178-3.624.4-6.287.514a188.927,188.927,0,0,1-20.791-.6c-4.045-.289-7.911-.477-11.416-.863s-6.641-.868-9.252-1.4-4.7-1.083-6.127-1.507c-.716-.208-1.265-.39-1.635-.518a2.833,2.833,0,0,1-.558-.217" transform="translate(-22.273 -16.543)" fill="#455a64"/>
        <path id="Trazado_730040" data-name="Trazado 730040" d="M273.2,223.013q4.1,6.137,8.408,12.125c.121.168.274.353.481.352.279,0,.429-.323.489-.594a9.133,9.133,0,0,0-.707-5.216,40.977,40.977,0,0,1-1.9-4.988c-.437-1.8-.423-3.722-1.2-5.4-.42-.908-1-1.737-1.432-2.642a6.189,6.189,0,0,0-3.128-3.171" transform="translate(-21.915 -17.125)" fill="#b78876"/>
        <path id="Trazado_730041" data-name="Trazado 730041" d="M347.255,131.067a9.21,9.21,0,0,1-.183,1.507c-.174,1.044-.4,2.418-.676,4.078-.591,3.44-1.441,8.187-2.409,13.425s-1.871,9.978-2.547,13.4c-.336,1.648-.614,3.013-.826,4.051a9.218,9.218,0,0,1-.366,1.472,9.043,9.043,0,0,1,.184-1.508c.173-1.045.4-2.419.676-4.079.591-3.441,1.44-8.187,2.408-13.424s1.869-9.971,2.546-13.4c.336-1.649.614-3.014.826-4.052a9.245,9.245,0,0,1,.367-1.475" transform="translate(-27.293 -10.514)" fill="#263238"/>
        <path id="Trazado_730042" data-name="Trazado 730042" d="M363.685,134.3a14.259,14.259,0,0,1-2.481.868c-1.55.478-3.7,1.106-6.083,1.771s-4.548,1.242-6.122,1.636a14.258,14.258,0,0,1-2.571.542,14.365,14.365,0,0,1,2.483-.868c1.549-.478,3.7-1.106,6.082-1.771s4.546-1.241,6.118-1.635a14.39,14.39,0,0,1,2.574-.543" transform="translate(-27.79 -10.772)" fill="#455a64"/>
        <path id="Trazado_730043" data-name="Trazado 730043" d="M372.554,152.635a2.811,2.811,0,0,1-.842.5,13.175,13.175,0,0,1-2.531.831c-2.193.481-5.211,1.054-8.525,1.835s-6.3,1.551-8.451,2.127l-2.554.683a3.839,3.839,0,0,1-.953.2,3.776,3.776,0,0,1,.9-.376c.589-.211,1.447-.5,2.514-.83,2.136-.662,5.111-1.5,8.437-2.269s6.375-1.308,8.561-1.7a17.14,17.14,0,0,0,2.532-.671,6.016,6.016,0,0,1,.912-.327" transform="translate(-27.972 -12.244)" fill="#455a64"/>
        <path id="Trazado_730044" data-name="Trazado 730044" d="M354.607,169.023l-13.791,35.987,3.911,15.078,24.827-41.439s-8.868-10.417-14.946-9.626" transform="translate(-27.339 -13.555)" fill="#b78876"/>
        <path id="Trazado_730045" data-name="Trazado 730045" d="M340.028,207.422l-12.255,19.553.281,5.032,15.605,6.615,1.127-18.579Z" transform="translate(-26.293 -16.639)" fill="#b78876"/>
        <path id="Trazado_730046" data-name="Trazado 730046" d="M347.05,242.724c-.044.066-1.271-.793-3.423-1.851-.539-.262-1.138-.531-1.794-.774s-1.388-.418-2.151-.666a50.3,50.3,0,0,1-4.884-1.8c-3.379-1.5-6.348-2.992-8.523-4.043l-2.552-1.283a4.469,4.469,0,0,1-.908-.531,4.446,4.446,0,0,1,.987.361l2.617,1.147,8.568,3.908c1.684.723,3.32,1.331,4.83,1.825.749.257,1.484.442,2.159.716a17.962,17.962,0,0,1,1.8.843,23.576,23.576,0,0,1,2.45,1.493,3.836,3.836,0,0,1,.82.659" transform="translate(-25.895 -18.592)" fill="#263238"/>
        <path id="Trazado_730047" data-name="Trazado 730047" d="M290.467,65.013c-.012-6.366,7.431-17.7,13.792-17.438l16.3,6.986a3.725,3.725,0,0,1,3.571,3.554l1.623,43.393a11.454,11.454,0,0,1-10.928,11.871,11.718,11.718,0,0,1-12.14-10.758c-.212-3.086-.264-6.622-.264-6.607,0,0-8.187-.82-10.55-11.277-1.175-5.2-1.392-12.651-1.4-19.723" transform="translate(-23.301 -3.816)" fill="#b78876"/>
        <path id="Trazado_730048" data-name="Trazado 730048" d="M293.574,74.506a1.358,1.358,0,0,0,1.4,1.283,1.3,1.3,0,0,0,1.318-1.313,1.359,1.359,0,0,0-1.394-1.283,1.3,1.3,0,0,0-1.319,1.313" transform="translate(-23.55 -5.871)" fill="#263238"/>
        <path id="Trazado_730049" data-name="Trazado 730049" d="M292.814,71.136c.179.166,1.157-.66,2.616-.751,1.455-.111,2.574.569,2.721.381.073-.085-.12-.392-.607-.7a3.728,3.728,0,0,0-2.193-.523,3.579,3.579,0,0,0-2.068.819c-.426.373-.557.7-.469.776" transform="translate(-23.487 -5.578)" fill="#263238"/>
        <path id="Trazado_730050" data-name="Trazado 730050" d="M308.626,73.9a1.357,1.357,0,0,0,1.4,1.282,1.3,1.3,0,0,0,1.318-1.313,1.359,1.359,0,0,0-1.394-1.283,1.3,1.3,0,0,0-1.319,1.313" transform="translate(-24.757 -5.823)" fill="#263238"/>
        <path id="Trazado_730051" data-name="Trazado 730051" d="M308.418,70.421c.18.166,1.159-.66,2.616-.751,1.456-.111,2.575.569,2.722.381.073-.085-.118-.392-.608-.7a3.711,3.711,0,0,0-2.192-.523,3.576,3.576,0,0,0-2.068.819c-.425.373-.557.7-.47.776" transform="translate(-24.739 -5.52)" fill="#263238"/>
        <path id="Trazado_730052" data-name="Trazado 730052" d="M303.1,81.63a9.662,9.662,0,0,0-2.4-.274c-.375-.014-.732-.065-.812-.315a1.9,1.9,0,0,1,.177-1.119l.917-2.907c1.267-4.136,2.16-7.528,1.992-7.577s-1.33,3.262-2.6,7.4q-.455,1.529-.87,2.92a2.163,2.163,0,0,0-.1,1.474.94.94,0,0,0,.648.5,2.54,2.54,0,0,0,.637.047,9.542,9.542,0,0,0,2.4-.153" transform="translate(-24.01 -5.57)" fill="#263238"/>
        <path id="Trazado_730053" data-name="Trazado 730053" d="M303.306,99.822a26.94,26.94,0,0,0,13.908-4.694s-3.1,7.485-13.737,7.183Z" transform="translate(-24.331 -7.631)" fill="#aa6550"/>
        <path id="Trazado_730054" data-name="Trazado 730054" d="M304.336,86.371a2.632,2.632,0,0,1,2.293-1.129,2.4,2.4,0,0,1,1.714.781,1.524,1.524,0,0,1,.229,1.731,1.768,1.768,0,0,1-1.881.607,5.535,5.535,0,0,1-1.936-.992,1.612,1.612,0,0,1-.444-.4.489.489,0,0,1-.033-.544" transform="translate(-24.403 -6.838)" fill="#aa6550"/>
        <path id="Trazado_730055" data-name="Trazado 730055" d="M307.783,83.487c-.238,0-.138,1.585-1.42,2.8s-2.979,1.147-2.976,1.369c-.016.1.4.283,1.109.257a3.947,3.947,0,0,0,2.49-1.053,3.441,3.441,0,0,0,1.09-2.338c.017-.666-.185-1.047-.293-1.03" transform="translate(-24.337 -6.697)" fill="#263238"/>
        <path id="Trazado_730056" data-name="Trazado 730056" d="M307.726,65.832c.168.387,1.612.1,3.337.2,1.726.061,3.138.472,3.342.1.09-.177-.175-.534-.757-.882a5.818,5.818,0,0,0-5.09-.23c-.612.294-.908.626-.832.81" transform="translate(-24.684 -5.178)" fill="#263238"/>
        <path id="Trazado_730057" data-name="Trazado 730057" d="M293.1,66.5c.278.315,1.26-.095,2.467-.189,1.2-.136,2.246.078,2.46-.283.092-.175-.091-.5-.558-.781a3.586,3.586,0,0,0-3.969.381c-.4.369-.522.718-.4.873" transform="translate(-23.508 -5.2)" fill="#263238"/>
        <path id="Trazado_730058" data-name="Trazado 730058" d="M301.231,97.993l-.207-2.405s-4.557-1.159-6.986-4.111c-2.859-3.475-4.555-10.688-4-15.153.487-3.916.073-9.279,6.361-10.685,2.792-.624,2.213-5.62,3.65-8.273,1.512-2.791,1.272-3.7,4.39-4.294a33.16,33.16,0,0,1,9.114.1c-.936.766-1.569,1.644-1.418,2.424a19.989,19.989,0,0,0,2.447,4.464,21.712,21.712,0,0,1,3.831,11.006c.279,4.527-.874,9.019-2.31,13.321s-3.34,12.3-4.3,16.733-1.109,13.013,2.1,16.222c5.547,5.555,17.689,2.973,15.318,1.315-3.79-2.268-7.127-4.388-6.311-10.425a8.552,8.552,0,0,0,9.214,5.465A17.151,17.151,0,0,1,329,101.548a8.374,8.374,0,0,0,6.04,2.342,24.862,24.862,0,0,0,6.545-1.1c1.6-.42,3.5-1.132,3.8-2.762.363-1.931-1.793-3.336-3.673-3.9s-4.145-1.168-4.766-3.033c-.694-2.082,1.223-4.163,1.233-6.358.01-2.737-2.754-4.5-4.581-6.537-3.278-3.656-3.778-8.939-4.3-13.822s-1.485-10.219-5.273-13.345a12.633,12.633,0,0,0-2.829-1.638,10.435,10.435,0,0,0-4.158-5.748,18.236,18.236,0,0,0-7.276-2.823,25.23,25.23,0,0,0-15.218,1.691A18.938,18.938,0,0,0,284.427,55.74c-.625,2.029-.888,4.237-2.115,5.969s-3.943,2.681-5.474,1.21a15.138,15.138,0,0,0,1.242,5.982l-2.872-.329a6.977,6.977,0,0,0,4.821,8.239c-1.8,1.622-1.989,4.482-1.1,6.736a18.09,18.09,0,0,0,4.323,5.773,5.556,5.556,0,0,0-4.612,5.831,7.872,7.872,0,0,1,.178,2.58c-.315,1.319-1.681,2.051-2.6,3.05a5.176,5.176,0,0,0,2.229,8.428l1.86.778s1.443-3.276,2.93-4.487,8.157-5,13.16-5.8l5-.8Z" transform="translate(-22.049 -3.397)" fill="#12263f"/>
        <path id="Trazado_730059" data-name="Trazado 730059" d="M327.953,119.15a2.264,2.264,0,0,1-.77.132,4.2,4.2,0,0,1-2.16-.57c-1.745-.933-3.624-3.239-4.861-6.5a12.649,12.649,0,0,1-.659-2.663,12.825,12.825,0,0,1-.009-2.977,18.327,18.327,0,0,1,2.1-6.174c1.057-2.044,2.392-4.045,3.692-6.153a39.806,39.806,0,0,0,3.44-6.813,24.616,24.616,0,0,0,1.661-7.4,19.757,19.757,0,0,0-.174-3.6,18.308,18.308,0,0,0-.873-3.342c-1.609-4.248-4.4-7.392-6.684-9.934l-3.192-3.4a7.256,7.256,0,0,1-1.791-3.048,3.9,3.9,0,0,1,.061-2.231,2.031,2.031,0,0,1,.374-.686c.022.013-.139.235-.281.716a3.935,3.935,0,0,0,.028,2.155,7.185,7.185,0,0,0,1.808,2.916c.934.991,2.061,2.082,3.241,3.345,2.324,2.524,5.175,5.667,6.85,10.01a18.71,18.71,0,0,1,.911,3.426,20.123,20.123,0,0,1,.19,3.694,24.914,24.914,0,0,1-1.682,7.549,39.824,39.824,0,0,1-3.489,6.889c-1.312,2.115-2.647,4.1-3.7,6.111a18.106,18.106,0,0,0-2.093,6.019,11.9,11.9,0,0,0,.593,5.477c1.171,3.2,2.978,5.5,4.635,6.447a4.288,4.288,0,0,0,2.067.636c.5.014.764-.067.771-.035" transform="translate(-25.472 -4.315)" fill="#455a64"/>
        <path id="Trazado_730060" data-name="Trazado 730060" d="M331.75,67.157c-.079.025-.359-1.02-1.1-2.565a11.126,11.126,0,0,0-1.639-2.485,9.43,9.43,0,0,0-2.917-2.141,27.867,27.867,0,0,1-3.293-1.8,6.378,6.378,0,0,1-2.047-2.34,3.677,3.677,0,0,1-.392-2.059,1.474,1.474,0,0,1,.241-.729,6.09,6.09,0,0,1-.055.743,3.825,3.825,0,0,0,.508,1.891,6.358,6.358,0,0,0,2,2.131,32.75,32.75,0,0,0,3.263,1.738,9.442,9.442,0,0,1,3.028,2.275,10.434,10.434,0,0,1,1.614,2.635,13.234,13.234,0,0,1,.671,1.957,2.159,2.159,0,0,1,.125.75" transform="translate(-25.697 -4.254)" fill="#455a64"/>
        <path id="Trazado_730061" data-name="Trazado 730061" d="M277.342,68.566a10.777,10.777,0,0,0,1.868.957,8.55,8.55,0,0,0,5.582.015,10.5,10.5,0,0,0,5.971-5.6,16,16,0,0,0,1.4-4.773,19.215,19.215,0,0,1,1.3-5.32,12.806,12.806,0,0,1,7.859-6.788,14.342,14.342,0,0,1,8.557.181,12.517,12.517,0,0,1,4.97,2.966,7.737,7.737,0,0,1,.99,1.235,1.921,1.921,0,0,1,.259.487,15.2,15.2,0,0,0-1.38-1.588,12.873,12.873,0,0,0-4.944-2.777,14.178,14.178,0,0,0-8.324-.082,12.451,12.451,0,0,0-7.551,6.565,19.059,19.059,0,0,0-1.277,5.195,16.225,16.225,0,0,1-1.466,4.892,10.761,10.761,0,0,1-6.264,5.731,8.539,8.539,0,0,1-5.753-.163,6.338,6.338,0,0,1-1.385-.768,2.367,2.367,0,0,1-.416-.362" transform="translate(-22.248 -3.729)" fill="#455a64"/>
        <path id="Trazado_730062" data-name="Trazado 730062" d="M280.592,105.222c-.014-.048.5-.186,1.366-.568a11.427,11.427,0,0,0,3.3-2.221,12.893,12.893,0,0,0,3.175-4.915,11.119,11.119,0,0,0,.2-7.066c-.762-2.444-2.009-4.685-2.262-7.012a11.088,11.088,0,0,1,.99-5.95,10.689,10.689,0,0,1,2.379-3.3,7.827,7.827,0,0,1,.863-.694c.208-.144.321-.213.331-.2.029.04-.4.349-1.063,1.027a11.381,11.381,0,0,0-2.2,3.309,10.988,10.988,0,0,0-.861,5.756c.258,2.214,1.49,4.408,2.282,6.928a11.412,11.412,0,0,1-.247,7.355,12.889,12.889,0,0,1-3.359,5.013,10.745,10.745,0,0,1-3.458,2.145,6.494,6.494,0,0,1-1.058.327,1.192,1.192,0,0,1-.38.069" transform="translate(-22.508 -5.879)" fill="#455a64"/>
      </g>
    </g>
    <g id="Grupo_1031018" data-name="Grupo 1031018">
      <g id="Grupo_1031017" data-name="Grupo 1031017" clip-path="url(#clip-path)">
        <path id="Trazado_730063" data-name="Trazado 730063" d="M337.828,57.974a18.188,18.188,0,0,1,17.39-17.5l.941-.04c10.173.153,15.725,8.878,15.29,19.042l-.075,40.679s-15.885,9.374-16.491,9.69l-7.089,5.09.082-22.869s-9.82-1.094-10.363-10.841c-.262-4.707-.013-14.445.315-23.256" transform="translate(-27.066 -3.244)" fill="#ffbe9d"/>
        <path id="Trazado_730064" data-name="Trazado 730064" d="M348.7,96.189a23.678,23.678,0,0,0,12.617-4.294s-2.7,7.149-12.47,6.692Z" transform="translate(-27.972 -7.372)" fill="#eb996e"/>
        <path id="Trazado_730065" data-name="Trazado 730065" d="M340.55,67.626a1.394,1.394,0,0,0,1.4,1.347,1.334,1.334,0,0,0,1.382-1.318,1.4,1.4,0,0,0-1.4-1.348,1.334,1.334,0,0,0-1.382,1.319" transform="translate(-27.318 -5.319)" fill="#263238"/>
        <path id="Trazado_730066" data-name="Trazado 730066" d="M340.367,64.454c.18.174,1.2-.653,2.7-.714,1.5-.082,2.63.641,2.784.451.076-.085-.113-.4-.607-.733a3.825,3.825,0,0,0-2.24-.585,3.668,3.668,0,0,0-2.139.795c-.445.373-.587.708-.5.786" transform="translate(-27.301 -5.043)" fill="#263238"/>
        <path id="Trazado_730067" data-name="Trazado 730067" d="M356.714,67.285a1.392,1.392,0,0,0,1.4,1.347,1.333,1.333,0,0,0,1.382-1.318,1.4,1.4,0,0,0-1.4-1.347,1.333,1.333,0,0,0-1.382,1.319" transform="translate(-28.615 -5.292)" fill="#263238"/>
        <path id="Trazado_730068" data-name="Trazado 730068" d="M356.4,64.064c.181.174,1.2-.652,2.7-.714,1.5-.082,2.63.641,2.784.451.076-.085-.112-.4-.608-.732a3.822,3.822,0,0,0-2.239-.586,3.68,3.68,0,0,0-2.14.795c-.443.373-.587.709-.5.786" transform="translate(-28.587 -5.012)" fill="#263238"/>
        <path id="Trazado_730069" data-name="Trazado 730069" d="M350.671,75.45a9.932,9.932,0,0,0-2.453-.334c-.384-.023-.751-.083-.826-.341a1.956,1.956,0,0,1,.206-1.146q.48-1.411,1.006-2.963c1.392-4.217,2.381-7.678,2.211-7.733s-1.437,3.319-2.828,7.537q-.5,1.559-.957,2.978a2.213,2.213,0,0,0-.133,1.51.961.961,0,0,0,.653.533,2.573,2.573,0,0,0,.654.062,9.734,9.734,0,0,0,2.468-.1" transform="translate(-27.82 -5.048)" fill="#263238"/>
        <path id="Trazado_730070" data-name="Trazado 730070" d="M355.451,77.462c-.246,0-.178,1.623-1.52,2.838s-3.082,1.11-3.086,1.338c-.017.1.4.3,1.133.288a4.054,4.054,0,0,0,2.58-1.026,3.539,3.539,0,0,0,1.169-2.376c.032-.682-.166-1.078-.277-1.063" transform="translate(-28.144 -6.214)" fill="#263238"/>
        <path id="Trazado_730071" data-name="Trazado 730071" d="M355.7,57.726c.166.4,1.654.143,3.421.279,1.771.1,3.211.554,3.428.178.1-.179-.167-.552-.758-.922a5.968,5.968,0,0,0-5.218-.349c-.634.288-.945.623-.873.813" transform="translate(-28.533 -4.53)" fill="#263238"/>
        <path id="Trazado_730072" data-name="Trazado 730072" d="M340.76,59.7c.279.329,1.3-.068,2.537-.139,1.237-.113,2.3.13,2.528-.237.1-.177-.081-.511-.555-.813a3.68,3.68,0,0,0-4.082.3c-.423.369-.552.726-.429.886" transform="translate(-27.331 -4.656)" fill="#263238"/>
        <path id="Trazado_730073" data-name="Trazado 730073" d="M373.156,69.025c.164-.079,6.615-2.272,6.691,4.4S373.2,78.8,373.19,78.613s-.034-9.589-.034-9.589" transform="translate(-29.934 -5.504)" fill="#ffbe9d"/>
        <path id="Trazado_730074" data-name="Trazado 730074" d="M374.741,76.274c.029-.022.118.08.315.168a1.167,1.167,0,0,0,.869.007,2.878,2.878,0,0,0,1.3-2.6,3.842,3.842,0,0,0-.345-1.662,1.345,1.345,0,0,0-.885-.883.592.592,0,0,0-.682.327c-.087.188-.044.321-.079.333-.018.017-.144-.11-.094-.387a.746.746,0,0,1,.258-.421.88.88,0,0,1,.641-.177A1.631,1.631,0,0,1,377.269,72a3.948,3.948,0,0,1,.425,1.856,3.019,3.019,0,0,1-1.664,2.9,1.246,1.246,0,0,1-1.066-.165c-.209-.163-.246-.312-.223-.324" transform="translate(-30.06 -5.694)" fill="#eb996e"/>
        <path id="Trazado_730075" data-name="Trazado 730075" d="M365.092,46.99l-27.782,1.76a12.736,12.736,0,0,1,3.891-4.894,21.744,21.744,0,0,1,12.4-5.051c4.531-.266,13.991,4.877,17.405,7.868,2.732,2.394,2.8,4.56,2.8,4.56.567,3.588-1.282,7.769-1.938,11.343-.338,1.842-.91,7.4-.91,7.4h0c-1.532.058-2.151-1.138-1.981-2.662l.041-5.955a8.982,8.982,0,0,1-3.174-10.368c.374-.556,1.118-3.067-.76-4" transform="translate(-27.058 -3.112)" fill="#455a64"/>
        <path id="Trazado_730076" data-name="Trazado 730076" d="M362.1,70.864a.182.182,0,1,0-.135-.2.174.174,0,0,0,.135.2" transform="translate(-29.036 -5.656)" fill="#eb996e"/>
        <path id="Trazado_730077" data-name="Trazado 730077" d="M358.957,70.288a.213.213,0,1,0-.132-.23.19.19,0,0,0,.132.23" transform="translate(-28.784 -5.605)" fill="#eb996e"/>
        <path id="Trazado_730078" data-name="Trazado 730078" d="M356.857,70.316c.091.007.175-.108.187-.256s-.052-.276-.143-.283-.175.107-.187.256.052.276.143.283" transform="translate(-28.615 -5.597)" fill="#eb996e"/>
        <path id="Trazado_730079" data-name="Trazado 730079" d="M360.652,72.9c.091,0,.163-.053.16-.112s-.079-.1-.17-.1-.163.055-.16.113.078.1.17.1" transform="translate(-28.917 -5.831)" fill="#eb996e"/>
        <path id="Trazado_730080" data-name="Trazado 730080" d="M357.769,72.344a.189.189,0,1,0-.157-.195.177.177,0,0,0,.157.195" transform="translate(-28.687 -5.773)" fill="#eb996e"/>
        <path id="Trazado_730081" data-name="Trazado 730081" d="M342.835,71.215A.188.188,0,1,0,342.7,71a.177.177,0,0,0,.135.21" transform="translate(-27.49 -5.683)" fill="#eb996e"/>
        <path id="Trazado_730082" data-name="Trazado 730082" d="M340.7,71.108a.214.214,0,1,0-.155-.217.19.19,0,0,0,.155.217" transform="translate(-27.318 -5.671)" fill="#eb996e"/>
        <path id="Trazado_730083" data-name="Trazado 730083" d="M344.711,71.193a.146.146,0,1,0,.044-.287.146.146,0,1,0-.044.287" transform="translate(-27.641 -5.688)" fill="#eb996e"/>
        <path id="Trazado_730084" data-name="Trazado 730084" d="M343.233,73.376a.194.194,0,1,0-.085-.238.179.179,0,0,0,.085.238" transform="translate(-27.525 -5.857)" fill="#eb996e"/>
        <path id="Trazado_730085" data-name="Trazado 730085" d="M341.4,73.1a.141.141,0,1,0-.2-.083.154.154,0,0,0,.2.083" transform="translate(-27.37 -5.842)" fill="#eb996e"/>
        <path id="Trazado_730086" data-name="Trazado 730086" d="M370.744,46.652a8.23,8.23,0,0,0-8.636-9.881,26.226,26.226,0,0,1-3.87.44c-2.416-.164-4.351-2.016-6.622-2.861a8.482,8.482,0,0,0-9.875,3.412c-.794,1.3-1.285,2.881-2.548,3.73-1.093.734-2.506.735-3.75,1.166a6.194,6.194,0,0,0-3.9,6.3,7.3,7.3,0,0,0,4.692,5.944,8.915,8.915,0,0,0,7.663-.86c2.05-1.254,3.847-3.322,6.249-3.351,2.489-.03,4.758,2.225,7.177,1.638a6.9,6.9,0,0,0,3.112-2.279A5.577,5.577,0,0,1,363.669,48c1.3-.13,2.05,1.63,1.634,2.867Z" transform="translate(-26.594 -2.717)" fill="#12263f"/>
        <path id="Trazado_730087" data-name="Trazado 730087" d="M337.739,45.365a.329.329,0,0,0,.049.1,2.67,2.67,0,0,0,.172.262,4.565,4.565,0,0,0,.835.873,4.935,4.935,0,0,0,1.692.889,4.719,4.719,0,0,0,2.529.047,5,5,0,0,0,2.6-1.623,33.137,33.137,0,0,0,1.8-3.01,3.612,3.612,0,0,1,3.124-1.756,4.2,4.2,0,0,1,1.913.432,3.543,3.543,0,0,1,1.454,1.377c.361.6.629,1.257,1.058,1.836a2.31,2.31,0,0,0,1.826,1.01,3.462,3.462,0,0,0,1.918-.641,7.283,7.283,0,0,0,1.426-1.283,6.19,6.19,0,0,1,2.677-2.077,3.5,3.5,0,0,1,2.82.541,4.812,4.812,0,0,1,1.612,1.837,7.9,7.9,0,0,1,.648,1.763c.123.5.189.9.233,1.174a2.614,2.614,0,0,0,.076.412.366.366,0,0,0,0-.107c0-.071-.009-.176-.024-.312a10.242,10.242,0,0,0-.185-1.19,7.648,7.648,0,0,0-.615-1.809,4.923,4.923,0,0,0-1.641-1.927,3.691,3.691,0,0,0-2.984-.6,6.357,6.357,0,0,0-2.8,2.124,7.089,7.089,0,0,1-1.385,1.237,3.223,3.223,0,0,1-1.771.592,2.041,2.041,0,0,1-1.617-.908c-.4-.538-.668-1.193-1.042-1.814a3.813,3.813,0,0,0-1.563-1.476,4.45,4.45,0,0,0-2.039-.457,3.859,3.859,0,0,0-3.325,1.882,34.7,34.7,0,0,1-1.763,3,4.815,4.815,0,0,1-2.474,1.581,4.6,4.6,0,0,1-2.44-.007,4.942,4.942,0,0,1-1.669-.827,6.324,6.324,0,0,1-1.12-1.148" transform="translate(-27.093 -3.279)" fill="#455a64"/>
        <path id="Trazado_730088" data-name="Trazado 730088" d="M332.256,46.09a1.507,1.507,0,0,0-.091.541,4.25,4.25,0,0,0,.2,1.485,5.17,5.17,0,0,0,1.123,1.92,6.1,6.1,0,0,0,2.265,1.51,9.045,9.045,0,0,0,4.873.349,12.741,12.741,0,0,0,1.444-.351,1.921,1.921,0,0,0,.51-.194c-.012-.044-.757.175-1.985.356a9.433,9.433,0,0,1-4.745-.409,6.066,6.066,0,0,1-2.182-1.43,5.219,5.219,0,0,1-1.125-1.811,5.917,5.917,0,0,1-.291-1.964" transform="translate(-26.645 -3.697)" fill="#455a64"/>
        <path id="Trazado_730089" data-name="Trazado 730089" d="M361.142,377.9l5.362,18.577s-17.081,11.69-16.425,15.22l36.393-9.1L379.3,373.3Z" transform="translate(-28.081 -29.946)" fill="#ffa031"/>
        <path id="Trazado_730090" data-name="Trazado 730090" d="M379.614,393.721a1.532,1.532,0,0,1,1.452,1.439,1.473,1.473,0,0,1-1.414,1.452,1.617,1.617,0,0,1-1.53-1.532,1.527,1.527,0,0,1,1.637-1.347" transform="translate(-30.332 -31.582)" fill="#e0e0e0"/>
        <g id="Grupo_1031001" data-name="Grupo 1031001" transform="translate(321.905 369.722)" opacity="0.6">
          <g id="Grupo_1031000" data-name="Grupo 1031000">
            <g id="Grupo_1030999" data-name="Grupo 1030999" clip-path="url(#clip-path-12)">
              <path id="Trazado_730091" data-name="Trazado 730091" d="M386.466,404.891l-.838-2.924-34.58,9.822s-1.443,1.11-.975,2.206Z" transform="translate(-349.98 -401.967)" fill="#fff"/>
            </g>
          </g>
        </g>
        <path id="Trazado_730092" data-name="Trazado 730092" d="M367.247,398.423c.051.177.959.035,1.977.387,1.026.327,1.669.983,1.816.872.155-.075-.375-1.072-1.615-1.477s-2.256.064-2.177.218" transform="translate(-29.459 -31.93)" fill="#263238"/>
        <path id="Trazado_730093" data-name="Trazado 730093" d="M363.526,401.2c0,.182.848.292,1.639.892.809.578,1.165,1.352,1.34,1.3.174-.014.037-1.085-.962-1.814s-2.056-.549-2.017-.379" transform="translate(-29.161 -32.171)" fill="#263238"/>
        <path id="Trazado_730094" data-name="Trazado 730094" d="M362.222,406.529c.171,0,.2-.952-.5-1.811s-1.627-1.038-1.666-.872c-.063.171.606.558,1.17,1.273.58.7.819,1.437,1,1.41" transform="translate(-28.882 -32.391)" fill="#263238"/>
        <path id="Trazado_730095" data-name="Trazado 730095" d="M366.428,393.6c.115.143.869-.306,1.89-.489,1.018-.2,1.884-.062,1.939-.237.07-.155-.857-.621-2.058-.389s-1.894,1-1.771,1.116" transform="translate(-29.393 -31.479)" fill="#263238"/>
        <path id="Trazado_730096" data-name="Trazado 730096" d="M374.348,383.039l.844,19.317s-19.351,7.345-19.543,10.931l37.513-.292-.081-30.152Z" transform="translate(-28.529 -30.711)" fill="#ffa031"/>
        <path id="Trazado_730097" data-name="Trazado 730097" d="M389.336,402.187a1.534,1.534,0,0,1,1.072,1.74A1.473,1.473,0,0,1,388.693,405a1.612,1.612,0,0,1-1.126-1.848,1.526,1.526,0,0,1,1.908-.924" transform="translate(-31.086 -32.258)" fill="#e0e0e0"/>
        <g id="Grupo_1031004" data-name="Grupo 1031004" transform="translate(327.104 379.245)" opacity="0.6">
          <g id="Grupo_1031003" data-name="Grupo 1031003">
            <g id="Grupo_1031002" data-name="Grupo 1031002" clip-path="url(#clip-path-13)">
              <path id="Trazado_730098" data-name="Trazado 730098" d="M393.162,415.359l-.127-3.039-35.92,1.416s-1.664.74-1.466,1.915Z" transform="translate(-355.632 -412.32)" fill="#fff"/>
            </g>
          </g>
        </g>
        <path id="Trazado_730099" data-name="Trazado 730099" d="M376.234,403.84c.007.183.924.259,1.829.841.922.558,1.393,1.348,1.561,1.275.168-.037-.113-1.129-1.222-1.816s-2.209-.467-2.168-.3" transform="translate(-30.181 -32.381)" fill="#263238"/>
        <path id="Trazado_730100" data-name="Trazado 730100" d="M371.97,405.651c-.04.178.755.483,1.383,1.253.651.751.814,1.589,1,1.578.172.028.291-1.046-.509-1.989s-1.869-1.017-1.872-.843" transform="translate(-29.838 -32.534)" fill="#263238"/>
        <path id="Trazado_730101" data-name="Trazado 730101" d="M369.451,410.522c.167.038.414-.879-.063-1.879s-1.339-1.392-1.416-1.239c-.1.152.458.685.838,1.512.4.818.458,1.589.641,1.606" transform="translate(-29.517 -32.679)" fill="#263238"/>
        <path id="Trazado_730102" data-name="Trazado 730102" d="M376.555,398.987c.078.167.916-.093,1.953-.03,1.037.041,1.845.382,1.94.224.1-.133-.687-.806-1.909-.862s-2.075.524-1.984.668" transform="translate(-30.206 -31.952)" fill="#263238"/>
        <path id="Trazado_730103" data-name="Trazado 730103" d="M397.042,229.374v15.274l-4.1,59.506s2.553,28.866,4.121,45.161c1.361,14.151-.864,38.8-.864,38.8H372.319l-8.543-82.19-5.3-51.258-9.225-23.328Z" transform="translate(-28.016 -18.4)" fill="#12263f"/>
        <path id="Trazado_730104" data-name="Trazado 730104" d="M331.489,232.185l5.822,82.959L361.467,377.3l1.11,3.743,14.266-3.448-10.61-147.089Z" transform="translate(-26.591 -18.491)" fill="#12263f"/>
        <path id="Trazado_730105" data-name="Trazado 730105" d="M359.346,257.535a2.055,2.055,0,0,0-.008.346c0,.249.011.584.019,1.012.029.914.069,2.22.12,3.892.1,3.38.339,8.267.682,14.3.72,12.07,2.064,28.726,4.16,47.055,2.063,18.34,4.34,34.889,6.006,46.863l2.008,14.175c.244,1.654.434,2.946.567,3.851.067.422.12.753.159,1a1.978,1.978,0,0,0,.069.338,2.066,2.066,0,0,0-.024-.345c-.029-.247-.066-.58-.115-1.005-.114-.908-.276-2.2-.484-3.862l-1.868-14.194c-1.586-11.985-3.813-28.537-5.876-46.87-2.1-18.323-3.488-34.966-4.288-47.025-.384-6.031-.673-10.914-.823-14.291-.087-1.669-.155-2.975-.2-3.887-.028-.428-.049-.763-.064-1.011a1.994,1.994,0,0,0-.037-.344" transform="translate(-28.825 -20.659)" fill="#455a64"/>
        <path id="Trazado_730106" data-name="Trazado 730106" d="M381.616,231.022a2.966,2.966,0,0,0,.1.877,13.254,13.254,0,0,0,.677,2.31,15.247,15.247,0,0,0,11.893,9.555,13.308,13.308,0,0,0,2.4.164,2.94,2.94,0,0,0,.877-.092c0-.084-1.258,0-3.225-.382a15.833,15.833,0,0,1-11.655-9.364c-.794-1.838-.986-3.085-1.069-3.067" transform="translate(-30.612 -18.532)" fill="#455a64"/>
        <path id="Trazado_730107" data-name="Trazado 730107" d="M357.7,234.849a1.228,1.228,0,1,0,1.229-1.229,1.228,1.228,0,0,0-1.229,1.229" transform="translate(-28.694 -18.74)" fill="#455a64"/>
        <path id="Trazado_730108" data-name="Trazado 730108" d="M334.879,246.346a7.783,7.783,0,0,0,1.684-1.578A18.928,18.928,0,0,0,341.07,234.7a7.767,7.767,0,0,0,.056-2.307c-.074,0-.124.875-.367,2.261a22.04,22.04,0,0,1-4.439,9.912c-.872,1.1-1.493,1.726-1.441,1.78" transform="translate(-26.863 -18.642)" fill="#455a64"/>
        <path id="Trazado_730109" data-name="Trazado 730109" d="M348.24,109.294a19.724,19.724,0,0,1-1.334,3.295,7.063,7.063,0,0,1-2.013,2.95c-.09-.083.792-1.368,1.579-3.153a10.164,10.164,0,0,1,1.768-3.091" transform="translate(-27.666 -8.767)" fill="#263238"/>
        <path id="Trazado_730110" data-name="Trazado 730110" d="M350.936,106.6l19.849-16.715,4.179,6.417s17.312,12.686,20.595,16.267l-4.328,57.608s4.627,30.3,4.925,32.684,3.039,23.3,3.039,23.3c.358,3.959-2.907,8.761-3.573,8.762,0,0-3.345-4-6.928-3.7s-27.908,6.865-27.908,6.865l-29.55-6.567,3.134-58.2,1.045-38.953,2.58-14.9,5.834-5.819,3.471-9.1s1.1,11.612,1.248,11.165,2.388-9.1,2.388-9.1" transform="translate(-26.571 -7.21)" fill="#4db1f0"/>
        <path id="Trazado_730111" data-name="Trazado 730111" d="M376.181,97.97a7.158,7.158,0,0,1-.794,1.081c-.542.671-1.346,1.626-2.38,2.769-2.052,2.3-5.057,5.321-8.311,8.7-1.606,1.675-3.109,3.3-4.42,4.819l-.156.181-.166-.166c-2.2-2.189-3.778-4.278-4.994-5.662l-1.42-1.616a3.309,3.309,0,0,1-.5-.593,3.059,3.059,0,0,1,.6.493c.369.341.889.86,1.52,1.538,1.278,1.338,2.915,3.395,5.1,5.522l-.321.016c1.3-1.546,2.8-3.184,4.41-4.864,3.262-3.388,6.3-6.361,8.409-8.6,1.063-1.111,1.9-2.029,2.487-2.661a7.148,7.148,0,0,1,.935-.959" transform="translate(-28.32 -7.859)" fill="#263238"/>
        <path id="Trazado_730112" data-name="Trazado 730112" d="M341.728,204.313a.79.79,0,0,1-.008-.225c.006-.178.015-.394.024-.66q.051-.927.14-2.532c.147-2.239.355-5.406.611-9.3.543-7.855,1.336-18.7,2.287-30.677s1.892-22.816,2.669-30.653c.384-3.918.741-7.084,1.005-9.27q.218-1.591.345-2.513c.041-.263.075-.476.1-.651a.786.786,0,0,1,.051-.22.8.8,0,0,1,0,.225c-.015.177-.033.393-.055.658-.063.615-.147,1.458-.256,2.521-.205,2.233-.5,5.394-.854,9.282-.69,7.841-1.578,18.681-2.529,30.658-.946,11.956-1.8,22.78-2.425,30.664-.32,3.893-.58,7.057-.763,9.293q-.145,1.6-.229,2.525c-.029.265-.052.48-.072.656a.78.78,0,0,1-.04.223" transform="translate(-27.412 -9.434)" fill="#263238"/>
        <g id="Grupo_1031007" data-name="Grupo 1031007" transform="translate(307.109 164.17)" opacity="0.3">
          <g id="Grupo_1031006" data-name="Grupo 1031006">
            <g id="Grupo_1031005" data-name="Grupo 1031005" clip-path="url(#clip-path-14)">
              <path id="Trazado_730113" data-name="Trazado 730113" d="M334.266,185.815c2.251,1.123,4.82,1.513,7.032,2.709a25.1,25.1,0,0,1,4.274,3.256c9.421,8.107,21.267,13.925,33.694,14.143,4.267.075,8.828-.632,12-3.484,1.745-1.567,2.988-4,2.315-6.251-.82-2.737-3.931-3.958-6.658-4.81l-25.463-7.949a115.58,115.58,0,0,0-16.3-4.232,57.875,57.875,0,0,0-11.273-.668" transform="translate(-333.893 -178.488)"/>
            </g>
          </g>
        </g>
        <path id="Trazado_730114" data-name="Trazado 730114" d="M362.626,223.738c-.064.116-6.209-3.2-13.72-7.4s-13.552-7.709-13.488-7.824,6.207,3.2,13.721,7.405,13.551,7.707,13.487,7.823" transform="translate(-26.906 -16.726)" fill="#263238"/>
        <path id="Trazado_730115" data-name="Trazado 730115" d="M343.838,244.07a5.927,5.927,0,0,1,.033-1.2c.046-.865.1-1.956.173-3.256.123-2.75.145-6.553.093-10.757s-.068-8.017-.056-10.774c.015-1.3.028-2.4.037-3.265a5.824,5.824,0,0,1,.079-1.2,5.744,5.744,0,0,1,.108,1.2c.03.866.069,1.96.115,3.264.075,2.757.149,6.564.2,10.773s-.023,8.026-.234,10.782c-.1,1.377-.224,2.489-.327,3.254a5.615,5.615,0,0,1-.218,1.182" transform="translate(-27.581 -17.136)" fill="#263238"/>
        <g id="Grupo_1031010" data-name="Grupo 1031010" transform="translate(344.728 134.532)" opacity="0.3">
          <g id="Grupo_1031009" data-name="Grupo 1031009">
            <g id="Grupo_1031008" data-name="Grupo 1031008" clip-path="url(#clip-path-15)">
              <path id="Trazado_730116" data-name="Trazado 730116" d="M374.793,172.426c2.143-8.238,1.935-17.7,1.712-26.161,1.516,5.814,3.21,14.7,4.458,20.8l-2.41,5.855Z" transform="translate(-374.793 -146.265)"/>
            </g>
          </g>
        </g>
        <g id="Grupo_1031013" data-name="Grupo 1031013" transform="translate(322.297 92.638)" opacity="0.3">
          <g id="Grupo_1031012" data-name="Grupo 1031012">
            <g id="Grupo_1031011" data-name="Grupo 1031011" clip-path="url(#clip-path-16)">
              <path id="Trazado_730117" data-name="Trazado 730117" d="M350.406,116.262c.068-.166.139-.333.211-.5a24.826,24.826,0,0,1,2.109-3.851,67.877,67.877,0,0,1,6.469,6.832c2.967-3.1,5.939-6.2,8.621-9.549a72.7,72.7,0,0,0,5.852-8.479l-13.771,14.7-7.423-7.952Z" transform="translate(-350.406 -100.717)"/>
            </g>
          </g>
        </g>
        <path id="Trazado_730118" data-name="Trazado 730118" d="M279.394,197.77l49.106,1.1.882-16.388-59.155,4.828Z" transform="translate(-21.677 -14.639)" fill="#ffbe9d"/>
        <path id="Trazado_730119" data-name="Trazado 730119" d="M239.73,142.835c0,.063-.538,1.21-.538,1.21,4.285,8.175,19.848,37.773,19.848,37.773l19.129,9.273,45.684-1.809v-2.468l-23.5-9.317-29.378.725-15.78-31.254a2.89,2.89,0,0,0-2.028-1.532Z" transform="translate(-19.187 -11.458)" fill="#455a64"/>
        <path id="Trazado_730120" data-name="Trazado 730120" d="M280.933,194.148a10.315,10.315,0,0,1-1.219-1.86c-.7-1.175-1.63-2.814-2.634-4.636s-1.89-3.485-2.51-4.7a10.1,10.1,0,0,1-.916-2.016,10.373,10.373,0,0,1,1.213,1.854c.7,1.175,1.632,2.815,2.638,4.642s1.893,3.491,2.513,4.707a10.18,10.18,0,0,1,.915,2.01" transform="translate(-21.951 -14.514)" fill="#263238"/>
        <path id="Trazado_730121" data-name="Trazado 730121" d="M285.238,190.183l19.554-.643-14.755-7.695-15.794.355Z" transform="translate(-21.999 -14.587)" fill="#263238"/>
        <path id="Trazado_730122" data-name="Trazado 730122" d="M327.143,190.639a1.836,1.836,0,0,1-.476.051l-1.368.051-5.027.137c-4.245.116-10.106.333-16.582.576s-12.346.407-16.6.436c-2.125.016-3.844.011-5.032-.016l-1.368-.039a1.8,1.8,0,0,1-.477-.046,1.841,1.841,0,0,1,.477-.051l1.367-.051,5.027-.137c4.245-.116,10.107-.333,16.585-.576s12.343-.407,16.593-.436c2.125-.016,3.844-.011,5.032.016l1.368.039a1.8,1.8,0,0,1,.477.046" transform="translate(-22.478 -15.284)" fill="#263238"/>
        <path id="Trazado_730123" data-name="Trazado 730123" d="M275.37,189.84a3.221,3.221,0,0,1-.332-.546c-.221-.411-.51-.946-.867-1.611l-3.113-5.963-10.107-19.754c-2.771-5.489-5.357-10.609-7.529-14.911l.142.107-10.441-2.125-2.909-.625a6.692,6.692,0,0,1-1.019-.262,6.688,6.688,0,0,1,1.043.141l2.93.515,10.474,1.957.1.018.045.089c2.192,4.293,4.8,9.4,7.595,14.877l9.983,19.818,2.976,6.032.788,1.651a3.176,3.176,0,0,1,.246.59" transform="translate(-19.187 -11.563)" fill="#263238"/>
        <path id="Trazado_730124" data-name="Trazado 730124" d="M265.453,181.573s.812-.812,2.437,1.264,4.335,8.127,4.335,8.127l2.979,1.354s-2.619-3.07-2.619-4.334,1.987-1.264,3.07.542a52.834,52.834,0,0,0,4.244,5.327s-.993,3.654-1.265,3.5-5.236-.428-5.236-.428l-1.355-.633s-3.341,0-3.521-.9-5.689-4.7-5.689-5.508v-5.237s-2.528-6.14-1.987-6.772,2.8-1.987,4.605,3.7" transform="translate(-20.919 -14.22)" fill="#ffbe9d"/>
        <path id="Trazado_730125" data-name="Trazado 730125" d="M266.183,181.841c0,.025-.095.021-.237.074a.517.517,0,0,0-.3.517l0-.029c.209.664.459,1.692.733,2.95s.572,2.753,1.038,4.289A7.748,7.748,0,0,0,269,192.4l1.647,2.13a12.922,12.922,0,0,1,1.423,2.039,12.8,12.8,0,0,1-1.687-1.826l-1.727-2.066a13.2,13.2,0,0,1-.975-1.29,6.773,6.773,0,0,1-.727-1.605,39.6,39.6,0,0,1-.98-4.353l-.549-2.975,0-.022v-.007a.641.641,0,0,1,.488-.625c.186-.024.27.024.269.037" transform="translate(-21.292 -14.583)" fill="#eb996e"/>
        <path id="Trazado_730126" data-name="Trazado 730126" d="M265.183,192.739a31.558,31.558,0,0,1-2.171-7.452,31.554,31.554,0,0,1,2.171,7.452" transform="translate(-21.096 -14.863)" fill="#eb996e"/>
        <path id="Trazado_730127" data-name="Trazado 730127" d="M275.292,188.124c0,.034-.136.048-.365.074a1.216,1.216,0,0,0-.8.317c-.224.248-.131.706.111,1.185l.773,1.634c.27.552.529,1.08.785,1.6.269.469.557.877.785,1.233.467.708.664,1.21.6,1.239s-.349-.394-.879-1.041a13.546,13.546,0,0,1-.888-1.2c-.264-.5-.556-1.049-.843-1.631l-.74-1.653a2.554,2.554,0,0,1-.225-.826.983.983,0,0,1,.268-.77,1.265,1.265,0,0,1,1.047-.274c.242.032.367.082.364.113" transform="translate(-21.948 -15.081)" fill="#eb996e"/>
        <path id="Trazado_730128" data-name="Trazado 730128" d="M371.519,119.751a3.347,3.347,0,0,1,.473-.893,15.945,15.945,0,0,1,1.7-2.162,32.787,32.787,0,0,1,2.979-2.784,14.345,14.345,0,0,1,4.219-2.724,12,12,0,0,1,5-.508,34.662,34.662,0,0,1,4.029.61c1.138.213,2.057.395,2.689.53a4.049,4.049,0,0,1,.97.258,4.155,4.155,0,0,1-1.007-.075c-.642-.079-1.566-.208-2.706-.378s-2.492-.426-4.006-.5a12,12,0,0,0-4.81.519,14.566,14.566,0,0,0-4.1,2.613,38.806,38.806,0,0,0-3.017,2.679c-1.627,1.622-2.354,2.865-2.422,2.821" transform="translate(-29.802 -8.874)" fill="#263238"/>
        <path id="Trazado_730129" data-name="Trazado 730129" d="M337.456,170.021l.688,12.409s18.4,8.6,30.437,11.693,26.211,2.62,26.211,2.62l-5.06-20.16Z" transform="translate(-27.07 -13.639)" fill="#ffbe9d"/>
        <path id="Trazado_730130" data-name="Trazado 730130" d="M298.59,172.2a2.63,2.63,0,0,1,1.343-2.539c1.594-.986,4.951-3.168,4.951-3.168l10.154-.923,19.132,4.091.687,12.409s-9.75.536-12.015.452-8.56-2.1-8.56-2.1-10.574,1.343-11.078.755-1.175-1.258-.5-1.678,8.812-2.517,8.812-2.517l-5.455-.42s-7.972,1.679-8.56,1.427-1.343-1.258-.839-2.013l.5-.755a1.7,1.7,0,0,1,.839-2.1l.755-.252Z" transform="translate(-23.784 -13.282)" fill="#ffbe9d"/>
        <path id="Trazado_730131" data-name="Trazado 730131" d="M313.095,172.614a6.582,6.582,0,0,1-2.446.408c-1.52.119-3.667-.128-5.843.508a30.618,30.618,0,0,0-2.989,1.262,22.284,22.284,0,0,1-2.531.922,8.512,8.512,0,0,1-2.428.492c-.017-.071.9-.305,2.322-.814.712-.256,1.551-.584,2.458-1a25.162,25.162,0,0,1,3.028-1.317,11.621,11.621,0,0,1,3.3-.427c1.015,0,1.919.037,2.675.039,1.515.023,2.438-.143,2.454-.07" transform="translate(-23.813 -13.845)" fill="#eb996e"/>
        <path id="Trazado_730132" data-name="Trazado 730132" d="M312.308,169.5a5.236,5.236,0,0,1-2.191.283,11.665,11.665,0,0,0-5.111.666c-1.9.792-3.609,1.559-4.866,2.058a10.129,10.129,0,0,1-2.073.736A9.987,9.987,0,0,1,300,172.2c1.227-.581,2.909-1.394,4.829-2.2a8.1,8.1,0,0,1,2.9-.644c.915-.029,1.72.051,2.393.086,1.345.095,2.168-.014,2.182.055" transform="translate(-23.91 -13.585)" fill="#eb996e"/>
        <path id="Trazado_730133" data-name="Trazado 730133" d="M398.876,114.3s5.11,8.137,5.9,12.1,2.776,45.807,1.983,46.6a21.627,21.627,0,0,1-2.182,1.784s4.561.992,3.173,3.371a42.122,42.122,0,0,1-2.776,4.165s-.683,7.734-1.531,7.931a63.254,63.254,0,0,0-5.667,2.924s-13.886-7.484-15.142-11.45-4.232-11.9-4.232-11.9l2.38-5.552-7.139-33.71s-3.831-10.787,3.066-15.2,19.574-5.518,22.164-1.071" transform="translate(-29.888 -8.941)" fill="#4db1f0"/>
        <path id="Trazado_730134" data-name="Trazado 730134" d="M375.212,139.184a2.928,2.928,0,0,1,.143.5c.087.369.2.86.349,1.48l1.248,5.6c1.048,4.845,2.521,11.655,4.259,19.689l.015.067-.028.064-2.369,5.556,0-.171c1.361,3.778,2.8,7.9,4.331,12.083l.256.532.362.49a7.629,7.629,0,0,0,.8.923,11.956,11.956,0,0,0,.89.849c.3.281.613.544.934.8,1.262,1.037,2.584,1.968,3.9,2.848,2.633,1.761,5.264,3.317,7.785,4.714l-.212,0c1.207-.675,2.386-1.32,3.545-1.923.582-.3,1.15-.594,1.745-.847l.228-.092a1.655,1.655,0,0,0,.209-.072.806.806,0,0,0,.168-.267,5.487,5.487,0,0,0,.27-.844,55.249,55.249,0,0,0,.974-6.634l0-.05.029-.038c.706-.918,1.33-1.824,1.888-2.68q.418-.644.785-1.255a4.723,4.723,0,0,0,.3-.6,1.506,1.506,0,0,0,.041-.6c-.163-.8-.937-1.259-1.536-1.574a8.973,8.973,0,0,0-1.763-.646l-.169-.043.141-.1c.769-.543,1.324-.979,1.685-1.275s.531-.456.542-.445-.031.051-.111.137-.2.211-.377.37a21.151,21.151,0,0,1-1.646,1.343l-.029-.143a8.877,8.877,0,0,1,1.82.614,4.98,4.98,0,0,1,.988.613,1.99,1.99,0,0,1,.705,1.1,1.75,1.75,0,0,1-.039.726,4.773,4.773,0,0,1-.317.658q-.36.621-.774,1.274c-.552.871-1.164,1.785-1.873,2.726l.034-.087a54.045,54.045,0,0,1-.924,6.7,5.927,5.927,0,0,1-.286.911.922.922,0,0,1-.371.473,2.131,2.131,0,0,1-.234.083l-.209.086c-.565.245-1.135.545-1.709.843-1.149.607-2.323,1.256-3.523,1.934l-.106.061-.106-.058c-2.544-1.4-5.183-2.943-7.837-4.71a48.517,48.517,0,0,1-3.941-2.869c-.326-.257-.645-.522-.951-.81a11.83,11.83,0,0,1-.915-.872,7.894,7.894,0,0,1-.844-.968c-.129-.176-.264-.346-.387-.527l-.3-.61c-1.553-4.231-2.964-8.307-4.316-12.094l-.031-.089.036-.083,2.39-5.547-.013.132c-1.668-8.048-3.082-14.871-4.088-19.725-.477-2.382-.858-4.28-1.127-5.622-.119-.626-.212-1.122-.281-1.495a2.823,2.823,0,0,1-.074-.52" transform="translate(-30.098 -11.165)" fill="#263238"/>
        <path id="Trazado_730135" data-name="Trazado 730135" d="M406.163,179.43a2.052,2.052,0,0,1-.7.289,6.553,6.553,0,0,1-2.065.312,3.448,3.448,0,0,1-1.436-.358,11.753,11.753,0,0,1-1.434-.826c-.967-.648-1.949-1.423-3.039-2.165-2.165-1.5-4.2-2.769-5.655-3.7a16.886,16.886,0,0,1-2.321-1.585,15.859,15.859,0,0,1,2.5,1.3c1.506.862,3.572,2.086,5.754,3.6,1.1.747,2.087,1.544,3.012,2.193a5.575,5.575,0,0,0,2.643,1.211,7.9,7.9,0,0,0,2-.155,2.753,2.753,0,0,1,.749-.108" transform="translate(-31.246 -13.748)" fill="#263238"/>
        <path id="Trazado_730136" data-name="Trazado 730136" d="M406.188,187.415a2.251,2.251,0,0,1-.887.205,4.807,4.807,0,0,1-2.449-.441,40.674,40.674,0,0,1-6.87-4.334,66.921,66.921,0,0,1-6.03-5.42c-.731-.735-1.312-1.339-1.706-1.765a3.33,3.33,0,0,1-.576-.7,24.711,24.711,0,0,1,2.517,2.216c1.523,1.4,3.613,3.348,6.09,5.287a50.279,50.279,0,0,0,6.717,4.4,5.055,5.055,0,0,0,2.3.563,6.311,6.311,0,0,1,.895-.019" transform="translate(-31.098 -14.035)" fill="#263238"/>
        <g id="Grupo_1031016" data-name="Grupo 1031016" transform="translate(358.462 157.86)" opacity="0.3">
          <g id="Grupo_1031015" data-name="Grupo 1031015">
            <g id="Grupo_1031014" data-name="Grupo 1031014" clip-path="url(#clip-path-17)">
              <path id="Trazado_730137" data-name="Trazado 730137" d="M389.725,171.628a16.516,16.516,0,0,0,3.357,3.571l5.907,5.147c1.131.986,2.468,2.038,3.955,1.832a4.959,4.959,0,0,0,2.062-.969c.576-.4,1.211-.989,1.049-1.67a5.8,5.8,0,0,1-5.032-.532,15.444,15.444,0,0,1-1.8-1.462,45.005,45.005,0,0,0-9.454-5.8" transform="translate(-389.725 -171.628)"/>
            </g>
          </g>
        </g>
        <path id="Trazado_730138" data-name="Trazado 730138" d="M335.633,183.349a5.536,5.536,0,0,1-1.166.137l-3.19.2-4.735.23-2.8.119a7.551,7.551,0,0,1-1.5-.253l-1.485-.354c-2.058-.51-4-1.029-5.755-1.508l.078.006c-2.626.239-4.856.428-6.431.544l-1.839.119a2.326,2.326,0,0,1-.66-.006,2.3,2.3,0,0,1,.647-.134l1.827-.242c1.567-.192,3.791-.441,6.414-.717l.038,0,.04.011,5.756,1.467,1.477.355a7.337,7.337,0,0,0,1.4.248l2.792-.091,4.728-.127,3.191-.043a5.516,5.516,0,0,1,1.173.049" transform="translate(-24.559 -14.558)" fill="#eb996e"/>
      </g>
    </g>
    <g id="Grupo_1031020" data-name="Grupo 1031020">
      <g id="Grupo_1031019" data-name="Grupo 1031019" clip-path="url(#clip-path)">
        <path id="Trazado_730139" data-name="Trazado 730139" d="M407.8,415.921c0,.132-91.3.239-203.888.239C91.276,416.16,0,416.054,0,415.921s91.276-.239,203.908-.239c112.592,0,203.888.107,203.888.239" transform="translate(0 -33.345)" fill="#263238"/>
      </g>
    </g>
  </g>
</svg>
