<svg xmlns="http://www.w3.org/2000/svg" xmlns:xlink="http://www.w3.org/1999/xlink" width="413" height="423.625" viewBox="0 0 413 423.625">
  <defs>
    <clipPath id="clip-path">
      <rect id="Rectángulo_33841" data-name="Rectángulo 33841" width="353.874" height="295.116" fill="none"/>
    </clipPath>
    <clipPath id="clip-path-2">
      <rect id="Rectángulo_352648" data-name="Rectángulo 352648" width="400" height="316.1" fill="none"/>
    </clipPath>
    <clipPath id="clip-path-4">
      <rect id="Rectángulo_352626" data-name="Rectángulo 352626" width="10.378" height="7.198" fill="none"/>
    </clipPath>
    <clipPath id="clip-path-5">
      <rect id="Rectángulo_352627" data-name="Rectángulo 352627" width="7.932" height="4.75" fill="none"/>
    </clipPath>
    <clipPath id="clip-path-6">
      <rect id="Rectángulo_352628" data-name="Rectángulo 352628" width="8.78" height="8.942" fill="none"/>
    </clipPath>
    <clipPath id="clip-path-11">
      <rect id="Rectángulo_352633" data-name="Rectángulo 352633" width="18.676" height="11.225" fill="none"/>
    </clipPath>
    <clipPath id="clip-path-12">
      <rect id="Rectángulo_352634" data-name="Rectángulo 352634" width="15.004" height="9.105" fill="none"/>
    </clipPath>
    <clipPath id="clip-path-13">
      <rect id="Rectángulo_352635" data-name="Rectángulo 352635" width="7.054" height="15.416" fill="none"/>
    </clipPath>
    <clipPath id="clip-path-14">
      <rect id="Rectángulo_352636" data-name="Rectángulo 352636" width="5.862" height="12.276" fill="none"/>
    </clipPath>
    <clipPath id="clip-path-15">
      <rect id="Rectángulo_352637" data-name="Rectángulo 352637" width="9.394" height="3.796" fill="none"/>
    </clipPath>
    <clipPath id="clip-path-16">
      <rect id="Rectángulo_352638" data-name="Rectángulo 352638" width="7.465" height="3.15" fill="#ffa031"/>
    </clipPath>
    <clipPath id="clip-path-18">
      <rect id="Rectángulo_352640" data-name="Rectángulo 352640" width="6.021" height="5.695" fill="none"/>
    </clipPath>
    <clipPath id="clip-path-19">
      <rect id="Rectángulo_352641" data-name="Rectángulo 352641" width="2.161" height="3.511" fill="none"/>
    </clipPath>
    <clipPath id="clip-path-20">
      <rect id="Rectángulo_352642" data-name="Rectángulo 352642" width="12.537" height="51.856" fill="none"/>
    </clipPath>
    <clipPath id="clip-path-22">
      <rect id="Rectángulo_352644" data-name="Rectángulo 352644" width="24.835" height="22.114" fill="none"/>
    </clipPath>
  </defs>
  <g id="Grupo_1036306" data-name="Grupo 1036306" transform="translate(-167 -2982)">
    <g id="Grupo_1033484" data-name="Grupo 1033484" transform="translate(560.3 3286.955) rotate(180)">
      <path id="Trazado_113636" data-name="Trazado 113636" d="M291.508,294.772A145.754,145.754,0,1,1,145.754,149.018,145.754,145.754,0,0,1,291.508,294.772" transform="translate(0 -149.018)" fill="#0078bb"/>
      <path id="Trazado_113637" data-name="Trazado 113637" d="M1199.467,544.095A105.615,105.615,0,1,1,1093.853,438.48a105.615,105.615,0,0,1,105.615,105.615" transform="translate(-820.505 -358.201)" fill="#065958"/>
      <path id="Trazado_113638" data-name="Trazado 113638" d="M1232.906,598.359a84.79,84.79,0,1,1-84.79-84.79,84.79,84.79,0,0,1,84.79,84.79" transform="translate(-874.769 -412.465)" fill="#fff"/>
      <path id="Trazado_113665" data-name="Trazado 113665" d="M129.99,381.385a3.257,3.257,0,1,1-3.257-3.257,3.257,3.257,0,0,1,3.257,3.257" transform="translate(-89.231 -314.587)" fill="#fff"/>
      <path id="Trazado_113666" data-name="Trazado 113666" d="M181.665,381.385a3.257,3.257,0,1,1-3.257-3.257,3.257,3.257,0,0,1,3.257,3.257" transform="translate(-126.575 -314.587)" fill="#fff"/>
      <path id="Trazado_113667" data-name="Trazado 113667" d="M233.34,381.385a3.257,3.257,0,1,1-3.257-3.257,3.257,3.257,0,0,1,3.257,3.257" transform="translate(-163.918 -314.587)" fill="#fff"/>
      <path id="Trazado_113668" data-name="Trazado 113668" d="M285.016,381.385a3.257,3.257,0,1,1-3.257-3.257,3.257,3.257,0,0,1,3.257,3.257" transform="translate(-201.262 -314.587)" fill="#fff"/>
      <path id="Trazado_113669" data-name="Trazado 113669" d="M336.69,381.385a3.257,3.257,0,1,1-3.257-3.257,3.257,3.257,0,0,1,3.257,3.257" transform="translate(-238.605 -314.587)" fill="#fff"/>
      <path id="Trazado_113670" data-name="Trazado 113670" d="M129.99,430.711a3.257,3.257,0,1,1-3.257-3.257,3.257,3.257,0,0,1,3.257,3.257" transform="translate(-89.231 -350.233)" fill="#fff"/>
      <path id="Trazado_113671" data-name="Trazado 113671" d="M181.665,430.711a3.257,3.257,0,1,1-3.257-3.257,3.257,3.257,0,0,1,3.257,3.257" transform="translate(-126.575 -350.233)" fill="#fff"/>
      <path id="Trazado_113672" data-name="Trazado 113672" d="M233.34,430.711a3.257,3.257,0,1,1-3.257-3.257,3.257,3.257,0,0,1,3.257,3.257" transform="translate(-163.918 -350.233)" fill="#fff"/>
      <path id="Trazado_113673" data-name="Trazado 113673" d="M285.016,430.711a3.257,3.257,0,1,1-3.257-3.257,3.257,3.257,0,0,1,3.257,3.257" transform="translate(-201.262 -350.233)" fill="#fff"/>
      <path id="Trazado_113674" data-name="Trazado 113674" d="M336.69,430.711a3.257,3.257,0,1,1-3.257-3.257,3.257,3.257,0,0,1,3.257,3.257" transform="translate(-238.605 -350.233)" fill="#fff"/>
      <path id="Trazado_113675" data-name="Trazado 113675" d="M129.99,480.038a3.257,3.257,0,1,1-3.257-3.257,3.257,3.257,0,0,1,3.257,3.257" transform="translate(-89.231 -385.88)" fill="#fff"/>
      <path id="Trazado_113676" data-name="Trazado 113676" d="M181.665,480.038a3.257,3.257,0,1,1-3.257-3.257,3.257,3.257,0,0,1,3.257,3.257" transform="translate(-126.575 -385.88)" fill="#fff"/>
      <path id="Trazado_113677" data-name="Trazado 113677" d="M233.34,480.038a3.257,3.257,0,1,1-3.257-3.257,3.257,3.257,0,0,1,3.257,3.257" transform="translate(-163.918 -385.88)" fill="#fff"/>
      <path id="Trazado_113678" data-name="Trazado 113678" d="M285.016,480.038a3.257,3.257,0,1,1-3.257-3.257,3.257,3.257,0,0,1,3.257,3.257" transform="translate(-201.262 -385.88)" fill="#fff"/>
      <path id="Trazado_113679" data-name="Trazado 113679" d="M336.69,480.038a3.257,3.257,0,1,1-3.257-3.257,3.257,3.257,0,0,1,3.257,3.257" transform="translate(-238.605 -385.88)" fill="#fff"/>
      <path id="Trazado_113680" data-name="Trazado 113680" d="M129.99,529.364a3.257,3.257,0,1,1-3.257-3.257,3.257,3.257,0,0,1,3.257,3.257" transform="translate(-89.231 -421.526)" fill="#fff"/>
      <path id="Trazado_113681" data-name="Trazado 113681" d="M181.665,529.364a3.257,3.257,0,1,1-3.257-3.257,3.257,3.257,0,0,1,3.257,3.257" transform="translate(-126.575 -421.526)" fill="#fff"/>
      <path id="Trazado_113682" data-name="Trazado 113682" d="M233.34,529.364a3.257,3.257,0,1,1-3.257-3.257,3.257,3.257,0,0,1,3.257,3.257" transform="translate(-163.918 -421.526)" fill="#fff"/>
      <path id="Trazado_113683" data-name="Trazado 113683" d="M285.016,529.364a3.257,3.257,0,1,1-3.257-3.257,3.257,3.257,0,0,1,3.257,3.257" transform="translate(-201.262 -421.526)" fill="#fff"/>
      <path id="Trazado_113684" data-name="Trazado 113684" d="M336.69,529.364a3.257,3.257,0,1,1-3.257-3.257,3.257,3.257,0,0,1,3.257,3.257" transform="translate(-238.605 -421.526)" fill="#fff"/>
      <path id="Trazado_113685" data-name="Trazado 113685" d="M129.99,578.69a3.257,3.257,0,1,1-3.257-3.257,3.257,3.257,0,0,1,3.257,3.257" transform="translate(-89.231 -457.172)" fill="#fff"/>
      <path id="Trazado_113686" data-name="Trazado 113686" d="M181.665,578.69a3.257,3.257,0,1,1-3.257-3.257,3.257,3.257,0,0,1,3.257,3.257" transform="translate(-126.575 -457.172)" fill="#fff"/>
      <path id="Trazado_113687" data-name="Trazado 113687" d="M233.34,578.69a3.257,3.257,0,1,1-3.257-3.257,3.257,3.257,0,0,1,3.257,3.257" transform="translate(-163.918 -457.172)" fill="#fff"/>
      <path id="Trazado_113688" data-name="Trazado 113688" d="M285.016,578.69a3.257,3.257,0,1,1-3.257-3.257,3.257,3.257,0,0,1,3.257,3.257" transform="translate(-201.262 -457.172)" fill="#fff"/>
      <path id="Trazado_113689" data-name="Trazado 113689" d="M336.69,578.69a3.257,3.257,0,1,1-3.257-3.257,3.257,3.257,0,0,1,3.257,3.257" transform="translate(-238.605 -457.172)" fill="#fff"/>
      <g id="Grupo_1002336" data-name="Grupo 1002336" transform="translate(39.426 9.84)" opacity="0.251">
        <g id="Grupo_80323" data-name="Grupo 80323" clip-path="url(#clip-path)">
          <path id="Trazado_113615" data-name="Trazado 113615" d="M226.121,290.472c-3.342-.259-6.753-.407-10.246-.38-18.481.14-36.557,5.21-55.153,5.014-39.4-.415-79.95-4.578-114-30.306C-28.722,207.8-3.993,85.7,58.547,35.57,91.779,8.934,133.171.789,172.828.036c51.05-.97,116.53,15.493,153.107,59.309C351.418,89.872,357.754,161,351.8,201.3c-4.742,32.079-22.538,62.33-45.019,79.938-28.036,21.96-51.807,11.469-80.657,9.237" transform="translate(0 0.004)" fill="#e0f4fe"/>
        </g>
      </g>
    </g>
    <g id="Grupo_1033540" data-name="Grupo 1033540" transform="translate(180 3089.524)">
      <g id="Grupo_1033539" data-name="Grupo 1033539" clip-path="url(#clip-path-2)">
        <g id="Grupo_1033496" data-name="Grupo 1033496">
          <g id="Grupo_1033495" data-name="Grupo 1033495" clip-path="url(#clip-path-2)">
            <path id="Trazado_734162" data-name="Trazado 734162" d="M217.278,23.322c.085-.055,5.717,8.587,12.578,19.3s12.354,19.446,12.268,19.5-5.716-8.585-12.578-19.3-12.353-19.443-12.268-19.5" transform="translate(-63.842 -6.853)" fill="#e0e0e0"/>
            <path id="Trazado_734163" data-name="Trazado 734163" d="M218.015,14.53A8,8,0,1,1,208.12,20a8,8,0,0,1,9.895-5.472" transform="translate(-61.059 -4.177)" fill="#ebebeb"/>
            <path id="Trazado_734164" data-name="Trazado 734164" d="M21.988,399.727c-.081-.061,6.06-8.349,13.715-18.509s13.929-18.35,14.01-18.289S43.654,371.277,36,381.44s-13.928,18.348-14.009,18.287" transform="translate(-6.46 -106.638)" fill="#e0e0e0"/>
            <path id="Trazado_734165" data-name="Trazado 734165" d="M11.015,410.27a7.482,7.482,0,1,1,7.179,7.774,7.482,7.482,0,0,1-7.179-7.774" transform="translate(-3.235 -118.438)" fill="#ebebeb"/>
            <path id="Trazado_734166" data-name="Trazado 734166" d="M21.134,134.181c-.082-.061,5.986-8.4,13.551-18.629S48.451,97.08,48.533,97.14s-5.985,8.4-13.553,18.631-13.765,18.471-13.847,18.411" transform="translate(-6.209 -28.542)" fill="#e0e0e0"/>
            <path id="Trazado_734167" data-name="Trazado 734167" d="M12.14,142.694a9.789,9.789,0,1,1,11.123,8.241,9.789,9.789,0,0,1-11.123-8.241" transform="translate(-3.535 -38.628)" fill="#e0e0e0"/>
            <path id="Trazado_734168" data-name="Trazado 734168" d="M223.961,410.064c-5.829,4.751-13.643,4.813-17.452.14s-2.171-12.315,3.658-17.066,13.643-4.813,17.452-.139,2.171,12.314-3.658,17.065" transform="translate(-60.074 -114.456)" fill="#ebebeb"/>
            <path id="Trazado_734169" data-name="Trazado 734169" d="M215.9,412.651a9.218,9.218,0,0,0,6.728-1.337,11.868,11.868,0,0,0,4.629-4.981c.366-.755.606-1.729.037-2.235a1.653,1.653,0,0,0-2.023.261,6.747,6.747,0,0,0-1.329,1.853,9.552,9.552,0,0,1-2.435,2.872,4.937,4.937,0,0,1-3.473,1.07c-.8-.106-1.607-.48-2.386-.129a1.527,1.527,0,0,0-.895,1.412,1.4,1.4,0,0,0,1.146,1.215" transform="translate(-63.1 -118.662)" fill="#e0e0e0"/>
            <g id="Grupo_1033488" data-name="Grupo 1033488" transform="translate(149.399 278.8)" opacity="0.1">
              <g id="Grupo_1033487" data-name="Grupo 1033487">
                <g id="Grupo_1033486" data-name="Grupo 1033486" clip-path="url(#clip-path-4)">
                  <path id="Trazado_734170" data-name="Trazado 734170" d="M219.367,398.538a4.281,4.281,0,0,0,2.213-1.3,1.423,1.423,0,0,0-.21-2.1l-.028-.013a3.42,3.42,0,0,0-1.237-.3c-2.858-.155-5.58,1.538-7.605,3.926a4.12,4.12,0,0,0-.852,1.414,1.53,1.53,0,0,0,.222,1.462c.612.675,1.86.379,2.7-.227s1.486-1.458,2.371-1.984a10.6,10.6,0,0,1,2.431-.867" transform="translate(-211.561 -394.804)" fill="#fff"/>
                </g>
              </g>
            </g>
            <path id="Trazado_734171" data-name="Trazado 734171" d="M226.265,399.367c.012,0,.05.074.112.229a5.667,5.667,0,0,1,.222.7,7.167,7.167,0,0,1,.121,2.683,10.765,10.765,0,0,1-4.884,7.169,10.062,10.062,0,0,1-2.286,1.119,8.39,8.39,0,0,1-2.339.407,7.69,7.69,0,0,1-3.913-.744,5.608,5.608,0,0,1-2.022-1.768,4.2,4.2,0,0,1-.379-.624c-.077-.148-.111-.228-.1-.234.035-.02.2.291.593.773a5.859,5.859,0,0,0,2.025,1.622,7.639,7.639,0,0,0,3.779.638,8.623,8.623,0,0,0,4.442-1.5,10.8,10.8,0,0,0,4.827-6.9,8.972,8.972,0,0,0-.2-3.57" transform="translate(-61.938 -117.345)" fill="#e0e0e0"/>
            <path id="Trazado_734172" data-name="Trazado 734172" d="M232.255,404.562c-.053-.029.261-.6.58-1.575a9.316,9.316,0,0,0,.422-3.942,7.865,7.865,0,0,0-1.441-3.668c-.607-.828-1.117-1.234-1.076-1.282a3.836,3.836,0,0,1,1.281,1.123,7.353,7.353,0,0,1,1.6,3.784,8.469,8.469,0,0,1-.542,4.073,4.38,4.38,0,0,1-.825,1.488" transform="translate(-67.797 -115.795)" fill="#fff"/>
            <path id="Trazado_734173" data-name="Trazado 734173" d="M228.48,413.387c-.056-.088.442-.5,1.02-1.022s1.035-.979,1.118-.915-.262.638-.871,1.188-1.217.834-1.268.749" transform="translate(-67.133 -120.894)" fill="#fff"/>
            <path id="Trazado_734174" data-name="Trazado 734174" d="M210.31,399.866a4.38,4.38,0,0,1,.751-1.327,12.4,12.4,0,0,1,5.827-4.37,4.352,4.352,0,0,1,1.485-.345,20.692,20.692,0,0,0-4.507,2.387,21.2,21.2,0,0,0-3.556,3.655" transform="translate(-61.794 -115.713)" fill="#fff"/>
            <path id="Trazado_734175" data-name="Trazado 734175" d="M148.183,156.761c-5.31-1.419-8.692-6.02-7.555-10.278s6.364-6.558,11.674-5.14,8.692,6.019,7.555,10.277-6.364,6.559-11.674,5.14" transform="translate(-41.256 -41.408)" fill="#f5f5f5"/>
            <path id="Trazado_734176" data-name="Trazado 734176" d="M146.01,152.479a6.737,6.737,0,0,0,3.673,3.413,8.672,8.672,0,0,0,4.932.609c.6-.107,1.284-.381,1.34-.935.051-.5-.473-.95-1.021-1.086a4.924,4.924,0,0,0-1.666.006,6.985,6.985,0,0,1-2.744-.213,3.605,3.605,0,0,1-2.121-1.6c-.278-.517-.4-1.157-.945-1.469a1.117,1.117,0,0,0-1.22.075,1.02,1.02,0,0,0-.229,1.2" transform="translate(-42.87 -44.386)" fill="#ebebeb"/>
            <g id="Grupo_1033491" data-name="Grupo 1033491" transform="translate(106.76 101.8)" opacity="0.1">
              <g id="Grupo_1033490" data-name="Grupo 1033490">
                <g id="Grupo_1033489" data-name="Grupo 1033489" clip-path="url(#clip-path-5)">
                  <path id="Trazado_734177" data-name="Trazado 734177" d="M156.232,148.155a3.125,3.125,0,0,0,1.72.752,1.04,1.04,0,0,0,1.156-1.025l0-.022a2.491,2.491,0,0,0-.35-.863,7.108,7.108,0,0,0-5.582-2.823,3,3,0,0,0-1.2.1,1.115,1.115,0,0,0-.77.757c-.138.651.572,1.263,1.289,1.5s1.5.256,2.19.555a7.73,7.73,0,0,1,1.554,1.068" transform="translate(-151.181 -144.158)" fill="#fff"/>
                </g>
              </g>
            </g>
            <path id="Trazado_734178" data-name="Trazado 734178" d="M157.89,153.261a1.947,1.947,0,0,1-.391.607,5.171,5.171,0,0,1-1.536,1.239,7.865,7.865,0,0,1-6.37.192,6.454,6.454,0,0,1-2.9-2.1,5.636,5.636,0,0,1-1.234-2.659,4.064,4.064,0,0,1,.2-1.966,2.859,2.859,0,0,1,.217-.49c.058-.108.094-.161.105-.156a4.944,4.944,0,0,1-.185.688,4.323,4.323,0,0,0-.078,1.883,5.573,5.573,0,0,0,1.241,2.489,6.283,6.283,0,0,0,2.77,1.973,7.9,7.9,0,0,0,6.12-.081,7.194,7.194,0,0,0,2.045-1.615" transform="translate(-42.726 -43.464)" fill="#e0e0e0"/>
            <path id="Trazado_734179" data-name="Trazado 734179" d="M157.5,157.443a9.937,9.937,0,0,1,1.172-.364,6.933,6.933,0,0,0,2.491-1.441,5.826,5.826,0,0,0,1.556-2.4c.238-.706.272-1.18.333-1.176a2.413,2.413,0,0,1-.083,1.249,5.316,5.316,0,0,1-1.555,2.594,6.107,6.107,0,0,1-2.669,1.421,2.689,2.689,0,0,1-1.244.114" transform="translate(-46.279 -44.681)" fill="#fff"/>
            <path id="Trazado_734180" data-name="Trazado 734180" d="M152.491,159.315c.039-.1.5,0,1.052.119s1.014.215,1.011.318-.5.168-1.087.041-1.015-.386-.976-.478" transform="translate(-44.805 -46.8)" fill="#fff"/>
            <path id="Trazado_734181" data-name="Trazado 734181" d="M151.708,143.446a8,8,0,0,1,7.03,2.188,19.154,19.154,0,0,0-3.358-1.6,19.708,19.708,0,0,0-3.672-.589" transform="translate(-44.576 -42.102)" fill="#fff"/>
            <path id="Trazado_734182" data-name="Trazado 734182" d="M406.888,46.949c-5.978-4.422-7.949-11.893-4.4-16.685s11.266-5.094,17.243-.672,7.95,11.893,4.4,16.686-11.266,5.093-17.244.671" transform="translate(-117.743 -7.775)" fill="#f5f5f5"/>
            <path id="Trazado_734183" data-name="Trazado 734183" d="M407.8,39.267a9.106,9.106,0,0,0,2.926,6.119,11.745,11.745,0,0,0,5.9,3.216c.812.165,1.8.157,2.15-.511a1.634,1.634,0,0,0-.745-1.874,6.662,6.662,0,0,0-2.1-.82,9.468,9.468,0,0,1-3.347-1.63,4.883,4.883,0,0,1-1.874-3.065c-.094-.79.066-1.657-.46-2.318a1.509,1.509,0,0,0-1.572-.512,1.38,1.38,0,0,0-.883,1.4" transform="translate(-119.82 -11.11)" fill="#ebebeb"/>
            <g id="Grupo_1033494" data-name="Grupo 1033494" transform="translate(295.069 22.571)" opacity="0.1">
              <g id="Grupo_1033493" data-name="Grupo 1033493">
                <g id="Grupo_1033492" data-name="Grupo 1033492" clip-path="url(#clip-path-6)">
                  <path id="Trazado_734184" data-name="Trazado 734184" d="M422.81,38.965a4.231,4.231,0,0,0,1.792,1.8,1.408,1.408,0,0,0,1.963-.715l.006-.03a3.374,3.374,0,0,0-.012-1.259c-.55-2.776-2.838-4.969-5.622-6.325a4.074,4.074,0,0,0-1.563-.47,1.512,1.512,0,0,0-1.346.57c-.5.751.093,1.875.877,2.527s1.76,1.066,2.48,1.786a10.474,10.474,0,0,1,1.426,2.116" transform="translate(-417.843 -31.963)" fill="#fff"/>
                </g>
              </g>
            </g>
            <path id="Trazado_734185" data-name="Trazado 734185" d="M422.044,46.107c.007.011-.059.066-.192.164a5.343,5.343,0,0,1-.612.383,7.074,7.074,0,0,1-2.541.774,10.641,10.641,0,0,1-8.065-2.924A9.977,9.977,0,0,1,409,42.587a8.345,8.345,0,0,1-.962-2.142,7.6,7.6,0,0,1-.244-3.931,5.554,5.554,0,0,1,1.2-2.371,4.269,4.269,0,0,1,.506-.516c.124-.109.192-.162.2-.153.028.028-.229.261-.594.758a5.791,5.791,0,0,0-1.058,2.337,7.551,7.551,0,0,0,.313,3.776,8.541,8.541,0,0,0,2.52,3.888,10.678,10.678,0,0,0,7.79,2.936,8.9,8.9,0,0,0,3.372-1.063" transform="translate(-119.775 -9.835)" fill="#e0e0e0"/>
            <path id="Trazado_734186" data-name="Trazado 734186" d="M418.933,52.207c.015-.059.636.1,1.652.169a9.207,9.207,0,0,0,3.878-.561,7.774,7.774,0,0,0,3.161-2.277c.645-.783.909-1.371.966-1.343a3.761,3.761,0,0,1-.761,1.5,7.263,7.263,0,0,1-3.234,2.46,8.374,8.374,0,0,1-4.036.477,4.3,4.3,0,0,1-1.627-.428" transform="translate(-123.094 -14.161)" fill="#fff"/>
            <path id="Trazado_734187" data-name="Trazado 734187" d="M412.8,50.945c.072-.076.584.3,1.23.726s1.191.753,1.149.848-.677-.093-1.352-.542-1.1-.962-1.027-1.032" transform="translate(-121.289 -14.966)" fill="#fff"/>
            <path id="Trazado_734188" data-name="Trazado 734188" d="M419.669,30.648a4.3,4.3,0,0,1,1.455.393,12.243,12.243,0,0,1,5.613,4.514,4.247,4.247,0,0,1,.692,1.34,20.589,20.589,0,0,0-3.39-3.732,21.107,21.107,0,0,0-4.371-2.514" transform="translate(-123.31 -9.003)" fill="#fff"/>
          </g>
        </g>
        <g id="Grupo_1033498" data-name="Grupo 1033498">
          <g id="Grupo_1033497" data-name="Grupo 1033497" clip-path="url(#clip-path-2)">
            <path id="Trazado_734189" data-name="Trazado 734189" d="M262.006,385.579c-.047.09-13.5-6.772-30.038-15.326S202.049,354.689,202.1,354.6s13.494,6.771,30.041,15.327,29.916,15.562,29.869,15.652" transform="translate(-59.381 -104.191)" fill="#263238"/>
            <path id="Trazado_734190" data-name="Trazado 734190" d="M325,30.3c.076.067-6.671,7.87-15.068,17.425s-15.27,17.25-15.347,17.183,6.67-7.867,15.07-17.426S324.927,30.237,325,30.3" transform="translate(-86.558 -8.904)" fill="#263238"/>
            <path id="Trazado_734191" data-name="Trazado 734191" d="M130.39,72.335c.023-.1,15.24,3.4,33.984,7.812s33.925,8.072,33.9,8.171-15.236-3.4-33.987-7.813-33.922-8.072-33.9-8.17" transform="translate(-38.312 -21.253)" fill="#263238"/>
            <path id="Trazado_734192" data-name="Trazado 734192" d="M200.354,131.385c.066.078-14.02,12.191-31.459,27.052s-31.635,26.852-31.7,26.775,14.018-12.188,31.462-27.055,31.632-26.849,31.7-26.772" transform="translate(-40.311 -38.604)" fill="#263238"/>
          </g>
        </g>
        <g id="Grupo_1033500" data-name="Grupo 1033500">
          <g id="Grupo_1033499" data-name="Grupo 1033499" clip-path="url(#clip-path-2)">
            <path id="Trazado_734193" data-name="Trazado 734193" d="M352.5,17.3A17.1,17.1,0,1,1,335.395.2a17.1,17.1,0,0,1,17.1,17.1" transform="translate(-93.522 -0.058)" fill="#fafafa"/>
            <path id="Trazado_734194" data-name="Trazado 734194" d="M352.423,17.244a1.529,1.529,0,0,1-.032-.277c-.015-.2-.035-.469-.059-.811-.012-.18-.025-.379-.04-.6s-.072-.455-.112-.713a12.418,12.418,0,0,0-.362-1.76,16.316,16.316,0,0,0-1.9-4.523A16.955,16.955,0,0,0,329.55,1.338a17.591,17.591,0,0,0-2.208.972,17.56,17.56,0,0,0-2.075,1.335,19.061,19.061,0,0,0-1.92,1.633,19.217,19.217,0,0,0-1.657,1.962,16.373,16.373,0,0,0-2.419,4.662,18.075,18.075,0,0,0-.873,5.339,18.082,18.082,0,0,0,.871,5.341,16.4,16.4,0,0,0,2.419,4.664,19.232,19.232,0,0,0,1.658,1.963,19.082,19.082,0,0,0,1.92,1.633,15.563,15.563,0,0,0,4.284,2.306,17,17,0,0,0,20.367-7.224,16.32,16.32,0,0,0,1.9-4.523,12.4,12.4,0,0,0,.362-1.76c.04-.258.088-.494.112-.713s.028-.417.04-.6c.025-.342.044-.61.059-.811a1.529,1.529,0,0,1,.032-.277,1.559,1.559,0,0,1,0,.278c-.006.2-.013.471-.023.815q-.01.271-.021.6c-.018.22-.061.459-.095.72a12.192,12.192,0,0,1-.331,1.78,16.184,16.184,0,0,1-1.864,4.593,17.217,17.217,0,0,1-11.59,8.165,17.282,17.282,0,0,1-9.07-.727,15.862,15.862,0,0,1-4.377-2.343,19.33,19.33,0,0,1-1.963-1.664,19.551,19.551,0,0,1-1.7-2,16.716,16.716,0,0,1-2.475-4.762,18.414,18.414,0,0,1-.893-5.457,18.4,18.4,0,0,1,.893-5.454,16.72,16.72,0,0,1,2.476-4.76,19.367,19.367,0,0,1,1.7-2,19.336,19.336,0,0,1,1.962-1.663,15.846,15.846,0,0,1,4.376-2.342A17.284,17.284,0,0,1,338.5.293a17.219,17.219,0,0,1,11.59,8.163,16.221,16.221,0,0,1,1.864,4.594,12.2,12.2,0,0,1,.331,1.781c.034.26.076.5.095.72s.015.419.021.6c.01.344.018.614.023.815a1.559,1.559,0,0,1,0,.278" transform="translate(-93.446 0)" fill="#263238"/>
            <path id="Trazado_734195" data-name="Trazado 734195" d="M285.052,89.316a33.242,33.242,0,1,1-33.242-33.242,33.243,33.243,0,0,1,33.242,33.242" transform="translate(-64.221 -16.476)" fill="#fafafa"/>
            <path id="Trazado_734196" data-name="Trazado 734196" d="M284.975,89.255s-.022-.182-.046-.538-.056-.893-.1-1.578q-.03-.521-.067-1.162c-.044-.426-.135-.887-.209-1.388s-.164-1.042-.256-1.619a18.161,18.161,0,0,0-.434-1.813,31.65,31.65,0,0,0-3.678-8.824,33.043,33.043,0,0,0-8.421-9.4l-1.431-1.066c-.5-.33-1.032-.632-1.556-.955-.535-.3-1.041-.674-1.614-.934l-1.719-.825-.874-.415-.918-.334-1.862-.679c-.633-.209-1.3-.344-1.95-.522a16.872,16.872,0,0,0-2-.454,30.83,30.83,0,0,0-4.183-.484c-.713-.025-1.432-.094-2.157-.083l-2.189.113c-.367.025-.738.023-1.105.071l-1.1.17c-.737.121-1.485.208-2.225.361a34.975,34.975,0,0,0-4.41,1.294l-1.1.4c-.183.069-.369.131-.549.206l-.53.256-2.136,1.031c-.7.379-1.368.82-2.059,1.229-.339.217-.7.4-1.023.646l-.973.729a37.212,37.212,0,0,0-3.751,3.188l-1.681,1.851-.423.465-.379.5-.757,1.013-.761,1.017-.666,1.088-.665,1.095-.334.549c-.1.189-.188.386-.282.578l-1.123,2.332-.9,2.448a32.765,32.765,0,0,0,0,20.864l.9,2.45,1.123,2.332.282.578.333.549.665,1.1.665,1.088.761,1.018.758,1.013.379.5.423.465,1.681,1.852a37.127,37.127,0,0,0,3.751,3.188l.974.729c.322.244.684.429,1.022.646.691.41,1.361.851,2.06,1.23l2.137,1.031.53.256c.18.076.366.137.549.206l1.1.4a34.985,34.985,0,0,0,4.411,1.294c.74.153,1.489.239,2.225.361l1.1.17c.368.048.739.046,1.106.071l2.189.113c.725.011,1.443-.059,2.157-.083a30.851,30.851,0,0,0,4.184-.485,16.766,16.766,0,0,0,2-.454c.655-.178,1.317-.313,1.949-.522l1.863-.679.918-.334.874-.415,1.719-.824c.573-.261,1.08-.63,1.614-.934.524-.323,1.054-.625,1.556-.955l1.431-1.067a33.047,33.047,0,0,0,8.42-9.4,31.7,31.7,0,0,0,3.677-8.824,17.93,17.93,0,0,0,.433-1.813q.137-.865.256-1.619c.074-.5.165-.963.209-1.388q.037-.641.067-1.162.064-1.029.1-1.578c.024-.356.046-.538.046-.538s0,.182-.008.539-.035.894-.061,1.582q-.022.523-.05,1.167c-.038.427-.124.89-.192,1.395l-.239,1.627a17.8,17.8,0,0,1-.419,1.824,31.53,31.53,0,0,1-3.639,8.894,33.128,33.128,0,0,1-8.439,9.5l-1.439,1.08c-.506.335-1.039.641-1.566.968-.538.309-1.048.682-1.625.947l-1.731.837-.881.42-.924.34-1.878.69c-.638.213-1.305.351-1.965.532a16.875,16.875,0,0,1-2.02.463,31.03,31.03,0,0,1-4.221.5c-.72.027-1.446.1-2.177.088l-2.211-.109c-.37-.025-.745-.022-1.116-.07l-1.114-.169c-.744-.121-1.5-.208-2.248-.362a35.25,35.25,0,0,1-4.458-1.3l-1.109-.405c-.184-.069-.373-.131-.555-.208l-.536-.258-2.161-1.039c-.706-.382-1.383-.826-2.083-1.24-.342-.219-.708-.405-1.033-.652l-.985-.736a37.475,37.475,0,0,1-3.794-3.219l-1.7-1.869-.428-.47-.384-.508-.766-1.023-.769-1.028-.674-1.1-.673-1.107-.338-.555-.286-.585-1.136-2.358-.908-2.476a33.1,33.1,0,0,1,0-21.1q.457-1.241.909-2.475l1.136-2.357c.1-.194.186-.393.287-.584l.337-.555.673-1.107.674-1.1.769-1.027.765-1.024.385-.507.427-.47,1.7-1.869a37.563,37.563,0,0,1,3.794-3.219l.984-.735c.326-.246.691-.433,1.034-.652.7-.414,1.376-.858,2.083-1.239l2.16-1.039.536-.257c.183-.076.371-.138.556-.208l1.109-.405a35.279,35.279,0,0,1,4.457-1.3c.748-.154,1.5-.239,2.248-.362l1.114-.169c.371-.048.746-.045,1.116-.071l2.21-.109c.731-.01,1.457.061,2.176.088a31.029,31.029,0,0,1,4.221.5,17.015,17.015,0,0,1,2.02.463c.66.181,1.328.32,1.965.532l1.878.69.924.34.881.421,1.731.837c.577.263,1.087.638,1.625.946.527.327,1.06.633,1.566.967l1.439,1.08a33.13,33.13,0,0,1,8.44,9.5,31.534,31.534,0,0,1,3.64,8.894,17.949,17.949,0,0,1,.418,1.825q.128.87.24,1.627c.068.5.153.967.192,1.4q.028.642.05,1.166.04,1.032.061,1.583c.012.357.008.539.008.539" transform="translate(-64.145 -16.414)" fill="#263238"/>
          </g>
        </g>
        <g id="Grupo_1033502" data-name="Grupo 1033502">
          <g id="Grupo_1033501" data-name="Grupo 1033501" clip-path="url(#clip-path-2)">
            <path id="Trazado_734197" data-name="Trazado 734197" d="M430.751,447.288c0,.1-73,.184-163.039.184-90.066,0-163.054-.082-163.054-.184s72.989-.184,163.054-.184c90.035,0,163.039.082,163.039.184" transform="translate(-30.751 -131.372)" fill="#263238"/>
          </g>
        </g>
        <g id="Grupo_1033522" data-name="Grupo 1033522" transform="translate(25.263 10.105)">
          <g id="Grupo_1033521" data-name="Grupo 1033521" transform="translate(0 0)" clip-path="url(#clip-path-2)">
            <path id="Trazado_734198" data-name="Trazado 734198" d="M115.326,65.977a46.346,46.346,0,1,1-25.7-60.293,46.345,46.345,0,0,1,25.7,60.293" transform="translate(-7.631 -0.683)" fill="#fafafa"/>
            <path id="Trazado_734199" data-name="Trazado 734199" d="M115.251,65.907s.078-.244.245-.711.448-1.153.727-2.082a46.328,46.328,0,0,0-4.282-38.171A46.123,46.123,0,0,0,97.106,9.679,46.963,46.963,0,0,0,80.233,3.123a49.391,49.391,0,0,0-6.386-.669,46.309,46.309,0,0,0-25.924,6.93A45.486,45.486,0,0,0,42.17,13.6a43.121,43.121,0,0,0-5.111,5.14,46.165,46.165,0,0,0-10.88,27.041,43.083,43.083,0,0,0,.126,7.25,45.441,45.441,0,0,0,1.229,7.029A46.31,46.31,0,0,0,41.442,83.017a49.279,49.279,0,0,0,5.071,3.939A46.983,46.983,0,0,0,63.228,93.91,46.121,46.121,0,0,0,84.5,93.169a46.279,46.279,0,0,0,29.518-24.575c.442-.862.7-1.556.917-2s.316-.683.316-.683-.355.956-1.166,2.719a45.518,45.518,0,0,1-4.3,7.309,46.34,46.34,0,0,1-9.35,9.6A46.912,46.912,0,0,1,84.57,93.419a46.331,46.331,0,0,1-21.4.789,47.215,47.215,0,0,1-16.84-6.977,49.424,49.424,0,0,1-5.113-3.962A46.621,46.621,0,0,1,27.186,60.15a45.8,45.8,0,0,1-1.242-7.083,43.472,43.472,0,0,1-.131-7.307A46.5,46.5,0,0,1,36.78,18.5a43.439,43.439,0,0,1,5.153-5.18,45.82,45.82,0,0,1,5.8-4.248A46.612,46.612,0,0,1,73.859,2.115a49.468,49.468,0,0,1,6.432.681A47.217,47.217,0,0,1,97.27,9.422a46.319,46.319,0,0,1,14.9,15.387,46.918,46.918,0,0,1,5.986,16.673,46.313,46.313,0,0,1,.1,13.4,45.521,45.521,0,0,1-1.957,8.253c-.636,1.834-1.042,2.77-1.042,2.77" transform="translate(-7.557 -0.613)" fill="#263238"/>
            <path id="Trazado_734200" data-name="Trazado 734200" d="M81.058,53.285c-8.574,5.585-19.64,3.8-24.715-3.995S54.1,30.654,62.678,25.069s19.64-3.8,24.715,3.995S89.632,47.7,81.058,53.285" transform="translate(-15.815 -6.41)" fill="#ffa031"/>
            <g id="Grupo_1033505" data-name="Grupo 1033505" transform="translate(48.119 31.416)" opacity="0.3">
              <g id="Grupo_1033504" data-name="Grupo 1033504">
                <g id="Grupo_1033503" data-name="Grupo 1033503" clip-path="url(#clip-path-11)">
                  <path id="Trazado_734201" data-name="Trazado 734201" d="M69.681,54.9c4.27,1.341,6.72.89,9.616-.347a14.45,14.45,0,0,0,6.891-6.212c.568-1.023.974-2.4.2-3.279a2.256,2.256,0,0,0-2.882-.1A8.34,8.34,0,0,0,81.5,47.361,11.675,11.675,0,0,1,77.861,51a6.335,6.335,0,0,1-4.989.738c-1.121-.348-2.242-1.092-3.368-.765a1.947,1.947,0,0,0-1.363,1.862,2.38,2.38,0,0,0,1.54,2.063" transform="translate(-68.14 -44.488)"/>
                </g>
              </g>
            </g>
            <g id="Grupo_1033508" data-name="Grupo 1033508" transform="translate(45.469 20.499)" opacity="0.1">
              <g id="Grupo_1033507" data-name="Grupo 1033507">
                <g id="Grupo_1033506" data-name="Grupo 1033506" clip-path="url(#clip-path-12)">
                  <path id="Trazado_734202" data-name="Trazado 734202" d="M75.589,34.564a5.216,5.216,0,0,0,3.221-1.387,2.207,2.207,0,0,0-.154-3.143l-.04-.026a5.257,5.257,0,0,0-1.729-.744c-4.035-.917-8,.919-11.033,3.944a5.19,5.19,0,0,0-1.3,1.876,2.428,2.428,0,0,0,.215,2.2c.82,1.14,2.607,1,3.832.315s2.2-1.787,3.491-2.347a13.356,13.356,0,0,1,3.5-.691" transform="translate(-64.388 -29.028)" fill="#fff"/>
                </g>
              </g>
            </g>
            <path id="Trazado_734203" data-name="Trazado 734203" d="M85.214,38.23a1.362,1.362,0,0,1,.124.343,9.27,9.27,0,0,1,.245,1.015,11.026,11.026,0,0,1,.013,3.84,12.092,12.092,0,0,1-2.28,5.212,14.45,14.45,0,0,1-5.391,4.407,11.68,11.68,0,0,1-3.486,1.039,11.808,11.808,0,0,1-3.386-.082,11.148,11.148,0,0,1-5.259-2.161A9.792,9.792,0,0,1,63.3,48.925a7.717,7.717,0,0,1-.463-.936,1.376,1.376,0,0,1-.127-.341c.037-.018.234.445.713,1.2a10.272,10.272,0,0,0,2.527,2.787A11.1,11.1,0,0,0,71.1,53.67a11.659,11.659,0,0,0,3.289.059,11.466,11.466,0,0,0,3.378-1.015,14.345,14.345,0,0,0,5.276-4.278,12.083,12.083,0,0,0,2.3-5.055,11.7,11.7,0,0,0,.1-3.771c-.125-.89-.263-1.372-.227-1.381" transform="translate(-18.426 -11.233)" fill="#263238"/>
            <path id="Trazado_734204" data-name="Trazado 734204" d="M93.593,45.765c-.058-.035.487-.831,1.032-2.263a12.966,12.966,0,0,0-1.043-11.458c-.8-1.31-1.474-1.994-1.424-2.039a2.166,2.166,0,0,1,.5.453A10.607,10.607,0,0,1,93.8,31.9,12.372,12.372,0,0,1,94.866,43.6a10.581,10.581,0,0,1-.86,1.631,2.164,2.164,0,0,1-.413.536" transform="translate(-27.078 -8.816)" fill="#fff"/>
            <path id="Trazado_734205" data-name="Trazado 734205" d="M87.6,58.051a10.134,10.134,0,0,1,1.572-1.176,10.067,10.067,0,0,1,1.586-1.158c.074.063-.47.794-1.367,1.454a3.77,3.77,0,0,1-1.791.881" transform="translate(-25.738 -16.369)" fill="#fff"/>
            <path id="Trazado_734206" data-name="Trazado 734206" d="M62.676,34.38c-.021-.014.076-.189.27-.492a10.732,10.732,0,0,1,.92-1.218,15.466,15.466,0,0,1,8.561-5.029,10.785,10.785,0,0,1,1.512-.211,1.633,1.633,0,0,1,.561,0c.006.063-.782.149-2.015.46a17.447,17.447,0,0,0-8.426,4.951c-.871.924-1.33,1.573-1.383,1.536" transform="translate(-18.415 -8.055)" fill="#fff"/>
            <path id="Trazado_734207" data-name="Trazado 734207" d="M105.05,78.933c-2.866-7.471.315-15.639,7.1-18.243s14.616,1.341,17.482,8.812-.315,15.639-7.1,18.243S107.915,86.4,105.05,78.933" transform="translate(-30.557 -17.597)" fill="#ffa031"/>
            <g id="Grupo_1033511" data-name="Grupo 1033511" transform="translate(79.343 49.386)" opacity="0.3">
              <g id="Grupo_1033510" data-name="Grupo 1033510">
                <g id="Grupo_1033509" data-name="Grupo 1033509" clip-path="url(#clip-path-13)">
                  <path id="Trazado_734208" data-name="Trazado 734208" d="M113.921,70.8a9.491,9.491,0,0,0-1.31,7.409,11.3,11.3,0,0,0,3.621,6.286c.689.6,1.674,1.138,2.474.693A1.764,1.764,0,0,0,119.256,83a6.515,6.515,0,0,0-1.51-1.929,9.138,9.138,0,0,1-2.186-3.38,4.957,4.957,0,0,1,.254-3.936c.45-.8,1.2-1.536,1.137-2.451a1.523,1.523,0,0,0-1.2-1.347,1.861,1.861,0,0,0-1.83.84" transform="translate(-112.357 -69.935)"/>
                </g>
              </g>
            </g>
            <g id="Grupo_1033514" data-name="Grupo 1033514" transform="translate(90.507 49.349)" opacity="0.1">
              <g id="Grupo_1033513" data-name="Grupo 1033513">
                <g id="Grupo_1033512" data-name="Grupo 1033512" clip-path="url(#clip-path-14)">
                  <path id="Trazado_734209" data-name="Trazado 734209" d="M129.49,78.73a4.083,4.083,0,0,0,.532,2.69,1.726,1.726,0,0,0,2.429.4l.026-.025a4.1,4.1,0,0,0,.852-1.2c1.362-2.935.609-6.269-1.208-9.081a4.061,4.061,0,0,0-1.22-1.3,1.9,1.9,0,0,0-1.72-.2c-1.007.441-1.2,1.829-.869,2.878a32.379,32.379,0,0,1,1.222,3.053,10.436,10.436,0,0,1-.045,2.789" transform="translate(-128.166 -69.882)" fill="#fff"/>
                </g>
              </g>
            </g>
            <path id="Trazado_734210" data-name="Trazado 734210" d="M122.314,85.34a.836.836,0,0,1-.282.046,6.78,6.78,0,0,1-.818.029,8.561,8.561,0,0,1-2.948-.608,9.455,9.455,0,0,1-3.628-2.6,11.305,11.305,0,0,1-2.5-4.858,9.131,9.131,0,0,1-.224-2.848,9.255,9.255,0,0,1,.622-2.586,8.721,8.721,0,0,1,2.53-3.676,7.6,7.6,0,0,1,2.654-1.419,5.626,5.626,0,0,1,.794-.194.854.854,0,0,1,.284-.033c.008.037-.376.117-1.032.363a8.082,8.082,0,0,0-2.531,1.482,8.673,8.673,0,0,0-2.382,3.6,9.088,9.088,0,0,0-.58,2.495,8.954,8.954,0,0,0,.222,2.736,11.213,11.213,0,0,0,2.4,4.72,9.454,9.454,0,0,0,3.472,2.58,9.24,9.24,0,0,0,2.857.706c.7.055,1.091.033,1.092.068" transform="translate(-32.876 -19.565)" fill="#263238"/>
            <path id="Trazado_734211" data-name="Trazado 734211" d="M115.939,90.537c.044-.046.571.493,1.578,1.136a10.215,10.215,0,0,0,8.906,1.077c1.131-.386,1.77-.783,1.8-.728.012.02-.133.141-.421.324a7.987,7.987,0,0,1-1.292.648,9.614,9.614,0,0,1-9.141-1.105,8.064,8.064,0,0,1-1.1-.936c-.235-.247-.348-.4-.331-.415" transform="translate(-34.066 -26.601)" fill="#fff"/>
            <path id="Trazado_734212" data-name="Trazado 734212" d="M111.88,84.4c.1-.024.333.621.679,1.378s.674,1.358.589,1.419-.564-.469-.924-1.267a2.529,2.529,0,0,1-.344-1.53" transform="translate(-32.862 -24.799)" fill="#fff"/>
            <path id="Trazado_734213" data-name="Trazado 734213" d="M132.6,68.906a4.759,4.759,0,0,1,1.136,1.173,11.927,11.927,0,0,1,2.449,7.387,4.791,4.791,0,0,1-.21,1.619,18.387,18.387,0,0,0-.744-5.4,18.365,18.365,0,0,0-2.63-4.777" transform="translate(-38.962 -20.246)" fill="#fff"/>
            <path id="Trazado_734214" data-name="Trazado 734214" d="M72.456,104.013c-4.633,1.561-9.374-.1-10.59-3.712s1.554-7.8,6.187-9.362,9.374.1,10.59,3.712-1.554,7.8-6.187,9.362" transform="translate(-18.094 -26.548)" fill="#ffa031"/>
            <g id="Grupo_1033517" data-name="Grupo 1033517" transform="translate(47.593 71.107)" opacity="0.3">
              <g id="Grupo_1033516" data-name="Grupo 1033516">
                <g id="Grupo_1033515" data-name="Grupo 1033515" clip-path="url(#clip-path-15)">
                  <path id="Trazado_734215" data-name="Trazado 734215" d="M67.837,103.677a6.049,6.049,0,0,0,4.382.667,7.921,7.921,0,0,0,3.96-1.958c.4-.37.769-.9.543-1.323a1.076,1.076,0,0,0-1.285-.285,4.489,4.489,0,0,0-1.236.814,6.384,6.384,0,0,1-2.142,1.18,3.259,3.259,0,0,1-2.35-.119c-.457-.237-.86-.635-1.413-.6a1.009,1.009,0,0,0-.87.646.862.862,0,0,0,.41.972" transform="translate(-67.396 -100.694)"/>
                </g>
              </g>
            </g>
            <g id="Grupo_1033520" data-name="Grupo 1033520" transform="translate(48.066 65.815)" opacity="0.1">
              <g id="Grupo_1033519" data-name="Grupo 1033519">
                <g id="Grupo_1033518" data-name="Grupo 1033518" clip-path="url(#clip-path-16)">
                  <path id="Trazado_734216" data-name="Trazado 734216" d="M73.365,95.615a2.854,2.854,0,0,0,1.643-.3.9.9,0,0,0,.363-1.3l-.014-.014a2.164,2.164,0,0,0-.677-.449,6.465,6.465,0,0,0-5.515.683,2.731,2.731,0,0,0-.845.657.963.963,0,0,0-.206.918c.213.535,1.037.63,1.684.451s1.238-.544,1.9-.665a7.008,7.008,0,0,1,1.672.012" transform="translate(-68.065 -93.2)" fill="#ffa031"/>
                </g>
              </g>
            </g>
            <path id="Trazado_734217" data-name="Trazado 734217" d="M77.077,98.381a1.549,1.549,0,0,1,.01.636,4.477,4.477,0,0,1-.544,1.653,7.124,7.124,0,0,1-4.611,3.223,5.863,5.863,0,0,1-3.162-.083,5,5,0,0,1-2.234-1.307,3.446,3.446,0,0,1-.826-1.536,1.485,1.485,0,0,1-.068-.633,3.749,3.749,0,0,1,.206.592,3.664,3.664,0,0,0,.876,1.4,4.941,4.941,0,0,0,2.143,1.163,5.706,5.706,0,0,0,2.984.049,7.183,7.183,0,0,0,4.469-3,6.5,6.5,0,0,0,.759-2.158" transform="translate(-19.284 -28.907)" fill="#263238"/>
            <path id="Trazado_734218" data-name="Trazado 734218" d="M79.727,101.376c-.036-.044.269-.322.674-.833a6.19,6.19,0,0,0,1.148-2.226,4.979,4.979,0,0,0,.011-2.481,10.625,10.625,0,0,1-.311-1.02c.034-.024.323.3.56.943a4.5,4.5,0,0,1,.1,2.65,5.327,5.327,0,0,1-1.306,2.3c-.475.489-.844.7-.871.662" transform="translate(-23.425 -27.859)" fill="#fff"/>
            <path id="Trazado_734219" data-name="Trazado 734219" d="M75.835,105.992c-.021-.1.364-.264.83-.449s.86-.327.914-.239-.277.384-.779.58-.946.205-.965.107" transform="translate(-22.282 -30.933)" fill="#fff"/>
            <path id="Trazado_734220" data-name="Trazado 734220" d="M67.592,94.472a7.1,7.1,0,0,1,6.284-1.843,20.59,20.59,0,0,0-3.263.506,21.4,21.4,0,0,0-3.021,1.337" transform="translate(-19.859 -27.168)" fill="#fff"/>
          </g>
        </g>
        <g id="Grupo_1033533" data-name="Grupo 1033533">
          <g id="Grupo_1033532" data-name="Grupo 1033532" clip-path="url(#clip-path-2)">
            <path id="Trazado_734221" data-name="Trazado 734221" d="M0,269.357a77.307,77.307,0,1,0,77.307-77.308A77.307,77.307,0,0,0,0,269.357" transform="translate(0 -56.429)" fill="#fafafa"/>
            <path id="Trazado_734222" data-name="Trazado 734222" d="M0,269.295s0-.424.013-1.254q.013-.624.03-1.544c.009-.615.02-1.328.093-2.135s.124-1.71.2-2.706c.1-.994.251-2.076.391-3.252a80.642,80.642,0,0,1,1.543-8.023,76.26,76.26,0,0,1,3.145-9.734,74.515,74.515,0,0,1,5.363-10.921,78.225,78.225,0,0,1,19.637-22.041,77.191,77.191,0,0,1,32.595-14.51,78.7,78.7,0,0,1,30.36.323,82.584,82.584,0,0,1,10.362,2.948,77.654,77.654,0,0,1,36.039,27,76.378,76.378,0,0,1,6.321,10.17c.446.9.949,1.78,1.35,2.709l1.253,2.77c.749,1.887,1.522,3.774,2.139,5.726a75.458,75.458,0,0,1,2.953,11.989,77.3,77.3,0,0,1,0,24.947,75.584,75.584,0,0,1-2.952,11.994c-.617,1.953-1.39,3.84-2.138,5.728l-1.253,2.77c-.4.93-.9,1.807-1.35,2.71a76.22,76.22,0,0,1-6.322,10.172,77.654,77.654,0,0,1-36.044,27.01,82.6,82.6,0,0,1-10.363,2.948A78.7,78.7,0,0,1,63,345.414a77.214,77.214,0,0,1-32.6-14.513,78.2,78.2,0,0,1-19.634-22.042,74.46,74.46,0,0,1-5.363-10.92,76.326,76.326,0,0,1-3.145-9.734,80.587,80.587,0,0,1-1.543-8.021c-.14-1.175-.294-2.257-.391-3.251q-.108-1.494-.2-2.706c-.073-.806-.084-1.519-.093-2.134s-.022-1.128-.03-1.544C0,269.719,0,269.295,0,269.295s.023.424.05,1.253q.02.624.049,1.544c.015.614.032,1.326.111,2.131s.136,1.708.215,2.7c.1.992.261,2.072.407,3.244.33,2.34.841,5.022,1.573,8a76.662,76.662,0,0,0,3.169,9.7,74.558,74.558,0,0,0,5.377,10.879,78.139,78.139,0,0,0,19.615,21.941,77.007,77.007,0,0,0,32.494,14.42,78.464,78.464,0,0,0,30.238-.347,82.342,82.342,0,0,0,10.316-2.942,77.345,77.345,0,0,0,35.869-26.9,75.912,75.912,0,0,0,6.289-10.126c.443-.9.946-1.773,1.343-2.7l1.246-2.758c.744-1.879,1.513-3.758,2.127-5.7a75.187,75.187,0,0,0,2.936-11.936,76.978,76.978,0,0,0,0-24.83,75.143,75.143,0,0,0-2.938-11.932c-.614-1.943-1.383-3.821-2.128-5.7q-.624-1.381-1.246-2.757c-.4-.925-.9-1.8-1.343-2.7a76,76,0,0,0-6.289-10.124,77.345,77.345,0,0,0-35.864-26.9A82.312,82.312,0,0,0,93.3,193.823a78.432,78.432,0,0,0-30.235-.349,77.014,77.014,0,0,0-32.494,14.417,78.131,78.131,0,0,0-19.617,21.941,74.608,74.608,0,0,0-5.378,10.88,76.68,76.68,0,0,0-3.169,9.7,81.451,81.451,0,0,0-1.573,8c-.146,1.173-.306,2.253-.407,3.245q-.119,1.491-.215,2.7c-.078.805-.1,1.518-.111,2.131s-.035,1.128-.048,1.544C.023,268.87,0,269.295,0,269.295" transform="translate(0 -56.367)" fill="#263238"/>
            <path id="Trazado_734223" data-name="Trazado 734223" d="M116.921,355.029H87.6l-6.014-71.458,9.6-4.376,28.21,5.314,3.688,42.154Z" transform="translate(-23.974 -82.035)" fill="#455a64"/>
            <path id="Trazado_734224" data-name="Trazado 734224" d="M90.972,239.531a73.463,73.463,0,0,1-3.344-12.22,25.647,25.647,0,0,1,.852-12.527c.215-.6,2.07-4.658,2.709-4.6.456.039-.67,3.814-.435,4.207a21.75,21.75,0,0,1,2.6,12.652,57.294,57.294,0,0,1-2.384,12.491" transform="translate(-25.633 -61.757)" fill="#263238"/>
            <path id="Trazado_734225" data-name="Trazado 734225" d="M92.413,258.435l-.768-37.8c-.475-10.595,5.3-19.7,15.9-19.883l.982.04a18.96,18.96,0,0,1,18.166,18.2c.36,9.186.64,19.339.376,24.249-.546,10.163-10.78,11.323-10.78,11.323-.023,0-.172,5.276-.167,8.262L106.74,274.4Z" transform="translate(-26.92 -58.985)" fill="#ae7461"/>
            <path id="Trazado_734226" data-name="Trazado 734226" d="M121.112,275.092a24.581,24.581,0,0,1-13.078-4.461s2.87,7.776,13.053,7.279Z" transform="translate(-31.743 -79.519)" fill="#6f4439"/>
            <path id="Trazado_734227" data-name="Trazado 734227" d="M134.341,239.282a1.454,1.454,0,0,1-1.46,1.407,1.39,1.39,0,0,1-1.443-1.371,1.453,1.453,0,0,1,1.459-1.408,1.392,1.392,0,0,1,1.444,1.372" transform="translate(-38.62 -69.905)" fill="#263238"/>
            <path id="Trazado_734228" data-name="Trazado 734228" d="M135.575,232.122c-.188.182-1.254-.678-2.817-.738-1.56-.083-2.74.674-2.9.475-.08-.088.118-.423.632-.766a3.98,3.98,0,0,1,2.332-.614,3.833,3.833,0,0,1,2.233.823c.465.389.614.738.521.819" transform="translate(-38.151 -67.72)" fill="#263238"/>
            <path id="Trazado_734229" data-name="Trazado 734229" d="M114.342,239.282a1.453,1.453,0,0,1-1.46,1.407,1.39,1.39,0,0,1-1.443-1.371,1.454,1.454,0,0,1,1.46-1.408,1.391,1.391,0,0,1,1.444,1.372" transform="translate(-32.744 -69.905)" fill="#263238"/>
            <path id="Trazado_734230" data-name="Trazado 734230" d="M113.864,231.738c-.189.183-1.256-.677-2.818-.738-1.56-.082-2.74.674-2.9.475-.08-.088.116-.422.633-.764a3.976,3.976,0,0,1,2.332-.615,3.833,3.833,0,0,1,2.233.823c.464.388.614.738.522.818" transform="translate(-31.771 -67.607)" fill="#263238"/>
            <path id="Trazado_734231" data-name="Trazado 734231" d="M123.4,244.324a10.362,10.362,0,0,1,2.556-.353c.4-.025.782-.088.86-.358a2.035,2.035,0,0,0-.217-1.193q-.5-1.471-1.055-3.087c-1.46-4.393-2.5-8-2.322-8.057s1.506,3.457,2.965,7.851q.525,1.625,1,3.1a2.315,2.315,0,0,1,.142,1.575,1,1,0,0,1-.68.556,2.72,2.72,0,0,1-.681.066,10.193,10.193,0,0,1-2.573-.1" transform="translate(-36.202 -67.955)" fill="#263238"/>
            <path id="Trazado_734232" data-name="Trazado 734232" d="M114.351,224.452c-.191.41-1.729.073-3.576.133-1.849.023-3.368.429-3.578.028-.092-.191.2-.567.832-.925a6.221,6.221,0,0,1,5.45-.122c.648.329.955.692.872.887" transform="translate(-31.493 -65.522)" fill="#263238"/>
            <path id="Trazado_734233" data-name="Trazado 734233" d="M135.859,225.016c-.268.4-1.582.229-3.1.444-1.522.17-2.758.665-3.11.342-.156-.158-.008-.541.5-.959a4.928,4.928,0,0,1,2.427-.961,4.844,4.844,0,0,1,2.575.327c.59.279.821.614.706.806" transform="translate(-38.077 -65.77)" fill="#263238"/>
            <path id="Trazado_734234" data-name="Trazado 734234" d="M89.492,239.44c-.17-.083-6.9-2.355-6.966,4.606s6.937,5.59,6.951,5.391.016-10,.016-10" transform="translate(-24.248 -70.231)" fill="#ae7461"/>
            <path id="Trazado_734235" data-name="Trazado 734235" d="M88.11,247.711c-.03-.023-.122.083-.328.176a1.21,1.21,0,0,1-.907.01,3,3,0,0,1-1.363-2.7,4.006,4.006,0,0,1,.355-1.733,1.4,1.4,0,0,1,.922-.922.616.616,0,0,1,.712.339c.092.2.046.334.083.347.019.017.15-.116.1-.4a.773.773,0,0,0-.27-.439.916.916,0,0,0-.669-.184,1.705,1.705,0,0,0-1.277,1.068,4.11,4.11,0,0,0-.439,1.936c.031,1.4.737,2.722,1.741,3.022a1.3,1.3,0,0,0,1.111-.174c.217-.17.256-.326.231-.338" transform="translate(-24.983 -71.163)" fill="#6f4439"/>
            <path id="Trazado_734236" data-name="Trazado 734236" d="M121.027,206.943c1.127-.621-2.252-4.271-5.02-5.529-4.183-1.9-10.571-3.073-14.43-1.982-4.646,1.315-8.506,3.623-10.84,7.85a27.376,27.376,0,0,0-3.081,13.978,8.311,8.311,0,0,0,.979,4.253c.971,1.539,2.836,2.51,2.753,4.633a2.916,2.916,0,0,0,.722,2.126c1.273,1.356,2.832.083,3.549-1.193,1.532-2.726,1.7-5.981,1.84-9.1a20.35,20.35,0,0,0-.437-6.62c-.34-1.16-.886-2.257-1.161-3.435a4.18,4.18,0,0,1,.5-3.474,4.414,4.414,0,0,1,.566-.572,7.26,7.26,0,0,1,7.2-1.367c3.919,1.389,10.612,3.464,12.362,2.135a10.725,10.725,0,0,0,3.118-3.16Z" transform="translate(-25.752 -58.476)" fill="#263238"/>
            <path id="Trazado_734237" data-name="Trazado 734237" d="M116.438,251.124c.239-.015.25,1.583,1.623,2.712s3.074.945,3.087,1.169c.023.1-.378.312-1.1.335a3.979,3.979,0,0,1-2.578-.885,3.465,3.465,0,0,1-1.258-2.274c-.064-.668.112-1.065.222-1.056" transform="translate(-34.144 -73.787)" fill="#263238"/>
            <path id="Trazado_734238" data-name="Trazado 734238" d="M141.99,330.331s.677,1.1,1.925,2.856,2.986,4.205,4.99,6.972l.151.209-.248.072-1.67.484.129-.141-.114.578c-.107.538-.211,1.068-.311,1.571l-.342.047.346-.082-.338.1c-1.894-3.054-3.525-5.8-4.628-7.819-.145-.249-.269-.49-.377-.719l-.34-.641a2.842,2.842,0,0,1-.332-1.133,4.58,4.58,0,0,1,0-.737.748.748,0,0,1,.042-.252c.033,0,.008.353.09.973a2.805,2.805,0,0,0,.369,1.058l.364.628c.121.233.252.472.4.714,1.15,1.968,2.814,4.685,4.717,7.735l-.338.1.347-.082-.343.047c.1-.5.2-1.033.309-1.571.04-.2.078-.4.114-.578l.022-.11.107-.03,1.671-.481-.1.281c-4-5.543-6.836-9.917-6.62-10.041" transform="translate(-41.376 -97.06)" fill="#263238"/>
            <path id="Trazado_734239" data-name="Trazado 734239" d="M143.125,325.674c-.042-.009.313-.571,1.258-.794a2.344,2.344,0,0,1,1.66.172,2.255,2.255,0,0,1,1.021,1.772,3.258,3.258,0,0,1-.517,1.96,7.661,7.661,0,0,1-.992,1.284,4.075,4.075,0,0,1-1.128.96,10.915,10.915,0,0,1,.933-1.131,9.154,9.154,0,0,0,.895-1.282,3.06,3.06,0,0,0,.443-1.76,1.977,1.977,0,0,0-.826-1.509,2.186,2.186,0,0,0-1.438-.21,3.73,3.73,0,0,0-1.309.539" transform="translate(-42.053 -95.437)" fill="#263238"/>
            <path id="Trazado_734240" data-name="Trazado 734240" d="M127.065,355.029l1-75.834,4.217,3.627,13.126,2.659a21.04,21.04,0,0,1,10.166,6c6.666,7.87,5.6,7.971,9.675,14.15,3.342,5.068,14.655,20.44,17.5,31.113,0,0,2.448,10.178-4.769,12.967a15.294,15.294,0,0,1-3.878.891,21.8,21.8,0,0,1-19.572-9.055L146.726,328.9l-1.24,26.131Z" transform="translate(-37.335 -82.035)" fill="#e0e0e0"/>
            <path id="Trazado_734241" data-name="Trazado 734241" d="M146.065,326.081a2.321,2.321,0,0,0-3.8-.035s-1.571,2.833-1.308,4.3c1.761-1.962,1.112-2.84,3.171-2.693s2.738,3.112,2.738,3.112a7.789,7.789,0,0,0-.8-4.685" transform="translate(-41.408 -95.515)" fill="#ff725e"/>
            <g id="Grupo_1033525" data-name="Grupo 1033525" transform="translate(99.519 229.555)" opacity="0.3">
              <g id="Grupo_1033524" data-name="Grupo 1033524">
                <g id="Grupo_1033523" data-name="Grupo 1033523" clip-path="url(#clip-path-18)">
                  <path id="Trazado_734242" data-name="Trazado 734242" d="M146.065,326.081a2.321,2.321,0,0,0-3.8-.035s-1.571,2.833-1.308,4.3c1.761-1.962,1.112-2.84,3.171-2.693s2.738,3.112,2.738,3.112a7.789,7.789,0,0,0-.8-4.685" transform="translate(-140.927 -325.07)"/>
                </g>
              </g>
            </g>
            <g id="Grupo_1033528" data-name="Grupo 1033528" transform="translate(99.729 237.705)" opacity="0.3">
              <g id="Grupo_1033527" data-name="Grupo 1033527">
                <g id="Grupo_1033526" data-name="Grupo 1033526" clip-path="url(#clip-path-19)">
                  <path id="Trazado_734246" data-name="Trazado 734246" d="M143.385,339.184l-.768.936-1.393-2.793.681-.718Z" transform="translate(-141.225 -336.61)"/>
                </g>
              </g>
            </g>
            <path id="Trazado_734247" data-name="Trazado 734247" d="M158.623,301.2a2.192,2.192,0,0,1,.007.465c-.013.343-.03.783-.052,1.329-.046,1.155-.163,2.823-.338,4.88-.344,4.118-1.027,9.784-1.834,16.03s-1.463,11.911-1.788,16.024c-.168,2.055-.283,3.721-.34,4.873-.033.545-.061.985-.082,1.327a2.193,2.193,0,0,1-.054.462,2.223,2.223,0,0,1-.02-.464c0-.342.008-.784.013-1.33.012-1.155.088-2.826.223-4.887.259-4.124.876-9.8,1.683-16.051s1.53-11.9,1.939-16.008c.208-2.053.364-3.715.455-4.866.049-.544.089-.983.12-1.324a2.224,2.224,0,0,1,.067-.46" transform="translate(-45.286 -88.502)"/>
            <path id="Trazado_734248" data-name="Trazado 734248" d="M127.373,339.825a3.9,3.9,0,0,1,.189-.592l.59-1.679c.507-1.459,1.191-3.587,1.991-6.233s1.739-5.8,2.919-9.267c.59-1.732,1.253-3.536,1.98-5.39.378-.922.749-1.866,1.165-2.806.4-.951.856-1.888,1.178-2.873a5.274,5.274,0,0,0,.238-2.967,6.75,6.75,0,0,0-1.562-2.477,5.224,5.224,0,0,1-1.417-2.628,3.669,3.669,0,0,1,.173-1.476,7.056,7.056,0,0,1,.627-1.277c.486-.79,1.037-1.492,1.448-2.236a3.745,3.745,0,0,0,.566-2.308,5.856,5.856,0,0,0-.876-2.1l-1.1-1.87-3.3-5.654-.881-1.547a3.844,3.844,0,0,1-.286-.552,4.04,4.04,0,0,1,.35.514l.941,1.512,3.4,5.6,1.121,1.858a6.088,6.088,0,0,1,.934,2.2,4.045,4.045,0,0,1-.585,2.5c-.424.777-.973,1.486-1.441,2.256a6.691,6.691,0,0,0-.589,1.212,3.318,3.318,0,0,0-.152,1.323,4.917,4.917,0,0,0,1.345,2.439,7.046,7.046,0,0,1,1.64,2.614,5.627,5.627,0,0,1-.242,3.175c-.335,1.021-.8,1.961-1.193,2.9-.415.937-.787,1.877-1.166,2.794-.729,1.847-1.4,3.642-1.994,5.368-1.194,3.45-2.153,6.6-2.991,9.234s-1.556,4.758-2.105,6.2c-.268.726-.5,1.282-.655,1.657a3.844,3.844,0,0,1-.258.566" transform="translate(-37.425 -83.415)"/>
            <path id="Trazado_734249" data-name="Trazado 734249" d="M59.438,265.235l-7.146,13.557s-11.258-7.134-11.337-7.654,7.767-11.112,7.767-11.112Z" transform="translate(-12.034 -76.403)" fill="#ae7461"/>
            <path id="Trazado_734250" data-name="Trazado 734250" d="M65.538,224.918l-1.193,1.143a.422.422,0,0,0,.041.644l36,26.545.029.02,3.844,2.366a.6.6,0,0,0,.758-.913l-2.9-3.193a.385.385,0,0,0-.061-.056l-35.977-26.59a.422.422,0,0,0-.542.035" transform="translate(-18.868 -66.053)" fill="#fafafa"/>
            <path id="Trazado_734251" data-name="Trazado 734251" d="M65.518,224.91a.328.328,0,0,1,.234-.132.442.442,0,0,1,.328.078l.37.262,2.436,1.758,8.92,6.52,13.2,9.708,7.788,5.743,2.042,1.508,1.034.763.26.192a2.151,2.151,0,0,1,.252.255l.436.48,1.76,1.938.444.488a.891.891,0,0,1,.313.722.816.816,0,0,1-.492.657.775.775,0,0,1-.433.042,1.1,1.1,0,0,1-.361-.163l-2.259-1.391-1.119-.689-.278-.172c-.046-.029-.09-.052-.15-.1l-.131-.1-.524-.386-4.119-3.041L87.687,244.1,74.52,234.345l-8.858-6.6c-.523-.4-.982-.729-1.388-1.053a.476.476,0,0,1,.039-.69l.422-.391.576-.527a1.369,1.369,0,0,1,.205-.171,1.437,1.437,0,0,1-.179.2l-.552.554-.41.4a.375.375,0,0,0-.024.547l1.394,1.014,8.927,6.509,13.213,9.694,7.8,5.736,4.123,3.036.524.386.131.1c.028.021.079.051.125.08l.279.171,1.119.689,2.26,1.391a.461.461,0,0,0,.46.095.45.45,0,0,0,.267-.357c.011-.165-.046-.257-.22-.436l-.443-.489-1.759-1.938-.436-.48a2.275,2.275,0,0,0-.2-.208l-.26-.191-1.033-.765-2.04-1.51-7.776-5.76L77.652,233.6,68.8,226.99l-2.4-1.813c-.275-.2-.467-.406-.649-.362a.564.564,0,0,0-.239.095" transform="translate(-18.848 -66.044)" fill="#263238"/>
            <path id="Trazado_734252" data-name="Trazado 734252" d="M73.16,233.146a1.185,1.185,0,0,0-.193-2.168c-2.87-.959-9.038-2.881-10.651-2.262-2.125.817-10.627,2.9-11.219,4.433s-.129,8.548-.129,8.548l.767,10.149,9.54,5.67A7.411,7.411,0,0,0,63.6,252c-.082-4.736-.437-4.717-.437-4.717l2.51-3.538s-2.522,3.8.052,4.569c0,0,3.085-3.121,3.428-4.28a5.923,5.923,0,0,0-.237-2.88s1.5-1.5.131-2.864c0,0,1.677-.706.482-2.457a6.7,6.7,0,0,0-3.255-2.366l-2-1.016s6.752,1.792,8.883.7" transform="translate(-14.925 -67.168)" fill="#ae7461"/>
            <path id="Trazado_734253" data-name="Trazado 734253" d="M63.383,247.425a5.259,5.259,0,0,1,1.066-1.083,6.9,6.9,0,0,1,3.268-1.7,5.788,5.788,0,0,1,3.642.554,3.012,3.012,0,0,1,1.2.945c-.04.048-.477-.34-1.314-.71A6.1,6.1,0,0,0,67.782,245a7.528,7.528,0,0,0-3.17,1.542,7.6,7.6,0,0,1-1.229.88" transform="translate(-18.623 -71.857)" fill="#6f4439"/>
            <path id="Trazado_734254" data-name="Trazado 734254" d="M61.456,241.866c-.02-.009.032-.185.178-.482a5.3,5.3,0,0,1,.8-1.154,6.127,6.127,0,0,1,8.45-.726,5.347,5.347,0,0,1,.981,1c.194.268.275.432.257.445a16.55,16.55,0,0,0-1.394-1.238,6.168,6.168,0,0,0-8.1.7,16.706,16.706,0,0,0-1.163,1.458" transform="translate(-18.056 -69.975)" fill="#6f4439"/>
            <path id="Trazado_734255" data-name="Trazado 734255" d="M57.088,236.779c-.024-.051.612-.39,1.519-1.118.459-.359.99-.809,1.618-1.274A7.265,7.265,0,0,1,62.5,233.2a4.885,4.885,0,0,1,2.578.014,7.789,7.789,0,0,1,1.921.82,5.98,5.98,0,0,1,1.527,1.14c-.035.051-.626-.374-1.652-.912a8.546,8.546,0,0,0-1.878-.72,4.751,4.751,0,0,0-2.4.012,7.414,7.414,0,0,0-2.173,1.113l-1.66,1.206a5.081,5.081,0,0,1-1.674.91" transform="translate(-16.774 -68.471)" fill="#6f4439"/>
            <path id="Trazado_734256" data-name="Trazado 734256" d="M123.354,270.934l.837,13.35,8.747,19.375a1.71,1.71,0,0,1-1.559,2.413H109.654a1.709,1.709,0,0,1-1.578-2.369l8.228-19.691V270.934Z" transform="translate(-31.716 -79.608)" fill="#e0e0e0"/>
            <path id="Trazado_734257" data-name="Trazado 734257" d="M123.279,270.9s-.169.012-.482.019l-1.373.022-5.193.051.091-.092c.013,3.315.032,7.782.053,13.078V284l-.011.028-5.676,13.659-1.595,3.827q-.406.975-.819,1.965a1.848,1.848,0,0,0-.218.955,1.551,1.551,0,0,0,.364.882,1.526,1.526,0,0,0,.822.494,6.363,6.363,0,0,0,1.057.039h6.749l11.314,0,2.7,0a1.708,1.708,0,0,0,1.154-.3,1.568,1.568,0,0,0,.6-.983,1.772,1.772,0,0,0-.233-1.15l-.526-1.169q-.522-1.163-1.031-2.293L124,284.3l-.009-.02v-.022c-.232-4.152-.418-7.473-.547-9.78-.059-1.136-.1-2.021-.136-2.644-.013-.29-.023-.518-.03-.691a1.95,1.95,0,0,1,0-.243,1.319,1.319,0,0,1,.027.218c.013.167.032.388.055.668.045.615.11,1.491.194,2.614.161,2.32.393,5.663.683,9.842l-.011-.042,7.106,15.63,1.038,2.289.529,1.169a2.122,2.122,0,0,1,.261,1.35,1.915,1.915,0,0,1-.734,1.208,2,2,0,0,1-.657.311,2.8,2.8,0,0,1-.706.059l-2.7,0-11.314,0H110.3a6.5,6.5,0,0,1-1.137-.049,1.891,1.891,0,0,1-1.018-.613,1.919,1.919,0,0,1-.448-1.091,2.221,2.221,0,0,1,.247-1.121l.822-1.963,1.6-3.824,5.731-13.638-.011.056c.021-5.3.04-9.763.053-13.078V270.8h.092l5.245.051,1.354.023c.3.006.45.018.45.018" transform="translate(-31.641 -79.569)" fill="#263238"/>
            <path id="Trazado_734258" data-name="Trazado 734258" d="M118.961,272.365h7.426a1.17,1.17,0,0,0,1.17-1.17v-.086a1.171,1.171,0,0,0-1.17-1.17h-7.426a1.171,1.171,0,0,0-1.17,1.17v.086a1.17,1.17,0,0,0,1.17,1.17" transform="translate(-34.61 -79.316)" fill="#e0e0e0"/>
            <path id="Trazado_734259" data-name="Trazado 734259" d="M118.918,272.289a.936.936,0,0,1-.847-.263,1.257,1.257,0,0,1-.427-.98,1.289,1.289,0,0,1,.75-1.2,1.891,1.891,0,0,1,.833-.122l.862-.011,1.9-.017,4.354-.015a1.348,1.348,0,0,1,1.343,1.2,1.659,1.659,0,0,1-.046.617,1.347,1.347,0,0,1-.808.876,1.46,1.46,0,0,1-.573.09l-.508,0-3.556-.04-2.4-.058a4.08,4.08,0,0,1-.879-.072,4.063,4.063,0,0,1,.879-.071l2.4-.059,3.556-.04a2.992,2.992,0,0,0,.954-.075,1,1,0,0,0,.59-.65,1.143,1.143,0,0,0-.132-.915,1,1,0,0,0-.819-.434l-4.354-.014-1.9-.016-.862-.011a1.647,1.647,0,0,0-.728.076,1.069,1.069,0,0,0-.649.965,1.115,1.115,0,0,0,.318.875,1.55,1.55,0,0,0,.749.368" transform="translate(-34.567 -79.239)" fill="#263238"/>
            <path id="Trazado_734260" data-name="Trazado 734260" d="M127.428,302.119c.075.149,2.664,6.475,4.044,9.85a1.5,1.5,0,0,1-1.4,2.072H112.019a1.506,1.506,0,0,1-1.4-2.062l3.919-9.86Z" transform="translate(-32.471 -88.771)" fill="#ffa031"/>
            <path id="Trazado_734261" data-name="Trazado 734261" d="M183.79,348.1a1.99,1.99,0,0,1-.3-.32l-.806-.96c-.7-.833-1.706-2.046-2.986-3.511-2.549-2.94-6.2-6.9-10.5-10.982-1.885-1.792-3.741-3.457-5.464-4.943l.233-.008a45.776,45.776,0,0,0-6.394,7.844c-.677,1.049-1.178,1.905-1.517,2.494a8.018,8.018,0,0,1-.538.9.929.929,0,0,1,.1-.252c.075-.16.184-.4.34-.7.308-.607.781-1.483,1.436-2.553a42.9,42.9,0,0,1,6.332-7.977l.112-.111.121.1c1.736,1.479,3.6,3.142,5.492,4.938a136.626,136.626,0,0,1,10.446,11.079c1.258,1.49,2.234,2.729,2.9,3.591l.752,1a1.948,1.948,0,0,1,.243.366" transform="translate(-45.694 -96.088)"/>
            <path id="Trazado_734262" data-name="Trazado 734262" d="M138.61,304.635a30.591,30.591,0,0,0-3.3-3.568l-5.774-9.158-6.7-2.606-6.523,2.932s.044,3.109,2.423,2.58a28.451,28.451,0,0,0,3.405-.915l3.3,1.388,2.6,4.723-6.343.4-8.245,4.287a4.031,4.031,0,0,0,3.106,2.192,12.971,12.971,0,0,0,4.522-1.21l4.295-.528-9.756,5.83L118,313.093l-1.718,1.189,1.219.792a3.928,3.928,0,0,0,3.074.522l8.782-2.147s5.293,9.158,9.257,11.008,4.75,2.77,4.75,2.77l6.622-9.532Z" transform="translate(-33.335 -85.005)" fill="#ae7461"/>
            <path id="Trazado_734263" data-name="Trazado 734263" d="M134.811,318.288c-.032.015-.142-.241-.449-.619a4.128,4.128,0,0,0-1.643-1.188,5.429,5.429,0,0,0-2.977-.309A12.853,12.853,0,0,0,126.2,317.4c-2.431,1.169-4.534,2.426-6.062,3.323l-1.813,1.061a3.077,3.077,0,0,1-.691.35,3.166,3.166,0,0,1,.614-.47c.409-.283,1.006-.682,1.753-1.162a57.168,57.168,0,0,1,6.038-3.433,12.519,12.519,0,0,1,3.654-1.229,5.534,5.534,0,0,1,3.129.406,3.982,3.982,0,0,1,1.655,1.34,1.742,1.742,0,0,1,.333.7" transform="translate(-34.564 -92.782)" fill="#6f4439"/>
            <path id="Trazado_734264" data-name="Trazado 734264" d="M138.757,310.317a10.736,10.736,0,0,0-8.762.8,3.321,3.321,0,0,1,1.109-.785,8.571,8.571,0,0,1,6.421-.585,3.319,3.319,0,0,1,1.233.572" transform="translate(-38.196 -90.903)" fill="#6f4439"/>
            <path id="Trazado_734265" data-name="Trazado 734265" d="M139.413,306.1a6.458,6.458,0,0,0-5.451-1.675c-.014-.04.3-.2.851-.3a4.851,4.851,0,0,1,4.067,1.25c.4.393.568.7.533.729" transform="translate(-39.362 -89.34)" fill="#6f4439"/>
            <path id="Trazado_734266" data-name="Trazado 734266" d="M46.415,285.392,13.057,309.725l.278,11.493c1.237,2.667,9.353,3.77,15.9.952l24.727-14.284Z" transform="translate(-3.837 -83.856)" fill="#e0e0e0"/>
            <path id="Trazado_734267" data-name="Trazado 734267" d="M59.213,282.707s8.262-1.413,11.983-1.877c3.055-.381,6.906-.864,6.906-.864l4.193-3.712c0,.823,5.279,77.91,5.279,77.91H58.842l-2.228-46.833Z" transform="translate(-16.635 -81.171)" fill="#e0e0e0"/>
            <path id="Trazado_734268" data-name="Trazado 734268" d="M93.542,337.42a3.813,3.813,0,0,1-.258-.556c-.158-.371-.387-.917-.669-1.628-.568-1.417-1.357-3.481-2.312-6.039-1.919-5.111-4.484-12.205-7.86-19.814a13.35,13.35,0,0,1-1.018-2.95,4.358,4.358,0,0,1,.442-3.022,22.7,22.7,0,0,1,1.77-2.311,3.265,3.265,0,0,0,.814-2.438,5.551,5.551,0,0,0-1.01-2.324,20.611,20.611,0,0,1-1.324-2.127,3.781,3.781,0,0,1-.4-2.337c.136-.746.324-1.435.5-2.1a26.851,26.851,0,0,1,1.177-3.5l1.037-2.581.669-1.627a3.891,3.891,0,0,1,.256-.556,3.8,3.8,0,0,1-.188.585l-.6,1.651-.979,2.6a27.761,27.761,0,0,0-1.119,3.494c-.17.658-.35,1.353-.474,2.075a3.486,3.486,0,0,0,.391,2.157,20.656,20.656,0,0,0,1.32,2.083,5.841,5.841,0,0,1,1.077,2.464,3.6,3.6,0,0,1-.869,2.686,23.166,23.166,0,0,0-1.737,2.277,3.992,3.992,0,0,0-.4,2.78,13.079,13.079,0,0,0,.994,2.867c3.383,7.624,5.912,14.741,7.768,19.874.921,2.542,1.669,4.61,2.2,6.079q.379,1.038.6,1.65a3.82,3.82,0,0,1,.189.584" transform="translate(-23.898 -82.716)"/>
            <path id="Trazado_734269" data-name="Trazado 734269" d="M10.346,295.151a86.3,86.3,0,0,1,5.023-8.425l18.757-25.412,14.255,11.819-15.015,26-17.06,15.008-4.348.314c-4.773-4.08-5.986-10.557-1.611-19.307" transform="translate(-2.245 -76.781)" fill="#e0e0e0"/>
            <path id="Trazado_734270" data-name="Trazado 734270" d="M56.592,305.043c.1,0,.312,4.979.47,11.126s.2,11.134.1,11.137-.312-4.979-.47-11.128-.2-11.132-.1-11.136" transform="translate(-16.612 -89.63)"/>
            <path id="Trazado_734271" data-name="Trazado 734271" d="M33.957,312.024a1.728,1.728,0,0,1,.185-.367l.592-1.012,2.248-3.678c1.918-3.094,4.61-7.342,7.653-11.989s5.875-8.806,7.985-11.774c1.063-1.479,1.924-2.674,2.546-3.481l.715-.929a1.672,1.672,0,0,1,.27-.309,1.755,1.755,0,0,1-.21.352l-.66.969-2.448,3.546c-2.053,3-4.851,7.18-7.891,11.828L37.2,307.106l-2.347,3.616-.65.975a1.737,1.737,0,0,1-.248.327" transform="translate(-9.977 -81.827)"/>
            <g id="Grupo_1033531" data-name="Grupo 1033531" transform="translate(55.662 199.099)" opacity="0.3">
              <g id="Grupo_1033530" data-name="Grupo 1033530">
                <g id="Grupo_1033529" data-name="Grupo 1033529" clip-path="url(#clip-path-20)">
                  <path id="Trazado_734272" data-name="Trazado 734272" d="M81.576,308.864c-.627-1.617-1.162-3.483-.4-5.043.693-1.429,2.634-2.513,2.9-4.079a4.794,4.794,0,0,0-1.023-3.335,12.33,12.33,0,0,1-1.8-3.073c-.347-1.14,1.065-6.1,1.412-6.892l1.785-4.5a39.125,39.125,0,0,0-3.411,6.541,13.121,13.121,0,0,0-.75,7.251,16.687,16.687,0,0,1,.84,4.159c-.082,1.836-1.256,3.421-1.842,5.162-1.3,3.868.383,8.055,2.179,11.72a170.785,170.785,0,0,0,9.9,17.022c-3.457-10.153-6.78-17.192-9.783-24.932" transform="translate(-78.823 -281.941)"/>
                </g>
              </g>
            </g>
            <path id="Trazado_734273" data-name="Trazado 734273" d="M52.052,342.368h0a.631.631,0,0,0,.631.631H53.8v11.42l-6.887,15.3a2.614,2.614,0,0,0,2.383,3.687H62.99a2.614,2.614,0,0,0,2.381-3.693l-7.154-15.784V343.068h1.016a.666.666,0,0,0,0-1.331H52.682a.631.631,0,0,0-.631.631" transform="translate(-13.717 -100.412)" fill="#fff"/>
            <path id="Trazado_734274" data-name="Trazado 734274" d="M51.981,342.326a.424.424,0,0,1,.011-.186.641.641,0,0,1,.347-.419,2.794,2.794,0,0,1,.888-.074l1.21-.015,3.347-.028L58.8,341.6a2.665,2.665,0,0,1,.56.024.767.767,0,0,1,.483.388A.778.778,0,0,1,59.4,343.1a2.608,2.608,0,0,1-.633.04l-.619,0,.117-.116c.011,3.044.024,6.729.038,10.859l-.013-.064,4.886,10.73q.656,1.441,1.329,2.924l.678,1.493a4.468,4.468,0,0,1,.531,1.63,2.809,2.809,0,0,1-1.88,2.792,2.892,2.892,0,0,1-.9.155H60.343l-9.473,0H49.728a4.661,4.661,0,0,1-1.167-.083,2.789,2.789,0,0,1-1.809-1.43,2.75,2.75,0,0,1-.131-2.251c.284-.684.585-1.309.871-1.955,2.313-5.1,4.39-9.68,6.121-13.5l-.011.053c.036-5.289.063-9.238.077-11.42l.052.052-.94-.013a.779.779,0,0,1-.631-.193.538.538,0,0,1-.18-.477.662.662,0,0,0,.811.591l.94-.013h.052v.053c.015,2.182.042,6.131.077,11.42v.028l-.011.025c-1.712,3.83-3.762,8.42-6.048,13.533-.28.637-.592,1.293-.857,1.936a2.407,2.407,0,0,0,.119,1.969,2.435,2.435,0,0,0,1.581,1.246,4.369,4.369,0,0,0,1.083.071h1.141l9.473,0h2.59a2.509,2.509,0,0,0,.78-.135,2.445,2.445,0,0,0,1.636-2.426,4.168,4.168,0,0,0-.5-1.5l-.676-1.494L62.853,364.7,58.005,353.95l-.013-.031v-.033c.014-4.13.028-7.815.038-10.859v-.117h.117l.619,0a2.6,2.6,0,0,0,.566-.023.56.56,0,0,0-.02-1.073,2.7,2.7,0,0,0-.507-.023l-1.019-.007-3.347-.028-1.21-.015a2.931,2.931,0,0,0-.862.037.623.623,0,0,0-.343.369c-.037.112-.035.177-.042.176" transform="translate(-13.646 -100.37)" fill="#263238"/>
            <path id="Trazado_734275" data-name="Trazado 734275" d="M61.633,343.47a11.88,11.88,0,0,1-2.936.184,11.879,11.879,0,0,1-2.936-.184,11.883,11.883,0,0,1,2.936-.184,11.884,11.884,0,0,1,2.936.184" transform="translate(-16.384 -100.867)" fill="#263238"/>
            <path id="Trazado_734276" data-name="Trazado 734276" d="M134.594,386.506c0,.1-21.11.184-47.145.184s-47.15-.082-47.15-.184,21.105-.184,47.15-.184,47.145.082,47.145.184" transform="translate(-11.841 -113.512)" fill="#263238"/>
            <path id="Trazado_734277" data-name="Trazado 734277" d="M94.948,375.974H81.708a2.756,2.756,0,0,1-2.756-2.756V350.478H99.813l-2.109,2.1v20.644a2.756,2.756,0,0,1-2.756,2.756" transform="translate(-23.198 -102.98)" fill="#ebebeb"/>
            <path id="Trazado_734278" data-name="Trazado 734278" d="M94.871,375.9c0-.017.16-.008.458-.068a2.745,2.745,0,0,0,1.2-.553,2.714,2.714,0,0,0,1-1.809c.036-.835,0-1.83,0-2.924-.016-4.413-.04-10.648-.067-18.046v-.069l.049-.049,2.105-2.1.121.292-16.609.013H78.876l.183-.183c-.007,5.661-.013,11.011-.019,15.854-.006,2.419-.012,4.712-.018,6.853a2.632,2.632,0,0,0,1.449,2.378,2.752,2.752,0,0,0,1.35.28l1.391.006,8.546.056,2.31.033.6.017a.1.1,0,1,1,0,.035l-.6.017-2.31.033-8.546.056-1.391.006a3.019,3.019,0,0,1-1.471-.3,2.911,2.911,0,0,1-1.621-2.621c-.006-2.142-.012-4.434-.018-6.853-.006-4.844-.013-10.193-.019-15.854v-.183h4.435l16.609.013h.415l-.294.291-2.113,2.092.049-.117c-.028,7.4-.05,13.633-.067,18.046-.017,1.1.008,2.071-.045,2.942a2.812,2.812,0,0,1-1.09,1.873,2.68,2.68,0,0,1-1.252.523,1.648,1.648,0,0,1-.467.016" transform="translate(-23.122 -102.904)" fill="#263238"/>
            <path id="Trazado_734279" data-name="Trazado 734279" d="M93.289,379.738H84.481a3.754,3.754,0,0,1-3.753-3.754v-8.624H97.043v8.624a3.754,3.754,0,0,1-3.754,3.754" transform="translate(-23.72 -107.94)" fill="#ffa031"/>
            <path id="Trazado_734280" data-name="Trazado 734280" d="M84.066,359.536a12.714,12.714,0,0,1-2.433.117,12.718,12.718,0,0,1-2.434-.117,12.821,12.821,0,0,1,2.434-.117,12.817,12.817,0,0,1,2.433.117" transform="translate(-23.271 -105.607)" fill="#263238"/>
            <path id="Trazado_734281" data-name="Trazado 734281" d="M81.359,355.7a5.037,5.037,0,0,1-2.161,0,5.038,5.038,0,0,1,2.161,0" transform="translate(-23.271 -104.481)" fill="#263238"/>
            <path id="Trazado_734282" data-name="Trazado 734282" d="M84.066,367.145a12.709,12.709,0,0,1-2.433.117,12.713,12.713,0,0,1-2.434-.117,12.821,12.821,0,0,1,2.434-.117,12.817,12.817,0,0,1,2.433.117" transform="translate(-23.271 -107.843)" fill="#263238"/>
            <path id="Trazado_734283" data-name="Trazado 734283" d="M81.359,363.313a5.037,5.037,0,0,1-2.161,0,5.038,5.038,0,0,1,2.161,0" transform="translate(-23.271 -106.717)" fill="#263238"/>
            <path id="Trazado_734284" data-name="Trazado 734284" d="M84.066,374.753a12.712,12.712,0,0,1-2.433.117,12.717,12.717,0,0,1-2.434-.117,12.713,12.713,0,0,1,2.434-.117,12.709,12.709,0,0,1,2.433.117" transform="translate(-23.271 -110.078)" fill="#263238"/>
            <path id="Trazado_734285" data-name="Trazado 734285" d="M81.359,370.922a5.038,5.038,0,0,1-2.161,0,5.037,5.037,0,0,1,2.161,0" transform="translate(-23.271 -108.953)" fill="#263238"/>
            <path id="Trazado_734286" data-name="Trazado 734286" d="M84.066,382.363a12.709,12.709,0,0,1-2.433.117,12.713,12.713,0,0,1-2.434-.117,12.715,12.715,0,0,1,2.434-.117,12.711,12.711,0,0,1,2.433.117" transform="translate(-23.271 -112.314)" fill="#263238"/>
            <path id="Trazado_734287" data-name="Trazado 734287" d="M81.359,378.531a5.038,5.038,0,0,1-2.161,0,5.038,5.038,0,0,1,2.161,0" transform="translate(-23.271 -111.189)" fill="#263238"/>
          </g>
        </g>
        <g id="Grupo_1033538" data-name="Grupo 1033538">
          <g id="Grupo_1033537" data-name="Grupo 1033537" clip-path="url(#clip-path-2)">
            <path id="Trazado_734288" data-name="Trazado 734288" d="M210.924,177.108c-.116-.42,12.056-22.912,12.056-22.912l16.933.172-6.418,27.246Z" transform="translate(-61.975 -45.307)" fill="#ffc09d"/>
            <path id="Trazado_734289" data-name="Trazado 734289" d="M199.8,170.892s-18.715,40.795-16.822,54.673,8.832,21.449,25.655,24.813,55.934,3.634,55.934,3.634l-8.442-51.979-21.207,6.919s-10.725-2.944-14.93,2.523l8.479-31.826Z" transform="translate(-53.725 -50.213)" fill="#e0e0e0"/>
            <path id="Trazado_734290" data-name="Trazado 734290" d="M231.854,229.015a1.074,1.074,0,0,1,.155.278c.085.19.227.463.367.833a20.371,20.371,0,0,1,.987,3.2,22.27,22.27,0,0,1-5.8,20.481,20.318,20.318,0,0,1-2.52,2.208c-.313.241-.577.4-.749.516a1.052,1.052,0,0,1-.278.156,9.783,9.783,0,0,1,.939-.785,24.559,24.559,0,0,0,2.419-2.274,22.824,22.824,0,0,0,5.738-20.248,24.479,24.479,0,0,0-.866-3.205,9.817,9.817,0,0,1-.388-1.162" transform="translate(-65.821 -67.291)" fill="#263238"/>
            <path id="Trazado_734291" data-name="Trazado 734291" d="M244.581,246.76c-.062-.008.071-1.122.124-2.926a36.944,36.944,0,0,0-2.236-13.826c-.619-1.7-1.1-2.711-1.039-2.739a3.269,3.269,0,0,1,.4.684c.238.449.544,1.119.887,1.961a32.177,32.177,0,0,1,2.253,13.931c-.059.907-.138,1.64-.222,2.141a3.267,3.267,0,0,1-.16.774" transform="translate(-70.937 -66.778)" fill="#263238"/>
            <path id="Trazado_734292" data-name="Trazado 734292" d="M282.612,210.739s14.237-5.1,16.949-5.1,19.616.439,19.616.439l11-6.408,36.676,1.091,8.053,10.2,21.129,11.354L379.2,295.779l15.208,78.6H275.577l10.867-122.056Z" transform="translate(-80.972 -58.669)" fill="#e0e0e0"/>
            <path id="Trazado_734293" data-name="Trazado 734293" d="M347.429,391.762s-.019-.116-.038-.343c-.018-.243-.043-.578-.075-1.009-.059-.905-.145-2.212-.254-3.887-.142-1.687-.155-3.756-.2-6.159-.018-1.2-.059-2.486-.06-3.848q.031-2.043.064-4.313c.061-6.048.457-13.241,1-21.218.616-7.971,1.419-16.725,2.448-25.892,2.063-18.342,4.379-34.887,5.993-46.869.8-5.98,1.443-10.824,1.892-14.191l.5-3.861c.059-.428.105-.761.139-1,.033-.225.06-.34.06-.34s0,.118-.023.345c-.025.242-.059.577-.1,1.008-.1.9-.246,2.2-.431,3.869-.391,3.358-.995,8.213-1.776,14.208-1.547,11.991-3.823,28.54-5.884,46.874-1.03,9.165-1.842,17.913-2.477,25.878-.56,7.969-.983,15.155-1.077,21.2q-.047,2.265-.089,4.31c-.008,1.361.023,2.644.031,3.844.028,2.4.02,4.469.14,6.155.08,1.675.141,2.981.184,3.887.017.432.03.768.039,1.012.007.228,0,.346,0,.346" transform="translate(-101.899 -76.051)" fill="#263238"/>
            <path id="Trazado_734294" data-name="Trazado 734294" d="M292.91,231.741c.1.009-1.105,13.792-2.694,30.779s-2.96,30.757-3.061,30.747,1.105-13.789,2.694-30.782,2.96-30.753,3.061-30.744" transform="translate(-84.373 -68.092)" fill="#263238"/>
            <path id="Trazado_734295" data-name="Trazado 734295" d="M348.33,256.129c-.006,0-.038-.041-.1-.131l-.254-.4-.943-1.566c-.822-1.4-1.983-3.369-3.41-5.793l-5.017-8.616c-.933-1.627-1.959-3.31-2.883-5.144a18.179,18.179,0,0,1-1.968-6.038,10.029,10.029,0,0,1,.975-5.641,6.9,6.9,0,0,1,3.962-3.589l.05.336-9.127-.2-.227,0,.105-.2,3.813-7.232,1.06-1.966.286-.508a.1.1,0,1,1,.037.019l-.25.526q-.362.731-.994,2l-3.7,7.288-.121-.2,9.128.139,1.059.016-1.008.32a6.568,6.568,0,0,0-3.746,3.424,9.7,9.7,0,0,0-.932,5.436,17.978,17.978,0,0,0,1.925,5.919c.91,1.816,1.929,3.5,2.855,5.136,1.859,3.252,3.534,6.183,4.949,8.656l3.309,5.852.883,1.6.222.421a.52.52,0,0,1,.065.15" transform="translate(-96.784 -61.488)" fill="#263238"/>
            <path id="Trazado_734296" data-name="Trazado 734296" d="M401.577,216.892a.768.768,0,0,1-.064.193c-.059.147-.133.328-.225.552l-.9,2.1-3.356,7.638-.042.1-.105-.014-9.438-1.268.181-.241,3.614,8.107.052.117-.093.089-1.527,1.473-16.3,15.637-4.969,4.708-1.364,1.267-.361.323c-.083.071-.128.105-.132.1a.6.6,0,0,1,.106-.128l.335-.349,1.316-1.316,4.889-4.792,16.229-15.714,1.528-1.472-.04.207-3.593-8.115-.126-.285.307.043,9.43,1.33-.147.082,3.469-7.587.968-2.067.261-.535a.779.779,0,0,1,.1-.177" transform="translate(-107.7 -63.729)" fill="#263238"/>
            <path id="Trazado_734297" data-name="Trazado 734297" d="M248.882,107.612a2.043,2.043,0,0,0,.349-.121,4.634,4.634,0,0,0,2.4-2.537,1.936,1.936,0,0,0-.96-2.414c-.681-.335-1.53-.731-2.238-1-1.45-.544-12.682-3.986-14.4-3.08s-3.8,3.443-5.254,4.982a20.487,20.487,0,0,0-1.811,2.084s-5.526-.634-5.345,4.529c0,0-6.613,2.627-5.253,7.519,0,0,.537,1.45-.184,1.993a6.093,6.093,0,0,0-.994,6.522c1.359,3.08,6.16,12.41,6.16,12.41s3.351,7.065,10.326,5.616,10.508-7.881,10.508-7.881,6.25-7.247,6.884-10.78,3.623-4.8,6.159-8.062,4.982-6.884,1.993-8.877-6.159,1.177-7.881,3.623-4.348,4.62-5.8,3.351-6.911-5.254-6.911-5.254l1.2-3.986Z" transform="translate(-63.073 -28.887)" fill="#455a64"/>
            <g id="Grupo_1033536" data-name="Grupo 1033536" transform="translate(160.244 83.084)" opacity="0.2">
              <g id="Grupo_1033535" data-name="Grupo 1033535">
                <g id="Grupo_1033534" data-name="Grupo 1033534" clip-path="url(#clip-path-22)">
                  <path id="Trazado_734298" data-name="Trazado 734298" d="M227.187,131.352a7.031,7.031,0,0,0,.628,5.377,6.126,6.126,0,0,0,4.449,3,5.436,5.436,0,0,0,4.914-2.018c.811-1.069,1.178-2.437,2.059-3.449a8.307,8.307,0,0,1,3.808-2.107,24.387,24.387,0,0,0,5.257-2.145,7.01,7.01,0,0,0,3.372-4.385,3.169,3.169,0,0,0-.552-2.691,4.522,4.522,0,0,0-1.907-1.1l-9.414-3.51a6.231,6.231,0,0,0-6.144.285,15.728,15.728,0,0,0-3.318,1.8,5.282,5.282,0,0,0-2.062,3.075" transform="translate(-226.919 -117.654)"/>
                </g>
              </g>
            </g>
            <path id="Trazado_734299" data-name="Trazado 734299" d="M267.485,148.361h-1.171a4.047,4.047,0,0,1-4.047-4.047V95.092a.654.654,0,0,1,.654-.653h7.957a.653.653,0,0,1,.654.653v49.222a4.047,4.047,0,0,1-4.047,4.047" transform="translate(-77.061 -27.749)" fill="#fff"/>
            <path id="Trazado_734300" data-name="Trazado 734300" d="M267.408,148.284a6.066,6.066,0,0,0,1.212-.225,4.041,4.041,0,0,0,2.474-2.339,4,4,0,0,0,.265-1.167c.03-.416,0-.876.008-1.344,0-.943-.01-1.966-.015-3.064-.008-2.2-.018-4.7-.028-7.469-.011-5.54-.025-12.128-.04-19.442,0-3.659-.007-7.5-.011-11.481q0-2.986,0-6.072c0-.244.007-.544-.007-.742a.473.473,0,0,0-.36-.382c-.436-.023-1.015-.006-1.518-.011h-6.3c-.541-.068-.79.207-.718.754q0,.776,0,1.548,0,3.085,0,6.074c0,3.981-.007,7.823-.011,11.483-.015,7.315-.028,13.9-.04,19.443-.01,2.765-.019,5.268-.027,7.469q0,1.645-.008,3.061a3.94,3.94,0,0,0,.843,2.332,4.008,4.008,0,0,0,3.037,1.532l.927.022a2,2,0,0,1,.316.019,2,2,0,0,1-.316.019l-.927.014a4.089,4.089,0,0,1-4.056-3.933c-.006-.943-.014-1.967-.022-3.066-.008-2.2-.018-4.7-.028-7.469-.011-5.54-.025-12.129-.04-19.443,0-3.66-.006-7.5-.011-11.483q0-2.987,0-6.074V95.3a3.519,3.519,0,0,1,.011-.417.824.824,0,0,1,.217-.441.842.842,0,0,1,.428-.244,2.286,2.286,0,0,1,.429-.02h7.466a2.28,2.28,0,0,1,.427.02.841.841,0,0,1,.642.681c.023.316.006.532.011.8q0,3.083,0,6.072c0,3.981-.007,7.822-.011,11.481-.015,7.314-.028,13.9-.04,19.442-.01,2.765-.019,5.268-.027,7.469-.006,1.1-.011,2.121-.016,3.064-.01.473.011.915-.025,1.357a4.151,4.151,0,0,1-.291,1.208,4.091,4.091,0,0,1-2.584,2.356,3.292,3.292,0,0,1-1.235.154" transform="translate(-76.985 -27.672)" fill="#263238"/>
            <path id="Trazado_734301" data-name="Trazado 734301" d="M267.887,156.177h-.821a2.836,2.836,0,0,1-2.836-2.835V125.714a.3.3,0,0,1,.3-.3h5.883a.3.3,0,0,1,.3.3v27.628a2.835,2.835,0,0,1-2.835,2.835" transform="translate(-77.638 -36.849)" fill="#ffa031"/>
            <path id="Trazado_734302" data-name="Trazado 734302" d="M222.218,151.2c0,.372-6.325,8.95-4.961,10.3s24.68,7.01,24.929,6.228,1.984-20.625,1.984-20.625Z" transform="translate(-63.779 -43.225)" fill="#455a64"/>
            <path id="Trazado_734303" data-name="Trazado 734303" d="M272.292,95.711H259.8a.436.436,0,0,1-.436-.436V89.642a.436.436,0,0,1,.436-.436h12.491a.435.435,0,0,1,.435.436v5.633a.435.435,0,0,1-.435.436" transform="translate(-76.209 -26.211)" fill="#ffa031"/>
            <path id="Trazado_734304" data-name="Trazado 734304" d="M232.079,108.531s8.415.423,10.87.725,14.755,6.974,14.02,8.362-.979,3.265-4.327,2.857-9.062-3.755-9.062-3.755" transform="translate(-68.191 -31.889)" fill="#455a64"/>
            <path id="Trazado_734305" data-name="Trazado 734305" d="M243.58,116.714a2.1,2.1,0,0,1,.4.185l1.12.571c.975.486,2.389,1.2,4.2,1.9a15.888,15.888,0,0,0,3.031.89,6.072,6.072,0,0,0,1.727.066,2.543,2.543,0,0,0,1.585-.717,5.661,5.661,0,0,0,.96-1.656c.059-.145.171-.333.206-.446.036-.048-.037-.2-.11-.323a4.48,4.48,0,0,0-.684-.722,28.1,28.1,0,0,0-3.547-2.456,65.088,65.088,0,0,0-7.419-3.882,13.841,13.841,0,0,0-1.748-.64,13.4,13.4,0,0,0-1.737-.221l-3.183-.252-4.614-.33-1.254-.1a2,2,0,0,1-.436-.059,1.963,1.963,0,0,1,.44-.015l1.258.032c1.092.037,2.671.105,4.623.213.975.056,2.044.119,3.191.208a13.188,13.188,0,0,1,1.792.212,13.8,13.8,0,0,1,1.8.641,62.087,62.087,0,0,1,7.478,3.88,27.813,27.813,0,0,1,3.594,2.5,4.757,4.757,0,0,1,.744.8.764.764,0,0,1,.148.637c-.076.206-.152.311-.221.477a5.919,5.919,0,0,1-1.037,1.746,2.835,2.835,0,0,1-.842.569,3.626,3.626,0,0,1-.946.23,6.308,6.308,0,0,1-1.816-.086,15.772,15.772,0,0,1-3.076-.949,39.364,39.364,0,0,1-4.174-2.018c-.478-.267-.845-.481-1.09-.633a1.865,1.865,0,0,1-.363-.249" transform="translate(-68.191 -31.883)" fill="#263238"/>
            <path id="Trazado_734306" data-name="Trazado 734306" d="M227.641,115.388c.245.082,8.653.032,10.123,1.159s10.2,6.841,9.8,7.985-1.47,2.531-4.735,2.2-9.634-3.183-9.634-3.183l-9.8.163" transform="translate(-65.64 -33.904)" fill="#455a64"/>
            <path id="Trazado_734307" data-name="Trazado 734307" d="M223.4,123.712a4.126,4.126,0,0,1,.691-.055l1.967-.073,7.136-.183h.031l.032.014a65.428,65.428,0,0,0,6.268,2.369,16.473,16.473,0,0,0,3.666.792,4.367,4.367,0,0,0,3.575-1.045,3.06,3.06,0,0,0,.6-1.008c.061-.1-.019-.239-.125-.407a3.55,3.55,0,0,0-.371-.452,18.292,18.292,0,0,0-1.784-1.59c-1.232-.987-2.469-1.884-3.65-2.731l-3.375-2.392-.391-.29a3.794,3.794,0,0,0-.383-.2,5.477,5.477,0,0,0-.857-.257c-.577-.134-1.146-.215-1.689-.287-2.179-.258-3.964-.321-5.192-.388a12.353,12.353,0,0,1-1.909-.142c0-.011.168,0,.494-.008l1.419.007c1.232.024,3.017.047,5.218.273a17.092,17.092,0,0,1,1.722.268,5.8,5.8,0,0,1,.906.261,3.857,3.857,0,0,1,.453.237l.386.28,3.392,2.363c1.191.842,2.435,1.735,3.68,2.727a18.418,18.418,0,0,1,1.826,1.621,3.836,3.836,0,0,1,.409.5,1.433,1.433,0,0,1,.167.312.669.669,0,0,1,.04.212.585.585,0,0,1-.044.215,3.417,3.417,0,0,1-.677,1.127,3.515,3.515,0,0,1-1.842,1.027,6.906,6.906,0,0,1-2.028.133,16.608,16.608,0,0,1-3.747-.822,61.91,61.91,0,0,1-6.284-2.433l.062.013-7.138.055-1.969-.007a4.173,4.173,0,0,1-.692-.032" transform="translate(-65.64 -33.901)" fill="#263238"/>
            <path id="Trazado_734308" data-name="Trazado 734308" d="M223.4,138.167,226.5,134h2.123s.032,3.078,1.9,3.777c2.055.77,2.657-.2,3.327-2.634.456-1.661,2-5.386.163-6.961-.61-.522-7.334-1.123-7.334-1.123" transform="translate(-65.64 -37.334)" fill="#455a64"/>
            <path id="Trazado_734309" data-name="Trazado 734309" d="M226.675,127.057a7.508,7.508,0,0,1,1.245.049c.8.061,1.955.16,3.38.341a19.246,19.246,0,0,1,2.328.409,1.9,1.9,0,0,1,.327.118.8.8,0,0,1,.29.225,2.5,2.5,0,0,1,.429.561,3.656,3.656,0,0,1,.373,1.395c.1,1.989-.753,3.951-1.336,6.053a5.294,5.294,0,0,1-.5,1.1,1.8,1.8,0,0,1-.94.811,2.186,2.186,0,0,1-1.2.011,2.851,2.851,0,0,1-2.283-2.195,6.99,6.99,0,0,1-.327-1.936l.155.153-2.123-.019.109-.054-2.318,3.009-.646.807c-.151.182-.237.274-.247.266a1.3,1.3,0,0,1,.184-.313l.589-.851,2.22-3.081.039-.054h.07l2.123-.019h.148l.008.155a6.75,6.75,0,0,0,.333,1.833,2.522,2.522,0,0,0,2.045,1.951,1.848,1.848,0,0,0,1,0c.636-.213.96-.981,1.208-1.688.581-2.081,1.429-4.06,1.345-5.911a3.383,3.383,0,0,0-.32-1.263,2.206,2.206,0,0,0-.368-.492c-.133-.181-.275-.195-.481-.272a20.381,20.381,0,0,0-2.277-.444c-1.413-.213-2.564-.351-3.357-.456a8.7,8.7,0,0,1-1.231-.191" transform="translate(-65.639 -37.33)" fill="#263238"/>
            <path id="Trazado_734310" data-name="Trazado 734310" d="M256.307,101.049l8.881,3.223s1.678,5.739-4.233,4.145l-5.2-1.486" transform="translate(-75.147 -29.691)" fill="#455a64"/>
            <path id="Trazado_734311" data-name="Trazado 734311" d="M440.586,91.97c-2.116-4.791-7.329-7.5-12.453-8.578-3.762-.793-7.839-.872-11.29.821s-6.05,5.5-5.425,9.294l.781,16.574c2.1-1.628,4.954-1.878,7.594-1.623s5.241.95,7.894.961a14.287,14.287,0,0,0,11.245-5.3,12.231,12.231,0,0,0,1.655-12.152" transform="translate(-120.858 -24.343)" fill="#263238"/>
            <path id="Trazado_734312" data-name="Trazado 734312" d="M423.792,109.033a16.562,16.562,0,0,0-1.1-5.935,28.7,28.7,0,0,0-4.93-9.1c-2.132-2.581-5.9-3.7-9.232-3.371l12.441,23.494a6.116,6.116,0,0,0,2.82-5.084" transform="translate(-120.038 -26.611)" fill="#455a64"/>
            <path id="Trazado_734313" data-name="Trazado 734313" d="M324.87,121.247c-1.14,16.112,4.235,33.011,14.667,42.915s25.778,11.878,37.18,3.736c3.985-2.846,7.68-3.389,10.8-7.547,3.994-5.315,8-10.4,10.146-17.126s2.978-15.389-.49-26.048" transform="translate(-95.412 -34.43)" fill="#263238"/>
            <path id="Trazado_734314" data-name="Trazado 734314" d="M324.765,114.412a32.8,32.8,0,0,1,20.518-31.739c7.552-3.041,16.012-3.169,24.051-1.879,5.194.833,10.4,2.286,14.735,5.271a30.916,30.916,0,0,1,9.708,11.718c2.31,4.576,3.627,9.493,5.007,14.429" transform="translate(-95.418 -23.512)" fill="#263238"/>
            <path id="Trazado_734315" data-name="Trazado 734315" d="M380.686,99,359.714,88.966,357.6,90.738c-12.674-.819-24.215,8.014-25.9,23.738-1.22,11.362-2.289,22.918-1.049,31.446,2.491,17.146,15.712,19.667,15.712,19.667,0-.058.035,6.816.035,6.816L354.5,211.22l27.669-35.992,3.818-70.049a6.019,6.019,0,0,0-5.3-6.175" transform="translate(-96.992 -26.141)" fill="#ffc09d"/>
            <path id="Trazado_734316" data-name="Trazado 734316" d="M367.578,141.955a2.194,2.194,0,0,0,2.087,2.241,2.1,2.1,0,0,0,2.288-1.948A2.2,2.2,0,0,0,369.869,140a2.1,2.1,0,0,0-2.291,1.95" transform="translate(-108.004 -41.136)" fill="#263238"/>
            <path id="Trazado_734317" data-name="Trazado 734317" d="M337.058,141.142a2.195,2.195,0,0,0,2.087,2.242,2.1,2.1,0,0,0,2.288-1.948,2.195,2.195,0,0,0-2.084-2.243,2.1,2.1,0,0,0-2.291,1.949" transform="translate(-99.036 -40.897)" fill="#263238"/>
            <path id="Trazado_734318" data-name="Trazado 734318" d="M335.133,130.738c.268.29,1.947-.918,4.308-.881,2.359,0,4.077,1.241,4.336.955.128-.126-.143-.646-.89-1.206a6.025,6.025,0,0,0-3.467-1.119,5.783,5.783,0,0,0-3.433,1.059c-.734.548-.987,1.062-.854,1.192" transform="translate(-98.462 -37.753)" fill="#263238"/>
            <path id="Trazado_734319" data-name="Trazado 734319" d="M367.068,132.043c.3.261,1.845-1.114,4.2-1.318,2.347-.239,4.182.816,4.411.5.113-.139-.206-.629-1.01-1.108a6.014,6.014,0,0,0-3.563-.758,5.787,5.787,0,0,0-3.308,1.406c-.671.62-.871,1.157-.727,1.273" transform="translate(-107.842 -38.003)" fill="#263238"/>
            <path id="Trazado_734320" data-name="Trazado 734320" d="M353.274,149.51a15.647,15.647,0,0,0-3.826-.743c-.6-.07-1.172-.2-1.268-.61a3.068,3.068,0,0,1,.426-1.782q.88-2.178,1.845-4.568c2.562-6.5,4.426-11.856,4.164-11.956s-2.554,5.089-5.116,11.593q-.926,2.406-1.77,4.6a3.489,3.489,0,0,0-.344,2.362,1.515,1.515,0,0,0,.98.895,4.07,4.07,0,0,0,1.022.156,15.359,15.359,0,0,0,3.887.056" transform="translate(-102.041 -38.153)" fill="#263238"/>
            <path id="Trazado_734321" data-name="Trazado 734321" d="M353.125,194.982A44.353,44.353,0,0,0,375.986,189s-5.762,12.238-22.867,10.41Z" transform="translate(-103.756 -55.534)" fill="#ff9b6c"/>
            <path id="Trazado_734322" data-name="Trazado 734322" d="M356.975,165.117a4.261,4.261,0,0,1,3.835-1.53,3.886,3.886,0,0,1,2.664,1.476,2.461,2.461,0,0,1,.15,2.816,2.855,2.855,0,0,1-3.106.742,8.935,8.935,0,0,1-2.994-1.842,2.6,2.6,0,0,1-.665-.707.791.791,0,0,1,.015-.879" transform="translate(-104.818 -48.057)" fill="#ff9b6c"/>
            <path id="Trazado_734323" data-name="Trazado 734323" d="M362.412,160.133c-.383-.028-.422,2.535-2.64,4.325s-4.943,1.473-4.967,1.83c-.038.161.6.506,1.755.553a6.383,6.383,0,0,0,4.144-1.383,5.557,5.557,0,0,0,2.05-3.63c.112-1.07-.165-1.709-.341-1.7" transform="translate(-104.251 -47.051)" fill="#263238"/>
            <path id="Trazado_734324" data-name="Trazado 734324" d="M366.576,119.383c.289.619,2.611.107,5.4.193,2.792.031,5.089.641,5.4.034.139-.289-.3-.856-1.257-1.395a9.393,9.393,0,0,0-8.231-.174c-.977.5-1.441,1.046-1.315,1.341" transform="translate(-107.704 -34.43)" fill="#263238"/>
            <path id="Trazado_734325" data-name="Trazado 734325" d="M336.013,117.7c.408.542,2.042.007,4,.006,1.956-.069,3.608.408,4-.148.171-.27-.083-.811-.8-1.328a5.788,5.788,0,0,0-6.442.114c-.7.542-.933,1.092-.754,1.356" transform="translate(-98.713 -33.882)" fill="#263238"/>
            <path id="Trazado_734326" data-name="Trazado 734326" d="M390.644,94.548c-1.519-1.895-4-2.758-6.351-3.462a138.521,138.521,0,0,0-31.14-5.55c-1.09,2.156.386,4.9,2.488,6.282s4.67,1.816,7.091,2.513,4.946,1.85,6.13,4.024c1.259,2.313.673,5.186,1.812,7.553,1.96,4.073,8.087,5.03,10.023,9.113,1.464,3.088-.088,6.578-.232,9.932a12.483,12.483,0,0,0,4.762,10.124,13.24,13.24,0,0,0,8.7,2.738c-.472-12.023,1.835-24.643,1.363-36.665-.1-2.5-3.042-4.6-4.649-6.6" transform="translate(-103.658 -25.133)" fill="#263238"/>
            <path id="Trazado_734327" data-name="Trazado 734327" d="M379.788,82.836a6.18,6.18,0,0,1-1.075-.2c-.341-.081-.76-.174-1.253-.247s-1.045-.2-1.669-.253c-.621-.076-1.3-.155-2.038-.18-.733-.061-1.519-.044-2.345-.045a30.274,30.274,0,0,0-10.485,2.113c-.761.321-1.493.609-2.145.95-.669.309-1.265.645-1.809.955-.554.292-1.019.617-1.441.88s-.776.506-1.059.713a6.234,6.234,0,0,1-.913.6,6.158,6.158,0,0,1,.827-.717,11.585,11.585,0,0,1,1.03-.769c.415-.281.874-.624,1.424-.934.54-.328,1.135-.68,1.8-1,.654-.356,1.389-.658,2.155-.992A28.925,28.925,0,0,1,371.4,81.571c.835.011,1.631,0,2.371.079.743.039,1.429.133,2.053.227.628.072,1.184.21,1.675.309a11.479,11.479,0,0,1,1.247.311,6.261,6.261,0,0,1,1.04.34" transform="translate(-103.884 -23.968)" fill="#455a64"/>
            <path id="Trazado_734328" data-name="Trazado 734328" d="M411.734,101.495a5.11,5.11,0,0,1,.149.983,11.385,11.385,0,0,1,.09,1.162c.016.455.056.972.032,1.546a27.732,27.732,0,0,1-.33,4.011,28.878,28.878,0,0,1-3.14,9.312,27.949,27.949,0,0,1-2.167,3.392c-.328.47-.674.859-.962,1.21a11.471,11.471,0,0,1-.776.871,5.1,5.1,0,0,1-.714.691c-.054-.049.928-1.07,2.241-2.925a31.01,31.01,0,0,0,2.079-3.4,30.6,30.6,0,0,0,3.106-9.207,31.1,31.1,0,0,0,.4-3.963c.079-2.271-.085-3.678-.011-3.685" transform="translate(-118.681 -29.822)" fill="#455a64"/>
            <path id="Trazado_734329" data-name="Trazado 734329" d="M422.158,114.237a4.426,4.426,0,0,1,.045.922c.011.592-.018,1.45-.094,2.509a42.032,42.032,0,0,1-4.444,15.877c-.484.943-.9,1.692-1.222,2.194a4.48,4.48,0,0,1-.516.763,4.393,4.393,0,0,1,.392-.833c.278-.523.661-1.287,1.113-2.239a48.059,48.059,0,0,0,4.418-15.786c.108-1.048.177-1.9.21-2.49a4.463,4.463,0,0,1,.1-.917" transform="translate(-122.21 -33.566)" fill="#455a64"/>
            <path id="Trazado_734330" data-name="Trazado 734330" d="M358.517,232.691l17.946,3.056-13.61,17.7Z" transform="translate(-105.342 -68.371)" fill="#ffa031"/>
            <path id="Trazado_734331" data-name="Trazado 734331" d="M357.029,145.84c-4.337,0-7.764-1.605-8.842-3.575-1.409-2.576-2.916-8.709-2.93-8.77a.988.988,0,0,0-.422-.684,1.058,1.058,0,0,0-.782,0,1.4,1.4,0,0,0-.169.426c-.015.061-1.52,6.191-2.931,8.771-1.383,2.529-6.637,4.454-12.715,3.16-.232-.049-.458-.1-.677-.165a10.554,10.554,0,0,1-7.577-10.627l.255-6.351a2.244,2.244,0,0,1,2.253-2.164h.022l23.732.223,19.773.018a2.907,2.907,0,0,1,2.909,2.8l.23,5.726a10.564,10.564,0,0,1-7.523,10.624c-.236.065-.479.125-.73.178a18.627,18.627,0,0,1-3.875.416m-12.54-13.812a1.422,1.422,0,0,1,.68.161,1.65,1.65,0,0,1,.775,1.14c.014.06,1.5,6.1,2.862,8.6,1.266,2.316,6.369,4,11.95,2.807q.355-.075.691-.168a9.852,9.852,0,0,0,7-9.915l-.23-5.726a2.2,2.2,0,0,0-2.2-2.12l-19.777-.018-23.735-.223h-.015a1.542,1.542,0,0,0-1.547,1.486l-.255,6.351a9.841,9.841,0,0,0,7.056,9.917q.31.085.639.155c5.579,1.19,10.683-.492,11.949-2.808a49.176,49.176,0,0,0,2.864-8.6,1.964,1.964,0,0,1,.357-.777l.062-.079.095-.035a2.3,2.3,0,0,1,.78-.15" transform="translate(-94.017 -36.98)" fill="#e0e0e0"/>
            <path id="Trazado_734332" data-name="Trazado 734332" d="M387.766,127.795s20.922,12.472,22.3,14.817a7.022,7.022,0,0,1,.6,3.7,2.009,2.009,0,0,1-3.373,1.366l-5.744-5.324-12.816-4.411Z" transform="translate(-113.936 -37.55)" fill="#e0e0e0"/>
            <path id="Trazado_734333" data-name="Trazado 734333" d="M380.973,130.691a3.207,3.207,0,0,1,.275.823,9.649,9.649,0,0,1,.272,2.354,10.632,10.632,0,0,1-9.622,10.666,9.7,9.7,0,0,1-2.369-.029,3.206,3.206,0,0,1-.847-.189,17.044,17.044,0,0,0,3.183-.04,10.689,10.689,0,0,0,9.393-10.413,17.105,17.105,0,0,0-.287-3.171" transform="translate(-108.329 -38.401)" fill="#fff"/>
            <path id="Trazado_734334" data-name="Trazado 734334" d="M330.543,131.1a28.946,28.946,0,0,1-3.252,3.265,29,29,0,0,1-3.5,2.995,57.662,57.662,0,0,1,6.755-6.26" transform="translate(-95.137 -38.519)" fill="#fff"/>
            <path id="Trazado_734335" data-name="Trazado 734335" d="M336.333,131.341a11.491,11.491,0,0,1-1.562,1.34c-.993.789-2.378,1.859-3.923,3.022s-2.955,2.2-3.988,2.936a11.545,11.545,0,0,1-1.718,1.132,11.266,11.266,0,0,1,1.559-1.337c.992-.789,2.379-1.86,3.926-3.025s2.957-2.2,3.99-2.938a11.382,11.382,0,0,1,1.716-1.13" transform="translate(-95.536 -38.591)" fill="#fff"/>
            <path id="Trazado_734336" data-name="Trazado 734336" d="M401.841,149.517c.02-1.274,1.532-4.259,2.794-4.438,3.367-.479,9.421-.13,9.365,8.4-.078,11.667-11.775,9.183-11.794,8.848-.014-.261-.433-8.415-.364-12.815" transform="translate(-118.07 -42.588)" fill="#ffc09d"/>
            <path id="Trazado_734337" data-name="Trazado 734337" d="M407.444,159.507c.052-.037.2.143.544.3a2.033,2.033,0,0,0,1.52.042c1.235-.444,2.286-2.394,2.356-4.5a6.715,6.715,0,0,0-.549-2.914,2.344,2.344,0,0,0-1.519-1.569,1.034,1.034,0,0,0-1.2.548c-.159.326-.086.559-.148.578-.032.03-.249-.2-.152-.677a1.3,1.3,0,0,1,.464-.729,1.535,1.535,0,0,1,1.126-.29A2.855,2.855,0,0,1,412,152.126a6.893,6.893,0,0,1,.683,3.256c-.09,2.351-1.308,4.543-3,5.019a2.176,2.176,0,0,1-1.857-.321c-.359-.29-.419-.552-.378-.572" transform="translate(-119.715 -44.16)" fill="#ff9b6c"/>
            <rect id="Rectángulo_352645" data-name="Rectángulo 352645" width="62.175" height="87.727" transform="translate(214.302 219.918) rotate(-17.243)" fill="#263238"/>
            <rect id="Rectángulo_352646" data-name="Rectángulo 352646" width="32.256" height="11.275" transform="translate(225.871 210.276) rotate(-17.243)" fill="#263238"/>
            <path id="Trazado_734338" data-name="Trazado 734338" d="M355.092,358.323s-14.265-6.818-17.675-7.8c-2.788-.805-11.623,2.513-14.045,4A2.855,2.855,0,0,0,322.18,356l-2.054,5.748s2.465,3.183,5.855-.429l.77-1.392,4.775-2.119,4.492,2.14-9.373,3.955s-5.887-.944-6.93-.482-2.662,3.577.716,6.3c0,0-2.983,2.664.316,6.864,0,0-2.558,2.092,2.588,6.529l.617.494s-2.409,2.794,1.017,5.115,11.225-.018,12.714-.773,21.149-7.413,21.149-7.413l11.639-.548-2.414-25Z" transform="translate(-93.554 -102.956)" fill="#455a64"/>
            <path id="Trazado_734339" data-name="Trazado 734339" d="M332,378.911a4.679,4.679,0,0,1-1.506.57,11.776,11.776,0,0,1-7.646-.671,4.664,4.664,0,0,1-1.383-.823,14.839,14.839,0,0,0,10.536.924" transform="translate(-94.454 -111.061)" fill="#263238"/>
            <path id="Trazado_734340" data-name="Trazado 734340" d="M330.242,389.82a9.98,9.98,0,0,1-4.755-.261,9.876,9.876,0,0,1-4.3-2.049,26.36,26.36,0,0,0,4.389,1.693,27.037,27.037,0,0,0,4.664.617" transform="translate(-94.374 -113.86)" fill="#263238"/>
            <path id="Trazado_734341" data-name="Trazado 734341" d="M334.1,398.384a12.849,12.849,0,0,1-8.24-.714c.035-.1,1.81.492,4.092.672,2.279.211,4.131-.063,4.147.042" transform="translate(-95.748 -116.843)" fill="#263238"/>
            <path id="Trazado_734342" data-name="Trazado 734342" d="M423.563,230.486c1.061.311,15.714,3.342,22.631,48,3.341,21.573,5.752,31.593,5.478,40.563-.309,10.128-3.266,17.652-13.814,20.642l-54.341,15.827-6.7-33.579,42.606-12.073-4.993-31.406Z" transform="translate(-110.718 -67.723)" fill="#e0e0e0"/>
            <path id="Trazado_734343" data-name="Trazado 734343" d="M441.533,371.427s-.094.039-.282.1l-.838.261-3.252.979L425.02,376.36,383.48,388.533l-.187.055-.038-.192c-1.132-5.664-2.33-11.654-3.561-17.813l-3.143-15.765-.033-.162.158-.046,41.961-12.355.025-.007.025,0a15.516,15.516,0,0,1,7.291,3.11,15.283,15.283,0,0,1,5.295,7.908,10.015,10.015,0,0,1,.273,1.251s-.035-.1-.086-.312-.132-.518-.251-.92a15.764,15.764,0,0,0-1.474-3.376,15.129,15.129,0,0,0-3.871-4.4,15.373,15.373,0,0,0-7.209-3.022l.05,0-41.926,12.472.126-.208c1.013,5.072,2.069,10.353,3.15,15.764l3.551,17.815-.225-.136,41.574-12.051,12.171-3.493,3.269-.921.847-.231c.191-.05.291-.068.291-.068" transform="translate(-110.632 -100.562)" fill="#263238"/>
            <path id="Trazado_734344" data-name="Trazado 734344" d="M439.911,237.836a2.186,2.186,0,0,1-.109.449l-.381,1.264c-.175.546-.376,1.217-.6,2s-.491,1.67-.747,2.662c-.549,1.974-1.117,4.346-1.726,6.984-.588,2.644-1.192,5.56-1.78,8.63-1.162,6.146-2.1,11.732-2.839,15.767-.366,2.017-.672,3.648-.9,4.772-.112.531-.2.96-.27,1.292a2.219,2.219,0,0,1-.119.446,2.147,2.147,0,0,1,.046-.46c.052-.336.119-.769.2-1.3.193-1.177.46-2.8.786-4.791.671-4.044,1.57-9.639,2.734-15.791.588-3.074,1.2-5.993,1.811-8.636.629-2.638,1.224-5.01,1.806-6.978.273-.989.555-1.874.8-2.651s.461-1.445.657-1.985c.184-.51.332-.922.447-1.244a2.173,2.173,0,0,1,.179-.425" transform="translate(-126.475 -69.883)" fill="#263238"/>
          </g>
        </g>
      </g>
    </g>
  </g>
</svg>
