<svg xmlns="http://www.w3.org/2000/svg" xmlns:xlink="http://www.w3.org/1999/xlink" width="176" height="176" viewBox="0 0 176 176">
  <defs>
    <clipPath id="clip-path">
      <circle id="Elipse_8399" data-name="Elipse 8399" cx="88" cy="88" r="88" transform="translate(-0.368)" fill="#fff"/>
    </clipPath>
  </defs>
  <g id="Grupo_1036343" data-name="Grupo 1036343" transform="translate(-8905 10335.366)">
    <g id="Grupo_1029831" data-name="Grupo 1029831" transform="translate(8905.368 -10335.366)">
      <circle id="Elipse_8399-2" data-name="Elipse 8399" cx="88" cy="88" r="88" transform="translate(-0.368)" fill="#fff"/>
    </g>
    <g id="Grupo_1033457" data-name="Grupo 1033457" transform="translate(8905.368 -10335.366)">
      <g id="Enmascarar_grupo_1030777" data-name="Enmascarar grupo 1030777" clip-path="url(#clip-path)">
        <g id="absorcion_1_" data-name="absorcion (1)" transform="translate(22.649 10.386)">
          <g id="Grupo_1033460" data-name="Grupo 1033460" transform="translate(1.904 6.222)">
            <g id="Grupo_1033458" data-name="Grupo 1033458">
              <path id="Trazado_734005" data-name="Trazado 734005" d="M60.51,48.419c0,12.4,7.268,20.822,20.3,20.822s20.3-8.422,20.3-20.822c0-11.469-14.5-30.807-20.3-40.848-5.8,10.041-20.3,29.379-20.3,40.848Z" transform="translate(-17.731 -7.571)" fill="#4db1f0" fill-rule="evenodd"/>
              <path id="Trazado_734006" data-name="Trazado 734006" d="M92.825,51.352a25.3,25.3,0,0,1-1.6,9.157c2.394,2.105,5.743,3.385,10.145,3.385,10.311,0,14.848-7.018,14.848-15.231s-10.272-21.952-14.848-29.879c-3.051,5.285-8.633,13.152-12.015,20.244,2.091,4.533,3.475,8.8,3.475,12.324ZM43.685,63.894c4.4,0,7.751-1.28,10.145-3.385a25.3,25.3,0,0,1-1.6-9.157c0-3.524,1.383-7.792,3.475-12.324-3.382-7.091-8.964-14.959-12.015-20.244C39.108,26.711,28.836,40.45,28.836,48.663S33.374,63.894,43.685,63.894Z" transform="translate(-9.446 -10.504)" fill="#4db1f0" fill-rule="evenodd"/>
              <path id="Trazado_734007" data-name="Trazado 734007" d="M99.086,56.313a25.3,25.3,0,0,1-1.6,9.157,13.02,13.02,0,0,0,5.074,2.72A30.584,30.584,0,0,0,104.8,56.313c0-5.617-2.465-12.083-5.83-18.562-1.226,2.09-2.382,4.2-3.355,6.238C97.7,48.521,99.086,52.789,99.086,56.313Zm-46.31,0c0-5.617,2.465-12.083,5.83-18.562,1.226,2.09,2.382,4.2,3.355,6.238-2.092,4.533-3.475,8.8-3.475,12.324a25.3,25.3,0,0,0,1.6,9.157,13.02,13.02,0,0,1-5.074,2.72A30.581,30.581,0,0,1,52.776,56.313Z" transform="translate(-15.708 -15.465)" fill="#00a7e7" fill-rule="evenodd"/>
              <path id="Trazado_734008" data-name="Trazado 734008" d="M128.736,103.976H2.578v14.237h14.9c4.958,0,7.519-4.718,12.044-4.718s7.086,4.718,12.044,4.718,7.519-4.718,12.044-4.718,7.086,4.718,12.044,4.718S73.176,113.5,77.7,113.5s7.086,4.718,12.044,4.718,7.519-4.718,12.044-4.718,7.086,4.718,12.044,4.718h14.9Z" transform="translate(-2.578 -32.787)" fill="#4db1f0" fill-rule="evenodd"/>
              <path id="Trazado_734009" data-name="Trazado 734009" d="M23.814,134a5.711,5.711,0,1,1,5.711,5.711A5.711,5.711,0,0,1,23.814,134Zm41.843-12.416c-4.958,0-7.519-4.718-12.044-4.718s-7.086,4.718-12.044,4.718-7.519-4.718-12.044-4.718-7.086,4.718-12.044,4.718H2.578v31.454a3.819,3.819,0,0,0,3.808,3.808H124.928a3.819,3.819,0,0,0,3.808-3.808V121.584h-14.9c-4.958,0-7.519-4.718-12.044-4.718s-7.086,4.718-12.044,4.718-7.519-4.718-12.044-4.718-7.085,4.718-12.044,4.718ZM47.9,134a5.711,5.711,0,1,1,5.711,5.711A5.711,5.711,0,0,1,47.9,134Zm24.088,0a5.711,5.711,0,1,1,5.711,5.711A5.711,5.711,0,0,1,71.989,134Zm24.087,0a5.711,5.711,0,1,1,5.711,5.711A5.711,5.711,0,0,1,96.077,134Z" transform="translate(-2.578 -36.159)" fill="#ffee89" fill-rule="evenodd"/>
              <path id="Trazado_734010" data-name="Trazado 734010" d="M103.6,138.047a5.711,5.711,0,1,0,5.711-5.711A5.711,5.711,0,0,0,103.6,138.047Zm-66.551-5.711a5.711,5.711,0,1,0,5.711,5.711A5.711,5.711,0,0,0,37.048,132.336Zm18.376,5.711a5.711,5.711,0,1,0,5.711-5.711A5.711,5.711,0,0,0,55.424,138.047Zm24.088,0a5.711,5.711,0,1,0,5.711-5.711A5.711,5.711,0,0,0,79.511,138.047Z" transform="translate(-10.1 -40.205)" fill="#4db1f0" fill-rule="evenodd"/>
              <path id="Trazado_734011" data-name="Trazado 734011" d="M60.51,48.419c0,12.4,7.268,20.822,20.3,20.822a27.916,27.916,0,0,0,2.856-.143c-11.233-1.154-17.444-9.217-17.444-20.679,0-9.877,10.755-25.589,17.444-36.174-1.078-1.706-2.051-3.28-2.856-4.673-5.8,10.042-20.3,29.379-20.3,40.848Z" transform="translate(-17.731 -7.571)" fill="#00a7e7" fill-rule="evenodd"/>
              <path id="Trazado_734012" data-name="Trazado 734012" d="M2.578,103.976H8.289v14.237H2.578Z" transform="translate(-2.578 -32.787)" fill="#00a7e7" fill-rule="evenodd"/>
              <path id="Trazado_734013" data-name="Trazado 734013" d="M8.289,123.255H2.578v31.454a3.819,3.819,0,0,0,3.808,3.808H12.1a3.819,3.819,0,0,1-3.808-3.808Z" transform="translate(-2.578 -37.83)" fill="#ffe200" fill-rule="evenodd"/>
            </g>
            <g id="Grupo_1033459" data-name="Grupo 1033459" transform="translate(62.126 15.69)">
              <path id="Trazado_734014" data-name="Trazado 734014" d="M91.946,40.716,90.2,37.332l3.384-1.745,1.745,3.384Zm-3.491-6.768-1.745-3.384,3.384-1.745L91.839,32.2Z" transform="translate(-86.709 -28.819)" fill="#fff"/>
            </g>
          </g>
          <g id="Grupo_1033461" data-name="Grupo 1033461" transform="translate(0 2.415)">
            <path id="Trazado_734015" data-name="Trazado 734015" d="M61.378,137.373a7.615,7.615,0,1,0,7.615-7.615A7.624,7.624,0,0,0,61.378,137.373Zm11.423,0a3.808,3.808,0,1,1-3.808-3.808A3.812,3.812,0,0,1,72.8,137.373Z" transform="translate(-16.054 -35.723)" fill="#12263f"/>
            <path id="Trazado_734016" data-name="Trazado 734016" d="M28.758,137.373a7.615,7.615,0,1,0,7.615-7.615A7.624,7.624,0,0,0,28.758,137.373Zm11.423,0a3.808,3.808,0,1,1-3.808-3.808A3.812,3.812,0,0,1,40.181,137.373Z" transform="translate(-7.522 -35.723)" fill="#12263f"/>
            <path id="Trazado_734017" data-name="Trazado 734017" d="M126.617,137.373a7.615,7.615,0,1,0,7.615-7.615A7.624,7.624,0,0,0,126.617,137.373Zm11.423,0a3.808,3.808,0,1,1-3.808-3.808A3.812,3.812,0,0,1,138.04,137.373Z" transform="translate(-33.118 -35.723)" fill="#12263f"/>
            <path id="Trazado_734018" data-name="Trazado 734018" d="M94,137.373a7.615,7.615,0,1,0,7.615-7.615A7.624,7.624,0,0,0,94,137.373Zm11.423,0a3.808,3.808,0,1,1-3.808-3.808A3.812,3.812,0,0,1,105.42,137.373Z" transform="translate(-24.586 -35.723)" fill="#12263f"/>
            <path id="Trazado_734019" data-name="Trazado 734019" d="M20.183,158.116h3.808v3.808H20.183Z" transform="translate(-5.279 -43.141)" fill="#12263f"/>
            <path id="Trazado_734020" data-name="Trazado 734020" d="M150.661,158.116h3.808v3.808h-3.808Z" transform="translate(-39.407 -43.141)" fill="#12263f"/>
            <path id="Trazado_734021" data-name="Trazado 734021" d="M85.422,158.116h3.808v3.808H85.422Z" transform="translate(-22.343 -43.141)" fill="#12263f"/>
            <path id="Trazado_734022" data-name="Trazado 734022" d="M118.042,158.116h3.808v3.808h-3.808Z" transform="translate(-30.875 -43.141)" fill="#12263f"/>
            <path id="Trazado_734023" data-name="Trazado 734023" d="M52.8,158.116H56.61v3.808H52.8Z" transform="translate(-13.811 -43.141)" fill="#12263f"/>
            <path id="Trazado_734024" data-name="Trazado 734024" d="M0,101.4v47.595A5.718,5.718,0,0,0,5.711,154.7H107.446V150.9H5.711a1.906,1.906,0,0,1-1.9-1.9v-29.55h13c3.1,0,5.353-1.458,7.343-2.744,1.638-1.059,3.052-1.973,4.7-1.973s3.063.914,4.7,1.973c1.99,1.286,4.246,2.744,7.343,2.744s5.353-1.458,7.343-2.744c1.638-1.059,3.052-1.973,4.7-1.973s3.063.914,4.7,1.973c1.99,1.286,4.246,2.744,7.343,2.744s5.353-1.458,7.343-2.744c1.638-1.059,3.052-1.973,4.7-1.973s3.063.914,4.7,1.973c1.99,1.286,4.246,2.744,7.343,2.744s5.353-1.458,7.343-2.744c1.637-1.059,3.052-1.973,4.7-1.973s3.063.914,4.7,1.973c1.99,1.286,4.245,2.744,7.343,2.744h13v29.55a1.906,1.906,0,0,1-1.9,1.9h-5.385V154.7h5.385a5.718,5.718,0,0,0,5.711-5.711V101.4H0Zm113.158,14.237c-1.974,0-3.5-.989-5.276-2.135-1.873-1.211-4-2.583-6.768-2.583s-4.9,1.372-6.768,2.583c-1.772,1.145-3.3,2.135-5.276,2.135s-3.5-.989-5.276-2.135c-1.873-1.211-4-2.583-6.768-2.583s-4.9,1.372-6.768,2.583c-1.772,1.145-3.3,2.135-5.276,2.135s-3.5-.989-5.276-2.135c-1.873-1.211-4-2.583-6.768-2.583s-4.9,1.372-6.768,2.583c-1.772,1.145-3.3,2.135-5.276,2.135s-3.5-.989-5.276-2.135c-1.873-1.211-4-2.583-6.768-2.583s-4.9,1.372-6.768,2.583c-1.772,1.145-3.3,2.135-5.276,2.135h-13V105.205h122.35v10.429Z" transform="translate(0 -28.305)" fill="#12263f"/>
            <path id="Trazado_734025" data-name="Trazado 734025" d="M150.661,168.429h3.808v3.808h-3.808Z" transform="translate(-39.407 -45.838)" fill="#12263f"/>
            <path id="Trazado_734026" data-name="Trazado 734026" d="M43.011,61.516a17.751,17.751,0,0,0,9.381-2.378,19.79,19.79,0,0,0,2.588,3.8C58.886,67.426,64.72,69.8,71.851,69.8s12.965-2.37,16.871-6.854a19.787,19.787,0,0,0,2.588-3.8,17.749,17.749,0,0,0,9.381,2.378c5.368,0,9.768-1.794,12.726-5.188a17.839,17.839,0,0,0,4.026-11.946c0-6.889-6.268-16.758-11.3-24.688-1.426-2.245-2.773-4.366-3.8-6.143L100.691,10.7l-1.649,2.856c-1.026,1.777-2.373,3.9-3.8,6.142-2.152,3.388-4.522,7.121-6.534,10.817-2.947-5.705-6.672-11.572-10-16.815-1.954-3.076-3.8-5.981-5.209-8.424L71.851,2.415,70.2,5.271c-1.41,2.442-3.255,5.348-5.209,8.424-3.33,5.243-7.055,11.111-10,16.815-2.012-3.7-4.382-7.429-6.534-10.817-1.425-2.245-2.772-4.365-3.8-6.142L43.011,10.7l-1.649,2.856c-1.026,1.777-2.372,3.9-3.8,6.141-1.332,2.1-2.71,4.267-4.061,6.516l3.264,1.961c1.327-2.209,2.692-4.358,4.012-6.436.779-1.226,1.534-2.416,2.232-3.541.7,1.125,1.454,2.315,2.233,3.541a149.5,149.5,0,0,1,7.685,13.053c-1.984,4.46-3.281,8.69-3.281,12.283a27.861,27.861,0,0,0,1.255,8.5,13.708,13.708,0,0,1-7.892,2.141c-4.295,0-7.611-1.306-9.856-3.882a14.115,14.115,0,0,1-3.089-9.445c0-2.939,1.575-7.182,4.816-12.972l-3.323-1.86c-3.616,6.462-5.3,11.174-5.3,14.832a17.84,17.84,0,0,0,4.026,11.946c2.958,3.394,7.358,5.188,12.726,5.188ZM98.458,21.734c.779-1.227,1.534-2.416,2.233-3.541.7,1.126,1.454,2.316,2.234,3.543,4.521,7.117,10.711,16.864,10.711,22.646a14.115,14.115,0,0,1-3.089,9.445c-2.245,2.576-5.561,3.882-9.856,3.882A13.708,13.708,0,0,1,92.8,55.568a27.861,27.861,0,0,0,1.255-8.5c0-3.593-1.3-7.823-3.281-12.283A149.467,149.467,0,0,1,98.458,21.734Zm-30.251-6c1.29-2.03,2.533-3.987,3.644-5.8,1.111,1.813,2.354,3.77,3.644,5.8C82.067,26.084,90.246,38.962,90.246,47.07c0,5.447-1.52,10.071-4.395,13.371-3.207,3.681-7.918,5.547-14,5.547s-10.793-1.866-14-5.547c-2.875-3.3-4.395-7.924-4.395-13.371,0-8.108,8.179-20.987,14.752-31.335Z" transform="translate(-6.868 -2.415)" fill="#12263f"/>
            <path id="Trazado_734027" data-name="Trazado 734027" d="M167.783,77.1l-2.964-2.39-2.942,3.647V63.039h-3.808V78.356l-2.942-3.647-2.964,2.39,7.809,9.682Z" transform="translate(-39.801 -18.272)" fill="#12263f"/>
            <path id="Trazado_734028" data-name="Trazado 734028" d="M18.3,77.1l-2.964-2.39L12.4,78.356V63.039H8.59V78.356L5.648,74.709,2.684,77.1l7.809,9.682Z" transform="translate(-0.702 -18.272)" fill="#12263f"/>
          </g>
        </g>
      </g>
    </g>
  </g>
</svg>
