<svg xmlns="http://www.w3.org/2000/svg" xmlns:xlink="http://www.w3.org/1999/xlink" width="393.3" height="354.271" viewBox="0 0 393.3 354.271">
  <defs>
    <clipPath id="clip-path">
      <rect id="Rectángulo_33841" data-name="Rectángulo 33841" width="353.874" height="295.116" fill="none"/>
    </clipPath>
    <clipPath id="clip-path-2">
      <rect id="Rectángulo_352625" data-name="Rectángulo 352625" width="348.938" height="330.041" fill="none"/>
    </clipPath>
    <clipPath id="clip-path-5">
      <rect id="Rectángulo_352618" data-name="Rectángulo 352618" width="5.239" height="25.716" fill="none"/>
    </clipPath>
    <clipPath id="clip-path-7">
      <rect id="Rectángulo_352620" data-name="Rectángulo 352620" width="94.243" height="55.613" fill="none"/>
    </clipPath>
    <clipPath id="clip-path-8">
      <rect id="Rectángulo_352621" data-name="Rectángulo 352621" width="42.876" height="59.354" fill="none"/>
    </clipPath>
    <clipPath id="clip-path-9">
      <rect id="Rectángulo_352622" data-name="Rectángulo 352622" width="4.748" height="38.392" fill="none"/>
    </clipPath>
  </defs>
  <g id="Grupo_1036303" data-name="Grupo 1036303" transform="translate(-180 -1805)">
    <g id="Grupo_1029835" data-name="Grupo 1029835" transform="translate(573.3 2109.955) rotate(180)">
      <path id="Trazado_113636" data-name="Trazado 113636" d="M291.508,294.772A145.754,145.754,0,1,1,145.754,149.018,145.754,145.754,0,0,1,291.508,294.772" transform="translate(0 -149.018)" fill="#0078bb"/>
      <path id="Trazado_113637" data-name="Trazado 113637" d="M1199.467,544.095A105.615,105.615,0,1,1,1093.853,438.48a105.615,105.615,0,0,1,105.615,105.615" transform="translate(-820.505 -358.201)" fill="#065958"/>
      <path id="Trazado_113638" data-name="Trazado 113638" d="M1232.906,598.359a84.79,84.79,0,1,1-84.79-84.79,84.79,84.79,0,0,1,84.79,84.79" transform="translate(-874.769 -412.465)" fill="#fff"/>
      <path id="Trazado_113665" data-name="Trazado 113665" d="M129.99,381.385a3.257,3.257,0,1,1-3.257-3.257,3.257,3.257,0,0,1,3.257,3.257" transform="translate(-89.231 -314.587)" fill="#fff"/>
      <path id="Trazado_113666" data-name="Trazado 113666" d="M181.665,381.385a3.257,3.257,0,1,1-3.257-3.257,3.257,3.257,0,0,1,3.257,3.257" transform="translate(-126.575 -314.587)" fill="#fff"/>
      <path id="Trazado_113667" data-name="Trazado 113667" d="M233.34,381.385a3.257,3.257,0,1,1-3.257-3.257,3.257,3.257,0,0,1,3.257,3.257" transform="translate(-163.918 -314.587)" fill="#fff"/>
      <path id="Trazado_113668" data-name="Trazado 113668" d="M285.016,381.385a3.257,3.257,0,1,1-3.257-3.257,3.257,3.257,0,0,1,3.257,3.257" transform="translate(-201.262 -314.587)" fill="#fff"/>
      <path id="Trazado_113669" data-name="Trazado 113669" d="M336.69,381.385a3.257,3.257,0,1,1-3.257-3.257,3.257,3.257,0,0,1,3.257,3.257" transform="translate(-238.605 -314.587)" fill="#fff"/>
      <path id="Trazado_113670" data-name="Trazado 113670" d="M129.99,430.711a3.257,3.257,0,1,1-3.257-3.257,3.257,3.257,0,0,1,3.257,3.257" transform="translate(-89.231 -350.233)" fill="#fff"/>
      <path id="Trazado_113671" data-name="Trazado 113671" d="M181.665,430.711a3.257,3.257,0,1,1-3.257-3.257,3.257,3.257,0,0,1,3.257,3.257" transform="translate(-126.575 -350.233)" fill="#fff"/>
      <path id="Trazado_113672" data-name="Trazado 113672" d="M233.34,430.711a3.257,3.257,0,1,1-3.257-3.257,3.257,3.257,0,0,1,3.257,3.257" transform="translate(-163.918 -350.233)" fill="#fff"/>
      <path id="Trazado_113673" data-name="Trazado 113673" d="M285.016,430.711a3.257,3.257,0,1,1-3.257-3.257,3.257,3.257,0,0,1,3.257,3.257" transform="translate(-201.262 -350.233)" fill="#fff"/>
      <path id="Trazado_113674" data-name="Trazado 113674" d="M336.69,430.711a3.257,3.257,0,1,1-3.257-3.257,3.257,3.257,0,0,1,3.257,3.257" transform="translate(-238.605 -350.233)" fill="#fff"/>
      <path id="Trazado_113675" data-name="Trazado 113675" d="M129.99,480.038a3.257,3.257,0,1,1-3.257-3.257,3.257,3.257,0,0,1,3.257,3.257" transform="translate(-89.231 -385.88)" fill="#fff"/>
      <path id="Trazado_113676" data-name="Trazado 113676" d="M181.665,480.038a3.257,3.257,0,1,1-3.257-3.257,3.257,3.257,0,0,1,3.257,3.257" transform="translate(-126.575 -385.88)" fill="#fff"/>
      <path id="Trazado_113677" data-name="Trazado 113677" d="M233.34,480.038a3.257,3.257,0,1,1-3.257-3.257,3.257,3.257,0,0,1,3.257,3.257" transform="translate(-163.918 -385.88)" fill="#fff"/>
      <path id="Trazado_113678" data-name="Trazado 113678" d="M285.016,480.038a3.257,3.257,0,1,1-3.257-3.257,3.257,3.257,0,0,1,3.257,3.257" transform="translate(-201.262 -385.88)" fill="#fff"/>
      <path id="Trazado_113679" data-name="Trazado 113679" d="M336.69,480.038a3.257,3.257,0,1,1-3.257-3.257,3.257,3.257,0,0,1,3.257,3.257" transform="translate(-238.605 -385.88)" fill="#fff"/>
      <path id="Trazado_113680" data-name="Trazado 113680" d="M129.99,529.364a3.257,3.257,0,1,1-3.257-3.257,3.257,3.257,0,0,1,3.257,3.257" transform="translate(-89.231 -421.526)" fill="#fff"/>
      <path id="Trazado_113681" data-name="Trazado 113681" d="M181.665,529.364a3.257,3.257,0,1,1-3.257-3.257,3.257,3.257,0,0,1,3.257,3.257" transform="translate(-126.575 -421.526)" fill="#fff"/>
      <path id="Trazado_113682" data-name="Trazado 113682" d="M233.34,529.364a3.257,3.257,0,1,1-3.257-3.257,3.257,3.257,0,0,1,3.257,3.257" transform="translate(-163.918 -421.526)" fill="#fff"/>
      <path id="Trazado_113683" data-name="Trazado 113683" d="M285.016,529.364a3.257,3.257,0,1,1-3.257-3.257,3.257,3.257,0,0,1,3.257,3.257" transform="translate(-201.262 -421.526)" fill="#fff"/>
      <path id="Trazado_113684" data-name="Trazado 113684" d="M336.69,529.364a3.257,3.257,0,1,1-3.257-3.257,3.257,3.257,0,0,1,3.257,3.257" transform="translate(-238.605 -421.526)" fill="#fff"/>
      <path id="Trazado_113685" data-name="Trazado 113685" d="M129.99,578.69a3.257,3.257,0,1,1-3.257-3.257,3.257,3.257,0,0,1,3.257,3.257" transform="translate(-89.231 -457.172)" fill="#fff"/>
      <path id="Trazado_113686" data-name="Trazado 113686" d="M181.665,578.69a3.257,3.257,0,1,1-3.257-3.257,3.257,3.257,0,0,1,3.257,3.257" transform="translate(-126.575 -457.172)" fill="#fff"/>
      <path id="Trazado_113687" data-name="Trazado 113687" d="M233.34,578.69a3.257,3.257,0,1,1-3.257-3.257,3.257,3.257,0,0,1,3.257,3.257" transform="translate(-163.918 -457.172)" fill="#fff"/>
      <path id="Trazado_113688" data-name="Trazado 113688" d="M285.016,578.69a3.257,3.257,0,1,1-3.257-3.257,3.257,3.257,0,0,1,3.257,3.257" transform="translate(-201.262 -457.172)" fill="#fff"/>
      <path id="Trazado_113689" data-name="Trazado 113689" d="M336.69,578.69a3.257,3.257,0,1,1-3.257-3.257,3.257,3.257,0,0,1,3.257,3.257" transform="translate(-238.605 -457.172)" fill="#fff"/>
      <g id="Grupo_1002336" data-name="Grupo 1002336" transform="translate(39.426 9.84)" opacity="0.251">
        <g id="Grupo_80323" data-name="Grupo 80323" clip-path="url(#clip-path)">
          <path id="Trazado_113615" data-name="Trazado 113615" d="M226.121,290.472c-3.342-.259-6.753-.407-10.246-.38-18.481.14-36.557,5.21-55.153,5.014-39.4-.415-79.95-4.578-114-30.306C-28.722,207.8-3.993,85.7,58.547,35.57,91.779,8.934,133.171.789,172.828.036c51.05-.97,116.53,15.493,153.107,59.309C351.418,89.872,357.754,161,351.8,201.3c-4.742,32.079-22.538,62.33-45.019,79.938-28.036,21.96-51.807,11.469-80.657,9.237" transform="translate(0 0.004)" fill="#e0f4fe"/>
        </g>
      </g>
    </g>
    <g id="Grupo_1033483" data-name="Grupo 1033483" transform="translate(210 1829.229)">
      <g id="Grupo_1033482" data-name="Grupo 1033482" clip-path="url(#clip-path-2)">
        <g id="Grupo_1033463" data-name="Grupo 1033463">
          <g id="Grupo_1033462" data-name="Grupo 1033462" clip-path="url(#clip-path-2)">
            <path id="Trazado_734029" data-name="Trazado 734029" d="M86.367,118.979s-.009-.168-.012-.486-.008-.8-.013-1.408c-.006-1.247-.015-3.074-.027-5.446-.013-4.758-.034-11.692-.059-20.452-.027-17.507-.063-42.3-.107-71.492l.218.218-65.7.02h-.008l.237-.237c-.018,37.454-.035,71.986-.048,99.283l-.19-.19,47.829.1,13.213.048,3.469.021c.785.007,1.2.02,1.2.02s-.386.013-1.159.02l-3.433.022-13.172.048-47.946.1h-.19v-.19c-.013-27.3-.03-61.83-.048-99.283v-.238h.246l65.7.02h.219V19.7c-.044,29.253-.08,54.093-.107,71.636-.025,8.738-.045,15.655-.059,20.4-.012,2.353-.02,4.165-.027,5.4-.005.6-.01,1.061-.013,1.383s-.012.46-.012.46" transform="translate(-4.48 -4.269)" fill="#e0e0e0"/>
            <path id="Trazado_734030" data-name="Trazado 734030" d="M115.786,2.179a15.134,15.134,0,0,1-1.559,2.265c-1.016,1.358-2.457,3.206-4.1,5.2s-3.183,3.767-4.322,5.025a15.212,15.212,0,0,1-1.923,1.963,16.322,16.322,0,0,1,1.669-2.183l4.21-5.108,4.205-5.11a16.384,16.384,0,0,1,1.823-2.056" transform="translate(-22.79 -0.478)" fill="#e0e0e0"/>
            <path id="Trazado_734031" data-name="Trazado 734031" d="M105.331,146.541a81.411,81.411,0,0,0,11.461,14.334" transform="translate(-23.109 -32.15)" fill="#fff"/>
            <path id="Trazado_734032" data-name="Trazado 734032" d="M116.791,160.874a13.048,13.048,0,0,1-2-1.818,64.064,64.064,0,0,1-8.129-10.167,13.029,13.029,0,0,1-1.333-2.349,18.1,18.1,0,0,1,1.612,2.161c.964,1.353,2.318,3.2,3.9,5.182s3.089,3.706,4.2,4.943a18.079,18.079,0,0,1,1.753,2.048" transform="translate(-23.108 -32.149)" fill="#e0e0e0"/>
            <path id="Trazado_734033" data-name="Trazado 734033" d="M6.791,160.435,18.244,146.3" transform="translate(-1.49 -32.098)" fill="#fff"/>
            <path id="Trazado_734034" data-name="Trazado 734034" d="M18.243,146.3a87.048,87.048,0,0,1-5.542,7.215,87.078,87.078,0,0,1-5.912,6.915,87.477,87.477,0,0,1,5.542-7.215,87.153,87.153,0,0,1,5.911-6.915" transform="translate(-1.489 -32.097)" fill="#e0e0e0"/>
            <path id="Trazado_734035" data-name="Trazado 734035" d="M6.806,2.179a79.107,79.107,0,0,1,5.559,6.645,78.921,78.921,0,0,1,5.186,6.941,79.158,79.158,0,0,1-5.56-6.646,79.254,79.254,0,0,1-5.186-6.94" transform="translate(-1.492 -0.478)" fill="#e0e0e0"/>
            <path id="Trazado_734036" data-name="Trazado 734036" d="M70.761,77.6a5.916,5.916,0,1,1-5.915-5.915A5.916,5.916,0,0,1,70.761,77.6" transform="translate(-12.928 -15.727)" fill="#e0e0e0"/>
            <path id="Trazado_734037" data-name="Trazado 734037" d="M75.67,51.331a4.422,4.422,0,1,1-4.422-4.422,4.422,4.422,0,0,1,4.422,4.422" transform="translate(-14.661 -10.291)" fill="#e0e0e0"/>
            <path id="Trazado_734038" data-name="Trazado 734038" d="M54.3,60.393a3.2,3.2,0,1,1-3.2-3.2,3.2,3.2,0,0,1,3.2,3.2" transform="translate(-10.51 -12.548)" fill="#e0e0e0"/>
            <path id="Trazado_734039" data-name="Trazado 734039" d="M77.75,103.308a1.99,1.99,0,1,1,0-2.814,1.989,1.989,0,0,1,0,2.814" transform="translate(-16.312 -21.92)" fill="#e0e0e0"/>
            <path id="Trazado_734040" data-name="Trazado 734040" d="M42.386,83.186a3.2,3.2,0,1,1-3.2-3.2,3.2,3.2,0,0,1,3.2,3.2" transform="translate(-7.895 -17.548)" fill="#e0e0e0"/>
            <path id="Trazado_734041" data-name="Trazado 734041" d="M66.5,79.265c.2-.093,2.177,3.716,4.417,8.506s3.9,8.751,3.7,8.844S72.441,92.9,70.2,88.108s-3.9-8.751-3.7-8.844" transform="translate(-14.587 -17.389)" fill="#e0e0e0"/>
            <path id="Trazado_734042" data-name="Trazado 734042" d="M60.446,80.018c.032.218-4.284,1.037-9.64,1.829s-9.726,1.259-9.758,1.041,4.283-1.036,9.641-1.829,9.725-1.259,9.757-1.041" transform="translate(-9.006 -17.543)" fill="#e0e0e0"/>
            <path id="Trazado_734043" data-name="Trazado 734043" d="M62.592,73.008c-.136.157-2.884-2.083-5.642-5.451s-4.437-6.489-4.257-6.591c.2-.123,2.141,2.777,4.872,6.086s5.186,5.786,5.027,5.957" transform="translate(-11.557 -13.375)" fill="#e0e0e0"/>
            <path id="Trazado_734044" data-name="Trazado 734044" d="M71.092,52.562l-.021,0c-.022-.012.022.023.034.009l0,.018-.015.149-.1.571-.454,2.084c-.4,1.755-.994,4.171-1.672,6.833-1.368,5.323-2.509,9.623-2.711,9.582-.229-.048.571-4.448,1.94-9.779.678-2.665,1.356-5.063,1.9-6.784.272-.86.511-1.552.7-2.024a4.511,4.511,0,0,1,.246-.535.643.643,0,0,1,.093-.133l.024-.021c.02-.024.078.012.052.013a.028.028,0,0,1-.017.021" transform="translate(-14.505 -11.522)" fill="#e0e0e0"/>
            <path id="Trazado_734045" data-name="Trazado 734045" d="M377.346,308.753v3.535h4.91V344.3l-19.307,42.887a7.327,7.327,0,0,0,6.682,10.335h38.376a7.327,7.327,0,0,0,6.673-10.352l-20.052-44.244v-30.44h4.714v-3.731Z" transform="translate(-79.484 -67.737)" fill="#f5f5f5"/>
            <path id="Trazado_734046" data-name="Trazado 734046" d="M377.284,308.715s.116-.009.358-.013l1.085-.014,4.264-.033,16.29-.075h.134v.136c0,1.149.006,2.418.009,3.731v.145h-.145l-4.713.011.156-.156c.014,8.537.031,18.868.051,30.44l-.019-.085,13.854,30.5,3.772,8.311,1.925,4.243a19.525,19.525,0,0,1,.91,2.2,7.513,7.513,0,0,1,.288,2.417,7.663,7.663,0,0,1-1.734,4.522,7.542,7.542,0,0,1-4.182,2.544l-.615.121-.625.043c-.423.039-.821.022-1.229.026h-7.363l-26.094,0-3.149,0a10.085,10.085,0,0,1-3.158-.337,7.548,7.548,0,0,1-4.772-10.089c.792-1.838,1.618-3.61,2.411-5.386,6.392-14.152,12.163-26.93,17.038-37.721l-.016.072c.041-14.2.073-25.254.093-32.01l.084.084-4.909-.029h-.055v-.055c.014-1.193.025-2.077.032-2.681.009-.582.023-.854.023-.854s.013.3.023.885.018,1.47.032,2.649l-.055-.055,4.91-.029h.084v.085c.02,6.756.052,17.81.093,32.01v.038l-.016.035L365.41,382.1c-.788,1.77-1.619,3.564-2.4,5.374a7.08,7.08,0,0,0,4.482,9.456,9.575,9.575,0,0,0,3.018.314l3.15,0,26.094,0h7.363c.4,0,.818.013,1.2-.025l.586-.04.575-.113a7.051,7.051,0,0,0,3.909-2.376,7.175,7.175,0,0,0,1.624-4.232,7.029,7.029,0,0,0-.267-2.259,19.248,19.248,0,0,0-.886-2.14l-1.921-4.244q-1.909-4.215-3.764-8.315l-13.8-30.521-.019-.041v-.045c.019-11.572.037-21.9.051-30.44v-.157h.156l4.714.011-.145.145c0-1.314.006-2.582.009-3.731l.136.135-16.21-.076-4.294-.032-1.108-.014c-.251,0-.384-.013-.384-.013" transform="translate(-79.422 -67.699)" fill="#e0e0e0"/>
            <path id="Trazado_734047" data-name="Trazado 734047" d="M371.119,395.384a6.391,6.391,0,0,1,6.427-3.884,35.968,35.968,0,0,0,6.267.46c3.637-.326,6.771-2.553,10.005-4.248s7.248-2.875,10.442-1.106l8.118,16.106a5.61,5.61,0,0,1-5.011,8.136H373.053a5.611,5.611,0,0,1-5.171-7.792Z" transform="translate(-80.612 -84.625)" fill="#e0e0e0"/>
            <path id="Trazado_734048" data-name="Trazado 734048" d="M405.732,391.051a16.888,16.888,0,0,0-4.011,2.2c-1.144.842-2.406,1.974-3.9,3.144a12.976,12.976,0,0,1-5.537,2.777,15.5,15.5,0,0,1-6.188-.369c-1.851-.433-3.481-.9-4.862-1.269l-3.259-.915a6.1,6.1,0,0,1-1.178-.4,5.913,5.913,0,0,1,1.226.215l3.3.763c1.39.324,3.04.76,4.874,1.164a15.579,15.579,0,0,0,6,.329,12.884,12.884,0,0,0,5.35-2.653c1.494-1.135,2.791-2.25,3.977-3.067a12.559,12.559,0,0,1,3-1.61,5.763,5.763,0,0,1,.89-.259c.207-.047.317-.063.322-.047" transform="translate(-82.665 -85.792)" fill="#fafafa"/>
            <path id="Trazado_734049" data-name="Trazado 734049" d="M4.7,360.4v27.2H.153v2.952H4.7v18.207H89.6V392.193H83.307v-3.609H89.6v-5.413h2.795v-2.46H89.071V360.4Z" transform="translate(-0.034 -79.068)" fill="#f5f5f5"/>
            <path id="Trazado_734050" data-name="Trazado 734050" d="M85.851,360.476v47.98H108.4V391.89h-6.289v-3.306l6.289.112v-5.414l2.85,0-.055-2.8-3.319-.082V360.4Z" transform="translate(-18.835 -79.068)" fill="#e0e0e0"/>
            <path id="Trazado_734051" data-name="Trazado 734051" d="M68.623,398.442c0,.166-15.363.3-34.309.3S0,398.609,0,398.442s15.359-.3,34.313-.3,34.309.135,34.309.3" transform="translate(0 -87.348)" fill="#e0e0e0"/>
            <path id="Trazado_734052" data-name="Trazado 734052" d="M68.623,394.9c0,.167-15.363.3-34.309.3S0,395.069,0,394.9s15.359-.3,34.313-.3,34.309.135,34.309.3" transform="translate(0 -86.572)" fill="#e0e0e0"/>
            <path id="Trazado_734053" data-name="Trazado 734053" d="M74.269,385.375c0,.167-15.363.3-34.309.3s-34.313-.134-34.313-.3,15.359-.3,34.313-.3,34.309.135,34.309.3" transform="translate(-1.239 -84.481)" fill="#e0e0e0"/>
            <path id="Trazado_734054" data-name="Trazado 734054" d="M74.812,411.337c0,.167-15.363.3-34.309.3s-34.313-.134-34.313-.3,15.359-.3,34.313-.3,34.309.135,34.309.3" transform="translate(-1.358 -90.177)" fill="#e0e0e0"/>
            <rect id="Rectángulo_352608" data-name="Rectángulo 352608" width="14.805" height="17.601" transform="translate(81.044 263.113)" fill="#f5f5f5"/>
            <rect id="Rectángulo_352609" data-name="Rectángulo 352609" width="66.908" height="19.855" transform="translate(14.646 261.966)" fill="#e0e0e0"/>
            <path id="Trazado_734055" data-name="Trazado 734055" d="M118.713,337.261H102.176v-1.67h16.537a.835.835,0,0,1,0,1.67" transform="translate(-22.416 -73.625)" fill="#e0e0e0"/>
            <path id="Trazado_734056" data-name="Trazado 734056" d="M118.713,360.558H102.176v-1.67h16.537a.835.835,0,0,1,0,1.67" transform="translate(-22.416 -78.737)" fill="#e0e0e0"/>
            <rect id="Rectángulo_352610" data-name="Rectángulo 352610" width="7.904" height="19.855" transform="translate(68.388 261.966)" fill="#ebebeb"/>
            <rect id="Rectángulo_352611" data-name="Rectángulo 352611" width="7.904" height="19.855" transform="translate(21.009 262.186)" fill="#ebebeb"/>
            <path id="Trazado_734057" data-name="Trazado 734057" d="M118.764,340.766c0,.048-3.2.088-7.156.088s-7.157-.04-7.157-.088,3.2-.088,7.157-.088,7.156.04,7.156.088" transform="translate(-22.916 -74.741)" fill="#e0e0e0"/>
            <path id="Trazado_734058" data-name="Trazado 734058" d="M118.764,344.147c0,.048-3.2.088-7.156.088s-7.157-.04-7.157-.088,3.2-.088,7.157-.088,7.156.04,7.156.088" transform="translate(-22.916 -75.483)" fill="#e0e0e0"/>
            <path id="Trazado_734059" data-name="Trazado 734059" d="M118.764,348.31c0,.048-3.2.088-7.156.088s-7.157-.04-7.157-.088,3.2-.088,7.157-.088,7.156.04,7.156.088" transform="translate(-22.916 -76.396)" fill="#e0e0e0"/>
            <path id="Trazado_734060" data-name="Trazado 734060" d="M118.764,352.473c0,.048-3.2.088-7.156.088s-7.157-.04-7.157-.088,3.2-.088,7.157-.088,7.156.04,7.156.088" transform="translate(-22.916 -77.31)" fill="#e0e0e0"/>
            <path id="Trazado_734061" data-name="Trazado 734061" d="M118.764,356.636c0,.048-3.2.088-7.156.088s-7.157-.04-7.157-.088,3.2-.088,7.157-.088,7.156.04,7.156.088" transform="translate(-22.916 -78.223)" fill="#e0e0e0"/>
            <rect id="Rectángulo_352612" data-name="Rectángulo 352612" width="30.101" height="3.575" transform="translate(34.037 270.126)" fill="#ebebeb"/>
            <path id="Trazado_734063" data-name="Trazado 734063" d="M313.609,318.217a8.755,8.755,0,0,0-8.67-14.505,12.169,12.169,0,0,0-18.689,13.613,8.3,8.3,0,0,0-7.527,11.424,9.145,9.145,0,0,0-5.378,11.456l15.981.275a9.627,9.627,0,0,0,18.336-5.684,9.887,9.887,0,0,0,5.948-16.579" transform="translate(-59.856 -66.145)" fill="#f5f5f5"/>
          </g>
        </g>
        <g id="Grupo_1033468" data-name="Grupo 1033468">
          <g id="Grupo_1033467" data-name="Grupo 1033467" clip-path="url(#clip-path-2)">
            <path id="Trazado_734064" data-name="Trazado 734064" d="M340.649,355.221l2.819,3.083a4.72,4.72,0,0,1,1.045,4.516l-10.648,36.224a6.868,6.868,0,0,0,6.59,8.805H360.5a7.267,7.267,0,0,0,6.943-9.413l-11.114-35.931a4.719,4.719,0,0,1,1.119-4.678l2.524-2.606Z" transform="translate(-73.185 -77.932)" fill="#f5f5f5"/>
            <path id="Trazado_734065" data-name="Trazado 734065" d="M340.618,355.2l19.321-.079h.187l-.13.134-1.92,1.99a13.476,13.476,0,0,0-.969,1.055,4.539,4.539,0,0,0-.679,1.283,4.653,4.653,0,0,0-.012,2.977q.47,1.51.961,3.092l4.243,13.675c1.511,4.876,3.114,10.047,4.784,15.44q.314,1.01.63,2.033l.317,1.023c.11.34.212.685.292,1.044a7.546,7.546,0,0,1,.2,2.186l-.067.55-.034.276-.066.27-.131.541-.191.524a7.51,7.51,0,0,1-2.752,3.476,7.587,7.587,0,0,1-4.317,1.261l-16,0-3.841,0a7,7,0,0,1-6.994-7.248c.024-.3.059-.6.094-.9.069-.291.131-.585.205-.871q.248-.843.493-1.675.491-1.665.968-3.283.955-3.238,1.852-6.278c1.2-4.051,2.311-7.823,3.328-11.268s1.941-6.558,2.751-9.295q.609-2.051,1.131-3.812c.086-.293.176-.578.242-.859a5.069,5.069,0,0,0,.107-.838,4.7,4.7,0,0,0-.818-2.815,9.159,9.159,0,0,0-.8-.952l-1.314-1.464-1.064-1.19,1.112,1.19,1.325,1.424a8.871,8.871,0,0,1,.813.946,4.764,4.764,0,0,1,.854,2.865,5.054,5.054,0,0,1-.1.859c-.066.29-.155.575-.239.868l-1.112,3.818c-.8,2.739-1.71,5.858-2.716,9.3l-3.3,11.276q-.891,3.041-1.841,6.282-.474,1.619-.962,3.286a14.576,14.576,0,0,0-.78,3.39,6.774,6.774,0,0,0,6.771,7l3.841,0,16,0a7.341,7.341,0,0,0,4.181-1.219,7.267,7.267,0,0,0,2.663-3.363l.186-.507.126-.523.064-.262.032-.266.066-.532a7.334,7.334,0,0,0-.192-2.115c-.076-.344-.176-.687-.287-1.03s-.212-.683-.317-1.024l-.628-2.033c-1.665-5.394-3.262-10.566-4.769-15.444s-2.917-9.463-4.218-13.683l-.953-3.094a4.828,4.828,0,0,1,.023-3.089,4.713,4.713,0,0,1,.708-1.329,13.689,13.689,0,0,1,.986-1.069l1.927-1.983.056.133-19.321-.079" transform="translate(-73.154 -77.91)" fill="#263238"/>
            <path id="Trazado_734066" data-name="Trazado 734066" d="M360.251,383.072a12.274,12.274,0,0,1-6-.132c-1.884-.523-3.617-1.489-5.472-2.107a7.368,7.368,0,0,0-5.706.059L336.7,403.961a5.836,5.836,0,0,0,5.626,7.388H360.3a5.836,5.836,0,0,0,5.632-7.365Z" transform="translate(-73.823 -83.431)" fill="#ffa031"/>
            <g id="Grupo_1033466" data-name="Grupo 1033466" transform="translate(266.418 300.029)" opacity="0.3">
              <g id="Grupo_1033465" data-name="Grupo 1033465">
                <g id="Grupo_1033464" data-name="Grupo 1033464" clip-path="url(#clip-path-5)">
                  <path id="Trazado_734067" data-name="Trazado 734067" d="M345.706,410.005c-.005.069-.43.136-1.15-.116a4.838,4.838,0,0,1-2.356-2.1,6.354,6.354,0,0,1-.771-2.083,9.3,9.3,0,0,1-.09-2.507,37.962,37.962,0,0,1,1.13-5.41c1.892-7.5,3.689-13.514,4.014-13.432s-.946,6.227-2.838,13.729a49.983,49.983,0,0,0-1.2,5.23,9.067,9.067,0,0,0-.027,2.237,5.919,5.919,0,0,0,.532,1.83,5.029,5.029,0,0,0,1.807,2.087c.573.346.959.446.944.54" transform="translate(-341.295 -384.352)" fill="#fff"/>
                </g>
              </g>
            </g>
            <path id="Trazado_734068" data-name="Trazado 734068" d="M361.6,387.727a3.411,3.411,0,0,1-.6.288c-.4.168-.971.405-1.7.647a10.358,10.358,0,0,1-2.66.533,6.837,6.837,0,0,1-1.611-.106,8.5,8.5,0,0,1-1.651-.514c-1.09-.459-2.059-1.016-2.98-1.423a8.333,8.333,0,0,0-2.551-.719,4.542,4.542,0,0,0-1.77.158c-.4.13-.61.251-.621.229s.044-.041.142-.1a2.9,2.9,0,0,1,.448-.219,4.306,4.306,0,0,1,1.815-.24,8.136,8.136,0,0,1,2.628.685c.94.4,1.914.955,2.983,1.4a8.549,8.549,0,0,0,1.6.505,6.79,6.79,0,0,0,1.555.116,10.841,10.841,0,0,0,2.62-.474c.731-.219,1.315-.43,1.72-.571a3.688,3.688,0,0,1,.637-.2" transform="translate(-75.787 -84.739)" fill="#fafafa"/>
          </g>
        </g>
        <g id="Grupo_1033479" data-name="Grupo 1033479">
          <g id="Grupo_1033478" data-name="Grupo 1033478" clip-path="url(#clip-path-2)">
            <path id="Trazado_734069" data-name="Trazado 734069" d="M263.012,347.977c-.285-4.48-5.557-7.862-9.747-6.253A8.092,8.092,0,0,0,240.2,349.2a8.733,8.733,0,0,0-1.2,15.731,8.16,8.16,0,0,0,6.872,12.919l4.566-23.445Z" transform="translate(-51.47 -74.59)" fill="#f5f5f5"/>
            <path id="Trazado_734070" data-name="Trazado 734070" d="M262.958,347.935a1.182,1.182,0,0,1-.2.121l-.626.339-2.455,1.3-9.234,4.8.071-.1c-1.19,6.188-2.745,14.284-4.509,23.455l-.03.152-.155,0a8.587,8.587,0,0,1-6.954-3.368,8.436,8.436,0,0,1-1.043-8.087,8.242,8.242,0,0,1,.954-1.777l.064.3a8.931,8.931,0,0,1,1.237-16.081l-.117.2a8.443,8.443,0,0,1,1.1-5.365,8.077,8.077,0,0,1,3.792-3.382,8.487,8.487,0,0,1,4.618-.533,8.253,8.253,0,0,1,3.818,1.671l-.13-.02a7.1,7.1,0,0,1,5.516.375,8.093,8.093,0,0,1,3.165,2.7,6.821,6.821,0,0,1,1.023,2.4c.053.3.062.529.08.678a1.179,1.179,0,0,1,.012.22,1.684,1.684,0,0,1-.048-.232c-.031-.149-.055-.368-.116-.65a7.065,7.065,0,0,0-1.069-2.333,8.026,8.026,0,0,0-3.135-2.6,6.9,6.9,0,0,0-5.332-.315l-.07.027-.06-.047a8,8,0,0,0-3.7-1.583,8.192,8.192,0,0,0-4.443.539A7.761,7.761,0,0,0,241.369,344a8.091,8.091,0,0,0-1.039,5.135l.02.148-.138.053a8.546,8.546,0,0,0-1.169,15.38l.194.112-.13.183a7.8,7.8,0,0,0-.9,1.686,8.04,8.04,0,0,0,.984,7.7,8.2,8.2,0,0,0,6.622,3.222l-.184.157c1.807-9.163,3.4-17.251,4.623-23.433l.012-.066.059-.03,9.242-4.648,2.507-1.244.657-.318a1.665,1.665,0,0,1,.235-.1" transform="translate(-51.415 -74.549)" fill="#263238"/>
            <path id="Trazado_734071" data-name="Trazado 734071" d="M319.663,318.527a14.519,14.519,0,0,0-15.9-8.085c-6.279,1.428-11.048,7.911-10.332,14.311a9.075,9.075,0,0,0-10.608,11.371,5.212,5.212,0,0,0-6.665,5.655l13.725.441c2.914.308,5.923-2,7.579-4.421a16.483,16.483,0,0,0,18.092-1.736,15.436,15.436,0,0,0,4.108-17.536" transform="translate(-60.578 -68.04)" fill="#fafafa"/>
            <path id="Trazado_734072" data-name="Trazado 734072" d="M319.607,318.491a.818.818,0,0,1,.081.164l.212.5a6.206,6.206,0,0,1,.305.832,10.184,10.184,0,0,1,.324,1.175,15.264,15.264,0,0,1-.343,7.861,15.614,15.614,0,0,1-2.585,4.988,14.572,14.572,0,0,1-5.094,4.154,17.722,17.722,0,0,1-3.425,1.231,17.977,17.977,0,0,1-3.814.457,16.614,16.614,0,0,1-7.95-1.924l.242-.058a12.028,12.028,0,0,1-3.225,3.193,7.084,7.084,0,0,1-4.528,1.318h.014l-13.724-.434-.173-.005-.022-.172a5.5,5.5,0,0,1,.507-3.037,5.264,5.264,0,0,1,2.713-2.609,5.525,5.525,0,0,1,3.7-.228l-.252.249a9.273,9.273,0,0,1,10.841-11.608l-.223.2a13.122,13.122,0,0,1,1.8-7.928,14.245,14.245,0,0,1,5.258-5.216,12.564,12.564,0,0,1,6.346-1.619,14.154,14.154,0,0,1,5.481,1.174,14.729,14.729,0,0,1,6.144,4.886,10,10,0,0,1,.664,1.019,6.066,6.066,0,0,1,.419.779l.229.489a.778.778,0,0,1,.069.169.8.8,0,0,1-.1-.157l-.257-.473a6.639,6.639,0,0,0-.442-.76,10.629,10.629,0,0,0-.683-1,14.838,14.838,0,0,0-6.136-4.749,14,14,0,0,0-5.395-1.11,12.308,12.308,0,0,0-6.191,1.618,13.946,13.946,0,0,0-5.113,5.12,12.782,12.782,0,0,0-1.733,7.712l.027.255-.25-.052a8.89,8.89,0,0,0-10.377,11.133l.1.354-.352-.1a5.128,5.128,0,0,0-3.428.215,4.852,4.852,0,0,0-2.505,2.411,5.1,5.1,0,0,0-.471,2.81l-.194-.177,13.723.448h.015a6.712,6.712,0,0,0,4.275-1.247,11.693,11.693,0,0,0,3.13-3.084l.1-.137.148.079a16.3,16.3,0,0,0,7.769,1.905,17.681,17.681,0,0,0,3.741-.432,17.474,17.474,0,0,0,3.364-1.19,14.353,14.353,0,0,0,5.018-4.041,15.623,15.623,0,0,0,3.024-12.657,10.752,10.752,0,0,0-.294-1.174,6.8,6.8,0,0,0-.276-.836l-.183-.507a.843.843,0,0,1-.053-.176" transform="translate(-60.521 -68.005)" fill="#263238"/>
            <path id="Trazado_734073" data-name="Trazado 734073" d="M249.155,357.641l-2.638,48.872H283.51L280.3,355.493l4.936-4.255H249.155Z" transform="translate(-54.083 -77.058)" fill="#f5f5f5"/>
            <path id="Trazado_734074" data-name="Trazado 734074" d="M250.235,411.915h32.126l-2.035-25.271H251.459Z" transform="translate(-54.899 -84.826)" fill="#455a64"/>
            <path id="Trazado_734075" data-name="Trazado 734075" d="M288.16,363.931a34.5,34.5,0,0,1-7.473,0,34.492,34.492,0,0,1,7.473,0" transform="translate(-61.58 -79.798)" fill="#263238"/>
            <path id="Trazado_734076" data-name="Trazado 734076" d="M288.16,372.812a34.5,34.5,0,0,1-7.473,0,34.492,34.492,0,0,1,7.473,0" transform="translate(-61.58 -81.747)" fill="#263238"/>
            <path id="Trazado_734077" data-name="Trazado 734077" d="M289.29,381.693a34.492,34.492,0,0,1-7.473,0,34.492,34.492,0,0,1,7.473,0" transform="translate(-61.828 -83.695)" fill="#263238"/>
            <path id="Trazado_734078" data-name="Trazado 734078" d="M289.936,390.574a34.37,34.37,0,0,1-7.474,0,34.5,34.5,0,0,1,7.474,0" transform="translate(-61.969 -85.644)" fill="#263238"/>
            <path id="Trazado_734079" data-name="Trazado 734079" d="M290.5,398.975a34.51,34.51,0,0,1-7.474,0,34.494,34.494,0,0,1,7.474,0" transform="translate(-62.093 -87.487)" fill="#263238"/>
            <path id="Trazado_734080" data-name="Trazado 734080" d="M291.147,408.1a34.5,34.5,0,0,1-7.474,0,34.5,34.5,0,0,1,7.474,0" transform="translate(-62.235 -89.488)" fill="#263238"/>
            <path id="Trazado_734081" data-name="Trazado 734081" d="M291.47,416.821a34.494,34.494,0,0,1-7.474,0,34.5,34.5,0,0,1,7.474,0" transform="translate(-62.306 -91.402)" fill="#263238"/>
            <path id="Trazado_734082" data-name="Trazado 734082" d="M249.1,357.593s-.013-.141-.02-.417-.01-.7-.019-1.227c-.009-1.1-.02-2.694-.036-4.759v-.073h.075l36.086-.1.459,0-.348.3-4.93,4.261.062-.146c.818,12.907,1.772,27.947,2.785,43.933q.225,3.581.444,7.086l.013.216h-.215l-36.993-.023h-.189l.01-.189c.818-14.59,1.5-26.8,1.984-35.382.251-4.272.45-7.638.587-9.953.073-1.138.13-2.017.169-2.626.022-.288.038-.51.051-.674a1.361,1.361,0,0,1,.027-.228,1.411,1.411,0,0,1,0,.229c-.005.165-.013.386-.023.674-.027.61-.065,1.489-.115,2.628-.113,2.316-.278,5.684-.487,9.957-.446,8.583-1.08,20.8-1.837,35.394l-.179-.188,36.993-.024-.2.215q-.22-3.5-.446-7.086c-1-15.986-1.932-31.028-2.736-43.937l-.005-.089.067-.058,4.941-4.248.112.3-36.086-.1.074-.074c-.016,2.066-.028,3.664-.036,4.761-.009.53-.015.937-.019,1.226s-.02.416-.02.416" transform="translate(-54.03 -77.01)" fill="#263238"/>
            <path id="Trazado_734083" data-name="Trazado 734083" d="M292.649,229.6l-29.823-4.089,0,.019-52.861-22.006-1.595,24.862,9.217,39.456s1.745-3.526,8.794-6.265c4.054-1.575,34.2,1.416,34.2,1.416s26.524,1.637,32.594-1.311,12.662-8.313,13.7-15.515c.067-.469.462-4.019.462-4.019Z" transform="translate(-45.714 -44.651)" fill="#ebebeb"/>
            <path id="Trazado_734084" data-name="Trazado 734084" d="M170.822,199.1c3.894-.582,27.8,2.078,27.8,2.078l8.388,65.563-1.571,52.772,4.718,52.246H182.311s10.8-121.635,3.864-137-29.48-33.577-29.48-33.577v-8.366h8.6Z" transform="translate(-34.377 -42.3)" fill="#ebebeb"/>
            <path id="Trazado_734085" data-name="Trazado 734085" d="M100.5,211.054l49.849-5.211s31,30.374,34.358,46.16-2.319,122.613-2.319,122.613h-70.52L103.574,258.8Z" transform="translate(-22.048 -45.16)" fill="#ffa031"/>
            <path id="Trazado_734086" data-name="Trazado 734086" d="M219.143,231.511a1.84,1.84,0,0,1,.111.433c.062.332.142.747.239,1.257.2,1.092.456,2.68.73,4.647.55,3.934,1.113,9.4,1.334,15.462s.045,11.557-.222,15.521c-.132,1.982-.269,3.583-.394,4.687l-.148,1.271a1.867,1.867,0,0,1-.079.44,1.833,1.833,0,0,1,0-.448c.019-.336.043-.759.072-1.276.077-1.107.17-2.71.265-4.69.193-3.961.316-9.441.1-15.49s-.736-11.5-1.213-15.44c-.237-1.969-.445-3.56-.6-4.659-.066-.514-.121-.934-.164-1.269a1.852,1.852,0,0,1-.03-.446" transform="translate(-48.077 -50.791)" fill="#263238"/>
            <path id="Trazado_734087" data-name="Trazado 734087" d="M202,272.288a.81.81,0,0,1,.03-.205c.033-.155.073-.35.125-.592.116-.55.278-1.31.482-2.276a84.708,84.708,0,0,0,1.266-8.48,80.233,80.233,0,0,0,.219-12.755,21.064,21.064,0,0,0-1.624-7.3,10.16,10.16,0,0,0-5.574-5.463l-.229-.08.12-.212.966-1.7,1.889-3.32.023.233-17.756-20.749-5.269-6.223-1.409-1.695-.358-.447a.731.731,0,0,1-.112-.16.744.744,0,0,1,.142.135l.387.421,1.464,1.648,5.363,6.141L200,229.872l.094.108-.071.125-1.888,3.321-.967,1.7-.11-.292a10.532,10.532,0,0,1,5.8,5.681,21.309,21.309,0,0,1,1.634,7.44,77.869,77.869,0,0,1-.308,12.809,75.717,75.717,0,0,1-1.395,8.484c-.226.987-.413,1.75-.556,2.263l-.163.583a.8.8,0,0,1-.069.2" transform="translate(-38.348 -44.067)" fill="#263238"/>
            <path id="Trazado_734088" data-name="Trazado 734088" d="M216.183,220.032a11.543,11.543,0,0,1-.76-1.817c-.44-1.13-1.076-2.677-1.871-4.344s-1.6-3.133-2.205-4.186a11.577,11.577,0,0,1-.938-1.732,8.02,8.02,0,0,1,1.183,1.582,37.156,37.156,0,0,1,4.1,8.583,8.093,8.093,0,0,1,.489,1.914" transform="translate(-46.161 -45.623)" fill="#263238"/>
            <path id="Trazado_734089" data-name="Trazado 734089" d="M170.915,316.011c-.051-.065,1.015-.845,2.455-2.387a23.527,23.527,0,0,0,2.293-2.9,23.565,23.565,0,0,0,3.488-8.3,23.607,23.607,0,0,0,.467-3.667c.094-2.108-.1-3.415-.013-3.424a4.017,4.017,0,0,1,.167.911,8.766,8.766,0,0,1,.1,1.082c.016.423.061.906.033,1.44a21.293,21.293,0,0,1-.387,3.733,22.359,22.359,0,0,1-3.544,8.433,21.286,21.286,0,0,1-2.4,2.888c-.361.394-.738.7-1.051.984a8.666,8.666,0,0,1-.844.685,4.03,4.03,0,0,1-.767.518" transform="translate(-37.497 -64.794)" fill="#263238"/>
            <path id="Trazado_734090" data-name="Trazado 734090" d="M272.178,227.045a1.309,1.309,0,0,1-.276-.016l-.8-.087-3.081-.379-11.311-1.47-.019,0-.019-.008-30.012-12.436-17.275-7.208c-1.326-.546-2.621-1.117-3.876-1.6a30.447,30.447,0,0,0-3.859-.7c-2.531-.343-4.9-.6-7.061-.839l-10.25-1.037-2.788-.279-.724-.081a1.13,1.13,0,0,1-.246-.041,1.124,1.124,0,0,1,.25,0l.728.041,2.795.2c2.425.191,5.934.484,10.265.908,2.165.218,4.537.462,7.077.792a29.7,29.7,0,0,1,3.938.7c1.285.49,2.562,1.048,3.9,1.592l17.287,7.178,29.971,12.535-.037-.01,11.292,1.6,3.071.457.8.13a1.329,1.329,0,0,1,.27.059" transform="translate(-39.617 -44.066)" fill="#263238"/>
            <path id="Trazado_734091" data-name="Trazado 734091" d="M144.039,336.235c.008.076-1.062.166-2.723.6a20.345,20.345,0,0,0-2.841.988,20.114,20.114,0,0,0-6.077,4.089,20.347,20.347,0,0,0-1.985,2.259c-1.031,1.373-1.518,2.331-1.585,2.3a2.719,2.719,0,0,1,.3-.7,13.374,13.374,0,0,1,1.058-1.767,17.8,17.8,0,0,1,1.954-2.356,18.769,18.769,0,0,1,6.194-4.168,17.786,17.786,0,0,1,2.919-.922,13.232,13.232,0,0,1,2.036-.314,2.7,2.7,0,0,1,.756-.011" transform="translate(-28.263 -73.763)" fill="#263238"/>
            <path id="Trazado_734092" data-name="Trazado 734092" d="M76.827,106.772a2.949,2.949,0,0,1-.545-5c-1.379-1.009-.653-3.3.67-4.379s3.081-1.621,4.172-2.934a3.5,3.5,0,0,1-3.76-3.543,2.858,2.858,0,0,1-1.119-5.433c-1.568-.341-1.093-2.945.347-3.656s3.178-.418,4.707-.908a18.892,18.892,0,0,1,10.706-4.54L86.145,70.7a3.783,3.783,0,0,1-1.128-1.55c-.4-1.362.8-2.654,1.987-3.431a15.325,15.325,0,0,1,8.527-2.476c.964.012,2.161.315,2.345,1.261,2.14-.689,4.461-.286,6.672.123a5.293,5.293,0,0,1,3.368,1.518,10.455,10.455,0,0,0-1.937-3.2,4.489,4.489,0,0,1-1.076-3.488c.286-1.222,1.922-2.1,2.861-1.265-1.083-.693-.689-2.525.4-3.211a5.828,5.828,0,0,1,3.754-.436c.891.1,2,.39,2.134,1.277.664-1.936,4.1-1.77,4.57.22a3.1,3.1,0,0,1,4.385.924,3.987,3.987,0,0,1,5.324,2.809l-2.7-6.237c-.509-1.178-.355-3.24.893-2.944-1.817-.229-2.533-2.847-1.441-4.317s3.225-1.8,5-1.347l1.28,2.487a3.624,3.624,0,0,1,4.972,4.717c.832-.686,2.2-.075,2.658.9a5.388,5.388,0,0,1,.117,3.182c1.957-1.255,4.981.9,4.436,3.156a10.1,10.1,0,0,1,5.356-.4,3.563,3.563,0,0,1,5.252-4.419,3.514,3.514,0,0,1,4.866-2.247c.837-2.035,3.8-3.234,5.305-1.625,1.551,1.663.252,4.328-1.072,6.177l-4.307,6.015,12.071-4.581a1.988,1.988,0,0,1,1.172-.187c.536.138.852.683,1.311.993.638.429,1.488.367,2.187.685,1.912.868,1.482,3.905-.087,5.3s-3.753,1.877-5.48,3.074l4.892,1.6a5.169,5.169,0,0,1,7.066-2.606c.923-1.763,3.434-1.675,5.395-1.337,1.756.3,3.681.7,4.769,2.115,1.392,1.8.724,4.57-.858,6.21s-3.827,2.428-5.983,3.164c.141,1.544,2.03,2.259,3.58,2.233s3.211-.415,4.58.313c1.859.99,2.359,3.626,4.229,4.6a8.383,8.383,0,0,1,1.714.829,3.582,3.582,0,0,1,.9,2.49q.155,1.676.31,3.353a3.987,3.987,0,0,1-.08,1.653c-.588,1.723-3.108,1.784-4.691.884s-2.842-2.406-4.595-2.9c2.2,1.482,4.519,3.1,5.54,5.551s.018,5.919-2.575,6.485c-2.624.573-4.81-1.917-6.383-4.094s-3.926-4.584-6.492-3.791" transform="translate(-16.373 -9.814)" fill="#263238"/>
            <path id="Trazado_734093" data-name="Trazado 734093" d="M79.256,115.659c-1.713-1.666-5.193-.215-5.217,2.174a6.774,6.774,0,0,0-4.025,11.274c1.318,1.442,4.255,1.871,4.816,0a5.271,5.271,0,0,0,3.289,3.7,5.108,5.108,0,0,0,1.108,7.442c-3.286,1.681-3.427,7.221-.23,9.066a4.169,4.169,0,1,0,7.11,4.354,8.856,8.856,0,0,0,2.215,4.485c1.266,1.123,3.556,1.253,4.456-.18a5.725,5.725,0,0,0,7.639,4.46,3.7,3.7,0,0,0,7.054,2.209l9.36,1.954a34.054,34.054,0,0,0,6.273.907,17.12,17.12,0,0,0,7.839-1.738,5.8,5.8,0,0,1,2.444-.84,5.958,5.958,0,0,1,2.76,1.065,15.478,15.478,0,0,0,15.1-.254,7.761,7.761,0,0,1,2.224-1.1,6.974,6.974,0,0,1,2.84.222,27.934,27.934,0,0,0,7,.508c2.012-.108,4.2-.538,5.478-2.1s.819-4.492-1.155-4.892a4.326,4.326,0,0,1,1.818-3.321,2.6,2.6,0,0,1,3.482.611c.692,1.11-.189,2.908-1.493,2.8,1.795,1.919,5.524.592,6.139-1.962s-1.47-5.243-4.033-5.822a11.889,11.889,0,0,0,1.382-5.617,4.252,4.252,0,0,0,5.518,1.88,7.329,7.329,0,0,0,3.905,4.345,4.392,4.392,0,0,0,5.3-1.55c1.01-1.732-.069-4.424-2.065-4.62,1.856-1.894.518-5.727-2.112-6.057a5.879,5.879,0,0,0-2.172-6.863,3.094,3.094,0,0,0,4.663-.72c.78,2.136,3.776,2.31,5.937,1.606,1.7-.553,3.412-1.495,3.463-3.842a4.672,4.672,0,0,0-1.076-3.023c-1.64-2.01-4.2-2.673-6.637-3.271a30.53,30.53,0,0,1-.836-9.943,5.883,5.883,0,0,0,6.869-3.377L183.108,99.345s-31.059-9.021-32.2-9.168-71.823,25.344-71.823,25.344c-1.741,1.4-4.64.29-5.516-1.767a6.194,6.194,0,0,1,1.352-6.221,18.227,18.227,0,0,1,5.43-3.869c-2.1-.422-4.338-.914-5.708-2.659a3.4,3.4,0,0,1-.43-3.782c1-1.727,3.1-1.327,4.588-2.19a7.722,7.722,0,0,0,2.057-2.189" transform="translate(-14.975 -19.784)" fill="#263238"/>
            <path id="Trazado_734094" data-name="Trazado 734094" d="M159.069,198.306h0l-8.541-8.547.338-2.74c.927-6.854,1.272-9.669,1.269-9.6,0,0,14.774-.619,20.1-19.138,2.649-9.21,4.076-24.67,4.835-37.358.683-11.42-5.111-26.25-16.55-26.447l-36.357,4.566a6.693,6.693,0,0,0-6.775,6.006l-6.285,76.425-4.821,4.12,54.747,48.78s16.02-12.846-1.962-36.061" transform="translate(-23.318 -20.726)" fill="#a37166"/>
            <path id="Trazado_734095" data-name="Trazado 734095" d="M188.044,143.343a2.441,2.441,0,0,1-2.638,2.156,2.334,2.334,0,0,1-2.228-2.492,2.442,2.442,0,0,1,2.635-2.158,2.336,2.336,0,0,1,2.231,2.493" transform="translate(-40.186 -30.9)" fill="#263238"/>
            <path id="Trazado_734096" data-name="Trazado 734096" d="M156,140.2a2.441,2.441,0,0,1-2.638,2.156,2.334,2.334,0,0,1-2.228-2.492,2.442,2.442,0,0,1,2.635-2.158A2.336,2.336,0,0,1,156,140.2" transform="translate(-33.155 -30.21)" fill="#263238"/>
            <path id="Trazado_734097" data-name="Trazado 734097" d="M188.734,137.194c-.339.279-2.007-1.305-4.615-1.62-2.6-.351-4.679.754-4.922.4-.122-.158.254-.691,1.162-1.2a6.692,6.692,0,0,1,3.988-.71,6.427,6.427,0,0,1,3.624,1.684c.726.713.927,1.318.762,1.442" transform="translate(-39.309 -29.401)" fill="#263238"/>
            <path id="Trazado_734098" data-name="Trazado 734098" d="M155.549,134.555c-.34.279-2.01-1.306-4.617-1.62-2.6-.352-4.678.753-4.922.4-.121-.159.252-.692,1.163-1.2a6.7,6.7,0,0,1,3.988-.711,6.437,6.437,0,0,1,3.624,1.684c.724.713.927,1.319.763,1.443" transform="translate(-32.028 -28.822)" fill="#263238"/>
            <path id="Trazado_734099" data-name="Trazado 734099" d="M167.585,154.778c.006-.149,1.661-.229,4.328-.242.674.013,1.32-.041,1.489-.482a3.414,3.414,0,0,0-.2-2.028q-.642-2.532-1.343-5.311c-1.844-7.553-3.092-13.732-2.788-13.8s2.048,5.993,3.892,13.546q.657,2.791,1.257,5.332a3.88,3.88,0,0,1,.023,2.656,1.685,1.685,0,0,1-1.215.838,4.552,4.552,0,0,1-1.15.017c-2.66-.183-4.3-.373-4.293-.523" transform="translate(-36.767 -29.16)" fill="#263238"/>
            <path id="Trazado_734100" data-name="Trazado 734100" d="M158.146,197.954a48.419,48.419,0,0,1-24.466-9.866s4.737,13.951,23.86,14.514Z" transform="translate(-29.328 -41.265)" fill="#7c554e"/>
            <path id="Trazado_734101" data-name="Trazado 734101" d="M163.714,168.23a21.816,21.816,0,0,0-6.638-4.495c-1.354-.336-1.218,1.265-2.114,2.387a4.2,4.2,0,0,0-.445,4.34c.8,1.584,2.489,2.952,4.03,2.78s2.991-1.708,4.285-2.594a3.042,3.042,0,0,0,.957-.895,1.393,1.393,0,0,0,.055-1.373" transform="translate(-33.81 -35.912)" fill="#7c554e"/>
            <path id="Trazado_734102" data-name="Trazado 734102" d="M157.027,123.935c-.344.677-2.905.02-6.009.012-3.1-.071-5.68.521-6.008-.165-.144-.326.368-.94,1.45-1.5a10.45,10.45,0,0,1,9.156.117c1.067.591,1.564,1.217,1.411,1.54" transform="translate(-31.808 -26.607)" fill="#263238"/>
            <path id="Trazado_734103" data-name="Trazado 734103" d="M188.906,127.342c-.532.535-2.251-.3-4.407-.6-2.145-.37-4.037-.094-4.382-.764-.148-.324.214-.881,1.082-1.343a6.441,6.441,0,0,1,7.082,1.1c.688.7.863,1.343.625,1.607" transform="translate(-39.509 -27.211)" fill="#263238"/>
            <path id="Trazado_734104" data-name="Trazado 734104" d="M113.667,120.605a3.182,3.182,0,0,0,.429,3.732,2.195,2.195,0,0,0,3.2-.453c.678,1.217,2.717.336,2.648-1.143.945.706,2.464-.49,2.305-1.816,1.125.612,2.082-1.209,2.872-2.409a20.758,20.758,0,0,1,1.471-1.788,13.375,13.375,0,0,0,2.89-6.863c1.774-1.552,2.523-4.207,3.164-6.676l1.2-4.623,1.02-.974a2.577,2.577,0,0,0,1.367,2.663,5.507,5.507,0,0,0,2.854.336l2.88-.171,1.682.743c-.71,1.389-.414,3.115-.094,4.644a4.448,4.448,0,0,0,1.28,2.769,1.338,1.338,0,0,0,2.041-1.172,1.483,1.483,0,0,0,2.325-.054,4.878,4.878,0,0,0,1.022-2.809,12.475,12.475,0,0,0-1.337-7.111l4.261,5.225a2.293,2.293,0,0,0,1.1.892,1.3,1.3,0,0,0,1.181,1.608,3.375,3.375,0,0,0,1.97-.98c1.355-1.089,2.9-3.041,2.03-4.589a1.066,1.066,0,0,0,.676-1.483l4.969,4.956c-.509-.4-1.235.382-1.209,1.113a2.958,2.958,0,0,0,.932,1.8,4.366,4.366,0,0,0-.991,2.539c-.874-1.029-2.593.428-2.465,1.9a3.159,3.159,0,0,0,2.618,2.678,2.2,2.2,0,0,0,2.684-1.282c1.18.421,2.577-1.093,2.327-2.523.8.706,1.783-.77,1.993-1.957a17.314,17.314,0,0,0-.1-6.559c-.075.3.233.606.475.468a.477.477,0,0,0,.012-.745q1.051,4.015,2.1,8.031a17.915,17.915,0,0,1,.859,6.562c-.1.91-.169,2.17.583,2.354a1.152,1.152,0,0,0,.621-.077,11.483,11.483,0,0,0,5.769-5.133,8.678,8.678,0,0,0,1.124-2.571c.434-1.926-.127-3.914,0-5.886a19.233,19.233,0,0,0,.176-2.6,7.82,7.82,0,0,0-1.55-3.635c-2.52-3.851-5.193-7.845-9-9.771-2.328-1.177-4.94-1.5-7.276-2.652a43.944,43.944,0,0,1-4.128-2.61c-5.659-3.631-12.274-4.883-18.817-5.193A30.978,30.978,0,0,0,130.85,78.39c-3.93,1.253-7.547,3.7-10.994,6.337-5.146,3.937-10.1,8.443-13.816,14.214-2.852,4.434-4.951,9.77-4.869,15.212s2.728,10.886,7.051,12.583l2.026-1.784" transform="translate(-22.195 -16.947)" fill="#263238"/>
            <path id="Trazado_734105" data-name="Trazado 734105" d="M119.969,137.97c-.244-.154-10.068-4.741-11.347,5.805s9.574,9.655,9.629,9.354,1.718-15.159,1.718-15.159" transform="translate(-23.808 -30.023)" fill="#a37166"/>
            <path id="Trazado_734106" data-name="Trazado 734106" d="M116.278,149.671c-.042-.039-.2.106-.527.211a1.852,1.852,0,0,1-1.377-.137c-1.065-.545-1.788-2.427-1.609-4.334a6.093,6.093,0,0,1,.833-2.568,2.135,2.135,0,0,1,1.553-1.243.942.942,0,0,1,1.023.635c.105.312.013.514.066.539.027.03.248-.149.216-.595a1.184,1.184,0,0,0-.335-.711,1.4,1.4,0,0,0-.984-.392,2.6,2.6,0,0,0-2.118,1.4,6.279,6.279,0,0,0-.993,2.862c-.19,2.133.657,4.254,2.128,4.88a1.981,1.981,0,0,0,1.714-.075c.358-.221.443-.45.408-.474" transform="translate(-24.572 -30.95)" fill="#7c554e"/>
            <path id="Trazado_734107" data-name="Trazado 734107" d="M110.394,155.625c.009.044-.29.1-.747.351a3.44,3.44,0,0,0-1.432,1.607,3.01,3.01,0,0,0,.251,3.017,3.576,3.576,0,0,0,3.372,1.484,3.819,3.819,0,0,0,2.653-5.518,4.689,4.689,0,0,0-1.412-1.676,6.913,6.913,0,0,1-.685-.471,1.8,1.8,0,0,1,.788.315,4.432,4.432,0,0,1,1.61,1.674,4.1,4.1,0,0,1,.306,3.426,4.223,4.223,0,0,1-3.183,2.725,3.974,3.974,0,0,1-3.814-1.709,3.3,3.3,0,0,1-.575-1.813,3.538,3.538,0,0,1,.382-1.6,3.42,3.42,0,0,1,1.656-1.63,1.538,1.538,0,0,1,.831-.183" transform="translate(-23.59 -33.877)" fill="#455a64"/>
            <path id="Trazado_734108" data-name="Trazado 734108" d="M171.185,98.33a2.659,2.659,0,0,0,.885-1.263,1.877,1.877,0,0,0-.268-1.648,2,2,0,0,0-1.947-.782l-.457.091.244-.4a2.1,2.1,0,0,0-.25-2.407,2.055,2.055,0,0,0-2.63-.248l-.305-.372a.922.922,0,0,0,.18-.245,1.19,1.19,0,0,0-.039-1.013,1.36,1.36,0,0,0-.786-.654,2.272,2.272,0,0,0-1.06-.091,2.876,2.876,0,0,1-1.216.108c-.492-.157-.666-.559-.9-.76a3.922,3.922,0,0,0-.749-.613,4.536,4.536,0,0,0-1.64-.607,4.655,4.655,0,0,0-2.532.269c-.567.237-.842.457-.87.421a2.113,2.113,0,0,1,.791-.591,4.538,4.538,0,0,1,2.66-.436,4.76,4.76,0,0,1,1.8.6,4.323,4.323,0,0,1,.845.657c.276.259.466.577.72.63a2.819,2.819,0,0,0,1.027-.135,2.707,2.707,0,0,1,1.286.1,1.834,1.834,0,0,1,1.058.884,1.657,1.657,0,0,1,.045,1.436,1.415,1.415,0,0,1-.288.391l-.3-.372a2.439,2.439,0,0,1,3.512,3.26l-.213-.309a2.346,2.346,0,0,1,2.3.991,2.189,2.189,0,0,1-.5,2.912c-.232.168-.382.206-.389.191" transform="translate(-34.409 -19.098)" fill="#455a64"/>
            <path id="Trazado_734109" data-name="Trazado 734109" d="M185.169,102.241a3.255,3.255,0,0,0,1.069-1.2,2.378,2.378,0,0,0,.126-1.8,2.488,2.488,0,0,0-1.677-1.589l-.333-.088.263-.229a2.968,2.968,0,0,0,1.142-2.468,1.589,1.589,0,0,0-.809-1.187,1.262,1.262,0,0,0-1.42,0L182,94.936l1.2-1.573a2.468,2.468,0,0,0,.4-2.039,2.269,2.269,0,0,0-1.446-1.607,2.41,2.41,0,0,0-1.6-.048l-.586.2.3-.543a1.561,1.561,0,0,0-1.08-2.031,4.052,4.052,0,0,0-2.578.3l-.486.185.208-.473a1.75,1.75,0,0,0-.35-1.756,3.248,3.248,0,0,0-1.521-.93,8.255,8.255,0,0,0-3.035-.323,13.251,13.251,0,0,0-2.659.579,2.245,2.245,0,0,1,.646-.334,7.83,7.83,0,0,1,1.987-.5,8.161,8.161,0,0,1,3.166.237,3.576,3.576,0,0,1,1.721,1.015,2.152,2.152,0,0,1,.442,2.187l-.278-.287a4.433,4.433,0,0,1,2.873-.336,2.229,2.229,0,0,1,1.272,1.007,1.705,1.705,0,0,1,.087,1.7l-.285-.345a2.88,2.88,0,0,1,1.92.052,2.746,2.746,0,0,1,1.74,1.947,2.921,2.921,0,0,1-.5,2.432l-.328-.322a1.712,1.712,0,0,1,1.937-.026,2.025,2.025,0,0,1,1,1.519,3.322,3.322,0,0,1-1.327,2.8l-.069-.317a2.779,2.779,0,0,1,1.859,1.853,2.631,2.631,0,0,1-1.073,2.909.92.92,0,0,1-.4.179" transform="translate(-37.028 -18.424)" fill="#455a64"/>
            <path id="Trazado_734110" data-name="Trazado 734110" d="M216.111,109.2a1.792,1.792,0,0,0-.442-1.375,2.289,2.289,0,0,0-1.5-.77,6.789,6.789,0,0,0-2.322.239l-.275.062.073-.275a2.059,2.059,0,0,0-1.4-2.2,5.968,5.968,0,0,0-3.421.1l-1.544.355,1.383-.772a1.692,1.692,0,0,0,.187-2.428,3.837,3.837,0,0,0-2.852-1.08l-.144-.005-.941-.037.842-.421a1.813,1.813,0,0,0,.171-2.87,2.747,2.747,0,0,0-3.068-.1l-1.069.639.785-.968a4.113,4.113,0,0,0,.53-4.147A3.837,3.837,0,0,0,198.546,91a4.333,4.333,0,0,0-2.264,0c-.516.144-.772.3-.788.265-.005-.011.053-.055.175-.131a2.814,2.814,0,0,1,.571-.27,4.232,4.232,0,0,1,2.371-.12A4.092,4.092,0,0,1,201.445,93a4.479,4.479,0,0,1-.525,4.578l-.286-.329a3.184,3.184,0,0,1,3.6.119,2.31,2.31,0,0,1,.8,1.859,2.031,2.031,0,0,1-1.062,1.8l-.1-.457.151.006a4.258,4.258,0,0,1,3.2,1.265,2.449,2.449,0,0,1,.511,1.653,1.764,1.764,0,0,1-.841,1.463l-.16-.418a6.277,6.277,0,0,1,3.673-.035,2.413,2.413,0,0,1,1.578,2.667l-.2-.212a6.854,6.854,0,0,1,2.432-.172,2.46,2.46,0,0,1,1.6.92,1.711,1.711,0,0,1,.39,1.1.708.708,0,0,1-.1.394" transform="translate(-42.889 -19.883)" fill="#455a64"/>
            <path id="Trazado_734111" data-name="Trazado 734111" d="M202.86,81.04a1.415,1.415,0,0,1-.654.143,8.15,8.15,0,0,1-1.855-.144,5.518,5.518,0,0,0-2.7.052,1.7,1.7,0,0,0-1.076,1.032,1.231,1.231,0,0,0,.3,1.453l-.354.188c-.019-.621-.722-1.106-1.35-1.6a7.949,7.949,0,0,0-2.1-1.245,2.887,2.887,0,0,0-2.3.052,1.917,1.917,0,0,0-1.2,1.624l0,.593-.393-.447a5.32,5.32,0,0,0-2.931-1.68,5.983,5.983,0,0,0-2.7.037,7.6,7.6,0,0,0-2.2,1.035c-.014-.015.137-.192.472-.466a5.089,5.089,0,0,1,1.66-.834,6.025,6.025,0,0,1,2.851-.142,5.619,5.619,0,0,1,3.2,1.757l-.394.145a2.364,2.364,0,0,1,1.45-2.048,3.349,3.349,0,0,1,2.668-.08,8.264,8.264,0,0,1,2.225,1.324,10.011,10.011,0,0,1,.944.8,1.746,1.746,0,0,1,.567,1.165l.007.456-.362-.268a1.653,1.653,0,0,1-.434-1.969,2.093,2.093,0,0,1,1.34-1.24,5.567,5.567,0,0,1,2.88.034,10.541,10.541,0,0,0,1.8.269,6.012,6.012,0,0,1,.657,0" transform="translate(-39.782 -17.602)" fill="#455a64"/>
            <path id="Trazado_734112" data-name="Trazado 734112" d="M177.058,65.594a4.955,4.955,0,0,0-1.267.011,3.033,3.033,0,0,0-1.286.6,2.619,2.619,0,0,0-.967,1.5l-.055.254-.233-.116a1.58,1.58,0,0,0-1.863.749,4.8,4.8,0,0,0-.433,2.608l.023.949-.479-.839-.075-.131a2.033,2.033,0,0,0-1.543-.888,2.272,2.272,0,0,0-1.642.472,3.621,3.621,0,0,0-1.319,2.68,6.7,6.7,0,0,0,.263,2.122,3.653,3.653,0,0,1,.2.782A2.1,2.1,0,0,1,166,75.62a5.911,5.911,0,0,1-.425-2.193,3.9,3.9,0,0,1,1.389-3.019,2.672,2.672,0,0,1,3.865.514l.1.172-.456.11A5.084,5.084,0,0,1,171,68.339a1.986,1.986,0,0,1,2.428-.864l-.287.138a2.907,2.907,0,0,1,1.165-1.675,3.1,3.1,0,0,1,1.447-.565,2.534,2.534,0,0,1,.988.071c.217.073.322.132.315.15" transform="translate(-36.326 -14.338)" fill="#455a64"/>
            <path id="Trazado_734113" data-name="Trazado 734113" d="M149.953,76.8c-.01.025-.239-.023-.608-.222a3.99,3.99,0,0,1-1.3-1.2,4.263,4.263,0,0,1-.774-2.524,2.181,2.181,0,0,0-.144-1.335c-.227-.369-.779-.655-1.064-1.252a2.4,2.4,0,0,1,1.03-3.127l-.066.345a7.681,7.681,0,0,1-1.66-3.085,3.13,3.13,0,0,1-.164-1.34,12.452,12.452,0,0,1,.417,1.261,8.456,8.456,0,0,0,1.732,2.869l.2.217-.267.128a1.98,1.98,0,0,0-.791,2.521c.188.44.681.694,1.027,1.208a2.5,2.5,0,0,1,.191,1.61,4.086,4.086,0,0,0,.615,2.318,6.059,6.059,0,0,0,1.624,1.61" transform="translate(-31.851 -13.835)" fill="#455a64"/>
            <path id="Trazado_734114" data-name="Trazado 734114" d="M137.516,82.057c0,.02-.141.026-.4,0A5.407,5.407,0,0,1,136,81.817a6.394,6.394,0,0,1-3.25-2.451l.308.035a4.115,4.115,0,0,1-2.986,1.112,4.266,4.266,0,0,1-1.745-.441,2.614,2.614,0,0,1-1.358-1.382,5.352,5.352,0,0,1-.1-.709.949.949,0,0,0-.24-.48,2.973,2.973,0,0,0-1.032-.629,3.832,3.832,0,0,1-1.158-.66,1.366,1.366,0,0,1-.521-1.259l.273.249a4.232,4.232,0,0,1-2.91-.311,4.583,4.583,0,0,1-1.749-1.443,3.792,3.792,0,0,1-.627-1.325,1.25,1.25,0,0,1-.052-.518,5.982,5.982,0,0,0,.885,1.682,4.5,4.5,0,0,0,1.692,1.273,3.919,3.919,0,0,0,2.641.221l.336-.092-.063.341a.933.933,0,0,0,.395.839,3.435,3.435,0,0,0,1.04.568,3.351,3.351,0,0,1,1.2.741,1.431,1.431,0,0,1,.359.718,6.211,6.211,0,0,0,.087.654,2.212,2.212,0,0,0,1.115,1.1,3.859,3.859,0,0,0,1.545.4,3.747,3.747,0,0,0,2.688-.942l.178-.168.131.2a6.487,6.487,0,0,0,2.993,2.453c.888.357,1.447.405,1.439.46" transform="translate(-26.072 -15.71)" fill="#455a64"/>
            <path id="Trazado_734115" data-name="Trazado 734115" d="M92.225,94.358c-.011,0-.022-.057-.034-.17a2.743,2.743,0,0,1-.014-.505,5.081,5.081,0,0,1,.474-1.86,11.325,11.325,0,0,1,1.627-2.5,10.581,10.581,0,0,1,1.252-1.368,2.844,2.844,0,0,1,.911-.53,1.269,1.269,0,0,1,1.165.155l-.325.155a3.189,3.189,0,0,1,5.514-2.08l-.408.138a2.2,2.2,0,0,1,1.116-1.667,2.112,2.112,0,0,1,2.062.017,2.171,2.171,0,0,1,.841.83l-.45.1a1.368,1.368,0,0,1,.647-1.052,1.875,1.875,0,0,1,1.132-.309,4.342,4.342,0,0,1,1.966.787l-.3.052a3.422,3.422,0,0,1,2.247-1.169,4.8,4.8,0,0,1,2.33.305,12.116,12.116,0,0,1,3.353,2.252l-.279.181a.845.845,0,0,1,.2-.814,1.457,1.457,0,0,1,.646-.371,2.464,2.464,0,0,1,1.293-.026,6.967,6.967,0,0,1,1.819.82A6.342,6.342,0,0,1,122,86.5c.205.2.3.32.286.331-.031.036-.448-.406-1.374-.938a7.249,7.249,0,0,0-1.786-.718,2.21,2.21,0,0,0-1.132.058c-.383.115-.738.415-.61.792l.19.557-.469-.376a12.1,12.1,0,0,0-3.277-2.127,4.377,4.377,0,0,0-2.125-.256,2.982,2.982,0,0,0-1.943,1.019l-.127.158-.174-.105a3.958,3.958,0,0,0-1.749-.709c-.571-.041-1.251.361-1.274.91l-.035.847-.415-.742a1.7,1.7,0,0,0-.653-.641,1.634,1.634,0,0,0-1.6-.02,1.734,1.734,0,0,0-.879,1.3l-.052.517-.355-.379a2.818,2.818,0,0,0-3.106-.642,2.856,2.856,0,0,0-1.657,2.414l-.016.4-.308-.241c-.469-.367-1.143-.034-1.6.339a10.616,10.616,0,0,0-1.233,1.291,11.773,11.773,0,0,0-1.667,2.39,6.4,6.4,0,0,0-.639,2.435" transform="translate(-20.221 -18.286)" fill="#455a64"/>
            <path id="Trazado_734116" data-name="Trazado 734116" d="M93.08,111.358c-.015.006-.084-.107-.2-.333A7.437,7.437,0,0,1,92.447,110a3.423,3.423,0,0,1-.152-1.791,2.5,2.5,0,0,1,.5-1.042,1.8,1.8,0,0,1,1.147-.664l-.132.244a2.239,2.239,0,0,1,2.816-3.1l-.265.307a1.8,1.8,0,0,1,.347-2.107,2.669,2.669,0,0,1,2.152-.681,10.389,10.389,0,0,0,1.063.136.918.918,0,0,0,.733-.484,3.927,3.927,0,0,1,.749-.947,2.075,2.075,0,0,1,1.2-.471,11.872,11.872,0,0,1,2.543.269,2.767,2.767,0,0,0,2.13-.328,10.68,10.68,0,0,0,.772-.824,2.386,2.386,0,0,1,1.059-.616,2.524,2.524,0,0,1,2.21.411l-.318.258a1.9,1.9,0,0,1,.545-2.157,2.681,2.681,0,0,1,1.9-.649,8.535,8.535,0,0,1,3.061.792,10.41,10.41,0,0,1,1.766.989,2.432,2.432,0,0,1,.554.455,24.025,24.025,0,0,0-2.415-1.216,8.682,8.682,0,0,0-2.964-.675,2.344,2.344,0,0,0-1.632.584,1.514,1.514,0,0,0-.432,1.692l.407.813-.725-.554a2.1,2.1,0,0,0-1.831-.312,1.939,1.939,0,0,0-.856.507,9.671,9.671,0,0,1-.8.866,2.509,2.509,0,0,1-1.212.481,5.574,5.574,0,0,1-1.272-.044,11.965,11.965,0,0,0-2.433-.262,1.6,1.6,0,0,0-.941.362,3.591,3.591,0,0,0-.666.855,1.4,1.4,0,0,1-1.1.679,9,9,0,0,1-1.127-.144,2.229,2.229,0,0,0-1.788.532,1.373,1.373,0,0,0-.3,1.576l.311.536-.575-.229a1.9,1.9,0,0,0-2.135.566,1.935,1.935,0,0,0-.221,1.98l.1.217-.237.027a1.827,1.827,0,0,0-1.428,1.433,3.352,3.352,0,0,0,.07,1.676c.263.913.5,1.4.455,1.414" transform="translate(-20.235 -21.009)" fill="#455a64"/>
            <path id="Trazado_734117" data-name="Trazado 734117" d="M88.962,147.057a1.084,1.084,0,0,1-.443-.21,3.314,3.314,0,0,1-.974-1,3.425,3.425,0,0,1-.539-2.119,3.652,3.652,0,0,1,1.322-2.528l-.053.251a6.628,6.628,0,0,1-.93-2.528,2.714,2.714,0,0,1,.309-1.508,1.972,1.972,0,0,1,1.28-1.03l-.1.413a2.789,2.789,0,0,1-.864-2.638,3.125,3.125,0,0,1,.693-1.488,2.619,2.619,0,0,1,1.36-.822c.48-.141.717-.326.791-.785a3.8,3.8,0,0,1,.5-1.352,4.843,4.843,0,0,1,2.02-1.667c.7-.379,1.348-.74,1.959-1.048a8.01,8.01,0,0,1,3.083-.986,3.752,3.752,0,0,1,.884.042c.2.043.3.073.3.09-.005.048-.424-.048-1.163.055a8.606,8.606,0,0,0-2.944,1.1l-1.922,1.1a4.512,4.512,0,0,0-1.836,1.55,3.377,3.377,0,0,0-.432,1.22,1.38,1.38,0,0,1-.365.749,1.858,1.858,0,0,1-.727.384,2.484,2.484,0,0,0-1.033,4.136l.373.306-.475.107a1.906,1.906,0,0,0-1.244,2.044,6.4,6.4,0,0,0,.84,2.374l.076.15-.13.1a3.346,3.346,0,0,0-1.247,2.244,3.262,3.262,0,0,0,.412,1.969,4.781,4.781,0,0,0,1.219,1.327" transform="translate(-19.086 -27.644)" fill="#455a64"/>
            <path id="Trazado_734118" data-name="Trazado 734118" d="M109.521,134.282a1.922,1.922,0,0,1-.635-.223,6.046,6.046,0,0,1-1.557-1.087,6.4,6.4,0,0,1-1.608-2.469,2.565,2.565,0,0,1-.083-1.873,1.266,1.266,0,0,1,.834-.717,1.016,1.016,0,0,1,1.133.347l-.386.169a3.237,3.237,0,0,1-.087-1.873,1.547,1.547,0,0,1,.687-.823,1.287,1.287,0,0,1,1.112-.012,1.888,1.888,0,0,0,.806.219c.178-.03.245-.245.272-.6a2.933,2.933,0,0,1,1.069-1.909,3.159,3.159,0,0,1,3.352-.5l-.34.24a2.719,2.719,0,0,1,.835-2.559,1.65,1.65,0,0,1,1.343-.238,1.229,1.229,0,0,1,.959.913l-.414.03a6.506,6.506,0,0,1,1.264-3.364,6.765,6.765,0,0,1,2.05-1.859,5.935,5.935,0,0,1,1.649-.666,1.984,1.984,0,0,1,.624-.076,9.609,9.609,0,0,0-2.144.951,6.779,6.779,0,0,0-1.9,1.849,6.25,6.25,0,0,0-1.126,3.189l-.111,1.742-.3-1.712c-.1-.59-1.087-.806-1.624-.4a2.292,2.292,0,0,0-.634,2.136l.059.439-.4-.2a2.7,2.7,0,0,0-2.834.451,2.46,2.46,0,0,0-.9,1.592,2.021,2.021,0,0,1-.114.557.758.758,0,0,1-.528.454,2.054,2.054,0,0,1-1.071-.242.82.82,0,0,0-.735-.021,1.1,1.1,0,0,0-.482.575,2.9,2.9,0,0,0,.08,1.614l.29,1.215-.676-1.045c-.266-.413-1.09-.18-1.253.3a2.243,2.243,0,0,0,.059,1.6,6.35,6.35,0,0,0,1.453,2.4,9.21,9.21,0,0,0,2.012,1.49" transform="translate(-23.144 -25.305)" fill="#455a64"/>
            <path id="Trazado_734119" data-name="Trazado 734119" d="M145.156,103.7a3.6,3.6,0,0,1-1.336-.748,4.02,4.02,0,0,1-1.134-1.276,2.645,2.645,0,0,1-.194-2.127,2.033,2.033,0,0,1,.258-.471l.057.341a2.289,2.289,0,0,1-.965-1.724,2.09,2.09,0,0,1,.506-1.5c.62-.692,1.244-.687,1.233-.641.031.072-.514.193-.977.84a1.847,1.847,0,0,0-.335,1.269,1.922,1.922,0,0,0,.806,1.364l.2.133-.139.208a1.615,1.615,0,0,0-.194.358,2.3,2.3,0,0,0,.141,1.756,4.173,4.173,0,0,0,.956,1.215c.68.607,1.162.945,1.117,1.009" transform="translate(-31.118 -20.958)" fill="#455a64"/>
            <path id="Trazado_734120" data-name="Trazado 734120" d="M157.9,98.815a2.814,2.814,0,0,0,.561-1.7,1.987,1.987,0,0,0-.925-1.637,2.151,2.151,0,0,0-2.319.056l-.334.243-.026-.415a3.93,3.93,0,0,0-.359-1.473,1.812,1.812,0,0,0-1.078-1c-.745-.2-1.691.391-1.565,1.048l-.461.032a3.661,3.661,0,0,0-1-2.541,3.569,3.569,0,0,0-1.937-1.048,5.537,5.537,0,0,0-2.041.1c-.01-.021.157-.136.508-.253a3.635,3.635,0,0,1,1.578-.137,3.756,3.756,0,0,1,2.176,1.06,4,4,0,0,1,1.173,2.827l-.461.032a1.346,1.346,0,0,1,.653-1.319,1.912,1.912,0,0,1,1.489-.267,2.252,2.252,0,0,1,1.386,1.265,4.289,4.289,0,0,1,.386,1.656l-.36-.172a2.532,2.532,0,0,1,2.792-.014,2.268,2.268,0,0,1,1,1.959,2.319,2.319,0,0,1-.458,1.361c-.209.265-.372.353-.384.338" transform="translate(-32.123 -19.758)" fill="#455a64"/>
            <path id="Trazado_734121" data-name="Trazado 734121" d="M186.012,128.624s-.009.034-.021.094-.028.158-.049.273q-.064.378-.183,1.081c-.16.951-.4,2.353-.728,4.153s-.741,4-1.351,6.53a22.887,22.887,0,0,1-1.229,3.954c-.088.156-.169.318-.264.474-.116.143-.219.3-.346.435a6.007,6.007,0,0,1-.822.781,7.4,7.4,0,0,1-2.058,1.143,10.256,10.256,0,0,1-5.016.42,7.411,7.411,0,0,1-2.553-.81,7.92,7.92,0,0,1-2.162-1.752,13.977,13.977,0,0,1-2.721-5.2,5.67,5.67,0,0,0-.565-1.469,2.58,2.58,0,0,0-1.176-1.121,1.86,1.86,0,0,0-1.635.189,4.3,4.3,0,0,0-1.21,1.123c-.351.421-.6.934-.921,1.36a6.261,6.261,0,0,1-1.069,1.208,11.4,11.4,0,0,1-2.8,1.759,20.966,20.966,0,0,1-6.637,1.724,19.772,19.772,0,0,1-3.534.036,7.518,7.518,0,0,1-.886-.1c-.294-.05-.594-.068-.883-.144l-.875-.2c-.28-.1-.564-.179-.839-.3a42.454,42.454,0,0,1-6.318-3.772q-2.364-1.635-4.608-3.339l.052.137,2.979-15.381-.15.108,36.254,4.77L182.2,128.15l2.82.359.732.089c.165.02.254.026.254.026s-.076-.016-.236-.04l-.714-.1-2.788-.389-10.481-1.435-36.327-4.908-.126-.017-.024.125c-.945,4.856-1.949,10.024-2.991,15.379l-.016.086.069.052q2.247,1.708,4.619,3.349a42.593,42.593,0,0,0,6.371,3.8c.279.127.582.214.873.315l.894.2c.3.077.6.1.9.146a7.823,7.823,0,0,0,.9.1,20.1,20.1,0,0,0,3.583-.038,21.24,21.24,0,0,0,6.723-1.755,11.7,11.7,0,0,0,2.867-1.806,6.512,6.512,0,0,0,1.111-1.261c.336-.457.564-.93.908-1.345a4.052,4.052,0,0,1,1.134-1.061,1.6,1.6,0,0,1,1.411-.176,2.341,2.341,0,0,1,1.055,1.012,5.423,5.423,0,0,1,.544,1.413,14.189,14.189,0,0,0,2.784,5.286,8.159,8.159,0,0,0,2.229,1.8,7.647,7.647,0,0,0,2.629.827,10.453,10.453,0,0,0,5.117-.448,7.61,7.61,0,0,0,2.108-1.182,6.22,6.22,0,0,0,.842-.809c.131-.141.237-.3.355-.45.1-.162.185-.334.276-.5a22.914,22.914,0,0,0,1.222-4c.6-2.535.984-4.744,1.305-6.547s.534-3.21.676-4.164q.1-.706.155-1.086c.014-.118.026-.209.034-.279s.007-.092.007-.092" transform="translate(-29.027 -26.707)" fill="#e0e0e0"/>
            <path id="Trazado_734122" data-name="Trazado 734122" d="M195.908,147.257c.076.013.716-3.261,1.428-7.313s1.227-7.348,1.151-7.361-.716,3.26-1.428,7.313-1.227,7.348-1.151,7.361" transform="translate(-42.979 -29.087)" fill="#fafafa"/>
            <path id="Trazado_734123" data-name="Trazado 734123" d="M177.955,136.795c-.069.037,1.114,2.405,2.642,5.29s2.821,5.2,2.89,5.16-1.114-2.405-2.642-5.291-2.821-5.195-2.89-5.159" transform="translate(-39.041 -30.011)" fill="#fafafa"/>
            <path id="Trazado_734124" data-name="Trazado 734124" d="M173.975,132.515a8.679,8.679,0,0,0,.6,1.518c.408.92,1.006,2.177,1.715,3.541s1.4,2.574,1.915,3.437a8.721,8.721,0,0,0,.9,1.361,10.176,10.176,0,0,0-.727-1.46l-1.838-3.469-1.785-3.5a10.122,10.122,0,0,0-.778-1.432" transform="translate(-38.168 -29.072)" fill="#fafafa"/>
            <path id="Trazado_734125" data-name="Trazado 734125" d="M142.241,127.937a2.129,2.129,0,0,0,.233.511c.166.319.415.777.727,1.34.624,1.125,1.5,2.669,2.489,4.365,1.584,2.725,2.961,5.014,3.462,5.765l.171.256-.091-.289a1.234,1.234,0,0,0-.137-.361,1.218,1.218,0,0,0,.052.383l.08-.033c-.4-.807-1.711-3.137-3.294-5.862-.986-1.7-1.892-3.225-2.56-4.324-.334-.55-.609-.992-.8-1.3a2.2,2.2,0,0,0-.328-.455" transform="translate(-31.206 -28.068)" fill="#fafafa"/>
            <path id="Trazado_734126" data-name="Trazado 734126" d="M141.1,130.773a52.137,52.137,0,0,0,2.6,4.743,52.147,52.147,0,0,0,2.841,4.6,52.1,52.1,0,0,0-2.6-4.744,52.121,52.121,0,0,0-2.841-4.6" transform="translate(-30.955 -28.69)" fill="#fafafa"/>
            <path id="Trazado_734127" data-name="Trazado 734127" d="M145.655,148.3a3.17,3.17,0,0,0,.61.315,6.2,6.2,0,0,0,.745.305,10.187,10.187,0,0,0,1.016.331,11.406,11.406,0,0,0,1.262.294c.456.1.953.146,1.475.206a15.6,15.6,0,0,0,6.716-.9,14.8,14.8,0,0,0,1.369-.585,11.182,11.182,0,0,0,1.14-.614,9.8,9.8,0,0,0,.894-.585,6.035,6.035,0,0,0,.639-.489,3.249,3.249,0,0,0,.506-.464c-.037-.048-.774.6-2.138,1.366a12.092,12.092,0,0,1-1.14.576c-.412.2-.876.367-1.357.552a16.318,16.318,0,0,1-6.609.881c-.514-.052-1-.087-1.454-.176a12.228,12.228,0,0,1-1.251-.257c-1.518-.384-2.4-.813-2.422-.759" transform="translate(-31.955 -32.056)" fill="#fafafa"/>
            <path id="Trazado_734128" data-name="Trazado 734128" d="M130.176,137.344a1.789,1.789,0,0,0,.068-.269c.044-.208.1-.479.174-.817.155-.75.371-1.8.639-3.1l2.167-10.816.048-.24-.229.088-5.72,2.205-4.3,1.667-.076.03-.01.08c-.385,2.957-.738,5.672-1.041,8.006l-.012.089.084.031,6.007,2.251,1.639.6.424.151a.62.62,0,0,0,.139.041,1.061,1.061,0,0,0-.155-.072l-.436-.181-1.646-.665-5.89-2.337.072.12c.318-2.332.687-5.045,1.089-8l-.087.11,4.3-1.66,5.715-2.217-.18-.151-2.017,10.743c-.24,1.323-.434,2.386-.573,3.148l-.149.853a2.736,2.736,0,0,0-.045.308" transform="translate(-26.74 -26.788)" fill="#e0e0e0"/>
            <path id="Trazado_734129" data-name="Trazado 734129" d="M186.839,128.444l.431-2.838-50.848-6.983-.528,3.208Z" transform="translate(-29.814 -26.025)" fill="#455a64"/>
            <path id="Trazado_734130" data-name="Trazado 734130" d="M133.621,118.623l-10.06,4.326-.433,2.8,9.966-3.916Z" transform="translate(-27.013 -26.025)" fill="#455a64"/>
            <path id="Trazado_734131" data-name="Trazado 734131" d="M159.146,173.258a2.044,2.044,0,0,1-.856-.026,5.975,5.975,0,0,1-2.157-.893,5.912,5.912,0,0,1-1.238-1.059,3.94,3.94,0,0,1-.912-1.662,5.678,5.678,0,0,1,1-4.119,6.906,6.906,0,0,1,1.941-1.979l.089-.059.094.042a22.535,22.535,0,0,1,4.9,3.093,16.548,16.548,0,0,1,1.261,1.122c.279.279.415.447.4.462-.037.038-.662-.541-1.813-1.386a25.885,25.885,0,0,0-4.9-2.927l.183-.017a6.675,6.675,0,0,0-1.818,1.872,5.425,5.425,0,0,0-.972,3.814A4.685,4.685,0,0,0,156.3,172.1a6.544,6.544,0,0,0,2.03.976c.518.135.821.143.82.18" transform="translate(-33.765 -35.862)" fill="#263238"/>
            <path id="Trazado_734132" data-name="Trazado 734132" d="M99.513,371.98h-39.2L72.22,322.967S66.1,286.426,63.3,268.554a249.352,249.352,0,0,0-5.991-28.72s12.928-21.357,26.5-29.213l2.464-6.455,14.87-10.334-.775,9.435-3.853,4.983C99.443,219,115,233.373,118.053,243.7c3.94,13.348,9.2,32.473,11.634,47.063,4.162,24.915,1.2,81.216,1.2,81.216Z" transform="translate(-12.572 -42.525)" fill="#ebebeb"/>
            <path id="Trazado_734133" data-name="Trazado 734133" d="M135.663,291.04a1.132,1.132,0,0,1-.148-.206c-.1-.158-.234-.365-.4-.624l-1.508-2.42c-1.308-2.105-3.21-5.145-5.61-8.876-4.8-7.465-11.646-17.658-19.747-28.591l-.1-.131.108-.123.629-.719,4.224-4.821.072.318L94.49,236.761l-.094-.04-.009-.1c-.667-6.979-1.42-12.757-1.841-16.806-.218-2.023-.373-3.613-.466-4.7-.041-.523-.073-.934-.1-1.238a2.5,2.5,0,0,1-.015-.426,2.759,2.759,0,0,1,.068.422c.036.3.085.711.148,1.233.132,1.107.321,2.685.56,4.685.479,4.041,1.281,9.811,1.985,16.8l-.1-.141,18.718,8.03.254.109-.183.208-4.222,4.824-.628.717.01-.254c8.107,10.943,14.924,21.171,19.66,28.679,2.371,3.753,4.238,6.818,5.5,8.948l1.444,2.46.366.646a1.122,1.122,0,0,1,.112.226" transform="translate(-20.176 -46.829)" fill="#263238"/>
            <g id="Grupo_1033471" data-name="Grupo 1033471" transform="translate(64.872 259.711)" opacity="0.3">
              <g id="Grupo_1033470" data-name="Grupo 1033470">
                <g id="Grupo_1033469" data-name="Grupo 1033469" clip-path="url(#clip-path-7)">
                  <path id="Trazado_734134" data-name="Trazado 734134" d="M164.525,361.768c-10.548,7.2-25.327,15.474-38.123,9.344C104.931,360.825,83.1,332.7,83.1,332.7s23.948,51.362,37.585,54.743l.407.1a27.847,27.847,0,0,0,25.265-6.517l30.986-28.217s-5.669,4.072-12.822,8.957" transform="translate(-83.104 -332.703)"/>
                </g>
              </g>
            </g>
            <path id="Trazado_734135" data-name="Trazado 734135" d="M356.707,228.547s3.6,2.4,4.3,4.1,0,4.5,0,4.5-7.741,9.9-9.468,10.395a3.421,3.421,0,0,1-3.137-1.012Z" transform="translate(-76.436 -50.141)" fill="#a37166"/>
            <path id="Trazado_734136" data-name="Trazado 734136" d="M231.44,276.2s17.529-19.987,18.462-21.162,3.478-2.153,6.122-2.741,9.1-1.37,11.648-4.013,3.231-6.852,4.8-6.657,3.426,2.252,2.839,5.286-3.524,6.852-3.524,6.852L280.2,270.7s-4.307,5.188-6.363,7.244-23.171,9.232-23.171,9.232l-6.749,8.655Z" transform="translate(-50.776 -53.01)" fill="#a37166"/>
            <path id="Trazado_734137" data-name="Trazado 734137" d="M314.7,198.127c-.921-1.145-1.623-2.46-2.617-3.542a4.707,4.707,0,0,0-3.862-1.752,3.889,3.889,0,0,0-3.1,3.16,6.38,6.38,0,0,0,1.025,4.507,18.934,18.934,0,0,0,3.125,3.537l9.068-3.646a5.441,5.441,0,0,1-3.635-2.264" transform="translate(-66.919 -42.3)" fill="#a37166"/>
            <path id="Trazado_734138" data-name="Trazado 734138" d="M352.419,211.159c2.58-.834,5.325.45,7.129,2.475a8.263,8.263,0,0,1,1.076,8.206,2.6,2.6,0,0,1-1.781,1.661,2.243,2.243,0,0,1-2.208-1.625,11.88,11.88,0,0,1-1.092-2.911c-.2-2.969-2.884-5.862-3.125-7.806" transform="translate(-77.317 -46.27)" fill="#a37166"/>
            <path id="Trazado_734139" data-name="Trazado 734139" d="M68.643,302.4s-21.93-36.358-12.055-52.119S78,242.93,86.86,252.011s36.193,57.218,36.193,57.218Z" transform="translate(-11.854 -52.975)" fill="#e8e8e8"/>
            <path id="Trazado_734140" data-name="Trazado 734140" d="M72.749,311.806l37.8,48.091c9.37,10.433,20.834,12.068,30.867,5.814,1.461-.91,2.847-1.816,4.084-2.687,8.04-5.658,69.422-48.665,69.422-48.665l-19.088-30.031s-18.692,11.811-31.861,20.142c-4.458,2.82-7.83,5.891-10.239,7.1-9.529,4.765-22.621,13.311-22.621,13.311s-17.867-28.587-21.44-31.267Z" transform="translate(-15.96 -62.379)" fill="#e8e8e8"/>
            <path id="Trazado_734141" data-name="Trazado 734141" d="M94.375,263.724s.264.317.76.949l2.187,2.806c1.915,2.468,4.738,6.1,8.291,10.808,3.536,4.72,7.844,10.494,12.444,17.435,2.315,3.46,4.681,7.226,7.028,11.3a136.97,136.97,0,0,1,6.763,13.241l-.23-.071L195.7,279.64l.168-.105.106.167,19.092,30.029.1.165-.159.111-2.269,1.585-58.148,40.6-13.06,9.114a21.334,21.334,0,0,1-14.4,3.528,21.784,21.784,0,0,1-6.876-2.006,29.152,29.152,0,0,1-5.8-3.747,62.291,62.291,0,0,1-8.909-9.39L81.4,319.014l-6.545-8.356-1.694-2.179c-.379-.493-.566-.751-.566-.751s.208.241.6.725l1.726,2.155,6.6,8.308,24.244,30.6a62.055,62.055,0,0,0,8.883,9.327,28.8,28.8,0,0,0,5.739,3.7,21.441,21.441,0,0,0,6.776,1.966,20.988,20.988,0,0,0,14.159-3.49l13.05-9.127,58.127-40.627,2.269-1.585-.055.276-19.085-30.034.274.062-64.12,40.489-.156.1-.073-.169a137.534,137.534,0,0,0-6.722-13.226c-2.334-4.076-4.688-7.843-6.99-11.306-4.577-6.947-8.862-12.733-12.377-17.468-3.53-4.723-6.33-8.372-8.221-10.858L95.1,264.7c-.483-.642-.722-.978-.722-.978" transform="translate(-15.927 -57.858)" fill="#263238"/>
            <path id="Trazado_734142" data-name="Trazado 734142" d="M87.183,255.05c-.059.062-1.094-1.011-3.037-2.4a27.3,27.3,0,0,0-3.585-2.147,27.36,27.36,0,0,0-9.8-2.77,27.424,27.424,0,0,0-4.18-.049c-2.38.163-3.824.534-3.842.451a5.1,5.1,0,0,1,1-.286,10.036,10.036,0,0,1,1.2-.24c.473-.07,1.009-.177,1.612-.212a24.909,24.909,0,0,1,4.234-.037,26.014,26.014,0,0,1,9.933,2.809,24.831,24.831,0,0,1,3.587,2.25c.495.344.9.717,1.262,1.023a10.317,10.317,0,0,1,.9.834,5.1,5.1,0,0,1,.706.77" transform="translate(-13.765 -54.253)" fill="#263238"/>
            <path id="Trazado_734143" data-name="Trazado 734143" d="M147.72,335.46c.055.048-.662.863-1.613,2.32a23.921,23.921,0,0,0-3.888,12.811c-.019,1.74.125,2.816.052,2.825a2.759,2.759,0,0,1-.162-.747,15.571,15.571,0,0,1-.177-2.076,21.672,21.672,0,0,1,3.937-12.975,15.475,15.475,0,0,1,1.3-1.627c.334-.361.528-.55.55-.532" transform="translate(-31.136 -73.596)" fill="#263238"/>
            <path id="Trazado_734144" data-name="Trazado 734144" d="M316.523,199.984a22.991,22.991,0,0,0-22.247,28.72L271.94,244.451l6.249,7.723,19.735-15.742a22.97,22.97,0,1,0,18.6-36.447" transform="translate(-59.661 -43.875)" fill="#fafafa"/>
            <path id="Trazado_734145" data-name="Trazado 734145" d="M316.444,199.984s.162-.005.479,0l1.407.052a23.268,23.268,0,0,1,5.315,1.031,22.684,22.684,0,0,1,7.523,4.111,23.585,23.585,0,0,1,6.708,9.149,24.044,24.044,0,0,1,1.585,6.47,24.491,24.491,0,0,1-.452,7.216,23.191,23.191,0,0,1-16.182,17.191,23.419,23.419,0,0,1-9.019.763,22.988,22.988,0,0,1-8.922-2.938,23.512,23.512,0,0,1-7.205-6.481l.29.039-4.125,3.291-15.612,12.448-.155.123-.124-.154-6.245-7.726-.13-.162.169-.119L294.1,228.568l-.066.177a23.176,23.176,0,0,1-.694-4.629q-.027-.571-.027-1.137.029-.564.057-1.123t.059-1.108c.024-.366.1-.724.151-1.084a23.294,23.294,0,0,1,2.567-7.759,24.048,24.048,0,0,1,4.392-5.659l1.208-1.091,1.249-.93c.2-.148.4-.306.607-.442l.628-.379,1.208-.728c.832-.382,1.595-.8,2.356-1.086.771-.261,1.471-.571,2.16-.739l1.9-.471,1.614-.234a7.886,7.886,0,0,1,1.279-.116l.931-.034c.5-.017.758-.013.758-.013s-.257.03-.756.063l-.927.059a8.172,8.172,0,0,0-1.272.139l-1.6.256-1.888.491c-.682.175-1.376.49-2.138.755-.753.292-1.507.713-2.329,1.1l-1.193.731-.62.379c-.2.136-.4.294-.6.443l-1.231.929-1.19,1.087a23.883,23.883,0,0,0-4.316,5.621,23.092,23.092,0,0,0-2.5,7.673c-.046.354-.123.708-.145,1.069s-.036.727-.053,1.094-.035.736-.053,1.108q0,.557.03,1.122a22.86,22.86,0,0,0,.7,4.562l.028.111-.094.066-22.32,15.768.039-.28,6.253,7.719-.279-.03,15.607-12.454,4.125-3.29.166-.133.125.172a23.131,23.131,0,0,0,7.077,6.372,22.615,22.615,0,0,0,8.766,2.9,23.056,23.056,0,0,0,8.87-.74,22.857,22.857,0,0,0,15.965-16.895,24.2,24.2,0,0,0,.468-7.116,23.764,23.764,0,0,0-1.539-6.392,23.424,23.424,0,0,0-6.589-9.084,22.682,22.682,0,0,0-7.429-4.136,24.144,24.144,0,0,0-5.274-1.1l-1.4-.09c-.316-.023-.478-.044-.478-.044" transform="translate(-59.582 -43.874)" fill="#263238"/>
            <path id="Trazado_734146" data-name="Trazado 734146" d="M279.7,260.353a4.974,4.974,0,1,1-4.974-4.974,4.974,4.974,0,0,1,4.974,4.974" transform="translate(-59.18 -56.028)" fill="#e0e0e0"/>
            <path id="Trazado_734147" data-name="Trazado 734147" d="M279.639,260.3c-.044,0-.027-.443-.233-1.2a4.954,4.954,0,0,0-1.819-2.644,4.839,4.839,0,0,0-4.553-.656,4.737,4.737,0,0,0-2.215,1.674,4.765,4.765,0,0,0,0,5.644,4.745,4.745,0,0,0,2.215,1.674,4.839,4.839,0,0,0,4.553-.657,4.956,4.956,0,0,0,1.819-2.644c.205-.752.189-1.2.233-1.2a.936.936,0,0,1,.025.319,3.893,3.893,0,0,1-.1.914,4.949,4.949,0,0,1-1.8,2.834,5.119,5.119,0,0,1-7.263-1.01,5.128,5.128,0,0,1,0-6.115,5.117,5.117,0,0,1,7.262-1.01,4.95,4.95,0,0,1,1.8,2.834,3.889,3.889,0,0,1,.1.914.936.936,0,0,1-.025.319" transform="translate(-59.123 -55.979)" fill="#263238"/>
            <path id="Trazado_734148" data-name="Trazado 734148" d="M282.206,260.673l-.28.21a.66.66,0,0,0,.28-.21" transform="translate(-61.852 -57.189)" fill="#ff725e"/>
            <path id="Trazado_734149" data-name="Trazado 734149" d="M331.064,235.673c-1.794-.4-3.421-1.333-5.172-1.891a17.209,17.209,0,0,0-11.321.781,51.247,51.247,0,0,0-10.011,5.748s-3.174-3.042-4.853-2.275S280.886,251.8,280.886,251.8s1.717,2.045,1.092,2.831l17.471-13.11s1.217-1.25,4.521,1.84a18.159,18.159,0,0,0,32.138-9.031c-1.12,1.457-3.25,1.738-5.044,1.34" transform="translate(-61.624 -51.15)" fill="#ffa031"/>
            <path id="Trazado_734150" data-name="Trazado 734150" d="M344.683,235.737c-.08-.037.6-1.308,1.246-3.521a17.194,17.194,0,0,0,.439-1.827c.155-.659.229-1.378.329-2.13a23.6,23.6,0,0,0-1.028-9.755c-.255-.715-.478-1.4-.766-2.016a17.565,17.565,0,0,0-.81-1.7c-1.089-2.029-2.022-3.13-1.952-3.183a4.728,4.728,0,0,1,.667.757,8.693,8.693,0,0,1,.7.955,14.475,14.475,0,0,1,.834,1.333,16.321,16.321,0,0,1,.866,1.7,21.7,21.7,0,0,1,.813,2.034,22.632,22.632,0,0,1,1.044,9.914,21.539,21.539,0,0,1-.372,2.159,16.286,16.286,0,0,1-.494,1.841,14.684,14.684,0,0,1-.538,1.477,8.825,8.825,0,0,1-.489,1.08,4.761,4.761,0,0,1-.495.881" transform="translate(-75.062 -46.425)" fill="#263238"/>
            <path id="Trazado_734151" data-name="Trazado 734151" d="M330.388,208.073c-.027.117-1.186-.087-2.617-.027s-2.572.339-2.607.224a6.678,6.678,0,0,1,5.224-.2" transform="translate(-71.338 -45.553)" fill="#263238"/>
            <path id="Trazado_734152" data-name="Trazado 734152" d="M259.257,261.519c1.276-.2,2.044-.528,10.351.722,7.787,1.172,11.263-5.718,11.807-6.044s6.083-12.491,7.386-13.686,1.955-2.281,3.367.869a8.679,8.679,0,0,1,.652,5.648s-3.91,11.73-4.779,13.359-11.9,5.214-11.9,5.214" transform="translate(-56.878 -52.942)" fill="#a37166"/>
            <path id="Trazado_734153" data-name="Trazado 734153" d="M298.067,245.1a10.078,10.078,0,0,1,2.428-4.96c1.1-1.412,3.477-1.973,4.669-.634.845.948.767,2.385.545,3.635a45.948,45.948,0,0,1-2.5,8.2c-2.716,7.143-5.906,14.464-11.755,19.383l-5.441-.968-1.846-8.8,8.58-4.888Z" transform="translate(-62.343 -52.377)" fill="#a37166"/>
            <path id="Trazado_734154" data-name="Trazado 734154" d="M276.618,259.1s-4.6,3-4.5,7.7-1.3,86.281-1.3,86.281l6.582-.468s-1.046-85.824-1.1-86.567,1.6-2.141,2.186-3.434,1.175-5.243-1.86-3.513" transform="translate(-59.414 -56.75)" fill="#ffa031"/>
            <path id="Trazado_734155" data-name="Trazado 734155" d="M299.046,247.022a6.027,6.027,0,0,1-.2,1.116c-.162.712-.429,1.734-.81,2.983a51.176,51.176,0,0,1-4.006,9.37,44.252,44.252,0,0,1-5.841,8.36,6.065,6.065,0,0,1-2.612,1.678,3.43,3.43,0,0,1-.841.123.818.818,0,0,1-.3-.027c0-.043.411-.02,1.091-.247a6.286,6.286,0,0,0,2.453-1.727,49.763,49.763,0,0,0,5.69-8.356,58.676,58.676,0,0,0,4.089-9.264c.414-1.23.722-2.236.93-2.933a6.069,6.069,0,0,1,.357-1.076" transform="translate(-62.403 -54.194)" fill="#7c554e"/>
            <path id="Trazado_734156" data-name="Trazado 734156" d="M68.49,323.963a3.317,3.317,0,0,1,.121.523c.07.377.165.884.286,1.525l1.006,5.718c.835,4.92,2,11.793,3.353,19.755l.006.039-.009.039c-.827,3.413-1.721,7.108-2.648,10.936-2.574,10.5-4.9,20-6.6,26.913-.858,3.414-1.554,6.189-2.045,8.145q-.365,1.4-.576,2.209c-.065.233-.117.42-.16.572a.7.7,0,0,1-.068.191.812.812,0,0,1,.028-.2c.032-.154.071-.345.12-.582l.5-2.227c.461-1.963,1.115-4.748,1.92-8.175L70.21,362.4c.933-3.827,1.833-7.52,2.664-10.932l0,.078c-1.293-7.972-2.411-14.853-3.21-19.778-.378-2.425-.681-4.367-.895-5.737-.094-.646-.168-1.156-.222-1.535a3.3,3.3,0,0,1-.055-.534" transform="translate(-13.417 -71.074)" fill="#263238"/>
            <g id="Grupo_1033474" data-name="Grupo 1033474" transform="translate(74.382 189.774)" opacity="0.3">
              <g id="Grupo_1033473" data-name="Grupo 1033473">
                <g id="Grupo_1033472" data-name="Grupo 1033472" clip-path="url(#clip-path-8)">
                  <path id="Trazado_734157" data-name="Trazado 734157" d="M138.163,302.464,106.7,255.914l4.766-4.2-16.18-8.605,18.707,8.057-4.158,4.747,27.623,42.491Z" transform="translate(-95.287 -243.11)"/>
                </g>
              </g>
            </g>
            <path id="Trazado_734158" data-name="Trazado 734158" d="M274.939,379.4a6.184,6.184,0,0,0-3.128-7.058,3.946,3.946,0,0,1-1.671-1.065,3.81,3.81,0,0,1-.216-2.478,6.891,6.891,0,0,0-8.731-7.163,7.227,7.227,0,0,0-9.16-6.253l-.562,24.431Z" transform="translate(-55.171 -77.909)" fill="#fff"/>
            <path id="Trazado_734159" data-name="Trazado 734159" d="M274.823,380.085a11.808,11.808,0,0,0,.289-1.545,6.2,6.2,0,0,0-1.057-4.019,6.019,6.019,0,0,0-2.183-1.88,3.37,3.37,0,0,1-1.854-2.9,7.509,7.509,0,0,1,.108-.931,7.173,7.173,0,0,0,.049-.91,6.978,6.978,0,0,0-.262-1.856A6.258,6.258,0,0,0,267.8,362.8a6.937,6.937,0,0,0-7.011-.949l-.259.118-.008-.284a7.023,7.023,0,0,0-1.8-4.48,6.865,6.865,0,0,0-3.262-2,7.38,7.38,0,0,0-2.523-.245c-.592.047-.908.123-.914.1,0-.01.073-.037.224-.08a4.921,4.921,0,0,1,.678-.136,6.9,6.9,0,0,1,2.593.145,6.983,6.983,0,0,1,3.437,2.006,7.3,7.3,0,0,1,1.945,4.684l-.266-.166a7.277,7.277,0,0,1,7.423.974,6.624,6.624,0,0,1,2.243,3.453,7.317,7.317,0,0,1,.265,1.961,7.485,7.485,0,0,1-.058.959,7.141,7.141,0,0,0-.112.886,3.029,3.029,0,0,0,1.638,2.6,6.081,6.081,0,0,1,3.239,6.213A5.571,5.571,0,0,1,275,379.71a1.439,1.439,0,0,1-.173.375" transform="translate(-55.291 -77.834)" fill="#263238"/>
            <g id="Grupo_1033477" data-name="Grupo 1033477" transform="translate(171.8 182.979)" opacity="0.3">
              <g id="Grupo_1033476" data-name="Grupo 1033476">
                <g id="Grupo_1033475" data-name="Grupo 1033475" clip-path="url(#clip-path-9)">
                  <path id="Trazado_734160" data-name="Trazado 734160" d="M220.085,234.405l1.322,38.392a47.452,47.452,0,0,0-1.322-38.392" transform="translate(-220.084 -234.405)"/>
                </g>
              </g>
            </g>
          </g>
        </g>
        <g id="Grupo_1033481" data-name="Grupo 1033481">
          <g id="Grupo_1033480" data-name="Grupo 1033480" clip-path="url(#clip-path-2)">
            <path id="Trazado_734161" data-name="Trazado 734161" d="M349.8,421.992c0,.112-77.433.2-172.928.2-95.529,0-172.945-.091-172.945-.2s77.416-.2,172.945-.2c95.5,0,172.928.091,172.928.2" transform="translate(-0.862 -92.536)" fill="#263238"/>
          </g>
        </g>
      </g>
    </g>
  </g>
</svg>
