<svg xmlns="http://www.w3.org/2000/svg" xmlns:xlink="http://www.w3.org/1999/xlink" width="176" height="176" viewBox="0 0 176 176">
  <defs>
    <clipPath id="clip-path">
      <circle id="Elipse_8399" data-name="Elipse 8399" cx="88" cy="88" r="88" fill="#fff"/>
    </clipPath>
  </defs>
  <g id="Grupo_1036342" data-name="Grupo 1036342" transform="translate(-1079.999 -1152.634)">
    <g id="Grupo_1029830" data-name="Grupo 1029830" transform="translate(1080.367 1152.634)">
      <circle id="Elipse_8399-2" data-name="Elipse 8399" cx="88" cy="88" r="88" transform="translate(-0.368)" fill="#fff"/>
    </g>
    <g id="Grupo_1033430" data-name="Grupo 1033430" transform="translate(1080.367 1152.634)">
      <g id="Enmascarar_grupo_1030776" data-name="Enmascarar grupo 1030776" transform="translate(-0.368)" clip-path="url(#clip-path)">
        <g id="plato-de-evaporacion" transform="translate(36.4 16.828)">
          <g id="Grupo_1033455" data-name="Grupo 1033455" transform="translate(2.457 2.457)">
            <g id="Grupo_1033441" data-name="Grupo 1033441" transform="translate(88.458 90.915)">
              <path id="Trazado_733989" data-name="Trazado 733989" d="M114.861,107.871v54.057a2.456,2.456,0,0,1-2.457,2.457h-4.914a2.456,2.456,0,0,1-2.457-2.457V115.242C111.2,113.188,114.861,110.635,114.861,107.871Z" transform="translate(-105.032 -107.871)" fill="#969faa"/>
            </g>
            <g id="Grupo_1033442" data-name="Grupo 1033442" transform="translate(0 90.915)">
              <path id="Trazado_733990" data-name="Trazado 733990" d="M12.667,115.242v46.686a2.456,2.456,0,0,1-2.457,2.457H5.3a2.456,2.456,0,0,1-2.457-2.457V107.871C2.839,110.635,6.5,113.188,12.667,115.242Z" transform="translate(-2.839 -107.871)" fill="#969faa"/>
            </g>
            <g id="Grupo_1033443" data-name="Grupo 1033443" transform="translate(0 81.086)">
              <path id="Trazado_733991" data-name="Trazado 733991" d="M101.125,96.516v9.829c0,2.764-3.658,5.317-9.829,7.371-8.966,2.985-23.239,4.914-39.315,4.914s-30.349-1.929-39.315-4.914c-6.171-2.055-9.829-4.607-9.829-7.371V96.516c0,6.785,22,12.286,49.143,12.286S101.125,103.3,101.125,96.516Z" transform="translate(-2.839 -96.516)" fill="#aab2bd"/>
            </g>
            <g id="Grupo_1033444" data-name="Grupo 1033444" transform="translate(49.143 73.06)">
              <path id="Trazado_733992" data-name="Trazado 733992" d="M96.823,87.244c7.436,2.153,11.933,4.957,11.933,8.026,0,6.785-22,12.286-49.143,12.286A44.293,44.293,0,0,0,96.823,87.244Z" transform="translate(-59.613 -87.244)" fill="#ccd1d9"/>
            </g>
            <g id="Grupo_1033445" data-name="Grupo 1033445" transform="translate(0 73.06)">
              <path id="Trazado_733993" data-name="Trazado 733993" d="M14.771,87.244a44.191,44.191,0,0,0,37.211,20.311c-27.142,0-49.143-5.5-49.143-12.286C2.839,92.2,7.335,89.4,14.771,87.244Z" transform="translate(-2.839 -87.244)" fill="#ccd1d9"/>
            </g>
            <g id="Grupo_1033446" data-name="Grupo 1033446" transform="translate(29.486 132.686)">
              <path id="Trazado_733994" data-name="Trazado 733994" d="M76.218,156.129v9.829c0,2.715-8.8,4.914-19.657,4.914s-19.657-2.2-19.657-4.914v-9.829c0,2.715,8.8,4.914,19.657,4.914S76.218,158.844,76.218,156.129Z" transform="translate(-36.903 -156.129)" fill="#aab2bd"/>
            </g>
            <g id="Grupo_1033447" data-name="Grupo 1033447" transform="translate(29.486 127.772)">
              <ellipse id="Elipse_8463" data-name="Elipse 8463" cx="19.657" cy="4.914" rx="19.657" ry="4.914" fill="#ccd1d9"/>
            </g>
            <g id="Grupo_1033448" data-name="Grupo 1033448" transform="translate(39.315 105.658)">
              <path id="Trazado_733995" data-name="Trazado 733995" d="M58.087,147.018,52.2,144.078A7.142,7.142,0,0,1,50.35,132.64l7.737-7.737,7.737,7.737a7.141,7.141,0,0,1-1.855,11.438Z" transform="translate(-48.258 -124.903)" fill="#ff826e"/>
            </g>
            <g id="Grupo_1033449" data-name="Grupo 1033449" transform="translate(5.363 55.461)">
              <path id="Trazado_733996" data-name="Trazado 733996" d="M96.595,66.912a44.234,44.234,0,0,1-87.561,0c3.065,4.764,21.5,8.425,43.78,8.425s40.718-3.661,43.78-8.425Z" transform="translate(-9.034 -66.912)" fill="#ffa031"/>
            </g>
            <g id="Grupo_1033450" data-name="Grupo 1033450" transform="translate(4.914 44.229)">
              <path id="Trazado_733997" data-name="Trazado 733997" d="M96.974,53.935V58.85a44.663,44.663,0,0,1-.448,6.318c-3.062,4.764-21.5,8.425-43.78,8.425S12.03,69.932,8.965,65.168a44.663,44.663,0,0,1-.448-6.318V53.935c0,5.427,19.8,9.829,44.229,9.829s44.229-4.4,44.229-9.829Z" transform="translate(-8.516 -53.935)" fill="#ffa031"/>
            </g>
            <g id="Grupo_1033451" data-name="Grupo 1033451" transform="translate(4.914 34.4)">
              <path id="Trazado_733998" data-name="Trazado 733998" d="M70.627,43.416c15.517,1.527,26.347,4.979,26.347,8.993,0,5.427-19.8,9.829-44.229,9.829s-44.229-4.4-44.229-9.829c0-3.781,9.607-7.064,23.7-8.708a6.167,6.167,0,0,0,10.053,1.987l.651-.651,4.914-2.457,1.143,2.282A4.759,4.759,0,0,0,56.6,46.1l1.063-1.063.049.049a8.225,8.225,0,0,0,12.919-1.671Z" transform="translate(-8.516 -42.581)" fill="#69d6f4"/>
            </g>
            <g id="Grupo_1033452" data-name="Grupo 1033452" transform="translate(68.8 14.743)">
              <circle id="Elipse_8464" data-name="Elipse 8464" cx="4.914" cy="4.914" r="4.914" fill="#4fc1e9"/>
            </g>
            <g id="Grupo_1033453" data-name="Grupo 1033453" transform="translate(49.143)">
              <circle id="Elipse_8465" data-name="Elipse 8465" cx="7.371" cy="7.371" r="7.371" fill="#4fc1e9"/>
            </g>
            <g id="Grupo_1033454" data-name="Grupo 1033454" transform="translate(34.4 14.743)">
              <circle id="Elipse_8466" data-name="Elipse 8466" cx="4.914" cy="4.914" r="4.914" fill="#4fc1e9"/>
            </g>
          </g>
          <g id="Grupo_1033456" data-name="Grupo 1033456">
            <path id="Trazado_733999" data-name="Trazado 733999" d="M92.488,78.981a46.4,46.4,0,0,0,5.8-22.513V51.554c0-3.187-2.954-5.725-9.031-7.759A85.786,85.786,0,0,0,72.878,40.46l.764-3.054-4.767-1.192-.9,3.6A5.768,5.768,0,0,1,58.3,42.5L56.517,40.7l-2.8,2.8a2.3,2.3,0,0,1-3.689-.6l-1.141-2.283-4.4,2.2,1.141,2.283a7.219,7.219,0,0,0,11.045,2.344,10.695,10.695,0,0,0,13.994-2.3A88.618,88.618,0,0,1,87,48.228c5.3,1.663,6.236,3.086,6.362,3.331-.288.69-2.956,2.862-11.927,4.742A152.392,152.392,0,0,1,51.6,58.925,152.392,152.392,0,0,1,21.768,56.3c-8.995-1.885-11.653-4.064-11.929-4.748.352-.871,4.545-4.1,19.907-6.07A8.619,8.619,0,0,0,42.858,46.57l.651-.65-3.475-3.475-.651.651a3.711,3.711,0,0,1-6.225-1.724l-1.289-5.156L27.1,37.407l.84,3.361A76.472,76.472,0,0,0,13.1,44.087c-2.026.729-8.19,2.948-8.19,7.467v4.914a46.4,46.4,0,0,0,5.8,22.513C3.6,81.484,0,84.649,0,88.411V152.3a4.92,4.92,0,0,0,4.914,4.914H9.829a4.92,4.92,0,0,0,4.914-4.914V108.915c.493.134.995.267,1.512.4,8.65,2.163,19.871,3.437,31.9,3.642l-6.029,6.029a9.6,9.6,0,0,0,.648,14.165c-6.248.736-13.288,2.527-13.288,6.864v9.829c0,7.016,18.422,7.371,22.114,7.371s22.114-.355,22.114-7.371v-9.829c0-4.337-7.039-6.128-13.287-6.865a9.6,9.6,0,0,0,.647-14.165l-6.029-6.029c12.029-.2,23.25-1.479,31.9-3.642.518-.129,1.019-.262,1.512-.4V152.3a4.92,4.92,0,0,0,4.914,4.914h4.914A4.92,4.92,0,0,0,103.2,152.3V88.411c0-3.762-3.6-6.927-10.713-9.43Zm5.8,9.43c0,.882-2.252,3.733-12.532,6.3a102.25,102.25,0,0,1-10.507,1.992A47.046,47.046,0,0,0,89.809,83.263C96.709,85.506,98.286,87.707,98.286,88.411ZM51.6,98.24A41.845,41.845,0,0,1,11.514,68.218c8.768,3.735,25.03,5.45,40.087,5.45s31.318-1.715,40.087-5.451A41.845,41.845,0,0,1,51.6,98.24ZM19.793,60.9c8.524,1.894,19.82,2.937,31.808,2.937S74.884,62.8,83.408,60.9a42.005,42.005,0,0,0,9.947-3.278q-.058,2.119-.323,4.183C90.156,64.83,74.844,68.754,51.6,68.754S13.046,64.83,10.169,61.807a41.806,41.806,0,0,1-.323-4.183A42,42,0,0,0,19.793,60.9Zm-6.4,22.36A47.046,47.046,0,0,0,27.954,96.707a102.332,102.332,0,0,1-10.507-1.992c-10.281-2.57-12.532-5.422-12.532-6.3,0-.7,1.577-2.905,8.477-5.148ZM9.829,152.3H4.914V105.038a29.575,29.575,0,0,0,4.914,2.313Zm39.315-14.7v4.837c-7.324-.232-12.162-1.466-14.074-2.418C36.981,139.058,41.819,137.824,49.143,137.593ZM51.6,152.3c-9.9,0-15.928-1.814-17.2-2.869V145.04c5.732,2.184,14.738,2.343,17.2,2.343s11.468-.159,17.2-2.343v4.388C67.528,150.483,61.5,152.3,51.6,152.3Zm2.457-9.867v-4.837c7.324.232,12.162,1.466,14.074,2.418C66.219,140.964,61.382,142.2,54.057,142.43Zm4.914-16.66a4.659,4.659,0,0,1-2.589,4.189l-2.325,1.163v-8.31H49.143v8.31l-2.325-1.163a4.683,4.683,0,0,1-1.217-7.5l6-6,6,6A4.654,4.654,0,0,1,58.972,125.769Zm34.4,26.528V107.352a29.574,29.574,0,0,0,4.914-2.313V152.3Zm-7.618-47.754c-9.093,2.273-21.222,3.525-34.154,3.525s-25.061-1.252-34.154-3.525c-10.281-2.57-12.532-5.422-12.532-6.3v-3.03a42.1,42.1,0,0,0,11.34,4.273c9.471,2.368,22.024,3.672,35.346,3.672s25.874-1.3,35.346-3.672a42.093,42.093,0,0,0,11.34-4.273v3.03C98.286,99.121,96.035,101.973,85.754,104.543Z" transform="translate(0 -4.868)" fill="#12263f"/>
            <path id="Trazado_734000" data-name="Trazado 734000" d="M66.6,19.657a9.829,9.829,0,1,0-9.829-9.829A9.84,9.84,0,0,0,66.6,19.657Zm0-14.743a4.914,4.914,0,1,1-4.914,4.914A4.92,4.92,0,0,1,66.6,4.914Z" transform="translate(-7.631)" fill="#12263f"/>
            <path id="Trazado_734001" data-name="Trazado 734001" d="M86.855,31.775A7.371,7.371,0,1,0,79.484,24.4,7.38,7.38,0,0,0,86.855,31.775Zm0-9.829A2.457,2.457,0,1,1,84.4,24.4,2.46,2.46,0,0,1,86.855,21.947Z" transform="translate(-10.683 -2.289)" fill="#12263f"/>
            <path id="Trazado_734002" data-name="Trazado 734002" d="M39.742,24.4a7.371,7.371,0,1,0,7.371-7.371A7.38,7.38,0,0,0,39.742,24.4Zm9.829,0a2.457,2.457,0,1,1-2.457-2.457A2.46,2.46,0,0,1,49.571,24.4Z" transform="translate(-5.342 -2.289)" fill="#12263f"/>
            <path id="Trazado_734003" data-name="Trazado 734003" d="M31.564,29.529l3.476-3.474-.366-.366a4.684,4.684,0,0,1,1.218-7.5l2.325-1.163v-1.94a4.493,4.493,0,0,1,7.669-3.177l.422.422,3.475-3.475-.422-.422a9.408,9.408,0,0,0-15.992,5.53,9.6,9.6,0,0,0-2.169,15.2Z" transform="translate(-3.816 -0.763)" fill="#12263f"/>
            <path id="Trazado_734004" data-name="Trazado 734004" d="M57.557,33.693l-.483.967,4.4,2.2.483-.967a4.684,4.684,0,0,1,7.5-1.218l.366.365L73.3,31.564l-.366-.366a9.6,9.6,0,0,0-15.372,2.495Z" transform="translate(-7.671 -3.816)" fill="#12263f"/>
          </g>
        </g>
      </g>
    </g>
  </g>
</svg>
