<svg xmlns="http://www.w3.org/2000/svg" xmlns:xlink="http://www.w3.org/1999/xlink" width="176" height="176" viewBox="0 0 176 176">
  <defs>
    <clipPath id="clip-path">
      <circle id="Elipse_8399" data-name="Elipse 8399" cx="88" cy="88" r="88" transform="translate(-0.438)" fill="#fff"/>
    </clipPath>
  </defs>
  <g id="Grupo_1036345" data-name="Grupo 1036345" transform="translate(-711 -4142)">
    <g id="Grupo_1029850" data-name="Grupo 1029850" transform="translate(711.438 4142)">
      <circle id="Elipse_8399-2" data-name="Elipse 8399" cx="88" cy="88" r="88" transform="translate(-0.438)" fill="#fff"/>
    </g>
    <g id="Grupo_1033603" data-name="Grupo 1033603" transform="translate(711.438 4142)">
      <g id="Enmascarar_grupo_1030780" data-name="Enmascarar grupo 1030780" clip-path="url(#clip-path)">
        <g id="horno-de-piedra" transform="translate(21.789 18.759)">
          <path id="Trazado_734714" data-name="Trazado 734714" d="M101.453,76.96A38.337,38.337,0,0,0,36,104.071V129.15H48.288V104.071a26.052,26.052,0,1,1,52.1,0V129.15H112.68V104.071A38.219,38.219,0,0,0,101.453,76.96Z" transform="translate(-8.566 -19.532)" fill="#cc8027"/>
          <path id="Trazado_734715" data-name="Trazado 734715" d="M100.822,9.214V50.691a38.4,38.4,0,0,0-32.373,0V9.214a2.17,2.17,0,0,1,2.173-2.173H98.649a2.17,2.17,0,0,1,2.173,2.173Z" transform="translate(-18.862 -0.914)" fill="#cc8027"/>
          <path id="Trazado_734716" data-name="Trazado 734716" d="M80.051,83.734A26.048,26.048,0,0,0,54,109.791v25.073h52.1V109.786A26.052,26.052,0,0,0,80.051,83.734Z" transform="translate(-14.277 -25.247)" fill="#ffdeb7"/>
          <rect id="Rectángulo_352754" data-name="Rectángulo 352754" width="109.614" height="12.736" rx="6.368" transform="translate(10.966 109.615)" fill="#cc8027"/>
          <path id="Trazado_734717" data-name="Trazado 734717" d="M97.043,140.663c12.4-13.108-3.34-25.717-7.191-29.068a4.651,4.651,0,0,1-1.579-3.065,10.758,10.758,0,0,1,1.288-5.679.55.55,0,0,0-.587-.821C79.649,104.7,79.3,115.575,79.3,115.575c.006-5.008-4.215-6.887-6.177-8.061a.549.549,0,0,0-.781.625l.461,2.551a14.831,14.831,0,0,1-3.293,12.249,14.617,14.617,0,0,0-2.595,14.633l1.233,3.093Z" transform="translate(-18.082 -31.048)" fill="#ffa031"/>
          <path id="Trazado_734718" data-name="Trazado 734718" d="M89.406,132.531c-.388,3.284-3.472,5.6-4.857,6.482a6.238,6.238,0,0,0-2.2,2.534c-1.932,3.913.754,8.8.754,8.8H94.678c4.856-9.631-5.273-17.815-5.273-17.815Z" transform="translate(-23.052 -40.73)" fill="#f9d335"/>
          <path id="Trazado_734719" data-name="Trazado 734719" d="M83.737,83.992a26.048,26.048,0,0,0-22.365,25.794v25.079H54V109.786A26.063,26.063,0,0,1,83.737,83.995Z" transform="translate(-14.277 -25.247)" fill="#ffdeb7"/>
          <path id="Trazado_734720" data-name="Trazado 734720" d="M116.5,109.786v25.079h-7.373V109.786A26.056,26.056,0,0,0,86.761,84,26.063,26.063,0,0,1,116.5,109.786Z" transform="translate(-24.672 -25.247)" fill="#ffdeb7"/>
          <g id="Grupo_1033604" data-name="Grupo 1033604" transform="translate(47.908 76.404)">
            <path id="Trazado_734721" data-name="Trazado 734721" d="M79.3,118a14.655,14.655,0,0,1-3.367,7.462,14.275,14.275,0,0,0-2.355,3.8,14.583,14.583,0,0,0-.241,10.834l1.234,3.092H68.146L66.912,140.1a14.669,14.669,0,0,1-.855-6.508,14.93,14.93,0,0,1,1.1-4.326,14.274,14.274,0,0,1,2.354-3.8A14.828,14.828,0,0,0,72.8,113.215l-.457-2.551a.548.548,0,0,1,.782-.624c1.951,1.17,6.13,3.028,6.174,7.963Z" transform="translate(-65.99 -109.978)" fill="#ffa031"/>
            <path id="Trazado_734722" data-name="Trazado 734722" d="M85.6,120.2c-.02.334-.059.664-.108.993C85.506,121,85.535,120.66,85.6,120.2Z" transform="translate(-72.178 -113.221)" fill="#ffa031"/>
            <path id="Trazado_734723" data-name="Trazado 734723" d="M85.489,121.7c0,.049,0,.084,0,.1v-.079A.214.214,0,0,0,85.489,121.7Z" transform="translate(-72.175 -113.696)" fill="#ffa031"/>
          </g>
          <path id="Trazado_734724" data-name="Trazado 734724" d="M104.01,140.664H96.636c12.407-13.109-3.338-25.718-7.191-29.07a4.639,4.639,0,0,1-1.5-2.556,12.435,12.435,0,0,1,7.993-7,.55.55,0,0,1,.59.821,10.684,10.684,0,0,0-1.288,5.677,4.649,4.649,0,0,0,1.578,3.062c3.854,3.355,19.6,15.96,7.191,29.07Z" transform="translate(-25.048 -31.049)" fill="#ffa031"/>
          <path id="Trazado_734725" data-name="Trazado 734725" d="M77.995,7.038A2.17,2.17,0,0,0,75.822,9.21v38.92a38.123,38.123,0,0,0-7.373,2.556V9.213A2.17,2.17,0,0,1,70.621,7.04Z" transform="translate(-18.862 -0.913)" fill="#99601d"/>
          <path id="Trazado_734726" data-name="Trazado 734726" d="M111.431,9.214V50.691a38.124,38.124,0,0,0-7.373-2.556V9.214a2.17,2.17,0,0,0-2.173-2.173h7.373a2.17,2.17,0,0,1,2.173,2.173Z" transform="translate(-29.471 -0.914)" fill="#99601d"/>
          <path id="Trazado_734727" data-name="Trazado 734727" d="M115.665,107.648H106.08V84.539A40.3,40.3,0,0,0,83.926,48.551V8.3a4.144,4.144,0,0,0-4.139-4.139H51.759A4.144,4.144,0,0,0,47.62,8.3V48.547A40.47,40.47,0,0,0,25.467,84.539v23.112H15.881A6.889,6.889,0,0,0,9,114.532v2.906a6.889,6.889,0,0,0,6.882,6.882h99.783a6.889,6.889,0,0,0,6.882-6.882v-2.906A6.889,6.889,0,0,0,115.665,107.648Zm-32.663,0c6.783-10.606-.472-20.415-9.941-28.585-1.648-1.433-.814-4.447.169-6.363a2.516,2.516,0,0,0-2.877-3.608,14.545,14.545,0,0,0-9.665,9,19.067,19.067,0,0,0-4.635-3.317,2.441,2.441,0,0,0-2.668.09c-1.7,1.174-.978,3.02-.6,5.122A12.866,12.866,0,0,1,49.94,90.6a16.589,16.589,0,0,0-2.775,17.045H41.687V84.539A23.994,23.994,0,0,1,48.74,67.507C63.861,52.4,89.859,63.121,89.859,84.539v23.112Zm-21.677,0c-1.573-4.031-.451-6.636,1.229-7.707a14.52,14.52,0,0,0,4.6-4.585c2.2,2.528,5.12,7.138,3.188,12.293Zm6.266-17.376a1.966,1.966,0,0,0-3.188,1.3c-.3,2.536-3.109,4.51-3.963,5.056-2.949,1.882-4.741,5.807-3.256,11.022H51.4a14.5,14.5,0,0,1-1.469-7.437,12.78,12.78,0,0,1,2.986-7.038,16.829,16.829,0,0,0,3.83-13.334,5.491,5.491,0,0,1,2.507,4.685,1.967,1.967,0,0,0,3.932.065c0-.081.29-6.974,5.309-10.36-.929,3.99.231,6.282,2.482,8.227,8.889,7.649,14.886,16.335,7.12,25.191H74.457C76.436,100,71.089,93.1,67.592,90.272ZM29.4,84.539A36.128,36.128,0,0,1,30.945,74.1l7.485,4.321a28.247,28.247,0,0,0-.674,6.118v5.88H29.4ZM50.418,51.556a35.926,35.926,0,0,1,13.389-3.343v8.379a27.761,27.761,0,0,0-13.1,4.317L46.53,53.673a36.11,36.11,0,0,1,3.888-2.117Zm34.6,2.114-4.19,7.256A27.817,27.817,0,0,0,67.739,56.6V48.214A36.073,36.073,0,0,1,85.019,53.67Zm17.129,30.869v5.88H93.791c0-6.153.155-8.258-.68-11.994l7.517-4.34a36.522,36.522,0,0,1,1.52,10.454Zm-8.356,9.812h8.356v13.3H93.791Zm5.48-24.024-7.324,4.227a28.125,28.125,0,0,0-7.941-11.265l4.243-7.348A36.722,36.722,0,0,1,91.5,58.818a36.325,36.325,0,0,1,7.774,11.506ZM51.553,8.3a.2.2,0,0,1,.206-.206H79.787a.2.2,0,0,1,.206.206V46.812a40.4,40.4,0,0,0-28.355-.03l-.086.03ZM43.3,55.948l4.231,7.328c-.538.463-1.066.94-1.573,1.447a27.93,27.93,0,0,0-6.371,9.824l-7.28-4.2A36.644,36.644,0,0,1,43.3,55.948Zm-13.9,38.4h8.356v13.3H29.4Zm89.215,23.087a2.953,2.953,0,0,1-2.949,2.949H15.881a2.953,2.953,0,0,1-2.949-2.949V114.53a2.953,2.953,0,0,1,2.949-2.949h99.783a2.953,2.953,0,0,1,2.949,2.949Z" fill="#12263f"/>
          <path id="Trazado_734728" data-name="Trazado 734728" d="M103.964,26.456a1.966,1.966,0,0,0,1.966-1.966V17.608a1.966,1.966,0,0,0-3.932,0v6.882A1.966,1.966,0,0,0,103.964,26.456Z" transform="translate(-29.507 -3.642)" fill="#5f266d"/>
          <path id="Trazado_734729" data-name="Trazado 734729" d="M103.964,41.928a1.966,1.966,0,0,0,1.966-1.966V38.487a1.966,1.966,0,0,0-3.932,0v1.475A1.966,1.966,0,0,0,103.964,41.928Z" transform="translate(-29.507 -10.267)" fill="#5f266d"/>
        </g>
      </g>
    </g>
  </g>
</svg>
