<svg xmlns="http://www.w3.org/2000/svg" xmlns:xlink="http://www.w3.org/1999/xlink" width="176" height="176" viewBox="0 0 176 176">
  <defs>
    <clipPath id="clip-path">
      <circle id="Elipse_8399" data-name="Elipse 8399" cx="88" cy="88" r="88" transform="translate(-0.368)" fill="#fff"/>
    </clipPath>
  </defs>
  <g id="Grupo_1036347" data-name="Grupo 1036347" transform="translate(-8913 7238.5)">
    <g id="Grupo_1029852" data-name="Grupo 1029852" transform="translate(8913.368 -7238.5)">
      <circle id="Elipse_8399-2" data-name="Elipse 8399" cx="88" cy="88" r="88" transform="translate(-0.368)" fill="#fff"/>
    </g>
    <g id="Grupo_1033636" data-name="Grupo 1033636" transform="translate(8913.368 -7238.5)">
      <g id="Enmascarar_grupo_1030782" data-name="Enmascarar grupo 1030782" clip-path="url(#clip-path)">
        <g id="fuego" transform="translate(13.101 13.449)">
          <path id="Trazado_734757" data-name="Trazado 734757" d="M6.609,111.617H25.844v51.631H6.609Zm0,0" transform="translate(-1.01 -17.059)" fill="#d1ddde"/>
          <path id="Trazado_734758" data-name="Trazado 734758" d="M35.319,82.775h89.219v19.236H35.319Zm0,0" transform="translate(-5.398 -12.651)" fill="#d1ddde"/>
          <path id="Trazado_734759" data-name="Trazado 734759" d="M92.438,69.007,89.4,80.654H80.941L77.725,68.835a26.2,26.2,0,0,0,7.454,1.113,27.342,27.342,0,0,0,7.259-.94Zm0,0" transform="translate(-11.879 -10.52)" fill="#f6838d"/>
          <path id="Trazado_734760" data-name="Trazado 734760" d="M6.609,107.209V107.1A24.322,24.322,0,0,1,30.931,82.775v19.236a5.087,5.087,0,0,0-5.087,5.086v.113H6.609Zm0,0" transform="translate(-1.01 -12.651)" fill="#8690a6"/>
          <path id="Trazado_734761" data-name="Trazado 734761" d="M165.874,163.248V111.617H146.638v.028h0v51.6Zm0,0" transform="translate(-22.411 -17.059)" fill="#d1ddde"/>
          <path id="Trazado_734762" data-name="Trazado 734762" d="M164.956,107.209V107.1a24.323,24.323,0,0,0-24.322-24.322v19.236a5.087,5.087,0,0,1,5.087,5.086v.113h19.235Zm0,0" transform="translate(-21.493 -12.651)" fill="#8690a6"/>
          <path id="Trazado_734763" data-name="Trazado 734763" d="M99.589,19.135a30.027,30.027,0,0,1-8.147,11.7C80,20.9,82.493,3.437,82.493,3.437c-13.687,11.554-10.132,31.3-10.422,31.575-5.855-1.28-10.587-8.983-10.587-8.983-1.155,9.642-2.3,19.175,5.285,27.85,3.561,4.068,10.208,6.072,15.8,6.072,5.435,0,11.263-1.439,15.228-5.365,4.757-4.709,5.882-11.78,5.557-18.2a49.645,49.645,0,0,0-1.536-9.8,63.018,63.018,0,0,0-2.23-7.456Zm0,0" transform="translate(-9.269 -0.525)" fill="#ffa031"/>
          <path id="Trazado_734764" data-name="Trazado 734764" d="M73.506,82.775H95.485v19.236H73.506Zm0,0" transform="translate(-11.234 -12.651)" fill="#8690a6"/>
          <path id="Trazado_734765" data-name="Trazado 734765" d="M146.112,151.869a2.912,2.912,0,0,0-2.912,2.912V169.4a2.912,2.912,0,0,0,5.824,0V154.835c0-.018,0-.035,0-.053A2.913,2.913,0,0,0,146.112,151.869Zm0,0" transform="translate(-21.886 -23.211)" fill="#12263f"/>
          <path id="Trazado_734766" data-name="Trazado 734766" d="M149.061,94.558a2.911,2.911,0,0,0-2.83-2.908,27.284,27.284,0,0,0-24.179-24.282,2.909,2.909,0,0,0-5.813-.156H81.292l1.681-6.441a20.362,20.362,0,0,0,7.6-4.641c4.641-4.595,6.861-11.655,6.417-20.417a52.76,52.76,0,0,0-1.623-10.372c-.069-.271-.124-.5-.177-.723a69.429,69.429,0,0,0-2.112-6.935,2.912,2.912,0,0,0-5.461-.163,29.47,29.47,0,0,1-5.427,8.713c-7.914-8.958-6.105-22.765-6.086-22.909A2.912,2.912,0,0,0,71.346.687c-5.583,4.712-9.215,11.158-10.8,19.16a48.058,48.058,0,0,0-.87,9.808A25.053,25.053,0,0,1,54.7,23.98a2.913,2.913,0,0,0-5.374,1.179l0,.033c-1.2,10.048-2.445,20.438,5.99,30.08a19.74,19.74,0,0,0,8.133,5.3l1.808,6.641H32.822a2.91,2.91,0,0,0-5.814.157A27.284,27.284,0,0,0,2.829,91.65a2.91,2.91,0,0,0-.142,5.809v48.729a2.912,2.912,0,0,0,5.824,0V97.47H21.922v48.719a2.912,2.912,0,0,0,5.824,0V94.446a2.178,2.178,0,0,1,2.175-2.175H119.14a2.177,2.177,0,0,1,2.174,2.175v10.886a2.912,2.912,0,0,0,5.824,0V97.47H140.55v48.719a2.912,2.912,0,0,0,5.824,0V97.459a2.91,2.91,0,0,0,2.687-2.9ZM59.692,51.436c-5.064-5.789-5.755-11.911-5.3-18.675a16.954,16.954,0,0,0,7.785,4.572A2.912,2.912,0,0,0,64.8,36.6c1.041-.984.962-2.068.87-3.324C65,24.025,66.53,16.466,70.22,10.7c.528,6.474,2.71,15.433,10.043,21.8a2.915,2.915,0,0,0,3.705.094,29.272,29.272,0,0,0,5.616-6.4c.044.182.091.372.146.586a46.961,46.961,0,0,1,1.448,9.221c.249,4.923-.364,11.692-4.7,15.983a15.183,15.183,0,0,1-6.815,3.72,24.318,24.318,0,0,1-7.23.785,23.361,23.361,0,0,1-5.746-.969c-.052-.016-.1-.024-.156-.036a15.379,15.379,0,0,1-6.841-4.054ZM69.9,62.129a30.191,30.191,0,0,0,6.684.047l-1.314,5.037H71.286ZM8.693,91.646A21.459,21.459,0,0,1,27.007,73.234V87a8.043,8.043,0,0,0-4.58,4.649Zm24.14-18.609H59.359V86.448H32.833ZM65.184,86.448V73.036h3.68c.066,0,.132.009.2.009h8.458c.066,0,.131,0,.2-.009h3.623V86.448Zm51.044,0H87.162V73.036h29.066Zm10.405,5.2A8.041,8.041,0,0,0,122.052,87V73.234a21.455,21.455,0,0,1,18.313,18.411Zm0,0" transform="translate(0 0)" fill="#12263f"/>
          <path id="Trazado_734767" data-name="Trazado 734767" d="M143.425,140.291a2.911,2.911,0,1,0,1.072-3.536A2.931,2.931,0,0,0,143.425,140.291Zm0,0" transform="translate(-21.887 -20.827)" fill="#12263f"/>
        </g>
      </g>
    </g>
  </g>
</svg>
