<svg xmlns="http://www.w3.org/2000/svg" xmlns:xlink="http://www.w3.org/1999/xlink" width="176" height="184" viewBox="0 0 176 184">
  <defs>
    <clipPath id="clip-path">
      <circle id="Elipse_8399" data-name="Elipse 8399" cx="88" cy="88" r="88" transform="translate(-0.368)" fill="#fff"/>
    </clipPath>
  </defs>
  <g id="Grupo_1036349" data-name="Grupo 1036349" transform="translate(-9679 7244)">
    <g id="Grupo_1029854" data-name="Grupo 1029854" transform="translate(9679.368 -7236)">
      <circle id="Elipse_8399-2" data-name="Elipse 8399" cx="88" cy="88" r="88" transform="translate(-0.368)" fill="#fff"/>
    </g>
    <g id="Grupo_1033639" data-name="Grupo 1033639" transform="translate(9679.368 -7244)">
      <g id="Enmascarar_grupo_1030784" data-name="Enmascarar grupo 1030784" clip-path="url(#clip-path)">
        <g id="sal" transform="translate(26.153 22.621)">
          <g id="Grupo_1033642" data-name="Grupo 1033642" transform="translate(0.46 13.495)">
            <g id="Grupo_1033640" data-name="Grupo 1033640" transform="translate(4.699 40.07)">
              <path id="Trazado_734774" data-name="Trazado 734774" d="M118.677,133.221,72.728,78.806a10.858,10.858,0,0,0-15.355,0l-45.8,54.263" transform="translate(-8.568 -72.615)" fill="#b1e1f8"/>
              <path id="Trazado_734775" data-name="Trazado 734775" d="M117.346,134.9a3,3,0,0,1-2.3-1.067L69.187,79.522a7.846,7.846,0,0,0-10.931,0L12.544,133.677a3.008,3.008,0,1,1-4.6-3.879l45.8-54.265c.055-.065.112-.124.171-.184a13.856,13.856,0,0,1,19.608,0,2.514,2.514,0,0,1,.171.187l45.95,54.415a3.01,3.01,0,0,1-2.3,4.951Z" transform="translate(-7.237 -71.283)" fill="#12263f"/>
            </g>
            <g id="Grupo_1033641" data-name="Grupo 1033641">
              <path id="Trazado_734776" data-name="Trazado 734776" d="M72.578,160.488H3.468a3.007,3.007,0,1,1,0-6.014H72.579a3.007,3.007,0,1,1,0,6.014Z" transform="translate(-0.46 -56.72)" fill="#12263f"/>
              <path id="Trazado_734777" data-name="Trazado 734777" d="M122.421,160.488h-1.975a3.007,3.007,0,1,1,0-6.014h1.975a3.007,3.007,0,1,1,0,6.014Z" transform="translate(-36.327 -56.72)" fill="#12263f"/>
              <path id="Trazado_734778" data-name="Trazado 734778" d="M160.856,160.488H138.384a3.007,3.007,0,1,1,0-6.014h22.472a3.007,3.007,0,1,1,0,6.014Z" transform="translate(-41.826 -56.72)" fill="#12263f"/>
              <path id="Trazado_734779" data-name="Trazado 734779" d="M86.119,120.34a3.008,3.008,0,1,1-.031-6.017h.031a3.008,3.008,0,0,1,0,6.017Zm-9.906,0a3.008,3.008,0,0,1-.03-6.017h.028a3.008,3.008,0,0,1,0,6.017Zm-9.906,0a3.008,3.008,0,1,1-.03-6.017H66.3a3.008,3.008,0,0,1,0,6.017Z" transform="translate(-19.721 -44.41)" fill="#12263f"/>
              <path id="Trazado_734780" data-name="Trazado 734780" d="M97.68,108.187a3.008,3.008,0,0,1-.028-6.017h.028a3.008,3.008,0,0,1,0,6.017Zm-9.906,0a3.008,3.008,0,1,1-.028-6.017h.028a3.008,3.008,0,0,1,0,6.017Z" transform="translate(-26.304 -40.683)" fill="#12263f"/>
              <path id="Trazado_734781" data-name="Trazado 734781" d="M75.552,104.119h-.028a3.01,3.01,0,1,1,.028,0Z" transform="translate(-22.553 -39.437)" fill="#12263f"/>
              <path id="Trazado_734782" data-name="Trazado 734782" d="M84.186,93.988a3.008,3.008,0,1,1-.028-6.015h.028a3.008,3.008,0,1,1,0,6.015Z" transform="translate(-25.204 -36.33)" fill="#12263f"/>
              <path id="Trazado_734783" data-name="Trazado 734783" d="M114.491,122.353a3.008,3.008,0,1,1-.028-6.017h.028a3.008,3.008,0,1,1,0,6.017Z" transform="translate(-34.495 -45.027)" fill="#12263f"/>
              <path id="Trazado_734784" data-name="Trazado 734784" d="M50.122,138.49a3.008,3.008,0,1,1-.03-6.017h.028a3.008,3.008,0,0,1,0,6.017Z" transform="translate(-14.76 -49.975)" fill="#12263f"/>
              <path id="Trazado_734785" data-name="Trazado 734785" d="M95.442,51.391a3.016,3.016,0,1,1,3.007-3.037v.028A3.005,3.005,0,0,1,95.442,51.391Z" transform="translate(-28.66 -23.265)" fill="#12263f"/>
              <path id="Trazado_734786" data-name="Trazado 734786" d="M87.365,19.528a3.016,3.016,0,1,1,3.007-3.039v.031A3.007,3.007,0,0,1,87.365,19.528Z" transform="translate(-26.183 -13.495)" fill="#12263f"/>
              <path id="Trazado_734787" data-name="Trazado 734787" d="M82.048,56.8a3.016,3.016,0,1,1,3.008-3.038v.028A3.008,3.008,0,0,1,82.048,56.8Zm0-9.906a3.016,3.016,0,1,1,3.008-3.041v.031A3.008,3.008,0,0,1,82.048,46.9Z" transform="translate(-24.553 -21.886)" fill="#12263f"/>
            </g>
          </g>
        </g>
      </g>
    </g>
  </g>
</svg>
