<svg xmlns="http://www.w3.org/2000/svg" xmlns:xlink="http://www.w3.org/1999/xlink" width="88" height="88" viewBox="0 0 88 88">
  <defs>
    <clipPath id="clip-path">
      <path id="Trazado_733635" data-name="Trazado 733635" d="M44,0A44,44,0,1,1,0,44,44,44,0,0,1,44,0Z" transform="translate(221 3036)" fill="#d2e1f1"/>
    </clipPath>
    <clipPath id="clip-path-2">
      <path id="path3936" d="M0-88H67.475v67.475H0Z" transform="translate(0 88)" stroke="#707070" stroke-width="2"/>
    </clipPath>
  </defs>
  <g id="Grupo_1036335" data-name="Grupo 1036335" transform="translate(-221 -3368)">
    <g id="Grupo_1036277" data-name="Grupo 1036277" transform="translate(0 -702)">
      <g id="Grupo_1029782" data-name="Grupo 1029782" transform="translate(0 3658)">
        <g id="Grupo_1036334" data-name="Grupo 1036334">
          <g id="Grupo_1013412" data-name="Grupo 1013412" transform="translate(-3 3)">
            <path id="Trazado_710239" data-name="Trazado 710239" d="M44,0A44,44,0,1,1,0,44,44,44,0,0,1,44,0Z" transform="translate(224 409)" fill="#d2e1f1"/>
          </g>
        </g>
      </g>
      <g id="Enmascarar_grupo_1026473" data-name="Enmascarar grupo 1026473" transform="translate(0 1034)" clip-path="url(#clip-path)">
        <g id="g3930" transform="translate(223.454 3126.454)">
          <g id="g3932" transform="translate(7.809 -80.191)">
            <g id="g3934" clip-path="url(#clip-path-2)">
              <g id="g3940" transform="translate(12.389 5.457)">
                <path id="path3942" d="M0-4.654H23.6v-15.3H3.954A3.954,3.954,0,0,0,0-16Z" transform="translate(0 19.954)" fill="#e8e8e8"/>
              </g>
              <g id="g3944" transform="translate(34.419 0.988)">
                <path id="path3946" d="M-.609-.327h0a1.287,1.287,0,0,0,1.428,0l1.288-.858a1.287,1.287,0,0,1,1.428,0l1.287.858a1.287,1.287,0,0,0,1.428,0l1.287-.858a1.287,1.287,0,0,1,1.428,0l1.287.858a1.287,1.287,0,0,0,1.428,0l1.287-.858a1.287,1.287,0,0,1,1.428,0l1.287.858a1.287,1.287,0,0,0,1.428,0,1.287,1.287,0,0,1,2,1.071V18.367H-2.61V.744a1.287,1.287,0,0,1,2-1.071" transform="translate(2.61 1.401)" fill="#ffa031"/>
              </g>
              <g id="g3948" transform="translate(34.42 0.99)">
                <path id="path3950" d="M-1.435-.065-2.723.793a1.287,1.287,0,0,1-1.428,0h0a1.287,1.287,0,0,0-2,1.071V19.487H-.694V-.279a1.283,1.283,0,0,0-.741.214" transform="translate(6.152 0.28)" fill="#ffdeb7"/>
              </g>
              <g id="g3952" transform="translate(17.661 10.728)">
                <path id="path3954" d="M0-3.051v-8.71a1.318,1.318,0,0,1,1.318-1.318h8.845a1.318,1.318,0,0,1,1.318,1.318v8.71Z" transform="translate(0 13.079)" fill="#d8d7da"/>
              </g>
              <g id="g3956" transform="translate(11.071 20.756)">
                <path id="path3958" d="M-12.959-10.685l2.732-35.124H-55.558l2.732,35.124,19.934,5.3Z" transform="translate(55.558 45.809)" fill="#4db1f0"/>
              </g>
              <g id="g3960" transform="translate(22.876 30.411)">
                <path id="path3962" d="M-.609-.327h0a1.287,1.287,0,0,0,1.428,0l1.288-.858a1.287,1.287,0,0,1,1.428,0l1.287.858a1.287,1.287,0,0,0,1.428,0l1.287-.858a1.287,1.287,0,0,1,1.428,0l1.287.858a1.287,1.287,0,0,0,1.428,0l1.287-.858a1.287,1.287,0,0,1,1.428,0l1.287.858a1.287,1.287,0,0,0,1.428,0,1.287,1.287,0,0,1,2,1.071V14.414a3.954,3.954,0,0,1-3.954,3.954H1.344A3.954,3.954,0,0,1-2.61,14.414V.744a1.287,1.287,0,0,1,2-1.071" transform="translate(2.61 1.401)" fill="#66d3d0"/>
              </g>
              <g id="g3964" transform="translate(11.071 20.756)">
                <path id="path3966" d="M-3.085-11.284l-2.885-37.1h-7.257L-10.5-13.256Z" transform="translate(13.228 48.38)" fill="#7de2e2"/>
              </g>
              <g id="g3968" transform="translate(7.38 16.803)">
                <path id="path3970" d="M-14.833-2.405H-59.64a3.954,3.954,0,0,1-3.954-3.954,3.954,3.954,0,0,1,3.954-3.954h44.807a3.954,3.954,0,0,1,3.954,3.954,3.954,3.954,0,0,1-3.954,3.954" transform="translate(63.594 10.312)" fill="#4db1f0"/>
              </g>
              <g id="g3972" transform="translate(7.38 16.803)">
                <path id="path3974" d="M-5.417-1.2A3.954,3.954,0,0,1-1.464-5.156H-19.272A3.954,3.954,0,0,0-23.225-1.2a3.954,3.954,0,0,0,3.954,3.954H-1.464A3.954,3.954,0,0,1-5.417-1.2" transform="translate(23.225 5.156)" fill="#a0f0f2"/>
              </g>
              <g id="g3976" transform="translate(13.803 55.881)">
                <path id="path3978" d="M0,0,.258,3.311a7.907,7.907,0,0,0,7.883,7.294H31.727A7.907,7.907,0,0,0,39.61,3.311L39.868,0Z" fill="#4db1f0"/>
              </g>
              <g id="g3980" transform="translate(13.803 55.881)">
                <path id="path3982" d="M-.078-1.007A7.907,7.907,0,0,0,7.8,6.287h7.258A7.907,7.907,0,0,1,7.179-1.007L6.922-4.319H-.336Z" transform="translate(0.336 4.319)" fill="#66d3d0"/>
              </g>
              <g id="g3984" transform="translate(7.38 16.803)">
                <path id="path3986" d="M-14.833-2.405H-59.64a3.954,3.954,0,0,1-3.954-3.954,3.954,3.954,0,0,1,3.954-3.954h44.807a3.954,3.954,0,0,1,3.954,3.954A3.954,3.954,0,0,1-14.833-2.405Z" transform="translate(63.594 10.312)" fill="none" stroke="#12263f" stroke-linecap="round" stroke-linejoin="round" stroke-miterlimit="10" stroke-width="2.578"/>
              </g>
              <g id="g3988" transform="translate(55.686 24.886)">
                <path id="path3990" d="M0-1.551l.4-5.1" transform="translate(0 6.648)" fill="none" stroke="#000" stroke-linecap="round" stroke-linejoin="round" stroke-miterlimit="10" stroke-width="2.578"/>
              </g>
              <g id="g3992" transform="translate(11.389 24.835)">
                <path id="path3994" d="M0,0,2.672,34.357a7.907,7.907,0,0,0,7.883,7.294H34.142a7.907,7.907,0,0,0,7.883-7.294L43.989,9.1" fill="none" stroke="#12263f" stroke-linecap="round" stroke-linejoin="round" stroke-miterlimit="10" stroke-width="2.578"/>
              </g>
              <g id="g3996" transform="translate(13.935 55.881)">
                <path id="path3998" d="M0,0H39.6" fill="none" stroke="#12263f" stroke-linecap="round" stroke-linejoin="round" stroke-miterlimit="10" stroke-width="2.578"/>
              </g>
              <g id="g4000" transform="translate(39.691 12.834)">
                <path id="path4002" d="M0,0H11.179" fill="none" stroke="#12263f" stroke-linecap="round" stroke-linejoin="round" stroke-miterlimit="10" stroke-width="2"/>
              </g>
              <g id="g4004" transform="translate(39.691 7.562)">
                <path id="path4006" d="M0,0H11.179" fill="none" stroke="#12263f" stroke-linecap="round" stroke-linejoin="round" stroke-miterlimit="10" stroke-width="2"/>
              </g>
              <g id="g4008" transform="translate(12.389 5.457)">
                <path id="path4010" d="M-6.66,0H-24.6a3.954,3.954,0,0,0-3.954,3.954v7.226" transform="translate(28.555)" fill="none" stroke="#12263f" stroke-linecap="round" stroke-linejoin="round" stroke-miterlimit="10" stroke-width="2"/>
              </g>
              <g id="g4012" transform="translate(34.42 0.988)">
                <path id="path4014" d="M0-4.76v-13.5a1.287,1.287,0,0,1,2-1.071H2a1.287,1.287,0,0,0,1.428,0l1.288-.858a1.287,1.287,0,0,1,1.428,0l1.287.858a1.287,1.287,0,0,0,1.428,0l1.287-.858a1.287,1.287,0,0,1,1.428,0l1.287.858a1.287,1.287,0,0,0,1.428,0l1.287-.858a1.287,1.287,0,0,1,1.428,0l1.287.858a1.287,1.287,0,0,0,1.428,0,1.287,1.287,0,0,1,2,1.071v13.5" transform="translate(0 20.407)" fill="none" stroke="#12263f" stroke-linecap="round" stroke-linejoin="round" stroke-miterlimit="10" stroke-width="2"/>
              </g>
              <g id="g4016" transform="translate(17.661 10.728)">
                <path id="path4018" d="M0-1.8v-4.59A1.318,1.318,0,0,1,1.318-7.7h8.845a1.318,1.318,0,0,1,1.318,1.318V-1.8" transform="translate(0 7.705)" fill="none" stroke="#12263f" stroke-linecap="round" stroke-linejoin="round" stroke-miterlimit="10" stroke-width="2.578"/>
              </g>
              <g id="g4020" transform="translate(22.877 30.411)">
                <path id="path4022" d="M0-2.206V-7.314A1.287,1.287,0,0,1,2-8.385H2a1.287,1.287,0,0,0,1.428,0l1.288-.858a1.287,1.287,0,0,1,1.428,0l1.287.858a1.287,1.287,0,0,0,1.428,0l1.287-.858a1.287,1.287,0,0,1,1.428,0l1.287.858a1.287,1.287,0,0,0,1.428,0l1.287-.858a1.287,1.287,0,0,1,1.428,0l1.287.858a1.287,1.287,0,0,0,1.428,0,1.287,1.287,0,0,1,2,1.071V6.356a3.954,3.954,0,0,1-3.954,3.954H3.954A3.954,3.954,0,0,1,0,6.356V1.747" transform="translate(0 9.459)" fill="none" stroke="#12263f" stroke-linecap="round" stroke-linejoin="round" stroke-miterlimit="10" stroke-width="2.578"/>
              </g>
              <g id="g4024" transform="translate(28.148 42.257)">
                <path id="path4026" d="M0,0H11.179" transform="translate(0 0)" fill="none" stroke="#12263f" stroke-linecap="round" stroke-linejoin="round" stroke-miterlimit="10" stroke-width="2.578"/>
              </g>
              <g id="g4028" transform="translate(28.148 36.985)">
                <path id="path4030" d="M0,0H11.179" fill="none" stroke="#12263f" stroke-linecap="round" stroke-linejoin="round" stroke-miterlimit="10" stroke-width="2"/>
              </g>
            </g>
          </g>
        </g>
      </g>
    </g>
  </g>
</svg>
