<svg xmlns="http://www.w3.org/2000/svg" xmlns:xlink="http://www.w3.org/1999/xlink" width="190" height="190" viewBox="0 0 190 190">
  <defs>
    <clipPath id="clip-path">
      <circle id="Elipse_8399" data-name="Elipse 8399" cx="95" cy="95" r="95" fill="#fff"/>
    </clipPath>
  </defs>
  <g id="Grupo_1036339" data-name="Grupo 1036339" transform="translate(-716 -6695.123)">
    <g id="Grupo_1029803" data-name="Grupo 1029803" transform="translate(716 6695.123)">
      <circle id="Elipse_8399-2" data-name="Elipse 8399" cx="95" cy="95" r="95" fill="#fff"/>
    </g>
    <g id="Grupo_1033369" data-name="Grupo 1033369" transform="translate(716 6695.123)">
      <g id="Enmascarar_grupo_1026478" data-name="Enmascarar grupo 1026478" clip-path="url(#clip-path)">
        <g id="estomago" transform="translate(21.159 17.999)">
          <path id="Trazado_733688" data-name="Trazado 733688" d="M145.473,75.97c1.1-16.6-7.594-28.264-19.042-33.654V10.871a7.162,7.162,0,0,0-14.324,0V38.948c-13.7-.29-26.823,7.691-31.908,25.2C66.489,111.294,50.1,67.051,33.115,93.55,17.673,86.159,3.869,96.911,3.9,112.973l.051,32.955c-.016,8.739,11.782,6.574,11.526-.018l-.052-32.954c-.025-14.5,16.824-11.281,17.43-5.057,11.96,45.472,108.194,51.286,112.622-31.93Zm0,0" transform="translate(-0.888 -0.703)" fill="#ffdeb7" fill-rule="evenodd"/>
          <path id="Trazado_733689" data-name="Trazado 733689" d="M57.768,130.823c18.24,20.838,47.545,18.784,66.792,3.181,10.6-8.595,17.191-21.836,18.555-35.419.5-5.005-4.249-8-9.052-5.585-19.281,9.694-25.192-7.981-35,.589-10.69,24.785-23.265,25.2-37.683,19.96-10.28-3.752-10.6,9.284-3.608,17.274Zm0,0" transform="translate(-10.194 -17.272)" fill="#ffa031" fill-rule="evenodd"/>
          <path id="Trazado_733690" data-name="Trazado 733690" d="M128.734,39.758V10.168a10.169,10.169,0,0,0-20.337,0V35.3a33.559,33.559,0,0,0-17.961,6.447C83.968,46.514,79.188,53.724,76.609,62.6c-3.185,10.958-6.8,17.659-10.735,19.916-3.141,1.8-6.7.832-10.832-.29-3.655-.994-7.8-2.12-12.135-1.269s-8.146,3.53-11.579,8.163c-7.083-2.645-14.323-2.1-20.187,1.6C4.266,95.064.17,103.12.186,112.275l.051,32.943c-.009,4.728,2.547,6.871,4.072,7.728A8.541,8.541,0,0,0,8.5,154a9.923,9.923,0,0,0,5.143-1.459,8.333,8.333,0,0,0,4.137-7.389l-.052-32.905c-.011-5.8,3.074-7.167,5.663-7.3,3.171-.157,5.674,1.574,5.768,2.536a2.94,2.94,0,0,0,.085.473c3.028,11.516,11.325,21.356,23.363,27.709a65.263,65.263,0,0,0,25.516,7.147,67.5,67.5,0,0,0,27.4-3.62,3.007,3.007,0,0,0-2.019-5.664c-15.486,5.521-33.914,4.3-48.092-3.181-10.463-5.522-17.665-13.942-20.3-23.727-.687-4.927-6.7-7.94-12.016-7.678-5.259.26-11.4,3.9-11.379,13.31l.052,32.955c0,.036,0,.074,0,.112a2.344,2.344,0,0,1-1.263,2.088,3.456,3.456,0,0,1-3.248.293c-.669-.376-1.007-1.209-1-2.485L6.2,112.266c-.011-7.076,3.036-13.228,8.152-16.455,4.809-3.035,10.764-3.124,16.764-.251a3.005,3.005,0,0,0,3.829-1.089c6.264-9.772,11.673-8.3,18.522-6.44,4.733,1.285,10.1,2.743,15.4-.3,5.485-3.144,9.78-10.6,13.519-23.454,4.273-14.713,15.111-23.316,28.957-23.028a3.007,3.007,0,0,0,3.07-3.006V10.168a4.155,4.155,0,1,1,8.31,0V41.613a3.009,3.009,0,0,0,1.726,2.721c11.756,5.533,18.232,17.021,17.322,30.734,0,.013,0,.026,0,.039-1.032,19.358-7.106,34.736-18.057,45.707a3.006,3.006,0,1,0,4.256,4.247,63.309,63.309,0,0,0,13.6-20.627,87.74,87.74,0,0,0,6.206-28.988c1.026-15.587-6.058-28.785-19.036-35.688Zm0,0" transform="translate(-0.185 0)" fill="#12263f"/>
          <path id="Trazado_733691" data-name="Trazado 733691" d="M141.8,89.97a9.51,9.51,0,0,0-9.781-.358h0c-9.21,4.63-14.592,2.325-19.8.1-4.65-1.992-9.92-4.25-15.834.914a3.015,3.015,0,0,0-.783,1.074c-9.558,22.161-19.666,23.5-33.893,18.327-6.569-2.4-9.705.885-10.748,2.407-3.237,4.72-1.511,13.544,3.847,19.671a47.035,47.035,0,0,0,35.246,16.282q.3,0,.606,0a56.024,56.024,0,0,0,35.094-12.749c11-8.911,18.159-22.561,19.654-37.454A8.7,8.7,0,0,0,141.8,89.97Zm-2.371,7.611c-1.318,13.112-7.844,25.591-17.459,33.384-17.06,13.83-44.81,17.541-62.635-2.825-3.995-4.568-4.7-10.435-3.413-12.311a1.694,1.694,0,0,1,1.491-.64,6.951,6.951,0,0,1,2.241.482c6.248,2.274,14.441,4.468,22.4,1.242,7.386-2.995,13.534-10.249,18.784-22.169,2.687-2.084,4.693-1.363,9.018.49,5.554,2.379,13.158,5.636,24.867-.25a3.624,3.624,0,0,1,3.673-.06,2.722,2.722,0,0,1,1.037,2.658Zm0,0" transform="translate(-9.496 -16.57)" fill="#12263f"/>
          <path id="Trazado_733692" data-name="Trazado 733692" d="M140.338,158.392l-.052.035a3.006,3.006,0,1,0,3.346,5l.051-.034a3.007,3.007,0,1,0-3.345-5Zm0,0" transform="translate(-26.477 -29.913)" fill="#12263f"/>
        </g>
      </g>
    </g>
  </g>
</svg>
