<svg xmlns="http://www.w3.org/2000/svg" xmlns:xlink="http://www.w3.org/1999/xlink" width="88" height="88" viewBox="0 0 88 88">
  <defs>
    <clipPath id="clip-path">
      <path id="Trazado_733864" data-name="Trazado 733864" d="M44,0A44,44,0,1,1,0,44,44,44,0,0,1,44,0Z" transform="translate(221 9775.625)" fill="#d2e1f1"/>
    </clipPath>
  </defs>
  <g id="Grupo_1036343" data-name="Grupo 1036343" transform="translate(-221 -10804.848)">
    <g id="Grupo_1036342" data-name="Grupo 1036342">
      <g id="Grupo_1036298" data-name="Grupo 1036298" transform="translate(0 -132.625)">
        <g id="Grupo_1029817" data-name="Grupo 1029817" transform="translate(0 10514.473)">
          <g id="Grupo_1036340" data-name="Grupo 1036340">
            <g id="Grupo_1013412" data-name="Grupo 1013412" transform="translate(-3 14)">
              <path id="Trazado_710239" data-name="Trazado 710239" d="M44,0A44,44,0,1,1,0,44,44,44,0,0,1,44,0Z" transform="translate(224 409)" fill="#d2e1f1"/>
            </g>
          </g>
        </g>
        <g id="Enmascarar_grupo_1030772" data-name="Enmascarar grupo 1030772" transform="translate(0 1161.848)" clip-path="url(#clip-path)">
          <g id="Blue" transform="translate(225.938 9785.117)">
            <path id="Trazado_733865" data-name="Trazado 733865" d="M36.888,4.4H43.2A3.157,3.157,0,0,1,46.36,7.557v5.262H33.731V7.557A3.157,3.157,0,0,1,36.888,4.4Z" transform="translate(-4.142 -0.414)" fill="#d2e1f1"/>
            <path id="Trazado_733866" data-name="Trazado 733866" d="M30,16.132,23.686,23.5a12.175,12.175,0,0,0-3.157,8.42V66.613a1.974,1.974,0,0,0,2.1,2.143H56.313a1.963,1.963,0,0,0,2.1-2.1v-44.2A6.315,6.315,0,0,0,52.1,16.132Zm15.787,4.21h5.284a3.135,3.135,0,0,1,3.135,3.135v8.442Z" transform="translate(-0.412 -3.727)" fill="#4db1f0"/>
            <path id="Trazado_733867" data-name="Trazado 733867" d="M38.13,11.732h2.1V14.89h-2.1Z" transform="translate(-5.384 -2.485)" fill="#4f83d1"/>
            <path id="Trazado_733868" data-name="Trazado 733868" d="M44,11.732h2.1V14.89H44Z" transform="translate(-7.04 -2.485)" fill="#4f83d1"/>
            <path id="Trazado_733869" data-name="Trazado 733869" d="M20.532,41.063H47.9V68.428H20.532Z" transform="translate(-0.415 -10.766)" fill="#d2e1f1"/>
            <path id="Trazado_733870" data-name="Trazado 733870" d="M24.931,45.463H43.876v2.1H24.931Z" transform="translate(-1.657 -12.008)" fill="#4f83d1"/>
            <path id="Trazado_733871" data-name="Trazado 733871" d="M20.532,54.262H31.056v2.1H20.532Z" transform="translate(-0.415 -14.493)" fill="#4f83d1"/>
            <path id="Trazado_733872" data-name="Trazado 733872" d="M36.664,60.128h8.42v2.1h-8.42Z" transform="translate(-4.97 -16.149)" fill="#4f83d1"/>
            <path id="Trazado_733873" data-name="Trazado 733873" d="M41.063,70.394h12.63v6.315H41.063Z" transform="translate(-6.212 -19.048)" fill="#fff"/>
            <g id="Grupo_1033402" data-name="Grupo 1033402" transform="translate(19.062 2.932)">
              <path id="Trazado_733874" data-name="Trazado 733874" d="M45.463,70.394h2.1v6.315h-2.1Z" transform="translate(-26.516 -21.979)" fill="#4f83d1"/>
              <path id="Trazado_733875" data-name="Trazado 733875" d="M51.329,70.394h2.1v6.315h-2.1Z" transform="translate(-28.173 -21.979)" fill="#4f83d1"/>
              <path id="Trazado_733876" data-name="Trazado 733876" d="M65.995,82.127h2.1v2.1h-2.1Z" transform="translate(-32.313 -25.292)" fill="#4f83d1"/>
              <path id="Trazado_733877" data-name="Trazado 733877" d="M65.995,70.394h2.1v6.315h-2.1Z" transform="translate(-32.313 -21.979)" fill="#4f83d1"/>
              <path id="Trazado_733878" data-name="Trazado 733878" d="M51.691,11.352h-8.42V7.143a4.118,4.118,0,0,0-4.21-4.21H32.746a4.118,4.118,0,0,0-4.21,4.21v4.873l-6.044,7.052a13.229,13.229,0,0,0-3.428,9.125V62.886a3.2,3.2,0,0,0,.9,2.33,3.1,3.1,0,0,0,2.24.865H55.906a3,3,0,0,0,3.152-3.157V18.72A7.376,7.376,0,0,0,51.691,11.352ZM30.641,7.143a2.035,2.035,0,0,1,2.1-2.1h6.315a2.035,2.035,0,0,1,2.1,2.1v4.21h-2.1v-2.1h-2.1v2.1h-2.1v-2.1h-2.1v2.1h-2.1ZM21.169,41.874h9.472v-2.1H21.169v-8.42H46.429V50.294H34.851A1.052,1.052,0,0,0,33.8,51.346v5.262H21.169ZM46.429,52.4v4.21h-2.1V52.4Zm-4.21,0v4.21h-2.1V52.4Zm-4.21,0v4.21H35.9V52.4ZM56.953,62.924A.929.929,0,0,1,55.9,63.976H22.222a.987.987,0,0,1-.773-.253,1.189,1.189,0,0,1-.275-.842V58.714H47.481a1.052,1.052,0,0,0,1.052-1.052V30.3a1.052,1.052,0,0,0-1.052-1.052H21.169V28.192a11.2,11.2,0,0,1,2.9-7.736l6-7H51.691a5.269,5.269,0,0,1,5.262,5.262Z" transform="translate(-19.062 -2.932)" fill="#12263f"/>
              <path id="Trazado_733879" data-name="Trazado 733879" d="M60.6,20.532H55.315a1.052,1.052,0,0,0-.851,1.671l8.42,11.577a1.052,1.052,0,0,0,1.9-.619V24.719A4.193,4.193,0,0,0,60.6,20.532Zm2.083,9.393-5.3-7.288H60.6a2.086,2.086,0,0,1,2.083,2.083Z" transform="translate(-29.001 -7.901)" fill="#12263f"/>
              <path id="Trazado_733880" data-name="Trazado 733880" d="M24.931,45.463H43.876v2.1H24.931Z" transform="translate(-20.719 -14.94)" fill="#12263f"/>
              <path id="Trazado_733881" data-name="Trazado 733881" d="M36.664,60.128h8.42v2.1h-8.42Z" transform="translate(-24.032 -19.081)" fill="#12263f"/>
              <path id="Trazado_733882" data-name="Trazado 733882" d="M65.995,82.127h2.1v2.1h-2.1Z" transform="translate(-32.313 -25.292)" fill="#727997"/>
              <path id="Trazado_733883" data-name="Trazado 733883" d="M65.995,70.394h2.1v6.315h-2.1Z" transform="translate(-32.313 -21.979)" fill="#727997"/>
            </g>
          </g>
        </g>
      </g>
    </g>
  </g>
</svg>
