<svg xmlns="http://www.w3.org/2000/svg" xmlns:xlink="http://www.w3.org/1999/xlink" width="190" height="190" viewBox="0 0 190 190">
  <defs>
    <clipPath id="clip-path">
      <circle id="Elipse_8399" data-name="Elipse 8399" cx="95" cy="95" r="95" fill="#fff"/>
    </clipPath>
    <clipPath id="clip-path-2">
      <path id="path684" d="M0-190H161.943V-28.057H0Z" transform="translate(0 190)"/>
    </clipPath>
  </defs>
  <g id="Grupo_1036340" data-name="Grupo 1036340" transform="translate(-1136 -6695.123)">
    <g id="Grupo_1029802" data-name="Grupo 1029802" transform="translate(1136 6695.123)">
      <circle id="Elipse_8399-2" data-name="Elipse 8399" cx="95" cy="95" r="95" fill="#fff"/>
    </g>
    <g id="Grupo_1033368" data-name="Grupo 1033368" transform="translate(1136 6695.123)">
      <g id="Enmascarar_grupo_1026477" data-name="Enmascarar grupo 1026477" clip-path="url(#clip-path)">
        <g id="g678" transform="translate(14.028 14.028)">
          <g id="g680">
            <g id="g682" clip-path="url(#clip-path-2)">
              <g id="g688" transform="translate(2.372 2.372)">
                <path id="path690" d="M-27.235-13.617a78.6,78.6,0,0,1-78.6,78.6,78.6,78.6,0,0,1-78.6-78.6,78.6,78.6,0,0,1,78.6-78.6,78.6,78.6,0,0,1,78.6,78.6" transform="translate(184.434 92.217)" fill="#eff3f5"/>
              </g>
              <g id="g692" transform="translate(15.583 15.583)">
                <path id="path694" d="M-18.886,0A78.23,78.23,0,0,1-5.675,43.622a78.6,78.6,0,0,1-78.6,78.6A78.226,78.226,0,0,1-127.9,109.011a78.52,78.52,0,0,0,65.389,34.977,78.6,78.6,0,0,0,78.6-78.6A78.521,78.521,0,0,0-18.886,0" transform="translate(127.897)" fill="#a6d6d6"/>
              </g>
              <g id="g696" transform="translate(17.07 17.07)">
                <path id="path698" d="M-22.142-11.071a63.9,63.9,0,0,1-63.9,63.9,63.9,63.9,0,0,1-63.9-63.9,63.9,63.9,0,0,1,63.9-63.9,63.9,63.9,0,0,1,63.9,63.9" transform="translate(149.946 74.973)" fill="#cbcbcb"/>
              </g>
              <g id="g700" transform="translate(64.449 32.396)">
                <path id="path702" d="M-8.3-8.123a12.78,12.78,0,0,1-11.35-6.887A26.7,26.7,0,0,0-43.41-29.451a12.78,12.78,0,0,1-12.78-12.78A12.78,12.78,0,0,1-43.41-55.012,52.179,52.179,0,0,1,3.031-26.8,12.781,12.781,0,0,1-2.412-9.567,12.728,12.728,0,0,1-8.3-8.123" transform="translate(56.191 55.012)" fill="#065958"/>
              </g>
              <g id="g704" transform="translate(74.842 32.396)">
                <path id="path706" d="M-8.46-4.887A52.179,52.179,0,0,0-54.9-33.1a12.831,12.831,0,0,0-2.388.226A52.157,52.157,0,0,1-15.665-4.887a12.78,12.78,0,0,1-5.444,17.235,12.852,12.852,0,0,1-2.285.92,12.814,12.814,0,0,0,3.605.524A12.729,12.729,0,0,0-13.9,12.348,12.78,12.78,0,0,0-8.46-4.887" transform="translate(57.289 33.097)" fill="#a5d6d6"/>
              </g>
              <g id="g708" transform="translate(78.124 108.176)">
                <path id="path710" d="M-4.414-2.207A12.739,12.739,0,0,1-17.153,10.532,12.739,12.739,0,0,1-29.892-2.207,12.739,12.739,0,0,1-17.153-14.946,12.739,12.739,0,0,1-4.414-2.207" transform="translate(29.892 14.946)" fill="#ffa031"/>
              </g>
              <g id="g712" transform="translate(86.071 116.123)">
                <path id="path714" d="M-1.661-.83A4.792,4.792,0,0,1-6.453,3.962,4.792,4.792,0,0,1-11.246-.83,4.792,4.792,0,0,1-6.453-5.623,4.792,4.792,0,0,1-1.661-.83" transform="translate(11.246 5.623)" fill="#ffa031"/>
              </g>
              <g id="g716" transform="translate(108.908 96.947)">
                <path id="path718" d="M-2.214-1.107A6.39,6.39,0,0,1-8.6,5.283a6.39,6.39,0,0,1-6.39-6.39A6.39,6.39,0,0,1-8.6-7.5a6.39,6.39,0,0,1,6.39,6.39" transform="translate(14.995 7.497)" fill="#97e4f9"/>
              </g>
              <g id="g720" transform="translate(50.938 114.552)">
                <path id="path722" d="M-2.214-1.107A6.39,6.39,0,0,1-8.6,5.283a6.39,6.39,0,0,1-6.39-6.39A6.39,6.39,0,0,1-8.6-7.5a6.39,6.39,0,0,1,6.39,6.39" transform="translate(14.994 7.498)" fill="#065958"/>
              </g>
              <g id="g724" transform="translate(79.055 81.187)">
                <path id="path726" d="M-2.214-1.107A6.39,6.39,0,0,1-8.6,5.283a6.39,6.39,0,0,1-6.39-6.39A6.39,6.39,0,0,1-8.6-7.5a6.39,6.39,0,0,1,6.39,6.39" transform="translate(14.994 7.497)" fill="#fce25c"/>
              </g>
              <g id="g728" transform="translate(42.06 67.772)">
                <path id="path730" d="M-1.833-6.718h-.211a10.37,10.37,0,0,1-10.37-10.37V-35.127A10.37,10.37,0,0,1-2.044-45.5h.211a10.37,10.37,0,0,1,10.37,10.37v18.038A10.37,10.37,0,0,1-1.833-6.718" transform="translate(12.414 45.497)" fill="#ffa031"/>
              </g>
              <g id="g732" transform="translate(49.3 67.772)">
                <path id="path734" d="M-.56,0h0A10.458,10.458,0,0,0-3.8.512a10.478,10.478,0,0,1,7.24,9.964V28.3A10.478,10.478,0,0,1-3.8,38.267a10.458,10.458,0,0,0,3.235.512A10.475,10.475,0,0,0,9.915,28.3V10.475A10.475,10.475,0,0,0-.56,0" transform="translate(3.796)" fill="#fbd307"/>
              </g>
              <g id="g736" transform="translate(2.372 2.372)">
                <path id="path738" d="M-4.713-3.314A78.6,78.6,0,1,1-12.648,4.6" transform="translate(31.916 22.445)" fill="none" stroke="#12263f" stroke-linecap="round" stroke-linejoin="round" stroke-miterlimit="10" stroke-width="5.566"/>
              </g>
              <g id="g740" transform="translate(64.449 32.396)">
                <path id="path742" d="M-8.3-8.123a12.78,12.78,0,0,1-11.35-6.887A26.7,26.7,0,0,0-43.41-29.451a12.78,12.78,0,0,1-12.78-12.78A12.78,12.78,0,0,1-43.41-55.012,52.179,52.179,0,0,1,3.031-26.8,12.781,12.781,0,0,1-2.412-9.567,12.728,12.728,0,0,1-8.3-8.123Z" transform="translate(56.191 55.012)" fill="none" stroke="#12263f" stroke-linecap="round" stroke-linejoin="round" stroke-miterlimit="10" stroke-width="5.566"/>
              </g>
              <g id="g744" transform="translate(17.07 17.07)">
                <path id="path746" d="M-19.53-3.928A63.646,63.646,0,0,1-4.454,37.3a63.9,63.9,0,0,1-63.9,63.9,63.9,63.9,0,0,1-63.9-63.9,63.9,63.9,0,0,1,63.9-63.9A63.642,63.642,0,0,1-27.565-11.893" transform="translate(132.257 26.603)" fill="none" stroke="#12263f" stroke-linecap="round" stroke-linejoin="round" stroke-miterlimit="10" stroke-width="5.566"/>
              </g>
              <g id="g748" transform="translate(77.23 27.385)">
                <path id="path750" d="M0-.868v-5.01" transform="translate(0 5.878)" fill="none" stroke="#12263f" stroke-linecap="round" stroke-linejoin="round" stroke-miterlimit="10" stroke-width="5.566"/>
              </g>
              <g id="g752" transform="translate(87.577 28.686)">
                <path id="path754" d="M0-.82.869-5.552" transform="translate(0 5.552)" fill="none" stroke="#12263f" stroke-linecap="round" stroke-linejoin="round" stroke-miterlimit="10" stroke-width="5.566"/>
              </g>
              <g id="g756" transform="translate(96.156 31.052)">
                <path id="path758" d="M0-.843,2.457-5.706" transform="translate(0 5.706)" fill="none" stroke="#12263f" stroke-linecap="round" stroke-linejoin="round" stroke-miterlimit="10" stroke-width="5.566"/>
              </g>
              <g id="g760" transform="translate(105.257 36.697)">
                <path id="path762" d="M0-.659,3.113-4.465" transform="translate(0 4.465)" fill="none" stroke="#12263f" stroke-linecap="round" stroke-linejoin="round" stroke-miterlimit="10" stroke-width="5.566"/>
              </g>
              <g id="g764" transform="translate(113.497 43.269)">
                <path id="path766" d="M0-.642,3.6-4.347" transform="translate(0 4.347)" fill="none" stroke="#12263f" stroke-linecap="round" stroke-linejoin="round" stroke-miterlimit="10" stroke-width="5.566"/>
              </g>
              <g id="g768" transform="translate(118.95 50.415)">
                <path id="path770" d="M0-.47,4.033-3.181" transform="translate(0 3.181)" fill="none" stroke="#12263f" stroke-linecap="round" stroke-linejoin="round" stroke-miterlimit="10" stroke-width="5.566"/>
              </g>
              <g id="g772" transform="translate(123.671 58.332)">
                <path id="path774" d="M0-.394,4.177-2.667" transform="translate(0 2.667)" fill="none" stroke="#12263f" stroke-linecap="round" stroke-linejoin="round" stroke-miterlimit="10" stroke-width="5.566"/>
              </g>
              <g id="g776" transform="translate(71.706 57.322)">
                <path id="path778" d="M-.268,0-1.815,5.789" transform="translate(1.815)" fill="none" stroke="#12263f" stroke-linecap="round" stroke-linejoin="round" stroke-miterlimit="10" stroke-width="5.566"/>
              </g>
              <g id="g780" transform="translate(80.333 58.332)">
                <path id="path782" d="M-.239,0-1.618,6.47" transform="translate(1.618)" fill="none" stroke="#12263f" stroke-linecap="round" stroke-linejoin="round" stroke-miterlimit="10" stroke-width="5.566"/>
              </g>
              <g id="g784" transform="translate(88.548 61.995)">
                <path id="path786" d="M-.492,0l-2.84,5.614" transform="translate(3.332)" fill="none" stroke="#12263f" stroke-linecap="round" stroke-linejoin="round" stroke-miterlimit="10" stroke-width="5.566"/>
              </g>
              <g id="g788" transform="translate(94.3 67.609)">
                <path id="path790" d="M-.609,0-4.124,4.416" transform="translate(4.124)" fill="none" stroke="#12263f" stroke-linecap="round" stroke-linejoin="round" stroke-miterlimit="10" stroke-width="5.566"/>
              </g>
              <g id="g792" transform="translate(99.538 74.912)">
                <path id="path794" d="M-.549,0l-3.17,3.583" transform="translate(3.719)" fill="none" stroke="#12263f" stroke-linecap="round" stroke-linejoin="round" stroke-miterlimit="10" stroke-width="5.566"/>
              </g>
              <g id="g796" transform="translate(78.124 108.176)">
                <path id="path798" d="M-4.414-2.207A12.739,12.739,0,0,1-17.153,10.532,12.739,12.739,0,0,1-29.892-2.207,12.739,12.739,0,0,1-17.153-14.946,12.739,12.739,0,0,1-4.414-2.207Z" transform="translate(29.892 14.946)" fill="none" stroke="#12263f" stroke-linecap="round" stroke-linejoin="round" stroke-miterlimit="10" stroke-width="5.566"/>
              </g>
              <g id="g800" transform="translate(108.908 96.947)">
                <path id="path802" d="M-2.214-1.107A6.39,6.39,0,0,1-8.6,5.283a6.39,6.39,0,0,1-6.39-6.39A6.39,6.39,0,0,1-8.6-7.5,6.39,6.39,0,0,1-2.214-1.107Z" transform="translate(14.995 7.497)" fill="none" stroke="#12263f" stroke-linecap="round" stroke-linejoin="round" stroke-miterlimit="10" stroke-width="5.566"/>
              </g>
              <g id="g804" transform="translate(50.938 114.552)">
                <path id="path806" d="M-2.214-1.107A6.39,6.39,0,0,1-8.6,5.283a6.39,6.39,0,0,1-6.39-6.39A6.39,6.39,0,0,1-8.6-7.5,6.39,6.39,0,0,1-2.214-1.107Z" transform="translate(14.994 7.498)" fill="none" stroke="#12263f" stroke-linecap="round" stroke-linejoin="round" stroke-miterlimit="10" stroke-width="5.566"/>
              </g>
              <g id="g808" transform="translate(79.055 81.187)">
                <path id="path810" d="M-2.214-1.107A6.39,6.39,0,0,1-8.6,5.283a6.39,6.39,0,0,1-6.39-6.39A6.39,6.39,0,0,1-8.6-7.5,6.39,6.39,0,0,1-2.214-1.107Z" transform="translate(14.994 7.497)" fill="none" stroke="#12263f" stroke-linecap="round" stroke-linejoin="round" stroke-miterlimit="10" stroke-width="5.566"/>
              </g>
              <g id="g812" transform="translate(42.06 67.772)">
                <path id="path814" d="M-1.833-6.718h-.211a10.37,10.37,0,0,1-10.37-10.37V-35.127A10.37,10.37,0,0,1-2.044-45.5h.211a10.37,10.37,0,0,1,10.37,10.37v18.038A10.37,10.37,0,0,1-1.833-6.718Z" transform="translate(12.414 45.497)" fill="none" stroke="#12263f" stroke-linecap="round" stroke-linejoin="round" stroke-miterlimit="10" stroke-width="5.566"/>
              </g>
              <g id="g816" transform="translate(42.06 43.275)">
                <path id="path818" d="M-1.815-4.244v-6.564a5.238,5.238,0,0,0-5.238-5.238,5.238,5.238,0,0,1-5.238-5.238v-7.458" transform="translate(12.29 28.741)" fill="none" stroke="#12263f" stroke-linecap="round" stroke-linejoin="round" stroke-miterlimit="10" stroke-width="5.566"/>
              </g>
              <g id="g820" transform="translate(34.974 78.247)">
                <path id="path822" d="M-1.228,0H-8.314" transform="translate(8.314)" fill="none" stroke="#12263f" stroke-linecap="round" stroke-linejoin="round" stroke-miterlimit="10" stroke-width="5.566"/>
              </g>
              <g id="g824" transform="translate(34.974 87.161)">
                <path id="path826" d="M-1.228,0H-8.314" transform="translate(8.314)" fill="none" stroke="#12263f" stroke-linecap="round" stroke-linejoin="round" stroke-miterlimit="10" stroke-width="5.566"/>
              </g>
              <g id="g828" transform="translate(34.974 96.075)">
                <path id="path830" d="M-1.228,0H-8.314" transform="translate(8.314)" fill="none" stroke="#12263f" stroke-linecap="round" stroke-linejoin="round" stroke-miterlimit="10" stroke-width="5.566"/>
              </g>
              <g id="g832" transform="translate(63.011 78.247)">
                <path id="path834" d="M0,0H7.086" fill="none" stroke="#12263f" stroke-linecap="round" stroke-linejoin="round" stroke-miterlimit="10" stroke-width="5.566"/>
              </g>
              <g id="g836" transform="translate(63.011 87.161)">
                <path id="path838" d="M0,0H7.086" fill="none" stroke="#12263f" stroke-linecap="round" stroke-linejoin="round" stroke-miterlimit="10" stroke-width="5.566"/>
              </g>
              <g id="g840" transform="translate(63.011 96.075)">
                <path id="path842" d="M0,0H7.086" fill="none" stroke="#12263f" stroke-linecap="round" stroke-linejoin="round" stroke-miterlimit="10" stroke-width="5.566"/>
              </g>
            </g>
          </g>
        </g>
      </g>
    </g>
  </g>
</svg>
