<svg xmlns="http://www.w3.org/2000/svg" xmlns:xlink="http://www.w3.org/1999/xlink" width="88" height="88" viewBox="0 0 88 88">
  <defs>
    <clipPath id="clip-path">
      <path id="Trazado_733863" data-name="Trazado 733863" d="M44,0A44,44,0,1,1,0,44,44,44,0,0,1,44,0Z" transform="translate(221 8032)" fill="#d2e1f1"/>
    </clipPath>
    <clipPath id="clip-path-2">
      <path id="path3687" d="M0-88H68.424v68.424H0Z" transform="translate(0 88)"/>
    </clipPath>
  </defs>
  <g id="Grupo_1036341" data-name="Grupo 1036341" transform="translate(-221 -8992)">
    <g id="Grupo_1036294" data-name="Grupo 1036294" transform="translate(0 -201.848)">
      <g id="Grupo_1029810" data-name="Grupo 1029810" transform="translate(0 8781.848)">
        <g id="Grupo_1036339" data-name="Grupo 1036339">
          <g id="Grupo_1013412" data-name="Grupo 1013412" transform="translate(-3 3)">
            <path id="Trazado_710239" data-name="Trazado 710239" d="M44,0A44,44,0,1,1,0,44,44,44,0,0,1,44,0Z" transform="translate(224 409)" fill="#d2e1f1"/>
          </g>
        </g>
      </g>
      <g id="Enmascarar_grupo_1030771" data-name="Enmascarar grupo 1030771" transform="translate(0 1161.848)" clip-path="url(#clip-path)">
        <g id="g3681" transform="translate(221 8120)">
          <g id="g3683" transform="translate(9.788 9.788)">
            <g id="g3685" transform="translate(0 -88)" clip-path="url(#clip-path-2)">
              <g id="g3691" transform="translate(16.271 1.336)">
                <path id="path3693" d="M-7-10V-36.945a8.018,8.018,0,0,0-8.018-8.018,8.018,8.018,0,0,0-8.018,8.018V-10A16.432,16.432,0,0,0-31.454,4.35,16.438,16.438,0,0,0-15.015,20.788,16.438,16.438,0,0,0,1.423,4.35,16.432,16.432,0,0,0-7-10" transform="translate(31.454 44.963)" fill="#c0f0fb"/>
              </g>
              <g id="g3695" transform="translate(21.617 10.702)">
                <path id="path3697" d="M-2.409,0V29.181a11.1,11.1,0,0,0-8.419,10.766,11.092,11.092,0,1,0,22.184,0A11.1,11.1,0,0,0,2.937,29.181V0Z" transform="translate(10.828)" fill="#ffa031"/>
              </g>
              <g id="g3699" transform="translate(16.271 1.336)">
                <path id="path3701" d="M-2.409-7.57V.93a16.438,16.438,0,1,0,16.037,0V-26.013A8.018,8.018,0,0,0,5.61-34.031a8.018,8.018,0,0,0-8.018,8.018v7.751" transform="translate(10.829 34.031)" fill="none" stroke="#12263f" stroke-linecap="round" stroke-linejoin="round" stroke-miterlimit="10" stroke-width="2.5"/>
              </g>
              <g id="g3703" transform="translate(21.617 10.702)">
                <path id="path3705" d="M-2.409,0V29.181a11.1,11.1,0,0,0-8.419,10.766,11.092,11.092,0,1,0,22.184,0A11.1,11.1,0,0,0,2.937,29.181V0Z" transform="translate(10.828)" fill="none" stroke="#12263f" stroke-linecap="round" stroke-linejoin="round" stroke-miterlimit="10" stroke-width="2.5"/>
              </g>
              <g id="g3707" transform="translate(47.209 33.154)">
                <path id="path3709" d="M0,0H4.945" transform="translate(0 0)" fill="none" stroke="#12263f" stroke-linecap="round" stroke-linejoin="round" stroke-miterlimit="10" stroke-width="2.5"/>
              </g>
              <g id="g3711" transform="translate(47.209 25.67)">
                <path id="path3713" d="M0,0H4.945" transform="translate(0 0)" fill="none" stroke="#12263f" stroke-linecap="round" stroke-linejoin="round" stroke-miterlimit="10" stroke-width="2.5"/>
              </g>
              <g id="g3715" transform="translate(47.209 18.186)">
                <path id="path3717" d="M0,0H4.945" fill="none" stroke="#12263f" stroke-linecap="round" stroke-linejoin="round" stroke-miterlimit="10" stroke-width="2.5"/>
              </g>
              <g id="g3719" transform="translate(47.209 10.702)">
                <path id="path3721" d="M0,0H4.945" fill="none" stroke="#12263f" stroke-linecap="round" stroke-linejoin="round" stroke-miterlimit="10" stroke-width="2.5"/>
              </g>
              <g id="g3723" transform="translate(24.69 22.452)">
                <path id="path3725" d="M0,0H0" transform="translate(0 0)" fill="none" stroke="#12263f" stroke-linecap="round" stroke-linejoin="round" stroke-miterlimit="10" stroke-width="2.5"/>
              </g>
              <g id="g3727" transform="translate(29.656 50.649)">
                <path id="path3729" d="M0-1.393a5.718,5.718,0,0,0,3.053.877A5.746,5.746,0,0,0,8.8-6.261" transform="translate(0 6.261)" fill="none" stroke="#12263f" stroke-linecap="round" stroke-linejoin="round" stroke-miterlimit="10" stroke-width="2.5"/>
              </g>
              <g id="g3731" transform="translate(26.963 50.645)">
                <path id="path3733" d="M0,0C0,.014,0-.016,0,0" transform="translate(0 0.006)" fill="none" stroke="#12263f" stroke-linecap="round" stroke-linejoin="round" stroke-miterlimit="10" stroke-width="2.5"/>
              </g>
            </g>
          </g>
        </g>
      </g>
    </g>
  </g>
</svg>
