<svg xmlns="http://www.w3.org/2000/svg" xmlns:xlink="http://www.w3.org/1999/xlink" width="399.794" height="277.008" viewBox="0 0 399.794 277.008">
  <defs>
    <clipPath id="clip-path">
      <rect id="Rectángulo_33841" data-name="Rectángulo 33841" width="310.32" height="258.793" fill="none"/>
    </clipPath>
    <clipPath id="clip-path-2">
      <rect id="Rectángulo_352529" data-name="Rectángulo 352529" width="276.23" height="255.436" fill="none"/>
    </clipPath>
    <clipPath id="clip-path-4">
      <rect id="Rectángulo_352491" data-name="Rectángulo 352491" width="263.899" height="8.955" fill="none"/>
    </clipPath>
    <clipPath id="clip-path-5">
      <rect id="Rectángulo_352492" data-name="Rectángulo 352492" width="33.227" height="171.668" fill="none"/>
    </clipPath>
    <clipPath id="clip-path-6">
      <rect id="Rectángulo_352493" data-name="Rectángulo 352493" width="75.155" height="171.724" fill="none"/>
    </clipPath>
    <clipPath id="clip-path-7">
      <rect id="Rectángulo_352494" data-name="Rectángulo 352494" width="75.155" height="169.847" fill="none"/>
    </clipPath>
    <clipPath id="clip-path-8">
      <rect id="Rectángulo_352497" data-name="Rectángulo 352497" width="15.035" height="8.024" fill="none"/>
    </clipPath>
    <clipPath id="clip-path-9">
      <rect id="Rectángulo_352504" data-name="Rectángulo 352504" width="13.047" height="8.141" fill="none"/>
    </clipPath>
    <clipPath id="clip-path-10">
      <rect id="Rectángulo_352505" data-name="Rectángulo 352505" width="92.902" height="41.941" fill="none"/>
    </clipPath>
    <clipPath id="clip-path-11">
      <rect id="Rectángulo_352506" data-name="Rectángulo 352506" width="26.16" height="27.575" fill="none"/>
    </clipPath>
    <clipPath id="clip-path-12">
      <rect id="Rectángulo_352507" data-name="Rectángulo 352507" width="6.865" height="6.903" fill="none"/>
    </clipPath>
    <clipPath id="clip-path-13">
      <rect id="Rectángulo_352508" data-name="Rectángulo 352508" width="20.357" height="24.812" fill="none"/>
    </clipPath>
    <clipPath id="clip-path-14">
      <rect id="Rectángulo_352509" data-name="Rectángulo 352509" width="1.712" height="49.47" fill="none"/>
    </clipPath>
    <clipPath id="clip-path-15">
      <rect id="Rectángulo_352510" data-name="Rectángulo 352510" width="1.712" height="49.469" fill="none"/>
    </clipPath>
    <clipPath id="clip-path-17">
      <rect id="Rectángulo_352512" data-name="Rectángulo 352512" width="27.004" height="1.683" fill="none"/>
    </clipPath>
    <clipPath id="clip-path-18">
      <rect id="Rectángulo_352513" data-name="Rectángulo 352513" width="15.415" height="1.376" fill="none"/>
    </clipPath>
    <clipPath id="clip-path-19">
      <rect id="Rectángulo_352516" data-name="Rectángulo 352516" width="100.508" height="18.018" fill="none"/>
    </clipPath>
    <clipPath id="clip-path-20">
      <rect id="Rectángulo_352517" data-name="Rectángulo 352517" width="89.089" height="18.853" fill="none"/>
    </clipPath>
    <clipPath id="clip-path-21">
      <rect id="Rectángulo_352519" data-name="Rectángulo 352519" width="49.836" height="0.835" fill="none"/>
    </clipPath>
    <clipPath id="clip-path-22">
      <rect id="Rectángulo_352521" data-name="Rectángulo 352521" width="76.162" height="27.34" fill="none"/>
    </clipPath>
    <clipPath id="clip-path-23">
      <rect id="Rectángulo_352522" data-name="Rectángulo 352522" width="57.682" height="1.681" fill="none"/>
    </clipPath>
    <clipPath id="clip-path-24">
      <rect id="Rectángulo_352523" data-name="Rectángulo 352523" width="9.945" height="1.341" fill="none"/>
    </clipPath>
    <clipPath id="clip-path-25">
      <rect id="Rectángulo_352524" data-name="Rectángulo 352524" width="21.907" height="18.072" fill="none"/>
    </clipPath>
    <clipPath id="clip-path-26">
      <rect id="Rectángulo_352525" data-name="Rectángulo 352525" width="39.926" height="31.765" fill="none"/>
    </clipPath>
    <clipPath id="clip-path-27">
      <rect id="Rectángulo_352526" data-name="Rectángulo 352526" width="39.822" height="31.255" fill="none"/>
    </clipPath>
    <clipPath id="clip-path-28">
      <rect id="Rectángulo_352527" data-name="Rectángulo 352527" width="56.699" height="22.141" fill="none"/>
    </clipPath>
  </defs>
  <g id="Grupo_1036290" data-name="Grupo 1036290" transform="translate(-1020 -7220.758)">
    <g id="Grupo_1029805" data-name="Grupo 1029805" transform="translate(1415.333 7494.158) rotate(-179)">
      <path id="Trazado_113636" data-name="Trazado 113636" d="M255.63,127.815A127.815,127.815,0,1,1,127.815,0,127.815,127.815,0,0,1,255.63,127.815" transform="translate(0 0)" fill="#0078bb"/>
      <path id="Trazado_113637" data-name="Trazado 113637" d="M185.232,92.616A92.616,92.616,0,1,1,92.616,0a92.616,92.616,0,0,1,92.616,92.616" transform="translate(147.089 70.398)" fill="#065958"/>
      <path id="Trazado_113638" data-name="Trazado 113638" d="M148.708,74.354A74.354,74.354,0,1,1,74.354,0a74.354,74.354,0,0,1,74.354,74.354" transform="translate(165.351 88.66)" fill="#fff"/>
      <path id="Trazado_113665" data-name="Trazado 113665" d="M5.713,2.856A2.856,2.856,0,1,1,2.856,0,2.856,2.856,0,0,1,5.713,2.856" transform="translate(30.03 55.721)" fill="#fff"/>
      <path id="Trazado_113666" data-name="Trazado 113666" d="M5.713,2.856A2.856,2.856,0,1,1,2.856,0,2.856,2.856,0,0,1,5.713,2.856" transform="translate(42.598 55.721)" fill="#fff"/>
      <path id="Trazado_113667" data-name="Trazado 113667" d="M5.713,2.856A2.856,2.856,0,1,1,2.856,0,2.856,2.856,0,0,1,5.713,2.856" transform="translate(55.165 55.721)" fill="#fff"/>
      <path id="Trazado_113668" data-name="Trazado 113668" d="M5.713,2.856A2.856,2.856,0,1,1,2.856,0,2.856,2.856,0,0,1,5.713,2.856" transform="translate(67.732 55.721)" fill="#fff"/>
      <path id="Trazado_113669" data-name="Trazado 113669" d="M5.713,2.856A2.856,2.856,0,1,1,2.856,0,2.856,2.856,0,0,1,5.713,2.856" transform="translate(80.3 55.721)" fill="#fff"/>
      <path id="Trazado_113670" data-name="Trazado 113670" d="M5.713,2.856A2.856,2.856,0,1,1,2.856,0,2.856,2.856,0,0,1,5.713,2.856" transform="translate(30.03 67.717)" fill="#fff"/>
      <path id="Trazado_113671" data-name="Trazado 113671" d="M5.713,2.856A2.856,2.856,0,1,1,2.856,0,2.856,2.856,0,0,1,5.713,2.856" transform="translate(42.598 67.717)" fill="#fff"/>
      <path id="Trazado_113672" data-name="Trazado 113672" d="M5.713,2.856A2.856,2.856,0,1,1,2.856,0,2.856,2.856,0,0,1,5.713,2.856" transform="translate(55.165 67.717)" fill="#fff"/>
      <path id="Trazado_113673" data-name="Trazado 113673" d="M5.713,2.856A2.856,2.856,0,1,1,2.856,0,2.856,2.856,0,0,1,5.713,2.856" transform="translate(67.732 67.717)" fill="#fff"/>
      <path id="Trazado_113674" data-name="Trazado 113674" d="M5.713,2.856A2.856,2.856,0,1,1,2.856,0,2.856,2.856,0,0,1,5.713,2.856" transform="translate(80.3 67.717)" fill="#fff"/>
      <path id="Trazado_113675" data-name="Trazado 113675" d="M5.713,2.856A2.856,2.856,0,1,1,2.856,0,2.856,2.856,0,0,1,5.713,2.856" transform="translate(30.03 79.713)" fill="#fff"/>
      <path id="Trazado_113676" data-name="Trazado 113676" d="M5.713,2.856A2.856,2.856,0,1,1,2.856,0,2.856,2.856,0,0,1,5.713,2.856" transform="translate(42.598 79.713)" fill="#fff"/>
      <path id="Trazado_113677" data-name="Trazado 113677" d="M5.713,2.856A2.856,2.856,0,1,1,2.856,0,2.856,2.856,0,0,1,5.713,2.856" transform="translate(55.165 79.713)" fill="#fff"/>
      <path id="Trazado_113678" data-name="Trazado 113678" d="M5.713,2.856A2.856,2.856,0,1,1,2.856,0,2.856,2.856,0,0,1,5.713,2.856" transform="translate(67.732 79.713)" fill="#fff"/>
      <path id="Trazado_113679" data-name="Trazado 113679" d="M5.713,2.856A2.856,2.856,0,1,1,2.856,0,2.856,2.856,0,0,1,5.713,2.856" transform="translate(80.3 79.713)" fill="#fff"/>
      <path id="Trazado_113680" data-name="Trazado 113680" d="M5.713,2.856A2.856,2.856,0,1,1,2.856,0,2.856,2.856,0,0,1,5.713,2.856" transform="translate(30.03 91.709)" fill="#fff"/>
      <path id="Trazado_113681" data-name="Trazado 113681" d="M5.713,2.856A2.856,2.856,0,1,1,2.856,0,2.856,2.856,0,0,1,5.713,2.856" transform="translate(42.598 91.709)" fill="#fff"/>
      <path id="Trazado_113682" data-name="Trazado 113682" d="M5.713,2.856A2.856,2.856,0,1,1,2.856,0,2.856,2.856,0,0,1,5.713,2.856" transform="translate(55.165 91.709)" fill="#fff"/>
      <path id="Trazado_113683" data-name="Trazado 113683" d="M5.713,2.856A2.856,2.856,0,1,1,2.856,0,2.856,2.856,0,0,1,5.713,2.856" transform="translate(67.732 91.709)" fill="#fff"/>
      <path id="Trazado_113684" data-name="Trazado 113684" d="M5.713,2.856A2.856,2.856,0,1,1,2.856,0,2.856,2.856,0,0,1,5.713,2.856" transform="translate(80.3 91.709)" fill="#fff"/>
      <path id="Trazado_113685" data-name="Trazado 113685" d="M5.713,2.856A2.856,2.856,0,1,1,2.856,0,2.856,2.856,0,0,1,5.713,2.856" transform="translate(30.03 103.706)" fill="#fff"/>
      <path id="Trazado_113686" data-name="Trazado 113686" d="M5.713,2.856A2.856,2.856,0,1,1,2.856,0,2.856,2.856,0,0,1,5.713,2.856" transform="translate(42.598 103.706)" fill="#fff"/>
      <path id="Trazado_113687" data-name="Trazado 113687" d="M5.713,2.856A2.856,2.856,0,1,1,2.856,0,2.856,2.856,0,0,1,5.713,2.856" transform="translate(55.165 103.706)" fill="#fff"/>
      <path id="Trazado_113688" data-name="Trazado 113688" d="M5.713,2.856A2.856,2.856,0,1,1,2.856,0,2.856,2.856,0,0,1,5.713,2.856" transform="translate(67.732 103.706)" fill="#fff"/>
      <path id="Trazado_113689" data-name="Trazado 113689" d="M5.713,2.856A2.856,2.856,0,1,1,2.856,0,2.856,2.856,0,0,1,5.713,2.856" transform="translate(80.3 103.706)" fill="#fff"/>
      <g id="Grupo_1002336" data-name="Grupo 1002336" transform="translate(34.573 8.629)" opacity="0.251">
        <g id="Grupo_80323" data-name="Grupo 80323" clip-path="url(#clip-path)">
          <path id="Trazado_113615" data-name="Trazado 113615" d="M198.291,254.724c-2.931-.227-5.922-.357-8.985-.333-16.207.122-32.058,4.569-48.365,4.4-34.551-.364-70.11-4.015-99.971-26.576C-25.187,182.226-3.5,75.153,51.342,31.2,80.483,7.838,116.78.7,151.557.035c44.767-.85,102.188,13.586,134.263,52.009,22.347,26.77,27.9,89.141,22.679,124.481-4.158,28.131-19.764,54.658-39.478,70.1-24.586,19.257-45.431,10.057-70.73,8.1" transform="translate(0 0)" fill="#e0f4fe"/>
        </g>
      </g>
    </g>
    <g id="Grupo_1033366" data-name="Grupo 1033366" transform="translate(1020 7242.33)">
      <g id="Grupo_1033365" data-name="Grupo 1033365" clip-path="url(#clip-path-2)">
        <g id="Grupo_1033364" data-name="Grupo 1033364">
          <g id="Grupo_1033363" data-name="Grupo 1033363" clip-path="url(#clip-path-2)">
            <path id="Trazado_733647" data-name="Trazado 733647" d="M255.662,302.534h9.325c6.209,0,11.243-3.821,11.243-8.535s-5.034-8.535-11.243-8.535H11.244C5.034,285.465,0,289.286,0,294s5.034,8.535,11.244,8.535H255.662Z" transform="translate(0 -47.098)" fill="#694855"/>
            <g id="Grupo_1033287" data-name="Grupo 1033287" transform="translate(5.588 239.2)" opacity="0.58" style="mix-blend-mode: multiply;isolation: isolate">
              <g id="Grupo_1033286" data-name="Grupo 1033286">
                <g id="Grupo_1033285" data-name="Grupo 1033285" clip-path="url(#clip-path-4)">
                  <path id="Trazado_733648" data-name="Trazado 733648" d="M270.591,290.941c0,2.472-1.242,4.477-2.776,4.477H9.467c-1.532,0-2.774-2-2.774-4.477s1.242-4.478,2.774-4.478H267.815c1.533,0,2.776,2,2.776,4.478" transform="translate(-6.692 -286.463)" fill="#b0ce52"/>
                </g>
              </g>
            </g>
            <path id="Trazado_733649" data-name="Trazado 733649" d="M18.535,255.323c0-.039,0-.08,0-.119V126.651c0-23.773,15.675-43.051,35.009-43.051h5.142c19.332,0,35,19.278,35,43.051V255.2c0,.039,0,.08,0,.119Z" transform="translate(-3.058 -13.793)" fill="#ffa031"/>
            <g id="Grupo_1033290" data-name="Grupo 1033290" transform="translate(15.475 69.862)" opacity="0.2" style="mix-blend-mode: overlay;isolation: isolate">
              <g id="Grupo_1033289" data-name="Grupo 1033289">
                <g id="Grupo_1033288" data-name="Grupo 1033288" clip-path="url(#clip-path-5)">
                  <path id="Trazado_733650" data-name="Trazado 733650" d="M51.759,83.666c-14.217,5.753-24.535,22.905-24.535,43.169v128.5H18.535c0-.039,0-.08,0-.119V126.662c0-23.04,14.72-41.855,33.227-43" transform="translate(-18.532 -83.666)" fill="#fff"/>
                </g>
              </g>
            </g>
            <g id="Grupo_1033293" data-name="Grupo 1033293" transform="translate(15.475 69.806)" opacity="0.4" style="mix-blend-mode: multiply;isolation: isolate">
              <g id="Grupo_1033292" data-name="Grupo 1033292">
                <g id="Grupo_1033291" data-name="Grupo 1033291" clip-path="url(#clip-path-6)">
                  <path id="Trazado_733651" data-name="Trazado 733651" d="M56.912,228.578c0-.041,0-.082,0-.119V99.9a51.62,51.62,0,0,0-2.607-16.3h4.376c19.332,0,35,19.278,35,43.052V255.2c0,.039,0,.079,0,.119H18.535c0-.039,0-.079,0-.119V228.578Z" transform="translate(-18.532 -83.599)" fill="#f7e2c7"/>
                </g>
              </g>
            </g>
            <g id="Grupo_1033296" data-name="Grupo 1033296" transform="translate(15.475 71.683)" opacity="0.4" style="mix-blend-mode: multiply;isolation: isolate">
              <g id="Grupo_1033295" data-name="Grupo 1033295">
                <g id="Grupo_1033294" data-name="Grupo 1033294" clip-path="url(#clip-path-7)">
                  <path id="Trazado_733652" data-name="Trazado 733652" d="M79.6,246.331,76.92,113.68a50.631,50.631,0,0,0-7.994-27.832c14.335,5.389,24.762,21.783,24.762,41.174V255.574c0,.039,0,.08,0,.119H18.535c0-.039,0-.08,0-.119v-6.6C41.307,248,79.6,246.358,79.6,246.331" transform="translate(-18.532 -85.847)" fill="#f7e2c7"/>
                </g>
              </g>
            </g>
            <path id="Trazado_733653" data-name="Trazado 733653" d="M66.151,80.856v65.193a37.151,37.151,0,0,0,37.111,37.11h56.852v6.018H103.262a43.177,43.177,0,0,1-43.128-43.128V80.856Z" transform="translate(-9.921 -13.34)" fill="#115089"/>
            <rect id="Rectángulo_352495" data-name="Rectángulo 352495" width="15.035" height="8.024" transform="translate(45.594 62.21)" fill="#278de0"/>
            <g id="Grupo_1033299" data-name="Grupo 1033299" transform="translate(45.595 62.21)" style="mix-blend-mode: multiply;isolation: isolate">
              <g id="Grupo_1033298" data-name="Grupo 1033298">
                <g id="Grupo_1033297" data-name="Grupo 1033297" clip-path="url(#clip-path-8)">
                  <rect id="Rectángulo_352496" data-name="Rectángulo 352496" width="15.035" height="8.024" transform="translate(0)" fill="#278de0"/>
                </g>
              </g>
            </g>
            <g id="Grupo_1033302" data-name="Grupo 1033302" transform="translate(46.638 62.211)" opacity="0.2" style="mix-blend-mode: overlay;isolation: isolate">
              <g id="Grupo_1033301" data-name="Grupo 1033301">
                <g id="Grupo_1033300" data-name="Grupo 1033300" clip-path="url(#clip-path-9)">
                  <rect id="Rectángulo_352498" data-name="Rectángulo 352498" width="1.253" height="8.141" transform="translate(11.794)" fill="#fff"/>
                  <rect id="Rectángulo_352499" data-name="Rectángulo 352499" width="1.253" height="8.141" transform="translate(9.435)" fill="#fff"/>
                  <rect id="Rectángulo_352500" data-name="Rectángulo 352500" width="1.253" height="8.141" transform="translate(7.076)" fill="#fff"/>
                  <rect id="Rectángulo_352501" data-name="Rectángulo 352501" width="1.253" height="8.141" transform="translate(4.718)" fill="#fff"/>
                  <rect id="Rectángulo_352502" data-name="Rectángulo 352502" width="1.253" height="8.141" transform="translate(2.359)" fill="#fff"/>
                  <rect id="Rectángulo_352503" data-name="Rectángulo 352503" width="1.253" height="8.141" transform="translate(0)" fill="#fff"/>
                </g>
              </g>
            </g>
            <path id="Trazado_733654" data-name="Trazado 733654" d="M240,166.729h-8.35V20.917A12.581,12.581,0,0,0,219.083,8.35H175.531a12.581,12.581,0,0,0-12.566,12.567V55.591h-8.35V20.917A20.94,20.94,0,0,1,175.531,0h43.552A20.94,20.94,0,0,1,240,20.917Z" transform="translate(-25.509)" fill="#115089"/>
            <path id="Trazado_733655" data-name="Trazado 733655" d="M151.281,71.544a26.55,26.55,0,0,0,.082-4.28,1.447,1.447,0,0,1,1.169-.613c4.709-.053,9.241-.237,13.774-.327.661-.013,1.487.732,1.3,1.367a5.406,5.406,0,0,0,.078,2.419,2.116,2.116,0,0,1-.524,2.159,2.325,2.325,0,0,1-1.093.321,49.831,49.831,0,0,1-14.788-1.045" transform="translate(-24.959 -10.943)" fill="#99601d"/>
            <path id="Trazado_733656" data-name="Trazado 733656" d="M102.858,110.4c1.89-8.244,4.9-16.4,10.211-22.987,7.407-9.181,18.86-14.568,30.557-16.093,12.082-1.574,24.852.859,34.879,7.779S195.494,97.6,195.76,109.782c-9.371,1.608-19.2,1.942-28.7,2.2l-28.458.762a213.271,213.271,0,0,1-35.74-2.344" transform="translate(-16.97 -11.69)" fill="#f7e2c7"/>
            <g id="Grupo_1033305" data-name="Grupo 1033305" transform="translate(85.888 59.165)" style="mix-blend-mode: multiply;isolation: isolate">
              <g id="Grupo_1033304" data-name="Grupo 1033304">
                <g id="Grupo_1033303" data-name="Grupo 1033303" clip-path="url(#clip-path-10)">
                  <path id="Trazado_733657" data-name="Trazado 733657" d="M102.858,110.4c1.89-8.244,4.9-16.4,10.211-22.987,7.407-9.181,18.86-14.568,30.557-16.093,12.082-1.574,24.852.859,34.879,7.779S195.494,97.6,195.76,109.782c-9.371,1.608-19.2,1.942-28.7,2.2l-28.458.762a213.271,213.271,0,0,1-35.74-2.344" transform="translate(-102.858 -70.855)" fill="#f7e2c7"/>
                </g>
              </g>
            </g>
            <path id="Trazado_733658" data-name="Trazado 733658" d="M197.819,216.79q-.728-47.9-.412-95.8c-31.4-.637-63.332-1.115-94.714.017q-.317,47.9.412,95.8c31.4.753,63.331,1.293,94.715-.017" transform="translate(-16.927 -19.852)" fill="#f7e2c7"/>
            <path id="Trazado_733659" data-name="Trazado 733659" d="M100.913,122.492c-1.293-.023-2.524-1.973-2.374-3.257a2.527,2.527,0,0,1,2.758-2.123,10.171,10.171,0,0,0,1.531.023c30.573-.8,61.315-2.251,91.892-1.612,1.878.039,4.019,1.213,4.072,3.091a3.275,3.275,0,0,1-3.754,3.154c-.4.067-.957.149-1.355.215-30.747.367-61.6,1.065-92.769.509" transform="translate(-16.256 -19.034)" fill="#99601d"/>
            <g id="Grupo_1033308" data-name="Grupo 1033308" transform="translate(93.355 64.305)" opacity="0.2" style="mix-blend-mode: overlay;isolation: isolate">
              <g id="Grupo_1033307" data-name="Grupo 1033307">
                <g id="Grupo_1033306" data-name="Grupo 1033306" clip-path="url(#clip-path-11)">
                  <path id="Trazado_733660" data-name="Trazado 733660" d="M137.331,77.036a38.491,38.491,0,0,0-22.519,19.012,36.8,36.8,0,0,0-3,7.936.5.5,0,0,0,.965.24A37.495,37.495,0,0,1,130.1,81.306a35.574,35.574,0,0,1,7.525-3.318.5.5,0,0,0-.289-.952" transform="translate(-111.8 -77.011)" fill="#fff"/>
                </g>
              </g>
            </g>
            <g id="Grupo_1033311" data-name="Grupo 1033311" transform="translate(103.599 75.053)" opacity="0.2" style="mix-blend-mode: overlay;isolation: isolate">
              <g id="Grupo_1033310" data-name="Grupo 1033310">
                <g id="Grupo_1033309" data-name="Grupo 1033309" clip-path="url(#clip-path-12)">
                  <path id="Trazado_733661" data-name="Trazado 733661" d="M130.2,89.979a28.592,28.592,0,0,0-6,5.969.514.514,0,0,0,.018.7.5.5,0,0,0,.7-.018,27.768,27.768,0,0,1,5.8-5.808c.511-.377-.008-1.227-.524-.845" transform="translate(-124.068 -89.882)" fill="#fff"/>
                </g>
              </g>
            </g>
            <g id="Grupo_1033314" data-name="Grupo 1033314" transform="translate(149.474 66.129)" style="mix-blend-mode: multiply;isolation: isolate">
              <g id="Grupo_1033313" data-name="Grupo 1033313">
                <g id="Grupo_1033312" data-name="Grupo 1033312" clip-path="url(#clip-path-13)">
                  <path id="Trazado_733662" data-name="Trazado 733662" d="M185.925,82.579a30.742,30.742,0,0,0-6.336-3.348c-.6-.232-.828.736-.24.965a31.2,31.2,0,0,1,17.106,16.792,30.264,30.264,0,0,1,1.948,6.669c.108.628,1.059.335.952-.29a32.233,32.233,0,0,0-13.43-20.788" transform="translate(-179.008 -79.195)" fill="#f7e2c7"/>
                </g>
              </g>
            </g>
            <g id="Grupo_1033317" data-name="Grupo 1033317" transform="translate(173.311 108.098)" style="mix-blend-mode: multiply;isolation: isolate">
              <g id="Grupo_1033316" data-name="Grupo 1033316">
                <g id="Grupo_1033315" data-name="Grupo 1033315" clip-path="url(#clip-path-14)">
                  <path id="Trazado_733663" data-name="Trazado 733663" d="M208.548,129.924a.5.5,0,0,0-.994.026q.726,18.923.718,37.865,0,5.322-.065,10.644c-.008.64.987.614.994-.026q.218-18.936-.3-37.87-.147-5.321-.352-10.639" transform="translate(-207.554 -129.456)" fill="#f7e2c7"/>
                </g>
              </g>
            </g>
            <g id="Grupo_1033320" data-name="Grupo 1033320" transform="translate(168.179 108.232)" style="mix-blend-mode: multiply;isolation: isolate">
              <g id="Grupo_1033319" data-name="Grupo 1033319">
                <g id="Grupo_1033318" data-name="Grupo 1033318" clip-path="url(#clip-path-15)">
                  <path id="Trazado_733664" data-name="Trazado 733664" d="M202.4,130.084a.5.5,0,0,0-.995.026q.726,18.923.718,37.865,0,5.322-.065,10.644c-.008.64.987.614.994-.026q.217-18.936-.3-37.87-.147-5.319-.352-10.638" transform="translate(-201.408 -129.617)" fill="#f7e2c7"/>
                </g>
              </g>
            </g>
            <g id="Grupo_1033323" data-name="Grupo 1033323" transform="translate(163.047 108.366)" style="mix-blend-mode: multiply;isolation: isolate">
              <g id="Grupo_1033322" data-name="Grupo 1033322">
                <g id="Grupo_1033321" data-name="Grupo 1033321" clip-path="url(#clip-path-15)">
                  <path id="Trazado_733665" data-name="Trazado 733665" d="M196.256,130.245a.5.5,0,0,0-.994.026q.726,18.923.718,37.865,0,5.322-.065,10.644c-.008.64.987.614.994-.026q.218-18.936-.3-37.87-.147-5.319-.352-10.638" transform="translate(-195.262 -129.777)" fill="#f7e2c7"/>
                </g>
              </g>
            </g>
            <g id="Grupo_1033326" data-name="Grupo 1033326" transform="translate(85.025 98.64)" opacity="0.2" style="mix-blend-mode: overlay;isolation: isolate">
              <g id="Grupo_1033325" data-name="Grupo 1033325">
                <g id="Grupo_1033324" data-name="Grupo 1033324" clip-path="url(#clip-path-17)">
                  <path id="Trazado_733666" data-name="Trazado 733666" d="M128.335,118.131l-26.044.687a.5.5,0,0,0,.026.995l26.044-.687a.5.5,0,0,0-.026-.994" transform="translate(-101.824 -118.13)" fill="#fff"/>
                </g>
              </g>
            </g>
            <g id="Grupo_1033329" data-name="Grupo 1033329" transform="translate(162.818 98.613)" style="mix-blend-mode: multiply;isolation: isolate">
              <g id="Grupo_1033328" data-name="Grupo 1033328">
                <g id="Grupo_1033327" data-name="Grupo 1033327" clip-path="url(#clip-path-18)">
                  <path id="Trazado_733667" data-name="Trazado 733667" d="M209.911,118.1q-7.218.462-14.455.363c-.64-.009-.614.985.026.994q7.232.1,14.455-.363c.637-.041.615-1.035-.026-.995" transform="translate(-194.988 -118.098)" fill="#c13131"/>
                </g>
              </g>
            </g>
            <rect id="Rectángulo_352514" data-name="Rectángulo 352514" width="100.508" height="18.017" transform="translate(82.271 195.376)" fill="#f7e2c7"/>
            <g id="Grupo_1033332" data-name="Grupo 1033332" transform="translate(82.272 195.376)" style="mix-blend-mode: multiply;isolation: isolate">
              <g id="Grupo_1033331" data-name="Grupo 1033331">
                <g id="Grupo_1033330" data-name="Grupo 1033330" clip-path="url(#clip-path-19)">
                  <rect id="Rectángulo_352515" data-name="Rectángulo 352515" width="100.508" height="18.017" transform="translate(0 0)" fill="#f7e2c7"/>
                </g>
              </g>
            </g>
            <g id="Grupo_1033335" data-name="Grupo 1033335" transform="translate(81.854 194.959)" style="mix-blend-mode: multiply;isolation: isolate">
              <g id="Grupo_1033334" data-name="Grupo 1033334">
                <g id="Grupo_1033333" data-name="Grupo 1033333" clip-path="url(#clip-path-20)">
                  <path id="Trazado_733668" data-name="Trazado 733668" d="M98.527,252V233.98h88.254" transform="translate(-98.11 -233.562)" fill="none" stroke="#f7e2c7" stroke-linecap="round" stroke-miterlimit="10" stroke-width="1"/>
                </g>
              </g>
            </g>
            <rect id="Rectángulo_352518" data-name="Rectángulo 352518" width="135.21" height="29.716" transform="translate(74.386 213.394)" fill="#f7e2c7"/>
            <g id="Grupo_1033338" data-name="Grupo 1033338" transform="translate(121.107 212.976)" style="mix-blend-mode: multiply;isolation: isolate">
              <g id="Grupo_1033337" data-name="Grupo 1033337">
                <g id="Grupo_1033336" data-name="Grupo 1033336" clip-path="url(#clip-path-21)">
                  <line id="Línea_2759" data-name="Línea 2759" x2="49.001" transform="translate(0.417 0.418)" fill="none" stroke="#f7e2c7" stroke-linecap="round" stroke-miterlimit="10" stroke-width="1"/>
                </g>
              </g>
            </g>
            <path id="Trazado_733669" data-name="Trazado 733669" d="M291.663,267.183c-31.205,2.042-63.014,2.056-94.139-1.035a236.7,236.7,0,0,1,3.07-35.489,77.041,77.041,0,0,1,6.472-21.192,55.109,55.109,0,0,1,5.682-9.31c6.691-8.8,16.638-15.449,27.625-16.657,12.36-1.359,24.853,4.337,33.426,13.342a55.838,55.838,0,0,1,9.429,13.627,76.349,76.349,0,0,1,6.472,19.548c2.366,12.208,2.307,24.74,1.962,37.166" transform="translate(-32.589 -30.242)" fill="#065958"/>
            <path id="Trazado_733670" data-name="Trazado 733670" d="M297.054,293.087a22.916,22.916,0,0,0-1.337-5.11,8.611,8.611,0,0,0-3.28-4.047c-1.506-.918-3.017-.505-4.781-.483-29.154.361-55.962,2.116-87.445-.974a14.718,14.718,0,0,1-2.929-.7c-2.477,1.946-5.342,5.942-5.287,9.091,30.113,4.962,71.015,4.962,105.06,2.22" transform="translate(-31.676 -46.489)" fill="#006f6e"/>
            <g id="Grupo_1033344" data-name="Grupo 1033344" transform="translate(174.477 153.059)" opacity="0.2" style="mix-blend-mode: overlay;isolation: isolate">
              <g id="Grupo_1033343" data-name="Grupo 1033343">
                <g id="Grupo_1033342" data-name="Grupo 1033342" clip-path="url(#clip-path-22)">
                  <path id="Trazado_733672" data-name="Trazado 733672" d="M285.113,210.468q-9.668.169-19.336.172-20.033.01-40.057-.7-4.894-.179-9.794-.392c-2.009-.093-4.669.16-6.976-.079a55.071,55.071,0,0,1,5.682-9.31c6.691-8.8,16.637-15.45,27.625-16.657,12.36-1.359,24.853,4.336,33.426,13.341a55.838,55.838,0,0,1,9.429,13.627" transform="translate(-208.951 -183.301)" fill="#fff"/>
                </g>
              </g>
            </g>
            <path id="Trazado_733673" data-name="Trazado 733673" d="M267.672,248.65l-1.448-2.508-6.417,3.711.94,1.628a.01.01,0,0,0,.009.005,16.384,16.384,0,0,0,6.769-1.465.011.011,0,0,1,.012.017c-2.426,2.232-6.438,2.052-6.438,2.052h-4.88a.01.01,0,0,1-.011-.01v-.655a.011.011,0,0,0-.018-.008l-3.829,4.247a.01.01,0,0,0,0,.016l3.829,4.247a.011.011,0,0,0,.018-.008v-.576a.011.011,0,0,1,.011-.011H261.5a2.486,2.486,0,0,0,2.153-1.242l4.015-6.954a2.485,2.485,0,0,0,0-2.486" transform="translate(-41.636 -40.61)" fill="#f7e2c7"/>
            <path id="Trazado_733674" data-name="Trazado 733674" d="M252.992,239.016a.011.011,0,0,0,0-.01,16.384,16.384,0,0,0-4.523-5.273.01.01,0,0,1,.009-.018c3.107,1.065,4.86,4.658,4.871,4.682h0l3.091,5.357a.01.01,0,0,1,0,.014l-.452.261a.01.01,0,0,0,0,.018l5.706,1.237a.01.01,0,0,0,.013-.008l1.647-5.489a.011.011,0,0,0-.016-.012l-.466.27a.011.011,0,0,1-.014,0l-3.341-5.789a2.483,2.483,0,0,0-2.153-1.243h-8.029a2.486,2.486,0,0,0-2.153,1.242l-1.457,2.524,6.419,3.707Z" transform="translate(-40.541 -38.444)" fill="#f7e2c7"/>
            <path id="Trazado_733675" data-name="Trazado 733675" d="M246.224,251.142A16.4,16.4,0,0,0,244,257.713a.01.01,0,0,1-.02,0c-.669-3.228,1.547-6.578,1.547-6.578h0l3.195-5.524a.01.01,0,0,1,.014,0l.417.24a.01.01,0,0,0,.015-.011l-1.709-5.479-5.659,1.223a.011.011,0,0,0,0,.019l.5.289a.01.01,0,0,1,0,.014l-3.347,5.789a2.488,2.488,0,0,0,0,2.488l4.015,6.953a2.486,2.486,0,0,0,2.153,1.242h4.4v-7.241h-3.286a.01.01,0,0,0-.009,0" transform="translate(-39.368 -39.656)" fill="#f7e2c7"/>
            <path id="Trazado_733676" data-name="Trazado 733676" d="M303.67,266.687a.5.5,0,0,0-.612-.347.51.51,0,0,0-.348.612,41.925,41.925,0,0,1,.335,8.018c-.033.64.961.638.995,0a43.335,43.335,0,0,0-.369-8.283" transform="translate(-49.942 -43.94)" fill="#694855"/>
            <path id="Trazado_733677" data-name="Trazado 733677" d="M300.184,267.28c-.069-.63-1.065-.636-.995,0a35.287,35.287,0,0,1,.017,7.505c-.067.635.929.631.995,0a35.289,35.289,0,0,0-.017-7.505" transform="translate(-49.361 -44.019)" fill="#694855"/>
            <path id="Trazado_733678" data-name="Trazado 733678" d="M296.6,267.9a.513.513,0,0,0-.5-.5.5.5,0,0,0-.5.5,49.873,49.873,0,0,1,.25,6.865c-.021.64.974.64.995,0a49.873,49.873,0,0,0-.25-6.865" transform="translate(-48.77 -44.117)" fill="#694855"/>
            <g id="Grupo_1033347" data-name="Grupo 1033347" transform="translate(186.658 240.211)" opacity="0.2" style="mix-blend-mode: overlay;isolation: isolate">
              <g id="Grupo_1033346" data-name="Grupo 1033346">
                <g id="Grupo_1033345" data-name="Grupo 1033345" clip-path="url(#clip-path-23)">
                  <path id="Trazado_733679" data-name="Trazado 733679" d="M280.747,287.88q-22.16.82-44.342.235-6.192-.165-12.381-.441c-.64-.028-.65.967-.011.994q22.153.982,44.338.557,6.194-.12,12.384-.351c.637-.023.652-1.018.011-.995" transform="translate(-223.539 -287.674)" fill="#fff"/>
                </g>
              </g>
            </g>
            <g id="Grupo_1033350" data-name="Grupo 1033350" transform="translate(248.393 240.077)" opacity="0.2" style="mix-blend-mode: overlay;isolation: isolate">
              <g id="Grupo_1033349" data-name="Grupo 1033349">
                <g id="Grupo_1033348" data-name="Grupo 1033348" clip-path="url(#clip-path-24)">
                  <path id="Trazado_733680" data-name="Trazado 733680" d="M306.939,287.516a81.961,81.961,0,0,1-8.988.331.5.5,0,0,0,0,.995,81.757,81.757,0,0,0,8.988-.331c.632-.058.638-1.053,0-.994" transform="translate(-297.471 -287.513)" fill="#fff"/>
                </g>
              </g>
            </g>
            <g id="Grupo_1033353" data-name="Grupo 1033353" transform="translate(221.377 157.327)" opacity="0.2" style="mix-blend-mode: overlay;isolation: isolate">
              <g id="Grupo_1033352" data-name="Grupo 1033352">
                <g id="Grupo_1033351" data-name="Grupo 1033351" clip-path="url(#clip-path-25)">
                  <path id="Trazado_733681" data-name="Trazado 733681" d="M286.938,205.758a48.6,48.6,0,0,0-15.524-14.525,47.686,47.686,0,0,0-5.533-2.776c-.582-.247-1.09.609-.5.858a47.706,47.706,0,0,1,16.972,12.163,46.735,46.735,0,0,1,3.727,4.781c.358.526,1.221.029.859-.5" transform="translate(-265.118 -188.412)" fill="#fff"/>
                </g>
              </g>
            </g>
            <g id="Grupo_1033356" data-name="Grupo 1033356" transform="translate(95.025 117.218)" style="mix-blend-mode: multiply;isolation: isolate">
              <g id="Grupo_1033355" data-name="Grupo 1033355">
                <g id="Grupo_1033354" data-name="Grupo 1033354" clip-path="url(#clip-path-26)">
                  <path id="Trazado_733682" data-name="Trazado 733682" d="M150.1,172.143H117.426a3.627,3.627,0,0,1-3.627-3.626V144.005a3.627,3.627,0,0,1,3.627-3.626H150.1a3.626,3.626,0,0,1,3.626,3.626v24.511a3.627,3.627,0,0,1-3.626,3.626" transform="translate(-113.8 -140.378)" fill="#f7e2c7"/>
                </g>
              </g>
            </g>
            <path id="Trazado_733683" data-name="Trazado 733683" d="M148.1,170.359H115.426a3.627,3.627,0,0,1-3.627-3.626V142.221a3.627,3.627,0,0,1,3.627-3.626H148.1a3.626,3.626,0,0,1,3.626,3.626v24.511a3.627,3.627,0,0,1-3.626,3.626" transform="translate(-18.445 -22.866)" fill="#cc8027"/>
            <g id="Grupo_1033359" data-name="Grupo 1033359" transform="translate(93.354 115.731)" opacity="0.6" style="mix-blend-mode: multiply;isolation: isolate">
              <g id="Grupo_1033358" data-name="Grupo 1033358">
                <g id="Grupo_1033357" data-name="Grupo 1033357" clip-path="url(#clip-path-27)">
                  <path id="Trazado_733684" data-name="Trazado 733684" d="M151.621,141.354a3.519,3.519,0,0,0-1.854-.518H117.093a3.626,3.626,0,0,0-3.624,3.624v24.516a3.085,3.085,0,0,0,.117.877,3.61,3.61,0,0,1-1.787-3.123V142.222a3.621,3.621,0,0,1,3.624-3.624H148.1a3.62,3.62,0,0,1,3.524,2.756" transform="translate(-111.799 -138.598)" fill="#694855"/>
                </g>
              </g>
            </g>
            <path id="Trazado_733685" data-name="Trazado 733685" d="M93.429,291.271c-.681-7.783-6.258-13.853-13.04-13.853-.372,0-.736.023-1.1.058a16.057,16.057,0,0,0-13.873-8.347c-6.956,0-12.89,4.691-15.215,11.288A16.475,16.475,0,0,0,36.73,291.271Z" transform="translate(-6.06 -44.403)" fill="#96a22a"/>
            <g id="Grupo_1033362" data-name="Grupo 1033362" transform="translate(30.67 224.727)" opacity="0.2" style="mix-blend-mode: multiply;isolation: isolate">
              <g id="Grupo_1033361" data-name="Grupo 1033361">
                <g id="Grupo_1033360" data-name="Grupo 1033360" clip-path="url(#clip-path-28)">
                  <path id="Trazado_733686" data-name="Trazado 733686" d="M93.429,291.271c-.681-7.783-6.258-13.853-13.04-13.853-.372,0-.736.023-1.1.058a16.057,16.057,0,0,0-13.873-8.347c-6.956,0-12.89,4.691-15.215,11.288A16.475,16.475,0,0,0,36.73,291.271Z" transform="translate(-36.73 -269.13)" fill="#96a22a"/>
                </g>
              </g>
            </g>
            <path id="Trazado_733687" data-name="Trazado 733687" d="M132.682,291.271c-.681-7.783-6.258-13.853-13.04-13.853-.371,0-.736.023-1.1.058a16.057,16.057,0,0,0-13.873-8.347c-6.956,0-12.889,4.691-15.215,11.288a16.474,16.474,0,0,0-13.471,10.853Z" transform="translate(-12.536 -44.403)" fill="#b0ce52"/>
            <line id="Línea_2760" data-name="Línea 2760" y2="17.217" transform="translate(92.986 229.579)" fill="none" stroke="#96a22a" stroke-miterlimit="10" stroke-width="1.19"/>
            <line id="Línea_2761" data-name="Línea 2761" x2="7.781" y2="9.106" transform="translate(85.04 236.201)" fill="none" stroke="#96a22a" stroke-miterlimit="10" stroke-width="1.19"/>
            <line id="Línea_2762" data-name="Línea 2762" x2="7.781" y2="9.106" transform="translate(85.371 230.241)" fill="none" stroke="#96a22a" stroke-miterlimit="10" stroke-width="1.19"/>
            <line id="Línea_2763" data-name="Línea 2763" x1="7.781" y2="9.106" transform="translate(93.152 232.725)" fill="none" stroke="#96a22a" stroke-miterlimit="10" stroke-width="1.19"/>
          </g>
        </g>
      </g>
    </g>
  </g>
</svg>
