<svg xmlns="http://www.w3.org/2000/svg" xmlns:xlink="http://www.w3.org/1999/xlink" width="400" height="458.999" viewBox="0 0 400 458.999">
  <defs>
    <clipPath id="clip-path">
      <rect id="Rectángulo_351470" data-name="Rectángulo 351470" width="400" height="458.999" transform="translate(0 -62)" fill="none"/>
    </clipPath>
    <clipPath id="clip-path-2">
      <rect id="Rectángulo_351469" data-name="Rectángulo 351469" width="400" height="447.458" transform="translate(0 -50.458)" fill="none"/>
    </clipPath>
    <clipPath id="clip-path-3">
      <rect id="Rectángulo_351453" data-name="Rectángulo 351453" width="86.016" height="189.966" fill="none"/>
    </clipPath>
    <clipPath id="clip-path-4">
      <rect id="Rectángulo_351454" data-name="Rectángulo 351454" width="107.901" height="154.109" fill="none"/>
    </clipPath>
    <clipPath id="clip-path-5">
      <rect id="Rectángulo_351455" data-name="Rectángulo 351455" width="274.511" height="259.325" fill="#b0c0d2"/>
    </clipPath>
    <clipPath id="clip-path-6">
      <rect id="Rectángulo_351463" data-name="Rectángulo 351463" width="317.214" height="317.234" fill="none"/>
    </clipPath>
    <clipPath id="clip-path-7">
      <rect id="Rectángulo_351456" data-name="Rectángulo 351456" width="89.207" height="316.376" fill="none"/>
    </clipPath>
    <clipPath id="clip-path-8">
      <rect id="Rectángulo_351457" data-name="Rectángulo 351457" width="242.587" height="317.234" fill="none"/>
    </clipPath>
    <clipPath id="clip-path-9">
      <rect id="Rectángulo_351458" data-name="Rectángulo 351458" width="291.876" height="1.298" fill="none"/>
    </clipPath>
    <clipPath id="clip-path-10">
      <rect id="Rectángulo_351459" data-name="Rectángulo 351459" width="207.289" height="1.296" fill="none"/>
    </clipPath>
    <clipPath id="clip-path-11">
      <rect id="Rectángulo_351460" data-name="Rectángulo 351460" width="317.214" height="1.297" fill="none"/>
    </clipPath>
    <clipPath id="clip-path-12">
      <rect id="Rectángulo_351461" data-name="Rectángulo 351461" width="291.876" height="1.297" fill="none"/>
    </clipPath>
    <clipPath id="clip-path-13">
      <rect id="Rectángulo_351462" data-name="Rectángulo 351462" width="208.021" height="0.959" fill="none"/>
    </clipPath>
    <clipPath id="clip-path-14">
      <rect id="Rectángulo_351468" data-name="Rectángulo 351468" width="5.79" height="14.986" fill="none"/>
    </clipPath>
  </defs>
  <g id="Grupo_1031660" data-name="Grupo 1031660" transform="translate(0 62)" clip-path="url(#clip-path)">
    <g id="Grupo_1031659" data-name="Grupo 1031659" transform="translate(0 -0.001)">
      <g id="Grupo_1031658" data-name="Grupo 1031658" clip-path="url(#clip-path-2)">
        <path id="Trazado_731147" data-name="Trazado 731147" d="M392.713,269.166c-40.256,93.7-146.519,133.944-229.777,127.082C140.2,394.374,94.464,390.6,58.75,356.974-9.835,292.387.728,157.383,66.384,77.9,74.839,67.665,133.364-.913,224.564,0,291.336.677,338.2,38.237,343.9,42.916a183.306,183.306,0,0,1,37.388,42.242c33.624,52.36,36.58,125.456,11.424,184.008" transform="translate(-9.374 0.005)" fill="#efeff4"/>
        <path id="Trazado_731148" data-name="Trazado 731148" d="M167.82.327c23.007,13.886,153.595,100.162,94.646,237.246,0,0-100.592-34.668-98.1-235.335A2.274,2.274,0,0,1,167.82.327" transform="translate(-59.324 -52.806)" fill="#e8e8e8"/>
        <g id="Grupo_1031624" data-name="Grupo 1031624" transform="translate(49.342 25.538)" opacity="0.28">
          <g id="Grupo_1031623" data-name="Grupo 1031623">
            <g id="Grupo_1031622" data-name="Grupo 1031622" clip-path="url(#clip-path-3)">
              <path id="Trazado_731149" data-name="Trazado 731149" d="M225.74,116.831c4.645,7.378,9.049,14.9,13.414,22.447q6.5,11.347,12.72,22.849c4.171,7.656,8.17,15.4,12.154,23.161,3.949,7.775,7.768,15.616,11.541,23.48q5.585,11.831,10.835,23.823l2.578,6.015,2.517,6.042q2.513,6.043,4.846,12.162,4.754,12.2,8.71,24.694a250.05,250.05,0,0,1,6.7,25.293c-2.44-8.369-5.231-16.609-8.261-24.76l-1.12-3.061-1.169-3.044c-.793-2.024-1.544-4.062-2.37-6.073l-2.425-6.051-2.5-6.023c-3.4-8-6.795-16-10.416-23.908-3.576-7.925-7.2-15.83-10.961-23.672q-5.555-11.8-11.344-23.5c-3.812-7.821-7.743-15.584-11.632-23.37q-11.769-23.308-23.821-46.5" transform="translate(-225.74 -116.831)" fill="#fff"/>
            </g>
          </g>
        </g>
        <path id="Trazado_731150" data-name="Trazado 731150" d="M2.7,412.4c22.658,7.838,152.65,58.835,126.706,189.414,0,0-94.221-11.543-129.362-187.1A2.028,2.028,0,0,1,2.7,412.4" transform="translate(0 -322.171)" fill="#e8e8e8"/>
        <g id="Grupo_1031627" data-name="Grupo 1031627" transform="translate(15.497 109.931)" opacity="0.28">
          <g id="Grupo_1031626" data-name="Grupo 1031626">
            <g id="Grupo_1031625" data-name="Grupo 1031625" clip-path="url(#clip-path-4)">
              <path id="Trazado_731151" data-name="Trazado 731151" d="M72,502.928q14.819,18,29.023,36.461,14.242,18.442,27.92,37.321c9.09,12.6,17.962,25.374,26.413,38.438q6.357,9.785,12.279,19.862c3.938,6.722,7.723,13.546,11.167,20.569l-3.024,1.458c-3.32-6.953-7-13.754-10.839-20.466s-7.851-13.337-12-19.876c-8.28-13.095-17-25.925-25.937-38.6s-18.134-25.174-27.489-37.552S80.634,515.905,70.9,503.831Z" transform="translate(-70.9 -502.928)" fill="#fff"/>
            </g>
          </g>
        </g>
        <path id="Trazado_731152" data-name="Trazado 731152" d="M488.873,247.967c-3.925,89.411-85.344,158.459-181.855,154.222S135.452,322.036,139.377,232.624,224.721,74.166,321.232,78.4,492.8,158.556,488.873,247.967" transform="translate(-108.797 -61.12)" fill="#d2e1f1"/>
        <path id="Trazado_731153" data-name="Trazado 731153" d="M279.039,258.718c-3.839,6.164-6.8,13.1-6.244,20.343.644,8.384,4.887,16.235,5.1,24.64.369,14.255-10.635,26.188-14.068,40.028-3.837,15.47,10.63,33.1,16.393,41.732s3.287-7.006,6.782-13.1,11.032,25.663,22.8,32.634c6.316,3.74,13.726,6.23,18.269,12,6.625,8.409,4.79,20.376,3.8,31.036s.5,23.651,10.1,28.389c5.653,2.79,12.838,1.846,17.939,5.55,8.958,6.5,4.679,20.685,8.229,31.171,3.86,11.4,11.515,11.553,23.357,13.971s-1.492-23.6,4.056-32.693c2.916-4.779,7.368-8.583,9.667-13.687,3.19-7.079,2.291-16.538,8.479-21.229,4.638-3.516,11.092-2.565,16.912-2.616s12.9-2.577,13.559-8.36c.586-5.131-4.551-9.222-9.576-10.411s-10.381-.622-15.316-2.142c-14.117-4.347-20.7-24.1-35.444-25.026-12.6-.79-23.156,13.355-35.539,10.884-6.9-1.377-11.628-7.491-16.752-12.317-6.582-6.2-14.751-10.853-19.977-18.232s-6.115-19.174,1.319-24.322c5.523-3.824,13.369-2.272,18.825,1.647s9.172,9.732,13.179,15.123c1.238,1.665,2.638,3.391,4.618,4.01,5.328,1.668,9.215-5.827,7.94-11.263s-5.114-10.216-5.295-15.795c-.318-9.834,10.272-16.073,19.562-19.314s20.239-7.1,22.971-16.556c.965-3.339.712-7.013,2.184-10.161,4.88-10.433,30.628-15.641,24.473-21.69s-25.689-7.365-29.493-19.548c-1.362-4.362-2.764-10.127-7.314-10.549-7.411-.687-11.64,8.486-17.856,10.061-2.951.748-3.235,5.76-3.12,11.924a8.1,8.1,0,0,1-16.2.306,12.518,12.518,0,0,1,.942-5.013c1.2-2.934,3.47-5.28,5.761-7.468,9.561-9.129,38.091-19.16,32.116-23.046s-34.647-14.61-38.924-8.692,2.8.907,4.522,7.926-21.211,6.078-31.816,9.117c-1.751.5-3.693.99-5.333.2-1.833-.887-2.6-3.02-3.6-4.8-5.326-9.516-23.042-3.339-23.042-3.339a28.827,28.827,0,0,0-8.941,8.686" transform="translate(-205.664 -186.902)" fill="#b0c0d2"/>
        <path id="Trazado_731154" data-name="Trazado 731154" d="M700.393,93.508c-2.575,4.8,5.083,4.722,5.844,10.116,6.894.751,9.725-10.117,16.542-11.386,3.847-.716,7.578,2.041,9.669,5.349s3.066,7.192,4.838,10.682A26.3,26.3,0,0,0,758.195,122.3c1.9.155,4,.033,5.428-1.228,4.155-3.661-1.789-10.539-.245-15.858,1.765-6.077,10.528-5.155,16.45-7.384,1.634-.615,14.2-3.967,14.4-5.7.358-3.074-5.471-5.03-11.991-6.707-11.048-2.841-30.487-2.723-39.988-1.863-12.641,1.144-33.7.22-41.855,9.948" transform="translate(-546.89 -64.875)" fill="#b0c0d2"/>
        <path id="Trazado_731155" data-name="Trazado 731155" d="M1420.942,513.538a159.34,159.34,0,0,0-.7-54.2c-.887-4.762-2.965-10.439-7.761-11.125-5.547-.793-12.337,5.579-15.809,1.181-1.533-1.941-.921-4.767-.053-7.083a46.934,46.934,0,0,1,10.448-16.377c2.842-2.889,6.093-5.45,8.281-8.861,4.68-7.295,1.395-17.955-5.228-23.544s-15.168,4.434-22.13.455-7.179-13.632-8.487-21.544c-.969-5.86-5.287-21.737-10.057-14.005s6.363,38.513,18.891,53.268c1.511,1.78,3.18,3.773,3.052,6.1-.3,5.567-8.417,5.319-13.875,6.459-6.756,1.411-17.11-2.207-11.4,9.565,3.014,6.209,17.409,14.706,13.541,18.861s-15.76,16.19-21.339,25.923-8.284,21.853-4.076,32.253,16.86,17.581,27.188,13.2c4.834-2.051,10.1-6.314,14.6-3.6,4.069,2.46,3.469,8.365,3.267,13.116s2.537,11.057,7.16,9.941a7.666,7.666,0,0,0,3.744-2.7c6.5-7.474,9.182-17.5,10.745-27.287" transform="translate(-1056.628 -278.458)" fill="#b0c0d2"/>
        <g id="Grupo_1031630" data-name="Grupo 1031630" transform="translate(58.606 37.822)" opacity="0.65">
          <g id="Grupo_1031629" data-name="Grupo 1031629">
            <g id="Grupo_1031628" data-name="Grupo 1031628" clip-path="url(#clip-path-5)">
              <path id="Trazado_731156" data-name="Trazado 731156" d="M542.632,302.694c0,71.61-61.451,129.662-137.255,129.662S268.122,374.3,268.122,302.694s61.451-129.662,137.255-129.662,137.255,58.052,137.255,129.662" transform="translate(-268.122 -173.032)" fill="#b0c0d2"/>
            </g>
          </g>
        </g>
        <g id="Grupo_1031654" data-name="Grupo 1031654" transform="translate(50.585 23.393)" opacity="0.68">
          <g id="Grupo_1031653" data-name="Grupo 1031653">
            <g id="Grupo_1031652" data-name="Grupo 1031652" clip-path="url(#clip-path-6)">
              <g id="Grupo_1031633" data-name="Grupo 1031633" transform="translate(114.398 0.857)" style="mix-blend-mode: soft-light;isolation: isolate">
                <g id="Grupo_1031632" data-name="Grupo 1031632">
                  <g id="Grupo_1031631" data-name="Grupo 1031631" clip-path="url(#clip-path-7)">
                    <path id="Trazado_731157" data-name="Trazado 731157" d="M844.006,268.651c-.042,28.574-2,57.205-7.015,85.374-1.271,7.037-2.744,14.039-4.5,20.975a202.12,202.12,0,0,1-6.289,20.525,97.235,97.235,0,0,1-9.384,19.337,38.558,38.558,0,0,1-7.037,8.218,20.043,20.043,0,0,1-4.6,2.968,13.763,13.763,0,0,1-5.362,1.266,13.508,13.508,0,0,1-5.42-1,18.808,18.808,0,0,1-4.705-2.8,36.6,36.6,0,0,1-7.189-8.088,74.506,74.506,0,0,1-5.315-9.374c-1.557-3.234-2.943-6.544-4.2-9.9a197.431,197.431,0,0,1-6.356-20.5c-1.775-6.931-3.263-13.931-4.544-20.965-2.558-14.071-4.3-28.279-5.472-42.525s-1.745-28.542-1.809-42.837c-.031-7.147.152-14.293.4-21.434s.65-14.278,1.17-21.406c1.046-14.253,2.614-28.475,4.95-42.579,1.172-7.051,2.54-14.072,4.186-21.031a202.363,202.363,0,0,1,5.951-20.609c1.2-3.372,2.506-6.709,4-9.966a72.782,72.782,0,0,1,5.12-9.454,35.209,35.209,0,0,1,7.036-8.148,17.973,17.973,0,0,1,4.649-2.79,13.1,13.1,0,0,1,5.343-.953,14.145,14.145,0,0,1,5.281,1.241,20.667,20.667,0,0,1,4.592,2.871,39.239,39.239,0,0,1,7.189,8.009,76.578,76.578,0,0,1,5.462,9.257c1.621,3.2,3.065,6.475,4.4,9.8a195.474,195.474,0,0,1,6.755,20.36c1.9,6.894,3.511,13.866,4.9,20.878,5.507,28.074,7.741,56.709,7.818,85.287m-1.816,0c.022-14.245-.524-28.494-1.711-42.689a410.654,410.654,0,0,0-5.6-42.344c-1.321-7-2.858-13.955-4.687-20.835a194.329,194.329,0,0,0-6.529-20.315,95.634,95.634,0,0,0-9.595-18.979,38.6,38.6,0,0,0-6.988-7.937,20.061,20.061,0,0,0-4.43-2.829,13.285,13.285,0,0,0-5.062-1.231,12.443,12.443,0,0,0-5.108.957,17.373,17.373,0,0,0-4.466,2.74,34.543,34.543,0,0,0-6.82,8.055,71.974,71.974,0,0,0-4.976,9.4c-1.45,3.243-2.718,6.568-3.876,9.93a201.145,201.145,0,0,0-5.727,20.557c-1.574,6.944-2.871,13.951-3.973,20.987-2.2,14.076-3.626,28.267-4.536,42.485s-1.248,28.472-1.224,42.719q-.045,21.367,1.521,42.7c1.075,14.2,2.717,28.37,5.171,42.4,1.23,7.013,2.666,13.99,4.385,20.9a196.31,196.31,0,0,0,6.179,20.409c1.229,3.333,2.58,6.62,4.1,9.825a73.419,73.419,0,0,0,5.172,9.265,35.586,35.586,0,0,0,6.922,7.9,17.817,17.817,0,0,0,4.436,2.687,12.276,12.276,0,0,0,5.024.953,12.779,12.779,0,0,0,4.974-1.213,19.044,19.044,0,0,0,4.344-2.849,37.53,37.53,0,0,0,6.78-8.037,96.057,96.057,0,0,0,9.132-19.162,200.644,200.644,0,0,0,6.107-20.431c1.7-6.91,3.119-13.89,4.337-20.9,2.436-14.031,4.058-28.2,5.136-42.4s1.592-28.454,1.588-42.7" transform="translate(-754.799 -110.944)" fill="#fff"/>
                  </g>
                </g>
              </g>
              <g id="Grupo_1031636" data-name="Grupo 1031636" transform="translate(33.097)" style="mix-blend-mode: soft-light;isolation: isolate">
                <g id="Grupo_1031635" data-name="Grupo 1031635">
                  <g id="Grupo_1031634" data-name="Grupo 1031634" clip-path="url(#clip-path-8)">
                    <path id="Trazado_731158" data-name="Trazado 731158" d="M625.434,265.585a208.2,208.2,0,0,1-7.373,54.526,175.641,175.641,0,0,1-22.781,50.012,144.008,144.008,0,0,1-17.41,21.347,122.076,122.076,0,0,1-21.437,17.278A103.383,103.383,0,0,1,531.412,420.2a93.409,93.409,0,0,1-54.408.021,103.429,103.429,0,0,1-25.038-11.431A122.194,122.194,0,0,1,430.5,391.518a144.093,144.093,0,0,1-17.438-21.344,175.837,175.837,0,0,1-22.832-50.028,206.075,206.075,0,0,1-7.387-54.561,216.49,216.49,0,0,1,1.875-27.527,198.154,198.154,0,0,1,5.542-27.026,175.79,175.79,0,0,1,22.859-50,144,144,0,0,1,17.441-21.324,121.815,121.815,0,0,1,21.457-17.24,103.761,103.761,0,0,1,25.021-11.395,92.843,92.843,0,0,1,54.335.019,103.713,103.713,0,0,1,25,11.412,121.743,121.743,0,0,1,21.431,17.252,143.888,143.888,0,0,1,17.412,21.327,175.562,175.562,0,0,1,22.807,49.983,208.151,208.151,0,0,1,7.4,54.517m-2.081,0a206.186,206.186,0,0,0-7.118-54.019,174.962,174.962,0,0,0-22.159-49.718,142.678,142.678,0,0,0-17.071-21.294A119.291,119.291,0,0,0,555.9,123.271a101.987,101.987,0,0,0-24.747-11.429,90.867,90.867,0,0,0-53.87.019,101.943,101.943,0,0,0-24.73,11.446A119.2,119.2,0,0,0,431.466,140.6a142.584,142.584,0,0,0-17.042,21.3,174.745,174.745,0,0,0-22.106,49.7A199.325,199.325,0,0,0,387,238.36a207.6,207.6,0,0,0,.014,54.448,199.319,199.319,0,0,0,5.335,26.752,174.673,174.673,0,0,0,22.134,49.673,142.517,142.517,0,0,0,17.043,21.277A118.862,118.862,0,0,0,452.6,407.777a102.284,102.284,0,0,0,24.713,11.409,90.32,90.32,0,0,0,53.8.021,102.316,102.316,0,0,0,24.73-11.393,118.977,118.977,0,0,0,21.1-17.257,142.573,142.573,0,0,0,17.073-21.273A174.91,174.91,0,0,0,616.2,319.6a206.18,206.18,0,0,0,7.149-54.01" transform="translate(-382.847 -107.021)" fill="#fff"/>
                  </g>
                </g>
              </g>
              <g id="Grupo_1031639" data-name="Grupo 1031639" transform="translate(12.669 95.257)" style="mix-blend-mode: soft-light;isolation: isolate">
                <g id="Grupo_1031638" data-name="Grupo 1031638">
                  <g id="Grupo_1031637" data-name="Grupo 1031637" clip-path="url(#clip-path-9)">
                    <path id="Trazado_731159" data-name="Trazado 731159" d="M289.523,543.335l36.456-.252,36.456-.144,72.913-.115,72.912.127,36.457.156,36.456.273a.092.092,0,0,1,0,.184l-36.456.273-36.457.156-72.912.127-72.913-.115-36.456-.144-36.456-.252a.137.137,0,0,1,0-.274" transform="translate(-289.387 -542.823)" fill="#fff"/>
                  </g>
                </g>
              </g>
              <g id="Grupo_1031642" data-name="Grupo 1031642" transform="translate(54.963 34.197)" style="mix-blend-mode: soft-light;isolation: isolate">
                <g id="Grupo_1031641" data-name="Grupo 1031641">
                  <g id="Grupo_1031640" data-name="Grupo 1031640" clip-path="url(#clip-path-10)">
                    <path id="Trazado_731160" data-name="Trazado 731160" d="M483.017,263.981l25.883-.253,25.883-.143c8.628-.061,17.256-.054,25.883-.073l25.883-.042,51.766.127,25.883.156c8.628.093,17.255.147,25.883.273a.092.092,0,0,1,0,.184c-8.628.126-17.255.18-25.883.273l-25.883.156-51.766.127-25.883-.042c-8.628-.019-17.256-.012-25.883-.073l-25.883-.143-25.883-.253a.137.137,0,0,1,0-.274" transform="translate(-482.882 -263.47)" fill="#fff"/>
                  </g>
                </g>
              </g>
              <g id="Grupo_1031645" data-name="Grupo 1031645" transform="translate(0 156.319)" style="mix-blend-mode: soft-light;isolation: isolate">
                <g id="Grupo_1031644" data-name="Grupo 1031644" transform="translate(0 0)">
                  <g id="Grupo_1031643" data-name="Grupo 1031643" clip-path="url(#clip-path-11)">
                    <path id="Trazado_731161" data-name="Trazado 731161" d="M231.563,822.69l39.623-.252,39.624-.144,79.247-.115,79.247.127,39.623.157,39.623.273a.092.092,0,0,1,0,.184l-39.623.273-39.623.157-79.247.127-79.247-.116-39.624-.144-39.623-.252a.137.137,0,0,1,0-.274" transform="translate(-231.427 -822.179)" fill="#fff"/>
                  </g>
                </g>
              </g>
              <g id="Grupo_1031648" data-name="Grupo 1031648" transform="translate(12.669 217.38)" style="mix-blend-mode: soft-light;isolation: isolate">
                <g id="Grupo_1031647" data-name="Grupo 1031647" transform="translate(0 0)">
                  <g id="Grupo_1031646" data-name="Grupo 1031646" clip-path="url(#clip-path-12)">
                    <path id="Trazado_731162" data-name="Trazado 731162" d="M289.523,1102.045l36.456-.252,36.456-.144,72.913-.115,72.912.127,36.457.156,36.456.273a.092.092,0,0,1,0,.184l-36.456.273-36.457.157-72.912.127-72.913-.115-36.456-.144-36.456-.252a.137.137,0,0,1,0-.274" transform="translate(-289.387 -1101.533)" fill="#fff"/>
                  </g>
                </g>
              </g>
              <g id="Grupo_1031651" data-name="Grupo 1031651" transform="translate(59.835 278.609)" style="mix-blend-mode: soft-light;isolation: isolate">
                <g id="Grupo_1031650" data-name="Grupo 1031650">
                  <g id="Grupo_1031649" data-name="Grupo 1031649" clip-path="url(#clip-path-13)">
                    <path id="Trazado_731163" data-name="Trazado 731163" d="M712.715,1382.617H505.653a.48.48,0,1,1,0-.959H712.715a.48.48,0,1,1,0,.959" transform="translate(-505.173 -1381.658)" fill="#fff"/>
                  </g>
                </g>
              </g>
            </g>
          </g>
        </g>
        <path id="Trazado_731164" data-name="Trazado 731164" d="M268.173,997.619H208a2.138,2.138,0,0,1-2.131-2.131V988.43A2.137,2.137,0,0,1,208,986.3h60.175a2.137,2.137,0,0,1,2.131,2.131v7.058a2.137,2.137,0,0,1-2.131,2.131" transform="translate(-160.869 -770.714)" fill="#5c5e61"/>
        <path id="Trazado_731165" data-name="Trazado 731165" d="M643.979,1002.93H583.8a2.137,2.137,0,0,1-2.131-2.131v-7.058a2.138,2.138,0,0,1,2.131-2.131h60.175a2.138,2.138,0,0,1,2.131,2.131v7.058a2.138,2.138,0,0,1-2.131,2.131" transform="translate(-454.531 -774.864)" fill="#5c5e61"/>
        <path id="Trazado_731166" data-name="Trazado 731166" d="M1043.688,1002.93H983.513a2.138,2.138,0,0,1-2.131-2.131v-7.058a2.138,2.138,0,0,1,2.131-2.131h60.175a2.137,2.137,0,0,1,2.131,2.131v7.058a2.137,2.137,0,0,1-2.131,2.131" transform="translate(-766.872 -774.864)" fill="#5c5e61"/>
        <rect id="Rectángulo_351464" data-name="Rectángulo 351464" width="303.123" height="18.392" transform="translate(21.598 337.919)" fill="#636363"/>
        <rect id="Rectángulo_351465" data-name="Rectángulo 351465" width="6.13" height="25.203" transform="translate(15.468 333.832)" fill="#5c5e61"/>
        <path id="Trazado_731167" data-name="Trazado 731167" d="M1540.44,1090.3l-14.719-71.109c-.353-1.438-1.37-1.683-2.516-1.683h-51.6a5.551,5.551,0,0,0-5.426,5.669v128.235h76.96Z" transform="translate(-1145.701 -795.099)" fill="#ffa031"/>
        <path id="Trazado_731168" data-name="Trazado 731168" d="M1604.794,1561.136a5.643,5.643,0,0,0-2.965-.729l-57.706,1.109-.328,16.355,58.062,1.412c2.108,0,4.488-1.017,4.488-2.442v-13.854c0-.7-.811-1.365-1.55-1.85" transform="translate(-1206.353 -1219.332)" fill="#74767b"/>
        <path id="Trazado_731169" data-name="Trazado 731169" d="M1578.043,1151.477a3.392,3.392,0,0,0,3.706-3.858l-7.69-53.642c-.29-1.9-1.321-3.331-2.5-3.331h-32.481a2.41,2.41,0,0,0-1.852,1.4,6.26,6.26,0,0,0-.728,3.155l.183,50.179c.03,1.658,29.979,4.915,41.363,6.094" transform="translate(-1200.65 -852.252)" fill="#12263f"/>
        <path id="Trazado_731170" data-name="Trazado 731170" d="M1725.973,1092.184l10.083,55.782a3.456,3.456,0,0,0,3.4,2.842h4.263L1730.4,1087.99l-1.707.3a3.351,3.351,0,0,0-2.722,3.9" transform="translate(-1348.669 -850.177)" fill="#12263f"/>
        <path id="Rectángulo_351466" data-name="Rectángulo 351466" d="M2.554,0h9.877a2.554,2.554,0,0,1,2.554,2.554v0a2.554,2.554,0,0,1-2.554,2.554H2.554A2.554,2.554,0,0,1,0,2.554v0A2.554,2.554,0,0,1,2.554,0Z" transform="translate(338.004 303.519)" fill="#e5b731"/>
        <rect id="Rectángulo_351467" data-name="Rectángulo 351467" width="12.261" height="12.942" rx="6.131" transform="translate(386.027 324.636)" fill="#5c5e61"/>
        <g id="Grupo_1031657" data-name="Grupo 1031657" transform="translate(385.005 324.636)" opacity="0.3">
          <g id="Grupo_1031656" data-name="Grupo 1031656">
            <g id="Grupo_1031655" data-name="Grupo 1031655" clip-path="url(#clip-path-14)">
              <path id="Trazado_731171" data-name="Trazado 731171" d="M1767.189,1485.2v14.986h-1.839c-1.425,0-3.951-1.516-3.951-2.942v-8.5c0-1.425,2.526-3.545,3.951-3.545Z" transform="translate(-1761.399 -1485.205)" fill="#e8e8ef"/>
            </g>
          </g>
        </g>
        <path id="Trazado_731172" data-name="Trazado 731172" d="M1513.127,1355.673a.48.48,0,0,1-.48-.48v-60.284a.48.48,0,1,1,.959,0v60.284a.48.48,0,0,1-.479.48" transform="translate(-1182.014 -1011.493)" fill="#f7e57e"/>
        <path id="Trazado_731173" data-name="Trazado 731173" d="M300.244,1125.839H19.521q-20.378-56.363,0-112.726H297.74a26.233,26.233,0,0,1,26.233,26.233v62.764a23.729,23.729,0,0,1-23.729,23.729" transform="translate(-7.292 -791.667)" fill="#636363"/>
        <path id="Trazado_731174" data-name="Trazado 731174" d="M28.89,1069.3c0,31.034-4.378,56.193-9.779,56.193s-9.779-25.159-9.779-56.193,4.378-56.193,9.779-56.193,9.779,25.158,9.779,56.193" transform="translate(-7.292 -791.666)" fill="#5c5e61"/>
        <path id="Trazado_731175" data-name="Trazado 731175" d="M282.665,1497.307H101.09a2.285,2.285,0,0,1-2.278-2.278v-7.545a2.285,2.285,0,0,1,2.278-2.278H282.665a2.285,2.285,0,0,1,2.278,2.278v7.545a2.285,2.285,0,0,1-2.278,2.278" transform="translate(-77.214 -1160.569)" fill="#afafaf"/>
        <path id="Trazado_731176" data-name="Trazado 731176" d="M56.587,1102.743h-.023a.719.719,0,0,1-.7-.742l3.647-115.485c.062-1.968,2.19-3.509,4.846-3.509H81c2.273,0,4.053,1.336,4.053,3.041v11.9a.719.719,0,1,1-1.439,0v-11.9c0-.869-1.2-1.6-2.614-1.6H64.36c-1.811,0-3.372.969-3.408,2.115l-3.647,115.485a.719.719,0,0,1-.718.7" transform="translate(-43.656 -768.141)" fill="#fff"/>
        <path id="Trazado_731177" data-name="Trazado 731177" d="M11.579,1099.039h-.017a.72.72,0,0,1-.7-.735l2.4-106.133a3.961,3.961,0,0,1,3.938-3.853H29.066a3.118,3.118,0,0,1,3.114,3.114v2.305a.719.719,0,1,1-1.439,0v-2.305a1.677,1.677,0,0,0-1.675-1.675H17.2a2.514,2.514,0,0,0-2.5,2.446l-2.4,106.133a.719.719,0,0,1-.719.7" transform="translate(-8.486 -772.291)" fill="#fff"/>
        <path id="Trazado_731178" data-name="Trazado 731178" d="M21.707,1436.58a.717.717,0,0,1-.259-.049l-10.128-3.908a.719.719,0,1,1,.518-1.342l10.128,3.908a.72.72,0,0,1-.259,1.391" transform="translate(-8.486 -1118.394)" fill="#fff"/>
        <path id="Trazado_731179" data-name="Trazado 731179" d="M25.135,1356.62a.716.716,0,0,1-.287-.06l-10.442-4.541a.72.72,0,1,1,.574-1.319l10.442,4.541a.72.72,0,0,1-.288,1.379" transform="translate(-10.919 -1055.417)" fill="#fff"/>
        <path id="Trazado_731180" data-name="Trazado 731180" d="M27.079,1280.307a.72.72,0,0,1-.279-.057l-10.284-4.332a.719.719,0,1,1,.558-1.326l10.284,4.332a.719.719,0,0,1-.28,1.383" transform="translate(-12.562 -995.947)" fill="#fff"/>
        <path id="Trazado_731181" data-name="Trazado 731181" d="M28.926,1192.537a.719.719,0,0,1-.266-.051l-10.547-4.2a.72.72,0,1,1,.533-1.337l10.547,4.2a.72.72,0,0,1-.266,1.388" transform="translate(-13.799 -927.462)" fill="#fff"/>
        <path id="Trazado_731182" data-name="Trazado 731182" d="M29.9,1123.676a.716.716,0,0,1-.269-.053l-10.875-4.4a.719.719,0,1,1,.539-1.334l10.875,4.4a.72.72,0,0,1-.27,1.387" transform="translate(-14.307 -873.5)" fill="#fff"/>
        <path id="Trazado_731183" data-name="Trazado 731183" d="M491.675,976.595a.72.72,0,0,1-.72-.72v-7.764a2.258,2.258,0,0,0-2.256-2.256H454.522a2.185,2.185,0,0,0-2.183,2.183v7.837a.719.719,0,1,1-1.439,0v-7.837a3.626,3.626,0,0,1,3.622-3.622H488.7a3.7,3.7,0,0,1,3.695,3.695v7.764a.72.72,0,0,1-.72.72" transform="translate(-352.343 -753.614)" fill="#fff"/>
        <path id="Trazado_731184" data-name="Trazado 731184" d="M872.35,975.931a.72.72,0,0,1-.72-.72v-7.764a2.258,2.258,0,0,0-2.256-2.256H835.2a2.185,2.185,0,0,0-2.183,2.183v7.837a.719.719,0,1,1-1.439,0v-7.837a3.626,3.626,0,0,1,3.622-3.622h34.178a3.7,3.7,0,0,1,3.695,3.695v7.764a.72.72,0,0,1-.719.72" transform="translate(-649.81 -753.095)" fill="#fff"/>
        <path id="Trazado_731185" data-name="Trazado 731185" d="M1567.187,1548.852a26.173,26.173,0,1,1-26.173-26.173,26.173,26.173,0,0,1,26.173,26.173" transform="translate(-1183.728 -1189.852)" fill="#12263f"/>
        <path id="Trazado_731186" data-name="Trazado 731186" d="M1579.849,1566.433a21.255,21.255,0,1,1-21.255-21.255,21.255,21.255,0,0,1,21.255,21.255" transform="translate(-1201.308 -1207.433)" fill="#979aa0"/>
        <path id="Trazado_731187" data-name="Trazado 731187" d="M1619.714,1581.234a.48.48,0,0,1-.442-.667,18.346,18.346,0,0,0-25.85-23.148.48.48,0,0,1-.469-.837,19.307,19.307,0,0,1,27.2,24.359.48.48,0,0,1-.442.293" transform="translate(-1244.574 -1214.428)" fill="#b9bcc5"/>
        <path id="Trazado_731188" data-name="Trazado 731188" d="M1609.48,1607.572a9.748,9.748,0,1,1-9.748-9.748,9.748,9.748,0,0,1,9.748,9.748" transform="translate(-1242.446 -1248.572)" fill="#333435"/>
        <path id="Trazado_731189" data-name="Trazado 731189" d="M1131.56,1544.378a27.132,27.132,0,1,1-27.132-27.132,27.132,27.132,0,0,1,27.132,27.132" transform="translate(-841.822 -1185.606)" fill="#12263f"/>
        <path id="Trazado_731190" data-name="Trazado 731190" d="M1144.687,1562.6a22.034,22.034,0,1,1-22.034-22.034,22.034,22.034,0,0,1,22.034,22.034" transform="translate(-860.047 -1203.832)" fill="#979aa0"/>
        <path id="Trazado_731191" data-name="Trazado 731191" d="M1186.073,1577.991a.48.48,0,0,1-.442-.667,19.036,19.036,0,0,0-26.822-24.018.48.48,0,0,1-.469-.837,20,20,0,0,1,28.175,25.229.48.48,0,0,1-.442.293" transform="translate(-904.96 -1211.146)" fill="#b9bcc5"/>
        <path id="Trazado_731192" data-name="Trazado 731192" d="M1175.4,1605.249a10.1,10.1,0,1,1-10.1-10.1,10.1,10.1,0,0,1,10.1,10.1" transform="translate(-902.692 -1246.478)" fill="#333435"/>
        <path id="Trazado_731193" data-name="Trazado 731193" d="M440.026,1544.378a27.132,27.132,0,1,1-27.132-27.132,27.132,27.132,0,0,1,27.132,27.132" transform="translate(-301.443 -1185.606)" fill="#12263f"/>
        <path id="Trazado_731194" data-name="Trazado 731194" d="M453.153,1562.6a22.034,22.034,0,1,1-22.034-22.034,22.034,22.034,0,0,1,22.034,22.034" transform="translate(-319.667 -1203.832)" fill="#979aa0"/>
        <path id="Trazado_731195" data-name="Trazado 731195" d="M494.541,1577.991a.48.48,0,0,1-.442-.667,19.036,19.036,0,0,0-26.822-24.018.48.48,0,0,1-.469-.837,20,20,0,0,1,28.175,25.229.48.48,0,0,1-.442.293" transform="translate(-364.582 -1211.146)" fill="#b9bcc5"/>
        <path id="Trazado_731196" data-name="Trazado 731196" d="M483.87,1605.249a10.1,10.1,0,1,1-10.1-10.1,10.1,10.1,0,0,1,10.1,10.1" transform="translate(-362.314 -1246.478)" fill="#333435"/>
        <path id="Trazado_731197" data-name="Trazado 731197" d="M156.07,1544.378a27.132,27.132,0,1,1-27.132-27.132,27.132,27.132,0,0,1,27.132,27.132" transform="translate(-79.554 -1185.606)" fill="#333435"/>
        <path id="Trazado_731198" data-name="Trazado 731198" d="M169.2,1562.6a22.034,22.034,0,1,1-22.034-22.034A22.034,22.034,0,0,1,169.2,1562.6" transform="translate(-97.778 -1203.832)" fill="#979aa0"/>
        <path id="Trazado_731199" data-name="Trazado 731199" d="M210.584,1577.991a.48.48,0,0,1-.442-.667,19.036,19.036,0,0,0-26.822-24.018.48.48,0,0,1-.469-.837,20,20,0,0,1,28.175,25.229.48.48,0,0,1-.442.293" transform="translate(-142.692 -1211.146)" fill="#b9bcc5"/>
        <path id="Trazado_731200" data-name="Trazado 731200" d="M199.914,1605.249a10.1,10.1,0,1,1-10.1-10.1,10.1,10.1,0,0,1,10.1,10.1" transform="translate(-140.424 -1246.478)" fill="#333435"/>
        <path id="Trazado_731201" data-name="Trazado 731201" d="M865.33,1138.673l36.314-66.824a4.615,4.615,0,0,1,8.006.181l31.867,66.824c1.258,2.638-.877,5.581-4.049,5.581H869.287c-3.267,0-5.4-3.105-3.957-5.761" transform="translate(-675.828 -835.821)" fill="#333435"/>
        <path id="Trazado_731202" data-name="Trazado 731202" d="M889.383,1157.292l31.353-58.561a3.956,3.956,0,0,1,6.913.158l27.514,58.561a3.536,3.536,0,0,1-3.5,4.891H892.8c-2.821,0-4.663-2.721-3.417-5.048" transform="translate(-694.672 -857.042)" fill="#ffa031"/>
        <path id="Trazado_731203" data-name="Trazado 731203" d="M1034.306,1284.617a4.153,4.153,0,1,1-4.153-4.153,4.153,4.153,0,0,1,4.153,4.153" transform="translate(-801.738 -1000.58)" fill="#12263f"/>
        <path id="Trazado_731204" data-name="Trazado 731204" d="M1006.564,1220.254a5.938,5.938,0,0,1,5.932-.142l6.672-11.555a1.413,1.413,0,0,0-.6-1.978,20.162,20.162,0,0,0-18.041.271,1.412,1.412,0,0,0-.566,1.959Z" transform="translate(-781.238 -941.283)" fill="#12263f"/>
        <path id="Trazado_731205" data-name="Trazado 731205" d="M967.907,1299.463H955.35a1.413,1.413,0,0,0-1.407,1.558,20.148,20.148,0,0,0,8.7,14.544,1.411,1.411,0,0,0,2.011-.468l6.1-10.568a5.929,5.929,0,0,1-2.844-5.066" transform="translate(-745.424 -1015.426)" fill="#12263f"/>
        <path id="Trazado_731206" data-name="Trazado 731206" d="M1073.982,1299.463H1061.1a5.932,5.932,0,0,1-3.09,5.208l6.2,10.739a1.412,1.412,0,0,0,1.978.49,20.214,20.214,0,0,0,9.205-14.885,1.411,1.411,0,0,0-1.407-1.552" transform="translate(-826.748 -1015.426)" fill="#12263f"/>
        <path id="Trazado_731207" data-name="Trazado 731207" d="M473.914,1138.086l36.314-66.824a4.615,4.615,0,0,1,8.006.18l31.867,66.824c1.258,2.638-.877,5.581-4.049,5.581H477.871c-3.267,0-5.4-3.105-3.957-5.761" transform="translate(-369.967 -835.362)" fill="#333435"/>
        <path id="Trazado_731208" data-name="Trazado 731208" d="M497.967,1156.7l31.353-58.561a3.955,3.955,0,0,1,6.913.158l27.515,58.561a3.536,3.536,0,0,1-3.5,4.891H501.383c-2.82,0-4.662-2.721-3.417-5.048" transform="translate(-388.812 -856.583)" fill="#ffa031"/>
        <path id="Trazado_731209" data-name="Trazado 731209" d="M692.82,1324.864a2.539,2.539,0,0,0-3.37.573h0a.737.737,0,0,1-1.036.116l-2.467-1.97a2.445,2.445,0,0,1-1.786,2.384l2.35,1.876a.8.8,0,0,1,.126,1.119,3.724,3.724,0,1,0,6.184-4.1" transform="translate(-534.618 -1034.274)" fill="#333435"/>
        <path id="Trazado_731210" data-name="Trazado 731210" d="M576.51,1241.949a2.539,2.539,0,0,0,3.37-.573.737.737,0,0,1,1.035-.116l2.408,1.923a8.8,8.8,0,0,1,1.586-2.545l-2.089-1.667a.8.8,0,0,1-.126-1.12,3.724,3.724,0,1,0-6.184,4.1" transform="translate(-449.62 -964.109)" fill="#333435"/>
        <path id="Trazado_731211" data-name="Trazado 731211" d="M584.861,1322.942a2.386,2.386,0,0,1-1.1-2.624,2.055,2.055,0,0,0,.047-.33l-3.365,2.609a.737.737,0,0,1-1.034-.131l-.036-.046a5.3,5.3,0,1,0,2.8,3.612.8.8,0,0,1,.141-1.116Z" transform="translate(-449.237 -1031.465)" fill="#333435"/>
        <path id="Trazado_731212" data-name="Trazado 731212" d="M687.684,1240.939a7.878,7.878,0,0,1,1.715,2.438l1.857-1.439a.736.736,0,0,1,1.033.131,2.539,2.539,0,0,0,3.471.547,10.952,10.952,0,0,1-2.283-7.175,2.5,2.5,0,0,0-3.952,3.063.8.8,0,0,1-.141,1.118Z" transform="translate(-537.37 -964.641)" fill="#333435"/>
        <path id="Trazado_731213" data-name="Trazado 731213" d="M627.678,1257.2a8.911,8.911,0,0,0-9.8.363,7.669,7.669,0,0,0-2.483,9.891,4.288,4.288,0,0,1,.6,3.063,1.094,1.094,0,0,0,.8,1.368,8.873,8.873,0,0,0,1.772.309c1.038.092,1.319.417,1.131,1.425-.024.132-.06.262-.1.391a.962.962,0,0,0,.686,1.308,7.571,7.571,0,0,0,5.074.181c1.474-.448,1.633-.745,1.208-1.983a.966.966,0,0,1-.03-.2c-.091-.774.143-1.082.914-1.179.466-.059.943-.063,1.4-.158,1.164-.24,1.5-.73,1.331-1.9a2.869,2.869,0,0,1,.237-2.082c.824-1.3,1.032-2.751,1.057-5,.1-2.236-1.271-4.4-3.81-5.8m-6.854,12.038a13.4,13.4,0,0,1-1.612.428c-1-.044-1.638-.43-1.809-1.15a1.843,1.843,0,0,1,1.006-2.194,5.747,5.747,0,0,1,1.616-.406,1.5,1.5,0,0,1,1.857,1.14,1.677,1.677,0,0,1-1.058,2.182m3.017,3.1-1.309.012a.738.738,0,0,1-.679-1.044l.778-1.711a.584.584,0,0,1,1.059-.01l.81,1.7a.738.738,0,0,1-.659,1.056m4.946-3.9c-.172.713-.812,1.1-2.054,1.085a9.358,9.358,0,0,1-1.251-.289,1.709,1.709,0,0,1-1.187-2.231c.145-.607.506-1.078,1.124-1.077a7.423,7.423,0,0,1,2.29.306,1.793,1.793,0,0,1,1.078,2.206" transform="translate(-480.202 -981.395)" fill="#12263f"/>
        <path id="Trazado_731214" data-name="Trazado 731214" d="M491.807,477.791H367.924a3.7,3.7,0,0,1-3.7-3.7v-78.6a3.7,3.7,0,0,1,3.7-3.7H491.807a3.7,3.7,0,0,1,3.7,3.7v78.6a3.7,3.7,0,0,1-3.7,3.7" transform="translate(-284.61 -388.273)" fill="#ffa031"/>
        <path id="Trazado_731220" data-name="Trazado 731220" d="M446.823,447.467h-80.2a2.4,2.4,0,0,1-2.4-2.4V394.18a2.4,2.4,0,0,1,2.4-2.4h80.2a2.4,2.4,0,0,1,2.4,2.4v50.889a2.4,2.4,0,0,1-2.4,2.4" transform="translate(-154.221 -265.345)" fill="#ffa031"/>
        <path id="Trazado_731215" data-name="Trazado 731215" d="M575.9,784.853l19.023,22.021,15.441-22.021Z" transform="translate(-450.023 -695.426)" fill="#ffa031"/>
        <path id="Trazado_731221" data-name="Trazado 731221" d="M575.9,784.853,588.22,799.11l10-14.257Z" transform="translate(-335.948 -602.791)" fill="#ffa031"/>
        <path id="Trazado_731216" data-name="Trazado 731216" d="M641.225,487.162l-5.9-.141a3.266,3.266,0,0,1-3.09-3.1l-2.159-41.546a2.694,2.694,0,0,1,.851-2.141,2.827,2.827,0,0,1,2.251-.706l10.156.707a3.107,3.107,0,0,1,2.2.984,3.143,3.143,0,0,1,.826,2.266l-2.1,40.789a3,3,0,0,1-3.036,2.887" transform="translate(-492.354 -425.574)" fill="#fff"/>
        <path id="Trazado_731218" data-name="Trazado 731218" d="M637.294,470.364l-3.818-.091a2.115,2.115,0,0,1-2-2.007l-1.4-26.9a1.744,1.744,0,0,1,.551-1.386,1.83,1.83,0,0,1,1.458-.457l6.575.458a2.011,2.011,0,0,1,1.423.637,2.035,2.035,0,0,1,.535,1.467L639.26,468.5a1.945,1.945,0,0,1-1.966,1.869" transform="translate(-382.453 -306.325)" fill="#fff"/>
        <path id="Trazado_731217" data-name="Trazado 731217" d="M631.527,696.6a8.426,8.426,0,0,1,6.208-2.044q4.12.066,6.253,2.169t2.131,6.129a8.042,8.042,0,0,1-2.178,6.022,8.5,8.5,0,0,1-6.206,2.142,8.393,8.393,0,0,1-6.184-2.216,8.19,8.19,0,0,1-2.24-6.082,8.07,8.07,0,0,1,2.216-6.12" transform="translate(-491.757 -624.867)" fill="#fff"/>
        <path id="Trazado_731219" data-name="Trazado 731219" d="M630.746,695.882a5.455,5.455,0,0,1,4.02-1.323,5.677,5.677,0,0,1,4.048,1.4,5.32,5.32,0,0,1,1.379,3.968,5.206,5.206,0,0,1-1.41,3.9,5.5,5.5,0,0,1-4.018,1.386,5.434,5.434,0,0,1-4-1.435,5.3,5.3,0,0,1-1.451-3.937,5.225,5.225,0,0,1,1.435-3.962" transform="translate(-381.797 -525.274)" fill="#fff"/>
      </g>
    </g>
  </g>
</svg>
