<svg id="Grupo_1033815" data-name="Grupo 1033815" xmlns="http://www.w3.org/2000/svg" xmlns:xlink="http://www.w3.org/1999/xlink" width="369.693" height="218.995" viewBox="0 0 369.693 218.995">
  <defs>
    <clipPath id="clip-path">
      <rect id="Rectángulo_352936" data-name="Rectángulo 352936" width="369.693" height="218.995" fill="none"/>
    </clipPath>
    <clipPath id="clip-path-2">
      <rect id="Rectángulo_352935" data-name="Rectángulo 352935" width="369.694" height="218.995" fill="none"/>
    </clipPath>
    <clipPath id="clip-path-3">
      <rect id="Rectángulo_352920" data-name="Rectángulo 352920" width="13.25" height="17.959" fill="none"/>
    </clipPath>
    <clipPath id="clip-path-4">
      <rect id="Rectángulo_352921" data-name="Rectángulo 352921" width="3.972" height="16.951" fill="none"/>
    </clipPath>
    <clipPath id="clip-path-5">
      <rect id="Rectángulo_352922" data-name="Rectángulo 352922" width="1.029" height="15.661" fill="none"/>
    </clipPath>
    <clipPath id="clip-path-6">
      <rect id="Rectángulo_352923" data-name="Rectángulo 352923" width="3.9" height="15.956" fill="none"/>
    </clipPath>
    <clipPath id="clip-path-7">
      <rect id="Rectángulo_352924" data-name="Rectángulo 352924" width="11.751" height="15.116" fill="none"/>
    </clipPath>
    <clipPath id="clip-path-8">
      <rect id="Rectángulo_352925" data-name="Rectángulo 352925" width="2.642" height="14.775" fill="none"/>
    </clipPath>
    <clipPath id="clip-path-9">
      <rect id="Rectángulo_352926" data-name="Rectángulo 352926" width="1.502" height="13.618" fill="none"/>
    </clipPath>
    <clipPath id="clip-path-10">
      <rect id="Rectángulo_352927" data-name="Rectángulo 352927" width="2.187" height="13.977" fill="none"/>
    </clipPath>
    <clipPath id="clip-path-11">
      <rect id="Rectángulo_352932" data-name="Rectángulo 352932" width="15.319" height="17.05" fill="none"/>
    </clipPath>
    <clipPath id="clip-path-12">
      <rect id="Rectángulo_352933" data-name="Rectángulo 352933" width="0.791" height="13.576" fill="none"/>
    </clipPath>
    <clipPath id="clip-path-13">
      <rect id="Rectángulo_352934" data-name="Rectángulo 352934" width="1.403" height="15.566" fill="none"/>
    </clipPath>
  </defs>
  <g id="Grupo_1033814" data-name="Grupo 1033814" clip-path="url(#clip-path)">
    <rect id="Rectángulo_352904" data-name="Rectángulo 352904" width="164.387" height="14.408" transform="translate(0.002 151.691)" fill="#3f3f3f"/>
    <path id="Trazado_735431" data-name="Trazado 735431" d="M2477.305,2164.392l-14.635,3.314-86.859,7.131-.4-10.541,101.9-.671Z" transform="translate(-2213.195 -2015.875)" fill="#3a3b3a"/>
    <rect id="Rectángulo_352905" data-name="Rectángulo 352905" width="1.798" height="7.084" transform="translate(162.156 184.33)" fill="#ffa031"/>
    <rect id="Rectángulo_352906" data-name="Rectángulo 352906" width="31.818" height="5.777" transform="translate(0.118 184.798)" fill="#4f4f4f"/>
    <rect id="Rectángulo_352907" data-name="Rectángulo 352907" width="5.777" height="37.401" transform="translate(26.159 151.177)" fill="#4f4f4f"/>
    <rect id="Rectángulo_352908" data-name="Rectángulo 352908" width="3.201" height="39.754" transform="translate(99.646 147.283)" fill="#4f4f4f"/>
    <rect id="Rectángulo_352909" data-name="Rectángulo 352909" width="3.201" height="39.754" transform="translate(144.636 147.283)" fill="#4f4f4f"/>
    <rect id="Rectángulo_352910" data-name="Rectángulo 352910" width="164.468" height="4.778" transform="translate(0.001 146.913)" fill="#3a3b3a"/>
    <rect id="Rectángulo_352911" data-name="Rectángulo 352911" width="59.916" height="7.112" transform="translate(93.951 184.428)" fill="#e6e7e8"/>
    <path id="Trazado_735432" data-name="Trazado 735432" d="M1409.332,2707.84h-7.687l-6.564-7.107h7.687Z" transform="translate(-1299.813 -2516.303)" fill="#ffa031"/>
    <path id="Trazado_735433" data-name="Trazado 735433" d="M1618.009,2707.84h-7.686l-6.564-7.107h7.686Z" transform="translate(-1494.24 -2516.303)" fill="#ffa031"/>
    <path id="Trazado_735434" data-name="Trazado 735434" d="M1826.685,2707.84H1819l-6.564-7.107h7.686Z" transform="translate(-1688.666 -2516.303)" fill="#ffa031"/>
    <path id="Trazado_735435" data-name="Trazado 735435" d="M2035.362,2707.84h-7.687l-6.564-7.107h7.686Z" transform="translate(-1883.093 -2516.303)" fill="#ffa031"/>
    <g id="Grupo_1033813" data-name="Grupo 1033813" transform="translate(0 0)">
      <g id="Grupo_1033812" data-name="Grupo 1033812" clip-path="url(#clip-path-2)">
        <path id="Trazado_735436" data-name="Trazado 735436" d="M2343.793,2169.554a5.928,5.928,0,1,1-5.928-5.928,5.928,5.928,0,0,1,5.928,5.928" transform="translate(-2172.693 -2015.875)" fill="#3a3b3a"/>
        <rect id="Rectángulo_352912" data-name="Rectángulo 352912" width="18.133" height="6.817" transform="matrix(0.446, -0.895, 0.895, 0.446, 153.048, 167.048)" fill="#3a3b3a"/>
        <rect id="Rectángulo_352913" data-name="Rectángulo 352913" width="4.691" height="41.9" transform="translate(157.464 150.261)" fill="#4f4f4f"/>
        <path id="Trazado_735437" data-name="Trazado 735437" d="M0,2301.039v22.588H90.713l.1-.044,67.049-.249v-22.294Z" transform="translate(0 -2143.904)" fill="#3a3b3a"/>
        <path id="Trazado_735438" data-name="Trazado 735438" d="M583.922,2376.334a26.748,26.748,0,1,1-26.748-26.748,26.748,26.748,0,0,1,26.748,26.748" transform="translate(-494.204 -2189.136)" fill="#302e2e"/>
        <path id="Trazado_735439" data-name="Trazado 735439" d="M745.628,2556.9a13.958,13.958,0,1,1-13.958-13.958,13.958,13.958,0,0,1,13.958,13.958" transform="translate(-668.7 -2369.291)" fill="#6f7273"/>
        <rect id="Rectángulo_352914" data-name="Rectángulo 352914" width="24.337" height="7.111" transform="translate(0.118 184.061)" fill="#e6e7e8"/>
        <path id="Trazado_735440" data-name="Trazado 735440" d="M140.29,2702.416H132.6l-6.564-7.108h7.687Z" transform="translate(-117.433 -2511.25)" fill="#ffa031"/>
        <path id="Trazado_735441" data-name="Trazado 735441" d="M2.554,2695.309H.629v6.239l.8.868H9.117Z" transform="translate(-0.586 -2511.25)" fill="#ffa031"/>
        <rect id="Rectángulo_352915" data-name="Rectángulo 352915" width="164.949" height="146.913" transform="translate(0.002 0)" fill="#e6e7e8"/>
        <rect id="Rectángulo_352916" data-name="Rectángulo 352916" width="49.044" height="129.221" transform="translate(163.964 15.74)" fill="#d1d3d4"/>
        <path id="Trazado_735442" data-name="Trazado 735442" d="M2478.562,385.022h-45.157V259.741h45.157Zm-44.779-.378h44.4V260.119h-44.4Z" transform="translate(-2267.231 -242.004)" fill="#939598"/>
        <rect id="Rectángulo_352917" data-name="Rectángulo 352917" width="2.086" height="11.87" transform="translate(27.406 66.056)" fill="#ffa031"/>
        <path id="Trazado_735443" data-name="Trazado 735443" d="M474.827,966.823h2.086V978.71h-1.736l-4-6.242q-.333-.508-.728-1.148t-.745-1.183q.053.561.1,1.175t.044,1.175l.053,6.207h-2.086v-11.9h1.631l4.12,6.171q.351.509.71,1.078t.71,1.1q-.035-.561-.07-1.131t-.035-.973Z" transform="translate(-435.868 -900.768)" fill="#ffa031"/>
        <path id="Trazado_735444" data-name="Trazado 735444" d="M637.007,967.3h7.048v1.578h-4.962V972.3h4.085l-.263,1.578h-3.822v5.295h-2.086Z" transform="translate(-593.506 -901.245)" fill="#ffa031"/>
        <path id="Trazado_735445" data-name="Trazado 735445" d="M762.295,967.3h7.048v1.578h-4.962v3.314h4.085l-.263,1.6h-3.822v3.8h5.225v1.578h-7.311Z" transform="translate(-710.239 -901.245)" fill="#ffa031"/>
        <path id="Trazado_735446" data-name="Trazado 735446" d="M892.968,967.532a3.187,3.187,0,0,0-.886-.693A2.344,2.344,0,0,0,891,966.6a2.255,2.255,0,0,0-1.271.342,2.483,2.483,0,0,0-.833.947,4.825,4.825,0,0,0-.456,1.411,10.122,10.122,0,0,0-.14,1.736,10.789,10.789,0,0,0,.131,1.736,4.6,4.6,0,0,0,.456,1.42,2.5,2.5,0,0,0,.877.964,2.554,2.554,0,0,0,1.394.351,4.112,4.112,0,0,0,.771-.07q.368-.07.675-.149t.508-.149l.254-.088.491,1.473-.228.088q-.228.088-.64.2a9.88,9.88,0,0,1-.982.21,7.558,7.558,0,0,1-1.254.1,4.227,4.227,0,0,1-3.533-1.5,6.975,6.975,0,0,1-1.184-4.392,9.549,9.549,0,0,1,.316-2.534,5.591,5.591,0,0,1,.955-1.972,4.343,4.343,0,0,1,1.613-1.28,5.348,5.348,0,0,1,2.288-.456,3.452,3.452,0,0,1,1.727.386,4.112,4.112,0,0,1,1.1.877Z" transform="translate(-825.535 -899.092)" fill="#ffa031"/>
        <path id="Trazado_735447" data-name="Trazado 735447" d="M1024.226,967.3l-.263,1.578h-2.946v10.292h-2.069V968.879h-3V967.3Z" transform="translate(-946.572 -901.245)" fill="#ffa031"/>
        <rect id="Rectángulo_352918" data-name="Rectángulo 352918" width="2.086" height="11.87" transform="translate(79.073 66.056)" fill="#ffa031"/>
        <path id="Trazado_735448" data-name="Trazado 735448" d="M1225.437,965.411a4.028,4.028,0,0,1,1.534,1.192,4.99,4.99,0,0,1,.885,1.885,10.255,10.255,0,0,1,.28,2.5,9.534,9.534,0,0,1-.307,2.5,5.312,5.312,0,0,1-.947,1.937,4.334,4.334,0,0,1-1.613,1.254,5.483,5.483,0,0,1-2.306.447,5.8,5.8,0,0,1-2.253-.395,3.824,3.824,0,0,1-1.543-1.157,4.906,4.906,0,0,1-.885-1.85,9.993,9.993,0,0,1-.28-2.49,9.724,9.724,0,0,1,.307-2.516,5.57,5.57,0,0,1,.947-1.981,4.29,4.29,0,0,1,1.622-1.289,6.146,6.146,0,0,1,4.558-.035m-3.769,1.534a2.529,2.529,0,0,0-.824.938,4.545,4.545,0,0,0-.447,1.4,10.92,10.92,0,0,0-.131,1.753,11.306,11.306,0,0,0,.123,1.7,4.44,4.44,0,0,0,.447,1.42,2.583,2.583,0,0,0,.894.982,2.688,2.688,0,0,0,1.481.368,2.3,2.3,0,0,0,1.271-.333,2.467,2.467,0,0,0,.833-.912,4.334,4.334,0,0,0,.447-1.376,10.635,10.635,0,0,0,.131-1.727,11.68,11.68,0,0,0-.123-1.718,4.679,4.679,0,0,0-.447-1.455,2.449,2.449,0,0,0-2.376-1.385,2.244,2.244,0,0,0-1.28.342" transform="translate(-1134.828 -899.092)" fill="#ffa031"/>
        <path id="Trazado_735449" data-name="Trazado 735449" d="M1395.427,967.3v7.346a3.237,3.237,0,0,0,.684,2.323,2.493,2.493,0,0,0,1.858.693,2.018,2.018,0,0,0,1.762-.8,3.764,3.764,0,0,0,.57-2.218V967.3h2.086v7.5a6.079,6.079,0,0,1-.237,1.718,3.676,3.676,0,0,1-.78,1.42,3.743,3.743,0,0,1-1.438.973,5.889,5.889,0,0,1-2.192.359,5.253,5.253,0,0,1-2.078-.359,3.583,3.583,0,0,1-1.35-.973,3.659,3.659,0,0,1-.736-1.42,6.526,6.526,0,0,1-.219-1.718v-7.5Z" transform="translate(-1298.207 -901.245)" fill="#ffa031"/>
        <path id="Trazado_735450" data-name="Trazado 735450" d="M1552.806,964.99a5.9,5.9,0,0,1,1.175.114,9.764,9.764,0,0,1,1.026.263,6.082,6.082,0,0,1,.789.307,3.522,3.522,0,0,1,.447.245l-.859,1.508-.228-.123q-.228-.122-.6-.281a6.528,6.528,0,0,0-.806-.281,3.128,3.128,0,0,0-.842-.123,1.985,1.985,0,0,0-1.1.3,1.025,1.025,0,0,0-.465.929,1.727,1.727,0,0,0,.508,1.289,4.715,4.715,0,0,0,1.6.92,11.075,11.075,0,0,1,1.254.587,3.932,3.932,0,0,1,.938.71,2.763,2.763,0,0,1,.587.929,3.534,3.534,0,0,1,.2,1.262,3.581,3.581,0,0,1-.254,1.315,3.324,3.324,0,0,1-.754,1.148,3.771,3.771,0,0,1-1.236.807,4.4,4.4,0,0,1-1.7.307,5.81,5.81,0,0,1-1.3-.14,9.078,9.078,0,0,1-1.114-.324,6.773,6.773,0,0,1-.859-.377q-.36-.193-.535-.3l.736-1.613.316.175q.315.176.771.386a10.266,10.266,0,0,0,.964.386,2.756,2.756,0,0,0,.877.175,1.883,1.883,0,0,0,1.385-.456,1.988,1.988,0,0,0,.333-1.955,1.438,1.438,0,0,0-.351-.5,2.483,2.483,0,0,0-.552-.377,7.933,7.933,0,0,0-.727-.324q-.789-.333-1.412-.666a4.6,4.6,0,0,1-1.061-.763,2.919,2.919,0,0,1-.666-.982,3.462,3.462,0,0,1-.228-1.324,2.722,2.722,0,0,1,.281-1.219,3.193,3.193,0,0,1,.771-1,3.745,3.745,0,0,1,1.175-.684,4.3,4.3,0,0,1,1.508-.254" transform="translate(-1442.928 -899.092)" fill="#ffa031"/>
        <path id="Trazado_735451" data-name="Trazado 735451" d="M659.418,1201.514a11.8,11.8,0,0,1-.421-1.4q-.088.333-.167.666t-.2.736l-2.279,7.206h-1.543l-3.3-11.87H653.6l1.543,5.944q.4,1.543.578,2.49.123-.491.289-1.087t.412-1.368l1.859-5.979h1.56l1.858,5.979q.245.789.421,1.438t.281,1.14q.07-.491.2-1.14t.342-1.438l1.543-5.979h2.121l-3.3,11.87h-1.543Z" transform="translate(-607.02 -1115.119)" fill="#ffa031"/>
        <path id="Trazado_735452" data-name="Trazado 735452" d="M865.057,1196.851H866.7l4.576,11.87h-2.227l-1.087-3.1h-4.278l-1.122,3.1H860.5Zm2.367,7.224q-.561-1.578-.964-2.867t-.614-2.025q-.246.789-.649,2.069t-.947,2.823Z" transform="translate(-801.736 -1115.12)" fill="#ffa031"/>
        <path id="Trazado_735453" data-name="Trazado 735453" d="M1028.932,1194.54a5.9,5.9,0,0,1,1.175.114,9.753,9.753,0,0,1,1.026.263,6.094,6.094,0,0,1,.789.307,3.536,3.536,0,0,1,.447.245l-.859,1.508-.228-.123q-.228-.123-.6-.281a6.5,6.5,0,0,0-.807-.281,3.125,3.125,0,0,0-.842-.123,1.984,1.984,0,0,0-1.1.3,1.025,1.025,0,0,0-.465.929,1.727,1.727,0,0,0,.509,1.289,4.713,4.713,0,0,0,1.6.92,11.041,11.041,0,0,1,1.254.588,3.927,3.927,0,0,1,.938.71,2.767,2.767,0,0,1,.587.929,3.532,3.532,0,0,1,.2,1.263,3.578,3.578,0,0,1-.254,1.315,3.327,3.327,0,0,1-.754,1.148,3.77,3.77,0,0,1-1.236.806,4.4,4.4,0,0,1-1.7.307,5.821,5.821,0,0,1-1.3-.14,9.084,9.084,0,0,1-1.113-.324,6.793,6.793,0,0,1-.859-.377q-.36-.193-.535-.3l.736-1.613.316.175q.315.175.771.386a10.253,10.253,0,0,0,.964.386,2.759,2.759,0,0,0,.877.175,1.883,1.883,0,0,0,1.385-.456,1.988,1.988,0,0,0,.333-1.955,1.436,1.436,0,0,0-.351-.5,2.484,2.484,0,0,0-.552-.377,7.919,7.919,0,0,0-.728-.324q-.789-.333-1.411-.666a4.6,4.6,0,0,1-1.061-.763,2.923,2.923,0,0,1-.666-.982,3.462,3.462,0,0,1-.228-1.324,2.723,2.723,0,0,1,.28-1.219,3.2,3.2,0,0,1,.771-1,3.745,3.745,0,0,1,1.175-.684,4.3,4.3,0,0,1,1.508-.254" transform="translate(-954.829 -1112.967)" fill="#ffa031"/>
        <path id="Trazado_735454" data-name="Trazado 735454" d="M1158.119,1196.851l-.263,1.578h-2.946v10.292h-2.069v-10.292h-3v-1.578Z" transform="translate(-1071.322 -1115.119)" fill="#ffa031"/>
        <path id="Trazado_735455" data-name="Trazado 735455" d="M1291.822,1196.851h7.048v1.578h-4.962v3.314h4.085l-.263,1.6h-3.822v3.8h5.225v1.578h-7.311Z" transform="translate(-1203.605 -1115.119)" fill="#ffa031"/>
        <path id="Trazado_735456" data-name="Trazado 735456" d="M930.1,725.977a6.7,6.7,0,0,0,3.817,6.971,4.428,4.428,0,0,0,.749-1.787,4.766,4.766,0,0,1-2.638-4.845,4.431,4.431,0,0,0-1.928-.34" transform="translate(-866.533 -676.396)" fill="#ffa031"/>
        <path id="Trazado_735457" data-name="Trazado 735457" d="M972.993,643.381a4.772,4.772,0,0,1,5.27.03,4.435,4.435,0,0,0,1.281-1.48,6.71,6.71,0,0,0-7.82-.057,4.433,4.433,0,0,0,1.27,1.507" transform="translate(-905.365 -596.897)" fill="#ffa031"/>
        <path id="Trazado_735458" data-name="Trazado 735458" d="M1058.621,731.758a4.434,4.434,0,0,0,.736,1.781,6.7,6.7,0,0,0,3.863-6.947,4.431,4.431,0,0,0-1.909.318,4.856,4.856,0,0,1,.031.552,4.773,4.773,0,0,1-2.721,4.3" transform="translate(-986.329 -676.968)" fill="#ffa031"/>
        <path id="Trazado_735459" data-name="Trazado 735459" d="M855.176,558.725a5.129,5.129,0,0,1,4.219,2.232l.9-.516a1.516,1.516,0,0,1,1.166-1.778l0-1.183H861.4a5.135,5.135,0,0,1-.307-10.212v-.215A7.235,7.235,0,0,0,854.816,556a7.239,7.239,0,0,0-4.712,9.736l.089-.046.141-.075a5.138,5.138,0,0,1,4.843-6.894" transform="translate(-791.538 -509.696)" fill="#ffa031"/>
        <path id="Trazado_735460" data-name="Trazado 735460" d="M1041.656,556.1a7.237,7.237,0,0,0-6.238-9v.234a5.137,5.137,0,0,1-.381,10.187l0,1.217a1.515,1.515,0,0,1,1.077,1.455,1.534,1.534,0,0,1-.03.295l.891.518a5.136,5.136,0,0,1,9.024,4.7l.194.1.086.045a7.239,7.239,0,0,0-4.618-9.754" transform="translate(-964.351 -509.732)" fill="#ffa031"/>
        <path id="Trazado_735461" data-name="Trazado 735461" d="M889.877,758.991h0l-.029-.016a5.136,5.136,0,0,1-8.717-5.357l.015-.025-.833-.484a1.514,1.514,0,0,1-2.305,0l-.85.487a5.136,5.136,0,0,1-8.723,5.334l-.2.1-.028.015a7.233,7.233,0,0,0,10.947,1.144,7.233,7.233,0,0,0,10.956-1.075l-.072-.039Z" transform="translate(-808.918 -701.678)" fill="#ffa031"/>
        <path id="Trazado_735462" data-name="Trazado 735462" d="M869.282,2688.258a4.344,4.344,0,1,1-4.344-4.344,4.344,4.344,0,0,1,4.344,4.344" transform="translate(-801.825 -2500.633)" fill="#414042"/>
        <path id="Trazado_735463" data-name="Trazado 735463" d="M160.372,50.359h-.03v0H.025v2.128H158.244V187.239H.025v2.128H160.342v-.059h.03Z" transform="translate(-0.024 -46.917)" fill="#ffa031"/>
        <path id="Trazado_735464" data-name="Trazado 735464" d="M3005.894,1391.388l-3.131-.915-11.179-51.728,1.708-.325,2.958,2.187Z" transform="translate(-2787.291 -1247.022)" fill="#99601d"/>
        <path id="Trazado_735465" data-name="Trazado 735465" d="M3066.668,1272.98l-37.273,7.036.756,3.2,0,.017,10.578,46.755a3.225,3.225,0,0,0,3.74,2.606l.666-.126,26.09-4.955.666-.126a3.225,3.225,0,0,0,2.523-3.8l-7.057-45.8Z" transform="translate(-2822.521 -1186.05)" fill="#cc8027"/>
        <path id="Trazado_735466" data-name="Trazado 735466" d="M3124.539,1285.294l-2.476.47-1.734.329-19.629,3.728-1.734.329-2.464.468.714,3.17,0,.017,10.179,46.868c.337,1.769,1.664,3,2.965,2.756l.5-.1,19.629-3.728.5-.1c1.3-.247,2.083-1.881,1.748-3.651l-7.456-45.757Z" transform="translate(-2885.046 -1197.523)" fill="#ffa031"/>
        <path id="Trazado_735467" data-name="Trazado 735467" d="M3057.166,1303.267l.032.2-36.782,6.986-.044-.2-1.5.285,1.957,4.456.538-.1-.787-3.538,5.576-1.059.676,3.559,1.046-3.886,11.589-2.2.676,3.559,1.046-3.886,11.6-2.2.676,3.559,1.046-3.886,2.829-.537.564,3.58.576-.109.186-4.864Z" transform="translate(-2812.715 -1214.003)" fill="#99601d"/>
        <path id="Trazado_735468" data-name="Trazado 735468" d="M3039.187,1266.786l-41.167,7.819a.342.342,0,0,0-.236.418l.016.086.427,2.249,7.279-1.383.82,4.314.709-.135-.82-4.314,12.66-2.4.82,4.314.709-.135-.819-4.314,12.661-2.4.819,4.314.709-.135-.819-4.314,7.048-1.339-.153-.807-.274-1.443-.016-.086a.342.342,0,0,0-.373-.3" transform="translate(-2793.062 -1180.274)" fill="#cc8027"/>
        <path id="Trazado_735469" data-name="Trazado 735469" d="M3031.022,1182.182l-1.651.314v0l-.016-.083-.016-.087-.114-.6s-3.95-2.757-4.029-2.742l-14.153,2.688-1.964.373-14.153,2.688c-.079.015-2.661,4.012-2.661,4.012l.147.775-1.5.285a.932.932,0,0,0-.644,1.139l.071.373.1.533.2,1.077,41.775-7.934-.2-1.077-.068-.357-.1-.549a.932.932,0,0,0-1.017-.824" transform="translate(-2786.043 -1098.468)" fill="#ffa031"/>
        <rect id="Rectángulo_352919" data-name="Rectángulo 352919" width="37.62" height="0.72" transform="matrix(0.982, -0.187, 0.187, 0.982, 206.235, 90.345)" fill="#cc8027"/>
        <path id="Trazado_735470" data-name="Trazado 735470" d="M3149.188,1971.795a7.012,7.012,0,0,1-1.653,5.979l-.777.158c-4.24-3.346-4.948-3.918-10.078-8.1l-.143-.755a7.023,7.023,0,0,1,12.651,2.72" transform="translate(-2922.347 -1831.82)" fill="#99601d"/>
        <path id="Trazado_735471" data-name="Trazado 735471" d="M3136.829,1979.977a6.522,6.522,0,1,1-7.624-5.19,6.522,6.522,0,0,1,7.624,5.19" transform="translate(-2910.572 -1839.823)" fill="#302e2e"/>
        <path id="Trazado_735472" data-name="Trazado 735472" d="M3174.465,2021.087a3.55,3.55,0,1,1-4.15-2.825,3.55,3.55,0,0,1,4.15,2.825" transform="translate(-2951.127 -1880.378)" fill="#414042"/>
        <path id="Trazado_735473" data-name="Trazado 735473" d="M2488.066,2002.57a35.475,35.475,0,0,0-.312,4.333c.041,1.15.723,4.223,4.677,6.2,2.373,1.186,7.161.817,7.161.817,1.147-.412,1.224-2.075.582-3.735-.479-1.237-1.621-2.288-2.578-3.589-.673-.914-.1-3.14-.032-3.465a12.846,12.846,0,0,1-3.486.964,9.786,9.786,0,0,1-6.011-1.524" transform="translate(-2317.866 -1865.817)" fill="#4db1f0"/>
        <path id="Trazado_735474" data-name="Trazado 735474" d="M2885.724,2040.832a10.073,10.073,0,0,1-5.493-.442c-.064.225.081,3.544.046,4.015-.139,1.917-.23,3.438,2.294,3.755a75.52,75.52,0,0,0,7.876-.04c4.786-.032,5.666-.479,6-1.7.5-1.821-4.548-2.8-6.7-4.4a13.487,13.487,0,0,1-.475-2.571c-.078.143-.944.79-3.551,1.377" transform="translate(-2683.529 -1900.183)" fill="#4db1f0"/>
        <path id="Trazado_735475" data-name="Trazado 735475" d="M2490.571,501.412c-.312-3.6.6-7.311,3.33-9.113a19.7,19.7,0,0,1,6.272-2.34c1.363-.549,3.061-.959,3.108-1.965a13.879,13.879,0,0,0,1.54-3.929c.532-2.3.771-5.168,1.61-7.681a5.26,5.26,0,0,1,2.537-3.218,6.177,6.177,0,0,1,4.874-.644,8.361,8.361,0,0,1,1.183.531c4.543,2.367,4.719,5.335,4.807,6.586.215,3.077-.98,5.52-1.9,7.6-1.331,3-2.915,3.058-2.957,4.352a1.362,1.362,0,0,0,1.042,1.367c.872.351,2.191.275,5.264,3.017,1.535,1.37,2.8,4.435,3.635,6.295.724,1.608,2.514,6.914,4.137,9.78a78.045,78.045,0,0,0,7.9,11.868l-6.834,1.29a28.725,28.725,0,0,1-5.025-4.676c-2.293-2.585-4.835-5.6-5.94-10.284-.042-.269-.429,1.651-1.079,6.336-.724,5.224-1.13,7.139-1.13,7.139,1.072,1.724,2.964,11.68,3.543,19.448.413,5.549,1.024,10.392,1.028,15.508,0,4.86.388,6.39.482,10.349.1,4.234.094,7.551.163,9.657.071,2.178-.462,4.169-5.938,3.8-4.089-.273-4.4-.453-4.8-3.428-.223-1.682-.065-5.008-.149-6.647-.2-3.854-.633-5.552-.81-8.055-.152-2.137-1.057-6.135-1.259-8.181a41.507,41.507,0,0,0-2.945-12c-1.008-2.333-1.31-3.916-2.032-5.154,0,0-1.423,4.778-2.382,9.244-.93,4.332-2.291,12.17-3.032,15.984-.647,3.329-1.478,7.82-2.373,12.092-.713,3.4-1.531,3.6-3.942,3.805a14.387,14.387,0,0,1-4.454-.709c-1.589-.42-2.259-1.142-2.5-2.066-.276-1.04-.339-1.8-.013-5.938.354-4.5,1.277-9.3,1.852-12.766.434-2.615.846-5.195,1.2-9.082.137-1.5.389-4.869.56-7.453.229-3.433.945-5.519,1.144-7.511.91-9.128,1.738-11.446,2.684-13.72,0,0-1.844-13.078-2.4-19.483" transform="translate(-2315.589 -440.025)" fill="#fff"/>
        <path id="Trazado_735476" data-name="Trazado 735476" d="M2614.051,751.551a68.022,68.022,0,0,0,1.9-14.359c.047-1.823-.044-4.757-.053-5.929-.016-1.93-.43-5.41-.253-8a5.3,5.3,0,0,0,2.179-.461,3.508,3.508,0,0,0,1.6-1.215,1.325,1.325,0,0,1-.524-.387,3.16,3.16,0,0,1-1.318,1.075,5.965,5.965,0,0,1-1.877.356,6.888,6.888,0,0,1,.294-1.413,10.207,10.207,0,0,1,1.054-2.47l-.759-.192a16.333,16.333,0,0,0-.957,2.556,7.936,7.936,0,0,0-.284,1.508,12.492,12.492,0,0,1-5.015-1.757c-3.193-1.685-4.009-3.075-4.009-3.075l-.609.3s.758,1.179,3.911,3.07a12.886,12.886,0,0,0,5.668,2.076c-.171,2.621.183,6.105.206,8.044.021,1.828,0,4.123.027,5.974a83.041,83.041,0,0,1-1.874,14.274q-.738-.028-1.536-.071a94.074,94.074,0,0,1-15.269-2.338l0,.826a114.313,114.313,0,0,0,15.23,2.411c.472.024.945.045,1.413.062a41.243,41.243,0,0,1-1.05,6.495c-1.448,5.108-2.424,5.8-3.112,6.584-.323.368-.8,1.73-1.17,2.29l.4.765a4.916,4.916,0,0,0,.415-.6,16.783,16.783,0,0,0,.979,2.332,92.175,92.175,0,0,1,5.933,26.859c.076,1.7.134,6.171.217,9.4a12.833,12.833,0,0,0,.906,4.35l.709.1c-.223-1.412-.89-2.138-.948-4.926-.1-4.842-.179-7.956-.209-9.1a84.2,84.2,0,0,0-5.94-26.759,18.939,18.939,0,0,1-1.246-3.134,2.76,2.76,0,0,1,.522-1c.857-.96,1.769-1.778,3.208-6.693a25.558,25.558,0,0,0,1.121-6.943c3.862.114,6.668.06,6.668.06l.153-.873s-2.159.063-6.7-.077" transform="translate(-2419.233 -668.772)" fill="#4db1f0"/>
        <path id="Trazado_735477" data-name="Trazado 735477" d="M2883.664,479.426l-.791-.357a4.78,4.78,0,0,0-.666-3.38,8.672,8.672,0,0,0-3.467-3.491,4.009,4.009,0,0,1,.458.005c.2.012.386.042.386.042a7.293,7.293,0,0,1,3.334,3.276,6.622,6.622,0,0,1,.745,3.905" transform="translate(-2682.155 -439.949)" fill="#1daea3"/>
        <path id="Trazado_735478" data-name="Trazado 735478" d="M2794.372,558.526s-.656-1.65-5.058-2.276a15.168,15.168,0,0,0-9.818,2.015l-.15.851a16.352,16.352,0,0,1,9.974-2.019c4.267.563,5,2.436,5,2.436Z" transform="translate(-2589.547 -518.132)" fill="#ececec"/>
        <path id="Trazado_735479" data-name="Trazado 735479" d="M2843.9,575.331s-.918-1.781-5.2-2.431c-4.263-.646-6.171.716-6.171.716l.392.2a10.669,10.669,0,0,1,5.554-.506,8.825,8.825,0,0,1,4.956,2.111Z" transform="translate(-2639.094 -533.616)" fill="#e8e8e8"/>
        <g id="Grupo_1033781" data-name="Grupo 1033781" transform="translate(191.633 37.169)" opacity="0.35">
          <g id="Grupo_1033780" data-name="Grupo 1033780">
            <g id="Grupo_1033779" data-name="Grupo 1033779" clip-path="url(#clip-path-3)">
              <path id="Trazado_735480" data-name="Trazado 735480" d="M2819.457,546.765s-.4-1.34-4.932-2.224c-4.1-.8-6.02.663-6.02.663s-1.328,5.04-2.15,8.622c0,0-1.516,5.674,5.173,7.507,6.027,1.651,7.293.593,7.293.593Z" transform="translate(-2806.207 -544.301)" fill="#b6b7b7"/>
            </g>
          </g>
        </g>
        <path id="Trazado_735481" data-name="Trazado 735481" d="M2843.977,547.02s-.175-1.033-3.41-1.922c-5.284-1.453-7.542.314-7.542.314l-.5,1.928s2.769-1.6,7.394-.414c3.149.806,3.979,2.129,3.979,2.129Z" transform="translate(-2639.094 -507.34)" fill="#4db1f0"/>
        <g id="Grupo_1033784" data-name="Grupo 1033784" transform="translate(199.859 38.177)" opacity="0.53">
          <g id="Grupo_1033783" data-name="Grupo 1033783">
            <g id="Grupo_1033782" data-name="Grupo 1033782" clip-path="url(#clip-path-4)">
              <path id="Trazado_735482" data-name="Trazado 735482" d="M2930.648,559.553l-1.07-.5-2.9,16.691a14.554,14.554,0,0,0,1.557.212,9.567,9.567,0,0,0,1.468.036Z" transform="translate(-2926.677 -559.053)" fill="#fbffff"/>
            </g>
          </g>
        </g>
        <g id="Grupo_1033787" data-name="Grupo 1033787" transform="translate(203.853 39.303)" opacity="0.53">
          <g id="Grupo_1033786" data-name="Grupo 1033786">
            <g id="Grupo_1033785" data-name="Grupo 1033785" clip-path="url(#clip-path-5)">
              <path id="Trazado_735483" data-name="Trazado 735483" d="M2986.2,575.928a.6.6,0,0,0-.079-.177,1.488,1.488,0,0,0-.15-.2l-.8,15.661a1.793,1.793,0,0,0,.232-.082.78.78,0,0,0,.159-.088Z" transform="translate(-2985.173 -575.551)" fill="#fbffff"/>
            </g>
          </g>
        </g>
        <g id="Grupo_1033790" data-name="Grupo 1033790" transform="translate(192.376 37.278)" opacity="0.38">
          <g id="Grupo_1033789" data-name="Grupo 1033789">
            <g id="Grupo_1033788" data-name="Grupo 1033788" clip-path="url(#clip-path-6)">
              <path id="Trazado_735484" data-name="Trazado 735484" d="M2821,545.891l-.5.073-3.4,13.669a6.682,6.682,0,0,0,.87,1.158,6.219,6.219,0,0,0,1.356,1.055Z" transform="translate(-2817.099 -545.891)" fill="#fbffff"/>
            </g>
          </g>
        </g>
        <path id="Trazado_735485" data-name="Trazado 735485" d="M2841.638,562.845a.237.237,0,1,0,.306-.186.254.254,0,0,0-.306.186" transform="translate(-2647.573 -524.227)" fill="#fff"/>
        <path id="Trazado_735486" data-name="Trazado 735486" d="M2852,590.421a5.315,5.315,0,0,0,.3-3.219c-.387-1.031-1.438-1.752-3.029-2.209a3.423,3.423,0,0,0-3.761.806,6.231,6.231,0,0,0-1.633,3.391,10,10,0,0,0,.412,4.1c.656,1.627,1.272,2.268,2.274,2.546,1.306.362,2.369-.3,3.375-1.247a9.145,9.145,0,0,0,2.067-4.172" transform="translate(-2649.613 -544.848)" fill="#e5c0b6"/>
        <path id="Trazado_735487" data-name="Trazado 735487" d="M2850.163,630.642c-.807-.808-.789-1.119-1.343-1.352-.465-.195-1.636.176-1.862.163a9.8,9.8,0,0,0-3.465.349,8.048,8.048,0,0,0,.009,4.153c.437,1.781,1.46,3.187,2.59,3.383a3.02,3.02,0,0,0,1.9-.275,4.6,4.6,0,0,0,1.944-1.672,10.583,10.583,0,0,0,1.544-3.623,16.077,16.077,0,0,1-1.321-1.127" transform="translate(-2649.075 -586.264)" fill="#7cc5c3"/>
        <path id="Trazado_735488" data-name="Trazado 735488" d="M2853.721,669.845c1.1.209,2.98.658,3.608.864.565.185,2.655,1.217,2.655,1.217-1.245-.751-1.738-1.548-2.375-1.813-.759-.315-1.1-.033-3.888-.268" transform="translate(-2658.844 -624.102)" fill="#6cbab6"/>
        <path id="Trazado_735489" data-name="Trazado 735489" d="M2851.7,681.907a31.984,31.984,0,0,0,3.558,1.092c.552.186,2.477.941,2.477.941a9.289,9.289,0,0,1-2.676-.211c-.819-.2-.93-.462-3.359-1.822" transform="translate(-2656.961 -635.341)" fill="#6cbab6"/>
        <path id="Trazado_735490" data-name="Trazado 735490" d="M2874.386,711.727c.531.223.951.345,1.4.492.28.093,1.334.465,1.334.465a3.08,3.08,0,0,1-1.445,0,3.8,3.8,0,0,1-1.285-.955" transform="translate(-2678.098 -663.124)" fill="#6cbab6"/>
        <path id="Trazado_735491" data-name="Trazado 735491" d="M2850.105,630.1a5.612,5.612,0,0,0-1.8.143,11.329,11.329,0,0,0-1.659.022,10.036,10.036,0,0,0-1.89.352,3.422,3.422,0,0,0-.147.681,14.161,14.161,0,0,1,1.637-.107,8.486,8.486,0,0,0,2.066-.137,3.286,3.286,0,0,1,1.635-.074c.2.068.409.38.665.711a5.711,5.711,0,0,0,.988.91l.935.789c.128-.423.223-.839.223-.839-.195-.129-.529-.423-.874-.708a5.366,5.366,0,0,1-.793-.746c-.352-.4-.613-.868-.985-1" transform="translate(-2650.353 -587.02)" fill="#6cbab6"/>
        <path id="Trazado_735492" data-name="Trazado 735492" d="M2851.085,630.5a1.775,1.775,0,0,0-1.294.052,6.414,6.414,0,0,1-1.765.073,21.311,21.311,0,0,0-2.293.359,2.129,2.129,0,0,0-.06.231c.748-.041,1.559-.351,2.318-.329a7.169,7.169,0,0,0,1.916-.072,1.464,1.464,0,0,1,1.1-.014,3.257,3.257,0,0,1,.891.844,9.167,9.167,0,0,0,.717.814l1.057.755c.031-.115.067-.281.067-.281-.415-.308-.493-.316-.834-.607a4.81,4.81,0,0,1-.808-.791c-.315-.428-.637-.906-1.009-1.035" transform="translate(-2651.345 -587.347)" fill="#cae8e6"/>
        <path id="Trazado_735493" data-name="Trazado 735493" d="M2563.619,762.129c.86-.73,4.4-3.231,7.365,1.667,1.065,1.76,1.48,6.7,1.8,8.712a25.26,25.26,0,0,0,3.758,9.436c1.261,2.086.284.808,5.757,6.317,1.152,1.159,9.04,6.76,9.427,9.6.212,1.554-.142,5.455-4.869,3.874-1.233-.413-9.231-5.775-11.115-7.8-2.624-2.821-4.848-3.806-7.677-8.076-.042-.269-4.09-10.012-4.878-11.995-1.685-4.24-2.244-9.467.431-11.739" transform="translate(-2386.828 -708.884)" fill="#fcfcfc"/>
        <path id="Trazado_735494" data-name="Trazado 735494" d="M2952.877,1309.5c-.519,1.623-.634,1.983-.561,2.2.193.586,1.51,2.239,1.992,3.117.443.807.5,1.464,2.717,1.77a4.717,4.717,0,0,0,1.972-.533c.657-.746,1.525-.184,1.934-.673.669-.8-1.08-1.818-1.774-3.379-.284-.64-.764-1.315-.449-2.132.07-.182,2.212-.36,2.106-1.079-.111-.75-3.937-1.008-4.171-1.04-2.2-.293-3.326.368-3.766,1.746" transform="translate(-2750.688 -1218.382)" fill="#4db1f0"/>
        <path id="Trazado_735495" data-name="Trazado 735495" d="M4455.98,2859.4c.02,1.035.1,4.412,0,5.011-.173.988-.8,1.989-4.447,3.221-2.191.74-5.526.982-6.837.3-.941-.493-.863-1.472-.11-2.828a16.113,16.113,0,0,1,2.656-2.79c.69-.708.465-2.7.443-2.988a11.211,11.211,0,0,0,2.894,1.249,6.9,6.9,0,0,0,5.4-1.172" transform="translate(-4140.531 -2664.065)" fill="#1daea3"/>
        <path id="Trazado_735496" data-name="Trazado 735496" d="M4072.125,2844.327a11.318,11.318,0,0,0,4.513-.32c.028.2-.564,2.683-.591,3.093-.109,1.671-.439,2.547-2.656,2.519a52.271,52.271,0,0,1-6.668-.886c-4.12-.659-4.837-1.25-4.664-2.351.255-1.626,4.547-2.525,6.408-2.458.216.008,1.034-1.047,1.034-1.047.05.133.334,1.022,2.625,1.449" transform="translate(-3784.644 -2648.741)" fill="#1daea3"/>
        <path id="Trazado_735497" data-name="Trazado 735497" d="M4164.875,1534.933a60.928,60.928,0,0,0-2.776-9.207,11.037,11.037,0,0,0-3.648-5.641,17.171,17.171,0,0,0-5.136-2.771c-1.11-.637-2.528-1.194-2.448-2.069a12.073,12.073,0,0,1-.86-3.577c-.184-2.053-.046-4.554-.471-6.825a4.586,4.586,0,0,0-1.805-3.082,5.385,5.385,0,0,0-4.131-1.14,7.251,7.251,0,0,0-1.085.317c-4.206,1.5-4.713,4.041-4.939,5.11a13.388,13.388,0,0,0,.733,6.786c.79,2.746,2.15,2.99,2.032,4.111a1.187,1.187,0,0,1-1.064,1.056,14.012,14.012,0,0,0-5.491,2.416,9.658,9.658,0,0,0-3.086,3.422c-.816,1.3-1.453,4.027-2.732,7.172-.8,1.968-1.014,4.531-2.293,7.143-.626,1.279-2.566,5.835-3.625,8.1-.622,1.333-1.266,3.259.214,3.945.729.338.947.651,2.025.426,2.776-.578,6.12-7.434,7.09-9.525,2.079-4.478,2.535-6.822,4.05-10.735a47.817,47.817,0,0,0-.757,7.783c0,4.6.122,6.3.122,6.3-1.132,1.36-3.958,9.729-5.388,16.368-1.021,4.742-2.129,8.85-2.744,13.267-.585,4.2-1.1,5.471-1.655,8.877-.593,3.644-.985,6.509-1.3,8.319-.322,1.872-.1,3.655,4.671,4,3.563.254,3.857.136,4.553-2.386.394-1.426.656-4.316.925-5.721.631-3.3,1.211-4.718,1.664-6.858.387-1.827,1.647-5.171,2.066-6.913a36.194,36.194,0,0,1,3.98-10.011c1.149-1.894,1.6-3.224,2.371-4.206,0,0,.656,4.3.95,8.266.285,3.852.521,10.782.7,14.164.16,2.952.34,6.929.6,10.724.208,3.021.891,3.29,2.948,3.758a12.541,12.541,0,0,0,3.931-.079,2.609,2.609,0,0,0,2.41-1.484c.363-.865.508-1.515.722-5.126.232-3.926.01-8.179-.071-11.245-.061-2.31-.108-4.586.05-7.986.062-1.312.248-4.25.408-6.5.214-2.992-.155-4.878-.088-6.622.307-7.99-.131-10.091-.675-12.167a56.887,56.887,0,0,0-.626-14.6c.43,1.555,2.425,3.753,3.363,7.816.919,3.98-4.371,8.9-4.478,12.421a2.43,2.43,0,0,0,3.572,1.919c.944-.578.748-.848,2.56-2.989,4.957-5.861,5.231-11.951,4.655-14.522" transform="translate(-3839.918 -1398.084)" fill="#fff"/>
        <path id="Trazado_735498" data-name="Trazado 735498" d="M4267.45,1751.155c-.463-.039-1.544-.077-1.972-.12a58.159,58.159,0,0,1,.728-12.551c.244-1.6.5-3.58.739-5.155.251-1.672.974-4.638,1.141-6.921a11.229,11.229,0,0,0,5.143-1.114c2.949-1.256,3.722-2.165,3.722-2.165l-.467-.349s-.872,1.1-3.83,2.176a10.884,10.884,0,0,1-4.54.916,6.919,6.919,0,0,0-.065-1.336,8.987,8.987,0,0,0-.674-2.321l-.678.075a8.571,8.571,0,0,1,.769,2.259,5.96,5.96,0,0,1,.085,1.255,5.189,5.189,0,0,1-1.578-.532,2.752,2.752,0,0,1-1.01-1.086,1.155,1.155,0,0,1-.5.271,3.06,3.06,0,0,0,1.235,1.241,4.616,4.616,0,0,0,1.826.658c-.157,2.258-.932,5.213-1.176,6.877-.149,1.011-.579,3.534-.756,5.113-.259,2.311-1.3,7.059-.717,12.627a28.925,28.925,0,0,1-5.154-.838l.038.843a47.455,47.455,0,0,0,5.117.778,41.158,41.158,0,0,0,.773,6.126c.654,4.417,1.343,5.232,1.967,6.163a2.4,2.4,0,0,1,.332.926,16.509,16.509,0,0,1-1.452,2.557,73.411,73.411,0,0,0-8.332,22.393c-.163.984-.6,3.663-1.271,7.832-.384,2.4-1.046,2.947-1.408,4.14h.624a11.176,11.176,0,0,0,1.3-3.647c.459-2.781,1.044-6.637,1.313-8.093a80.337,80.337,0,0,1,8.338-22.48,14.586,14.586,0,0,0,1.124-1.9,4.34,4.34,0,0,0,.287.565l.441-.612c-.255-.529-.5-1.761-.736-2.118-.5-.761-1.26-1.473-1.9-6.057a56.381,56.381,0,0,1-.766-5.731c.406.041,1.454.078,1.864.113a105.972,105.972,0,0,0,13.489-.184l-.045-.72a85.057,85.057,0,0,1-13.374.123" transform="translate(-3964.885 -1604.608)" fill="#4db1f0"/>
        <path id="Trazado_735499" data-name="Trazado 735499" d="M4393.631,1506.149l.725-.213a4.168,4.168,0,0,1,.98-2.839,7.56,7.56,0,0,1,3.411-2.6,3.482,3.482,0,0,0-.4-.05c-.178-.014-.338-.01-.338-.01a6.356,6.356,0,0,0-3.271,2.429,5.768,5.768,0,0,0-1.11,3.282" transform="translate(-4093.595 -1397.974)" fill="#1daea3"/>
        <path id="Trazado_735500" data-name="Trazado 735500" d="M4349.1,1571.325s.764-1.346,4.639-1.36a13.225,13.225,0,0,1,8.237,2.915l.027.753a14.255,14.255,0,0,0-8.37-2.937c-3.751-.024-4.607,1.5-4.607,1.5Z" transform="translate(-4052.041 -1462.754)" fill="#ececec"/>
        <path id="Trazado_735501" data-name="Trazado 735501" d="M4348.064,1586.455s1.005-1.428,4.783-1.476c3.758-.047,5.242,1.357,5.242,1.357l-.362.126a9.3,9.3,0,0,0-4.735-1.1,7.693,7.693,0,0,0-4.532,1.23Z" transform="translate(-4051.14 -1476.742)" fill="#e8e8e8"/>
        <g id="Grupo_1033793" data-name="Grupo 1033793" transform="translate(295.84 106.558)" opacity="0.35">
          <g id="Grupo_1033792" data-name="Grupo 1033792">
            <g id="Grupo_1033791" data-name="Grupo 1033791" clip-path="url(#clip-path-7)">
              <path id="Trazado_735502" data-name="Trazado 735502" d="M4333.45,1561.744s.508-1.109,4.524-1.33c3.638-.2,5.119,1.293,5.119,1.293s.543,4.511.825,7.7c0,0,.63,5.081-5.365,5.862-5.4.7-6.368-.361-6.368-.361Z" transform="translate(-4332.186 -1560.396)" fill="#b6b7b7"/>
            </g>
          </g>
        </g>
        <path id="Trazado_735503" data-name="Trazado 735503" d="M4348.239,1561.877s.274-.871,3.174-1.252c4.736-.622,6.474,1.174,6.474,1.174l.2,1.725s-2.2-1.711-6.334-1.243c-2.815.319-3.691,1.362-3.691,1.362Z" transform="translate(-4051.14 -1453.93)" fill="#1daea3"/>
        <g id="Grupo_1033796" data-name="Grupo 1033796" transform="translate(296.975 106.902)" opacity="0.53">
          <g id="Grupo_1033795" data-name="Grupo 1033795">
            <g id="Grupo_1033794" data-name="Grupo 1033794" clip-path="url(#clip-path-8)">
              <path id="Trazado_735504" data-name="Trazado 735504" d="M4349.977,1565.751l.983-.3.507,14.759a12.687,12.687,0,0,1-1.37,0,8.355,8.355,0,0,1-1.272-.145Z" transform="translate(-4348.825 -1565.448)" fill="#fbffff"/>
            </g>
          </g>
        </g>
        <g id="Grupo_1033799" data-name="Grupo 1033799" transform="translate(295.84 107.648)" opacity="0.53">
          <g id="Grupo_1033798" data-name="Grupo 1033798">
            <g id="Grupo_1033797" data-name="Grupo 1033797" clip-path="url(#clip-path-9)">
              <path id="Trazado_735505" data-name="Trazado 735505" d="M4333.444,1576.672a.511.511,0,0,1,.089-.144,1.294,1.294,0,0,1,.153-.154l-1.184,13.618a1.526,1.526,0,0,1-.19-.1.7.7,0,0,1-.127-.1Z" transform="translate(-4332.186 -1576.374)" fill="#fbffff"/>
            </g>
          </g>
        </g>
        <g id="Grupo_1033802" data-name="Grupo 1033802" transform="translate(304.352 106.902)" opacity="0.38">
          <g id="Grupo_1033801" data-name="Grupo 1033801">
            <g id="Grupo_1033800" data-name="Grupo 1033800" clip-path="url(#clip-path-10)">
              <path id="Trazado_735506" data-name="Trazado 735506" d="M4457.3,1565.454l.42.123,1.3,12.209a5.808,5.808,0,0,1-.89.9,5.426,5.426,0,0,1-1.3.749Z" transform="translate(-4456.839 -1565.454)" fill="#fbffff"/>
            </g>
          </g>
        </g>
        <path id="Trazado_735507" data-name="Trazado 735507" d="M4483.7,1583.548a.206.206,0,1,1-.242-.2.222.222,0,0,1,.242.2" transform="translate(-4177.136 -1475.224)" fill="#fff"/>
        <path id="Trazado_735508" data-name="Trazado 735508" d="M4369.7,1599.443a4.641,4.641,0,0,1,.13-2.821,3.632,3.632,0,0,1,2.886-1.548,2.991,2.991,0,0,1,3.158,1.148,5.446,5.446,0,0,1,1.005,3.13,8.734,8.734,0,0,1-.849,3.5c-.763,1.329-1.373,1.809-2.272,1.93a3.05,3.05,0,0,1-2.771-1.483,7.987,7.987,0,0,1-1.288-3.858" transform="translate(-4071.152 -1486.101)" fill="#e5c0b6"/>
        <path id="Trazado_735509" data-name="Trazado 735509" d="M4372.968,1632.893c.8-.6.816-.874,1.324-1.008.425-.113,1.395.348,1.591.365a8.557,8.557,0,0,1,2.956.718,7.025,7.025,0,0,1-.506,3.592c-.591,1.488-1.646,2.582-2.646,2.617a2.64,2.64,0,0,1-1.614-.466,4.022,4.022,0,0,1-1.481-1.68,9.257,9.257,0,0,1-.9-3.32,14.014,14.014,0,0,0,1.278-.817" transform="translate(-4073.153 -1520.429)" fill="#7cc5c3"/>
        <path id="Trazado_735510" data-name="Trazado 735510" d="M4389.365,1671.093c-.978.049-2.658.212-3.226.315-.511.092-2.443.734-2.443.734,1.167-.5,1.689-1.131,2.272-1.284.694-.182.954.1,3.4.235" transform="translate(-4084.339 -1556.703)" fill="#6cbab6"/>
        <path id="Trazado_735511" data-name="Trazado 735511" d="M4392.437,1685.776a27.937,27.937,0,0,1-3.209.518c-.5.095-2.256.517-2.256.517a8.109,8.109,0,0,0,2.34.139c.734-.078.861-.288,3.125-1.173" transform="translate(-4087.39 -1570.657)" fill="#6cbab6"/>
        <path id="Trazado_735512" data-name="Trazado 735512" d="M4410,1708.855c-.486.129-.864.184-1.267.259-.253.047-1.21.242-1.21.242a2.689,2.689,0,0,0,1.25.171,3.313,3.313,0,0,0,1.227-.672" transform="translate(-4106.542 -1592.16)" fill="#6cbab6"/>
        <path id="Trazado_735513" data-name="Trazado 735513" d="M4374.3,1632.563a4.9,4.9,0,0,1,1.542.339,9.941,9.941,0,0,1,1.433.218,8.778,8.778,0,0,1,1.593.531,3.015,3.015,0,0,1,.045.607,12.35,12.35,0,0,0-1.4-.289,7.4,7.4,0,0,1-1.771-.366,2.876,2.876,0,0,0-1.406-.26c-.182.035-.4.28-.661.536a4.982,4.982,0,0,1-.964.669l-.9.57c-.06-.382-.093-.752-.093-.752.184-.089.508-.3.841-.508a4.678,4.678,0,0,0,.776-.551c.352-.3.634-.677.972-.744" transform="translate(-4073.173 -1521.064)" fill="#6cbab6"/>
        <path id="Trazado_735514" data-name="Trazado 735514" d="M4374.363,1633.21a1.552,1.552,0,0,1,1.114.2,5.6,5.6,0,0,0,1.518.275,18.526,18.526,0,0,1,1.941.585,1.872,1.872,0,0,1,.025.207c-.643-.125-1.307-.491-1.966-.563a6.257,6.257,0,0,1-1.649-.292,1.279,1.279,0,0,0-.948-.144,2.847,2.847,0,0,0-.872.623,7.95,7.95,0,0,1-.718.619l-1,.526c-.013-.1-.024-.251-.024-.251.4-.217.464-.214.794-.425a4.163,4.163,0,0,0,.793-.587,2.462,2.462,0,0,1,1-.774" transform="translate(-4073.234 -1521.648)" fill="#cae8e6"/>
        <path id="Trazado_735515" data-name="Trazado 735515" d="M4073.249,2301.5l-2.9-1.492-1.157-52.91,1.739.006,2.488,2.708Z" transform="translate(-3791.311 -2093.649)" fill="#99601d"/>
        <path id="Trazado_735516" data-name="Trazado 735516" d="M4138.01,2286.693l-37.93-.167.135,3.288v.018l1.511,47.913a3.224,3.224,0,0,0,3.176,3.269l.679,0,26.556.087.678,0a3.225,3.225,0,0,0,3.2-3.248l1.764-46.3Z" transform="translate(-3820.091 -2130.382)" fill="#cc8027"/>
        <path id="Trazado_735517" data-name="Trazado 735517" d="M4196.925,2286.844l-2.521-.008-1.764-.006-19.98-.066-1.765-.006-2.507-.008.1,3.248c0,.006,0,.012,0,.017l1.1,47.948c0,1.8,1.064,3.264,2.388,3.269l.51,0,19.98.066h.51c1.324,0,2.4-1.452,2.409-3.253l1.365-46.341Z" transform="translate(-3883.734 -2130.591)" fill="#ffa031"/>
        <path id="Trazado_735518" data-name="Trazado 735518" d="M4121.58,2321.621l-.008.2-37.438-.123-.006-.2-1.528,0,1.075,4.747.548,0-.1-3.623,5.675.018-.012,3.623,1.765-3.617,11.8.038-.012,3.623,1.765-3.617,11.81.038-.012,3.623,1.764-3.617,2.88.01-.125,3.623.586,0,1.106-4.74Z" transform="translate(-3803.804 -2162.962)" fill="#99601d"/>
        <path id="Trazado_735519" data-name="Trazado 735519" d="M4109.081,2286.569l-41.9-.137a.342.342,0,0,0-.311.365v.088l-.007,2.289,7.409.024-.015,4.392.722,0,.015-4.392,12.886.042-.014,4.391.721,0,.015-4.392,12.887.042-.014,4.392.721,0,.015-4.391,7.174.023,0-.821.005-1.468v-.088a.341.341,0,0,0-.309-.368" transform="translate(-3789.14 -2130.295)" fill="#ffa031"/>
        <path id="Trazado_735520" data-name="Trazado 735520" d="M4107.682,2185.661l-1.681-.006v-.177l0-.612s-3.355-3.456-3.436-3.457l-14.405-.047-2-.006-14.405-.047c-.081,0-3.375,3.434-3.375,3.434l0,.789-1.53-.005a.932.932,0,0,0-.848,1v.922l0,1.1,42.521.14,0-1.1v-.364l0-.558a.932.932,0,0,0-.842-1" transform="translate(-3788.335 -2032.35)" fill="#ffa031"/>
        <rect id="Rectángulo_352928" data-name="Rectángulo 352928" width="0.72" height="37.62" transform="translate(280.047 153.188) rotate(-89.817)" fill="#cc8027"/>
        <path id="Trazado_735521" data-name="Trazado 735521" d="M4096.822,2907.379a7.01,7.01,0,0,1-2.757,5.557l-.793.007c-3.528-4.09-4.114-4.786-8.356-9.868l0-.768a7.023,7.023,0,0,1,11.9,5.073" transform="translate(-3805.963 -2702.272)" fill="#99601d"/>
        <path id="Trazado_735522" data-name="Trazado 735522" d="M4072.427,2915.19a6.522,6.522,0,1,1-6.5-6.543,6.522,6.522,0,0,1,6.5,6.543" transform="translate(-3782.172 -2710.019)" fill="#302e2e"/>
        <path id="Trazado_735523" data-name="Trazado 735523" d="M4110,2955.728a3.55,3.55,0,1,1-3.539-3.562,3.55,3.55,0,0,1,3.539,3.562" transform="translate(-3822.719 -2750.566)" fill="#414042"/>
        <path id="Trazado_735524" data-name="Trazado 735524" d="M4765.646,2921.2h-.586a1.337,1.337,0,0,1-1.337-1.338v-10.146a1.338,1.338,0,0,1,1.337-1.338h.586a1.338,1.338,0,0,1,1.338,1.338v10.146a1.338,1.338,0,0,1-1.338,1.338" transform="translate(-4438.415 -2709.769)" fill="#302e2e"/>
        <path id="Trazado_735525" data-name="Trazado 735525" d="M5334.621,2921.2h-.585a1.338,1.338,0,0,1-1.338-1.338v-10.146a1.338,1.338,0,0,1,1.338-1.338h.585a1.338,1.338,0,0,1,1.338,1.338v10.146a1.338,1.338,0,0,1-1.338,1.338" transform="translate(-4968.534 -2709.769)" fill="#302e2e"/>
        <path id="Trazado_735526" data-name="Trazado 735526" d="M4813.44,2281.233l-41.022-.042.157,3.295v.018l1.8,48.011a3.362,3.362,0,0,0,3.448,3.266h30.186a3.362,3.362,0,0,0,3.448-3.266l1.743-46.409Z" transform="translate(-4446.515 -2125.411)" fill="#cc8027"/>
        <path id="Trazado_735527" data-name="Trazado 735527" d="M4882.364,2281.81h-30.482l.118,3.252c0,.006,0,.012,0,.017l1.341,48.012c0,1.8,1.147,3.265,2.562,3.265h22.43c1.414,0,2.561-1.462,2.561-3.265l1.3-46.41Z" transform="translate(-4520.553 -2125.988)" fill="#ffa031"/>
        <path id="Trazado_735528" data-name="Trazado 735528" d="M4867.733,2329.477h-2.33v3.842Z" transform="translate(-4533.151 -2170.4)" fill="#99601d"/>
        <path id="Trazado_735529" data-name="Trazado 735529" d="M5083.142,2329.477h-2.329v3.842Z" transform="translate(-4733.851 -2170.4)" fill="#99601d"/>
        <path id="Trazado_735530" data-name="Trazado 735530" d="M5298.763,2329.477h-2.329v3.842Z" transform="translate(-4934.748 -2170.4)" fill="#99601d"/>
        <path id="Trazado_735531" data-name="Trazado 735531" d="M4815.708,2328.151h-40.691l.03.794h40.622Z" transform="translate(-4448.938 -2169.165)" fill="#99601d"/>
        <path id="Trazado_735532" data-name="Trazado 735532" d="M5035.448,2552.014a2.643,2.643,0,0,0-.025.359,2.791,2.791,0,0,0,1.711,2.537,1.792,1.792,0,0,0,.326-.744,1.981,1.981,0,0,1-1.179-1.787,1.918,1.918,0,0,1,.014-.226,2.044,2.044,0,0,0-.847-.139" transform="translate(-4691.561 -2377.738)" fill="#f3e4e0"/>
        <path id="Trazado_735533" data-name="Trazado 735533" d="M5054.166,2517.516a2.191,2.191,0,0,1,2.313.005,1.875,1.875,0,0,0,.56-.617,3.077,3.077,0,0,0-3.434-.013,1.87,1.87,0,0,0,.56.625" transform="translate(-4708.501 -2344.534)" fill="#f3e4e0"/>
        <path id="Trazado_735534" data-name="Trazado 735534" d="M5091.965,2554.171a1.8,1.8,0,0,0,.326.74,2.79,2.79,0,0,0,1.711-2.537,2.65,2.65,0,0,0-.025-.359,2.043,2.043,0,0,0-.837.135,1.944,1.944,0,0,1-1.175,2.021" transform="translate(-4744.241 -2377.739)" fill="#f3e4e0"/>
        <path id="Trazado_735535" data-name="Trazado 735535" d="M5002.607,2482.3a2.289,2.289,0,0,1,1.855.923l.395-.216a.591.591,0,0,1-.013-.126.639.639,0,0,1,.522-.616v-.492h-.027a2.129,2.129,0,0,1-.149-4.25v-.089a3.077,3.077,0,0,0-2.842,2.995,2.865,2.865,0,0,0,.1.739,3.039,3.039,0,0,0-2.3,2.895,2.87,2.87,0,0,0,.245,1.164l.039-.019.062-.032a2.023,2.023,0,0,1-.138-.738,2.2,2.2,0,0,1,2.255-2.137" transform="translate(-4658.69 -2308.257)" fill="#f3e4e0"/>
        <path id="Trazado_735536" data-name="Trazado 735536" d="M5084.39,2481.164a2.875,2.875,0,0,0,.1-.743,3.077,3.077,0,0,0-2.849-3v.1a2.127,2.127,0,0,1-.154,4.24v.506a.637.637,0,0,1,.475.6.569.569,0,0,1-.013.123l.392.214a2.29,2.29,0,0,1,1.843-.907,2.2,2.2,0,0,1,2.254,2.137,2.034,2.034,0,0,1-.129.714l.085.043.038.019a2.857,2.857,0,0,0,.245-1.162,3.039,3.039,0,0,0-2.286-2.891" transform="translate(-4734.477 -2308.245)" fill="#f3e4e0"/>
        <path id="Trazado_735537" data-name="Trazado 735537" d="M5017.933,2565.6h0l-.013-.007a2.292,2.292,0,0,1-1.814.869,2.2,2.2,0,0,1-2.254-2.137,2.036,2.036,0,0,1,.234-.949l.007-.01-.366-.2a.689.689,0,0,1-1.012,0l-.373.2a2.04,2.04,0,0,1,.23.942,2.2,2.2,0,0,1-2.254,2.137,2.3,2.3,0,0,1-1.8-.848l-.086.043-.013.007a3.226,3.226,0,0,0,2.612,1.3,3.3,3.3,0,0,1,4.393,0,3.225,3.225,0,0,0,2.612-1.3l-.032-.016Z" transform="translate(-4666.4 -2388.129)" fill="#f3e4e0"/>
        <rect id="Rectángulo_352929" data-name="Rectángulo 352929" width="0.288" height="1.554" transform="translate(340.815 180.454)" fill="#f3e4e0"/>
        <path id="Trazado_735538" data-name="Trazado 735538" d="M5000.948,2642.457h.288v1.556H5001l-.552-.817c-.031-.044-.064-.094-.1-.15s-.071-.107-.1-.155c0,.049.009.1.013.154s.006.1.006.154l.007.813h-.289v-1.559h.226l.569.808c.032.045.065.092.1.141s.066.1.1.144c0-.049-.006-.1-.009-.148s0-.092,0-.127Z" transform="translate(-4658.537 -2462.002)" fill="#f3e4e0"/>
        <path id="Trazado_735539" data-name="Trazado 735539" d="M5023.352,2642.52h.973v.207h-.685v.448h.564l-.037.207h-.528v.693h-.288Z" transform="translate(-4680.314 -2462.066)" fill="#f3e4e0"/>
        <path id="Trazado_735540" data-name="Trazado 735540" d="M5040.658,2642.52h.974v.207h-.686v.434h.564l-.037.209h-.528v.5h.722v.207h-1.01Z" transform="translate(-4696.438 -2462.066)" fill="#f3e4e0"/>
        <path id="Trazado_735541" data-name="Trazado 735541" d="M5058.709,2642.55a.435.435,0,0,0-.123-.091.337.337,0,0,0-.148-.031.309.309,0,0,0-.291.169.611.611,0,0,0-.063.185,1.283,1.283,0,0,0-.02.228,1.382,1.382,0,0,0,.019.227.6.6,0,0,0,.063.186.335.335,0,0,0,.121.126.369.369,0,0,0,.193.046.606.606,0,0,0,.106-.009c.034-.006.065-.012.093-.019s.052-.014.07-.02l.036-.011.068.193-.032.011c-.021.008-.051.016-.088.026s-.083.019-.136.028a1.115,1.115,0,0,1-.173.013.6.6,0,0,1-.488-.2.878.878,0,0,1-.164-.575,1.178,1.178,0,0,1,.044-.332.719.719,0,0,1,.131-.259.6.6,0,0,1,.223-.167.777.777,0,0,1,.316-.06.493.493,0,0,1,.238.051.563.563,0,0,1,.152.115Z" transform="translate(-4712.365 -2461.784)" fill="#f3e4e0"/>
        <path id="Trazado_735542" data-name="Trazado 735542" d="M5076.841,2642.52l-.037.207h-.406v1.348h-.286v-1.348h-.414v-.207Z" transform="translate(-4729.084 -2462.066)" fill="#f3e4e0"/>
        <rect id="Rectángulo_352930" data-name="Rectángulo 352930" width="0.288" height="1.554" transform="translate(347.952 180.454)" fill="#f3e4e0"/>
        <path id="Trazado_735543" data-name="Trazado 735543" d="M5104.635,2642.272a.554.554,0,0,1,.212.156.633.633,0,0,1,.122.247,1.27,1.27,0,0,1,.039.327,1.2,1.2,0,0,1-.042.327.678.678,0,0,1-.131.253.6.6,0,0,1-.223.164.8.8,0,0,1-.318.059.84.84,0,0,1-.311-.052.529.529,0,0,1-.213-.152.63.63,0,0,1-.123-.242,1.266,1.266,0,0,1-.038-.326,1.212,1.212,0,0,1,.042-.33.725.725,0,0,1,.131-.26.594.594,0,0,1,.224-.168.89.89,0,0,1,.629,0m-.52.2a.334.334,0,0,0-.114.123.557.557,0,0,0-.062.184,1.346,1.346,0,0,0-.018.229,1.411,1.411,0,0,0,.017.222.562.562,0,0,0,.062.186.347.347,0,0,0,.123.128.388.388,0,0,0,.2.048.33.33,0,0,0,.176-.043.335.335,0,0,0,.116-.119.557.557,0,0,0,.061-.18,1.259,1.259,0,0,0,.019-.226,1.4,1.4,0,0,0-.018-.225.576.576,0,0,0-.061-.19.352.352,0,0,0-.124-.132.379.379,0,0,0-.2-.049.322.322,0,0,0-.176.045" transform="translate(-4755.09 -2461.784)" fill="#f3e4e0"/>
        <path id="Trazado_735544" data-name="Trazado 735544" d="M5128.117,2642.519v.962a.41.41,0,0,0,.094.3.354.354,0,0,0,.257.091.284.284,0,0,0,.243-.1.472.472,0,0,0,.079-.29v-.962h.288v.983a.749.749,0,0,1-.033.225.483.483,0,0,1-.108.186.517.517,0,0,1-.2.127.855.855,0,0,1-.3.047.764.764,0,0,1-.287-.047.5.5,0,0,1-.187-.127.483.483,0,0,1-.1-.186.816.816,0,0,1-.03-.225v-.983Z" transform="translate(-4777.658 -2462.065)" fill="#f3e4e0"/>
        <path id="Trazado_735545" data-name="Trazado 735545" d="M5149.856,2642.217a.872.872,0,0,1,.163.015,1.412,1.412,0,0,1,.142.035.871.871,0,0,1,.108.04.494.494,0,0,1,.062.032l-.119.2-.032-.016c-.021-.011-.048-.023-.082-.037a.9.9,0,0,0-.112-.036.437.437,0,0,0-.116-.016.287.287,0,0,0-.152.039.131.131,0,0,0-.064.121.218.218,0,0,0,.07.169.666.666,0,0,0,.22.121,1.549,1.549,0,0,1,.173.077.529.529,0,0,1,.129.093.365.365,0,0,1,.082.122.451.451,0,0,1,.028.166.447.447,0,0,1-.035.172.438.438,0,0,1-.1.15.521.521,0,0,1-.17.105.641.641,0,0,1-.235.04.861.861,0,0,1-.179-.018,1.3,1.3,0,0,1-.154-.042,1.034,1.034,0,0,1-.119-.05l-.074-.039.1-.211.043.023c.029.015.064.032.106.051s.087.035.134.051a.4.4,0,0,0,.121.023.27.27,0,0,0,.191-.06.221.221,0,0,0,.063-.168.225.225,0,0,0-.017-.088.182.182,0,0,0-.048-.065.327.327,0,0,0-.077-.05c-.03-.014-.063-.029-.1-.043-.072-.029-.137-.058-.194-.087a.641.641,0,0,1-.147-.1.378.378,0,0,1-.092-.129.431.431,0,0,1-.032-.173.34.34,0,0,1,.039-.16.428.428,0,0,1,.107-.131.523.523,0,0,1,.162-.09.628.628,0,0,1,.208-.033" transform="translate(-4797.649 -2461.784)" fill="#f3e4e0"/>
        <path id="Trazado_735546" data-name="Trazado 735546" d="M5026.447,2683.471a1.507,1.507,0,0,1-.058-.184c-.008.029-.016.058-.022.087s-.017.061-.028.1l-.315.943h-.213l-.456-1.554h.288l.213.778q.056.2.08.326c.011-.043.024-.09.04-.142s.034-.112.057-.179l.256-.783h.216l.257.783c.022.069.042.132.058.188s.029.106.039.149c.006-.043.016-.093.027-.149s.029-.119.048-.188l.213-.783h.293l-.455,1.554h-.214Z" transform="translate(-4682.18 -2499.652)" fill="#f3e4e0"/>
        <path id="Trazado_735547" data-name="Trazado 735547" d="M5054.854,2682.86h.228l.633,1.554h-.309l-.149-.406h-.591l-.156.406h-.285Zm.327.946q-.078-.207-.133-.375c-.037-.112-.065-.2-.085-.265l-.089.271c-.038.112-.081.235-.131.369Z" transform="translate(-4709.078 -2499.652)" fill="#f3e4e0"/>
        <path id="Trazado_735548" data-name="Trazado 735548" d="M5077.491,2682.558a.852.852,0,0,1,.162.015,1.436,1.436,0,0,1,.142.034.85.85,0,0,1,.109.04.443.443,0,0,1,.061.032l-.119.2-.031-.016c-.021-.011-.049-.023-.083-.037a.929.929,0,0,0-.111-.037.468.468,0,0,0-.116-.016.286.286,0,0,0-.151.039.133.133,0,0,0-.064.122.22.22,0,0,0,.07.169.656.656,0,0,0,.22.121,1.585,1.585,0,0,1,.173.077.559.559,0,0,1,.13.093.362.362,0,0,1,.081.122.441.441,0,0,1,.028.165.45.45,0,0,1-.036.173.436.436,0,0,1-.1.15.532.532,0,0,1-.171.106.642.642,0,0,1-.234.04.844.844,0,0,1-.179-.018,1.287,1.287,0,0,1-.154-.043.92.92,0,0,1-.119-.049l-.074-.039.1-.211.044.023c.029.015.064.032.107.051a1.366,1.366,0,0,0,.133.051.394.394,0,0,0,.121.023.271.271,0,0,0,.191-.059.221.221,0,0,0,.063-.168.208.208,0,0,0-.017-.088.183.183,0,0,0-.048-.066.387.387,0,0,0-.077-.049c-.03-.014-.063-.028-.1-.042q-.108-.043-.195-.087a.672.672,0,0,1-.147-.1.4.4,0,0,1-.092-.128.443.443,0,0,1-.031-.174.345.345,0,0,1,.039-.159.413.413,0,0,1,.106-.131.535.535,0,0,1,.163-.09.618.618,0,0,1,.208-.033" transform="translate(-4730.225 -2499.37)" fill="#f3e4e0"/>
        <path id="Trazado_735549" data-name="Trazado 735549" d="M5095.335,2682.86l-.036.207h-.407v1.348h-.286v-1.348h-.414v-.207Z" transform="translate(-4746.316 -2499.651)" fill="#f3e4e0"/>
        <path id="Trazado_735550" data-name="Trazado 735550" d="M5113.8,2682.86h.974v.207h-.686v.434h.564l-.036.209h-.528v.5h.721v.207h-1.01Z" transform="translate(-4764.589 -2499.651)" fill="#f3e4e0"/>
        <path id="Trazado_735551" data-name="Trazado 735551" d="M4752.137,2329.668h-.636l-1.185-4.109h1.659Z" transform="translate(-4425.923 -2166.75)" fill="#99601d"/>
        <path id="Trazado_735552" data-name="Trazado 735552" d="M5367.847,2329.668h.636l1.184-4.109h-1.659Z" transform="translate(-5001.284 -2166.75)" fill="#99601d"/>
        <path id="Trazado_735553" data-name="Trazado 735553" d="M4782.533,2295.216h-45.564a.327.327,0,0,0-.335.318v2.059h8.013v3.8h.78v-3.8h13.937v3.8h.78v-3.8h13.938v3.8h.78v-3.8h8.007v-2.059a.327.327,0,0,0-.335-.318" transform="translate(-4413.174 -2138.479)" fill="#ffa031"/>
        <path id="Trazado_735554" data-name="Trazado 735554" d="M4803.975,2185.212l-1.681-.006v-.177l0-.611s-3.355-3.45-3.436-3.45l-14.4-.047-2-.007-14.406-.047c-.081,0-3.375,3.428-3.375,3.428l0,.787-1.53-.005a.931.931,0,0,0-.848.995v.92l0,1.094,42.521.139,0-1.094v-.363l0-.557a.931.931,0,0,0-.842-1" transform="translate(-4437.078 -2031.939)" fill="#ffa031"/>
        <rect id="Rectángulo_352931" data-name="Rectángulo 352931" width="0.718" height="37.62" transform="translate(327.596 153.148) rotate(-89.811)" fill="#cc8027"/>
        <path id="Trazado_735555" data-name="Trazado 735555" d="M4300.854,2156.952c.014.167-1.239.053-1.945.36-.271.117-.649.632-.88.826-.831.7-1.172.787-1.892.68a5.412,5.412,0,0,0,.906-1.173,3.4,3.4,0,0,0,.12-2.439c.726.26,3.625.919,3.692,1.746" transform="translate(-4002.756 -2008.03)" fill="#1daea3"/>
        <g id="Grupo_1033805" data-name="Grupo 1033805" transform="translate(255.112 104.797)" opacity="0.35">
          <g id="Grupo_1033804" data-name="Grupo 1033804">
            <g id="Grupo_1033803" data-name="Grupo 1033803" clip-path="url(#clip-path-11)">
              <path id="Trazado_735556" data-name="Trazado 735556" d="M3750.526,1536.73s-1.624-1.492-7.377-2.006a13.308,13.308,0,0,0-5.138.229l-2.234,13.377s2.861,3.772,11.111,3.3c4.062-.232,4.208-1.928,4.208-1.928Z" transform="translate(-3735.777 -1534.622)" fill="#f9f9f9"/>
            </g>
          </g>
        </g>
        <g id="Grupo_1033808" data-name="Grupo 1033808" transform="translate(269.639 106.783)" opacity="0.45">
          <g id="Grupo_1033807" data-name="Grupo 1033807">
            <g id="Grupo_1033806" data-name="Grupo 1033806" clip-path="url(#clip-path-12)">
              <path id="Trazado_735557" data-name="Trazado 735557" d="M3948.73,1563.84l-.221-.14.585,13.577s.052-.085.121-.216a.75.75,0,0,0,.086-.267Z" transform="translate(-3948.509 -1563.7)" fill="#fbffff"/>
            </g>
          </g>
        </g>
        <g id="Grupo_1033811" data-name="Grupo 1033811" transform="translate(267.421 106.115)" opacity="0.38">
          <g id="Grupo_1033810" data-name="Grupo 1033810">
            <g id="Grupo_1033809" data-name="Grupo 1033809" clip-path="url(#clip-path-13)">
              <path id="Trazado_735558" data-name="Trazado 735558" d="M3917.111,1553.92l.3.111.033,15.1a5.026,5.026,0,0,1-.715.217,5.75,5.75,0,0,1-.688.139Z" transform="translate(-3916.042 -1553.92)" fill="#fbffff"/>
            </g>
          </g>
        </g>
        <path id="Trazado_735559" data-name="Trazado 735559" d="M3609.039,3086.311c1.348-1.443.158-3.029-3.518-3.127a11.934,11.934,0,0,0-4.656,1.528c-1.806,1-2.614,1.365-3.092,3.27a1.977,1.977,0,0,0,.5,1.955,7.868,7.868,0,0,0,3.412,1.066,6.007,6.007,0,0,0,3.732-1.351,21.4,21.4,0,0,0,3.625-3.341" transform="translate(-3352.016 -2872.636)" fill="#4db1f0"/>
        <path id="Trazado_735560" data-name="Trazado 735560" d="M3842.049,3090.756a2.747,2.747,0,0,0,.64,2.417c.893,1.237,5.142,1.866,7.428.32,3.315-2.244,5.329-4.081,4.8-5.011a4.831,4.831,0,0,0-5.153-2.168,34.9,34.9,0,0,0-5.26,1.848c-1.93,1.1-2.31,1.807-2.452,2.594" transform="translate(-3579.624 -2875.411)" fill="#4db1f0"/>
        <path id="Trazado_735561" data-name="Trazado 735561" d="M3566.341,1499.367a11.125,11.125,0,0,1,5.67-3.91,6.629,6.629,0,0,0,2.988-2.2s.147-1.447.206-3.884c.063-2.6.069-5.8,1.113-8.261a7.223,7.223,0,0,1,7.671-4.326,7.036,7.036,0,0,1,3.294,1.49,7.829,7.829,0,0,1,2.8,5.039,18.338,18.338,0,0,1-1.033,7.4c-1.211,3.417-1.721,4.134-2.019,4.983-.117.333.733,1.2,1.264,1.369a19.246,19.246,0,0,1,6.008,3.5,7.9,7.9,0,0,1,2.84,3.75,38.188,38.188,0,0,1,2.685,6.447c2.389,9.342,18.135,8.282,15.712,15.151-.609,1.725-5.284,2.345-7.265,1.685-1.244-.415-9.691-1.332-14.182-6.94-2.835-3.542-2.331-8.042-3.023-8.294-.259-.094,1.174,5.884,1.761,8.154,1.443,5.579,1.046,7.5,1.573,9.844,1.255,5.571,1.39,7.536,1.729,17,.2,5.608-.053,10.766-.283,15.92-.249,5.595-.843,9.3-1.245,12.819-.614,5.368-1.04,7.582-1.04,10.583,0,2.293-.74,5.805-6.248,5.271-2.709-.263-4.42-.6-5.026-3.564-.343-1.676.034-3.253.064-4.908.092-5.173.146-13.853.092-16.616-.055-2.808-.625-7.7-1.63-17.651-.257-2.55-.455-3.51-1.268-4.7,0,0-1.094,4.907-1.743,9.466-.63,4.423-.225,12.593-.7,16.481-.416,3.395.077,10.834-.522,15.194-.477,3.471-1.715,5.894-4.125,6.273a10.624,10.624,0,0,1-3.859-.282c-1.628-.31-2.653-2.053-2.965-2.965a25.484,25.484,0,0,1-.518-5.365c-.05-4.548-.239-14.131.095-17.663.251-2.661-.735-5.475-.652-9.41.032-1.519.047-4.924.038-7.536-.013-3.47.561-5.618.62-7.635.271-9.246.221-10.987.475-13.457.464-4.513-4.047-21.359.647-28.248" transform="translate(-3320.793 -1375.882)" fill="#fff"/>
        <path id="Trazado_735562" data-name="Trazado 735562" d="M3600.538,1532.352c5.281-.338,11.379-1.278,11.379-1.278l-.16-1.013a94.371,94.371,0,0,1-11.329,1.326c-2.475.151-5.687-.019-7.991-.059-.5-5.668-.2-19.477,3.99-33.358a1.938,1.938,0,0,0,.084-.306,21.83,21.83,0,0,0,8.453-.28l-.414-.744a22.865,22.865,0,0,1-8.022.132c-.016-16.464,5.918-18.817,5.929-18.854a2.01,2.01,0,0,0-.429-.131,3.962,3.962,0,0,0-.446-.082c-.047.122-6.029,2.827-5.8,18.935-2.871-.61-3.547-2.058-3.547-2.058l-.526.49s.757,1.823,4.065,2.469a1.5,1.5,0,0,1-.084.309c-3.988,10.791-4.823,27.194-4.156,33.459l-8.493-.375-.034.964s3.648.167,8.574.317a26.726,26.726,0,0,0,.252,5.622c.68,4.593,2.885,5.323,3.614,6.29-.259,2.181-1.017,7.389-2.038,16.963-.718,6.733-1.032,15.572-1.632,22.517-.263,3.052-.459,8.847-.459,8.847a3.361,3.361,0,0,0,.647-.539c.347-.374.389-.426.389-.426s.225-5.049.431-7.689c.489-6.252.864-15.366,1.5-22.413.7-7.723,1.543-13.562,1.879-16.054a9.962,9.962,0,0,0,.7,1.132l.215-1c-.285-.591-.635-1.181-.849-1.608-.63-1.26-2.812-1.214-3.527-6.342a40.652,40.652,0,0,1-.2-5.277c2.518.061,5.832.254,8.03.114" transform="translate(-3338.327 -1376.795)" fill="#4db1f0"/>
        <path id="Trazado_735563" data-name="Trazado 735563" d="M3929.691,1569.126a4.842,4.842,0,0,0,.9-.272c.651-.29.57-.468.57-.468l-.08-1.6s.073.234-.583.457a4.314,4.314,0,0,1-.933.225Z" transform="translate(-3661.219 -1459.789)" fill="#1daea3"/>
        <path id="Trazado_735564" data-name="Trazado 735564" d="M3925.549,1557.62s.446.149.54.3c.175.27-1.523.582-1.523.582l.342.143a3.848,3.848,0,0,0,.949-.231c.539-.189.588-.366.56-.5s-.168-.261-.434-.387a4.633,4.633,0,0,0-.551-.213Z" transform="translate(-3656.562 -1450.964)" fill="#f4f4f4"/>
        <path id="Trazado_735565" data-name="Trazado 735565" d="M3924.687,1576.385l.348.109-.126-1.662-.342-.142Z" transform="translate(-3656.563 -1467.157)" fill="#e0e0e0"/>
        <path id="Trazado_735566" data-name="Trazado 735566" d="M3937.907,1582.116a.231.231,0,1,0,.27-.221.248.248,0,0,0-.27.221" transform="translate(-3668.988 -1473.867)" fill="#fff"/>
        <path id="Trazado_735567" data-name="Trazado 735567" d="M3728.792,1582.682s.574,1.415,3.739,1.794a19.048,19.048,0,0,0,10.056-1.934l-.045-.795s-5.468,2.476-9.685,1.9c-3.366-.458-3.947-1.842-3.947-1.842s-.045.266-.081.466a2.264,2.264,0,0,0-.039.408" transform="translate(-3474.157 -1473.732)" fill="#ececec"/>
      </g>
    </g>
  </g>
</svg>
