<svg id="Grupo_1033734" data-name="Grupo 1033734" xmlns="http://www.w3.org/2000/svg" xmlns:xlink="http://www.w3.org/1999/xlink" width="315.076" height="291.171" viewBox="0 0 315.076 291.171">
  <defs>
    <clipPath id="clip-path">
      <rect id="Rectángulo_352883" data-name="Rectángulo 352883" width="315.076" height="291.171" fill="none"/>
    </clipPath>
    <clipPath id="clip-path-2">
      <rect id="Rectángulo_352882" data-name="Rectángulo 352882" width="315.077" height="291.171" fill="none"/>
    </clipPath>
    <clipPath id="clip-path-3">
      <rect id="Rectángulo_352875" data-name="Rectángulo 352875" width="285.495" height="270.196" fill="none"/>
    </clipPath>
    <clipPath id="clip-path-4">
      <rect id="Rectángulo_352869" data-name="Rectángulo 352869" width="54.13" height="81.242" fill="none"/>
    </clipPath>
    <clipPath id="clip-path-5">
      <rect id="Rectángulo_352870" data-name="Rectángulo 352870" width="91.221" height="32.155" fill="none"/>
    </clipPath>
    <clipPath id="clip-path-6">
      <rect id="Rectángulo_352871" data-name="Rectángulo 352871" width="54.109" height="81.244" fill="none"/>
    </clipPath>
    <clipPath id="clip-path-7">
      <rect id="Rectángulo_352872" data-name="Rectángulo 352872" width="138.737" height="218.387" fill="none"/>
    </clipPath>
    <clipPath id="clip-path-8">
      <rect id="Rectángulo_352873" data-name="Rectángulo 352873" width="137.918" height="218.38" fill="none"/>
    </clipPath>
    <clipPath id="clip-path-9">
      <rect id="Rectángulo_352874" data-name="Rectángulo 352874" width="255.483" height="106.091" fill="none"/>
    </clipPath>
    <clipPath id="clip-path-10">
      <rect id="Rectángulo_352876" data-name="Rectángulo 352876" width="135.662" height="7.502" fill="none"/>
    </clipPath>
    <clipPath id="clip-path-11">
      <rect id="Rectángulo_352881" data-name="Rectángulo 352881" width="12.976" height="10.468" fill="none"/>
    </clipPath>
  </defs>
  <g id="Grupo_1033733" data-name="Grupo 1033733" clip-path="url(#clip-path)">
    <g id="Grupo_1033732" data-name="Grupo 1033732">
      <g id="Grupo_1033731" data-name="Grupo 1033731" clip-path="url(#clip-path-2)">
        <g id="Grupo_1033721" data-name="Grupo 1033721" opacity="0.4">
          <g id="Grupo_1033720" data-name="Grupo 1033720">
            <g id="Grupo_1033719" data-name="Grupo 1033719" clip-path="url(#clip-path-3)">
              <g id="Grupo_1033703" data-name="Grupo 1033703" transform="translate(64.007 142.76)" opacity="0.15">
                <g id="Grupo_1033702" data-name="Grupo 1033702">
                  <g id="Grupo_1033701" data-name="Grupo 1033701" clip-path="url(#clip-path-4)">
                    <path id="Trazado_735246" data-name="Trazado 735246" d="M829.024,1847.64a78.165,78.165,0,0,0,44.793,81.172,51.683,51.683,0,0,0,8.671-20.872,55.593,55.593,0,0,1-30.958-56.413,51.683,51.683,0,0,0-22.506-3.887" transform="translate(-828.359 -1847.569)" fill="#847f7f"/>
                  </g>
                </g>
              </g>
              <g id="Grupo_1033706" data-name="Grupo 1033706" transform="translate(96.995 74.549)" opacity="0.15">
                <g id="Grupo_1033705" data-name="Grupo 1033705">
                  <g id="Grupo_1033704" data-name="Grupo 1033704" clip-path="url(#clip-path-5)">
                    <path id="Trazado_735247" data-name="Trazado 735247" d="M1270.158,996.814a55.657,55.657,0,0,1,61.472.144,51.722,51.722,0,0,0,14.882-17.308,78.261,78.261,0,0,0-91.22-.362,51.716,51.716,0,0,0,14.867,17.525" transform="translate(-1255.291 -964.804)" fill="#847f7f"/>
                  </g>
                </g>
              </g>
              <g id="Grupo_1033709" data-name="Grupo 1033709" transform="translate(166.586 142.759)" opacity="0.15">
                <g id="Grupo_1033708" data-name="Grupo 1033708">
                  <g id="Grupo_1033707" data-name="Grupo 1033707" clip-path="url(#clip-path-6)">
                    <path id="Trazado_735248" data-name="Trazado 735248" d="M2155.918,1908.049a51.68,51.68,0,0,0,8.652,20.747,78.164,78.164,0,0,0,44.792-81.173,51.681,51.681,0,0,0-22.251,3.78,55.583,55.583,0,0,1-31.193,56.646" transform="translate(-2155.918 -1847.552)" fill="#847f7f"/>
                  </g>
                </g>
              </g>
              <g id="Grupo_1033712" data-name="Grupo 1033712" transform="translate(0 0.026)" opacity="0.15">
                <g id="Grupo_1033711" data-name="Grupo 1033711">
                  <g id="Grupo_1033710" data-name="Grupo 1033710" clip-path="url(#clip-path-7)">
                    <path id="Trazado_735249" data-name="Trazado 735249" d="M65.433,136.709a59.827,59.827,0,0,1,49.3,25.872l10.478-6.05a17.682,17.682,0,0,1,13.529-20.787V121.949h-.718a59.9,59.9,0,0,1-3.97-119.1V.343A84.4,84.4,0,0,0,61.133,104.991,84.438,84.438,0,0,0,6.539,218.73l1.031-.541,1.639-.885a59.934,59.934,0,0,1,56.224-80.594" transform="translate(0 -0.343)" fill="#847f7f"/>
                  </g>
                </g>
              </g>
              <g id="Grupo_1033715" data-name="Grupo 1033715" transform="translate(147.576)" opacity="0.15">
                <g id="Grupo_1033714" data-name="Grupo 1033714">
                  <g id="Grupo_1033713" data-name="Grupo 1033713" clip-path="url(#clip-path-8)">
                    <path id="Trazado_735250" data-name="Trazado 735250" d="M1987.058,104.78A84.41,84.41,0,0,0,1913.959,0V2.73a59.918,59.918,0,0,1-4.06,118.832v14.192a17.673,17.673,0,0,1,12.274,20.37l10.41,6.01a59.907,59.907,0,0,1,105.435,54.505l2.271,1.212,1,.527a84.437,84.437,0,0,0-54.233-113.6" transform="translate(-1909.899)" fill="#847f7f"/>
                  </g>
                </g>
              </g>
              <g id="Grupo_1033718" data-name="Grupo 1033718" transform="translate(15.015 164.106)" opacity="0.15">
                <g id="Grupo_1033717" data-name="Grupo 1033717">
                  <g id="Grupo_1033716" data-name="Grupo 1033716" clip-path="url(#clip-path-9)">
                    <path id="Trazado_735251" data-name="Trazado 735251" d="M447.078,2192.078l.008-.012-.338-.18a59.9,59.9,0,0,1-101.885-62.154l.173-.292-9.734-5.62a17.656,17.656,0,0,1-26.89.066l-9.9,5.714a59.9,59.9,0,0,1-101.539,62.548l-2.327,1.222-.327.177a84.36,84.36,0,0,0,127.732,12.924,84.361,84.361,0,0,0,127.751-12.951l-.843-.45Z" transform="translate(-194.324 -2123.82)" fill="#847f7f"/>
                  </g>
                </g>
              </g>
            </g>
          </g>
        </g>
        <g id="Grupo_1033724" data-name="Grupo 1033724" transform="translate(154.15 283.668)" opacity="0.43">
          <g id="Grupo_1033723" data-name="Grupo 1033723">
            <g id="Grupo_1033722" data-name="Grupo 1033722" clip-path="url(#clip-path-10)">
              <path id="Trazado_735252" data-name="Trazado 735252" d="M2129.649,3678.546h-7.274l.13.126-120.366.006.134-.131h-6.322a5.544,5.544,0,0,1-.983-.044v-.283h3l3.217-.523h1.838l3.993-4.978h-4.327a12.959,12.959,0,0,1-2.292-.1v-1.339a13.017,13.017,0,0,1,2.292-.1h4.985a13.017,13.017,0,0,1,2.292.1v.075c1.848-.107,4.763-.177,8.042-.177h88.573c3.241,0,6.125.067,7.976.173v-.071a13.018,13.018,0,0,1,2.292-.1h4.985a13.016,13.016,0,0,1,2.292.1v1.339a12.958,12.958,0,0,1-2.292.1h-4.261l3.993,4.978h1.832l3.217.523h4.015v.283a5.543,5.543,0,0,1-.983.044" transform="translate(-1994.969 -3671.175)" fill="#776869"/>
            </g>
          </g>
        </g>
        <path id="Trazado_735253" data-name="Trazado 735253" d="M2071.973,3256.153h-3.457a3.056,3.056,0,0,1-3.056-3.057v-28.64a3.056,3.056,0,0,1,3.056-3.056h3.457a3.056,3.056,0,0,1,3.056,3.056v28.64a3.056,3.056,0,0,1-3.056,3.057" transform="translate(-1905.864 -2972.485)" fill="#302e2e"/>
        <path id="Trazado_735254" data-name="Trazado 735254" d="M3549.423,3256.153h-3.457a3.056,3.056,0,0,1-3.057-3.057v-28.64a3.056,3.056,0,0,1,3.057-3.056h3.457a3.056,3.056,0,0,1,3.056,3.056v28.64a3.056,3.056,0,0,1-3.056,3.057" transform="translate(-3269.153 -2972.485)" fill="#302e2e"/>
        <path id="Trazado_735255" data-name="Trazado 735255" d="M2208.376,1484.352l-120.366-.131.462,10.2c0,.018,0,.036,0,.054l5.293,148.622a10.116,10.116,0,0,0,10.115,10.109h88.573a10.115,10.115,0,0,0,10.115-10.109l5.116-143.664Z" transform="translate(-1926.671 -1369.536)" fill="#cc8027"/>
        <path id="Trazado_735256" data-name="Trazado 735256" d="M2383.518,1485.915h-89.438l.343,10.068c0,.018,0,.036,0,.054l3.933,148.622c0,5.584,3.367,10.109,7.516,10.109h65.814c4.149,0,7.513-4.525,7.516-10.109L2383,1501Z" transform="translate(-2116.818 -1371.1)" fill="#ffa031"/>
        <path id="Trazado_735257" data-name="Trazado 735257" d="M2335.977,1616.323h-6.835v11.892Z" transform="translate(-2149.171 -1491.431)" fill="#99601d"/>
        <path id="Trazado_735258" data-name="Trazado 735258" d="M2894.57,1616.323h-6.835v11.892Z" transform="translate(-2664.602 -1491.431)" fill="#99601d"/>
        <path id="Trazado_735259" data-name="Trazado 735259" d="M3453.715,1616.323h-6.835v11.892Z" transform="translate(-3180.542 -1491.431)" fill="#99601d"/>
        <path id="Trazado_735260" data-name="Trazado 735260" d="M2214.147,1612.7h-119.4l.088,2.457h119.2Z" transform="translate(-1932.892 -1488.084)" fill="#99601d"/>
        <path id="Trazado_735261" data-name="Trazado 735261" d="M2770.107,2225.136a8.742,8.742,0,0,0-.073,1.112,8.652,8.652,0,0,0,5.021,7.853,5.7,5.7,0,0,0,.958-2.305,6.149,6.149,0,0,1-3.46-5.531,6.25,6.25,0,0,1,.041-.7,5.709,5.709,0,0,0-2.486-.429" transform="translate(-2555.996 -2053.194)" fill="#f7e8e4"/>
        <path id="Trazado_735262" data-name="Trazado 735262" d="M2818.829,2131.167a6.148,6.148,0,0,1,6.79.016,5.71,5.71,0,0,0,1.644-1.911,8.643,8.643,0,0,0-10.075-.04,5.707,5.707,0,0,0,1.642,1.935" transform="translate(-2599.505 -1963.232)" fill="#f7e8e4"/>
        <path id="Trazado_735263" data-name="Trazado 735263" d="M2916.655,2231.808a5.708,5.708,0,0,0,.956,2.292,8.652,8.652,0,0,0,5.021-7.854,8.787,8.787,0,0,0-.073-1.112,5.712,5.712,0,0,0-2.458.417,6.224,6.224,0,0,1,.042.712,6.149,6.149,0,0,1-3.488,5.544" transform="translate(-2691.288 -2053.193)" fill="#f7e8e4"/>
        <path id="Trazado_735264" data-name="Trazado 735264" d="M2685.772,2036.173a6.607,6.607,0,0,1,5.444,2.857l1.157-.668a1.954,1.954,0,0,1,1.494-2.3v-1.524h-.079a6.615,6.615,0,0,1-.438-13.154v-.277a339.911,339.911,0,0,1-14.8,20.517,9.291,9.291,0,0,0,.722,3.6l.114-.06.181-.1a6.62,6.62,0,0,1,6.21-8.9" transform="translate(-2471.576 -1864.943)" fill="#f7e8e4"/>
        <path id="Trazado_735265" data-name="Trazado 735265" d="M2898.006,2032.646a9.322,9.322,0,0,0-8.073-11.572v.3a6.618,6.618,0,0,1-.448,13.124v1.568a1.953,1.953,0,0,1,1.356,2.25l1.15.664a6.616,6.616,0,0,1,11.645,6.02l.251.134.111.058a9.325,9.325,0,0,0-5.99-12.547" transform="translate(-2666.216 -1864.907)" fill="#f7e8e4"/>
        <path id="Trazado_735266" data-name="Trazado 735266" d="M2727.922,2263.177h0l-.037-.02a6.616,6.616,0,0,1-11.252-6.865l.019-.032-1.075-.621a1.95,1.95,0,0,1-2.97.007l-1.093.631a6.616,6.616,0,0,1-11.215,6.908l-.257.135-.036.02a37.734,37.734,0,0,1,20.552,4.017,9.308,9.308,0,0,0,7.665-4.019l-.093-.05Z" transform="translate(-2491.38 -2081.348)" fill="#f7e8e4"/>
        <path id="Trazado_735267" data-name="Trazado 735267" d="M2654.557,1897.809l.229,0c.119,0,.253,0,.4,0s.3,0,.443,0,.269,0,.365,0a2.06,2.06,0,0,1,1.262.329,1.1,1.1,0,0,1,.433.93,1.078,1.078,0,0,1-.193.629,1.393,1.393,0,0,1-.536.451,1.431,1.431,0,0,1,.654.465,1.125,1.125,0,0,1,.225.694,1.211,1.211,0,0,1-.465.99,2.215,2.215,0,0,1-1.409.375h-.415q-.222,0-.422,0t-.354,0h-.219Zm.851,2.06h.551a.848.848,0,0,0,.644-.207.717.717,0,0,0,.193-.508.9.9,0,0,0-.043-.272.616.616,0,0,0-.147-.243.733.733,0,0,0-.279-.172,1.288,1.288,0,0,0-.439-.064h-.276c-.078,0-.146,0-.2.007Zm0,2.174h.615a.938.938,0,0,0,.7-.218.755.755,0,0,0,.211-.547.95.95,0,0,0-.046-.293.646.646,0,0,0-.161-.257.809.809,0,0,0-.3-.183,1.424,1.424,0,0,0-.476-.068h-.3q-.133,0-.233.007Z" transform="translate(-2449.441 -1751.154)" fill="#f7e8e4"/>
        <rect id="Rectángulo_352877" data-name="Rectángulo 352877" width="0.851" height="4.842" transform="translate(209.156 146.655)" fill="#f7e8e4"/>
        <path id="Trazado_735268" data-name="Trazado 735268" d="M2731.537,1897.318a1.645,1.645,0,0,1,.625.486,2.043,2.043,0,0,1,.361.769,4.183,4.183,0,0,1,.114,1.019,3.9,3.9,0,0,1-.125,1.019,2.173,2.173,0,0,1-.386.79,1.771,1.771,0,0,1-.658.511,2.237,2.237,0,0,1-.94.182,2.366,2.366,0,0,1-.919-.161,1.559,1.559,0,0,1-.629-.472,1.992,1.992,0,0,1-.361-.754,4.073,4.073,0,0,1-.115-1.016,3.979,3.979,0,0,1,.125-1.026,2.269,2.269,0,0,1,.386-.808,1.745,1.745,0,0,1,.661-.526,2.509,2.509,0,0,1,1.86-.014m-1.538.626a1.031,1.031,0,0,0-.336.383,1.856,1.856,0,0,0-.182.572,4.468,4.468,0,0,0-.053.715,4.57,4.57,0,0,0,.05.694,1.8,1.8,0,0,0,.182.579,1.052,1.052,0,0,0,.365.4,1.1,1.1,0,0,0,.6.15.937.937,0,0,0,.518-.136,1,1,0,0,0,.34-.372,1.762,1.762,0,0,0,.182-.561,4.35,4.35,0,0,0,.054-.7,4.781,4.781,0,0,0-.05-.7,1.914,1.914,0,0,0-.183-.594,1,1,0,0,0-.969-.565.916.916,0,0,0-.522.139" transform="translate(-2517.676 -1750.556)" fill="#f7e8e4"/>
        <path id="Trazado_735269" data-name="Trazado 735269" d="M2795.493,1900.619h-2v2.2h-.851v-4.842h.851V1900h2v-2.017h.851v4.842h-.851Z" transform="translate(-2576.861 -1751.325)" fill="#f7e8e4"/>
        <path id="Trazado_735270" data-name="Trazado 735270" d="M2848.372,1897.98h.672l1.867,4.842H2850l-.443-1.266h-1.745l-.458,1.266h-.844Zm.966,2.947q-.229-.644-.393-1.169t-.25-.826q-.1.322-.265.844t-.386,1.151Z" transform="translate(-2626.565 -1751.325)" fill="#f7e8e4"/>
        <path id="Trazado_735271" data-name="Trazado 735271" d="M2906.674,1902.823v-.508l2.1-3.69q-.143.014-.293.018t-.322,0H2906.8l-.114-.665h3.146v.508l-2.059,3.683c.081,0,.164-.008.25-.011s.179,0,.279,0h1.616v.665Z" transform="translate(-2682.078 -1751.326)" fill="#f7e8e4"/>
        <path id="Trazado_735272" data-name="Trazado 735272" d="M2953.236,1897.98h.672l1.867,4.842h-.909l-.443-1.266h-1.745l-.458,1.266h-.844Zm.966,2.947q-.229-.644-.394-1.169t-.25-.826q-.1.322-.265.844t-.386,1.151Z" transform="translate(-2723.326 -1751.325)" fill="#f7e8e4"/>
        <path id="Trazado_735273" data-name="Trazado 735273" d="M3014.313,1897.809l.229,0q.179,0,.4,0c.148,0,.3,0,.443,0l.365,0a1.979,1.979,0,0,1,1.294.347,1.212,1.212,0,0,1,.408.976,1.33,1.33,0,0,1-.208.737,1.172,1.172,0,0,1-.679.465,1.243,1.243,0,0,1,.358.315,3.116,3.116,0,0,1,.307.49q.15.29.308.672t.365.855h-.922q-.244-.565-.426-.965a4.391,4.391,0,0,0-.354-.651,1.187,1.187,0,0,0-.368-.365.9.9,0,0,0-.461-.115h-.207v2.1h-.851Zm.851,2.124h.551a.953.953,0,0,0,.619-.179.644.644,0,0,0,.218-.529,1.125,1.125,0,0,0-.043-.307.659.659,0,0,0-.147-.265.723.723,0,0,0-.279-.182,1.224,1.224,0,0,0-.44-.068h-.479Z" transform="translate(-2781.4 -1751.154)" fill="#f7e8e4"/>
        <path id="Trazado_735274" data-name="Trazado 735274" d="M3067.44,1897.809l.214,0c.11,0,.234,0,.372,0s.281,0,.429,0,.276,0,.386,0a2.409,2.409,0,0,1,1.8.6,2.488,2.488,0,0,1,.586,1.8,2.568,2.568,0,0,1-.6,1.831,2.478,2.478,0,0,1-1.881.637q-.222,0-.433,0c-.14,0-.27,0-.386,0s-.218,0-.3,0l-.186,0Zm1.026.626c-.074,0-.132,0-.175,0v3.583q.079.007.2.007h.361a1.325,1.325,0,0,0,1.1-.44,2.079,2.079,0,0,0,.35-1.312,3.215,3.215,0,0,0-.082-.754,1.521,1.521,0,0,0-.272-.583,1.256,1.256,0,0,0-.486-.375,1.784,1.784,0,0,0-.726-.132q-.165,0-.276,0" transform="translate(-2830.422 -1751.154)" fill="#f7e8e4"/>
        <rect id="Rectángulo_352878" data-name="Rectángulo 352878" width="0.846" height="4.811" transform="translate(205.096 191.066)" fill="#f7e8e4"/>
        <path id="Trazado_735275" data-name="Trazado 735275" d="M2680.965,2472.567h.845v4.818h-.7l-1.62-2.53q-.135-.206-.295-.466t-.3-.479q.022.227.039.476t.018.476l.021,2.516h-.845v-4.825h.661l1.67,2.5q.143.206.288.437t.288.444q-.015-.227-.029-.458c-.01-.154-.014-.285-.014-.395Z" transform="translate(-2471.186 -2281.501)" fill="#f7e8e4"/>
        <path id="Trazado_735276" data-name="Trazado 735276" d="M2738.729,2472.738h2.856v.64h-2.011v1.385h1.656l-.106.64h-1.549v2.146h-.845Z" transform="translate(-2527.11 -2281.671)" fill="#f7e8e4"/>
        <path id="Trazado_735277" data-name="Trazado 735277" d="M2783.608,2472.738h2.857v.64h-2.011v1.343h1.656l-.106.647h-1.549v1.542h2.118v.64h-2.964Z" transform="translate(-2568.521 -2281.671)" fill="#f7e8e4"/>
        <path id="Trazado_735278" data-name="Trazado 735278" d="M2830.744,2472.939a1.29,1.29,0,0,0-.359-.281.948.948,0,0,0-.437-.1.914.914,0,0,0-.515.138,1.007,1.007,0,0,0-.337.384,1.949,1.949,0,0,0-.185.572,4.09,4.09,0,0,0-.057.7,4.387,4.387,0,0,0,.053.7,1.863,1.863,0,0,0,.185.576,1.014,1.014,0,0,0,.355.391,1.035,1.035,0,0,0,.565.142,1.646,1.646,0,0,0,.313-.029c.1-.019.191-.039.273-.06s.152-.042.206-.061l.1-.035.2.6-.092.035q-.092.036-.259.082t-.4.085a3.07,3.07,0,0,1-.508.039,1.713,1.713,0,0,1-1.432-.608,2.828,2.828,0,0,1-.48-1.78,3.873,3.873,0,0,1,.128-1.027,2.264,2.264,0,0,1,.387-.8,1.762,1.762,0,0,1,.654-.519,2.17,2.17,0,0,1,.927-.185,1.4,1.4,0,0,1,.7.156,1.669,1.669,0,0,1,.444.355Z" transform="translate(-2609.425 -2280.907)" fill="#f7e8e4"/>
        <path id="Trazado_735279" data-name="Trazado 735279" d="M2877.825,2472.738l-.106.64h-1.194v4.171h-.838v-4.171h-1.215v-.64Z" transform="translate(-2652.363 -2281.671)" fill="#f7e8e4"/>
        <rect id="Rectángulo_352879" data-name="Rectángulo 352879" width="0.846" height="4.811" transform="translate(226.038 191.066)" fill="#f7e8e4"/>
        <path id="Trazado_735280" data-name="Trazado 735280" d="M2949.861,2472.081a1.629,1.629,0,0,1,.622.483,2.028,2.028,0,0,1,.359.764,4.154,4.154,0,0,1,.114,1.012,3.868,3.868,0,0,1-.124,1.013,2.156,2.156,0,0,1-.384.785,1.763,1.763,0,0,1-.654.508,2.226,2.226,0,0,1-.935.181,2.348,2.348,0,0,1-.913-.16,1.55,1.55,0,0,1-.625-.469,1.982,1.982,0,0,1-.359-.75,4.058,4.058,0,0,1-.114-1.009,3.96,3.96,0,0,1,.124-1.02,2.261,2.261,0,0,1,.384-.8,1.743,1.743,0,0,1,.657-.522,2.492,2.492,0,0,1,1.847-.014m-1.528.622a1.027,1.027,0,0,0-.334.38,1.852,1.852,0,0,0-.181.569,4.467,4.467,0,0,0-.053.71,4.584,4.584,0,0,0,.05.69,1.8,1.8,0,0,0,.181.575,1.049,1.049,0,0,0,.362.4,1.092,1.092,0,0,0,.6.149.936.936,0,0,0,.516-.135,1,1,0,0,0,.337-.37,1.752,1.752,0,0,0,.181-.558,4.3,4.3,0,0,0,.053-.7,4.72,4.72,0,0,0-.05-.7,1.9,1.9,0,0,0-.181-.59.994.994,0,0,0-.963-.561.911.911,0,0,0-.519.138" transform="translate(-2719.147 -2280.908)" fill="#f7e8e4"/>
        <path id="Trazado_735281" data-name="Trazado 735281" d="M3010.5,2472.738v2.978a1.311,1.311,0,0,0,.277.941,1.01,1.01,0,0,0,.753.281.818.818,0,0,0,.714-.324,1.524,1.524,0,0,0,.231-.9v-2.978h.846v3.042a2.468,2.468,0,0,1-.1.7,1.489,1.489,0,0,1-.316.576,1.518,1.518,0,0,1-.583.395,2.391,2.391,0,0,1-.888.146,2.136,2.136,0,0,1-.842-.146,1.456,1.456,0,0,1-.547-.395,1.493,1.493,0,0,1-.3-.576,2.65,2.65,0,0,1-.089-.7v-3.042Z" transform="translate(-2777.11 -2281.672)" fill="#f7e8e4"/>
        <path id="Trazado_735282" data-name="Trazado 735282" d="M3066.974,2471.909a2.385,2.385,0,0,1,.476.046,3.837,3.837,0,0,1,.416.107,2.5,2.5,0,0,1,.32.124,1.482,1.482,0,0,1,.181.1l-.348.611-.092-.05q-.092-.05-.242-.114a2.584,2.584,0,0,0-.327-.114,1.253,1.253,0,0,0-.341-.05.8.8,0,0,0-.444.121.416.416,0,0,0-.188.377.7.7,0,0,0,.207.522,1.912,1.912,0,0,0,.646.373,4.527,4.527,0,0,1,.508.238,1.587,1.587,0,0,1,.38.288,1.119,1.119,0,0,1,.238.376,1.528,1.528,0,0,1-.021,1.045,1.349,1.349,0,0,1-.305.465,1.528,1.528,0,0,1-.5.327,1.783,1.783,0,0,1-.689.124,2.353,2.353,0,0,1-.525-.057,3.713,3.713,0,0,1-.452-.132,2.807,2.807,0,0,1-.348-.153c-.1-.052-.169-.093-.217-.121l.3-.654.127.071c.085.047.189.1.313.156a4.186,4.186,0,0,0,.391.156,1.115,1.115,0,0,0,.355.071.763.763,0,0,0,.562-.185.806.806,0,0,0,.135-.792.586.586,0,0,0-.142-.2,1.01,1.01,0,0,0-.224-.153c-.088-.045-.186-.089-.295-.131q-.32-.135-.572-.27a1.86,1.86,0,0,1-.431-.309,1.186,1.186,0,0,1-.27-.4,1.4,1.4,0,0,1-.092-.536,1.105,1.105,0,0,1,.113-.494,1.288,1.288,0,0,1,.313-.405,1.506,1.506,0,0,1,.476-.277,1.744,1.744,0,0,1,.611-.1" transform="translate(-2828.45 -2280.907)" fill="#f7e8e4"/>
        <path id="Trazado_735283" data-name="Trazado 735283" d="M2747.13,2584.991a4.693,4.693,0,0,1-.17-.569c-.024.09-.047.18-.068.27s-.049.19-.082.3l-.924,2.92h-.625l-1.336-4.811h.845l.625,2.409q.164.625.235,1.009.05-.2.117-.441t.167-.554l.753-2.423h.632l.753,2.423q.1.32.17.583t.114.462q.028-.2.082-.462t.139-.583l.625-2.423h.86l-1.336,4.811h-.625Z" transform="translate(-2531.904 -2383.507)" fill="#f7e8e4"/>
        <path id="Trazado_735284" data-name="Trazado 735284" d="M2820.633,2583.1h.668l1.855,4.811h-.9l-.441-1.258h-1.734l-.455,1.258h-.839Zm.96,2.928q-.227-.64-.391-1.162t-.249-.821q-.1.32-.263.839t-.384,1.144Z" transform="translate(-2600.98 -2383.508)" fill="#f7e8e4"/>
        <path id="Trazado_735285" data-name="Trazado 735285" d="M2879.316,2582.273a2.392,2.392,0,0,1,.476.046,3.857,3.857,0,0,1,.416.107,2.466,2.466,0,0,1,.32.124,1.452,1.452,0,0,1,.181.1l-.348.611-.092-.05q-.092-.05-.241-.114a2.594,2.594,0,0,0-.327-.114,1.263,1.263,0,0,0-.341-.05.8.8,0,0,0-.444.121.415.415,0,0,0-.188.377.7.7,0,0,0,.206.522,1.91,1.91,0,0,0,.647.373,4.416,4.416,0,0,1,.508.238,1.584,1.584,0,0,1,.38.288,1.115,1.115,0,0,1,.238.377,1.431,1.431,0,0,1,.082.512,1.447,1.447,0,0,1-.1.533,1.344,1.344,0,0,1-.305.466,1.533,1.533,0,0,1-.5.327,1.783,1.783,0,0,1-.689.125,2.372,2.372,0,0,1-.526-.057,3.7,3.7,0,0,1-.451-.132,2.739,2.739,0,0,1-.348-.153c-.1-.052-.169-.093-.217-.121l.3-.654.128.071q.128.071.313.156a4.125,4.125,0,0,0,.391.156,1.113,1.113,0,0,0,.355.071.764.764,0,0,0,.561-.185.806.806,0,0,0,.135-.792.586.586,0,0,0-.142-.2,1.016,1.016,0,0,0-.224-.153q-.132-.067-.3-.131-.32-.135-.572-.27a1.866,1.866,0,0,1-.43-.309,1.187,1.187,0,0,1-.27-.4,1.406,1.406,0,0,1-.092-.537,1.107,1.107,0,0,1,.113-.494,1.292,1.292,0,0,1,.313-.4,1.514,1.514,0,0,1,.476-.277,1.743,1.743,0,0,1,.611-.1" transform="translate(-2655.293 -2382.743)" fill="#f7e8e4"/>
        <path id="Trazado_735286" data-name="Trazado 735286" d="M2925.788,2583.1l-.107.64h-1.194v4.171h-.838v-4.171h-1.216v-.64Z" transform="translate(-2696.62 -2383.508)" fill="#f7e8e4"/>
        <path id="Trazado_735287" data-name="Trazado 735287" d="M2973.292,2583.1h2.857v.64h-2.011v1.343h1.656l-.106.647h-1.549v1.542h2.117v.64h-2.963Z" transform="translate(-2743.548 -2383.508)" fill="#f7e8e4"/>
        <path id="Trazado_735288" data-name="Trazado 735288" d="M2036.038,1618.325h-1.868l-3.474-12.72h4.868Z" transform="translate(-1873.786 -1481.542)" fill="#99601d"/>
        <path id="Trazado_735289" data-name="Trazado 735289" d="M3633.162,1618.325h1.868l3.474-12.72h-4.868Z" transform="translate(-3352.431 -1481.542)" fill="#99601d"/>
        <path id="Trazado_735290" data-name="Trazado 735290" d="M2129.9,1522.593H1996.2a.983.983,0,0,0-.983.983v6.375h23.512v11.777h2.29v-11.777h40.892v11.777h2.29v-11.777h40.895v11.777h2.29v-11.777h23.494v-6.375a.983.983,0,0,0-.983-.983" transform="translate(-1841.047 -1404.944)" fill="#ffa031"/>
        <path id="Trazado_735291" data-name="Trazado 735291" d="M3325.676,263.241c-4.215.225.565-.057-2.177.117-4.161.264-12.479.88-16.627,1.3-6.708.677-14.943,1.077-15.2,1.081-5.866.077-9.225.367-12.3.579-2.037.14-8.154.488-8.154.488s-8.146.9-8.494,8.967c-.318,7.379,6.908,10.15,6.908,10.15s9.143,2.116,12.233,2.586c3.046.463,9.209.811,12.272,1.151,2.881.32,8.621,1.142,11.5,1.473,2.813.323,8.441,1,11.268,1.145,3.276.166,8.778.074,8.778.074Z" transform="translate(-3010.607 -242.901)" fill="#e8e8e8"/>
        <path id="Trazado_735292" data-name="Trazado 735292" d="M3442.426,505.447l1.012-3.069a85.473,85.473,0,0,0,10.62.474,23.26,23.26,0,0,0,8.432-2.682,4.637,4.637,0,0,1-1.877,2.4,11.745,11.745,0,0,1-4.683,2.166,56.607,56.607,0,0,0,8.489-.645,61.761,61.761,0,0,0,11.135-3.917,43.992,43.992,0,0,1-6.891,6.309c8.338-.308,13.958-3.9,21.077-6.907,1.366-.578-5.583,10.828-11.925,10.326-.738-.058-5.4-.627-5.4-.627s-8.439-1.039-9.907-1.21c-1.607-.186-5.134-.578-6.848-.735-1.976-.182-5.938-.471-7.9-.759-2.563-.377-5.335-1.12-5.335-1.12" transform="translate(-3176.433 -460.951)" fill="#e0e0e0"/>
        <path id="Trazado_735293" data-name="Trazado 735293" d="M2798.517,200.928a4.408,4.408,0,0,1-1.443-.071,7.726,7.726,0,0,1-1.781-1.187c-.233-.187-.83-.7-1.009-.844a1.135,1.135,0,0,1-.33-.532,1.694,1.694,0,0,1,.98-.5c.3-.009.677.286.892.069a1.328,1.328,0,0,1,.575-.426c.124-.057.732.172.873-.043s.521-.919.814-.728c.464.3,1.005.557,1.175.48,1.039-.474,1.072.009,1.366-.2.6-.42,1.073-.253,1.285.3.092.241.33.207.414.219.181.027.555.159.617.308.074.178-.126.592.095.647.983.246.992-.254,1.443.232.184.2-.272.383-.706.691a7.891,7.891,0,0,1-1.734,1.171,9.829,9.829,0,0,1-1.274-.041c-.512.046-1.739.4-2.251.449" transform="translate(-2578.068 -181.441)" fill="#99601d"/>
        <path id="Trazado_735294" data-name="Trazado 735294" d="M2802.7,221.388a1.4,1.4,0,0,1,1.807.2s2.972,3.543,2.008,14.34a23.756,23.756,0,0,1-1.543,7.484c-.695,1.833-1.05,1.829-1.544,1.83a2.239,2.239,0,0,1-1.114-.406,57.727,57.727,0,0,0-7.711-2.445c-2.393-.623-10.714-2.31-14.046-2.871-2.316-.39-4.372-.686-5.883-.909-1.3-.193-5.1-.685-5.421-.365a36.5,36.5,0,0,1-4.754,1.786c-.288.092-2.287.632-3.484-.012-.595-.32-1.636-.788-1.829-1.45-.3-1.017-.236-1.578-.051-1.853.248-.368-.413-.084-1.247-.29a1.984,1.984,0,0,1-1.479-1.3c-.684-1.556.482-2.181.222-2.477a2.738,2.738,0,0,1-2.708-2.064,2.836,2.836,0,0,1,.091-2.11,3.034,3.034,0,0,1,.824-.934c.32-.491-.823-.469-1.547-1.729a2.752,2.752,0,0,1-.229-2.483c1.093-3.166,5.6-.744,5.6-.744.073-1.144-4.63-.824-6.9-1.852a2.848,2.848,0,0,1-1.854-3.047c.144-.91,1-.793,1.275-.764a20.621,20.621,0,0,0,6.271.185,14.012,14.012,0,0,0,4.544-1.052,9.416,9.416,0,0,1,4.664-.346c1.036.142,3.759,1.3,6.337,4.2a7.113,7.113,0,0,0,2.252,1.394,34.214,34.214,0,0,0,8.065.962c1.96.033,11.78-.2,13.653-.3s4.53.041,5.729-.58" transform="translate(-2537.393 -198.915)" fill="#129e97"/>
        <path id="Trazado_735295" data-name="Trazado 735295" d="M2661.376,294.32l1.972,3.539,2.874,3.839s2.461,1.335,2.939,3.377c0,0,.831,1.36,1.267,1.328,2.4-.175,2.93,1.632,16.283,7.679,5.165,2.339,10.324,7.126,11.227,7.728,2.067,1.378,9.145,8.854,9.145,8.854a35.091,35.091,0,0,1,3.046,10.37c.431,3.613-.425,10.329-2.532,16.636-.236.705,2.55,1.584,2.55,1.584-1.187,2.758-7.083,3.251-9.984,4.761-6.394,3.329-7.52,5.731-16.032,7.546-4.029.859-10.838,1-15.834,1.665-4.331.578-15.687.979-16.188.192-.3-.475,1.343-1.809,1.343-1.809-1.33-1.379-5.424-4.156-6.92-7.565-.473-1.078-1.893-2.108-2.8-5.333-1.762-6.267.774-11.571,1.186-14.682.822-6.215.558-11.237,7.1-21.8a67.046,67.046,0,0,1,11.875-12.66c.976-.779-.425-3.08-.425-3.08a44.512,44.512,0,0,1-3.585-3.282,33.006,33.006,0,0,1-2.785-4.727c-.648-1.309-.12-5.132.083-5.329a9.271,9.271,0,0,1,2.379.291,3.785,3.785,0,0,1,1.816.874" transform="translate(-2438.884 -270.502)" fill="#ffa031"/>
        <path id="Trazado_735298" data-name="Trazado 735298" d="M2950.755,981.671a6.153,6.153,0,0,0,5.3,5.009,4.067,4.067,0,0,0,.149-1.772,4.372,4.372,0,0,1-3.672-3.485,4.065,4.065,0,0,0-1.78.248" transform="translate(-2722.753 -905.576)" fill="#383333"/>
        <path id="Trazado_735299" data-name="Trazado 735299" d="M2966.946,894.1a4.38,4.38,0,0,1,4.61-1.463,4.066,4.066,0,0,0,.7-1.654,6.158,6.158,0,0,0-6.845,2.16,4.068,4.068,0,0,0,1.534.957" transform="translate(-2736.277 -821.853)" fill="#383333"/>
        <path id="Trazado_735300" data-name="Trazado 735300" d="M3068.347,942.41a4.072,4.072,0,0,0,1.146,1.347,6.165,6.165,0,0,0,1.7-6.419,6.242,6.242,0,0,0-.292-.738,4.065,4.065,0,0,0-1.577.817,4.456,4.456,0,0,1,.183.474,4.38,4.38,0,0,1-1.163,4.519" transform="translate(-2831.258 -864.23)" fill="#383333"/>
        <path id="Trazado_735301" data-name="Trazado 735301" d="M2901.292,836.642a4.707,4.707,0,0,1,4.314.757l.64-.7a1.416,1.416,0,0,1-.111-.256,1.391,1.391,0,0,1,.627-1.626l-.331-1.034-.054.017a4.713,4.713,0,0,1-3.153-8.831l-.06-.188a6.641,6.641,0,0,0-2.956,9.591,6.644,6.644,0,0,0-1.365,9.833l.064-.065.1-.106a4.716,4.716,0,0,1,2.281-7.388" transform="translate(-2673.387 -761.048)" fill="#383333"/>
        <path id="Trazado_735302" data-name="Trazado 735302" d="M2998.772,823.7a6.642,6.642,0,0,0-7.99-6.1l.063.2,0,.006a4.714,4.714,0,0,1,2.545,9l.34,1.064a1.389,1.389,0,0,1,1.408,1.232l.925.2a4.714,4.714,0,0,1,9.208,1.557l.2.036.088.015a6.643,6.643,0,0,0-6.788-7.213" transform="translate(-2759.687 -754.289)" fill="#383333"/>
        <path id="Trazado_735303" data-name="Trazado 735303" d="M2949.736,979.54h0l-.029-.005a4.714,4.714,0,0,1-9.126-2.215l.006-.026-.864-.188a1.389,1.389,0,0,1-2.013.65l-.6.666a4.713,4.713,0,0,1-6.11,7.122l-.145.147-.02.021a26.886,26.886,0,0,1,14.817-1.736,6.632,6.632,0,0,0,4.328-4.391l-.074-.014Z" transform="translate(-2704.367 -901.605)" fill="#383333"/>
        <path id="Trazado_735304" data-name="Trazado 735304" d="M2800.781,303.85a2.665,2.665,0,0,0-1.881-1.312c-.69-.2-1.587-.346-2.8-.756a4.229,4.229,0,0,0-2.491-.392,2.261,2.261,0,0,0-1.229,2.234,1.97,1.97,0,0,0,1.417,1.808,11.576,11.576,0,0,0,3.262.4,13.735,13.735,0,0,0,3.882-.363c.4-.157.113-1.126-.157-1.614" transform="translate(-2576.603 -278.032)" fill="#1db2a7"/>
        <path id="Trazado_735305" data-name="Trazado 735305" d="M2811.527,362.916a15.767,15.767,0,0,0-2.366-.166,9.485,9.485,0,0,0-2.355.224c-.6.116-2.447.761-2.3,2.644a2.121,2.121,0,0,0,1.891,2.007,6.621,6.621,0,0,0,2.238-.511,12.29,12.29,0,0,1,2.421-.521c.788-.1,1.521-.049,1.909-.107,1.186-.178,1.634-1.8,1-2.334a3.724,3.724,0,0,0-2.438-1.235" transform="translate(-2587.8 -334.714)" fill="#1db2a7"/>
        <path id="Trazado_735306" data-name="Trazado 735306" d="M2804.178,226.55c1.168-.605,1.86,1.445,1.86,1.445s1.532,2.124,1.694,9.918c.1,4.764-1.368,9.985-2.7,11.269a58.3,58.3,0,0,0,1.389-7.03,25.556,25.556,0,0,0-.27-7.952c-1.291,8.229-3.9,8.925-5.133,9.889-2.47,1.93-8.676,1.352-8.676,1.352a16.028,16.028,0,0,0,4.713-4.37,23.072,23.072,0,0,1-10.7,3.183,7.535,7.535,0,0,0,3.357-4.372,12.064,12.064,0,0,1-10.883,3.4c3.385-1.435,3.512-3.743,3.512-3.743-5.4,3.143-7.2,2.464-7.2,2.464a20.329,20.329,0,0,0-.051-13.1,21.455,21.455,0,0,1-.212,6.773c-1.087,4.37-2.837,4.8-2.837,4.8-2.725-2.447-7.371-6.633-5.345-12.9,0,0-1.292.9-1.368,4.536,0,0-.573-5.648-3.1-5.648-1.781,0-9.987,0-10.733-3.545-.19-.9.905-.91,1.218-.811a21.928,21.928,0,0,0,8.687,1.339,19.6,19.6,0,0,0,5.094-1.106c1.37-.591,2.614-1.168,2.614-1.168a13.89,13.89,0,0,1,5.37,3.907,11.062,11.062,0,0,1,3.253,6.356,7.571,7.571,0,0,0-.836-4.831,15.191,15.191,0,0,1,7.512,4.136c.275.268-.289-1.93-1.259-3.365,0,0,6.43.471,9.595,3.694a6.074,6.074,0,0,0-1.442-3.727,32.233,32.233,0,0,1,11.727,4.924s-.907-3.647-6.117-5.071c0,0,3.015-.1,3.8-.117a9.227,9.227,0,0,0,3.464-.521" transform="translate(-2538.87 -204.077)" fill="#1db2a7"/>
        <g id="Grupo_1033730" data-name="Grupo 1033730" transform="translate(214.451 40.686)" opacity="0.4">
          <g id="Grupo_1033729" data-name="Grupo 1033729">
            <g id="Grupo_1033728" data-name="Grupo 1033728" clip-path="url(#clip-path-11)">
              <path id="Trazado_735307" data-name="Trazado 735307" d="M2776.272,537.02l3.775-3.023,3.383-4.123,2.321-1.564,2.6-1.758-4.646.511-1.7,1.112-3.708,3.954-2.923,4.275Z" transform="translate(-2775.376 -526.552)" fill="#ea3b24"/>
            </g>
          </g>
        </g>
        <path id="Trazado_735308" data-name="Trazado 735308" d="M2904.093,450.977s-.192.03-.354-.4a.715.715,0,0,1-.1-.52,1.364,1.364,0,0,0,.051-.624c-.082-.3-.26-.372-.286-.55a.909.909,0,0,1,.719-1.2c.655-.223,1.422-.491,1.822-.576.436-.092,1.171-.232,1.807-.332a10.577,10.577,0,0,1,1.116-.139,3.04,3.04,0,0,1,1.194.06.793.793,0,0,1,.669.533,3.3,3.3,0,0,1,.454.334,3.762,3.762,0,0,1,.3.543,7.668,7.668,0,0,0-1.161.066c-.241.036-1.256.384-1.5.419-.4.058-1.563.266-1.962.337a5.039,5.039,0,0,0-1.646.825c-1.044.572-1.125,1.219-1.125,1.219" transform="translate(-2679.037 -412.103)" fill="#2c2f30"/>
        <path id="Trazado_735309" data-name="Trazado 735309" d="M2907.293,454.25h-1a16.386,16.386,0,0,1,2.656-.977c.751-.216,1.169-.276,2.012-.446a15.057,15.057,0,0,1,2.309-.178l-1.259.416,1.685.129c-.237.056-1.4.119-2.478.357a29.382,29.382,0,0,0-2.894.823,10.922,10.922,0,0,0-2.006.855Z" transform="translate(-2681.725 -417.67)" fill="#3b3d3d"/>
        <path id="Trazado_735310" data-name="Trazado 735310" d="M2877.268,462.613a7.434,7.434,0,0,0-1.5.275,5.582,5.582,0,0,0-1.117.394c-.4.175-1.151.465-1.406,1.075a1.687,1.687,0,0,0,.3,1.907,2,2,0,0,0,1.286.549,3.058,3.058,0,0,0,1.912-.7,7.175,7.175,0,0,1,1.715-.647c.941-.222,2.149-.761,2.061-1.559-.119-1.076-2.02-1.306-3.246-1.3" transform="translate(-2651.073 -426.867)" fill="#1db2a7"/>
        <path id="Trazado_735311" data-name="Trazado 735311" d="M2844.366,418.04a8.8,8.8,0,0,0-1.929.126,17.045,17.045,0,0,0-1.717.385,6.5,6.5,0,0,0-1.366.525,1.7,1.7,0,0,0-.862,1.735,1.856,1.856,0,0,0,.52,1.241,2.123,2.123,0,0,0,1.207.652,3.524,3.524,0,0,0,1.6-.352c.6-.26,1.051-.467,1.582-.66a4.048,4.048,0,0,1,1.531-.379,7.781,7.781,0,0,0,1.45-.182,1.533,1.533,0,0,0,.891-2.2c-.209-.376-1.664-.83-2.907-.894" transform="translate(-2619.147 -385.729)" fill="#1db2a7"/>
      </g>
    </g>
  </g>
</svg>
