<svg xmlns="http://www.w3.org/2000/svg" xmlns:xlink="http://www.w3.org/1999/xlink" width="90" height="88" viewBox="0 0 90 88">
  <defs>
    <clipPath id="clip-path">
      <path id="Trazado_731694" data-name="Trazado 731694" d="M44,0A44,44,0,1,1,0,44,44,44,0,0,1,44,0Z" transform="translate(221 7506)" fill="#d2e1f1"/>
    </clipPath>
  </defs>
  <g id="Grupo_1036335" data-name="Grupo 1036335" transform="translate(-221 -7824)">
    <g id="Grupo_1036235" data-name="Grupo 1036235" transform="translate(0 -152)">
      <g id="Grupo_1029729" data-name="Grupo 1029729" transform="translate(0 7564)">
        <g id="Grupo_1013412" data-name="Grupo 1013412" transform="translate(-3 3)">
          <path id="Trazado_710239" data-name="Trazado 710239" d="M44,0A44,44,0,1,1,0,44,44,44,0,0,1,44,0Z" transform="translate(224 409)" fill="#d2e1f1"/>
        </g>
      </g>
      <g id="Enmascarar_grupo_1026471" data-name="Enmascarar grupo 1026471" transform="translate(2 470)" clip-path="url(#clip-path)">
        <g id="etiqueta" transform="translate(221 7506)">
          <g id="Grupo_1031739" data-name="Grupo 1031739" transform="translate(10.834 10.834)">
            <g id="Grupo_1031730" data-name="Grupo 1031730" transform="translate(14.372)">
              <path id="Trazado_731695" data-name="Trazado 731695" d="M34.243,1.419A3.312,3.312,0,0,1,37.56,4.736a1.109,1.109,0,0,1-1.106,1.106H20.977a1.109,1.109,0,0,1-1.106-1.106,3.322,3.322,0,0,1,3.317-3.317Z" transform="translate(-19.871 -1.419)" fill="#065958"/>
            </g>
            <g id="Grupo_1031731" data-name="Grupo 1031731" transform="translate(16.583 4.422)">
              <path id="Trazado_731696" data-name="Trazado 731696" d="M22.71,7.1H35.976v4.422H22.71Z" transform="translate(-22.71 -7.097)" fill="#b4dd7f"/>
            </g>
            <g id="Grupo_1031732" data-name="Grupo 1031732" transform="translate(8.844 8.844)">
              <path id="Trazado_731697" data-name="Trazado 731697" d="M41.518,19.407H12.774l7.739-6.633H33.78Z" transform="translate(-12.774 -12.774)" fill="#f3f9ff"/>
            </g>
            <g id="Grupo_1031733" data-name="Grupo 1031733" transform="translate(8.844 53.066)">
              <path id="Trazado_731698" data-name="Trazado 731698" d="M41.518,69.548v8.844A4.421,4.421,0,0,1,37.1,82.815H17.2a4.421,4.421,0,0,1-4.422-4.422V69.548Z" transform="translate(-12.774 -69.548)" fill="#f3f9ff"/>
            </g>
            <g id="Grupo_1031734" data-name="Grupo 1031734" transform="translate(8.844 15.478)">
              <path id="Trazado_731699" data-name="Trazado 731699" d="M12.774,21.29H41.518V36.768H12.774Z" transform="translate(-12.774 -21.29)" fill="#f3f9ff"/>
            </g>
            <g id="Grupo_1031735" data-name="Grupo 1031735" transform="translate(42.011 17.689)">
              <path id="Trazado_731700" data-name="Trazado 731700" d="M75.255,24.129,79.677,46.24H64.2V34.079a3.312,3.312,0,0,0-3.317-3.317H58.671a3.317,3.317,0,1,1,0-6.633Z" transform="translate(-55.355 -24.129)" fill="#e6e9ed"/>
            </g>
            <g id="Grupo_1031736" data-name="Grupo 1031736" transform="translate(42.011 21.005)">
              <path id="Trazado_731701" data-name="Trazado 731701" d="M56.328,30.731a3.309,3.309,0,0,0,2.344.973h2.211a3.317,3.317,0,0,1,0,6.633H55.355v-9.95a3.309,3.309,0,0,0,.973,2.344Z" transform="translate(-55.355 -28.387)" fill="#ffeaa7"/>
            </g>
            <g id="Grupo_1031737" data-name="Grupo 1031737" transform="translate(0 27.639)">
              <path id="Trazado_731702" data-name="Trazado 731702" d="M52.275,49.064v9.95a3.312,3.312,0,0,1-3.317,3.317H1.419L5.842,40.22H48.958A3.322,3.322,0,0,0,52.275,36.9Z" transform="translate(-1.419 -36.903)" fill="#f8dbb7"/>
            </g>
            <g id="Grupo_1031738" data-name="Grupo 1031738" transform="translate(8.844 35.378)">
              <path id="Trazado_731703" data-name="Trazado 731703" d="M12.774,46.839h19.9V60.105h-19.9Z" transform="translate(-12.774 -46.839)" fill="#ffa031"/>
            </g>
          </g>
          <g id="Grupo_1031740" data-name="Grupo 1031740" transform="translate(9.729 9.728)">
            <path id="Trazado_731704" data-name="Trazado 731704" d="M64.1,18.578a1.1,1.1,0,0,0-1.083-.889H46.433a4.427,4.427,0,0,0-4.422,4.422v8.844H39.8V16.075L32.061,9.441V6.633a2.213,2.213,0,0,0,2.211-2.211A4.427,4.427,0,0,0,29.85,0H18.795a4.427,4.427,0,0,0-4.422,4.422,2.213,2.213,0,0,0,2.211,2.211V9.441L8.845,16.075V30.955H5.528a1.1,1.1,0,0,0-1.083.889L.022,53.955a1.105,1.105,0,0,0,1.083,1.322H8.845v7.739a5.534,5.534,0,0,0,5.528,5.528h19.9A5.534,5.534,0,0,0,39.8,63.016V55.277h8.844a4.427,4.427,0,0,0,4.422-4.422V42.011H67.439a1.105,1.105,0,0,0,1.083-1.322ZM30.546,11.055l5.16,4.422H12.938l5.16-4.422ZM25.428,6.633V8.844H23.217V6.633ZM29.85,8.844H27.639V6.633H29.85ZM18.795,2.211H29.85a2.215,2.215,0,0,1,2.212,2.211H16.583A2.213,2.213,0,0,1,18.795,2.211Zm2.211,4.422V8.844H18.795V6.633Zm-9.95,11.055H37.589V30.955H11.056ZM37.589,63.016a3.321,3.321,0,0,1-3.317,3.317h-19.9a3.321,3.321,0,0,1-3.317-3.317V55.277H37.589ZM50.855,50.855a2.213,2.213,0,0,1-2.211,2.211H2.454l3.98-19.9h42.21a4.389,4.389,0,0,0,2.211-.594Zm-2.211-19.9H44.222V25.918a4.374,4.374,0,0,0,2.211.615h2.211a2.211,2.211,0,1,1,0,4.422ZM53.067,39.8V28.744a4.427,4.427,0,0,0-4.422-4.422H46.433a2.211,2.211,0,1,1,0-4.422H62.11l3.98,19.9Z" transform="translate(-0.001)"/>
            <path id="Trazado_731705" data-name="Trazado 731705" d="M11.355,60.9H33.466V45.419H11.355ZM13.566,47.63H31.255V58.686H13.566Z" transform="translate(-2.511 -10.042)"/>
            <path id="Trazado_731706" data-name="Trazado 731706" d="M42.581,45.419h2.211V47.63H42.581Z" transform="translate(-9.415 -10.042)"/>
            <path id="Trazado_731707" data-name="Trazado 731707" d="M48.258,45.419H59.314V47.63H48.258Z" transform="translate(-10.67 -10.042)"/>
            <path id="Trazado_731708" data-name="Trazado 731708" d="M42.581,51.1H58.058v2.211H42.581Z" transform="translate(-9.415 -11.297)"/>
            <path id="Trazado_731709" data-name="Trazado 731709" d="M42.581,56.774H58.058v2.211H42.581Z" transform="translate(-9.415 -12.552)"/>
            <path id="Trazado_731710" data-name="Trazado 731710" d="M42.581,62.452H47v2.211H42.581Z" transform="translate(-9.415 -13.808)"/>
            <path id="Trazado_731711" data-name="Trazado 731711" d="M51.1,62.452h8.844v2.211H51.1Z" transform="translate(-11.298 -13.808)"/>
            <path id="Trazado_731712" data-name="Trazado 731712" d="M70.968,45.419H77.6V47.63H70.968Z" transform="translate(-15.691 -10.042)"/>
            <path id="Trazado_731713" data-name="Trazado 731713" d="M70.968,39.742H77.6v2.211H70.968Z" transform="translate(-15.691 -8.787)"/>
            <path id="Trazado_731714" data-name="Trazado 731714" d="M70.968,34.065H76.5v2.211H70.968Z" transform="translate(-15.691 -7.531)"/>
            <path id="Trazado_731715" data-name="Trazado 731715" d="M70.968,28.387H76.5V30.6H70.968Z" transform="translate(-15.691 -6.276)"/>
          </g>
        </g>
      </g>
    </g>
  </g>
</svg>
