<svg xmlns="http://www.w3.org/2000/svg" xmlns:xlink="http://www.w3.org/1999/xlink" width="290.6" height="439.596" viewBox="0 0 290.6 439.596">
  <defs>
    <clipPath id="clip-path">
      <rect id="Rectángulo_351558" data-name="Rectángulo 351558" width="290.6" height="318.036" fill="none"/>
    </clipPath>
    <clipPath id="clip-path-2">
      <rect id="Rectángulo_351547" data-name="Rectángulo 351547" width="27.577" height="34.045" fill="none"/>
    </clipPath>
    <clipPath id="clip-path-3">
      <rect id="Rectángulo_351548" data-name="Rectángulo 351548" width="18.497" height="20.488" fill="none"/>
    </clipPath>
    <clipPath id="clip-path-4">
      <rect id="Rectángulo_351549" data-name="Rectángulo 351549" width="8.038" height="9.729" fill="none"/>
    </clipPath>
    <clipPath id="clip-path-5">
      <rect id="Rectángulo_351550" data-name="Rectángulo 351550" width="9.268" height="9.587" fill="none"/>
    </clipPath>
    <clipPath id="clip-path-6">
      <rect id="Rectángulo_351551" data-name="Rectángulo 351551" width="49.649" height="72.113" fill="none"/>
    </clipPath>
    <clipPath id="clip-path-7">
      <rect id="Rectángulo_351552" data-name="Rectángulo 351552" width="5.423" height="19.492" fill="none"/>
    </clipPath>
    <clipPath id="clip-path-8">
      <rect id="Rectángulo_351553" data-name="Rectángulo 351553" width="6.876" height="8.848" fill="none"/>
    </clipPath>
    <clipPath id="clip-path-9">
      <rect id="Rectángulo_351554" data-name="Rectángulo 351554" width="10.09" height="10.645" fill="none"/>
    </clipPath>
    <clipPath id="clip-path-10">
      <rect id="Rectángulo_351555" data-name="Rectángulo 351555" width="8.401" height="50.538" fill="none"/>
    </clipPath>
    <clipPath id="clip-path-11">
      <rect id="Rectángulo_351556" data-name="Rectángulo 351556" width="51.191" height="40.278" fill="#115089"/>
    </clipPath>
    <clipPath id="clip-path-12">
      <rect id="Rectángulo_351557" data-name="Rectángulo 351557" width="24.329" height="35.326" fill="none"/>
    </clipPath>
    <clipPath id="clip-path-13">
      <rect id="Rectángulo_351559" data-name="Rectángulo 351559" width="187" height="245.189" fill="none"/>
    </clipPath>
    <clipPath id="clip-path-14">
      <rect id="Rectángulo_351562" data-name="Rectángulo 351562" width="170.035" height="228.698" fill="none"/>
    </clipPath>
  </defs>
  <g id="Grupo_1036233" data-name="Grupo 1036233" transform="translate(-915 -7309.465)">
    <path id="Trazado_731615" data-name="Trazado 731615" d="M226.3,309.626l-8.019-.126-.033-18.631,8.019.126Z" transform="translate(915.135 7431.205)" fill="#ffb573"/>
    <path id="Trazado_731616" data-name="Trazado 731616" d="M267.024,309.655h-8.032l-2.384-18.6h8.032Z" transform="translate(915.159 7431.205)" fill="#ffb573"/>
    <g id="Grupo_1031719" data-name="Grupo 1031719" transform="translate(915 7431.025)">
      <g id="Grupo_1031718" data-name="Grupo 1031718" clip-path="url(#clip-path)">
        <path id="Trazado_731617" data-name="Trazado 731617" d="M258.155,308.714h9.792a.664.664,0,0,1,.66.548l1.286,7.139a1.238,1.238,0,0,1-1.237,1.428c-3.148-.054-5.438-.238-9.407-.238-2.442,0-9.814.253-13.185.253-3.3,0-3.671-3.333-2.278-3.635,6.246-1.354,10.988-3.221,13.044-5a2.033,2.033,0,0,1,1.325-.493" transform="translate(0.151 0.191)" fill="#263238"/>
        <path id="Trazado_731618" data-name="Trazado 731618" d="M217.9,308.56l8.762.137a.656.656,0,0,1,.645.559l1.1,7.163a1.24,1.24,0,0,1-1.253,1.41c-3.157-.1-7.712-.36-11.685-.422-4.646-.073-5.158.118-10.607.032-3.294-.051-3.979-3.4-2.58-3.679,6.371-1.276,7.99-1.343,13.644-4.6a3.884,3.884,0,0,1,1.976-.6" transform="translate(0.125 0.191)" fill="#263238"/>
        <path id="Trazado_731619" data-name="Trazado 731619" d="M221.477,70.73a178.634,178.634,0,0,1-7.353,16.965c-1.372,2.763-2.815,5.51-4.391,8.216a89.279,89.279,0,0,1-5.146,8.034l-1.516,2.03a11,11,0,0,1-3.411,2.9,10,10,0,0,1-4.476,1.181,12.227,12.227,0,0,1-3.8-.5,19.349,19.349,0,0,1-5.366-2.593,37.461,37.461,0,0,1-4.045-3.18,71.744,71.744,0,0,1-12-14.665l4.756-3.708c2.051,1.975,4.218,4.02,6.4,5.887a72.51,72.51,0,0,0,6.637,5.2,27.429,27.429,0,0,0,3.313,1.986,10.324,10.324,0,0,0,2.836,1.025,1.157,1.157,0,0,0,.654-.024c.067-.05-.07-.063-.188-.033s-.152.055-.086-.08l1.053-1.662A143.132,143.132,0,0,0,203.2,82.489c2.41-5.273,4.732-10.76,6.888-16.072Z" transform="translate(0.105 0.041)" fill="#ffb573"/>
        <path id="Trazado_731620" data-name="Trazado 731620" d="M224.467,65.493c2.643,7.21-11.259,28.249-11.259,28.249l-15.985-8.867a98.023,98.023,0,0,1,9.45-18.72c5.761-8.418,14.894-8.574,17.794-.662" transform="translate(0.122 0.037)" fill="#407bff"/>
        <g id="Grupo_1031687" data-name="Grupo 1031687" transform="translate(197.346 59.733)" opacity="0.5">
          <g id="Grupo_1031686" data-name="Grupo 1031686">
            <g id="Grupo_1031685" data-name="Grupo 1031685" clip-path="url(#clip-path-2)">
              <path id="Trazado_731621" data-name="Trazado 731621" d="M224.467,65.493c2.643,7.21-11.259,28.249-11.259,28.249l-15.985-8.867a98.023,98.023,0,0,1,9.45-18.72c5.761-8.418,14.894-8.574,17.794-.662" transform="translate(-197.224 -59.696)" fill="#fff"/>
            </g>
          </g>
        </g>
        <g id="Grupo_1031690" data-name="Grupo 1031690" transform="translate(203.612 73.289)" opacity="0.2">
          <g id="Grupo_1031689" data-name="Grupo 1031689">
            <g id="Grupo_1031688" data-name="Grupo 1031688" clip-path="url(#clip-path-3)">
              <path id="Trazado_731622" data-name="Trazado 731622" d="M215.588,73.379c-3.067,1.555-10.054,9.174-12.1,14.963l9.716,5.389a122.844,122.844,0,0,0,8.781-15.977c-2.2-2.122-4.774-5.193-6.395-4.376" transform="translate(-203.486 -73.244)" fill="#407bff"/>
            </g>
          </g>
        </g>
        <path id="Trazado_731623" data-name="Trazado 731623" d="M175.29,85.51l-4.881-4.416-4.61,7.895s4.687,5.5,9.886,2.824l.7-1.966a4.03,4.03,0,0,0-1.094-4.337" transform="translate(0.103 0.05)" fill="#ffb573"/>
        <path id="Trazado_731624" data-name="Trazado 731624" d="M162.527,77.774l-1.355,7.669,4.631,3.549,4.61-7.9Z" transform="translate(0.1 0.048)" fill="#ffb573"/>
        <g id="Grupo_1031693" data-name="Grupo 1031693" transform="translate(218.382 291.054)" opacity="0.2">
          <g id="Grupo_1031692" data-name="Grupo 1031692">
            <g id="Grupo_1031691" data-name="Grupo 1031691" clip-path="url(#clip-path-4)">
              <path id="Trazado_731625" data-name="Trazado 731625" d="M218.247,290.874l.016,9.6,8.022.125-.016-9.6Z" transform="translate(-218.247 -290.874)"/>
            </g>
          </g>
        </g>
        <g id="Grupo_1031696" data-name="Grupo 1031696" transform="translate(256.767 291.24)" opacity="0.2">
          <g id="Grupo_1031695" data-name="Grupo 1031695">
            <g id="Grupo_1031694" data-name="Grupo 1031694" clip-path="url(#clip-path-5)">
              <path id="Trazado_731626" data-name="Trazado 731626" d="M264.644,291.06h-8.035l1.232,9.587h8.036Z" transform="translate(-256.608 -291.06)"/>
            </g>
          </g>
        </g>
        <path id="Trazado_731627" data-name="Trazado 731627" d="M259.972,59.9c-6.64,31.009-2.784,63.209-3.135,69.8-6.3-.045-30.026-.259-42.96-.377-8.593-45.25,1.1-69.422,1.1-69.422s2.714-.714,6.427-1.342c1.165-.2,2.423-.385,3.734-.541.724-.091,1.462-.163,2.209-.226a158.981,158.981,0,0,1,18.264.164c1.149.067,2.32.162,3.453.272,1.053.109,2.087.231,3.062.361,4.42.584,7.849,1.313,7.849,1.313" transform="translate(0.13 0.036)" fill="#407bff"/>
        <g id="Grupo_1031699" data-name="Grupo 1031699" transform="translate(210.453 57.627)" opacity="0.5">
          <g id="Grupo_1031698" data-name="Grupo 1031698">
            <g id="Grupo_1031697" data-name="Grupo 1031697" clip-path="url(#clip-path-6)">
              <path id="Trazado_731628" data-name="Trazado 731628" d="M259.972,59.9c-6.64,31.009-2.784,63.209-3.135,69.8-6.3-.045-30.026-.259-42.96-.377-8.593-45.25,1.1-69.422,1.1-69.422s2.714-.714,6.427-1.342c1.165-.2,2.423-.385,3.734-.541.724-.091,1.462-.163,2.209-.226a158.981,158.981,0,0,1,18.264.164c1.149.067,2.32.162,3.453.272,1.053.109,2.087.231,3.062.361,4.42.584,7.849,1.313,7.849,1.313" transform="translate(-210.323 -57.591)" fill="#fff"/>
            </g>
          </g>
        </g>
        <g id="Grupo_1031702" data-name="Grupo 1031702" transform="translate(251.729 73.598)" opacity="0.2">
          <g id="Grupo_1031701" data-name="Grupo 1031701">
            <g id="Grupo_1031700" data-name="Grupo 1031700" clip-path="url(#clip-path-7)">
              <path id="Trazado_731629" data-name="Trazado 731629" d="M251.681,73.552c-.576,3,1.183,16.378,4.475,19.492.137-4.332.4-8.861.841-13.5Z" transform="translate(-251.573 -73.552)"/>
            </g>
          </g>
        </g>
        <path id="Trazado_731630" data-name="Trazado 731630" d="M243.97,37.391c-1.2,5.866-2.451,16.62,1.626,20.578-3.222,3.146-7.43,6.776-14.409,6.959s-5.718-4.6-3.852-7.121c6.566-1.506,6.44-6.369,5.34-10.945Z" transform="translate(0.14 0.023)" fill="#ffb573"/>
        <path id="Trazado_731631" data-name="Trazado 731631" d="M244.4,55.712s-2.118,5.558-13.494,9.209a8.89,8.89,0,0,1,4.226,4.133s13.3-3.387,12.294-11.805a12.943,12.943,0,0,0-3.025-1.536" transform="translate(0.143 0.035)" fill="#fff"/>
        <path id="Trazado_731632" data-name="Trazado 731632" d="M226.564,68.579a8.774,8.774,0,0,1,4.351-3.659c-1.288-1.175-3.352-4.828-2.445-7.673a9.417,9.417,0,0,0-2.673.341s-4.752,4.556.766,10.991" transform="translate(0.139 0.035)" fill="#fff"/>
        <path id="Trazado_731633" data-name="Trazado 731633" d="M230.586,71.385c-.086.793-.5,1.4-.931,1.353s-.7-.728-.616-1.522.5-1.4.93-1.352.7.727.617,1.521" transform="translate(0.142 0.043)" fill="#fff"/>
        <path id="Trazado_731634" data-name="Trazado 731634" d="M229.812,79.6c-.016.8-.377,1.438-.808,1.43s-.764-.663-.748-1.461.377-1.438.806-1.43.765.662.749,1.461" transform="translate(0.141 0.048)" fill="#fff"/>
        <g id="Grupo_1031705" data-name="Grupo 1031705" transform="translate(232.82 41.279)" opacity="0.2">
          <g id="Grupo_1031704" data-name="Grupo 1031704">
            <g id="Grupo_1031703" data-name="Grupo 1031703" clip-path="url(#clip-path-8)">
              <path id="Trazado_731635" data-name="Trazado 731635" d="M239.361,41.253l-6.685,5.6a18.837,18.837,0,0,1,.534,3.245c2.506-.338,5.969-3.055,6.258-5.675a8.813,8.813,0,0,0-.107-3.173" transform="translate(-232.676 -41.253)"/>
            </g>
          </g>
        </g>
        <path id="Trazado_731636" data-name="Trazado 731636" d="M232.1,24.02a12.1,12.1,0,0,0-3.224,10.473c-1.848,1.594-5.194,1.312-5.194,1.312l-1.061-1.065a4.97,4.97,0,0,1-1.437-3.914c.192-2.341.724-5.892,2.2-8.14,2.365-3.592,8.711,1.334,8.711,1.334" transform="translate(0.137 0.013)" fill="#263238"/>
        <path id="Trazado_731637" data-name="Trazado 731637" d="M244.75,28.568c-.559,7.952-.483,12.634-4.538,16.681-6.1,6.089-15.887,2.357-17.714-5.6-1.645-7.163-.454-18.964,7.362-22.061a10.872,10.872,0,0,1,14.89,10.98" transform="translate(0.137 0.01)" fill="#ffb573"/>
        <path id="Trazado_731638" data-name="Trazado 731638" d="M238.1,23.74a12.68,12.68,0,0,1,.372,9.413,2.453,2.453,0,0,0,1.524,3.208,7.024,7.024,0,0,0,2.134.292l3.835-.73s1.612-5.707.556-9.876S238.1,23.74,238.1,23.74" transform="translate(0.148 0.014)" fill="#263238"/>
        <path id="Trazado_731639" data-name="Trazado 731639" d="M238.08,24.8a62.3,62.3,0,0,1-17.594-.918s1.881-5.948,6.1-7.991,13.144-1.876,15.9-.708,6.351,4.7,5,13.341c-2.837,3.127-9.4-3.724-9.4-3.724" transform="translate(0.137 0.009)" fill="#263238"/>
        <path id="Trazado_731640" data-name="Trazado 731640" d="M248.69,27.237s-22.411-3.252-31.7-4.883a.609.609,0,0,1,.032-1.2,42.033,42.033,0,0,1,11.642.524Z" transform="translate(0.134 0.013)" fill="#407bff"/>
        <path id="Trazado_731641" data-name="Trazado 731641" d="M220.644,21.171c.406-1.989,3.867-12.345,18.4-9.2,13.454,2.909,9.646,15.274,9.646,15.274Z" transform="translate(0.137 0.007)" fill="#4db1f0"/>
        <path id="Trazado_731642" data-name="Trazado 731642" d="M229.745,12.282l4.866-1.442,5.859.479v1.014l-3.722.864Z" transform="translate(0.142 0.007)" fill="#407bff"/>
        <g id="Grupo_1031708" data-name="Grupo 1031708" transform="translate(230.24 11.574)" opacity="0.2">
          <g id="Grupo_1031707" data-name="Grupo 1031707">
            <g id="Grupo_1031706" data-name="Grupo 1031706" clip-path="url(#clip-path-9)">
              <path id="Trazado_731643" data-name="Trazado 731643" d="M230.472,22.212h0a.376.376,0,0,1-.374-.375c0-.081.11-8.127,9.632-10.26a.376.376,0,0,1,.164.733c-8.922,2-9.045,9.221-9.046,9.528a.376.376,0,0,1-.375.374" transform="translate(-230.097 -11.567)"/>
            </g>
          </g>
        </g>
        <path id="Trazado_731644" data-name="Trazado 731644" d="M248.136,36.665a7.573,7.573,0,0,1-4.617,3.489c-2.576.65-3.8-1.669-3.025-4.066.694-2.157,2.872-5.094,5.43-4.681,2.522.407,3.437,3.127,2.211,5.257" transform="translate(0.149 0.019)" fill="#ffb573"/>
        <path id="Trazado_731645" data-name="Trazado 731645" d="M215.769,298.675l13.6.207s3.686-53.8,3.277-78.829c-.123-7.613.705-18.325,1.964-29.831,1.594-14.5,2.438-20.295,4.527-38.622,1.489-13.069,2.983-22.066,2.983-22.066l-28.241-.25s-3.616,65.538-2.874,90.039c.769,25.477,4.766,79.352,4.766,79.352" transform="translate(0.131 0.08)" fill="#12263f"/>
        <g id="Grupo_1031711" data-name="Grupo 1031711" transform="translate(230.988 147.379)" opacity="0.2">
          <g id="Grupo_1031710" data-name="Grupo 1031710">
            <g id="Grupo_1031709" data-name="Grupo 1031709" clip-path="url(#clip-path-10)">
              <path id="Trazado_731646" data-name="Trazado 731646" d="M233.34,147.287c-4.229,12.912-2.4,42.393.47,50.538.238-2.483.5-5.026.785-7.612,1.6-14.5,2.442-20.3,4.531-38.622.037-.364.084-.717.121-1.072a19.528,19.528,0,0,0-5.908-3.233" transform="translate(-230.845 -147.288)"/>
            </g>
          </g>
        </g>
        <path id="Trazado_731647" data-name="Trazado 731647" d="M229.1,129.419s9.588,67.454,13,90.738c3.74,25.5,12.032,78.734,12.032,78.734h14.711s-2.766-50.174-5.93-75.1c-3.6-28.395-6.1-94.123-6.1-94.123Z" transform="translate(0.142 0.08)" fill="#12263f"/>
        <path id="Trazado_731648" data-name="Trazado 731648" d="M252.366,299.107h17.323v-5.175l-19.364-.336Z" transform="translate(0.155 0.182)" fill="#407bff"/>
        <path id="Trazado_731649" data-name="Trazado 731649" d="M213.721,298.863l16.173.254.742-5.235-18.04-.56Z" transform="translate(0.132 0.182)" fill="#407bff"/>
        <path id="Trazado_731650" data-name="Trazado 731650" d="M232.657,30.677c-.006.647-.354,1.17-.777,1.166s-.761-.531-.756-1.18.354-1.17.777-1.166.762.532.756,1.18" transform="translate(0.143 0.018)" fill="#263238"/>
        <path id="Trazado_731651" data-name="Trazado 731651" d="M225.34,30.611c-.006.647-.354,1.17-.777,1.166s-.761-.531-.756-1.18.354-1.17.777-1.166.762.532.756,1.18" transform="translate(0.139 0.018)" fill="#263238"/>
        <path id="Trazado_731652" data-name="Trazado 731652" d="M227.443,31.287A23.163,23.163,0,0,1,224.3,36.8a3.73,3.73,0,0,0,3.089.608Z" transform="translate(0.139 0.019)" fill="#ed893e"/>
        <path id="Trazado_731653" data-name="Trazado 731653" d="M230.322,39.33A5.336,5.336,0,0,0,234,37.24a.19.19,0,1,0-.316-.211,5.148,5.148,0,0,1-4.2,1.969.19.19,0,0,0,0,.38,6.318,6.318,0,0,0,.844-.048" transform="translate(0.142 0.023)" fill="#263238"/>
        <path id="Trazado_731654" data-name="Trazado 731654" d="M234.936,28.333a.366.366,0,0,0,.179-.072.378.378,0,0,0,.078-.531,3.771,3.771,0,0,0-3.083-1.6.38.38,0,0,0,.045.759,3.016,3.016,0,0,1,2.428,1.292.375.375,0,0,0,.353.15" transform="translate(0.144 0.016)" fill="#263238"/>
        <path id="Trazado_731655" data-name="Trazado 731655" d="M222.208,28.067a.378.378,0,0,0,.293-.208,3.02,3.02,0,0,1,2.161-1.7.38.38,0,0,0-.09-.755,3.781,3.781,0,0,0-2.753,2.118.38.38,0,0,0,.172.509.373.373,0,0,0,.216.037" transform="translate(0.137 0.016)" fill="#263238"/>
        <path id="Trazado_731656" data-name="Trazado 731656" d="M255.432,310.118a9.592,9.592,0,0,0,2.114-.289.2.2,0,0,0,.15-.154.184.184,0,0,0-.079-.192c-.285-.183-2.809-1.774-3.716-1.318a.638.638,0,0,0-.348.538,1.1,1.1,0,0,0,.35,1,2.362,2.362,0,0,0,1.529.41m1.574-.556c-1.375.273-2.422.224-2.846-.145a.746.746,0,0,1-.229-.69.244.244,0,0,1,.13-.223c.471-.237,1.918.449,2.945,1.059" transform="translate(0.157 0.191)" fill="#407bff"/>
        <path id="Trazado_731657" data-name="Trazado 731657" d="M257.5,309.836a.2.2,0,0,0,.105-.031.2.2,0,0,0,.093-.174c0-.1-.1-2.415-1-3.179a1.01,1.01,0,0,0-.8-.244.653.653,0,0,0-.625.5c-.208.9,1.325,2.656,2.136,3.107a.192.192,0,0,0,.09.023m-1.484-3.256a.648.648,0,0,1,.43.167,4.4,4.4,0,0,1,.843,2.517c-.8-.627-1.767-1.957-1.645-2.487.011-.048.038-.161.286-.192a.847.847,0,0,1,.086-.005" transform="translate(0.158 0.19)" fill="#407bff"/>
        <path id="Trazado_731658" data-name="Trazado 731658" d="M217.024,309.657a.2.2,0,0,0,.136-.151.18.18,0,0,0-.087-.2c-.351-.194-3.465-1.881-4.477-1.353a.647.647,0,0,0-.349.5,1.02,1.02,0,0,0,.293.931c.827.794,3.148.513,4.458.275a.107.107,0,0,0,.026-.006m-4.195-1.4c.619-.2,2.322.494,3.553,1.122-1.792.267-3.107.169-3.571-.276a.665.665,0,0,1-.187-.615.245.245,0,0,1,.134-.2.457.457,0,0,1,.071-.029" transform="translate(0.132 0.191)" fill="#407bff"/>
        <path id="Trazado_731659" data-name="Trazado 731659" d="M217.023,309.658a.23.23,0,0,0,.05-.024.2.2,0,0,0,.091-.172c0-.091-.071-2.258-1.034-3.113a1.33,1.33,0,0,0-1.032-.342c-.526.044-.7.307-.744.52-.209.906,1.591,2.673,2.53,3.123a.191.191,0,0,0,.139.008m-2.109-3.236a.857.857,0,0,1,.2-.037.972.972,0,0,1,.758.254,4.242,4.242,0,0,1,.889,2.493c-.948-.609-2.158-1.994-2.032-2.539.007-.033.027-.119.188-.171m.191-.226h0Z" transform="translate(0.133 0.19)" fill="#407bff"/>
        <path id="Trazado_731660" data-name="Trazado 731660" d="M248.6,55.9a3.157,3.157,0,0,0-2.753.971c-2.763,2.965-9.348,12.173-10.713,33.591a152.962,152.962,0,0,0,4.418,48.113l17.108-4.855a2.4,2.4,0,0,0,1.734-2.59c-.467-4.039-1.458-13.633-1.734-24.408-.194-7.593.377-14.42.348-17.521-1.876-3.687-5.264-9.7-4.045-16.25,1.362-7.316,5.391-8.321,8.126-9.661a2.157,2.157,0,0,0-.056-3.862A44.309,44.309,0,0,0,248.6,55.9" transform="translate(0.146 0.035)" fill="#4db1f0"/>
        <path id="Trazado_731661" data-name="Trazado 731661" d="M224.53,138.569,212.8,134.891a2.408,2.408,0,0,1-1.666-1.985c-1.017-7.741-5.179-43.293.224-69.688a5.228,5.228,0,0,1,3.4-3.911,47.409,47.409,0,0,1,10.41-2.277.64.64,0,0,1,.679.809c-2.23,8.136-5.926,52.838-1.321,80.731" transform="translate(0.129 0.035)" fill="#4db1f0"/>
        <path id="Trazado_731662" data-name="Trazado 731662" d="M209.145,111.321c.21,3.742.48,7.194.75,10.226,4.253.48,8.605.811,12.928,1.021-.2-3.312-.34-6.7-.41-10.116-4.483-.24-8.946-.6-13.268-1.131" transform="translate(0.13 0.069)" fill="#fff"/>
        <path id="Trazado_731663" data-name="Trazado 731663" d="M222.524,93.682c-4.753-.2-9.426-.57-13.869-1.141-.03,3.462.01,6.864.11,10.136,4.413.54,8.976.891,13.578,1.081.01-3.412.08-6.794.18-10.076" transform="translate(0.129 0.057)" fill="#fff"/>
        <path id="Trazado_731664" data-name="Trazado 731664" d="M256.838,111.781c-6.254.61-13.689.981-21.513.991.28,3.672.66,7.054,1.091,10.066,7.655-.05,14.889-.45,21.093-1.061-.26-3.042-.5-6.444-.67-10" transform="translate(0.146 0.069)" fill="#fff"/>
        <path id="Trazado_731665" data-name="Trazado 731665" d="M256.919,92.6c-6.654.69-14.219,1.161-21.964,1.261-.14,3.492-.16,6.864-.09,10.076,7.655-.1,15.1-.55,21.763-1.221.01-3.9.18-7.435.29-10.116" transform="translate(0.146 0.057)" fill="#fff"/>
        <path id="Trazado_731666" data-name="Trazado 731666" d="M288.324,144.619,242.869,152.2a2.092,2.092,0,0,1-2.479-1.932l-2.171-28.175a2.591,2.591,0,0,1,2.121-2.7l45.455-7.583a2.093,2.093,0,0,1,2.479,1.932l2.171,28.175a2.59,2.59,0,0,1-2.121,2.7" transform="translate(0.148 0.069)" fill="#407bff"/>
        <g id="Grupo_1031714" data-name="Grupo 1031714" transform="translate(239.409 111.85)" opacity="0.4">
          <g id="Grupo_1031713" data-name="Grupo 1031713">
            <g id="Grupo_1031712" data-name="Grupo 1031712" clip-path="url(#clip-path-11)">
              <path id="Trazado_731667" data-name="Trazado 731667" d="M288.323,144.619l-44.4,7.408a2.092,2.092,0,0,1-2.479-1.932l-2.171-28.175a2.59,2.59,0,0,1,2.121-2.7l44.4-7.408a2.093,2.093,0,0,1,2.479,1.932l2.171,28.175a2.59,2.59,0,0,1-2.121,2.7" transform="translate(-239.261 -111.781)" fill="#115089"/>
            </g>
          </g>
        </g>
        <path id="Trazado_731668" data-name="Trazado 731668" d="M261.767,65c2.529,5.764,4.773,11.505,6.8,17.422,1.035,2.944,1.973,5.927,2.893,8.933.447,1.51.877,3.023,1.284,4.557l.308,1.147.324,1.321c.235.9.358,1.8.519,2.69a50.265,50.265,0,0,1-1.774,20.162,77.9,77.9,0,0,1-3.156,9.146q-.941,2.212-1.984,4.369c-.7,1.456-1.412,2.824-2.274,4.3l-5.446-2.59c.868-2.711,1.75-5.632,2.4-8.49.707-2.865,1.277-5.747,1.7-8.6a60.3,60.3,0,0,0,.686-8.47,34.447,34.447,0,0,0-.757-7.928c-.162-.6-.28-1.229-.484-1.8l-.288-.9-.377-1.05c-.49-1.4-1.036-2.8-1.551-4.2-1.039-2.812-2.171-5.605-3.267-8.418L250.57,69.777Z" transform="translate(0.155 0.04)" fill="#ffb573"/>
        <path id="Trazado_731669" data-name="Trazado 731669" d="M259.948,59.906c7.209,2.645,11.887,23.4,11.887,23.4L255.868,94.313s-4.9-12.258-7.6-21.809c-2.939-10.4,2.945-15.8,11.678-12.6" transform="translate(0.153 0.037)" fill="#407bff"/>
        <g id="Grupo_1031717" data-name="Grupo 1031717" transform="translate(247.658 59.023)" opacity="0.5">
          <g id="Grupo_1031716" data-name="Grupo 1031716">
            <g id="Grupo_1031715" data-name="Grupo 1031715" clip-path="url(#clip-path-12)">
              <path id="Trazado_731670" data-name="Trazado 731670" d="M259.948,59.906c7.209,2.645,11.887,23.4,11.887,23.4L255.868,94.313s-4.9-12.258-7.6-21.809c-2.939-10.4,2.945-15.8,11.678-12.6" transform="translate(-247.505 -58.986)" fill="#fff"/>
            </g>
          </g>
        </g>
        <path id="Trazado_731671" data-name="Trazado 731671" d="M258.627,137.659l-1.393,6.155,9.621-.278s.769-7.433-3.038-8.607l-2.969.576a2.831,2.831,0,0,0-2.221,2.154" transform="translate(0.159 0.084)" fill="#ffb573"/>
        <path id="Trazado_731672" data-name="Trazado 731672" d="M260.251,151.491l5.776-1.177a1.44,1.44,0,0,0,1.15-1.5l-.321-5.286-9.62.278,1.318,6.556a1.439,1.439,0,0,0,1.7,1.127" transform="translate(0.159 0.089)" fill="#ffb573"/>
      </g>
    </g>
    <path id="Trazado_731673" data-name="Trazado 731673" d="M176.382,16.629H3.649A3.649,3.649,0,0,0,0,20.385l6.967,237.89a3.649,3.649,0,0,0,3.648,3.542H183.351A3.648,3.648,0,0,0,187,258.063L180.031,20.171a3.649,3.649,0,0,0-3.648-3.542" transform="translate(915 7309.476)" fill="#407bff"/>
    <g id="Grupo_1031722" data-name="Grupo 1031722" transform="translate(915 7326.104)" opacity="0.2">
      <g id="Grupo_1031721" data-name="Grupo 1031721">
        <g id="Grupo_1031720" data-name="Grupo 1031720" clip-path="url(#clip-path-13)">
          <path id="Trazado_731674" data-name="Trazado 731674" d="M176.382,16.629H3.649A3.649,3.649,0,0,0,0,20.385l6.967,237.89a3.649,3.649,0,0,0,3.648,3.542H183.351A3.648,3.648,0,0,0,187,258.063L180.031,20.171a3.649,3.649,0,0,0-3.648-3.542" transform="translate(0 -16.629)"/>
        </g>
      </g>
    </g>
    <path id="Trazado_731675" data-name="Trazado 731675" d="M178.047,16.629H5.314a3.649,3.649,0,0,0-3.647,3.756l6.967,237.89a3.649,3.649,0,0,0,3.648,3.542H185.016a3.648,3.648,0,0,0,3.647-3.755L181.695,20.171a3.648,3.648,0,0,0-3.647-3.542" transform="translate(915.001 7309.476)" fill="#4db1f0"/>
    <g id="Grupo_1031725" data-name="Grupo 1031725" transform="translate(924.067 7335.431)" opacity="0.2">
      <g id="Grupo_1031724" data-name="Grupo 1031724">
        <g id="Grupo_1031723" data-name="Grupo 1031723" clip-path="url(#clip-path-14)">
          <path id="Trazado_731676" data-name="Trazado 731676" d="M9.063,29.513l6.49,221.572a3.692,3.692,0,0,0,3.667,3.562H175.636a3.439,3.439,0,0,0,3.458-3.562L172.6,29.513a3.692,3.692,0,0,0-3.667-3.563H12.521a3.44,3.44,0,0,0-3.458,3.563" transform="translate(-9.062 -25.95)"/>
        </g>
      </g>
    </g>
    <path id="Trazado_731677" data-name="Trazado 731677" d="M10.144,28.432,16.634,250a3.692,3.692,0,0,0,3.667,3.562H176.717A3.439,3.439,0,0,0,180.175,250l-6.49-221.572a3.692,3.692,0,0,0-3.667-3.563H13.6a3.44,3.44,0,0,0-3.458,3.563" transform="translate(915.006 7309.481)" fill="#fff"/>
    <path id="Trazado_731678" data-name="Trazado 731678" d="M58.224,99.766H28.163l-.881-30.061H57.343Z" transform="translate(915.017 7309.508)" fill="#f5f5f5"/>
    <path id="Trazado_731679" data-name="Trazado 731679" d="M156.06,81.639H71.067L70.9,76.03H155.9Z" transform="translate(915.044 7309.512)" fill="#e0e0e0"/>
    <path id="Trazado_731680" data-name="Trazado 731680" d="M137.92,93.427H71.413l-.164-5.609h66.507Z" transform="translate(915.044 7309.52)" fill="#e0e0e0"/>
    <path id="Trazado_731681" data-name="Trazado 731681" d="M59.8,153.66H29.742L28.861,123.6H58.922Z" transform="translate(915.018 7309.542)" fill="#f5f5f5"/>
    <path id="Trazado_731682" data-name="Trazado 731682" d="M103.87,135.534H72.646l-.165-5.609h31.224Z" transform="translate(915.045 7309.546)" fill="#e0e0e0"/>
    <path id="Trazado_731683" data-name="Trazado 731683" d="M133.422,135.534H110.454l-.164-5.609h22.967Z" transform="translate(915.068 7309.546)" fill="#e0e0e0"/>
    <path id="Trazado_731684" data-name="Trazado 731684" d="M147.366,147.321H72.991l-.164-5.609H147.2Z" transform="translate(915.045 7309.553)" fill="#e0e0e0"/>
    <path id="Trazado_731685" data-name="Trazado 731685" d="M61.381,207.554H31.321l-.881-30.061H60.5Z" transform="translate(915.019 7309.575)" fill="#f5f5f5"/>
    <path id="Trazado_731686" data-name="Trazado 731686" d="M159.4,195.605H74.406l.164,5.609h84.993Z" transform="translate(915.046 7309.586)" fill="#e0e0e0"/>
    <path id="Trazado_731687" data-name="Trazado 731687" d="M140.568,183.818H74.06l.164,5.609h66.507Z" transform="translate(915.046 7309.579)" fill="#e0e0e0"/>
    <path id="Trazado_731688" data-name="Trazado 731688" d="M44.68,91.956a1.313,1.313,0,0,1-2.2-.105c-1.952-3.2-5.683-6.124-7.828-7.572a1.323,1.323,0,0,1-.422-1.748l0,0a1.293,1.293,0,0,1,1.856-.4,36.056,36.056,0,0,1,6.47,5.559,1.3,1.3,0,0,0,1.989,0A85.624,85.624,0,0,1,59.759,73.513a1.328,1.328,0,0,1,1.848.282h0a1.3,1.3,0,0,1-.234,1.825c-7.68,5.82-13.148,11.171-16.693,16.334" transform="translate(915.021 7309.511)" fill="#ffa031"/>
    <path id="Trazado_731689" data-name="Trazado 731689" d="M46.258,145.85a1.314,1.314,0,0,1-2.2-.105c-1.952-3.2-5.683-6.124-7.828-7.572a1.323,1.323,0,0,1-.422-1.748l0,0a1.292,1.292,0,0,1,1.855-.4,36.025,36.025,0,0,1,6.471,5.559,1.3,1.3,0,0,0,1.989,0,85.625,85.625,0,0,1,15.212-14.177,1.328,1.328,0,0,1,1.848.282h0a1.3,1.3,0,0,1-.233,1.825C55.271,135.335,49.8,140.686,46.258,145.85Z" transform="translate(915.022 7309.544)" fill="#ffa031"/>
    <path id="Trazado_731690" data-name="Trazado 731690" d="M47.84,199.861a1.314,1.314,0,0,1-2.2-.105c-1.952-3.2-5.683-6.124-7.828-7.572a1.323,1.323,0,0,1-.422-1.748l0,0a1.292,1.292,0,0,1,1.855-.4,36.024,36.024,0,0,1,6.471,5.559,1.3,1.3,0,0,0,1.989,0,85.625,85.625,0,0,1,15.212-14.177,1.328,1.328,0,0,1,1.848.282h0a1.3,1.3,0,0,1-.233,1.825c-7.681,5.82-13.149,11.171-16.694,16.334" transform="translate(915.023 7309.578)" fill="#ffa031"/>
    <path id="Trazado_731691" data-name="Trazado 731691" d="M117.263,239.977a14.548,14.548,0,0,1-9.243-3.205c-2.077-1.437-4.039-2.794-7.933-2.794a11.616,11.616,0,0,0-7.77,2.794,13.773,13.773,0,0,1-9.055,3.205,14.543,14.543,0,0,1-9.242-3.205c-2.077-1.437-4.039-2.794-7.932-2.794a11.615,11.615,0,0,0-7.769,2.794,13.767,13.767,0,0,1-9.053,3.205,14.543,14.543,0,0,1-9.242-3.205c-2.077-1.437-4.039-2.794-7.932-2.794l-.066-2.249a14.543,14.543,0,0,1,9.242,3.2c2.077,1.437,4.04,2.794,7.932,2.794a11.612,11.612,0,0,0,7.768-2.794,13.768,13.768,0,0,1,9.054-3.2,14.542,14.542,0,0,1,9.241,3.2c2.078,1.437,4.041,2.794,7.933,2.794a11.618,11.618,0,0,0,7.77-2.794,13.771,13.771,0,0,1,9.055-3.2,14.543,14.543,0,0,1,9.242,3.2c2.078,1.437,4.04,2.794,7.934,2.794Z" transform="translate(915.02 7309.609)" fill="#ebebeb"/>
    <path id="Trazado_731692" data-name="Trazado 731692" d="M132.133,23.5h-.181l-.017-.052c-2.306-7.336-7.848-12.2-13.9-12.2H105.711a4.619,4.619,0,0,1-4.232-3.238C99.824,3.331,95.776,0,91.125,0S82.6,3.331,81.184,8.009a4.329,4.329,0,0,1-4.066,3.238H64.8c-6.053,0-11.345,4.862-13.272,12.2l-.014.052H51.33a2.646,2.646,0,0,0-2.457,2.877,2.815,2.815,0,0,0,2.6,2.877h80.8a2.646,2.646,0,0,0,2.457-2.877,2.815,2.815,0,0,0-2.6-2.877" transform="translate(915.03 7309.465)" fill="#12263f"/>
    <rect id="Rectángulo_351563" data-name="Rectángulo 351563" width="290.6" height="318.036" transform="translate(915 7309.465)" fill="none"/>
  </g>
</svg>
