<svg id="Grupo_1031666" data-name="Grupo 1031666" xmlns="http://www.w3.org/2000/svg" xmlns:xlink="http://www.w3.org/1999/xlink" width="562.145" height="569.566" viewBox="0 0 562.145 569.566">
  <defs>
    <clipPath id="clip-path">
      <rect id="Rectángulo_351488" data-name="Rectángulo 351488" width="562.145" height="569.566" fill="none"/>
    </clipPath>
    <clipPath id="clip-path-2">
      <rect id="Rectángulo_353017" data-name="Rectángulo 353017" width="315" height="147.287" fill="none"/>
    </clipPath>
    <clipPath id="clip-path-4">
      <rect id="Rectángulo_353015" data-name="Rectángulo 353015" width="211.129" height="4.085" fill="#d2e1f1"/>
    </clipPath>
  </defs>
  <g id="Grupo_1031665" data-name="Grupo 1031665" clip-path="url(#clip-path)">
    <path id="Trazado_731244" data-name="Trazado 731244" d="M1739.526,76.483s14.745,9.633,18.284,13.958l40.105,13.172,21.036-8.454s2.162-9.437-.786-10.813-74.117-16.121-74.117-16.121Z" transform="translate(-1498.921 -58.789)" fill="#99601d"/>
    <path id="Trazado_731245" data-name="Trazado 731245" d="M1717.781,174.951a2.729,2.729,0,0,1-3.379,1.865l-57.691-16.655a2.729,2.729,0,1,1,1.514-5.245l57.691,16.655a2.73,2.73,0,0,1,1.865,3.38" transform="translate(-1425.86 -133.395)" fill="#303030"/>
    <path id="Trazado_731246" data-name="Trazado 731246" d="M2265.4,394.169a5.308,5.308,0,1,1-5.308-5.308,5.309,5.309,0,0,1,5.308,5.308" transform="translate(-1942.909 -335.075)" fill="#303030"/>
    <path id="Trazado_731247" data-name="Trazado 731247" d="M2282.706,414.783a2,2,0,1,1-2-2,2,2,0,0,1,2,2" transform="translate(-1963.524 -355.689)" fill="#f6eaf4"/>
    <path id="Trazado_731248" data-name="Trazado 731248" d="M2237.568,354.384h-7.8s5.479,12.684,9.417,11.266c2.889-1.04-1.617-11.266-1.617-11.266m.969,11a.924.924,0,1,1,.924-.924.924.924,0,0,1-.924.924" transform="translate(-1921.355 -305.366)" fill="#cc8027"/>
    <path id="Trazado_731249" data-name="Trazado 731249" d="M1652.825,80.823V62.539h17.694v8.65s-8.453,9.633-17.694,9.633" transform="translate(-1424.212 -53.888)" fill="#ffa031"/>
    <path id="Trazado_731250" data-name="Trazado 731250" d="M1670.279,202.327c0-9.437-10.911-9.732-10.911-9.732h-10.911c-7.962,0-95.841,21.822-95.841,21.822l2.927,2.619c18.6-4.488,92.9-22.254,99.6-21.395,7.667.983,12.582,4.718,12.582,21.233,0,.876,0,1.725-.005,2.556h2.561Z" transform="translate(-1337.863 -165.956)" fill="#cc8027"/>
    <path id="Trazado_731251" data-name="Trazado 731251" d="M1673.378,214.436c-6.7-.859-81,16.907-99.6,21.395l2.676,2.394h109.5c0-.831.005-1.68.005-2.556,0-16.514-4.915-20.25-12.583-21.233" transform="translate(-1356.1 -184.75)" fill="#ffa031"/>
    <path id="Trazado_731252" data-name="Trazado 731252" d="M1551.869,312.682a11.354,11.354,0,1,1-11.353-11.353,11.354,11.354,0,0,1,11.353,11.353" transform="translate(-1317.653 -259.65)" fill="#303030"/>
    <path id="Trazado_731253" data-name="Trazado 731253" d="M1588.884,356.774a4.276,4.276,0,1,1-4.276-4.276,4.276,4.276,0,0,1,4.276,4.276" transform="translate(-1361.746 -303.741)" fill="#f6eaf4"/>
    <path id="Trazado_731254" data-name="Trazado 731254" d="M1670.555,73.133h-2.734l-1.367,2.368,1.367,2.368h2.734l1.367-2.368Zm-1.367,3.656a1.288,1.288,0,1,1,1.288-1.288,1.288,1.288,0,0,1-1.288,1.288" transform="translate(-1435.956 -63.017)" fill="#d4d5d7"/>
    <path id="Trazado_731255" data-name="Trazado 731255" d="M2276.765,218.821h-2.735l-1.367,2.368,1.367,2.368h2.735l1.367-2.368Zm-1.368,3.656a1.288,1.288,0,1,1,1.289-1.288,1.288,1.288,0,0,1-1.289,1.288" transform="translate(-1958.316 -188.554)" fill="#d4d5d7"/>
    <path id="Trazado_731256" data-name="Trazado 731256" d="M1669.941,158.414h-1.849l-.925,1.6.925,1.6h1.849l.925-1.6Zm-.925,2.473a.871.871,0,1,1,.871-.872.872.872,0,0,1-.871.872" transform="translate(-1436.57 -136.502)" fill="#d4d5d7"/>
    <path id="Trazado_731257" data-name="Trazado 731257" d="M1648.449,17.054v.809a4.892,4.892,0,0,0,4.892,4.892h8.558a4.892,4.892,0,0,0,4.892-4.892v-.809Z" transform="translate(-1420.441 -14.695)" fill="#303030"/>
    <path id="Trazado_731258" data-name="Trazado 731258" d="M1657.7.981a.983.983,0,0,1-.983.983h-19.857a.983.983,0,0,1,0-1.966h19.857a.983.983,0,0,1,.983.983" transform="translate(-1409.604 0.002)" fill="#303030"/>
    <path id="Trazado_731259" data-name="Trazado 731259" d="M1520.15,484.68a2.359,2.359,0,0,0,0,4.718h102.624V484.68Z" transform="translate(-1307.855 -417.64)" fill="#99601d"/>
    <path id="Trazado_731260" data-name="Trazado 731260" d="M2305.5,484.68h-28.7V489.4h28.7a2.359,2.359,0,0,0,0-4.718" transform="translate(-1961.875 -417.64)" fill="#303030"/>
    <path id="Trazado_731261" data-name="Trazado 731261" d="M2874.942,213.857a2.632,2.632,0,0,0,0,5.206h5.76v.259c0,.107.027.207.033.312a56.978,56.978,0,0,1,14.367-.089c0-.076.022-.147.022-.224v-.259h5.761a2.632,2.632,0,0,0,0-5.206h-5.761v-2.974h5.761a2.633,2.633,0,0,0,0-5.207h-5.761v-.949a6.752,6.752,0,0,0-.341-2.024h6.1a2.632,2.632,0,0,0,0-5.207h-25.943a2.632,2.632,0,0,0,0,5.207h6.1a6.752,6.752,0,0,0-.341,2.024v.949h-5.76a2.633,2.633,0,0,0,0,5.207h5.76v2.974Z" transform="translate(-2475.357 -170.179)" fill="#eee8f4"/>
    <path id="Trazado_731262" data-name="Trazado 731262" d="M2860.4,499.288a17.617,17.617,0,1,0,17.618-17.619,17.637,17.637,0,0,0-17.618,17.619m17.616-5.518a5.517,5.517,0,1,1-5.516,5.518,5.523,5.523,0,0,1,5.516-5.518m-5.658-2.173a2.473,2.473,0,1,1,2.473-2.474,2.474,2.474,0,0,1-2.473,2.474m0,15.381a2.473,2.473,0,1,1-2.475,2.472,2.474,2.474,0,0,1,2.475-2.472m11.533-15.381a2.473,2.473,0,1,1,2.475-2.474,2.474,2.474,0,0,1-2.475,2.474m2.475,17.853a2.475,2.475,0,1,1-2.475-2.472,2.476,2.476,0,0,1,2.475,2.472m-17.31-9.581a2.474,2.474,0,1,1-2.473-2.474,2.473,2.473,0,0,1,2.473,2.474m17.924,0a2.473,2.473,0,1,1,2.472,2.475,2.475,2.475,0,0,1-2.472-2.475" transform="translate(-2464.758 -415.046)" fill="#eee8f4"/>
    <path id="Trazado_731263" data-name="Trazado 731263" d="M2746.813,489.935a20.661,20.661,0,0,1,3.611-11.685l-12.532-7.433a35.134,35.134,0,0,0-5.647,19.118,35.623,35.623,0,0,0,.4,5.076l14.357-2.394a20.633,20.633,0,0,1-.193-2.681" transform="translate(-2354.329 -405.695)" fill="#676768"/>
    <path id="Trazado_731264" data-name="Trazado 731264" d="M3088.331,470.132l-18.253,1.856a20.742,20.742,0,0,1,9.278,19.5l12.9,8.865a35.161,35.161,0,0,0-3.929-30.224" transform="translate(-2645.435 -405.105)" fill="#676768"/>
    <path id="Trazado_731265" data-name="Trazado 731265" d="M2751.918,643.392l-14.41,2.4a35.314,35.314,0,0,0,13.79,21.354l9.147-11.342a20.822,20.822,0,0,1-8.527-12.416" transform="translate(-2358.865 -554.4)" fill="#676768"/>
    <path id="Trazado_731266" data-name="Trazado 731266" d="M2949.127,353.973l4.618,14.159c.243-.008.483-.037.727-.037a20.668,20.668,0,0,1,8.083,1.637l20.155-2.048a35.244,35.244,0,0,0-28.239-14.155,35.624,35.624,0,0,0-5.344.445" transform="translate(-2541.214 -304.629)" fill="#676768"/>
    <path id="Trazado_731267" data-name="Trazado 731267" d="M2807.393,373.3l-4.56-13.99a35.318,35.318,0,0,0-21.051,13.691l12.613,7.482a20.754,20.754,0,0,1,13-7.183" transform="translate(-2397.015 -309.615)" fill="#676768"/>
    <path id="Trazado_731268" data-name="Trazado 731268" d="M2858.964,741.159l-9.221,11.437a34.75,34.75,0,0,0,25.177,5.07l.041-14.932a20.746,20.746,0,0,1-16-1.574" transform="translate(-2455.575 -638.644)" fill="#676768"/>
    <path id="Trazado_731269" data-name="Trazado 731269" d="M3047.029,655.766l-.046,15.286a35.369,35.369,0,0,0,24.632-21.3l-12.537-8.611a20.844,20.844,0,0,1-12.049,14.621" transform="translate(-2625.534 -552.464)" fill="#676768"/>
    <rect id="Rectángulo_351472" data-name="Rectángulo 351472" width="39.047" height="70.39" transform="translate(499.378 222.342)" fill="#eee8f4"/>
    <rect id="Rectángulo_351473" data-name="Rectángulo 351473" width="14.324" height="17.097" transform="translate(517.204 209.915)" fill="#707072"/>
    <path id="Rectángulo_351474" data-name="Rectángulo 351474" d="M4.883,0H15.952a4.883,4.883,0,0,1,4.883,4.883v0a4.882,4.882,0,0,1-4.882,4.882H4.883A4.883,4.883,0,0,1,0,4.883v0A4.883,4.883,0,0,1,4.883,0Z" transform="translate(514.108 205.149)" fill="#a2a2a2"/>
    <path id="Trazado_731270" data-name="Trazado 731270" d="M3791.136,2125.042v55.194h-9.94v-55.194c0-.357-.014-.641-.034-.862-.638-.042-1.519-.042-2.226-.042h-19.43c-2.517,0-7.2,0-9.962-3.68-2.069-2.757-2.237-6.513-2.237-10.779v-11.3h9.94v11.3a29.5,29.5,0,0,0,.219,4.43,18.065,18.065,0,0,0,2.041.088h19.43c2.644,0,5.377,0,7.793,1.417a8.281,8.281,0,0,1,3.544,4.183,14,14,0,0,1,.862,5.245" transform="translate(-3228.992 -1808.141)" fill="#eee8f4"/>
    <path id="Rectángulo_351475" data-name="Rectángulo 351475" d="M5.513,0H37.429a5.512,5.512,0,0,1,5.512,5.512v0a5.513,5.513,0,0,1-5.513,5.513H5.511A5.511,5.511,0,0,1,0,5.514v0A5.513,5.513,0,0,1,5.513,0Z" transform="translate(497.431 220.368)" fill="#a2a2a2"/>
    <path id="Rectángulo_351476" data-name="Rectángulo 351476" d="M6.59,0h3.1a6.59,6.59,0,0,1,6.59,6.59v0a6.59,6.59,0,0,1-6.59,6.59H6.59A6.59,6.59,0,0,1,0,6.59v0A6.59,6.59,0,0,1,6.59,0Z" transform="translate(516.03 287.994)" fill="#707072"/>
    <path id="Rectángulo_351477" data-name="Rectángulo 351477" d="M5.511,0H37.429a5.513,5.513,0,0,1,5.513,5.513v0a5.513,5.513,0,0,1-5.513,5.513H5.511A5.511,5.511,0,0,1,0,5.515v0A5.511,5.511,0,0,1,5.511,0Z" transform="translate(497.431 287.116)" fill="#a2a2a2"/>
    <path id="Trazado_731271" data-name="Trazado 731271" d="M3791.331,1698.763a1.943,1.943,0,0,1,1.91,1.947v46.756a1.886,1.886,0,0,1-1.91,1.881h-6.445a1.876,1.876,0,0,1-1.9-1.881V1700.71a1.933,1.933,0,0,1,1.9-1.947Z" transform="translate(-3259.737 -1463.795)" fill="#a2a2a2"/>
    <path id="Trazado_731272" data-name="Trazado 731272" d="M169.259,1900.847a19.409,19.409,0,1,0,19.409,19.408,19.409,19.409,0,0,0-19.409-19.408m0,3.235a1.927,1.927,0,1,1-1.927,1.927,1.927,1.927,0,0,1,1.927-1.927m-14.246,18.1a1.927,1.927,0,1,1,1.927-1.927,1.928,1.928,0,0,1-1.927,1.927m2.81-13.364a1.927,1.927,0,1,1,0,2.726,1.927,1.927,0,0,1,0-2.726m2.725,22.873a1.927,1.927,0,1,1,0-2.726,1.928,1.928,0,0,1,0,2.726m8.711,4.737a1.927,1.927,0,1,1,1.927-1.927,1.927,1.927,0,0,1-1.927,1.927m0-6.346a9.827,9.827,0,1,1,9.827-9.827,9.827,9.827,0,0,1-9.827,9.827m11.436,1.609a1.927,1.927,0,1,1,0-2.725,1.926,1.926,0,0,1,0,2.725m0-20.147a1.927,1.927,0,1,1,0-2.726,1.927,1.927,0,0,1,0,2.726m4.737,8.711a1.927,1.927,0,1,1-1.927-1.927,1.928,1.928,0,0,1,1.927,1.927" transform="translate(-129.123 -1637.928)" fill="#fffcff"/>
    <path id="Trazado_731273" data-name="Trazado 731273" d="M328,1806.282a37.758,37.758,0,0,0-37.711-37.724v18.316a19.409,19.409,0,0,1,0,38.817v18.315A37.757,37.757,0,0,0,328,1806.282" transform="translate(-250.135 -1523.936)" fill="#676768"/>
    <path id="Trazado_731274" data-name="Trazado 731274" d="M55.1,1825.323a19.409,19.409,0,1,1,0-38.818h.018v-18.375h-.025a37.72,37.72,0,1,0,0,75.439h.025v-18.247H55.1" transform="translate(-14.967 -1523.569)" fill="#5b5b5b"/>
    <path id="Trazado_731275" data-name="Trazado 731275" d="M308.633,1752.16a12.691,12.691,0,0,1,1.536,4.623l3.839.507s-1.225-3.649-2.506-4.745Z" transform="translate(-265.944 -1509.807)" fill="#676768"/>
    <path id="Trazado_731276" data-name="Trazado 731276" d="M346.675,1757.859a12.69,12.69,0,0,1,.947,4.778l3.746.982s-.76-3.773-1.894-5.02Z" transform="translate(-298.724 -1514.717)" fill="#676768"/>
    <path id="Trazado_731277" data-name="Trazado 731277" d="M393.342,1771.341a12.4,12.4,0,0,1,.183,4.871l3.545,1.558s-.157-3.847-1.081-5.257Z" transform="translate(-338.936 -1526.334)" fill="#676768"/>
    <path id="Trazado_731278" data-name="Trazado 731278" d="M427.095,1787.684a12.69,12.69,0,0,1-.455,4.85l3.311,2.009s.348-3.833-.384-5.352Z" transform="translate(-367.629 -1540.417)" fill="#676768"/>
    <path id="Trazado_731279" data-name="Trazado 731279" d="M454.884,1807.281a12.69,12.69,0,0,1-1.056,4.755l3.034,2.406s.823-3.76.287-5.358Z" transform="translate(-391.056 -1557.303)" fill="#676768"/>
    <path id="Trazado_731280" data-name="Trazado 731280" d="M482.116,1833.194a12.4,12.4,0,0,1-1.709,4.565l2.67,2.8s1.339-3.61,1.03-5.268Z" transform="translate(-413.959 -1579.632)" fill="#676768"/>
    <path id="Trazado_731281" data-name="Trazado 731281" d="M504.068,1860.9a12.69,12.69,0,0,1-2.289,4.3l2.28,3.13s1.8-3.4,1.709-5.086Z" transform="translate(-432.375 -1603.507)" fill="#676768"/>
    <path id="Trazado_731282" data-name="Trazado 731282" d="M521.427,1889.428a12.69,12.69,0,0,1-2.808,3.98l1.872,3.39s2.209-3.152,2.33-4.833Z" transform="translate(-446.885 -1628.088)" fill="#676768"/>
    <path id="Trazado_731283" data-name="Trazado 731283" d="M539.133,1930.393a12.341,12.341,0,0,1-3.435,3.448l1.273,3.657s2.707-2.734,3.11-4.371Z" transform="translate(-461.602 -1663.387)" fill="#676768"/>
    <path id="Trazado_731284" data-name="Trazado 731284" d="M547.93,1964.291a12.684,12.684,0,0,1-3.861,2.97l.783,3.792s3.044-2.356,3.657-3.926Z" transform="translate(-468.815 -1692.596)" fill="#676768"/>
    <path id="Trazado_731285" data-name="Trazado 731285" d="M552.205,1997.852a12.691,12.691,0,0,1-4.2,2.465l.3,3.86s3.314-1.958,4.119-3.439Z" transform="translate(-472.206 -1721.516)" fill="#676768"/>
    <path id="Trazado_731286" data-name="Trazado 731286" d="M549.825,2043.6a12.4,12.4,0,0,1-4.54,1.774l-.306,3.86s3.582-1.412,4.61-2.749Z" transform="translate(-469.599 -1760.932)" fill="#676768"/>
    <path id="Trazado_731287" data-name="Trazado 731287" d="M541.374,2083.688a12.681,12.681,0,0,1-4.73,1.165l-.809,3.787s3.734-.932,4.928-2.123Z" transform="translate(-461.72 -1795.479)" fill="#676768"/>
    <path id="Trazado_731288" data-name="Trazado 731288" d="M529.277,2121.237a12.692,12.692,0,0,1-4.838.566l-1.275,3.656s3.822-.459,5.155-1.491Z" transform="translate(-450.801 -1827.834)" fill="#676768"/>
    <path id="Trazado_731289" data-name="Trazado 731289" d="M511.39,2160.868a12.4,12.4,0,0,1-4.873-.114l-1.771,3.444s3.85.078,5.313-.759Z" transform="translate(-434.931 -1861.885)" fill="#676768"/>
    <path id="Trazado_731290" data-name="Trazado 731290" d="M490.65,2191.892a12.684,12.684,0,0,1-4.813-.749l-2.207,3.182s3.805.58,5.366-.058Z" transform="translate(-416.736 -1888.071)" fill="#676768"/>
    <path id="Trazado_731291" data-name="Trazado 731291" d="M467.756,2218.138a12.689,12.689,0,0,1-4.682-1.343l-2.586,2.882s3.7,1.05,5.331.612Z" transform="translate(-396.794 -1910.175)" fill="#676768"/>
    <path id="Trazado_731292" data-name="Trazado 731292" d="M434.6,2247.248a12.368,12.368,0,0,1-4.406-2.076l-3.015,2.43s3.486,1.631,5.164,1.459Z" transform="translate(-368.094 -1934.626)" fill="#676768"/>
    <path id="Trazado_731293" data-name="Trazado 731293" d="M405.447,2266.8a12.7,12.7,0,0,1-4.1-2.635l-3.308,2.014s3.243,2.073,4.928,2.123Z" transform="translate(-342.987 -1950.995)" fill="#676768"/>
    <path id="Trazado_731294" data-name="Trazado 731294" d="M376.917,2281.792a12.689,12.689,0,0,1-3.736-3.126l-3.533,1.586s2.959,2.461,4.625,2.72Z" transform="translate(-318.52 -1963.488)" fill="#676768"/>
    <path id="Trazado_731295" data-name="Trazado 731295" d="M339.417,2295.295a12.4,12.4,0,0,1-3.2-3.678l-3.738,1.011s2.536,2.9,4.14,3.416Z" transform="translate(-286.492 -1974.648)" fill="#676768"/>
    <path id="Trazado_731296" data-name="Trazado 731296" d="M307.272,2301.743a12.689,12.689,0,0,1-2.689-4.061l-3.839.513s2.134,3.2,3.657,3.926Z" transform="translate(-259.146 -1979.874)" fill="#676768"/>
    <path id="Trazado_731297" data-name="Trazado 731297" d="M238,2297.861a12.4,12.4,0,0,1-1.533-4.627l-3.839-.509s1.223,3.651,2.5,4.748Z" transform="translate(-200.447 -1975.603)" fill="#5b5b5b"/>
    <path id="Trazado_731298" data-name="Trazado 731298" d="M202.584,2287.661a12.684,12.684,0,0,1-.915-4.784l-3.74-1.006s.735,3.778,1.861,5.033Z" transform="translate(-170.552 -1966.249)" fill="#5b5b5b"/>
    <path id="Trazado_731299" data-name="Trazado 731299" d="M170.218,2273.971a12.692,12.692,0,0,1-.311-4.861l-3.585-1.465s.258,3.84,1.219,5.226Z" transform="translate(-143.317 -1953.991)" fill="#5b5b5b"/>
    <path id="Trazado_731300" data-name="Trazado 731300" d="M129.167,2249.681a12.339,12.339,0,0,1,.511-4.841l-3.286-2.049s-.393,3.827.321,5.355Z" transform="translate(-108.817 -1932.576)" fill="#5b5b5b"/>
    <path id="Trazado_731301" data-name="Trazado 731301" d="M99.584,2226.752a12.689,12.689,0,0,1,1.143-4.735l-2.99-2.461s-.891,3.744-.384,5.352Z" transform="translate(-83.753 -1912.553)" fill="#5b5b5b"/>
    <path id="Trazado_731302" data-name="Trazado 731302" d="M74.031,2202.12a12.686,12.686,0,0,1,1.725-4.556l-2.659-2.815s-1.352,3.6-1.049,5.262Z" transform="translate(-62.044 -1891.178)" fill="#5b5b5b"/>
    <path id="Trazado_731303" data-name="Trazado 731303" d="M46.4,2168.036a12.4,12.4,0,0,1,2.422-4.23l-2.184-3.2s-1.9,3.347-1.865,5.033Z" transform="translate(-38.58 -1861.759)" fill="#5b5b5b"/>
    <path id="Trazado_731304" data-name="Trazado 731304" d="M27.917,2138.341a12.689,12.689,0,0,1,2.952-3.875l-1.746-3.457s-2.323,3.069-2.506,4.745Z" transform="translate(-22.935 -1836.255)" fill="#5b5b5b"/>
    <path id="Trazado_731305" data-name="Trazado 731305" d="M14.494,2109.2a12.689,12.689,0,0,1,3.412-3.476l-1.3-3.647s-2.688,2.755-3.078,4.395Z" transform="translate(-11.656 -1811.32)" fill="#5b5b5b"/>
    <path id="Trazado_731306" data-name="Trazado 731306" d="M4.624,2075.483a12.4,12.4,0,0,1,3.865-2.969l-.782-3.793s-3.046,2.355-3.661,3.925Z" transform="translate(-3.487 -1782.582)" fill="#5b5b5b"/>
    <path id="Trazado_731307" data-name="Trazado 731307" d="M.386,2043.132a12.688,12.688,0,0,1,4.217-2.437l-.279-3.863S1,2038.768.184,2040.244Z" transform="translate(-0.159 -1755.104)" fill="#5b5b5b"/>
    <path id="Trazado_731308" data-name="Trazado 731308" d="M0,2010.568a12.679,12.679,0,0,1,4.489-1.892l.205-3.867s-3.542,1.506-4.535,2.869Z" transform="translate(0 -1727.509)" fill="#5b5b5b"/>
    <path id="Trazado_731309" data-name="Trazado 731309" d="M2,1982.539a12.688,12.688,0,0,1,4.658-1.426l.6-3.826s-3.677,1.138-4.8,2.393Z" transform="translate(-1.727 -1703.795)" fill="#5b5b5b"/>
    <path id="Trazado_731310" data-name="Trazado 731310" d="M8.549,1948.96a12.694,12.694,0,0,1,4.8-.834l1.07-3.722s-3.79.67-5.064,1.775Z" transform="translate(-7.367 -1675.461)" fill="#5b5b5b"/>
    <path id="Trazado_731311" data-name="Trazado 731311" d="M23.063,1908.714a12.405,12.405,0,0,1,4.873-.067l1.642-3.507s-3.85.065-5.281.956Z" transform="translate(-19.873 -1641.626)" fill="#5b5b5b"/>
    <path id="Trazado_731312" data-name="Trazado 731312" d="M40.213,1877.356a12.687,12.687,0,0,1,4.838.569l2.087-3.262s-3.824-.438-5.36.258Z" transform="translate(-34.651 -1615.248)" fill="#5b5b5b"/>
    <path id="Trazado_731313" data-name="Trazado 731313" d="M60.5,1849.3a12.694,12.694,0,0,1,4.729,1.169l2.478-2.976s-3.739-.912-5.35-.413Z" transform="translate(-52.135 -1591.467)" fill="#5b5b5b"/>
    <path id="Trazado_731314" data-name="Trazado 731314" d="M87.086,1821.165a12.4,12.4,0,0,1,4.523,1.817l2.867-2.6s-3.578-1.424-5.242-1.154Z" transform="translate(-75.041 -1567.566)" fill="#5b5b5b"/>
    <path id="Trazado_731315" data-name="Trazado 731315" d="M115.284,1798.367a12.69,12.69,0,0,1,4.244,2.39l3.183-2.205s-3.359-1.879-5.045-1.829Z" transform="translate(-99.338 -1548.205)" fill="#5b5b5b"/>
    <path id="Trazado_731316" data-name="Trazado 731316" d="M144.068,1780.438a12.688,12.688,0,0,1,3.913,2.9l3.433-1.791s-3.1-2.283-4.777-2.444Z" transform="translate(-124.141 -1533.024)" fill="#5b5b5b"/>
    <path id="Trazado_731317" data-name="Trazado 731317" d="M181.738,1763.925a12.4,12.4,0,0,1,3.42,3.473l3.669-1.24s-2.711-2.735-4.344-3.152Z" transform="translate(-156.601 -1519.152)" fill="#5b5b5b"/>
    <path id="Trazado_731318" data-name="Trazado 731318" d="M220.428,1755.089a12.7,12.7,0,0,1,2.936,3.887l3.8-.75s-2.329-3.064-3.894-3.692Z" transform="translate(-189.939 -1511.852)" fill="#5b5b5b"/>
    <path id="Trazado_731319" data-name="Trazado 731319" d="M288.952,1754.647v3.9h2.515a21.382,21.382,0,0,0-2.515-3.9" transform="translate(-248.985 -1511.95)" fill="#676768"/>
    <path id="Trazado_731320" data-name="Trazado 731320" d="M266.7,1751.121l-2.9-.007a12.427,12.427,0,0,1,2.122,4.385h1.357v-3.9a3.282,3.282,0,0,0-.579-.481" transform="translate(-227.31 -1508.905)" fill="#5b5b5b"/>
    <path id="Trazado_731321" data-name="Trazado 731321" d="M270.467,2299.432a17.767,17.767,0,0,0,2.557,3.864v-3.884Z" transform="translate(-233.057 -1981.365)" fill="#5b5b5b"/>
    <path id="Trazado_731322" data-name="Trazado 731322" d="M290.256,2299.337l-1.3.01v3.883a3.027,3.027,0,0,0,.571.488l2.895-.016a12.688,12.688,0,0,1-2.161-4.365" transform="translate(-248.985 -1981.3)" fill="#676768"/>
    <path id="Trazado_731323" data-name="Trazado 731323" d="M964.547,675.92s3.116,7.224,1.133,11.756-3.753,5.028-3.753,5.028-1.2,1.2.425,1.558,9.7-7.294,6.445-18.838Z" transform="translate(-828.507 -582.001)" fill="#7b7b7b"/>
    <path id="Rectángulo_351478" data-name="Rectángulo 351478" d="M1.087,0H8.229A1.087,1.087,0,0,1,9.316,1.087v0A1.087,1.087,0,0,1,8.229,2.174H1.087A1.087,1.087,0,0,1,0,1.087v0A1.087,1.087,0,0,1,1.087,0Z" transform="translate(106.992 94.986)" fill="#676768"/>
    <path id="Trazado_731324" data-name="Trazado 731324" d="M1049.739,643.477l4.755.212V648.8h5.752s.177.1.177.47a.709.709,0,0,1-.195.536s-6.887.4-5.9,5.22,6.586,17.065,6.02,27.83h-12.11s-.146-28.191-5.458-34.777,6.954-4.607,6.954-4.607" transform="translate(-897.401 -554.232)" fill="#676768"/>
    <path id="Trazado_731325" data-name="Trazado 731325" d="M725.116,611.377a.98.98,0,0,1-.956.983h-3.612a.984.984,0,0,1,0-1.967h3.612a.98.98,0,0,1,.956.983" transform="translate(-620.06 -525.966)" fill="#7b7b7b"/>
    <path id="Trazado_731326" data-name="Trazado 731326" d="M725.237,641.261a.932.932,0,0,1-.932.932h-3.726a.932.932,0,1,1,0-1.863h3.726a.931.931,0,0,1,.932.931" transform="translate(-620.108 -551.761)" fill="#7b7b7b"/>
    <path id="Trazado_731327" data-name="Trazado 731327" d="M910.064,557.786l2.337-4.993,5.949,2.443-2.656,4.993Z" transform="translate(-784.187 -476.333)" fill="#676768"/>
    <path id="Trazado_731328" data-name="Trazado 731328" d="M920.028,245.585v.01l-.028-.013L909.27,267.147s-1.806,1.806.744,6.267,6.626,8.616,3.439,14.99l2.426,1.208c2.918-6.5,8.861-6.211,13.93-7.061s5.323-3.391,5.323-3.391l9.906-21.956Z" transform="translate(-782.968 -211.613)" fill="#7b7b7b"/>
    <path id="Rectángulo_351479" data-name="Rectángulo 351479" d="M7.452,0H37.99a7.453,7.453,0,0,1,7.453,7.453v0a7.453,7.453,0,0,1-7.453,7.453H7.453A7.453,7.453,0,0,1,0,7.453v0A7.452,7.452,0,0,1,7.452,0Z" transform="translate(111.65 79.666)" fill="#676768"/>
    <path id="Rectángulo_351480" data-name="Rectángulo 351480" d="M4.14,0h0A4.141,4.141,0,0,1,8.281,4.141v9.316a4.14,4.14,0,0,1-4.14,4.14h0A4.141,4.141,0,0,1,0,13.457V4.14A4.14,4.14,0,0,1,4.14,0Z" transform="translate(102.748 79.666)" fill="#676768"/>
    <path id="Rectángulo_351481" data-name="Rectángulo 351481" d="M2.794,0h32.3a2.795,2.795,0,0,1,2.795,2.795v0A2.795,2.795,0,0,1,35.091,5.59H2.795A2.795,2.795,0,0,1,0,2.8v0A2.794,2.794,0,0,1,2.794,0Z" transform="translate(114.963 84.842)" fill="#7b7b7b"/>
    <path id="Trazado_731329" data-name="Trazado 731329" d="M3568.686,856.984h-31.977v2.771h12.666a4.552,4.552,0,1,1,0,9.1h-12.666v45.518h31.977a8.8,8.8,0,0,0,8.8-8.8v-39.8a8.8,8.8,0,0,0-8.8-8.8" transform="translate(-3047.523 -738.448)" fill="#454545"/>
    <path id="Trazado_731330" data-name="Trazado 731330" d="M3270.03,868.859a4.552,4.552,0,1,1,0-9.1h12.665v-2.771h-31.977a8.8,8.8,0,0,0-8.8,8.8v39.8a8.8,8.8,0,0,0,8.8,8.8h31.977V868.859Z" transform="translate(-2793.509 -738.448)" fill="#303030"/>
    <path id="Trazado_731331" data-name="Trazado 731331" d="M3454.506,1006.111a15.719,15.719,0,1,1-15.719-15.719,15.718,15.718,0,0,1,15.719,15.719" transform="translate(-2949.601 -853.404)" fill="#f24932"/>
    <path id="Trazado_731332" data-name="Trazado 731332" d="M3322.306,856.844a1.794,1.794,0,0,1-1.794,1.795h-4.68a1.8,1.8,0,0,1-1.794-1.795v-8.473a1.8,1.8,0,0,1,1.794-1.794h4.68a1.794,1.794,0,0,1,1.794,1.794Z" transform="translate(-2855.651 -729.481)" fill="#fdd116"/>
    <path id="Trazado_731333" data-name="Trazado 731333" d="M3707.87,856.844a1.794,1.794,0,0,1-1.794,1.795h-4.68a1.8,1.8,0,0,1-1.794-1.795v-8.473a1.8,1.8,0,0,1,1.794-1.794h4.68a1.794,1.794,0,0,1,1.794,1.794Z" transform="translate(-3187.885 -729.481)" fill="#fdd116"/>
    <path id="Trazado_731334" data-name="Trazado 731334" d="M3314.721,1262.051a.77.77,0,0,1-.77.771h-7.831a.772.772,0,0,1-.772-.771v-1.94a.772.772,0,0,1,.772-.771h7.831a.771.771,0,0,1,.77.771Z" transform="translate(-2848.163 -1085.152)" fill="#fdd116"/>
    <path id="Trazado_731335" data-name="Trazado 731335" d="M3709.678,1262.051a.771.771,0,0,1-.771.771h-7.831a.77.77,0,0,1-.77-.771v-1.94a.771.771,0,0,1,.77-.771h7.831a.771.771,0,0,1,.771.771Z" transform="translate(-3188.492 -1085.152)" fill="#fdd116"/>
    <path id="Trazado_731336" data-name="Trazado 731336" d="M3483.369,1045.8h-5.419v6.772h5.418v5.42h2.709v-17.609h-2.708Z" transform="translate(-2996.891 -896.482)" fill="#ececec"/>
    <path id="Trazado_731337" data-name="Trazado 731337" d="M3539.416,1057.993v-5.42h5.421V1045.8h-5.418v-5.416h-2.709v17.609Z" transform="translate(-3047.523 -896.482)" fill="#fff"/>
    <rect id="Rectángulo_351482" data-name="Rectángulo 351482" width="70.575" height="13.103" transform="translate(452.888 396.383)" fill="#fffcff"/>
    <path id="Trazado_731474" data-name="Trazado 731474" d="M0,0H20.731V31.7H0Z" transform="translate(476.77 399.448) rotate(-0.15)" fill="#ffa031"/>
    <path id="Trazado_731338" data-name="Trazado 731338" d="M3330.232,2810.836l-4.013.01-.01-4.036-15.491.041.01,4.036-37.981.1-.01-4.1-15.492.041.011,4.1-4.014.01,0,.981,76.992-.2Z" transform="translate(-2803.263 -2418.582)" fill="#cb1c19"/>
    <path id="Trazado_731339" data-name="Trazado 731339" d="M3253.26,2843.209l.108,41.05,76.992-.2-.108-41.049Zm17.354,10.288-11.134.03-.007-2.687,11.135-.029Zm11.769,24.674,8.4-13.7-6.545,1.181,5.331-13.547,6.567-.018-4.96,8.817,6.949.054Zm41.705-24.814-4.225.011.012,4.224-2.687.007-.011-4.224-4.224.011-.008-2.687,4.224-.011-.011-4.225,2.687-.007.01,4.225,4.225-.011Z" transform="translate(-2803.28 -2449.771)" fill="#7b7b7b"/>
    <rect id="Rectángulo_351484" data-name="Rectángulo 351484" width="83.67" height="10.205" transform="translate(446.747 433.819) rotate(-0.151)" fill="#676768"/>
    <path id="Trazado_731340" data-name="Trazado 731340" d="M3316.489,2837.323a1.545,1.545,0,0,1-1.541,1.549l-79.139.208a1.545,1.545,0,0,1-.008-3.09l79.14-.208a1.544,1.544,0,0,1,1.549,1.541" transform="translate(-2786.908 -2443.545)" fill="#676768"/>
    <path id="Trazado_731341" data-name="Trazado 731341" d="M182.507,2734.255a16.423,16.423,0,1,1-16.423-16.423,16.423,16.423,0,0,1,16.423,16.423" transform="translate(-128.96 -2341.91)" fill="#fff"/>
    <path id="Trazado_731342" data-name="Trazado 731342" d="M251.508,2816.308c2.47,1.286,6.87,6.67,6.87,6.67s-6.954-.479-9.424-1.766-2.444-2.668-1.738-4.022,1.821-2.168,4.292-.882" transform="translate(-212.666 -2426.208)" fill="#3d444e"/>
    <path id="Trazado_731343" data-name="Trazado 731343" d="M263.124,2743.308a.9.9,0,1,1-1.81,0v-2.346a.9.9,0,1,1,1.81,0Z" transform="translate(-225.17 -2361.061)" fill="#3d444e"/>
    <path id="Trazado_731344" data-name="Trazado 731344" d="M263.124,2907.992a.9.9,0,1,1-1.81,0v-2.346a.9.9,0,1,1,1.81,0Z" transform="translate(-225.17 -2502.966)" fill="#3d444e"/>
    <path id="Trazado_731345" data-name="Trazado 731345" d="M336.078,2832.692a.9.9,0,1,1,0-1.81h2.346a.9.9,0,0,1,0,1.81Z" transform="translate(-288.813 -2439.323)" fill="#3d444e"/>
    <path id="Trazado_731346" data-name="Trazado 731346" d="M171.394,2832.692a.9.9,0,1,1,0-1.81h2.346a.9.9,0,1,1,0,1.81Z" transform="translate(-146.908 -2439.323)" fill="#3d444e"/>
    <path id="Trazado_731347" data-name="Trazado 731347" d="M469.244,2708.962a80.819,80.819,0,0,0-3.522-23.2c-.6-1.908-1.277-3.726-2.013-5.438-4.215-9.808-10.474-16.173-17.5-16.612v-.027H415.249v0c-13.655.189-24.694,20.8-24.694,46.205a74.156,74.156,0,0,0,5.389,28.719c.139-.012.277-.022.414-.036,3.927-.389,6.853-1.685,8.7-3.851a10.411,10.411,0,0,0,2.054-4c.081-.29.151-.58.21-.865-3.379-4.462-5.574-11.67-5.574-19.8,0-13.547,6.087-24.529,13.6-24.529,6.887,0,12.578,9.237,13.474,21.218q.082,1.106.11,2.24c0,.035,0,.07,0,.105.007.32.011.642.011.965q0,.76-.026,1.509c0,.041,0,.082,0,.123q-.051,1.4-.186,2.746c-1.144,11.458-6.7,20.151-13.381,20.151a7.719,7.719,0,0,1-1.363-.122c-.016.043-.031.085-.048.128a17.594,17.594,0,0,1-2.977,5.076,18.856,18.856,0,0,1-11.15,6.175c4.158,6.243,9.421,10.05,15.159,10.248l0,.162h28.445a11.172,11.172,0,0,0,2.014.178c6.317,0,12.06-4.789,16.323-12.6a49.321,49.321,0,0,0,2.534-5.438,75.564,75.564,0,0,0,4.859-23.991q.1-2.145.1-4.343,0-.549-.007-1.1m-9.746-28.138h3.879c.594,1.406,1.149,2.894,1.656,4.435H459.5a2.221,2.221,0,0,1,0-4.435m-17.564-5.1a2.719,2.719,0,0,1-2.719,2.719h-5.548a40.968,40.968,0,0,0-3.241-5.438h8.789a2.719,2.719,0,0,1,2.719,2.719m-5.17,75.372H426.712a30.586,30.586,0,0,0,4.481-5.438h5.57a2.719,2.719,0,1,1,0,5.438m10.939-24.217h-9.118q.563-2.643.952-5.438H447.7a2.719,2.719,0,1,1,0,5.438m.749-24.217h-8.436q-.235-2.777-.643-5.438h9.079a2.719,2.719,0,1,1,0,5.438m13,40.668h-3.8a2.221,2.221,0,0,1,0-4.435h5.891a48.708,48.708,0,0,1-2.089,4.435m7.213-29.43h-5.514a2.221,2.221,0,0,1,0-4.434h5.594q0,.3,0,.594c0,1.261-.028,2.551-.083,3.841" transform="translate(-336.536 -2295.251)" fill="#3d3d3d"/>
    <path id="Trazado_731348" data-name="Trazado 731348" d="M208.971,2743.574a2.6,2.6,0,0,0-.3-.018c-4.236,0-13.091,1.341-15.616,3.985-4.524,4.737-4.247,11.917-4.232,12.22a2.734,2.734,0,0,0,.032.3,17.271,17.271,0,0,1-.46,6.561,11.683,11.683,0,0,1-2.308,4.474c-2.07,2.43-5.27,3.864-9.53,4.286-.884.088-1.81.135-2.785.135-6.08,0-10.7-1.563-13.743-4.646a14.966,14.966,0,0,1-4-9.716c0-.021,0-.042,0-.063v-11.831h1.414a1.781,1.781,0,0,0,1.781-1.781v-6.9a18.258,18.258,0,1,0-11.579-.1v7a1.781,1.781,0,0,0,1.782,1.781h1.413v11.811a20.05,20.05,0,0,0,5.434,13.378c4.051,4.151,9.94,6.257,17.5,6.257a31.161,31.161,0,0,0,5.38-.441,17.8,17.8,0,0,0,10.922-5.847,16.335,16.335,0,0,0,2.763-4.716,22.037,22.037,0,0,0,1.168-10.285c-.006-.751.074-5.436,2.8-8.295,1.53-1.6,9.061-2.38,11.863-2.38.08,0,.159,0,.237-.012q.108-1.53.109-3.114,0-1.033-.047-2.045m-61.328-9.417a12.458,12.458,0,1,1,5.946,1.509,12.451,12.451,0,0,1-5.946-1.509" transform="translate(-116.611 -2330.812)" fill="#7b7b7b"/>
    <path id="Trazado_731349" data-name="Trazado 731349" d="M359.058,893.689a15.1,15.1,0,0,0-30.193,0v12.94h30.193Z" transform="translate(-283.377 -757.091)" fill="#fff"/>
    <rect id="Rectángulo_351485" data-name="Rectángulo 351485" width="30.193" height="14.481" transform="translate(45.488 184.376)" fill="#fff"/>
    <rect id="Rectángulo_351486" data-name="Rectángulo 351486" width="30.193" height="34.838" transform="translate(45.488 149.538)" fill="#ffa031"/>
    <path id="Trazado_731350" data-name="Trazado 731350" d="M351.444,1428.073a1.316,1.316,0,0,1-1.316,1.317H319.7a1.316,1.316,0,0,1,0-2.633h30.429a1.317,1.317,0,0,1,1.316,1.316" transform="translate(-274.345 -1229.412)" fill="#c4c4c6"/>
    <path id="Trazado_731351" data-name="Trazado 731351" d="M354.532,970.782a1.27,1.27,0,0,1-1.272,1.271H323.919a1.269,1.269,0,0,1,0-2.539H353.26a1.271,1.271,0,0,1,1.272,1.268" transform="translate(-278.024 -835.414)" fill="#c4c4c6"/>
    <path id="Trazado_731352" data-name="Trazado 731352" d="M418.138,797.136l.234-11.078a.636.636,0,0,0-.637-.636h-6.192a.637.637,0,0,0-.637.636l.235,11.078a.637.637,0,0,0,.636.637l2.862.065,2.862-.065a.637.637,0,0,0,.637-.637" transform="translate(-354.071 -676.785)" fill="#fff"/>
    <path id="Trazado_731353" data-name="Trazado 731353" d="M424.529,794.855a2.556,2.556,0,1,1-2.555-2.556,2.555,2.555,0,0,1,2.555,2.556" transform="translate(-361.406 -682.71)" fill="#736f6e"/>
    <path id="Trazado_731354" data-name="Trazado 731354" d="M435.911,808.411a.379.379,0,1,1-.379-.38.379.379,0,0,1,.379.38" transform="translate(-374.964 -696.266)" fill="#313131"/>
    <path id="Trazado_731355" data-name="Trazado 731355" d="M3012.414,3358.048c.1-2.019.458-4.02.418-6.048a11.013,11.013,0,0,0-1.486-5.892,9.087,9.087,0,0,0-4.706-3.564,16.974,16.974,0,0,0-10.088.149l.374,2.333a14.721,14.721,0,0,1,8.211-.485,7.444,7.444,0,0,1,3.827,2.288,7.336,7.336,0,0,1,1.494,4.257,38.807,38.807,0,0,1-.339,5.972,54.614,54.614,0,0,0-.075,6.785c.161,4.37.53,9.124,2.256,13.2a27.751,27.751,0,0,0,3.489,5.979l1.736-1.64a25.321,25.321,0,0,1-2.517-4.081c-1.86-3.8-2.347-8.213-2.574-12.391a65.374,65.374,0,0,1-.02-6.858" transform="translate(-2582.08 -2879.61)" fill="#424143"/>
    <rect id="Rectángulo_351487" data-name="Rectángulo 351487" width="8.819" height="4.367" transform="translate(403.246 465.449)" fill="#424143"/>
    <path id="Trazado_731356" data-name="Trazado 731356" d="M2784.766,3331.794a3.832,3.832,0,0,0-.138,3.078.841.841,0,0,0,.615.267s2.324-.9,13.994-.824c.316,0,.687.48.082.864-2.047,1.3-8.294,3.611-10.512,4.549a1.653,1.653,0,0,0-.97,1.051,10.169,10.169,0,0,0-.189,1.926.744.744,0,0,0,1.08.645c2.7-1.52,6.814-4.286,12.249-6.132,2.724-.888,3.708,2.188,4.569-.607.328-.125-.677-5.088-.677-5.088,0-.465-.378.032-.844.032,0,0-10.409.227-17.761-.265-1-.066-.981-.012-1.5.507" transform="translate(-2399.243 -2870.494)" fill="#424143"/>
    <path id="Trazado_731357" data-name="Trazado 731357" d="M2809.764,3343.9c.521-.294,1.092-.63,1.712-1a55.078,55.078,0,0,1,10.562-5.144,3.381,3.381,0,0,1,1.052-.175,3.83,3.83,0,0,1,1.593.393l.22.1a2.19,2.19,0,0,0,.8.268c.237,0,.52-.132.82-1.111l.018-.06.03-.012a25.316,25.316,0,0,0-.643-4.54c.047-.021.093-.041.135-.061.062-.028.149-.07.145-.09a.415.415,0,0,1,.014.114,28.113,28.113,0,0,1,.725,4.954l-.031.012-.017.06c-.3.978-.585,1.111-.821,1.111a2.193,2.193,0,0,1-.8-.27l-.219-.1a3.834,3.834,0,0,0-1.6-.391,3.385,3.385,0,0,0-1.05.174,54.951,54.951,0,0,0-10.562,5.141c-.62.37-1.191.708-1.713,1a.525.525,0,0,1-.265.069.633.633,0,0,1-.443-.191.642.642,0,0,1-.139-.224.614.614,0,0,0,.207.04.527.527,0,0,0,.265-.071" transform="translate(-2420.72 -2871.533)" fill="#424143"/>
    <path id="Trazado_731358" data-name="Trazado 731358" d="M2935.967,3344a.8.8,0,0,0,.8.8h7.351a.8.8,0,0,0,.8-.8v-3.675a.8.8,0,0,0-.8-.8h-7.351a.8.8,0,0,0-.8.8Z" transform="translate(-2529.874 -2877.608)" fill="#424143"/>
    <g id="Grupo_1033880" data-name="Grupo 1033880" transform="translate(126.495 204.815)">
      <g id="Grupo_1033879" data-name="Grupo 1033879" clip-path="url(#clip-path-2)">
        <path id="Trazado_735680" data-name="Trazado 735680" d="M0,0H228.116V93.908H0Z" transform="translate(11.6)" fill="#4db1f0"/>
        <g id="Grupo_1033878" data-name="Grupo 1033878">
          <g id="Grupo_1033877" data-name="Grupo 1033877" clip-path="url(#clip-path-2)">
            <path id="Trazado_735655" data-name="Trazado 735655" d="M935.47,203.589s3.512,1.387,3.789,4.252v30.871l-3.882,4.252-7.025-8.873Z" transform="translate(-624.26 -136.901)" fill="#99601d"/>
            <rect id="Rectángulo_352972" data-name="Rectángulo 352972" width="305.387" height="25.511" transform="translate(5.083 93.678)" fill="#5c5963"/>
            <rect id="Rectángulo_352973" data-name="Rectángulo 352973" width="305.387" height="4.067" transform="translate(5.083 115.121)" fill="#413f47"/>
            <rect id="Rectángulo_352974" data-name="Rectángulo 352974" width="4.321" height="28.006" transform="translate(5.083 101.257)" fill="#5c5963"/>
            <path id="Trazado_735656" data-name="Trazado 735656" d="M801.329,100.878H747.48V163.09l24.54.039c16.083.277,21.142,11.877,21.142,11.877h20.682V134.522Z" transform="translate(-502.634 -67.834)" fill="#ffa031"/>
            <path id="Trazado_735657" data-name="Trazado 735657" d="M820.28,132.842h36.138l-8.32-22.367H820.28Z" transform="translate(-551.588 -74.288)" fill="#d2e1f1"/>
            <path id="Trazado_735658" data-name="Trazado 735658" d="M747.479,80.242h59.406c-2.309-8.509-11.343-10.121-11.343-10.121H747.479Z" transform="translate(-502.633 -47.152)" fill="#99601d"/>
            <path id="Trazado_735659" data-name="Trazado 735659" d="M783.711,329.778a23.477,23.477,0,1,0-23.477,23.477,23.477,23.477,0,0,0,23.477-23.477" transform="translate(-495.423 -205.968)" fill="#312e37"/>
            <path id="Trazado_735660" data-name="Trazado 735660" d="M776.931,331.132a15.343,15.343,0,1,0,15.343,15.343,15.343,15.343,0,0,0-15.343-15.343m0,27.636a12.293,12.293,0,1,1,12.293-12.293,12.293,12.293,0,0,1-12.293,12.293" transform="translate(-512.121 -222.666)" fill="#fff"/>
            <path id="Trazado_735661" data-name="Trazado 735661" d="M783.193,340.444a12.293,12.293,0,1,0,12.293,12.293,12.293,12.293,0,0,0-12.293-12.293" transform="translate(-518.382 -228.927)" fill="#5c5963"/>
            <path id="Trazado_735662" data-name="Trazado 735662" d="M803.029,367.442a5.13,5.13,0,1,0-5.13,5.13,5.13,5.13,0,0,0,5.13-5.13" transform="translate(-533.088 -243.632)" fill="#fff"/>
            <path id="Trazado_735663" data-name="Trazado 735663" d="M296.679,329.778A23.477,23.477,0,1,0,273.2,353.255a23.477,23.477,0,0,0,23.477-23.477" transform="translate(-167.925 -205.968)" fill="#312e37"/>
            <path id="Trazado_735664" data-name="Trazado 735664" d="M289.9,331.132a15.343,15.343,0,1,0,15.343,15.343A15.343,15.343,0,0,0,289.9,331.132m0,27.636a12.293,12.293,0,1,1,12.293-12.293A12.293,12.293,0,0,1,289.9,358.768" transform="translate(-184.621 -222.666)" fill="#fff"/>
            <path id="Trazado_735665" data-name="Trazado 735665" d="M296.16,340.444a12.293,12.293,0,1,0,12.293,12.293,12.293,12.293,0,0,0-12.293-12.293" transform="translate(-190.883 -228.927)" fill="#5c5963"/>
            <path id="Trazado_735666" data-name="Trazado 735666" d="M316,367.442a5.13,5.13,0,1,0-5.13,5.13,5.13,5.13,0,0,0,5.13-5.13" transform="translate(-205.588 -243.632)" fill="#fff"/>
            <path id="Trazado_735667" data-name="Trazado 735667" d="M108.751,329.778a23.477,23.477,0,1,0-23.477,23.477,23.477,23.477,0,0,0,23.477-23.477" transform="translate(-41.555 -205.968)" fill="#312e37"/>
            <path id="Trazado_735668" data-name="Trazado 735668" d="M101.97,331.132a15.343,15.343,0,1,0,15.343,15.343,15.343,15.343,0,0,0-15.343-15.343m0,27.636a12.293,12.293,0,1,1,12.293-12.293,12.293,12.293,0,0,1-12.293,12.293" transform="translate(-58.251 -222.666)" fill="#fff"/>
            <path id="Trazado_735669" data-name="Trazado 735669" d="M108.232,340.444a12.293,12.293,0,1,0,12.293,12.293,12.293,12.293,0,0,0-12.293-12.293" transform="translate(-64.513 -228.927)" fill="#5c5963"/>
            <path id="Trazado_735670" data-name="Trazado 735670" d="M128.068,367.442a5.13,5.13,0,1,0-5.13,5.13,5.13,5.13,0,0,0,5.13-5.13" transform="translate(-79.219 -243.632)" fill="#fff"/>
            <path id="Trazado_735671" data-name="Trazado 735671" d="M750.6,291.9a28.222,28.222,0,0,0-28.169,27.269h4.739a23.447,23.447,0,0,1,46.86,0h4.739A28.221,28.221,0,0,0,750.6,291.9" transform="translate(-485.791 -196.286)" fill="#413f47"/>
            <path id="Trazado_735672" data-name="Trazado 735672" d="M263.568,291.9a28.222,28.222,0,0,0-28.17,27.269h4.74a23.447,23.447,0,0,1,46.861,0h4.74a28.222,28.222,0,0,0-28.17-27.269" transform="translate(-158.291 -196.286)" fill="#413f47"/>
            <path id="Trazado_735673" data-name="Trazado 735673" d="M75.64,291.9a28.222,28.222,0,0,0-28.169,27.269H52.21a23.447,23.447,0,0,1,46.861,0h4.74A28.222,28.222,0,0,0,75.64,291.9" transform="translate(-31.921 -196.286)" fill="#413f47"/>
            <path id="Trazado_735674" data-name="Trazado 735674" d="M820.28,110.475v22.367L848.1,110.475Z" transform="translate(-551.588 -74.288)" fill="#89d7f9"/>
            <line id="Línea_2773" data-name="Línea 2773" x2="66.295" transform="translate(244.892 82.956)" fill="none" stroke="#c93d06" stroke-miterlimit="10" stroke-width="1"/>
            <line id="Línea_2774" data-name="Línea 2774" y2="63.291" transform="translate(264.071 31.865)" fill="none" stroke="#c93d06" stroke-miterlimit="10" stroke-width="1"/>
            <path id="Trazado_735675" data-name="Trazado 735675" d="M833.85,227.964a1.984,1.984,0,0,0-2.08-1.872h-7.585a1.882,1.882,0,1,0,0,3.743h7.585a1.984,1.984,0,0,0,2.08-1.872" transform="translate(-552.815 -152.033)" fill="#fff"/>
            <path id="Trazado_735676" data-name="Trazado 735676" d="M772.6,112.075c0-.613-.689-1.109-1.539-1.109h-7.02c-.85,0-1.539.5-1.539,1.109v19.618c0,.613.689,1.109,1.539,1.109h7.02c.85,0,1.539-.5,1.539-1.109Z" transform="translate(-512.737 -74.618)" fill="#99601d"/>
            <rect id="Rectángulo_352975" data-name="Rectángulo 352975" width="5.13" height="14.28" transform="translate(0 110.685)" fill="#f5570b"/>
            <rect id="Rectángulo_352976" data-name="Rectángulo 352976" width="57.953" height="22.83" transform="translate(158.887 101.719)" fill="#c9c8cc"/>
            <rect id="Rectángulo_352977" data-name="Rectángulo 352977" width="57.953" height="8.041" transform="translate(158.887 116.508)" fill="#6a6972"/>
            <rect id="Rectángulo_352978" data-name="Rectángulo 352978" width="57.953" height="6.932" transform="translate(158.887 101.719)" fill="#85838c"/>
            <rect id="Rectángulo_352979" data-name="Rectángulo 352979" width="3.42" height="22.83" transform="translate(191.56 101.719)" fill="#413f47"/>
            <rect id="Rectángulo_352980" data-name="Rectángulo 352980" width="3.42" height="22.83" transform="translate(206.257 101.719)" fill="#413f47"/>
            <rect id="Rectángulo_352981" data-name="Rectángulo 352981" width="3.997" height="81.615" transform="translate(21.218 5.915)" fill="#6ab0c6"/>
            <rect id="Rectángulo_352982" data-name="Rectángulo 352982" width="3.997" height="81.615" transform="translate(34.163 5.915)" fill="#6ab0c6"/>
            <rect id="Rectángulo_352983" data-name="Rectángulo 352983" width="3.997" height="81.615" transform="translate(47.109 5.915)" fill="#6ab0c6"/>
            <rect id="Rectángulo_352984" data-name="Rectángulo 352984" width="3.997" height="81.615" transform="translate(60.055 5.915)" fill="#6ab0c6"/>
            <rect id="Rectángulo_352985" data-name="Rectángulo 352985" width="3.997" height="81.615" transform="translate(73 5.915)" fill="#6ab0c6"/>
            <rect id="Rectángulo_352986" data-name="Rectángulo 352986" width="3.997" height="81.615" transform="translate(85.946 5.915)" fill="#6ab0c6"/>
            <rect id="Rectángulo_352987" data-name="Rectángulo 352987" width="3.997" height="81.615" transform="translate(98.892 5.915)" fill="#6ab0c6"/>
            <rect id="Rectángulo_352988" data-name="Rectángulo 352988" width="3.997" height="81.615" transform="translate(111.838 5.915)" fill="#6ab0c6"/>
            <rect id="Rectángulo_352989" data-name="Rectángulo 352989" width="3.997" height="81.615" transform="translate(124.783 5.915)" fill="#6ab0c6"/>
            <rect id="Rectángulo_352990" data-name="Rectángulo 352990" width="3.997" height="81.615" transform="translate(137.729 5.915)" fill="#6ab0c6"/>
            <rect id="Rectángulo_352991" data-name="Rectángulo 352991" width="3.997" height="81.615" transform="translate(150.675 5.915)" fill="#6ab0c6"/>
            <rect id="Rectángulo_352992" data-name="Rectángulo 352992" width="3.997" height="81.615" transform="translate(163.621 5.915)" fill="#6ab0c6"/>
            <rect id="Rectángulo_352993" data-name="Rectángulo 352993" width="3.997" height="81.615" transform="translate(176.566 5.915)" fill="#6ab0c6"/>
            <rect id="Rectángulo_352994" data-name="Rectángulo 352994" width="3.997" height="81.615" transform="translate(189.512 5.915)" fill="#6ab0c6"/>
            <rect id="Rectángulo_352995" data-name="Rectángulo 352995" width="3.997" height="81.615" transform="translate(202.458 5.915)" fill="#6ab0c6"/>
            <rect id="Rectángulo_352996" data-name="Rectángulo 352996" width="3.997" height="81.615" transform="translate(215.404 5.915)" fill="#6ab0c6"/>
            <rect id="Rectángulo_352997" data-name="Rectángulo 352997" width="3.997" height="81.615" transform="translate(228.349 5.915)" fill="#6ab0c6"/>
            <rect id="Rectángulo_352998" data-name="Rectángulo 352998" width="3.997" height="81.615" transform="translate(19.946 5.915)" fill="#d2e1f1"/>
            <rect id="Rectángulo_352999" data-name="Rectángulo 352999" width="3.997" height="81.615" transform="translate(32.891 5.915)" fill="#d2e1f1"/>
            <rect id="Rectángulo_353000" data-name="Rectángulo 353000" width="3.997" height="81.615" transform="translate(45.837 5.915)" fill="#d2e1f1"/>
            <rect id="Rectángulo_353001" data-name="Rectángulo 353001" width="3.997" height="81.615" transform="translate(58.783 5.915)" fill="#d2e1f1"/>
            <rect id="Rectángulo_353002" data-name="Rectángulo 353002" width="3.997" height="81.615" transform="translate(71.729 5.915)" fill="#d2e1f1"/>
            <rect id="Rectángulo_353003" data-name="Rectángulo 353003" width="3.997" height="81.615" transform="translate(84.674 5.915)" fill="#d2e1f1"/>
            <rect id="Rectángulo_353004" data-name="Rectángulo 353004" width="3.997" height="81.615" transform="translate(97.62 5.915)" fill="#d2e1f1"/>
            <rect id="Rectángulo_353005" data-name="Rectángulo 353005" width="3.997" height="81.615" transform="translate(110.566 5.915)" fill="#d2e1f1"/>
            <rect id="Rectángulo_353006" data-name="Rectángulo 353006" width="3.997" height="81.615" transform="translate(123.512 5.915)" fill="#d2e1f1"/>
            <rect id="Rectángulo_353007" data-name="Rectángulo 353007" width="3.997" height="81.615" transform="translate(136.457 5.915)" fill="#d2e1f1"/>
            <rect id="Rectángulo_353008" data-name="Rectángulo 353008" width="3.997" height="81.615" transform="translate(149.403 5.915)" fill="#d2e1f1"/>
            <rect id="Rectángulo_353009" data-name="Rectángulo 353009" width="3.997" height="81.615" transform="translate(162.349 5.915)" fill="#d2e1f1"/>
            <rect id="Rectángulo_353010" data-name="Rectángulo 353010" width="3.997" height="81.615" transform="translate(175.295 5.915)" fill="#d2e1f1"/>
            <rect id="Rectángulo_353011" data-name="Rectángulo 353011" width="3.997" height="81.615" transform="translate(188.24 5.915)" fill="#d2e1f1"/>
            <rect id="Rectángulo_353012" data-name="Rectángulo 353012" width="3.997" height="81.615" transform="translate(201.186 5.915)" fill="#d2e1f1"/>
            <rect id="Rectángulo_353013" data-name="Rectángulo 353013" width="3.997" height="81.615" transform="translate(214.132 5.915)" fill="#d2e1f1"/>
            <rect id="Rectángulo_353014" data-name="Rectángulo 353014" width="3.997" height="81.615" transform="translate(227.078 5.915)" fill="#d2e1f1"/>
            <g id="Grupo_1033876" data-name="Grupo 1033876" transform="translate(19.946 5.915)" opacity="0.8">
              <g id="Grupo_1033875" data-name="Grupo 1033875">
                <g id="Grupo_1033874" data-name="Grupo 1033874" clip-path="url(#clip-path-4)">
                  <path id="Trazado_735677" data-name="Trazado 735677" d="M270.521,18.059H60.892v4.085H272.02V18.059Z" transform="translate(-60.892 -18.059)" fill="#d2e1f1"/>
                </g>
              </g>
            </g>
            <path id="Trazado_735678" data-name="Trazado 735678" d="M44.1,268.647a.846.846,0,0,0-.807.881v2.2a.846.846,0,0,0,.807.881h.941a.846.846,0,0,0,.807-.881v-2.2a.846.846,0,0,0-.807-.881Z" transform="translate(-29.113 -180.648)" fill="#7ac1dd"/>
            <path id="Trazado_735679" data-name="Trazado 735679" d="M717.741,268.647a.846.846,0,0,0-.807.881v2.2a.846.846,0,0,0,.807.881h.941a.846.846,0,0,0,.807-.881v-2.2a.846.846,0,0,0-.807-.881Z" transform="translate(-482.094 -180.648)" fill="#7ac1dd"/>
          </g>
        </g>
      </g>
    </g>
  </g>
</svg>
