<svg xmlns="http://www.w3.org/2000/svg" xmlns:xlink="http://www.w3.org/1999/xlink" width="88" height="88" viewBox="0 0 88 88">
  <defs>
    <clipPath id="clip-path">
      <path id="Trazado_710239" data-name="Trazado 710239" d="M44,0A44,44,0,1,1,0,44,44,44,0,0,1,44,0Z" transform="translate(224 409)" fill="#d2e1f1"/>
    </clipPath>
  </defs>
  <g id="Grupo_1036337" data-name="Grupo 1036337" transform="translate(-221 -9173)">
    <g id="Grupo_1036240" data-name="Grupo 1036240" transform="translate(0 -41)">
      <g id="Grupo_1036336" data-name="Grupo 1036336">
        <g id="Grupo_1029735" data-name="Grupo 1029735" transform="translate(0 8802)">
          <g id="Grupo_1036335" data-name="Grupo 1036335">
            <g id="Grupo_1013412" data-name="Grupo 1013412" transform="translate(-3 3)">
              <path id="Trazado_710239-2" data-name="Trazado 710239" d="M44,0A44,44,0,1,1,0,44,44,44,0,0,1,44,0Z" transform="translate(224 409)" fill="#d2e1f1"/>
            </g>
          </g>
        </g>
        <g id="Grupo_1036334" data-name="Grupo 1036334">
          <g id="Grupo_1031748" data-name="Grupo 1031748" transform="translate(-3 8805)">
            <g id="Enmascarar_grupo_1026472" data-name="Enmascarar grupo 1026472" clip-path="url(#clip-path)">
              <g id="documentacion" transform="translate(233.938 418.02)">
                <g id="Grupo_1031749" data-name="Grupo 1031749" transform="translate(0.931 5.005)">
                  <path id="Trazado_731716" data-name="Trazado 731716" d="M1.267,26.626,19.65,5.368a.272.272,0,0,1,.378-.027L47.255,28.889a.265.265,0,0,1,.027.378L28.9,50.525a.267.267,0,0,1-.374.027L1.293,27a.272.272,0,0,1-.027-.378Z" transform="translate(-1.203 -5.278)" fill="#115089" fill-rule="evenodd"/>
                  <path id="Trazado_731717" data-name="Trazado 731717" d="M16.857,18.22,29.69,12.368,50.646,30.491a.265.265,0,0,1,.027.378L32.289,52.127a.267.267,0,0,1-.374.027l-1.307-1.129L16.316,19.675a1.1,1.1,0,0,1,.54-1.454Z" transform="translate(-4.594 -6.879)" fill="#005c85" fill-rule="evenodd"/>
                  <path id="Trazado_731718" data-name="Trazado 731718" d="M17.447,17.5,43.015,5.837a.27.27,0,0,1,.355.132L58.3,38.723a.273.273,0,0,1-.132.355L32.6,50.737a.267.267,0,0,1-.351-.132L17.314,17.85a.267.267,0,0,1,.132-.355Z" transform="translate(-4.836 -5.399)" fill="#4db1f0" fill-rule="evenodd"/>
                  <path id="Trazado_731719" data-name="Trazado 731719" d="M36.78,15.721H50.951l11.507,25.24a.273.273,0,0,1-.132.355L36.753,52.975a.267.267,0,0,1-.351-.132l-.722-1.579V16.82a1.1,1.1,0,0,1,1.1-1.1Z" transform="translate(-8.99 -7.636)" fill="#56a5e6" fill-rule="evenodd"/>
                  <path id="Trazado_731720" data-name="Trazado 731720" d="M37.022,16.795H57.948l7.442,7.442V53.059a.266.266,0,0,1-.264.268h-28.1a.269.269,0,0,1-.268-.268v-36A.269.269,0,0,1,37.022,16.795Z" transform="translate(-9.233 -7.879)" fill="#eaf6ff" fill-rule="evenodd"/>
                  <path id="Trazado_731721" data-name="Trazado 731721" d="M64.132,16.795v5.772a1.675,1.675,0,0,0,1.67,1.67h5.772Z" transform="translate(-15.416 -7.879)" fill="#bec7cf" fill-rule="evenodd"/>
                  <path id="Trazado_731722" data-name="Trazado 731722" d="M39.235,47.347H61.2a4.216,4.216,0,0,1,4.2,4.2V68.8A4.214,4.214,0,0,1,61.2,73H22.264a4.211,4.211,0,0,1-4.2-4.2V43.146A3.455,3.455,0,0,1,21.513,39.7h7.337a4.211,4.211,0,0,1,2.909,1.594l4.568,4.462a4.211,4.211,0,0,0,2.909,1.594Z" transform="translate(-5.011 -13.052)" fill="#ffa031" fill-rule="evenodd"/>
                  <path id="Trazado_731723" data-name="Trazado 731723" d="M63.63,48.054a4.2,4.2,0,0,1,1.881,3.495V68.8a4.214,4.214,0,0,1-4.2,4.2h2.35a4.214,4.214,0,0,0,4.2-4.2V51.548a4.208,4.208,0,0,0-4.2-4.2h-2.35a4.151,4.151,0,0,1,2.319.707Zm-24.843-2.3-3.793-3.7-.774-.759A4.211,4.211,0,0,0,31.31,39.7H28.96a4.211,4.211,0,0,1,2.909,1.594l3.124,3.052,1.444,1.409a4.21,4.21,0,0,0,2.909,1.594H41.7a4.211,4.211,0,0,1-2.909-1.594Z" transform="translate(-7.472 -13.052)" fill="#e6a74e" fill-rule="evenodd"/>
                  <path id="Trazado_731724" data-name="Trazado 731724" d="M74.2,60.96a7.953,7.953,0,1,0-7.953-7.952A7.953,7.953,0,0,0,74.2,60.96Z" transform="translate(-15.894 -14.262)" fill="#065958" fill-rule="evenodd"/>
                  <path id="Trazado_731725" data-name="Trazado 731725" d="M75.654,45.082a7.954,7.954,0,0,1,.4,15.807c-.136.019-.268.034-.4.045.132.011.268.019.4.023.087,0,.177,0,.268,0a7.952,7.952,0,1,0,0-15.9c-.226,0-.453.008-.672.027Z" transform="translate(-18.018 -14.262)" fill="#21b335" fill-rule="evenodd"/>
                  <path id="Trazado_731726" data-name="Trazado 731726" d="M71.55,26.408V41.833a7.883,7.883,0,0,1,1.7-.7V26.408Z" transform="translate(-17.091 -10.05)" fill="#d3dde6" fill-rule="evenodd"/>
                </g>
                <path id="Trazado_731727" data-name="Trazado 731727" d="M32.155,20.408a.931.931,0,0,1,.931-.931H45.4a.931.931,0,0,1,0,1.863H33.086a.931.931,0,0,1-.932-.931Zm.931,5.465H52.539a.931.931,0,0,0,0-1.863H33.086a.931.931,0,0,0,0,1.863Zm19.453,2.666H33.086a.931.931,0,0,0,0,1.863H52.539a.931.931,0,0,0,0-1.863Zm0,4.529H33.086a.931.931,0,0,0,0,1.863H52.539a.931.931,0,0,0,0-1.863Zm9.719,19.067v8.631a5.131,5.131,0,0,1-5.125,5.125H18.265a5.131,5.131,0,0,1-5.125-5.125V38.416L.322,27.331a.931.931,0,0,1-.1-1.314l18.7-21.625a.931.931,0,0,1,1.314-.1l6.7,5.8,12.069-5.5a.931.931,0,0,1,1.234.461l3.659,8.027h5.771a.933.933,0,0,1,.659.273l7.43,7.43a.931.931,0,0,1,.273.659V35.005a8.869,8.869,0,0,1,4.22,17.13ZM56.175,35.471v-13.1H51.343a2.6,2.6,0,0,1-2.6-2.6V14.943H29.451V33.666l3.5,3.424c.794.777,1.42,1.326,2.253,1.326h17a8.91,8.91,0,0,1,3.973-2.945Zm-5.566-15.7a.736.736,0,0,0,.735.735h3.514L50.608,16.26Zm-11.67-13.1-11.715,5.34a.94.94,0,0,1-.109.049L14.622,17.758l5.934,13.021h4.281a4.238,4.238,0,0,1,2.749,1.112V14.011a.931.931,0,0,1,.931-.931h13.34Zm-25.8,29.28v-.8a4.382,4.382,0,0,1,4.379-4.375h.992l-5.969-13.1A.931.931,0,0,1,13,16.449l12.077-5.505-5.35-4.629L2.245,26.532ZM60.395,52.584a8.866,8.866,0,0,1-9.287-12.306h-15.9a5.1,5.1,0,0,1-3.555-1.857l-3.758-3.674c-.017-.016-.034-.032-.049-.048l-.748-.732c-.822-.8-1.424-1.326-2.256-1.326h-7.32A2.517,2.517,0,0,0,15,35.153V60.766a3.266,3.266,0,0,0,3.262,3.262H57.133a3.266,3.266,0,0,0,3.262-3.262ZM66.26,43.79A7.007,7.007,0,1,0,59.253,50.8,7.007,7.007,0,0,0,66.26,43.79ZM64,40.269a.931.931,0,0,0-1.317,0l-5.067,5.066L55.826,43.55a.931.931,0,1,0-1.317,1.317l2.444,2.444a.931.931,0,0,0,1.317,0L64,41.587A.931.931,0,0,0,64,40.269ZM55.409,58.212H19.988a.931.931,0,0,0,0,1.863H55.409a.931.931,0,1,0,0-1.863Zm-35.421-4.5h9.085a.931.931,0,1,0,0-1.863H19.988a.931.931,0,0,0,0,1.863Z" transform="translate(0 0)"/>
              </g>
            </g>
          </g>
        </g>
      </g>
    </g>
  </g>
</svg>
