<svg id="Grupo_1032477" data-name="Grupo 1032477" xmlns="http://www.w3.org/2000/svg" xmlns:xlink="http://www.w3.org/1999/xlink" width="280.583" height="268.89" viewBox="0 0 280.583 268.89">
  <defs>
    <clipPath id="clip-path">
      <rect id="Rectángulo_351902" data-name="Rectángulo 351902" width="280.583" height="268.89" fill="none"/>
    </clipPath>
    <clipPath id="clip-path-4">
      <rect id="Rectángulo_351833" data-name="Rectángulo 351833" width="53.738" height="43.223" fill="none"/>
    </clipPath>
    <clipPath id="clip-path-5">
      <rect id="Rectángulo_351834" data-name="Rectángulo 351834" width="4.428" height="4.428" fill="none"/>
    </clipPath>
    <clipPath id="clip-path-6">
      <rect id="Rectángulo_351835" data-name="Rectángulo 351835" width="19.965" height="21.372" fill="none"/>
    </clipPath>
    <clipPath id="clip-path-7">
      <rect id="Rectángulo_351836" data-name="Rectángulo 351836" width="73.591" height="153.254" fill="none"/>
    </clipPath>
    <clipPath id="clip-path-8">
      <rect id="Rectángulo_351837" data-name="Rectángulo 351837" width="81.713" height="65.724" fill="none"/>
    </clipPath>
    <clipPath id="clip-path-9">
      <rect id="Rectángulo_351838" data-name="Rectángulo 351838" width="139.758" height="193.261" fill="none"/>
    </clipPath>
    <clipPath id="clip-path-10">
      <rect id="Rectángulo_351839" data-name="Rectángulo 351839" width="157.549" height="201.415" fill="none"/>
    </clipPath>
    <clipPath id="clip-path-12">
      <rect id="Rectángulo_351842" data-name="Rectángulo 351842" width="42.712" height="4.197" fill="none"/>
    </clipPath>
    <clipPath id="clip-path-13">
      <rect id="Rectángulo_351844" data-name="Rectángulo 351844" width="58.258" height="11.927" fill="none"/>
    </clipPath>
    <clipPath id="clip-path-14">
      <rect id="Rectángulo_351845" data-name="Rectángulo 351845" width="19.584" height="4.35" fill="none"/>
    </clipPath>
    <clipPath id="clip-path-15">
      <rect id="Rectángulo_351846" data-name="Rectángulo 351846" width="3.941" height="3.941" fill="none"/>
    </clipPath>
    <clipPath id="clip-path-16">
      <rect id="Rectángulo_351847" data-name="Rectángulo 351847" width="23.272" height="40.499" fill="none"/>
    </clipPath>
    <clipPath id="clip-path-17">
      <rect id="Rectángulo_351848" data-name="Rectángulo 351848" width="11.969" height="15.481" fill="none"/>
    </clipPath>
    <clipPath id="clip-path-18">
      <rect id="Rectángulo_351849" data-name="Rectángulo 351849" width="9.909" height="9.909" fill="none"/>
    </clipPath>
    <clipPath id="clip-path-19">
      <rect id="Rectángulo_351850" data-name="Rectángulo 351850" width="13.873" height="13.873" fill="none"/>
    </clipPath>
    <clipPath id="clip-path-20">
      <rect id="Rectángulo_351851" data-name="Rectángulo 351851" width="6.936" height="6.936" fill="none"/>
    </clipPath>
    <clipPath id="clip-path-21">
      <rect id="Rectángulo_351852" data-name="Rectángulo 351852" width="5.615" height="5.615" fill="none"/>
    </clipPath>
    <clipPath id="clip-path-22">
      <rect id="Rectángulo_351853" data-name="Rectángulo 351853" width="23.015" height="24.637" fill="none"/>
    </clipPath>
    <clipPath id="clip-path-23">
      <rect id="Rectángulo_351854" data-name="Rectángulo 351854" width="6.733" height="6.733" fill="none"/>
    </clipPath>
    <clipPath id="clip-path-24">
      <rect id="Rectángulo_351855" data-name="Rectángulo 351855" width="6.733" height="6.732" fill="none"/>
    </clipPath>
    <clipPath id="clip-path-25">
      <rect id="Rectángulo_351856" data-name="Rectángulo 351856" width="5.609" height="5.609" fill="none"/>
    </clipPath>
    <clipPath id="clip-path-27">
      <rect id="Rectángulo_351858" data-name="Rectángulo 351858" width="31.359" height="31.352" fill="none"/>
    </clipPath>
    <clipPath id="clip-path-29">
      <rect id="Rectángulo_351860" data-name="Rectángulo 351860" width="34.162" height="41.215" fill="#b6dffa"/>
    </clipPath>
    <clipPath id="clip-path-30">
      <rect id="Rectángulo_351861" data-name="Rectángulo 351861" width="19.973" height="31.069" fill="none"/>
    </clipPath>
    <clipPath id="clip-path-31">
      <rect id="Rectángulo_351862" data-name="Rectángulo 351862" width="18.279" height="29.088" fill="none"/>
    </clipPath>
    <clipPath id="clip-path-32">
      <rect id="Rectángulo_351863" data-name="Rectángulo 351863" width="9.314" height="2.057" fill="none"/>
    </clipPath>
    <clipPath id="clip-path-33">
      <rect id="Rectángulo_351864" data-name="Rectángulo 351864" width="6.964" height="0.622" fill="none"/>
    </clipPath>
    <clipPath id="clip-path-34">
      <rect id="Rectángulo_351865" data-name="Rectángulo 351865" width="3.182" height="0.536" fill="none"/>
    </clipPath>
    <clipPath id="clip-path-35">
      <rect id="Rectángulo_351866" data-name="Rectángulo 351866" width="18.246" height="7.962" fill="none"/>
    </clipPath>
    <clipPath id="clip-path-36">
      <rect id="Rectángulo_351868" data-name="Rectángulo 351868" width="5.278" height="6.469" fill="none"/>
    </clipPath>
    <clipPath id="clip-path-37">
      <rect id="Rectángulo_351869" data-name="Rectángulo 351869" width="1.517" height="0.344" fill="none"/>
    </clipPath>
    <clipPath id="clip-path-38">
      <rect id="Rectángulo_351870" data-name="Rectángulo 351870" width="0.663" height="1.331" fill="none"/>
    </clipPath>
    <clipPath id="clip-path-39">
      <rect id="Rectángulo_351871" data-name="Rectángulo 351871" width="0.939" height="1.286" fill="none"/>
    </clipPath>
    <clipPath id="clip-path-40">
      <rect id="Rectángulo_351872" data-name="Rectángulo 351872" width="0.617" height="1.35" fill="none"/>
    </clipPath>
    <clipPath id="clip-path-41">
      <rect id="Rectángulo_351873" data-name="Rectángulo 351873" width="0.983" height="1.256" fill="none"/>
    </clipPath>
    <clipPath id="clip-path-42">
      <rect id="Rectángulo_351874" data-name="Rectángulo 351874" width="1.431" height="0.244" fill="none"/>
    </clipPath>
    <clipPath id="clip-path-43">
      <rect id="Rectángulo_351875" data-name="Rectángulo 351875" width="2.178" height="1.912" fill="none"/>
    </clipPath>
    <clipPath id="clip-path-44">
      <rect id="Rectángulo_351876" data-name="Rectángulo 351876" width="0.996" height="0.996" fill="none"/>
    </clipPath>
    <clipPath id="clip-path-45">
      <rect id="Rectángulo_351877" data-name="Rectángulo 351877" width="8.629" height="8.198" fill="none"/>
    </clipPath>
    <clipPath id="clip-path-46">
      <rect id="Rectángulo_351878" data-name="Rectángulo 351878" width="3.043" height="3.149" fill="none"/>
    </clipPath>
    <clipPath id="clip-path-47">
      <rect id="Rectángulo_351879" data-name="Rectángulo 351879" width="17.459" height="7.963" fill="none"/>
    </clipPath>
    <clipPath id="clip-path-48">
      <rect id="Rectángulo_351880" data-name="Rectángulo 351880" width="11.193" height="19.785" fill="none"/>
    </clipPath>
    <clipPath id="clip-path-49">
      <rect id="Rectángulo_351881" data-name="Rectángulo 351881" width="9.015" height="31.658" fill="none"/>
    </clipPath>
    <clipPath id="clip-path-50">
      <rect id="Rectángulo_351882" data-name="Rectángulo 351882" width="15.259" height="48.464" fill="none"/>
    </clipPath>
    <clipPath id="clip-path-51">
      <rect id="Rectángulo_351883" data-name="Rectángulo 351883" width="30.898" height="119.83" fill="#b6dffa"/>
    </clipPath>
    <clipPath id="clip-path-52">
      <rect id="Rectángulo_351884" data-name="Rectángulo 351884" width="1.919" height="18.275" fill="none"/>
    </clipPath>
    <clipPath id="clip-path-53">
      <rect id="Rectángulo_351885" data-name="Rectángulo 351885" width="23.858" height="120.806" fill="#b6dffa"/>
    </clipPath>
    <clipPath id="clip-path-54">
      <rect id="Rectángulo_351886" data-name="Rectángulo 351886" width="4.76" height="14.127" fill="none"/>
    </clipPath>
    <clipPath id="clip-path-55">
      <rect id="Rectángulo_351887" data-name="Rectángulo 351887" width="13.83" height="3.376" fill="none"/>
    </clipPath>
    <clipPath id="clip-path-56">
      <rect id="Rectángulo_351888" data-name="Rectángulo 351888" width="13.7" height="3.494" fill="none"/>
    </clipPath>
    <clipPath id="clip-path-57">
      <rect id="Rectángulo_351889" data-name="Rectángulo 351889" width="13.726" height="6.506" fill="none"/>
    </clipPath>
    <clipPath id="clip-path-58">
      <rect id="Rectángulo_351890" data-name="Rectángulo 351890" width="15.417" height="21.32" fill="none"/>
    </clipPath>
    <clipPath id="clip-path-59">
      <rect id="Rectángulo_351891" data-name="Rectángulo 351891" width="17.38" height="22.219" fill="none"/>
    </clipPath>
    <clipPath id="clip-path-61">
      <rect id="Rectángulo_351894" data-name="Rectángulo 351894" width="4.712" height="0.463" fill="none"/>
    </clipPath>
    <clipPath id="clip-path-62">
      <rect id="Rectángulo_351896" data-name="Rectángulo 351896" width="6.426" height="1.316" fill="none"/>
    </clipPath>
    <clipPath id="clip-path-63">
      <rect id="Rectángulo_351897" data-name="Rectángulo 351897" width="3.655" height="6.361" fill="none"/>
    </clipPath>
    <clipPath id="clip-path-64">
      <rect id="Rectángulo_351898" data-name="Rectángulo 351898" width="1.88" height="2.431" fill="none"/>
    </clipPath>
    <clipPath id="clip-path-65">
      <rect id="Rectángulo_351899" data-name="Rectángulo 351899" width="6.007" height="2.656" fill="none"/>
    </clipPath>
    <clipPath id="clip-path-66">
      <rect id="Rectángulo_351900" data-name="Rectángulo 351900" width="34.738" height="40.763" fill="#b6dffa"/>
    </clipPath>
  </defs>
  <g id="Grupo_1032476" data-name="Grupo 1032476" clip-path="url(#clip-path)">
    <g id="Grupo_1032277" data-name="Grupo 1032277">
      <g id="Grupo_1032276" data-name="Grupo 1032276" clip-path="url(#clip-path)">
        <path id="Trazado_732480" data-name="Trazado 732480" d="M370.348,236.444a17.7,17.7,0,0,1,13.286,1.5c2.645,1.6,4.368,4.569,5.536,7.431s.529,6.639-2.1,8.262a15.149,15.149,0,1,1-5.732,28.217c-2.034,7.243-8.137,13.418-15.552,14.69s-15.649-3-18.142-10.1,1.868-16.059,9.193-17.775c-6.02-1.136-10.308-7.926-8.749-13.85s8.636-9.721,14.435-7.746c0,0,.756-8.612,7.827-10.631" transform="translate(-123.315 -83.81)" fill="#ebebeb"/>
        <path id="Trazado_732481" data-name="Trazado 732481" d="M328.157,37.006a10.957,10.957,0,0,1,.93-8.23,9.365,9.365,0,0,1,4.6-3.429c1.773-.724,4.113-.328,5.118,1.3A9.384,9.384,0,1,1,356.286,30.2a12.69,12.69,0,0,1,9.1,9.633c.788,4.594-1.858,9.694-6.255,11.239s-9.948-1.157-11.011-5.695a6.934,6.934,0,1,1-13.377-3.522s-5.334-.469-6.585-4.848" transform="translate(-116.496 -5.767)" fill="#ebebeb"/>
        <path id="Trazado_732482" data-name="Trazado 732482" d="M.289,195.151a18.139,18.139,0,0,1,2.8-13.42c1.885-2.548,5.079-4.024,8.112-4.944s6.828.092,8.234,2.931A15.965,15.965,0,0,1,29.84,164.693a15.964,15.964,0,0,1,17.5,5.285,15.964,15.964,0,0,1,.351,18.275c7.2,2.765,12.924,9.583,13.516,17.273s-4.551,15.691-12.034,17.56S32.957,219.652,31.9,212.011c-1.733,6.037-9.072,9.77-14.971,7.614s-9.1-9.741-6.535-15.472c0,0-8.72-1.591-10.107-9" transform="translate(0 -58.25)" fill="#ebebeb"/>
        <path id="Trazado_732483" data-name="Trazado 732483" d="M55.277,48.212a7.152,7.152,0,0,1-4.731,2.614,6.117,6.117,0,0,1-3.564-1.154,2.758,2.758,0,0,1-1.241-3.216,6.124,6.124,0,1,1-4.714-10.643,8.284,8.284,0,0,1,1.689-8.482,6.721,6.721,0,0,1,8.344-.917c2.483,1.756,3.142,5.731,1.129,8.011a4.525,4.525,0,1,1,3.18,8.45s1.765,3.017-.093,5.336" transform="translate(-12.628 -9.013)" fill="#ebebeb"/>
        <path id="Trazado_732484" data-name="Trazado 732484" d="M412.85,212.7a5.452,5.452,0,1,1-5.452-5.452,5.452,5.452,0,0,1,5.452,5.452" transform="translate(-142.867 -73.664)" fill="#ebebeb"/>
        <path id="Trazado_732485" data-name="Trazado 732485" d="M76.8,29.964a2.726,2.726,0,1,1-2.726-2.726A2.726,2.726,0,0,1,76.8,29.964" transform="translate(-25.358 -9.681)" fill="#ebebeb"/>
        <path id="Trazado_732486" data-name="Trazado 732486" d="M377.012,103.463c-3.071-4.951-11.248-2.863-13.679.52a12.527,12.527,0,0,0-1.37,11.886c-6.766-2.423-15.059,2.172-16.836,9.135s3.063,14.831,10.019,16.637,14.864-2.5,17.371-9.236c3.138,5.649,11.269,7.79,16.781,4.418s7.311-11.585,3.711-16.951a13.292,13.292,0,1,0-16-16.409" transform="translate(-122.54 -33.297)" fill="#f5f5f5"/>
        <path id="Trazado_732487" data-name="Trazado 732487" d="M131.512,77.872c-2.641-4.259-9.674-2.462-11.765.447a10.775,10.775,0,0,0-1.179,10.223c-5.819-2.084-12.952,1.868-14.481,7.857s2.634,12.757,8.618,14.311,12.784-2.151,14.942-7.944a10.339,10.339,0,1,0,17.625-10.78,11.433,11.433,0,1,0-13.759-14.113" transform="translate(-36.883 -24.687)" fill="#f5f5f5"/>
      </g>
    </g>
    <g id="Grupo_1032348" data-name="Grupo 1032348">
      <g id="Grupo_1032347" data-name="Grupo 1032347" clip-path="url(#clip-path)">
        <path id="Trazado_732488" data-name="Trazado 732488" d="M312.544,363.745c1.452-6.428,5.314-12.668,11.364-15.283s14.258-.417,16.891,5.624a11.195,11.195,0,0,1,11.6,18.889c4.041.82,8.377,1.8,11.115,4.888s1.593,11.273-2.262,12.736H311.642c-.6-6.562-.549-20.426.9-26.854" transform="translate(-110.641 -123.471)" fill="#407bff"/>
        <g id="Grupo_1032280" data-name="Grupo 1032280" transform="translate(200.639 223.906)" opacity="0.8">
          <g id="Grupo_1032279" data-name="Grupo 1032279">
            <g id="Grupo_1032278" data-name="Grupo 1032278" clip-path="url(#clip-path-4)">
              <path id="Trazado_732489" data-name="Trazado 732489" d="M312.544,363.745c1.452-6.428,5.314-12.668,11.364-15.283s14.258-.417,16.891,5.624a11.195,11.195,0,0,1,11.6,18.889c4.041.82,8.377,1.8,11.115,4.888s1.593,11.273-2.262,12.736H311.642c-.6-6.562-.549-20.426.9-26.854" transform="translate(-311.28 -347.377)" fill="#fff"/>
            </g>
          </g>
        </g>
        <path id="Trazado_732490" data-name="Trazado 732490" d="M388.915,378.658a2.214,2.214,0,1,0,2.213-2.214,2.213,2.213,0,0,0-2.213,2.214" transform="translate(-138.235 -133.803)" fill="#407bff"/>
        <g id="Grupo_1032283" data-name="Grupo 1032283" transform="translate(250.68 242.641)" opacity="0.8">
          <g id="Grupo_1032282" data-name="Grupo 1032282">
            <g id="Grupo_1032281" data-name="Grupo 1032281" clip-path="url(#clip-path-5)">
              <path id="Trazado_732491" data-name="Trazado 732491" d="M388.915,378.658a2.214,2.214,0,1,0,2.213-2.214,2.213,2.213,0,0,0-2.213,2.214" transform="translate(-388.915 -376.444)" fill="#fff"/>
            </g>
          </g>
        </g>
        <path id="Trazado_732492" data-name="Trazado 732492" d="M372.627,373.631a7.416,7.416,0,0,0-3.634-10.891" transform="translate(-131.154 -128.932)" fill="none" stroke="#fff" stroke-linecap="round" stroke-linejoin="round" stroke-width="1"/>
        <path id="Trazado_732493" data-name="Trazado 732493" d="M363.3,361.761l-1.63.11" transform="translate(-128.55 -128.584)" fill="none" stroke="#fff" stroke-linecap="round" stroke-linejoin="round" stroke-width="1"/>
        <path id="Trazado_732494" data-name="Trazado 732494" d="M386.922,403.123a7.326,7.326,0,0,0-5.346-10.606" transform="translate(-135.627 -139.516)" fill="none" stroke="#fff" stroke-linecap="round" stroke-linejoin="round" stroke-width="1"/>
        <path id="Trazado_732495" data-name="Trazado 732495" d="M173.3,162.72a6.2,6.2,0,0,1,4.657.527,5.3,5.3,0,0,1,1.94,2.6,2.39,2.39,0,0,1-.737,2.9,5.31,5.31,0,1,1-2.008,9.889,7.181,7.181,0,0,1-5.452,5.149,5.827,5.827,0,0,1-6.359-3.539,4.915,4.915,0,0,1,3.222-6.23,3.924,3.924,0,1,1,1.993-7.57s.265-3.018,2.743-3.727" transform="translate(-58.682 -57.756)" fill="#407bff"/>
        <g id="Grupo_1032286" data-name="Grupo 1032286" transform="translate(106.415 104.736)" opacity="0.8">
          <g id="Grupo_1032285" data-name="Grupo 1032285">
            <g id="Grupo_1032284" data-name="Grupo 1032284" clip-path="url(#clip-path-6)">
              <path id="Trazado_732496" data-name="Trazado 732496" d="M173.3,162.72a6.2,6.2,0,0,1,4.657.527,5.3,5.3,0,0,1,1.94,2.6,2.39,2.39,0,0,1-.737,2.9,5.31,5.31,0,1,1-2.008,9.889,7.181,7.181,0,0,1-5.452,5.149,5.827,5.827,0,0,1-6.359-3.539,4.915,4.915,0,0,1,3.222-6.23,3.924,3.924,0,1,1,1.993-7.57s.265-3.018,2.743-3.727" transform="translate(-165.096 -162.492)" fill="#fff"/>
            </g>
          </g>
        </g>
        <path id="Trazado_732497" data-name="Trazado 732497" d="M262.834,166.893c3.738-6.125,1.5-15.116-4.678-18.771,6.647-4.224,13.54-9.348,15.705-16.92s-3.514-17.489-11.308-16.357c9.61-2.191,16.893-11.935,16.272-21.772s-9.07-18.589-18.879-19.554c4.19-8.567.733-20.085-7.483-24.928s-18.606-1.369-24.073,6.446c-10.374-3.69-24.274,5.334-23.042,16.276l9.219,26.78a311.642,311.642,0,0,0,7.51,59.8c2.05,9.087,4.578,18.247,9.617,26.082s12.972,14.267,22.21,15.475,19.49-3.922,22.348-12.787-4.106-20.008-13.418-19.764m4.943-73.08a4.949,4.949,0,1,1-4.949,4.949,4.949,4.949,0,0,1,4.949-4.949M263.9,106.36a2.054,2.054,0,1,1-2.054,2.054,2.054,2.054,0,0,1,2.054-2.054" transform="translate(-72.961 -16.48)" fill="#407bff"/>
        <g id="Grupo_1032289" data-name="Grupo 1032289" transform="translate(132.31 29.886)" opacity="0.8">
          <g id="Grupo_1032288" data-name="Grupo 1032288">
            <g id="Grupo_1032287" data-name="Grupo 1032287" clip-path="url(#clip-path-7)">
              <path id="Trazado_732498" data-name="Trazado 732498" d="M262.834,166.893c3.738-6.125,1.5-15.116-4.678-18.771,6.647-4.224,13.54-9.348,15.705-16.92s-3.514-17.489-11.308-16.357c9.61-2.191,16.893-11.935,16.272-21.772s-9.07-18.589-18.879-19.554c4.19-8.567.733-20.085-7.483-24.928s-18.606-1.369-24.073,6.446c-10.374-3.69-24.274,5.334-23.042,16.276l9.219,26.78a311.642,311.642,0,0,0,7.51,59.8c2.05,9.087,4.578,18.247,9.617,26.082s12.972,14.267,22.21,15.475,19.49-3.922,22.348-12.787-4.106-20.008-13.418-19.764m4.943-73.08a4.949,4.949,0,1,1-4.949,4.949,4.949,4.949,0,0,1,4.949-4.949M263.9,106.36a2.054,2.054,0,1,1-2.054,2.054,2.054,2.054,0,0,1,2.054-2.054" transform="translate(-205.271 -46.366)" fill="#fff"/>
            </g>
          </g>
        </g>
        <path id="Trazado_732499" data-name="Trazado 732499" d="M118.445,336.938c-2.207-9.774-8.082-19.261-17.28-23.238s-21.68-.634-25.683,8.553a17.022,17.022,0,0,0-17.64,28.722c-6.144,1.247-12.739,2.744-16.9,7.432s-2.422,17.141,3.439,19.366h75.438c.916-9.978.835-31.059-1.372-40.834" transform="translate(-13.739 -110.914)" fill="#407bff"/>
        <g id="Grupo_1032292" data-name="Grupo 1032292" transform="translate(24.916 201.135)" opacity="0.8">
          <g id="Grupo_1032291" data-name="Grupo 1032291">
            <g id="Grupo_1032290" data-name="Grupo 1032290" clip-path="url(#clip-path-8)">
              <path id="Trazado_732500" data-name="Trazado 732500" d="M118.445,336.938c-2.207-9.774-8.082-19.261-17.28-23.238s-21.68-.634-25.683,8.553a17.022,17.022,0,0,0-17.64,28.722c-6.144,1.247-12.739,2.744-16.9,7.432s-2.422,17.141,3.439,19.366h75.438c.916-9.978.835-31.059-1.372-40.834" transform="translate(-38.655 -312.049)" fill="#fff"/>
            </g>
          </g>
        </g>
        <path id="Trazado_732501" data-name="Trazado 732501" d="M250.888,281.981c0,1.6-16.721,2.9-37.348,2.9s-37.347-1.3-37.347-2.9,16.721-2.9,37.347-2.9,37.348,1.3,37.348,2.9" transform="translate(-62.626 -99.197)"/>
        <g id="Grupo_1032295" data-name="Grupo 1032295" transform="translate(81.001 65.787)" opacity="0.3">
          <g id="Grupo_1032294" data-name="Grupo 1032294">
            <g id="Grupo_1032293" data-name="Grupo 1032293" clip-path="url(#clip-path-9)">
              <path id="Trazado_732502" data-name="Trazado 732502" d="M125.971,290.558l56.147-124.771.012-1.72c0-.154.109-15.569.163-30.839.032-8.979.039-16.155.021-21.329,0-.587,0-9.3-.005-9.836h26.226v62.826l56.59,125.668a3.38,3.38,0,0,1-3.082,4.768H129.053a3.38,3.38,0,0,1-3.082-4.767" transform="translate(-125.669 -102.064)" fill="#407bff"/>
            </g>
          </g>
        </g>
        <path id="Trazado_732503" data-name="Trazado 732503" d="M241.834,95.487H193.2a4.81,4.81,0,0,1-4.81-4.81V88.37a4.81,4.81,0,0,1,4.81-4.81h48.639a4.81,4.81,0,0,1,4.81,4.81v2.308a4.81,4.81,0,0,1-4.81,4.81" transform="translate(-66.96 -29.7)" fill="#407bff"/>
        <path id="Trazado_732504" data-name="Trazado 732504" d="M169.139,102.064c.436,0,0,61.947,0,61.947L112.986,288.8a10.411,10.411,0,0,0,9.494,14.684H259.625a9.969,9.969,0,0,0,9.09-14.062L211.851,163.139V102.064Z" transform="translate(-39.829 -36.277)" fill="#407bff"/>
        <g id="Grupo_1032298" data-name="Grupo 1032298" transform="translate(72.23 65.787)" opacity="0.6">
          <g id="Grupo_1032297" data-name="Grupo 1032297">
            <g id="Grupo_1032296" data-name="Grupo 1032296" clip-path="url(#clip-path-10)">
              <path id="Trazado_732505" data-name="Trazado 732505" d="M169.143,102.064c.436,0,0,61.947,0,61.947L112.99,288.8a10.411,10.411,0,0,0,9.494,14.684H259.629a9.969,9.969,0,0,0,9.09-14.062L211.855,163.139V102.064Z" transform="translate(-112.061 -102.064)" fill="#fff"/>
            </g>
          </g>
        </g>
        <g id="Grupo_1032301" data-name="Grupo 1032301" transform="translate(81.001 65.787)" opacity="0.3">
          <g id="Grupo_1032300" data-name="Grupo 1032300">
            <g id="Grupo_1032299" data-name="Grupo 1032299" clip-path="url(#clip-path-9)">
              <path id="Trazado_732506" data-name="Trazado 732506" d="M125.971,290.558l56.147-124.771.012-1.72c0-.154.109-15.569.163-30.839.032-8.979.039-16.155.021-21.329,0-.587,0-9.3-.005-9.836h26.226v62.826l56.59,125.668a3.38,3.38,0,0,1-3.082,4.768H129.053a3.38,3.38,0,0,1-3.082-4.767" transform="translate(-125.669 -102.064)" fill="#407bff"/>
            </g>
          </g>
        </g>
        <g id="Grupo_1032304" data-name="Grupo 1032304" transform="translate(129.309 65.787)" opacity="0.3">
          <g id="Grupo_1032303" data-name="Grupo 1032303">
            <g id="Grupo_1032302" data-name="Grupo 1032302" clip-path="url(#clip-path-12)">
              <rect id="Rectángulo_351841" data-name="Rectángulo 351841" width="42.712" height="4.197" transform="translate(0 0)"/>
            </g>
          </g>
        </g>
        <path id="Trazado_732507" data-name="Trazado 732507" d="M265.125,354.914,232.8,283.127l-25.4.093-10.656.039-38.585.141-32.182,71.516a3.38,3.38,0,0,0,3.082,4.767h132.99a3.38,3.38,0,0,0,3.082-4.768" transform="translate(-44.668 -100.634)" fill="#ffa031"/>
        <path id="Trazado_732508" data-name="Trazado 732508" d="M250.839,281.981c0,1.6-16.721,2.9-37.348,2.9s-37.347-1.3-37.347-2.9,16.721-2.9,37.347-2.9,37.348,1.3,37.348,2.9" transform="translate(-62.608 -99.197)" fill="#b16f22"/>
        <g id="Grupo_1032310" data-name="Grupo 1032310" transform="translate(121.426 53.86)" opacity="0.6">
          <g id="Grupo_1032309" data-name="Grupo 1032309">
            <g id="Grupo_1032308" data-name="Grupo 1032308" clip-path="url(#clip-path-13)">
              <path id="Trazado_732510" data-name="Trazado 732510" d="M241.834,95.487H193.2a4.81,4.81,0,0,1-4.81-4.81V88.37a4.81,4.81,0,0,1,4.81-4.81h48.639a4.81,4.81,0,0,1,4.81,4.81v2.308a4.81,4.81,0,0,1-4.81,4.81" transform="translate(-188.386 -83.56)" fill="#fff"/>
            </g>
          </g>
        </g>
        <g id="Grupo_1032313" data-name="Grupo 1032313" transform="translate(127.271 56.99)" opacity="0.3">
          <g id="Grupo_1032312" data-name="Grupo 1032312">
            <g id="Grupo_1032311" data-name="Grupo 1032311" clip-path="url(#clip-path-14)">
              <path id="Trazado_732511" data-name="Trazado 732511" d="M216.269,89.006a3.225,3.225,0,0,0-2.263-.59l-14.023.006a2.293,2.293,0,0,0-2.055.759c-.516.714-1.179,3.008,1.428,3.06,6.06.3,10.251.822,15.892.307a1.8,1.8,0,0,0,1.568-.78,2.469,2.469,0,0,0-.547-2.761" transform="translate(-197.453 -88.416)" fill="#fff"/>
            </g>
          </g>
        </g>
        <g id="Grupo_1032316" data-name="Grupo 1032316" transform="translate(149.032 56.99)" opacity="0.3">
          <g id="Grupo_1032315" data-name="Grupo 1032315">
            <g id="Grupo_1032314" data-name="Grupo 1032314" clip-path="url(#clip-path-15)">
              <path id="Trazado_732512" data-name="Trazado 732512" d="M235.155,90.386a1.97,1.97,0,1,1-1.97-1.97,1.97,1.97,0,0,1,1.97,1.97" transform="translate(-231.214 -88.416)" fill="#fff"/>
            </g>
          </g>
        </g>
        <g id="Grupo_1032319" data-name="Grupo 1032319" transform="translate(116.397 160.624)" opacity="0.5">
          <g id="Grupo_1032318" data-name="Grupo 1032318">
            <g id="Grupo_1032317" data-name="Grupo 1032317" clip-path="url(#clip-path-16)">
              <path id="Trazado_732513" data-name="Trazado 732513" d="M202.617,250.406c2.145,1.611.941,4.717.52,5.975-3.022,9.026-4.652,15.8-8.179,24.691a16.122,16.122,0,0,1-4.99,7.2c-2.372,1.756-6.089,2.077-8.071-.11-2.148-2.371-1.245-6.092-.217-9.121l6.383-18.8a25.694,25.694,0,0,1,3.338-7.247,8.684,8.684,0,0,1,6.723-3.8s3.2.236,4.493,1.207" transform="translate(-180.583 -249.199)" fill="#fff"/>
            </g>
          </g>
        </g>
        <g id="Grupo_1032322" data-name="Grupo 1032322" transform="translate(109.677 204.507)" opacity="0.5">
          <g id="Grupo_1032321" data-name="Grupo 1032321">
            <g id="Grupo_1032320" data-name="Grupo 1032320" clip-path="url(#clip-path-17)">
              <path id="Trazado_732514" data-name="Trazado 732514" d="M181.305,327.118c-1.67,4.114-5.336,6.511-8.187,5.354s-3.809-5.432-2.138-9.546,5.336-6.511,8.187-5.353,3.808,5.431,2.138,9.545" transform="translate(-170.158 -317.281)" fill="#fff"/>
            </g>
          </g>
        </g>
        <g id="Grupo_1032325" data-name="Grupo 1032325" transform="translate(187.037 230.504)" opacity="0.2">
          <g id="Grupo_1032324" data-name="Grupo 1032324">
            <g id="Grupo_1032323" data-name="Grupo 1032323" clip-path="url(#clip-path-18)">
              <path id="Trazado_732515" data-name="Trazado 732515" d="M300.086,362.569a4.955,4.955,0,1,1-4.955-4.955,4.955,4.955,0,0,1,4.955,4.955" transform="translate(-290.177 -357.614)"/>
            </g>
          </g>
        </g>
        <g id="Grupo_1032328" data-name="Grupo 1032328" transform="translate(152.024 226.541)" opacity="0.2">
          <g id="Grupo_1032327" data-name="Grupo 1032327">
            <g id="Grupo_1032326" data-name="Grupo 1032326" clip-path="url(#clip-path-19)">
              <path id="Trazado_732516" data-name="Trazado 732516" d="M249.73,358.4a6.936,6.936,0,1,1-6.936-6.936,6.936,6.936,0,0,1,6.936,6.936" transform="translate(-235.857 -351.465)"/>
            </g>
          </g>
        </g>
        <g id="Grupo_1032331" data-name="Grupo 1032331" transform="translate(164.742 219.339)" opacity="0.2">
          <g id="Grupo_1032330" data-name="Grupo 1032330">
            <g id="Grupo_1032329" data-name="Grupo 1032329" clip-path="url(#clip-path-20)">
              <path id="Trazado_732517" data-name="Trazado 732517" d="M262.523,343.76a3.468,3.468,0,1,1-3.468-3.468,3.468,3.468,0,0,1,3.468,3.468" transform="translate(-255.587 -340.292)"/>
            </g>
          </g>
        </g>
        <g id="Grupo_1032334" data-name="Grupo 1032334" transform="translate(175.531 231.165)" opacity="0.2">
          <g id="Grupo_1032333" data-name="Grupo 1032333">
            <g id="Grupo_1032332" data-name="Grupo 1032332" clip-path="url(#clip-path-21)">
              <path id="Trazado_732518" data-name="Trazado 732518" d="M277.941,361.447a2.808,2.808,0,1,1-2.808-2.808,2.807,2.807,0,0,1,2.808,2.808" transform="translate(-272.327 -358.639)"/>
            </g>
          </g>
        </g>
        <path id="Trazado_732519" data-name="Trazado 732519" d="M40.235,289.178a7.15,7.15,0,0,1,5.368.607,6.116,6.116,0,0,1,2.237,3,2.756,2.756,0,0,1-.85,3.338,6.121,6.121,0,1,1-2.316,11.4,8.278,8.278,0,0,1-6.284,5.935,6.716,6.716,0,0,1-7.33-4.08c-1.007-2.868.755-6.488,3.714-7.182a4.523,4.523,0,1,1,2.3-8.725s.306-3.48,3.163-4.3" transform="translate(-10.939 -102.691)" fill="#407bff"/>
        <g id="Grupo_1032337" data-name="Grupo 1032337" transform="translate(19.837 186.223)" opacity="0.8">
          <g id="Grupo_1032336" data-name="Grupo 1032336">
            <g id="Grupo_1032335" data-name="Grupo 1032335" clip-path="url(#clip-path-22)">
              <path id="Trazado_732520" data-name="Trazado 732520" d="M40.235,289.178a7.15,7.15,0,0,1,5.368.607,6.116,6.116,0,0,1,2.237,3,2.756,2.756,0,0,1-.85,3.338,6.121,6.121,0,1,1-2.316,11.4,8.278,8.278,0,0,1-6.284,5.935,6.716,6.716,0,0,1-7.33-4.08c-1.007-2.868.755-6.488,3.714-7.182a4.523,4.523,0,1,1,2.3-8.725s.306-3.48,3.163-4.3" transform="translate(-30.775 -288.914)" fill="#fff"/>
            </g>
          </g>
        </g>
        <path id="Trazado_732521" data-name="Trazado 732521" d="M43.663,359.615a3.366,3.366,0,1,1-3.367-3.367,3.367,3.367,0,0,1,3.367,3.367" transform="translate(-13.127 -126.624)" fill="#407bff"/>
        <g id="Grupo_1032340" data-name="Grupo 1032340" transform="translate(23.804 229.624)" opacity="0.8">
          <g id="Grupo_1032339" data-name="Grupo 1032339">
            <g id="Grupo_1032338" data-name="Grupo 1032338" clip-path="url(#clip-path-23)">
              <path id="Trazado_732522" data-name="Trazado 732522" d="M43.663,359.615a3.366,3.366,0,1,1-3.367-3.367,3.367,3.367,0,0,1,3.367,3.367" transform="translate(-36.931 -356.248)" fill="#fff"/>
            </g>
          </g>
        </g>
        <path id="Trazado_732523" data-name="Trazado 732523" d="M316.788,206.83a3.366,3.366,0,1,1-3.367-3.366,3.367,3.367,0,0,1,3.367,3.366" transform="translate(-110.206 -72.319)" fill="#407bff"/>
        <g id="Grupo_1032343" data-name="Grupo 1032343" transform="translate(199.85 131.145)" opacity="0.8">
          <g id="Grupo_1032342" data-name="Grupo 1032342">
            <g id="Grupo_1032341" data-name="Grupo 1032341" clip-path="url(#clip-path-24)">
              <path id="Trazado_732524" data-name="Trazado 732524" d="M316.788,206.83a3.366,3.366,0,1,1-3.367-3.366,3.367,3.367,0,0,1,3.367,3.366" transform="translate(-310.056 -203.464)" fill="#fff"/>
            </g>
          </g>
        </g>
        <path id="Trazado_732525" data-name="Trazado 732525" d="M307.854,79.605a2.8,2.8,0,1,1-2.8-2.8,2.8,2.8,0,0,1,2.8,2.8" transform="translate(-107.43 -27.298)" fill="#407bff"/>
        <g id="Grupo_1032346" data-name="Grupo 1032346" transform="translate(194.815 49.503)" opacity="0.8">
          <g id="Grupo_1032345" data-name="Grupo 1032345">
            <g id="Grupo_1032344" data-name="Grupo 1032344" clip-path="url(#clip-path-25)">
              <path id="Trazado_732526" data-name="Trazado 732526" d="M307.854,79.605a2.8,2.8,0,1,1-2.8-2.8,2.8,2.8,0,0,1,2.8,2.8" transform="translate(-302.245 -76.801)" fill="#fff"/>
            </g>
          </g>
        </g>
        <path id="Trazado_732527" data-name="Trazado 732527" d="M246.856,59.242a14.322,14.322,0,0,1,16.911-5.675" transform="translate(-87.742 -18.737)" fill="none" stroke="#fff" stroke-linecap="round" stroke-linejoin="round" stroke-width="1"/>
        <path id="Trazado_732528" data-name="Trazado 732528" d="M226.156,64.978a14.374,14.374,0,0,0-12.877,8.113" transform="translate(-75.808 -23.095)" fill="none" stroke="#fff" stroke-linecap="round" stroke-linejoin="round" stroke-width="1"/>
        <path id="Trazado_732529" data-name="Trazado 732529" d="M237.089,65.04l.914.118" transform="translate(-84.271 -23.118)" fill="none" stroke="#fff" stroke-linecap="round" stroke-linejoin="round" stroke-width="1"/>
        <path id="Trazado_732530" data-name="Trazado 732530" d="M288,94.6a15.577,15.577,0,0,1,14.715,7.537" transform="translate(-102.367 -33.6)" fill="none" stroke="#fff" stroke-linecap="round" stroke-linejoin="round" stroke-width="1"/>
        <path id="Trazado_732531" data-name="Trazado 732531" d="M283.951,158.562a8.122,8.122,0,0,1,12.826.657" transform="translate(-100.927 -55.354)" fill="none" stroke="#fff" stroke-linecap="round" stroke-linejoin="round" stroke-width="1"/>
        <path id="Trazado_732532" data-name="Trazado 732532" d="M68.144,351.971A11.279,11.279,0,0,1,73.67,335.41" transform="translate(-23.608 -119.218)" fill="none" stroke="#fff" stroke-linecap="round" stroke-linejoin="round" stroke-width="1"/>
        <path id="Trazado_732533" data-name="Trazado 732533" d="M84.964,333.921l2.479.168" transform="translate(-30.199 -118.688)" fill="none" stroke="#fff" stroke-linecap="round" stroke-linejoin="round" stroke-width="1"/>
        <path id="Trazado_732534" data-name="Trazado 732534" d="M45.248,396.815a11.139,11.139,0,0,1,8.129-16.126" transform="translate(-15.647 -135.312)" fill="none" stroke="#fff" stroke-linecap="round" stroke-linejoin="round" stroke-width="1"/>
      </g>
    </g>
    <path id="Trazado_732535" data-name="Trazado 732535" d="M44.383,216.28l1.21,2.212,2.212,1.21-2.212,1.21-1.21,2.212-1.21-2.212L40.96,219.7l2.213-1.21Z" transform="translate(-14.559 -76.874)" fill="#407bff"/>
    <path id="Trazado_732536" data-name="Trazado 732536" d="M351.862,190.084l1.21,2.212,2.213,1.21-2.213,1.21-1.21,2.212-1.21-2.212-2.212-1.21,2.212-1.21Z" transform="translate(-123.849 -67.563)" fill="#407bff"/>
    <path id="Trazado_732537" data-name="Trazado 732537" d="M339.513,291.38l.882,1.612,1.612.882-1.612.882-.882,1.612-.882-1.612-1.612-.882,1.612-.882Z" transform="translate(-119.79 -103.568)" fill="#407bff"/>
    <path id="Trazado_732538" data-name="Trazado 732538" d="M347.577,309.031l.5.914.914.5-.914.5-.5.914-.5-.914-.914-.5.914-.5Z" transform="translate(-123.04 -109.841)" fill="#407bff"/>
    <path id="Trazado_732539" data-name="Trazado 732539" d="M335.87,222.45l.844,1.542,1.543.844-1.543.844-.844,1.542-.844-1.542-1.543-.844,1.543-.844Z" transform="translate(-118.533 -79.067)" fill="#407bff"/>
    <path id="Trazado_732540" data-name="Trazado 732540" d="M72.335,213.891l.545,1,1,.545-1,.544-.545,1-.545-1-1-.544,1-.545Z" transform="translate(-25.163 -76.025)" fill="#407bff"/>
    <path id="Trazado_732541" data-name="Trazado 732541" d="M364.117,214.429l.422.772.771.422-.771.422-.422.771-.422-.771-.772-.422.772-.422Z" transform="translate(-128.997 -76.216)" fill="#407bff"/>
    <path id="Trazado_732542" data-name="Trazado 732542" d="M291.536,34.277l1.822,1.744,2.475.485-1.744,1.822L293.6,40.8l-1.822-1.744-2.474-.485,1.744-1.822Z" transform="translate(-102.831 -12.183)" fill="#407bff"/>
    <path id="Trazado_732543" data-name="Trazado 732543" d="M270.026,24.408l1.27,1.216,1.725.338-1.216,1.27-.338,1.725-1.27-1.216-1.725-.338,1.216-1.27Z" transform="translate(-95.425 -8.675)" fill="#407bff"/>
    <path id="Trazado_732544" data-name="Trazado 732544" d="M292.028,15.733l.636.608.862.169-.608.636-.169.862-.636-.608-.862-.169.608-.635Z" transform="translate(-103.522 -5.592)" fill="#407bff"/>
    <path id="Trazado_732545" data-name="Trazado 732545" d="M58.479,200.251l.271.5.5.271-.5.271-.271.5-.271-.5-.5-.271.5-.271Z" transform="translate(-20.513 -71.177)" fill="#407bff"/>
    <g id="Grupo_1032353" data-name="Grupo 1032353">
      <g id="Grupo_1032352" data-name="Grupo 1032352" clip-path="url(#clip-path)">
        <path id="Trazado_732546" data-name="Trazado 732546" d="M156.6,5.821a15.677,15.677,0,1,1-.857,25.8l-4.609.963.863-4.9c-.048-.073-.1-.138-.151-.212A15.677,15.677,0,0,1,156.6,5.821" transform="translate(-53.092 -1.19)" fill="#407bff"/>
        <path id="Trazado_732547" data-name="Trazado 732547" d="M186.495,5.868A15.541,15.541,0,0,0,172.916.345" transform="translate(-61.461 -0.089)" fill="none" stroke="#407bff" stroke-linecap="round" stroke-linejoin="round" stroke-width="0.5"/>
        <path id="Trazado_732548" data-name="Trazado 732548" d="M168.09.941a5.666,5.666,0,0,0-2.246.567" transform="translate(-58.947 -0.334)" fill="none" stroke="#407bff" stroke-linecap="round" stroke-linejoin="round" stroke-width="0.5"/>
        <g id="Grupo_1032351" data-name="Grupo 1032351" transform="translate(96.277 2.157)" opacity="0.6">
          <g id="Grupo_1032350" data-name="Grupo 1032350">
            <g id="Grupo_1032349" data-name="Grupo 1032349" clip-path="url(#clip-path-27)">
              <path id="Trazado_732549" data-name="Trazado 732549" d="M156.6,5.821a15.677,15.677,0,1,1-.857,25.8l-4.609.963.863-4.9c-.048-.073-.1-.138-.151-.212A15.677,15.677,0,0,1,156.6,5.821" transform="translate(-149.369 -3.347)" fill="#fff"/>
            </g>
          </g>
        </g>
        <path id="Trazado_732550" data-name="Trazado 732550" d="M175.47,23.762a2.856,2.856,0,1,1-2.856-2.856,2.856,2.856,0,0,1,2.856,2.856" transform="translate(-60.339 -7.431)" fill="#407bff"/>
        <path id="Trazado_732551" data-name="Trazado 732551" d="M163.856,29.842a2.033,2.033,0,1,1-2.033-2.033,2.033,2.033,0,0,1,2.033,2.033" transform="translate(-56.796 -9.884)" fill="#407bff"/>
        <path id="Trazado_732552" data-name="Trazado 732552" d="M167.982,16.85a1.27,1.27,0,1,1-1.27-1.27,1.27,1.27,0,0,1,1.27,1.27" transform="translate(-58.804 -5.538)" fill="#407bff"/>
        <path id="Trazado_732553" data-name="Trazado 732553" d="M184.264,27.928a1.27,1.27,0,1,1-1.27-1.27,1.27,1.27,0,0,1,1.27,1.27" transform="translate(-64.592 -9.475)" fill="#407bff"/>
        <path id="Trazado_732554" data-name="Trazado 732554" d="M184.827,18.562a1.738,1.738,0,1,1-1.738-1.738,1.738,1.738,0,0,1,1.738,1.738" transform="translate(-64.46 -5.98)" fill="#407bff"/>
        <path id="Trazado_732555" data-name="Trazado 732555" d="M177.76,38.165a2.033,2.033,0,1,1-2.033-2.033,2.033,2.033,0,0,1,2.033,2.033" transform="translate(-61.738 -12.843)" fill="#407bff"/>
        <path id="Trazado_732556" data-name="Trazado 732556" d="M163.528,28.735l6-2.616,1.915.5.672,7.728" transform="translate(-58.124 -9.284)" fill="none" stroke="#407bff" stroke-miterlimit="10" stroke-width="0.5"/>
        <path id="Trazado_732557" data-name="Trazado 732557" d="M167.412,17.55l2.663,3.5,4.038,2.8,3.178.738" transform="translate(-59.505 -6.238)" fill="none" stroke="#407bff" stroke-miterlimit="10" stroke-width="0.5"/>
        <path id="Trazado_732558" data-name="Trazado 732558" d="M175,23.7l4.672-3.2" transform="translate(-62.2 -7.289)" fill="none" stroke="#407bff" stroke-miterlimit="10" stroke-width="0.5"/>
      </g>
    </g>
    <g id="Grupo_1032475" data-name="Grupo 1032475">
      <g id="Grupo_1032474" data-name="Grupo 1032474" clip-path="url(#clip-path)">
        <path id="Trazado_732559" data-name="Trazado 732559" d="M40.647,128.214l-1.164-1.934-5.95-1.768-4.462,2.611s-1.519,1.519-2.2,2.136.349,1.377,1.109,1.735,13.386,4.768,13.386,4.768l2.754-6.456Z" transform="translate(-9.472 -44.256)" fill="#b97964"/>
        <path id="Trazado_732560" data-name="Trazado 732560" d="M81.241,95.779a15.146,15.146,0,0,0-7.694,8.812c-2.307,6.9-3.631,17.5-3.631,17.5S54.128,118.46,50.5,117.93l-3.011,8.416s20.844,9.735,22.888,10.279c6.042,1.611,9.153-8.842,9.153-8.842l2.121-32.2Z" transform="translate(-16.879 -33.972)" fill="#407bff"/>
        <g id="Grupo_1032356" data-name="Grupo 1032356" transform="translate(30.609 61.607)" opacity="0.4">
          <g id="Grupo_1032355" data-name="Grupo 1032355">
            <g id="Grupo_1032354" data-name="Grupo 1032354" clip-path="url(#clip-path-29)">
              <path id="Trazado_732561" data-name="Trazado 732561" d="M81.241,95.779a15.146,15.146,0,0,0-7.694,8.812c-2.307,6.9-3.631,17.5-3.631,17.5S54.128,118.46,50.5,117.93l-3.011,8.416s20.844,9.735,22.888,10.279c6.042,1.611,9.153-8.842,9.153-8.842l2.121-32.2Z" transform="translate(-47.488 -95.579)" fill="#b6dffa"/>
            </g>
          </g>
        </g>
        <path id="Trazado_732562" data-name="Trazado 732562" d="M32.028,125.691l.35-11.366-3.5-.7-3.5.7.349,11.366s-7.257,2.973-6.819,10.317c.329,5.539,3.818,7.737,7.654,8.467a12.4,12.4,0,0,0,4.626,0c3.836-.73,7.325-2.928,7.655-8.467.437-7.345-6.82-10.317-6.82-10.317" transform="translate(-6.716 -40.387)" fill="#407bff"/>
        <g id="Grupo_1032359" data-name="Grupo 1032359" transform="translate(12.178 73.238)" opacity="0.7">
          <g id="Grupo_1032358" data-name="Grupo 1032358">
            <g id="Grupo_1032357" data-name="Grupo 1032357" clip-path="url(#clip-path-30)">
              <path id="Trazado_732563" data-name="Trazado 732563" d="M32.028,125.691l.35-11.366-3.5-.7-3.5.7.349,11.366s-7.257,2.973-6.819,10.317c.329,5.539,3.818,7.737,7.654,8.467a12.4,12.4,0,0,0,4.626,0c3.836-.73,7.325-2.928,7.655-8.467.437-7.345-6.82-10.317-6.82-10.317" transform="translate(-18.894 -113.625)" fill="#fff"/>
            </g>
          </g>
        </g>
        <g id="Grupo_1032362" data-name="Grupo 1032362" transform="translate(13.025 74.299)" opacity="0.3">
          <g id="Grupo_1032361" data-name="Grupo 1032361">
            <g id="Grupo_1032360" data-name="Grupo 1032360" clip-path="url(#clip-path-31)">
              <path id="Trazado_732564" data-name="Trazado 732564" d="M31.876,126.7l.154-11.282-2.792-.144-2.688.13.286,11.335s-7.013,2.939-6.613,9.661c.319,5.36,3.868,7.3,7.609,7.851a10.409,10.409,0,0,0,3.028,0c3.741-.55,7.29-2.492,7.609-7.851.4-6.722-6.594-9.7-6.594-9.7" transform="translate(-20.208 -115.271)" fill="#407bff"/>
            </g>
          </g>
        </g>
        <path id="Trazado_732565" data-name="Trazado 732565" d="M35.429,114.36H27.873a.879.879,0,0,1-.879-.879v-.3a.879.879,0,0,1,.879-.879h7.556a.879.879,0,0,1,.879.879v.3a.879.879,0,0,1-.879.879" transform="translate(-9.595 -39.916)" fill="#407bff"/>
        <g id="Grupo_1032365" data-name="Grupo 1032365" transform="translate(17.399 72.386)" opacity="0.7">
          <g id="Grupo_1032364" data-name="Grupo 1032364">
            <g id="Grupo_1032363" data-name="Grupo 1032363" clip-path="url(#clip-path-32)">
              <path id="Trazado_732566" data-name="Trazado 732566" d="M35.429,114.36H27.873a.879.879,0,0,1-.879-.879v-.3a.879.879,0,0,1,.879-.879h7.556a.879.879,0,0,1,.879.879v.3a.879.879,0,0,1-.879.879" transform="translate(-26.994 -112.303)" fill="#fff"/>
            </g>
          </g>
        </g>
        <g id="Grupo_1032368" data-name="Grupo 1032368" transform="translate(18.683 74.444)" opacity="0.3">
          <g id="Grupo_1032367" data-name="Grupo 1032367">
            <g id="Grupo_1032366" data-name="Grupo 1032366" clip-path="url(#clip-path-33)">
              <path id="Trazado_732567" data-name="Trazado 732567" d="M28.985,115.5l.019.622H35.93l.019-.622Z" transform="translate(-28.985 -115.495)"/>
            </g>
          </g>
        </g>
        <g id="Grupo_1032371" data-name="Grupo 1032371" transform="translate(18.763 72.911)" opacity="0.3">
          <g id="Grupo_1032370" data-name="Grupo 1032370">
            <g id="Grupo_1032369" data-name="Grupo 1032369" clip-path="url(#clip-path-34)">
              <path id="Trazado_732568" data-name="Trazado 732568" d="M32.064,113.653H29.339a.229.229,0,0,1-.229-.229v-.078a.229.229,0,0,1,.229-.228h2.725a.229.229,0,0,1,.229.228v.078a.229.229,0,0,1-.229.229" transform="translate(-29.11 -113.117)" fill="#fff"/>
            </g>
          </g>
        </g>
        <path id="Trazado_732569" data-name="Trazado 732569" d="M20.233,148.046c.319,5.36,3.868,7.3,7.609,7.851a10.409,10.409,0,0,0,3.028,0c3.741-.55,7.29-2.492,7.609-7.851Z" transform="translate(-7.192 -52.621)" fill="#ffa031"/>
        <g id="Grupo_1032374" data-name="Grupo 1032374" transform="translate(13.042 95.425)" opacity="0.5">
          <g id="Grupo_1032373" data-name="Grupo 1032373">
            <g id="Grupo_1032372" data-name="Grupo 1032372" clip-path="url(#clip-path-35)">
              <path id="Trazado_732570" data-name="Trazado 732570" d="M30.87,155.368a10.41,10.41,0,0,1-3.028,0c-3.615-.531-7.05-2.364-7.565-7.322h-.044c.319,5.36,3.868,7.3,7.609,7.851a10.409,10.409,0,0,0,3.028,0c3.742-.55,7.29-2.492,7.609-7.851h-.044c-.515,4.959-3.95,6.791-7.565,7.322" transform="translate(-20.233 -148.046)" fill="#fff"/>
            </g>
          </g>
        </g>
        <path id="Trazado_732571" data-name="Trazado 732571" d="M38.358,147.753c0,.293-4.063.531-9.075.531s-9.075-.238-9.075-.531,4.063-.53,9.075-.53,9.075.237,9.075.53" transform="translate(-7.182 -52.329)" fill="#b16f22"/>
        <g id="Grupo_1032380" data-name="Grupo 1032380" transform="translate(14.76 87.952)" opacity="0.3">
          <g id="Grupo_1032379" data-name="Grupo 1032379">
            <g id="Grupo_1032378" data-name="Grupo 1032378" clip-path="url(#clip-path-36)">
              <path id="Trazado_732573" data-name="Trazado 732573" d="M27.388,136.538a1.2,1.2,0,0,1,.787,1.009,2.128,2.128,0,0,1-.431,1.283c-.257.38-.574.718-.827,1.1a15.7,15.7,0,0,0-.755,1.455,3.217,3.217,0,0,1-1.024,1.258,1.487,1.487,0,0,1-1.551.1,1.9,1.9,0,0,1-.682-1.774,5.11,5.11,0,0,1,3.4-4.447,1.936,1.936,0,0,1,1.08.011" transform="translate(-22.9 -136.453)" fill="#fff"/>
            </g>
          </g>
        </g>
        <path id="Trazado_732574" data-name="Trazado 732574" d="M38.977,154.892a9.065,9.065,0,0,0,4.888-4.8,5.644,5.644,0,0,1-4.888,4.8" transform="translate(-13.854 -53.35)" fill="#fff"/>
        <path id="Trazado_732575" data-name="Trazado 732575" d="M46.656,148.6a.726.726,0,0,0,0-1.45.726.726,0,0,0,0,1.45" transform="translate(-16.334 -52.304)" fill="#fff"/>
        <path id="Trazado_732576" data-name="Trazado 732576" d="M43.734,126.909a8.728,8.728,0,0,0-1.463-3.38c-1.036-1.2-6.566-2.687-6.566-2.687s-1.136,1.089.563,2.691,2.42,2.355,2.42,2.355-.855,1.5,1.53,2.878,3.515-1.856,3.515-1.856" transform="translate(-12.559 -42.952)" fill="#b97964"/>
        <path id="Trazado_732577" data-name="Trazado 732577" d="M30.774,127.163a1.936,1.936,0,0,0-.255-1.933,17.969,17.969,0,0,0-1.653-1.725c-.2-.082-.376-.356-.842-.25-1.044.239-1.2,1.135-.433,2.009,0,0-1.18.179-.661,1.709,0,0-1.233.474.113,1.857s2.355,2.224,3.028,1.355-.121-2.061-.121-2.061.293-.086.823-.96" transform="translate(-9.389 -43.801)" fill="#b97964"/>
        <g id="Grupo_1032383" data-name="Grupo 1032383" transform="translate(15.714 67.332)" opacity="0.3">
          <g id="Grupo_1032382" data-name="Grupo 1032382">
            <g id="Grupo_1032381" data-name="Grupo 1032381" clip-path="url(#clip-path-37)">
              <path id="Trazado_732578" data-name="Trazado 732578" d="M24.5,104.586l1.356.182" transform="translate(-24.423 -104.505)" fill="none" stroke="#407bff" stroke-linecap="round" stroke-linejoin="round" stroke-width="0.25"/>
            </g>
          </g>
        </g>
        <g id="Grupo_1032386" data-name="Grupo 1032386" transform="translate(17.053 65.752)" opacity="0.3">
          <g id="Grupo_1032385" data-name="Grupo 1032385">
            <g id="Grupo_1032384" data-name="Grupo 1032384" clip-path="url(#clip-path-38)">
              <path id="Trazado_732579" data-name="Trazado 732579" d="M27.084,103.3q-.251-.585-.5-1.17" transform="translate(-26.502 -102.054)" fill="none" stroke="#407bff" stroke-linecap="round" stroke-linejoin="round" stroke-width="0.25"/>
            </g>
          </g>
        </g>
        <g id="Grupo_1032389" data-name="Grupo 1032389" transform="translate(18.498 65.859)" opacity="0.3">
          <g id="Grupo_1032388" data-name="Grupo 1032388">
            <g id="Grupo_1032387" data-name="Grupo 1032387" clip-path="url(#clip-path-39)">
              <path id="Trazado_732580" data-name="Trazado 732580" d="M29.6,102.3l-.778,1.125" transform="translate(-28.743 -102.221)" fill="none" stroke="#407bff" stroke-linecap="round" stroke-linejoin="round" stroke-width="0.25"/>
            </g>
          </g>
        </g>
        <g id="Grupo_1032392" data-name="Grupo 1032392" transform="translate(18.34 68.343)" opacity="0.3">
          <g id="Grupo_1032391" data-name="Grupo 1032391">
            <g id="Grupo_1032390" data-name="Grupo 1032390" clip-path="url(#clip-path-40)">
              <path id="Trazado_732581" data-name="Trazado 732581" d="M28.579,106.156l.456,1.189" transform="translate(-28.498 -106.075)" fill="none" stroke="#407bff" stroke-linecap="round" stroke-linejoin="round" stroke-width="0.25"/>
            </g>
          </g>
        </g>
        <g id="Grupo_1032395" data-name="Grupo 1032395" transform="translate(16.661 68.197)" opacity="0.3">
          <g id="Grupo_1032394" data-name="Grupo 1032394">
            <g id="Grupo_1032393" data-name="Grupo 1032393" clip-path="url(#clip-path-41)">
              <path id="Trazado_732582" data-name="Trazado 732582" d="M25.974,107.024l.821-1.094" transform="translate(-25.893 -105.849)" fill="none" stroke="#407bff" stroke-linecap="round" stroke-linejoin="round" stroke-width="0.25"/>
            </g>
          </g>
        </g>
        <g id="Grupo_1032398" data-name="Grupo 1032398" transform="translate(18.796 67.697)" opacity="0.3">
          <g id="Grupo_1032397" data-name="Grupo 1032397">
            <g id="Grupo_1032396" data-name="Grupo 1032396" clip-path="url(#clip-path-42)">
              <path id="Trazado_732583" data-name="Trazado 732583" d="M29.286,105.153l1.27.083" transform="translate(-29.206 -105.072)" fill="none" stroke="#407bff" stroke-linecap="round" stroke-linejoin="round" stroke-width="0.25"/>
            </g>
          </g>
        </g>
        <g id="Grupo_1032401" data-name="Grupo 1032401" transform="translate(24.222 67.322)" opacity="0.3">
          <g id="Grupo_1032400" data-name="Grupo 1032400">
            <g id="Grupo_1032399" data-name="Grupo 1032399" clip-path="url(#clip-path-43)">
              <path id="Trazado_732584" data-name="Trazado 732584" d="M37.705,105.706l.628.084" transform="translate(-37.624 -104.894)" fill="none" stroke="#407bff" stroke-linecap="round" stroke-linejoin="round" stroke-width="0.25"/>
              <path id="Trazado_732585" data-name="Trazado 732585" d="M38.9,105.112l-.233-.541" transform="translate(-37.966 -104.49)" fill="none" stroke="#407bff" stroke-linecap="round" stroke-linejoin="round" stroke-width="0.25"/>
              <path id="Trazado_732586" data-name="Trazado 732586" d="M40.067,104.648l-.36.521" transform="translate(-38.336 -104.518)" fill="none" stroke="#407bff" stroke-linecap="round" stroke-linejoin="round" stroke-width="0.25"/>
              <path id="Trazado_732587" data-name="Trazado 732587" d="M39.593,106.434l.211.55" transform="translate(-38.295 -105.153)" fill="none" stroke="#407bff" stroke-linecap="round" stroke-linejoin="round" stroke-width="0.25"/>
              <path id="Trazado_732588" data-name="Trazado 732588" d="M38.386,106.835q.19-.253.38-.507" transform="translate(-37.866 -105.115)" fill="none" stroke="#407bff" stroke-linecap="round" stroke-linejoin="round" stroke-width="0.25"/>
              <path id="Trazado_732589" data-name="Trazado 732589" d="M39.921,105.969l.588.039" transform="translate(-38.412 -104.987)" fill="none" stroke="#407bff" stroke-linecap="round" stroke-linejoin="round" stroke-width="0.25"/>
            </g>
          </g>
        </g>
        <path id="Trazado_732590" data-name="Trazado 732590" d="M34.411,98.758l.628.084" transform="translate(-12.231 -35.102)" fill="none" stroke="#407bff" stroke-linecap="round" stroke-linejoin="round" stroke-width="0.25"/>
        <path id="Trazado_732591" data-name="Trazado 732591" d="M35.607,98.164l-.233-.542" transform="translate(-12.573 -34.699)" fill="none" stroke="#407bff" stroke-linecap="round" stroke-linejoin="round" stroke-width="0.25"/>
        <path id="Trazado_732592" data-name="Trazado 732592" d="M36.773,97.7l-.36.521" transform="translate(-12.943 -34.726)" fill="none" stroke="#407bff" stroke-linecap="round" stroke-linejoin="round" stroke-width="0.25"/>
        <path id="Trazado_732593" data-name="Trazado 732593" d="M36.3,99.485l.211.55" transform="translate(-12.902 -35.361)" fill="none" stroke="#407bff" stroke-linecap="round" stroke-linejoin="round" stroke-width="0.25"/>
        <path id="Trazado_732594" data-name="Trazado 732594" d="M35.092,99.888l.38-.507" transform="translate(-12.473 -35.324)" fill="none" stroke="#407bff" stroke-linecap="round" stroke-linejoin="round" stroke-width="0.25"/>
        <path id="Trazado_732595" data-name="Trazado 732595" d="M36.627,99.02l.588.039" transform="translate(-13.019 -35.196)" fill="none" stroke="#407bff" stroke-linecap="round" stroke-linejoin="round" stroke-width="0.25"/>
        <g id="Grupo_1032404" data-name="Grupo 1032404" transform="translate(20.397 69.532)" opacity="0.3">
          <g id="Grupo_1032403" data-name="Grupo 1032403">
            <g id="Grupo_1032402" data-name="Grupo 1032402" clip-path="url(#clip-path-44)">
              <path id="Trazado_732596" data-name="Trazado 732596" d="M32.6,108.417a.417.417,0,1,1-.418-.417A.417.417,0,0,1,32.6,108.417Z" transform="translate(-31.689 -107.919)" fill="none" stroke="#fff" stroke-miterlimit="10" stroke-width="0.25"/>
            </g>
          </g>
        </g>
        <path id="Trazado_732597" data-name="Trazado 732597" d="M139.6,69.917a5.947,5.947,0,0,0,2.512-2.026,2.623,2.623,0,0,0-.078-3.047c-.632-.707-1.771-.977-2.084-1.872a3.21,3.21,0,0,1,.448-2.179,7.014,7.014,0,0,0-1.531-7.454,13.062,13.062,0,0,1-2.132-2.12A8.073,8.073,0,0,1,135.9,48.1a13.489,13.489,0,0,0-4.267-8.31,8.374,8.374,0,0,0-8.9-1.395L127.235,75.9a17.682,17.682,0,0,0,10.235,1.176,7.214,7.214,0,0,0,3.329-1.564,3.85,3.85,0,0,0,1.325-3.317,2.656,2.656,0,0,0-2.524-2.281" transform="translate(-43.623 -13.386)" fill="#12263f"/>
        <path id="Trazado_732598" data-name="Trazado 732598" d="M88.479,58.127a6.031,6.031,0,0,0-3.328,9.625A5.808,5.808,0,0,0,83.7,74.6a6.7,6.7,0,0,0,6.156,3.62,7.95,7.95,0,0,0,6.27-3.664l4.524-38.277C91.907,39.874,86.6,49.837,88.479,58.127" transform="translate(-29.559 -12.895)" fill="#12263f"/>
        <path id="Trazado_732599" data-name="Trazado 732599" d="M93.8,66.112c.094.162.2.326.307.484-3.426,2.661.068,6.162,1.125,6.705a9.6,9.6,0,0,0,2.56.92c4.219.9,7.837-1.326,9.777-2.425,2.791-1.587,2.663-7.209,4.252-10.125,2.079-3.814,5.58-13.235,2.418-20.3a15.38,15.38,0,0,0-2.921-4.625,6.608,6.608,0,0,0-6.678-1.214,14.436,14.436,0,0,0-5.928,4.23,27.427,27.427,0,0,0-6.459,11.367c-1.086,4,.2,5.326,1.068,7.864l-.016.08a9.071,9.071,0,0,0,.5,7.041" transform="translate(-32.641 -12.489)" fill="#12263f"/>
        <path id="Trazado_732600" data-name="Trazado 732600" d="M107.457,88.3s5.89-.67,12.028-.679c3.537-.006,2.526-3.871,6.763-.915,1.531-2.818.765-6.324-.924-9.057a8.1,8.1,0,0,0-1.267-1.593,7.83,7.83,0,0,0-1.174-.948,7.15,7.15,0,0,0-.711-.412,8.256,8.256,0,0,0-2.016-.783,8.6,8.6,0,0,0-3.592-.116,10.424,10.424,0,0,0-4.642,2.243,12.12,12.12,0,0,0-1.749,1.767,11.054,11.054,0,0,0-.75,1.015,13.283,13.283,0,0,0-.816,1.423.932.932,0,0,0-.029.145,10.888,10.888,0,0,0-.641,4.953c.09,1.056-.631,2.086-.48,2.957" transform="translate(-38.187 -26.181)" fill="#12263f"/>
        <path id="Trazado_732601" data-name="Trazado 732601" d="M110.593,96.377c1.249,1.288,2.389.859,4.056.177,9.918-3.566,6.983-8.355,6.983-8.355-1.881-2.208-1.964-4.848-1.278-8.874a2.5,2.5,0,0,0,.015-.354,2.6,2.6,0,0,0-.494-1.494,2.659,2.659,0,0,0-3.7-.694l0,0-4.44,1.269-.038.19c-.012,2.2.05,3.911.035,5.256a3.37,3.37,0,0,0-.01.49,2.551,2.551,0,0,0-.02.5c-.106,1.842-3.223,4.547-4.493,5.189-.77.441-.854,2.36,3.383,6.7" transform="translate(-37.961 -27.126)" fill="#b97964"/>
        <g id="Grupo_1032407" data-name="Grupo 1032407" transform="translate(73.7 49.167)" opacity="0.2" style="isolation: isolate">
          <g id="Grupo_1032406" data-name="Grupo 1032406">
            <g id="Grupo_1032405" data-name="Grupo 1032405" clip-path="url(#clip-path-45)">
              <path id="Trazado_732602" data-name="Trazado 732602" d="M114.419,78.024h0a.637.637,0,0,1-.04.2c-.012,2.2.051,3.911.035,5.255a3.271,3.271,0,0,1-.01.49,3.887,3.887,0,0,1-.063.51,17.105,17.105,0,0,0,8.629-5.529,2.719,2.719,0,0,0-.456-1.486,2.667,2.667,0,0,0-3.69-.738Z" transform="translate(-114.342 -76.28)"/>
            </g>
          </g>
        </g>
        <path id="Trazado_732603" data-name="Trazado 732603" d="M121.341,51.437c-.17,7.593-.074,10.8-3.682,14.922-5.432,6.192-14.528,4.54-16.622-2.911-1.83-6.709-1.281-17.976,5.876-21.46s14.592,1.847,14.427,9.449" transform="translate(-35.596 -14.537)" fill="#b97964"/>
        <path id="Trazado_732604" data-name="Trazado 732604" d="M128.259,57.32c-1.534.772-1.288,7.909,2.371,7.61s2.661-10.14-2.371-7.61" transform="translate(-45.272 -20.226)" fill="#263238"/>
        <path id="Trazado_732605" data-name="Trazado 732605" d="M134.745,64.91a6.154,6.154,0,0,1-3.461,3.194c-1.974.677-3.29-2.478-2.772-4.558a4.07,4.07,0,0,1,4.343-3.013c1.967.228,2.768,2.5,1.89,4.377" transform="translate(-45.638 -21.507)" fill="#b97964"/>
        <g id="Grupo_1032410" data-name="Grupo 1032410" transform="translate(84.648 40.37)" opacity="0.2">
          <g id="Grupo_1032409" data-name="Grupo 1032409">
            <g id="Grupo_1032408" data-name="Grupo 1032408" clip-path="url(#clip-path-46)">
              <path id="Trazado_732606" data-name="Trazado 732606" d="M131.577,65.708a2.779,2.779,0,0,1,2.72-2.827" transform="translate(-131.415 -62.721)" fill="none" stroke="#000" stroke-linecap="round" stroke-linejoin="round" stroke-width="0.5"/>
            </g>
          </g>
        </g>
        <path id="Trazado_732607" data-name="Trazado 732607" d="M116.681,61.563c.031.81-.35,1.508-.85,1.561s-.931-.561-.962-1.37.35-1.508.85-1.561.931.561.962,1.37" transform="translate(-40.828 -21.394)" fill="#263238"/>
        <path id="Trazado_732608" data-name="Trazado 732608" d="M105.021,62.537c.028.784-.353,1.463-.852,1.516s-.926-.541-.954-1.325.353-1.463.852-1.516.926.541.954,1.325" transform="translate(-36.686 -21.756)" fill="#263238"/>
        <path id="Trazado_732609" data-name="Trazado 732609" d="M117.945,56.959a.341.341,0,0,1-.278-.064,2.758,2.758,0,0,0-2.57-.489.345.345,0,0,1-.46-.217.408.408,0,0,1,.238-.493,3.444,3.444,0,0,1,3.257.579.384.384,0,0,1,.052.531.392.392,0,0,1-.238.152" transform="translate(-40.74 -19.733)" fill="#263238"/>
        <path id="Trazado_732610" data-name="Trazado 732610" d="M101.471,56.939a.284.284,0,0,1-.188-.151.41.41,0,0,1,.148-.506,3.157,3.157,0,0,1,3.07-.463.346.346,0,0,1,.123.477.357.357,0,0,1-.458.194,2.531,2.531,0,0,0-2.431.4.331.331,0,0,1-.264.053" transform="translate(-35.987 -19.768)" fill="#263238"/>
        <path id="Trazado_732611" data-name="Trazado 732611" d="M107.91,62.426a25.919,25.919,0,0,1-2.146,4.845.591.591,0,0,0,.352.876,3.783,3.783,0,0,0,2.045-.14Z" transform="translate(-37.561 -22.189)" fill="#a24e3f"/>
        <path id="Trazado_732612" data-name="Trazado 732612" d="M115.655,60.062l-1.784-.266s1.067,1.223,1.784.266" transform="translate(-40.474 -21.254)" fill="#263238"/>
        <path id="Trazado_732613" data-name="Trazado 732613" d="M103.835,61.073l-1.784-.266s1.067,1.223,1.784.266" transform="translate(-36.273 -21.613)" fill="#263238"/>
        <path id="Trazado_732614" data-name="Trazado 732614" d="M110.3,72.9a17.938,17.938,0,0,1,1.475,2.132c.143-.054.286-.106.426-.168,1.921-.772,2.558-1.764,2.68-2.631a2.67,2.67,0,0,0-.151-1.255,2.6,2.6,0,0,0-.324-.646,9.749,9.749,0,0,1-3.455,2.295c-.394.18-.651.273-.651.273" transform="translate(-39.205 -25)" fill="#263238"/>
        <path id="Trazado_732615" data-name="Trazado 732615" d="M111.31,72.63l.451.617c1.808-.732,2.982-1.489,3.329-2.266a2.562,2.562,0,0,0-.324-.646,9.756,9.756,0,0,1-3.455,2.294" transform="translate(-39.564 -25)" fill="#fff"/>
        <path id="Trazado_732616" data-name="Trazado 732616" d="M113.25,75.917c1.921-.772,2.558-1.765,2.68-2.631a6.671,6.671,0,0,0-1.963,1.279,2.5,2.5,0,0,0-.717,1.352" transform="translate(-40.253 -26.049)" fill="#de5753"/>
        <path id="Trazado_732617" data-name="Trazado 732617" d="M116.466,41.443a2.4,2.4,0,0,0-1.906-1.279,12.922,12.922,0,0,0-14.437,6.928l.6.612a6.971,6.971,0,0,0,6.671-2.011,4.683,4.683,0,0,0,4.175.515,10.813,10.813,0,0,0,3.689-2.284c.742-.64,1.523-1.553,1.21-2.482" transform="translate(-35.588 -14.166)" fill="#12263f"/>
        <g id="Grupo_1032413" data-name="Grupo 1032413" transform="translate(63.053 37.522)" opacity="0.3">
          <g id="Grupo_1032412" data-name="Grupo 1032412">
            <g id="Grupo_1032411" data-name="Grupo 1032411" clip-path="url(#clip-path-47)">
              <path id="Trazado_732618" data-name="Trazado 732618" d="M115.282,58.213c-.374,0-16.093-.008-16.9.491s-1,6.948,1.311,7.323,3.208.055,3.764-1.09.644-3.067,1.337-2.867.251,3.583,4.318,3.57,4.77-.793,4.77-2.654a13.29,13.29,0,0,1,.221-2.47l1.185-.316Z" transform="translate(-97.823 -58.213)" fill="#fff"/>
            </g>
          </g>
        </g>
        <path id="Trazado_732619" data-name="Trazado 732619" d="M133.549,48.4a8.9,8.9,0,0,0-3.951-4.834,6.623,6.623,0,0,0-6.125-.2l-.278,2.087a36.7,36.7,0,0,0,.219,8.5,8.075,8.075,0,0,0,.706,2.6,3.2,3.2,0,0,0,1.99,1.707c1.34.322,2.656-.52,3.777-1.321,1.58-1.127,3.251-2.372,3.882-4.208a6.591,6.591,0,0,0-.22-4.324" transform="translate(-43.735 -15.181)" fill="#12263f"/>
        <path id="Trazado_732620" data-name="Trazado 732620" d="M136.944,62.732a8.768,8.768,0,0,0-5.1-5.549l-5.516,6.372a4.407,4.407,0,0,0-.63,7.646,3.893,3.893,0,0,0-2.326,1.713,6.329,6.329,0,0,0-.912,2.788,4.551,4.551,0,0,0,.732,3.329,4.491,4.491,0,0,0,3.851,1.348,10.07,10.07,0,0,0,6.578-3.309,15.005,15.005,0,0,0,3.4-6.641,13.958,13.958,0,0,0-.08-7.7" transform="translate(-43.512 -20.325)" fill="#12263f"/>
        <path id="Trazado_732621" data-name="Trazado 732621" d="M72.087,252.269s42.461.425,45.161.268-7.654-27.119-7.654-27.119-14.127-20.667-14.117-20.592-23.389,47.442-23.389,47.442" transform="translate(-25.623 -72.803)" fill="#407bff"/>
        <path id="Trazado_732622" data-name="Trazado 732622" d="M143.706,391.82l-.786,1.1-1.562-.673-.972,4.812-6.584,9.2s-2.505.4-.532-4.823a4.084,4.084,0,0,0,.208-.792c.587-3.125-.7-9.117-.7-9.117l3.611-5.046a7.929,7.929,0,0,1,1.018.112c1.495.249,4.487.979,6.3,5.236" transform="translate(-47.1 -137.367)" fill="#407bff"/>
        <g id="Grupo_1032416" data-name="Grupo 1032416" transform="translate(85.413 249.105)" opacity="0.2">
          <g id="Grupo_1032415" data-name="Grupo 1032415">
            <g id="Grupo_1032414" data-name="Grupo 1032414" clip-path="url(#clip-path-48)">
              <path id="Trazado_732623" data-name="Trazado 732623" d="M143.706,391.82l-.786,1.1-1.562-.673-.972,4.812-6.584,9.2s-2.505.4-.532-4.823a4.084,4.084,0,0,0,.208-.792c.587-3.125-.7-9.117-.7-9.117l3.611-5.046a7.929,7.929,0,0,1,1.018.112c1.495.249,4.487.979,6.3,5.236" transform="translate(-132.513 -386.472)"/>
            </g>
          </g>
        </g>
        <path id="Trazado_732624" data-name="Trazado 732624" d="M137.1,386.506l.015.011c-1.213.13-.149,5.516-.637,8.538-.44,2.695-1.6,5.239-3.3,5.5.586-3.125-1.528-10.248-1.528-10.248l2.905-4.057s1.908.149,2.549.254" transform="translate(-46.791 -137.289)" fill="#a24e3f"/>
        <path id="Trazado_732625" data-name="Trazado 732625" d="M124.489,411.6l-1.341,0-.373-1.669-4.439,2.021H107.087s-1.789-1.813,3.568-3.258a3.981,3.981,0,0,0,.759-.293c2.857-1.35,6.922-5.911,6.922-5.911h6.172a7.943,7.943,0,0,1,.506.9c.674,1.369,1.839,4.243-.525,8.215" transform="translate(-37.961 -143.06)" fill="#407bff"/>
        <path id="Trazado_732626" data-name="Trazado 732626" d="M127.558,402.482v.019c-.815-.916-4.524,3.107-7.24,4.476-2.426,1.218-5.151,1.756-6.36.52,2.857-1.35,7.392-7.552,7.392-7.552l4.959.151s.957,1.8,1.248,2.387" transform="translate(-40.505 -142.156)" fill="#b97964"/>
        <path id="Trazado_732627" data-name="Trazado 732627" d="M101.926,264.452c-3.062-8.439-6.81-16.739-11.315-23.456,18.409-52.809,17.833-76.435,17.833-76.435l-22.168-.018-2.362,8.832s-5.539,21.986-7.153,34.607L72.133,236.04v.079a31.7,31.7,0,0,0,3.729,16.739c3.013,5.6,8.341,12.246,11.266,18.28,3.846,7.964,7.478,15.948,10.579,23.091,3.267,7.528,5.927,14.107,7.585,18.677,1.57.178,6.31-2.671,7.674-5.253a258.862,258.862,0,0,0-11.039-43.2" transform="translate(-25.622 -58.485)" fill="#12263f"/>
        <g id="Grupo_1032419" data-name="Grupo 1032419" transform="translate(68.664 136.153)" opacity="0.2">
          <g id="Grupo_1032418" data-name="Grupo 1032418">
            <g id="Grupo_1032417" data-name="Grupo 1032417" clip-path="url(#clip-path-49)">
              <path id="Trazado_732628" data-name="Trazado 732628" d="M108.446,242.892c2.7-8.976,5.724-14.091,7.1-20.757.012-1.557-5.159-8.217-7.792-10.9,0,0-3.168,12.731.694,31.658" transform="translate(-106.528 -211.234)"/>
            </g>
          </g>
        </g>
        <g id="Grupo_1032422" data-name="Grupo 1032422" transform="translate(72.084 205.967)" opacity="0.2">
          <g id="Grupo_1032421" data-name="Grupo 1032421">
            <g id="Grupo_1032420" data-name="Grupo 1032420" clip-path="url(#clip-path-50)">
              <path id="Trazado_732629" data-name="Trazado 732629" d="M111.834,349.324c3.268,7.528,5.927,14.108,7.585,18.678,1.57.178,6.31-2.671,7.674-5.253a258.934,258.934,0,0,0-11.039-43.2c-1.56,8.745-3.307,19.8-4.22,29.778" transform="translate(-111.834 -319.546)"/>
            </g>
          </g>
        </g>
        <path id="Trazado_732630" data-name="Trazado 732630" d="M102.785,165.053s8.437,58.333,9.42,71.466c0,0,5.213,63.708,4.278,79.72l11.625.565s7.819-48.253,3.865-79.217c-.344-4.037,3.258-30.364,3.827-40.852,1.37-25.232-8.869-32.164-8.869-32.164Z" transform="translate(-36.534 -58.495)" fill="#12263f"/>
        <path id="Trazado_732631" data-name="Trazado 732631" d="M120.556,142.556c.648-7.351,3.258-20.821,7.752-34.967,1.462-4.6-1.017-9.794-1.017-9.794s-6.117-.158-6.735-.228c-.677-.079-1.374-.148-2.071-.208a98.887,98.887,0,0,0-14.229-.485c-1.178.069-2.384.168-3.572.267-.383.04-2.867.077-3.24.117,0,0-6.731,7.875-7.093,13.435-.2,3.107-1.7,4.444-1.531,11.873.03,5.046,3.691,12.4,4.025,19.49Z" transform="translate(-31.565 -34.398)" fill="#fff"/>
        <path id="Trazado_732632" data-name="Trazado 732632" d="M95.613,92.521s-8.478,11.655-9.652,21.493c-.691,5.795-1.028,20.684-1.392,24.966-.6,7.055-11.063,60.723-15.1,73.372l-4.752-1.471L81.5,138.944s-3.405-21.1-2.5-26.374,8.773-18.078,8.773-18.078l3.59-.247Z" transform="translate(-23.002 -32.886)" fill="#407bff"/>
        <g id="Grupo_1032425" data-name="Grupo 1032425" transform="translate(41.713 59.635)" opacity="0.4">
          <g id="Grupo_1032424" data-name="Grupo 1032424">
            <g id="Grupo_1032423" data-name="Grupo 1032423" clip-path="url(#clip-path-51)">
              <path id="Trazado_732633" data-name="Trazado 732633" d="M95.613,92.521s-6.657,9.844-9.066,18.385c-1.584,5.616-1.613,23.791-1.978,28.073-.6,7.055-11.063,60.723-15.1,73.372l-4.752-1.471L81.5,138.944s-3.405-21.1-2.5-26.374,8.773-18.078,8.773-18.078l3.59-.247Z" transform="translate(-64.715 -92.521)" fill="#b6dffa"/>
            </g>
          </g>
        </g>
        <g id="Grupo_1032428" data-name="Grupo 1032428" transform="translate(55.915 84.546)" opacity="0.3">
          <g id="Grupo_1032427" data-name="Grupo 1032427">
            <g id="Grupo_1032426" data-name="Grupo 1032426" clip-path="url(#clip-path-52)">
              <path id="Trazado_732634" data-name="Trazado 732634" d="M88.669,148.317,86.749,131.17v18.275a19.386,19.386,0,0,0,1.919-1.128" transform="translate(-86.749 -131.169)"/>
            </g>
          </g>
        </g>
        <path id="Trazado_732635" data-name="Trazado 732635" d="M108.63,94.691l3.475-4.774,1.655,2.842,5.013-3.7,2.836,2.034L120.1,97.721s-7.158,2.251-7.481,2.251-3.992-5.281-3.992-5.281" transform="translate(-38.611 -31.655)" fill="#fff"/>
        <path id="Trazado_732636" data-name="Trazado 732636" d="M126.769,213.021l20.733-1.2-1.183-36.844a102.978,102.978,0,0,0-9.173-39.568l-2.376-5.234s1.024-.346,2.79-6.974c.853-3.225,1.746-6.648,2.5-9.7a80.379,80.379,0,0,0,1.982-9.22c.2-3.71-4.3-9.594-4.3-9.594l-10.8-2.476s-2.8,8.953-3.261,24.02,3.085,96.786,3.085,96.786" transform="translate(-43.947 -32.777)" fill="#407bff"/>
        <g id="Grupo_1032431" data-name="Grupo 1032431" transform="translate(79.696 59.438)" opacity="0.4">
          <g id="Grupo_1032430" data-name="Grupo 1032430">
            <g id="Grupo_1032429" data-name="Grupo 1032429" clip-path="url(#clip-path-53)">
              <path id="Trazado_732637" data-name="Trazado 732637" d="M126.769,213.021l20.733-1.2-1.183-36.844a102.978,102.978,0,0,0-9.173-39.568l-2.376-5.234s1.024-.346,2.79-6.974c.853-3.225,1.746-6.648,2.5-9.7a80.379,80.379,0,0,0,1.982-9.22c.2-3.71-4.3-9.594-4.3-9.594l-10.8-2.476s-2.8,8.953-3.261,24.02,3.085,96.786,3.085,96.786" transform="translate(-123.644 -92.215)" fill="#b6dffa"/>
            </g>
          </g>
        </g>
        <g id="Grupo_1032434" data-name="Grupo 1032434" transform="translate(91.625 75.207)" opacity="0.2">
          <g id="Grupo_1032433" data-name="Grupo 1032433">
            <g id="Grupo_1032432" data-name="Grupo 1032432" clip-path="url(#clip-path-54)">
              <path id="Trazado_732638" data-name="Trazado 732638" d="M142.986,129.017a3.628,3.628,0,0,0,1.423,1.791c.853-3.225,1.747-6.648,2.5-9.695-1.982-2.414-3.66-4.432-3.66-4.432s-2.286,7.152-.265,12.336" transform="translate(-142.151 -116.68)"/>
            </g>
          </g>
        </g>
        <g id="Grupo_1032437" data-name="Grupo 1032437" transform="translate(79.961 101.68)" opacity="0.2">
          <g id="Grupo_1032436" data-name="Grupo 1032436">
            <g id="Grupo_1032435" data-name="Grupo 1032435" clip-path="url(#clip-path-55)">
              <path id="Trazado_732639" data-name="Trazado 732639" d="M124.055,158.625l12.806-.874,1.024,2.278-13.763,1.1Z" transform="translate(-124.055 -157.751)"/>
            </g>
          </g>
        </g>
        <g id="Grupo_1032440" data-name="Grupo 1032440" transform="translate(79.696 91.218)" opacity="0.2">
          <g id="Grupo_1032439" data-name="Grupo 1032439">
            <g id="Grupo_1032438" data-name="Grupo 1032438" clip-path="url(#clip-path-56)">
              <path id="Trazado_732640" data-name="Trazado 732640" d="M123.644,145.013l13.585-2.845.115-.65-13.636,2.194Z" transform="translate(-123.644 -141.519)"/>
            </g>
          </g>
        </g>
        <g id="Grupo_1032443" data-name="Grupo 1032443" transform="translate(69.249 59.848)" opacity="0.2">
          <g id="Grupo_1032442" data-name="Grupo 1032442">
            <g id="Grupo_1032441" data-name="Grupo 1032441" clip-path="url(#clip-path-57)">
              <path id="Trazado_732641" data-name="Trazado 732641" d="M107.879,96.827l5.161-2.171,4.843,3.238,3.279-5.042-2.4,6.506L112.784,95.4l-5.349,2.491Z" transform="translate(-107.436 -92.851)"/>
            </g>
          </g>
        </g>
        <path id="Trazado_732642" data-name="Trazado 732642" d="M108.885,102.245,101.7,137.884l2.583,7.575,7.014-8.636.427-34.128Z" transform="translate(-36.148 -36.342)" fill="#407bff"/>
        <path id="Trazado_732643" data-name="Trazado 732643" d="M111.675,96.859l.755,3.043,2.838.45,1.688-3.089-2.411-1.611Z" transform="translate(-39.694 -33.998)" fill="#407bff"/>
        <path id="Trazado_732644" data-name="Trazado 732644" d="M115.017,162.316c0,.177-1.845.32-4.12.32s-4.12-.143-4.12-.32,1.845-.32,4.12-.32,4.12.143,4.12.32" transform="translate(-37.953 -57.58)"/>
        <g id="Grupo_1032446" data-name="Grupo 1032446" transform="translate(65.232 91.829)" opacity="0.3">
          <g id="Grupo_1032445" data-name="Grupo 1032445">
            <g id="Grupo_1032444" data-name="Grupo 1032444" clip-path="url(#clip-path-58)">
              <path id="Trazado_732645" data-name="Trazado 732645" d="M101.238,163.262l6.194-13.764v-.189c0-.017.012-1.718.018-3.4,0-.991,0-1.782,0-2.353,0-.064,0-1.026,0-1.085h2.893v6.93l6.243,13.863a.373.373,0,0,1-.34.526H101.577a.373.373,0,0,1-.34-.526" transform="translate(-101.204 -142.468)" fill="#407bff"/>
            </g>
          </g>
        </g>
        <path id="Trazado_732646" data-name="Trazado 732646" d="M113.987,141.743h-5.3a.562.562,0,0,1-.562-.562v-.191a.562.562,0,0,1,.562-.562h5.3a.562.562,0,0,1,.562.562v.191a.562.562,0,0,1-.562.562" transform="translate(-38.431 -49.913)" fill="#407bff"/>
        <path id="Trazado_732647" data-name="Trazado 732647" d="M106,142.468c.048,0,0,6.834,0,6.834l-6.194,13.765a1.148,1.148,0,0,0,1.047,1.62h15.128a1.1,1.1,0,0,0,1-1.551l-6.273-13.93v-6.738Z" transform="translate(-35.438 -50.639)" fill="#407bff"/>
        <g id="Grupo_1032449" data-name="Grupo 1032449" transform="translate(64.251 91.829)" opacity="0.7">
          <g id="Grupo_1032448" data-name="Grupo 1032448">
            <g id="Grupo_1032447" data-name="Grupo 1032447" clip-path="url(#clip-path-59)">
              <path id="Trazado_732648" data-name="Trazado 732648" d="M105.979,142.468c.048,0,0,6.834,0,6.834l-6.194,13.765a1.148,1.148,0,0,0,1.047,1.62H115.96a1.1,1.1,0,0,0,1-1.551l-6.273-13.93v-6.738Z" transform="translate(-99.682 -142.468)" fill="#fff"/>
            </g>
          </g>
        </g>
        <g id="Grupo_1032452" data-name="Grupo 1032452" transform="translate(65.232 91.829)" opacity="0.3">
          <g id="Grupo_1032451" data-name="Grupo 1032451">
            <g id="Grupo_1032450" data-name="Grupo 1032450" clip-path="url(#clip-path-58)">
              <path id="Trazado_732649" data-name="Trazado 732649" d="M101.238,163.262l6.194-13.764v-.189c0-.017.012-1.718.018-3.4,0-.991,0-1.782,0-2.353,0-.064,0-1.026,0-1.085h2.893v6.93l6.243,13.863a.373.373,0,0,1-.34.526H101.577a.373.373,0,0,1-.34-.526" transform="translate(-101.204 -142.468)" fill="#407bff"/>
            </g>
          </g>
        </g>
        <g id="Grupo_1032455" data-name="Grupo 1032455" transform="translate(70.561 91.829)" opacity="0.3">
          <g id="Grupo_1032454" data-name="Grupo 1032454">
            <g id="Grupo_1032453" data-name="Grupo 1032453" clip-path="url(#clip-path-61)">
              <rect id="Rectángulo_351893" data-name="Rectángulo 351893" width="4.712" height="0.463" transform="translate(0 0.001)"/>
            </g>
          </g>
        </g>
        <path id="Trazado_732650" data-name="Trazado 732650" d="M116.589,170.361l-3.566-7.919-8.235.03-3.549,7.889a.372.372,0,0,0,.34.526h14.671a.373.373,0,0,0,.34-.526" transform="translate(-35.972 -57.738)" fill="#ffa031"/>
        <path id="Trazado_732651" data-name="Trazado 732651" d="M115.012,162.316c0,.177-1.845.32-4.12.32s-4.12-.143-4.12-.32,1.845-.32,4.12-.32,4.12.143,4.12.32" transform="translate(-37.951 -57.58)" fill="#b16f22"/>
        <g id="Grupo_1032461" data-name="Grupo 1032461" transform="translate(69.692 90.514)" opacity="0.7">
          <g id="Grupo_1032460" data-name="Grupo 1032460">
            <g id="Grupo_1032459" data-name="Grupo 1032459" clip-path="url(#clip-path-62)">
              <path id="Trazado_732653" data-name="Trazado 732653" d="M113.987,141.743h-5.3a.562.562,0,0,1-.562-.562v-.191a.562.562,0,0,1,.562-.562h5.3a.562.562,0,0,1,.562.562v.191a.562.562,0,0,1-.562.562" transform="translate(-108.123 -140.427)" fill="#fff"/>
            </g>
          </g>
        </g>
        <path id="Trazado_732654" data-name="Trazado 732654" d="M111.2,141.028a.356.356,0,0,0-.249-.065H109.4a.253.253,0,0,0-.227.084c-.057.079-.13.332.157.338a11.486,11.486,0,0,0,1.753.034.2.2,0,0,0,.173-.086.273.273,0,0,0-.061-.3" transform="translate(-38.786 -50.104)" fill="#fff"/>
        <path id="Trazado_732655" data-name="Trazado 732655" d="M113.282,141.18a.217.217,0,1,1-.217-.217.217.217,0,0,1,.217.217" transform="translate(-40.111 -50.104)" fill="#fff"/>
        <g id="Grupo_1032464" data-name="Grupo 1032464" transform="translate(69.062 101.338)" opacity="0.3">
          <g id="Grupo_1032463" data-name="Grupo 1032463">
            <g id="Grupo_1032462" data-name="Grupo 1032462" clip-path="url(#clip-path-63)">
              <path id="Trazado_732656" data-name="Trazado 732656" d="M110.606,157.41c.337.253.148.741.082.938-.475,1.417-.731,2.482-1.285,3.878a2.531,2.531,0,0,1-.783,1.131.98.98,0,0,1-1.268-.017c-.338-.372-.2-.957-.034-1.432l1-2.953a4.02,4.02,0,0,1,.524-1.138,1.363,1.363,0,0,1,1.056-.6,1.786,1.786,0,0,1,.706.189" transform="translate(-107.145 -157.22)" fill="#fff"/>
            </g>
          </g>
        </g>
        <g id="Grupo_1032467" data-name="Grupo 1032467" transform="translate(68.006 108.231)" opacity="0.3">
          <g id="Grupo_1032466" data-name="Grupo 1032466">
            <g id="Grupo_1032465" data-name="Grupo 1032465" clip-path="url(#clip-path-64)">
              <path id="Trazado_732657" data-name="Trazado 732657" d="M107.259,169.459c-.262.646-.838,1.023-1.286.841s-.6-.853-.336-1.5.838-1.023,1.286-.841.6.853.336,1.5" transform="translate(-105.508 -167.914)" fill="#fff"/>
            </g>
          </g>
        </g>
        <path id="Trazado_732658" data-name="Trazado 732658" d="M107.162,145.849l6.386,1.843,1.338,4.264c-.613,3.464-7.22,1.985-7.22,1.985l-1.354.86c-1.1.7-3.713-.071-3.938-1.361l-.156-3.3a3.668,3.668,0,0,1,1.294-2.38l2.023-1.591a1.816,1.816,0,0,1,1.627-.318" transform="translate(-36.328 -51.815)" fill="#b97964"/>
        <path id="Trazado_732659" data-name="Trazado 732659" d="M136.144,96.019c4.3-.185,14.23,20.5,18.108,30.584,1.149,2.987-1.378,6.816-3.6,7.429-4.977,1.374-29.906,2.75-29.906,2.75l-.946-7.422,21.2-4.441-6.783-10.23s-2.538-5.16-2.065-9.946,3.989-8.723,3.989-8.723" transform="translate(-42.582 -34.129)" fill="#407bff"/>
        <g id="Grupo_1032470" data-name="Grupo 1032470" transform="translate(97.548 89.308)" opacity="0.2">
          <g id="Grupo_1032469" data-name="Grupo 1032469">
            <g id="Grupo_1032468" data-name="Grupo 1032468" clip-path="url(#clip-path-65)">
              <path id="Trazado_732660" data-name="Trazado 732660" d="M152.213,140.038s3.14-.487,5.134,1.175c0,0-2.149-3.439-6.006-2.491Z" transform="translate(-151.34 -138.557)"/>
            </g>
          </g>
        </g>
        <g id="Grupo_1032473" data-name="Grupo 1032473" transform="translate(77.219 61.889)" opacity="0.4">
          <g id="Grupo_1032472" data-name="Grupo 1032472">
            <g id="Grupo_1032471" data-name="Grupo 1032471" clip-path="url(#clip-path-66)">
              <path id="Trazado_732661" data-name="Trazado 732661" d="M136.144,96.019c4.3-.185,14.23,20.5,18.108,30.584,1.149,2.987-1.378,6.816-3.6,7.429-4.977,1.374-29.906,2.75-29.906,2.75l-.946-7.422,21.2-4.441-6.783-10.23s-2.538-5.16-2.065-9.946,3.989-8.723,3.989-8.723" transform="translate(-119.801 -96.018)" fill="#b6dffa"/>
            </g>
          </g>
        </g>
      </g>
    </g>
  </g>
</svg>
