<svg id="Grupo_1032275" data-name="Grupo 1032275" xmlns="http://www.w3.org/2000/svg" xmlns:xlink="http://www.w3.org/1999/xlink" width="332.845" height="287.221" viewBox="0 0 332.845 287.221">
  <defs>
    <clipPath id="clip-path">
      <rect id="Rectángulo_351831" data-name="Rectángulo 351831" width="332.845" height="287.221" fill="none"/>
    </clipPath>
    <clipPath id="clip-path-5">
      <rect id="Rectángulo_351798" data-name="Rectángulo 351798" width="16.257" height="15.653" fill="none"/>
    </clipPath>
    <clipPath id="clip-path-6">
      <rect id="Rectángulo_351799" data-name="Rectángulo 351799" width="32.549" height="29.716" fill="none"/>
    </clipPath>
    <clipPath id="clip-path-7">
      <rect id="Rectángulo_351800" data-name="Rectángulo 351800" width="3.39" height="9.703" fill="none"/>
    </clipPath>
    <clipPath id="clip-path-8">
      <rect id="Rectángulo_351801" data-name="Rectángulo 351801" width="16.584" height="16.975" fill="none"/>
    </clipPath>
    <clipPath id="clip-path-9">
      <rect id="Rectángulo_351802" data-name="Rectángulo 351802" width="31.623" height="23.167" fill="none"/>
    </clipPath>
    <clipPath id="clip-path-10">
      <rect id="Rectángulo_351803" data-name="Rectángulo 351803" width="6.075" height="10.438" fill="none"/>
    </clipPath>
    <clipPath id="clip-path-11">
      <rect id="Rectángulo_351804" data-name="Rectángulo 351804" width="13.117" height="10.653" fill="none"/>
    </clipPath>
    <clipPath id="clip-path-12">
      <rect id="Rectángulo_351805" data-name="Rectángulo 351805" width="31.091" height="18.009" fill="none"/>
    </clipPath>
    <clipPath id="clip-path-13">
      <rect id="Rectángulo_351806" data-name="Rectángulo 351806" width="8.857" height="27.326" fill="none"/>
    </clipPath>
    <clipPath id="clip-path-14">
      <rect id="Rectángulo_351807" data-name="Rectángulo 351807" width="33.609" height="41.987" fill="none"/>
    </clipPath>
    <clipPath id="clip-path-15">
      <rect id="Rectángulo_351808" data-name="Rectángulo 351808" width="21.218" height="26.506" fill="none"/>
    </clipPath>
    <clipPath id="clip-path-16">
      <rect id="Rectángulo_351809" data-name="Rectángulo 351809" width="32.077" height="32.732" fill="none"/>
    </clipPath>
    <clipPath id="clip-path-17">
      <rect id="Rectángulo_351810" data-name="Rectángulo 351810" width="17.889" height="9.923" fill="none"/>
    </clipPath>
    <clipPath id="clip-path-19">
      <rect id="Rectángulo_351812" data-name="Rectángulo 351812" width="284.534" height="100.264" fill="none"/>
    </clipPath>
    <clipPath id="clip-path-20">
      <rect id="Rectángulo_351813" data-name="Rectángulo 351813" width="314.189" height="17.95" fill="none"/>
    </clipPath>
    <clipPath id="clip-path-22">
      <rect id="Rectángulo_351815" data-name="Rectángulo 351815" width="5.681" height="5.682" fill="none"/>
    </clipPath>
    <clipPath id="clip-path-23">
      <rect id="Rectángulo_351816" data-name="Rectángulo 351816" width="5.682" height="5.682" fill="none"/>
    </clipPath>
    <clipPath id="clip-path-27">
      <rect id="Rectángulo_351820" data-name="Rectángulo 351820" width="2.841" height="2.841" fill="none"/>
    </clipPath>
    <clipPath id="clip-path-34">
      <rect id="Rectángulo_351827" data-name="Rectángulo 351827" width="1.42" height="1.42" fill="none"/>
    </clipPath>
    <clipPath id="clip-path-35">
      <rect id="Rectángulo_351828" data-name="Rectángulo 351828" width="1.421" height="1.421" fill="none"/>
    </clipPath>
    <clipPath id="clip-path-36">
      <rect id="Rectángulo_351829" data-name="Rectángulo 351829" width="217.896" height="58.366" fill="none"/>
    </clipPath>
  </defs>
  <g id="Grupo_1032274" data-name="Grupo 1032274" clip-path="url(#clip-path)">
    <g id="Grupo_1032175" data-name="Grupo 1032175">
      <g id="Grupo_1032174" data-name="Grupo 1032174" clip-path="url(#clip-path)">
        <path id="Trazado_732382" data-name="Trazado 732382" d="M285.292,102.922s5.38-9.459-3.026-14.313-14.459-4.478-10.761-13.24,3.7-9.352-11.1-20.322-18.258-4.917-15.685-18.367-16.93-10.087-21.638-17.149,0-9.751,0-9.751-6.114-1.682-4.234,8.406,16.032,12.441,16.858,15.8-3.546,9.134-2.2,14.654,18.83,8.157,21.184,15.413-7.268,10.72-1.953,18.235,13.049,8.211,16.412,9.88-5.044,6.858-2.354,11.085,18.493-.337,18.493-.337" transform="translate(-32.782 -1.452)" fill="#e0e0e0"/>
        <path id="Trazado_732383" data-name="Trazado 732383" d="M347.45,101.576s5.044-5.656-1.345-10.73-20.176-1.281-14.459-11.583,16.14-17.02,3.7-23.244-23.2-14.3-16.14-22.029S291.3,13.6,292.641,8.329,287.648.7,287.648.7s5.329,2.144,1.63,7.628,10.088,9.856,15.132,16.245-3.6,3.09-2.472,15.163,21.179,11.01,22.417,22.974-8.177,16.627,1.911,24.551,1.345,11.458,5.044,15.167,16.14-.854,16.14-.854" transform="translate(-43.158 -0.105)" fill="#e0e0e0"/>
        <path id="Trazado_732384" data-name="Trazado 732384" d="M322.905,267.541h42.06l-8.5-147.553H331.405Z" transform="translate(-48.448 -18.003)" fill="#f0f0f0"/>
        <rect id="Rectángulo_351790" data-name="Rectángulo 351790" width="28.581" height="7.62" transform="translate(281.198 98.413)" fill="#ebebeb"/>
        <path id="Trazado_732385" data-name="Trazado 732385" d="M262.905,267.541h42.06l-8.5-147.553H271.405Z" transform="translate(-39.445 -18.003)" fill="#f0f0f0"/>
        <rect id="Rectángulo_351791" data-name="Rectángulo 351791" width="28.581" height="7.62" transform="translate(230.2 98.413)" fill="#ebebeb"/>
        <path id="Trazado_732386" data-name="Trazado 732386" d="M130.056,201.746V191.361l-26.441,10.385V191.361L77.175,201.746V191.361L50.734,201.746V191.361l-31.9,12.529h-.322V131.37H2.1V269.248H156.5V191.361Z" transform="translate(-0.315 -19.71)" fill="#e0e0e0"/>
        <rect id="Rectángulo_351792" data-name="Rectángulo 351792" width="80.28" height="37.46" transform="translate(97.881 212.079)" fill="#f0f0f0"/>
        <path id="Trazado_732387" data-name="Trazado 732387" d="M98.771,248.613h-13.3a3.437,3.437,0,0,0-3.437,3.437v26.227a3.432,3.432,0,0,0,2.615,3.328v5.234h2.194v-5.124h4.181v5.124h2.194v-5.124H97.4v5.124h2.194v-5.234a3.432,3.432,0,0,0,2.615-3.328V252.05a3.437,3.437,0,0,0-3.437-3.437" transform="translate(-12.308 -37.301)" fill="#f0f0f0"/>
        <path id="Trazado_732388" data-name="Trazado 732388" d="M69.887,248.613h-13.3a3.437,3.437,0,0,0-3.437,3.437v26.227a3.432,3.432,0,0,0,2.615,3.328v5.234h2.194v-5.124H62.14v5.124h2.194v-5.124h4.181v5.124h2.194v-5.234a3.432,3.432,0,0,0,2.615-3.328V252.05a3.437,3.437,0,0,0-3.437-3.437" transform="translate(-7.974 -37.301)" fill="#f0f0f0"/>
        <path id="Trazado_732389" data-name="Trazado 732389" d="M41,248.613H27.7a3.437,3.437,0,0,0-3.437,3.437v26.227a3.432,3.432,0,0,0,2.615,3.328v5.234h2.194v-5.124h4.181v5.124H35.45v-5.124h4.181v5.124h2.194v-5.234a3.432,3.432,0,0,0,2.615-3.328V252.05A3.437,3.437,0,0,0,41,248.613" transform="translate(-3.641 -37.301)" fill="#f0f0f0"/>
        <rect id="Rectángulo_351793" data-name="Rectángulo 351793" width="45.729" height="23.212" transform="translate(233.68 226.326)" fill="#e0e0e0"/>
        <rect id="Rectángulo_351794" data-name="Rectángulo 351794" width="45.729" height="23.212" transform="translate(183.766 226.326)" fill="#e0e0e0"/>
        <rect id="Rectángulo_351795" data-name="Rectángulo 351795" width="45.729" height="23.212" transform="translate(285.089 226.326)" fill="#e0e0e0"/>
        <path id="Trazado_732390" data-name="Trazado 732390" d="M19.464,104.026c-.168-3.235,6.893-4.58,8.238-1.89s-1.345,4.708-1.345,4.708,4.035,1.615.672,4.086-4.707,0-4.707,0-3.867,3.48-4.876,2.135,1.009-2.393,1.009-2.393-3.25.207-2.8-2.988,3.811-3.658,3.811-3.658" transform="translate(-2.342 -15.108)" fill="#e0e0e0"/>
        <path id="Trazado_732391" data-name="Trazado 732391" d="M7.778,122.05c-.084-1.617,3.447-2.29,4.119-.945a1.975,1.975,0,0,1-.672,2.354s2.018.807.337,2.042-2.354,0-2.354,0-1.933,1.74-2.438,1.068.5-1.2.5-1.2-1.625.1-1.4-1.494a2.268,2.268,0,0,1,1.906-1.829" transform="translate(-0.878 -18.062)" fill="#e0e0e0"/>
        <path id="Trazado_732392" data-name="Trazado 732392" d="M5.532,81.868c-.241-4.643,9.894-6.574,11.826-2.713s-1.931,6.758-1.931,6.758,5.793,2.318.966,5.865-6.757,0-6.757,0-5.551,5-7,3.064,1.447-3.434,1.447-3.434-4.665.3-4.022-4.289,5.47-5.251,5.47-5.251" transform="translate(0 -11.567)" fill="#e0e0e0"/>
        <path id="Trazado_732393" data-name="Trazado 732393" d="M102.525,23.734c-1.274-2.978,4.888-6.678,7.079-4.618s.363,4.883.363,4.883,4.344.122,2.042,3.6-4.418,1.625-4.418,1.625-2.428,4.6-3.839,3.686.121-2.593.121-2.593-2.979,1.316-3.661-1.837,2.314-4.749,2.314-4.749" transform="translate(-15.02 -2.779)" fill="#f5f5f5"/>
        <path id="Trazado_732394" data-name="Trazado 732394" d="M97.571,44.987c-.637-1.489,2.445-3.339,3.539-2.309a1.974,1.974,0,0,1,.182,2.441s2.173.061,1.021,1.8-2.209.813-2.209.813-1.214,2.3-1.919,1.844.06-1.3.06-1.3a1.255,1.255,0,0,1-1.831-.919,2.267,2.267,0,0,1,1.157-2.374" transform="translate(-14.458 -6.359)" fill="#f5f5f5"/>
        <path id="Trazado_732395" data-name="Trazado 732395" d="M81.98,7.486C80.151,3.21,89-2.1,92.142.858s.52,7.008.52,7.008,6.237.177,2.932,5.171-6.342,2.333-6.342,2.333-3.485,6.6-5.51,5.292.173-3.723.173-3.723-4.277,1.889-5.256-2.637S81.98,7.486,81.98,7.486" transform="translate(-11.78 0)" fill="#f5f5f5"/>
        <path id="Trazado_732396" data-name="Trazado 732396" d="M230.193,109.825c-1.274-2.978,4.888-6.678,7.079-4.618s.363,4.883.363,4.883,4.344.122,2.042,3.6-4.418,1.625-4.418,1.625-2.428,4.6-3.839,3.686.121-2.593.121-2.593-2.979,1.316-3.661-1.837,2.314-4.749,2.314-4.749" transform="translate(-34.175 -15.695)" fill="#f5f5f5"/>
        <path id="Trazado_732397" data-name="Trazado 732397" d="M365.816,54.336c-1.275-2.978,4.888-6.678,7.079-4.618s.363,4.883.363,4.883,4.344.122,2.042,3.6-4.418,1.625-4.418,1.625-2.428,4.6-3.839,3.686.121-2.593.121-2.593-2.979,1.316-3.661-1.837,2.314-4.749,2.314-4.749" transform="translate(-54.523 -7.37)" fill="#f5f5f5"/>
        <path id="Trazado_732398" data-name="Trazado 732398" d="M225.24,131.077c-.637-1.489,2.444-3.339,3.539-2.309a1.974,1.974,0,0,1,.182,2.441s2.172.061,1.021,1.8-2.209.813-2.209.813-1.214,2.3-1.92,1.844.061-1.3.061-1.3a1.255,1.255,0,0,1-1.831-.918,2.268,2.268,0,0,1,1.157-2.375" transform="translate(-33.613 -19.275)" fill="#f5f5f5"/>
        <path id="Trazado_732399" data-name="Trazado 732399" d="M376.9,96.167c-.638-1.489,2.444-3.339,3.539-2.308a1.974,1.974,0,0,1,.182,2.441s2.172.061,1.021,1.8-2.209.813-2.209.813-1.214,2.3-1.919,1.844.06-1.3.06-1.3a1.255,1.255,0,0,1-1.831-.918,2.268,2.268,0,0,1,1.157-2.375" transform="translate(-56.368 -14.037)" fill="#f5f5f5"/>
        <path id="Trazado_732400" data-name="Trazado 732400" d="M209.648,93.576c-1.829-4.274,7.017-9.586,10.162-6.628s.52,7.008.52,7.008,6.237.177,2.931,5.171-6.342,2.333-6.342,2.333-3.485,6.6-5.51,5.292.173-3.723.173-3.723-4.277,1.889-5.256-2.637,3.322-6.817,3.322-6.817" transform="translate(-30.935 -12.917)" fill="#f5f5f5"/>
      </g>
    </g>
    <g id="Grupo_1032177" data-name="Grupo 1032177">
      <g id="Grupo_1032176" data-name="Grupo 1032176" clip-path="url(#clip-path)">
        <path id="Trazado_732401" data-name="Trazado 732401" d="M333.418,324.9c0,5.316-73.783,9.624-164.8,9.624s-164.8-4.308-164.8-9.624,73.783-9.624,164.8-9.624,164.8,4.309,164.8,9.624" transform="translate(-0.573 -47.303)" fill="#f5f5f5"/>
      </g>
    </g>
    <g id="Grupo_1032218" data-name="Grupo 1032218">
      <g id="Grupo_1032217" data-name="Grupo 1032217" clip-path="url(#clip-path)">
        <path id="Trazado_732402" data-name="Trazado 732402" d="M159.282,169.047a66.845,66.845,0,0,0,3.734,5.631c.9.949,8.207,5.44,9.143,4.881s4.282-6.252,3.149-7.523-9.043-7.311-11.918-8.021-4.108,5.033-4.108,5.033" transform="translate(-23.898 -24.599)" fill="#407bff"/>
        <g id="Grupo_1032180" data-name="Grupo 1032180" transform="translate(135.384 139.355)" opacity="0.5">
          <g id="Grupo_1032179" data-name="Grupo 1032179">
            <g id="Grupo_1032178" data-name="Grupo 1032178" clip-path="url(#clip-path-5)">
              <path id="Trazado_732403" data-name="Trazado 732403" d="M159.282,169.047a66.845,66.845,0,0,0,3.734,5.631c.9.949,8.207,5.44,9.143,4.881s4.282-6.252,3.149-7.523-9.043-7.311-11.918-8.021-4.108,5.033-4.108,5.033" transform="translate(-159.282 -163.954)" fill="#fff"/>
            </g>
          </g>
        </g>
        <path id="Trazado_732404" data-name="Trazado 732404" d="M171.686,74.48s-6.72,16.5-17.2,18.293c0,0-15.052-3.874-15.344-14.211s15.4-15.828,18.09-15.491S171.686,74.48,171.686,74.48" transform="translate(-20.875 -9.461)" fill="#407bff"/>
        <g id="Grupo_1032183" data-name="Grupo 1032183" transform="translate(118.261 53.596)" opacity="0.4" style="isolation: isolate">
          <g id="Grupo_1032182" data-name="Grupo 1032182">
            <g id="Grupo_1032181" data-name="Grupo 1032181" clip-path="url(#clip-path-6)">
              <path id="Trazado_732405" data-name="Trazado 732405" d="M171.686,74.48s-6.72,16.5-17.2,18.293c0,0-15.052-3.874-15.344-14.211s15.4-15.828,18.09-15.491S171.686,74.48,171.686,74.48" transform="translate(-139.137 -63.057)"/>
            </g>
          </g>
        </g>
        <path id="Trazado_732406" data-name="Trazado 732406" d="M139.007,83.385c-.762,5.2.212,13.4.212,13.4l8.7-2.336s-.167-3,.943-4.283a7.812,7.812,0,0,1,2.508-1.8,16.014,16.014,0,0,1,1.592-.678L154.135,76.5c-3.206,3.267-10.426,10.636-15.129,6.888" transform="translate(-20.812 -11.477)" fill="#e4897b"/>
        <g id="Grupo_1032186" data-name="Grupo 1032186" transform="translate(127.328 68.983)" opacity="0.2" style="isolation: isolate">
          <g id="Grupo_1032185" data-name="Grupo 1032185">
            <g id="Grupo_1032184" data-name="Grupo 1032184" clip-path="url(#clip-path-7)">
              <path id="Trazado_732407" data-name="Trazado 732407" d="M153.194,81.16c-4.492,3.067-3.515,7.668-2.668,9.7a7.833,7.833,0,0,1,2.507-1.8Z" transform="translate(-149.804 -81.16)"/>
            </g>
          </g>
        </g>
        <path id="Trazado_732408" data-name="Trazado 732408" d="M172.836,74.7s-1.532,6.861-6.885,8.279.307-13.253.307-13.253Z" transform="translate(-24.553 -10.461)" fill="#263238"/>
        <path id="Trazado_732409" data-name="Trazado 732409" d="M164.494,85.709a19.312,19.312,0,0,1-1.533,1.8,8.658,8.658,0,0,1-6.64,2.559,7.663,7.663,0,0,1-7.067-5.642c-.035-.1-.055-.192-.083-.3-1.054-4.236.847-7.274,3.64-12.666a8.314,8.314,0,0,1,14.1-1.268c3.362,4.438.87,11.174-2.415,15.514" transform="translate(-22.337 -10.031)" fill="#e4897b"/>
        <path id="Trazado_732410" data-name="Trazado 732410" d="M161.768,79.451a.761.761,0,0,0,.047,1.067c.282.168.708-.048.963-.47s.229-.9-.047-1.068-.7.043-.963.471" transform="translate(-24.243 -11.842)" fill="#263238"/>
        <path id="Trazado_732411" data-name="Trazado 732411" d="M167.417,82.817a.767.767,0,0,0,.047,1.068c.276.163.708-.049.963-.471s.229-.9-.047-1.068-.722.069-.963.471" transform="translate(-25.091 -12.347)" fill="#263238"/>
        <path id="Trazado_732412" data-name="Trazado 732412" d="M165.085,82.085a17.612,17.612,0,0,0-.135,4.843,2.86,2.86,0,0,1-2.269-.835Z" transform="translate(-24.408 -12.316)" fill="#de5753"/>
        <path id="Trazado_732413" data-name="Trazado 732413" d="M161.71,75.834a.3.3,0,0,0,.244.18,2.339,2.339,0,0,1,1.8,1.072.289.289,0,1,0,.512-.267h0a2.875,2.875,0,0,0-2.255-1.38.288.288,0,0,0-.322.25v.007a.481.481,0,0,0,.02.139" transform="translate(-24.259 -11.318)" fill="#263238"/>
        <path id="Trazado_732414" data-name="Trazado 732414" d="M159.858,88.319h0a4.45,4.45,0,0,1-2.661-3.132.154.154,0,0,1,.127-.176.148.148,0,0,1,.175.114l0,.013a4.263,4.263,0,0,0,2.484,2.9.149.149,0,0,1,.086.192l-.007.015a.147.147,0,0,1-.19.086l-.015-.008" transform="translate(-23.585 -12.754)" fill="#263238"/>
        <path id="Trazado_732415" data-name="Trazado 732415" d="M171.62,80.893a.251.251,0,0,0,.2-.441l0-.005a2.878,2.878,0,0,0-2.451-1.009.287.287,0,0,0-.243.327h0a.3.3,0,0,0,.328.243,2.34,2.34,0,0,1,1.929.83.3.3,0,0,0,.242.054" transform="translate(-25.374 -11.917)" fill="#263238"/>
        <path id="Trazado_732416" data-name="Trazado 732416" d="M147.373,78.99h0a1.254,1.254,0,0,0,2.165-.333c.648-1.809,1.568-3.267,2.046-3.162.835.183.423,1.068.423,1.068,2.179-.416,4.948-2.9,5.244-5.29a2.156,2.156,0,0,1,3.592-1.2s-4.754-5.492-6.686-4.636-5.134,4.532-6.432,9.882a11.836,11.836,0,0,0-.353,3.668" transform="translate(-22.108 -9.805)" fill="#263238"/>
        <path id="Trazado_732417" data-name="Trazado 732417" d="M147.828,75.261a5.772,5.772,0,0,0,1.35,4.2c1.319,1.537,3.1.625,3.678-1.207.5-1.633.446-4.443-1.344-5.294a2.578,2.578,0,0,0-3.684,2.3" transform="translate(-22.177 -10.907)" fill="#e4897b"/>
        <path id="Trazado_732418" data-name="Trazado 732418" d="M171.519,73.977s-2.611,1.189-7.333-1.555a15.034,15.034,0,0,0,3.65.813s-7.041-2.138-9.656-4.789-3.309-2.747-3.309-2.747l9.709-.792c7.132,3.774,7.981,8.042,6.938,9.07" transform="translate(-23.236 -9.738)" fill="#263238"/>
        <path id="Trazado_732419" data-name="Trazado 732419" d="M153.825,75.14s1.87,5.4,5.007,6.9a32.612,32.612,0,0,1,5.645,3.521h.984s-4.08,9.257-10.3,5.764-6.283-11.615-6.283-11.615.7,3.413,2.483,4.59c0,0,1.917-.585,3.909-4.286a11.9,11.9,0,0,1-1.444-4.877" transform="translate(-22.337 -11.274)" fill="#407bff"/>
        <g id="Grupo_1032189" data-name="Grupo 1032189" transform="translate(126.54 63.866)" opacity="0.5">
          <g id="Grupo_1032188" data-name="Grupo 1032188">
            <g id="Grupo_1032187" data-name="Grupo 1032187" clip-path="url(#clip-path-8)">
              <path id="Trazado_732420" data-name="Trazado 732420" d="M153.825,75.14s1.87,5.4,5.007,6.9a32.612,32.612,0,0,1,5.645,3.521h.984s-4.08,9.257-10.3,5.764-6.283-11.615-6.283-11.615.7,3.413,2.483,4.59c0,0,1.917-.585,3.909-4.286a11.9,11.9,0,0,1-1.444-4.877" transform="translate(-148.877 -75.14)" fill="#fff"/>
            </g>
          </g>
        </g>
        <path id="Trazado_732421" data-name="Trazado 732421" d="M77.344,295.939H69.227a.587.587,0,0,0-.569.459l-1.317,5.95a.986.986,0,0,0,.977,1.19c2.626-.042,4.539-.2,7.837-.2,2.031,0,8.16.212,10.965.212s3.17-2.771,2.023-3.026c-5.151-1.122-9.027-2.677-10.676-4.156a1.616,1.616,0,0,0-1.122-.425" transform="translate(-10.1 -44.402)" fill="#263238"/>
        <path id="Trazado_732422" data-name="Trazado 732422" d="M147.844,295.689h-8.117a.587.587,0,0,0-.569.459l-1.317,5.95a.986.986,0,0,0,.977,1.19c2.626-.042,4.539-.2,7.837-.2,2.031,0,8.16.212,10.965.212s3.17-2.771,2.023-3.026c-5.151-1.122-9.027-2.677-10.676-4.156a1.614,1.614,0,0,0-1.122-.425" transform="translate(-20.678 -44.364)" fill="#263238"/>
        <path id="Trazado_732423" data-name="Trazado 732423" d="M138.743,263.563l-9.86.323c3.247-59.6,4.921-68.065-18.436-92.153-2.473-2.558-5.236-5.287-8.3-8.27-.748,9.418-1.589,19.192-2.414,27.335-.518,5.04-.671,9.435-1.513,12.664-5.695,21.836-19.4,60.483-19.4,60.483l-9.622.425s12.035-52.961,13.276-70.224c1.623-22.643-6.332-39.821-3.655-61.478.714-5.848,3.23-11.781,5.3-15.886,1.632-3.23,2.992-5.312,2.992-5.312l27.955,14.475.145,3.468.221,5.559c30.488,44.606,36.064,54.245,23.314,128.591" transform="translate(-10.382 -16.725)" fill="#4db1f0"/>
        <path id="Trazado_732424" data-name="Trazado 732424" d="M155.311,57.347c-3-1.172-18.821,17.188-18.821,17.188l6.571,9.225L152.467,93.9s14.182-3.394,20.31-25.031c.051-.18-2.83,4.219-2.83,4.219-4.707,13.831-13.239,18.048-14.415,17.586-3.27-1.288-10.7-8.483-9.737-10.138,3.09-5.339,11.094-12.887,12.021-13.158,1.3-.381,13.475,6.236,13.475,6.236s1.125-3.124,1.487-4.745-8.463-8.009-17.466-11.525" transform="translate(-20.478 -8.596)" fill="#4db1f0"/>
        <path id="Trazado_732425" data-name="Trazado 732425" d="M146.061,104.936c-.042.408-.085.629-.085.629-12.443,4.114-23.06,11.6-26.544,14.22-.782.586-1.207.926-1.207.926L90.269,106.236c6.723-14.908,27.122-26.9,30.488-28.805a8.525,8.525,0,0,1,4.683-.816,17.405,17.405,0,0,1,4.114.816C132.971,79.114,144.4,92,145.534,96.793c.17.705.289,1.394.382,2.057a25.235,25.235,0,0,1,.144,6.086" transform="translate(-13.544 -11.491)" fill="#4db1f0"/>
        <g id="Grupo_1032192" data-name="Grupo 1032192" transform="translate(100.226 79.156)" opacity="0.2" style="isolation: isolate">
          <g id="Grupo_1032191" data-name="Grupo 1032191">
            <g id="Grupo_1032190" data-name="Grupo 1032190" clip-path="url(#clip-path-9)">
              <path id="Trazado_732426" data-name="Trazado 732426" d="M148.455,93.129s-1.955,3-10.025,4.156c0,0-13.45,6.508-20.51,18.712l1.68.3a49.6,49.6,0,0,1,19.335-18.021s7.143.231,10.607-4.25Z" transform="translate(-117.918 -93.129)"/>
            </g>
          </g>
        </g>
        <g id="Grupo_1032195" data-name="Grupo 1032195" transform="translate(111.814 65.124)" opacity="0.2" style="isolation: isolate">
          <g id="Grupo_1032194" data-name="Grupo 1032194">
            <g id="Grupo_1032193" data-name="Grupo 1032193" clip-path="url(#clip-path-10)">
              <path id="Trazado_732427" data-name="Trazado 732427" d="M137.627,87.058c-.382-.28-6.876-5.2-5.992-10.438a17.405,17.405,0,0,1,4.114.816,14.228,14.228,0,0,0,1.878,9.622" transform="translate(-131.552 -76.62)"/>
            </g>
          </g>
        </g>
        <g id="Grupo_1032198" data-name="Grupo 1032198" transform="translate(119.256 78.69)" opacity="0.2" style="isolation: isolate">
          <g id="Grupo_1032197" data-name="Grupo 1032197">
            <g id="Grupo_1032196" data-name="Grupo 1032196" clip-path="url(#clip-path-11)">
              <path id="Trazado_732428" data-name="Trazado 732428" d="M153.424,101.25c-2.167,1.36-6.732,3.527-9.953.306-4.369-4.369-2.941-8.976-2.941-8.976,3.289,7.242,12.511,6.613,12.511,6.613.17.705.289,1.394.382,2.057" transform="translate(-140.307 -92.58)"/>
            </g>
          </g>
        </g>
        <g id="Grupo_1032201" data-name="Grupo 1032201" transform="translate(73.734 94.745)" opacity="0.2" style="isolation: isolate">
          <g id="Grupo_1032200" data-name="Grupo 1032200">
            <g id="Grupo_1032199" data-name="Grupo 1032199" clip-path="url(#clip-path-12)">
              <path id="Trazado_732429" data-name="Trazado 732429" d="M117.841,129.413c-3.068.263-15.546.382-31.092-12.63,1.632-3.23,2.992-5.312,2.992-5.312A59.811,59.811,0,0,0,117.7,125.945Z" transform="translate(-86.749 -111.47)"/>
            </g>
          </g>
        </g>
        <g id="Grupo_1032204" data-name="Grupo 1032204" transform="translate(91.761 127.682)" opacity="0.2" style="isolation: isolate">
          <g id="Grupo_1032203" data-name="Grupo 1032203">
            <g id="Grupo_1032202" data-name="Grupo 1032202" clip-path="url(#clip-path-13)">
              <path id="Trazado_732430" data-name="Trazado 732430" d="M116.263,177.546c-2.473-2.558-5.236-5.287-8.3-8.27v-7.794s4.93-5.04,6.613-11.262c0,0,3.587,16.345,1.691,27.326" transform="translate(-107.959 -150.22)"/>
            </g>
          </g>
        </g>
        <path id="Trazado_732431" data-name="Trazado 732431" d="M136.347,119.053c-7.057,10.917-7.893,22.925-1.867,26.821l42.827,27.688c6.027,3.9,16.635-1.794,23.692-12.711s7.894-22.925,1.867-26.821l-42.827-27.688c-6.027-3.9-16.635,1.794-23.692,12.711" transform="translate(-19.573 -15.771)" fill="#263238"/>
        <g id="Grupo_1032207" data-name="Grupo 1032207" transform="translate(153.709 117.031)" opacity="0.2">
          <g id="Grupo_1032206" data-name="Grupo 1032206">
            <g id="Grupo_1032205" data-name="Grupo 1032205" clip-path="url(#clip-path-14)">
              <path id="Trazado_732432" data-name="Trazado 732432" d="M210.426,138.916c6.027,3.9,5.192,15.9-1.867,26.821s-17.665,16.607-23.691,12.711-5.192-15.9,1.866-26.821,17.665-16.607,23.692-12.711" transform="translate(-180.842 -137.689)" fill="#fff"/>
            </g>
          </g>
        </g>
        <path id="Trazado_732433" data-name="Trazado 732433" d="M198.415,159.839c-4.456,6.892-4.983,14.472-1.178,16.932L200,178.56c3.8,2.461,10.5-1.133,14.957-8.024s4.982-14.471,1.178-16.932l-2.768-1.789c-3.8-2.46-10.5,1.134-14.956,8.025" transform="translate(-29.211 -22.661)" fill="#263238"/>
        <g id="Grupo_1032210" data-name="Grupo 1032210" transform="translate(168.252 130.168)" opacity="0.2">
          <g id="Grupo_1032209" data-name="Grupo 1032209">
            <g id="Grupo_1032208" data-name="Grupo 1032208" clip-path="url(#clip-path-15)">
              <path id="Trazado_732434" data-name="Trazado 732434" d="M216.628,153.92c3.8,2.46,3.277,10.041-1.178,16.932s-11.152,10.484-14.957,8.025-3.277-10.041,1.179-16.932,11.152-10.484,14.956-8.025" transform="translate(-197.952 -153.145)" fill="#fff"/>
            </g>
          </g>
        </g>
        <path id="Trazado_732435" data-name="Trazado 732435" d="M216,158c2.9,1.873,2.5,7.647-.9,12.9s-8.494,7.985-11.391,6.111-2.5-7.647.9-12.9S213.107,156.13,216,158" transform="translate(-30.274 -23.618)" fill="#263238"/>
        <path id="Trazado_732436" data-name="Trazado 732436" d="M176.834,117.2l14.276,9.229c-6.031-3.9-16.636,1.8-23.692,12.71s-7.9,22.921-1.864,26.82l-14.276-9.229c-6.031-3.9-5.192-15.906,1.864-26.821S170.8,113.3,176.834,117.2" transform="translate(-22.093 -17.4)" fill="#ffa031"/>
        <path id="Trazado_732437" data-name="Trazado 732437" d="M161.946,139.141l-2.308,3.57a5.307,5.307,0,0,0,5.305.267l-1.938-3.783a1.059,1.059,0,0,1-1.06-.054" transform="translate(-23.951 -20.876)" fill="#fff"/>
        <path id="Trazado_732438" data-name="Trazado 732438" d="M161.2,136.681a1.047,1.047,0,0,1,.408-.369l-1.938-3.783a5.315,5.315,0,0,0-2.885,4.461l4.246.213a1.044,1.044,0,0,1,.168-.523" transform="translate(-23.524 -19.884)" fill="#fff"/>
        <path id="Trazado_732439" data-name="Trazado 732439" d="M163.709,136.413a1.057,1.057,0,0,1,.484.945l4.246.213a5.305,5.305,0,0,0-2.422-4.728Z" transform="translate(-24.562 -19.931)" fill="#fff"/>
        <path id="Trazado_732440" data-name="Trazado 732440" d="M162.5,137.717a.521.521,0,1,0,.72-.155.521.521,0,0,0-.72.155" transform="translate(-24.369 -20.627)" fill="#fff"/>
        <g id="Grupo_1032213" data-name="Grupo 1032213" transform="translate(100.44 75.562)" opacity="0.2" style="isolation: isolate">
          <g id="Grupo_1032212" data-name="Grupo 1032212">
            <g id="Grupo_1032211" data-name="Grupo 1032211" clip-path="url(#clip-path-16)">
              <path id="Trazado_732441" data-name="Trazado 732441" d="M150.247,106.783c-.042.408-.085.629-.085.629-12.443,4.114-23.06,11.6-26.544,14.22-7.556-10.531-5.049-29.6-5.049-29.6L129.363,88.9s1.708,8.738,4.377,11.594c1.793,1.921,10.786,4.683,16.506,6.29" transform="translate(-118.17 -88.9)"/>
            </g>
          </g>
        </g>
        <path id="Trazado_732442" data-name="Trazado 732442" d="M127.906,79.427c2.354,7.378,1.85,21.332,3.362,24.358s25.228,4.2,25.228,4.2l-.686,5.953s-21.25,3.573-28.577.3-8.687-23.193-8.855-26.762,9.527-8.052,9.527-8.052" transform="translate(-17.761 -11.917)" fill="#4db1f0"/>
        <path id="Trazado_732443" data-name="Trazado 732443" d="M159.428,112.457a67.022,67.022,0,0,1,6.454-2c1.294-.168,9.8.976,10.169,2s-.637,7.551-2.318,7.819-11.629-.054-14.3-1.323,0-6.5,0-6.5" transform="translate(-23.742 -16.57)" fill="#407bff"/>
        <g id="Grupo_1032216" data-name="Grupo 1032216" transform="translate(134.497 93.869)" opacity="0.5">
          <g id="Grupo_1032215" data-name="Grupo 1032215">
            <g id="Grupo_1032214" data-name="Grupo 1032214" clip-path="url(#clip-path-17)">
              <path id="Trazado_732444" data-name="Trazado 732444" d="M159.428,112.457a67.022,67.022,0,0,1,6.454-2c1.294-.168,9.8.976,10.169,2s-.637,7.551-2.318,7.819-11.629-.054-14.3-1.323,0-6.5,0-6.5" transform="translate(-158.238 -110.439)" fill="#fff"/>
            </g>
          </g>
        </g>
        <path id="Trazado_732445" data-name="Trazado 732445" d="M68.622,295.162s-.653-2.408,1.2-13.914H82.428s-2.473,12.266-4.011,13.914-9.795,0-9.795,0" transform="translate(-10.279 -42.197)" fill="#263238"/>
        <path id="Trazado_732446" data-name="Trazado 732446" d="M138.592,295.25s-.8-2.423.348-14H151.55s-1.725,12.343-3.163,14-9.795,0-9.795,0" transform="translate(-20.753 -42.197)" fill="#263238"/>
      </g>
    </g>
    <g id="Grupo_1032226" data-name="Grupo 1032226">
      <g id="Grupo_1032225" data-name="Grupo 1032225" clip-path="url(#clip-path)">
        <path id="Trazado_732447" data-name="Trazado 732447" d="M34.159,289.968v-92.8a1.511,1.511,0,0,1,1.509-1.509H82.737v94.314h5.95V195.655h50.56v94.314h5.95V195.655h50.559v94.314h5.95V195.655h50.559v94.314h5.95V195.655h47.069a1.511,1.511,0,0,1,1.509,1.509v92.8h5.95v-92.8a7.467,7.467,0,0,0-7.458-7.458H35.667a7.467,7.467,0,0,0-7.458,7.458v92.8Z" transform="translate(-4.232 -28.463)" fill="#407bff"/>
        <g id="Grupo_1032221" data-name="Grupo 1032221" transform="translate(23.977 161.242)" opacity="0.5">
          <g id="Grupo_1032220" data-name="Grupo 1032220">
            <g id="Grupo_1032219" data-name="Grupo 1032219" clip-path="url(#clip-path-19)">
              <path id="Trazado_732448" data-name="Trazado 732448" d="M34.159,289.968v-92.8a1.511,1.511,0,0,1,1.509-1.509H82.737v94.314h5.95V195.655h50.56v94.314h5.95V195.655h50.559v94.314h5.95V195.655h50.559v94.314h5.95V195.655h47.069a1.511,1.511,0,0,1,1.509,1.509v92.8h5.95v-92.8a7.467,7.467,0,0,0-7.458-7.458H35.667a7.467,7.467,0,0,0-7.458,7.458v92.8Z" transform="translate(-28.209 -189.705)" fill="#fff"/>
            </g>
          </g>
        </g>
        <path id="Trazado_732449" data-name="Trazado 732449" d="M321.574,304.639H18.384a5.5,5.5,0,0,0-5.5,5.5v12.451H327.072V310.138a5.5,5.5,0,0,0-5.5-5.5" transform="translate(-1.933 -45.707)" fill="#263238"/>
        <g id="Grupo_1032224" data-name="Grupo 1032224" transform="translate(10.952 258.933)" opacity="0.2">
          <g id="Grupo_1032223" data-name="Grupo 1032223">
            <g id="Grupo_1032222" data-name="Grupo 1032222" clip-path="url(#clip-path-20)">
              <path id="Trazado_732450" data-name="Trazado 732450" d="M321.574,304.639H18.384a5.5,5.5,0,0,0-5.5,5.5v12.451H327.072V310.138a5.5,5.5,0,0,0-5.5-5.5" transform="translate(-12.885 -304.639)" fill="#fff"/>
            </g>
          </g>
        </g>
      </g>
    </g>
    <g id="Grupo_1032273" data-name="Grupo 1032273">
      <g id="Grupo_1032272" data-name="Grupo 1032272" clip-path="url(#clip-path)">
        <path id="Trazado_732451" data-name="Trazado 732451" d="M181.614,170.685s16.812,11.828,24.658,39.177,6.737,34.008,9.084,34.456,1.9-14.57,3.917-14.794-2.69,28.469,0,30.711,6.949-7.4,8.518-1.345-4.708,24.161-2.466,29.342,5.023-5.131,7.78-1.544.065,8.966,2.532,10.76S246.174,301.032,252,296.1s14.123-4.932,14.347-.224,13,4.707,18.382,1.569,5.828,4.035,5.828,4.035,33.972-.875,39.229,1.012c0,0-56.49,7.282-143.915,7.282S9.006,303.205,9.006,303.205s3.177-1.725,12.909-1.949S69.9,301.424,87.3,300c7.653-.629,24.807-7.257,29.861-4.568s11.274,4.708,13.656.9,7.762-12.1,14.71-7.057,10.761,8.626,17.261,8.626,10.588.224,14.709-5.6,10.174,1.461,13.984,1.291,15.02,2.52,10.536-10.257-5.6-17.672-1.121-14.889,4.708,2.482,3.139-12.274-5.38-40.984-8.743-49.054,1.793-2.466,4.035,2.242.672-1.728-4.259-12.04-7.838-13.713-7.73-14.143,4.592,3.538,4.143,1.667-9.863-14.148-9.863-14.148" transform="translate(-1.351 -25.609)" fill="#115089"/>
        <g id="Grupo_1032229" data-name="Grupo 1032229" transform="translate(212.095 248.94)" opacity="0.5">
          <g id="Grupo_1032228" data-name="Grupo 1032228">
            <g id="Grupo_1032227" data-name="Grupo 1032227" clip-path="url(#clip-path-22)">
              <path id="Trazado_732452" data-name="Trazado 732452" d="M255.215,295.724a2.841,2.841,0,1,1-2.841-2.841,2.841,2.841,0,0,1,2.841,2.841" transform="translate(-249.534 -292.883)" fill="#fff"/>
            </g>
          </g>
        </g>
        <g id="Grupo_1032232" data-name="Grupo 1032232" transform="translate(255.172 271.201)" opacity="0.5">
          <g id="Grupo_1032231" data-name="Grupo 1032231">
            <g id="Grupo_1032230" data-name="Grupo 1032230" clip-path="url(#clip-path-23)">
              <path id="Trazado_732453" data-name="Trazado 732453" d="M305.9,321.915a2.841,2.841,0,1,1-2.841-2.841,2.84,2.84,0,0,1,2.841,2.841" transform="translate(-300.215 -319.074)" fill="#fff"/>
            </g>
          </g>
        </g>
        <g id="Grupo_1032235" data-name="Grupo 1032235" transform="translate(179.215 274.042)" opacity="0.5">
          <g id="Grupo_1032234" data-name="Grupo 1032234">
            <g id="Grupo_1032233" data-name="Grupo 1032233" clip-path="url(#clip-path-23)">
              <path id="Trazado_732454" data-name="Trazado 732454" d="M216.532,325.258a2.841,2.841,0,1,1-2.841-2.841,2.841,2.841,0,0,1,2.841,2.841" transform="translate(-210.85 -322.416)" fill="#fff"/>
            </g>
          </g>
        </g>
        <g id="Grupo_1032238" data-name="Grupo 1032238" transform="translate(203.571 216.436)" opacity="0.5">
          <g id="Grupo_1032237" data-name="Grupo 1032237">
            <g id="Grupo_1032236" data-name="Grupo 1032236" clip-path="url(#clip-path-23)">
              <path id="Trazado_732455" data-name="Trazado 732455" d="M245.188,257.483a2.841,2.841,0,1,1-2.841-2.841,2.84,2.84,0,0,1,2.841,2.841" transform="translate(-239.506 -254.641)" fill="#fff"/>
            </g>
          </g>
        </g>
        <g id="Grupo_1032241" data-name="Grupo 1032241" transform="translate(135.397 265.131)" opacity="0.5">
          <g id="Grupo_1032240" data-name="Grupo 1032240">
            <g id="Grupo_1032239" data-name="Grupo 1032239" clip-path="url(#clip-path-23)">
              <path id="Trazado_732456" data-name="Trazado 732456" d="M164.979,314.773a2.841,2.841,0,1,1-2.841-2.841,2.841,2.841,0,0,1,2.841,2.841" transform="translate(-159.297 -311.932)" fill="#fff"/>
            </g>
          </g>
        </g>
        <g id="Grupo_1032244" data-name="Grupo 1032244" transform="translate(206.413 235.08)" opacity="0.5">
          <g id="Grupo_1032243" data-name="Grupo 1032243">
            <g id="Grupo_1032242" data-name="Grupo 1032242" clip-path="url(#clip-path-27)">
              <path id="Trazado_732457" data-name="Trazado 732457" d="M245.69,278a1.42,1.42,0,1,1-1.42-1.42,1.42,1.42,0,0,1,1.42,1.42" transform="translate(-242.849 -276.576)" fill="#fff"/>
            </g>
          </g>
        </g>
        <g id="Grupo_1032247" data-name="Grupo 1032247" transform="translate(284.873 275.463)" opacity="0.5">
          <g id="Grupo_1032246" data-name="Grupo 1032246">
            <g id="Grupo_1032245" data-name="Grupo 1032245" clip-path="url(#clip-path-27)">
              <path id="Trazado_732458" data-name="Trazado 732458" d="M338,325.508a1.42,1.42,0,1,1-1.42-1.42,1.42,1.42,0,0,1,1.42,1.42" transform="translate(-335.159 -324.087)" fill="#fff"/>
            </g>
          </g>
        </g>
        <g id="Grupo_1032250" data-name="Grupo 1032250" transform="translate(152.386 272.622)" opacity="0.5">
          <g id="Grupo_1032249" data-name="Grupo 1032249">
            <g id="Grupo_1032248" data-name="Grupo 1032248" clip-path="url(#clip-path-27)">
              <path id="Trazado_732459" data-name="Trazado 732459" d="M182.126,322.165a1.421,1.421,0,1,1-1.421-1.42,1.42,1.42,0,0,1,1.421,1.42" transform="translate(-179.285 -320.745)" fill="#fff"/>
            </g>
          </g>
        </g>
        <g id="Grupo_1032253" data-name="Grupo 1032253" transform="translate(108.126 274.042)" opacity="0.5">
          <g id="Grupo_1032252" data-name="Grupo 1032252">
            <g id="Grupo_1032251" data-name="Grupo 1032251" clip-path="url(#clip-path-27)">
              <path id="Trazado_732460" data-name="Trazado 732460" d="M130.053,323.836a1.42,1.42,0,1,1-1.42-1.42,1.42,1.42,0,0,1,1.42,1.42" transform="translate(-127.212 -322.416)" fill="#fff"/>
            </g>
          </g>
        </g>
        <g id="Grupo_1032256" data-name="Grupo 1032256" transform="translate(212.585 275.463)" opacity="0.5">
          <g id="Grupo_1032255" data-name="Grupo 1032255">
            <g id="Grupo_1032254" data-name="Grupo 1032254" clip-path="url(#clip-path-27)">
              <path id="Trazado_732461" data-name="Trazado 732461" d="M252.952,325.508a1.42,1.42,0,1,1-1.42-1.42,1.42,1.42,0,0,1,1.42,1.42" transform="translate(-250.111 -324.087)" fill="#fff"/>
            </g>
          </g>
        </g>
        <g id="Grupo_1032259" data-name="Grupo 1032259" transform="translate(204.992 203.614)" opacity="0.5">
          <g id="Grupo_1032258" data-name="Grupo 1032258">
            <g id="Grupo_1032257" data-name="Grupo 1032257" clip-path="url(#clip-path-27)">
              <path id="Trazado_732462" data-name="Trazado 732462" d="M244.019,240.977a1.42,1.42,0,1,1-1.42-1.42,1.42,1.42,0,0,1,1.42,1.42" transform="translate(-241.177 -239.557)" fill="#fff"/>
            </g>
          </g>
        </g>
        <g id="Grupo_1032262" data-name="Grupo 1032262" transform="translate(204.992 188.819)" opacity="0.5">
          <g id="Grupo_1032261" data-name="Grupo 1032261">
            <g id="Grupo_1032260" data-name="Grupo 1032260" clip-path="url(#clip-path-27)">
              <path id="Trazado_732463" data-name="Trazado 732463" d="M244.019,223.57a1.42,1.42,0,1,1-1.42-1.42,1.42,1.42,0,0,1,1.42,1.42" transform="translate(-241.177 -222.15)" fill="#fff"/>
            </g>
          </g>
        </g>
        <g id="Grupo_1032265" data-name="Grupo 1032265" transform="translate(198.045 169.168)" opacity="0.5">
          <g id="Grupo_1032264" data-name="Grupo 1032264">
            <g id="Grupo_1032263" data-name="Grupo 1032263" clip-path="url(#clip-path-34)">
              <path id="Trazado_732464" data-name="Trazado 732464" d="M234.424,199.74a.71.71,0,1,1-.711-.711.711.711,0,0,1,.711.711" transform="translate(-233.004 -199.03)" fill="#fff"/>
            </g>
          </g>
        </g>
        <g id="Grupo_1032268" data-name="Grupo 1032268" transform="translate(194.796 152.743)" opacity="0.5">
          <g id="Grupo_1032267" data-name="Grupo 1032267">
            <g id="Grupo_1032266" data-name="Grupo 1032266" clip-path="url(#clip-path-35)">
              <path id="Trazado_732465" data-name="Trazado 732465" d="M230.6,180.416a.71.71,0,1,1-.711-.711.71.71,0,0,1,.711.711" transform="translate(-229.181 -179.705)" fill="#fff"/>
            </g>
          </g>
        </g>
        <path id="Trazado_732466" data-name="Trazado 732466" d="M318.852,242.9a9.071,9.071,0,0,0-1.761,3.776,13.265,13.265,0,0,0-.15,4.1,46.651,46.651,0,0,0,1.9,8.183,63.371,63.371,0,0,1,2.093,8.4,14.469,14.469,0,0,1,.046,4.435,6.185,6.185,0,0,1-2.133,3.8,6.665,6.665,0,0,0,1.3-3.889,16.554,16.554,0,0,0-.521-4.1c-.654-2.716-1.6-5.4-2.418-8.162a33.141,33.141,0,0,1-1.595-8.59,12.211,12.211,0,0,1,.673-4.406,7.9,7.9,0,0,1,2.558-3.541" transform="translate(-47.354 -36.444)" fill="#407bff"/>
        <path id="Trazado_732467" data-name="Trazado 732467" d="M289.051,259.017a9.072,9.072,0,0,0-1.762,3.776,13.292,13.292,0,0,0-.15,4.1,46.654,46.654,0,0,0,1.9,8.183,63.216,63.216,0,0,1,2.093,8.4,14.463,14.463,0,0,1,.046,4.434,6.185,6.185,0,0,1-2.133,3.8,6.665,6.665,0,0,0,1.3-3.889,16.593,16.593,0,0,0-.52-4.1c-.655-2.716-1.6-5.4-2.42-8.161a33.187,33.187,0,0,1-1.594-8.591,12.211,12.211,0,0,1,.673-4.406,7.9,7.9,0,0,1,2.558-3.541" transform="translate(-42.883 -38.862)" fill="#407bff"/>
        <path id="Trazado_732468" data-name="Trazado 732468" d="M349.957,269.25a9.073,9.073,0,0,0-1.762,3.776,13.292,13.292,0,0,0-.15,4.1,46.653,46.653,0,0,0,1.9,8.183,63.365,63.365,0,0,1,2.093,8.4,14.468,14.468,0,0,1,.046,4.435,6.185,6.185,0,0,1-2.133,3.8,6.665,6.665,0,0,0,1.3-3.889,16.554,16.554,0,0,0-.521-4.1c-.654-2.716-1.6-5.4-2.419-8.162a33.176,33.176,0,0,1-1.594-8.59,12.211,12.211,0,0,1,.673-4.406,7.9,7.9,0,0,1,2.558-3.541" transform="translate(-52.021 -40.397)" fill="#407bff"/>
        <path id="Trazado_732469" data-name="Trazado 732469" d="M202.632,269.25a9.073,9.073,0,0,0-1.762,3.776,13.293,13.293,0,0,0-.15,4.1,46.724,46.724,0,0,0,1.9,8.183,63.239,63.239,0,0,1,2.094,8.4,14.468,14.468,0,0,1,.046,4.435,6.185,6.185,0,0,1-2.133,3.8,6.658,6.658,0,0,0,1.3-3.889,16.553,16.553,0,0,0-.52-4.1c-.654-2.716-1.6-5.4-2.419-8.162a33.176,33.176,0,0,1-1.594-8.59,12.211,12.211,0,0,1,.673-4.406,7.9,7.9,0,0,1,2.558-3.541" transform="translate(-29.917 -40.397)" fill="#407bff"/>
        <path id="Trazado_732470" data-name="Trazado 732470" d="M170.507,252.018a9.073,9.073,0,0,0-1.762,3.776,13.292,13.292,0,0,0-.15,4.1,46.726,46.726,0,0,0,1.9,8.183,63.239,63.239,0,0,1,2.094,8.4,14.469,14.469,0,0,1,.046,4.435,6.185,6.185,0,0,1-2.133,3.8,6.665,6.665,0,0,0,1.3-3.889,16.6,16.6,0,0,0-.521-4.1c-.654-2.716-1.6-5.4-2.419-8.162a33.175,33.175,0,0,1-1.594-8.59,12.211,12.211,0,0,1,.673-4.406,7.9,7.9,0,0,1,2.558-3.541" transform="translate(-25.097 -37.812)" fill="#407bff"/>
        <path id="Trazado_732471" data-name="Trazado 732471" d="M136.235,259.017a9.073,9.073,0,0,0-1.762,3.776,13.292,13.292,0,0,0-.15,4.1,46.726,46.726,0,0,0,1.9,8.183,63.22,63.22,0,0,1,2.094,8.4,14.463,14.463,0,0,1,.046,4.434,6.185,6.185,0,0,1-2.133,3.8,6.658,6.658,0,0,0,1.3-3.889,16.554,16.554,0,0,0-.52-4.1c-.654-2.716-1.6-5.4-2.419-8.161A33.187,33.187,0,0,1,133,266.964a12.211,12.211,0,0,1,.673-4.406,7.9,7.9,0,0,1,2.558-3.541" transform="translate(-19.955 -38.862)" fill="#407bff"/>
        <path id="Trazado_732472" data-name="Trazado 732472" d="M100.089,273.107a9.061,9.061,0,0,0-1.761,3.776,13.266,13.266,0,0,0-.15,4.1,46.652,46.652,0,0,0,1.9,8.183,63.37,63.37,0,0,1,2.093,8.4,14.469,14.469,0,0,1,.046,4.435,6.185,6.185,0,0,1-2.133,3.8,6.665,6.665,0,0,0,1.3-3.889,16.6,16.6,0,0,0-.521-4.1c-.654-2.716-1.6-5.4-2.418-8.162a33.14,33.14,0,0,1-1.595-8.59,12.21,12.21,0,0,1,.673-4.406,7.9,7.9,0,0,1,2.558-3.541" transform="translate(-14.532 -40.976)" fill="#407bff"/>
        <g id="Grupo_1032271" data-name="Grupo 1032271" transform="translate(82.324 206.455)" opacity="0.7">
          <g id="Grupo_1032270" data-name="Grupo 1032270">
            <g id="Grupo_1032269" data-name="Grupo 1032269" clip-path="url(#clip-path-36)">
              <path id="Trazado_732473" data-name="Trazado 732473" d="M318.852,242.9a9.071,9.071,0,0,0-1.761,3.776,13.265,13.265,0,0,0-.15,4.1,46.651,46.651,0,0,0,1.9,8.183,63.371,63.371,0,0,1,2.093,8.4,14.469,14.469,0,0,1,.046,4.435,6.185,6.185,0,0,1-2.133,3.8,6.665,6.665,0,0,0,1.3-3.889,16.554,16.554,0,0,0-.521-4.1c-.654-2.716-1.6-5.4-2.418-8.162a33.141,33.141,0,0,1-1.595-8.59,12.211,12.211,0,0,1,.673-4.406,7.9,7.9,0,0,1,2.558-3.541" transform="translate(-129.678 -242.899)" fill="#fff"/>
              <path id="Trazado_732474" data-name="Trazado 732474" d="M289.051,259.017a9.072,9.072,0,0,0-1.762,3.776,13.292,13.292,0,0,0-.15,4.1,46.654,46.654,0,0,0,1.9,8.183,63.216,63.216,0,0,1,2.093,8.4,14.463,14.463,0,0,1,.046,4.434,6.185,6.185,0,0,1-2.133,3.8,6.665,6.665,0,0,0,1.3-3.889,16.593,16.593,0,0,0-.52-4.1c-.655-2.716-1.6-5.4-2.42-8.161a33.187,33.187,0,0,1-1.594-8.591,12.211,12.211,0,0,1,.673-4.406,7.9,7.9,0,0,1,2.558-3.541" transform="translate(-125.207 -245.317)" fill="#fff"/>
              <path id="Trazado_732475" data-name="Trazado 732475" d="M349.957,269.25a9.073,9.073,0,0,0-1.762,3.776,13.292,13.292,0,0,0-.15,4.1,46.653,46.653,0,0,0,1.9,8.183,63.365,63.365,0,0,1,2.093,8.4,14.468,14.468,0,0,1,.046,4.435,6.185,6.185,0,0,1-2.133,3.8,6.665,6.665,0,0,0,1.3-3.889,16.554,16.554,0,0,0-.521-4.1c-.654-2.716-1.6-5.4-2.419-8.162a33.176,33.176,0,0,1-1.594-8.59,12.211,12.211,0,0,1,.673-4.406,7.9,7.9,0,0,1,2.558-3.541" transform="translate(-134.345 -246.853)" fill="#fff"/>
              <path id="Trazado_732476" data-name="Trazado 732476" d="M202.632,269.25a9.073,9.073,0,0,0-1.762,3.776,13.293,13.293,0,0,0-.15,4.1,46.724,46.724,0,0,0,1.9,8.183,63.239,63.239,0,0,1,2.094,8.4,14.468,14.468,0,0,1,.046,4.435,6.185,6.185,0,0,1-2.133,3.8,6.658,6.658,0,0,0,1.3-3.889,16.553,16.553,0,0,0-.52-4.1c-.654-2.716-1.6-5.4-2.419-8.162a33.176,33.176,0,0,1-1.594-8.59,12.211,12.211,0,0,1,.673-4.406,7.9,7.9,0,0,1,2.558-3.541" transform="translate(-112.241 -246.853)" fill="#fff"/>
              <path id="Trazado_732477" data-name="Trazado 732477" d="M170.507,252.018a9.073,9.073,0,0,0-1.762,3.776,13.292,13.292,0,0,0-.15,4.1,46.726,46.726,0,0,0,1.9,8.183,63.239,63.239,0,0,1,2.094,8.4,14.469,14.469,0,0,1,.046,4.435,6.185,6.185,0,0,1-2.133,3.8,6.665,6.665,0,0,0,1.3-3.889,16.6,16.6,0,0,0-.521-4.1c-.654-2.716-1.6-5.4-2.419-8.162a33.175,33.175,0,0,1-1.594-8.59,12.211,12.211,0,0,1,.673-4.406,7.9,7.9,0,0,1,2.558-3.541" transform="translate(-107.421 -244.267)" fill="#fff"/>
              <path id="Trazado_732478" data-name="Trazado 732478" d="M136.235,259.017a9.073,9.073,0,0,0-1.762,3.776,13.292,13.292,0,0,0-.15,4.1,46.726,46.726,0,0,0,1.9,8.183,63.22,63.22,0,0,1,2.094,8.4,14.463,14.463,0,0,1,.046,4.434,6.185,6.185,0,0,1-2.133,3.8,6.658,6.658,0,0,0,1.3-3.889,16.554,16.554,0,0,0-.52-4.1c-.654-2.716-1.6-5.4-2.419-8.161A33.187,33.187,0,0,1,133,266.964a12.211,12.211,0,0,1,.673-4.406,7.9,7.9,0,0,1,2.558-3.541" transform="translate(-102.279 -245.317)" fill="#fff"/>
              <path id="Trazado_732479" data-name="Trazado 732479" d="M100.089,273.107a9.061,9.061,0,0,0-1.761,3.776,13.266,13.266,0,0,0-.15,4.1,46.652,46.652,0,0,0,1.9,8.183,63.37,63.37,0,0,1,2.093,8.4,14.469,14.469,0,0,1,.046,4.435,6.185,6.185,0,0,1-2.133,3.8,6.665,6.665,0,0,0,1.3-3.889,16.6,16.6,0,0,0-.521-4.1c-.654-2.716-1.6-5.4-2.418-8.162a33.14,33.14,0,0,1-1.595-8.59,12.21,12.21,0,0,1,.673-4.406,7.9,7.9,0,0,1,2.558-3.541" transform="translate(-96.856 -247.431)" fill="#fff"/>
            </g>
          </g>
        </g>
      </g>
    </g>
  </g>
</svg>
