<svg xmlns="http://www.w3.org/2000/svg" xmlns:xlink="http://www.w3.org/1999/xlink" width="206.637" height="206.637" viewBox="0 0 206.637 206.637">
  <defs>
    <clipPath id="clip-path">
      <rect id="Rectángulo_351569" data-name="Rectángulo 351569" width="206.637" height="206.637" fill="none"/>
    </clipPath>
    <clipPath id="clip-path-3">
      <rect id="Rectángulo_351566" data-name="Rectángulo 351566" width="91.287" height="104.697" fill="none"/>
    </clipPath>
    <clipPath id="clip-path-4">
      <rect id="Rectángulo_351567" data-name="Rectángulo 351567" width="79.174" height="97.029" fill="none"/>
    </clipPath>
  </defs>
  <g id="Grupo_1031759" data-name="Grupo 1031759" transform="translate(0)">
    <g id="Grupo_1031758" data-name="Grupo 1031758" transform="translate(0 0)" clip-path="url(#clip-path)">
      <path id="Trazado_731766" data-name="Trazado 731766" d="M206.637,210h0Z" transform="translate(0 -3.363)" fill="#fff"/>
      <g id="Grupo_1031757" data-name="Grupo 1031757">
        <g id="Grupo_1031756" data-name="Grupo 1031756" clip-path="url(#clip-path)">
          <path id="Trazado_731728" data-name="Trazado 731728" d="M668,703.8c.557-8.187,2.892-42.525,28.749-59.042,29.592-18.9,74.425-4.519,96.859,24.118,13.669,17.448,24.062,46.621,12.734,71.39-19.262,42.118-91.89,50.864-122.135,20.259-18.773-19-16.757-48.64-16.208-56.726" transform="translate(-633.163 -603.344)" fill="#f3f9ff"/>
          <path id="Trazado_731729" data-name="Trazado 731729" d="M1900.319,1411.625a2.669,2.669,0,0,1-.3-.016l-65-7.269a2.639,2.639,0,0,1-2.323-2.908l9.569-85.567a2.639,2.639,0,0,1,2.908-2.323l65,7.269a2.64,2.64,0,0,1,2.324,2.909l-9.569,85.567a2.641,2.641,0,0,1-2.613,2.34m-55.439-97.467a2.007,2.007,0,0,0-1.984,1.776l-9.569,85.567a2,2,0,0,0,1.764,2.208l65,7.269a2,2,0,0,0,2.208-1.764l9.568-85.567a2,2,0,0,0-1.764-2.208l-65-7.269a2.107,2.107,0,0,0-.223-.012" transform="translate(-1738.006 -1245.669)" fill="#444"/>
          <path id="Trazado_731730" data-name="Trazado 731730" d="M1795.324,1330.307l-62.958-17.738a2.323,2.323,0,0,1-1.6-2.857l23.349-82.874a2.322,2.322,0,0,1,2.856-1.6l62.958,17.737a2.322,2.322,0,0,1,1.6,2.857l-23.349,82.874a2.323,2.323,0,0,1-2.857,1.6" transform="translate(-1641.273 -1161.862)" fill="#115089"/>
          <path id="Trazado_731731" data-name="Trazado 731731" d="M2475.731,1564.009l-30.565-8.611a1.713,1.713,0,1,1,.929-3.3l30.565,8.611a1.713,1.713,0,1,1-.929,3.3" transform="translate(-2317.667 -1471.86)" fill="#b3cef6"/>
          <path id="Trazado_731732" data-name="Trazado 731732" d="M2270.87,1706.577l-48.147-13.565a1.713,1.713,0,0,1,.929-3.3l48.146,13.565a1.713,1.713,0,0,1-.929,3.3" transform="translate(-2106.716 -1602.366)" fill="#b3cef6"/>
          <path id="Trazado_731733" data-name="Trazado 731733" d="M2229.472,1853.51l-48.146-13.565a1.713,1.713,0,1,1,.929-3.3l48.146,13.565a1.713,1.713,0,0,1-.929,3.3" transform="translate(-2067.457 -1741.708)" fill="#b3cef6"/>
          <path id="Trazado_731734" data-name="Trazado 731734" d="M2188.076,2000.444l-48.146-13.564a1.718,1.718,0,0,1-1.185-2.113h0a1.717,1.717,0,0,1,2.113-1.184L2189,1997.147a1.713,1.713,0,0,1-.929,3.3" transform="translate(-2028.199 -1881.052)" fill="#b3cef6"/>
          <path id="Trazado_731735" data-name="Trazado 731735" d="M2146.679,2147.377l-48.146-13.565a1.713,1.713,0,0,1,.929-3.3l48.146,13.564a1.713,1.713,0,0,1-.929,3.3" transform="translate(-1988.941 -2020.395)" fill="#b3cef6"/>
          <path id="Trazado_731736" data-name="Trazado 731736" d="M2105.283,2294.312l-48.146-13.565a1.713,1.713,0,0,1,.929-3.3l48.146,13.564a1.713,1.713,0,1,1-.929,3.3" transform="translate(-1949.683 -2159.738)" fill="#b3cef6"/>
          <path id="Trazado_731737" data-name="Trazado 731737" d="M2063.886,2441.245l-48.147-13.565a1.713,1.713,0,0,1,.929-3.3l48.146,13.565a1.713,1.713,0,0,1-.929,3.3" transform="translate(-1910.425 -2299.081)" fill="#b3cef6"/>
          <path id="Trazado_731738" data-name="Trazado 731738" d="M2022.489,2588.178l-48.146-13.564a1.713,1.713,0,0,1,.929-3.3l48.146,13.565a1.718,1.718,0,0,1,1.184,2.113h0a1.718,1.718,0,0,1-2.113,1.184" transform="translate(-1871.166 -2438.424)" fill="#b3cef6"/>
          <path id="Trazado_731739" data-name="Trazado 731739" d="M1981.092,2735.111l-48.147-13.564a1.713,1.713,0,0,1,.929-3.3l48.146,13.565a1.713,1.713,0,0,1-.929,3.3" transform="translate(-1831.908 -2577.767)" fill="#b3cef6"/>
          <path id="Trazado_731740" data-name="Trazado 731740" d="M576.435,845.789h-.01c-.1,0-.181,0-.26-.01l-.035,0-.011,0c-.072-.007-.146-.017-.221-.03l-.015,0-.059-.01c-.079-.016-.159-.034-.236-.056l-.067-.02-.015,0c-.062-.019-.124-.04-.185-.063l-.005,0-.084-.032c-.062-.026-.125-.053-.19-.086l-.094-.048c-.073-.039-.136-.075-.193-.11-.028-.018-.056-.036-.083-.055l-.025-.017c-.041-.028-.082-.056-.122-.086s-.064-.049-.1-.075-.086-.072-.133-.114l-.018-.016-.054-.05c-.069-.066-.13-.131-.188-.2l-.025-.03-.005-.007c-.05-.059-.1-.122-.146-.188l-.047-.068,0-.005c-.038-.057-.076-.116-.112-.177l-.01-.017-.033-.057c-.052-.094-.094-.18-.13-.263l-.2-.451-33.755-77.569c-.039-.09-.074-.183-.108-.286-.007-.022-.013-.044-.019-.066l-.007-.027c-.017-.058-.037-.128-.052-.2-.006-.029-.012-.057-.017-.085l0-.025c-.013-.071-.023-.13-.029-.184,0-.038-.008-.077-.012-.115-.005-.061-.009-.122-.011-.18,0-.038,0-.076,0-.115,0-.055,0-.113.007-.18v-.02c0-.031,0-.063.007-.094.006-.064.016-.125.024-.177l0-.03c0-.027.008-.055.013-.082.011-.057.024-.108.037-.158l0-.013a3.173,3.173,0,0,1,.135-.418c.006-.015.013-.03.02-.045l.006-.014c.038-.088.074-.165.112-.235l.034-.061.014-.023c.043-.075.081-.137.119-.195.019-.028.039-.056.059-.084l.006-.008c.044-.061.087-.117.131-.17.026-.031.052-.061.078-.091.044-.049.092-.1.146-.151l.007-.007c.027-.026.054-.053.083-.078.059-.053.119-.1.165-.137l.024-.019c.024-.019.048-.038.073-.056.066-.048.133-.09.194-.128l.025-.016c.022-.014.044-.028.067-.041a3.1,3.1,0,0,1,.308-.155l60.889-26.5a3.151,3.151,0,0,1,.323-.12l.075-.02.029-.007c.067-.018.144-.039.224-.055l.094-.016.03,0c.065-.01.135-.02.208-.027.037,0,.074-.005.112-.007h.016c.075,0,.142,0,.206,0l.126,0c.065,0,.133.01.205.019h.007l.112.015c.065.011.132.024.213.043l.026.006.078.019c.072.019.147.043.236.075l.018.006.053.018a3.146,3.146,0,0,1,.405.191l.017.009c.041.022.082.045.126.072l.066.044.024.017c.047.032.1.067.151.107l.072.058.012.01c.053.043.1.083.141.121l.078.075c.044.043.087.089.129.135.025.027.049.055.073.083.037.044.074.092.117.15l.015.02c.017.023.034.045.05.069.04.058.076.118.11.174l.014.023c.012.02.024.039.036.06.053.1.1.185.136.274l33.951,78.021c.036.083.069.17.1.274.007.021.013.041.019.062l.006.021c.02.067.038.135.054.2l0,.015c.006.024.011.048.016.072.015.078.028.157.038.235v.008c0,.012,0,.024.005.036.01.089.015.179.017.274,0,.023,0,.048,0,.073v.025c0,.063,0,.12-.007.174s-.006.081-.01.121-.012.1-.019.145a3.194,3.194,0,0,1-.108.467c-.006.018-.012.036-.018.053l-.007.021c-.03.088-.063.174-.1.255-.012.028-.025.056-.038.085-.039.081-.081.162-.131.247l-.01.017c-.009.016-.017.031-.027.046a3.137,3.137,0,0,1-.2.292l-.022.026a3.137,3.137,0,0,1-.209.234c-.019.019-.039.038-.059.057l-.02.019c-.061.058-.124.113-.185.163-.032.026-.064.051-.1.076-.063.047-.131.093-.207.141l-.025.016c-.023.015-.046.03-.07.044a3.207,3.207,0,0,1-.327.167l-60.889,26.5c-.081.035-.169.069-.271.1l-.008,0-.049.016c-.089.028-.179.051-.265.07l-.035.007-.014,0c-.085.017-.167.03-.246.039h-.01l-.033,0c-.083.009-.17.014-.264.016h-.059m26.937-110.21c-.039,0-.081,0-.127,0h-.016l-.086.005c-.056,0-.113.013-.167.022l-.035.005-.064.01c-.06.012-.124.029-.179.044l-.045.011-.039.01a2.528,2.528,0,0,0-.26.1l-60.889,26.5a2.538,2.538,0,0,0-.247.125l-.035.022-.037.024c-.052.032-.106.066-.156.1l-.049.038-.028.023c-.04.032-.087.069-.131.109-.022.02-.043.041-.065.061l-.007.007c-.044.043-.082.082-.117.121l-.063.073c-.035.042-.07.087-.1.136l-.006.008c-.015.021-.031.043-.046.065-.03.046-.061.095-.1.156l-.017.029-.022.038c-.029.055-.058.116-.089.188l-.015.033-.006.014a2.534,2.534,0,0,0-.108.335l0,.014c-.011.043-.021.084-.029.122,0,.017-.006.034-.008.052l-.006.037c-.007.044-.015.094-.019.141,0,.023,0,.046-.005.068v.022c0,.055-.005.1-.006.143s0,.061,0,.092c0,.047,0,.1.008.144,0,.031.006.061.009.092s.013.088.024.147l.005.028c0,.02.007.04.012.06.012.053.027.107.042.158l.011.039c0,.012.006.024.01.036.027.084.056.159.086.23l33.951,78.021c.028.065.062.133.1.21l.023.04.012.02c.028.049.059.1.089.142l0,.006.037.053c.037.051.077.1.117.15l.019.024.005.007c.044.05.093.1.149.156l.036.033.021.019c.038.034.072.064.105.091s.051.041.076.06.064.046.1.068l.028.019.059.039c.045.028.1.057.155.089l.075.038c.053.026.1.048.152.068l.067.026c.053.019.1.036.152.052l.015,0,.05.015c.062.017.125.032.189.044l.04.007.019,0c.061.01.12.019.177.024l.025,0h.012c.061.005.128.008.207.008h.055c.077,0,.146-.006.211-.013l.034,0c.063-.007.129-.018.2-.031l.04-.008c.069-.015.14-.034.212-.056l.037-.012.009,0c.084-.028.153-.054.217-.082l60.889-26.5a2.582,2.582,0,0,0,.262-.134l.045-.028.031-.02c.063-.04.117-.077.166-.113l.078-.06c.05-.04.1-.083.148-.13l.024-.023.038-.037a2.482,2.482,0,0,0,.17-.191l.018-.021a2.521,2.521,0,0,0,.159-.229l.011-.02.017-.031c.04-.068.075-.133.1-.2h0c.011-.022.021-.045.031-.068.029-.066.055-.134.079-.2l.009-.026.011-.034a2.565,2.565,0,0,0,.086-.374c.006-.038.012-.077.016-.116s.006-.064.008-.1,0-.087.005-.138v-.03c0-.016,0-.032,0-.048,0-.079-.006-.149-.013-.219v-.007l0-.029c-.008-.063-.018-.126-.03-.188,0-.018-.008-.036-.012-.054l0-.016c-.012-.054-.027-.108-.043-.161l-.007-.024-.013-.043c-.028-.085-.054-.154-.082-.219L605.686,737.1c-.03-.07-.066-.142-.109-.22l-.019-.032-.021-.034c-.032-.054-.059-.1-.087-.139-.011-.017-.023-.033-.035-.049l-.017-.023c-.035-.048-.065-.086-.093-.119s-.039-.045-.059-.067-.068-.073-.1-.107l-.063-.061c-.032-.03-.068-.061-.112-.1l-.014-.011-.054-.043c-.038-.029-.08-.057-.12-.084l-.031-.021-.041-.028c-.03-.019-.063-.036-.1-.054l-.019-.01a2.569,2.569,0,0,0-.325-.153l-.021-.007-.036-.012c-.073-.026-.133-.045-.189-.06l-.051-.012-.032-.007c-.067-.016-.12-.027-.17-.035l-.088-.012h-.007c-.058-.007-.112-.012-.164-.015l-.1,0h-.037" transform="translate(-511.452 -696.978)" fill="#444"/>
          <g id="Grupo_1031752" data-name="Grupo 1031752" transform="translate(32.44 43.432)" opacity="0.2" style="mix-blend-mode: multiply;isolation: isolate">
            <g id="Grupo_1031751" data-name="Grupo 1031751">
              <g id="Grupo_1031750" data-name="Grupo 1031750" clip-path="url(#clip-path-3)">
                <path id="Trazado_731741" data-name="Trazado 731741" d="M718.748,927.585l.046-.07q.066-.1.124-.212c.011-.021.023-.042.033-.063a2.857,2.857,0,0,0,.162-.4c.013-.042.026-.083.038-.126s.018-.071.026-.106q.017-.076.03-.153c.005-.029.011-.058.015-.087.011-.081.02-.162.024-.245,0-.013,0-.027,0-.041,0-.071,0-.143,0-.215,0-.026,0-.053,0-.079q-.006-.094-.019-.188c0-.025-.006-.051-.011-.076-.014-.086-.031-.172-.053-.259l-.123-.474L698.117,843.9l-.263-1.018c-.023-.09-.051-.177-.083-.263-.01-.028-.022-.053-.033-.08-.023-.057-.047-.115-.073-.17-.014-.03-.03-.059-.045-.087-.026-.051-.054-.1-.083-.15-.017-.029-.035-.057-.053-.084-.031-.047-.062-.093-.1-.138-.019-.026-.039-.053-.059-.078-.035-.044-.071-.087-.109-.128-.021-.024-.042-.048-.064-.071-.038-.04-.078-.078-.119-.116-.024-.022-.047-.045-.072-.067s-.077-.063-.116-.093a2.815,2.815,0,0,0-.334-.227l-.06-.031c-.065-.036-.131-.07-.2-.1-.029-.013-.06-.024-.089-.037-.06-.024-.121-.048-.183-.068l-.1-.031c-.059-.017-.119-.033-.18-.046l-.111-.022c-.06-.011-.122-.019-.183-.026l-.114-.011c-.063,0-.126-.005-.19-.006-.037,0-.074,0-.112,0-.069,0-.138.01-.207.017-.032,0-.065.005-.1.01a2.874,2.874,0,0,0-.3.061l-64.289,16.626a2.858,2.858,0,0,0-.3.095c-.03.011-.059.026-.089.038-.065.027-.129.055-.19.086-.033.017-.064.035-.1.053-.056.031-.112.063-.165.1-.031.02-.062.042-.092.063-.051.036-.1.074-.151.114q-.042.034-.083.07c-.049.043-.1.087-.141.133-.024.024-.048.047-.07.072-.046.05-.09.1-.133.156-.018.023-.037.045-.055.068-.047.063-.09.127-.132.194-.01.016-.022.031-.032.048a2.865,2.865,0,0,0-.179.354c-.021.048-.042.1-.059.145-.012.032-.021.065-.032.1-.017.051-.033.1-.046.153-.009.033-.016.067-.023.1-.012.052-.023.1-.031.158-.006.034-.01.068-.015.1-.007.054-.012.108-.016.162,0,.034,0,.069-.006.1,0,.056,0,.112,0,.168,0,.033,0,.067,0,.1,0,.061.011.122.019.183,0,.029.006.058.01.087.014.09.032.18.055.27l.264,1.02,20.917,80.881.123.477c.022.086.049.17.079.252.009.024.019.048.028.072.023.059.048.117.074.173.011.024.023.048.034.072q.049.1.1.188l.021.036c.044.07.09.137.14.2.018.023.037.046.055.069.033.041.066.081.1.12s.049.054.074.08.063.063.1.093.057.055.087.081c.05.043.1.085.155.124l.078.056q.076.053.155.1l.076.044q.076.043.154.081l.07.034q.1.045.2.083l.064.022q.094.032.191.058l.041.012c.076.018.152.033.229.045l.061.009c.078.011.157.019.237.023H652c.073,0,.148,0,.222,0l.047,0q.122-.007.246-.025l.053-.009c.085-.014.17-.03.255-.052l64.289-16.626a2.873,2.873,0,0,0,.314-.1c.032-.012.062-.027.093-.04.07-.03.138-.062.2-.1l.1-.054c.065-.037.127-.077.188-.119.027-.018.055-.036.081-.056a2.786,2.786,0,0,0,.223-.182l.019-.016a2.858,2.858,0,0,0,.221-.231c.014-.017.027-.035.041-.052q.08-.1.151-.2" transform="translate(-627.961 -840.753)" fill="#3a7ec1"/>
              </g>
            </g>
          </g>
          <path id="Trazado_731742" data-name="Trazado 731742" d="M704.825,796.543l21.3,82.377a2.851,2.851,0,0,1-2.044,3.47L659.8,899.017a2.851,2.851,0,0,1-3.47-2.044l-21.3-82.377a2.848,2.848,0,0,1,2.044-3.47L701.355,794.5a2.849,2.849,0,0,1,3.47,2.044" transform="translate(-602.13 -753.37)" fill="#cc8027"/>
          <path id="Trazado_731743" data-name="Trazado 731743" d="M704.827,796.54l.263,1.018-3.175,9.885-29.435,8-29.626,7.271-7.567-7.1-.264-1.02a2.847,2.847,0,0,1,2.044-3.47L701.357,794.5a2.847,2.847,0,0,1,3.47,2.044" transform="translate(-602.132 -753.367)" fill="#d89444"/>
          <path id="Trazado_731744" data-name="Trazado 731744" d="M1116.523,2328.82l.123.475a2.848,2.848,0,0,1-2.044,3.47l-64.289,16.627a2.849,2.849,0,0,1-3.47-2.044l-.123-.476,2.2-6.463a1.779,1.779,0,0,1,1.216-1.124l59.711-15.442a1.789,1.789,0,0,1,1.61.392Z" transform="translate(-992.646 -2203.743)" fill="#d89444"/>
          <path id="Trazado_731745" data-name="Trazado 731745" d="M1135.2,2331.078a2.843,2.843,0,0,1-1.961,1.781l-64.289,16.626a2.842,2.842,0,0,1-2.578-.607l1.342-8.334a1.442,1.442,0,0,1,1.063-1.168l59.711-15.443a1.448,1.448,0,0,1,1.5.505Z" transform="translate(-1011.28 -2203.838)" fill="#ffa031"/>
          <path id="Trazado_731746" data-name="Trazado 731746" d="M708.7,794.947l-1.777,12.324a.87.87,0,0,1-.645.721l-57.669,14.914a.873.873,0,0,1-.915-.317l-7.529-9.915a2.844,2.844,0,0,1,1.865-1.549L706.317,794.5a2.84,2.84,0,0,1,2.38.448" transform="translate(-607.092 -753.369)" fill="#ffa031"/>
          <path id="Trazado_731747" data-name="Trazado 731747" d="M1276,1061.083a2.705,2.705,0,0,1-2.615-2.025l-5.673-21.937a2.708,2.708,0,0,1,1.939-3.292l1.313-.339a2.7,2.7,0,0,1,3.292,1.939l5.673,21.937a2.708,2.708,0,0,1-1.939,3.292l-1.313.339a2.7,2.7,0,0,1-.676.086m-4.361-26.907a1.912,1.912,0,0,0-.483.062l-1.313.339a1.936,1.936,0,0,0-1.385,2.351l5.673,21.937a1.932,1.932,0,0,0,2.351,1.385l1.313-.339a1.936,1.936,0,0,0,1.385-2.351l-5.673-21.937a1.933,1.933,0,0,0-1.868-1.447" transform="translate(-1202.138 -980.019)" fill="#444"/>
          <path id="Trazado_731748" data-name="Trazado 731748" d="M1269.7,1029.213a3.772,3.772,0,1,1-4.6-2.707,3.772,3.772,0,0,1,4.6,2.707" transform="translate(-1197.063 -973.363)" fill="#fff"/>
          <path id="Trazado_731749" data-name="Trazado 731749" d="M1376.929,1443.85a3.772,3.772,0,1,1-4.6-2.707,3.772,3.772,0,0,1,4.6,2.707" transform="translate(-1298.757 -1366.58)" fill="#fff"/>
          <g id="Grupo_1031755" data-name="Grupo 1031755" transform="translate(84.287 60.636)" opacity="0.25" style="mix-blend-mode: multiply;isolation: isolate">
            <g id="Grupo_1031754" data-name="Grupo 1031754">
              <g id="Grupo_1031753" data-name="Grupo 1031753" clip-path="url(#clip-path-4)">
                <path id="Trazado_731750" data-name="Trazado 731750" d="M1697.2,1179.294l-52.813-5.5a3.766,3.766,0,0,0-4.136,3.355l-8.63,82.8a3.766,3.766,0,0,0,3.355,4.136l64.221,6.694a3.767,3.767,0,0,0,4.136-3.355l7.441-71.4Z" transform="translate(-1631.603 -1173.769)" fill="#3a7ec1"/>
              </g>
            </g>
          </g>
          <path id="Trazado_731751" data-name="Trazado 731751" d="M1657.215,1148.489l-52.813-5.5a3.765,3.765,0,0,0-4.136,3.355l-8.631,82.8a3.766,3.766,0,0,0,3.355,4.136l64.221,6.693a3.766,3.766,0,0,0,4.136-3.355l7.442-71.4Z" transform="translate(-1509.394 -1083.92)" fill="#fff"/>
          <path id="Trazado_731752" data-name="Trazado 731752" d="M2838.084,1261.327a3.765,3.765,0,0,0,3.354,4.136l11.409,1.189-13.574-16.733Z" transform="translate(-2691.452 -1185.35)" fill="#ededed"/>
          <path id="Trazado_731753" data-name="Trazado 731753" d="M2891.991,1548.7l11.8,3.218.2-1.92Z" transform="translate(-2742.594 -1468.691)" fill="#cecece"/>
          <path id="Trazado_731754" data-name="Trazado 731754" d="M2117.365,1474.362l-32.3-3.366a1.592,1.592,0,1,1,.33-3.167l32.3,3.366a1.592,1.592,0,1,1-.33,3.166" transform="translate(-1976.002 -1391.995)" fill="#065958"/>
          <path id="Trazado_731755" data-name="Trazado 731755" d="M1912.6,1663.313l-53.392-5.565a1.592,1.592,0,1,1,.33-3.166l53.392,5.565a1.592,1.592,0,0,1-.33,3.167" transform="translate(-1761.809 -1569.099)" fill="#e4ecf9"/>
          <path id="Trazado_731756" data-name="Trazado 731756" d="M1896.337,1819.337l-53.392-5.565a1.592,1.592,0,1,1,.33-3.167l53.392,5.565a1.592,1.592,0,1,1-.33,3.167" transform="translate(-1746.387 -1717.063)" fill="#e4ecf9"/>
          <path id="Trazado_731757" data-name="Trazado 731757" d="M1880.075,1975.362l-53.392-5.565a1.592,1.592,0,0,1,.33-3.167l53.392,5.565a1.592,1.592,0,1,1-.33,3.166" transform="translate(-1730.965 -1865.028)" fill="#e4ecf9"/>
          <path id="Trazado_731758" data-name="Trazado 731758" d="M1863.813,2131.385l-53.392-5.565a1.592,1.592,0,1,1,.33-3.167l53.392,5.565a1.592,1.592,0,1,1-.33,3.167" transform="translate(-1715.543 -2012.991)" fill="#e4ecf9"/>
          <path id="Trazado_731759" data-name="Trazado 731759" d="M1847.551,2287.41l-53.392-5.565a1.592,1.592,0,0,1,.33-3.167l53.392,5.565a1.592,1.592,0,0,1-.33,3.167" transform="translate(-1700.121 -2160.956)" fill="#e4ecf9"/>
          <path id="Trazado_731760" data-name="Trazado 731760" d="M1831.288,2443.434l-53.392-5.564a1.592,1.592,0,0,1,.33-3.167l53.392,5.565a1.592,1.592,0,1,1-.33,3.166" transform="translate(-1684.699 -2308.92)" fill="#e4ecf9"/>
          <path id="Trazado_731761" data-name="Trazado 731761" d="M2286.1,2674.189a.3.3,0,0,0-.5-.24,5.073,5.073,0,0,1-.909.626l-.476.19q-.474.249-.529-.4a.3.3,0,0,0-.4-.448,2.022,2.022,0,0,1-1.377.643,1.684,1.684,0,0,1-.481-.163,1.986,1.986,0,0,0,.3-.28.3.3,0,0,0,.017-.3,3.757,3.757,0,0,0-.33-.623,11.431,11.431,0,0,0,2.8-4.4.3.3,0,0,0-.485-.319,9.386,9.386,0,0,0-2.727,3.035,2.207,2.207,0,0,0-.34,1.384,1.3,1.3,0,0,0,.04.147,9.674,9.674,0,0,1-.926.771,5.007,5.007,0,0,1-1.419.736c-.369.115-.924.3-1.178-.065.838-.47,1.515-1.135,1.154-1.965-.542-1.248-1.838.634-1.906,1.686a6.859,6.859,0,0,1-1.275.433.3.3,0,0,0,.127.587,8.653,8.653,0,0,0,1.288-.44c.711,1.253,2.959-.029,3.717-.6.226-.17.45-.356.67-.553.172.308.183.256-.246.547a.3.3,0,0,0,.041.552,3.069,3.069,0,0,0,1.468.433,1.666,1.666,0,0,0,.467-.136.291.291,0,0,0,.121.2c.823.54,1.867.093,2.661-.441a4,4,0,0,1-1.371,2.444c-1.134.932-2.589.705-3.918.444-.374-.073-.57.5-.191.569,1.45.284,3,.526,4.282-.391a4.48,4.48,0,0,0,1.836-3.673m-8.7-1.092c.465-.359.148.323-.014.49a2.083,2.083,0,0,1-.349.276,1.645,1.645,0,0,1,.363-.765m3.909-.844a4.424,4.424,0,0,1,.805-1.365,8.8,8.8,0,0,1,1.07-1.181,11.487,11.487,0,0,1-1.912,2.761,1.966,1.966,0,0,1,.037-.215" transform="translate(-2157.402 -2530.565)" fill="#e4ecf9"/>
          <path id="Trazado_731762" data-name="Trazado 731762" d="M2615.688,2697.07a5.75,5.75,0,1,1,6.58-4.778,5.757,5.757,0,0,1-6.58,4.778m1.608-10.129a4.506,4.506,0,1,0,3.745,5.156,4.511,4.511,0,0,0-3.745-5.156" transform="translate(-2475.965 -2546.904)" fill="#e4ecf9"/>
          <path id="Trazado_731763" data-name="Trazado 731763" d="M2678.113,2718.537l-.04.006a9.757,9.757,0,0,0-1.364.328l-.648.211-.622.247a17.865,17.865,0,0,0-2.358,1.166,19.26,19.26,0,0,0-2.176,1.417c-.392.286-.769.59-1.14.905-.211-.194-.428-.383-.655-.565-.3-.265-.645-.5-.978-.743a10.046,10.046,0,0,0-1.094-.658l-.037-.018a.081.081,0,0,0-.083.006.082.082,0,0,0-.022.115c.885,1.294,1.8,2.569,2.709,3.843a.155.155,0,0,0,.214.034c1.411-1,2.814-2.01,4.2-3.044l2.087-1.541c.7-.508,1.379-1.043,2.07-1.563a.083.083,0,0,0-.063-.148" transform="translate(-2529.113 -2578.099)" fill="#ffa031"/>
          <path id="Trazado_731764" data-name="Trazado 731764" d="M2298.089,691.842a5.587,5.587,0,1,1-5.587-5.587,5.587,5.587,0,0,1,5.587,5.587" transform="translate(-2168.775 -650.804)" fill="#3a7ec1"/>
          <path id="Trazado_731765" data-name="Trazado 731765" d="M2610.949,3399.416a3.223,3.223,0,1,1-3.222-3.223,3.222,3.222,0,0,1,3.222,3.223" transform="translate(-2469.957 -3220.749)" fill="#3a7ec1"/>
        </g>
      </g>
    </g>
  </g>
</svg>
