<svg xmlns="http://www.w3.org/2000/svg" width="313.735" height="356.975" viewBox="0 0 313.735 356.975">
  <g id="Grupo_1036268" data-name="Grupo 1036268" transform="translate(-234.732 -335.758)">
    <g id="Grupo_1036263" data-name="Grupo 1036263" transform="translate(303.081 335.758)">
      <g id="Grupo_1036260" data-name="Grupo 1036260">
        <path id="Trazado_736393" data-name="Trazado 736393" d="M1162.338,1041.141c3.191.932,12.031,1.873,12.031,1.873,13.362.439,20.113,9.156,20.113,9.156l4.094-10.9,21.332,6.23,1.332,62.849-9.107-2.66-8.359,10.448c-9.434-3.485-14.224-17.043-14.224-17.043h0c-4.968-6.5-4.092-36.8-4.092-36.8a20.16,20.16,0,0,1-6.993-6.6l-16.293-4.759C1152.432,1045.723,1159.146,1040.209,1162.338,1041.141Z" transform="translate(-1055.73 -911.265)" fill="#f98e68"/>
        <path id="Trazado_736394" data-name="Trazado 736394" d="M1251.9,770.293l-9.166-9.5-39.693-13.181-5.284-1.228s-13.667.056-2.5,10.738l4.3,3.155,42.468,8.975Z" transform="translate(-1083.29 -670.83)" fill="#fea969"/>
        <path id="Trazado_736395" data-name="Trazado 736395" d="M1261.634,843.679s-9.99-28.655-18.531-35.192l-52.95-12.31s-13.741,2.435-2.774,11.931l6.99,3.422,40.417,9.037Z" transform="translate(-1076.974 -711.459)" fill="#fea969"/>
        <path id="Trazado_736396" data-name="Trazado 736396" d="M1235.685,900.847a1.369,1.369,0,0,0-.234-2.5L1175.8,878.614s-11.529-4.218-13.693,4.022c0,0-2.578,5.081,9.9,8.968l52.63,15.371Z" transform="translate(-1059.638 -777.846)" fill="#d9a594"/>
        <path id="Trazado_736397" data-name="Trazado 736397" d="M1410.766,1413.737l2.817,7.553,11.742,3.429-6.2-21.43Z" transform="translate(-1262.722 -1206.86)" fill="#fe9395"/>
        <line id="Línea_2777" data-name="Línea 2777" x2="0.316" y2="0.598" transform="translate(151.483 104.406)" fill="none"/>
        <path id="Trazado_736398" data-name="Trazado 736398" d="M1315.182,1295.017c0,.011,0,.021,0,.033a.049.049,0,0,0,0,.013c.819,13.457,6.3,21.378,10.925,25.727l0,0a34.108,34.108,0,0,1,5.294,6.3l10.112,20.822,8.281-4.257-8.672-28.714c-21.378-3.09-24.7-19.558-24.7-19.558Z" transform="translate(-1184.725 -1118.511)" fill="#fea969"/>
        <g id="Grupo_1036259" data-name="Grupo 1036259">
          <path id="Trazado_736399" data-name="Trazado 736399" d="M784.431,367.7l-39.55,197.331a5.178,5.178,0,0,1-6.1,4.059L657.8,552.854l-12.829-2.572-34.619-6.937a5.178,5.178,0,0,1-4.06-6.1l39.55-197.331a5.178,5.178,0,0,1,6.1-4.059L780.371,361.6A5.178,5.178,0,0,1,784.431,367.7Z" transform="translate(-606.189 -335.758)" fill="#001f36"/>
          <rect id="Rectángulo_353105" data-name="Rectángulo 353105" width="187.087" height="130.148" transform="matrix(0.197, -0.981, 0.981, 0.197, 6.984, 195.646)" fill="#fff"/>
          <g id="Grupo_1036245" data-name="Grupo 1036245" transform="translate(65.07 211.11)">
            <path id="Trazado_736400" data-name="Trazado 736400" d="M967.509,1489.673a1.119,1.119,0,0,0,.6-.578h0v0a1.09,1.09,0,0,0,.079-.243l.64-3.193a1.125,1.125,0,0,0-.88-1.323l-6.142-1.231a1.126,1.126,0,0,0-1.322.882l-.64,3.193a1.125,1.125,0,0,0,.88,1.323l6.142,1.231A1.126,1.126,0,0,0,967.509,1489.673Zm-6.65-1.819a.465.465,0,0,1-.363-.547l.64-3.193a.464.464,0,0,1,.545-.365l6.142,1.231a.464.464,0,0,1,.363.547l-.64,3.193a.456.456,0,0,1-.123.232.464.464,0,0,1-.423.132Z" transform="translate(-959.827 -1483.081)" fill="#ccc"/>
          </g>
          <g id="Grupo_1036246" data-name="Grupo 1036246" transform="translate(95.547 15.842)">
            <circle id="Elipse_8473" data-name="Elipse 8473" cx="0.942" cy="0.942" r="0.942" transform="matrix(0.832, -0.554, 0.554, 0.832, 24.168, 5.338)" fill="#999"/>
            <path id="Trazado_736401" data-name="Trazado 736401" d="M1125.474,422.416h0a.7.7,0,0,1,.826-.55l21.322,4.273a.7.7,0,0,1,.55.826h0a.7.7,0,0,1-.826.55l-21.322-4.273A.7.7,0,0,1,1125.474,422.416Z" transform="translate(-1125.46 -421.852)" fill="#999"/>
          </g>
          <g id="Grupo_1036247" data-name="Grupo 1036247" transform="translate(42.458 77.986)">
            <rect id="Rectángulo_353106" data-name="Rectángulo 353106" width="56.103" height="3.364" transform="matrix(0.981, 0.197, -0.197, 0.981, 22.57, 0)" fill="#f2f2f2"/>
            <rect id="Rectángulo_353107" data-name="Rectángulo 353107" width="97.797" height="4.261" transform="translate(0.837 2.352) rotate(11.333)" fill="#e6e6e6"/>
          </g>
          <g id="Grupo_1036257" data-name="Grupo 1036257" transform="translate(30.434 93.987)">
            <g id="Grupo_1036249" data-name="Grupo 1036249" transform="translate(10.471 0)">
              <rect id="Rectángulo_353108" data-name="Rectángulo 353108" width="19.981" height="19.981" rx="7.647" transform="translate(0 19.591) rotate(-78.667)" fill="#56b8db"/>
              <g id="Grupo_1036248" data-name="Grupo 1036248" transform="translate(4.717 7.223)">
                <path id="Trazado_736402" data-name="Trazado 736402" d="M858.938,895.835a1.11,1.11,0,0,1-.706-.473l-3.916-5.879a1.11,1.11,0,0,1,1.848-1.231l3.213,4.824,7.976-7a1.11,1.11,0,1,1,1.464,1.669l-8.929,7.834a1.109,1.109,0,0,1-.877.266C858.985,895.844,858.961,895.839,858.938,895.835Z" transform="translate(-854.129 -885.803)" fill="#fff"/>
              </g>
            </g>
            <g id="Grupo_1036250" data-name="Grupo 1036250" transform="translate(45.907 12.326)">
              <rect id="Rectángulo_353109" data-name="Rectángulo 353109" width="2.22" height="33.301" transform="translate(1.309 2.177) rotate(-78.667)" fill="#f2f2f2"/>
              <rect id="Rectángulo_353110" data-name="Rectángulo 353110" width="2.22" height="54.392" transform="matrix(0.197, -0.981, 0.981, 0.197, 0, 8.707)" fill="#e6e6e6"/>
            </g>
            <g id="Grupo_1036252" data-name="Grupo 1036252" transform="translate(5.235 26.122)">
              <rect id="Rectángulo_353111" data-name="Rectángulo 353111" width="19.981" height="19.981" rx="7.647" transform="translate(0 19.591) rotate(-78.667)" fill="#56b8db"/>
              <g id="Grupo_1036251" data-name="Grupo 1036251" transform="translate(4.717 7.223)">
                <path id="Trazado_736403" data-name="Trazado 736403" d="M830.484,1037.8a1.11,1.11,0,0,1-.706-.473l-3.916-5.879a1.11,1.11,0,1,1,1.848-1.231l3.213,4.824,7.976-7a1.11,1.11,0,1,1,1.464,1.669l-8.929,7.834a1.11,1.11,0,0,1-.878.266C830.532,1037.806,830.508,1037.8,830.484,1037.8Z" transform="translate(-825.676 -1027.765)" fill="#fff"/>
              </g>
            </g>
            <g id="Grupo_1036253" data-name="Grupo 1036253" transform="translate(40.671 38.447)">
              <rect id="Rectángulo_353112" data-name="Rectángulo 353112" width="2.22" height="33.301" transform="translate(1.309 2.177) rotate(-78.667)" fill="#f2f2f2"/>
              <rect id="Rectángulo_353113" data-name="Rectángulo 353113" width="2.22" height="54.392" transform="matrix(0.197, -0.981, 0.981, 0.197, 0, 8.707)" fill="#e6e6e6"/>
            </g>
            <g id="Grupo_1036255" data-name="Grupo 1036255" transform="translate(0 52.243)">
              <rect id="Rectángulo_353114" data-name="Rectángulo 353114" width="19.981" height="19.981" rx="7.647" transform="translate(0 19.591) rotate(-78.667)" fill="#56b8db"/>
              <g id="Grupo_1036254" data-name="Grupo 1036254" transform="translate(4.717 7.223)">
                <path id="Trazado_736404" data-name="Trazado 736404" d="M802.031,1179.76a1.112,1.112,0,0,1-.706-.473l-3.916-5.88a1.11,1.11,0,1,1,1.847-1.231L802.47,1177l7.976-7a1.11,1.11,0,0,1,1.464,1.669l-8.929,7.833a1.11,1.11,0,0,1-.878.266C802.079,1179.769,802.055,1179.765,802.031,1179.76Z" transform="translate(-797.223 -1169.728)" fill="#fff"/>
              </g>
            </g>
            <g id="Grupo_1036256" data-name="Grupo 1036256" transform="translate(35.436 64.569)">
              <rect id="Rectángulo_353115" data-name="Rectángulo 353115" width="2.22" height="33.301" transform="translate(1.309 2.177) rotate(-78.667)" fill="#f2f2f2"/>
              <rect id="Rectángulo_353116" data-name="Rectángulo 353116" width="2.22" height="54.392" transform="translate(0 8.707) rotate(-78.667)" fill="#e6e6e6"/>
            </g>
          </g>
          <rect id="Rectángulo_353117" data-name="Rectángulo 353117" width="130.148" height="6.735" transform="translate(43.75 12.207) rotate(11.333)" fill="#b3b3b3"/>
          <g id="Grupo_1036258" data-name="Grupo 1036258" transform="translate(156.258 37.041)">
            <path id="Trazado_736405" data-name="Trazado 736405" d="M1455.434,538.221a1.439,1.439,0,1,1,1.128,1.693A1.439,1.439,0,0,1,1455.434,538.221Z" transform="translate(-1455.405 -537.065)" fill="#fff"/>
            <path id="Trazado_736406" data-name="Trazado 736406" d="M1479.073,542.959a1.439,1.439,0,1,1,1.128,1.694A1.439,1.439,0,0,1,1479.073,542.959Z" transform="translate(-1474.695 -540.931)" fill="#fff"/>
            <path id="Trazado_736407" data-name="Trazado 736407" d="M1502.713,547.7a1.439,1.439,0,1,1,1.128,1.694A1.439,1.439,0,0,1,1502.713,547.7Z" transform="translate(-1493.985 -544.797)" fill="#fff"/>
          </g>
        </g>
        <path id="Trazado_736408" data-name="Trazado 736408" d="M1391.583,1024.03H1351.9a20.754,20.754,0,0,1,.247-5.849l4.334-23.335.152-.828h0l.071-.385a12.693,12.693,0,0,1,1.815-4.56l.166-.256,2.58-4,2.343-3.626.42-.651.065-.1a2.824,2.824,0,0,0,.447-1.654c0-.074-.009-.152-.018-.226a2.868,2.868,0,0,0-.3-.967l-.071-.242-.351-1.208-.9-3.1a5.187,5.187,0,0,0-3.928-3.63l-7.8-1.614a11.036,11.036,0,0,1-5.74-3.127,8.641,8.641,0,0,1-2.553-6.268c0-.177.012-.348.025-.51a7.324,7.324,0,0,1,.4-1.951l1.087-.134,1.4-.173,4.191-.519h0l5.138-.634,1.038-.129.184-.058.233-.076,8.289-2.715a7.979,7.979,0,0,1,6.008.422,7.875,7.875,0,0,1,1.283.789,7.7,7.7,0,0,1,.694.586,7.982,7.982,0,0,1,1.176,1.409l13.978,21.3q.148.222.286.45a16.012,16.012,0,0,1,2.3,7.194v.005C1390.407,998.063,1390.606,1011.756,1391.583,1024.03Z" transform="translate(-1207.329 -837.883)" fill="gray" opacity="0.4" style="mix-blend-mode: multiply;isolation: isolate"/>
        <path id="Trazado_736409" data-name="Trazado 736409" d="M1360.2,934.523q0,.245,0,.512a8.644,8.644,0,0,0,2.9,6.115,11.034,11.034,0,0,0,5.905,2.8l7.876,1.177a5.185,5.185,0,0,1,4.125,3.4l1.072,3.044.418,1.187.084.238a2.82,2.82,0,0,1,.354.948c.014.075.024.151.031.226a2.809,2.809,0,0,1-.355,1.675l-.059.1-.384.674-2.136,3.753-2.353,4.133-.151.265a12.687,12.687,0,0,0-1.557,4.654l-.05.388h0l-.106.835L1372.8,994.2a20.8,20.8,0,0,0,4.378,15.633l3.188,3.989-9.028,12.671,11.256,20.227,33.34-5.294,3.537-15.216-1.943-3.749c-5.057-16.8-7.2-39.722-8.272-64.873h0l0,0a15.988,15.988,0,0,0-2.7-7.054c-.1-.146-.2-.292-.309-.434L1391.1,929.608a7.936,7.936,0,0,0-1.254-1.342,7.59,7.59,0,0,0-.725-.547A7.858,7.858,0,0,0,1387.8,927a7.975,7.975,0,0,0-6.022-.087l-8.126,3.174-.227.089-.18.069-1.03.185-5.095.921h0l-4.156.753-1.391.25-1.079.2A7.344,7.344,0,0,0,1360.2,934.523Z" transform="translate(-1221.462 -817.695)" fill="#fea969"/>
        <path id="Trazado_736410" data-name="Trazado 736410" d="M1432.044,930.178v0l.185.309.162.269,4.929-1.925a7.981,7.981,0,0,1,9.326,2.692l.162.22.036.048.613.828,8.9,12.04,1.766,2.389,3.667,4.96q.354.479.67.98a16.012,16.012,0,0,1,2.338,6.512c1.076,25.151,3.215,48.072,8.27,64.874l3.76,7.253,1.26-5.421-1.943-3.749c-5.057-16.8-7.2-39.722-8.272-64.873h0s0,0,0,0a15.989,15.989,0,0,0-2.7-7.054c-.1-.146-.2-.292-.309-.434l-15.145-20.485a7.931,7.931,0,0,0-1.254-1.342,7.591,7.591,0,0,0-.725-.547,7.858,7.858,0,0,0-1.324-.716,7.975,7.975,0,0,0-6.022-.087Z" transform="translate(-1280.084 -817.695)" fill="#d9a594" opacity="0.3" style="mix-blend-mode: multiply;isolation: isolate"/>
        <path id="Trazado_736411" data-name="Trazado 736411" d="M1458.325,1500.775h0l3.577,9.022,10.218,25.774,12.993,3.795,15.037-51.488-3.863-5.525-4.379,14.995Z" transform="translate(-1301.53 -1271.375)" fill="#ffadb0"/>
        <path id="Trazado_736412" data-name="Trazado 736412" d="M1447.273,1451.281a43.725,43.725,0,0,1-14.621-.276.594.594,0,0,1,.271-1.156,47.418,47.418,0,0,0,23.842-2.042.594.594,0,1,1,.388,1.122A51.208,51.208,0,0,1,1447.273,1451.281Z" transform="translate(-1280.206 -1243.159)" fill="#f98e68"/>
        <path id="Trazado_736413" data-name="Trazado 736413" d="M1469.03,1473.061a26.439,26.439,0,0,1-9.584-.376.594.594,0,0,1,.307-1.147,26.737,26.737,0,0,0,14.968-1.149.594.594,0,0,1,.428,1.108A26.99,26.99,0,0,1,1469.03,1473.061Z" transform="translate(-1302.086 -1261.581)" fill="#f98e68"/>
        <line id="Línea_2778" data-name="Línea 2778" x1="39.68" transform="translate(144.573 186.148)" fill="none"/>
        <path id="Trazado_736414" data-name="Trazado 736414" d="M1391.066,947.789l-.353,5.65-6.666.131a3.9,3.9,0,0,1-3.481-1.995l-1.329-2.373Z" transform="translate(-1236.994 -835.174)" fill="#ffc398"/>
      </g>
      <path id="Trazado_736415" data-name="Trazado 736415" d="M1504.921,1582.235v2.325h-67.875l-30.185-97.925,5.936-2.119,2.223-.883v0l8.8-3.5,11.578-4.6,15.318-6.089,3.358-1.335,0,0,3.1-1.232,3.5-1.39Z" transform="translate(-1259.535 -1257.61)" fill="#0a1f24"/>
      <path id="Trazado_736416" data-name="Trazado 736416" d="M1465.111,1445.939l-21.779,8.657-24.728,9.832-2.021-5.891,24.279-9.911,21.494-8.8Z" transform="translate(-1267.468 -1236.676)" fill="#fff"/>
      <path id="Trazado_736417" data-name="Trazado 736417" d="M1471.446,1602.647h-34.4l-30.185-97.925,3.81-1.273-2.02-5.889,4.11-1.654,4.546-1.863,2.707-1.109,0,0,1.737-.71.228-.094h0l10.946-4.483,2.47,5.969,3.854,9.138v0l8.155,26.243Z" transform="translate(-1259.535 -1275.696)" fill="#666" opacity="0.3" style="mix-blend-mode: multiply;isolation: isolate"/>
      <g id="Grupo_1036261" data-name="Grupo 1036261" transform="translate(157.202 233.138)">
        <circle id="Elipse_8474" data-name="Elipse 8474" cx="2.829" cy="2.829" r="2.829" transform="matrix(0.606, -0.795, 0.795, 0.606, 0, 4.501)" fill="#f2f2f2"/>
        <path id="Trazado_736418" data-name="Trazado 736418" d="M1469.25,1607.316a3.727,3.727,0,1,0-3.535,4.221c.113-.005.228-.014.342-.03A3.724,3.724,0,0,0,1469.25,1607.316Zm-3.243,3.822a3.069,3.069,0,0,1-.438.03,3.346,3.346,0,0,1-2.212-.824l0,0a3.321,3.321,0,0,1-1.121-2.078,3.269,3.269,0,0,1-.014-.786l0,0a3.355,3.355,0,1,1,3.789,3.663Z" transform="translate(-1461.594 -1603.851)" fill="#f2f2f2"/>
        <circle id="Elipse_8475" data-name="Elipse 8475" cx="2.829" cy="2.829" r="2.829" transform="matrix(0.606, -0.795, 0.795, 0.606, 0, 4.501)" fill="#f2f2f2"/>
        <circle id="Elipse_8476" data-name="Elipse 8476" cx="2.829" cy="2.829" r="2.829" transform="matrix(0.606, -0.795, 0.795, 0.606, 0, 4.501)" fill="#f2f2f2"/>
      </g>
      <g id="Grupo_1036262" data-name="Grupo 1036262" transform="translate(160.265 242.734)">
        <path id="Trazado_736419" data-name="Trazado 736419" d="M1487.693,1662.268a2.829,2.829,0,1,1-3.182-2.425A2.83,2.83,0,0,1,1487.693,1662.268Z" transform="translate(-1481.163 -1658.921)" fill="#f2f2f2"/>
        <path id="Trazado_736420" data-name="Trazado 736420" d="M1484.6,1658.17a3.726,3.726,0,1,0-2.7,4.091A3.725,3.725,0,0,0,1484.6,1658.17Zm-2.841,3.741a3.291,3.291,0,0,1-.4.081,3.346,3.346,0,0,1-2.65-.794l0,0a3.321,3.321,0,0,1-1.121-2.078,3.26,3.26,0,0,1-.014-.785l0,0a3.355,3.355,0,1,1,4.191,3.582Z" transform="translate(-1477.183 -1654.944)" fill="#f2f2f2"/>
        <path id="Trazado_736421" data-name="Trazado 736421" d="M1487.693,1662.268a2.829,2.829,0,1,1-3.182-2.425A2.83,2.83,0,0,1,1487.693,1662.268Z" transform="translate(-1481.163 -1658.921)" fill="#f2f2f2"/>
        <path id="Trazado_736422" data-name="Trazado 736422" d="M1487.693,1662.268a2.829,2.829,0,1,1-3.182-2.425A2.83,2.83,0,0,1,1487.693,1662.268Z" transform="translate(-1481.163 -1658.921)" fill="#f2f2f2"/>
      </g>
    </g>
    <path id="Trazado_736423" data-name="Trazado 736423" d="M840.6,1376.525a4.251,4.251,0,0,0-3.77-2.161,5.792,5.792,0,0,0-2.032.486c-.1.041-.2.085-.3.132a7.227,7.227,0,0,0-3.492,3.542l-1.386,3-.3.641-6.679,14.463-.141.305,12.535,3.538,1.372-3.844,4.9-13.713a7.37,7.37,0,0,0-.706-6.391Z" transform="translate(-479.622 -847.497)" fill="gray" opacity="0.4" style="mix-blend-mode: multiply;isolation: isolate"/>
    <g id="Grupo_1036267" data-name="Grupo 1036267" transform="translate(234.732 521.833)">
      <g id="Grupo_1036266" data-name="Grupo 1036266">
        <g id="Grupo_1036265" data-name="Grupo 1036265" transform="translate(19.1)">
          <path id="Trazado_736424" data-name="Trazado 736424" d="M640.587,1793.316l20.352-19.576a20.964,20.964,0,0,0,6.88-15.182,43.051,43.051,0,0,0-1.8-12.45l-3.26-8.157-7.577,3.06-19.628,50.934Z" transform="translate(-580.903 -1666.02)" fill="#fea969"/>
          <path id="Trazado_736425" data-name="Trazado 736425" d="M351.842,1418.891l-2.014,37.214-11.291,27.33,50.59,19.5L399,1474.354l-.213-.082,16.947-28.627a37.334,37.334,0,0,0,4.26-13l3.116-23.36,19.028-53.295a7.563,7.563,0,0,0-.741-6.7c-1.177-1.784-3.155-3.125-6.4-1.618a7.582,7.582,0,0,0-3.663,3.713L408.427,1401s-2.363,4.085-2.821,3.908c0,0-3.866-13.847-15.039-3.955a2.13,2.13,0,0,1-.309.222v0a3.733,3.733,0,0,1-3.741.054s-6.038-5.481-10.938-.271c0,0-.188.127-.508.3a5.218,5.218,0,0,1-4.036.582s-2.64-3.383-8.207-.534A19.6,19.6,0,0,0,351.842,1418.891Z" transform="translate(-338.537 -1347.02)" fill="#fea969"/>
          <path id="Trazado_736426" data-name="Trazado 736426" d="M853.7,1367.592l1.322-3.431a4.194,4.194,0,0,0-.409-3.831c-.823-1.237-2.154-2.442-4.072-1.9a4.117,4.117,0,0,0-2.69,2.512l-1.476,3.83A8.6,8.6,0,0,0,853.7,1367.592Z" transform="translate(-752.932 -1356.22)" fill="#ffc398"/>
          <path id="Trazado_736427" data-name="Trazado 736427" d="M642.4,1694.7a.62.62,0,0,0,.073.022.552.552,0,0,0,.663-.411l2.578-10.976a10.809,10.809,0,0,1,1.129-2.875l5.039-8.849a.551.551,0,1,0-.958-.546l-5.039,8.849a11.9,11.9,0,0,0-1.244,3.169l-2.578,10.976A.552.552,0,0,0,642.4,1694.7Z" transform="translate(-586.199 -1611.217)" fill="#f98e68"/>
          <path id="Trazado_736428" data-name="Trazado 736428" d="M559.058,1684.682a.614.614,0,0,0,.887-.358l2.968-9.808,4.219-8.545a.613.613,0,1,0-1.1-.543l-4.264,8.635-.015.049-2.982,9.856A.613.613,0,0,0,559.058,1684.682Z" transform="translate(-518.226 -1606.561)" fill="#f98e68"/>
          <path id="Trazado_736429" data-name="Trazado 736429" d="M492.856,1680.667a.614.614,0,0,0,.773-.308l3.76-7.852c.192-.4.371-.815.53-1.228l2.15-5.579a.613.613,0,1,0-1.144-.441l-2.15,5.578c-.148.384-.314.768-.492,1.14l-3.76,7.852a.613.613,0,0,0,.288.818Z" transform="translate(-464.14 -1606.382)" fill="#f98e68"/>
          <path id="Trazado_736430" data-name="Trazado 736430" d="M472.549,1981.728a.488.488,0,0,0,.153.032c15.034.693,28.631,10.987,28.766,11.091a.486.486,0,0,0,.592-.772c-.138-.106-13.977-10.583-29.313-11.291a.486.486,0,0,0-.2.94Z" transform="translate(-447.636 -1864.173)" fill="#f98e68"/>
          <path id="Trazado_736431" data-name="Trazado 736431" d="M528.847,2021.177a.486.486,0,0,0,.447-.857c-.533-.361-13.137-8.816-20.307-7.772a.486.486,0,0,0,.14.962c6.8-.99,19.495,7.529,19.623,7.615A.478.478,0,0,0,528.847,2021.177Z" transform="translate(-477.284 -1890.016)" fill="#f98e68"/>
          <path id="Trazado_736432" data-name="Trazado 736432" d="M348.281,1787.39l4.963-29.637-.986-42.84-2.474,41.507-11.247,27.215Z" transform="translate(-338.537 -1647.22)" fill="#d9a594" opacity="0.3" style="mix-blend-mode: multiply;isolation: isolate"/>
          <path id="Trazado_736433" data-name="Trazado 736433" d="M599.29,1641.393l1.76,2.256,1.981-2.31A3.733,3.733,0,0,1,599.29,1641.393Z" transform="translate(-551.311 -1587.183)" fill="#d9a594" opacity="0.3" style="mix-blend-mode: multiply;isolation: isolate"/>
          <path id="Trazado_736434" data-name="Trazado 736434" d="M515.147,1642.349l2.025,1.569,2.012-2.151A5.219,5.219,0,0,1,515.147,1642.349Z" transform="translate(-482.65 -1587.533)" fill="#d9a594" opacity="0.3" style="mix-blend-mode: multiply;isolation: isolate"/>
          <path id="Trazado_736435" data-name="Trazado 736435" d="M584.517,1957.8l12.007-28.237,17.117-22.587-14.009,24.53-9.786,28.347Z" transform="translate(-539.256 -1803.943)" fill="#d9a594" opacity="0.3" style="mix-blend-mode: multiply;isolation: isolate"/>
          <g id="Grupo_1036264" data-name="Grupo 1036264" transform="translate(68.165 79.227)">
            <path id="Trazado_736436" data-name="Trazado 736436" d="M709.643,1811.8a.648.648,0,0,1-.53-1.019,84.863,84.863,0,0,0,13.3-32.634.648.648,0,0,1,1.283.181,86.337,86.337,0,0,1-13.523,33.2A.647.647,0,0,1,709.643,1811.8Z" transform="translate(-708.996 -1777.593)" fill="#f98e68"/>
          </g>
        </g>
        <path id="Trazado_736437" data-name="Trazado 736437" d="M402.86,2009.19l-1.325,3.439-.914,2.374-1.56,4.052-27.543-10.919-26.986-10.7,1.29-3.184.529-1.619,2.286-4.338,26.579,10.241Z" transform="translate(-324.328 -1870.298)" fill="#fff"/>
        <path id="Trazado_736438" data-name="Trazado 736438" d="M312.773,2039.228l-9.456,25.547H234.732l19.8-47.588,2.9,1.094.25.094,20.069,7.837,5.467,2.146.959.375,25.79,9.45,1.064.4Z" transform="translate(-234.732 -1893.875)" fill="#0a1f24"/>
        <path id="Trazado_736439" data-name="Trazado 736439" d="M463.788,2060.419l1.748.649-9.456,25.547H421.942l9.6-24.919,3.054-7.921.085-.223.092-.241,1.2-3.113.959-2.49,1.448-3.756,27.645,10.654-1.325,3.439Z" transform="translate(-387.495 -1915.715)" fill="#666" opacity="0.3" style="mix-blend-mode: multiply;isolation: isolate"/>
      </g>
    </g>
  </g>
</svg>
