<svg xmlns="http://www.w3.org/2000/svg" xmlns:xlink="http://www.w3.org/1999/xlink" width="96.939" height="80.423" viewBox="0 0 96.939 80.423">
  <defs>
    <clipPath id="clip-path">
      <rect id="Rectángulo_346374" data-name="Rectángulo 346374" width="20.178" height="45.944" transform="translate(0 0)" fill="none" stroke="#12263f" stroke-width="1"/>
    </clipPath>
  </defs>
  <g id="Grupo_1033853" data-name="Grupo 1033853" transform="translate(-1238.061 -270.869)">
    <g id="Grupo_1027019" data-name="Grupo 1027019" transform="translate(509.705 -880.949) rotate(43)">
      <g id="Grupo_1002342" data-name="Grupo 1002342" transform="translate(26.148 -32.352)">
        <g id="Grupo_1002315" data-name="Grupo 1002315" transform="translate(1347.438 436.338) rotate(-135)">
          <g id="Grupo_1002212" data-name="Grupo 1002212" clip-path="url(#clip-path)">
            <path id="Trazado_707910" data-name="Trazado 707910" d="M15,1.5C9.476,12.543,10.089,29.267,11.93,41.536" fill="none" stroke="#12263f" stroke-linecap="round" stroke-linejoin="round" stroke-width="3"/>
            <path id="Trazado_707911" data-name="Trazado 707911" d="M1.5,35.242c3.681,3.681,7.976,6.135,11.656,9.2a34.1,34.1,0,0,1,5.522-10.429" fill="none" stroke="#12263f" stroke-linecap="round" stroke-linejoin="round" stroke-width="3"/>
          </g>
        </g>
      </g>
    </g>
    <g id="nuclear" transform="translate(1287.326 270.869)">
      <path id="Trazado_733945" data-name="Trazado 733945" d="M4.9,11.172,7.059,42.031A2.037,2.037,0,0,0,9.089,43.9h.417L10.9,57.785a2.037,2.037,0,0,0,2.031,1.874H36.8a2.038,2.038,0,0,0,2.031-1.874L40.224,43.9h.418a2.038,2.038,0,0,0,2.031-1.874l2.156-30.859Zm0,0" transform="translate(-1.028 -2.344)" fill="#ffa031"/>
      <path id="Trazado_733946" data-name="Trazado 733946" d="M42.014,14.18A1.019,1.019,0,0,0,41,15.116L39.287,40.461c-.082,0-31.8,0-31.88,0l.082,1.015.1,1.182a2.037,2.037,0,0,0,2.027,1.874h27.1l-1.269,11.68c-.082,0-24.119,0-24.2,0,.168,2.079.05,3.046,1.085,3.731l.45,5.6a2.037,2.037,0,0,0,2.03,1.874H35.968A2.037,2.037,0,0,0,38,65.546l.45-5.6a2.047,2.047,0,0,0,.908-1.535L40.8,44.535h.364A2.038,2.038,0,0,0,43.2,42.661l1.964-28.478c-.082-.007-3.065,0-3.148,0Zm0,0" transform="translate(-1.554 -2.975)" fill="#99601d"/>
      <path id="Trazado_733947" data-name="Trazado 733947" d="M21.134,76.4a4.075,4.075,0,1,0,4.075,4.075A4.079,4.079,0,0,0,21.134,76.4Zm0,0" transform="translate(-3.579 -16.028)" fill="#4d5967"/>
      <path id="Trazado_733948" data-name="Trazado 733948" d="M37.033,76.4a4.075,4.075,0,1,0,4.075,4.075A4.079,4.079,0,0,0,37.033,76.4Zm0,0" transform="translate(-6.914 -16.028)" fill="#4d5967"/>
      <path id="Trazado_733949" data-name="Trazado 733949" d="M44.888,8.419h-.272V5.364a4.075,4.075,0,0,0-4.075-4.075H7.945A4.074,4.074,0,0,0,3.871,5.364V8.419H3.326a2.037,2.037,0,0,0-2.037,2.037v3.056A2.037,2.037,0,0,0,3.326,15.55H44.888a2.037,2.037,0,0,0,2.037-2.037V10.457a2.037,2.037,0,0,0-2.037-2.037Zm0,0" transform="translate(-0.27 -0.27)" fill="#6c7a88"/>
      <path id="Trazado_733950" data-name="Trazado 733950" d="M44.888,8.419h-.272V5.364a4.074,4.074,0,0,0-4.075-4.075V4.345H4a4.082,4.082,0,0,0-.128,1.019V8.419h38.98v3.056H1.289v2.037A2.037,2.037,0,0,0,3.326,15.55H44.888a2.037,2.037,0,0,0,2.037-2.037V10.457a2.037,2.037,0,0,0-2.037-2.037Zm0,0" transform="translate(-0.27 -0.27)" fill="#4d5967"/>
      <path id="Trazado_733951" data-name="Trazado 733951" d="M22.964,81.284a1.019,1.019,0,1,1-1.019-1.019A1.019,1.019,0,0,1,22.964,81.284Zm0,0" transform="translate(-4.39 -16.839)"/>
      <path id="Trazado_733952" data-name="Trazado 733952" d="M38.863,81.284a1.019,1.019,0,1,1-1.019-1.019A1.019,1.019,0,0,1,38.863,81.284Zm0,0" transform="translate(-7.726 -16.839)"/>
      <path id="Trazado_733953" data-name="Trazado 733953" d="M45.364,7.223V5.093A5.1,5.1,0,0,0,40.271,0H7.675A5.1,5.1,0,0,0,2.582,5.093V7.167A3.061,3.061,0,0,0,0,10.186v3.056A3.059,3.059,0,0,0,3.056,16.3h.4l1.561,23.47A3.076,3.076,0,0,0,7.48,42.523l1.374,13A3.035,3.035,0,0,0,9.8,57.494l.415,5.159a3.072,3.072,0,0,0,3.046,2.811h.223A1.019,1.019,0,0,0,14.5,64.445a3.059,3.059,0,1,1,1.406,2.571,1.019,1.019,0,1,0-1.1,1.713,5.065,5.065,0,0,0,2.752.81h0a5.1,5.1,0,0,0,4.99-4.075h3.5a1.019,1.019,0,0,0,1.019-1.019,3.059,3.059,0,1,1,1.406,2.571,1.019,1.019,0,0,0-1.548,1.072,1.006,1.006,0,0,0,.444.641,5.063,5.063,0,0,0,2.75.81h0a5.1,5.1,0,0,0,5.007-4.163,3.074,3.074,0,0,0,2.336-2.723l.415-5.159a3.037,3.037,0,0,0,.943-1.971l1.374-13a3.076,3.076,0,0,0,2.465-2.755L44.22,16.3h.4a3.059,3.059,0,0,0,3.056-3.056V10.186a3.061,3.061,0,0,0-2.309-2.964ZM40.629,39.605a1.025,1.025,0,0,1-1.015.937H30.628a1.019,1.019,0,1,0,0,2.037h7.518l-1.357,12.78a1.014,1.014,0,0,1-.454.766l0,0a1.015,1.015,0,0,1-.559.169h-9.9a1.019,1.019,0,1,0,0,2.037h9.891L35.43,62.49a1.019,1.019,0,0,1-.373.707,5.094,5.094,0,0,0-9.93.23H22.546a5.094,5.094,0,0,0-9.93-.23,1.019,1.019,0,0,1-.373-.707l-.335-4.156H21.8a1.019,1.019,0,0,0,0-2.037H11.9a1.022,1.022,0,0,1-1.015-.937L9.528,42.579h7.518a1.019,1.019,0,1,0,0-2.037H8.061a1.025,1.025,0,0,1-1.016-.937L5.5,16.3H42.176Zm5.008-26.363a1.02,1.02,0,0,1-1.019,1.019H3.056a1.02,1.02,0,0,1-1.019-1.019V10.186A1.02,1.02,0,0,1,3.056,9.168H40.339a1.019,1.019,0,0,0,0-2.037H4.619V5.093A3.059,3.059,0,0,1,7.675,2.037h32.6a3.059,3.059,0,0,1,3.056,3.056V8.149a1.018,1.018,0,0,0,1.019,1.019h.272a1.02,1.02,0,0,1,1.019,1.019Zm0,0" fill="#12263f"/>
      <path id="Trazado_733954" data-name="Trazado 733954" d="M17.714,40.38a1.019,1.019,0,0,0,.665-1.278A3.4,3.4,0,0,1,21.3,34.688a5.937,5.937,0,0,0,3.2,5.2,3.4,3.4,0,0,1-3.9,1.429,1.019,1.019,0,1,0-.613,1.943,5.435,5.435,0,0,0,6.506-2.751,5.78,5.78,0,0,0,1.489,0,5.43,5.43,0,0,0,6.5,2.751,1.019,1.019,0,0,0-.613-1.943,3.394,3.394,0,0,1-3.9-1.429,5.937,5.937,0,0,0,3.2-5.2A3.4,3.4,0,0,1,36.084,39.1a1.019,1.019,0,1,0,1.943.613,5.439,5.439,0,0,0-5.207-7.079,5.943,5.943,0,0,0-.933-1.681,5.435,5.435,0,0,0-2.148-7.639,1.018,1.018,0,0,0-.94,1.807,3.4,3.4,0,0,1,1.523,4.441,5.917,5.917,0,0,0-6.18,0,3.4,3.4,0,0,1,1.523-4.441,1.018,1.018,0,0,0-.94-1.807,5.435,5.435,0,0,0-2.147,7.639,5.918,5.918,0,0,0-.934,1.681h-.021a5.439,5.439,0,0,0-5.186,7.079,1.019,1.019,0,0,0,1.278.665Zm13.375-5.224a3.9,3.9,0,0,1-1.639,2.668A3.4,3.4,0,0,1,31.089,35.157ZM28.9,31.107a3.39,3.39,0,0,1-3.334,0A3.888,3.888,0,0,1,28.9,31.107ZM23.972,32.5a5.427,5.427,0,0,0,6.517,0,3.835,3.835,0,0,1,.3.541,5.438,5.438,0,0,0-3.364,5.48,3.617,3.617,0,0,1-.379,0,5.435,5.435,0,0,0-3.366-5.48,3.889,3.889,0,0,1,.3-.541Zm1.04,5.329a3.9,3.9,0,0,1-1.639-2.668A3.4,3.4,0,0,1,25.012,37.825Zm0,0" transform="translate(-3.394 -4.867)" fill="#12263f"/>
    </g>
  </g>
</svg>
