<svg xmlns="http://www.w3.org/2000/svg" xmlns:xlink="http://www.w3.org/1999/xlink" width="96.277" height="113.082" viewBox="0 0 96.277 113.082">
  <defs>
    <clipPath id="clip-path">
      <rect id="Rectángulo_346374" data-name="Rectángulo 346374" width="15.143" height="34.479" transform="translate(0 0)" fill="none" stroke="#12263f" stroke-width="1"/>
    </clipPath>
    <clipPath id="clip-path-2">
      <path id="path8652" d="M0-682.665H80.9v80.9H0Z" transform="translate(0 682.665)"/>
    </clipPath>
  </defs>
  <g id="Grupo_1027017" data-name="Grupo 1027017" transform="matrix(0.995, -0.105, 0.105, 0.995, -968.742, 3.509)">
    <g id="Grupo_1024551" data-name="Grupo 1024551" transform="translate(16 -5.53)">
      <g id="Grupo_1002341" data-name="Grupo 1002341" transform="translate(116.552 -155.822)">
        <g id="Grupo_1002316" data-name="Grupo 1002316" transform="matrix(-0.799, 0.602, -0.602, -0.799, 916.26, 371.379)">
          <g id="Grupo_1002212" data-name="Grupo 1002212" transform="translate(0 0)" clip-path="url(#clip-path)">
            <path id="Trazado_707910" data-name="Trazado 707910" d="M3.283,0C-.861,8.287-.4,20.838.981,30.046" transform="translate(7.972 1.125)" fill="none" stroke="#12263f" stroke-linecap="round" stroke-linejoin="round" stroke-width="3"/>
            <path id="Trazado_707911" data-name="Trazado 707911" d="M0,.921c2.762,2.762,5.986,4.6,8.747,6.906A25.589,25.589,0,0,1,12.891,0" transform="translate(1.126 25.527)" fill="none" stroke="#12263f" stroke-linecap="round" stroke-linejoin="round" stroke-width="3"/>
          </g>
        </g>
      </g>
      <g id="g8610" transform="matrix(0.995, 0.105, -0.105, 0.995, 876.444, 782.227)">
        <g id="g8612" transform="translate(54.886 -656.818)">
          <path id="path8614" d="M-184.674-207.437H-209.5v-27.886h17.153l7.673,12.914Z" transform="translate(209.501 235.323)" fill="#d9e7ec"/>
        </g>
        <g id="g8616" transform="translate(69.063 -656.817)">
          <path id="path8618" d="M-79.217-96.059v14.972h-2.975V-96.059l-7.674-12.914h2.977Z" transform="translate(89.866 108.973)" fill="#c5d3dd"/>
        </g>
        <g id="g8620" transform="translate(1.185 -628.931)">
          <path id="path8622" d="M-584.137-33.545h-73.479l-5.048-4.51h78.528Z" transform="translate(662.665 38.055)" fill="#a8d3d8"/>
        </g>
        <path id="path8624" d="M650.534-224.717h-2.975v-4.509h2.975Z" transform="translate(-570.821 -399.705)" fill="#8ebac5"/>
        <g id="g8626" transform="translate(1.185 -664.885)">
          <path id="path8628" d="M-145.529,0V35.954h-19.564V19.564Z" transform="translate(165.093)" fill="#065958"/>
        </g>
        <g id="g8630" transform="translate(17.491 -664.885)">
          <path id="path8632" d="M-24.235,0V35.954h-3.258V3.258Z" transform="translate(27.493)" fill="#065958"/>
        </g>
        <path id="path8634" d="M209.23-496.672H175.093v-35.954H209.23Z" transform="translate(-154.344 -132.26)" fill="#a6d6d6"/>
        <path id="path8636" d="M434.14-496.672h-3.9v-35.954h3.9Z" transform="translate(-379.254 -132.26)" fill="#065958"/>
        <g id="g8638" transform="translate(59.911 -651.678)">
          <path id="path8640" d="M-104.941-59.385h-14.108v-7.983h9.514Z" transform="translate(119.049 67.368)" fill="#8ac9fe"/>
        </g>
        <g id="g8642" transform="translate(66.028 -651.679)">
          <path id="path8644" d="M-59.436-59.39h-3.4l-4.593-7.984h3.4Z" transform="translate(67.426 67.374)" fill="#60b8fe"/>
        </g>
        <path id="path8646" d="M582.259-348.4h-5.694v-5.413h5.694Z" transform="translate(-508.241 -289.884)" fill="#a8d3d8"/>
        <g id="g8648" transform="translate(0 -682.665)">
          <g id="g8650" clip-path="url(#clip-path-2)">
            <g id="g8656" transform="translate(59.021 53.369)">
              <path id="path8658" d="M-72.513-36.258a4.874,4.874,0,0,1-4.874,4.874,4.874,4.874,0,0,1-4.874-4.874,4.874,4.874,0,0,1,4.874-4.874,4.874,4.874,0,0,1,4.874,4.874" transform="translate(82.261 41.132)" fill="#314dc9"/>
            </g>
            <g id="g8660" transform="translate(62.383 53.369)">
              <path id="path8662" d="M-47.507-36.26a4.874,4.874,0,0,1-4.875,4.874,4.838,4.838,0,0,1-1.512-.24,4.872,4.872,0,0,0,3.362-4.634,4.872,4.872,0,0,0-3.362-4.634,4.833,4.833,0,0,1,1.512-.24,4.874,4.874,0,0,1,4.875,4.875" transform="translate(53.893 41.135)" fill="#2740b0"/>
            </g>
            <g id="g8664" transform="translate(30.893 53.369)">
              <path id="path8666" d="M-72.514-36.258a4.874,4.874,0,0,1-4.874,4.874,4.874,4.874,0,0,1-4.874-4.874,4.874,4.874,0,0,1,4.874-4.874,4.874,4.874,0,0,1,4.874,4.874" transform="translate(82.262 41.132)" fill="#314dc9"/>
            </g>
            <g id="g8668" transform="translate(34.255 53.369)">
              <path id="path8670" d="M-47.507-36.26a4.874,4.874,0,0,1-4.874,4.874,4.839,4.839,0,0,1-1.512-.24,4.872,4.872,0,0,0,3.362-4.634,4.872,4.872,0,0,0-3.362-4.634,4.835,4.835,0,0,1,1.512-.24,4.874,4.874,0,0,1,4.874,4.875" transform="translate(53.893 41.135)" fill="#2740b0"/>
            </g>
            <g id="g8672" transform="translate(15.875 53.369)">
              <path id="path8674" d="M-72.513-36.258a4.874,4.874,0,0,1-4.874,4.874,4.874,4.874,0,0,1-4.874-4.874,4.874,4.874,0,0,1,4.874-4.874,4.874,4.874,0,0,1,4.874,4.874" transform="translate(82.261 41.132)" fill="#314dc9"/>
            </g>
            <g id="g8676" transform="translate(19.237 53.369)">
              <path id="path8678" d="M-47.507-36.26a4.874,4.874,0,0,1-4.874,4.874,4.839,4.839,0,0,1-1.512-.24,4.874,4.874,0,0,0,3.362-4.634,4.874,4.874,0,0,0-3.362-4.634,4.834,4.834,0,0,1,1.512-.24,4.874,4.874,0,0,1,4.874,4.875" transform="translate(53.893 41.135)" fill="#2740b0"/>
            </g>
            <g id="g8680" transform="translate(1.481 18.139)">
              <path id="path8682" d="M-119.09-21.571-132.2-8.461l-2.9-2.9,13.11-13.11Z" transform="translate(135.1 24.471)" fill="#4db1f0"/>
            </g>
            <g id="g8684" transform="translate(54.886 25.847)">
              <path id="path8686" d="M0-207.437v-27.886H17.153l7.673,12.914v14.973" transform="translate(0 235.323)" fill="none" stroke="#12263f" stroke-linecap="round" stroke-linejoin="round" stroke-miterlimit="10" stroke-width="2"/>
            </g>
            <g id="g8688" transform="translate(65.746 53.734)">
              <path id="path8690" d="M0,0H13.967V4.51H3.024" fill="none" stroke="#12263f" stroke-linecap="round" stroke-linejoin="round" stroke-miterlimit="10" stroke-width="2"/>
            </g>
            <g id="g8692" transform="translate(37.618 53.734)">
              <path id="path8694" d="M0,0H24.427" fill="none" stroke="#12263f" stroke-linecap="round" stroke-linejoin="round" stroke-miterlimit="10" stroke-width="2"/>
            </g>
            <g id="g8696" transform="translate(22.6 53.734)">
              <path id="path8698" d="M0,0H11.317" fill="none" stroke="#12263f" stroke-linecap="round" stroke-linejoin="round" stroke-miterlimit="10" stroke-width="2"/>
            </g>
            <g id="g8700" transform="translate(1.185 53.734)">
              <path id="path8702" d="M-109.275-33.545h-9.642l-5.049-4.51h17.714" transform="translate(123.965 38.055)" fill="none" stroke="#12263f" stroke-linecap="round" stroke-linejoin="round" stroke-miterlimit="10" stroke-width="2"/>
            </g>
            <g id="g8704" transform="translate(25.623 58.243)">
              <path id="path8706" d="M-39.2,0h-5.27" transform="translate(44.469)" fill="none" stroke="#12263f" stroke-linecap="round" stroke-linejoin="round" stroke-miterlimit="10" stroke-width="2"/>
            </g>
            <g id="g8708" transform="translate(40.641 58.243)">
              <path id="path8710" d="M-96.511,0h-12.974" transform="translate(109.485)" fill="none" stroke="#12263f" stroke-linecap="round" stroke-linejoin="round" stroke-miterlimit="10" stroke-width="2"/>
            </g>
            <g id="g8712" transform="translate(1.185 17.78)">
              <path id="path8714" d="M-399.463-267.443V-303.4H-433.6l-19.564,19.564v16.389" transform="translate(453.164 303.397)" fill="none" stroke="#12263f" stroke-linecap="round" stroke-linejoin="round" stroke-miterlimit="10" stroke-width="2"/>
            </g>
            <g id="g8716" transform="translate(20.749 23.858)">
              <path id="path8718" d="M0,0V29.51" fill="none" stroke="#12263f" stroke-linecap="round" stroke-linejoin="round" stroke-miterlimit="10" stroke-width="2"/>
            </g>
            <g id="g8720" transform="translate(59.911 30.987)">
              <path id="path8722" d="M-104.941-59.385h-14.108v-7.983h9.514Z" transform="translate(119.049 67.368)" fill="none" stroke="#12263f" stroke-linecap="round" stroke-linejoin="round" stroke-miterlimit="10" stroke-width="2"/>
            </g>
            <path id="path8724" d="M582.259-348.4h-5.694v-5.413h5.694Z" transform="translate(-508.241 392.781)" fill="none" stroke="#12263f" stroke-linecap="round" stroke-linejoin="round" stroke-miterlimit="10" stroke-width="2"/>
            <g id="g8726" transform="translate(59.021 53.369)">
              <path id="path8728" d="M-72.513-36.258a4.874,4.874,0,0,1-4.874,4.874,4.874,4.874,0,0,1-4.874-4.874,4.874,4.874,0,0,1,4.874-4.874A4.874,4.874,0,0,1-72.513-36.258Z" transform="translate(82.261 41.132)" fill="none" stroke="#12263f" stroke-linecap="round" stroke-linejoin="round" stroke-miterlimit="10" stroke-width="2"/>
            </g>
            <g id="g8730" transform="translate(30.893 53.369)">
              <path id="path8732" d="M-72.514-36.258a4.874,4.874,0,0,1-4.874,4.874,4.874,4.874,0,0,1-4.874-4.874,4.874,4.874,0,0,1,4.874-4.874A4.874,4.874,0,0,1-72.514-36.258Z" transform="translate(82.262 41.132)" fill="none" stroke="#12263f" stroke-linecap="round" stroke-linejoin="round" stroke-miterlimit="10" stroke-width="2"/>
            </g>
            <g id="g8734" transform="translate(15.875 53.369)">
              <path id="path8736" d="M-72.513-36.258a4.874,4.874,0,0,1-4.874,4.874,4.874,4.874,0,0,1-4.874-4.874,4.874,4.874,0,0,1,4.874-4.874A4.874,4.874,0,0,1-72.513-36.258Z" transform="translate(82.261 41.132)" fill="none" stroke="#12263f" stroke-linecap="round" stroke-linejoin="round" stroke-miterlimit="10" stroke-width="2"/>
            </g>
            <g id="g8738" transform="translate(27.625 32.588)">
              <path id="path8740" d="M-12.035-88.814a1.616,1.616,0,0,1-1.413-2.4l5.3-9.54" transform="translate(13.653 100.753)" fill="none" stroke="#12263f" stroke-linecap="round" stroke-linejoin="round" stroke-miterlimit="10" stroke-width="2"/>
            </g>
            <g id="g8742" transform="translate(35.716 42.128)">
              <path id="path8744" d="M-89.928,0A1.616,1.616,0,0,1-91.34,2.4h-10.677" transform="translate(102.017)" fill="none" stroke="#12263f" stroke-linecap="round" stroke-linejoin="round" stroke-miterlimit="10" stroke-width="2"/>
            </g>
            <g id="g8746" transform="translate(36.405 25.847)">
              <path id="path8748" d="M0-6.185a1.616,1.616,0,0,1,2.825,0L8.753,4.5" transform="translate(0 7.017)" fill="none" stroke="#12263f" stroke-linecap="round" stroke-linejoin="round" stroke-miterlimit="10" stroke-width="2"/>
            </g>
            <g id="g8750" transform="translate(35.716 41.444)">
              <path id="path8752" d="M-22.94,0l-3.084,3.084,3.084,3.084" transform="translate(26.024)" fill="none" stroke="#12263f" stroke-linecap="round" stroke-linejoin="round" stroke-miterlimit="10" stroke-width="2"/>
            </g>
            <g id="g8754" transform="translate(28.912 32.588)">
              <path id="path8756" d="M-39.734-31.337l-1.129-4.213-4.213,1.129" transform="translate(45.076 35.549)" fill="none" stroke="#12263f" stroke-linecap="round" stroke-linejoin="round" stroke-miterlimit="10" stroke-width="2"/>
            </g>
            <g id="g8758" transform="translate(40.946 33.146)">
              <path id="path8760" d="M0-22.941l4.213,1.129,1.129-4.213" transform="translate(0 26.025)" fill="none" stroke="#12263f" stroke-linecap="round" stroke-linejoin="round" stroke-miterlimit="10" stroke-width="2"/>
            </g>
            <g id="g8762" transform="translate(1.481 18.139)">
              <path id="path8764" d="M-42.984-54.533l7.331-7.331,2.9,2.9-13.11,13.11-2.9-2.9,1.927-1.927" transform="translate(48.763 61.864)" fill="none" stroke="#12263f" stroke-linecap="round" stroke-linejoin="round" stroke-miterlimit="10" stroke-width="2"/>
            </g>
            <g id="g8766" transform="translate(62.71 57.058)">
              <path id="path8768" d="M-17.63-8.815A1.185,1.185,0,0,1-18.815-7.63,1.185,1.185,0,0,1-20-8.815,1.185,1.185,0,0,1-18.815-10,1.185,1.185,0,0,1-17.63-8.815" transform="translate(20 10)" fill="#12263f"/>
            </g>
            <g id="g8770" transform="translate(34.582 57.058)">
              <path id="path8772" d="M-17.63-8.815A1.185,1.185,0,0,1-18.815-7.63,1.185,1.185,0,0,1-20-8.815,1.185,1.185,0,0,1-18.815-10,1.185,1.185,0,0,1-17.63-8.815" transform="translate(20 10)" fill="#12263f"/>
            </g>
            <g id="g8774" transform="translate(19.564 57.058)">
              <path id="path8776" d="M-17.63-8.815A1.185,1.185,0,0,1-18.815-7.63,1.185,1.185,0,0,1-20-8.815,1.185,1.185,0,0,1-18.815-10,1.185,1.185,0,0,1-17.63-8.815" transform="translate(20 10)" fill="#12263f"/>
            </g>
          </g>
        </g>
      </g>
    </g>
  </g>
</svg>
