<svg xmlns="http://www.w3.org/2000/svg" xmlns:xlink="http://www.w3.org/1999/xlink" width="74.38" height="115.834" viewBox="0 0 74.38 115.834">
  <defs>
    <clipPath id="clip-path">
      <rect id="Rectángulo_346374" data-name="Rectángulo 346374" width="20.964" height="47.733" fill="none" stroke="#12263f" stroke-width="1"/>
    </clipPath>
  </defs>
  <g id="Grupo_1027018" data-name="Grupo 1027018" transform="matrix(0.995, 0.105, -0.105, 0.995, -1211.411, -272.187)">
    <g id="Grupo_1002339" data-name="Grupo 1002339" transform="translate(-54 0.361)">
      <g id="Grupo_1002317" data-name="Grupo 1002317" transform="translate(1317.205 257.029) rotate(-155)">
        <g id="Grupo_1002212" data-name="Grupo 1002212" transform="translate(0 0)" clip-path="url(#clip-path)">
          <path id="Trazado_707910" data-name="Trazado 707910" d="M4.544,0c-5.736,11.473-5.1,28.848-3.186,41.595" transform="translate(11.037 1.558)" fill="none" stroke="#12263f" stroke-linecap="round" stroke-linejoin="round" stroke-width="3"/>
          <path id="Trazado_707911" data-name="Trazado 707911" d="M0,1.275C3.824,5.1,8.287,7.649,12.11,10.835A35.426,35.426,0,0,1,17.847,0" transform="translate(1.558 35.339)" fill="none" stroke="#12263f" stroke-linecap="round" stroke-linejoin="round" stroke-width="3"/>
        </g>
      </g>
    </g>
    <g id="Beaker" transform="matrix(0.966, -0.259, 0.259, 0.966, 1244.338, 147.332)">
      <path id="Trazado_735637" data-name="Trazado 735637" d="M45,59H19a6,6,0,0,1-6-6V10.5H51V53a6,6,0,0,1-6,6Z" fill="#f6f4e6"/>
      <path id="Trazado_735638" data-name="Trazado 735638" d="M51,10.5V53a6,6,0,0,1-6,6H42a6,6,0,0,0,6-6V10.5Z" fill="#d2d2d2"/>
      <path id="Trazado_735639" data-name="Trazado 735639" d="M51.5,10.25h-39a2.5,2.5,0,1,1,0-5h39a2.5,2.5,0,0,1,0,5Z" fill="#98acf8"/>
      <path id="Trazado_735640" data-name="Trazado 735640" d="M51,19.75v33a6,6,0,0,1-6,6H19a6,6,0,0,1-6-6v-33Z" fill="#4db1f0"/>
      <path id="Trazado_735641" data-name="Trazado 735641" d="M51,19.75v33a6,6,0,0,1-6,6H19a5.985,5.985,0,0,1-4.673-2.241A5.991,5.991,0,0,0,16,56.75H42a6,6,0,0,0,6-6v-31Z" fill="#115089"/>
      <path id="Trazado_735642" data-name="Trazado 735642" d="M54,7.75a2.5,2.5,0,0,1-2.5,2.5h-39a2.492,2.492,0,0,1-2.357-1.7H50.35a1.65,1.65,0,1,0,0-3.3H51.5A2.5,2.5,0,0,1,54,7.75Z" fill="#778cbc"/>
      <path id="Trazado_735643" data-name="Trazado 735643" d="M33,31.25a3.5,3.5,0,1,1-3.5-3.5A3.5,3.5,0,0,1,33,31.25Z" fill="#f6f4e6"/>
      <path id="Trazado_735644" data-name="Trazado 735644" d="M33,31.25a3.49,3.49,0,0,1-6.6,1.6,3.461,3.461,0,0,0,1.6.4,3.5,3.5,0,0,0,3.5-3.5,3.461,3.461,0,0,0-.4-1.6,3.487,3.487,0,0,1,1.9,3.1Z" fill="#d2d2d2"/>
      <path id="Trazado_735645" data-name="Trazado 735645" d="M39,38.75a2.5,2.5,0,1,1-2.5-2.5A2.5,2.5,0,0,1,39,38.75Z" fill="#f6f4e6"/>
      <path id="Trazado_735646" data-name="Trazado 735646" d="M39,38.75a2.5,2.5,0,0,1-4.758,1.058,2.487,2.487,0,0,0,3.315-3.315A2.494,2.494,0,0,1,39,38.75Z" fill="#d2d2d2"/>
      <path id="Trazado_735647" data-name="Trazado 735647" d="M14.985,35.188V25.608a1,1,0,0,1,2,0v9.579a1,1,0,0,1-2,0Z" fill="#fff"/>
      <path id="Trazado_735648" data-name="Trazado 735648" d="M16.707,23.6a1,1,0,1,1,0-1.414A1,1,0,0,1,16.707,23.6Z" fill="#fff"/>
      <path id="Trazado_735649" data-name="Trazado 735649" d="M33,46.75a2,2,0,1,1-2-2A2,2,0,0,1,33,46.75Z" fill="#f6f4e6"/>
      <path id="Trazado_735650" data-name="Trazado 735650" d="M33,46.75a1.994,1.994,0,0,1-3.743.963,1.984,1.984,0,0,0,2.236-2.894A2,2,0,0,1,33,46.75Z" fill="#d2d2d2"/>
      <g id="Grupo_1033854" data-name="Grupo 1033854">
        <path id="Trazado_735651" data-name="Trazado 735651" d="M29.5,35.75a4.5,4.5,0,1,1,4.5-4.5A4.5,4.5,0,0,1,29.5,35.75Zm0-7a2.5,2.5,0,1,0,2.5,2.5,2.5,2.5,0,0,0-2.5-2.5Z" fill="#214252"/>
        <path id="Trazado_735652" data-name="Trazado 735652" d="M36.5,42.25a3.5,3.5,0,1,1,3.5-3.5,3.5,3.5,0,0,1-3.5,3.5Zm0-5a1.5,1.5,0,1,0,1.5,1.5A1.5,1.5,0,0,0,36.5,37.25Z" fill="#214252"/>
        <path id="Trazado_735653" data-name="Trazado 735653" d="M55,7.75a3.5,3.5,0,0,0-3.5-3.5h-39A3.492,3.492,0,0,0,12,11.2V52.75a7.008,7.008,0,0,0,7,7H45a7.008,7.008,0,0,0,7-7V11.2A3.5,3.5,0,0,0,55,7.75Zm-5,11H14v-7.5H50Zm-5,39H19a5.006,5.006,0,0,1-5-5v-32H50v32a5.006,5.006,0,0,1-5,5Zm6.5-48.5h-39a1.5,1.5,0,0,1,0-3h39a1.5,1.5,0,1,1,0,3Z" fill="#214252"/>
        <path id="Trazado_735654" data-name="Trazado 735654" d="M31,49.75a3,3,0,1,1,3-3,3,3,0,0,1-3,3Zm0-4a1,1,0,1,0,1,1A1,1,0,0,0,31,45.75Z" fill="#214252"/>
      </g>
    </g>
  </g>
</svg>
