<svg xmlns="http://www.w3.org/2000/svg" xmlns:xlink="http://www.w3.org/1999/xlink" width="190" height="190" viewBox="0 0 190 190">
  <defs>
    <clipPath id="clip-path">
      <path id="Trazado_728195" data-name="Trazado 728195" d="M94,0c51.915,0,94,42.533,94,95s-42.085,95-94,95S0,147.467,0,95A95.343,95.343,0,0,1,27.9,27.454,93.071,93.071,0,0,1,94,0Z" fill="#fff"/>
    </clipPath>
  </defs>
  <g id="Grupo_1036334" data-name="Grupo 1036334" transform="translate(-305 -2390)">
    <g id="Grupo_1004758" data-name="Grupo 1004758" transform="translate(305.438 2390)">
      <circle id="Elipse_8399" data-name="Elipse 8399" cx="95" cy="95" r="95" transform="translate(-0.438)" fill="#fff"/>
    </g>
    <g id="Grupo_1030214" data-name="Grupo 1030214" transform="translate(364.438 2388)">
      <g id="Enmascarar_grupo_1026451" data-name="Enmascarar grupo 1026451" transform="translate(-59.438 2)" clip-path="url(#clip-path)">
        <g id="muestreo" transform="translate(14.86 15.058)">
          <g id="Grupo_1030215" data-name="Grupo 1030215" transform="translate(2.315 2.342)">
            <path id="Trazado_728149" data-name="Trazado 728149" d="M17.877,143.628l-15,15.158v17.646a3.639,3.639,0,0,0,3.62,3.658h17.46l15-15.158a4.236,4.236,0,0,0,0-5.947l-15.2-15.358A4.13,4.13,0,0,0,17.877,143.628Z" transform="translate(-2.796 -24.893)" fill="#8ebac5"/>
            <path id="Trazado_728150" data-name="Trazado 728150" d="M41.461,164.933l-15,15.159H17.879l15-15.159a4.233,4.233,0,0,0,0-5.946L19.032,144.993l1.348-1.365a4.135,4.135,0,0,1,5.886,0l15.195,15.359A4.233,4.233,0,0,1,41.461,164.933Z" transform="translate(-5.3 -24.894)" fill="#7ca1b1"/>
            <path id="Trazado_728153" data-name="Trazado 728153" d="M70.676,16.837H60.645a1.857,1.857,0,0,1-1.566-2.826l5.015-8.277a1.826,1.826,0,0,1,3.133,0l5.015,8.277A1.857,1.857,0,0,1,70.676,16.837Z" transform="translate(-12.133 -3.148)" fill="#6ed5a1"/>
            <path id="Trazado_728154" data-name="Trazado 728154" d="M125.624,16.519h-7.841a2.866,2.866,0,0,1-2.851-2.882V5.712a2.866,2.866,0,0,1,2.851-2.882h7.841a2.866,2.866,0,0,1,2.851,2.882v7.925A2.867,2.867,0,0,1,125.624,16.519Z" transform="translate(-21.503 -2.83)" fill="#ffa031"/>
            <path id="Trazado_728155" data-name="Trazado 728155" d="M129.262,5.713v7.923a2.867,2.867,0,0,1-2.853,2.881h-6.77a2.866,2.866,0,0,0,2.85-2.881V5.713a2.867,2.867,0,0,0-2.85-2.884h6.77A2.868,2.868,0,0,1,129.262,5.713Z" transform="translate(-22.289 -2.829)" fill="#f74455"/>
            <path id="Trazado_728157" data-name="Trazado 728157" d="M3.052,70.038l5.015-8.277a1.826,1.826,0,0,1,3.133,0l5.015,8.277a1.857,1.857,0,0,1-1.566,2.826H4.619A1.857,1.857,0,0,1,3.052,70.038Z" transform="translate(-2.779 -12.006)" fill="#6ed5a1"/>
            <path id="Trazado_728158" data-name="Trazado 728158" d="M2.879,125.69v-7.925a2.866,2.866,0,0,1,2.851-2.882h7.841a2.866,2.866,0,0,1,2.851,2.882v7.925a2.866,2.866,0,0,1-2.851,2.882H5.73a2.866,2.866,0,0,1-2.851-2.882Z" transform="translate(-2.796 -20.544)" fill="#ffa031"/>
            <path id="Trazado_728159" data-name="Trazado 728159" d="M17.208,117.764v7.926a2.866,2.866,0,0,1-2.85,2.881H7.585a2.866,2.866,0,0,0,2.85-2.881v-7.926a2.866,2.866,0,0,0-2.85-2.881h6.773A2.866,2.866,0,0,1,17.208,117.764Z" transform="translate(-3.581 -20.544)" fill="#f74455"/>
            <path id="Trazado_728160" data-name="Trazado 728160" d="M59.079,182.092l5.015-8.277a1.826,1.826,0,0,1,3.133,0l5.015,8.277a1.857,1.857,0,0,1-1.566,2.826H60.645A1.857,1.857,0,0,1,59.079,182.092Z" transform="translate(-12.133 -29.72)" fill="#6ed5a1"/>
            <path id="Trazado_728161" data-name="Trazado 728161" d="M114.932,181.717v-7.925a2.866,2.866,0,0,1,2.851-2.882h7.841a2.866,2.866,0,0,1,2.851,2.882v7.925a2.866,2.866,0,0,1-2.851,2.882h-7.841A2.866,2.866,0,0,1,114.932,181.717Z" transform="translate(-21.503 -29.401)" fill="#ffa031"/>
            <path id="Trazado_728162" data-name="Trazado 728162" d="M129.262,173.793v7.923a2.868,2.868,0,0,1-2.853,2.884h-6.77a2.867,2.867,0,0,0,2.85-2.884v-7.923a2.866,2.866,0,0,0-2.85-2.881h6.77A2.867,2.867,0,0,1,129.262,173.793Z" transform="translate(-22.289 -29.401)" fill="#f74455"/>
            <path id="Trazado_728163" data-name="Trazado 728163" d="M170.959,69.664V61.739a2.866,2.866,0,0,1,2.851-2.882h7.841a2.866,2.866,0,0,1,2.851,2.882v7.925a2.866,2.866,0,0,1-2.851,2.882H173.81A2.866,2.866,0,0,1,170.959,69.664Z" transform="translate(-30.857 -11.687)" fill="#ffa031"/>
            <path id="Trazado_728164" data-name="Trazado 728164" d="M185.288,61.739v7.926a2.866,2.866,0,0,1-2.85,2.881h-6.773a2.867,2.867,0,0,0,2.853-2.881V61.739a2.867,2.867,0,0,0-2.853-2.881h6.773A2.866,2.866,0,0,1,185.288,61.739Z" transform="translate(-31.642 -11.687)" fill="#f74455"/>
            <path id="Trazado_728165" data-name="Trazado 728165" d="M170.959,125.69v-7.925a2.866,2.866,0,0,1,2.851-2.882h7.841a2.866,2.866,0,0,1,2.851,2.882v7.925a2.866,2.866,0,0,1-2.851,2.882H173.81A2.866,2.866,0,0,1,170.959,125.69Z" transform="translate(-30.857 -20.544)" fill="#ffa031"/>
            <path id="Trazado_728166" data-name="Trazado 728166" d="M185.288,117.764v7.926a2.866,2.866,0,0,1-2.85,2.881h-6.773a2.867,2.867,0,0,0,2.853-2.881v-7.926a2.867,2.867,0,0,0-2.853-2.881h6.773A2.866,2.866,0,0,1,185.288,117.764Z" transform="translate(-31.642 -20.544)" fill="#f74455"/>
            <path id="Trazado_728169" data-name="Trazado 728169" d="M0,0,17.874.095l.112,21.2L.112,21.2Z" transform="translate(37.189 104.962) rotate(45)" fill="#eaf6ff"/>
            <path id="Trazado_728170" data-name="Trazado 728170" d="M58.653,141.789,43.74,156.861l-4.3-4.349,14.879-15.106Z" transform="translate(-8.899 -24.104)" fill="#c8effe"/>
            <ellipse id="Elipse_8414" data-name="Elipse 8414" cx="52.651" cy="53.211" rx="52.651" ry="53.211" transform="translate(24.213 24.388)" fill="#8ebac5"/>
            <path id="Trazado_728171" data-name="Trazado 728171" d="M131.4,122.635a52.2,52.2,0,0,1-41.626,15.4,52.209,52.209,0,0,0,32.813-15.4,53.614,53.614,0,0,0,0-75.253,52.209,52.209,0,0,0-32.813-15.4,52.2,52.2,0,0,1,41.626,15.4,53.613,53.613,0,0,1,0,75.253Z" transform="translate(-17.302 -7.409)" fill="#7ca1b1"/>
            <path id="Trazado_728172" data-name="Trazado 728172" d="M121.989,112.363a44.41,44.41,0,0,1-12.978,12.2,43.5,43.5,0,0,1-53.745-6.555,44.25,44.25,0,0,1-8.251-11.566,44.838,44.838,0,0,1-.439-38.6A44.308,44.308,0,0,1,65.919,47.424a43.5,43.5,0,0,1,51.34,7.93,44.25,44.25,0,0,1,8.251,11.566,44.757,44.757,0,0,1-3.521,45.444Z" transform="translate(-9.398 -9.082)" fill="#eaf6ff"/>
            <path id="Trazado_728173" data-name="Trazado 728173" d="M129.892,112.363a44.41,44.41,0,0,1-12.978,12.2,43.483,43.483,0,0,1-27.143,6.2,43.41,43.41,0,0,0,18.329-6.2,44.409,44.409,0,0,0,12.978-12.2A44.757,44.757,0,0,0,124.6,66.919a44.25,44.25,0,0,0-8.251-11.566A43.475,43.475,0,0,0,89.761,42.6a43.484,43.484,0,0,1,35.4,12.754,44.25,44.25,0,0,1,8.251,11.566A44.757,44.757,0,0,1,129.892,112.363Z" transform="translate(-17.301 -9.081)" fill="#c8effe"/>
            <path id="Trazado_728174" data-name="Trazado 728174" d="M80.106,55.326V74.459a6.921,6.921,0,0,1-6.882,6.958H54.292a6.921,6.921,0,0,1-6.885-6.958V68.788A44.308,44.308,0,0,1,66.751,48.371h6.474a6.918,6.918,0,0,1,6.882,6.955Z" transform="translate(-10.23 -10.029)" fill="#ffa031"/>
            <path id="Trazado_728175" data-name="Trazado 728175" d="M83.535,55.326V74.459a6.921,6.921,0,0,1-6.882,6.958H67.948a6.921,6.921,0,0,0,6.882-6.958V55.326a6.946,6.946,0,0,0-5.092-6.717c.148-.081.294-.159.442-.237h6.474a6.918,6.918,0,0,1,6.882,6.955Z" transform="translate(-13.659 -10.029)" fill="#f74455"/>
            <path id="Trazado_728176" data-name="Trazado 728176" d="M80.194,119.911a16.558,16.558,0,0,1-4.789,11.682,16.269,16.269,0,0,1-7.778,4.4,43.732,43.732,0,0,1-11.441-8.336,44.25,44.25,0,0,1-8.251-11.566,16.393,16.393,0,0,1,15.912-12.7,16.2,16.2,0,0,1,11.559,4.84,16.56,16.56,0,0,1,4.789,11.685Z" transform="translate(-10.318 -18.726)" fill="#99e6fc"/>
            <path id="Trazado_728177" data-name="Trazado 728177" d="M82.51,119.911a16.558,16.558,0,0,1-4.789,11.682,16.269,16.269,0,0,1-7.778,4.4q-1.911-.961-3.741-2.121a16.227,16.227,0,0,0,2.813-2.275,16.647,16.647,0,0,0,0-23.367,16.244,16.244,0,0,0-7.206-4.246,16.231,16.231,0,0,1,15.912,4.246A16.56,16.56,0,0,1,82.51,119.911Z" transform="translate(-12.634 -18.726)" fill="#4db1f0"/>
            <path id="Trazado_728178" data-name="Trazado 728178" d="M135.7,67.791a16.56,16.56,0,0,1-4.35,7.861q-.57.576-1.193,1.1a16.228,16.228,0,0,1-21.928-1.1,16.631,16.631,0,0,1,2.758-25.607,16.142,16.142,0,0,1,5.024-2.156,43.769,43.769,0,0,1,11.438,8.336A44.265,44.265,0,0,1,135.7,67.791Z" transform="translate(-19.584 -9.953)" fill="#4db1f0"/>
            <path id="Trazado_728179" data-name="Trazado 728179" d="M137.208,67.791a16.56,16.56,0,0,1-4.35,7.861q-.57.576-1.193,1.1a44.352,44.352,0,0,0-19.17-26.7,16.142,16.142,0,0,1,5.024-2.156,43.768,43.768,0,0,1,11.438,8.336,44.264,44.264,0,0,1,8.251,11.566Z" transform="translate(-21.096 -9.953)" fill="#62dbfb"/>
            <path id="Trazado_728180" data-name="Trazado 728180" d="M132.174,122.426a44.41,44.41,0,0,1-12.978,12.2H107.823a4.429,4.429,0,0,1-3.738-6.739l11.964-19.743a4.359,4.359,0,0,1,7.472,0l4.1,6.77Z" transform="translate(-19.583 -19.144)" fill="#6ed5a1"/>
            <path id="Trazado_728181" data-name="Trazado 728181" d="M133.567,124.094a44.41,44.41,0,0,1-12.978,12.2h-8.814a44.306,44.306,0,0,0,17.241-19.711Z" transform="translate(-20.976 -20.812)" fill="#46cc8d"/>
          </g>
          <g id="Grupo_1030216" data-name="Grupo 1030216" transform="translate(0)">
            <path id="Trazado_728182" data-name="Trazado 728182" d="M122.146,53.687a2.359,2.359,0,0,0-.684,3.241,51.293,51.293,0,0,1-6.676,63.609,49.958,49.958,0,0,1-71.181,0,51.252,51.252,0,0,1,0-71.938,49.958,49.958,0,0,1,71.181,0,2.3,2.3,0,0,0,3.279,0,2.361,2.361,0,0,0,0-3.314,54.561,54.561,0,0,0-77.739,0A56.042,56.042,0,0,0,33.2,115.012l-8.617,8.709a6.419,6.419,0,0,0-8.808.326L.775,139.2a2.361,2.361,0,0,0,0,3.314,2.3,2.3,0,0,0,3.279,0l15-15.158a1.828,1.828,0,0,1,2.6,0l15.2,15.358a1.876,1.876,0,0,1,0,2.633l-15,15.158a2.361,2.361,0,0,0,0,3.314,2.3,2.3,0,0,0,3.279,0l15-15.158a6.587,6.587,0,0,0,.3-8.923l8.612-8.7a54.566,54.566,0,0,0,69.018-7.188,56.018,56.018,0,0,0,7.288-69.473,2.3,2.3,0,0,0-3.207-.691ZM37.171,136.412l-9.3-9.394,8.068-8.154a57.258,57.258,0,0,0,9.293,9.4Z" transform="translate(-0.016 -4.627)" fill="#12263f"/>
            <path id="Trazado_728184" data-name="Trazado 728184" d="M60.181,18.741H70.212a4.153,4.153,0,0,0,3.625-2.147,4.242,4.242,0,0,0-.082-4.245L68.74,4.071a4.132,4.132,0,0,0-7.087,0l-5.016,8.277a4.242,4.242,0,0,0-.082,4.245,4.153,4.153,0,0,0,3.625,2.147ZM65.2,7.2l4.155,6.857h-8.31Z" transform="translate(-9.354 -0.366)" fill="#12263f"/>
            <path id="Trazado_728185" data-name="Trazado 728185" d="M117.319,18.422h7.841a5.2,5.2,0,0,0,5.17-5.225V5.272A5.2,5.2,0,0,0,125.16.048h-7.841a5.2,5.2,0,0,0-5.17,5.225V13.2A5.2,5.2,0,0,0,117.319,18.422Zm-.533-13.149a.536.536,0,0,1,.533-.538h7.841a.536.536,0,0,1,.533.538V13.2a.536.536,0,0,1-.533.538h-7.841a.536.536,0,0,1-.533-.538Z" transform="translate(-18.723 -0.048)" fill="#12263f"/>
            <path id="Trazado_728187" data-name="Trazado 728187" d="M4.155,74.767H14.185A4.153,4.153,0,0,0,17.81,72.62a4.242,4.242,0,0,0-.082-4.246L12.714,60.1a4.133,4.133,0,0,0-7.087,0L.611,68.375A4.243,4.243,0,0,0,.529,72.62a4.152,4.152,0,0,0,3.625,2.147ZM9.17,63.223l4.155,6.858H5.015Z" transform="translate(0 -9.224)" fill="#12263f"/>
            <path id="Trazado_728188" data-name="Trazado 728188" d="M13.106,112.1H5.265A5.2,5.2,0,0,0,.1,117.326v7.925a5.2,5.2,0,0,0,5.17,5.225h7.841a5.2,5.2,0,0,0,5.17-5.225v-7.925A5.2,5.2,0,0,0,13.106,112.1Zm.533,13.149a.536.536,0,0,1-.533.538H5.265a.536.536,0,0,1-.533-.538v-7.925a.536.536,0,0,1,.533-.538h7.841a.536.536,0,0,1,.533.538Z" transform="translate(-0.016 -17.762)" fill="#12263f"/>
            <path id="Trazado_728189" data-name="Trazado 728189" d="M68.74,172.151a4.132,4.132,0,0,0-7.087,0l-5.015,8.277a4.243,4.243,0,0,0-.082,4.246,4.152,4.152,0,0,0,3.625,2.147H70.212a4.152,4.152,0,0,0,3.625-2.147,4.243,4.243,0,0,0-.082-4.246Zm-7.7,9.983,4.155-6.857,4.155,6.857Z" transform="translate(-9.354 -26.938)" fill="#12263f"/>
            <path id="Trazado_728190" data-name="Trazado 728190" d="M125.16,168.128h-7.841a5.2,5.2,0,0,0-5.17,5.225v7.925a5.2,5.2,0,0,0,5.17,5.225h7.841a5.2,5.2,0,0,0,5.17-5.225v-7.925A5.2,5.2,0,0,0,125.16,168.128Zm.533,13.149a.536.536,0,0,1-.533.538h-7.841a.536.536,0,0,1-.533-.538v-7.925a.536.536,0,0,1,.533-.538h7.841a.536.536,0,0,1,.533.538Z" transform="translate(-18.723 -26.619)" fill="#12263f"/>
            <path id="Trazado_728191" data-name="Trazado 728191" d="M181.186,56.075h-7.841a5.2,5.2,0,0,0-5.17,5.225v7.925a5.2,5.2,0,0,0,5.17,5.225h7.841a5.2,5.2,0,0,0,5.17-5.225V61.3A5.2,5.2,0,0,0,181.186,56.075Zm.532,13.149a.536.536,0,0,1-.533.538h-7.841a.536.536,0,0,1-.533-.538V61.3a.536.536,0,0,1,.533-.538h7.841a.536.536,0,0,1,.533.538Z" transform="translate(-28.077 -8.905)" fill="#12263f"/>
            <path id="Trazado_728192" data-name="Trazado 728192" d="M181.186,112.1h-7.841a5.2,5.2,0,0,0-5.17,5.225v7.925a5.2,5.2,0,0,0,5.17,5.225h7.841a5.2,5.2,0,0,0,5.17-5.225v-7.925A5.2,5.2,0,0,0,181.186,112.1Zm.532,13.149a.536.536,0,0,1-.533.538h-7.841a.536.536,0,0,1-.533-.538v-7.925a.536.536,0,0,1,.533-.538h7.841a.536.536,0,0,1,.533.538Z" transform="translate(-28.077 -17.762)" fill="#12263f"/>
            <path id="Trazado_728194" data-name="Trazado 728194" d="M66.507,123.405q-1.376-.728-2.7-1.561a2.3,2.3,0,0,0-3.2.744,2.358,2.358,0,0,0,.736,3.229,46.507,46.507,0,0,0,57.085-72.56,45.812,45.812,0,0,0-65.273,0,47,47,0,0,0-.614,65.335,2.3,2.3,0,0,0,3.278.062,2.361,2.361,0,0,0,.061-3.313,42.022,42.022,0,0,1-6.865-9.594,14.057,14.057,0,1,1,17.485,17.658Zm48.648-7.494a42.038,42.038,0,0,1-7.249,5.869H97.173a2.021,2.021,0,0,1-1.8-1.065,2.062,2.062,0,0,1,.041-2.107l11.962-19.741a2.051,2.051,0,0,1,3.517,0L118.73,111.8A42.538,42.538,0,0,1,115.155,115.911Zm7.42-49.179A14.057,14.057,0,1,1,105.1,49.072a42.146,42.146,0,0,1,17.474,17.659ZM81.129,109.826A18.789,18.789,0,0,0,62.461,90.959a18.555,18.555,0,0,0-15.922,8.992,42.788,42.788,0,0,1-1.431-22.1A9.186,9.186,0,0,0,53,82.372h3.559a2.343,2.343,0,0,0,0-4.687H53a4.6,4.6,0,0,1-4.565-4.614V67.915a42.114,42.114,0,0,1,17.595-18.59h5.9a4.6,4.6,0,0,1,4.565,4.614V73.071a4.6,4.6,0,0,1-4.565,4.614h-4.5a2.343,2.343,0,0,0,0,4.687h4.5a9.262,9.262,0,0,0,9.2-9.3V53.939A9.317,9.317,0,0,0,75.793,45.5a41.507,41.507,0,0,1,23.571,1.063,18.915,18.915,0,0,0,9.771,34.958,18.553,18.553,0,0,0,15.923-8.992,42.555,42.555,0,0,1-3.47,35.01l-6.739-11.121a6.662,6.662,0,0,0-11.426,0L91.46,116.161c-2.814,4.365.8,10.75,6.212,10.306a41.9,41.9,0,0,1-25.42-.562,18.839,18.839,0,0,0,8.877-16.079Z" transform="translate(-6.618 -6.3)" fill="#12263f"/>
          </g>
        </g>
      </g>
    </g>
  </g>
</svg>
