<svg xmlns="http://www.w3.org/2000/svg" xmlns:xlink="http://www.w3.org/1999/xlink" width="179.5" height="176" viewBox="0 0 179.5 176">
  <defs>
    <clipPath id="clip-path">
      <circle id="Elipse_8399" data-name="Elipse 8399" cx="88" cy="88" r="88" transform="translate(-0.438)" fill="#fff"/>
    </clipPath>
  </defs>
  <g id="Grupo_1036340" data-name="Grupo 1036340" transform="translate(-344 -1152.634)">
    <g id="Grupo_1029828" data-name="Grupo 1029828" transform="translate(344.438 1152.634)">
      <circle id="Elipse_8399-2" data-name="Elipse 8399" cx="88" cy="88" r="88" transform="translate(-0.438)" fill="#fff"/>
    </g>
    <g id="Grupo_1033428" data-name="Grupo 1033428" transform="translate(347.938 1152.634)">
      <g id="Enmascarar_grupo_1030774" data-name="Enmascarar grupo 1030774" clip-path="url(#clip-path)">
        <g id="cubilete" transform="translate(20.743 35.018)">
          <path id="Trazado_733955" data-name="Trazado 733955" d="M96.171,120.6H46.078a17.4,17.4,0,0,1-17.4-17.4V29.9a8.27,8.27,0,0,0-4.353-7.283L15.512,17.88l12.1-6.858a4.645,4.645,0,0,1,2.29-.6h83.672V103.2a17.4,17.4,0,0,1-17.4,17.4Z" transform="translate(-3.789 -3.376)" fill="#d3effb"/>
          <path id="Trazado_733956" data-name="Trazado 733956" d="M108.111,10.418H29.9a4.642,4.642,0,0,0-2.29.6l-12.1,6.858,6.263,3.367,6.355-3.6a4.645,4.645,0,0,1,2.29-.6H98.467a9.644,9.644,0,0,1,9.644,9.644V103.2a17.4,17.4,0,0,1-17.4,17.4h5.462a17.4,17.4,0,0,0,17.4-17.4V10.418Z" transform="translate(-3.789 -3.376)" fill="#bed8fb"/>
          <path id="Trazado_733957" data-name="Trazado 733957" d="M115.651,68.961a4.72,4.72,0,0,0-3.888-4.639c-4.967-.9-6.23-3.4-13.269-3.4-8.579,0-8.579,3.718-17.158,3.718S72.757,60.92,64.178,60.92c-7.04,0-8.3,2.5-13.27,3.4a4.719,4.719,0,0,0-3.888,4.639v50.6a9.27,9.27,0,0,0,9.27,9.27h50.093a9.269,9.269,0,0,0,9.27-9.269v-50.6Z" transform="translate(-14 -19.742)" fill="#4db1f0"/>
          <g id="Grupo_1033431" data-name="Grupo 1033431" transform="translate(77.585 41.178)">
            <path id="Trazado_733958" data-name="Trazado 733958" d="M133.129,64.321c-4.967-.9-6.23-3.4-13.269-3.4a18.2,18.2,0,0,0-6.91,1.166c.11,0,.215,0,.327,0,7.04,0,8.3,2.5,13.269,3.4a4.719,4.719,0,0,1,3.888,4.639v50.6a9.266,9.266,0,0,1-4.776,8.108h2.089a9.269,9.269,0,0,0,9.27-9.27v-50.6A4.72,4.72,0,0,0,133.129,64.321Z" transform="translate(-112.95 -60.92)" fill="#115089"/>
          </g>
          <g id="Grupo_1033432" data-name="Grupo 1033432" transform="translate(5.564 1.743)">
            <path id="Trazado_733959" data-name="Trazado 733959" d="M10.356,18.94a3.973,3.973,0,0,1-3.421-1.947,4.063,4.063,0,0,1,1.554-5.54L21.114,4.3a10.254,10.254,0,0,1,5.3-1.719h86.218a4.059,4.059,0,0,1,4.078,4.05,3.974,3.974,0,0,1-3.974,3.9H27.466a4.642,4.642,0,0,0-2.29.6L12.312,18.423A3.958,3.958,0,0,1,10.356,18.94Z" transform="translate(-6.4 -2.578)" fill="#9dc6fb"/>
          </g>
          <g id="Grupo_1033433" data-name="Grupo 1033433" transform="translate(106.507 1.743)">
            <path id="Trazado_733960" data-name="Trazado 733960" d="M161.135,2.578h-5.4a3.974,3.974,0,1,1,0,7.949h5.4a3.974,3.974,0,1,0,0-7.949Z" transform="translate(-155.738 -2.578)" fill="#80b4fb"/>
          </g>
          <g id="Grupo_1033434" data-name="Grupo 1033434" transform="translate(3.82 0)">
            <path id="Trazado_733961" data-name="Trazado 733961" d="M127.238,28.362A1.742,1.742,0,0,0,128.98,30.1h4.095a1.743,1.743,0,1,0,0-3.485H128.98A1.743,1.743,0,0,0,127.238,28.362Z" transform="translate(-43.815 -8.626)"/>
            <path id="Trazado_733962" data-name="Trazado 733962" d="M127.238,50.784a1.742,1.742,0,0,0,1.743,1.743h4.095a1.743,1.743,0,1,0,0-3.485H128.98A1.743,1.743,0,0,0,127.238,50.784Z" transform="translate(-43.815 -15.893)"/>
            <path id="Trazado_733963" data-name="Trazado 733963" d="M128.98,74.949h4.095a1.743,1.743,0,1,0,0-3.485H128.98a1.743,1.743,0,1,0,0,3.485Z" transform="translate(-43.815 -23.159)"/>
            <path id="Trazado_733964" data-name="Trazado 733964" d="M128.98,97.37h4.095a1.743,1.743,0,1,0,0-3.485H128.98a1.743,1.743,0,1,0,0,3.485Z" transform="translate(-43.815 -30.425)"/>
            <path id="Trazado_733965" data-name="Trazado 733965" d="M128.98,119.792h4.095a1.743,1.743,0,1,0,0-3.485H128.98a1.743,1.743,0,1,0,0,3.485Z" transform="translate(-43.815 -37.691)"/>
            <path id="Trazado_733966" data-name="Trazado 733966" d="M128.98,142.214h4.095a1.743,1.743,0,1,0,0-3.485H128.98a1.743,1.743,0,1,0,0,3.485Z" transform="translate(-43.815 -44.957)"/>
            <path id="Trazado_733967" data-name="Trazado 733967" d="M65.545,128a1.743,1.743,0,0,0,1.743,1.743h38.259a11.025,11.025,0,0,0,11.012-11.012v-50.6a6.459,6.459,0,0,0-5.32-6.354,18.239,18.239,0,0,1-4.308-1.427,22.466,22.466,0,0,0-18.543,0A17.012,17.012,0,0,1,80.5,62.059a17.014,17.014,0,0,1-7.886-1.715,20.442,20.442,0,0,0-9.272-2,20.439,20.439,0,0,0-9.272,2,18.255,18.255,0,0,1-4.309,1.427,6.459,6.459,0,0,0-5.321,6.354v50.6a11.025,11.025,0,0,0,11.012,11.012h4.867a1.743,1.743,0,0,0,0-3.485H55.454a7.536,7.536,0,0,1-7.527-7.527v-50.6A2.976,2.976,0,0,1,50.383,65.2a21.373,21.373,0,0,0,5.074-1.659,17.014,17.014,0,0,1,7.886-1.715,17.013,17.013,0,0,1,7.886,1.715,20.443,20.443,0,0,0,9.272,2,20.441,20.441,0,0,0,9.272-2,18.985,18.985,0,0,1,15.771,0,21.386,21.386,0,0,0,5.073,1.659,2.976,2.976,0,0,1,2.455,2.925v50.6a7.535,7.535,0,0,1-7.527,7.527H67.288A1.743,1.743,0,0,0,65.545,128Z" transform="translate(-16.984 -18.906)" fill="#12263f"/>
            <path id="Trazado_733968" data-name="Trazado 733968" d="M111.8,0H41.03a1.743,1.743,0,1,0,0,3.485H111.8a2.318,2.318,0,0,1,2.335,2.275A2.242,2.242,0,0,1,111.9,7.949H26.63a6.4,6.4,0,0,0-3.149.83L10.616,16.071a2.233,2.233,0,0,1-3.019-.8,2.323,2.323,0,0,1,.914-3.135L21.137,4.977a8.587,8.587,0,0,1,4.445-1.492h8.48a1.743,1.743,0,1,0,0-3.485h-8.48a12.021,12.021,0,0,0-6.164,1.945L6.792,9.1A5.805,5.805,0,0,0,4.6,17.046,5.724,5.724,0,0,0,12.335,19.1l2.075-1.176,5.3,2.85a6.518,6.518,0,0,1,3.436,5.748V99.82a19.166,19.166,0,0,0,19.145,19.145H92.382A19.166,19.166,0,0,0,111.527,99.82V42.467a1.743,1.743,0,1,0-3.485,0V99.82A15.677,15.677,0,0,1,92.382,115.48H42.289A15.677,15.677,0,0,1,26.63,99.82v-73.3a10,10,0,0,0-5.27-8.818L17.992,15.9,25.2,11.811a2.907,2.907,0,0,1,1.431-.377h81.411V35.5a1.743,1.743,0,1,0,3.485,0V11.434h.377a5.745,5.745,0,0,0,5.716-5.609A5.8,5.8,0,0,0,111.8,0Z" transform="translate(-3.82 0)" fill="#12263f"/>
          </g>
        </g>
      </g>
    </g>
    <path id="Trazado_733969" data-name="Trazado 733969" d="M103.676,164.443c0,.037,0-.444,0-.907a2.924,2.924,0,0,0-.991-2.172,3.348,3.348,0,0,0-2.362-.837,73.343,73.343,0,0,1-9.123-.3c-7.5-.687-10.938-1.885-14.3-3.342a68.669,68.669,0,0,0-14.244-5.011,57.646,57.646,0,0,0-23.081-1.324,3.09,3.09,0,0,0-2.777,2.989v10.9a12.132,12.132,0,0,0,3.919,8.856,13.853,13.853,0,0,0,9.46,3.668H90.3a13.855,13.855,0,0,0,9.46-3.668,12.133,12.133,0,0,0,3.918-8.856Z" transform="translate(365.562 1120.542)" fill="#42a147" fill-rule="evenodd"/>
    <path id="Trazado_733970" data-name="Trazado 733970" d="M107.587,165.517c0,.04,0-.477,0-.974a3.16,3.16,0,0,0-1.048-2.333,3.513,3.513,0,0,0-2.5-.9,76.515,76.515,0,0,1-9.657-.323c-7.939-.738-11.578-2.025-15.134-3.589a72,72,0,0,0-15.077-5.383c-9.7-2.33-16.159-2.526-24.431-1.422A3.3,3.3,0,0,0,36.8,153.8h0c0,6.831,0,11.713,0,11.713a13.12,13.12,0,0,0,4.148,9.512,14.546,14.546,0,0,0,10.013,3.94H93.426a14.548,14.548,0,0,0,10.013-3.94,13.121,13.121,0,0,0,4.147-9.512Zm-1.763-.971s0,1.012,0,.971a11.49,11.49,0,0,1-3.632,8.33,12.738,12.738,0,0,1-8.768,3.45H50.96a12.738,12.738,0,0,1-8.768-3.45,11.49,11.49,0,0,1-3.632-8.33s0-4.883,0-11.713h0a1.6,1.6,0,0,1,1.422-1.554h0c8.043-1.073,14.325-.878,23.755,1.387a70.445,70.445,0,0,1,14.769,5.279c3.69,1.624,7.463,2.97,15.7,3.736a78.418,78.418,0,0,0,9.895.33h.006a1.7,1.7,0,0,1,1.209.435,1.529,1.529,0,0,1,.507,1.13Z" transform="translate(363.977 1119.279)" fill="#12263f" stroke="#12263f" stroke-width="1" fill-rule="evenodd"/>
  </g>
</svg>
