<svg xmlns="http://www.w3.org/2000/svg" xmlns:xlink="http://www.w3.org/1999/xlink" width="88" height="88" viewBox="0 0 88 88">
  <defs>
    <clipPath id="clip-path">
      <path id="Trazado_733636" data-name="Trazado 733636" d="M44,0A44,44,0,1,1,0,44,44,44,0,0,1,44,0Z" transform="translate(221 4068)" fill="#d2e1f1"/>
    </clipPath>
  </defs>
  <g id="Grupo_1036338" data-name="Grupo 1036338" transform="translate(-221 -4841)">
    <g id="Grupo_1036278" data-name="Grupo 1036278" transform="translate(0 -261)">
      <g id="Grupo_1029791" data-name="Grupo 1029791" transform="translate(0 4690)">
        <g id="Grupo_1013412" data-name="Grupo 1013412" transform="translate(-3 3)">
          <path id="Trazado_710239" data-name="Trazado 710239" d="M44,0A44,44,0,1,1,0,44,44,44,0,0,1,44,0Z" transform="translate(224 409)" fill="#d2e1f1"/>
        </g>
      </g>
      <g id="Enmascarar_grupo_1026474" data-name="Enmascarar grupo 1026474" transform="translate(0 1034)" clip-path="url(#clip-path)">
        <g id="Layer_32" data-name="Layer 32" transform="translate(219.581 4066.581)">
          <circle id="Elipse_8455" data-name="Elipse 8455" cx="17.032" cy="17.032" r="17.032" transform="translate(28.387 25.548)" fill="#e2e7f6"/>
          <path id="Trazado_733637" data-name="Trazado 733637" d="M59.613,41.161a17,17,0,0,0-8.05-14.452A17.015,17.015,0,0,0,36.439,57.034,17,17,0,0,0,59.613,41.161Z" fill="#f2f2f2"/>
          <path id="Trazado_733638" data-name="Trazado 733638" d="M15.878,41.427A29.806,29.806,0,0,1,45.419,15.613v4.258l8.516-8.516L45.419,2.839V7.1A38.324,38.324,0,0,0,7.36,40.9v0L11.355,36.9Z" fill="#065958"/>
          <path id="Trazado_733639" data-name="Trazado 733639" d="M41.427,74.96,36.9,79.484,40.9,83.478h0A38.323,38.323,0,0,1,7.1,45.419H2.839L11.355,36.9l8.516,8.516H15.613A29.807,29.807,0,0,0,41.43,74.961Z" fill="#065958"/>
          <path id="Trazado_733640" data-name="Trazado 733640" d="M83.478,49.941l-3.994,3.994L74.96,49.412h0A29.806,29.806,0,0,1,45.419,75.226V70.968L36.9,79.484,45.419,88V83.742a38.324,38.324,0,0,0,38.059-33.8Z" fill="#a6d6d6"/>
          <path id="Trazado_733641" data-name="Trazado 733641" d="M49.941,7.361l3.994,3.994-4.523,4.523h0A29.806,29.806,0,0,1,75.226,45.419H70.968l8.516,8.516L88,45.419H83.742A38.324,38.324,0,0,0,49.938,7.36Z" fill="#d9eeee"/>
          <path id="Trazado_733642" data-name="Trazado 733642" d="M41.427,74.96l3.993-3.993v4.258A29.743,29.743,0,0,0,68.109,64.75h0a7.061,7.061,0,0,0-8.417-6.421,7.135,7.135,0,0,0-3.459-2.589l.02-.016A17.032,17.032,0,0,1,34.6,55.74h0a7.135,7.135,0,0,0-3.458,2.6,7.061,7.061,0,0,0-8.417,6.421h0a29.755,29.755,0,0,0,18.7,10.211Z" fill="#99601d"/>
          <path id="Trazado_733643" data-name="Trazado 733643" d="M34.065,36.9h0A11.355,11.355,0,0,1,45.419,48.258v5.677h0A11.355,11.355,0,0,1,34.065,42.581Z" fill="#065958"/>
          <path id="Trazado_733644" data-name="Trazado 733644" d="M56.774,36.9h0v5.677A11.355,11.355,0,0,1,45.419,53.936h0V48.258A11.355,11.355,0,0,1,56.774,36.9Z" transform="translate(102.194 90.839) rotate(180)" fill="#a6d6d6"/>
          <path id="Trazado_733645" data-name="Trazado 733645" d="M89.312,44.876A1.419,1.419,0,0,0,88,44H85.136A39.719,39.719,0,0,0,50.609,6.021L46.423,1.835a1.419,1.419,0,0,0-2.423,1V5.7A39.719,39.719,0,0,0,6.021,40.23L1.835,44.416a1.419,1.419,0,0,0,1,2.423H5.7A39.719,39.719,0,0,0,40.23,84.818L44.416,89a1.419,1.419,0,0,0,1,.416,1.4,1.4,0,0,0,.544-.108A1.419,1.419,0,0,0,46.839,88V85.136A39.721,39.721,0,0,0,84.818,50.609L89,46.423a1.419,1.419,0,0,0,.308-1.547Zm-6.989.544a1.419,1.419,0,0,0,1.419,1.419h.832l-5.09,5.09-5.09-5.09h.832a1.419,1.419,0,0,0,1.419-1.419A31.327,31.327,0,0,0,52.33,14.967l2.609-2.609a1.419,1.419,0,0,0,0-2.007l-.789-.789A36.892,36.892,0,0,1,82.323,45.419ZM45.963,69.656a1.419,1.419,0,0,0-1.547.308l-3.47,3.469a28.245,28.245,0,0,1-16.7-9.158,5.612,5.612,0,0,1,6.634-4.553,1.436,1.436,0,0,0,1.419-.568,5.706,5.706,0,0,1,2.122-1.794,18.31,18.31,0,0,0,22,0,5.706,5.706,0,0,1,2.129,1.794,1.434,1.434,0,0,0,1.419.568,5.614,5.614,0,0,1,6.635,4.558,28.431,28.431,0,0,1-19.767,9.491v-2.8a1.419,1.419,0,0,0-.876-1.311Zm-.544-11.463A15.613,15.613,0,1,1,61.032,42.581,15.613,15.613,0,0,1,45.419,58.194ZM68.7,61.6a8.459,8.459,0,0,0-8.408-4.793,8.56,8.56,0,0,0-1.618-1.419,18.452,18.452,0,1,0-26.511,0,8.56,8.56,0,0,0-1.618,1.419,8.452,8.452,0,0,0-8.4,4.78,28.283,28.283,0,0,1-5.071-14.749h2.8a1.419,1.419,0,0,0,1-2.423l-3.469-3.47A28.454,28.454,0,0,1,44,17.068v2.8a1.419,1.419,0,0,0,2.423,1l3.47-3.469A28.454,28.454,0,0,1,73.771,44h-2.8a1.419,1.419,0,0,0-1,2.423l3.469,3.47A28.051,28.051,0,0,1,68.7,61.6ZM45.419,8.516A1.419,1.419,0,0,0,46.839,7.1V6.265l5.09,5.09-5.09,5.09v-.832a1.419,1.419,0,0,0-1.419-1.419A31.327,31.327,0,0,0,14.967,38.509L12.358,35.9a1.419,1.419,0,0,0-2.007,0l-.789.789A36.892,36.892,0,0,1,45.419,8.516Zm-36.9,36.9A1.419,1.419,0,0,0,7.1,44H6.265l5.09-5.09L16.445,44h-.832a1.419,1.419,0,0,0-1.419,1.419A31.327,31.327,0,0,0,38.509,75.872L35.9,78.48a1.419,1.419,0,0,0,0,2.007l.789.789A36.892,36.892,0,0,1,8.516,45.419Zm36.9,36.9A1.419,1.419,0,0,0,44,83.742v.832l-5.09-5.09L44,74.394v.832a1.419,1.419,0,0,0,1.419,1.419A31.327,31.327,0,0,0,75.872,52.33l2.609,2.609a1.419,1.419,0,0,0,2.007,0l.789-.789A36.9,36.9,0,0,1,45.419,82.323Z"/>
          <path id="Trazado_733646" data-name="Trazado 733646" d="M56.774,35.484a12.774,12.774,0,0,0-11.355,6.955,12.774,12.774,0,0,0-11.355-6.955A1.419,1.419,0,0,0,32.645,36.9v5.677a12.774,12.774,0,0,0,25.548,0V36.9A1.419,1.419,0,0,0,56.774,35.484Zm-21.29,7.1V38.423A9.951,9.951,0,0,1,44,48.258v4.157a9.951,9.951,0,0,1-8.516-9.835Zm19.871,0a9.951,9.951,0,0,1-8.516,9.835V48.258a9.951,9.951,0,0,1,8.516-9.835Z"/>
        </g>
      </g>
    </g>
  </g>
</svg>
