<svg xmlns="http://www.w3.org/2000/svg" width="295.458" height="239.564" viewBox="0 0 295.458 239.564">
  <g id="Grupo_1034295" data-name="Grupo 1034295" transform="translate(-112.373 -214.893)">
    <path id="Trazado_735756" data-name="Trazado 735756" d="M651.155,317.548c4.815-.334,9.623-.7,14.423-1.125,2.5-.218,4.587-.082,6.327-.709-.175-.258-.343-.521-.519-.778-16.87-24.589-40.848-43.7-67.814-56.632l31.2,60.3C640.232,318.266,645.7,317.928,651.155,317.548Z" transform="translate(-288.352 -25.484)" fill="#b2deeb"/>
    <path id="Trazado_735757" data-name="Trazado 735757" d="M177.936,347.326a79.85,79.85,0,0,1,6.193-5.952,11.473,11.473,0,0,1,1.727-3.023q1.46-2.46,2.983-4.882,2.928-4.659,6.08-9.17a.745.745,0,0,1,1.075-.337c.266.091.527.2.792.293l.193-.453q.944-2.22,1.888-4.44a3.571,3.571,0,0,1-.824,0,2.031,2.031,0,0,1-1.937-2.492c.275-1.615.755-2.608-.409-4.15a16.489,16.489,0,0,0-3.5-2.942,6.183,6.183,0,0,1-2.66-3.606c-.339-1.945.912-3.775,1.333-5.7a6.974,6.974,0,0,0-1.255-5.638c-1.341-1.757-2.477-2.554-2.466-4.893a10.305,10.305,0,0,1,2.332-5.809c1.752-2.39,3.956-4.72,4.263-7.668.209-2.013-.515-3.986-.936-5.965-.677-3.182-.44-6.842,1.8-9.2,2.137-2.247,5.511-2.745,8.61-2.767s6.311.283,9.2-.833c3.731-1.436,6.627-6.418,10.5-7.112,4.063-.728,8.044,4.035,11.744,5.074a10.531,10.531,0,0,0,6.578-.085,43.5,43.5,0,0,0,4.208-2.339,10.309,10.309,0,0,1,9.215.123,9.563,9.563,0,0,1,4.771,7.332c.216,2.335-1.148,6.5.767,8.216a17.248,17.248,0,0,1,2.49,2.047c1.025,1.34.837,3.264.21,4.833a10.107,10.107,0,0,1-11.233,6.285c-.279,2.795-.667,5.532-.994,7.684a2.135,2.135,0,0,1,.674,2.06,1.711,1.711,0,0,1-1.183,1.231c-.536,3.55-1.263,7.044-2.1,10.51.806,1.982,1.657,3.945,2.6,5.867.713,1.461,3.521,4.874,1.772,6.435a2.99,2.99,0,0,1-2.269.435c-.318-.024-.638-.051-.956-.079a38.9,38.9,0,0,1-4.363-.6c-.746,2.624-1.5,5.248-2.228,7.885-.551,1.994-1.155,4.083-2.619,5.543a10.049,10.049,0,0,1-4.639,2.318,29.569,29.569,0,0,1-12.213.555.855.855,0,0,1-.915.873c-.019.05-.046.111-.064.159-.5,1.4-1.056,2.787-1.593,4.177,1.665,1.273,3.3,2.587,4.863,3.983-2,3.87-4.135,7.666-6.356,11.413.548,1.44,1.022,2.9,1.461,4.314.664,2.14,1.267,4.3,1.841,6.457q1.306,1.137,2.56,2.3L285.371,364c-1.27-6.189-2.381-12.426-3.1-18.674-.8-6.908-1.721-14.432.066-21.287,1.031-3.943,3.667-9.273,7.618-11.032,4.685-2.085,12.135-1.779,17.22-2.353,11.431-1.285,22.906-2.12,34.381-2.856,1.507-.1,3.016-.186,4.524-.279-18.647-31.478-38.374-63.583-41.32-68.37-.5-.183-1-.383-1.508-.562l-112.918,4.972a74.712,74.712,0,0,0-17.42,11.615,161.215,161.215,0,0,0-35.33,47.36c-2.163,4.459-4.09,9.017-5.816,13.649a20.474,20.474,0,0,1-2.159,6.156q-2.454,7.473-4.23,15.158,22.509,3.315,44.8,7.934C172.773,345.972,175.4,346.545,177.936,347.326Z" transform="translate(-7.633 -13.909)" fill="#b2deeb"/>
    <path id="Trazado_735758" data-name="Trazado 735758" d="M127.441,480.274c13.746,1.5,18.753,15.857,21.844,27.876l14.1-.37a98.407,98.407,0,0,1,7.1-11.548,87.009,87.009,0,0,1,6.8-8.3c-2.539-.781-5.163-1.354-7.759-1.9q-22.278-4.639-44.8-7.934c-.159.682-.3,1.369-.455,2.053A24.536,24.536,0,0,1,127.441,480.274Z" transform="translate(-6.985 -154.513)" fill="#7fbdda"/>
    <path id="Trazado_735759" data-name="Trazado 735759" d="M695.5,399.159c-5.459.38-10.923.718-16.386,1.051l13.05,25.223a27.273,27.273,0,0,1,6.827,3.044,28.084,28.084,0,0,1,13.421,24.739c-.021,1.025-.1,2.043-.186,3.062l27.865,8.255a141.718,141.718,0,0,0-23.841-67.209c-1.74.628-3.828.491-6.327.709C705.125,398.461,700.317,398.825,695.5,399.159Z" transform="translate(-332.7 -107.094)" fill="#7fbdda"/>
    <path id="Trazado_735760" data-name="Trazado 735760" d="M618.275,509.7l47.554-1.246c.01-.171.019-.342.026-.512-2.364-4.633-5.546-10.479-9.263-17.095a17.862,17.862,0,0,0-3.7-1.489c-6.94-1.9-14.369.735-20.652,4.557a68.442,68.442,0,0,0-12.456,9.959c-.648,2.207-1.394,5.021-1.48,5.5C618.29,509.479,618.292,509.591,618.275,509.7Z" transform="translate(-296.984 -160.748)" fill="#7fbdda"/>
    <path id="Trazado_735761" data-name="Trazado 735761" d="M543.28,448.449c7-7.124,15.085-13.413,24.467-17.035a34.651,34.651,0,0,1,13.788-2.341c-4.33-7.5-9.029-15.514-13.8-23.569-1.508.093-3.017.183-4.524.279-11.475.735-22.95,1.57-34.381,2.856-5.084.573-12.535.268-17.22,2.353-3.951,1.758-6.587,7.089-7.618,11.032-1.787,6.855-.865,14.379-.066,21.287.724,6.248,1.834,12.485,3.1,18.674l25.3-.663A117.117,117.117,0,0,1,543.28,448.449Z" transform="translate(-229.292 -111.896)" fill="#636363"/>
    <path id="Trazado_735762" data-name="Trazado 735762" d="M388.088,222.177c-21.76-6.761-42.517-9.458-65.066-5.324-12.62,2.312-27.507,6.39-40.358,12.8l112.918-4.972C393.1,223.8,390.6,222.958,388.088,222.177Z" transform="translate(-99.967 0)" fill="#7fbdda"/>
    <path id="Trazado_735763" data-name="Trazado 735763" d="M614.871,331.883a29.966,29.966,0,0,1,7.223,1.163l-13.05-25.223-31.2-60.3c-5.9-2.831-11.951-5.349-18.1-7.581,2.945,4.786,22.673,36.892,41.32,68.37C605.842,316.369,610.541,324.38,614.871,331.883Z" transform="translate(-262.628 -14.707)" fill="#7fbdda"/>
    <path id="Trazado_735764" data-name="Trazado 735764" d="M720.212,506.5c-.646-5.433-4.4-10.1-9.15-12.638,3.717,6.616,6.9,12.462,9.263,17.095A27.864,27.864,0,0,0,720.212,506.5Z" transform="translate(-351.453 -163.763)" fill="#7fbdda"/>
    <path id="Trazado_735765" data-name="Trazado 735765" d="M631.761,681.678c-1.234.6-2.48,1.18-3.732,1.745a6.414,6.414,0,0,0-.315,2.578,5.723,5.723,0,0,0,.157.871c1.611-.888,3.142-1.822,4.556-2.741a69.544,69.544,0,0,0,6.521-4.835c-.737-.031-1.466-.069-2.178-.115a22.646,22.646,0,0,1-2.549-.281,3.18,3.18,0,0,1-.4,1.22A4.645,4.645,0,0,1,631.761,681.678Z" transform="translate(-302.51 -272.391)" fill="#7fbdda"/>
    <path id="Trazado_735766" data-name="Trazado 735766" d="M714,559.509a72.38,72.38,0,0,0,2.548-9.2c-3.617,4.14-7.137,8.362-10.607,12.627C708.666,561.867,711.356,560.7,714,559.509Z" transform="translate(-348.446 -196.901)" fill="#7fbdda"/>
    <path id="Trazado_735767" data-name="Trazado 735767" d="M682.984,568.459c-.888,2.049-1.858,4.056-2.878,6.037.15.048.306.08.451.14a1.626,1.626,0,0,1,.9,1.561,3.271,3.271,0,0,1-.695,1.755,6.824,6.824,0,0,1-2.106,1.921,4.2,4.2,0,0,0-.911.609,3.2,3.2,0,0,0-.576.963c-.768,1.717-1.3,4.024-2.344,5.551A7.891,7.891,0,0,1,671,589.473a.977.977,0,0,0-.188.329.92.92,0,0,1-.134.313c-.274.664-.632,1.631-.783,1.842a7.754,7.754,0,0,1-2.59,2.211c-.2.114-.422.225-.635.339-.172.2-.335.41-.508.612a85.634,85.634,0,0,1-22.905,19.195q2.26,2.78,4.518,5.559c3.943,4.844,6.4,11.03,9.811,16.376l1,1.559a50.369,50.369,0,0,0,18.562-1.156c19.26-5.238,31.71-24.272,37.425-43.395a122.028,122.028,0,0,0,4.472-44.918l-27.865-8.255C690.386,549.933,686.881,559.467,682.984,568.459Z" transform="translate(-311.651 -190.9)" fill="#7fbdda"/>
    <path id="Trazado_735768" data-name="Trazado 735768" d="M623.948,725.392q-2.255-2.778-4.518-5.559c-.669.37-1.329.756-2.01,1.1a54.36,54.36,0,0,1-14.754,5.184l14.447,13.928a139.184,139.184,0,0,0,17.642,3.281l-1-1.559C630.346,736.422,627.891,730.236,623.948,725.392Z" transform="translate(-287.821 -296.419)" fill="#7fbdda"/>
    <path id="Trazado_735769" data-name="Trazado 735769" d="M388.511,564.675l44.161-4.431c1.72-.172,2.848-.062,3.607.63,1.119-1.094,2.451-2.03,3.568-2.992A19.57,19.57,0,0,1,443,555.769c.74-1.5,1.51-2.979,2.327-4.441a103.926,103.926,0,0,1,6.887-10.659l-25.3.663L366.5,542.914c.334.309.674.617,1,.927Q378.257,554,388.511,564.675Z" transform="translate(-149.181 -191.243)" fill="#7fbdda"/>
    <path id="Trazado_735770" data-name="Trazado 735770" d="M557.639,636.639l.737-.09c-.117-.578-.214-1.159-.3-1.743C557.928,635.416,557.779,636.026,557.639,636.639Z" transform="translate(-261.388 -246.505)" fill="#7fbdda"/>
    <path id="Trazado_735771" data-name="Trazado 735771" d="M598.059,689.851a136.409,136.409,0,0,1-13.223,5.167c-2.712.9-5.452,1.7-8.2,2.481,6.951,2.169,14.769-.618,21.265-4.2a5.729,5.729,0,0,1-.157-.871A6.415,6.415,0,0,1,598.059,689.851Z" transform="translate(-272.539 -278.819)" fill="#7fbdda"/>
    <path id="Trazado_735772" data-name="Trazado 735772" d="M377.844,699.29c.028,2.1.064,4.193.078,6.29.015,2.358.108,4.733.195,7.089.069,1.868.58,4.053-.375,5.783q7.685-2.169,15.382-4.3c2.831-.778,5.7-1.5,8.581-2.2l-.137-.06A187.707,187.707,0,0,1,377.844,699.29Z" transform="translate(-155.782 -284.36)" fill="#7fbdda"/>
    <path id="Trazado_735773" data-name="Trazado 735773" d="M504.81,639.635l10.433-1.268q.284-1.493.609-2.976A113.434,113.434,0,0,1,504.81,639.635Z" transform="translate(-230.375 -246.848)" fill="#7fbdda"/>
    <path id="Trazado_735774" data-name="Trazado 735774" d="M184.841,550.34c.4,1.564.776,3.094,1.128,4.545,1.487,6.129,2.667,12.32,3.711,18.537a118.166,118.166,0,0,1,9.258-23.452Z" transform="translate(-42.541 -196.703)" fill="#7fbdda"/>
    <path id="Trazado_735775" data-name="Trazado 735775" d="M618.214,547.784a22.6,22.6,0,0,0,.76,3.694,10.036,10.036,0,0,0,2.323,4.15,12.459,12.459,0,0,0,6.732,3.1c8.8,1.667,17.626-.591,26.1-3.9,3.469-4.264,6.99-8.486,10.607-12.627a41.316,41.316,0,0,0,.745-5.7l-47.554,1.246A36.373,36.373,0,0,0,618.214,547.784Z" transform="translate(-296.635 -188.792)" fill="#7fbdda"/>
    <path id="Trazado_735776" data-name="Trazado 735776" d="M596.388,464.881c-9.382,3.622-17.463,9.911-24.467,17.035a117.123,117.123,0,0,0-10.954,12.873,103.924,103.924,0,0,0-6.887,10.659c-.817,1.461-1.587,2.944-2.327,4.441.829-.473,1.666-.935,2.481-1.465a43.17,43.17,0,0,1,6.22-3.162l2.729-1.2a97.956,97.956,0,0,1,7.064-8.507c2.509-2.737,7.65-9.441,11.433-9.8a13.805,13.805,0,0,0-.942,2.735,68.441,68.441,0,0,1,12.456-9.959c6.283-3.822,13.712-6.459,20.652-4.557a17.862,17.862,0,0,1,3.7,1.489c4.749,2.543,8.5,7.205,9.15,12.638a27.864,27.864,0,0,1,.112,4.456q-.011.256-.026.512a41.315,41.315,0,0,1-.745,5.7,72.374,72.374,0,0,1-2.548,9.2c.429-.194.86-.386,1.287-.58a68.821,68.821,0,0,1-8.382,21.954c.524-.05,1.046-.133,1.572-.174,2.6-.205,5.826-1.047,8.426-.212,1.02-1.98,1.99-3.988,2.878-6.037,3.9-8.992,7.4-18.526,8.2-28.375.082-1.019.165-2.037.186-3.062a28.084,28.084,0,0,0-13.421-24.739A27.271,27.271,0,0,0,617.4,463.7a29.965,29.965,0,0,0-7.223-1.162A34.651,34.651,0,0,0,596.388,464.881Z" transform="translate(-257.933 -145.363)" fill="#4d88a3"/>
    <path id="Trazado_735777" data-name="Trazado 735777" d="M605.735,675.17A69.524,69.524,0,0,1,599.214,680c-1.414.919-2.945,1.853-4.556,2.741-6.5,3.58-14.314,6.367-21.265,4.2q-1.139.323-2.28.638c.362.172.726.334,1.086.527,3.835,2.047,7.023,5.106,10.154,8.127l1.791,1.727a54.359,54.359,0,0,0,14.754-5.184c.68-.345,1.341-.731,2.01-1.1a85.631,85.631,0,0,0,22.905-19.195c.173-.2.336-.41.508-.612a28.877,28.877,0,0,1-4.122,1.791C615.755,675.163,610.525,675.368,605.735,675.17Z" transform="translate(-269.298 -268.264)" fill="#4d88a3"/>
    <path id="Trazado_735778" data-name="Trazado 735778" d="M541.572,616.634c.036-.9.107-1.771.2-2.635-.28.4-.543.8-.859,1.176-1.3,1.535-4.144,3.727-6.583,3.779,0,.04,0,.081,0,.121a3.764,3.764,0,0,1-.438,1.851,3.864,3.864,0,0,1-1.744,1.259c-.484.224-.976.431-1.464.648q-.325,1.483-.609,2.976l11.384-1.384c.14-.613.289-1.223.439-1.833A32.677,32.677,0,0,1,541.572,616.634Z" transform="translate(-245.206 -234.291)" fill="#4d88a3"/>
    <path id="Trazado_735779" data-name="Trazado 735779" d="M570.853,535.4c.379.1.212.7.221,1.089A6.6,6.6,0,0,1,570,540.187a13.137,13.137,0,0,1-3.262,3.295c-.669.505-1.357.982-2.035,1.472-.568.413-1.341.814-1.637,1.464-.621,1.365-.949,2.942-1.442,4.363a29.081,29.081,0,0,1-3.537,7.323c-.093.863-.164,1.739-.2,2.635a32.683,32.683,0,0,0,.324,5.958c.084.584.181,1.165.3,1.743l27.642-3.361c2.965-.361,4.492-.01,5.339,2.189a24.234,24.234,0,0,1,4.11-3.745c2.447-1.817,6.488-3.455,9.333-4.522,4.656-1.746,9.418-2.268,14.178-3.709.645,1.732-.876,3.964-2.5,5.13a29.129,29.129,0,0,1-7.083,3.5,96.268,96.268,0,0,1,10.446-1.544,68.821,68.821,0,0,0,8.382-21.954c-.427.194-.857.387-1.287.58-2.641,1.189-5.331,2.358-8.059,3.424-8.474,3.309-17.3,5.568-26.1,3.9a12.459,12.459,0,0,1-6.732-3.1,10.036,10.036,0,0,1-2.323-4.15,22.6,22.6,0,0,1-.76-3.694,36.372,36.372,0,0,1-.287-10.044c.017-.1.015-.217.034-.32.086-.484.833-3.3,1.48-5.5a13.807,13.807,0,0,1,.942-2.735c-3.783.362-8.924,7.066-11.433,9.8a97.954,97.954,0,0,0-7.064,8.507l2.275-1C569.427,535.923,570.435,535.3,570.853,535.4Z" transform="translate(-261.517 -178.396)" fill="#4d88a3"/>
    <path id="Trazado_735780" data-name="Trazado 735780" d="M141.567,596.727c.486-2.166-.059-5.132-.066-7.342-.009-2.484-.008-4.967.016-7.451.045-4.946.172-9.892.457-14.828a159.715,159.715,0,0,1,4.21-29.441c.294-1.179.627-2.351.955-3.525-1.044-6.218-2.224-12.408-3.711-18.537-.352-1.451-.726-2.981-1.128-4.545-3.091-12.02-8.1-26.375-21.844-27.876a24.53,24.53,0,0,0-3.169-.12,217.3,217.3,0,0,0-4.894,43.8c-.246,17.966,1.663,36.757,11.31,51.917A61.39,61.39,0,0,0,141.567,596.727Z" transform="translate(0 -157.422)" fill="#4d88a3"/>
    <path id="Trazado_735781" data-name="Trazado 735781" d="M135.619,432.644a20.475,20.475,0,0,0,2.159-6.156Q136.639,429.545,135.619,432.644Z" transform="translate(-13.646 -124.215)" fill="#4d88a3"/>
    <path id="Trazado_735782" data-name="Trazado 735782" d="M536.582,574.059a53.248,53.248,0,0,1,.916,12.607c2.439-.052,5.286-2.244,6.583-3.779.315-.373.579-.78.859-1.176a29.081,29.081,0,0,0,3.537-7.323c.493-1.421.821-3,1.442-4.363.3-.65,1.069-1.051,1.637-1.464.678-.49,1.366-.967,2.035-1.472a13.137,13.137,0,0,0,3.262-3.295,6.594,6.594,0,0,0,1.077-3.694c-.008-.394.158-.993-.22-1.089-.418-.105-1.426.52-1.81.69l-2.275,1-2.729,1.2a43.163,43.163,0,0,0-6.22,3.162c-.814.53-1.651.992-2.481,1.465a19.566,19.566,0,0,0-3.156,2.113c-1.117.962-2.449,1.9-3.568,2.992A4.215,4.215,0,0,1,536.582,574.059Z" transform="translate(-248.374 -202.003)" fill="#f08162"/>
    <path id="Trazado_735783" data-name="Trazado 735783" d="M440.067,613.17a.91.91,0,0,1,1.2.242l13.638-1.659a113.426,113.426,0,0,0,11.041-4.244c.488-.217.98-.424,1.464-.648a3.865,3.865,0,0,0,1.744-1.259,3.764,3.764,0,0,0,.438-1.851c0-.04,0-.081,0-.121a53.247,53.247,0,0,0-.916-12.607,4.214,4.214,0,0,0-1.111-2.425c-.759-.692-1.887-.8-3.607-.63L419.8,592.4q4.037,4.2,8,8.463c3.751,4.05,7.8,8.093,11.683,12.28A.8.8,0,0,1,440.067,613.17Z" transform="translate(-180.472 -218.967)" fill="#fcc9a8"/>
    <path id="Trazado_735784" data-name="Trazado 735784" d="M434.172,718.568c-3.131-3.022-6.319-6.081-10.154-8.128-.36-.192-.724-.355-1.086-.527-1,.279-2,.565-3.008.842-11.411,3.139-22.795,6.742-34.324,9.392-4.483,1.03-10.656,2.093-14.5-.4a30.231,30.231,0,0,1-4.06-1.561c-2.882.7-5.75,1.423-8.581,2.2q-7.7,2.117-15.382,4.3l0,.006a7.4,7.4,0,0,1-1.172,1.464c-7.091,7.467-13.982,14.055-23.211,18.9a141.565,141.565,0,0,0,29-2.945c15.46-3.217,30.328-9.012,45.891-11.684a117.2,117.2,0,0,1,40.912.236c5.283.97,10.6,2.3,15.914,3.562l-14.447-13.928Z" transform="translate(-121.117 -290.596)" fill="#906753"/>
    <path id="Trazado_735785" data-name="Trazado 735785" d="M261.88,591.54Z" transform="translate(-87.766 -221.106)" fill="#fff6d3"/>
    <path id="Trazado_735786" data-name="Trazado 735786" d="M262.185,595.588a7.4,7.4,0,0,0,1.172-1.464l0-.006c.955-1.73.444-3.915.375-5.783-.087-2.356-.18-4.731-.195-7.089-.014-2.1-.05-4.193-.078-6.29l-.09-.057a.737.737,0,0,1-1.066.151c-9.24-6.612-18.721-12.994-27.584-20.113-7.13-5.729-13.716-12.252-18.288-20.193,2.333,8.952,7.286,16.994,12.846,24.314.708.933-.87,1.836-1.567.918-6.8-8.949-12.694-19.026-14.147-30.354-1.244-9.7.731-21.875,9.154-28.011a.723.723,0,0,1,1.007.08c4.332-3.7,9.6-4.416,16.126-2.309,6.075,1.962,11.461,5.8,16.305,10.016-.573-2.162-1.177-4.317-1.841-6.457-.439-1.414-.913-2.875-1.461-4.314-.41.691-.8,1.394-1.215,2.081-.362-.078-.72-.176-1.081-.257a.933.933,0,0,1-.927,1.48,96.133,96.133,0,0,1-30.568-12.819.936.936,0,0,1-.286-.282c-.16-.093-.325-.177-.484-.271a.917.917,0,0,1-.4-1.067,79.847,79.847,0,0,0-6.193,5.952,87.009,87.009,0,0,0-6.8,8.3,98.417,98.417,0,0,0-7.1,11.548,118.162,118.162,0,0,0-9.258,23.452c-.328,1.174-.662,2.346-.955,3.525a159.715,159.715,0,0,0-4.21,29.441c-.285,4.936-.412,9.882-.457,14.828-.024,2.484-.024,4.967-.016,7.451.007,2.21.553,5.176.066,7.342q1.806,1.211,3.686,2.32a.887.887,0,0,1,.966-.1,56.019,56.019,0,0,0,33.488,5.1c1.145-.181,1.633,1.568.482,1.751a58.217,58.217,0,0,1-22.9-.947,107.493,107.493,0,0,0,32.508,6.814c2.59.147,5.183.206,7.777.209C248.2,609.643,255.094,603.055,262.185,595.588Z" transform="translate(-41.398 -160.026)" fill="#ffa031"/>
    <path id="Trazado_735787" data-name="Trazado 735787" d="M323.689,441.55c.017-.048.045-.109.064-.159h-.007a16.911,16.911,0,0,1-12.785-6.747c-.119-.1-.254-.18-.368-.28a6.542,6.542,0,0,1-1.571-2.961,54.57,54.57,0,0,1-1.98-5.8c-.179-.662-.328-1.332-.472-2a11.231,11.231,0,0,1-4.351,3.843,5.757,5.757,0,0,1-1.836.527q-.945,2.22-1.888,4.44l-.193.453A87.011,87.011,0,0,1,322.1,445.727C322.633,444.337,323.186,442.953,323.689,441.55Z" transform="translate(-109.147 -122.523)" fill="#f08162"/>
    <path id="Trazado_735788" data-name="Trazado 735788" d="M268.006,463.667c.159.094.324.178.484.271-.46-.715.342-1.839,1.2-1.287a94.64,94.64,0,0,0,30.134,12.636.8.8,0,0,1,.445.271c.361.081.719.179,1.081.257.417-.687.806-1.39,1.215-2.081,2.221-3.746,4.357-7.543,6.356-11.413-1.564-1.4-3.2-2.71-4.863-3.983a87.014,87.014,0,0,0-23.794-12.857c-.265-.094-.526-.2-.792-.293a.745.745,0,0,0-1.075.337q-3.152,4.51-6.08,9.17-1.523,2.42-2.983,4.882a11.474,11.474,0,0,0-1.727,3.023A.917.917,0,0,0,268.006,463.667Zm35.963,3.892-3.547,5.093a.93.93,0,0,1-1.242.326.913.913,0,0,1-.326-1.242l3.548-5.095a.931.931,0,0,1,1.242-.324A.912.912,0,0,1,303.969,467.559Zm-3.833-8.256a.936.936,0,0,1,0,1.283,65.993,65.993,0,0,0-6.224,9.294c-.568,1.024-2.136.108-1.568-.916a68.619,68.619,0,0,1,6.509-9.662A.913.913,0,0,1,300.136,459.3Zm-8.5-3.133a41.57,41.57,0,0,0-6.871,10.38.916.916,0,0,1-1.242.324.933.933,0,0,1-.325-1.242,43.194,43.194,0,0,1,7.155-10.747C291.143,454.018,292.423,455.306,291.64,456.171Zm-9.076-4.621A45.434,45.434,0,0,0,275,462.717c-.506,1.056-2.071.132-1.568-.916a47.079,47.079,0,0,1,7.844-11.535C282.074,449.4,283.355,450.692,282.564,451.549Z" transform="translate(-91.111 -135.134)" fill="#ffa031"/>
    <path id="Trazado_735789" data-name="Trazado 735789" d="M300.932,500.042A94.639,94.639,0,0,1,270.8,487.405c-.86-.552-1.662.572-1.2,1.287a.934.934,0,0,0,.286.282,96.134,96.134,0,0,0,30.568,12.819.933.933,0,0,0,.927-1.48A.8.8,0,0,0,300.932,500.042Z" transform="translate(-92.217 -159.889)" fill="#fcc9a8"/>
    <path id="Trazado_735790" data-name="Trazado 735790" d="M281.624,468.754c-.5,1.048,1.062,1.971,1.568.916a45.433,45.433,0,0,1,7.56-11.168c.791-.858-.49-2.145-1.285-1.283A47.08,47.08,0,0,0,281.624,468.754Z" transform="translate(-99.299 -142.088)" fill="#fcc9a8"/>
    <path id="Trazado_735791" data-name="Trazado 735791" d="M305.258,479.149a.933.933,0,0,0,.325,1.242.916.916,0,0,0,1.242-.324,41.569,41.569,0,0,1,6.871-10.38c.783-.865-.5-2.152-1.284-1.285A43.194,43.194,0,0,0,305.258,479.149Z" transform="translate(-113.167 -148.651)" fill="#fcc9a8"/>
    <path id="Trazado_735792" data-name="Trazado 735792" d="M327.377,488.8c-.567,1.024,1,1.94,1.568.916a65.987,65.987,0,0,1,6.224-9.294.936.936,0,0,0,0-1.284.913.913,0,0,0-1.283,0A68.623,68.623,0,0,0,327.377,488.8Z" transform="translate(-126.144 -154.965)" fill="#fcc9a8"/>
    <path id="Trazado_735793" data-name="Trazado 735793" d="M347.922,496.326a.931.931,0,0,0-1.242.324l-3.548,5.095a.913.913,0,0,0,.326,1.242.93.93,0,0,0,1.242-.326l3.547-5.093A.912.912,0,0,0,347.922,496.326Z" transform="translate(-135.389 -165.143)" fill="#fcc9a8"/>
    <path id="Trazado_735794" data-name="Trazado 735794" d="M411.245,389.137c0-.012,0-.026,0-.039l0-.039c0-.042,0-.034-.014.107Z" transform="translate(-175.446 -102.23)" fill="#f08162"/>
    <path id="Trazado_735795" data-name="Trazado 735795" d="M410.477,392.417l.009-.009h0l-.009.009Z" transform="translate(-174.996 -104.208)" fill="#f08162"/>
    <path id="Trazado_735796" data-name="Trazado 735796" d="M410.447,392.432h0Z" transform="translate(-174.981 -104.223)" fill="#f08162"/>
    <path id="Trazado_735797" data-name="Trazado 735797" d="M410.322,392.523c-.07.073-.045.055,0,0Z" transform="translate(-174.882 -104.276)" fill="#f08162"/>
    <path id="Trazado_735798" data-name="Trazado 735798" d="M346.9,332.106c-2.548.368-5.052,2.051-5.694,4.542a17.225,17.225,0,0,0-.046,4.628,12.736,12.736,0,0,1-1.544,6.263c-1.306,2.414-3.976,3.869-4.738,6.631a9.587,9.587,0,0,0-.27,2.109,27.879,27.879,0,0,0,.148,5.677c.208,1.3.159,2.3-1.32,2.765a15.017,15.017,0,0,1-2.4.494c-.465.064-.927.117-1.362.168a1.35,1.35,0,0,1-.776-.078,13.089,13.089,0,0,1-.495,3.241c-1.1,3.468-4.168,3.592-6.808,1.677a12.648,12.648,0,0,1-2.195-2.093,19.153,19.153,0,0,1-1.071,1.7c.144.67.294,1.34.472,2a54.575,54.575,0,0,0,1.98,5.8,6.541,6.541,0,0,0,1.571,2.961c.115.1.249.183.368.28a16.5,16.5,0,0,1-2.939-6.414c-.262-1.214,1.6-1.726,1.861-.513A14.883,14.883,0,0,0,335.5,385.69a.958.958,0,0,1,.922,1.056,29.569,29.569,0,0,0,12.213-.555,10.049,10.049,0,0,0,4.639-2.318c1.464-1.461,2.069-3.549,2.619-5.543.728-2.637,1.482-5.261,2.228-7.885-.186-.038-.375-.057-.561-.1a1.155,1.155,0,0,1-.807-.449,1.182,1.182,0,0,1-.038-.782c.263-1.455,1.69-13.441,3.319-13.284.256.024.4.305.488.546.257.678.546,1.343.818,2.016.832-3.466,1.56-6.96,2.1-10.51a2.349,2.349,0,0,1-1.192.118c-.189-.036-.377-.065-.566-.094-.065-.007-.28-.034-.307-.038q-.611-.059-1.224-.075a20.433,20.433,0,0,0-2.347.11l-.282.045-.517.094q-.6.119-1.193.285c-.394.109-.784.232-1.168.372l-.492.186-.074.03-.27.121a1.986,1.986,0,0,1-2.64-.694,1.937,1.937,0,0,1,.693-2.641,19.015,19.015,0,0,1,11.416-1.423,1.509,1.509,0,0,1,.675.313c.327-2.151.716-4.889.994-7.684-3.615-.509-7.264-2.339-10.5-3.552A15.513,15.513,0,0,0,346.9,332.106Zm8.325,23.994a10.59,10.59,0,0,1,.647-1.987,5.137,5.137,0,0,1,.241-.554,1.354,1.354,0,0,1,1.464-.677,1.481,1.481,0,0,1,1.036.871,2.41,2.41,0,0,1,.078,1.351c.009-.074.033-.262.018-.126l-.01.085-.024.218c-.028.259-.06.515-.1.773a6.8,6.8,0,0,1-.251,1.206,2.6,2.6,0,0,1-.649,1.135,1.51,1.51,0,0,1-1.73.237C355.008,358.143,355.046,356.988,355.221,356.1Zm-1.511,15.339a.972.972,0,0,1,1.32.347.991.991,0,0,1-.346,1.319,6.382,6.382,0,0,1-8.452-1.067.984.984,0,0,1,0-1.364.97.97,0,0,1,1.365,0A4.464,4.464,0,0,0,353.709,371.439Z" transform="translate(-120.899 -68.751)" fill="#f08162"/>
    <path id="Trazado_735799" data-name="Trazado 735799" d="M337.527,444.323a14.883,14.883,0,0,1-13.863-11.743c-.262-1.214-2.123-.7-1.861.512a16.5,16.5,0,0,0,2.939,6.414,16.911,16.911,0,0,0,12.785,6.747h.007a.855.855,0,0,0,.915-.873A.958.958,0,0,0,337.527,444.323Z" transform="translate(-122.928 -127.384)" fill="#c74e53"/>
    <path id="Trazado_735800" data-name="Trazado 735800" d="M292.865,331.935a19.161,19.161,0,0,0,1.071-1.7,20.809,20.809,0,0,1-3.848-7.212,10.24,10.24,0,0,1,.2-6.857,7.252,7.252,0,0,1,.363-.731c1.082-1.915,3.667-3.822,6-3.331a4.761,4.761,0,0,1,.518.158c3.921-2.5,4.739-7.955,4.638-12.291a.966.966,0,0,1,1.93,0,20.361,20.361,0,0,1-1.621,9.368,11.363,11.363,0,0,1-3.136,3.92,8.689,8.689,0,0,1,1.711,1.919,12.275,12.275,0,0,0,4.623-4.218c1.258-2.2,1.19-4.469,1.116-6.917a14.713,14.713,0,0,1,4.655-11.311c.909-.846,2.276.517,1.364,1.364a12.728,12.728,0,0,0-3.6,5.751c-.712,2.424-.284,4.776-.437,7.243a11.1,11.1,0,0,1-2.243,6.054,15.684,15.684,0,0,1-4.549,3.732,19.5,19.5,0,0,1,1.732,6.669,31.892,31.892,0,0,1,.076,3.865,1.35,1.35,0,0,0,.776.078c.435-.051.9-.1,1.362-.168a15.014,15.014,0,0,0,2.4-.494c1.48-.467,1.528-1.47,1.32-2.765a27.878,27.878,0,0,1-.148-5.677,9.58,9.58,0,0,1,.271-2.109c.761-2.761,3.431-4.216,4.737-6.631a12.735,12.735,0,0,0,1.544-6.263,17.226,17.226,0,0,1,.046-4.628c.642-2.491,3.146-4.175,5.694-4.542a15.512,15.512,0,0,1,7.538,1.25c3.241,1.214,6.889,3.043,10.5,3.552a10.107,10.107,0,0,0,11.233-6.285c.627-1.568.814-3.493-.21-4.833a17.248,17.248,0,0,0-2.49-2.047c-1.916-1.721-.551-5.881-.767-8.216a9.563,9.563,0,0,0-4.771-7.332,10.309,10.309,0,0,0-9.215-.123,43.486,43.486,0,0,1-4.208,2.339,10.53,10.53,0,0,1-6.578.085c-3.7-1.039-7.682-5.8-11.744-5.074-3.874.694-6.769,5.675-10.5,7.112-2.892,1.116-6.1.811-9.2.833s-6.474.52-8.61,2.767c-2.242,2.358-2.479,6.018-1.8,9.2.421,1.979,1.145,3.952.936,5.965-.307,2.948-2.512,5.278-4.263,7.668a10.3,10.3,0,0,0-2.332,5.809c-.01,2.339,1.125,3.136,2.466,4.893a6.974,6.974,0,0,1,1.255,5.638c-.42,1.928-1.672,3.758-1.333,5.7a6.184,6.184,0,0,0,2.66,3.606,16.487,16.487,0,0,1,3.5,2.942c1.164,1.542.684,2.535.409,4.15a2.031,2.031,0,0,0,1.937,2.492,3.571,3.571,0,0,0,.824,0,5.757,5.757,0,0,0,1.836-.527A11.23,11.23,0,0,0,292.865,331.935Zm5.954-28.714c-1.293,5.475-6.376,8.35-9.091,12.962-1.4,2.381-2,5.587-.15,7.905A8.278,8.278,0,0,1,291.46,327a5.32,5.32,0,0,1-.17,3.281c-.428,1.155-2.293.652-1.861-.515,1.092-2.95-2.019-4.477-2.7-7.112a9.728,9.728,0,0,1,.887-6.635c2.424-4.918,8.031-7.781,9.337-13.311C297.242,301.5,299.1,302.013,298.818,303.221Zm-6.6-26.139c2.1.011,4.214.077,6.317.024a7.388,7.388,0,0,0,4.932-1.96c2.517-2.23,4.418-6.215,8.3-6,1.238.066,1.241,2,0,1.93-2.1-.115-3.458,1.629-4.693,3.078a18.173,18.173,0,0,1-3.642,3.451,9.12,9.12,0,0,1-5.07,1.436c-2.046.034-4.1-.015-6.142-.027A.965.965,0,0,1,292.221,277.082Zm-9.13,24.55a37.624,37.624,0,0,1,2.937-6.384c1.093-2.073,2.293-4.087,3.577-6.049.679-1.035,2.35-.066,1.667.975-1.324,2.021-2.557,4.1-3.677,6.237q-.84,1.606-1.6,3.25c-.472,1.023-1.285,2.32-1.2,3.479.08,1.056,1.334,1.587,1.96,2.33a4.282,4.282,0,0,1,.945,2.326c.224,2.049-.859,3.856-1.947,5.5-.684,1.033-2.355.064-1.667-.973,1.133-1.71,2.727-4.2.842-5.962a6.669,6.669,0,0,1-1.8-1.954A3.9,3.9,0,0,1,283.091,301.632ZM286.221,328a.974.974,0,0,1-.674-1.188c.1-.277-.266-.573-.453-.764-.331-.339-.686-.656-1.043-.967a17.074,17.074,0,0,1-2.005-1.907,5.014,5.014,0,0,1-1.051-5.319.974.974,0,0,1,1.321-.345.992.992,0,0,1,.346,1.319c-.671,1.457.7,3.04,1.684,3.947.679.626,1.41,1.2,2.061,1.855a2.659,2.659,0,0,1,1,2.693A.988.988,0,0,1,286.221,328Z" transform="translate(-95.443 -30.851)" fill="#11152e"/>
    <path id="Trazado_735801" data-name="Trazado 735801" d="M338.215,352.427a15.684,15.684,0,0,0,4.549-3.732,11.1,11.1,0,0,0,2.243-6.054c.153-2.467-.275-4.82.436-7.243a12.728,12.728,0,0,1,3.6-5.751c.911-.848-.455-2.211-1.364-1.364a14.713,14.713,0,0,0-4.655,11.311c.074,2.448.142,4.72-1.116,6.917a12.275,12.275,0,0,1-4.623,4.218,11.814,11.814,0,0,1,.836,1.476C338.156,352.278,338.181,352.355,338.215,352.427Z" transform="translate(-132.032 -66.408)" fill="#1d334c"/>
    <path id="Trazado_735802" data-name="Trazado 735802" d="M333.7,354.237a20.361,20.361,0,0,0,1.621-9.368.966.966,0,0,0-1.93,0c.1,4.336-.718,9.793-4.638,12.291a5.7,5.7,0,0,1,1.811,1A11.363,11.363,0,0,0,333.7,354.237Z" transform="translate(-127.025 -75.754)" fill="#1d334c"/>
    <path id="Trazado_735803" data-name="Trazado 735803" d="M313.34,351.853c-1.306,5.53-6.913,8.393-9.337,13.311a9.728,9.728,0,0,0-.887,6.635c.678,2.635,3.789,4.162,2.7,7.112-.432,1.167,1.433,1.67,1.861.515a5.32,5.32,0,0,0,.17-3.281,8.278,8.278,0,0,0-1.882-2.91c-1.852-2.318-1.252-5.525.15-7.905,2.715-4.612,7.8-7.487,9.091-12.962C315.486,351.157,313.626,350.643,313.34,351.853Z" transform="translate(-111.826 -79.996)" fill="#1d334c"/>
    <path id="Trazado_735804" data-name="Trazado 735804" d="M295.446,398.315a2.659,2.659,0,0,0-1-2.693c-.651-.658-1.382-1.229-2.061-1.855-.981-.906-2.355-2.49-1.684-3.947a.992.992,0,0,0-.346-1.319.974.974,0,0,0-1.321.345,5.014,5.014,0,0,0,1.051,5.319,17.072,17.072,0,0,0,2.005,1.907c.357.311.712.628,1.043.967.187.191.555.486.453.764a.974.974,0,0,0,.674,1.188A.988.988,0,0,0,295.446,398.315Z" transform="translate(-103.481 -101.842)" fill="#1d334c"/>
    <path id="Trazado_735805" data-name="Trazado 735805" d="M296.162,336.651c1.886,1.765.291,4.252-.842,5.962-.688,1.037.983,2.005,1.667.973,1.089-1.64,2.171-3.447,1.947-5.5a4.282,4.282,0,0,0-.945-2.326c-.626-.742-1.88-1.274-1.96-2.329-.088-1.159.726-2.456,1.2-3.479q.758-1.646,1.6-3.25c1.12-2.139,2.353-4.216,3.677-6.237.683-1.04-.988-2.009-1.667-.975-1.285,1.962-2.484,3.975-3.577,6.049a37.627,37.627,0,0,0-2.937,6.384,3.9,3.9,0,0,0,.042,2.771A6.669,6.669,0,0,0,296.162,336.651Z" transform="translate(-106.674 -61.145)" fill="#1d334c"/>
    <path id="Trazado_735806" data-name="Trazado 735806" d="M315.438,281.412c2.046.012,4.1.061,6.142.027a9.12,9.12,0,0,0,5.07-1.436,18.172,18.172,0,0,0,3.642-3.451c1.236-1.449,2.592-3.193,4.693-3.078,1.241.066,1.238-1.864,0-1.93-3.88-.211-5.781,3.774-8.3,6a7.389,7.389,0,0,1-4.932,1.96c-2.1.053-4.214-.013-6.317-.024A.965.965,0,0,0,315.438,281.412Z" transform="translate(-118.659 -33.251)" fill="#1d334c"/>
    <path id="Trazado_735807" data-name="Trazado 735807" d="M385.517,425.238a.984.984,0,0,0,0,1.364,6.382,6.382,0,0,0,8.452,1.067.991.991,0,0,0,.346-1.319.972.972,0,0,0-1.32-.347,4.464,4.464,0,0,1-6.113-.765A.97.97,0,0,0,385.517,425.238Z" transform="translate(-160.184 -123.316)" fill="#c74e53"/>
    <path id="Trazado_735808" data-name="Trazado 735808" d="M414.542,389.693c-1.63-.156-3.056,11.829-3.319,13.284a1.182,1.182,0,0,0,.038.782,1.155,1.155,0,0,0,.807.449c.185.043.375.062.561.1a38.888,38.888,0,0,0,4.363.605c.318.029.638.055.956.079a2.991,2.991,0,0,0,2.269-.435c1.748-1.561-1.059-4.974-1.772-6.435-.939-1.922-1.79-3.885-2.6-5.867-.273-.672-.561-1.338-.818-2.016C414.938,390,414.8,389.717,414.542,389.693Z" transform="translate(-175.408 -102.614)" fill="#f08162"/>
    <path id="Trazado_735809" data-name="Trazado 735809" d="M316.94,395.686c2.64,1.915,5.711,1.791,6.808-1.677a13.087,13.087,0,0,0,.495-3.241,31.886,31.886,0,0,0-.076-3.865,19.5,19.5,0,0,0-1.732-6.669c-.034-.073-.059-.15-.093-.222a11.816,11.816,0,0,0-.836-1.476,8.688,8.688,0,0,0-1.711-1.919,5.7,5.7,0,0,0-1.811-1,4.747,4.747,0,0,0-.518-.158c-2.338-.492-4.923,1.416-6,3.331a7.265,7.265,0,0,0-.363.731,10.24,10.24,0,0,0-.2,6.857,20.808,20.808,0,0,0,3.848,7.212A12.649,12.649,0,0,0,316.94,395.686Zm-.2-7.594a3.979,3.979,0,0,1,2.7-2.821c0-.124.019-.247.014-.37a4.181,4.181,0,0,0-.173-1.151,3.126,3.126,0,0,0-.452-1.054l-.111-.166-.045-.064-.047-.055-.126-.14-.2-.2-.1-.087a3.543,3.543,0,0,0-.516-.324l-.154-.083-.265-.1a4.3,4.3,0,0,0-.593-.147h.024l-.187-.017-.282-.009-.281.009-.116.012a3.411,3.411,0,0,0-.628.166l-.1.059-.1.055-.118.114-.055.1.013.019a.966.966,0,0,1-1.861-.515c.315-1.291,1.687-1.813,2.877-1.929a5.016,5.016,0,0,1,3.089.764c2.04,1.3,2.635,3.785,2.387,6.066a.99.99,0,0,1-.965.965.837.837,0,0,1-.4-.1l-.108.03-.016,0-.171.085-.323.2h0l-.012.012-.14.13-.234.251-.031.049-.082.13-.14.269c-.012.036-.039.1-.045.123l-.043.147-.04.188s0,0,0,0a.111.111,0,0,1,0,.012l0,.39,0,.1.022.1.1.375.037.1.051.1.2.332.016.021.13.145.14.136.016.021a1,1,0,0,1,.346,1.321.967.967,0,0,1-1.32.345A4.057,4.057,0,0,1,316.738,388.092Z" transform="translate(-116.253 -94.214)" fill="#f08162"/>
    <path id="Trazado_735810" data-name="Trazado 735810" d="M324.547,391.51a.969.969,0,0,1-.674,1.185l-.3.082a.837.837,0,0,0,.4.1.99.99,0,0,0,.965-.965c.248-2.281-.346-4.767-2.387-6.066a5.016,5.016,0,0,0-3.089-.764c-1.19.115-2.562.637-2.877,1.929a.966.966,0,0,0,1.861.515l-.013-.019.055-.1.118-.114.1-.055.1-.059a3.408,3.408,0,0,1,.628-.166l.116-.012.281-.01.282.01.188.017h-.024a4.313,4.313,0,0,1,.593.147l.265.1.154.083a3.541,3.541,0,0,1,.516.324l.1.087.2.2.126.14.047.055.045.064.111.166a3.125,3.125,0,0,1,.452,1.054,4.181,4.181,0,0,1,.173,1.151c0,.123-.014.247-.014.37.106-.033.2-.093.311-.115A.989.989,0,0,1,324.547,391.51Z" transform="translate(-119.866 -99.894)" fill="#c74e53"/>
    <path id="Trazado_735811" data-name="Trazado 735811" d="M327.185,406.082a.967.967,0,0,0,1.32-.345,1,1,0,0,0-.346-1.321l-.016-.021-.14-.136-.13-.145-.016-.021-.2-.332-.051-.1-.037-.1-.1-.375-.022-.1,0-.1,0-.39a.1.1,0,0,0,0-.012s0,0,0,0l.04-.188.043-.147c.006-.018.032-.087.045-.123l.14-.269.082-.13.031-.049.234-.251.14-.13.012-.012h0l.323-.2.171-.085.016,0,.108-.03.3-.082a.969.969,0,0,0,.674-1.185.989.989,0,0,0-1.187-.675c-.108.022-.2.083-.311.115a3.979,3.979,0,0,0-2.7,2.821A4.057,4.057,0,0,0,327.185,406.082Z" transform="translate(-125.117 -108.071)" fill="#c74e53"/>
    <path id="Trazado_735812" data-name="Trazado 735812" d="M408.259,388.265a1.51,1.51,0,0,0,1.73-.237,2.6,2.6,0,0,0,.649-1.135,6.792,6.792,0,0,0,.251-1.206c.036-.258.068-.515.1-.773l.024-.218.01-.085c.015-.137-.009.051-.018.126a2.41,2.41,0,0,0-.078-1.351,1.481,1.481,0,0,0-1.036-.871,1.354,1.354,0,0,0-1.464.677,5.128,5.128,0,0,0-.241.554,10.588,10.588,0,0,0-.647,1.987C407.36,386.62,407.322,387.775,408.259,388.265Zm.444-1.682-.009.009h0l.009-.009Zm.319-1.369,0,.039c0,.013,0,.027,0,.039l0,.029C409.023,385.179,409.025,385.171,409.021,385.213Zm-.341,1.38h0Zm-.026.038c-.045.055-.07.073,0,0Z" transform="translate(-173.213 -98.383)" fill="#8b393c"/>
    <path id="Trazado_735813" data-name="Trazado 735813" d="M398.168,362.691a1.937,1.937,0,0,0-.693,2.641,1.986,1.986,0,0,0,2.64.694l.27-.121.074-.03.492-.186c.384-.14.774-.262,1.168-.372s.792-.205,1.193-.285l.517-.094.282-.045a20.427,20.427,0,0,1,2.347-.11q.614.017,1.224.075c.027,0,.242.031.307.038.189.029.377.059.566.094a2.349,2.349,0,0,0,1.192-.118,1.711,1.711,0,0,0,1.183-1.231,2.135,2.135,0,0,0-.674-2.06,1.508,1.508,0,0,0-.675-.313A19.015,19.015,0,0,0,398.168,362.691Z" transform="translate(-167.214 -85.741)" fill="#11152e"/>
    <path id="Trazado_735814" data-name="Trazado 735814" d="M226.93,770.409c1.151-.183.662-1.932-.482-1.751a56.02,56.02,0,0,1-33.488-5.1.887.887,0,0,0-.966.1,82.874,82.874,0,0,0,12.037,5.808A58.217,58.217,0,0,0,226.93,770.409Z" transform="translate(-46.74 -322.028)" fill="#fcc9a8"/>
    <path id="Trazado_735815" data-name="Trazado 735815" d="M269.405,516.928a.981.981,0,0,1-.09,1.489c-8.067,5.874-9.559,17.915-8.123,27.28h0a.749.749,0,0,1,.9.429c4.489,9.174,11.706,16.432,19.588,22.763,8.74,7.023,18.1,13.309,27.216,19.83a.962.962,0,0,1,.15,1.417l.09.057a187.682,187.682,0,0,0,23.724,12.6l.137.06a30.242,30.242,0,0,0,4.06,1.561,7.546,7.546,0,0,1-3.278-5.075c-1.888-9.06-2.431-19.5,1.473-28.1l2.269-.277,8.066-.98c.021-.045.038-.091.058-.135a.753.753,0,0,1,.442-.413c-3.883-4.187-7.932-8.23-11.683-12.28q-3.956-4.273-8-8.463-10.256-10.664-21.009-20.833c-.328-.31-.669-.618-1-.927q-1.254-1.163-2.56-2.3c-4.844-4.218-10.23-8.054-16.3-10.016C279.008,512.512,273.737,513.23,269.405,516.928Z" transform="translate(-87.078 -175.264)" fill="#ffa031"/>
    <path id="Trazado_735816" data-name="Trazado 735816" d="M669.349,614.1c-.526.042-1.048.124-1.572.174a96.269,96.269,0,0,0-10.446,1.544,29.134,29.134,0,0,0,7.083-3.5c1.62-1.167,3.141-3.4,2.5-5.13-4.759,1.442-9.522,1.964-14.178,3.709-2.845,1.067-6.886,2.7-9.333,4.522a24.233,24.233,0,0,0-4.11,3.745,8.88,8.88,0,0,1,.4,1.361,63.842,63.842,0,0,1,1.419,15.263,9.083,9.083,0,0,1-.081,1.014,22.632,22.632,0,0,0,2.549.281c.712.046,1.44.084,2.178.115,4.79.2,10.021-.007,14.463-1.508a28.87,28.87,0,0,0,4.122-1.791c.213-.113.433-.224.635-.339a7.754,7.754,0,0,0,2.59-2.211c.152-.211.509-1.178.783-1.842a1.093,1.093,0,0,1-.539.419q-3.7,1.318-7.335,2.8a.97.97,0,0,1-1.187-.675.994.994,0,0,1,.674-1.186q3.636-1.481,7.334-2.8a.975.975,0,0,1,1.187.675.9.9,0,0,1,0,.454.977.977,0,0,1,.188-.329,7.892,7.892,0,0,0,3.819-2.479c1.045-1.527,1.577-3.834,2.344-5.551a3.2,3.2,0,0,1,.576-.963,4.193,4.193,0,0,1,.911-.609,6.824,6.824,0,0,0,2.106-1.921,3.271,3.271,0,0,0,.695-1.755,1.626,1.626,0,0,0-.9-1.561c-.145-.06-.3-.092-.451-.14C675.175,613.054,671.953,613.9,669.349,614.1Zm2.332,11.618q-4.5,1.527-9.029,2.952c-1.19.373-1.694-1.491-.514-1.862q4.531-1.425,9.029-2.952C672.348,623.455,672.85,625.321,671.681,625.719Zm2.41-4.525q-6.326,1.28-12.716,2.207a.991.991,0,0,1-1.188-.675.973.973,0,0,1,.675-1.187q6.387-.924,12.716-2.205C674.792,619.086,675.308,620.946,674.091,621.193Z" transform="translate(-309.32 -230.293)" fill="#f08162"/>
    <path id="Trazado_735817" data-name="Trazado 735817" d="M703.242,636.564q-6.325,1.28-12.716,2.205a.973.973,0,0,0-.675,1.187.991.991,0,0,0,1.188.675q6.388-.925,12.716-2.207C704.972,638.178,704.456,636.317,703.242,636.564Z" transform="translate(-338.984 -247.524)" fill="#c74e53"/>
    <path id="Trazado_735818" data-name="Trazado 735818" d="M702.693,647.47q-4.5,1.527-9.029,2.952c-1.181.371-.676,2.235.514,1.862q4.531-1.425,9.029-2.952C704.377,648.935,703.874,647.069,702.693,647.47Z" transform="translate(-340.846 -253.907)" fill="#c74e53"/>
    <path id="Trazado_735819" data-name="Trazado 735819" d="M696.866,658.359a.975.975,0,0,0-1.187-.675q-3.7,1.318-7.334,2.8a.994.994,0,0,0-.674,1.186.97.97,0,0,0,1.186.675q3.636-1.481,7.335-2.8a1.093,1.093,0,0,0,.539-.419.92.92,0,0,0,.134-.313A.9.9,0,0,0,696.866,658.359Z" transform="translate(-337.701 -259.91)" fill="#c74e53"/>
    <path id="Trazado_735820" data-name="Trazado 735820" d="M492.992,662.711c2.748-.779,5.489-1.582,8.2-2.481a136.443,136.443,0,0,0,13.223-5.167c1.252-.565,2.5-1.143,3.732-1.745a4.645,4.645,0,0,0,2.062-1.557,3.179,3.179,0,0,0,.4-1.22,9.055,9.055,0,0,0,.081-1.014,63.845,63.845,0,0,0-1.418-15.263,8.881,8.881,0,0,0-.4-1.361c-.847-2.2-2.374-2.55-5.339-2.189l-27.642,3.361-.737.09-11.384,1.384-10.433,1.268-13.638,1.659a.773.773,0,0,1,.118.493,19.564,19.564,0,0,0,1.972,10.507c.523,1.042-1.043,1.96-1.568.916a21.524,21.524,0,0,1-2.251-8.346A44.214,44.214,0,0,0,445,660.295c.057,1.17-1.759,1.163-1.815,0a46.025,46.025,0,0,1,4.224-21.541l-8.066.98-2.269.277c-3.9,8.6-3.361,19.039-1.473,28.1a7.546,7.546,0,0,0,3.278,5.075c3.844,2.49,10.017,1.427,14.5.4,11.53-2.65,22.913-6.254,34.324-9.392,1-.276,2-.562,3.008-.842Q491.852,663.033,492.992,662.711Z" transform="translate(-188.896 -244.032)" fill="#ffa031"/>
    <path id="Trazado_735821" data-name="Trazado 735821" d="M258.628,550.293h0c-1.436-9.365.056-21.406,8.123-27.28a.981.981,0,0,0,.09-1.489.723.723,0,0,0-1.007-.08c-8.423,6.135-10.4,18.309-9.154,28.011,1.452,11.328,7.351,21.4,14.147,30.354.7.918,2.275.015,1.567-.918-5.559-7.32-10.512-15.362-12.846-24.314-.554-.962-1.092-1.935-1.584-2.939A.957.957,0,0,1,258.628,550.293Z" transform="translate(-84.514 -179.859)" fill="#fcc9a8"/>
    <path id="Trazado_735822" data-name="Trazado 735822" d="M308.5,634.523c-9.113-6.521-18.476-12.808-27.216-19.83-7.882-6.331-15.1-13.59-19.588-22.763a.75.75,0,0,0-.9-.429h0a.957.957,0,0,0-.663,1.345c.491,1,1.03,1.978,1.584,2.939,4.572,7.941,11.158,14.464,18.288,20.193,8.863,7.119,18.343,13.5,27.584,20.113a.736.736,0,0,0,1.066-.151A.962.962,0,0,0,308.5,634.523Z" transform="translate(-86.68 -221.067)" fill="#fcc9a8"/>
    <path id="Trazado_735823" data-name="Trazado 735823" d="M455.95,671.058c.057,1.163,1.872,1.17,1.815,0a44.214,44.214,0,0,1,2.963-18.249,20.735,20.735,0,0,1,.033-3.076.893.893,0,0,1,.5-.734.8.8,0,0,0-.582-.029.753.753,0,0,0-.442.413c-.021.044-.038.09-.058.135A46.025,46.025,0,0,0,455.95,671.058Z" transform="translate(-201.661 -254.795)" fill="#fcc9a8"/>
    <path id="Trazado_735824" data-name="Trazado 735824" d="M468.066,648.924a.893.893,0,0,0-.5.734,20.743,20.743,0,0,0-.033,3.076,21.523,21.523,0,0,0,2.251,8.346c.525,1.044,2.091.126,1.568-.916a19.564,19.564,0,0,1-1.972-10.507.773.773,0,0,0-.118-.493A.91.91,0,0,0,468.066,648.924Z" transform="translate(-208.471 -254.721)" fill="#fcc9a8"/>
  </g>
</svg>
