<svg xmlns="http://www.w3.org/2000/svg" xmlns:xlink="http://www.w3.org/1999/xlink" width="188.556" height="162.377" viewBox="0 0 188.556 162.377">
  <defs>
    <clipPath id="clip-path">
      <rect id="Rectángulo_351272" data-name="Rectángulo 351272" width="188.556" height="162.377" fill="none"/>
    </clipPath>
    <clipPath id="clip-path-5">
      <rect id="Rectángulo_351222" data-name="Rectángulo 351222" width="28.121" height="4.78" fill="none"/>
    </clipPath>
    <clipPath id="clip-path-6">
      <rect id="Rectángulo_351223" data-name="Rectángulo 351223" width="25.618" height="4.78" fill="none"/>
    </clipPath>
    <clipPath id="clip-path-7">
      <rect id="Rectángulo_351224" data-name="Rectángulo 351224" width="2.361" height="3.659" fill="none"/>
    </clipPath>
    <clipPath id="clip-path-9">
      <rect id="Rectángulo_351226" data-name="Rectángulo 351226" width="34.301" height="28.136" fill="none"/>
    </clipPath>
    <clipPath id="clip-path-10">
      <rect id="Rectángulo_351227" data-name="Rectángulo 351227" width="35.146" height="28.105" fill="#115089"/>
    </clipPath>
    <clipPath id="clip-path-11">
      <rect id="Rectángulo_351228" data-name="Rectángulo 351228" width="35.146" height="28.105" fill="none"/>
    </clipPath>
    <clipPath id="clip-path-12">
      <rect id="Rectángulo_351229" data-name="Rectángulo 351229" width="17.319" height="68.601" fill="none"/>
    </clipPath>
    <clipPath id="clip-path-13">
      <rect id="Rectángulo_351230" data-name="Rectángulo 351230" width="28.767" height="5.558" fill="none"/>
    </clipPath>
    <clipPath id="clip-path-15">
      <rect id="Rectángulo_351232" data-name="Rectángulo 351232" width="16.626" height="8.817" fill="none"/>
    </clipPath>
    <clipPath id="clip-path-19">
      <rect id="Rectángulo_351236" data-name="Rectángulo 351236" width="2.36" height="3.659" fill="none"/>
    </clipPath>
    <clipPath id="clip-path-23">
      <rect id="Rectángulo_351240" data-name="Rectángulo 351240" width="7.532" height="13.943" fill="none"/>
    </clipPath>
    <clipPath id="clip-path-24">
      <rect id="Rectángulo_351241" data-name="Rectángulo 351241" width="5.392" height="6.838" fill="none"/>
    </clipPath>
    <clipPath id="clip-path-25">
      <rect id="Rectángulo_351242" data-name="Rectángulo 351242" width="5.677" height="5.535" fill="none"/>
    </clipPath>
    <clipPath id="clip-path-26">
      <rect id="Rectángulo_351243" data-name="Rectángulo 351243" width="7.532" height="13.944" fill="none"/>
    </clipPath>
    <clipPath id="clip-path-29">
      <rect id="Rectángulo_351246" data-name="Rectángulo 351246" width="4.972" height="7.989" fill="none"/>
    </clipPath>
    <clipPath id="clip-path-30">
      <rect id="Rectángulo_351247" data-name="Rectángulo 351247" width="4.955" height="4.749" fill="none"/>
    </clipPath>
    <clipPath id="clip-path-31">
      <rect id="Rectángulo_351248" data-name="Rectángulo 351248" width="7.883" height="8.346" fill="none"/>
    </clipPath>
    <clipPath id="clip-path-32">
      <rect id="Rectángulo_351249" data-name="Rectángulo 351249" width="6.199" height="6.174" fill="none"/>
    </clipPath>
    <clipPath id="clip-path-33">
      <rect id="Rectángulo_351250" data-name="Rectángulo 351250" width="49.042" height="52.485" fill="#afafaf"/>
    </clipPath>
    <clipPath id="clip-path-34">
      <rect id="Rectángulo_351251" data-name="Rectángulo 351251" width="10.127" height="7.205" fill="none"/>
    </clipPath>
    <clipPath id="clip-path-35">
      <rect id="Rectángulo_351252" data-name="Rectángulo 351252" width="0.568" height="0.215" fill="none"/>
    </clipPath>
    <clipPath id="clip-path-36">
      <rect id="Rectángulo_351253" data-name="Rectángulo 351253" width="17.704" height="4.301" fill="none"/>
    </clipPath>
    <clipPath id="clip-path-37">
      <rect id="Rectángulo_351254" data-name="Rectángulo 351254" width="45.788" height="11.121" fill="none"/>
    </clipPath>
    <clipPath id="clip-path-39">
      <rect id="Rectángulo_351256" data-name="Rectángulo 351256" width="9.287" height="6.53" fill="none"/>
    </clipPath>
    <clipPath id="clip-path-40">
      <rect id="Rectángulo_351257" data-name="Rectángulo 351257" width="8.424" height="9.331" fill="none"/>
    </clipPath>
    <clipPath id="clip-path-41">
      <rect id="Rectángulo_351258" data-name="Rectángulo 351258" width="22.68" height="31.683" fill="#d2e1f1"/>
    </clipPath>
    <clipPath id="clip-path-42">
      <rect id="Rectángulo_351259" data-name="Rectángulo 351259" width="4.602" height="17.091" fill="none"/>
    </clipPath>
    <clipPath id="clip-path-45">
      <rect id="Rectángulo_351262" data-name="Rectángulo 351262" width="5.677" height="5.534" fill="none"/>
    </clipPath>
    <clipPath id="clip-path-48">
      <rect id="Rectángulo_351265" data-name="Rectángulo 351265" width="9.242" height="9.416" fill="none"/>
    </clipPath>
    <clipPath id="clip-path-49">
      <rect id="Rectángulo_351266" data-name="Rectángulo 351266" width="4.205" height="6.565" fill="none"/>
    </clipPath>
    <clipPath id="clip-path-50">
      <rect id="Rectángulo_351267" data-name="Rectángulo 351267" width="5.942" height="1.443" fill="none"/>
    </clipPath>
    <clipPath id="clip-path-51">
      <rect id="Rectángulo_351268" data-name="Rectángulo 351268" width="22.289" height="24.33" fill="#4db1f0"/>
    </clipPath>
    <clipPath id="clip-path-52">
      <rect id="Rectángulo_351269" data-name="Rectángulo 351269" width="4.573" height="10.624" fill="none"/>
    </clipPath>
    <clipPath id="clip-path-53">
      <rect id="Rectángulo_351270" data-name="Rectángulo 351270" width="9.545" height="11.296" fill="#4db1f0"/>
    </clipPath>
  </defs>
  <g id="Grupo_1031272" data-name="Grupo 1031272" clip-path="url(#clip-path)">
    <g id="Grupo_1031123" data-name="Grupo 1031123">
      <g id="Grupo_1031122" data-name="Grupo 1031122" clip-path="url(#clip-path)">
        <rect id="Rectángulo_351211" data-name="Rectángulo 351211" width="162.861" height="5.521" transform="translate(12.033 99.361)" fill="#e8e8e8"/>
        <path id="Trazado_730677" data-name="Trazado 730677" d="M20.211,220.807h7.67v-48.42l-3.835-2.726-3.835,2.726Z" transform="translate(150.848 -87.164)" fill="#e8e8e8"/>
        <path id="Trazado_730678" data-name="Trazado 730678" d="M48.122,220.807h7.67v-48.42l-3.835-2.726-3.835,2.726Z" transform="translate(109.365 -87.164)" fill="#e8e8e8"/>
        <path id="Trazado_730679" data-name="Trazado 730679" d="M76.034,220.807H83.7v-48.42l-3.835-2.726-3.835,2.726Z" transform="translate(67.882 -87.164)" fill="#e8e8e8"/>
        <path id="Trazado_730680" data-name="Trazado 730680" d="M103.945,220.807h7.67v-48.42l-3.835-2.726-3.835,2.726Z" transform="translate(26.399 -87.164)" fill="#e8e8e8"/>
        <path id="Trazado_730681" data-name="Trazado 730681" d="M131.856,220.807h7.67v-48.42l-3.835-2.726-3.835,2.726Z" transform="translate(-15.084 -87.164)" fill="#e6e6e6"/>
        <path id="Trazado_730682" data-name="Trazado 730682" d="M159.767,220.807h7.67v-48.42l-3.835-2.726-3.835,2.726Z" transform="translate(-56.567 -87.164)" fill="#e8e8e8"/>
        <path id="Trazado_730683" data-name="Trazado 730683" d="M187.679,220.807h7.67v-48.42l-3.835-2.726-3.835,2.726Z" transform="translate(-98.05 -87.164)" fill="#e6e6e6"/>
        <path id="Trazado_730684" data-name="Trazado 730684" d="M215.59,220.807h7.67v-48.42l-3.835-2.726-3.835,2.726Z" transform="translate(-139.533 -87.164)" fill="#e6e6e6"/>
        <path id="Trazado_730685" data-name="Trazado 730685" d="M243.5,220.807h7.67v-48.42l-3.835-2.726-3.835,2.726Z" transform="translate(-181.016 -87.164)" fill="#e6e6e6"/>
        <path id="Trazado_730686" data-name="Trazado 730686" d="M271.412,220.807h7.67v-48.42l-3.835-2.726-3.835,2.726Z" transform="translate(-222.499 -87.164)" fill="#e6e6e6"/>
        <path id="Trazado_730687" data-name="Trazado 730687" d="M299.323,220.807h7.67v-48.42l-3.835-2.726-3.835,2.726Z" transform="translate(-263.982 -87.164)" fill="#e6e6e6"/>
        <path id="Trazado_730688" data-name="Trazado 730688" d="M327.235,220.807h7.67v-48.42l-3.835-2.726-3.835,2.726Z" transform="translate(-305.465 -87.164)" fill="#e6e6e6"/>
        <path id="Trazado_730689" data-name="Trazado 730689" d="M355.146,220.807h7.67v-48.42l-3.835-2.726-3.835,2.726Z" transform="translate(-346.948 -87.164)" fill="#e8e8e8"/>
        <path id="Trazado_730690" data-name="Trazado 730690" d="M284.48,259.817s-1.27-4.253,1.3-5.1,4.092-2.836,4.006-5.086,2.617-4.439,4.645-2.331,1.757-1.621,4.461-2.527,4.995,1.292,4.255,3.3,1.927,3.265,5.122,1.556,6.709,1.4,6.033,3.833-.123,2.7,1.9,1.892,5.637,1.486,4.37,4.46-36.087,0-36.087,0" transform="translate(-270.45 -125.645)" fill="#e0e0e0"/>
        <path id="Trazado_730691" data-name="Trazado 730691" d="M20.481,262.168s-.986-3.3,1.008-3.959a4.091,4.091,0,0,0,3.11-3.948c-.067-1.746,2.032-3.446,3.606-1.809s1.364-1.258,3.463-1.962,3.878,1,3.3,2.564,1.5,2.534,3.976,1.207,5.208,1.087,4.683,2.976-.095,2.1,1.474,1.469,4.376,1.154,3.392,3.463-28.014,0-28.014,0" transform="translate(130.016 -128.606)" fill="#e8e8e8"/>
        <path id="Trazado_730692" data-name="Trazado 730692" d="M85.545,253.646c-2.272-2.272-.227-6.134,2.045-6.589s4.556-4.452,4.664-7,4.2-10.373,10.558-5.539,4.428.712,9.03-.646,7.5,2.549,5.485,5.48c0,0,4.623-1.158,6.527,3.158s0,7,0,7,8.695-.257,7.912,5.119-46.221-.985-46.221-.985" transform="translate(15.626 -119.692)" fill="#e8e8e8"/>
        <path id="Trazado_730693" data-name="Trazado 730693" d="M188.928,273.7v6.225H13.534V273.7a1.854,1.854,0,0,1,1.836-1.954H187.092a1.854,1.854,0,0,1,1.836,1.954" transform="translate(-6.953 -139.611)" fill="#e8e8e8"/>
        <rect id="Rectángulo_351212" data-name="Rectángulo 351212" width="10.906" height="8.179" transform="translate(16.577 132.136)" fill="#f5f5f5"/>
        <rect id="Rectángulo_351213" data-name="Rectángulo 351213" width="10.451" height="8.179" transform="translate(37.479 132.136)" fill="#f5f5f5"/>
        <rect id="Rectángulo_351214" data-name="Rectángulo 351214" width="10.906" height="8.179" transform="translate(57.927 132.136)" fill="#f5f5f5"/>
        <rect id="Rectángulo_351215" data-name="Rectángulo 351215" width="10.451" height="8.179" transform="translate(78.829 132.136)" fill="#f5f5f5"/>
        <rect id="Rectángulo_351216" data-name="Rectángulo 351216" width="10.451" height="8.179" transform="translate(99.276 132.136)" fill="#f5f5f5"/>
        <rect id="Rectángulo_351217" data-name="Rectángulo 351217" width="10.906" height="8.179" transform="translate(119.724 132.136)" fill="#f5f5f5"/>
        <rect id="Rectángulo_351218" data-name="Rectángulo 351218" width="10.451" height="8.179" transform="translate(140.625 132.136)" fill="#f5f5f5"/>
        <rect id="Rectángulo_351219" data-name="Rectángulo 351219" width="10.906" height="8.179" transform="translate(161.073 132.136)" fill="#f5f5f5"/>
      </g>
    </g>
    <g id="Grupo_1031125" data-name="Grupo 1031125">
      <g id="Grupo_1031124" data-name="Grupo 1031124" clip-path="url(#clip-path)">
        <path id="Trazado_730694" data-name="Trazado 730694" d="M0,316.8c0,3.041,42.21,5.506,94.278,5.506s94.278-2.465,94.278-5.506-42.21-5.506-94.278-5.506S0,313.758,0,316.8" transform="translate(0 -159.928)" fill="#f5f5f5"/>
      </g>
    </g>
    <path id="Trazado_730695" data-name="Trazado 730695" d="M210.191,319.476h27.353l.384-4.78H209.807Z" transform="translate(-151.39 -161.676)" fill="#407bff"/>
    <g id="Grupo_1031154" data-name="Grupo 1031154">
      <g id="Grupo_1031153" data-name="Grupo 1031153" clip-path="url(#clip-path)">
        <g id="Grupo_1031128" data-name="Grupo 1031128" transform="translate(58.417 153.02)" opacity="0.2" style="isolation: isolate">
          <g id="Grupo_1031127" data-name="Grupo 1031127">
            <g id="Grupo_1031126" data-name="Grupo 1031126" clip-path="url(#clip-path-5)">
              <path id="Trazado_730696" data-name="Trazado 730696" d="M210.191,319.476h27.353l.384-4.78H209.807Z" transform="translate(-209.807 -314.696)"/>
            </g>
          </g>
        </g>
        <g id="Grupo_1031131" data-name="Grupo 1031131" transform="translate(60.92 153.02)" opacity="0.2" style="isolation: isolate">
          <g id="Grupo_1031130" data-name="Grupo 1031130">
            <g id="Grupo_1031129" data-name="Grupo 1031129" clip-path="url(#clip-path-6)">
              <path id="Trazado_730697" data-name="Trazado 730697" d="M210.123,319.476h24.919l.384-4.78H209.808Z" transform="translate(-209.808 -314.696)"/>
            </g>
          </g>
        </g>
        <path id="Trazado_730698" data-name="Trazado 730698" d="M241.25,317.923h1.343c.652,0,1.18.819,1.18,1.829s-.528,1.83-1.18,1.83H241.25c-.652,0-1.181-.819-1.181-1.83s.529-1.829,1.181-1.829" transform="translate(-171.949 -163.334)" fill="#263238"/>
        <g id="Grupo_1031134" data-name="Grupo 1031134" transform="translate(68.12 154.589)" opacity="0.2" style="isolation: isolate">
          <g id="Grupo_1031133" data-name="Grupo 1031133">
            <g id="Grupo_1031132" data-name="Grupo 1031132" clip-path="url(#clip-path-7)">
              <path id="Trazado_730699" data-name="Trazado 730699" d="M242.829,319.752c0,1.01.529,1.829,1.18,1.829s1.181-.819,1.181-1.829-.529-1.829-1.181-1.829-1.18.819-1.18,1.829" transform="translate(-242.829 -317.923)" fill="#fff"/>
            </g>
          </g>
        </g>
        <path id="Trazado_730700" data-name="Trazado 730700" d="M196.829,317.923h1.343c.652,0,1.18.819,1.18,1.829s-.528,1.83-1.18,1.83h-1.343c-.652,0-1.181-.819-1.181-1.83s.529-1.829,1.181-1.829" transform="translate(-105.929 -163.334)" fill="#263238"/>
        <g id="Grupo_1031137" data-name="Grupo 1031137" transform="translate(89.719 154.589)" opacity="0.2" style="isolation: isolate">
          <g id="Grupo_1031136" data-name="Grupo 1031136">
            <g id="Grupo_1031135" data-name="Grupo 1031135" clip-path="url(#clip-path-7)">
              <path id="Trazado_730701" data-name="Trazado 730701" d="M198.409,319.752c0,1.01.529,1.829,1.18,1.829s1.181-.819,1.181-1.829-.529-1.829-1.181-1.829-1.18.819-1.18,1.829" transform="translate(-198.409 -317.923)" fill="#fff"/>
            </g>
          </g>
        </g>
        <path id="Trazado_730702" data-name="Trazado 730702" d="M235.052,143.8h21.326a1.791,1.791,0,0,0,1.856-2.219l-4.877-23.7a2.926,2.926,0,0,0-2.768-2.219H229.262a4.978,4.978,0,0,0-5.159,6.17l3.251,15.8a8.138,8.138,0,0,0,7.7,6.17" transform="translate(-178.631 -59.422)" fill="#407bff"/>
        <g id="Grupo_1031140" data-name="Grupo 1031140" transform="translate(45.346 56.24)" opacity="0.2" style="isolation: isolate">
          <g id="Grupo_1031139" data-name="Grupo 1031139">
            <g id="Grupo_1031138" data-name="Grupo 1031138" clip-path="url(#clip-path-9)">
              <path id="Trazado_730703" data-name="Trazado 730703" d="M235.052,143.8h21.326a1.791,1.791,0,0,0,1.856-2.219l-4.877-23.7a2.926,2.926,0,0,0-2.768-2.219H229.262a4.978,4.978,0,0,0-5.159,6.17l3.251,15.8a8.138,8.138,0,0,0,7.7,6.17" transform="translate(-223.977 -115.662)" fill="#fff"/>
            </g>
          </g>
        </g>
        <path id="Trazado_730704" data-name="Trazado 730704" d="M223.505,143.749h27.032a1.791,1.791,0,0,0,1.856-2.219l-5.224-25.387a2.927,2.927,0,0,0-2.769-2.219H217.368a1.791,1.791,0,0,0-1.856,2.219l5.224,25.387a2.927,2.927,0,0,0,2.769,2.219" transform="translate(-168.653 -58.529)" fill="#407bff"/>
        <g id="Grupo_1031143" data-name="Grupo 1031143" transform="translate(47.728 56.256)" opacity="0.2" style="isolation: isolate">
          <g id="Grupo_1031142" data-name="Grupo 1031142">
            <g id="Grupo_1031141" data-name="Grupo 1031141" clip-path="url(#clip-path-10)">
              <path id="Trazado_730705" data-name="Trazado 730705" d="M217.371,117.055l.484,2.354,4.739,23.03a1.789,1.789,0,0,0,1.7,1.36h27.03a1.1,1.1,0,0,0,1.141-1.36l-5.227-25.384a1.789,1.789,0,0,0-1.7-1.361h-27.03a1.1,1.1,0,0,0-1.137,1.361" transform="translate(-217.343 -115.694)" fill="#115089"/>
            </g>
          </g>
        </g>
        <g id="Grupo_1031146" data-name="Grupo 1031146" transform="translate(47.728 56.256)" opacity="0.2" style="isolation: isolate">
          <g id="Grupo_1031145" data-name="Grupo 1031145">
            <g id="Grupo_1031144" data-name="Grupo 1031144" clip-path="url(#clip-path-11)">
              <path id="Trazado_730706" data-name="Trazado 730706" d="M217.371,117.055l.484,2.354c8.745-.17,25.3-.411,25.692.107.533.707,7.774,24.283,7.774,24.283a1.1,1.1,0,0,0,1.141-1.36l-5.227-25.384a1.789,1.789,0,0,0-1.7-1.361h-27.03a1.1,1.1,0,0,0-1.137,1.361" transform="translate(-217.343 -115.694)"/>
            </g>
          </g>
        </g>
        <path id="Trazado_730707" data-name="Trazado 730707" d="M185.977,178.353l2.282,66.324a2.361,2.361,0,0,0,2.363,2.278h34.884a2.354,2.354,0,0,0,2.358-2.278l2.282-66.324Z" transform="translate(-132.022 -91.629)" fill="#115089"/>
        <g id="Grupo_1031149" data-name="Grupo 1031149" transform="translate(53.955 86.724)" opacity="0.2" style="isolation: isolate">
          <g id="Grupo_1031148" data-name="Grupo 1031148">
            <g id="Grupo_1031147" data-name="Grupo 1031147" clip-path="url(#clip-path-12)">
              <path id="Trazado_730708" data-name="Trazado 730708" d="M241.2,178.353l2.282,66.324a2.361,2.361,0,0,0,2.363,2.278h8.033a2.354,2.354,0,0,0,2.358-2.278l2.282-66.324Z" transform="translate(-241.198 -178.353)"/>
            </g>
          </g>
        </g>
        <path id="Trazado_730709" data-name="Trazado 730709" d="M203.427,233.95l-1.77-3.063-.463.275.6-2.359,2.359.6-.524.311,1.783,3.087a3.007,3.007,0,0,1-2.6,4.511h-2.3l-.018-2.294h2.313a.714.714,0,0,0,.618-1.071" transform="translate(-114.75 -117.548)" fill="#fff"/>
        <path id="Trazado_730710" data-name="Trazado 730710" d="M212.473,220.976a.707.707,0,0,0-.618.357l-1.919,3.325.467.269-2.351.633-.632-2.351.528.3,1.921-3.326a3.007,3.007,0,0,1,5.209,0l1.318,2.281-1.974,1.168-1.33-2.3a.7.7,0,0,0-.618-.357" transform="translate(-128.697 -112.349)" fill="#fff"/>
        <path id="Trazado_730711" data-name="Trazado 730711" d="M213.895,234.943l1.139-1.974,2,1.128-1.151,1.993a.714.714,0,0,0,.618,1.071h3.53v-.544l1.721,1.721-1.721,1.721v-.605H216.5a3.007,3.007,0,0,1-2.6-4.511" transform="translate(-137.005 -119.689)" fill="#fff"/>
        <path id="Trazado_730712" data-name="Trazado 730712" d="M184.623,175.465v4.046a.759.759,0,0,0,.757.757h44.26a.756.756,0,0,0,.757-.757v-4.046a.755.755,0,0,0-.757-.756H185.38a.758.758,0,0,0-.757.756" transform="translate(-131.613 -89.757)" fill="#407bff"/>
        <g id="Grupo_1031152" data-name="Grupo 1031152" transform="translate(70.016 84.951)" opacity="0.2" style="isolation: isolate">
          <g id="Grupo_1031151" data-name="Grupo 1031151">
            <g id="Grupo_1031150" data-name="Grupo 1031150" clip-path="url(#clip-path-13)">
              <path id="Trazado_730713" data-name="Trazado 730713" d="M184.623,175.465v4.046a.759.759,0,0,0,.757.757h27.254a.755.755,0,0,0,.756-.757v-4.046a.755.755,0,0,0-.756-.756H185.38a.759.759,0,0,0-.757.756" transform="translate(-184.623 -174.709)" fill="#fff"/>
            </g>
          </g>
        </g>
      </g>
    </g>
    <g id="Grupo_1031177" data-name="Grupo 1031177">
      <g id="Grupo_1031176" data-name="Grupo 1031176" clip-path="url(#clip-path)">
        <path id="Trazado_730714" data-name="Trazado 730714" d="M286.258,162.11H305.44l-.951-1.259a6.92,6.92,0,0,0-5.5-2.739h-6.287a6.921,6.921,0,0,0-5.5,2.739Zm16.314-1.343H289.126a5.574,5.574,0,0,1,3.579-1.313h6.287a5.575,5.575,0,0,1,3.58,1.313" transform="translate(-256.076 -81.231)" fill="#263238"/>
        <path id="Trazado_730715" data-name="Trazado 730715" d="M261.032,169.2v1.669h43.477V169.2a7.148,7.148,0,0,0-7.152-7.147H268.179a7.147,7.147,0,0,0-7.147,7.147" transform="translate(-242.879 -83.256)" fill="#12263f"/>
        <g id="Grupo_1031157" data-name="Grupo 1031157" transform="translate(18.153 78.798)" opacity="0.2" style="isolation: isolate">
          <g id="Grupo_1031156" data-name="Grupo 1031156">
            <g id="Grupo_1031155" data-name="Grupo 1031155" clip-path="url(#clip-path-15)">
              <path id="Trazado_730716" data-name="Trazado 730716" d="M316.254,169.2v1.669H332.88V169.2a7.148,7.148,0,0,0-7.152-7.147H323.4a7.147,7.147,0,0,0-7.147,7.147" transform="translate(-316.254 -162.054)"/>
            </g>
          </g>
        </g>
        <path id="Trazado_730717" data-name="Trazado 730717" d="M283.82,319.476h27.353l.384-4.78H283.437Z" transform="translate(-260.822 -161.676)" fill="#263238"/>
        <g id="Grupo_1031160" data-name="Grupo 1031160" transform="translate(22.615 153.02)" opacity="0.2" style="isolation: isolate">
          <g id="Grupo_1031159" data-name="Grupo 1031159">
            <g id="Grupo_1031158" data-name="Grupo 1031158" clip-path="url(#clip-path-5)">
              <path id="Trazado_730718" data-name="Trazado 730718" d="M283.82,319.476h27.353l.384-4.78H283.437Z" transform="translate(-283.437 -314.696)"/>
            </g>
          </g>
        </g>
        <g id="Grupo_1031163" data-name="Grupo 1031163" transform="translate(25.118 153.02)" opacity="0.2" style="isolation: isolate">
          <g id="Grupo_1031162" data-name="Grupo 1031162">
            <g id="Grupo_1031161" data-name="Grupo 1031161" clip-path="url(#clip-path-6)">
              <path id="Trazado_730719" data-name="Trazado 730719" d="M283.752,319.476h24.919l.384-4.78H283.437Z" transform="translate(-283.437 -314.696)"/>
            </g>
          </g>
        </g>
        <path id="Trazado_730720" data-name="Trazado 730720" d="M314.878,317.923h1.342c.652,0,1.18.819,1.18,1.829s-.528,1.83-1.18,1.83h-1.342c-.652,0-1.18-.819-1.18-1.83s.529-1.829,1.18-1.829" transform="translate(-281.38 -163.334)" fill="#263238"/>
        <g id="Grupo_1031166" data-name="Grupo 1031166" transform="translate(32.318 154.589)" opacity="0.2" style="isolation: isolate">
          <g id="Grupo_1031165" data-name="Grupo 1031165">
            <g id="Grupo_1031164" data-name="Grupo 1031164" clip-path="url(#clip-path-7)">
              <path id="Trazado_730721" data-name="Trazado 730721" d="M316.459,319.752c0,1.01.529,1.829,1.18,1.829s1.181-.819,1.181-1.829-.529-1.829-1.181-1.829-1.18.819-1.18,1.829" transform="translate(-316.459 -317.923)" fill="#fff"/>
            </g>
          </g>
        </g>
        <path id="Trazado_730722" data-name="Trazado 730722" d="M270.458,317.923H271.8c.652,0,1.18.819,1.18,1.829s-.528,1.83-1.18,1.83h-1.343c-.652,0-1.18-.819-1.18-1.83s.529-1.829,1.18-1.829" transform="translate(-215.361 -163.334)" fill="#263238"/>
        <g id="Grupo_1031169" data-name="Grupo 1031169" transform="translate(53.917 154.589)" opacity="0.2" style="isolation: isolate">
          <g id="Grupo_1031168" data-name="Grupo 1031168">
            <g id="Grupo_1031167" data-name="Grupo 1031167" clip-path="url(#clip-path-19)">
              <path id="Trazado_730723" data-name="Trazado 730723" d="M272.038,319.752c0,1.01.529,1.829,1.18,1.829s1.181-.819,1.181-1.829-.529-1.829-1.181-1.829-1.18.819-1.18,1.829" transform="translate(-272.038 -317.923)" fill="#fff"/>
            </g>
          </g>
        </g>
        <path id="Trazado_730724" data-name="Trazado 730724" d="M259.605,178.353l2.282,66.324a2.361,2.361,0,0,0,2.363,2.278h34.885a2.355,2.355,0,0,0,2.359-2.278l2.282-66.324Z" transform="translate(-241.452 -91.629)" fill="#12263f"/>
        <g id="Grupo_1031172" data-name="Grupo 1031172" transform="translate(18.153 86.724)" opacity="0.2" style="isolation: isolate">
          <g id="Grupo_1031171" data-name="Grupo 1031171">
            <g id="Grupo_1031170" data-name="Grupo 1031170" clip-path="url(#clip-path-12)">
              <path id="Trazado_730725" data-name="Trazado 730725" d="M314.828,178.353l2.282,66.324a2.361,2.361,0,0,0,2.363,2.278h8.033a2.354,2.354,0,0,0,2.358-2.278l2.282-66.324Z" transform="translate(-314.828 -178.353)"/>
            </g>
          </g>
        </g>
        <path id="Trazado_730726" data-name="Trazado 730726" d="M277.056,233.95l-1.77-3.063-.463.275.6-2.359,2.359.6-.524.311,1.783,3.087a3.007,3.007,0,0,1-2.6,4.511h-2.3l-.018-2.294h2.313a.714.714,0,0,0,.618-1.071" transform="translate(-224.181 -117.548)" fill="#fff"/>
        <path id="Trazado_730727" data-name="Trazado 730727" d="M286.1,220.976a.707.707,0,0,0-.618.357l-1.919,3.325.467.269-2.351.633-.632-2.351.528.3,1.921-3.326a3.007,3.007,0,0,1,5.209,0l1.318,2.281-1.974,1.168-1.33-2.3a.7.7,0,0,0-.618-.357" transform="translate(-238.128 -112.349)" fill="#fff"/>
        <path id="Trazado_730728" data-name="Trazado 730728" d="M287.524,234.943l1.139-1.974,2,1.128-1.151,1.993a.714.714,0,0,0,.618,1.071h3.53v-.544l1.721,1.721-1.721,1.721v-.605h-3.53a3.007,3.007,0,0,1-2.6-4.511" transform="translate(-246.438 -119.689)" fill="#fff"/>
        <path id="Trazado_730729" data-name="Trazado 730729" d="M258.252,175.465v4.046a.759.759,0,0,0,.757.757h44.26a.756.756,0,0,0,.757-.757v-4.046a.755.755,0,0,0-.757-.756h-44.26a.758.758,0,0,0-.757.756" transform="translate(-241.044 -89.757)" fill="#263238"/>
        <g id="Grupo_1031175" data-name="Grupo 1031175" transform="translate(34.214 84.951)" opacity="0.2" style="isolation: isolate">
          <g id="Grupo_1031174" data-name="Grupo 1031174">
            <g id="Grupo_1031173" data-name="Grupo 1031173" clip-path="url(#clip-path-13)">
              <path id="Trazado_730730" data-name="Trazado 730730" d="M258.253,175.465v4.046a.759.759,0,0,0,.757.757h27.254a.755.755,0,0,0,.756-.757v-4.046a.755.755,0,0,0-.756-.756H259.01a.758.758,0,0,0-.757.756" transform="translate(-258.253 -174.709)" fill="#fff"/>
            </g>
          </g>
        </g>
      </g>
    </g>
    <g id="Grupo_1031224" data-name="Grupo 1031224">
      <g id="Grupo_1031223" data-name="Grupo 1031223" clip-path="url(#clip-path)">
        <path id="Trazado_730731" data-name="Trazado 730731" d="M80.183,207.8l-.481-1.5,2.626-.842.481,1.5a1.5,1.5,0,0,0,.81.91,1.5,1.5,0,0,1,.81.91L87.2,217.4a.8.8,0,0,1-.515,1l-2.987.958a.8.8,0,0,1-1-.515l-2.766-8.625a1.5,1.5,0,0,1,.129-1.211,1.5,1.5,0,0,0,.13-1.211" transform="translate(62.567 -105.553)" fill="#407bff"/>
        <g id="Grupo_1031180" data-name="Grupo 1031180" transform="translate(142.269 99.902)" opacity="0.2" style="isolation: isolate">
          <g id="Grupo_1031179" data-name="Grupo 1031179">
            <g id="Grupo_1031178" data-name="Grupo 1031178" clip-path="url(#clip-path-23)">
              <path id="Trazado_730732" data-name="Trazado 730732" d="M80.183,207.8l-.481-1.5,2.626-.842.481,1.5a1.5,1.5,0,0,0,.81.91,1.5,1.5,0,0,1,.81.91L87.2,217.4a.8.8,0,0,1-.515,1l-2.987.958a.8.8,0,0,1-1-.515l-2.766-8.625a1.5,1.5,0,0,1,.129-1.211,1.5,1.5,0,0,0,.13-1.211" transform="translate(-79.702 -205.455)"/>
            </g>
          </g>
        </g>
        <g id="Grupo_1031183" data-name="Grupo 1031183" transform="translate(142.269 99.902)" opacity="0.5" style="isolation: isolate">
          <g id="Grupo_1031182" data-name="Grupo 1031182">
            <g id="Grupo_1031181" data-name="Grupo 1031181" clip-path="url(#clip-path-24)">
              <path id="Trazado_730733" data-name="Trazado 730733" d="M84.99,212.293l-.665-2.073a1.5,1.5,0,0,1,.129-1.211,1.505,1.505,0,0,0,.13-1.211l-.481-1.5,2.626-.842.481,1.5a1.5,1.5,0,0,0,.81.91,1.5,1.5,0,0,1,.81.91l.665,2.072Z" transform="translate(-84.103 -205.455)" fill="#fff"/>
            </g>
          </g>
        </g>
        <g id="Grupo_1031186" data-name="Grupo 1031186" transform="translate(144.124 108.311)" opacity="0.6" style="isolation: isolate">
          <g id="Grupo_1031185" data-name="Grupo 1031185">
            <g id="Grupo_1031184" data-name="Grupo 1031184" clip-path="url(#clip-path-25)">
              <path id="Trazado_730734" data-name="Trazado 730734" d="M84.206,222.749l1.134,3.536a.8.8,0,0,1-.516,1l-2.987.958a.8.8,0,0,1-1-.516L79.7,224.194Z" transform="translate(-79.701 -222.749)" fill="#fff"/>
            </g>
          </g>
        </g>
        <path id="Trazado_730735" data-name="Trazado 730735" d="M89.49,206.617l2.611-.837a.256.256,0,0,0,.166-.322l-.222-.692a.257.257,0,0,0-.323-.166l-2.61.837a.256.256,0,0,0-.166.322l.222.692a.256.256,0,0,0,.322.166" transform="translate(53.033 -105.108)" fill="#407bff"/>
        <path id="Trazado_730736" data-name="Trazado 730736" d="M62,212.867l-.481-1.5,2.626-.842.481,1.5a1.5,1.5,0,0,0,.81.91,1.5,1.5,0,0,1,.81.91l2.766,8.624a.8.8,0,0,1-.515,1l-2.987.958a.8.8,0,0,1-1-.515l-2.766-8.625a1.5,1.5,0,0,1,.13-1.211A1.505,1.505,0,0,0,62,212.867" transform="translate(89.587 -108.157)" fill="#407bff"/>
        <g id="Grupo_1031189" data-name="Grupo 1031189" transform="translate(151.109 102.367)" opacity="0.2" style="isolation: isolate">
          <g id="Grupo_1031188" data-name="Grupo 1031188">
            <g id="Grupo_1031187" data-name="Grupo 1031187" clip-path="url(#clip-path-26)">
              <path id="Trazado_730737" data-name="Trazado 730737" d="M62,212.867l-.481-1.5,2.626-.842.481,1.5a1.5,1.5,0,0,0,.81.91,1.5,1.5,0,0,1,.81.91l2.766,8.624a.8.8,0,0,1-.515,1l-2.987.958a.8.8,0,0,1-1-.515l-2.766-8.625a1.5,1.5,0,0,1,.13-1.211A1.505,1.505,0,0,0,62,212.867" transform="translate(-61.522 -210.524)"/>
            </g>
          </g>
        </g>
        <g id="Grupo_1031192" data-name="Grupo 1031192" transform="translate(151.109 102.367)" opacity="0.5" style="isolation: isolate">
          <g id="Grupo_1031191" data-name="Grupo 1031191">
            <g id="Grupo_1031190" data-name="Grupo 1031190" clip-path="url(#clip-path-24)">
              <path id="Trazado_730738" data-name="Trazado 730738" d="M66.809,217.362l-.664-2.073a1.5,1.5,0,0,1,.129-1.211,1.5,1.5,0,0,0,.129-1.211l-.481-1.5,2.626-.842.481,1.5a1.5,1.5,0,0,0,.81.91,1.5,1.5,0,0,1,.81.909l.664,2.073Z" transform="translate(-65.923 -210.524)" fill="#fff"/>
            </g>
          </g>
        </g>
        <g id="Grupo_1031195" data-name="Grupo 1031195" transform="translate(152.964 110.775)" opacity="0.6" style="isolation: isolate">
          <g id="Grupo_1031194" data-name="Grupo 1031194">
            <g id="Grupo_1031193" data-name="Grupo 1031193" clip-path="url(#clip-path-25)">
              <path id="Trazado_730739" data-name="Trazado 730739" d="M66.026,227.817l1.134,3.536a.8.8,0,0,1-.516,1l-2.987.958a.8.8,0,0,1-1-.516l-1.134-3.535Z" transform="translate(-61.521 -227.817)" fill="#fff"/>
            </g>
          </g>
        </g>
        <path id="Trazado_730740" data-name="Trazado 730740" d="M71.311,211.686l2.611-.837a.256.256,0,0,0,.166-.322l-.222-.692a.256.256,0,0,0-.322-.166l-2.61.837a.256.256,0,0,0-.166.322l.222.692a.256.256,0,0,0,.322.166" transform="translate(80.053 -107.712)" fill="#407bff"/>
        <path id="Trazado_730741" data-name="Trazado 730741" d="M75.945,204.777l.1-1.573,2.752.172-.1,1.573a1.5,1.5,0,0,0,.423,1.142,1.5,1.5,0,0,1,.423,1.142l-.789,12.613a.8.8,0,0,1-.846.746l-3.13-.2a.8.8,0,0,1-.746-.846l.79-12.612a1.5,1.5,0,0,1,.562-1.081,1.5,1.5,0,0,0,.562-1.08" transform="translate(73.013 -104.397)" fill="#407bff"/>
        <g id="Grupo_1031198" data-name="Grupo 1031198" transform="translate(147.586 98.807)" opacity="0.6" style="isolation: isolate">
          <g id="Grupo_1031197" data-name="Grupo 1031197">
            <g id="Grupo_1031196" data-name="Grupo 1031196" clip-path="url(#clip-path-29)">
              <path id="Trazado_730742" data-name="Trazado 730742" d="M74.03,210.9l.248-3.959a1.5,1.5,0,0,1,.562-1.081,1.5,1.5,0,0,0,.562-1.08l.1-1.573,2.752.172-.1,1.573a1.5,1.5,0,0,0,.423,1.142A1.506,1.506,0,0,1,79,207.234l-.248,3.96Z" transform="translate(-74.03 -203.204)" fill="#fff"/>
            </g>
          </g>
        </g>
        <g id="Grupo_1031201" data-name="Grupo 1031201" transform="translate(147.043 111.448)" opacity="0.6" style="isolation: isolate">
          <g id="Grupo_1031200" data-name="Grupo 1031200">
            <g id="Grupo_1031199" data-name="Grupo 1031199" clip-path="url(#clip-path-30)">
              <path id="Trazado_730743" data-name="Trazado 730743" d="M80.138,229.5l-.232,3.706a.8.8,0,0,1-.846.746l-3.13-.2a.8.8,0,0,1-.746-.846l.232-3.706Z" transform="translate(-75.183 -229.201)" fill="#fff"/>
            </g>
          </g>
        </g>
        <path id="Trazado_730744" data-name="Trazado 730744" d="M75.279,203.552l2.736.171a.256.256,0,0,0,.272-.24l.046-.725a.256.256,0,0,0-.24-.272l-2.736-.172a.256.256,0,0,0-.272.24l-.045.725a.256.256,0,0,0,.24.272" transform="translate(73.735 -103.94)" fill="#407bff"/>
        <path id="Trazado_730745" data-name="Trazado 730745" d="M66.14,215.139l1.02-1.2,2.1,1.785-1.02,1.2a1.5,1.5,0,0,0-.345,1.168,1.5,1.5,0,0,1-.345,1.168l-8.179,9.634a.8.8,0,0,1-1.124.091l-2.391-2.03a.8.8,0,0,1-.092-1.124l8.18-9.634a1.5,1.5,0,0,1,1.1-.53,1.5,1.5,0,0,0,1.1-.53" transform="translate(92.268 -109.911)" fill="#407bff"/>
        <g id="Grupo_1031204" data-name="Grupo 1031204" transform="translate(153.648 104.027)" opacity="0.6" style="isolation: isolate">
          <g id="Grupo_1031203" data-name="Grupo 1031203">
            <g id="Grupo_1031202" data-name="Grupo 1031202" clip-path="url(#clip-path-31)">
              <path id="Trazado_730746" data-name="Trazado 730746" d="M55.578,219.223l2.567-3.024a1.5,1.5,0,0,1,1.1-.53,1.5,1.5,0,0,0,1.1-.53l1.02-1.2,2.1,1.785-1.02,1.2a1.5,1.5,0,0,0-.345,1.168,1.5,1.5,0,0,1-.344,1.168l-2.568,3.024Z" transform="translate(-55.578 -213.938)" fill="#fff"/>
            </g>
          </g>
        </g>
        <g id="Grupo_1031207" data-name="Grupo 1031207" transform="translate(147.846 113.09)" opacity="0.6" style="isolation: isolate">
          <g id="Grupo_1031206" data-name="Grupo 1031206">
            <g id="Grupo_1031205" data-name="Grupo 1031205" clip-path="url(#clip-path-32)">
              <path id="Trazado_730747" data-name="Trazado 730747" d="M77.172,235.639l-2.4,2.831a.8.8,0,0,1-1.124.091l-2.39-2.03a.8.8,0,0,1-.092-1.124l2.4-2.83Z" transform="translate(-70.973 -232.577)" fill="#fff"/>
            </g>
          </g>
        </g>
        <path id="Trazado_730748" data-name="Trazado 730748" d="M54.919,214.151l2.09,1.774a.256.256,0,0,0,.361-.03l.47-.553a.257.257,0,0,0-.03-.362l-2.089-1.774a.257.257,0,0,0-.362.03l-.47.554a.256.256,0,0,0,.03.361" transform="translate(103.994 -109.504)" fill="#407bff"/>
        <path id="Trazado_730749" data-name="Trazado 730749" d="M66.9,269.99s-23.983-.9-26.624-.9-.6-2.16-.6-2.16-.433-7.4,0-10.233S47.6,233.913,52.706,229.2s5.05-6.492,5.05-6.492-.8.175-.8-1.338c0-1.358,5.466-3.556,9.405-3.85,2.646-.2,8.808,2.051,11.817,2.242s10.818,10.192,9.679,12.073c-.385.635-6.964-1.376-6.964-1.376a56.326,56.326,0,0,0,1.358,9.25c1.062,4.072,3.718,11.143,3.718,15.132s-3.364,11.98-3.364,11.98,1.416.955,1.416,1.756-4.426.448-4.426.448-8.444.969-12.693.969" transform="translate(81.664 -111.744)" fill="#263238"/>
        <g id="Grupo_1031210" data-name="Grupo 1031210" transform="translate(120.586 105.762)" opacity="0.5" style="isolation: isolate">
          <g id="Grupo_1031209" data-name="Grupo 1031209">
            <g id="Grupo_1031208" data-name="Grupo 1031208" clip-path="url(#clip-path-33)">
              <path id="Trazado_730750" data-name="Trazado 730750" d="M40.278,269.1c2.64,0,26.623.9,26.623.9,4.247,0,12.692-.971,12.692-.971s4.426.353,4.426-.448-1.414-1.754-1.414-1.754,1.154-2.743,2.108-5.813a23.64,23.64,0,0,0,1.253-6.167c0-3.987-2.654-11.063-3.714-15.131a56.167,56.167,0,0,1-1.361-9.255l0,0a52.278,52.278,0,0,0,5.836,1.446c.6.081,1.034.076,1.123-.071,1.141-1.88-6.668-11.882-9.676-12.074s-9.17-2.439-11.819-2.238c-3.938.291-9.4,2.489-9.4,3.849,0,1.513.8,1.338.8,1.338s.058,1.772-5.048,6.489-12.6,24.672-13.028,27.505a20.971,20.971,0,0,0-.17,2.3c-.1,3.334.17,7.935.17,7.935s-2.05,2.161.6,2.161" transform="translate(-38.925 -217.508)" fill="#afafaf"/>
            </g>
          </g>
        </g>
        <g id="Grupo_1031213" data-name="Grupo 1031213" transform="translate(158.264 112.954)" opacity="0.2" style="isolation: isolate">
          <g id="Grupo_1031212" data-name="Grupo 1031212">
            <g id="Grupo_1031211" data-name="Grupo 1031211" clip-path="url(#clip-path-34)">
              <path id="Trazado_730751" data-name="Trazado 730751" d="M41.469,232.3c1.839,1.087,4.287,5.755,4.287,5.755l0,0A52.275,52.275,0,0,0,51.6,239.5c-2.56-3.97-8.293-6.48-10.128-7.205" transform="translate(-41.469 -232.297)"/>
            </g>
          </g>
        </g>
        <g id="Grupo_1031216" data-name="Grupo 1031216" transform="translate(157.696 112.739)" opacity="0.2" style="isolation: isolate">
          <g id="Grupo_1031215" data-name="Grupo 1031215">
            <g id="Grupo_1031214" data-name="Grupo 1031214" clip-path="url(#clip-path-35)">
              <path id="Trazado_730752" data-name="Trazado 730752" d="M62.3,231.855c.045.013.246.085.568.215a1.513,1.513,0,0,0-.568-.215" transform="translate(-62.296 -231.855)"/>
            </g>
          </g>
        </g>
        <g id="Grupo_1031219" data-name="Grupo 1031219" transform="translate(139.419 106.66)" opacity="0.2" style="isolation: isolate">
          <g id="Grupo_1031218" data-name="Grupo 1031218">
            <g id="Grupo_1031217" data-name="Grupo 1031217" clip-path="url(#clip-path-36)">
              <path id="Trazado_730753" data-name="Trazado 730753" d="M64.642,223.655s5.48-2.592,7.638-2.946,10.066,2.36,10.066,2.36-7.386-4.249-10.066-3.659-6.867,2.511-7.638,4.245" transform="translate(-64.642 -219.354)"/>
            </g>
          </g>
        </g>
        <g id="Grupo_1031222" data-name="Grupo 1031222" transform="translate(120.586 147.127)" opacity="0.2" style="isolation: isolate">
          <g id="Grupo_1031221" data-name="Grupo 1031221">
            <g id="Grupo_1031220" data-name="Grupo 1031220" clip-path="url(#clip-path-37)">
              <path id="Trazado_730754" data-name="Trazado 730754" d="M46.971,312.8c2.64,0,26.623.9,26.623.9,4.247,0,12.692-.971,12.692-.971s4.426.354,4.426-.448-1.414-1.754-1.414-1.754,1.154-2.743,2.108-5.813c-4.73,2.775-11.475,5.885-18.1,6,0,0,8.914-3.836,10.83-8.132,0,0-12.808,6.8-16.067,6.977s-16.361,1.436-17.543-.371c-.739-1.132-2.842-4.279-4.319-6.476-.1,3.334.17,7.935.17,7.935s-2.05,2.161.6,2.161" transform="translate(-45.619 -302.577)"/>
            </g>
          </g>
        </g>
      </g>
    </g>
    <g id="Grupo_1031271" data-name="Grupo 1031271">
      <g id="Grupo_1031270" data-name="Grupo 1031270" clip-path="url(#clip-path)">
        <path id="Trazado_730755" data-name="Trazado 730755" d="M156.44,252.64l-2.39.038a359.758,359.758,0,0,1-5.214-36.167c-.167-1.669-.319-3.248-.453-4.722-.062-.7-.124-1.374-.181-2.023-.286-3.2-.482-5.738-.6-7.308-.086-1.145-.129-1.774-.129-1.774h8.634l-.081,2.2-.267,7.26-.029.83-.181,4.794-.3,8.162c2.962,11.491,1.192,28.711,1.192,28.711" transform="translate(-40.117 -103.103)" fill="#ebb376"/>
        <path id="Trazado_730756" data-name="Trazado 730756" d="M126.4,252.241l-2.351.443c-4.708-11.768-9.13-26.836-12.006-37.364-.443-1.631-.854-3.158-1.221-4.541-.019-.071-.034-.138-.053-.205-.725-2.747-1.283-4.937-1.631-6.325-.267-1.087-.415-1.684-.415-1.684l8.51-1.469.482,3.577.711,5.257.138,1.03.482,3.582,1.293,9.607c4.875,10.818,6.063,28.091,6.063,28.091" transform="translate(9.289 -103.314)" fill="#ebb376"/>
        <g id="Grupo_1031227" data-name="Grupo 1031227" transform="translate(118.427 100.936)" opacity="0.2" style="isolation: isolate">
          <g id="Grupo_1031226" data-name="Grupo 1031226">
            <g id="Grupo_1031225" data-name="Grupo 1031225" clip-path="url(#clip-path-39)">
              <path id="Trazado_730757" data-name="Trazado 730757" d="M134.412,213.262l-7.6.849c-.019-.071-.034-.138-.053-.205-.725-2.747-1.283-4.937-1.631-6.325l8.576.424Z" transform="translate(-125.125 -207.581)"/>
            </g>
          </g>
        </g>
        <g id="Grupo_1031230" data-name="Grupo 1031230" transform="translate(107.484 99.357)" opacity="0.2" style="isolation: isolate">
          <g id="Grupo_1031229" data-name="Grupo 1031229">
            <g id="Grupo_1031228" data-name="Grupo 1031228" clip-path="url(#clip-path-40)">
              <path id="Trazado_730758" data-name="Trazado 730758" d="M157.829,204.759l-.267,7.26-.029.83-7.346.815c-.062-.7-.124-1.374-.181-2.022-.286-3.2-.482-5.739-.6-7.308Z" transform="translate(-149.405 -204.335)"/>
            </g>
          </g>
        </g>
        <path id="Trazado_730759" data-name="Trazado 730759" d="M145.918,315.5a4.7,4.7,0,0,1,1.5-.814s1.626-1.613,2.409-6.471l2.13-.555a1.814,1.814,0,0,1,1.937.756,1.023,1.023,0,0,1,.136.28,12.333,12.333,0,0,1,.228,1.578,43.946,43.946,0,0,1,.031,5.335H153.9l-.153-3.349c-.057-1.137-.927.2-1.176,1.421s-.778,2.527-3.271,2.589c-2.908.057-4.115-.057-3.38-.77" transform="translate(-36.65 -158.036)" fill="#12263f"/>
        <path id="Trazado_730760" data-name="Trazado 730760" d="M150.684,306.062c.14-1.137.184-3.113.184-3.113l-4.731.525a9.126,9.126,0,0,1,.1,3.936c2.383-.625,4.447-1.347,4.447-1.347" transform="translate(-33.371 -155.641)" fill="#12263f"/>
        <path id="Trazado_730761" data-name="Trazado 730761" d="M106.326,315.5a4.707,4.707,0,0,1,1.5-.814s1.627-1.613,2.409-6.471l2.13-.555a1.814,1.814,0,0,1,1.937.756,1.023,1.023,0,0,1,.136.28,12.427,12.427,0,0,1,.228,1.578,43.916,43.916,0,0,1,.03,5.335h-.385l-.153-3.349c-.056-1.137-.927.2-1.176,1.421s-.778,2.527-3.27,2.589c-2.908.057-4.115-.057-3.38-.77" transform="translate(22.193 -158.036)" fill="#12263f"/>
        <path id="Trazado_730762" data-name="Trazado 730762" d="M111.092,306.062c.14-1.137.184-3.113.184-3.113l-4.731.525a9.126,9.126,0,0,1,.1,3.936c2.383-.625,4.447-1.347,4.447-1.347" transform="translate(25.472 -155.641)" fill="#12263f"/>
        <path id="Trazado_730763" data-name="Trazado 730763" d="M146.119,182.748l-9,1.149-.348.043-1.851-6.783-.486,7.269-9.645-.506c-4.3-25.219,3.048-31.177,3.048-31.177l13.084,2.633c5.926,10.072,4.516,21.78,4.516,21.78Z" transform="translate(-17.584 -78.473)" fill="#407bff"/>
        <g id="Grupo_1031233" data-name="Grupo 1031233" transform="translate(105.854 74.271)" opacity="0.5" style="isolation: isolate">
          <g id="Grupo_1031232" data-name="Grupo 1031232">
            <g id="Grupo_1031231" data-name="Grupo 1031231" clip-path="url(#clip-path-41)">
              <path id="Trazado_730764" data-name="Trazado 730764" d="M146.119,182.748l-9,1.149-.348.043-1.851-6.783-.486,7.269-9.645-.506c-4.3-25.219,3.048-31.177,3.048-31.177l13.084,2.633c5.926,10.072,4.516,21.78,4.516,21.78Z" transform="translate(-123.438 -152.745)" fill="#d2e1f1"/>
            </g>
          </g>
        </g>
        <g id="Grupo_1031236" data-name="Grupo 1031236" transform="translate(117.335 88.376)" opacity="0.2" style="isolation: isolate">
          <g id="Grupo_1031235" data-name="Grupo 1031235">
            <g id="Grupo_1031234" data-name="Grupo 1031234" clip-path="url(#clip-path-42)">
              <path id="Trazado_730765" data-name="Trazado 730765" d="M139.2,198.8l-.348.043-1.851-6.783s3.969-6.778,2.729-10.308c.177.248,4.451,6.588-.53,17.048" transform="translate(-137.006 -181.752)"/>
            </g>
          </g>
        </g>
        <path id="Trazado_730766" data-name="Trazado 730766" d="M83.844,117.938l-.481-1.5,2.626-.842.481,1.5a1.5,1.5,0,0,0,.81.91,1.5,1.5,0,0,1,.81.91l2.766,8.624a.8.8,0,0,1-.515,1l-2.987.958a.8.8,0,0,1-1-.515l-2.766-8.625a1.5,1.5,0,0,1,.13-1.211,1.505,1.505,0,0,0,.129-1.211" transform="translate(57.126 -59.387)" fill="#407bff"/>
        <g id="Grupo_1031239" data-name="Grupo 1031239" transform="translate(140.489 56.208)" opacity="0.2" style="isolation: isolate">
          <g id="Grupo_1031238" data-name="Grupo 1031238">
            <g id="Grupo_1031237" data-name="Grupo 1031237" clip-path="url(#clip-path-23)">
              <path id="Trazado_730767" data-name="Trazado 730767" d="M83.844,117.938l-.481-1.5,2.626-.842.481,1.5a1.5,1.5,0,0,0,.81.91,1.5,1.5,0,0,1,.81.91l2.766,8.624a.8.8,0,0,1-.515,1l-2.987.958a.8.8,0,0,1-1-.515l-2.766-8.625a1.5,1.5,0,0,1,.13-1.211,1.505,1.505,0,0,0,.129-1.211" transform="translate(-83.363 -115.595)"/>
            </g>
          </g>
        </g>
        <g id="Grupo_1031242" data-name="Grupo 1031242" transform="translate(140.489 56.208)" opacity="0.5" style="isolation: isolate">
          <g id="Grupo_1031241" data-name="Grupo 1031241">
            <g id="Grupo_1031240" data-name="Grupo 1031240" clip-path="url(#clip-path-24)">
              <path id="Trazado_730768" data-name="Trazado 730768" d="M88.65,122.433l-.665-2.073a1.5,1.5,0,0,1,.129-1.211,1.505,1.505,0,0,0,.13-1.211l-.481-1.5,2.626-.842.481,1.5a1.5,1.5,0,0,0,.81.91,1.5,1.5,0,0,1,.81.91l.665,2.072Z" transform="translate(-87.763 -115.595)" fill="#fff"/>
            </g>
          </g>
        </g>
        <g id="Grupo_1031245" data-name="Grupo 1031245" transform="translate(142.344 64.616)" opacity="0.6" style="isolation: isolate">
          <g id="Grupo_1031244" data-name="Grupo 1031244">
            <g id="Grupo_1031243" data-name="Grupo 1031243" clip-path="url(#clip-path-45)">
              <path id="Trazado_730769" data-name="Trazado 730769" d="M87.868,132.888,89,136.424a.8.8,0,0,1-.515,1l-2.987.958a.8.8,0,0,1-1-.516l-1.134-3.535Z" transform="translate(-83.363 -132.888)" fill="#fff"/>
            </g>
          </g>
        </g>
        <path id="Trazado_730770" data-name="Trazado 730770" d="M93.151,116.756l2.61-.837a.257.257,0,0,0,.166-.322l-.222-.692a.256.256,0,0,0-.322-.166l-2.611.837a.256.256,0,0,0-.166.322l.222.692a.256.256,0,0,0,.322.166" transform="translate(47.593 -58.941)" fill="#407bff"/>
        <path id="Trazado_730771" data-name="Trazado 730771" d="M190.069,87.523l.1-1.573,2.752.172-.1,1.573a1.5,1.5,0,0,0,.423,1.142,1.5,1.5,0,0,1,.423,1.142l-.79,12.613a.8.8,0,0,1-.845.746l-3.13-.2a.8.8,0,0,1-.746-.846l.79-12.612a1.5,1.5,0,0,1,.562-1.081,1.5,1.5,0,0,0,.562-1.08" transform="translate(-96.603 -44.157)" fill="#407bff"/>
        <g id="Grupo_1031248" data-name="Grupo 1031248" transform="translate(92.094 41.793)" opacity="0.6" style="isolation: isolate">
          <g id="Grupo_1031247" data-name="Grupo 1031247">
            <g id="Grupo_1031246" data-name="Grupo 1031246" clip-path="url(#clip-path-29)">
              <path id="Trazado_730772" data-name="Trazado 730772" d="M188.154,93.643l.248-3.959a1.5,1.5,0,0,1,.562-1.081,1.5,1.5,0,0,0,.562-1.08l.1-1.573,2.752.172-.1,1.573a1.5,1.5,0,0,0,.423,1.142,1.506,1.506,0,0,1,.423,1.142l-.248,3.96Z" transform="translate(-188.154 -85.95)" fill="#fff"/>
            </g>
          </g>
        </g>
        <g id="Grupo_1031251" data-name="Grupo 1031251" transform="translate(91.551 54.434)" opacity="0.6" style="isolation: isolate">
          <g id="Grupo_1031250" data-name="Grupo 1031250">
            <g id="Grupo_1031249" data-name="Grupo 1031249" clip-path="url(#clip-path-30)">
              <path id="Trazado_730773" data-name="Trazado 730773" d="M194.262,112.243l-.231,3.706a.8.8,0,0,1-.846.745l-3.13-.2a.8.8,0,0,1-.745-.846l.232-3.706Z" transform="translate(-189.307 -111.947)" fill="#fff"/>
            </g>
          </g>
        </g>
        <path id="Trazado_730774" data-name="Trazado 730774" d="M189.4,86.3l2.736.171a.256.256,0,0,0,.272-.24l.046-.725a.257.257,0,0,0-.24-.272l-2.736-.171a.256.256,0,0,0-.272.24l-.045.725a.256.256,0,0,0,.24.271" transform="translate(-95.882 -43.701)" fill="#407bff"/>
        <path id="Trazado_730775" data-name="Trazado 730775" d="M84.818,129.9a12.818,12.818,0,0,0,0-1.464c-.05-.65,3.226-4.209,3.757-4.023s1.682,2.464,1.328,3.228a12.649,12.649,0,0,1-3.541,3.243c-.62.177-1.544-.984-1.544-.984" transform="translate(57.344 -63.913)" fill="#ebb376"/>
        <path id="Trazado_730776" data-name="Trazado 730776" d="M96.309,126.012s1.445,7.338,3.041,8.817,8.861-6.042,8.861-6.042l1.431,1.529s-7.163,9.452-11,7.839-6.9-10.183-6.9-10.183Z" transform="translate(34.307 -64.739)" fill="#ebb376"/>
        <path id="Trazado_730777" data-name="Trazado 730777" d="M122.465,119.813l2.444,5.679-5.463,3.736-3.78-3.736Z" transform="translate(7.406 -61.554)" fill="#407bff"/>
        <g id="Grupo_1031254" data-name="Grupo 1031254" transform="translate(123.072 58.259)" opacity="0.2" style="isolation: isolate">
          <g id="Grupo_1031253" data-name="Grupo 1031253">
            <g id="Grupo_1031252" data-name="Grupo 1031252" clip-path="url(#clip-path-48)">
              <path id="Trazado_730778" data-name="Trazado 730778" d="M124.907,125.493l-3.235,2.215-2.229,1.521-1.83-1.812-1.947-1.925,6.8-5.679Z" transform="translate(-115.665 -119.814)" fill="#fff"/>
            </g>
          </g>
        </g>
        <g id="Grupo_1031257" data-name="Grupo 1031257" transform="translate(125.019 61.11)" opacity="0.2" style="isolation: isolate">
          <g id="Grupo_1031256" data-name="Grupo 1031256">
            <g id="Grupo_1031255" data-name="Grupo 1031255" clip-path="url(#clip-path-49)">
              <path id="Trazado_730779" data-name="Trazado 730779" d="M126.078,130.72l-2.228,1.521-1.831-1.812c1.728-2.448,3.683-4.753,3.683-4.753a11.082,11.082,0,0,1,.376,5.043" transform="translate(-122.019 -125.677)"/>
            </g>
          </g>
        </g>
        <path id="Trazado_730780" data-name="Trazado 730780" d="M173.283,113.638s-4.949,5.607-7.074,6.079-4.6-9.687-4.6-9.687l-2.006.6s1.416,11.775,5.547,12.32,11.095-5.312,11.095-5.312Z" transform="translate(-65.291 -56.528)" fill="#ebb376"/>
        <path id="Trazado_730781" data-name="Trazado 730781" d="M151.1,89.742a8.763,8.763,0,0,1-.975,1.86,1.139,1.139,0,0,0,1.144.324Z" transform="translate(-35.717 -46.105)" fill="#d58745"/>
        <path id="Trazado_730782" data-name="Trazado 730782" d="M149.916,86.946c-.023.34.142.628.368.643s.429-.248.452-.587-.142-.628-.368-.643-.429.247-.452.587" transform="translate(-35.077 -44.367)" fill="#263238"/>
        <path id="Trazado_730783" data-name="Trazado 730783" d="M151.2,86.047l-.719-.34s.325.647.719.34" transform="translate(-35.818 -44.032)" fill="#263238"/>
        <path id="Trazado_730784" data-name="Trazado 730784" d="M150.436,82.864a1.934,1.934,0,0,0-1.665.267" transform="translate(-34.22 -42.53)" fill="none" stroke="#263238" stroke-linecap="round" stroke-linejoin="round" stroke-width="0.725"/>
        <ellipse id="Elipse_8454" data-name="Elipse 8454" cx="0.981" cy="1.793" rx="0.981" ry="1.793" transform="translate(114.181 41.058)" fill="none" stroke="#263238" stroke-linecap="round" stroke-linejoin="round" stroke-width="0.5"/>
        <path id="Trazado_730785" data-name="Trazado 730785" d="M137.744,87.676a.688.688,0,0,1-.114.083,5.213,5.213,0,0,1-1.828.894c-1.932.446-3.253.181-4.115-.693h0c-1.207-1.312-1.508-3.636-1.338-6.439a10.515,10.515,0,0,1,.612-3.274c0-.009,0-.041.009-.05.018-.035.03-.084.048-.119a3.826,3.826,0,0,1,2.812-2.335,7.754,7.754,0,0,1,1.657-.186c5.465-.057,6.449,9,2.261,12.118" transform="translate(-15.139 -38.818)" fill="#ebb376"/>
        <g id="Grupo_1031260" data-name="Grupo 1031260" transform="translate(116.549 48.514)" opacity="0.2" style="isolation: isolate">
          <g id="Grupo_1031259" data-name="Grupo 1031259">
            <g id="Grupo_1031258" data-name="Grupo 1031258" clip-path="url(#clip-path-50)">
              <path id="Trazado_730786" data-name="Trazado 730786" d="M141.808,100.2a5.083,5.083,0,0,1-1.828.818c-1.933.446-3.253.118-4.115-.77a5.447,5.447,0,0,0,3.467-.284,2.844,2.844,0,0,1,2.475.236" transform="translate(-135.866 -99.772)"/>
            </g>
          </g>
        </g>
        <path id="Trazado_730787" data-name="Trazado 730787" d="M138.556,103.976c.336,1.556-1.679,2.191-1.679,2.191-3.3-1.408-3.909-3.161-3.909-3.161,2.75-1.434,1.954-5.492,1.954-5.492l.56.276,3.928.768s-1.09,2.091-1.234,2.568c0,0,0,.009,0,.013-.739,2.492.385,2.838.385,2.838" transform="translate(-15.509 -50.098)" fill="#ebb376"/>
        <path id="Trazado_730788" data-name="Trazado 730788" d="M124.443,76.712a5.746,5.746,0,0,0,3.331,5.479s1.56,3.982,3.856,4.038c3.13.077,5.889-4.378,4.805-8.914-1.406-5.883-10.319-6.362-11.992-.6" transform="translate(-8.626 -37.318)" fill="#12263f"/>
        <path id="Trazado_730789" data-name="Trazado 730789" d="M141.946,88.459c0-.6.482-1.6,1.411-1.466.962.141,1.5,2.512-.869,3.042-.339.076-.545-.329-.542-1.576" transform="translate(-24.638 -44.686)" fill="#ebb376"/>
        <path id="Trazado_730790" data-name="Trazado 730790" d="M132.275,72.335s-3.657-.925-5.678.546c-2.36,1.717-3.255,3.493-.46,6.25,0,0,6.139-1.99,8.18-1.569a22.1,22.1,0,0,1,3.5,1.016c.43-4.054-3.5-7.072-5.542-6.243" transform="translate(-9.784 -37.015)" fill="#12263f"/>
        <line id="Línea_2757" data-name="Línea 2757" x2="3.667" transform="translate(114.182 42.568)" fill="none" stroke="#263238" stroke-linecap="round" stroke-linejoin="round" stroke-width="0.5"/>
        <path id="Trazado_730791" data-name="Trazado 730791" d="M112.613,75.533s3.783-3.15,6.969-.859c3.932,2.828-.442,13.712-.708,16.421a4.812,4.812,0,0,0,1.062,3.949s-2.927.061-3.986-4.572,2.227-12.393-1.983-11.479Z" transform="translate(12.584 -37.935)" fill="#12263f"/>
        <path id="Trazado_730792" data-name="Trazado 730792" d="M125.218,109.431s4.365-1.469,10.944.323,6.822,4.436,6.822,4.436A59.8,59.8,0,0,0,138.16,133.2l-17.145-.6s-2.045-14.243,4.2-23.16" transform="translate(-13.116 -55.929)" fill="#407bff"/>
        <g id="Grupo_1031263" data-name="Grupo 1031263" transform="translate(107.581 52.936)" opacity="0.2" style="isolation: isolate">
          <g id="Grupo_1031262" data-name="Grupo 1031262">
            <g id="Grupo_1031261" data-name="Grupo 1031261" clip-path="url(#clip-path-51)">
              <path id="Trazado_730793" data-name="Trazado 730793" d="M142.98,114.19a59.85,59.85,0,0,0-4.827,19.008l-17.144-.6a41.039,41.039,0,0,1-.315-4.932,45.554,45.554,0,0,1,.477-7.24,26.1,26.1,0,0,1,4.04-10.989s4.365-1.467,10.942.324,6.826,4.433,6.826,4.433" transform="translate(-120.691 -108.867)" fill="#4db1f0"/>
            </g>
          </g>
        </g>
        <g id="Grupo_1031266" data-name="Grupo 1031266" transform="translate(107.581 61.108)" opacity="0.2" style="isolation: isolate">
          <g id="Grupo_1031265" data-name="Grupo 1031265">
            <g id="Grupo_1031264" data-name="Grupo 1031264" clip-path="url(#clip-path-52)">
              <path id="Trazado_730794" data-name="Trazado 730794" d="M161.7,125.673s-1,8.095-4.569,10.624a45.556,45.556,0,0,1,.477-7.24Z" transform="translate(-157.126 -125.673)"/>
            </g>
          </g>
        </g>
        <path id="Trazado_730795" data-name="Trazado 730795" d="M164.751,110.03a28.191,28.191,0,0,0-8.882,6.228L160,121.325a8.248,8.248,0,0,0,3.3-1.55c3.659-3.3,1.446-9.745,1.446-9.745" transform="translate(-52.649 -56.528)" fill="#407bff"/>
        <g id="Grupo_1031269" data-name="Grupo 1031269" transform="translate(103.22 53.502)" opacity="0.2" style="isolation: isolate">
          <g id="Grupo_1031268" data-name="Grupo 1031268">
            <g id="Grupo_1031267" data-name="Grupo 1031267" clip-path="url(#clip-path-53)">
              <path id="Trazado_730796" data-name="Trazado 730796" d="M164.751,110.03a28.191,28.191,0,0,0-8.882,6.228L160,121.325a8.248,8.248,0,0,0,3.3-1.55c3.659-3.3,1.446-9.745,1.446-9.745" transform="translate(-155.869 -110.03)" fill="#4db1f0"/>
            </g>
          </g>
        </g>
        <path id="Trazado_730797" data-name="Trazado 730797" d="M194.587,105.252a12.818,12.818,0,0,1,0-1.464c.05-.65-3.226-4.209-3.757-4.023s-1.682,2.464-1.328,3.228a12.649,12.649,0,0,0,3.541,3.243c.62.177,1.544-.984,1.544-.984" transform="translate(-98.144 -51.251)" fill="#ebb376"/>
      </g>
    </g>
  </g>
</svg>
