<svg id="Grupo_1033828" data-name="Grupo 1033828" xmlns="http://www.w3.org/2000/svg" xmlns:xlink="http://www.w3.org/1999/xlink" width="350.516" height="183.813" viewBox="0 0 350.516 183.813">
  <defs>
    <clipPath id="clip-path">
      <rect id="Rectángulo_352965" data-name="Rectángulo 352965" width="350.516" height="183.813" fill="none"/>
    </clipPath>
    <clipPath id="clip-path-3">
      <rect id="Rectángulo_352961" data-name="Rectángulo 352961" width="72.754" height="97.909" fill="none"/>
    </clipPath>
    <clipPath id="clip-path-4">
      <rect id="Rectángulo_352962" data-name="Rectángulo 352962" width="14.24" height="33.238" fill="none"/>
    </clipPath>
    <clipPath id="clip-path-5">
      <rect id="Rectángulo_352963" data-name="Rectángulo 352963" width="21.552" height="33.908" fill="none"/>
    </clipPath>
  </defs>
  <g id="Grupo_1033827" data-name="Grupo 1033827" clip-path="url(#clip-path)">
    <rect id="Rectángulo_352937" data-name="Rectángulo 352937" width="10.92" height="66.667" transform="translate(93.137 51.092)" fill="#3a3b3a"/>
    <rect id="Rectángulo_352938" data-name="Rectángulo 352938" width="254.161" height="12.289" transform="translate(87.654 116.464)" fill="#3f3f3f"/>
    <g id="Grupo_1033826" data-name="Grupo 1033826" transform="translate(0 0)">
      <g id="Grupo_1033825" data-name="Grupo 1033825" clip-path="url(#clip-path)">
        <path id="Trazado_735568" data-name="Trazado 735568" d="M1381.567,1583.72l-71.1.213-.106.038H1138.722c-3.167,0-5.734-2.931-5.734-6.546v-6.174c0-3.615,2.567-6.546,5.734-6.546h242.845Z" transform="translate(-1045.334 -1443.65)" fill="#3a3b3a"/>
        <rect id="Rectángulo_352939" data-name="Rectángulo 352939" width="64.028" height="33.277" transform="translate(28.121 112.711)" fill="#3a3b3a"/>
        <path id="Trazado_735569" data-name="Trazado 735569" d="M37.516,558.449h0a24.15,24.15,0,0,0-10.254,11.618L14.64,600.219a39.26,39.26,0,0,0-2.875,11.5l-.752,8.03a.043.043,0,0,0,0,.009l2.071,19.8v0l.1,4.713a.047.047,0,0,1,0,.021l-1.741,3.581,0,0a15.044,15.044,0,0,0-1.024,5.456v7.448a3.606,3.606,0,0,0,3.606,3.606l34.583-.136c.025,0,.008-5.913.008-5.913s.079-.571.08-.575c.351-1.956,3.672-20.762,19.479-21.459l21.914-.025c.02,0,2.089,7.5,2.089,7.5a3.716,3.716,0,0,0,3.573,2.65l5.967-.019a.046.046,0,0,0,.046-.046V556.5a.046.046,0,0,0-.046-.046H44.994a15.018,15.018,0,0,0-7.477,1.994" transform="translate(-9.602 -513.405)" fill="#ffa031"/>
        <path id="Trazado_735570" data-name="Trazado 735570" d="M4417.4,392.066l2.757,12.5,5.393,70.579a3.4,3.4,0,0,1-3.278,3.657l-5.443.178-.081-86.916Z" transform="translate(-4075.044 -361.73)" fill="#3a3b3a"/>
        <rect id="Rectángulo_352940" data-name="Rectángulo 352940" width="244.973" height="112.388" transform="translate(96.403)" fill="#ffa031"/>
        <rect id="Rectángulo_352941" data-name="Rectángulo 352941" width="37.805" height="16.183" transform="translate(96.403 125.235)" fill="#3a3b3a"/>
        <path id="Trazado_735571" data-name="Trazado 735571" d="M1784.447,1609.985h-68.41a.692.692,0,0,1-.692-.692v-23.805a.692.692,0,0,1,.692-.692h68.41a.692.692,0,0,1,.692.692v23.805a.692.692,0,0,1-.692.692" transform="translate(-1582.636 -1462.188)" fill="#3a3b3a"/>
        <path id="Trazado_735572" data-name="Trazado 735572" d="M516.395,375.387H568v-13H540.48a13.878,13.878,0,0,0-4.062.608l-4.25,1.3a14.443,14.443,0,0,0-3.207,1.428l-12.266,7.366a1.934,1.934,0,0,0-.938,1.658.639.639,0,0,0,.639.639" transform="translate(-475.854 -334.351)" fill="#ffa031"/>
        <path id="Trazado_735573" data-name="Trazado 735573" d="M134.231,665.526l-13.777,33.683v4.1a3.466,3.466,0,0,0,3.466,3.466h14l10.505-10.253a10.122,10.122,0,0,1,7.179-2.878l14.084.152a7.773,7.773,0,0,0,7.856-7.772V663.9a4.864,4.864,0,0,0-4.864-4.864H147.125a21.337,21.337,0,0,0-4.744.534l-1.533.349a9.409,9.409,0,0,0-6.617,5.612" transform="translate(-111.135 -608.045)" fill="#666"/>
        <path id="Trazado_735574" data-name="Trazado 735574" d="M129.279,696.882H115a4.149,4.149,0,0,1-4.144-4.144v-4.231L124.685,654.7a10.1,10.1,0,0,1,7.094-6.016l1.533-.35a22.061,22.061,0,0,1,4.895-.551h25.555a5.142,5.142,0,0,1,5.542,5.542v22.126a8.451,8.451,0,0,1-8.448,8.451h-.094l-14.084-.152h-.1a9.381,9.381,0,0,0-6.593,2.685Zm-17.064-8.108v3.964A2.79,2.79,0,0,0,115,695.525h13.724l10.307-10.06a10.734,10.734,0,0,1,7.66-3.071l14.084.152a7.094,7.094,0,0,0,7.17-7.094V653.327c0-1.563-.544-4.185-4.185-4.185H138.208a20.7,20.7,0,0,0-4.593.517l-1.533.349a8.74,8.74,0,0,0-6.14,5.207Z" transform="translate(-102.281 -597.669)" fill="#4d4d4d"/>
        <path id="Trazado_735575" data-name="Trazado 735575" d="M607.113,1662.427a20.81,20.81,0,1,1-20.81-20.809,20.809,20.809,0,0,1,20.81,20.809" transform="translate(-521.745 -1514.614)" fill="#323334"/>
        <path id="Trazado_735576" data-name="Trazado 735576" d="M695.059,1758.423a12.76,12.76,0,1,1-12.76-12.76,12.76,12.76,0,0,1,12.76,12.76" transform="translate(-617.74 -1610.609)" fill="#b3b3b3"/>
        <path id="Trazado_735577" data-name="Trazado 735577" d="M3087.6,1662.427a20.81,20.81,0,1,1-20.81-20.809,20.81,20.81,0,0,1,20.81,20.809" transform="translate(-2810.33 -1514.614)" fill="#323334"/>
        <path id="Trazado_735578" data-name="Trazado 735578" d="M3175.55,1758.423a12.76,12.76,0,1,1-12.76-12.76,12.76,12.76,0,0,1,12.76,12.76" transform="translate(-2906.326 -1610.609)" fill="#b3b3b3"/>
        <rect id="Rectángulo_352942" data-name="Rectángulo 352942" width="1.533" height="6.043" transform="translate(339.842 144.94)" fill="#e52910"/>
        <path id="Trazado_735579" data-name="Trazado 735579" d="M4162.943,149.4h-4.664a1.348,1.348,0,0,1-1.347-1.348v-6.761a1.348,1.348,0,0,1,1.347-1.348h4.664a1.348,1.348,0,0,1,1.349,1.348v6.761a1.348,1.348,0,0,1-1.349,1.348" transform="translate(-3835.329 -129.119)" fill="#d75203"/>
        <rect id="Rectángulo_352943" data-name="Rectángulo 352943" width="118.813" height="4.928" transform="translate(109.958 120.966)" fill="#4f4f4f"/>
        <rect id="Rectángulo_352944" data-name="Rectángulo 352944" width="118.813" height="4.928" transform="translate(109.958 142.886)" fill="#4f4f4f"/>
        <rect id="Rectángulo_352945" data-name="Rectángulo 352945" width="4.928" height="26.83" transform="translate(109.965 120.967)" fill="#4f4f4f"/>
        <rect id="Rectángulo_352946" data-name="Rectángulo 352946" width="4.928" height="26.83" transform="translate(223.843 120.967)" fill="#4f4f4f"/>
        <rect id="Rectángulo_352947" data-name="Rectángulo 352947" width="2.731" height="33.908" transform="translate(285.34 112.388)" fill="#4f4f4f"/>
        <rect id="Rectángulo_352948" data-name="Rectángulo 352948" width="2.731" height="33.908" transform="translate(323.714 112.388)" fill="#4f4f4f"/>
        <rect id="Rectángulo_352949" data-name="Rectángulo 352949" width="4.928" height="26.83" transform="translate(165.463 120.967)" fill="#4f4f4f"/>
        <rect id="Rectángulo_352950" data-name="Rectángulo 352950" width="239.504" height="4.076" transform="translate(102.311 112.388)" fill="#3a3b3a"/>
        <rect id="Rectángulo_352951" data-name="Rectángulo 352951" width="51.106" height="6.344" transform="translate(280.048 125.894)" fill="#e6e6e6"/>
        <path id="Trazado_735580" data-name="Trazado 735580" d="M3646.492,1635.036h-6.556l-5.6-6.062h6.556Z" transform="translate(-3353.165 -1502.947)" fill="#e52910"/>
        <path id="Trazado_735581" data-name="Trazado 735581" d="M3803.6,1635.036h-6.557l-5.6-6.062H3798Z" transform="translate(-3498.12 -1502.947)" fill="#e52910"/>
        <path id="Trazado_735582" data-name="Trazado 735582" d="M3960.711,1635.036h-6.556l-5.6-6.062h6.555Z" transform="translate(-3643.076 -1502.947)" fill="#e52910"/>
        <path id="Trazado_735583" data-name="Trazado 735583" d="M4117.822,1635.036h-6.555l-5.6-6.062h6.556Z" transform="translate(-3788.03 -1502.947)" fill="#e52910"/>
        <rect id="Rectángulo_352952" data-name="Rectángulo 352952" width="51.106" height="6.344" transform="translate(280.168 140.32)" fill="#e6e6e6"/>
        <path id="Trazado_735584" data-name="Trazado 735584" d="M3648.039,1821.5h-6.556l-5.6-6.062h6.556Z" transform="translate(-3354.593 -1674.983)" fill="#e52910"/>
        <path id="Trazado_735585" data-name="Trazado 735585" d="M3805.149,1821.5h-6.556l-5.6-6.062h6.556Z" transform="translate(-3499.547 -1674.983)" fill="#e52910"/>
        <path id="Trazado_735586" data-name="Trazado 735586" d="M3962.258,1821.5H3955.7l-5.6-6.062h6.556Z" transform="translate(-3644.502 -1674.983)" fill="#e52910"/>
        <path id="Trazado_735587" data-name="Trazado 735587" d="M4119.368,1821.5h-6.556l-5.6-6.062h6.556Z" transform="translate(-3789.457 -1674.983)" fill="#e52910"/>
        <rect id="Rectángulo_352953" data-name="Rectángulo 352953" width="51.106" height="6.344" transform="translate(115.305 127.777)" fill="#e6e6e6"/>
        <path id="Trazado_735588" data-name="Trazado 735588" d="M1517.071,1659.373h-6.556l-5.6-6.062h6.556Z" transform="translate(-1388.488 -1525.402)" fill="#e52910"/>
        <path id="Trazado_735589" data-name="Trazado 735589" d="M1674.181,1659.373h-6.557l-5.6-6.062h6.556Z" transform="translate(-1533.443 -1525.402)" fill="#e52910"/>
        <path id="Trazado_735590" data-name="Trazado 735590" d="M1831.291,1659.373h-6.556l-5.6-6.062h6.556Z" transform="translate(-1678.398 -1525.402)" fill="#e52910"/>
        <path id="Trazado_735591" data-name="Trazado 735591" d="M1988.4,1659.373h-6.556l-5.6-6.062h6.557Z" transform="translate(-1823.353 -1525.402)" fill="#e52910"/>
        <rect id="Rectángulo_352954" data-name="Rectángulo 352954" width="51.106" height="6.344" transform="translate(115.425 142.203)" fill="#e6e6e6"/>
        <path id="Trazado_735592" data-name="Trazado 735592" d="M1518.619,1845.834h-6.556l-5.6-6.062h6.556Z" transform="translate(-1389.916 -1697.437)" fill="#e52910"/>
        <path id="Trazado_735593" data-name="Trazado 735593" d="M1675.728,1845.834h-6.556l-5.6-6.062h6.556Z" transform="translate(-1534.87 -1697.437)" fill="#e52910"/>
        <path id="Trazado_735594" data-name="Trazado 735594" d="M1832.838,1845.834h-6.556l-5.6-6.062h6.556Z" transform="translate(-1679.826 -1697.437)" fill="#e52910"/>
        <path id="Trazado_735595" data-name="Trazado 735595" d="M1989.948,1845.834h-6.557l-5.6-6.062h6.556Z" transform="translate(-1824.78 -1697.437)" fill="#e52910"/>
        <rect id="Rectángulo_352955" data-name="Rectángulo 352955" width="51.106" height="6.344" transform="translate(171.504 127.777)" fill="#e6e6e6"/>
        <path id="Trazado_735596" data-name="Trazado 735596" d="M2243.479,1659.373h-6.556l-5.6-6.062h6.556Z" transform="translate(-2058.697 -1525.402)" fill="#e52910"/>
        <path id="Trazado_735597" data-name="Trazado 735597" d="M2400.59,1659.373h-6.557l-5.6-6.062h6.557Z" transform="translate(-2203.653 -1525.402)" fill="#e52910"/>
        <path id="Trazado_735598" data-name="Trazado 735598" d="M2557.7,1659.373h-6.556l-5.6-6.062h6.556Z" transform="translate(-2348.607 -1525.402)" fill="#e52910"/>
        <path id="Trazado_735599" data-name="Trazado 735599" d="M2714.809,1659.373h-6.556l-5.6-6.062h6.556Z" transform="translate(-2493.562 -1525.402)" fill="#e52910"/>
        <rect id="Rectángulo_352956" data-name="Rectángulo 352956" width="51.106" height="6.344" transform="translate(171.623 142.203)" fill="#e6e6e6"/>
        <path id="Trazado_735600" data-name="Trazado 735600" d="M2245.027,1845.834h-6.557l-5.6-6.062h6.557Z" transform="translate(-2060.125 -1697.437)" fill="#e52910"/>
        <path id="Trazado_735601" data-name="Trazado 735601" d="M2402.137,1845.834h-6.556l-5.6-6.062h6.556Z" transform="translate(-2205.08 -1697.437)" fill="#e52910"/>
        <path id="Trazado_735602" data-name="Trazado 735602" d="M2559.246,1845.834h-6.556l-5.6-6.062h6.556Z" transform="translate(-2350.035 -1697.437)" fill="#e52910"/>
        <path id="Trazado_735603" data-name="Trazado 735603" d="M2716.356,1845.834H2709.8l-5.6-6.062h6.557Z" transform="translate(-2494.99 -1697.437)" fill="#e52910"/>
        <path id="Trazado_735604" data-name="Trazado 735604" d="M4370.71,1466.989a5.056,5.056,0,1,1-5.056-5.056,5.057,5.057,0,0,1,5.056,5.056" transform="translate(-4023.239 -1348.83)" fill="#3a3b3a"/>
        <rect id="Rectángulo_352957" data-name="Rectángulo 352957" width="15.467" height="5.814" transform="translate(332.074 129.562) rotate(-63.537)" fill="#3a3b3a"/>
        <rect id="Rectángulo_352958" data-name="Rectángulo 352958" width="4.002" height="35.738" transform="translate(335.84 115.244)" fill="#4f4f4f"/>
        <rect id="Rectángulo_352959" data-name="Rectángulo 352959" width="2.563" height="14.58" transform="translate(166.212 55.728)" fill="#414042"/>
        <path id="Trazado_735605" data-name="Trazado 735605" d="M2229.111,719.814h2.563v14.6h-2.132l-4.91-7.667q-.409-.625-.894-1.411t-.916-1.454q.064.689.119,1.443t.054,1.443l.064,7.624H2220.5V719.771h2l5.061,7.581q.43.625.872,1.325t.873,1.346q-.044-.689-.086-1.389c-.03-.466-.043-.865-.043-1.2Z" transform="translate(-2048.707 -664.086)" fill="#414042"/>
        <path id="Trazado_735606" data-name="Trazado 735606" d="M2403.944,720.328h8.658v1.938h-6.095v4.2h5.018l-.323,1.938h-4.695v6.5h-2.563Z" transform="translate(-2217.962 -664.599)" fill="#414042"/>
        <path id="Trazado_735607" data-name="Trazado 735607" d="M2539.789,720.328h8.657v1.938h-6.094v4.07h5.018l-.323,1.96h-4.694v4.673h6.418v1.938h-8.981Z" transform="translate(-2343.297 -664.599)" fill="#414042"/>
        <path id="Trazado_735608" data-name="Trazado 735608" d="M2682.469,720.946a3.912,3.912,0,0,0-1.088-.851,2.878,2.878,0,0,0-1.324-.291,2.77,2.77,0,0,0-1.562.42,3.058,3.058,0,0,0-1.023,1.163,5.952,5.952,0,0,0-.56,1.734,12.419,12.419,0,0,0-.172,2.132,13.294,13.294,0,0,0,.161,2.132,5.653,5.653,0,0,0,.56,1.744,3.069,3.069,0,0,0,1.077,1.185,3.135,3.135,0,0,0,1.712.431,5.048,5.048,0,0,0,.948-.086q.452-.086.829-.183t.625-.183l.312-.108.6,1.809-.28.108q-.28.108-.786.248a12.223,12.223,0,0,1-1.207.258,9.293,9.293,0,0,1-1.54.118,5.193,5.193,0,0,1-4.339-1.841,8.568,8.568,0,0,1-1.454-5.395,11.733,11.733,0,0,1,.388-3.112,6.869,6.869,0,0,1,1.174-2.423,5.325,5.325,0,0,1,1.981-1.572,6.568,6.568,0,0,1,2.811-.56,4.238,4.238,0,0,1,2.121.474,5.056,5.056,0,0,1,1.346,1.077Z" transform="translate(-2467.09 -662.288)" fill="#414042"/>
        <path id="Trazado_735609" data-name="Trazado 735609" d="M2824.98,720.328l-.323,1.938h-3.618v12.642H2818.5V722.266h-3.683v-1.938Z" transform="translate(-2597.046 -664.599)" fill="#414042"/>
        <rect id="Rectángulo_352960" data-name="Rectángulo 352960" width="2.563" height="14.58" transform="translate(229.679 55.728)" fill="#414042"/>
        <path id="Trazado_735610" data-name="Trazado 735610" d="M3043.024,718.339a4.946,4.946,0,0,1,1.885,1.465,6.127,6.127,0,0,1,1.088,2.315,12.605,12.605,0,0,1,.344,3.069,11.7,11.7,0,0,1-.377,3.069,6.517,6.517,0,0,1-1.163,2.38,5.324,5.324,0,0,1-1.981,1.54,6.739,6.739,0,0,1-2.832.549,7.125,7.125,0,0,1-2.768-.485,4.7,4.7,0,0,1-1.9-1.421,6.019,6.019,0,0,1-1.087-2.272,12.272,12.272,0,0,1-.344-3.058,11.944,11.944,0,0,1,.376-3.09,6.834,6.834,0,0,1,1.163-2.434,5.268,5.268,0,0,1,1.992-1.583,7.55,7.55,0,0,1,5.6-.043m-4.63,1.884a3.108,3.108,0,0,0-1.012,1.152,5.593,5.593,0,0,0-.55,1.723,13.47,13.47,0,0,0-.161,2.154,13.842,13.842,0,0,0,.15,2.089,5.446,5.446,0,0,0,.55,1.744,3.175,3.175,0,0,0,1.1,1.206,3.3,3.3,0,0,0,1.819.452,2.824,2.824,0,0,0,1.561-.409,3.023,3.023,0,0,0,1.023-1.12,5.329,5.329,0,0,0,.55-1.691,13.12,13.12,0,0,0,.161-2.121,14.413,14.413,0,0,0-.15-2.111,5.752,5.752,0,0,0-.55-1.787,3.007,3.007,0,0,0-2.918-1.7,2.759,2.759,0,0,0-1.573.42" transform="translate(-2799.174 -662.288)" fill="#414042"/>
        <path id="Trazado_735611" data-name="Trazado 735611" d="M3226.563,720.328v9.024a3.974,3.974,0,0,0,.841,2.854,3.06,3.06,0,0,0,2.282.851,2.481,2.481,0,0,0,2.165-.98,4.621,4.621,0,0,0,.7-2.724v-9.024h2.563v9.218a7.473,7.473,0,0,1-.291,2.11,4.511,4.511,0,0,1-.959,1.745,4.59,4.59,0,0,1-1.766,1.2,7.23,7.23,0,0,1-2.692.442,6.456,6.456,0,0,1-2.552-.442,4.4,4.4,0,0,1-1.658-1.2,4.5,4.5,0,0,1-.9-1.745,8.005,8.005,0,0,1-.269-2.11v-9.218Z" transform="translate(-2974.594 -664.6)" fill="#414042"/>
        <path id="Trazado_735612" data-name="Trazado 735612" d="M3397.5,717.822a7.233,7.233,0,0,1,1.443.14,12.007,12.007,0,0,1,1.26.323,7.554,7.554,0,0,1,.97.377,4.371,4.371,0,0,1,.548.3l-1.055,1.852-.28-.151c-.187-.1-.43-.215-.733-.344a7.9,7.9,0,0,0-.99-.344,3.838,3.838,0,0,0-1.034-.151,2.443,2.443,0,0,0-1.346.366,1.261,1.261,0,0,0-.57,1.142,2.121,2.121,0,0,0,.624,1.583,5.8,5.8,0,0,0,1.961,1.131,13.6,13.6,0,0,1,1.54.721,4.831,4.831,0,0,1,1.152.872,3.4,3.4,0,0,1,.721,1.141,4.335,4.335,0,0,1,.247,1.551,4.391,4.391,0,0,1-.312,1.615,4.052,4.052,0,0,1-.926,1.411,4.643,4.643,0,0,1-1.518.991,5.407,5.407,0,0,1-2.089.377,7.126,7.126,0,0,1-1.594-.172,11.168,11.168,0,0,1-1.368-.4,8.339,8.339,0,0,1-1.055-.463q-.442-.237-.656-.366l.9-1.981.387.215q.388.216.948.474a12.587,12.587,0,0,0,1.184.474,3.391,3.391,0,0,0,1.077.215,2.314,2.314,0,0,0,1.7-.56,2.444,2.444,0,0,0,.41-2.4,1.777,1.777,0,0,0-.431-.614,3.078,3.078,0,0,0-.678-.463q-.4-.2-.894-.4-.969-.409-1.733-.818a5.67,5.67,0,0,1-1.3-.937,3.609,3.609,0,0,1-.818-1.206,4.242,4.242,0,0,1-.28-1.626,3.339,3.339,0,0,1,.345-1.5,3.919,3.919,0,0,1,.947-1.227,4.607,4.607,0,0,1,1.444-.84,5.275,5.275,0,0,1,1.851-.312" transform="translate(-3129.98 -662.288)" fill="#414042"/>
        <path id="Trazado_735613" data-name="Trazado 735613" d="M2429.383,974.947a14.42,14.42,0,0,1-.517-1.723q-.108.409-.205.818c-.064.273-.147.575-.247.9l-2.8,8.852h-1.9l-4.049-14.58h2.563l1.895,7.3q.5,1.9.711,3.058.15-.6.355-1.335t.506-1.68l2.283-7.344h1.917l2.283,7.344q.3.969.517,1.766t.344,1.4q.085-.6.248-1.4t.42-1.766l1.9-7.344h2.606l-4.048,14.58h-1.9Z" transform="translate(-2232.471 -894.234)" fill="#414042"/>
        <path id="Trazado_735614" data-name="Trazado 735614" d="M2651.865,969.218h2.025l5.621,14.58h-2.735l-1.335-3.812h-5.254l-1.378,3.812h-2.541Zm2.908,8.873q-.69-1.938-1.184-3.521t-.754-2.488q-.3.969-.8,2.541t-1.163,3.468Z" transform="translate(-2441.537 -894.234)" fill="#414042"/>
        <path id="Trazado_735615" data-name="Trazado 735615" d="M2829.486,966.712a7.242,7.242,0,0,1,1.443.14,12,12,0,0,1,1.26.323,7.443,7.443,0,0,1,.969.377,4.419,4.419,0,0,1,.55.3l-1.055,1.852-.281-.151c-.186-.1-.431-.215-.732-.344a7.938,7.938,0,0,0-.99-.344,3.835,3.835,0,0,0-1.034-.151,2.437,2.437,0,0,0-1.346.366,1.258,1.258,0,0,0-.571,1.141,2.121,2.121,0,0,0,.624,1.583,5.788,5.788,0,0,0,1.959,1.13,13.651,13.651,0,0,1,1.541.722,4.829,4.829,0,0,1,1.152.872,3.4,3.4,0,0,1,.722,1.141,4.339,4.339,0,0,1,.248,1.551,4.4,4.4,0,0,1-.312,1.615,4.088,4.088,0,0,1-.926,1.411,4.627,4.627,0,0,1-1.518.99,5.394,5.394,0,0,1-2.089.377,7.137,7.137,0,0,1-1.594-.173,11.217,11.217,0,0,1-1.367-.4,8.333,8.333,0,0,1-1.055-.463c-.294-.158-.514-.28-.657-.366l.9-1.981.388.215q.386.215.947.474a12.579,12.579,0,0,0,1.185.474,3.384,3.384,0,0,0,1.076.215,2.315,2.315,0,0,0,1.7-.56,2.445,2.445,0,0,0,.409-2.4,1.766,1.766,0,0,0-.431-.614,3.061,3.061,0,0,0-.678-.463q-.4-.2-.894-.4-.969-.409-1.734-.818a5.634,5.634,0,0,1-1.3-.937,3.58,3.58,0,0,1-.819-1.206,4.261,4.261,0,0,1-.28-1.626,3.335,3.335,0,0,1,.345-1.5,3.92,3.92,0,0,1,.947-1.228,4.6,4.6,0,0,1,1.442-.84,5.285,5.285,0,0,1,1.852-.312" transform="translate(-2605.913 -891.922)" fill="#414042"/>
        <path id="Trazado_735616" data-name="Trazado 735616" d="M2970.155,969.218l-.323,1.938h-3.618V983.8h-2.542V971.156h-3.683v-1.938Z" transform="translate(-2730.989 -894.234)" fill="#414042"/>
        <path id="Trazado_735617" data-name="Trazado 735617" d="M3113.93,969.218h8.657v1.938h-6.094v4.07h5.018l-.323,1.96h-4.694v4.673h6.418V983.8h-8.981Z" transform="translate(-2873.02 -894.234)" fill="#414042"/>
        <path id="Trazado_735618" data-name="Trazado 735618" d="M2721.746,458.672a8.23,8.23,0,0,0,4.689,8.564,5.429,5.429,0,0,0,.92-2.2,5.864,5.864,0,0,1-3.282-5.284,5.955,5.955,0,0,1,.041-.667,5.443,5.443,0,0,0-2.369-.417" transform="translate(-2511.109 -423.181)" fill="#414042"/>
        <path id="Trazado_735619" data-name="Trazado 735619" d="M2768.42,369.51a5.862,5.862,0,0,1,6.474.036,5.446,5.446,0,0,0,1.573-1.818,8.242,8.242,0,0,0-9.606-.069,5.45,5.45,0,0,0,1.559,1.851" transform="translate(-2552.802 -337.822)" fill="#414042"/>
        <path id="Trazado_735620" data-name="Trazado 735620" d="M2861.083,465.684a5.443,5.443,0,0,0,.9,2.188,8.249,8.249,0,0,0,4.812-7.473,8.352,8.352,0,0,0-.067-1.06,5.448,5.448,0,0,0-2.345.391,5.854,5.854,0,0,1-3.3,5.955" transform="translate(-2639.734 -423.794)" fill="#414042"/>
        <path id="Trazado_735621" data-name="Trazado 735621" d="M2641.305,279.009a6.3,6.3,0,0,1,5.183,2.742l1.106-.633a1.858,1.858,0,0,1,1.431-2.184l.005-1.453h-.075a6.308,6.308,0,0,1-.378-12.544v-.264a8.889,8.889,0,0,0-7.715,11,8.892,8.892,0,0,0-5.788,11.959l.109-.057.172-.093a6.312,6.312,0,0,1,5.949-8.468" transform="translate(-2430.586 -244.196)" fill="#414042"/>
        <path id="Trazado_735622" data-name="Trazado 735622" d="M2843.643,275.774a8.89,8.89,0,0,0-7.662-11.059V265a6.31,6.31,0,0,1-.469,12.513l-.005,1.495a1.861,1.861,0,0,1,1.322,1.787,1.923,1.923,0,0,1-.036.362l1.094.637a6.308,6.308,0,0,1,11.084,5.776l.239.128.105.056a8.891,8.891,0,0,0-5.672-11.982" transform="translate(-2616.137 -244.235)" fill="#414042"/>
        <path id="Trazado_735623" data-name="Trazado 735623" d="M2681.243,495.315h0l-.036-.019a6.309,6.309,0,0,1-10.708-6.581l.018-.031-1.023-.6a1.859,1.859,0,0,1-2.832,0l-1.044.6a6.308,6.308,0,0,1-10.715,6.552l-.246.128-.035.019a35.991,35.991,0,0,1,19.585,3.893,8.876,8.876,0,0,0,7.321-3.808l-.089-.048Z" transform="translate(-2449.249 -450.325)" fill="#414042"/>
        <path id="Trazado_735624" data-name="Trazado 735624" d="M804.741,1238.231H796.3a1.014,1.014,0,0,1-1.014-1.014v-.315a1.979,1.979,0,0,1,.973-1.7l1.378-.814a4.259,4.259,0,0,1,2.165-.591h4.935a.383.383,0,0,1,.383.383v3.672a.383.383,0,0,1-.383.383" transform="translate(-733.762 -1138.34)" fill="#3a3b3a"/>
        <g id="Grupo_1033818" data-name="Grupo 1033818" transform="translate(7.696 47.009)" opacity="0.5">
          <g id="Grupo_1033817" data-name="Grupo 1033817">
            <g id="Grupo_1033816" data-name="Grupo 1033816" clip-path="url(#clip-path-3)">
              <path id="Trazado_735625" data-name="Trazado 735625" d="M130.505,705.529H99.791l-.312-45.492a58.222,58.222,0,0,1,3.512-20.356l6.266-17.237a29.956,29.956,0,0,1,5.983-9.818c2.126-2.284,5.5-5.006,9.5-5.006H164.99a7.273,7.273,0,0,1,7.242,7.288v68.664L150.7,683.5c-7.038.208-12.521,3.912-16.286,11.011a36.078,36.078,0,0,0-3.573,10.726l-.039.294Zm-30.045-.679h29.756a37.161,37.161,0,0,1,3.592-10.644,23.3,23.3,0,0,1,6.222-7.659,17.928,17.928,0,0,1,10.659-3.728l20.867.071V614.908a6.6,6.6,0,0,0-6.568-6.609H124.737c-6.248,0-12.312,7.408-14.846,14.378l-6.266,17.237a57.543,57.543,0,0,0-3.471,20.118Z" transform="translate(-99.478 -607.62)" fill="#f15a24"/>
            </g>
          </g>
        </g>
        <path id="Trazado_735626" data-name="Trazado 735626" d="M24.138,1314.576l-.184-.692c.053-.014,5.492-1.442,19.308-3.2,12.736-1.615,35.418-3.849,71.146-5.312l.029.716c-68.278,2.8-90.087,8.427-90.3,8.483" transform="translate(-22.101 -1204.386)" fill="#f15a24"/>
        <path id="Trazado_735627" data-name="Trazado 735627" d="M7.66,1431.317v9.132s-5.69-.288-7.5.942c0,0-.7-6.662.871-9.5a1.1,1.1,0,0,1,.965-.57Z" transform="translate(0 -1320.583)" fill="#d75203"/>
        <path id="Trazado_735628" data-name="Trazado 735628" d="M9.28,1548.74l.077,10.632-4.281.007a17.424,17.424,0,0,1-3.311-9.561s.26-1.2,7.514-1.078" transform="translate(-1.629 -1428.912)" fill="#ebebeb"/>
        <path id="Trazado_735629" data-name="Trazado 735629" d="M1089.333,1639.087h-4.867a1.111,1.111,0,0,1-1.11-1.111V1636.3a1.111,1.111,0,0,1,1.11-1.11h4.867a1.111,1.111,0,0,1,1.11,1.11v1.675a1.111,1.111,0,0,1-1.11,1.111" transform="translate(-999.541 -1508.684)" fill="#3a3b3a"/>
        <path id="Trazado_735630" data-name="Trazado 735630" d="M11.642,1686.273l4.281-.007.064,14.488,31.21-.028.024,5.982-35.133.088a3.118,3.118,0,0,1-3.126-3.086l-.079-7.43a15.289,15.289,0,0,1,1.093-5.843Z" transform="translate(-8.195 -1555.807)" fill="#3a3b3a"/>
        <path id="Trazado_735631" data-name="Trazado 735631" d="M1509.442,127.12h-241.3V17.716h241.3ZM1269.5,125.763h238.587V19.073H1269.5Z" transform="translate(-1170.031 -16.346)" fill="#f15a24"/>
        <path id="Trazado_735632" data-name="Trazado 735632" d="M795.751,1865.228a3.485,3.485,0,1,1-3.48-3.672,3.58,3.58,0,0,1,3.48,3.672" transform="translate(-727.765 -1717.536)" fill="#323334"/>
        <path id="Trazado_735633" data-name="Trazado 735633" d="M3276.076,1866.982a3.485,3.485,0,1,1-3.479-3.672,3.58,3.58,0,0,1,3.479,3.672" transform="translate(-3016.199 -1719.154)" fill="#323334"/>
        <g id="Grupo_1033821" data-name="Grupo 1033821" transform="translate(51.247 51.603)" opacity="0.5">
          <g id="Grupo_1033820" data-name="Grupo 1033820">
            <g id="Grupo_1033819" data-name="Grupo 1033819" clip-path="url(#clip-path-4)">
              <path id="Trazado_735634" data-name="Trazado 735634" d="M666.512,700.234l10.129-30.779A3.561,3.561,0,0,0,673.9,667L662.4,700.17Z" transform="translate(-662.401 -666.996)" fill="gray"/>
            </g>
          </g>
        </g>
        <g id="Grupo_1033824" data-name="Grupo 1033824" transform="translate(40.431 51.523)" opacity="0.5">
          <g id="Grupo_1033823" data-name="Grupo 1033823">
            <g id="Grupo_1033822" data-name="Grupo 1033822" clip-path="url(#clip-path-5)">
              <path id="Trazado_735635" data-name="Trazado 735635" d="M544.15,665.965,532.44,699.2l-6.394-.048a8.991,8.991,0,0,0-3.448.718l12.349-33.892Z" transform="translate(-522.598 -665.965)" fill="gray"/>
            </g>
          </g>
        </g>
        <path id="Trazado_735636" data-name="Trazado 735636" d="M132.939,1010.131h-2.991a.755.755,0,0,1-.755-.755V990.484a.755.755,0,0,1,.755-.755h2.991a.756.756,0,0,1,.755.755v18.891a.755.755,0,0,1-.755.755" transform="translate(-119.197 -913.158)" fill="#3a3b3a"/>
      </g>
    </g>
  </g>
</svg>
