<svg xmlns="http://www.w3.org/2000/svg" xmlns:xlink="http://www.w3.org/1999/xlink" width="88" height="88" viewBox="0 0 88 88">
  <defs>
    <clipPath id="clip-path">
      <path id="Trazado_730798" data-name="Trazado 730798" d="M44,0A44,44,0,1,1,0,44,44,44,0,0,1,44,0Z" transform="translate(210 1110)" fill="#d2e1f1"/>
    </clipPath>
    <clipPath id="clip-path-2">
      <path id="path1521" d="M0-88H74.525v74.525H0Z" transform="translate(0 88)"/>
    </clipPath>
  </defs>
  <g id="Grupo_1036334" data-name="Grupo 1036334" transform="translate(-210 -1170)">
    <g id="Grupo_1034296" data-name="Grupo 1034296" transform="translate(0 -376)">
      <g id="Grupo_1029689" data-name="Grupo 1029689" transform="translate(0 1134)">
        <g id="Grupo_1013412" data-name="Grupo 1013412" transform="translate(-14 3)">
          <path id="Trazado_710239" data-name="Trazado 710239" d="M44,0A44,44,0,1,1,0,44,44,44,0,0,1,44,0Z" transform="translate(224 409)" fill="#fff"/>
        </g>
      </g>
      <g id="Enmascarar_grupo_1026470" data-name="Enmascarar grupo 1026470" transform="translate(0 436)" clip-path="url(#clip-path)">
        <g id="g1515" transform="translate(210 1198)">
          <g id="g1517" transform="translate(6.737 6.737)">
            <g id="g1519" transform="translate(0 -88)" clip-path="url(#clip-path-2)">
              <g id="g1525" transform="translate(52.311 22.041)">
                <path id="path1527" d="M-.263,0H10.829a1.456,1.456,0,0,1,1.294.789L19.4,14.923V28.46H-1.719v-27A1.456,1.456,0,0,1-.263,0" transform="translate(1.719)" fill="#4db1f0"/>
              </g>
              <g id="g1529" transform="translate(60.492 22.042)">
                <path id="path1531" d="M-1.023-.143A1.455,1.455,0,0,0-2.317-.932H-6.684A1.455,1.455,0,0,1-5.39-.143L1.891,13.991V27.528H6.257V13.991Z" transform="translate(6.684 0.932)" fill="#61b6fe"/>
              </g>
              <g id="g1533" transform="translate(2.863 25.236)">
                <path id="path1535" d="M-.723-.152l-4,24.423H44.725V-.995H.28a1.019,1.019,0,0,0-1,.842" transform="translate(4.723 0.995)" fill="#ffa031"/>
              </g>
              <g id="g1537" transform="translate(6.243 13.308)">
                <path id="path1539" d="M-.294-2.157H37.751A1.019,1.019,0,0,0,38.767-3.1l.79-10.049a1.019,1.019,0,0,1,1.016-.939h9.445a1.019,1.019,0,0,1,1.019,1.019v2.329a1.019,1.019,0,0,1-1.019,1.019H45.17A1.019,1.019,0,0,0,44.152-8.7V2.21H-1.917l.62-3.524a1.019,1.019,0,0,1,1-.842" transform="translate(1.917 14.084)" fill="#ffa031"/>
              </g>
              <g id="g1541" transform="translate(47.945 17.675)">
                <path id="path1543" d="M0-.974V5.568H4.367V-5.34A1.019,1.019,0,0,1,5.386-6.359h0A5.386,5.386,0,0,0,0-.974" transform="translate(0 6.359)" fill="#ffc344"/>
              </g>
              <g id="g1545" transform="translate(53.811 13.308)">
                <path id="path1547" d="M-.79,0H-5.156A1.019,1.019,0,0,1-4.137,1.019V3.348A1.019,1.019,0,0,1-5.156,4.367H-.79A1.019,1.019,0,0,0,.229,3.348V1.019A1.019,1.019,0,0,0-.79,0" transform="translate(5.156)" fill="#ffc344"/>
              </g>
              <path id="path1549" d="M56.613-32.936H60.98V-58.2H56.613Z" transform="translate(-8.669 83.437)" fill="#ffc344"/>
              <g id="g1551" transform="translate(35.452 25.236)">
                <path id="path1553" d="M-1.549,0H-5.916l-4.2,25.266h4.367Z" transform="translate(10.119)" fill="#ffc344"/>
              </g>
              <g id="g1555" transform="translate(22.352 25.236)">
                <path id="path1557" d="M0-4.568H4.367l4.2-25.266H4.2Z" transform="translate(0 29.834)" fill="#ffc344"/>
              </g>
              <g id="g1559" transform="translate(9.252 25.236)">
                <path id="path1561" d="M-.629-.789l-3.478,20.9H.26L3.738-.789l.726-4.367H.1Z" transform="translate(4.106 5.156)" fill="#ffc344"/>
              </g>
              <g id="g1563" transform="translate(57.384 27.152)">
                <path id="path1565" d="M-1.988,0,3.067,9.813h-15.03a1.019,1.019,0,0,1-1.019-1.023l.033-7.775A1.019,1.019,0,0,1-11.93,0Z" transform="translate(12.982)" fill="#d9ebfc"/>
              </g>
              <g id="g1567" transform="translate(64.012 27.152)">
                <path id="path1569" d="M-.79,0H-5.156L-.1,9.813H4.265Z" transform="translate(5.156)" fill="#c2e3ff"/>
              </g>
              <g id="g1571" transform="translate(1.092 50.501)">
                <path id="path1573" d="M-.263-.967H69.168a1.456,1.456,0,0,0,1.456-1.456V-6.317H-.263A1.456,1.456,0,0,0-1.719-4.862v2.439A1.456,1.456,0,0,0-.263-.967" transform="translate(1.719 6.317)" fill="#d6cfd5"/>
              </g>
              <g id="g1575" transform="translate(67.611 50.501)">
                <path id="path1577" d="M-.263,0V3.895A1.456,1.456,0,0,1-1.719,5.35H2.648A1.456,1.456,0,0,0,4.1,3.895V0Z" transform="translate(1.719)" fill="#c8bec7"/>
              </g>
              <g id="g1579" transform="translate(66.447 41.331)">
                <path id="path1581" d="M-.434-.868H4.151v-4.8H-.434a2.4,2.4,0,0,0-2.4,2.4,2.4,2.4,0,0,0,2.4,2.4" transform="translate(2.836 5.672)" fill="#ffd15b"/>
              </g>
              <path id="path1583" d="M81.555-34.393h4.367v-4.8H81.555Z" transform="translate(-12.488 80.527)" fill="#ffc344"/>
              <g id="g1585" transform="translate(5.968 46.662)">
                <path id="path1587" d="M0-1.316A7.278,7.278,0,0,0,7.278,5.962a7.278,7.278,0,0,0,7.278-7.278A7.278,7.278,0,0,0,7.278-8.594,7.278,7.278,0,0,0,0-1.316" transform="translate(0 8.594)" fill="#685e68"/>
              </g>
              <g id="g1589" transform="translate(11.062 46.662)">
                <path id="path1591" d="M-.395,0A7.276,7.276,0,0,0-2.578.334,7.281,7.281,0,0,1,2.516,7.278a7.281,7.281,0,0,1-5.095,6.944,7.276,7.276,0,0,0,2.183.334A7.278,7.278,0,0,0,6.883,7.278,7.278,7.278,0,0,0-.395,0" transform="translate(2.578)" fill="#554e56"/>
              </g>
              <g id="g1593" transform="translate(10.335 51.028)">
                <path id="path1595" d="M-.526-1.053A2.914,2.914,0,0,0,2.385-3.964,2.914,2.914,0,0,0-.526-6.875,2.914,2.914,0,0,0-3.437-3.964,2.914,2.914,0,0,0-.526-1.053" transform="translate(3.438 6.875)" fill="#f8f6f7"/>
              </g>
              <g id="g1597" transform="translate(47.452 46.662)">
                <path id="path1599" d="M0-1.316A7.278,7.278,0,0,0,7.278,5.962a7.278,7.278,0,0,0,7.278-7.278A7.278,7.278,0,0,0,7.278-8.594,7.278,7.278,0,0,0,0-1.316" transform="translate(0 8.594)" fill="#685e68"/>
              </g>
              <g id="g1601" transform="translate(52.546 46.662)">
                <path id="path1603" d="M-.395,0A7.276,7.276,0,0,0-2.578.334,7.281,7.281,0,0,1,2.516,7.278a7.281,7.281,0,0,1-5.095,6.944,7.276,7.276,0,0,0,2.183.334A7.278,7.278,0,0,0,6.883,7.278,7.278,7.278,0,0,0-.395,0" transform="translate(2.578)" fill="#554e56"/>
              </g>
              <g id="g1605" transform="translate(51.818 51.028)">
                <path id="path1607" d="M-.526-1.053A2.914,2.914,0,0,0,2.385-3.964,2.914,2.914,0,0,0-.526-6.875,2.914,2.914,0,0,0-3.437-3.964,2.914,2.914,0,0,0-.526-1.053" transform="translate(3.438 6.875)" fill="#f8f6f7"/>
              </g>
              <g id="g1609" transform="translate(0 12.217)">
                <path id="path1611" d="M-2.395-7.873A1.821,1.821,0,0,1-4.214-9.692a1.821,1.821,0,0,1,1.819-1.819A1.821,1.821,0,0,1-.575-9.692,1.821,1.821,0,0,1-2.395-7.873m0-5.822a4.007,4.007,0,0,0-4,4,4.007,4.007,0,0,0,4,4,4.007,4.007,0,0,0,4-4,4.007,4.007,0,0,0-4-4m59.1-9.7H53.208A3.5,3.5,0,0,0,49.715-19.9a3.5,3.5,0,0,0,3.493,3.493H56.7v2.183H46.121a8.368,8.368,0,0,0-7.032-3.84,8.387,8.387,0,0,0-1.326.106v-6.82a1.092,1.092,0,0,0-1.092-1.092,1.092,1.092,0,0,0-1.092,1.092v7.488a8.423,8.423,0,0,0-3.523,3.065h-6.59L28.58-32.938h7v3.8a1.092,1.092,0,0,0,1.092,1.092,1.092,1.092,0,0,0,1.092-1.092V-40.134a.364.364,0,0,1,.364-.364H49.218a.363.363,0,0,1,.323.2l1.406,2.729H42.8a2.115,2.115,0,0,0-2.111,2.1L40.652-27.7a2.1,2.1,0,0,0,.615,1.5,2.1,2.1,0,0,0,1.5.621H56.7Zm0,4.8H53.208A1.312,1.312,0,0,1,51.9-19.9a1.312,1.312,0,0,1,1.31-1.31H56.7Zm0,9.353a.364.364,0,0,1-.364.364h-8.92c.026-.27.041-.544.041-.821a8.341,8.341,0,0,0-.337-2.347H56.7ZM39.089-3.506A6.193,6.193,0,0,1,32.9-9.692a6.193,6.193,0,0,1,6.186-6.186,6.193,6.193,0,0,1,6.186,6.186,6.193,6.193,0,0,1-6.186,6.186M30.76-8.872H5.934c.026-.27.041-.544.041-.821a8.341,8.341,0,0,0-.337-2.347H31.057a8.341,8.341,0,0,0-.337,2.347c0,.277.014.551.041.821M4.637-14.222a8.4,8.4,0,0,0-4.784-3.53L2.38-32.938H8.9l-.608,3.654a1.092,1.092,0,0,0,.9,1.256,1.1,1.1,0,0,0,1.256-.9L11.84-37.3h2.153l-3.84,23.082H8l1.589-9.554a1.092,1.092,0,0,0-.9-1.256,1.091,1.091,0,0,0-1.256.9L5.786-14.222ZM-2.395-3.506A6.193,6.193,0,0,1-8.581-9.692a6.193,6.193,0,0,1,6.186-6.186A6.193,6.193,0,0,1,3.791-9.692,6.193,6.193,0,0,1-2.395-3.506m-9.1-10.716,3.065-18.716H-4.2L-6.895-16.744a8.436,8.436,0,0,0-2.532,2.521Zm.769,5.351h-2.37a.364.364,0,0,1-.364-.364v-2.44a.364.364,0,0,1,.364-.364h2.666a8.341,8.341,0,0,0-.337,2.347c0,.277.014.551.041.821M-7.712-37.3h4.239l-.363,2.183H-8.07Zm8.605,0-3.2,19.245a8.326,8.326,0,0,0-2.2.268L-1.26-37.3Zm2.213,0h6.52l-.363,2.183H2.743ZM22-32.938,18.886-14.222h-6.52L15.48-32.938ZM16.206-37.3h6.52l-.363,2.183h-6.52Zm10.887,0-3.84,23.082H21.1L24.94-37.3Zm2.213,0h.964a2.118,2.118,0,0,0,2.1-1.945l.785-9.982h9.305v2.183H37.69a2.113,2.113,0,0,0-2.111,2.111v9.816H28.943Zm22.766,1.917L56-27.759H42.836l.032-7.629Zm6.812,8.72a1.163,1.163,0,0,0-.121-.5L51.482-41.3a2.54,2.54,0,0,0-2.264-1.38c-.393,0-11.1-.025-11.455.029v-2.212h4.774a2.113,2.113,0,0,0,2.111-2.111V-49.3a2.113,2.113,0,0,0-2.111-2.111H33.092a2.122,2.122,0,0,0-2.1,1.945L30.2-39.488H-7.775a2.112,2.112,0,0,0-2.078,1.745l-3.865,23.6a2.549,2.549,0,0,0-1.923,2.466v2.44a2.55,2.55,0,0,0,2.547,2.547H-10.2a8.382,8.382,0,0,0,7.81,5.366,8.382,8.382,0,0,0,7.81-5.366H31.279a8.382,8.382,0,0,0,7.81,5.366A8.382,8.382,0,0,0,46.9-6.688h9.439a2.55,2.55,0,0,0,2.547-2.547V-26.667Zm-19.8,18.8A1.821,1.821,0,0,1,37.27-9.692a1.821,1.821,0,0,1,1.819-1.819,1.821,1.821,0,0,1,1.819,1.819,1.821,1.821,0,0,1-1.819,1.819m0-5.822a4.007,4.007,0,0,0-4,4,4.007,4.007,0,0,0,4,4,4.007,4.007,0,0,0,4-4,4.007,4.007,0,0,0-4-4" transform="translate(15.641 51.415)"/>
              </g>
            </g>
          </g>
        </g>
      </g>
    </g>
  </g>
</svg>
