<svg xmlns="http://www.w3.org/2000/svg" xmlns:xlink="http://www.w3.org/1999/xlink" width="596.616" height="584.379" viewBox="0 0 596.616 584.379">
  <defs>
    <clipPath id="clip-path">
      <circle id="Elipse_8438" data-name="Elipse 8438" cx="95.494" cy="95.494" r="95.494" transform="translate(592.699 3568.343)" fill="#fff"/>
    </clipPath>
    <clipPath id="clip-path-2">
      <circle id="Elipse_8444" data-name="Elipse 8444" cx="95.494" cy="95.494" r="95.494" transform="translate(861.697 3568.343)" fill="#fff"/>
    </clipPath>
    <clipPath id="clip-path-3">
      <circle id="Elipse_8447" data-name="Elipse 8447" cx="95.494" cy="95.494" r="95.494" transform="translate(707.813 3334.314)" fill="#fff"/>
    </clipPath>
  </defs>
  <g id="Grupo_1033892" data-name="Grupo 1033892" transform="translate(-473 -3450)">
    <g id="Grupo_1029613" data-name="Grupo 1029613" transform="translate(-18.885 206)">
      <g id="Grupo_1029610" data-name="Grupo 1029610" transform="translate(645.999 3244)">
        <circle id="Elipse_8402" data-name="Elipse 8402" cx="131.809" cy="131.809" r="131.809" transform="translate(44.385 0)" fill="#ffa031"/>
        <circle id="Elipse_8403" data-name="Elipse 8403" cx="95.494" cy="95.494" r="95.494" transform="translate(80.699 36.314)" fill="#fff"/>
      </g>
      <g id="Grupo_1029612" data-name="Grupo 1029612" transform="translate(780.498 3478.028)">
        <circle id="Elipse_8402-2" data-name="Elipse 8402" cx="131.809" cy="131.809" r="131.809" transform="translate(44.385 0)" fill="#ffa031"/>
        <circle id="Elipse_8403-2" data-name="Elipse 8403" cx="95.494" cy="95.494" r="95.494" transform="translate(80.699 36.315)" fill="#fff"/>
      </g>
      <g id="Grupo_1029614" data-name="Grupo 1029614" transform="translate(505.5 3478.028)">
        <path id="Trazado_727764" data-name="Trazado 727764" d="M131.809,0A131.809,131.809,0,1,1,0,131.809,131.809,131.809,0,0,1,131.809,0Z" transform="translate(44.385 0)" fill="#ffa031"/>
        <circle id="Elipse_8403-3" data-name="Elipse 8403" cx="95.494" cy="95.494" r="95.494" transform="translate(80.699 36.315)" fill="#fff"/>
        <path id="Trazado_736442" data-name="Trazado 736442" d="M67.542,0A67.542,67.542,0,1,1,0,67.542,67.542,67.542,0,0,1,67.542,0Z" transform="translate(-13.615 65.888)" fill="#ffa031" opacity="0"/>
      </g>
    </g>
    <g id="Enmascarar_grupo_1026463" data-name="Enmascarar grupo 1026463" transform="translate(-27 152)" clip-path="url(#clip-path)">
      <g id="Fill_Outline" data-name="Fill Outline" transform="translate(616.665 3583.277)">
        <g id="Color" transform="translate(8.653 8.704)">
          <path id="Trazado_728910" data-name="Trazado 728910" d="M21.246,15.911v7.019l-3.042.763a2.319,2.319,0,0,1-1.7-.161,4.567,4.567,0,0,0-2.274-.6,4.68,4.68,0,0,0,0,9.359,4.567,4.567,0,0,0,2.263-.6,2.319,2.319,0,0,1,1.7-.161l3.053.763v7.019H49.323v-23.4Z" transform="translate(-9.509 -11.232)" fill="#ef5350"/>
          <path id="Trazado_728911" data-name="Trazado 728911" d="M60.555,51.711a4.567,4.567,0,0,0-2.263.6,2.319,2.319,0,0,1-1.7.161l-3.053-.763V43.521H44.176l-.763-3.042a2.319,2.319,0,0,1,.161-1.7,4.567,4.567,0,0,0,.6-2.274,4.68,4.68,0,0,0-9.359,0,4.567,4.567,0,0,0,.6,2.263,2.319,2.319,0,0,1,.161,1.7l-.763,3.053H25.458v23.4h9.359l.763-3.042a2.319,2.319,0,0,0-.161-1.7,4.567,4.567,0,0,1-.6-2.274,4.68,4.68,0,0,1,9.359,0,4.567,4.567,0,0,1-.6,2.263,2.319,2.319,0,0,0-.161,1.7l.763,3.053h9.359V61.07l3.042-.763a2.319,2.319,0,0,1,1.7.161,4.567,4.567,0,0,0,2.274.6,4.68,4.68,0,1,0,0-9.359Z" transform="translate(-13.721 -15.444)" fill="#48cae4"/>
          <path id="Trazado_728912" data-name="Trazado 728912" d="M35.95,39.309H21.232V32.29l-3.042-.772a2.384,2.384,0,0,0-1.708.164,4.68,4.68,0,1,1,0-8.143,2.384,2.384,0,0,0,1.708.164l3.042-.772V15.911H35.271V34.63a16.163,16.163,0,0,0,.679,4.68Z" transform="translate(-9.495 -11.232)" fill="#e53935"/>
          <path id="Trazado_728913" data-name="Trazado 728913" d="M65.235,56.39a4.649,4.649,0,0,1-6.949,4.071,2.384,2.384,0,0,0-1.708-.164l-3.042.772v5.85H44.176L43.4,63.878a2.384,2.384,0,0,1,.164-1.708,4.68,4.68,0,1,0-8.143,0,2.384,2.384,0,0,1,.164,1.708l-.772,3.042H25.458v-23.4h9.359l.772-3.042a2.384,2.384,0,0,0-.164-1.708A4.649,4.649,0,0,1,39.5,31.822v7.019a16.163,16.163,0,0,0,.679,4.68,16.379,16.379,0,0,0,15.7,11.7h9.2a3.928,3.928,0,0,1,.164,1.17Z" transform="translate(-13.721 -15.444)" fill="#4db1f0"/>
          <path id="Trazado_728914" data-name="Trazado 728914" d="M113.436,121.017V106.979h-5.754a23.422,23.422,0,0,0-1.586-3.793l4.081-4.078-9.928-9.928L96.17,93.26a23.421,23.421,0,0,0-3.793-1.586V85.92H78.338v5.754a23.421,23.421,0,0,0-3.793,1.586L70.467,89.18,60.54,99.107l4.081,4.078a23.422,23.422,0,0,0-1.586,3.793H57.28v14.039h5.754a23.421,23.421,0,0,0,1.586,3.793l-4.081,4.078,9.928,9.928,4.078-4.081a23.422,23.422,0,0,0,3.793,1.586v5.754H92.377v-5.754a23.421,23.421,0,0,0,3.793-1.586l4.078,4.081,9.928-9.928L106.1,124.81a23.421,23.421,0,0,0,1.586-3.793ZM85.358,125.7a11.7,11.7,0,1,1,11.7-11.7A11.7,11.7,0,0,1,85.358,125.7Z" transform="translate(-22.145 -29.765)" fill="#e9f1f2"/>
          <path id="Trazado_728915" data-name="Trazado 728915" d="M99.4,134.924A32.792,32.792,0,0,1,67.6,94.258l-7.066,7.066,4.095,4.071a24.493,24.493,0,0,0-1.591,3.79H57.28v14.039h5.756a24.494,24.494,0,0,0,1.591,3.791l-4.095,4.071,9.944,9.944,4.071-4.095a24.491,24.491,0,0,0,3.79,1.591v5.756H92.377v-5.756a24.494,24.494,0,0,0,3.79-1.591l4.071,4.095,7.066-7.066A32.539,32.539,0,0,1,99.4,134.924Z" transform="translate(-22.145 -31.972)" fill="#d0d8da"/>
          <path id="Trazado_728916" data-name="Trazado 728916" d="M88.728,98.649a18.718,18.718,0,1,0,18.718,18.718A18.718,18.718,0,0,0,88.728,98.649Zm0,30.418a11.7,11.7,0,1,1,11.7-11.7A11.7,11.7,0,0,1,88.728,129.067Z" transform="translate(-25.515 -33.135)" fill="#d0d8da"/>
          <path id="Trazado_728917" data-name="Trazado 728917" d="M71.015,115.929a18.323,18.323,0,0,0-1.006,6.013,18.718,18.718,0,0,0,18.718,18.718,18.323,18.323,0,0,0,6.013-1.006A32.72,32.72,0,0,1,71.015,115.929Z" transform="translate(-25.515 -37.709)" fill="#93999a"/>
          <path id="Trazado_728918" data-name="Trazado 728918" d="M150.556,79.181a14.19,14.19,0,0,0-.234-2.56l4.755-2.747-4.68-8.105-4.755,2.747a13.957,13.957,0,0,0-4.446-2.557v-5.5h-9.359v5.5a13.957,13.957,0,0,0-4.446,2.557l-4.757-2.747-4.68,8.105,4.757,2.747a13.585,13.585,0,0,0,0,5.12l-4.755,2.747,4.68,8.105,4.757-2.747a13.957,13.957,0,0,0,4.443,2.557v5.5H141.2V92.4a13.957,13.957,0,0,0,4.446-2.557l4.757,2.747,4.68-8.105-4.757-2.747a14.192,14.192,0,0,0,.234-2.56Zm-14.039,4.68a4.68,4.68,0,1,1,4.68-4.68A4.68,4.68,0,0,1,136.518,83.861Z" transform="translate(-38.208 -23.025)" fill="#93999a"/>
          <path id="Trazado_728919" data-name="Trazado 728919" d="M143.539,90.511a21.058,21.058,0,0,1-21.058-21.058q0-.772.07-1.544l-4.586,7.932,4.75,2.761a14.018,14.018,0,0,0,0,5.1l-4.75,2.761,4.68,8.1,4.75-2.738a14.479,14.479,0,0,0,4.446,2.55v5.5H141.2v-5.5a14.479,14.479,0,0,0,4.446-2.55l4.75,2.738,4.141-7.16a20.773,20.773,0,0,1-11,3.112Z" transform="translate(-38.21 -24.997)" fill="#656b76"/>
          <path id="Trazado_728920" data-name="Trazado 728920" d="M139.831,73.191a9.359,9.359,0,1,0,9.359,9.359A9.359,9.359,0,0,0,139.831,73.191Zm0,14.039a4.68,4.68,0,1,1,4.68-4.68A4.68,4.68,0,0,1,139.831,87.23Z" transform="translate(-41.521 -26.395)" fill="#656b76"/>
          <path id="Trazado_728921" data-name="Trazado 728921" d="M130.694,88.243a9.359,9.359,0,0,0,9.2,7.651,9.228,9.228,0,0,0,2.784-.421,20.9,20.9,0,0,1-11.98-7.23Z" transform="translate(-41.58 -30.38)" fill="#464a51"/>
          <circle id="Elipse_8439" data-name="Elipse 8439" cx="7.019" cy="7.019" r="7.019" transform="translate(65.552 0)" fill="#ffa031"/>
          <path id="Trazado_728922" data-name="Trazado 728922" d="M102.486,28.64h4.68a7.019,7.019,0,0,1,7.019,7.019v7.019H95.467V35.66A7.019,7.019,0,0,1,102.486,28.64Z" transform="translate(-32.254 -14.601)" fill="#ffa031"/>
          <path id="Trazado_728923" data-name="Trazado 728923" d="M112.382,18.711a7.019,7.019,0,1,1-8.751-8.751,7.254,7.254,0,0,0-.3,2.036,7.019,7.019,0,0,0,7.019,7.019A7.253,7.253,0,0,0,112.382,18.711Z" transform="translate(-33.095 -9.656)" fill="#ffa031"/>
          <path id="Trazado_728924" data-name="Trazado 728924" d="M114.185,38v4.68H95.467V35.659a7.019,7.019,0,0,1,7.019-7.019h4.68a3.791,3.791,0,0,1,.515.023,6.928,6.928,0,0,1-5.194,2.316,6.353,6.353,0,0,1-2.129-.351A9.359,9.359,0,0,0,109.506,38Z" transform="translate(-32.254 -14.601)" fill="#ffa031"/>
          <circle id="Elipse_8440" data-name="Elipse 8440" cx="7.019" cy="7.019" r="7.019" transform="translate(11.737 95.932)" fill="#ffa031"/>
          <path id="Trazado_728925" data-name="Trazado 728925" d="M29.3,159.112h4.68a7.019,7.019,0,0,1,7.019,7.019v7.019H22.276v-7.019a7.019,7.019,0,0,1,7.019-7.019Z" transform="translate(-12.879 -49.141)" fill="#ffa031"/>
          <path id="Trazado_728926" data-name="Trazado 728926" d="M39.191,149.183a7.019,7.019,0,1,1-8.751-8.751,7.253,7.253,0,0,0-.3,2.036,7.019,7.019,0,0,0,7.019,7.019,7.253,7.253,0,0,0,2.036-.3Z" transform="translate(-13.72 -44.196)" fill="#ffa031"/>
          <path id="Trazado_728927" data-name="Trazado 728927" d="M40.994,168.471v4.68H22.276v-7.019a7.019,7.019,0,0,1,7.019-7.019h4.68a3.792,3.792,0,0,1,.515.023,6.928,6.928,0,0,1-5.194,2.316,6.353,6.353,0,0,1-2.129-.351,9.359,9.359,0,0,0,9.149,7.37Z" transform="translate(-12.879 -49.14)" fill="#ffa031"/>
          <circle id="Elipse_8441" data-name="Elipse 8441" cx="7.019" cy="7.019" r="7.019" transform="translate(114.688 98.272)" fill="#ffa031"/>
          <path id="Trazado_728928" data-name="Trazado 728928" d="M169.313,162.294h4.68a7.019,7.019,0,0,1,7.019,7.019v7.019H162.294v-7.019A7.019,7.019,0,0,1,169.313,162.294Z" transform="translate(-49.945 -49.983)" fill="#ffa031"/>
          <g id="Grupo_1030377" data-name="Grupo 1030377" transform="translate(112.349 98.576)">
            <path id="Trazado_728929" data-name="Trazado 728929" d="M179.209,152.365a7.019,7.019,0,1,1-8.751-8.751,7.253,7.253,0,0,0-.3,2.036,7.019,7.019,0,0,0,7.019,7.019A7.253,7.253,0,0,0,179.209,152.365Z" transform="translate(-163.135 -143.614)" fill="#ffa031"/>
            <path id="Trazado_728930" data-name="Trazado 728930" d="M181.012,171.653v4.68H162.294v-7.019a7.019,7.019,0,0,1,7.019-7.019h4.68a3.787,3.787,0,0,1,.515.023,6.928,6.928,0,0,1-5.194,2.316,6.353,6.353,0,0,1-2.129-.351,9.359,9.359,0,0,0,9.149,7.37Z" transform="translate(-162.294 -148.559)" fill="#ffa031"/>
          </g>
        </g>
        <g id="Outline_copy" data-name="Outline copy" transform="translate(6.315 6.364)">
          <path id="Trazado_728931" data-name="Trazado 728931" d="M60.949,123.488l-2.9,2.9a2.34,2.34,0,0,0,0,3.308l9.925,9.925a2.34,2.34,0,0,0,3.308,0l2.9-2.9c.325.143.648.278.973.409v4.1a2.34,2.34,0,0,0,2.34,2.34h4.68a2.34,2.34,0,1,0,0-4.68h-2.34V135.48a2.34,2.34,0,0,0-1.638-2.232,20.9,20.9,0,0,1-3.409-1.427,2.34,2.34,0,0,0-2.74.419l-2.424,2.424-6.617-6.617,2.424-2.424a2.34,2.34,0,0,0,.419-2.74,20.9,20.9,0,0,1-1.427-3.409,2.34,2.34,0,0,0-2.232-1.638H58.778v-9.359h3.414a2.34,2.34,0,0,0,2.232-1.638,20.9,20.9,0,0,1,1.427-3.409,2.34,2.34,0,0,0-.419-2.74l-2.424-2.424,6.617-6.617,2.424,2.424a2.34,2.34,0,0,0,2.74.419A20.9,20.9,0,0,1,78.2,93.064a2.34,2.34,0,0,0,1.638-2.232V87.418H89.2v3.414a2.34,2.34,0,0,0,1.638,2.232,20.9,20.9,0,0,1,3.409,1.427,2.34,2.34,0,0,0,2.74-.419l2.424-2.424,6.617,6.617-2.424,2.424a2.34,2.34,0,0,0-.419,2.74,20.9,20.9,0,0,1,1.427,3.409,2.34,2.34,0,0,0,2.232,1.638h3.414v9.359H106.84a2.34,2.34,0,0,0-2.232,1.638,20.9,20.9,0,0,1-1.427,3.409,2.34,2.34,0,0,0,.419,2.74l2.424,2.424-6.617,6.617-2.424-2.424a2.34,2.34,0,0,0-2.74-.419,20.9,20.9,0,0,1-3.409,1.427A2.34,2.34,0,0,0,89.2,135.48v5.754a2.34,2.34,0,0,0,4.68,0v-4.1c.325-.131.648-.267.973-.409l2.9,2.9a2.34,2.34,0,0,0,3.308,0l9.925-9.925a2.34,2.34,0,0,0,0-3.308l-2.9-2.9c.143-.325.278-.648.409-.973h4.1a2.34,2.34,0,0,0,2.34-2.34V106.136a2.34,2.34,0,0,0-2.34-2.34h-4.1c-.131-.325-.267-.648-.409-.973l2.9-2.9a2.34,2.34,0,0,0,0-3.308l-9.925-9.925a2.34,2.34,0,0,0-3.308,0l-2.9,2.9c-.325-.143-.648-.278-.973-.409v-4.1a2.34,2.34,0,0,0-2.34-2.34H77.5a2.34,2.34,0,0,0-2.34,2.34v4.1c-.325.131-.648.267-.973.409l-2.9-2.9a2.34,2.34,0,0,0-3.309,0l-9.925,9.925a2.34,2.34,0,0,0,0,3.308l2.9,2.9c-.143.325-.278.648-.409.973h-4.1a2.34,2.34,0,0,0-2.34,2.34v14.039a2.34,2.34,0,0,0,2.34,2.34h4.1c.131.325.267.648.409.973Z" transform="translate(-18.964 -26.583)" fill="#323232"/>
          <path id="Trazado_728932" data-name="Trazado 728932" d="M104.451,119.053a14.039,14.039,0,1,0-14.039,14.039,14.039,14.039,0,0,0,14.039-14.039Zm-14.039,9.359a9.359,9.359,0,1,1,9.359-9.359A9.359,9.359,0,0,1,90.412,128.412Z" transform="translate(-24.861 -32.48)" fill="#323232"/>
          <path id="Trazado_728933" data-name="Trazado 728933" d="M94.625,39.122h11.7a2.34,2.34,0,0,0,0-4.68H96.964v-4.68a4.68,4.68,0,0,1,4.68-4.68h4.68a4.68,4.68,0,0,1,4.68,4.68,2.34,2.34,0,1,0,4.68,0,9.331,9.331,0,0,0-4.6-8.014,9.36,9.36,0,1,0-14.2,0,9.331,9.331,0,0,0-4.6,8.014v7.019A2.34,2.34,0,0,0,94.625,39.122Zm9.359-28.078a4.68,4.68,0,1,1-4.68,4.68A4.68,4.68,0,0,1,103.984,11.044Z" transform="translate(-29.073 -6.364)" fill="#323232"/>
          <path id="Trazado_728934" data-name="Trazado 728934" d="M37.894,152.22a9.36,9.36,0,1,0-14.2,0,9.331,9.331,0,0,0-4.6,8.014v7.019a2.34,2.34,0,0,0,2.34,2.34H40.152a2.34,2.34,0,0,0,2.34-2.34v-7.019A9.331,9.331,0,0,0,37.894,152.22Zm-7.1-10.7a4.68,4.68,0,1,1-4.68,4.68A4.68,4.68,0,0,1,30.792,141.516Zm7.019,23.4H23.773v-4.68a4.68,4.68,0,0,1,4.68-4.68h4.68a4.68,4.68,0,0,1,4.68,4.68Z" transform="translate(-9.698 -40.904)" fill="#323232"/>
          <path id="Trazado_728935" data-name="Trazado 728935" d="M177.912,155.3a9.359,9.359,0,1,0-14.2,0,9.331,9.331,0,0,0-4.6,8.014v7.019a2.34,2.34,0,0,0,2.34,2.34h9.359a2.34,2.34,0,1,0,0-4.68h-7.019v-4.68a4.68,4.68,0,0,1,4.68-4.68h4.68a4.68,4.68,0,0,1,4.68,4.68v7.019a2.34,2.34,0,1,0,4.68,0v-7.019A9.331,9.331,0,0,0,177.912,155.3Zm-7.1-10.7a4.68,4.68,0,1,1-4.68,4.68A4.68,4.68,0,0,1,170.811,144.593Z" transform="translate(-46.764 -41.699)" fill="#323232"/>
          <path id="Trazado_728936" data-name="Trazado 728936" d="M151.576,92.92l4.68-8.105a2.34,2.34,0,0,0-.856-3.2L152,79.656c.037-.442.056-.88.056-1.317s-.019-.875-.056-1.317l3.4-1.963a2.34,2.34,0,0,0,.856-3.2l-4.68-8.105a2.34,2.34,0,0,0-3.2-.856l-3.4,1.965a16.074,16.074,0,0,0-2.279-1.313V59.62a2.34,2.34,0,0,0-2.34-2.34H131a2.34,2.34,0,0,0-2.34,2.34v3.933a16.075,16.075,0,0,0-2.279,1.313l-3.4-1.965a2.34,2.34,0,0,0-3.2.856l-4.68,8.105a2.34,2.34,0,0,0,.856,3.2L120.7,77.8a2.34,2.34,0,1,0,2.34-4.053l-2.728-1.577,2.34-4.053,2.728,1.577a2.34,2.34,0,0,0,2.691-.248,11.648,11.648,0,0,1,3.695-2.129,2.34,2.34,0,0,0,1.57-2.206V61.96h4.68v3.156a2.34,2.34,0,0,0,1.561,2.206,11.648,11.648,0,0,1,3.694,2.129,2.34,2.34,0,0,0,2.691.248l2.728-1.577,2.34,4.053-2.719,1.577a2.34,2.34,0,0,0-1.132,2.45,11.184,11.184,0,0,1,0,4.272,2.34,2.34,0,0,0,1.132,2.45l2.728,1.577-2.34,4.053-2.728-1.577a2.34,2.34,0,0,0-2.691.248,11.648,11.648,0,0,1-3.695,2.129,2.34,2.34,0,0,0-1.561,2.206v3.156h-2.349a2.34,2.34,0,1,0,0,4.68h4.68a2.34,2.34,0,0,0,2.34-2.34V93.124a16.073,16.073,0,0,0,2.279-1.313l3.4,1.965a2.34,2.34,0,0,0,3.2-.856Z" transform="translate(-35.031 -19.843)" fill="#323232"/>
          <path id="Trazado_728937" data-name="Trazado 728937" d="M140.673,90.412a7.019,7.019,0,1,0-7.019-7.019A7.019,7.019,0,0,0,140.673,90.412Zm0-9.359a2.34,2.34,0,1,1-2.34,2.34A2.34,2.34,0,0,1,140.673,81.053Z" transform="translate(-40.025 -24.898)" fill="#323232"/>
          <path id="Trazado_728938" data-name="Trazado 728938" d="M124.007,179.592a60.858,60.858,0,0,1-63.086-2.742,2.34,2.34,0,1,0-2.6,3.889,65.515,65.515,0,0,0,67.944,2.95,2.34,2.34,0,1,0-2.256-4.1Z" transform="translate(-19.807 -51.392)" fill="#323232"/>
          <path id="Trazado_728939" data-name="Trazado 728939" d="M129.4,21.87a2.34,2.34,0,1,0-1.17,4.53,60.849,60.849,0,0,1,42.412,78.481,2.34,2.34,0,1,0,4.432,1.5A65.515,65.515,0,0,0,129.4,21.868Z" transform="translate(-38.123 -10.449)" fill="#323232"/>
          <path id="Trazado_728940" data-name="Trazado 728940" d="M50.808,61.865V57.8l1.264-.349a7.013,7.013,0,1,0,3.416-13.133,7.63,7.63,0,0,0-3.4.833l-1.28-.321V30.322A60.236,60.236,0,0,1,66.017,24a2.34,2.34,0,1,0-1.17-4.53,63.8,63.8,0,0,0-14.039,5.539V15.069a2.34,2.34,0,0,0-2.34-2.34H39.109a2.34,2.34,0,0,0,0,4.68h7.019V36.127H40.892l-.349-1.264A7.013,7.013,0,1,0,27.41,31.447a7.63,7.63,0,0,0,.833,3.4l-.321,1.28H22.73v-4.68a2.34,2.34,0,0,0-1.764-2.267l-3.07-.774a4.708,4.708,0,0,0-3.383.388,2.34,2.34,0,1,1,0-4.041,4.743,4.743,0,0,0,3.411.377l3.042-.772a2.34,2.34,0,0,0,1.764-2.27v-4.68h7.019a2.34,2.34,0,0,0,0-4.68H20.39a2.34,2.34,0,0,0-2.34,2.34V20.3l-1.28.349a7.019,7.019,0,1,0-3.4,13.14,7.7,7.7,0,0,0,3.4-.845l1.278.325v5.2a2.34,2.34,0,0,0,2.34,2.34h9.359a2.34,2.34,0,0,0,2.27-1.771l.763-3.042a4.623,4.623,0,0,0-.4-3.425,2.239,2.239,0,0,1-.3-1.121,2.34,2.34,0,0,1,4.68,0,2.239,2.239,0,0,1-.3,1.109,4.623,4.623,0,0,0-.4,3.425l.763,3.042a2.34,2.34,0,0,0,2.27,1.783h7.019v5.85a2.34,2.34,0,0,0,1.771,2.27l3.042.763a4.633,4.633,0,0,0,3.425-.4,2.34,2.34,0,1,1,0,4.085,4.63,4.63,0,0,0-3.425-.4l-3.042.763a2.34,2.34,0,0,0-1.771,2.27v3.51H40.892l-.349-1.264A7.013,7.013,0,1,0,27.41,54.846a7.63,7.63,0,0,0,.833,3.4l-.321,1.28H22.73v-11.7a2.34,2.34,0,1,0-4.68,0V61.865a2.34,2.34,0,0,0,.657,1.614,65.208,65.208,0,0,0-.936,35.837,2.34,2.34,0,0,0,2.265,1.755,2.383,2.383,0,0,0,.585-.073,2.34,2.34,0,0,0,1.682-2.85A60.669,60.669,0,0,1,23.376,64.2h6.374a2.34,2.34,0,0,0,2.27-1.771l.763-3.042a4.623,4.623,0,0,0-.4-3.425,2.239,2.239,0,0,1-.3-1.121,2.34,2.34,0,0,1,4.68,0,2.239,2.239,0,0,1-.3,1.109,4.623,4.623,0,0,0-.4,3.425l.763,3.042a2.34,2.34,0,0,0,2.27,1.783h9.359a2.34,2.34,0,0,0,2.34-2.34Z" transform="translate(-6.315 -8.049)" fill="#323232"/>
        </g>
      </g>
    </g>
    <g id="Enmascarar_grupo_1026464" data-name="Enmascarar grupo 1026464" transform="translate(-5 152)" clip-path="url(#clip-path-2)">
      <g id="medicion" transform="translate(872.82 3598.641)">
        <rect id="Rectángulo_350776" data-name="Rectángulo 350776" width="22.753" height="21.318" transform="translate(15.946 105.37)" fill="#ffa031"/>
        <rect id="Rectángulo_350777" data-name="Rectángulo 350777" width="22.746" height="42.644" transform="translate(49.368 84.044)" fill="#4db1f0"/>
        <path id="Trazado_728973" data-name="Trazado 728973" d="M0,0H22.753V65.224H0Z" transform="translate(82.783 61.464)" fill="#065958"/>
        <line id="Línea_2751" data-name="Línea 2751" x2="9.418" transform="translate(116.962 41.4)" fill="none" stroke="#12263f" stroke-linecap="round" stroke-linejoin="round" stroke-miterlimit="10" stroke-width="5.595"/>
        <path id="Trazado_728941" data-name="Trazado 728941" d="M66.427,43.214a5.626,5.626,0,0,0,5.581,5.6H86.122a5.6,5.6,0,1,0,0-11.2h-10.2l-6,.413a5.629,5.629,0,0,0-3.494,5.189Z" transform="translate(-20.94 -11.25)" fill="#ffcebf" fill-rule="evenodd"/>
        <path id="Trazado_728942" data-name="Trazado 728942" d="M71.991,54.312a5.6,5.6,0,1,0,0,11.2H84.353a5.6,5.6,0,1,0,0-11.2H71.991Z" transform="translate(-20.922 -16.746)" fill="#ffcebf" fill-rule="evenodd"/>
        <path id="Trazado_728943" data-name="Trazado 728943" d="M79.485,71.012H75.541a4.971,4.971,0,1,0,0,9.943h6.353a4.993,4.993,0,0,0,.636-9.943H79.485Z" transform="translate(-22.3 -22.242)" fill="#ffcebf" fill-rule="evenodd"/>
        <path id="Trazado_728944" data-name="Trazado 728944" d="M55.033,48.77a5.6,5.6,0,1,1,0-11.2,5.6,5.6,0,0,1-2.086-10.791,6.123,6.123,0,0,0,8.754-5.51V13.888l.007-2.937c0-5.559-3.895-7.534-7.525-7.527l-12.792.007c-6.2.007-15.8,4.426-22.274,16.386L14.844,33.133l4.273,18.061c9.49,5.3,10.533,7.548,19.173,7.52H57.206a4.971,4.971,0,1,1,0-9.943Z" transform="translate(-3.964 0)" fill="#ffdfcf" fill-rule="evenodd"/>
        <path id="Trazado_728945" data-name="Trazado 728945" d="M108.234,32.116a5.6,5.6,0,1,0,0-11.2h-24.9V27.02a6.124,6.124,0,0,1-2.758,5.1Z" transform="translate(-25.594 -5.754)" fill="#ffcebf" fill-rule="evenodd"/>
        <path id="Trazado_728946" data-name="Trazado 728946" d="M108.234,32.116a5.6,5.6,0,0,0,.05-11.2c2.13,3.8-.464,6.707-4.03,6.707H83.3a6.126,6.126,0,0,1-2.73,4.5Z" transform="translate(-25.594 -5.754)" fill="#ffb09e" fill-rule="evenodd"/>
        <path id="Trazado_728947" data-name="Trazado 728947" d="M66.627,43.759a5.6,5.6,0,0,0,5.381,7.078H86.122a5.6,5.6,0,0,0,5.417-7.085c-.657,2.374-2.844,2.395-5.417,2.395H72.044c-2.523,0-4.745.029-5.417-2.388Z" transform="translate(-20.94 -13.271)" fill="#ffb09e" fill-rule="evenodd"/>
        <path id="Trazado_728948" data-name="Trazado 728948" d="M71.991,63.045a5.649,5.649,0,0,1-5.209-3.507,5.533,5.533,0,0,0-.407,2.1,5.624,5.624,0,0,0,5.617,5.6H84.353a5.624,5.624,0,0,0,5.617-5.6,5.537,5.537,0,0,0-.414-2.1,5.632,5.632,0,0,1-5.2,3.507Z" transform="translate(-20.922 -18.466)" fill="#ffb09e" fill-rule="evenodd"/>
        <line id="Línea_2752" data-name="Línea 2752" x2="10.233" transform="translate(54.978 26.361)" fill="none" stroke="#000" stroke-linecap="round" stroke-linejoin="round" stroke-miterlimit="10" stroke-width="5.595"/>
        <path id="Trazado_728949" data-name="Trazado 728949" d="M34.9,73.708a22.259,22.259,0,0,1-2.994-1.532L20.348,65.212l-1.765,1.853,1.765,4.462c9.49,5.3,10.533,7.548,19.173,7.52H58.436a4.991,4.991,0,0,1-4.881-3.992,4.866,4.866,0,0,1-.1-.977,3.157,3.157,0,0,1,.014-.371H34.9Z" transform="translate(-5.195 -20.333)" fill="#ffcebf" fill-rule="evenodd"/>
        <path id="Trazado_728950" data-name="Trazado 728950" d="M21.214,74.624c9.49,5.3,10.533,7.548,19.173,7.52H59.3" transform="translate(-6.06 -23.431)" fill="none" stroke="#12263f" stroke-linecap="round" stroke-linejoin="round" stroke-miterlimit="10" stroke-width="5.595"/>
        <path id="Trazado_728951" data-name="Trazado 728951" d="M53.832,18.485c-.407,2.687-4.8,4.5-7.182,4.376-5.667-.3-4.724,5.937,0,5.11,5.667.3,11.984-5.567,11.984-11.1v7.377a6.132,6.132,0,0,0,5.653,6.087c0-.228-.5-1.183-.493-1.44a9.431,9.431,0,0,1-.35-2.751v-8c0-6.885-8.3-8.3-9.612.349Z" transform="translate(-13.146 -2.979)" fill="#ffcebf" fill-rule="evenodd"/>
        <path id="Trazado_728952" data-name="Trazado 728952" d="M15.153,57.2V23.854a2.194,2.194,0,0,0-2.187-2.188H2.8V59.377H12.966A2.193,2.193,0,0,0,15.153,57.2Z" transform="translate(0 -6.003)" fill="#99e6fc" fill-rule="evenodd"/>
        <path id="Trazado_728953" data-name="Trazado 728953" d="M12.966,63.621H2.8v8.845H12.966a2.193,2.193,0,0,0,2.187-2.181V61.44a2.193,2.193,0,0,1-2.187,2.181Z" transform="translate(0 -19.092)" fill="#62dbfb" fill-rule="evenodd"/>
        <path id="Trazado_728954" data-name="Trazado 728954" d="M92.129,32.116h17.458a5.6,5.6,0,1,0,0-11.2h-24.9" transform="translate(-26.947 -5.754)" fill="none" stroke="#12263f" stroke-linecap="round" stroke-linejoin="round" stroke-miterlimit="10" stroke-width="5.595"/>
        <path id="Trazado_728955" data-name="Trazado 728955" d="M71.991,54.312a5.6,5.6,0,1,0,0,11.2H84.353a5.6,5.6,0,1,0,0-11.2Z" transform="translate(-20.922 -16.746)" fill="none" stroke="#12263f" stroke-linecap="round" stroke-linejoin="round" stroke-miterlimit="10" stroke-width="5.595"/>
        <path id="Trazado_728956" data-name="Trazado 728956" d="M69.921,38.025a5.6,5.6,0,0,0,2.086,10.791m12.363,0h1.751a5.6,5.6,0,1,0,0-11.2" transform="translate(-20.939 -11.25)" fill="none" stroke="#12263f" stroke-linecap="round" stroke-linejoin="round" stroke-miterlimit="10" stroke-width="5.595"/>
        <path id="Trazado_728957" data-name="Trazado 728957" d="M21.214,19.818C27.688,7.858,37.285,3.439,43.488,3.432l12.791-.007c3.63-.007,7.525,1.967,7.525,7.527L63.8,15.157v6.108a6.124,6.124,0,0,1-12.248,0V13.888c0,5.538-6.317,11.4-11.984,11.1" transform="translate(-6.06 0)" fill="none" stroke="#12263f" stroke-linecap="round" stroke-linejoin="round" stroke-miterlimit="10" stroke-width="5.595"/>
        <path id="Trazado_728958" data-name="Trazado 728958" d="M2.8,59.377H12.966A2.193,2.193,0,0,0,15.153,57.2V45.129m0-8.71V23.854a2.194,2.194,0,0,0-2.187-2.188H2.8" transform="translate(0 -6.003)" fill="none" stroke="#12263f" stroke-linecap="round" stroke-linejoin="round" stroke-miterlimit="10" stroke-width="5.595"/>
        <path id="Trazado_728959" data-name="Trazado 728959" d="M8.485,129.777H129.052V11.966" transform="translate(-1.872 -2.811)" fill="none" stroke="#12263f" stroke-linecap="round" stroke-linejoin="round" stroke-miterlimit="10" stroke-width="5.595"/>
        <line id="Línea_2753" data-name="Línea 2753" x2="9.418" transform="translate(116.962 20.082)" fill="none" stroke="#12263f" stroke-linecap="round" stroke-linejoin="round" stroke-miterlimit="10" stroke-width="5.595"/>
        <line id="Línea_2754" data-name="Línea 2754" x2="9.418" transform="translate(116.962 62.726)" fill="none" stroke="#12263f" stroke-linecap="round" stroke-linejoin="round" stroke-miterlimit="10" stroke-width="5.595"/>
        <line id="Línea_2755" data-name="Línea 2755" x2="9.418" transform="translate(116.962 84.044)" fill="none" stroke="#12263f" stroke-linecap="round" stroke-linejoin="round" stroke-miterlimit="10" stroke-width="5.595"/>
        <line id="Línea_2756" data-name="Línea 2756" x2="9.418" transform="translate(116.962 105.37)" fill="none" stroke="#12263f" stroke-linecap="round" stroke-linejoin="round" stroke-miterlimit="10" stroke-width="5.595"/>
        <path id="Trazado_728974" data-name="Trazado 728974" d="M0,0H8.718V65.224H0Z" transform="translate(96.817 61.464)" fill="#4db1f0"/>
        <rect id="Rectángulo_350780" data-name="Rectángulo 350780" width="8.711" height="42.644" transform="translate(63.403 84.044)" fill="#62dbfb"/>
        <rect id="Rectángulo_350781" data-name="Rectángulo 350781" width="8.711" height="21.318" transform="translate(29.988 105.37)" fill="#e94444"/>
        <rect id="Rectángulo_350782" data-name="Rectángulo 350782" width="22.753" height="21.318" transform="translate(15.946 105.37)" fill="none" stroke="#12263f" stroke-linecap="round" stroke-linejoin="round" stroke-miterlimit="10" stroke-width="5.595"/>
        <rect id="Rectángulo_350783" data-name="Rectángulo 350783" width="22.746" height="42.644" transform="translate(49.368 84.044)" fill="none" stroke="#12263f" stroke-linecap="round" stroke-linejoin="round" stroke-miterlimit="10" stroke-width="5.595"/>
        <path id="Trazado_728960" data-name="Trazado 728960" d="M122.015,117.63v-27.7h22.753v65.224H122.015V126.34" transform="translate(-39.233 -28.468)" fill="none" stroke="#12263f" stroke-linecap="round" stroke-linejoin="round" stroke-miterlimit="10" stroke-width="5.595"/>
        <path id="Trazado_728961" data-name="Trazado 728961" d="M80.736,79.009h-5.46a4.679,4.679,0,0,1-4.595-2.644,4.062,4.062,0,0,0-.107.727,3.157,3.157,0,0,0-.014.371,4.866,4.866,0,0,0,.1.977,4.991,4.991,0,0,0,4.881,3.992h6.353a5.024,5.024,0,0,0,4.981-5.011,4.949,4.949,0,0,0-.386-1.924,4.694,4.694,0,0,1-4.859,3.514h-.893Z" transform="translate(-22.3 -23.717)" fill="#ffb09e" fill-rule="evenodd"/>
        <path id="Trazado_728962" data-name="Trazado 728962" d="M75.541,71.012a4.971,4.971,0,1,0,0,9.943h6.353a4.993,4.993,0,0,0,.636-9.943" transform="translate(-22.3 -22.242)" fill="none" stroke="#12263f" stroke-linecap="round" stroke-linejoin="round" stroke-miterlimit="10" stroke-width="5.595"/>
      </g>
    </g>
    <g id="Grupo_1030380" data-name="Grupo 1030380" transform="translate(-21 152)">
      <path id="Trazado_735683" data-name="Trazado 735683" d="M67.542,0A67.542,67.542,0,1,1,0,67.542,67.542,67.542,0,0,1,67.542,0Z" transform="translate(883.916 3747.295)" fill="#065958" opacity="0"/>
    </g>
    <g id="Enmascarar_grupo_1026465" data-name="Enmascarar grupo 1026465" transform="translate(0 152)" clip-path="url(#clip-path-3)">
      <g id="evaluacion" transform="translate(704.733 3331.234)">
        <g id="Grupo_1030383" data-name="Grupo 1030383" transform="translate(43.131 25.617)">
          <g id="Grupo_1030381" data-name="Grupo 1030381" transform="translate(0 0)">
            <path id="Trazado_728963" data-name="Trazado 728963" d="M106.8,21.942a6.105,6.105,0,0,1,6.094,6.094V140.16a6.105,6.105,0,0,1-6.094,6.094H12.953A6.105,6.105,0,0,1,6.86,140.16V28.036a6.105,6.105,0,0,1,6.094-6.094Z" transform="translate(-6.86 -10.337)" fill="#afafaf" fill-rule="evenodd"/>
            <path id="Trazado_728964" data-name="Trazado 728964" d="M139.7,21.942a6.105,6.105,0,0,1,6.094,6.094V140.16a6.105,6.105,0,0,1-6.094,6.094h-8.5V21.942Z" transform="translate(-39.766 -10.337)" fill="#837683" fill-rule="evenodd"/>
            <path id="Trazado_728965" data-name="Trazado 728965" d="M18.387,33.47h89.075V140.827H18.387Z" transform="translate(-9.91 -13.388)" fill="#eceff1" fill-rule="evenodd"/>
            <path id="Trazado_728966" data-name="Trazado 728966" d="M131.207,33.47h6.112V140.827h-6.112Z" transform="translate(-39.766 -13.388)" fill="#d1d1d6" fill-rule="evenodd"/>
            <path id="Trazado_728967" data-name="Trazado 728967" d="M49.881,14.083H60.44a10.361,10.361,0,0,1,20.14,0H91.139a2.837,2.837,0,0,1,2.832,2.832V27.095a2.837,2.837,0,0,1-2.832,2.832H49.881a2.837,2.837,0,0,1-2.832-2.832V16.914a2.837,2.837,0,0,1,2.832-2.832Z" transform="translate(-17.495 -6.161)" fill="#ffa031" fill-rule="evenodd"/>
            <path id="Trazado_728968" data-name="Trazado 728968" d="M91.139,16.933a2.837,2.837,0,0,1,2.832,2.832V29.946a2.837,2.837,0,0,1-2.832,2.832H49.881a2.837,2.837,0,0,1-2.832-2.832H88.307a2.837,2.837,0,0,0,2.832-2.832Z" transform="translate(-17.495 -9.012)" fill="#e3a76f" fill-rule="evenodd"/>
          </g>
          <g id="Grupo_1030382" data-name="Grupo 1030382" transform="translate(84.341 29.407)">
            <path id="Trazado_728969" data-name="Trazado 728969" d="M121.552,110.606l35.214-60.993a6.945,6.945,0,0,1,9.469-2.537l2.4,1.386a6.945,6.945,0,0,1,2.537,9.469L135.96,118.924l-12.284,7.092a1.416,1.416,0,0,1-2.124-1.226V110.606Z" transform="translate(-121.552 -46.151)" fill="#ffa031" fill-rule="evenodd"/>
            <path id="Trazado_728970" data-name="Trazado 728970" d="M170.615,51.626a6.949,6.949,0,0,1,.559,7.755L135.96,120.373l-12.284,7.092a1.416,1.416,0,0,1-2.124-1.226v-1.916l10.637-6.141Z" transform="translate(-121.552 -47.6)" fill="#ffd064" fill-rule="evenodd"/>
            <path id="Trazado_728971" data-name="Trazado 728971" d="M121.553,147.985V133.8l14.408,8.318-12.284,7.092a1.416,1.416,0,0,1-2.124-1.226Z" transform="translate(-121.552 -69.345)" fill="#685e68" fill-rule="evenodd"/>
          </g>
        </g>
        <path id="Trazado_728972" data-name="Trazado 728972" d="M42.538,103.439l-9.968,9.047-3.236-3.237a2.266,2.266,0,1,0-3.205,3.2l4.763,4.763a2.263,2.263,0,0,0,3.122.076l11.568-10.5a2.265,2.265,0,0,0-3.045-3.355Zm0-28.543L32.57,83.943l-3.236-3.236a2.266,2.266,0,1,0-3.205,3.2l4.763,4.761a2.263,2.263,0,0,0,3.122.076l11.568-10.5A2.265,2.265,0,0,0,42.538,74.9Zm47.846-.586H55.722a2.265,2.265,0,1,0,0,4.529H90.383a2.265,2.265,0,1,0,0-4.529Zm0,10.5H55.722a2.265,2.265,0,1,0,0,4.531H90.383a2.265,2.265,0,0,0,0-4.531ZM55.722,50.3H90.383a2.266,2.266,0,0,0,0-4.531H55.722a2.266,2.266,0,0,0,0,4.531Zm34.661,5.966H55.722a2.266,2.266,0,0,0,0,4.531H90.383a2.266,2.266,0,0,0,0-4.531ZM30.892,60.381a2.263,2.263,0,0,0,3.122.076l11.568-10.5A2.265,2.265,0,0,0,42.538,46.6L32.57,55.652l-3.236-3.237a2.266,2.266,0,1,0-3.205,3.2ZM136.337,39.028l-2.4-1.387a4.685,4.685,0,0,0-6.377,1.708L93.478,98.379l10.486,6.054L138.044,45.4a4.671,4.671,0,0,0-1.707-6.374Zm-26.529,64.343v31.8A3.834,3.834,0,0,1,105.98,139H12.136a3.834,3.834,0,0,1-3.829-3.829V23.044a3.833,3.833,0,0,1,3.829-3.827h21.2v3.946H14.52a2.264,2.264,0,0,0-2.265,2.266V132.786a2.264,2.264,0,0,0,2.265,2.265H103.6a2.264,2.264,0,0,0,2.264-2.265V109.525a2.555,2.555,0,0,0,.893-.866s3.054-5.288,3.054-5.288ZM37.863,26.846H80.252V15.534H69.127a2.265,2.265,0,0,1-2.2-1.735,8.1,8.1,0,0,0-15.737,0,2.263,2.263,0,0,1-2.2,1.735H37.863V26.846ZM101.33,75.719,88.423,98.077a2.278,2.278,0,0,0-.305,1.133v3.642h-32.4a2.266,2.266,0,0,0,0,4.531h32.4v5.966h-32.4a2.265,2.265,0,1,0,0,4.531H89.4a2.239,2.239,0,0,0,2.119-.072l9.815-5.666V130.52H16.785V27.694H33.332v1.418A2.265,2.265,0,0,0,35.6,31.377h46.92a2.265,2.265,0,0,0,2.265-2.266V27.694H101.33Zm-8.682,36.2v-8.788l7.613,4.395Zm-7.866-92.7h21.2a3.833,3.833,0,0,1,3.827,3.827V61.037l-3.947,6.835V25.428a2.264,2.264,0,0,0-2.264-2.266H84.782Zm57.183,28.45L114.338,95.523v39.645a8.368,8.368,0,0,1-8.358,8.359H12.136a8.37,8.37,0,0,1-8.359-8.359V23.044a8.369,8.369,0,0,1,8.359-8.358h21.2V13.268A2.265,2.265,0,0,1,35.6,11h11.74a12.632,12.632,0,0,1,23.443,0H82.517a2.265,2.265,0,0,1,2.265,2.265v1.418h21.2a8.367,8.367,0,0,1,8.358,8.358V53.189l9.3-16.106A9.211,9.211,0,0,1,136.2,33.717l2.4,1.387a9.208,9.208,0,0,1,3.364,12.563ZM56.317,13.839a2.741,2.741,0,1,1,2.741,2.74A2.746,2.746,0,0,1,56.317,13.839Z" transform="translate(37.087 20.271)" fill="#12263f" fill-rule="evenodd"/>
      </g>
    </g>
    <g id="Grupo_1033865" data-name="Grupo 1033865" transform="translate(81 -76)">
      <circle id="Elipse_8442" data-name="Elipse 8442" cx="67.542" cy="67.542" r="67.542" transform="translate(519 3597.916)" fill="#065958" opacity="0"/>
    </g>
  </g>
</svg>
