<svg id="Grupo_1033778" data-name="Grupo 1033778" xmlns="http://www.w3.org/2000/svg" xmlns:xlink="http://www.w3.org/1999/xlink" width="343.641" height="212.4" viewBox="0 0 343.641 212.4">
  <defs>
    <clipPath id="clip-path">
      <rect id="Rectángulo_352903" data-name="Rectángulo 352903" width="343.641" height="212.401" fill="none"/>
    </clipPath>
    <clipPath id="clip-path-2">
      <rect id="Rectángulo_352902" data-name="Rectángulo 352902" width="343.64" height="212.401" fill="none"/>
    </clipPath>
    <clipPath id="clip-path-3">
      <rect id="Rectángulo_352889" data-name="Rectángulo 352889" width="6.965" height="6.821" fill="none"/>
    </clipPath>
    <clipPath id="clip-path-4">
      <rect id="Rectángulo_352890" data-name="Rectángulo 352890" width="27.524" height="30.633" fill="none"/>
    </clipPath>
    <clipPath id="clip-path-5">
      <rect id="Rectángulo_352891" data-name="Rectángulo 352891" width="1.423" height="24.394" fill="none"/>
    </clipPath>
    <clipPath id="clip-path-6">
      <rect id="Rectángulo_352892" data-name="Rectángulo 352892" width="2.521" height="27.967" fill="none"/>
    </clipPath>
    <clipPath id="clip-path-7">
      <rect id="Rectángulo_352894" data-name="Rectángulo 352894" width="8.654" height="4.765" fill="none"/>
    </clipPath>
    <clipPath id="clip-path-8">
      <rect id="Rectángulo_352896" data-name="Rectángulo 352896" width="8.127" height="6.57" fill="none"/>
    </clipPath>
    <clipPath id="clip-path-9">
      <rect id="Rectángulo_352897" data-name="Rectángulo 352897" width="23.619" height="30.382" fill="none"/>
    </clipPath>
    <clipPath id="clip-path-10">
      <rect id="Rectángulo_352898" data-name="Rectángulo 352898" width="5.309" height="29.695" fill="none"/>
    </clipPath>
    <clipPath id="clip-path-11">
      <rect id="Rectángulo_352899" data-name="Rectángulo 352899" width="3.018" height="27.37" fill="none"/>
    </clipPath>
    <clipPath id="clip-path-12">
      <rect id="Rectángulo_352900" data-name="Rectángulo 352900" width="4.396" height="28.09" fill="none"/>
    </clipPath>
  </defs>
  <g id="Grupo_1033777" data-name="Grupo 1033777" clip-path="url(#clip-path)">
    <g id="Grupo_1033776" data-name="Grupo 1033776" transform="translate(0 0)">
      <g id="Grupo_1033775" data-name="Grupo 1033775" clip-path="url(#clip-path-2)">
        <path id="Trazado_735312" data-name="Trazado 735312" d="M1865.644,2275h-1.67a2.252,2.252,0,0,1-2.252-2.252v-15.794a2.252,2.252,0,0,1,2.252-2.252h1.67a2.252,2.252,0,0,1,2.252,2.252v15.794a2.252,2.252,0,0,1-2.252,2.252" transform="translate(-1714.589 -2076.512)" fill="#302e2e"/>
        <path id="Trazado_735313" data-name="Trazado 735313" d="M1005.832,2275h-1.671a2.252,2.252,0,0,1-2.252-2.252v-15.794a2.252,2.252,0,0,1,2.252-2.252h1.671a2.252,2.252,0,0,1,2.252,2.252v15.794a2.252,2.252,0,0,1-2.252,2.252" transform="translate(-922.728 -2076.512)" fill="#302e2e"/>
        <path id="Trazado_735314" data-name="Trazado 735314" d="M1081.676,1424.763l-73.426-.069.282,5.35c0,.01,0,.019,0,.028l3.229,77.963c0,2.929,2.764,5.3,6.171,5.3h54.031c3.406,0,6.168-2.374,6.171-5.3l3.121-75.362Z" transform="translate(-928.568 -1312.1)" fill="#cc8027"/>
        <path id="Trazado_735315" data-name="Trazado 735315" d="M1185.715,1424.693h-54.559l.209,5.286c0,.009,0,.019,0,.028l2.4,78.023c0,2.932,2.054,5.307,4.585,5.307H1178.5c2.531,0,4.583-2.375,4.585-5.307l2.319-75.42Z" transform="translate(-1041.761 -1312.099)" fill="#ffa031"/>
        <path id="Trazado_735316" data-name="Trazado 735316" d="M1415.073,1841.529a5.228,5.228,0,0,0,3.018,5.44,3.453,3.453,0,0,0,.584-1.4,3.716,3.716,0,0,1-2.086-3.781,3.5,3.5,0,0,0-1.516-.261" transform="translate(-1303.198 -1695.988)" fill="#f3e4e0"/>
        <path id="Trazado_735317" data-name="Trazado 735317" d="M1444.154,1785.823a3.767,3.767,0,0,1,4.141.01,3.475,3.475,0,0,0,1-1.16,5.3,5.3,0,0,0-6.146-.024,3.47,3.47,0,0,0,1,1.175" transform="translate(-1329.1 -1642.714)" fill="#f3e4e0"/>
        <path id="Trazado_735318" data-name="Trazado 735318" d="M1502.477,1845.579a3.453,3.453,0,0,0,.583,1.39,5.226,5.226,0,0,0,3.018-5.44,3.5,3.5,0,0,0-1.5.253,3.718,3.718,0,0,1-2.1,3.8" transform="translate(-1383.736 -1695.988)" fill="#f3e4e0"/>
        <path id="Trazado_735319" data-name="Trazado 735319" d="M1364.87,1729.617a4.037,4.037,0,0,1,3.321,1.734l.706-.405a1.183,1.183,0,0,1,.912-1.393v-.925h-.048a4.013,4.013,0,0,1-.267-7.983v-.168a206.485,206.485,0,0,1-9.031,12.451,5.611,5.611,0,0,0,.441,2.186l.069-.036.11-.059a4.014,4.014,0,0,1,3.788-5.4" transform="translate(-1252.945 -1584.508)" fill="#f3e4e0"/>
        <path id="Trazado_735320" data-name="Trazado 735320" d="M1491.469,1727.477a5.652,5.652,0,0,0-4.925-7.023v.183a4.013,4.013,0,0,1-.274,7.964v.951a1.185,1.185,0,0,1,.85,1.135,1.2,1.2,0,0,1-.023.231l.7.4a4.04,4.04,0,0,1,7.335,2.312,3.988,3.988,0,0,1-.231,1.342l.153.081.068.035a5.647,5.647,0,0,0-3.654-7.614" transform="translate(-1368.811 -1584.486)" fill="#f3e4e0"/>
        <path id="Trazado_735321" data-name="Trazado 735321" d="M1390.291,1864.2h0l-.023-.012a4.04,4.04,0,0,1-7.284-2.382,3.982,3.982,0,0,1,.419-1.783l.012-.02-.656-.377a1.194,1.194,0,0,1-1.812,0l-.667.383a3.98,3.98,0,0,1,.413,1.77,4.04,4.04,0,0,1-7.254,2.422l-.157.082-.022.012a23.118,23.118,0,0,1,12.537,2.437,5.687,5.687,0,0,0,4.676-2.439l-.057-.03Z" transform="translate(-1264.733 -1712.661)" fill="#f3e4e0"/>
        <path id="Trazado_735322" data-name="Trazado 735322" d="M1346.156,1647.319l.14,0,.244,0,.27,0,.223,0a1.261,1.261,0,0,1,.77.2.665.665,0,0,1,.264.564.653.653,0,0,1-.118.382.848.848,0,0,1-.327.273.875.875,0,0,1,.4.282.68.68,0,0,1,.138.421.733.733,0,0,1-.284.6,1.356,1.356,0,0,1-.859.228h-.253l-.257,0-.216,0h-.133Zm.519,1.25h.336a.519.519,0,0,0,.393-.126.435.435,0,0,0,.118-.308.545.545,0,0,0-.026-.165.37.37,0,0,0-.089-.148.449.449,0,0,0-.17-.1.791.791,0,0,0-.268-.039h-.168c-.048,0-.089,0-.124,0Zm0,1.319h.375a.575.575,0,0,0,.425-.132.458.458,0,0,0,.129-.332.573.573,0,0,0-.028-.178.393.393,0,0,0-.1-.156.5.5,0,0,0-.185-.111.875.875,0,0,0-.29-.041h-.185q-.081,0-.142,0Z" transform="translate(-1239.77 -1517.123)" fill="#f3e4e0"/>
        <rect id="Rectángulo_352884" data-name="Rectángulo 352884" width="0.519" height="2.938" transform="translate(108.851 130.196)" fill="#f3e4e0"/>
        <path id="Trazado_735323" data-name="Trazado 735323" d="M1392.111,1647.029a1,1,0,0,1,.382.3,1.233,1.233,0,0,1,.22.467,2.529,2.529,0,0,1,.07.618,2.346,2.346,0,0,1-.076.618,1.312,1.312,0,0,1-.236.48,1.075,1.075,0,0,1-.4.31,1.37,1.37,0,0,1-.574.111,1.446,1.446,0,0,1-.561-.1.949.949,0,0,1-.384-.286,1.21,1.21,0,0,1-.22-.458,2.46,2.46,0,0,1-.07-.616,2.4,2.4,0,0,1,.076-.623,1.379,1.379,0,0,1,.235-.49,1.066,1.066,0,0,1,.4-.319,1.538,1.538,0,0,1,1.134-.009m-.938.38a.63.63,0,0,0-.2.232,1.115,1.115,0,0,0-.111.347,2.685,2.685,0,0,0-.033.434,2.763,2.763,0,0,0,.031.421,1.094,1.094,0,0,0,.111.352.643.643,0,0,0,.223.243.673.673,0,0,0,.369.091.575.575,0,0,0,.316-.082.609.609,0,0,0,.207-.226,1.065,1.065,0,0,0,.111-.341,2.614,2.614,0,0,0,.033-.427,2.87,2.87,0,0,0-.031-.425,1.154,1.154,0,0,0-.111-.36.649.649,0,0,0-.223-.25.66.66,0,0,0-.369-.093.562.562,0,0,0-.318.085" transform="translate(-1280.389 -1516.768)" fill="#f3e4e0"/>
        <path id="Trazado_735324" data-name="Trazado 735324" d="M1430.253,1649.021h-1.217v1.337h-.519v-2.938h.519v1.224h1.217v-1.224h.519v2.938h-.519Z" transform="translate(-1315.621 -1517.224)" fill="#f3e4e0"/>
        <path id="Trazado_735325" data-name="Trazado 735325" d="M1461.777,1647.419h.41l1.139,2.938h-.554l-.27-.768h-1.064l-.279.768h-.515Zm.589,1.788q-.14-.391-.24-.71t-.153-.5q-.061.2-.161.512t-.235.7Z" transform="translate(-1345.208 -1517.223)" fill="#f3e4e0"/>
        <path id="Trazado_735326" data-name="Trazado 735326" d="M1496.525,1650.358v-.308l1.283-2.24q-.087.009-.179.011l-.2,0h-.833l-.07-.4h1.919v.308l-1.256,2.235.153-.007.17,0h.986v.4Z" transform="translate(-1378.255 -1517.224)" fill="#f3e4e0"/>
        <path id="Trazado_735327" data-name="Trazado 735327" d="M1524.321,1647.419h.41l1.138,2.938h-.554l-.27-.768h-1.064l-.279.768h-.515Zm.589,1.788q-.14-.391-.24-.71t-.153-.5q-.061.2-.161.512t-.236.7Z" transform="translate(-1402.81 -1517.223)" fill="#f3e4e0"/>
        <path id="Trazado_735328" data-name="Trazado 735328" d="M1560.725,1647.319l.14,0,.244,0,.271,0,.223,0a1.21,1.21,0,0,1,.789.21.733.733,0,0,1,.249.592.8.8,0,0,1-.126.447.716.716,0,0,1-.414.282.749.749,0,0,1,.218.191,1.872,1.872,0,0,1,.188.3q.092.176.188.408t.223.519h-.563q-.148-.343-.26-.586a2.653,2.653,0,0,0-.216-.395.72.72,0,0,0-.225-.222.553.553,0,0,0-.281-.069h-.127v1.272h-.519Zm.519,1.289h.336a.582.582,0,0,0,.377-.109.39.39,0,0,0,.133-.321.664.664,0,0,0-.026-.187.4.4,0,0,0-.089-.161.439.439,0,0,0-.17-.111.751.751,0,0,0-.268-.041h-.292Z" transform="translate(-1437.381 -1517.123)" fill="#f3e4e0"/>
        <path id="Trazado_735329" data-name="Trazado 735329" d="M1592.411,1647.319l.131,0,.227,0,.262,0,.236,0a1.475,1.475,0,0,1,1.1.367,1.5,1.5,0,0,1,.358,1.091,1.552,1.552,0,0,1-.367,1.111,1.516,1.516,0,0,1-1.147.386l-.264,0-.235,0-.186,0-.113,0Zm.626.38-.107,0v2.174c.032,0,.073,0,.124,0h.22a.809.809,0,0,0,.672-.267,1.257,1.257,0,0,0,.214-.8,1.944,1.944,0,0,0-.05-.458.918.918,0,0,0-.166-.354.763.763,0,0,0-.3-.228,1.088,1.088,0,0,0-.443-.08l-.168,0" transform="translate(-1466.563 -1517.123)" fill="#f3e4e0"/>
        <rect id="Rectángulo_352885" data-name="Rectángulo 352885" width="0.516" height="2.92" transform="translate(106.374 157.146)" fill="#f3e4e0"/>
        <path id="Trazado_735330" data-name="Trazado 735330" d="M1361.942,1988.336h.516v2.924h-.429l-.988-1.535q-.082-.125-.18-.283t-.184-.291q.013.138.024.289t.01.289l.013,1.527h-.516v-2.928h.4l1.019,1.518q.087.125.176.265t.175.27q-.009-.138-.017-.278t-.009-.239Z" transform="translate(-1252.711 -1831.19)" fill="#f3e4e0"/>
        <path id="Trazado_735331" data-name="Trazado 735331" d="M1396.357,1988.438h1.743v.388h-1.227v.841h1.01l-.065.388h-.945v1.3h-.516Z" transform="translate(-1286.003 -1831.291)" fill="#f3e4e0"/>
        <path id="Trazado_735332" data-name="Trazado 735332" d="M1423.124,1988.438h1.743v.388h-1.227v.815h1.01l-.065.392h-.945v.936h1.292v.388h-1.807Z" transform="translate(-1310.655 -1831.291)" fill="#f3e4e0"/>
        <path id="Trazado_735333" data-name="Trazado 735333" d="M1451.274,1988.572a.782.782,0,0,0-.219-.17.581.581,0,0,0-.266-.058.559.559,0,0,0-.314.084.609.609,0,0,0-.206.233,1.182,1.182,0,0,0-.113.347,2.488,2.488,0,0,0-.035.427,2.65,2.65,0,0,0,.032.427,1.13,1.13,0,0,0,.113.349.615.615,0,0,0,.217.237.633.633,0,0,0,.344.086,1.028,1.028,0,0,0,.191-.017q.091-.017.167-.037c.051-.013.093-.025.126-.037l.063-.021.121.362-.056.021c-.038.014-.091.031-.158.05a2.4,2.4,0,0,1-.243.052,1.869,1.869,0,0,1-.31.024,1.048,1.048,0,0,1-.873-.368,1.71,1.71,0,0,1-.293-1.081,2.338,2.338,0,0,1,.078-.623,1.374,1.374,0,0,1,.236-.485,1.073,1.073,0,0,1,.4-.315,1.333,1.333,0,0,1,.566-.112.86.86,0,0,1,.427.095,1.018,1.018,0,0,1,.271.216Z" transform="translate(-1335.003 -1830.839)" fill="#f3e4e0"/>
        <path id="Trazado_735334" data-name="Trazado 735334" d="M1479.364,1988.438l-.065.388h-.728v2.531h-.511v-2.531h-.741v-.388Z" transform="translate(-1360.565 -1831.291)" fill="#f3e4e0"/>
        <rect id="Rectángulo_352886" data-name="Rectángulo 352886" width="0.516" height="2.92" transform="translate(119.149 157.146)" fill="#f3e4e0"/>
        <path id="Trazado_735335" data-name="Trazado 735335" d="M1522.323,1988.051a1,1,0,0,1,.379.293,1.224,1.224,0,0,1,.219.463,2.509,2.509,0,0,1,.069.615,2.338,2.338,0,0,1-.076.615,1.3,1.3,0,0,1-.234.477,1.072,1.072,0,0,1-.4.308,1.359,1.359,0,0,1-.57.11,1.441,1.441,0,0,1-.557-.1.946.946,0,0,1-.381-.285,1.2,1.2,0,0,1-.219-.455,2.452,2.452,0,0,1-.069-.612,2.385,2.385,0,0,1,.076-.619,1.367,1.367,0,0,1,.234-.487,1.062,1.062,0,0,1,.4-.317,1.528,1.528,0,0,1,1.127-.009m-.932.377a.622.622,0,0,0-.2.23,1.113,1.113,0,0,0-.111.345,2.682,2.682,0,0,0-.032.431,2.776,2.776,0,0,0,.03.418,1.091,1.091,0,0,0,.111.349.64.64,0,0,0,.221.242.668.668,0,0,0,.366.09.57.57,0,0,0,.314-.082.607.607,0,0,0,.206-.224,1.063,1.063,0,0,0,.11-.338,2.6,2.6,0,0,0,.033-.425,2.868,2.868,0,0,0-.031-.423,1.143,1.143,0,0,0-.11-.358.606.606,0,0,0-.587-.341.555.555,0,0,0-.317.084" transform="translate(-1400.321 -1830.839)" fill="#f3e4e0"/>
        <path id="Trazado_735336" data-name="Trazado 735336" d="M1558.461,1988.437v1.807a.793.793,0,0,0,.169.572.618.618,0,0,0,.459.17.5.5,0,0,0,.436-.2.923.923,0,0,0,.141-.546v-1.807h.516v1.846a1.486,1.486,0,0,1-.058.423.9.9,0,0,1-.193.349.931.931,0,0,1-.356.24,1.465,1.465,0,0,1-.542.088,1.308,1.308,0,0,1-.514-.088.89.89,0,0,1-.334-.24.9.9,0,0,1-.182-.349,1.6,1.6,0,0,1-.054-.423v-1.846Z" transform="translate(-1434.824 -1831.291)" fill="#f3e4e0"/>
        <path id="Trazado_735337" data-name="Trazado 735337" d="M1592.154,1987.947a1.457,1.457,0,0,1,.291.028,2.435,2.435,0,0,1,.253.064,1.534,1.534,0,0,1,.2.076.867.867,0,0,1,.11.06l-.212.371-.056-.03q-.056-.03-.147-.069a1.61,1.61,0,0,0-.2-.069.78.78,0,0,0-.208-.03.494.494,0,0,0-.271.073.251.251,0,0,0-.115.229.423.423,0,0,0,.126.317,1.172,1.172,0,0,0,.394.227,2.694,2.694,0,0,1,.31.145.964.964,0,0,1,.232.175.679.679,0,0,1,.145.229.867.867,0,0,1,.05.311.88.88,0,0,1-.063.323.817.817,0,0,1-.186.282.93.93,0,0,1-.306.2,1.092,1.092,0,0,1-.42.075,1.446,1.446,0,0,1-.321-.034,2.232,2.232,0,0,1-.275-.08,1.643,1.643,0,0,1-.212-.093c-.059-.031-.1-.056-.132-.073l.182-.4.078.043c.052.029.115.06.191.095s.155.066.239.095a.684.684,0,0,0,.217.043.468.468,0,0,0,.342-.112.488.488,0,0,0,.082-.481.356.356,0,0,0-.087-.123.625.625,0,0,0-.136-.093c-.054-.027-.114-.054-.18-.08q-.2-.082-.349-.164a1.129,1.129,0,0,1-.262-.187.717.717,0,0,1-.165-.242.847.847,0,0,1-.056-.325.665.665,0,0,1,.069-.3.784.784,0,0,1,.191-.246.93.93,0,0,1,.291-.168,1.066,1.066,0,0,1,.373-.062" transform="translate(-1465.388 -1830.839)" fill="#f3e4e0"/>
        <path id="Trazado_735338" data-name="Trazado 735338" d="M1401.41,2055.066a2.928,2.928,0,0,1-.1-.345c-.014.055-.028.109-.041.164s-.03.115-.05.181l-.563,1.772h-.382l-.815-2.919h.516l.381,1.462q.1.38.143.612.03-.12.072-.267t.1-.336l.46-1.471h.386l.46,1.471q.061.194.1.354t.069.28q.017-.121.05-.28t.085-.354l.381-1.471h.525l-.815,2.919h-.381Z" transform="translate(-1288.856 -1891.598)" fill="#f3e4e0"/>
        <path id="Trazado_735339" data-name="Trazado 735339" d="M1445.232,2053.918h.407l1.131,2.919h-.551l-.269-.763h-1.058l-.277.763h-.512Zm.585,1.777q-.139-.389-.239-.705t-.152-.5l-.16.509q-.1.315-.234.694Z" transform="translate(-1329.978 -1891.597)" fill="#f3e4e0"/>
        <path id="Trazado_735340" data-name="Trazado 735340" d="M1480.23,2053.428a1.456,1.456,0,0,1,.29.028,2.427,2.427,0,0,1,.254.065,1.508,1.508,0,0,1,.2.075.95.95,0,0,1,.111.06l-.212.371-.056-.03q-.056-.03-.147-.069a1.652,1.652,0,0,0-.2-.069.79.79,0,0,0-.208-.03.5.5,0,0,0-.271.073.252.252,0,0,0-.115.229.424.424,0,0,0,.126.317,1.167,1.167,0,0,0,.395.226,2.766,2.766,0,0,1,.31.145.969.969,0,0,1,.232.175.68.68,0,0,1,.145.229.868.868,0,0,1,.05.311.878.878,0,0,1-.063.323.821.821,0,0,1-.186.283.935.935,0,0,1-.306.2,1.093,1.093,0,0,1-.421.076,1.445,1.445,0,0,1-.321-.035,2.277,2.277,0,0,1-.275-.08,1.713,1.713,0,0,1-.212-.093q-.089-.048-.132-.073l.182-.4.078.043q.078.043.191.095a2.541,2.541,0,0,0,.239.1.689.689,0,0,0,.217.043.468.468,0,0,0,.343-.112.487.487,0,0,0,.082-.481.359.359,0,0,0-.087-.123.627.627,0,0,0-.136-.093c-.054-.027-.114-.054-.18-.08q-.2-.082-.349-.164a1.134,1.134,0,0,1-.262-.188.715.715,0,0,1-.165-.241.845.845,0,0,1-.057-.325.666.666,0,0,1,.07-.3.783.783,0,0,1,.191-.246.926.926,0,0,1,.291-.168,1.071,1.071,0,0,1,.373-.062" transform="translate(-1362.309 -1891.146)" fill="#f3e4e0"/>
        <path id="Trazado_735341" data-name="Trazado 735341" d="M1507.969,2053.918l-.065.388h-.728v2.531h-.511v-2.531h-.741v-.388Z" transform="translate(-1386.91 -1891.597)" fill="#f3e4e0"/>
        <path id="Trazado_735342" data-name="Trazado 735342" d="M1536.256,2053.918H1538v.388h-1.227v.815h1.01l-.065.393h-.945v.936h1.292v.388h-1.808Z" transform="translate(-1414.846 -1891.597)" fill="#f3e4e0"/>
        <path id="Trazado_735343" data-name="Trazado 735343" d="M1050.762,1473.947l-.012.332H978l-.013-.332h-2.97l2.119,7.719H978.2l-.221-5.9h11.029v5.9l3.406-5.9h22.923v5.9l3.406-5.9h22.949v5.9l3.406-5.9h5.6l-.221,5.9h1.139l2.119-7.719Z" transform="translate(-897.959 -1357.46)" fill="#99601d"/>
        <path id="Trazado_735344" data-name="Trazado 735344" d="M1312.34,2370h-18.934l-4.708,5.765v8.172h28.349v-8.172Z" transform="translate(-1186.853 -2182.701)" fill="#302e2e"/>
        <path id="Trazado_735345" data-name="Trazado 735345" d="M1342.723,2508.033h-21.429a.96.96,0,0,1-.96-.96v-.483a.96.96,0,0,1,.96-.96h21.429a.96.96,0,0,1,.96.96v.483a.96.96,0,0,1-.96.96" transform="translate(-1215.988 -2307.611)" fill="#99601d"/>
        <path id="Trazado_735346" data-name="Trazado 735346" d="M1077.608,802.348H1074.7v-1.284s-5.83-5.607-5.97-5.607h-53.365c-.14,0-5.825,5.607-5.825,5.607v1.284h-2.65a1.551,1.551,0,0,0-1.464,1.626v3.285h73.649v-3.285a1.551,1.551,0,0,0-1.464-1.626" transform="translate(-925.965 -732.592)" fill="#e63b24"/>
        <path id="Trazado_735347" data-name="Trazado 735347" d="M1034.619,1424.693H953.505a.6.6,0,0,0-.6.6v3.869h14.343v7.147h1.4v-7.147H993.59v7.147h1.4v-7.147h24.947v7.147h1.4v-7.147h13.888v-3.869a.6.6,0,0,0-.6-.6" transform="translate(-877.598 -1312.099)" fill="#ffa031"/>
        <path id="Trazado_735348" data-name="Trazado 735348" d="M1074.809,769.935h-65.123a4.263,4.263,0,0,1-4.263-4.263V718.617a4.263,4.263,0,0,1,4.263-4.263h65.123a4.263,4.263,0,0,1,4.263,4.263v47.054a4.263,4.263,0,0,1-4.263,4.263" transform="translate(-925.965 -657.898)" fill="#ffa031"/>
        <rect id="Rectángulo_352887" data-name="Rectángulo 352887" width="64.919" height="46.843" transform="translate(83.832 60.677)" fill="#ffa031"/>
        <path id="Trazado_735349" data-name="Trazado 735349" d="M1.58,1388.082a26.018,26.018,0,0,1-.475-9.84,20.546,20.546,0,0,1,2.4-5.856,69.221,69.221,0,0,1,5.857-4.607,34.651,34.651,0,0,1,7-3.826c8.139-2.719,8.558-3.74,9.944-3.494.252.045.818-.7.818-.7.4-1.161,2.839-2.3,2.839-2.3s3.77-1.716,4.164-2.021c.122-.094.615-.892.7-.964a.325.325,0,0,1,.216-.03s.367.072.415.029c.258-.227.528-.188.684.181.054.128.44.158.506.148.786-.115.915.4.915.4a.848.848,0,0,1,.338.762,1.013,1.013,0,0,1,.211.406c.037.166-.088.52.06.574.3.109.036.831-.364.974-.121.043-1.227-.255-1.39-.22a8.481,8.481,0,0,1-1.309.613c-.215.089-2.082.885-2.154.916a9.887,9.887,0,0,0-2,1.475l-1.05,1.88a39.015,39.015,0,0,1,6.17,8.2c3.176,6.542,2.721,9.451,2.826,13.12.053,1.836,1.211,5.077-.192,8.621a10.821,10.821,0,0,1-1.951,2.937c-1.076,1.9-3.627,3.266-4.484,3.989,0,0,.877.876.673,1.134-.338.428-6.928-.488-9.415-1.084-2.87-.688-6.826-1.179-9.121-1.921-4.848-1.568-5.359-3.035-8.883-5.358-1.6-1.054-5-1.695-5.528-3.372,0,0,1.675-.345,1.58-.769" transform="translate(0 -1247.3)" fill="#ffa031"/>
        <path id="Trazado_735352" data-name="Trazado 735352" d="M343.919,1712.552a3.6,3.6,0,0,1-3.389,2.6,2.38,2.38,0,0,1,.019-1.041,2.561,2.561,0,0,0,2.348-1.809,2.383,2.383,0,0,1,1.022.251" transform="translate(-313.573 -1576.977)" fill="#383333"/>
        <path id="Trazado_735353" data-name="Trazado 735353" d="M333.4,1659.257a2.564,2.564,0,0,0-2.6-1.129,2.385,2.385,0,0,1-.308-1.005,3.605,3.605,0,0,1,3.856,1.669,2.382,2.382,0,0,1-.951.465" transform="translate(-304.372 -1526.084)" fill="#383333"/>
        <path id="Trazado_735354" data-name="Trazado 735354" d="M296.129,1682.721a2.379,2.379,0,0,1-.748.716,3.6,3.6,0,0,1-.391-4.253,2.381,2.381,0,0,1,.869.571,2.559,2.559,0,0,0,.27,2.966" transform="translate(-271.2 -1546.478)" fill="#383333"/>
        <path id="Trazado_735355" data-name="Trazado 735355" d="M349.233,1630.04a2.756,2.756,0,0,0-2.558.181l-.33-.449a.814.814,0,0,0-.187-1.127l.255-.582.03.013a2.759,2.759,0,0,0,2.367-4.953l.046-.106a141.808,141.808,0,0,0,2.227,10.315,3.875,3.875,0,0,1-.878,1.256l-.033-.042-.053-.068a2.761,2.761,0,0,0-.885-4.439" transform="translate(-318.8 -1494.751)" fill="#383333"/>
        <path id="Trazado_735356" data-name="Trazado 735356" d="M256.279,1619.809a3.888,3.888,0,0,1,5.02-3.072l-.049.112v0a2.76,2.76,0,0,0-2.023,5.09l-.262.6a.814.814,0,0,0-.894.633l-.55.062a2.76,2.76,0,0,0-5.456.353l-.118.009-.052,0a3.89,3.89,0,0,1,4.386-3.793" transform="translate(-231.986 -1488.795)" fill="#383333"/>
        <path id="Trazado_735357" data-name="Trazado 735357" d="M252.954,1706.324h.017a2.759,2.759,0,0,0,5.447-.742l0-.016.515-.058a.813.813,0,0,0,1.134.5l.312.424a2.759,2.759,0,0,0,3.13,4.514l.076.094.011.014a3.886,3.886,0,0,1-5.629-1.813,3.886,3.886,0,0,1-5.152-2.906l.044,0Z" transform="translate(-232.832 -1570.72)" fill="#383333"/>
        <g id="Grupo_1033741" data-name="Grupo 1033741" transform="translate(28.416 116.194)" opacity="0.4">
          <g id="Grupo_1033740" data-name="Grupo 1033740">
            <g id="Grupo_1033739" data-name="Grupo 1033739" clip-path="url(#clip-path-3)">
              <path id="Trazado_735358" data-name="Trazado 735358" d="M365.962,1477.068l-2.017-1.987-1.722-2.6-1.257-1.05-1.409-1.18,2.675.577.923.75,1.922,2.526,1.445,2.665Z" transform="translate(-359.556 -1470.246)" fill="#e63b24"/>
            </g>
          </g>
        </g>
        <path id="Trazado_735359" data-name="Trazado 735359" d="M330.253,1425.268s.11.029.23-.211a.419.419,0,0,0,.088-.3.8.8,0,0,1,.008-.367c.065-.167.174-.2.2-.3a.532.532,0,0,0-.347-.74c-.368-.169-.8-.371-1.026-.445-.248-.08-.668-.205-1.032-.3a6.246,6.246,0,0,0-.641-.148,1.78,1.78,0,0,0-.7-.037.464.464,0,0,0-.422.271,1.95,1.95,0,0,0-.284.167,2.2,2.2,0,0,0-.205.3,4.488,4.488,0,0,1,.672.108c.138.035.708.3.847.334.23.058.894.249,1.122.314a2.953,2.953,0,0,1,.909.579c.574.4.582.778.582.778" transform="translate(-300.348 -1309.987)" fill="#2c2f30"/>
        <path id="Trazado_735360" data-name="Trazado 735360" d="M333.675,1426.352l.583.06a9.6,9.6,0,0,0-1.488-.728c-.425-.171-.664-.231-1.145-.381a8.854,8.854,0,0,0-1.334-.243l.708.318-.989-.026c.135.047.807.153,1.421.357a17.2,17.2,0,0,1,1.636.653,6.407,6.407,0,0,1,1.117.618Z" transform="translate(-303.929 -1312.437)" fill="#3b3d3d"/>
        <path id="Trazado_735361" data-name="Trazado 735361" d="M1315.862,1198.043c-3.175-4.914-7.255-5.184-8.493-5.9a8.115,8.115,0,0,1-.938-1.52c.47-1.228,2.477-8.151,2.477-8.151s1.676-2.283,1.666-2.352c-.056-.364-.484-.4-.866-.206-.133.068-1.19-.751-1.237-.8-.565-.635-.917.027-.917.027-.136.024-.338-.621-.579-.213-.036-.012-.144-.224-.3-.282-.32-.116-1.041-.13-.812.263.069.119.806-.038.077,2.366-.314,1.037-2.656,8.737-2.656,8.737l-.047,1.785c-5.048.4-8.818,2.258-11.252,2.682-4.02.7-6.748,1.335-8.674,3.54Z" transform="translate(-1181.889 -1085.43)" fill="#99601d"/>
        <g id="Grupo_1033744" data-name="Grupo 1033744" transform="translate(65.437 13.665)" opacity="0.35">
          <g id="Grupo_1033743" data-name="Grupo 1033743">
            <g id="Grupo_1033742" data-name="Grupo 1033742" clip-path="url(#clip-path-4)">
              <path id="Trazado_735362" data-name="Trazado 735362" d="M854.507,176.7s-2.917-2.681-13.255-3.605c-6.512-.582-9.232.412-9.232.412l-4.013,24.035s5.14,6.778,19.963,5.93c7.3-.417,7.561-3.465,7.561-3.465Z" transform="translate(-828.008 -172.91)" fill="#f9f9f9"/>
            </g>
          </g>
        </g>
        <g id="Grupo_1033747" data-name="Grupo 1033747" transform="translate(91.539 17.233)" opacity="0.45">
          <g id="Grupo_1033746" data-name="Grupo 1033746">
            <g id="Grupo_1033745" data-name="Grupo 1033745" clip-path="url(#clip-path-5)">
              <path id="Trazado_735363" data-name="Trazado 735363" d="M1158.682,218.307l-.4-.252,1.051,24.394s.094-.152.218-.387a1.342,1.342,0,0,0,.154-.48Z" transform="translate(-1158.284 -218.055)" fill="#fbffff"/>
            </g>
          </g>
        </g>
        <g id="Grupo_1033750" data-name="Grupo 1033750" transform="translate(87.556 16.033)" opacity="0.38">
          <g id="Grupo_1033749" data-name="Grupo 1033749">
            <g id="Grupo_1033748" data-name="Grupo 1033748" clip-path="url(#clip-path-6)">
              <path id="Trazado_735364" data-name="Trazado 735364" d="M1109.8,202.872l.542.2.059,27.128a9.046,9.046,0,0,1-1.285.39,10.411,10.411,0,0,1-1.237.25Z" transform="translate(-1107.88 -202.872)" fill="#fbffff"/>
            </g>
          </g>
        </g>
        <path id="Trazado_735365" data-name="Trazado 735365" d="M493,2506.057c-4.341-.9-9.328.472-5.75,5.863a25.726,25.726,0,0,0,7.836,6.652c3.9,1.89,5.229,1.853,9.621,1.162,1.619-.255,3.641-.605,4.247-1.82.578-1.16.895-4.807.451-5.712a18.312,18.312,0,0,0-6.088-4.51c-1.452-.724-5.694-.958-10.316-1.635" transform="translate(-447.616 -2307.768)" fill="#4db1f0"/>
        <path id="Trazado_735366" data-name="Trazado 735366" d="M1194.062,2454.269c-2.528,4.508-10.433-.924-10.433-.924-.592-.935-.211,5.666.761,7.272,1.743,2.88,7.977,3.037,11.808.761a34.3,34.3,0,0,0,7.78-5.75c6.147-5.7,5.651-8.849,3.96-10.316-2.5-2.169-5.376-1.122-10.322.507-2.4.789-3.693,1.156-3.693,1.156a6.745,6.745,0,0,1,.138,7.294" transform="translate(-1089.827 -2250.928)" fill="#4db1f0"/>
        <path id="Trazado_735367" data-name="Trazado 735367" d="M1406.178,1171.2c1.775.68,5.75,4.29,7.516,5.249.266.144.495.338.759.476.7.367,1.289.781,1.666.958,1.014.476,1.567.376,3.38.531a4.751,4.751,0,0,0,3.217-1.43,8.92,8.92,0,0,0,1.4-3.509,11.868,11.868,0,0,0-.261-3.411,5.4,5.4,0,0,0-1.509-1.335c-.438-.233-2.623-.752-3.291-1.183,0,0,.235-.813.287-1.079.156-.808.029-.923.029-.923-.676-.37-4.248.27-5,.137-1.391-.248-.269-1.868-2.877-2.149Z" transform="translate(-1295.048 -1071.577)" fill="#4db1f0"/>
        <path id="Trazado_735368" data-name="Trazado 735368" d="M315.3,1294.8a18.54,18.54,0,0,1-3.286,3.717,4.164,4.164,0,0,0-.489.6,4.8,4.8,0,0,0-.618,1.216,10.747,10.747,0,0,0-.773,3.789,3.214,3.214,0,0,0,.484,1.7,27.785,27.785,0,0,0,2.989-.941c.68-.209,3.4-.563,4.721-.831.35-.071-1.75,1.82-1.75,1.82s2.964-.068,3.482-.46c1.2-.91,3.139-1.38,2.288-5.077-.135-.585.873-1.395.6-2.427Z" transform="translate(-285.618 -1192.467)" fill="#4db1f0"/>
        <path id="Trazado_735369" data-name="Trazado 735369" d="M353.018,152.45c2.037-6.868,2.471-7.992,7.05-18.7,2.162-5.056,3.663-7.582,8.359-11.184a35.689,35.689,0,0,1,11.04-5.024c2.392-1.165,4.234-2.139,5.368-3.945,0,0,.265-2.6.371-6.979.113-4.67.123-10.425,2-14.844A12.977,12.977,0,0,1,400.989,84a12.644,12.644,0,0,1,5.919,2.676,14.071,14.071,0,0,1,5.039,9.054,32.955,32.955,0,0,1-1.856,13.3c-2.176,6.14-3.093,7.427-3.628,8.954-.21.6,1.318,2.151,2.27,2.459,1.62.524,4.893,1.719,10.794,6.284,2.949,2.281,3.646,3.585,5.1,6.738,1.466,3.173,1.876,6.973,2.445,11.332,1.722,13.2,2.06,17.026,13.259,25.13,2.663,1.927.327,9.994-3.9,10.641-2.33.356-7.56-1.793-12.26-5.71a28.073,28.073,0,0,1-8-11.592c-.9-2.89-3.449-9.7-4.284-15.708a93.839,93.839,0,0,0,1.691,12.977c2.593,10.024,4.514,17.047,5.46,21.25,2.255,10.01,1.973,10.241,3.886,29.342,1.005,10.032,3.17,18.651,3.826,27.9.623,8.782,1.513,11.5,2.183,18.641.717,7.64.9,11.283,1.3,15.08.406,3.927-.1,9.318-10.025,9.981-4.033.27-7.755-1.022-8.844-6.348-.616-3.012-1.228-7.191-1.587-10.143-.845-6.941-2.04-12.126-2.969-16.576-1.181-5.657-2.318-9.868-3.216-13.483a172.637,172.637,0,0,0-6.247-21.432,40.94,40.94,0,0,0-4.326-9.056s-1.965,8.816-3.132,17.008c-1.132,7.947-2.6,22.285-3.452,29.271-.747,6.1-1.549,13.375-2.626,21.208-.857,6.236-2.313,8.35-6.644,9.03a19.1,19.1,0,0,1-6.934-.507c-2.925-.558-4.766-3.689-5.327-5.327-.632-1.845-.9-6.931-.93-9.64-.09-8.172.489-17.058,1.089-23.4.452-4.781.87-9.5,1.02-16.566.058-2.73.085-8.848.068-13.541-.023-6.234,1.007-10.093,1.114-13.719.487-16.612.4-19.741.853-24.179.834-8.109.533-10.474,4.513-26.506-1.11,3.164-3.173,4.753-5.69,13.046-2.466,8.124-5.293,20.072-6.86,21.882a6.5,6.5,0,0,1-6.593,2.078c-2.228-.571-4.654-.734-4.887-6.557-.2-5.013,2.861-21.562,4.419-26.812" transform="translate(-321.041 -77.253)" fill="#fff"/>
        <path id="Trazado_735370" data-name="Trazado 735370" d="M622.371,183.479c9.489-.607,19.422-2.084,19.422-2.084l-.479-1.856a150.1,150.1,0,0,1-19.141,2.206c-4.732.289-9.518.322-13.875.229-.867-10.326-.794-35.508,6.684-60.272a3.5,3.5,0,0,0,.149-.529,39.236,39.236,0,0,0,15.213-.5l-.744-1.337a41.092,41.092,0,0,1-14.436.235c-.035-29.594,10.627-33.528,10.625-33.857a4.858,4.858,0,0,0-.8-.23,4.748,4.748,0,0,0-.868-.13c-.084.219-10.722,5.02-10.3,33.979-5.141-1.1-6.349-3.695-6.349-3.695l-.884.918s1.3,3.232,7.218,4.395a2.668,2.668,0,0,1-.149.534c-7.118,19.261-8.151,49.021-6.989,60.447-8.967-.258-15.738-1-15.738-1l-.057,1.749s7.379.607,15.908.884a80.543,80.543,0,0,0,1.057,10.606c1.314,8.876,4.408,8.985,5.664,10.858l.053.08c-.6,3.471-2.315,11.832-4.809,27.347-1.743,10.846-2.916,25.2-4.465,36.41-.68,4.927-1.394,13.953-1.394,13.953a4.293,4.293,0,0,0,1.172-.711,2.766,2.766,0,0,0,.758-.835s.687-7.647,1.237-11.913c1.3-10.1,2.6-24.893,4.226-36.264,1.784-12.5,3.7-21.894,4.461-25.871a18.674,18.674,0,0,0,1.028,1.611l.386-1.791a28.086,28.086,0,0,0-1.526-2.89c-1.006-1.529-3.952-1.307-5.237-10.521-.663-4.752-.785-7.492-.965-10.02,4.767.127,9.762.135,13.942-.132" transform="translate(-544.178 -78.61)" fill="#4db1f0"/>
        <path id="Trazado_735371" data-name="Trazado 735371" d="M1129.1,227.053a8.678,8.678,0,0,0,1.614-.489c1.17-.521,1.025-.841,1.025-.841l-.144-2.882s.132.42-1.047.821a7.752,7.752,0,0,1-1.675.4Z" transform="translate(-1039.658 -205.23)" fill="#1daea3"/>
        <path id="Trazado_735372" data-name="Trazado 735372" d="M1122.879,208.69s.8.268.971.531c.314.485-2.737,1.045-2.737,1.045l.613.256a6.917,6.917,0,0,0,1.706-.416c.968-.34,1.056-.657,1.005-.894-.054-.254-.3-.468-.778-.7a8.414,8.414,0,0,0-.991-.383Z" transform="translate(-1032.512 -191.685)" fill="#f4f4f4"/>
        <path id="Trazado_735373" data-name="Trazado 735373" d="M1121.327,238.164l.625.2-.227-2.986-.613-.256Z" transform="translate(-1032.511 -216.536)" fill="#e0e0e0"/>
        <path id="Trazado_735374" data-name="Trazado 735374" d="M1141.826,246.7a.415.415,0,1,0,.485-.4.445.445,0,0,0-.485.4" transform="translate(-1051.58 -226.834)" fill="#fff"/>
        <path id="Trazado_735375" data-name="Trazado 735375" d="M817.162,247.755s1.031,2.543,6.719,3.223c9.483,1.134,18.069-3.475,18.069-3.475l-.081-1.428s-9.824,4.449-17.4,3.419c-6.048-.823-7.092-3.31-7.092-3.31s-.081.479-.145.838a4.031,4.031,0,0,0-.07.734" transform="translate(-752.582 -226.627)" fill="#ececec"/>
        <path id="Trazado_735376" data-name="Trazado 735376" d="M2475.352,1041.038a26.023,26.023,0,0,0,3.528-9.2,20.551,20.551,0,0,0-.446-6.312,69.236,69.236,0,0,0-4.124-6.207,34.633,34.633,0,0,0-5.455-5.823c-6.881-5.128-6.959-6.228-8.353-6.427-.253-.036-.559-.918-.559-.918-.018-1.228-1.976-3.076-1.976-3.076s-3.044-2.809-3.323-3.222c-.086-.128-.305-1.04-.365-1.135a.326.326,0,0,0-.2-.1s-.37-.046-.4-.1c-.175-.3-.443-.343-.706-.042-.092.1-.468.012-.527-.017-.71-.355-.994.092-.994.092a.848.848,0,0,0-.56.618,1.017,1.017,0,0,0-.327.32c-.087.146-.079.521-.237.526-.318.01-.294.778.041,1.038.1.079,1.246.142,1.389.226s.752.874,1.052.992c.177.151,1.7,1.491,1.76,1.543a9.891,9.891,0,0,1,1.44,2.027l.409,2.114a39,39,0,0,0-8.426,5.863c-5.063,5.221-5.54,8.126-6.787,11.578-.624,1.728-2.738,4.444-2.514,8.249a10.81,10.81,0,0,0,.935,3.4c.429,2.137,2.424,4.237,3.012,5.192,0,0-1.107.557-.994.867.188.512,6.733,1.7,9.282,1.914,2.941.244,6.853,1.015,9.264,1.027,5.1.026,6.039-1.207,10.112-2.312,1.848-.5,5.281-.046,6.305-1.475,0,0-1.483-.851-1.26-1.225" transform="translate(-2245.95 -919.381)" fill="#ffa031"/>
        <path id="Trazado_735378" data-name="Trazado 735378" d="M2569.662,1430.433l2.42-7.386-2.313,4.076-6.18-5.78.81,9.206-5.53-6.681s-1.759,7.108-1.92,6.979-2.053-5.856-2.053-5.856l-.681,7.012-4.777-5.542s2.438,6.5,2.879,6.8c.065.044-11.9-6.889-11.594-6.8,1.866.528,7.992,7.528,10.408,7.817,1.409.169,1.509,1.184,3.481.969,1.013-.111,2.832-.12,4.407-.261,1.821-.163,2.811-1.168,5.729-1.671a8.106,8.106,0,0,0,4.915-2.878" transform="translate(-2339.924 -1309.014)" fill="#bb2622"/>
        <path id="Trazado_735379" data-name="Trazado 735379" d="M2577.572,1362.677a3.709,3.709,0,0,0,.013.464,3.609,3.609,0,0,0,2.393,3.063,2.376,2.376,0,0,0,.307-.995,2.565,2.565,0,0,1-1.654-2.16,2.448,2.448,0,0,1-.01-.292,2.38,2.38,0,0,0-1.049-.08" transform="translate(-2373.865 -1254.961)" fill="#383333"/>
        <path id="Trazado_735380" data-name="Trazado 735380" d="M2594.156,1320.494a2.565,2.565,0,0,1,2.82-.26,2.381,2.381,0,0,0,.607-.858,3.6,3.6,0,0,0-4.185.38,2.381,2.381,0,0,0,.758.739" transform="translate(-2388.442 -1214.646)" fill="#383333"/>
        <path id="Trazado_735381" data-name="Trazado 735381" d="M2640.057,1357.438a2.384,2.384,0,0,0,.487.914,3.6,3.6,0,0,0,1.7-3.917,2.38,2.38,0,0,0-1,.27,2.63,2.63,0,0,1,.046.294,2.565,2.565,0,0,1-1.23,2.439" transform="translate(-2431.413 -1247.394)" fill="#383333"/>
        <path id="Trazado_735382" data-name="Trazado 735382" d="M2545.013,1282.848a2.755,2.755,0,0,1,2.373.972l.455-.323a.825.825,0,0,1-.032-.16.814.814,0,0,1,.562-.852l-.06-.632-.033,0a2.759,2.759,0,0,1-.7-5.445l-.011-.115a141.592,141.592,0,0,1-5.34,9.1,3.877,3.877,0,0,0,.442,1.467l.045-.029.072-.048a2.76,2.76,0,0,1,2.228-3.94" transform="translate(-2341.298 -1175.43)" fill="#383333"/>
        <path id="Trazado_735383" data-name="Trazado 735383" d="M2624.018,1279.8a3.889,3.889,0,0,0-3.807-4.488l.012.122v0a2.76,2.76,0,0,1,.33,5.467l.062.651a.814.814,0,0,1,.652.722.868.868,0,0,1,0,.159l.5.23a2.76,2.76,0,0,1,5.072,2.042l.109.046.048.02a3.888,3.888,0,0,0-2.98-4.974" transform="translate(-2413.136 -1174.526)" fill="#383333"/>
        <path id="Trazado_735384" data-name="Trazado 735384" d="M2565.369,1372.946h0l-.016-.007a2.76,2.76,0,0,1-4.942-2.408l.007-.014-.471-.215a.814.814,0,0,1-1.233.12l-.429.305a2.759,2.759,0,0,1-4.385,3.309l-.1.066-.014.01a15.738,15.738,0,0,1,8.692.859,3.884,3.884,0,0,0,3.024-1.97l-.041-.017Z" transform="translate(-2351.959 -1262.006)" fill="#383333"/>
        <g id="Grupo_1033756" data-name="Grupo 1033756" transform="translate(202.947 89.622)" opacity="0.4">
          <g id="Grupo_1033755" data-name="Grupo 1033755">
            <g id="Grupo_1033754" data-name="Grupo 1033754" clip-path="url(#clip-path-7)">
              <path id="Trazado_735385" data-name="Trazado 735385" d="M2568.418,1138.783l2.537-1.257,2.45-1.935,1.523-.6,1.708-.68-2.721-.289-1.112.423-2.615,1.8-2.206,2.079Z" transform="translate(-2567.982 -1134.018)" fill="#e63b24"/>
            </g>
          </g>
        </g>
        <path id="Trazado_735386" data-name="Trazado 735386" d="M2661.092,1097.744s-.114-.007-.152-.273a.417.417,0,0,1,.01-.309.8.8,0,0,0,.107-.351c-.01-.179-.1-.245-.094-.35.021-.293.073-.539.561-.594.4-.046.875-.1,1.114-.1.261,0,.7.014,1.075.036a6.2,6.2,0,0,1,.656.06,1.782,1.782,0,0,1,.675.183.465.465,0,0,1,.316.389,1.961,1.961,0,0,1,.218.248,2.233,2.233,0,0,1,.1.347,4.484,4.484,0,0,0-.672-.107c-.142-.01-.766.063-.909.052-.236-.017-.927-.043-1.164-.052a2.95,2.95,0,0,0-1.045.266c-.668.2-.8.557-.8.557" transform="translate(-2450.622 -1009.166)" fill="#2c2f30"/>
        <path id="Trazado_735387" data-name="Trazado 735387" d="M2662.589,1100.72l-.572-.125a9.623,9.623,0,0,1,1.641-.227c.457-.03.7-.012,1.207,0a8.818,8.818,0,0,1,1.343.187l-.772.081.947.284c-.142,0-.814-.106-1.461-.105a17.218,17.218,0,0,0-1.758.109,6.408,6.408,0,0,0-1.254.238Z" transform="translate(-2451.538 -1013.391)" fill="#3b3d3d"/>
        <path id="Trazado_735388" data-name="Trazado 735388" d="M3804.373,1389.159a27.852,27.852,0,0,1-4.789-9.4,21.993,21.993,0,0,1-.234-6.77,74.079,74.079,0,0,1,3.693-7.072c.418-.536,2.543-4.4,5.155-6.813,6.75-6.232,6.71-7.412,8.171-7.781.266-.067.492-1.04.492-1.04-.119-1.31,1.759-3.5,1.759-3.5s2.926-3.333,3.176-3.8c.077-.146.208-1.142.261-1.249a.35.35,0,0,1,.2-.125s.39-.091.418-.154c.153-.335.433-.415.748-.124.109.1.5-.039.559-.078.717-.458,1.069-.014,1.069-.014a.907.907,0,0,1,.665.6,1.081,1.081,0,0,1,.384.3c.109.146.143.546.311.534.34-.025.4.8.073,1.11-.1.095-1.31.291-1.453.4s-.7,1.015-1.009,1.174c-.171.181-1.644,1.779-1.7,1.841a21.3,21.3,0,0,0-1.752,2.764l.248,1.853a41.778,41.778,0,0,1,9.629,5.3c5.977,4.991,6.811,8.03,8.525,11.566.859,1.77,3.415,4.424,3.6,8.5a11.582,11.582,0,0,1-.614,3.725c-.217,2.323-2.1,4.783-2.624,5.866,0,0,1.241.469,1.155.811-.142.567-6.977,2.569-9.668,3.08-3.1.589-7.182,1.85-9.748,2.134-5.422.6-6.566-.607-11.027-1.326-2.024-.326-5.628.544-6.879-.862,0,0,1.484-1.073,1.2-1.446" transform="translate(-3498.942 -1235.066)" fill="#ffa031"/>
        <g id="Grupo_1033762" data-name="Grupo 1033762" transform="translate(311.728 117.331)" opacity="0.4">
          <g id="Grupo_1033761" data-name="Grupo 1033761">
            <g id="Grupo_1033760" data-name="Grupo 1033760" clip-path="url(#clip-path-8)">
              <path id="Trazado_735391" data-name="Trazado 735391" d="M3944.991,1491.21l2.364-1.9,2.117-2.587,1.453-.982,1.63-1.1-2.912.323-1.064.7-2.321,2.481-1.829,2.681Z" transform="translate(-3944.429 -1484.64)" fill="#e63b24"/>
            </g>
          </g>
        </g>
        <path id="Trazado_735392" data-name="Trazado 735392" d="M4014.97,1454.481s.12-.02.132-.307a.445.445,0,0,0-.045-.328.862.862,0,0,1-.154-.361c-.009-.192.082-.272.062-.384-.055-.309-.139-.566-.664-.57-.433,0-.943-.012-1.2.017-.278.031-.742.093-1.141.159a6.669,6.669,0,0,0-.691.137,1.9,1.9,0,0,0-.7.271.5.5,0,0,0-.293.449,2.058,2.058,0,0,0-.2.288,2.352,2.352,0,0,0-.069.381,4.8,4.8,0,0,1,.7-.19c.15-.026.823-.019.974-.046.25-.045.982-.15,1.234-.186a3.161,3.161,0,0,1,1.142.166c.734.134.91.5.91.5" transform="translate(-3693.097 -1337.733)" fill="#2c2f30"/>
        <path id="Trazado_735393" data-name="Trazado 735393" d="M4016.414,1458.12l.6-.2a10.279,10.279,0,0,0-1.773-.057c-.49.02-.75.066-1.285.131a9.468,9.468,0,0,0-1.409.35h.831l-.977.409c.152-.014.854-.2,1.544-.277a18.413,18.413,0,0,1,1.883-.082,6.85,6.85,0,0,1,1.362.113Z" transform="translate(-3695.298 -1342.637)" fill="#3b3d3d"/>
        <path id="Trazado_735394" data-name="Trazado 735394" d="M4070.714,1767a3.73,3.73,0,0,0,3.3,2.944,2.469,2.469,0,0,0,.061-1.076,2.656,2.656,0,0,1-2.2-1.758,2.75,2.75,0,0,1-.083-.291,2.468,2.468,0,0,0-1.074.181" transform="translate(-3749.006 -1627.186)" fill="#383333"/>
        <path id="Trazado_735395" data-name="Trazado 735395" d="M4079.3,1714.2a2.654,2.654,0,0,1,2.768-.965,2.47,2.47,0,0,0,.4-1.014,3.731,3.731,0,0,0-4.11,1.426,2.467,2.467,0,0,0,.946.553" transform="translate(-3756.043 -1576.765)" fill="#383333"/>
        <path id="Trazado_735396" data-name="Trazado 735396" d="M4140.816,1741.645a2.464,2.464,0,0,0,.717.8,3.736,3.736,0,0,0,.921-3.917,3.549,3.549,0,0,0-.189-.442,2.467,2.467,0,0,0-.941.522,2.714,2.714,0,0,1,.12.284,2.659,2.659,0,0,1-.627,2.758" transform="translate(-3813.568 -1600.721)" fill="#383333"/>
        <path id="Trazado_735397" data-name="Trazado 735397" d="M4041.992,1681.205a2.853,2.853,0,0,1,2.627.385l.376-.438a.818.818,0,0,1-.072-.153.843.843,0,0,1,.352-1l-.218-.621-.032.011a2.856,2.856,0,0,1-2.062-5.3l-.04-.113a147.06,147.06,0,0,1-3.094,10.476,4.005,4.005,0,0,0,.81,1.364l.038-.041.06-.066a2.857,2.857,0,0,1,1.255-4.515" transform="translate(-3720.351 -1541.691)" fill="#383333"/>
        <path id="Trazado_735398" data-name="Trazado 735398" d="M4096.6,1672.717a4.025,4.025,0,0,0-4.945-3.559l.042.12v0a2.857,2.857,0,0,1,1.7,5.41l.224.639a.842.842,0,0,1,.835.562.823.823,0,0,1,.04.16l.563.106a2.857,2.857,0,0,1,5.606.786l.121.019.054.008a4.026,4.026,0,0,0-4.235-4.253" transform="translate(-3768.291 -1537.143)" fill="#383333"/>
        <path id="Trazado_735399" data-name="Trazado 735399" d="M4071.994,1764.305h0l-.019,0a2.856,2.856,0,0,1-5.566-1.186l0-.016-.526-.1a.842.842,0,0,1-1.208.428l-.355.414a2.856,2.856,0,0,1-3.579,4.419l-.085.092-.012.013a16.292,16.292,0,0,1,8.947-1.305,4.019,4.019,0,0,0,2.547-2.734l-.045-.007Z" transform="translate(-3739.734 -1623.671)" fill="#383333"/>
        <path id="Trazado_735400" data-name="Trazado 735400" d="M3562.729,2361.257a62.278,62.278,0,0,1-.5,7.595c-.348,1.986-1.043,5.317-8.38,7.794-4.4,1.487-11.107,1.974-13.74.6-1.892-.99-1.736-2.958-.221-5.685,1.128-2.031,3.363-3.581,5.337-5.607,1.388-1.424.936-5.425.89-6a22.507,22.507,0,0,0,5.817,2.51c6.732,1.147,10.8-1.2,10.8-1.2" transform="translate(-3259.054 -2173.438)" fill="#4db1f0"/>
        <path id="Trazado_735401" data-name="Trazado 735401" d="M2895.518,2336.122c4.839,1.817,8.014.537,8.014.537a22.74,22.74,0,0,1,.319,3.211c-.219,3.36-.882,5.119-5.338,5.063-3.6-.045-5.6-1.444-10.078-1.657-8.377-.4-13.045-2.636-12.7-4.848.513-3.269,9.138-5.073,12.88-4.941.434.015,2.076-2.1,2.076-2.1.1.268.442,3.093,4.825,4.738" transform="translate(-2648.45 -2147.135)" fill="#4db1f0"/>
        <path id="Trazado_735402" data-name="Trazado 735402" d="M2618.552,975.3a5.044,5.044,0,0,0-1.4,1.175,6.5,6.5,0,0,0-.778,1.339c-.948,1.978-.93,3.367-1.28,5.533a25.075,25.075,0,0,0-.176,2.753,29.7,29.7,0,0,1,3.815-2.244c-.308-1.282,1.234-2.016,2.989-1.856a1.986,1.986,0,0,1,1.208.439,5.263,5.263,0,0,1,.389.7,6.752,6.752,0,0,1,1.986,1.523c.044.039.491-.283,1.133-1.123a9.724,9.724,0,0,0,.77-1.251l.633-1.155a10.8,10.8,0,0,0,.69-1.419c.233-.628.347-1.295.585-1.921a4.583,4.583,0,0,1,.76-1.2,2.585,2.585,0,0,1-1.467-.136c-.766-.264-1.164-.839-2.688-1.624-2.462-1.268-2.312-2.729-2.312-2.729a45.665,45.665,0,0,1-4.851,3.2" transform="translate(-2408.258 -895.275)" fill="#4db1f0"/>
        <path id="Trazado_735403" data-name="Trazado 735403" d="M2832.522,69.295c-1.516-6.759-1.861-7.873-5.579-18.5-1.755-5.019-3.038-7.554-7.333-11.337a34.517,34.517,0,0,0-10.323-5.57c-2.363-1.02-4.315-2.313-5.051-3.917-.821-1.79-1.22-3.211-1.6-7.43-.369-4.126-.094-9.153-.946-13.717a9.214,9.214,0,0,0-3.629-6.194C2794.4.1,2791.673.008,2789.762.334a14.63,14.63,0,0,0-2.18.638c-8.454,3.014-9.474,8.122-9.927,10.271-1.114,5.288.373,9.815,1.473,13.639,1.588,5.519,4.322,6.009,4.084,8.264a2.385,2.385,0,0,1-2.138,2.121c-1.6.4-5.044.839-11.036,4.857-2.994,2.007-4.3,3.852-6.2,6.877-1.643,2.617-6.054,9.067-9.69,13.549-2.691,3.317-4.954,5.635-10.485,6.68-2.813.531-17.081,3.89-18.438,8.733-.741,2.645.857,7.181,4.1,7.653a13.7,13.7,0,0,0,5.629.018c5.581-1.161,18.034-2.964,22.239-4.9,5.5-2.537,13.107-10.739,16.151-18.6a96.044,96.044,0,0,0-1.522,15.643c0,9.239.244,12.661.244,12.661-2.275,2.733-7.955,19.555-10.828,32.9-2.052,9.531-4.278,17.787-5.516,26.665-1.176,8.432-2.212,11-3.326,17.842-1.192,7.324-1.979,13.082-2.606,16.719-.649,3.762-.2,7.346,9.388,8.03,7.162.511,7.752.273,9.152-4.795.791-2.866,1.319-8.674,1.858-11.5,1.269-6.641,2.434-9.483,3.345-13.783.777-3.672,3.311-10.392,4.152-13.894a72.715,72.715,0,0,1,8-20.121c2.31-3.807,3.216-6.48,4.766-8.454,0,0,1.319,8.634,1.908,16.614.572,7.741,1.047,21.67,1.416,28.466.322,5.933.682,13.926,1.209,21.554.419,6.072,1.791,6.613,5.925,7.552,2.557.581,5.965.075,7.9-.159,2.859-.346,4.195-1.438,4.843-2.982.73-1.739,1.022-3.044,1.451-10.3.467-7.889.021-16.439-.142-22.6-.123-4.642-.218-9.218.1-16.05.123-2.637.5-8.542.821-13.068.43-6.013-.312-9.8-.177-13.309.618-16.059-.262-20.281-1.357-24.454a114.323,114.323,0,0,0-1.259-29.342c.864,3.126,3.5,9.338,5.391,17.5,1.847,8,3.793,19.711,5.187,21.561a6.289,6.289,0,0,0,6.226,2.436c2.187-.405,4.537-.4,5.143-6.007.522-4.824-1.35-20.99-2.509-26.157" transform="translate(-2509.684 -0.184)" fill="#fff"/>
        <path id="Trazado_735404" data-name="Trazado 735404" d="M3235.366,443.178q-1.4-.089-2.677-.2a145.552,145.552,0,0,1,.179-25.271c.491-3.206,1.008-7.194,1.485-10.361.506-3.359,1.959-9.321,2.294-13.91,2.156.124,5.388-.132,10.335-2.239,5.927-2.524,7.481-4.351,7.481-4.351l-.939-.7s-1.751,2.216-7.7,4.372c-4.991,1.81-7.475,1.951-9.123,1.841a13.911,13.911,0,0,0-.132-2.685,14.584,14.584,0,0,0-1.3-4.678l-1.263.222a17.024,17.024,0,0,1,1.394,4.482,12.028,12.028,0,0,1,.173,2.523,10.448,10.448,0,0,1-3.173-1.07,5.532,5.532,0,0,1-2.029-2.184,2.319,2.319,0,0,1-1,.545,6.142,6.142,0,0,0,2.482,2.493,9.281,9.281,0,0,0,3.671,1.324c-.315,4.537-1.874,10.476-2.365,13.82-.3,2.033-1.163,7.1-1.52,10.277a119.137,119.137,0,0,0-.154,25.443,74.48,74.48,0,0,1-11.676-1.8l.108,1.7s5.079.9,11.563,1.6a44.81,44.81,0,0,0,.274,12.318c1.314,8.876,2.7,10.515,3.955,12.387a4.834,4.834,0,0,1,.665,1.861,33.13,33.13,0,0,1-2.917,5.139c-8.508,14.112-14.9,33.838-16.747,45.006-.327,1.977-1.211,7.362-2.554,15.741-.773,4.824-2.1,5.924-2.831,8.32h1.254a22.474,22.474,0,0,0,2.618-7.331c.922-5.589,2.1-13.34,2.639-16.266,1.85-10.018,7.98-30.182,16.758-45.181a29.4,29.4,0,0,0,2.259-3.812,8.632,8.632,0,0,0,.577,1.136l.885-1.23c-.511-1.062-1.008-3.54-1.48-4.256-1.006-1.529-2.532-2.96-3.817-12.174-.667-4.777-.24-8.648-.259-11.522.808.082,1.632.16,2.467.232,10.537.91,26.967-1.058,26.967-1.058l.12-1.515a154.5,154.5,0,0,1-26.945,1" transform="translate(-2957.531 -354.574)" fill="#4db1f0"/>
        <path id="Trazado_735405" data-name="Trazado 735405" d="M3451.23,11.476l1.458-.429s-.41-2.317,1.969-5.706a15.193,15.193,0,0,1,6.855-5.223,7.03,7.03,0,0,0-.8-.1c-.358-.029-.68-.02-.68-.02a12.778,12.778,0,0,0-6.574,4.882,11.6,11.6,0,0,0-2.231,6.6" transform="translate(-3178.479 0.004)" fill="#1daea3"/>
        <path id="Trazado_735406" data-name="Trazado 735406" d="M4000.5,1256.7a19.74,19.74,0,0,1,.219,5.589,5.023,5.023,0,0,0,.083.921c.137.811.207,1.544.253,1.972a11.939,11.939,0,0,0,1.739,4.31,16.006,16.006,0,0,1,2.18-2.85,5.377,5.377,0,0,1,1.2,3.865,1.024,1.024,0,0,0,.773.974,2.059,2.059,0,0,0,2.054-1.034,5.362,5.362,0,0,1,.274-.693c.4-.709,1.405-1.012,1.595-1.805.035-.147.038-.3.082-.445.183-.594.965-.794,1.256-1.343a1.926,1.926,0,0,0,.067-1.206,13.359,13.359,0,0,0-.3-1.513,12.576,12.576,0,0,1-.653-2.365,12.131,12.131,0,0,0-.051-2.337,5.228,5.228,0,0,0-1.383-1.948,6.147,6.147,0,0,1-1.3-1.594,7.653,7.653,0,0,1-3.727,1.608,8.028,8.028,0,0,1-4.36-.108" transform="translate(-3684.345 -1155.999)" fill="#4db1f0"/>
        <path id="Trazado_735407" data-name="Trazado 735407" d="M3373.924,123.477s1.536-2.706,9.324-2.733A26.574,26.574,0,0,1,3399.8,126.6l.056,1.512a28.65,28.65,0,0,0-16.822-5.9c-7.54-.049-9.26,3.025-9.26,3.025Z" transform="translate(-3107.148 -111.201)" fill="#ececec"/>
        <path id="Trazado_735408" data-name="Trazado 735408" d="M3372.1,149.784s2.021-2.871,9.613-2.966c7.553-.1,10.536,2.727,10.536,2.727l-.728.253a18.691,18.691,0,0,0-9.517-2.215c-6.122.067-9.107,2.472-9.107,2.472Z" transform="translate(-3105.602 -135.212)" fill="#e8e8e8"/>
        <g id="Grupo_1033765" data-name="Grupo 1033765" transform="translate(264.317 8.229)" opacity="0.35">
          <g id="Grupo_1033764" data-name="Grupo 1033764">
            <g id="Grupo_1033763" data-name="Grupo 1033763" clip-path="url(#clip-path-9)">
              <path id="Trazado_735409" data-name="Trazado 735409" d="M3347.063,106.834s1.021-2.229,9.095-2.673c7.311-.4,10.287,2.6,10.287,2.6s1.092,9.067,1.657,15.48c0,0,1.265,10.211-10.782,11.782-10.856,1.415-12.8-.726-12.8-.726Z" transform="translate(-3344.521 -104.124)" fill="#b6b7b7"/>
            </g>
          </g>
        </g>
        <path id="Trazado_735410" data-name="Trazado 735410" d="M3372.449,107.075s.552-1.751,6.38-2.516c9.519-1.249,13.013,2.36,13.013,2.36l.405,3.466s-4.419-3.438-12.731-2.5c-5.658.641-7.418,2.737-7.418,2.737Z" transform="translate(-3105.602 -96.053)" fill="#4db1f0"/>
        <g id="Grupo_1033768" data-name="Grupo 1033768" transform="translate(266.601 8.923)" opacity="0.53">
          <g id="Grupo_1033767" data-name="Grupo 1033767">
            <g id="Grupo_1033766" data-name="Grupo 1033766" clip-path="url(#clip-path-10)">
              <path id="Trazado_735411" data-name="Trazado 735411" d="M3375.731,113.509l1.976-.61,1.021,29.663a25.552,25.552,0,0,1-2.753-.008,16.774,16.774,0,0,1-2.556-.292Z" transform="translate(-3373.418 -112.899)" fill="#fbffff"/>
            </g>
          </g>
        </g>
        <g id="Grupo_1033771" data-name="Grupo 1033771" transform="translate(264.317 10.422)" opacity="0.53">
          <g id="Grupo_1033770" data-name="Grupo 1033770">
            <g id="Grupo_1033769" data-name="Grupo 1033769" clip-path="url(#clip-path-11)">
              <path id="Trazado_735412" data-name="Trazado 735412" d="M3347.052,132.473a1.032,1.032,0,0,1,.18-.289,2.539,2.539,0,0,1,.307-.31l-2.38,27.37a3.146,3.146,0,0,1-.384-.2,1.385,1.385,0,0,1-.255-.191Z" transform="translate(-3344.521 -131.874)" fill="#fbffff"/>
            </g>
          </g>
        </g>
        <g id="Grupo_1033774" data-name="Grupo 1033774" transform="translate(281.426 8.924)" opacity="0.38">
          <g id="Grupo_1033773" data-name="Grupo 1033773">
            <g id="Grupo_1033772" data-name="Grupo 1033772" clip-path="url(#clip-path-12)">
              <path id="Trazado_735413" data-name="Trazado 735413" d="M3561.941,112.91l.846.247L3565.4,137.7a11.674,11.674,0,0,1-1.788,1.8,10.9,10.9,0,0,1-2.607,1.5Z" transform="translate(-3561.008 -112.91)" fill="#fbffff"/>
            </g>
          </g>
        </g>
        <path id="Trazado_735414" data-name="Trazado 735414" d="M3607.767,144.389a.415.415,0,1,1-.486-.4.446.446,0,0,1,.486.4" transform="translate(-3321.893 -132.607)" fill="#fff"/>
        <path id="Trazado_735415" data-name="Trazado 735415" d="M3404.692,167.272c-.2-1.666-.635-3.24.326-5.012.9-1.661,2.324-2.467,5.118-2.969,2.582-.464,5.551.232,6.9,2.072a8.9,8.9,0,0,1,1.764,5.731,17.169,17.169,0,0,1-1.667,6.878c-1.5,2.61-2.7,3.554-4.465,3.791-2.305.308-3.954-1.073-5.442-2.914-1.846-2.285-2.338-5.942-2.53-7.578" transform="translate(-3135.369 -146.574)" fill="#e5c0b6"/>
        <path id="Trazado_735416" data-name="Trazado 735416" d="M3410.1,216.577c1.563-1.184,1.6-1.717,2.6-1.981.836-.221,2.74.684,3.126.716a16.827,16.827,0,0,1,5.807,1.411,13.809,13.809,0,0,1-.994,7.056c-1.162,2.924-3.233,5.073-5.2,5.14a5.184,5.184,0,0,1-3.17-.916,7.9,7.9,0,0,1-2.91-3.3,18.156,18.156,0,0,1-1.771-6.522,27.546,27.546,0,0,0,2.511-1.6" transform="translate(-3138.284 -197.605)" fill="#7cc5c3"/>
        <path id="Trazado_735417" data-name="Trazado 735417" d="M3439.1,281.223c-1.92.1-5.221.416-6.336.618-1,.181-4.8,1.442-4.8,1.442,2.292-.983,3.318-2.222,4.463-2.521,1.364-.357,1.874.2,6.672.461" transform="translate(-3157.052 -258.467)" fill="#6cbab6"/>
        <path id="Trazado_735418" data-name="Trazado 735418" d="M3444.259,306.069a54.865,54.865,0,0,1-6.3,1.017c-.981.186-4.432,1.016-4.432,1.016a15.941,15.941,0,0,0,4.6.273c1.44-.154,1.69-.566,6.138-2.3" transform="translate(-3162.172 -281.88)" fill="#6cbab6"/>
        <path id="Trazado_735419" data-name="Trazado 735419" d="M3473.281,345.242c-.955.254-1.7.362-2.488.508-.5.092-2.377.476-2.377.476a5.28,5.28,0,0,0,2.456.336,6.506,6.506,0,0,0,2.409-1.32" transform="translate(-3194.307 -317.957)" fill="#6cbab6"/>
        <path id="Trazado_735420" data-name="Trazado 735420" d="M3412.709,215.748c.816-.161,1.864.411,3.029.667a19.433,19.433,0,0,1,2.815.429,17.245,17.245,0,0,1,3.129,1.044,5.9,5.9,0,0,1,.089,1.193,24.3,24.3,0,0,0-2.757-.568,14.561,14.561,0,0,1-3.479-.72,5.64,5.64,0,0,0-2.762-.511c-.358.069-.784.549-1.3,1.052a9.8,9.8,0,0,1-1.894,1.314l-1.776,1.12c-.118-.75-.182-1.478-.182-1.478.361-.174,1-.594,1.652-1a9.178,9.178,0,0,0,1.524-1.081c.692-.6,1.247-1.331,1.909-1.461" transform="translate(-3138.32 -198.671)" fill="#6cbab6"/>
        <path id="Trazado_735421" data-name="Trazado 735421" d="M3412.814,216.852a3.046,3.046,0,0,1,2.187.394,11.019,11.019,0,0,0,2.982.541,36.571,36.571,0,0,1,3.813,1.15,3.652,3.652,0,0,1,.049.406c-1.262-.245-2.567-.965-3.862-1.106a12.3,12.3,0,0,1-3.24-.573,2.511,2.511,0,0,0-1.861-.283,5.574,5.574,0,0,0-1.714,1.224,15.691,15.691,0,0,1-1.411,1.215l-1.975,1.034c-.025-.2-.048-.493-.048-.493.778-.426.913-.42,1.561-.835a8.2,8.2,0,0,0,1.559-1.154,4.834,4.834,0,0,1,1.96-1.521" transform="translate(-3138.421 -199.651)" fill="#cae8e6"/>
        <path id="Trazado_735422" data-name="Trazado 735422" d="M2161.576,1437.874l-4.76-2.476-2.18-88.333h2.849l4.091,4.508Z" transform="translate(-1984.356 -1240.606)" fill="#99601d"/>
        <path id="Trazado_735423" data-name="Trazado 735423" d="M2260.677,1424.493l-62.135-.069.238,5.385c0,.01,0,.019,0,.029l2.732,78.477a5.283,5.283,0,0,0,5.222,5.338h45.722a5.283,5.283,0,0,0,5.222-5.338l2.641-75.859Z" transform="translate(-2024.792 -1311.851)" fill="#cc8027"/>
        <path id="Trazado_735424" data-name="Trazado 735424" d="M2341.976,1424.424h-46.748l.179,5.32c0,.01,0,.019,0,.029l2.056,78.538c0,2.951,1.76,5.342,3.928,5.342h34.4c2.168,0,3.927-2.391,3.928-5.342l1.987-75.917Z" transform="translate(-2113.836 -1311.851)" fill="#ffa031"/>
        <path id="Trazado_735425" data-name="Trazado 735425" d="M2237.816,1474l-.01.335h-61.329l-.01-.335h-2.5l1.787,7.77h.9l-.186-5.934h9.3v5.934l2.871-5.934h19.324v5.934l2.871-5.934h19.346v5.934l2.871-5.934h4.717l-.186,5.934h.96l1.787-7.77Z" transform="translate(-2002.154 -1357.511)" fill="#99601d"/>
        <path id="Trazado_735426" data-name="Trazado 735426" d="M2220.855,1424.424h-68.64a.56.56,0,0,0-.507.6v3.894h12.137v7.194h1.182v-7.194h21.109v7.194h1.182v-7.194h21.111v7.194h1.182v-7.194h11.752v-3.894a.56.56,0,0,0-.507-.6" transform="translate(-1981.658 -1311.851)" fill="#ffa031"/>
        <path id="Trazado_735427" data-name="Trazado 735427" d="M2167.474,765.119l-1.947,1.947,0-.005-.1-.1-.1-.1-.708-.709s-7.89-.092-7.983,0l-16.686,16.686-2.315,2.315-16.686,16.686c-.094.094.1,7.887.1,7.887l.914.914-1.772,1.772a1.526,1.526,0,0,0,.178,2.136l.44.44.628.628,1.27,1.27,49.254-49.254-1.27-1.27-.421-.422-.647-.647a1.526,1.526,0,0,0-2.136-.178" transform="translate(-1952.291 -704.321)" fill="#ffa031"/>
        <rect id="Rectángulo_352901" data-name="Rectángulo 352901" width="61.625" height="1.179" transform="matrix(0.707, -0.707, 0.707, 0.707, 168.833, 105.493)" fill="#99601d"/>
        <path id="Trazado_735428" data-name="Trazado 735428" d="M2199.639,2304.483a11.485,11.485,0,0,1-4.487,9.117l-1.3.016c-5.8-6.681-6.766-7.818-13.742-16.12v-1.259a11.5,11.5,0,0,1,19.527,8.245" transform="translate(-2007.818 -2111.765)" fill="#ce250f"/>
        <path id="Trazado_735429" data-name="Trazado 735429" d="M2165.633,2315.438a10.684,10.684,0,1,1-10.684-10.684,10.684,10.684,0,0,1,10.684,10.684" transform="translate(-1974.805 -2122.609)" fill="#302e2e"/>
        <path id="Trazado_735430" data-name="Trazado 735430" d="M2217.5,2372.169a5.815,5.815,0,1,1-5.815-5.815,5.815,5.815,0,0,1,5.815,5.815" transform="translate(-2031.537 -2179.341)" fill="#414042"/>
      </g>
    </g>
  </g>
</svg>
