<svg xmlns="http://www.w3.org/2000/svg" xmlns:xlink="http://www.w3.org/1999/xlink" width="190" height="190" viewBox="0 0 190 190">
  <defs>
    <clipPath id="clip-path">
      <circle id="Elipse_8399" data-name="Elipse 8399" cx="91.5" cy="91.5" r="91.5" transform="translate(0 -0.463)" fill="#fff"/>
    </clipPath>
  </defs>
  <g id="Grupo_1036336" data-name="Grupo 1036336" transform="translate(-1105 -2390)">
    <g id="Grupo_1024925" data-name="Grupo 1024925" transform="translate(1104.563 2390)">
      <circle id="Elipse_8399-2" data-name="Elipse 8399" cx="95" cy="95" r="95" transform="translate(0.438)" fill="#fff"/>
    </g>
    <g id="Enmascarar_grupo_1026453" data-name="Enmascarar grupo 1026453" transform="translate(1112 2390.463)" clip-path="url(#clip-path)">
      <g id="_12._Verification" data-name="12. Verification" transform="translate(23.057 29.45)">
        <rect id="Rectángulo_350729" data-name="Rectángulo 350729" width="81.004" height="106.585" rx="5.938" transform="translate(2.132 2.132)" fill="#c1e4fa"/>
        <path id="Trazado_728196" data-name="Trazado 728196" d="M79.71,149.738H7.232a4.263,4.263,0,0,1-4.263-4.263v6.4a4.263,4.263,0,0,0,4.263,4.263H79.71a4.263,4.263,0,0,0,4.263-4.263v-6.4A4.263,4.263,0,0,1,79.71,149.738Z" transform="translate(-0.837 -47.417)" fill="#adbeee"/>
        <path id="Trazado_728197" data-name="Trazado 728197" d="M78.873,119.755H23.449a2.132,2.132,0,0,1,0-4.263H78.873A2.132,2.132,0,0,0,81,113.36V15.3a2.132,2.132,0,0,0-2.132-2.132H6.4A2.132,2.132,0,0,0,4.263,15.3V113.36A2.132,2.132,0,0,0,6.4,115.491h8.527a2.132,2.132,0,0,1,0,4.263H6.4a6.4,6.4,0,0,1-6.4-6.4V15.3a6.4,6.4,0,0,1,6.4-6.4H78.873a6.4,6.4,0,0,1,6.4,6.4V113.36A6.4,6.4,0,0,1,78.873,119.755Z" transform="translate(0 -8.907)" fill="#12263f"/>
        <path id="Trazado_728198" data-name="Trazado 728198" d="M113.662,51.006v81a4.263,4.263,0,0,1-4.263,4.263H36.921a4.263,4.263,0,0,1-4.263-4.263V33.952a4.263,4.263,0,0,1,4.263-4.263H92.345Z" transform="translate(-9.209 -14.767)" fill="#eaf2ff"/>
        <path id="Trazado_728199" data-name="Trazado 728199" d="M109.4,167.552H36.921a4.263,4.263,0,0,1-4.263-4.263v6.4a4.263,4.263,0,0,0,4.263,4.263H109.4a4.263,4.263,0,0,0,4.263-4.263v-6.4A4.263,4.263,0,0,1,109.4,167.552Z" transform="translate(-9.209 -52.44)" fill="#c1d1f7"/>
        <path id="Trazado_728200" data-name="Trazado 728200" d="M108.561,137.568H36.084a6.4,6.4,0,0,1-6.4-6.4V33.115a6.4,6.4,0,0,1,6.4-6.4H91.508a2.132,2.132,0,0,1,1.508.624L114.333,48.66a2.132,2.132,0,0,1,.624,1.508V58.7a2.132,2.132,0,1,1-4.263,0V51.051L90.626,30.983H36.084a2.132,2.132,0,0,0-2.132,2.132v98.058a2.132,2.132,0,0,0,2.132,2.132h72.478a2.132,2.132,0,0,0,2.132-2.132V71.485a2.132,2.132,0,1,1,4.263,0v59.687A6.4,6.4,0,0,1,108.561,137.568Z" transform="translate(-8.372 -13.93)" fill="#12263f"/>
        <path id="Trazado_728201" data-name="Trazado 728201" d="M136.266,52.3H119.213a6.4,6.4,0,0,1-6.4-6.4V28.851a2.132,2.132,0,0,1,3.64-1.508L137.774,48.66a2.132,2.132,0,0,1-1.508,3.64ZM117.081,34V45.9a2.132,2.132,0,0,0,2.132,2.132h11.908Z" transform="translate(-31.813 -13.929)"/>
        <path id="Trazado_728202" data-name="Trazado 728202" d="M137.1,51.006H120.05a4.263,4.263,0,0,1-4.263-4.263V29.689Z" transform="translate(-32.65 -14.767)" fill="#c0e4fa"/>
        <path id="Trazado_728203" data-name="Trazado 728203" d="M136.266,52.3H119.213a6.4,6.4,0,0,1-6.4-6.4V28.851a2.132,2.132,0,0,1,3.64-1.508L137.774,48.66a2.132,2.132,0,0,1-1.508,3.64ZM117.081,34V45.9a2.132,2.132,0,0,0,2.132,2.132h11.908Z" transform="translate(-31.813 -13.929)" fill="#12263f"/>
        <path id="Trazado_728204" data-name="Trazado 728204" d="M50.471,47.5H84.578v8.527H50.471Z" transform="translate(-14.232 -19.79)" fill="#ffa031"/>
        <path id="Trazado_728205" data-name="Trazado 728205" d="M83.741,57.323H49.634A2.132,2.132,0,0,1,47.5,55.192V46.665a2.132,2.132,0,0,1,2.132-2.132H83.741a2.132,2.132,0,0,1,2.132,2.132v8.527A2.132,2.132,0,0,1,83.741,57.323ZM51.765,53.06H81.609V48.8H51.765Z" transform="translate(-13.395 -18.953)" fill="#12263f"/>
        <path id="Trazado_728206" data-name="Trazado 728206" d="M50.471,74.222h12.79v12.79H50.471Z" transform="translate(-14.232 -27.325)" fill="#91cfd6"/>
        <path id="Trazado_728207" data-name="Trazado 728207" d="M62.424,88.307H49.634A2.132,2.132,0,0,1,47.5,86.175V73.385a2.132,2.132,0,0,1,2.132-2.132h12.79a2.132,2.132,0,0,1,2.132,2.132v12.79A2.132,2.132,0,0,1,62.424,88.307ZM51.765,84.043h8.527V75.516H51.765Z" transform="translate(-13.395 -26.488)" fill="#12263f"/>
        <path id="Trazado_728208" data-name="Trazado 728208" d="M104.9,75.516H79.323a2.132,2.132,0,1,1,0-4.263H104.9a2.132,2.132,0,1,1,0,4.263Z" transform="translate(-21.767 -26.488)" fill="#12263f"/>
        <path id="Trazado_728209" data-name="Trazado 728209" d="M104.9,87.392H79.323a2.132,2.132,0,1,1,0-4.263H104.9a2.132,2.132,0,1,1,0,4.263Z" transform="translate(-21.767 -29.836)" fill="#12263f"/>
        <path id="Trazado_728210" data-name="Trazado 728210" d="M50.471,106.88h12.79v12.79H50.471Z" transform="translate(-14.232 -36.534)" fill="#91cfd6"/>
        <path id="Trazado_728211" data-name="Trazado 728211" d="M62.424,120.964H49.634a2.132,2.132,0,0,1-2.132-2.132v-12.79a2.132,2.132,0,0,1,2.132-2.132h12.79a2.132,2.132,0,0,1,2.132,2.132v12.79A2.132,2.132,0,0,1,62.424,120.964ZM51.765,116.7h8.527v-8.527H51.765Z" transform="translate(-13.395 -35.697)" fill="#12263f"/>
        <path id="Trazado_728212" data-name="Trazado 728212" d="M104.9,108.174H79.323a2.132,2.132,0,0,1,0-4.263H104.9a2.132,2.132,0,1,1,0,4.263Z" transform="translate(-21.767 -35.697)" fill="#12263f"/>
        <path id="Trazado_728213" data-name="Trazado 728213" d="M104.9,120.05H79.323a2.132,2.132,0,1,1,0-4.263H104.9a2.132,2.132,0,1,1,0,4.263Z" transform="translate(-21.767 -39.045)" fill="#12263f"/>
        <path id="Trazado_728214" data-name="Trazado 728214" d="M50.471,139.537h12.79v12.79H50.471Z" transform="translate(-14.232 -45.743)" fill="#91cfd6"/>
        <path id="Trazado_728215" data-name="Trazado 728215" d="M62.424,153.622H49.634A2.132,2.132,0,0,1,47.5,151.49V138.7a2.132,2.132,0,0,1,2.132-2.132h12.79a2.132,2.132,0,0,1,2.132,2.132v12.79A2.132,2.132,0,0,1,62.424,153.622Zm-10.658-4.263h8.527v-8.527H51.765Z" transform="translate(-13.395 -44.906)" fill="#12263f"/>
        <path id="Trazado_728216" data-name="Trazado 728216" d="M104.9,140.832H79.323a2.132,2.132,0,1,1,0-4.263H104.9a2.132,2.132,0,1,1,0,4.263Z" transform="translate(-21.767 -44.906)" fill="#12263f"/>
        <path id="Trazado_728217" data-name="Trazado 728217" d="M104.9,152.707H79.323a2.132,2.132,0,1,1,0-4.263H104.9a2.132,2.132,0,1,1,0,4.263Z" transform="translate(-21.767 -48.254)" fill="#12263f"/>
        <path id="Trazado_728218" data-name="Trazado 728218" d="M154,136.568l-8.527,8.527,19.55,19.55a6.03,6.03,0,1,0,8.527-8.527Z" transform="translate(-41.022 -44.906)" fill="#ffa031"/>
        <path id="Trazado_728219" data-name="Trazado 728219" d="M169.289,162.057l-19.55-19.55-4.263,4.263,19.55,19.55a6.035,6.035,0,0,0,10.088-2.7A6.035,6.035,0,0,1,169.289,162.057Z" transform="translate(-41.022 -46.58)" fill="#df6117"/>
        <path id="Trazado_728220" data-name="Trazado 728220" d="M168.451,167.7a8.106,8.106,0,0,1-5.769-2.4l-19.553-19.55a2.132,2.132,0,0,1,0-3.016l8.527-8.527a2.132,2.132,0,0,1,3.016,0l19.542,19.561a8.159,8.159,0,0,1-5.764,13.931Zm-20.8-23.449L165.688,162.3a3.9,3.9,0,0,0,5.521-5.521l-18.045-18.037Z" transform="translate(-40.184 -44.065)" fill="#12263f"/>
        <circle id="Elipse_8415" data-name="Elipse 8415" cx="27.712" cy="27.712" r="27.712" transform="translate(63.951 51.161)" fill="#596060"/>
        <path id="Trazado_728221" data-name="Trazado 728221" d="M116.778,138.816A27.712,27.712,0,0,1,89.25,114.3a27.712,27.712,0,1,0,55.056,0,27.712,27.712,0,0,1-27.528,24.514Z" transform="translate(-25.115 -38.626)" fill="#4c5657"/>
        <path id="Trazado_728222" data-name="Trazado 728222" d="M115.941,136.878a29.844,29.844,0,1,1,29.844-29.844A29.844,29.844,0,0,1,115.941,136.878Zm0-55.424a25.58,25.58,0,1,0,25.58,25.58,25.58,25.58,0,0,0-25.58-25.58Z" transform="translate(-24.278 -28.162)" fill="#12263f"/>
        <circle id="Elipse_8416" data-name="Elipse 8416" cx="19.185" cy="19.185" r="19.185" transform="translate(72.478 59.687)" fill="#91cfd6"/>
        <path id="Trazado_728223" data-name="Trazado 728223" d="M120.127,98.435a19.186,19.186,0,0,1,18.919,15.99,19.185,19.185,0,1,0-37.838,0A19.185,19.185,0,0,1,120.127,98.435Z" transform="translate(-28.464 -32.353)" fill="#065958"/>
        <path id="Trazado_728224" data-name="Trazado 728224" d="M119.29,131.7a21.317,21.317,0,1,1,21.317-21.317A21.317,21.317,0,0,1,119.29,131.7Zm0-38.37a17.054,17.054,0,1,0,17.054,17.054A17.054,17.054,0,0,0,119.29,93.33Z" transform="translate(-27.627 -31.511)" fill="#12263f"/>
        <path id="Trazado_728225" data-name="Trazado 728225" d="M122.8,124.146l-6.4-6.4a2.133,2.133,0,1,1,3.016-3.016l4.887,4.89,9.15-9.153a2.133,2.133,0,0,1,3.016,3.016l-10.658,10.658a2.132,2.132,0,0,1-3.016,0Z" transform="translate(-32.65 -37.37)" fill="#12263f"/>
      </g>
    </g>
  </g>
</svg>
