<svg xmlns="http://www.w3.org/2000/svg" xmlns:xlink="http://www.w3.org/1999/xlink" width="176" height="176" viewBox="0 0 176 176">
  <defs>
    <clipPath id="clip-path">
      <circle id="Elipse_8399" data-name="Elipse 8399" cx="88" cy="88" r="88" transform="translate(-0.368)" fill="#fff"/>
    </clipPath>
  </defs>
  <g id="Grupo_1036348" data-name="Grupo 1036348" transform="translate(-9296 7236)">
    <g id="Grupo_1029853" data-name="Grupo 1029853" transform="translate(9296.368 -7236)">
      <circle id="Elipse_8399-2" data-name="Elipse 8399" cx="88" cy="88" r="88" transform="translate(-0.368)" fill="#fff"/>
    </g>
    <g id="Grupo_1033637" data-name="Grupo 1033637" transform="translate(9296.368 -7236)">
      <g id="Enmascarar_grupo_1030783" data-name="Enmascarar grupo 1030783" clip-path="url(#clip-path)">
        <g id="explosion" transform="translate(10.32 6.861)">
          <path id="Trazado_734768" data-name="Trazado 734768" d="M20.848,134.64,9.335,99.566l13.616,4.816L9.335,66.142,35.919,85.817l-5.334-23.18L47.637,76.233l-3.669-35.2,19.8,26.086L71.111,28.66l9,40.031L90.968,47.749l2.394,30.594L114.6,38.921l-4.549,43.373,14.257-14.455-1.275,17.245,23.279-17.543-14.838,36.8L146.314,99,134.834,134.64Z" transform="translate(-0.513 -0.513)" fill="#ff4343"/>
          <path id="Trazado_734769" data-name="Trazado 734769" d="M127.843,147.5A8.589,8.589,0,0,0,126.7,132.3a8.547,8.547,0,0,0-6.276-10.4,13.014,13.014,0,0,0-20.481-13.722,10.525,10.525,0,0,0-14.44-2.73A17.007,17.007,0,1,0,53.62,117.186a8.191,8.191,0,0,0-7.257,9.581c-.356-.032-.722-.055-1.089-.055A12.1,12.1,0,0,0,36.846,147.5Z" transform="translate(-5.235 -13.373)" fill="#ffc143"/>
          <g id="Grupo_1033638" data-name="Grupo 1033638" transform="translate(6.745 26.07)">
            <path id="Trazado_734770" data-name="Trazado 734770" d="M145.8,132.049h-8.626l10.6-32.924a2.076,2.076,0,0,0-2.679-2.59L134.624,100.3l13.1-32.494a2.076,2.076,0,0,0-3.176-2.436L124.931,80.153l.937-12.675a2.076,2.076,0,0,0-3.551-1.611L112.227,76.1l3.927-37.476a2.079,2.079,0,0,0-3.9-1.2L94.37,70.629,92.526,47.07a2.077,2.077,0,0,0-3.917-.794L80.375,62.165,72.626,27.692A2.079,2.079,0,0,0,70.6,26.07h-.034a2.079,2.079,0,0,0-2.006,1.688L62.09,61.632,45.115,39.262a2.076,2.076,0,0,0-3.72,1.471l1.327,12.733a2.077,2.077,0,1,0,4.132-.431L46.3,47.693l15.314,20.17A2.076,2.076,0,0,0,65.3,67l5.46-28.64,6.807,30.277a2.077,2.077,0,0,0,3.87.5l7.511-14.483L90.779,78a2.079,2.079,0,0,0,3.9.823l16.242-30.153-3.45,32.9a2.077,2.077,0,0,0,3.546,1.676l10.29-10.434-.858,11.611a2.076,2.076,0,0,0,3.324,1.812l17.3-13.043-12.04,29.856a2.077,2.077,0,0,0,2.629,2.73l10.862-3.9-9.72,30.176h-5.4a10.684,10.684,0,0,0-3.642-14.263c.027-.313.043-.623.043-.931a10.631,10.631,0,0,0-6.223-9.69,14.625,14.625,0,0,0,.141-2.011A15.13,15.13,0,0,0,102.61,90.043a14.92,14.92,0,0,0-7.5,2A12.6,12.6,0,0,0,81.363,89.16,19.088,19.088,0,0,0,45.67,102.326a10.293,10.293,0,0,0-6.719,8.978,14.179,14.179,0,0,0-11.458,20.745H21.84l-9.725-29.628,9.63,3.407a2.077,2.077,0,0,0,2.651-2.654L13.067,71.359l21.1,15.614a2.076,2.076,0,0,0,3.26-2.137l-4-17.376,12.4,9.88a2.077,2.077,0,0,0,3.362-1.84L48,64.087a2.079,2.079,0,1,0-4.136.433l.675,6.485L31.37,60.5a2.077,2.077,0,0,0-3.324,2.091l4.072,17.7L10.059,63.959a2.077,2.077,0,0,0-3.193,2.367l12.158,34.129-9.5-3.361A2.077,2.077,0,0,0,6.86,99.706l10.616,32.348H8.823a2.077,2.077,0,0,0,0,4.155H86.841a2.077,2.077,0,1,0,0-4.155H32.51a9.93,9.93,0,0,1-2.493-6.607,10.036,10.036,0,0,1,10.019-10.029c.3,0,.6.02.9.046a2.076,2.076,0,0,0,2.235-2.413,6.226,6.226,0,0,1-.095-1.033A6.153,6.153,0,0,1,48.6,105.88a2.076,2.076,0,0,0,1.7-2.874A14.929,14.929,0,1,1,78.284,92.7a2.079,2.079,0,0,0,3.13,1.105A8.443,8.443,0,0,1,93,96a2.079,2.079,0,0,0,2.961.455,10.936,10.936,0,0,1,17.218,11.54,2.075,2.075,0,0,0,1.511,2.553,6.46,6.46,0,0,1,4.748,7.88,2.079,2.079,0,0,0,1.2,2.412,6.5,6.5,0,0,1,1.313,11.215h-7.343a2.077,2.077,0,1,0,0,4.155H145.8a2.077,2.077,0,0,0,0-4.155Z" transform="translate(-6.745 -26.07)" fill="#12263f"/>
            <path id="Trazado_734771" data-name="Trazado 734771" d="M125.753,158.231h-5.342a2.077,2.077,0,1,0,0,4.155h5.342a2.077,2.077,0,1,0,0-4.155Z" transform="translate(-28.852 -52.252)"/>
            <path id="Trazado_734772" data-name="Trazado 734772" d="M84.191,123.523a6.767,6.767,0,0,1,4.172,1.425,2.078,2.078,0,1,0,2.539-3.289,10.987,10.987,0,0,0-17.674,8.021H73.2a9.6,9.6,0,0,0-9.591,9.594,2.077,2.077,0,0,0,4.155,0,5.441,5.441,0,0,1,5.436-5.436,5.592,5.592,0,0,1,.58.044,10.786,10.786,0,0,0,.594,1.455,2.078,2.078,0,0,0,3.706-1.88,6.757,6.757,0,0,1-.734-3.086A6.851,6.851,0,0,1,84.191,123.523Z" transform="translate(-18.011 -44.554)" fill="#12263f"/>
            <path id="Trazado_734773" data-name="Trazado 734773" d="M119.746,134.03a2.077,2.077,0,0,0,0,4.155,5.659,5.659,0,0,1,5.657,5.654,2.077,2.077,0,1,0,4.155,0A9.819,9.819,0,0,0,119.746,134.03Z" transform="translate(-28.72 -47.458)" fill="#12263f"/>
          </g>
        </g>
      </g>
    </g>
  </g>
</svg>
