<svg xmlns="http://www.w3.org/2000/svg" xmlns:xlink="http://www.w3.org/1999/xlink" width="411.091" height="313.502" viewBox="0 0 411.091 313.502">
  <defs>
    <clipPath id="clip-path">
      <rect id="Rectángulo_350775" data-name="Rectángulo 350775" width="356" height="260.048" fill="none"/>
    </clipPath>
    <clipPath id="clip-path-3">
      <rect id="Rectángulo_350763" data-name="Rectángulo 350763" width="174.133" height="99.502" fill="#99601d"/>
    </clipPath>
    <clipPath id="clip-path-5">
      <rect id="Rectángulo_350769" data-name="Rectángulo 350769" width="5.031" height="3.858" fill="none"/>
    </clipPath>
    <clipPath id="clip-path-6">
      <rect id="Rectángulo_350770" data-name="Rectángulo 350770" width="23.139" height="2.503" fill="none"/>
    </clipPath>
    <clipPath id="clip-path-7">
      <rect id="Rectángulo_350771" data-name="Rectángulo 350771" width="4.619" height="5.678" fill="none"/>
    </clipPath>
    <clipPath id="clip-path-8">
      <rect id="Rectángulo_350772" data-name="Rectángulo 350772" width="20.994" height="10.169" fill="none"/>
    </clipPath>
  </defs>
  <g id="Grupo_1033895" data-name="Grupo 1033895" transform="translate(9974.791 4331.001)">
    <path id="Trazado_113636" data-name="Trazado 113636" d="M291.508,145.754A145.754,145.754,0,1,0,145.754,291.508,145.754,145.754,0,0,0,291.508,145.754" transform="translate(-9563.7 -4039.493) rotate(180)" fill="#8acbef"/>
    <path id="Trazado_113665" data-name="Trazado 113665" d="M6.514,3.257A3.257,3.257,0,1,0,3.257,6.514,3.257,3.257,0,0,0,6.514,3.257" transform="translate(-9597.944 -4260.945) rotate(180)" fill="#fff"/>
    <path id="Trazado_113666" data-name="Trazado 113666" d="M6.514,3.257A3.257,3.257,0,1,0,3.257,6.514,3.257,3.257,0,0,0,6.514,3.257" transform="translate(-9612.276 -4260.945) rotate(180)" fill="#fff"/>
    <path id="Trazado_113667" data-name="Trazado 113667" d="M6.514,3.257A3.257,3.257,0,1,0,3.257,6.514,3.257,3.257,0,0,0,6.514,3.257" transform="translate(-9626.607 -4260.945) rotate(180)" fill="#fff"/>
    <path id="Trazado_113668" data-name="Trazado 113668" d="M6.515,3.257A3.257,3.257,0,1,0,3.257,6.514,3.257,3.257,0,0,0,6.515,3.257" transform="translate(-9640.939 -4260.945) rotate(180)" fill="#fff"/>
    <path id="Trazado_113669" data-name="Trazado 113669" d="M6.514,3.257A3.257,3.257,0,1,0,3.257,6.514,3.257,3.257,0,0,0,6.514,3.257" transform="translate(-9655.271 -4260.945) rotate(180)" fill="#fff"/>
    <path id="Trazado_113670" data-name="Trazado 113670" d="M6.514,3.257A3.257,3.257,0,1,0,3.257,6.514,3.257,3.257,0,0,0,6.514,3.257" transform="translate(-9597.944 -4247.266) rotate(180)" fill="#fff"/>
    <path id="Trazado_113671" data-name="Trazado 113671" d="M6.514,3.257A3.257,3.257,0,1,0,3.257,6.514,3.257,3.257,0,0,0,6.514,3.257" transform="translate(-9612.276 -4247.266) rotate(180)" fill="#fff"/>
    <path id="Trazado_113672" data-name="Trazado 113672" d="M6.514,3.257A3.257,3.257,0,1,0,3.257,6.514,3.257,3.257,0,0,0,6.514,3.257" transform="translate(-9626.607 -4247.266) rotate(180)" fill="#fff"/>
    <path id="Trazado_113673" data-name="Trazado 113673" d="M6.515,3.257A3.257,3.257,0,1,0,3.257,6.514,3.257,3.257,0,0,0,6.515,3.257" transform="translate(-9640.939 -4247.266) rotate(180)" fill="#fff"/>
    <path id="Trazado_113674" data-name="Trazado 113674" d="M6.514,3.257A3.257,3.257,0,1,0,3.257,6.514,3.257,3.257,0,0,0,6.514,3.257" transform="translate(-9655.271 -4247.266) rotate(180)" fill="#fff"/>
    <path id="Trazado_113675" data-name="Trazado 113675" d="M6.514,3.257A3.257,3.257,0,1,0,3.257,6.514,3.257,3.257,0,0,0,6.514,3.257" transform="translate(-9597.944 -4233.586) rotate(180)" fill="#fff"/>
    <path id="Trazado_113676" data-name="Trazado 113676" d="M6.514,3.257A3.257,3.257,0,1,0,3.257,6.514,3.257,3.257,0,0,0,6.514,3.257" transform="translate(-9612.276 -4233.586) rotate(180)" fill="#fff"/>
    <path id="Trazado_113677" data-name="Trazado 113677" d="M6.514,3.257A3.257,3.257,0,1,0,3.257,6.514,3.257,3.257,0,0,0,6.514,3.257" transform="translate(-9626.607 -4233.586) rotate(180)" fill="#fff"/>
    <path id="Trazado_113678" data-name="Trazado 113678" d="M6.515,3.257A3.257,3.257,0,1,0,3.257,6.514,3.257,3.257,0,0,0,6.515,3.257" transform="translate(-9640.939 -4233.586) rotate(180)" fill="#fff"/>
    <path id="Trazado_113679" data-name="Trazado 113679" d="M6.514,3.257A3.257,3.257,0,1,0,3.257,6.514,3.257,3.257,0,0,0,6.514,3.257" transform="translate(-9655.271 -4233.586) rotate(180)" fill="#fff"/>
    <path id="Trazado_113680" data-name="Trazado 113680" d="M6.514,3.257A3.257,3.257,0,1,0,3.257,6.514,3.257,3.257,0,0,0,6.514,3.257" transform="translate(-9597.944 -4219.906) rotate(180)" fill="#fff"/>
    <path id="Trazado_113681" data-name="Trazado 113681" d="M6.514,3.257A3.257,3.257,0,1,0,3.257,6.514,3.257,3.257,0,0,0,6.514,3.257" transform="translate(-9612.276 -4219.906) rotate(180)" fill="#fff"/>
    <path id="Trazado_113682" data-name="Trazado 113682" d="M6.514,3.257A3.257,3.257,0,1,0,3.257,6.514,3.257,3.257,0,0,0,6.514,3.257" transform="translate(-9626.607 -4219.906) rotate(180)" fill="#fff"/>
    <path id="Trazado_113683" data-name="Trazado 113683" d="M6.515,3.257A3.257,3.257,0,1,0,3.257,6.514,3.257,3.257,0,0,0,6.515,3.257" transform="translate(-9640.939 -4219.906) rotate(180)" fill="#fff"/>
    <path id="Trazado_113684" data-name="Trazado 113684" d="M6.514,3.257A3.257,3.257,0,1,0,3.257,6.514,3.257,3.257,0,0,0,6.514,3.257" transform="translate(-9655.271 -4219.906) rotate(180)" fill="#fff"/>
    <path id="Trazado_113685" data-name="Trazado 113685" d="M6.514,3.257A3.257,3.257,0,1,0,3.257,6.514,3.257,3.257,0,0,0,6.514,3.257" transform="translate(-9597.944 -4206.226) rotate(180)" fill="#fff"/>
    <path id="Trazado_113686" data-name="Trazado 113686" d="M6.514,3.257A3.257,3.257,0,1,0,3.257,6.514,3.257,3.257,0,0,0,6.514,3.257" transform="translate(-9612.276 -4206.226) rotate(180)" fill="#fff"/>
    <path id="Trazado_113687" data-name="Trazado 113687" d="M6.514,3.257A3.257,3.257,0,1,0,3.257,6.514,3.257,3.257,0,0,0,6.514,3.257" transform="translate(-9626.607 -4206.226) rotate(180)" fill="#fff"/>
    <path id="Trazado_113688" data-name="Trazado 113688" d="M6.515,3.257A3.257,3.257,0,1,0,3.257,6.514,3.257,3.257,0,0,0,6.515,3.257" transform="translate(-9640.939 -4206.226) rotate(180)" fill="#fff"/>
    <path id="Trazado_113689" data-name="Trazado 113689" d="M6.514,3.257A3.257,3.257,0,1,0,3.257,6.514,3.257,3.257,0,0,0,6.514,3.257" transform="translate(-9655.271 -4206.226) rotate(180)" fill="#fff"/>
    <g id="Grupo_1030345" data-name="Grupo 1030345" transform="translate(-9974.791 -4277.547)">
      <g id="Grupo_1030344" data-name="Grupo 1030344" clip-path="url(#clip-path)">
        <g id="Grupo_1030327" data-name="Grupo 1030327">
          <g id="Grupo_1030326" data-name="Grupo 1030326" clip-path="url(#clip-path)">
            <path id="Trazado_728707" data-name="Trazado 728707" d="M131.271,82.175l5.117,87.24a5.892,5.892,0,0,0,5.864,5.547l157.026.478a5.891,5.891,0,0,0,5.909-5.873l.207-67.925a5.892,5.892,0,0,0-5.912-5.909l-96.571.328a5.9,5.9,0,0,1-4.167-1.707L182.011,77.77a5.892,5.892,0,0,0-4.129-1.707l-40.711-.124a5.891,5.891,0,0,0-5.9,6.236" transform="translate(-36.143 -20.91)" fill="#e8505b"/>
            <g id="Grupo_1030325" data-name="Grupo 1030325" transform="translate(95.118 55.029)" opacity="0.3">
              <g id="Grupo_1030324" data-name="Grupo 1030324">
                <g id="Grupo_1030323" data-name="Grupo 1030323" clip-path="url(#clip-path-3)">
                  <path id="Trazado_728708" data-name="Trazado 728708" d="M131.271,82.175l5.117,87.24a5.892,5.892,0,0,0,5.864,5.547l157.026.478a5.891,5.891,0,0,0,5.909-5.873l.207-67.925a5.892,5.892,0,0,0-5.912-5.909l-96.571.328a5.9,5.9,0,0,1-4.167-1.707L182.011,77.77a5.892,5.892,0,0,0-4.129-1.707l-40.711-.124a5.891,5.891,0,0,0-5.9,6.236" transform="translate(-131.261 -75.939)" fill="#99601d"/>
                </g>
              </g>
            </g>
            <rect id="Rectángulo_350764" data-name="Rectángulo 350764" width="85.214" height="68.126" transform="matrix(0.606, -0.795, 0.795, 0.606, 96.912, 90.015)" fill="#fff"/>
            <path id="Trazado_728709" data-name="Trazado 728709" d="M185.284,30.674s-.081.117-.241.332-.4.538-.715.955c-.636.843-1.572,2.08-2.786,3.691l-10.533,13.9L133.781,98.563l-.032-.236,54.2,41.262.005,0-.264.036c19.126-25.089,36.9-48.4,51.662-67.768l.03.22L200.114,42.066l-10.955-8.4-2.885-2.22c-.651-.5-.99-.776-.99-.776s.334.24.985.728l2.882,2.173,10.977,8.311,39.445,29.945.125.095-.1.125L187.99,139.858l-.114.15-.15-.114-.006,0L133.545,98.6l-.135-.1.1-.134c15.386-20.14,28.328-37.082,37.429-49l10.581-13.815,2.8-3.64.72-.928c.161-.207.244-.305.244-.305" transform="translate(-36.735 -8.446)" fill="#263238"/>
            <rect id="Rectángulo_350765" data-name="Rectángulo 350765" width="79.228" height="59.549" transform="matrix(0.606, -0.795, 0.795, 0.606, 102.103, 90.277)" fill="#263238"/>
            <path id="Trazado_728710" data-name="Trazado 728710" d="M201.454,151.457l-12.677-44.443,28.81.4-2.8-16.751,34.679-2.228Z" transform="translate(-51.981 -24.35)" fill="#455a64"/>
            <path id="Trazado_728711" data-name="Trazado 728711" d="M200.412,81.964a6.238,6.238,0,1,1-8.743,1.183,6.239,6.239,0,0,1,8.743-1.183" transform="translate(-52.425 -22.218)" fill="#455a64"/>
            <rect id="Rectángulo_350766" data-name="Rectángulo 350766" width="94.822" height="118.606" transform="translate(156.099 116.225) rotate(-87.644)" fill="#fff"/>
            <path id="Trazado_728712" data-name="Trazado 728712" d="M337.742,34.454s-.194,0-.567-.014l-1.655-.058-6.425-.244-24.247-.953L219.23,29.747l.175-.162c-1.154,28.2-2.477,60.525-3.877,94.732v.01l-.18-.2,118.5,4.907-.163.15c1.209-28.551,2.21-52.216,2.909-68.75.358-8.274.638-14.762.83-19.189.1-2.21.174-3.905.225-5.054s.089-1.743.089-1.743-.012.576-.053,1.711-.107,2.827-.189,5.025c-.172,4.419-.425,10.9-.747,19.156-.662,16.56-1.609,40.261-2.752,68.856l-.006.157-.157-.007-118.507-4.843-.189-.008.008-.188v-.01c1.414-34.207,2.751-66.534,3.917-94.731l.007-.169.169.007,85.719,3.611,24.206,1.041,6.39.283,1.636.078c.366.018.547.032.547.032" transform="translate(-59.24 -8.096)" fill="#263238"/>
            <rect id="Rectángulo_350767" data-name="Rectángulo 350767" width="82.883" height="110.273" transform="matrix(0.041, -0.999, 0.999, 0.041, 160.43, 110.428)" fill="#455a64"/>
            <path id="Trazado_728713" data-name="Trazado 728713" d="M221.391,133.431l40.6-49.893L284.5,116.724l16.876-16.552,30.19,37.791Z" transform="translate(-60.961 -23.003)" fill="#263238"/>
            <path id="Trazado_728714" data-name="Trazado 728714" d="M318.041,73.329a8.682,8.682,0,1,1-8.318-9.032,8.682,8.682,0,0,1,8.318,9.032" transform="translate(-82.794 -17.702)" fill="#263238"/>
            <path id="Trazado_728715" data-name="Trazado 728715" d="M338.379,108.85,216,2.648,138.746,92.893l121.763,105Z" transform="translate(-38.204 -0.729)" fill="#ebebeb"/>
            <path id="Trazado_728716" data-name="Trazado 728716" d="M353.927,99.384,224.652,1.687,153.672,96.941,282.246,193.48Z" transform="translate(-42.314 -0.465)" fill="#e0e0e0"/>
            <path id="Trazado_728717" data-name="Trazado 728717" d="M355.279,79.883,214.117.323,156.491,104.2,296.8,182.707Z" transform="translate(-43.09 -0.089)" fill="#fff"/>
            <path id="Trazado_728718" data-name="Trazado 728718" d="M355.181,79.794l-58.341,102.9-.075.133-.134-.075L156.3,104.277l-.165-.092.091-.164.42-.757L213.87.151,213.954,0l.15.085,141.077,79.71L213.936.383l.233-.066L156.978,103.446l-.42.758-.073-.257,140.3,78.536-.209.058L355.181,79.794" transform="translate(-42.993)" fill="#263238"/>
            <path id="Trazado_728719" data-name="Trazado 728719" d="M323.413,181.577c-.275-.149,9.23-18.234,21.226-40.388s21.949-40,22.223-39.852-9.228,18.229-21.228,40.391-21.947,40-22.222,39.849" transform="translate(-89.051 -27.903)" fill="#263238"/>
            <path id="Trazado_728720" data-name="Trazado 728720" d="M305.35,173.449c-.275-.149,9.23-18.234,21.226-40.387s21.949-40,22.223-39.853-9.228,18.229-21.229,40.391-21.947,40-22.221,39.849" transform="translate(-84.078 -25.665)" fill="#263238"/>
            <path id="Trazado_728721" data-name="Trazado 728721" d="M250.878,146.806c-.275-.149,9.23-18.234,21.226-40.387s21.949-40,22.223-39.853S285.1,84.795,273.1,106.957s-21.947,40-22.221,39.849" transform="translate(-69.078 -18.329)" fill="#263238"/>
            <path id="Trazado_728722" data-name="Trazado 728722" d="M268.022,155.488c-.275-.149,9.23-18.234,21.226-40.387s21.949-40,22.223-39.853-9.228,18.229-21.229,40.391-21.947,40-22.221,39.849" transform="translate(-73.799 -20.719)" fill="#263238"/>
            <path id="Trazado_728723" data-name="Trazado 728723" d="M285.166,164.169c-.275-.149,9.23-18.234,21.226-40.387s21.949-40,22.223-39.853-9.228,18.229-21.228,40.391-21.947,40-22.222,39.849" transform="translate(-78.52 -23.11)" fill="#263238"/>
            <path id="Trazado_728724" data-name="Trazado 728724" d="M232.8,135.186c-.275-.148,9.23-18.233,21.226-40.387s21.949-40,22.223-39.853-9.228,18.229-21.228,40.391-21.947,40-22.222,39.848" transform="translate(-64.102 -15.13)" fill="#263238"/>
            <path id="Trazado_728725" data-name="Trazado 728725" d="M214.346,125.1c-.275-.149,9.23-18.234,21.226-40.387s21.949-40,22.223-39.853-9.228,18.229-21.227,40.391-21.947,40-22.222,39.849" transform="translate(-59.019 -12.352)" fill="#263238"/>
            <path id="Trazado_728726" data-name="Trazado 728726" d="M195.887,115.016c-.275-.149,9.23-18.234,21.226-40.387s21.949-40,22.223-39.853S230.109,53,218.108,75.167s-21.947,40-22.221,39.849" transform="translate(-53.937 -9.575)" fill="#263238"/>
            <path id="Trazado_728727" data-name="Trazado 728727" d="M331.247,92.574l-160.524,22.1,17,117.57,159.211-22.428Z" transform="translate(-47.009 -25.491)" fill="#ebebeb"/>
            <path id="Trazado_728728" data-name="Trazado 728728" d="M332.8,72.335,174.134,105.223l24.9,116.154,157.333-33.124Z" transform="translate(-47.949 -19.918)" fill="#e0e0e0"/>
            <path id="Trazado_728729" data-name="Trazado 728729" d="M315.677,54.349l-152.853,53.78,40.182,111.789,151.5-53.835Z" transform="translate(-44.834 -14.965)" fill="#fff"/>
            <path id="Trazado_728730" data-name="Trazado 728730" d="M315.593,54.349l38.976,111.683.05.144-.144.051L202.986,220.1l-.178.063-.064-.178c-.092-.257-.193-.536-.293-.815l-39.873-110.98-.058-.162.162-.057,152.91-53.618L162.8,108.29l.1-.22,39.906,110.968c.1.279.2.559.293.815l-.241-.114,151.513-53.8-.093.2L315.593,54.349" transform="translate(-44.751 -14.965)" fill="#263238"/>
            <path id="Trazado_728731" data-name="Trazado 728731" d="M367.636,169.806c-.293.109-7.636-18.956-16.4-42.577S335.6,84.364,335.9,84.255s7.634,18.952,16.4,42.58,15.631,42.862,15.338,42.971" transform="translate(-92.488 -23.2)" fill="#263238"/>
            <path id="Trazado_728732" data-name="Trazado 728732" d="M349.621,178.04c-.293.109-7.636-18.956-16.4-42.577S317.589,92.6,317.883,92.489s7.634,18.952,16.4,42.581,15.631,42.861,15.339,42.97" transform="translate(-87.528 -25.467)" fill="#263238"/>
            <path id="Trazado_728733" data-name="Trazado 728733" d="M293.69,201.467c-.293.109-7.636-18.956-16.4-42.577s-15.633-42.866-15.339-42.974,7.634,18.952,16.4,42.58,15.631,42.862,15.338,42.971" transform="translate(-72.127 -31.918)" fill="#263238"/>
            <path id="Trazado_728734" data-name="Trazado 728734" d="M311.517,194.288c-.293.109-7.636-18.956-16.4-42.577s-15.633-42.866-15.339-42.974,7.634,18.952,16.4,42.581,15.631,42.861,15.338,42.97" transform="translate(-77.036 -29.941)" fill="#263238"/>
            <path id="Trazado_728735" data-name="Trazado 728735" d="M329.343,187.11c-.293.109-7.636-18.956-16.4-42.577s-15.633-42.866-15.339-42.974,7.634,18.952,16.4,42.58S329.636,187,329.343,187.11" transform="translate(-81.944 -27.964)" fill="#263238"/>
            <path id="Trazado_728736" data-name="Trazado 728736" d="M273.042,207.408c-.293.109-7.636-18.956-16.4-42.577S241.01,121.966,241.3,121.857s7.634,18.952,16.4,42.58,15.631,42.862,15.338,42.971" transform="translate(-66.441 -33.554)" fill="#263238"/>
            <path id="Trazado_728737" data-name="Trazado 728737" d="M253.294,214.65c-.294.109-7.636-18.956-16.4-42.577s-15.633-42.866-15.339-42.974,7.634,18.952,16.4,42.58,15.631,42.862,15.338,42.971" transform="translate(-61.004 -35.548)" fill="#263238"/>
            <path id="Trazado_728738" data-name="Trazado 728738" d="M233.546,221.892c-.293.109-7.636-18.956-16.4-42.577s-15.633-42.866-15.339-42.974,7.634,18.952,16.4,42.581,15.631,42.861,15.338,42.97" transform="translate(-55.566 -37.542)" fill="#263238"/>
            <path id="Trazado_728739" data-name="Trazado 728739" d="M126.835,148.833l12.773,106.952a3.788,3.788,0,0,0,3.75,3.339l167.206.509a3.787,3.787,0,0,0,3.787-3.479L323.1,149.268a3.789,3.789,0,0,0-3.765-4.1L130.608,144.6a3.789,3.789,0,0,0-3.773,4.238" transform="translate(-34.917 -39.815)" fill="#ffa031"/>
          </g>
        </g>
        <path id="Trazado_728740" data-name="Trazado 728740" d="M407.013,109.284l-5.636,4.036,3.285,16.16,7.409-6.609Z" transform="translate(-110.521 -30.092)" fill="#bf7a62"/>
        <g id="Grupo_1030341" data-name="Grupo 1030341">
          <g id="Grupo_1030340" data-name="Grupo 1030340" clip-path="url(#clip-path)">
            <path id="Trazado_728741" data-name="Trazado 728741" d="M410.922,272.677l23.444-11.391,30.073,3.609a9.8,9.8,0,0,1,3.775,6.239,3.193,3.193,0,0,1-.341,2.368,3,3,0,0,1-3.179.78,28.084,28.084,0,0,0-3.328-.994c-2.238-.264-4.3,1.166-5.983,2.666s-3.356,3.211-5.552,3.712a8.511,8.511,0,0,1-5.722-1.067c-1.756-.919-3.324-2.157-5.038-3.152a16.983,16.983,0,0,0-10.588-2.354c-2.919.381-5.656,1.659-8.562,2.12s-7.419-.053-9-2.538" transform="translate(-113.149 -71.946)" fill="#455a64"/>
            <path id="Trazado_728742" data-name="Trazado 728742" d="M470.278,292.851s-19.2-65.472-19.568-67.565c-.329-1.892,2.665-47.759,4-59.661l-21.152.178-.008.2-10.053.247,4.506,130.22,13,1-.086-42.964c8.2,20.718,17.708,43.82,17.708,43.82Z" transform="translate(-116.612 -45.605)" fill="#d89377"/>
            <path id="Trazado_728743" data-name="Trazado 728743" d="M435.57,243.815c.04.006-.039.51-.088,1.427a28.22,28.22,0,0,0,.059,3.88,35.572,35.572,0,0,0,.948,5.671,56.5,56.5,0,0,0,2.293,6.672c1.783,4.7,3.375,8.965,4.507,12.058.54,1.5.986,2.74,1.321,3.671a9.44,9.44,0,0,1,.431,1.367,9.319,9.319,0,0,1-.583-1.309l-1.446-3.624c-1.2-3.067-2.839-7.314-4.622-12.015l-1.293-3.436a31.714,31.714,0,0,1-.983-3.292,33.354,33.354,0,0,1-.869-5.743,23.539,23.539,0,0,1,.075-3.915c.048-.46.109-.814.158-1.053a1.235,1.235,0,0,1,.092-.36" transform="translate(-119.834 -67.135)" fill="#bf7a62"/>
            <path id="Trazado_728744" data-name="Trazado 728744" d="M445.863,299.418c.023-.4.3-14.569.3-14.569s-4.715-13.154-4.836-12.754,4.539,27.323,4.539,27.323" transform="translate(-121.519 -74.92)" fill="#bf7a62"/>
            <path id="Trazado_728745" data-name="Trazado 728745" d="M425.153,345.527l.036-1.465,13.79.277-.066,4.829-.852.039c-3.792.143-19.291.458-21.81-.355-2.809-.907,8.9-3.325,8.9-3.325" transform="translate(-114.496 -94.739)" fill="#ffa031"/>
            <g id="Grupo_1030330" data-name="Grupo 1030330" transform="translate(319.44 250.375)" opacity="0.3">
              <g id="Grupo_1030329" data-name="Grupo 1030329">
                <g id="Grupo_1030328" data-name="Grupo 1030328" clip-path="url(#clip-path-5)">
                  <path id="Trazado_728746" data-name="Trazado 728746" d="M440.823,349.37a4.756,4.756,0,0,1,1.8-2.9,4.626,4.626,0,0,1,3.227-.941l-.067,3.837Z" transform="translate(-440.822 -345.513)" fill="#fff"/>
                </g>
              </g>
            </g>
            <g id="Grupo_1030333" data-name="Grupo 1030333" transform="translate(301.278 252.172)" opacity="0.3">
              <g id="Grupo_1030332" data-name="Grupo 1030332">
                <g id="Grupo_1030331" data-name="Grupo 1030331" clip-path="url(#clip-path-6)">
                  <path id="Trazado_728747" data-name="Trazado 728747" d="M419.411,347.994s-4.109,1.107-3.612,1.788,16.173.954,23.1.468l-.017-.307-18.286-.16s-.384-1.741-1.183-1.789" transform="translate(-415.758 -347.994)" fill="#fff"/>
                </g>
              </g>
            </g>
            <path id="Trazado_728748" data-name="Trazado 728748" d="M439.112,350.529a1.264,1.264,0,0,1-.236.022l-.679.029-2.5.064c-2.109.039-5.023.055-8.241,0s-6.131-.165-8.238-.275l-2.493-.147-.678-.051a1.221,1.221,0,0,1-.236-.029,1.239,1.239,0,0,1,.237,0l.679.02,2.5.094c2.107.079,5.017.172,8.235.225s6.128.056,8.237.046l2.5-.012.679,0a1.277,1.277,0,0,1,.237.012" transform="translate(-114.496 -96.412)" fill="#263238"/>
            <path id="Trazado_728749" data-name="Trazado 728749" d="M421.944,349.931a3.626,3.626,0,0,0-1.28-2.169,2.219,2.219,0,0,1,1.28,2.169" transform="translate(-115.831 -95.756)" fill="#263238"/>
            <path id="Trazado_728750" data-name="Trazado 728750" d="M427.8,347.577c-.039.024-.229-.215-.424-.534s-.321-.6-.282-.621.229.215.424.534.321.6.282.621" transform="translate(-117.6 -95.388)" fill="#263238"/>
            <path id="Trazado_728751" data-name="Trazado 728751" d="M429.3,346.933c-.031.034-.246-.115-.478-.331s-.4-.42-.365-.453.246.114.478.331.4.42.365.453" transform="translate(-117.975 -95.312)" fill="#263238"/>
            <path id="Trazado_728752" data-name="Trazado 728752" d="M430.074,345.428a3.117,3.117,0,1,1-.717-.088,1.633,1.633,0,0,1,.717.088" transform="translate(-118.027 -95.091)" fill="#263238"/>
            <path id="Trazado_728753" data-name="Trazado 728753" d="M430.356,344.2a2.016,2.016,0,0,1-1.627.094,4.452,4.452,0,0,1,.814-.042,4.37,4.37,0,0,1,.813-.052" transform="translate(-118.052 -94.773)" fill="#263238"/>
            <path id="Trazado_728754" data-name="Trazado 728754" d="M426.478,345.873a2.528,2.528,0,0,1-.882-.021,5.139,5.139,0,0,1-.936-.223,2.564,2.564,0,0,1-.534-.23.479.479,0,0,1-.214-.278.347.347,0,0,1,.14-.35,1.618,1.618,0,0,1,1.993.508,1.583,1.583,0,0,1,.278.593.5.5,0,0,1,.019.238,2.491,2.491,0,0,0-.389-.759,1.593,1.593,0,0,0-.745-.5,1.373,1.373,0,0,0-1.053.054c-.142.1-.09.267.065.362a2.662,2.662,0,0,0,.492.221,6.113,6.113,0,0,0,.9.251c.527.1.863.11.862.137" transform="translate(-116.724 -94.889)" fill="#263238"/>
            <path id="Trazado_728755" data-name="Trazado 728755" d="M427.1,345.766a.868.868,0,0,1-.091-.615,1.447,1.447,0,0,1,.252-.64.885.885,0,0,1,.742-.437.351.351,0,0,1,.265.412.965.965,0,0,1-.157.392,2.668,2.668,0,0,1-.425.526,1.266,1.266,0,0,1-.511.349c-.015-.022.178-.155.426-.43a3.106,3.106,0,0,0,.379-.523c.124-.184.213-.517-.008-.562-.22-.025-.449.191-.588.365a1.447,1.447,0,0,0-.259.57,3.285,3.285,0,0,0-.025.594" transform="translate(-117.576 -94.742)" fill="#263238"/>
            <path id="Trazado_728756" data-name="Trazado 728756" d="M445.788,345.446c0,.032-.393-.044-1.015.019a4.3,4.3,0,0,0-3.645,2.8c-.219.585-.247.98-.278.975a.8.8,0,0,1,0-.277,3.55,3.55,0,0,1,.162-.737,4.173,4.173,0,0,1,3.746-2.883,3.524,3.524,0,0,1,.756.033.819.819,0,0,1,.269.066" transform="translate(-121.387 -95.091)" fill="#263238"/>
            <path id="Trazado_728757" data-name="Trazado 728757" d="M436.945,348.929a11.265,11.265,0,0,1-4.012-.031c.005-.049.9.022,2.006.029s2-.046,2.007,0" transform="translate(-119.21 -96.066)" fill="#263238"/>
            <path id="Trazado_728758" data-name="Trazado 728758" d="M442.03,349c.033.034-.077.188-.172.393s-.149.385-.2.382-.067-.218.045-.453.293-.355.322-.322" transform="translate(-121.603 -96.098)" fill="#263238"/>
            <path id="Trazado_728759" data-name="Trazado 728759" d="M443.412,347.286c.032.033-.059.174-.2.316s-.288.23-.32.2.059-.174.2-.315.288-.23.32-.2" transform="translate(-121.949 -95.625)" fill="#263238"/>
            <path id="Trazado_728760" data-name="Trazado 728760" d="M445.33,346.5c-.01.046-.193.041-.4.109s-.35.173-.385.141.083-.22.335-.3.461.007.446.049" transform="translate(-122.406 -95.386)" fill="#263238"/>
            <path id="Trazado_728761" data-name="Trazado 728761" d="M446.9,346.165c.016.043-.065.112-.179.154s-.22.041-.236,0,.064-.112.179-.154.22-.041.236,0" transform="translate(-122.941 -95.309)" fill="#263238"/>
            <path id="Trazado_728762" data-name="Trazado 728762" d="M469.307,346.425l-.622-1.327,12.465-5.9,2.095,4.351-.745.415c-3.33,1.82-17.06,9.016-19.677,9.412-2.919.441,6.483-6.947,6.483-6.947" transform="translate(-127.285 -93.398)" fill="#ffa031"/>
            <g id="Grupo_1030336" data-name="Grupo 1030336" transform="translate(351.245 246.512)" opacity="0.3">
              <g id="Grupo_1030335" data-name="Grupo 1030335">
                <g id="Grupo_1030334" data-name="Grupo 1030334" clip-path="url(#clip-path-7)">
                  <path id="Trazado_728763" data-name="Trazado 728763" d="M484.887,345.861a4.765,4.765,0,0,1,.322-3.4,4.626,4.626,0,0,1,2.469-2.281l1.653,3.463Z" transform="translate(-484.712 -340.183)" fill="#fff"/>
                </g>
              </g>
            </g>
            <g id="Grupo_1030339" data-name="Grupo 1030339" transform="translate(334.966 249.879)" opacity="0.3">
              <g id="Grupo_1030338" data-name="Grupo 1030338">
                <g id="Grupo_1030337" data-name="Grupo 1030337" clip-path="url(#clip-path-8)">
                  <path id="Trazado_728764" data-name="Trazado 728764" d="M464.8,351.77s-3.184,2.823-2.434,3.212,14.9-6.362,20.88-9.885l-.152-.267-16.436,8.014s-1.121-1.387-1.857-1.073" transform="translate(-462.248 -344.829)" fill="#fff"/>
                </g>
              </g>
            </g>
            <path id="Trazado_728765" data-name="Trazado 728765" d="M483.285,344.69a1.235,1.235,0,0,1-.2.125l-.594.329-2.206,1.172c-1.87.975-4.471,2.29-7.375,3.678s-5.561,2.587-7.495,3.429l-2.3.981-.629.256a1.3,1.3,0,0,1-.224.079,1.252,1.252,0,0,1,.211-.11l.617-.284,2.275-1.029c1.921-.87,4.568-2.085,7.471-3.472s5.51-2.684,7.393-3.633l2.23-1.124.609-.3a1.239,1.239,0,0,1,.217-.095" transform="translate(-127.286 -94.911)" fill="#263238"/>
            <path id="Trazado_728766" data-name="Trazado 728766" d="M467.656,355.623a3.621,3.621,0,0,0-2.113-1.37,2.218,2.218,0,0,1,2.113,1.37" transform="translate(-128.189 -97.539)" fill="#263238"/>
            <path id="Trazado_728767" data-name="Trazado 728767" d="M471.847,350.909c-.025.039-.3-.091-.617-.289s-.554-.391-.529-.43.3.09.617.289.554.391.529.43" transform="translate(-129.608 -96.424)" fill="#263238"/>
            <path id="Trazado_728768" data-name="Trazado 728768" d="M472.9,349.661c-.013.044-.271.007-.576-.083s-.541-.2-.528-.243.27-.007.575.083.542.2.529.243" transform="translate(-129.91 -96.186)" fill="#263238"/>
            <path id="Trazado_728769" data-name="Trazado 728769" d="M472.934,347.757c.02.041-.251.216-.607.391a1.615,1.615,0,0,1-.68.241c-.02-.041.251-.216.607-.391a1.617,1.617,0,0,1,.68-.241" transform="translate(-129.869 -95.754)" fill="#263238"/>
            <path id="Trazado_728770" data-name="Trazado 728770" d="M472.645,346.478c.032.03-.216.323-.622.554a1.388,1.388,0,0,1-.792.256,66,66,0,0,0,1.414-.81" transform="translate(-129.755 -95.403)" fill="#263238"/>
            <path id="Trazado_728771" data-name="Trazado 728771" d="M469.964,349.774a2.554,2.554,0,0,1-.8.375,5.128,5.128,0,0,1-.937.217,2.574,2.574,0,0,1-.581.032.476.476,0,0,1-.315-.154.346.346,0,0,1-.031-.375,1.617,1.617,0,0,1,2.009-.435,1.578,1.578,0,0,1,.513.407c.1.121.132.2.123.206a2.478,2.478,0,0,0-.686-.507,1.593,1.593,0,0,0-.891-.117,1.368,1.368,0,0,0-.918.517c-.082.154.038.279.219.3a2.582,2.582,0,0,0,.538-.022,6.106,6.106,0,0,0,.922-.178c.517-.143.821-.287.833-.262" transform="translate(-128.662 -96.169)" fill="#263238"/>
            <path id="Trazado_728772" data-name="Trazado 728772" d="M470.569,349.426a.872.872,0,0,1-.356-.509,1.449,1.449,0,0,1-.06-.686.885.885,0,0,1,.47-.722.351.351,0,0,1,.421.251.957.957,0,0,1,.034.42,2.642,2.642,0,0,1-.146.661,1.273,1.273,0,0,1-.3.54c-.023-.012.091-.219.19-.575a3.1,3.1,0,0,0,.105-.637c.029-.22-.041-.559-.257-.5-.209.076-.317.371-.363.588a1.455,1.455,0,0,0,.022.625,3.238,3.238,0,0,0,.243.543" transform="translate(-129.454 -95.684)" fill="#263238"/>
            <path id="Trazado_728773" data-name="Trazado 728773" d="M487.524,340.177c.011.029-.371.135-.9.469a4.3,4.3,0,0,0-2.012,4.136c.064.622.216.988.186,1a.793.793,0,0,1-.12-.25,3.587,3.587,0,0,1-.183-.733,4.17,4.17,0,0,1,2.067-4.251,3.6,3.6,0,0,1,.69-.308.788.788,0,0,1,.27-.06" transform="translate(-133.395 -93.668)" fill="#263238"/>
            <path id="Trazado_728774" data-name="Trazado 728774" d="M480.636,347.377a11.271,11.271,0,0,1-3.605,1.762c-.017-.046.816-.383,1.809-.869s1.771-.935,1.8-.893" transform="translate(-131.352 -95.651)" fill="#263238"/>
            <path id="Trazado_728775" data-name="Trazado 728775" d="M485.3,345.774c.045.016.015.2.022.428s.039.411-.005.429-.157-.165-.162-.425.1-.449.145-.432" transform="translate(-133.589 -95.21)" fill="#263238"/>
            <path id="Trazado_728776" data-name="Trazado 728776" d="M485.768,343.6c.043.015.025.183-.041.373s-.155.334-.2.319-.025-.182.041-.373.155-.334.2-.319" transform="translate(-133.685 -94.611)" fill="#263238"/>
            <path id="Trazado_728777" data-name="Trazado 728777" d="M487.1,342.01c.012.046-.154.123-.305.274s-.237.311-.283.3-.024-.233.166-.417.416-.2.422-.155" transform="translate(-133.958 -94.168)" fill="#263238"/>
            <path id="Trazado_728778" data-name="Trazado 728778" d="M488.338,341.062c.033.032-.007.129-.091.218s-.179.135-.212.1.007-.13.091-.218.179-.135.212-.1" transform="translate(-134.379 -93.91)" fill="#263238"/>
            <path id="Trazado_728779" data-name="Trazado 728779" d="M449.036,141.841h.007c-5.786-10-7.249-8.834-5.288-14.661l5.647-18.947L447.026,96.34a13.093,13.093,0,0,0-10.013-3.662l-11.8.812s-5.806-1.272-14.357,7.036l-5.923,5.528,7.46,14.156.372,6.417,5.38,17.562-1.434,7.743c-.624,5.894-8.549,73.461-7.474,74.528,1.122,1.115,17.638-7.153,21.638-3.775s12.052,5.448,16.6,3.994,11.355-10.5,18.229-4.4c0,0-2.248-59.946-16.665-80.438" transform="translate(-111.5 -25.512)" fill="#12263f"/>
            <path id="Trazado_728780" data-name="Trazado 728780" d="M452.943,93.812s12.289,3.273,10.474,12.048c-.892,4.316-6.783,13.318-6.783,13.318l-13.928-6.589Z" transform="translate(-121.901 -25.831)" fill="#263238"/>
            <path id="Trazado_728781" data-name="Trazado 728781" d="M421.085,167.547a11.444,11.444,0,0,1,2.078-1.47,11.859,11.859,0,0,1,6.691-1.649,9.63,9.63,0,0,1,4.605,1.37,8.88,8.88,0,0,1,3.6,4.167,6.832,6.832,0,0,1,.508,2.98,7.271,7.271,0,0,1-.909,3.016c-.995,1.9-2.557,3.487-3.592,5.43a10.818,10.818,0,0,0-.978,6.241c.128,2.08.45,4.155-.016,6.1a8.358,8.358,0,0,1-1.058,2.668,5.07,5.07,0,0,1-1.952,1.89,4.183,4.183,0,0,1-2.5.425,5.841,5.841,0,0,1-2.185-.831,17.158,17.158,0,0,1-2.993-2.6,28.028,28.028,0,0,0-2.23-1.962,13.918,13.918,0,0,0-1.549-1.057c-.37-.217-.578-.307-.571-.325a.567.567,0,0,1,.159.054,4.5,4.5,0,0,1,.448.2,11.7,11.7,0,0,1,1.6,1.007,25.783,25.783,0,0,1,2.287,1.926,17.426,17.426,0,0,0,2.986,2.527,5.6,5.6,0,0,0,2.086.77,3.882,3.882,0,0,0,2.32-.414,4.752,4.752,0,0,0,1.816-1.788,8.046,8.046,0,0,0,1-2.567c.442-1.863.123-3.895-.013-6a17.562,17.562,0,0,1,.013-3.241,8.592,8.592,0,0,1,1-3.2c1.074-2.007,2.637-3.584,3.6-5.425a6.943,6.943,0,0,0,.876-2.867,6.5,6.5,0,0,0-.471-2.828,8.593,8.593,0,0,0-3.44-4.03,9.409,9.409,0,0,0-4.457-1.37,11.935,11.935,0,0,0-6.6,1.512,17.888,17.888,0,0,0-1.6.98l-.4.277a.581.581,0,0,1-.146.085" transform="translate(-115.105 -45.27)" fill="#fafafa"/>
            <path id="Trazado_728782" data-name="Trazado 728782" d="M476.134,229.551a.763.763,0,0,1-.191.046l-.565.1c-.5.08-1.23.193-2.178.322a49.951,49.951,0,0,1-8.082.546,24.835,24.835,0,0,1-5.558-.751,18.459,18.459,0,0,1-5.883-2.616,12.864,12.864,0,0,1-4.605-5.4,11.449,11.449,0,0,1-.619-7.563,9.032,9.032,0,0,1,1.878-3.432,22.445,22.445,0,0,1,2.822-2.509,15.99,15.99,0,0,0,2.6-2.444,7.3,7.3,0,0,0,1.406-3.051,37.822,37.822,0,0,0,.349-6.362,10.8,10.8,0,0,1,4.486-8.86,10.659,10.659,0,0,1,3.109-1.595,9.53,9.53,0,0,1,2.163-.437l.574-.02a.728.728,0,0,1,.195.006,12.529,12.529,0,0,0-2.886.591,10.763,10.763,0,0,0-3.029,1.624,10.621,10.621,0,0,0-4.3,8.7,37.31,37.31,0,0,1-.321,6.425,7.646,7.646,0,0,1-1.462,3.2,16.272,16.272,0,0,1-2.652,2.51,22.243,22.243,0,0,0-2.772,2.47,8.684,8.684,0,0,0-1.8,3.287,11.112,11.112,0,0,0,.595,7.312,12.562,12.562,0,0,0,4.465,5.257,18.271,18.271,0,0,0,5.765,2.6,24.847,24.847,0,0,0,5.487.787,54.024,54.024,0,0,0,8.055-.425l2.186-.251.57-.059a.771.771,0,0,1,.2-.007" transform="translate(-123.379 -51.085)" fill="#fafafa"/>
            <path id="Trazado_728783" data-name="Trazado 728783" d="M431.834,265.163c-.007-.01.075-.079.247-.186a3.435,3.435,0,0,0,.7-.487c.257-.258.149-.746-.011-1.242a10.091,10.091,0,0,0-.793-1.633c-.662-1.191-1.435-2.617-2.393-4.135a23.284,23.284,0,0,0-3.623-4.531,13.417,13.417,0,0,0-4.874-3.031,9.609,9.609,0,0,0-4.643-.437,6.729,6.729,0,0,0-2.894,1.238c-.6.455-.885.773-.912.747-.009-.009.055-.093.188-.246a5.408,5.408,0,0,1,.634-.617,6.513,6.513,0,0,1,2.935-1.385,9.648,9.648,0,0,1,4.8.369,13.454,13.454,0,0,1,5.023,3.087,22.71,22.71,0,0,1,3.659,4.62c.95,1.542,1.7,2.986,2.333,4.194a9.706,9.706,0,0,1,.759,1.7,3.32,3.32,0,0,1,.141.764.825.825,0,0,1-.223.641,2.832,2.832,0,0,1-.772.455,1.115,1.115,0,0,1-.283.12" transform="translate(-113.621 -68.58)" fill="#fafafa"/>
            <path id="Trazado_728784" data-name="Trazado 728784" d="M458.431,151.033c.014.013-.088.168-.349.374a3.1,3.1,0,0,1-1.28.565,3.843,3.843,0,0,1-2.075-.174,4.442,4.442,0,0,1-2-1.58,6.489,6.489,0,0,1-1.06-4.4,5.215,5.215,0,0,1,.407-1.835c.061.012-.094.714-.14,1.851a6.674,6.674,0,0,0,1.1,4.161,4.262,4.262,0,0,0,1.817,1.478,3.768,3.768,0,0,0,1.9.235,4.514,4.514,0,0,0,1.673-.676" transform="translate(-124.359 -39.647)" fill="#fafafa"/>
            <path id="Trazado_728785" data-name="Trazado 728785" d="M460.168,117.254a.817.817,0,0,1-.281.064,4.425,4.425,0,0,1-.825.025,5.411,5.411,0,0,1-2.831-1.062,5.1,5.1,0,0,1-1.4-1.591,5.242,5.242,0,0,1-.651-2.347,5.49,5.49,0,0,1,.542-2.637,10.371,10.371,0,0,1,1.756-2.26,5.233,5.233,0,0,0,.788-1.13,2.229,2.229,0,0,0,.208-1.25,7.754,7.754,0,0,0-1.06-2.321,3.942,3.942,0,0,1-.479-2.392,3.872,3.872,0,0,1,.818-1.964,3.772,3.772,0,0,1,2.678-1.366,3.268,3.268,0,0,1,.826.049.747.747,0,0,1,.276.085,8.479,8.479,0,0,0-1.088.012,3.715,3.715,0,0,0-2.482,1.385,3.655,3.655,0,0,0-.241,4.028,7.794,7.794,0,0,1,1.118,2.434,2.591,2.591,0,0,1-.234,1.459,5.516,5.516,0,0,1-.843,1.218,10.3,10.3,0,0,0-1.709,2.176,5.2,5.2,0,0,0-.527,2.461,4.9,4.9,0,0,0,1.867,3.739,5.533,5.533,0,0,0,2.682,1.128c.7.08,1.089.021,1.093.057" transform="translate(-125.059 -26.714)" fill="#fafafa"/>
            <path id="Trazado_728786" data-name="Trazado 728786" d="M415.492,126.283a9.735,9.735,0,0,0,1.167.056,4.638,4.638,0,0,0,2.848-1.184,4.269,4.269,0,0,0,1.2-4.218,4.394,4.394,0,0,0-1.426-2.261,9.948,9.948,0,0,1-2.134-2.206,4.983,4.983,0,0,1-.485-3.053c.108-.991.338-1.912.493-2.789a8.449,8.449,0,0,0,.151-2.488,3.753,3.753,0,0,0-.786-1.962,4.251,4.251,0,0,0-2.65-1.543,7.957,7.957,0,0,0-1.166-.043.972.972,0,0,1,.3-.08,3.455,3.455,0,0,1,.886-.022,4.289,4.289,0,0,1,2.838,1.521,3.991,3.991,0,0,1,.889,2.089,8.548,8.548,0,0,1-.119,2.588c-.148.893-.368,1.812-.467,2.768a4.658,4.658,0,0,0,.445,2.828,9.924,9.924,0,0,0,2.058,2.122,4.725,4.725,0,0,1,1.512,2.449,4.526,4.526,0,0,1-1.357,4.5,4.639,4.639,0,0,1-3.021,1.132,3.74,3.74,0,0,1-.88-.1.958.958,0,0,1-.291-.1" transform="translate(-113.639 -28.766)" fill="#fafafa"/>
            <path id="Trazado_728787" data-name="Trazado 728787" d="M432.378,43.58A8.839,8.839,0,0,1,442.927,51.7c.087,1.39-.086,2.984.9,3.971.692.7,1.749.846,2.612,1.312a4,4,0,0,1,1.77,4.782c-.334.868-.971,1.595-1.3,2.466a6.645,6.645,0,0,0-.488,4.067c2.019,6.879-2.859,7.727-5.46,8.186-3.665.646-7.383-.519-7.763-4.357-.123-1.239-2.329-1.1-3.564-.938-1.49.193-2.591,1.42-3.678,2.456a12.5,12.5,0,0,1-6.009,3.408,7.15,7.15,0,0,1-6.481-1.755,5.059,5.059,0,0,1-.59-6.391,6.345,6.345,0,0,1-2.4-9.659c.891-1.153,2.181-2.007,2.818-3.317.538-1.108,1.115-3.637,1.536-4.794.6-1.643,2.628-4.465,4.2-5.232" transform="translate(-112.662 -11.955)" fill="#727997"/>
            <path id="Trazado_728788" data-name="Trazado 728788" d="M442.049,82.437l-13.608.193c-.233-1.57-.694-7.681-.694-7.681s-5.7-.345-6.3-5.957-.839-18.606-.839-18.606a19.613,19.613,0,0,1,19.854.619l.893.562Z" transform="translate(-115.816 -13.213)" fill="#d89377"/>
            <path id="Trazado_728789" data-name="Trazado 728789" d="M429.05,69.352a3.77,3.77,0,0,0-1.276-.147c-.205,0-.368-.034-.393-.141a1.106,1.106,0,0,1,.091-.593l.464-1.63a21.715,21.715,0,0,0,.936-4.259,21.617,21.617,0,0,0-1.362,4.142c-.149.565-.29,1.105-.43,1.639a1.3,1.3,0,0,0-.031.851.532.532,0,0,0,.379.291,1.307,1.307,0,0,0,.35.012,3.776,3.776,0,0,0,1.274-.165" transform="translate(-117.571 -17.232)" fill="#263238"/>
            <path id="Trazado_728790" data-name="Trazado 728790" d="M430.436,84.031a13.126,13.126,0,0,0,7.129-2.771s-1.351,4.207-7.005,4.228Z" transform="translate(-118.522 -22.375)" fill="#bf7a62"/>
            <path id="Trazado_728791" data-name="Trazado 728791" d="M435.132,63.58a.712.712,0,0,1-.7.7.681.681,0,0,1-.721-.657.712.712,0,0,1,.7-.705.682.682,0,0,1,.722.657" transform="translate(-119.424 -17.326)" fill="#263238"/>
            <path id="Trazado_728792" data-name="Trazado 728792" d="M436.218,62.467c-.09.091-.622-.319-1.388-.333s-1.335.359-1.417.263c-.04-.042.054-.208.3-.381a1.948,1.948,0,0,1,1.136-.325,1.877,1.877,0,0,1,1.1.38c.232.186.308.355.264.4" transform="translate(-119.34 -16.987)" fill="#263238"/>
            <path id="Trazado_728793" data-name="Trazado 728793" d="M424.306,63.548a.712.712,0,0,1-.7.7.681.681,0,0,1-.721-.657.712.712,0,0,1,.7-.705.682.682,0,0,1,.722.657" transform="translate(-116.443 -17.317)" fill="#263238"/>
            <path id="Trazado_728794" data-name="Trazado 728794" d="M425.179,62.628c-.09.091-.622-.319-1.388-.333s-1.336.359-1.417.263c-.04-.042.053-.208.3-.381a1.953,1.953,0,0,1,1.136-.325,1.877,1.877,0,0,1,1.1.38c.231.186.308.355.264.4" transform="translate(-116.3 -17.031)" fill="#263238"/>
            <path id="Trazado_728795" data-name="Trazado 728795" d="M431.567,73.922a1.491,1.491,0,0,1-.123-.57.508.508,0,0,1,.3-.463c.133-.045.291-.015.409-.091.161-.1.159-.338.248-.508a.628.628,0,0,1,.675-.273,1.333,1.333,0,0,1,.656.4,1.186,1.186,0,0,1,.4.778.922.922,0,0,1-.422.738,1.942,1.942,0,0,1-.829.288,4.44,4.44,0,0,1-.956.038.634.634,0,0,1-.267-.061.239.239,0,0,1-.134-.224" transform="translate(-118.8 -19.826)" fill="#bf7a62"/>
            <path id="Trazado_728796" data-name="Trazado 728796" d="M430.847,73.979a3.62,3.62,0,0,0,2.917-2.177" transform="translate(-118.635 -19.771)" fill="#bf7a62"/>
            <path id="Trazado_728797" data-name="Trazado 728797" d="M433.764,71.8a2.778,2.778,0,0,1-2.917,2.177,13.416,13.416,0,0,0,1.639-.846c.817-.6,1.175-1.375,1.278-1.33" transform="translate(-118.635 -19.77)" fill="#263238"/>
            <path id="Trazado_728798" data-name="Trazado 728798" d="M422.416,59.944a3.262,3.262,0,0,1,2.1-.233" transform="translate(-116.314 -16.42)" fill="#bf7a62"/>
            <path id="Trazado_728799" data-name="Trazado 728799" d="M424.51,59.571c-.057.2-.513.255-1.028.317s-.973.1-1.073-.084.314-.592.989-.666,1.172.237,1.111.433" transform="translate(-116.308 -16.281)" fill="#263238"/>
            <path id="Trazado_728800" data-name="Trazado 728800" d="M433.309,60.059a3.983,3.983,0,0,1,2.964.162" transform="translate(-119.313 -16.479)" fill="#bf7a62"/>
            <path id="Trazado_728801" data-name="Trazado 728801" d="M436.271,60.079c-.1.189-.732.043-1.487.009-.755-.049-1.4.027-1.478-.172s.578-.636,1.518-.582,1.552.571,1.446.744" transform="translate(-119.31 -16.337)" fill="#263238"/>
            <path id="Trazado_728802" data-name="Trazado 728802" d="M432.216,42.885A4.5,4.5,0,0,0,429,41.346a10.57,10.57,0,0,0-9.641,4.367c-1.242,1.781-1.867,4.266-.707,6.1a3.8,3.8,0,0,0,6.852-.955,3.172,3.172,0,1,0,6.334-.285,5.761,5.761,0,0,0,2.016,2.886,2.228,2.228,0,0,0,3.117-.593c.636.755,1.53,1.525,2.488,1.291a1.939,1.939,0,0,0,1.3-1.943,4.983,4.983,0,0,0-.823-2.353c-1.859-3.233-4.6-6.2-8.2-7.184" transform="translate(-115.107 -11.368)" fill="#727997"/>
            <path id="Trazado_728803" data-name="Trazado 728803" d="M442.947,52.841a10.121,10.121,0,0,1,.076,9.792,16.572,16.572,0,0,0-1.543,2.841,2.685,2.685,0,0,0,.66,2.962c.53.4,1.341.595,1.466,1.245a1.781,1.781,0,0,1-.2.952,6.453,6.453,0,0,0-.17,4.083,3.525,3.525,0,0,0,2.407,2.923c1.049.469,1.617,1.265,3.885.682,3.972-1.021,2.569-9.894,2.2-13.978s-2.272-11.358-4.565-14.759" transform="translate(-121.517 -13.654)" fill="#727997"/>
            <path id="Trazado_728804" data-name="Trazado 728804" d="M430.165,91.478s-4.115,15.368-1.493,13.846,15.357-11.643,15.357-11.643l-6.439-4.859Z" transform="translate(-117.796 -24.457)" fill="#d89377"/>
            <path id="Trazado_728805" data-name="Trazado 728805" d="M375.533,125.116c-.456-1.5-6.15-4.607-5.289-5.444,1.122-1.09,5.8,3.508,6.222,3.867s.941-.254.542-.558c-.574-.436-6.492-5.169-5.4-6.251.606-.6,1.559.62,1.559.62s5.222,4.846,5.72,4.317-2.466-3.487-3.537-4.41-1.067-1.8-.286-1.94c.532-.1,3.875,2.649,4.913,3.586s3.841,3.56,3.48,1.118c-.006-.038-.006-.074-.012-.112-.421-2.395.048-4.38.575-4.861a.84.84,0,0,1,1.354.67.866.866,0,0,1-.02.353c-.014.051-.02.123-.032.181a12.167,12.167,0,0,0,.159,2.486,6.541,6.541,0,0,0,.683,2.117c.4.764.779,1.407,1.109,1.938,3.809,2.115,14.764,7.7,25.75,8.571,1.983.158,10.747-13.676,10.747-13.676l13.023,6.161a126.889,126.889,0,0,1-10.381,16.373c-10.992,14.939-45.357-9.956-45.357-9.956l-.322-.159a79.824,79.824,0,0,1-7.6-4.288c-2.954-2.088-2.777-2.362-2.483-2.672.791-.834,5.333,3.473,4.878,1.968" transform="translate(-101.923 -31.625)" fill="#d89377"/>
          </g>
        </g>
        <g id="Grupo_1030343" data-name="Grupo 1030343">
          <g id="Grupo_1030342" data-name="Grupo 1030342" clip-path="url(#clip-path)">
            <path id="Trazado_728806" data-name="Trazado 728806" d="M100.345,346.56l-.069-5.946-11.139.058.009,8.7.691.041c3.074.154,15.643.57,17.694-.065,2.288-.707-7.186-2.788-7.186-2.788" transform="translate(-24.544 -93.789)" fill="#12263f"/>
            <path id="Trazado_728807" data-name="Trazado 728807" d="M88.933,352.317a.955.955,0,0,0,.191.02l.551.031,2.025.078c1.709.054,4.073.1,6.684.087s4.975-.072,6.685-.138l2.024-.093.549-.035a.941.941,0,0,0,.191-.022,1.051,1.051,0,0,0-.192-.006l-.551.009-2.025.051c-1.709.043-4.072.088-6.682.1s-4.971-.017-6.681-.046l-2.025-.036-.551-.005a1.042,1.042,0,0,0-.193.007" transform="translate(-24.488 -96.99)" fill="#263238"/>
            <path id="Trazado_728808" data-name="Trazado 728808" d="M109.634,352.009a2.946,2.946,0,0,1,1.06-1.746,1.8,1.8,0,0,0-1.06,1.746" transform="translate(-30.183 -96.445)" fill="#263238"/>
            <path id="Trazado_728809" data-name="Trazado 728809" d="M105.094,350.04c.032.02.188-.172.349-.429s.267-.48.235-.5-.188.173-.349.429-.267.482-.235.5" transform="translate(-28.936 -96.128)" fill="#263238"/>
            <path id="Trazado_728810" data-name="Trazado 728810" d="M103.847,349.5c.025.028.2-.091.391-.264s.326-.336.3-.364-.2.091-.391.264-.326.336-.3.364" transform="translate(-28.594 -96.063)" fill="#263238"/>
            <path id="Trazado_728811" data-name="Trazado 728811" d="M103.055,348.271a2.532,2.532,0,1,0,.583-.064,1.316,1.316,0,0,0-.583.064" transform="translate(-28.377 -95.88)" fill="#263238"/>
            <path id="Trazado_728812" data-name="Trazado 728812" d="M102.78,347.269a1.638,1.638,0,0,0,1.318.093,55.014,55.014,0,0,1-1.318-.093" transform="translate(-28.301 -95.619)" fill="#263238"/>
            <path id="Trazado_728813" data-name="Trazado 728813" d="M105.611,348.668a2.068,2.068,0,0,0,.716-.008,4.239,4.239,0,0,0,.761-.171,2.126,2.126,0,0,0,.436-.182.39.39,0,0,0,.176-.223.282.282,0,0,0-.11-.286,1.312,1.312,0,0,0-1.621.391,1.276,1.276,0,0,0-.231.478.391.391,0,0,0-.017.194,1.983,1.983,0,0,1,.323-.612,1.289,1.289,0,0,1,.609-.4,1.112,1.112,0,0,1,.853.054c.114.084.07.217-.056.293a2.106,2.106,0,0,1-.4.174,4.974,4.974,0,0,1-.736.195c-.428.078-.7.08-.7.1" transform="translate(-29.08 -95.729)" fill="#263238"/>
            <path id="Trazado_728814" data-name="Trazado 728814" d="M105.51,348.574a.7.7,0,0,0,.08-.5,1.175,1.175,0,0,0-.2-.522.719.719,0,0,0-.6-.362.284.284,0,0,0-.219.331.785.785,0,0,0,.123.32,2.159,2.159,0,0,0,.34.431,1.026,1.026,0,0,0,.411.288c.012-.017-.143-.128-.341-.353a2.482,2.482,0,0,1-.3-.428c-.1-.151-.167-.422.012-.456.179-.018.362.159.472.3a1.181,1.181,0,0,1,.205.464,2.632,2.632,0,0,1,.014.483" transform="translate(-28.794 -95.601)" fill="#263238"/>
            <path id="Trazado_728815" data-name="Trazado 728815" d="M89.227,348.111c0,.025.319-.032.822.025a3.489,3.489,0,0,1,2.928,2.312c.172.477.19.8.215.794a.659.659,0,0,0,0-.225,2.924,2.924,0,0,0-.125-.6,3.384,3.384,0,0,0-3.009-2.377,2.93,2.93,0,0,0-.612.019.638.638,0,0,0-.219.051" transform="translate(-24.569 -95.832)" fill="#263238"/>
            <path id="Trazado_728816" data-name="Trazado 728816" d="M90.756,341.737a38.693,38.693,0,0,0-.037,4.578,19.305,19.305,0,0,0,.086-2.288,19.518,19.518,0,0,0-.049-2.289" transform="translate(-24.966 -94.098)" fill="#263238"/>
            <path id="Trazado_728817" data-name="Trazado 728817" d="M96.651,351.037a9.166,9.166,0,0,0,3.255.016c0-.039-.731.009-1.628,0s-1.623-.058-1.628-.019" transform="translate(-26.613 -96.655)" fill="#263238"/>
            <path id="Trazado_728818" data-name="Trazado 728818" d="M93.636,351.049c-.027.028.06.154.136.32s.116.314.154.312.057-.176-.032-.367-.234-.291-.258-.264" transform="translate(-25.782 -96.661)" fill="#263238"/>
            <path id="Trazado_728819" data-name="Trazado 728819" d="M92.494,349.642c-.026.026.046.142.162.258s.231.189.257.163-.046-.142-.162-.258-.231-.189-.257-.163" transform="translate(-25.467 -96.274)" fill="#263238"/>
            <path id="Trazado_728820" data-name="Trazado 728820" d="M90.869,348.982c.008.038.156.035.32.093s.283.143.312.118-.064-.179-.269-.246-.374,0-.362.036" transform="translate(-25.021 -96.076)" fill="#263238"/>
            <path id="Trazado_728821" data-name="Trazado 728821" d="M89.71,348.7c-.013.035.051.092.143.127s.178.036.192,0-.051-.092-.143-.128-.179-.036-.192,0" transform="translate(-24.702 -96.008)" fill="#263238"/>
            <path id="Trazado_728822" data-name="Trazado 728822" d="M10.948,332.8l3.146-5.046L4.681,321.8,0,329.137l.559.407c2.507,1.787,12.87,8.91,14.939,9.483,2.308.637-4.551-6.223-4.551-6.223" transform="translate(0 -88.61)" fill="#12263f"/>
            <path id="Trazado_728823" data-name="Trazado 728823" d="M.006,331.509a1.042,1.042,0,0,0,.151.12l.446.322,1.664,1.157c1.412.967,3.38,2.276,5.584,3.675s4.229,2.621,5.705,3.486l1.755,1.012.482.267a1.145,1.145,0,0,0,.172.086.974.974,0,0,0-.159-.109l-.469-.288L13.6,340.188c-1.463-.886-3.478-2.12-5.681-3.518s-4.178-2.695-5.6-3.641L.634,331.908l-.462-.3a1.025,1.025,0,0,0-.166-.1" transform="translate(-0.002 -91.282)" fill="#263238"/>
            <path id="Trazado_728824" data-name="Trazado 728824" d="M17.272,342.591a4.524,4.524,0,0,1,.836-.614,4.565,4.565,0,0,1,1-.285,1.8,1.8,0,0,0-1.834.9" transform="translate(-4.755 -94.076)" fill="#263238"/>
            <path id="Trazado_728825" data-name="Trazado 728825" d="M14.673,338.394c.016.033.251-.044.525-.173s.483-.262.467-.295-.251.044-.525.172-.483.262-.467.3" transform="translate(-4.04 -93.047)" fill="#263238"/>
            <path id="Trazado_728826" data-name="Trazado 728826" d="M13.973,337.284c.007.037.217.032.472-.012s.456-.107.449-.144-.217-.032-.472.012-.455.107-.449.144" transform="translate(-3.847 -92.823)" fill="#263238"/>
            <path id="Trazado_728827" data-name="Trazado 728827" d="M14.084,335.705c-.02.031.182.2.451.373s.5.292.525.26-.182-.2-.451-.373-.5-.291-.525-.26" transform="translate(-3.878 -92.436)" fill="#263238"/>
            <path id="Trazado_728828" data-name="Trazado 728828" d="M14.4,334.7c-.028.022.143.281.447.507a1.128,1.128,0,0,0,.613.283c.015-.035-.245-.175-.533-.391s-.5-.423-.528-.4" transform="translate(-3.965 -92.159)" fill="#263238"/>
            <path id="Trazado_728829" data-name="Trazado 728829" d="M15.826,337.611a2.058,2.058,0,0,0,.607.379,4.156,4.156,0,0,0,.733.266,2.127,2.127,0,0,0,.464.082.389.389,0,0,0,.269-.093.281.281,0,0,0,.062-.3,1.312,1.312,0,0,0-1.577-.543,1.283,1.283,0,0,0-.453.278c-.09.088-.125.149-.119.154a2,2,0,0,1,.6-.341,1.287,1.287,0,0,1,.729-.009,1.107,1.107,0,0,1,.689.505c.051.132-.058.222-.2.217a2.1,2.1,0,0,1-.432-.07,4.937,4.937,0,0,1-.725-.232c-.4-.165-.634-.311-.646-.292" transform="translate(-4.354 -92.882)" fill="#263238"/>
            <path id="Trazado_728830" data-name="Trazado 728830" d="M15.911,337.3c0,.012.191-.085.336-.375a1.177,1.177,0,0,0,.114-.546.717.717,0,0,0-.308-.628.285.285,0,0,0-.363.162.784.784,0,0,0-.068.335,2.163,2.163,0,0,0,.054.547,1.023,1.023,0,0,0,.191.464c.02-.008-.052-.185-.1-.482a2.574,2.574,0,0,1-.023-.523c0-.18.086-.446.256-.377s.22.33.236.509a1.166,1.166,0,0,1-.078.5,2.622,2.622,0,0,1-.248.414" transform="translate(-4.301 -92.445)" fill="#263238"/>
            <path id="Trazado_728831" data-name="Trazado 728831" d="M2.521,328.124c-.012.022.286.145.679.465a3.594,3.594,0,0,1,1.121,1.586,3.593,3.593,0,0,1,.1,1.94c-.112.494-.27.774-.246.785a.632.632,0,0,0,.12-.189,2.923,2.923,0,0,0,.219-.572,3.384,3.384,0,0,0-1.254-3.624,2.927,2.927,0,0,0-.526-.314.646.646,0,0,0-.212-.075" transform="translate(-0.694 -90.35)" fill="#263238"/>
            <path id="Trazado_728832" data-name="Trazado 728832" d="M6.339,323.572a19.564,19.564,0,0,0-1.306,1.881,19.43,19.43,0,0,0-1.192,1.955,19.517,19.517,0,0,0,1.305-1.881,19.425,19.425,0,0,0,1.193-1.955" transform="translate(-1.057 -89.097)" fill="#263238"/>
            <path id="Trazado_728833" data-name="Trazado 728833" d="M7.21,334.568A6.34,6.34,0,0,0,8.5,335.575a6.288,6.288,0,0,0,1.446.761c.017-.035-.62-.386-1.372-.875s-1.336-.923-1.361-.893" transform="translate(-1.985 -92.124)" fill="#263238"/>
            <path id="Trazado_728834" data-name="Trazado 728834" d="M4.627,332.953c-.038.009-.032.162-.059.343s-.072.328-.038.346.143-.117.171-.327-.04-.372-.075-.362" transform="translate(-1.244 -91.68)" fill="#263238"/>
            <path id="Trazado_728835" data-name="Trazado 728835" d="M4.454,331.152c-.036.008-.038.144,0,.3s.093.284.129.276.038-.144,0-.3-.093-.284-.129-.276" transform="translate(-1.219 -91.184)" fill="#263238"/>
            <path id="Trazado_728836" data-name="Trazado 728836" d="M3.438,329.733c-.014.036.112.115.22.25s.16.273.2.267.042-.186-.093-.351-.316-.2-.325-.166" transform="translate(-0.946 -90.79)" fill="#263238"/>
            <path id="Trazado_728837" data-name="Trazado 728837" d="M2.619,328.86c-.03.022-.007.105.052.185s.131.126.161.1.007-.1-.052-.184-.131-.127-.161-.1" transform="translate(-0.718 -90.551)" fill="#263238"/>
            <path id="Trazado_728838" data-name="Trazado 728838" d="M54.243,175.919s9.451,62.787,8.075,65.821-45.5,51.556-45.5,51.556L.563,282.523S39.1,234,38.811,232.834s-14.605-61.965-14.605-61.965Z" transform="translate(-0.155 -47.049)" fill="#ffa031"/>
            <path id="Trazado_728839" data-name="Trazado 728839" d="M25.27,169.682l-.571,2.33a27.424,27.424,0,0,0,2.882,20.234l25.626,44.419a35.668,35.668,0,0,1,3.927,10.1L68.7,298.069H86.552c0,1.069-4.617-42.264-6.931-56.656-1.746-10.854-16.27-44.547-23.307-60.457l4.359-5.364L53.1,174.328Z" transform="translate(-6.584 -46.723)" fill="#ffa031"/>
            <path id="Trazado_728840" data-name="Trazado 728840" d="M69.388,185.072a3.33,3.33,0,0,1,.395.707c.232.465.552,1.144.936,1.99.767,1.691,1.775,4.051,2.8,6.691s1.878,5.063,2.454,6.828c.289.882.512,1.6.654,2.1a3.343,3.343,0,0,1,.186.787,3.34,3.34,0,0,1-.325-.741l-.767-2.058c-.64-1.741-1.529-4.142-2.554-6.779s-1.993-5.007-2.7-6.723q-.486-1.2-.825-2.036a3.335,3.335,0,0,1-.26-.766" transform="translate(-19.105 -50.96)" fill="#263238"/>
            <path id="Trazado_728841" data-name="Trazado 728841" d="M64.292,270.683a2.662,2.662,0,0,1-.116-.5c-.066-.367-.152-.846-.259-1.442L63.74,267.7q-.127-.571-.273-1.228c-.2-.881-.4-1.888-.72-2.98l-.467-1.72q-.282-.887-.586-1.841c-.381-1.28-.911-2.607-1.417-4.02-1.1-2.794-2.439-5.816-4-8.911a167.616,167.616,0,0,0-9.006-15.31l-2.973-4.495-.806-1.225a2.572,2.572,0,0,1-.26-.441,2.637,2.637,0,0,1,.322.4l.864,1.185c.746,1.032,1.8,2.542,3.075,4.431a148.16,148.16,0,0,1,9.12,15.286c1.569,3.106,2.9,6.144,3.991,8.957.5,1.423,1.021,2.759,1.391,4.05q.293.961.568,1.856.232.9.446,1.734c.305,1.1.49,2.116.668,3l.243,1.238q.079.571.146,1.051c.078.6.141,1.086.189,1.456a2.586,2.586,0,0,1,.041.51" transform="translate(-11.903 -62.099)" fill="#263238"/>
            <path id="Trazado_728842" data-name="Trazado 728842" d="M19.958,332.175a3.136,3.136,0,0,1-.744-.244,18.211,18.211,0,0,1-1.938-.893,44.971,44.971,0,0,1-5.894-3.832c-2.2-1.638-4.175-3.128-5.667-4.116s-2.457-1.536-2.428-1.591a3.089,3.089,0,0,1,.717.315c.453.22,1.087.581,1.854,1.051,1.54.938,3.553,2.4,5.747,4.038a58.252,58.252,0,0,0,5.8,3.9c1.554.883,2.58,1.309,2.555,1.371" transform="translate(-0.905 -88.525)" fill="#263238"/>
            <path id="Trazado_728843" data-name="Trazado 728843" d="M103.144,343.028a2.818,2.818,0,0,1-.742.042l-2.017-.014L93.734,343l-6.652.041-2.017.009a2.8,2.8,0,0,1-.742-.043,2.8,2.8,0,0,1,.736-.1c.475-.043,1.164-.087,2.015-.13,1.7-.086,4.058-.154,6.66-.152s4.957.077,6.66.167c.851.045,1.54.091,2.015.135a2.792,2.792,0,0,1,.736.1" transform="translate(-23.218 -94.342)" fill="#263238"/>
            <path id="Trazado_728844" data-name="Trazado 728844" d="M38.77,70.227a8.122,8.122,0,0,1-4.59-.693,4.316,4.316,0,0,1-2.418-3.756,14.075,14.075,0,0,0,.275-2.731A8.655,8.655,0,0,0,30.778,60.6a5.075,5.075,0,0,1,1.362-6.213c.949-.724,2.162-1.1,2.958-1.992.942-1.053,1.093-2.574,1.668-3.864a6.256,6.256,0,0,1,4.654-3.567,19.912,19.912,0,0,0,3.339-.407,11.489,11.489,0,0,0,2.47-1.471,11.425,11.425,0,0,1,8.519-1.6,6.833,6.833,0,0,1,3.453,1.7c1.034,1.028,2.372,2.144,2.744,3.553.441,1.664-.1,3.751-.545,5.412a4.446,4.446,0,0,1-3.49,3.383" transform="translate(-8.327 -11.359)" fill="#12263f"/>
            <path id="Trazado_728845" data-name="Trazado 728845" d="M41.506,85.832l13.608.193c.233-1.57.694-7.681.694-7.681s5.7-.345,6.3-5.957.839-18.606.839-18.606a19.615,19.615,0,0,0-19.854.619l-.893.563Z" transform="translate(-11.429 -14.148)" fill="#ffbe9d"/>
            <path id="Trazado_728846" data-name="Trazado 728846" d="M61.868,72.746a3.77,3.77,0,0,1,1.276-.147c.205,0,.368-.034.393-.141a1.106,1.106,0,0,0-.091-.593l-.464-1.63a21.716,21.716,0,0,1-.936-4.259,21.621,21.621,0,0,1,1.362,4.141c.149.566.29,1.106.43,1.64a1.3,1.3,0,0,1,.031.851.532.532,0,0,1-.379.291,1.337,1.337,0,0,1-.35.012,3.78,3.78,0,0,1-1.274-.165" transform="translate(-17.036 -18.167)" fill="#263238"/>
            <path id="Trazado_728847" data-name="Trazado 728847" d="M58.557,87.426a13.124,13.124,0,0,1-7.129-2.772s1.351,4.207,7.005,4.229Z" transform="translate(-14.161 -23.31)" fill="#eb996e"/>
            <path id="Trazado_728848" data-name="Trazado 728848" d="M41.175,64.455c-.112-.046-3.847-.655-3.636,3.786S42.167,71,42.168,70.872s-.993-6.417-.993-6.417" transform="translate(-10.334 -17.733)" fill="#ffbe9d"/>
            <path id="Trazado_728849" data-name="Trazado 728849" d="M41.165,69.949c-.021-.013-.075.058-.2.124a.775.775,0,0,1-.578.04,1.917,1.917,0,0,1-.967-1.675,2.546,2.546,0,0,1,.165-1.118.894.894,0,0,1,.554-.622.394.394,0,0,1,.466.191c.065.121.042.212.065.217s.093-.079.048-.26a.5.5,0,0,0-.188-.27.588.588,0,0,0-.433-.093,1.09,1.09,0,0,0-.775.727,2.636,2.636,0,0,0-.209,1.251,2.01,2.01,0,0,0,1.22,1.865.831.831,0,0,0,.7-.151c.132-.116.151-.217.136-.224" transform="translate(-10.766 -18.304)" fill="#eb996e"/>
            <path id="Trazado_728850" data-name="Trazado 728850" d="M54.895,63.951c-.061-.079.045-.29.333-.511a2.6,2.6,0,0,1,2.678-.184c.315.18.449.374.4.46-.112.184-.832-.062-1.712.012-.883.047-1.562.389-1.7.222" transform="translate(-15.111 -17.339)" fill="#263238"/>
            <path id="Trazado_728851" data-name="Trazado 728851" d="M65.77,64.208c-.039-.2.57-.486,1.367-.482s1.405.288,1.365.49-.646.264-1.367.264-1.328-.065-1.365-.272" transform="translate(-18.11 -17.547)" fill="#263238"/>
            <path id="Trazado_728852" data-name="Trazado 728852" d="M40.618,54.878l.633,4.1a3.41,3.41,0,0,0,.65,1.809,2.435,2.435,0,0,0,2.969.189,7.093,7.093,0,0,0,2.672-3.762,11.614,11.614,0,0,1,2.183-4.128,5.409,5.409,0,0,0,6.24,1.149c.905-.455,1.659-1.161,2.529-1.683a3.317,3.317,0,0,1,2.891-.464c.513.213.975.635,1.53.61a1.243,1.243,0,0,0,1-.686,2.119,2.119,0,0,0,.183-1.234A4.85,4.85,0,0,0,61.2,47.264a15,15,0,0,0-6.611-1.135,25.031,25.031,0,0,0-6.378.631,11.026,11.026,0,0,0-5.494,3.152,7.122,7.122,0,0,0-1.82,5.93" transform="translate(-11.184 -12.702)" fill="#12263f"/>
            <path id="Trazado_728853" data-name="Trazado 728853" d="M64.908,51.131a6.719,6.719,0,0,0,2.138,3.71,2.873,2.873,0,0,0,1.88.843,2.332,2.332,0,0,0,2.05-2.328,4.442,4.442,0,0,0-1.389-3.035,4.219,4.219,0,0,0-2.828-1.492,2.158,2.158,0,0,0-2.26,1.9" transform="translate(-17.76 -13.445)" fill="#12263f"/>
            <path id="Trazado_728854" data-name="Trazado 728854" d="M56.031,66.974a.712.712,0,0,0,.7.7.681.681,0,0,0,.721-.657.712.712,0,0,0-.7-.705.682.682,0,0,0-.722.657" transform="translate(-15.428 -18.26)" fill="#263238"/>
            <path id="Trazado_728855" data-name="Trazado 728855" d="M54.411,65.861c.09.092.622-.318,1.388-.332s1.335.359,1.416.263c.041-.042-.053-.209-.3-.381a1.954,1.954,0,0,0-1.136-.325,1.872,1.872,0,0,0-1.1.38c-.232.186-.308.354-.264.395" transform="translate(-14.979 -17.921)" fill="#263238"/>
            <path id="Trazado_728856" data-name="Trazado 728856" d="M66.857,66.943a.712.712,0,0,0,.7.7.681.681,0,0,0,.721-.657.712.712,0,0,0-.7-.705.682.682,0,0,0-.722.657" transform="translate(-18.409 -18.252)" fill="#263238"/>
            <path id="Trazado_728857" data-name="Trazado 728857" d="M65.449,66.023c.09.091.622-.319,1.388-.333s1.336.359,1.417.263c.04-.042-.053-.208-.3-.381a1.954,1.954,0,0,0-1.136-.325,1.877,1.877,0,0,0-1.1.38c-.231.186-.308.355-.264.4" transform="translate(-18.018 -17.966)" fill="#263238"/>
            <path id="Trazado_728858" data-name="Trazado 728858" d="M60.764,77.626c.007.046-.191.135-.533.114a1.851,1.851,0,0,1-1.7-1.783c-.006-.343.091-.537.138-.528.1,0,.024.83.647,1.483s1.457.61,1.453.714" transform="translate(-16.115 -20.77)" fill="#263238"/>
            <path id="Trazado_728859" data-name="Trazado 728859" d="M65.124,117.08,76.433,113.3s7.875,18.626,9.9,18.81c11.227,1.024,23.239-2.7,27.452-4.17.428-.48.915-1.057,1.459-1.762a6.723,6.723,0,0,0,1.057-2.017,10.266,10.266,0,0,0,.6-2.774.88.88,0,0,1,1.513-.693c.487.628.61,3.034-.5,5.623s2.814.529,4.257-.2,6.012-2.757,6.586-2.49c.842.392.578,1.366-.88,2.056-1.476.7-5.684,3.067-5.264,3.811s7.708-3.056,7.708-3.056,1.428-1.062,1.941-.22c.925,1.52-7.126,4.978-7.9,5.288-.538.215-.111,1.04.454.778.583-.27,7.188-3.949,8.146-2.409.734,1.181-6.6,2.905-7.544,4.429s5.427-1.872,6.082-.715c.244.431.367.786-3.575,2.208a83.937,83.937,0,0,1-8.785,2.244l.014.04s-40.571,18.155-47.867.635c-7.433-17.849-6.17-21.636-6.17-21.636" transform="translate(-17.91 -31.197)" fill="#eb996e"/>
            <path id="Trazado_728860" data-name="Trazado 728860" d="M67.734,114.025c-4.525-10.6-10.459-14.755-13.588-16.287a9.077,9.077,0,0,0-3.5-.9l-.376-1.821-15-1.351-.367,2.32-2.2-.12S19.76,97.159,19.737,112.14c-.011,7.007,3.773,13.825,5.108,17.165.833,6.988-2.165,19.657-2.084,22.747l36.762,2.609,1.555-22.979-.343-2.156,12.1-3.706ZM35.263,96Z" transform="translate(-5.435 -25.791)" fill="#ebebeb"/>
            <path id="Trazado_728861" data-name="Trazado 728861" d="M160.817,45.767A42.711,42.711,0,0,0,85.108,68.049h0a42.682,42.682,0,0,0,14.42,36.713L62.14,148.637l5.365,4.573,37.7-44.244a42.46,42.46,0,0,0,17.831,6.092,43.469,43.469,0,0,0,4.62.247,42.715,42.715,0,0,0,33.158-69.537m2.22,30.611a35.662,35.662,0,1,1-7.706-26.184,35.427,35.427,0,0,1,7.706,26.184" transform="translate(-17.11 -8.226)" fill="#263238"/>
            <path id="Trazado_728862" data-name="Trazado 728862" d="M156.492,41.614A42.711,42.711,0,0,0,80.784,63.9h0A42.679,42.679,0,0,0,95.2,100.61L57.364,144.844l5.735,4.588,37.784-44.619a42.463,42.463,0,0,0,17.831,6.092,43.469,43.469,0,0,0,4.62.247,42.715,42.715,0,0,0,33.158-69.537m2.22,30.611a35.661,35.661,0,1,1-7.705-26.184,35.426,35.426,0,0,1,7.705,26.184" transform="translate(-15.795 -7.083)" fill="#455a64"/>
            <path id="Trazado_728863" data-name="Trazado 728863" d="M118.6,101.781a1.756,1.756,0,0,1-.282-.314c-.17-.217-.438-.525-.741-.953a32.393,32.393,0,0,1-2.38-3.751,35.328,35.328,0,0,1-2.417-28.45,32.441,32.441,0,0,1,1.713-4.1c.227-.473.438-.822.57-1.064a1.746,1.746,0,0,1,.225-.357,1.815,1.815,0,0,1-.157.391c-.109.254-.3.612-.505,1.093a38.783,38.783,0,0,0-1.592,4.12,36.293,36.293,0,0,0,2.4,28.241,38.838,38.838,0,0,0,2.265,3.792c.284.439.532.761.683.992a1.769,1.769,0,0,1,.221.359" transform="translate(-30.527 -17.29)" fill="#263238"/>
            <path id="Trazado_728864" data-name="Trazado 728864" d="M123.374,56.068c.063.088-.372.493-.807,1.064s-.72,1.091-.82,1.053.043-.664.522-1.283,1.051-.918,1.105-.834" transform="translate(-33.515 -15.435)" fill="#263238"/>
            <path id="Trazado_728865" data-name="Trazado 728865" d="M72.148,110.713a5.4,5.4,0,0,1,.262,1c.146.649.337,1.591.556,2.76.438,2.337.967,5.581,1.412,9.182s.721,6.878.864,9.251c.072,1.187.117,2.148.133,2.812a5.538,5.538,0,0,1-.011,1.035,5.415,5.415,0,0,1-.135-1.025l-.252-2.8c-.211-2.365-.529-5.63-.972-9.225s-.93-6.838-1.3-9.183c-.176-1.118-.322-2.051-.437-2.778a5.489,5.489,0,0,1-.118-1.028" transform="translate(-19.864 -30.485)" fill="#263238"/>
            <path id="Trazado_728866" data-name="Trazado 728866" d="M79.19,150.434s-40.556,18.2-47.852.675c-7.433-17.85-6.17-21.636-6.17-21.636l11.309-3.781s7.875,18.626,9.9,18.81c11.227,1.025,23.239-2.7,27.452-4.17.428-.48.915-1.057,1.459-1.762.466-.606.951-1.478,1.429-2.076a15.012,15.012,0,0,1,2.387-2.095c1.12-1.266,2.144-.341,1.656.341a12.205,12.205,0,0,0-2.8,3.967c-1.108,2.588,2.84,1.317,4.4.906,1.727-.455,4.969-1.715,4.969-1.715a3.8,3.8,0,0,1-2.242,2.98,23.154,23.154,0,0,1-2.43,1.011s3-.364,3.078.319-.888,5.737-4.077,7.238Z" transform="translate(-6.908 -34.61)" fill="#ffbe9d"/>
            <path id="Trazado_728867" data-name="Trazado 728867" d="M32.691,103.286l7.285,22.01-15.945,6.3s-8.318-21.613,2.217-26.9Z" transform="translate(-5.758 -28.44)" fill="#ebebeb"/>
            <path id="Trazado_728868" data-name="Trazado 728868" d="M43.887,123.205c-.008.007-.089-.057-.216-.205a4.087,4.087,0,0,1-.478-.708,24.289,24.289,0,0,1-1.151-2.9c-.893-2.467-2.1-5.882-3.415-9.662L36.79,104.4a13.263,13.263,0,0,0-1.838-4.138,3.364,3.364,0,0,0-2.606-1.295,3.3,3.3,0,0,0-1.08.259c-.006-.009.072-.077.245-.172a2.143,2.143,0,0,1,.828-.233,3.448,3.448,0,0,1,2.817,1.269,12.946,12.946,0,0,1,1.965,4.2c.575,1.644,1.2,3.44,1.865,5.325,1.313,3.78,2.483,7.21,3.311,9.7.422,1.243.714,2.265,1.029,2.917s.59.958.563.98" transform="translate(-8.609 -27.208)" fill="#263238"/>
            <path id="Trazado_728869" data-name="Trazado 728869" d="M41.868,133.04a2.608,2.608,0,0,1-.6.378c-.4.223-.986.528-1.717.891-1.464.726-3.516,1.669-5.828,2.6s-4.446,1.678-6,2.17c-.779.246-1.413.433-1.855.55a2.592,2.592,0,0,1-.7.146,21.076,21.076,0,0,1,2.466-.949c1.533-.556,3.643-1.338,5.949-2.267s4.367-1.832,5.856-2.495a21.29,21.29,0,0,1,2.435-1.028" transform="translate(-6.928 -36.632)" fill="#263238"/>
            <path id="Trazado_728870" data-name="Trazado 728870" d="M28.327,139.992a4.263,4.263,0,0,1-.821-1.567,4.268,4.268,0,0,1-.47-1.707,4.256,4.256,0,0,1,.821,1.567,4.268,4.268,0,0,1,.47,1.707" transform="translate(-7.438 -37.645)" fill="#263238"/>
            <path id="Trazado_728871" data-name="Trazado 728871" d="M33.024,138.25c-.088.049-.53-.588-.848-1.48a3.066,3.066,0,0,1-.285-1.681,5.461,5.461,0,0,1,.64,1.554,5.486,5.486,0,0,1,.493,1.607" transform="translate(-8.769 -37.197)" fill="#263238"/>
            <path id="Trazado_728872" data-name="Trazado 728872" d="M37.87,136.1a4.894,4.894,0,0,1-1.211-3.262,6.336,6.336,0,0,1,.659,1.611,6.343,6.343,0,0,1,.551,1.651" transform="translate(-10.082 -36.577)" fill="#263238"/>
            <path id="Trazado_728873" data-name="Trazado 728873" d="M43.134,133.913a8.856,8.856,0,0,1-1.086-3.471,8.855,8.855,0,0,1,1.086,3.471" transform="translate(-11.57 -35.917)" fill="#263238"/>
            <path id="Trazado_728874" data-name="Trazado 728874" d="M88.706,137.7a56.245,56.245,0,0,1-6.139,2.153,56.114,56.114,0,0,1-6.254,1.794,56.086,56.086,0,0,1,6.139-2.154,56.151,56.151,0,0,1,6.254-1.794" transform="translate(-21.013 -37.915)" fill="#263238"/>
            <path id="Trazado_728875" data-name="Trazado 728875" d="M79.591,140.276c-.1.041-.414-.491-.712-1.189s-.46-1.3-.364-1.337.414.492.712,1.189.46,1.3.364,1.337" transform="translate(-21.612 -37.929)" fill="#263238"/>
            <path id="Trazado_728876" data-name="Trazado 728876" d="M83.981,139.117c-.095.038-.438-.592-.67-1.439a2.861,2.861,0,0,1-.157-1.58c.105-.016.294.657.521,1.48a4.255,4.255,0,0,1,.306,1.539" transform="translate(-22.881 -37.475)" fill="#263238"/>
            <path id="Trazado_728877" data-name="Trazado 728877" d="M88.685,137.607a6.711,6.711,0,0,1-.632-3.1,6.711,6.711,0,0,1,.632,3.1" transform="translate(-24.232 -37.038)" fill="#263238"/>
            <path id="Trazado_728878" data-name="Trazado 728878" d="M43.16,95.917c-.1-.007-.16-.409-.126-.9s.147-.878.251-.871.16.409.125.9-.147.878-.251.871" transform="translate(-11.847 -25.924)" fill="#263238"/>
            <path id="Trazado_728879" data-name="Trazado 728879" d="M47.686,96.181c-.1,0-.2-.388-.224-.877s.049-.888.153-.892.2.388.224.877-.049.888-.153.892" transform="translate(-13.068 -25.997)" fill="#263238"/>
            <path id="Trazado_728880" data-name="Trazado 728880" d="M51.228,96.767c-.1,0-.186-.412-.181-.917s.091-.915.2-.915.186.412.181.917-.091.915-.2.915" transform="translate(-14.056 -26.141)" fill="#263238"/>
            <path id="Trazado_728881" data-name="Trazado 728881" d="M55.935,97.17c-.1.027-.305-.444-.322-1.065s.158-1.1.257-1.083.1.5.12,1.071.049,1.051-.055,1.077" transform="translate(-15.313 -26.164)" fill="#263238"/>
            <path id="Trazado_728882" data-name="Trazado 728882" d="M59.844,97.17c-.1.012-.245-.459-.316-1.051s-.044-1.083.059-1.1.245.459.316,1.051.045,1.084-.059,1.1" transform="translate(-16.38 -26.165)" fill="#263238"/>
          </g>
        </g>
      </g>
    </g>
  </g>
</svg>
