<svg id="Grupo_1031684" data-name="Grupo 1031684" xmlns="http://www.w3.org/2000/svg" xmlns:xlink="http://www.w3.org/1999/xlink" width="343.83" height="232.166" viewBox="0 0 343.83 232.166">
  <defs>
    <clipPath id="clip-path">
      <rect id="Rectángulo_351546" data-name="Rectángulo 351546" width="343.83" height="232.166" fill="none"/>
    </clipPath>
    <clipPath id="clip-path-3">
      <rect id="Rectángulo_351521" data-name="Rectángulo 351521" width="16.295" height="33.63" fill="none"/>
    </clipPath>
  </defs>
  <g id="Grupo_1031683" data-name="Grupo 1031683" clip-path="url(#clip-path)">
    <g id="Grupo_1031682" data-name="Grupo 1031682" transform="translate(0 0)">
      <g id="Grupo_1031681" data-name="Grupo 1031681" clip-path="url(#clip-path)">
        <path id="Trazado_731475" data-name="Trazado 731475" d="M343.828,1164.821c.215-12.587-19.8-14.437-32.484-13.431a535.108,535.108,0,0,1-130.3-5.987c-32.024-5.35-89.848-7.713-130.8-.351C13.79,1151.6.384,1169.909.009,1179.938c-.872,23.317,62.021,34.954,82.176,32.208,27.816-3.79,21.49-17.922,77.486-13.6,43.538,3.36,36.754-13.71,59.851-15.112,27.422-1.664,39.529,7.542,67,7.149,36.054-.515,57.026-9.287,57.307-25.761" transform="translate(0 -980.375)" fill="#d7dce1"/>
        <path id="Trazado_731476" data-name="Trazado 731476" d="M846.219,1305.678H738.8l.737,1.876H846.219Z" transform="translate(-635.128 -1122.454)" fill="#32526e"/>
        <path id="Trazado_731477" data-name="Trazado 731477" d="M1723.152,602.773l-5.142,11.583L1702.2,604.017Z" transform="translate(-1463.334 -518.187)" fill="#f39c11"/>
        <rect id="Rectángulo_351519" data-name="Rectángulo 351519" width="66.469" height="14.767" transform="translate(66.836 165.747)" fill="#263e53"/>
        <path id="Trazado_731478" data-name="Trazado 731478" d="M578.745,1242.657a14.271,14.271,0,1,1-14.271-14.271,14.271,14.271,0,0,1,14.271,14.271" transform="translate(-472.993 -1056.008)" fill="#263e53"/>
        <path id="Trazado_731479" data-name="Trazado 731479" d="M645.689,1182.388h-2.424l.146-.986a.316.316,0,0,1,.313-.27h1.507a.316.316,0,0,1,.313.27Z" transform="translate(-552.996 -1015.385)" fill="#131f2a"/>
        <path id="Trazado_731480" data-name="Trazado 731480" d="M621.3,1183.589l-2.387.421-.027-1a.316.316,0,0,1,.261-.32l1.484-.262a.316.316,0,0,1,.355.211Z" transform="translate(-532.04 -1016.499)" fill="#131f2a"/>
        <path id="Trazado_731481" data-name="Trazado 731481" d="M596.913,1189.184l-2.278.829-.2-.976a.316.316,0,0,1,.2-.361l1.416-.515a.316.316,0,0,1,.386.147Z" transform="translate(-511.013 -1021.411)" fill="#131f2a"/>
        <path id="Trazado_731482" data-name="Trazado 731482" d="M574.137,1199l-2.1,1.212-.367-.927a.316.316,0,0,1,.136-.39l1.3-.753a.316.316,0,0,1,.406.078Z" transform="translate(-491.43 -1029.973)" fill="#131f2a"/>
        <path id="Trazado_731483" data-name="Trazado 731483" d="M553.664,1212.744l-1.857,1.558-.522-.849a.316.316,0,0,1,.066-.408l1.154-.968a.316.316,0,0,1,.413.006Z" transform="translate(-473.884 -1041.924)" fill="#131f2a"/>
        <path id="Trazado_731484" data-name="Trazado 731484" d="M536.117,1229.991l-1.558,1.857-.662-.745a.316.316,0,0,1-.006-.413l.969-1.154a.316.316,0,0,1,.408-.066Z" transform="translate(-458.908 -1056.899)" fill="#131f2a"/>
        <path id="Trazado_731485" data-name="Trazado 731485" d="M522.03,1250.221l-1.212,2.1-.781-.619a.316.316,0,0,1-.077-.406l.753-1.3a.316.316,0,0,1,.39-.136Z" transform="translate(-446.958 -1074.444)" fill="#131f2a"/>
        <path id="Trazado_731486" data-name="Trazado 731486" d="M511.83,1272.819,511,1275.1l-.876-.474a.316.316,0,0,1-.147-.386l.515-1.416a.316.316,0,0,1,.361-.2Z" transform="translate(-438.397 -1094.028)" fill="#131f2a"/>
        <path id="Trazado_731487" data-name="Trazado 731487" d="M505.826,1297.1l-.421,2.387-.946-.315a.316.316,0,0,1-.211-.355l.262-1.484a.316.316,0,0,1,.32-.261Z" transform="translate(-433.483 -1115.055)" fill="#131f2a"/>
        <path id="Trazado_731488" data-name="Trazado 731488" d="M504.2,1321.449v2.424l-.986-.146a.316.316,0,0,1-.27-.313v-1.507a.316.316,0,0,1,.27-.313Z" transform="translate(-432.37 -1136.011)" fill="#131f2a"/>
        <path id="Trazado_731489" data-name="Trazado 731489" d="M505.405,1345.892l.421,2.387-1,.027a.316.316,0,0,1-.32-.261l-.262-1.484a.316.316,0,0,1,.211-.355Z" transform="translate(-433.484 -1157.024)" fill="#131f2a"/>
        <path id="Trazado_731490" data-name="Trazado 731490" d="M511,1369.855l.829,2.278-.976.2a.316.316,0,0,1-.361-.2l-.515-1.416a.316.316,0,0,1,.147-.386Z" transform="translate(-438.396 -1177.625)" fill="#131f2a"/>
        <path id="Trazado_731491" data-name="Trazado 731491" d="M520.818,1392.609l1.212,2.1-.927.367a.316.316,0,0,1-.39-.136l-.753-1.3a.316.316,0,0,1,.077-.406Z" transform="translate(-446.958 -1197.186)" fill="#131f2a"/>
        <path id="Trazado_731492" data-name="Trazado 731492" d="M534.56,1413.464l1.558,1.857-.849.522a.316.316,0,0,1-.408-.066l-.968-1.154a.316.316,0,0,1,.006-.413Z" transform="translate(-458.908 -1215.114)" fill="#131f2a"/>
        <path id="Trazado_731493" data-name="Trazado 731493" d="M551.807,1431.785l1.857,1.558-.745.661a.316.316,0,0,1-.413.006l-1.154-.969a.316.316,0,0,1-.066-.408Z" transform="translate(-473.884 -1230.864)" fill="#131f2a"/>
        <path id="Trazado_731494" data-name="Trazado 731494" d="M572.038,1447.016l2.1,1.212-.619.781a.316.316,0,0,1-.406.078l-1.3-.753a.316.316,0,0,1-.136-.39Z" transform="translate(-491.43 -1243.958)" fill="#131f2a"/>
        <path id="Trazado_731495" data-name="Trazado 731495" d="M594.635,1458.694l2.278.829-.474.876a.316.316,0,0,1-.386.147l-1.416-.515a.316.316,0,0,1-.2-.361Z" transform="translate(-511.013 -1253.997)" fill="#131f2a"/>
        <path id="Trazado_731496" data-name="Trazado 731496" d="M618.915,1466.464l2.387.421-.315.946a.316.316,0,0,1-.355.211l-1.484-.262a.316.316,0,0,1-.261-.32Z" transform="translate(-532.039 -1260.677)" fill="#131f2a"/>
        <path id="Trazado_731497" data-name="Trazado 731497" d="M643.265,1470.091h2.424l-.146.986a.316.316,0,0,1-.313.27h-1.507a.316.316,0,0,1-.313-.27Z" transform="translate(-552.996 -1263.795)" fill="#131f2a"/>
        <path id="Trazado_731498" data-name="Trazado 731498" d="M667.708,1466.886l2.387-.421.028,1a.316.316,0,0,1-.261.32l-1.484.262a.316.316,0,0,1-.355-.211Z" transform="translate(-574.009 -1260.677)" fill="#131f2a"/>
        <path id="Trazado_731499" data-name="Trazado 731499" d="M691.671,1459.523l2.278-.829.2.976a.316.316,0,0,1-.2.361l-1.416.515a.316.316,0,0,1-.386-.147Z" transform="translate(-594.609 -1253.997)" fill="#131f2a"/>
        <path id="Trazado_731500" data-name="Trazado 731500" d="M714.425,1448.228l2.1-1.212.367.927a.316.316,0,0,1-.136.39l-1.3.753a.316.316,0,0,1-.406-.077Z" transform="translate(-614.17 -1243.958)" fill="#131f2a"/>
        <path id="Trazado_731501" data-name="Trazado 731501" d="M735.28,1433.343l1.857-1.558.522.849a.316.316,0,0,1-.066.408l-1.154.968a.316.316,0,0,1-.413-.006Z" transform="translate(-632.099 -1230.864)" fill="#131f2a"/>
        <path id="Trazado_731502" data-name="Trazado 731502" d="M753.6,1415.321l1.558-1.857.661.745a.316.316,0,0,1,.006.413l-.969,1.154a.316.316,0,0,1-.408.066Z" transform="translate(-647.849 -1215.114)" fill="#131f2a"/>
        <path id="Trazado_731503" data-name="Trazado 731503" d="M768.832,1394.708l1.212-2.1.781.619a.316.316,0,0,1,.077.406l-.753,1.3a.316.316,0,0,1-.39.136Z" transform="translate(-660.943 -1197.186)" fill="#131f2a"/>
        <path id="Trazado_731504" data-name="Trazado 731504" d="M780.51,1372.133l.829-2.278.877.474a.316.316,0,0,1,.147.386l-.515,1.416a.316.316,0,0,1-.361.2Z" transform="translate(-670.982 -1177.625)" fill="#131f2a"/>
        <path id="Trazado_731505" data-name="Trazado 731505" d="M788.281,1348.279l.421-2.387.946.315a.316.316,0,0,1,.211.355l-.262,1.484a.316.316,0,0,1-.32.261Z" transform="translate(-677.662 -1157.024)" fill="#131f2a"/>
        <path id="Trazado_731506" data-name="Trazado 731506" d="M791.907,1323.873v-2.424l.986.146a.316.316,0,0,1,.27.313v1.507a.316.316,0,0,1-.27.313Z" transform="translate(-680.779 -1136.011)" fill="#131f2a"/>
        <path id="Trazado_731507" data-name="Trazado 731507" d="M788.7,1299.486l-.421-2.387,1-.027a.316.316,0,0,1,.32.261l.262,1.484a.316.316,0,0,1-.211.355Z" transform="translate(-677.662 -1115.055)" fill="#131f2a"/>
        <path id="Trazado_731508" data-name="Trazado 731508" d="M781.339,1275.1l-.829-2.277.976-.2a.316.316,0,0,1,.361.2l.515,1.416a.316.316,0,0,1-.147.386Z" transform="translate(-670.982 -1094.029)" fill="#131f2a"/>
        <path id="Trazado_731509" data-name="Trazado 731509" d="M770.044,1252.321l-1.212-2.1.927-.367a.316.316,0,0,1,.39.136l.753,1.3a.316.316,0,0,1-.077.406Z" transform="translate(-660.943 -1074.445)" fill="#131f2a"/>
        <path id="Trazado_731510" data-name="Trazado 731510" d="M755.159,1231.848l-1.558-1.857.849-.522a.316.316,0,0,1,.408.066l.968,1.154a.316.316,0,0,1-.006.413Z" transform="translate(-647.849 -1056.899)" fill="#131f2a"/>
        <path id="Trazado_731511" data-name="Trazado 731511" d="M737.137,1214.3l-1.857-1.558.745-.661a.316.316,0,0,1,.413-.006l1.154.969a.316.316,0,0,1,.066.408Z" transform="translate(-632.099 -1041.923)" fill="#131f2a"/>
        <path id="Trazado_731512" data-name="Trazado 731512" d="M716.524,1200.214l-2.1-1.212.619-.781a.316.316,0,0,1,.406-.078l1.3.753a.316.316,0,0,1,.136.39Z" transform="translate(-614.17 -1029.973)" fill="#131f2a"/>
        <path id="Trazado_731513" data-name="Trazado 731513" d="M693.949,1190.014l-2.278-.829.474-.876a.316.316,0,0,1,.386-.147l1.416.515a.316.316,0,0,1,.2.36Z" transform="translate(-594.609 -1021.412)" fill="#131f2a"/>
        <path id="Trazado_731514" data-name="Trazado 731514" d="M670.095,1184.01l-2.387-.421.315-.946a.316.316,0,0,1,.355-.211l1.484.262a.316.316,0,0,1,.261.32Z" transform="translate(-574.009 -1016.499)" fill="#131f2a"/>
        <path id="Trazado_731515" data-name="Trazado 731515" d="M525.586,1184.344a20.452,20.452,0,1,0,20.619,20.452,20.536,20.536,0,0,0-20.619-20.452m0,35.2A14.744,14.744,0,1,1,540.45,1204.8a14.8,14.8,0,0,1-14.864,14.743" transform="translate(-434.105 -1018.146)" fill="#131f2a"/>
        <path id="Trazado_731516" data-name="Trazado 731516" d="M525.586,1184.344a20.452,20.452,0,1,0,20.619,20.452,20.536,20.536,0,0,0-20.619-20.452m0,35.2A14.744,14.744,0,1,1,540.45,1204.8a14.8,14.8,0,0,1-14.864,14.743" transform="translate(-434.105 -1018.146)" fill="#131f2a"/>
        <path id="Trazado_731517" data-name="Trazado 731517" d="M564.835,1246.2l4.325,8.331-1.48,1.076-6.535-6.636a2.453,2.453,0,0,0-1.8-.741l-.142,0h-.052a2.454,2.454,0,0,0-1.771.728l-6.572,6.674-1.48-1.076,4.281-8.246a2.421,2.421,0,0,0,.143-1.918c-.028-.079-.054-.158-.078-.238a2.451,2.451,0,0,0-1.257-1.472l-8.328-4.163.565-1.74,9.294,1.545a2.453,2.453,0,0,0,1.845-.441l.065-.047a2.46,2.46,0,0,0,1.02-1.641l1.2-7.987h2.241l1.2,7.987a2.475,2.475,0,0,0,1.028,1.647l.024.017a2.461,2.461,0,0,0,1.837.434l9.367-1.557.565,1.74-8.365,4.182a2.437,2.437,0,0,0-1.246,1.479q-.025.085-.053.168a2.437,2.437,0,0,0,.15,1.894" transform="translate(-467.738 -1055.858)" fill="#f2f2f2"/>
        <path id="Trazado_731518" data-name="Trazado 731518" d="M555.16,1218.465a15.664,15.664,0,1,0,15.792,15.663,15.728,15.728,0,0,0-15.792-15.663m0,28.933a13.27,13.27,0,1,1,13.378-13.27,13.325,13.325,0,0,1-13.378,13.27" transform="translate(-463.679 -1047.479)" fill="#f2f2f2"/>
        <path id="Trazado_731519" data-name="Trazado 731519" d="M648.664,1418.616v1.1c0,.136-.283.245-.631.245s-.631-.11-.631-.245v-1.1c0-.135.283-.245.631-.245s.631.11.631.245" transform="translate(-556.552 -1219.332)" fill="#131f2a"/>
        <path id="Trazado_731520" data-name="Trazado 731520" d="M639.469,1315.349a2.425,2.425,0,1,1-2.425-2.406,2.415,2.415,0,0,1,2.425,2.406" transform="translate(-545.564 -1128.699)" fill="#b3b3b3"/>
        <path id="Trazado_731521" data-name="Trazado 731521" d="M616.927,1311.909l1.142.593.057,1.286-1.085.693-1.142-.593-.058-1.285Z" transform="translate(-529.422 -1127.81)" fill="#b3b3b3"/>
        <path id="Trazado_731522" data-name="Trazado 731522" d="M627.266,1344.658l.923.9-.315,1.248-1.238.351-.923-.9.315-1.248Z" transform="translate(-537.907 -1155.963)" fill="#b3b3b3"/>
        <path id="Trazado_731523" data-name="Trazado 731523" d="M661.913,1345.111l.383,1.229-.872.946-1.255-.283-.383-1.228.872-.946Z" transform="translate(-567.198 -1156.11)" fill="#b3b3b3"/>
        <path id="Trazado_731524" data-name="Trazado 731524" d="M644.316,1292.521l.778,1.025-.5,1.187-1.277.162-.778-1.025.5-1.187Z" transform="translate(-552.374 -1111.143)" fill="#b3b3b3"/>
        <path id="Trazado_731525" data-name="Trazado 731525" d="M670.744,1312.578l1.251-.3.885.934-.366,1.234-1.251.3-.885-.934Z" transform="translate(-576.304 -1128.128)" fill="#b3b3b3"/>
        <path id="Trazado_731526" data-name="Trazado 731526" d="M553.7,1206.889a18.8,18.8,0,1,0,.655,14.372,18.677,18.677,0,0,0-.655-14.372m-32.642,15.3a17.252,17.252,0,1,1,22.943,8.3,17.271,17.271,0,0,1-22.943-8.3" transform="translate(-445.202 -1028.217)" fill="#263e53"/>
        <path id="Trazado_731527" data-name="Trazado 731527" d="M307.093,369.418V499.693H214.58l-5.069-12.906H167.706l-3.741,9.527H112.983v-126.9a2.068,2.068,0,0,1,2.068-2.068H305.025a2.068,2.068,0,0,1,2.068,2.068" transform="translate(-97.128 -315.8)" fill="#ffa031"/>
        <rect id="Rectángulo_351520" data-name="Rectángulo 351520" width="50.314" height="29.088" transform="translate(260.745 157.562)" fill="#263e53"/>
        <path id="Trazado_731528" data-name="Trazado 731528" d="M1631.452,692.08l-29.065,2.3-20.84-2.3-15.371,7.306-6.158,18.473h-47.744v-96.73h30.65A47.745,47.745,0,0,1,1565.5,634.81l16.049,17.384v4.733l32.475,11.882a26.6,26.6,0,0,1,17.313,22.18Z" transform="translate(-1300.059 -533.967)" fill="#ffa031"/>
        <path id="Trazado_731529" data-name="Trazado 731529" d="M1624.043,695.525c-1.252-.038-2.773-.09-4.528-.154a50.87,50.87,0,0,1-14.16-2.721l-.152-.052a43.789,43.789,0,0,0-14.312-2.4h-10.244a4.992,4.992,0,0,1-4.987-4.986V659.839a4.878,4.878,0,0,1,1.249-3.681,5.024,5.024,0,0,1,3.656-1.631c.737-.011,1.483-.017,2.219-.017,6.456,0,15.446.443,21.611,2.552,5.947,2.035,13.037,9.1,17.937,14.672l.031.036c2.024,2.31,4.317,6.621,4.652,9.839l.006.058V692.63a2.9,2.9,0,0,1-2.894,2.9h-.085" transform="translate(-1354.536 -562.663)" fill="#32526e"/>
        <path id="Trazado_731530" data-name="Trazado 731530" d="M1628.43,679.429l-.031-.035c-4.81-5.467-11.742-12.4-17.455-14.35-6.019-2.059-14.876-2.492-21.246-2.492-.728,0-1.468.006-2.2.017a3.885,3.885,0,0,0-2.835,1.258,3.761,3.761,0,0,0-.959,2.879v25.419a3.858,3.858,0,0,0,3.858,3.858h10.244a44.913,44.913,0,0,1,14.681,2.461l.151.052a49.738,49.738,0,0,0,13.833,2.66c1.778.065,3.3.117,4.516.154h.056a1.768,1.768,0,0,0,1.765-1.768v-10.9c-.307-2.957-2.5-7.07-4.377-9.211" transform="translate(-1361.451 -569.577)" fill="#b0c0d2"/>
        <g id="Grupo_1031680" data-name="Grupo 1031680" transform="translate(224.305 92.975)" opacity="0.55">
          <g id="Grupo_1031679" data-name="Grupo 1031679">
            <g id="Grupo_1031678" data-name="Grupo 1031678" clip-path="url(#clip-path-3)">
              <path id="Trazado_731531" data-name="Trazado 731531" d="M1614.718,696.183q-2.11-.2-4.245-.2h-4.355L1598.424,663a3.981,3.981,0,0,1,1.742-.425c.732-.013,1.474-.018,2.2-.018,1.407,0,2.934.021,4.526.075Z" transform="translate(-1598.424 -662.553)" fill="#fff"/>
            </g>
          </g>
        </g>
        <path id="Trazado_731532" data-name="Trazado 731532" d="M1703.232,995.158" transform="translate(-1392.675 -850.808)" fill="#f39c11"/>
        <path id="Trazado_731533" data-name="Trazado 731533" d="M2253.506,1006.929l-1.482.117-4.056-1.22s-16.175-16.588-11.119-18.29c2.459-.827,6.115,1.61,9.222,4.33a21.617,21.617,0,0,1,7.308,13.866c0,.035.008.069.011.1Z" transform="translate(-1922.113 -848.816)" fill="#e8f3f8"/>
        <path id="Trazado_731534" data-name="Trazado 731534" d="M1542.648,464.051h-46.419V438.41h19.863a16.308,16.308,0,0,1,10.519,3.846l18.345,15.485a3.577,3.577,0,0,1-2.307,6.31" transform="translate(-1286.265 -376.888)" fill="#ffa031"/>
        <path id="Trazado_731535" data-name="Trazado 731535" d="M1532.093,467.522h-35.867V442.447c.079,3.6,1.739,21.92,27.366,21.92,7.378,0,9.462,1.271,8.5,3.155" transform="translate(-1286.262 -380.359)" fill="#f39c11"/>
        <path id="Trazado_731536" data-name="Trazado 731536" d="M1546.227,585.993a3.577,3.577,0,0,1-3.576,3.576h-46.419v-3.154h46.419a3.582,3.582,0,0,0,3.209-2,3.567,3.567,0,0,1,.367,1.576" transform="translate(-1286.267 -502.406)" fill="#f39c11"/>
        <path id="Trazado_731537" data-name="Trazado 731537" d="M2083.941,1003.58h-7.391a.716.716,0,0,1-.716-.716v-.751a.716.716,0,0,1,.716-.716h7.391a.716.716,0,0,1,.716.716v.751a.716.716,0,0,1-.716.716" transform="translate(-1784.534 -860.872)" fill="#fff"/>
        <path id="Trazado_731538" data-name="Trazado 731538" d="M1543.189,1272.507h-5.311a.716.716,0,0,1-.716-.716v-.75a.716.716,0,0,1,.716-.716h5.311a.716.716,0,0,1,.716.716v.75a.716.716,0,0,1-.716.716" transform="translate(-1321.453 -1092.061)" fill="#f39c11"/>
        <path id="Trazado_731539" data-name="Trazado 731539" d="M140.213,1245.326H134.9a.716.716,0,0,1-.716-.716v-.75a.716.716,0,0,1,.716-.716h5.311a.716.716,0,0,1,.716.716v.75a.716.716,0,0,1-.716.716" transform="translate(-115.356 -1068.694)" fill="#f39c11"/>
        <path id="Trazado_731540" data-name="Trazado 731540" d="M1559.519,986.325h-8.269a.662.662,0,0,1-.662-.662v-7.59a.662.662,0,0,1,.662-.662h8.269a2.925,2.925,0,0,1,2.925,2.925V983.4a2.925,2.925,0,0,1-2.925,2.925" transform="translate(-1332.996 -840.251)" fill="#32526e"/>
        <path id="Trazado_731541" data-name="Trazado 731541" d="M1565.669,995.158h-.68a.648.648,0,0,1-.648-.648v-4.172a.648.648,0,0,1,.648-.648h.68a.648.648,0,0,1,.648.648v4.172a.648.648,0,0,1-.648.648" transform="translate(-1344.819 -850.808)" fill="#263e53"/>
        <path id="Trazado_731542" data-name="Trazado 731542" d="M1581.512,1049.359a1.218,1.218,0,1,1-1.218-1.218,1.218,1.218,0,0,1,1.218,1.218" transform="translate(-1357.487 -901.056)" fill="#263e53"/>
        <path id="Trazado_731543" data-name="Trazado 731543" d="M1555.929,1130.143h-7.306v-7.34h3.237a4.07,4.07,0,0,1,4.069,4.07Z" transform="translate(-1331.306 -965.241)" fill="#32526e"/>
        <path id="Trazado_731544" data-name="Trazado 731544" d="M1562.359,1135.543a1.936,1.936,0,1,1-1.936-1.936,1.936,1.936,0,0,1,1.936,1.936" transform="translate(-1339.786 -974.529)" fill="#263e53"/>
        <rect id="Rectángulo_351522" data-name="Rectángulo 351522" width="52.393" height="9.754" transform="translate(212.216 164.902)" fill="#12263f"/>
        <rect id="Rectángulo_351523" data-name="Rectángulo 351523" width="52.393" height="1.241" transform="translate(212.216 173.415)" fill="#263e53"/>
        <path id="Trazado_731545" data-name="Trazado 731545" d="M1968.622,1242.657a14.271,14.271,0,1,1-14.271-14.271,14.271,14.271,0,0,1,14.271,14.271" transform="translate(-1667.829 -1056.008)" fill="#263e53"/>
        <path id="Trazado_731546" data-name="Trazado 731546" d="M2035.567,1182.388h-2.424l.146-.986a.316.316,0,0,1,.313-.27h1.507a.316.316,0,0,1,.313.27Z" transform="translate(-1747.834 -1015.385)" fill="#131f2a"/>
        <path id="Trazado_731547" data-name="Trazado 731547" d="M2011.18,1183.589l-2.387.421-.027-1a.316.316,0,0,1,.261-.32l1.484-.262a.316.316,0,0,1,.355.211Z" transform="translate(-1726.877 -1016.499)" fill="#131f2a"/>
        <path id="Trazado_731548" data-name="Trazado 731548" d="M1986.79,1189.184l-2.278.829-.2-.976a.316.316,0,0,1,.2-.361l1.416-.515a.316.316,0,0,1,.386.147Z" transform="translate(-1705.85 -1021.411)" fill="#131f2a"/>
        <path id="Trazado_731549" data-name="Trazado 731549" d="M1964.014,1199l-2.1,1.212-.367-.927a.316.316,0,0,1,.136-.39l1.3-.753a.316.316,0,0,1,.406.078Z" transform="translate(-1686.267 -1029.973)" fill="#131f2a"/>
        <path id="Trazado_731550" data-name="Trazado 731550" d="M1943.542,1212.744l-1.857,1.558-.522-.849a.316.316,0,0,1,.066-.408l1.154-.968a.316.316,0,0,1,.413.006Z" transform="translate(-1668.721 -1041.924)" fill="#131f2a"/>
        <path id="Trazado_731551" data-name="Trazado 731551" d="M1926,1229.991l-1.558,1.857-.661-.745a.316.316,0,0,1-.006-.413l.969-1.154a.316.316,0,0,1,.408-.066Z" transform="translate(-1653.746 -1056.899)" fill="#131f2a"/>
        <path id="Trazado_731552" data-name="Trazado 731552" d="M1911.908,1250.221l-1.212,2.1-.781-.619a.316.316,0,0,1-.078-.406l.753-1.3a.316.316,0,0,1,.39-.136Z" transform="translate(-1641.795 -1074.444)" fill="#131f2a"/>
        <path id="Trazado_731553" data-name="Trazado 731553" d="M1901.707,1272.819l-.829,2.278-.876-.474a.316.316,0,0,1-.147-.386l.515-1.416a.316.316,0,0,1,.36-.2Z" transform="translate(-1633.234 -1094.028)" fill="#131f2a"/>
        <path id="Trazado_731554" data-name="Trazado 731554" d="M1895.7,1297.1l-.421,2.387-.946-.315a.316.316,0,0,1-.211-.355l.262-1.484a.316.316,0,0,1,.32-.261Z" transform="translate(-1628.321 -1115.055)" fill="#131f2a"/>
        <path id="Trazado_731555" data-name="Trazado 731555" d="M1894.081,1321.449v2.424l-.986-.146a.316.316,0,0,1-.27-.313v-1.507a.316.316,0,0,1,.27-.313Z" transform="translate(-1627.207 -1136.011)" fill="#131f2a"/>
        <path id="Trazado_731556" data-name="Trazado 731556" d="M1895.283,1345.892l.421,2.387-1,.027a.316.316,0,0,1-.32-.261l-.262-1.484a.316.316,0,0,1,.211-.355Z" transform="translate(-1628.321 -1157.024)" fill="#131f2a"/>
        <path id="Trazado_731557" data-name="Trazado 731557" d="M1900.878,1369.855l.829,2.278-.976.2a.316.316,0,0,1-.361-.2l-.515-1.416a.316.316,0,0,1,.147-.386Z" transform="translate(-1633.234 -1177.625)" fill="#131f2a"/>
        <path id="Trazado_731558" data-name="Trazado 731558" d="M1910.7,1392.609l1.212,2.1-.927.367a.316.316,0,0,1-.39-.136l-.753-1.3a.316.316,0,0,1,.077-.406Z" transform="translate(-1641.795 -1197.186)" fill="#131f2a"/>
        <path id="Trazado_731559" data-name="Trazado 731559" d="M1924.437,1413.464l1.558,1.857-.849.522a.316.316,0,0,1-.408-.066l-.968-1.154a.316.316,0,0,1,.006-.413Z" transform="translate(-1653.745 -1215.114)" fill="#131f2a"/>
        <path id="Trazado_731560" data-name="Trazado 731560" d="M1941.685,1431.785l1.857,1.558-.745.661a.316.316,0,0,1-.413.006l-1.154-.969a.317.317,0,0,1-.066-.408Z" transform="translate(-1668.721 -1230.864)" fill="#131f2a"/>
        <path id="Trazado_731561" data-name="Trazado 731561" d="M1961.915,1447.016l2.1,1.212-.619.781a.316.316,0,0,1-.406.078l-1.3-.753a.316.316,0,0,1-.136-.39Z" transform="translate(-1686.266 -1243.958)" fill="#131f2a"/>
        <path id="Trazado_731562" data-name="Trazado 731562" d="M1984.513,1458.694l2.278.829-.474.876a.316.316,0,0,1-.386.147l-1.416-.515a.316.316,0,0,1-.2-.361Z" transform="translate(-1705.851 -1253.997)" fill="#131f2a"/>
        <path id="Trazado_731563" data-name="Trazado 731563" d="M2008.792,1466.464l2.387.421-.315.946a.316.316,0,0,1-.355.211l-1.484-.262a.316.316,0,0,1-.261-.32Z" transform="translate(-1726.876 -1260.677)" fill="#131f2a"/>
        <path id="Trazado_731564" data-name="Trazado 731564" d="M2033.143,1470.091h2.424l-.146.986a.316.316,0,0,1-.313.27H2033.6a.316.316,0,0,1-.313-.27Z" transform="translate(-1747.834 -1263.795)" fill="#131f2a"/>
        <path id="Trazado_731565" data-name="Trazado 731565" d="M2057.586,1466.886l2.387-.421.028,1a.316.316,0,0,1-.261.32l-1.484.262a.316.316,0,0,1-.355-.211Z" transform="translate(-1768.847 -1260.677)" fill="#131f2a"/>
        <path id="Trazado_731566" data-name="Trazado 731566" d="M2081.549,1459.523l2.278-.829.2.976a.317.317,0,0,1-.2.361l-1.416.515a.316.316,0,0,1-.386-.147Z" transform="translate(-1789.447 -1253.997)" fill="#131f2a"/>
        <path id="Trazado_731567" data-name="Trazado 731567" d="M2104.3,1448.228l2.1-1.212.367.927a.316.316,0,0,1-.136.39l-1.3.753a.316.316,0,0,1-.406-.077Z" transform="translate(-1809.008 -1243.958)" fill="#131f2a"/>
        <path id="Trazado_731568" data-name="Trazado 731568" d="M2125.157,1433.343l1.857-1.558.522.849a.316.316,0,0,1-.066.408l-1.154.968a.316.316,0,0,1-.413-.006Z" transform="translate(-1826.936 -1230.864)" fill="#131f2a"/>
        <path id="Trazado_731569" data-name="Trazado 731569" d="M2143.479,1415.321l1.558-1.857.661.745a.316.316,0,0,1,.006.413l-.969,1.154a.316.316,0,0,1-.408.066Z" transform="translate(-1842.687 -1215.114)" fill="#131f2a"/>
        <path id="Trazado_731570" data-name="Trazado 731570" d="M2158.709,1394.708l1.212-2.1.781.619a.316.316,0,0,1,.077.406l-.753,1.3a.316.316,0,0,1-.39.136Z" transform="translate(-1855.779 -1197.186)" fill="#131f2a"/>
        <path id="Trazado_731571" data-name="Trazado 731571" d="M2170.388,1372.133l.829-2.278.877.474a.316.316,0,0,1,.146.386l-.515,1.416a.316.316,0,0,1-.361.2Z" transform="translate(-1865.819 -1177.625)" fill="#131f2a"/>
        <path id="Trazado_731572" data-name="Trazado 731572" d="M2178.158,1348.279l.421-2.387.946.315a.316.316,0,0,1,.211.355l-.262,1.484a.316.316,0,0,1-.32.261Z" transform="translate(-1872.499 -1157.024)" fill="#131f2a"/>
        <path id="Trazado_731573" data-name="Trazado 731573" d="M2181.785,1323.873v-2.424l.986.146a.316.316,0,0,1,.27.313v1.507a.316.316,0,0,1-.27.313Z" transform="translate(-1875.617 -1136.011)" fill="#131f2a"/>
        <path id="Trazado_731574" data-name="Trazado 731574" d="M2178.579,1299.486l-.421-2.387,1-.027a.316.316,0,0,1,.32.261l.262,1.484a.316.316,0,0,1-.211.355Z" transform="translate(-1872.499 -1115.055)" fill="#131f2a"/>
        <path id="Trazado_731575" data-name="Trazado 731575" d="M2171.217,1275.1l-.829-2.277.976-.2a.316.316,0,0,1,.361.2l.515,1.416a.316.316,0,0,1-.146.386Z" transform="translate(-1865.819 -1094.029)" fill="#131f2a"/>
        <path id="Trazado_731576" data-name="Trazado 731576" d="M2159.921,1252.321l-1.212-2.1.927-.367a.316.316,0,0,1,.39.136l.753,1.3a.316.316,0,0,1-.077.406Z" transform="translate(-1855.779 -1074.445)" fill="#131f2a"/>
        <path id="Trazado_731577" data-name="Trazado 731577" d="M2145.037,1231.848l-1.558-1.857.849-.522a.316.316,0,0,1,.408.066l.969,1.154a.317.317,0,0,1-.006.413Z" transform="translate(-1842.687 -1056.899)" fill="#131f2a"/>
        <path id="Trazado_731578" data-name="Trazado 731578" d="M2127.014,1214.3l-1.857-1.558.745-.661a.316.316,0,0,1,.413-.006l1.154.969a.316.316,0,0,1,.066.408Z" transform="translate(-1826.936 -1041.923)" fill="#131f2a"/>
        <path id="Trazado_731579" data-name="Trazado 731579" d="M2106.4,1200.214l-2.1-1.212.619-.781a.316.316,0,0,1,.406-.078l1.3.753a.316.316,0,0,1,.136.39Z" transform="translate(-1809.008 -1029.973)" fill="#131f2a"/>
        <path id="Trazado_731580" data-name="Trazado 731580" d="M2083.827,1190.014l-2.278-.829.474-.876a.316.316,0,0,1,.386-.147l1.416.515a.316.316,0,0,1,.2.36Z" transform="translate(-1789.447 -1021.412)" fill="#131f2a"/>
        <path id="Trazado_731581" data-name="Trazado 731581" d="M2059.973,1184.01l-2.387-.421.315-.946a.316.316,0,0,1,.355-.211l1.484.262a.316.316,0,0,1,.261.32Z" transform="translate(-1768.847 -1016.499)" fill="#131f2a"/>
        <path id="Trazado_731582" data-name="Trazado 731582" d="M1915.464,1184.344a20.452,20.452,0,1,0,20.619,20.452,20.536,20.536,0,0,0-20.619-20.452m0,35.2a14.744,14.744,0,1,1,14.864-14.743,14.8,14.8,0,0,1-14.864,14.743" transform="translate(-1628.943 -1018.146)" fill="#131f2a"/>
        <path id="Trazado_731583" data-name="Trazado 731583" d="M1915.464,1184.344a20.452,20.452,0,1,0,20.619,20.452,20.536,20.536,0,0,0-20.619-20.452m0,35.2a14.744,14.744,0,1,1,14.864-14.743,14.8,14.8,0,0,1-14.864,14.743" transform="translate(-1628.943 -1018.146)" fill="#131f2a"/>
        <path id="Trazado_731584" data-name="Trazado 731584" d="M1954.712,1246.2l4.325,8.331-1.48,1.076-6.535-6.636a2.452,2.452,0,0,0-1.8-.741l-.142,0h-.052a2.454,2.454,0,0,0-1.771.728l-6.572,6.674-1.48-1.076,4.281-8.246a2.419,2.419,0,0,0,.142-1.918c-.028-.079-.053-.158-.078-.238a2.451,2.451,0,0,0-1.257-1.472l-8.328-4.163.565-1.74,9.294,1.545a2.453,2.453,0,0,0,1.845-.441l.065-.047a2.46,2.46,0,0,0,1.02-1.641l1.2-7.987h2.241l1.2,7.987a2.475,2.475,0,0,0,1.028,1.647l.024.017a2.461,2.461,0,0,0,1.837.434l9.367-1.557.565,1.74-8.365,4.182a2.437,2.437,0,0,0-1.246,1.479c-.017.056-.035.112-.053.168a2.438,2.438,0,0,0,.15,1.894" transform="translate(-1662.575 -1055.858)" fill="#f2f2f2"/>
        <path id="Trazado_731585" data-name="Trazado 731585" d="M1945.038,1218.465a15.664,15.664,0,1,0,15.792,15.663,15.728,15.728,0,0,0-15.792-15.663m0,28.933a13.27,13.27,0,1,1,13.379-13.27,13.325,13.325,0,0,1-13.379,13.27" transform="translate(-1658.517 -1047.479)" fill="#f2f2f2"/>
        <path id="Trazado_731586" data-name="Trazado 731586" d="M2038.542,1418.616v1.1c0,.136-.283.245-.631.245s-.631-.11-.631-.245v-1.1c0-.135.283-.245.631-.245s.631.11.631.245" transform="translate(-1751.39 -1219.332)" fill="#131f2a"/>
        <path id="Trazado_731587" data-name="Trazado 731587" d="M2029.347,1315.349a2.425,2.425,0,1,1-2.425-2.406,2.416,2.416,0,0,1,2.425,2.406" transform="translate(-1740.401 -1128.699)" fill="#b3b3b3"/>
        <path id="Trazado_731588" data-name="Trazado 731588" d="M2006.8,1311.909l1.142.593.058,1.286-1.085.693-1.142-.593-.058-1.285Z" transform="translate(-1724.259 -1127.81)" fill="#b3b3b3"/>
        <path id="Trazado_731589" data-name="Trazado 731589" d="M2017.144,1344.658l.923.9-.315,1.248-1.238.351-.923-.9.315-1.248Z" transform="translate(-1732.745 -1155.963)" fill="#b3b3b3"/>
        <path id="Trazado_731590" data-name="Trazado 731590" d="M2051.791,1345.111l.383,1.229-.872.946-1.256-.283-.383-1.228.873-.946Z" transform="translate(-1762.035 -1156.11)" fill="#b3b3b3"/>
        <path id="Trazado_731591" data-name="Trazado 731591" d="M2034.193,1292.521l.778,1.025-.5,1.187-1.277.162-.778-1.025.5-1.187Z" transform="translate(-1747.211 -1111.143)" fill="#b3b3b3"/>
        <path id="Trazado_731592" data-name="Trazado 731592" d="M2060.621,1312.578l1.251-.3.885.934-.366,1.234-1.251.3-.885-.934Z" transform="translate(-1771.141 -1128.128)" fill="#b3b3b3"/>
        <path id="Trazado_731593" data-name="Trazado 731593" d="M1943.581,1206.889a18.8,18.8,0,1,0,.656,14.372,18.676,18.676,0,0,0-.656-14.372m-32.642,15.3a17.252,17.252,0,1,1,22.942,8.3,17.271,17.271,0,0,1-22.942-8.3" transform="translate(-1640.039 -1028.217)" fill="#263e53"/>
        <path id="Trazado_731594" data-name="Trazado 731594" d="M1914.995,1096.273l-7.114-2.645-18.729,6.422c-4.111-2.248-9.525-3.524-16.592-3.524-22.928,0-28.476,13.413-28.476,29.959q0,1.255.1,2.484h4.654q-.081-1.069-.08-2.16c0-14.39,4.636-26.055,23.805-26.055s23.805,11.665,23.805,26.055h10.914a11.419,11.419,0,0,0,11.419-11.419v-14.3a4.991,4.991,0,0,0-3.7-4.822" transform="translate(-1585.305 -940.16)" fill="#12263f"/>
        <path id="Trazado_731595" data-name="Trazado 731595" d="M2238.442,1225.213v3.3a11.42,11.42,0,0,1-11.42,11.418h-10.913q0-1.676-.088-3.3h11a11.42,11.42,0,0,0,11.42-11.42" transform="translate(-1905.049 -1053.28)" fill="#263e53"/>
        <path id="Trazado_731596" data-name="Trazado 731596" d="M1555.654,728.35v-21a3.726,3.726,0,0,0-3.722-3.722h-3.308V637.411a2.53,2.53,0,0,1,2.528-2.528h17.835a32.042,32.042,0,0,1,16.555,4.558l.1.059a46.15,46.15,0,0,1,9.995,8.163l5.476,5.931a38.237,38.237,0,0,1,10.17,26.009v23.08l-.232.037a30.8,30.8,0,0,0-6.61,1.791,20.785,20.785,0,0,0-8.714,6.421c-3.244,4.136-5.049,9.748-5.518,17.158l-.016.258Zm-6.479-25.273h2.757a4.278,4.278,0,0,1,4.274,4.274V727.8l33.468,0c.5-7.4,2.34-13.027,5.617-17.205a21.329,21.329,0,0,1,8.941-6.591,31.151,31.151,0,0,1,6.5-1.786V679.6a37.686,37.686,0,0,0-10.024-25.635l-5.476-5.931a45.61,45.61,0,0,0-9.875-8.066l-.1-.058a31.489,31.489,0,0,0-16.27-4.479h-17.835a1.979,1.979,0,0,0-1.976,1.976Z" transform="translate(-1331.306 -545.791)" fill="#32526e"/>
        <rect id="Rectángulo_351524" data-name="Rectángulo 351524" width="7.582" height="1.12" transform="translate(217.317 163.783)" fill="#263e53"/>
        <rect id="Rectángulo_351525" data-name="Rectángulo 351525" width="1.707" height="9.759" transform="translate(223.192 164.897)" fill="#263e53"/>
        <rect id="Rectángulo_351526" data-name="Rectángulo 351526" width="2.252" height="96.73" transform="translate(209.964 87.162)" fill="#12263f"/>
        <path id="Trazado_731597" data-name="Trazado 731597" d="M458.7,1294.7h.934v-8.338h-2.717v6.555a1.783,1.783,0,0,0,1.783,1.783" transform="translate(-392.803 -1105.846)" fill="#263e53"/>
        <path id="Trazado_731598" data-name="Trazado 731598" d="M54.426,1290.528H86.579a2.735,2.735,0,0,0,2.735-2.735v-1.434H54.426a1.368,1.368,0,0,0-1.368,1.368v1.434a1.368,1.368,0,0,0,1.368,1.368" transform="translate(-45.612 -1105.846)" fill="#32526e"/>
        <path id="Trazado_731599" data-name="Trazado 731599" d="M1435.426,377.276H1425.5V367.35h7.821a2.1,2.1,0,0,1,2.1,2.1Z" transform="translate(-1225.461 -315.8)" fill="#f39c11"/>
        <path id="Trazado_731600" data-name="Trazado 731600" d="M112.983,377.276h9.926V367.35h-7.821a2.1,2.1,0,0,0-2.1,2.1Z" transform="translate(-97.128 -315.8)" fill="#f39c11"/>
        <path id="Trazado_731601" data-name="Trazado 731601" d="M233.182,477.588h-16.2a.538.538,0,0,1-.538-.538v-5.357a.538.538,0,0,1,.538-.538h16.2a.538.538,0,0,1,.538.538v5.357a.538.538,0,0,1-.538.538" transform="translate(-186.069 -405.038)" fill="#f39c11"/>
        <rect id="Rectángulo_351527" data-name="Rectángulo 351527" width="15.337" height="0.448" transform="translate(31.344 67.736)" fill="#263e53"/>
        <rect id="Rectángulo_351528" data-name="Rectángulo 351528" width="15.337" height="0.448" transform="translate(31.344 69.109)" fill="#263e53"/>
        <rect id="Rectángulo_351529" data-name="Rectángulo 351529" width="15.337" height="0.448" transform="translate(31.344 70.482)" fill="#263e53"/>
        <path id="Trazado_731602" data-name="Trazado 731602" d="M1286.388,477.588h-16.2a.538.538,0,0,1-.538-.538v-5.357a.538.538,0,0,1,.538-.538h16.2a.538.538,0,0,1,.538.538v5.357a.538.538,0,0,1-.538.538" transform="translate(-1091.479 -405.038)" fill="#f39c11"/>
        <rect id="Rectángulo_351530" data-name="Rectángulo 351530" width="15.337" height="0.448" transform="translate(179.139 67.736)" fill="#263e53"/>
        <rect id="Rectángulo_351531" data-name="Rectángulo 351531" width="15.337" height="0.448" transform="translate(179.139 69.109)" fill="#263e53"/>
        <rect id="Rectángulo_351532" data-name="Rectángulo 351532" width="15.337" height="0.448" transform="translate(179.139 70.482)" fill="#263e53"/>
        <path id="Trazado_731603" data-name="Trazado 731603" d="M342.091,537.773H177.82V426.66H353.733v99.471a11.642,11.642,0,0,1-11.642,11.642m-162.617-1.654H314.191a37.888,37.888,0,0,0,37.888-37.888V428.314h-172.6Z" transform="translate(-152.867 -366.787)" fill="#f39c11"/>
        <path id="Trazado_731604" data-name="Trazado 731604" d="M1196.067,1310.438v4.917h-2.856a42.05,42.05,0,0,1-7.317-.642l-1.871-.33a97.516,97.516,0,0,0-16.967-1.487h-74.423a2.458,2.458,0,0,1-2.458-2.458Z" transform="translate(-937.192 -1126.546)" fill="#32526e"/>
        <path id="Trazado_731605" data-name="Trazado 731605" d="M1937.042,803.662v12.423a3.93,3.93,0,0,1-3.929,3.93h-12.607l.05-1.1h.039a1.767,1.767,0,0,0,1.764-1.767v-10.9a13.633,13.633,0,0,0-1.053-3.714l.108-2.346s4.786,7.583,9.512,8.965a1.234,1.234,0,0,0,1.566-1.195v-7.361a1.238,1.238,0,0,1,1.7-1.15,4.55,4.55,0,0,1,2.852,4.222" transform="translate(-1651.003 -687.178)" fill="#12263f"/>
        <rect id="Rectángulo_351533" data-name="Rectángulo 351533" width="1.103" height="33.655" transform="matrix(0.996, -0.085, 0.085, 0.996, 254.23, 97.813)" fill="#32526e"/>
        <rect id="Rectángulo_351534" data-name="Rectángulo 351534" width="0.551" height="6.497" transform="translate(217.317 157.286)" fill="#263e53"/>
        <path id="Trazado_731606" data-name="Trazado 731606" d="M269.885,291.1V100.967a3.176,3.176,0,0,1,3.176-3.176H412.813a3.176,3.176,0,0,1,3.176,3.176V291.1a3.176,3.176,0,0,1-3.176,3.176H273.061a3.176,3.176,0,0,1-3.176-3.176" transform="translate(-232.012 -84.068)" fill="#12263f"/>
        <rect id="Rectángulo_351535" data-name="Rectángulo 351535" width="174.905" height="125.308" transform="translate(46.747 197.897) rotate(-88.104)" fill="#f2f2f2"/>
        <rect id="Rectángulo_351536" data-name="Rectángulo 351536" width="125.308" height="174.906" transform="matrix(0.999, -0.052, 0.052, 0.999, 42.89, 25.637)" fill="#e6e6e6"/>
        <rect id="Rectángulo_351537" data-name="Rectángulo 351537" width="174.906" height="125.308" transform="translate(44.515 195.419) rotate(-88.831)" fill="#f2f2f2"/>
        <rect id="Rectángulo_351538" data-name="Rectángulo 351538" width="125.308" height="174.905" transform="translate(48.25 23.087)" fill="#fff"/>
        <path id="Trazado_731607" data-name="Trazado 731607" d="M593.9,10.608h-3.028C590.874,4.75,585.528,0,578.933,0S566.989,4.75,566.989,10.608h-3.028c-10.8,0-19.559,7.541-19.559,16.839h69.059c0-9.3-8.759-16.839-19.559-16.839m-14.97,3a5.188,5.188,0,1,1,5.188-5.188,5.188,5.188,0,0,1-5.188,5.188" transform="translate(-468.007 -0.001)" fill="#065958"/>
        <path id="Trazado_731608" data-name="Trazado 731608" d="M544.411,181.1h69.057a14.658,14.658,0,0,0-.193-2.364H544.6a14.658,14.658,0,0,0-.193,2.364" transform="translate(-468.014 -153.655)" fill="#12263f"/>
        <rect id="Rectángulo_351539" data-name="Rectángulo 351539" width="67.109" height="3.57" transform="translate(59.58 61.713)" fill="#12263f"/>
        <rect id="Rectángulo_351540" data-name="Rectángulo 351540" width="67.109" height="3.57" transform="translate(59.58 71.207)" fill="#12263f"/>
        <path id="Trazado_731609" data-name="Trazado 731609" d="M990.556,389.166l11.113,10.858,17.016-22.7-2.557.48-14.687,16.712-8.5-5.584Z" transform="translate(-851.552 -324.374)" fill="#ffa031"/>
        <path id="Trazado_731610" data-name="Trazado 731610" d="M986.114,393.529H964.362V371.777h21.753l3.57-3.57H960.791V397.1h28.893V377.314l-3.57,4.929Z" transform="translate(-825.964 -316.536)" fill="#12263f"/>
        <rect id="Rectángulo_351541" data-name="Rectángulo 351541" width="67.109" height="3.57" transform="translate(59.133 110.129)" fill="#12263f"/>
        <rect id="Rectángulo_351542" data-name="Rectángulo 351542" width="67.109" height="3.57" transform="translate(59.133 119.624)" fill="#12263f"/>
        <path id="Trazado_731611" data-name="Trazado 731611" d="M987.371,734.187l11.113,10.858,17.016-22.7-2.557.48-14.687,16.711-8.5-5.584Z" transform="translate(-848.814 -620.979)" fill="#ffa031"/>
        <path id="Trazado_731612" data-name="Trazado 731612" d="M982.93,738.551H961.177V716.8H982.93l3.57-3.57H957.607v28.893H986.5V722.336l-3.57,4.929Z" transform="translate(-823.227 -613.141)" fill="#12263f"/>
        <rect id="Rectángulo_351543" data-name="Rectángulo 351543" width="67.109" height="3.57" transform="translate(59.58 162.09)" fill="#12263f"/>
        <rect id="Rectángulo_351544" data-name="Rectángulo 351544" width="67.109" height="3.57" transform="translate(59.58 171.584)" fill="#12263f"/>
        <path id="Trazado_731613" data-name="Trazado 731613" d="M990.556,1104.464l11.113,10.858,17.016-22.7-2.557.48-14.687,16.711-8.5-5.584Z" transform="translate(-851.552 -939.296)" fill="#ffa031"/>
        <path id="Trazado_731614" data-name="Trazado 731614" d="M986.114,1108.828H964.362v-21.753h21.753l3.57-3.57H960.791V1112.4h28.893v-19.785l-3.57,4.929Z" transform="translate(-825.964 -931.458)" fill="#12263f"/>
      </g>
    </g>
  </g>
</svg>
