<svg xmlns="http://www.w3.org/2000/svg" xmlns:xlink="http://www.w3.org/1999/xlink" width="176" height="176" viewBox="0 0 176 176">
  <defs>
    <clipPath id="clip-path">
      <circle id="Elipse_8399" data-name="Elipse 8399" cx="88" cy="88" r="88" transform="translate(-0.438)" fill="#fff"/>
    </clipPath>
  </defs>
  <g id="Grupo_1036344" data-name="Grupo 1036344" transform="translate(-345 -4142)">
    <g id="Grupo_1029849" data-name="Grupo 1029849" transform="translate(345.438 4142)">
      <circle id="Elipse_8399-2" data-name="Elipse 8399" cx="88" cy="88" r="88" transform="translate(-0.438)" fill="#fff"/>
    </g>
    <g id="Grupo_1033602" data-name="Grupo 1033602" transform="translate(345.438 4142)">
      <g id="Enmascarar_grupo_1030779" data-name="Enmascarar grupo 1030779" clip-path="url(#clip-path)">
        <g id="Page-1" transform="translate(25.963 0.001)">
          <g id="_026---Fire-Barrell" data-name="026---Fire-Barrell" transform="translate(15.669 26.573)">
            <g id="Icons" transform="translate(4.98 2.081)">
              <rect id="Rectangle" width="81.902" height="8.19" rx="4.095" transform="translate(0 36.822)" fill="#9e9e9e"/>
              <path id="Path" d="M108.809,52.8h-6.143a4.1,4.1,0,0,1,0,8.19h6.143a4.1,4.1,0,0,0,0-8.19Z" transform="translate(-31.002 -15.977)" fill="#707070" fill-rule="evenodd"/>
              <rect id="Rectangle-2" data-name="Rectangle" width="81.902" height="8.19" rx="4.095" transform="translate(0 73.678)" fill="#9e9e9e"/>
              <path id="Path-2" data-name="Path" d="M108.809,105.6h-6.143a4.1,4.1,0,1,1,0,8.19h6.143a4.1,4.1,0,1,0,0-8.19Z" transform="translate(-31.002 -31.921)" fill="#707070" fill-rule="evenodd"/>
              <rect id="Rectangle-3" data-name="Rectangle" width="81.902" height="8.19" rx="4.095" transform="translate(0 110.534)" fill="#9e9e9e"/>
              <path id="Path-3" data-name="Path" d="M108.809,158.4h-6.143a4.1,4.1,0,1,1,0,8.19h6.143a4.1,4.1,0,1,0,0-8.19Z" transform="translate(-31.002 -47.865)" fill="#707070" fill-rule="evenodd"/>
              <path id="Rectangle-4" data-name="Rectangle" d="M5.867,117.333H79.578V146H5.867Z" transform="translate(-1.772 -35.464)" fill="#065958" fill-rule="evenodd"/>
              <path id="Rectangle-5" data-name="Rectangle" d="M102.666,117.333h6.143V146h-6.143Z" transform="translate(-31.002 -35.464)" fill="#12263f" fill-rule="evenodd"/>
              <path id="Rectangle-6" data-name="Rectangle" d="M5.867,64.533H79.578V93.2H5.867Z" transform="translate(-1.772 -19.52)" fill="#065958" fill-rule="evenodd"/>
              <path id="Rectangle-7" data-name="Rectangle" d="M102.666,64.533h6.143V93.2h-6.143Z" transform="translate(-31.002 -19.52)" fill="#12263f" fill-rule="evenodd"/>
              <path id="Path-4" data-name="Path" d="M73.045,36.875C74.1,35.6,74.568,32.2,74.773,29.446a1.98,1.98,0,0,0-2.5-2.185l-.076.025A2.017,2.017,0,0,1,69.7,24.96a18.5,18.5,0,0,0-.8-7.742,1.843,1.843,0,0,0-3.147-.735,7.381,7.381,0,0,1-5.881,2.607,2.025,2.025,0,0,1-1.788-2.2C58.426,8.666,53.1,3.174,49.49.408a1.917,1.917,0,0,0-3.014,1.611,8.6,8.6,0,0,1-5.561,7.623,9.214,9.214,0,0,0-5.4,6.921,1.9,1.9,0,0,1-2.8,1.417,7.166,7.166,0,0,1-1.726-1.532,1.853,1.853,0,0,0-3.12.471,19.54,19.54,0,0,0-1.91,6.143,1.908,1.908,0,0,1-2.744,1.663,6.683,6.683,0,0,1-1.669-1.388,1.828,1.828,0,0,0-3.1.758,14.048,14.048,0,0,0,1.679,12.781" transform="translate(-5.318 -0.052)" fill="#ff9801" fill-rule="evenodd"/>
              <path id="Path-5" data-name="Path" d="M64.371,16.88a2.025,2.025,0,0,0,1.788,2.2,7.148,7.148,0,0,0,4.476-1.364,2.291,2.291,0,0,1-.121-.833C70.849,8.653,65.526,3.161,61.914.4A1.914,1.914,0,0,0,58.9,2c-.031.34-.078.69-.145,1.048A18.633,18.633,0,0,1,64.371,16.88Z" transform="translate(-17.742 -0.048)" fill="#f57c00" fill-rule="evenodd"/>
              <path id="Path-6" data-name="Path" d="M91.957,34.1l-.076.025A2.017,2.017,0,0,1,89.387,31.8a18.5,18.5,0,0,0-.8-7.742,1.843,1.843,0,0,0-3.147-.735A8.086,8.086,0,0,1,82.8,25.283a19.077,19.077,0,0,1,.44,6.523,2.017,2.017,0,0,0,2.494,2.326l.076-.025a1.98,1.98,0,0,1,2.508,2.185c-.2,2.752-.67,6.157-1.728,7.428h6.143c1.059-1.272,1.523-4.677,1.728-7.428a1.98,1.98,0,0,0-2.5-2.193Z" transform="translate(-25.002 -6.891)" fill="#f57c00" fill-rule="evenodd"/>
              <path id="Path-7" data-name="Path" d="M60.929,45.718a8.19,8.19,0,0,0,3.821-5.51A2.031,2.031,0,0,0,62.8,37.751c-2.9-.068-7.66-1.036-8.19-6.616a2.048,2.048,0,0,0-3.325-1.327A18.307,18.307,0,0,0,46.6,35.6a5.324,5.324,0,0,1-5.438,2.514,2,2,0,0,0-1.99,2.715,14.578,14.578,0,0,0,3.333,4.89Z" transform="translate(-11.788 -8.895)" fill="#ffdc00" fill-rule="evenodd"/>
            </g>
            <g id="Icons_copy" transform="translate(2.931 -0.001)">
              <path id="Shape" d="M2.932,116.71a6.143,6.143,0,0,0,6.143,6.143H82.787a6.128,6.128,0,0,0,2.048-11.909V85.62a6.106,6.106,0,0,0,0-11.532V48.764a6.128,6.128,0,0,0-2.048-11.909H75.739a33,33,0,0,0,.739-5.229,4.212,4.212,0,0,0-1.605-3.675,3.878,3.878,0,0,0-3.481-.641.541.541,0,0,1,0-.131,20.582,20.582,0,0,0-.891-8.6,3.976,3.976,0,0,0-2.948-2.662A3.851,3.851,0,0,0,63.9,17.125a5.379,5.379,0,0,1-4.118,1.941.082.082,0,0,0,0-.07c.379-9.286-5.733-15.385-9.4-18.2A3.747,3.747,0,0,0,46.545.321a4.24,4.24,0,0,0-2.457,3.53,6.552,6.552,0,0,1-4.279,5.924,11.218,11.218,0,0,0-6.634,8.309,5.463,5.463,0,0,1-.948-.911A3.845,3.845,0,0,0,28.836,15.8a4.046,4.046,0,0,0-3.135,2.24,22.859,22.859,0,0,0-2.14,6.72,4.664,4.664,0,0,1-.809-.741,3.716,3.716,0,0,0-3.5-1.229,4.1,4.1,0,0,0-3.071,2.627,15.518,15.518,0,0,0,.295,11.442h-7.4A6.128,6.128,0,0,0,7.028,48.764V74.088a6.106,6.106,0,0,0,0,11.532v25.324a6.143,6.143,0,0,0-4.1,5.766ZM15.218,86v18.428a2.048,2.048,0,0,0,4.1,0V86H80.739v24.571H11.123V86Zm67.569,32.761H9.075a2.048,2.048,0,0,1,0-4.1H82.787a2.048,2.048,0,1,1,0,4.1ZM17.265,53.236a2.048,2.048,0,0,0-2.048,2.048V73.711h-4.1V49.141H80.739V73.711H19.313V55.283A2.048,2.048,0,0,0,17.265,53.236Zm2.6-26.3a8.8,8.8,0,0,0,1.976,1.587,3.659,3.659,0,0,0,3.5.129,4.24,4.24,0,0,0,2.3-3.286,17.277,17.277,0,0,1,1.638-5.324,9.009,9.009,0,0,0,2.019,1.724,3.745,3.745,0,0,0,3.466.258,4.181,4.181,0,0,0,2.406-2.979,7.187,7.187,0,0,1,4.157-5.457,10.782,10.782,0,0,0,6.87-9.29,17.664,17.664,0,0,1,7.5,14.538,4.316,4.316,0,0,0,1.116,3.09,3.78,3.78,0,0,0,2.637,1.229,9.349,9.349,0,0,0,7.246-3.024,16.665,16.665,0,0,1,.614,6.671A4.331,4.331,0,0,0,68.9,30.623a3.851,3.851,0,0,0,3.507.661.1.1,0,0,0,0,.039,22.275,22.275,0,0,1-.917,5.528H58.794a11.354,11.354,0,0,0,1.145-3.012,4.044,4.044,0,0,0-.762-3.387A4.1,4.1,0,0,0,56.04,28.88c-5.758-.133-6.093-3.618-6.2-4.765a4.015,4.015,0,0,0-2.49-3.329,4.083,4.083,0,0,0-4.179.614,20.221,20.221,0,0,0-5.207,6.448c-.192.383-.809,1.548-3.493,1.392a4.028,4.028,0,0,0-3.534,1.7,3.985,3.985,0,0,0-.471,3.833,15.531,15.531,0,0,0,1.054,2.084H20.992a12.465,12.465,0,0,1-1.124-9.922Zm16.718,9.922a13.586,13.586,0,0,1-2.353-3.514,7.218,7.218,0,0,0,7.383-3.632,17.113,17.113,0,0,1,4.144-5.2c.5,5.244,4.216,8.329,10.182,8.432a6.519,6.519,0,0,1-2.412,3.911Zm-27.511,4.1H82.787a2.048,2.048,0,1,1,0,4.1H9.075a2.048,2.048,0,0,1,0-4.1Zm0,36.856H82.787a2.048,2.048,0,1,1,0,4.1H9.075a2.048,2.048,0,0,1,0-4.1Z" transform="translate(-2.931 0.001)" fill="#12263f"/>
            </g>
          </g>
        </g>
      </g>
    </g>
  </g>
</svg>
