<svg id="Grupo_1030965" data-name="Grupo 1030965" xmlns="http://www.w3.org/2000/svg" xmlns:xlink="http://www.w3.org/1999/xlink" width="542.503" height="358.443" viewBox="0 0 542.503 358.443">
  <defs>
    <clipPath id="clip-path">
      <rect id="Rectángulo_351041" data-name="Rectángulo 351041" width="542.503" height="358.443" fill="none"/>
    </clipPath>
    <clipPath id="clip-path-9">
      <rect id="Rectángulo_351039" data-name="Rectángulo 351039" width="1.964" height="1.987" fill="none"/>
    </clipPath>
  </defs>
  <g id="Grupo_1030964" data-name="Grupo 1030964" clip-path="url(#clip-path)">
    <g id="Grupo_1030933" data-name="Grupo 1030933">
      <g id="Grupo_1030932" data-name="Grupo 1030932" clip-path="url(#clip-path)">
        <path id="Trazado_729774" data-name="Trazado 729774" d="M357.821,26.079a18.394,18.394,0,0,1,4.491-1.952l.925-4.446,7.511-.132,1.082,4.41a18.428,18.428,0,0,1,4.557,1.793l3.8-2.488,5.4,5.219-2.353,3.88a18.375,18.375,0,0,1,1.952,4.493l4.445.925.132,7.51-4.41,1.082a18.4,18.4,0,0,1-1.793,4.557l2.488,3.8-5.218,5.4-3.881-2.353a18.413,18.413,0,0,1-4.492,1.952l-.925,4.446-7.511.132-1.081-4.41a18.416,18.416,0,0,1-4.557-1.793l-3.8,2.488-5.4-5.218,2.353-3.881A18.387,18.387,0,0,1,349.584,47l-4.445-.925-.132-7.511,4.41-1.082a18.42,18.42,0,0,1,1.792-4.556l-2.488-3.8,5.217-5.4Zm4,10.006a8.059,8.059,0,1,0,11.4-.2,8.059,8.059,0,0,0-11.4.2" transform="translate(-74.022 -4.195)" fill="#f5f5f5"/>
        <path id="Trazado_729775" data-name="Trazado 729775" d="M409.378,4.12a11.6,11.6,0,0,1,2.835-1.232L412.8.083,417.537,0l.682,2.783a11.6,11.6,0,0,1,2.876,1.132l2.4-1.571,3.41,3.293-1.484,2.449a11.633,11.633,0,0,1,1.232,2.835l2.8.584.083,4.74-2.783.683a11.6,11.6,0,0,1-1.132,2.876l1.57,2.4-3.293,3.41-2.449-1.484a11.631,11.631,0,0,1-2.835,1.232l-.584,2.806-4.74.082-.682-2.783a11.629,11.629,0,0,1-2.876-1.132l-2.4,1.571-3.41-3.293,1.485-2.449a11.6,11.6,0,0,1-1.232-2.835l-2.8-.584L401.292,12l2.783-.682a11.659,11.659,0,0,1,1.131-2.876l-1.57-2.4,3.293-3.41Zm2.527,6.314a5.085,5.085,0,1,0,7.191-.126,5.085,5.085,0,0,0-7.191.126" transform="translate(-86.098)" fill="#f5f5f5"/>
        <path id="Trazado_729776" data-name="Trazado 729776" d="M489.028,95.651a19.2,19.2,0,0,1,4.679-2.034l.964-4.631,7.825-.137,1.126,4.594a19.175,19.175,0,0,1,4.748,1.868l3.955-2.592,5.63,5.436L515.5,102.2a19.152,19.152,0,0,1,2.034,4.68l4.63.964.137,7.825-4.594,1.126a19.147,19.147,0,0,1-1.868,4.747l2.592,3.955L513,131.124l-4.043-2.451a19.179,19.179,0,0,1-4.68,2.034l-.964,4.631-7.825.137-1.126-4.595a19.138,19.138,0,0,1-4.747-1.868L485.66,131.6l-5.63-5.436,2.451-4.043a19.135,19.135,0,0,1-2.034-4.68l-4.631-.964-.137-7.825,4.594-1.126a19.2,19.2,0,0,1,1.868-4.747l-2.592-3.955,5.435-5.63Zm4.171,10.424a8.4,8.4,0,1,0,11.87-.209,8.4,8.4,0,0,0-11.87.209" transform="translate(-102.058 -19.063)" fill="#f5f5f5"/>
        <path id="Trazado_729777" data-name="Trazado 729777" d="M644.681,145.2a19.182,19.182,0,0,1,4.678-2.034l.964-4.631,7.825-.137,1.126,4.594a19.161,19.161,0,0,1,4.748,1.868l3.955-2.592,5.63,5.436-2.451,4.042a19.167,19.167,0,0,1,2.034,4.68l4.63.964.137,7.825-4.594,1.126a19.152,19.152,0,0,1-1.868,4.747l2.592,3.955-5.435,5.63-4.043-2.451a19.194,19.194,0,0,1-4.68,2.034l-.964,4.631-7.825.137-1.126-4.595a19.181,19.181,0,0,1-4.747-1.868l-3.955,2.593-5.63-5.436,2.451-4.043a19.134,19.134,0,0,1-2.034-4.68l-4.631-.964-.137-7.825,4.594-1.126a19.2,19.2,0,0,1,1.868-4.747l-2.592-3.955,5.435-5.63Zm4.171,10.424a8.4,8.4,0,1,0,11.87-.209,8.4,8.4,0,0,0-11.87.209" transform="translate(-135.454 -29.693)" fill="#f5f5f5"/>
      </g>
    </g>
    <g id="Grupo_1030935" data-name="Grupo 1030935">
      <g id="Grupo_1030934" data-name="Grupo 1030934" clip-path="url(#clip-path)">
        <path id="Trazado_729778" data-name="Trazado 729778" d="M540.869,441.858c0,.113-121.088.2-270.422.2-149.386,0-270.448-.091-270.448-.2s121.062-.2,270.448-.2c149.334,0,270.422.091,270.422.2" transform="translate(0 -94.758)" fill="#263238"/>
      </g>
    </g>
    <g id="Grupo_1030937" data-name="Grupo 1030937">
      <g id="Grupo_1030936" data-name="Grupo 1030936" clip-path="url(#clip-path)">
        <path id="Trazado_729779" data-name="Trazado 729779" d="M453.84,369.894H138.61a18.866,18.866,0,0,1-18.866-18.866V134.681a13.762,13.762,0,0,1,13.763-13.762H459.7a13.005,13.005,0,0,1,13.005,13.005v217.1a18.866,18.866,0,0,1-18.866,18.866" transform="translate(-25.691 -25.943)" fill="#e0e0e0"/>
        <path id="Trazado_729780" data-name="Trazado 729780" d="M453.787,369.84s.257-.02.764-.049l.947-.053c.379-.016.811-.115,1.307-.182l.788-.124.86-.224.948-.247,1-.37a18.794,18.794,0,0,0,2.194-.979c.384-.193.752-.448,1.148-.68l.6-.367.577-.434a18.584,18.584,0,0,0,7.389-12q.08-.53.163-1.069c.052-.36.045-.729.072-1.1.05-.739.056-1.5.048-2.267q0-2.312,0-4.786,0-4.947-.009-10.53c-.015-29.762-.036-72.824-.062-126.033q-.006-19.954-.013-41.761,0-10.891-.006-22.216,0-2.83,0-5.686,0-1.429,0-2.863c-.008-.955.023-1.922-.047-2.864a12.837,12.837,0,0,0-5.494-9.648,12.668,12.668,0,0,0-5.358-2.123c-.241-.032-.481-.082-.723-.1l-.73-.036c-.485-.036-.983-.023-1.477-.025h-2.977l-12.028,0-24.626,0-51.4.008-228.883.016h-3.8c-.631.009-1.273-.02-1.894.02l-.935.047c-.309.037-.617.092-.925.137a5.6,5.6,0,0,0-.916.185c-.3.08-.6.151-.9.238a14.491,14.491,0,0,0-1.732.7,13,13,0,0,0-3.109,2.041,13.536,13.536,0,0,0-2.44,2.8,14.57,14.57,0,0,0-1.59,3.352,14.09,14.09,0,0,0-.6,3.655c-.041,1.243-.011,2.506-.02,3.757q0,15.037,0,29.87,0,29.66,0,58.4c0,38.287-.008,75.219-.011,110.4q0,6.6,0,13.11c-.017,1.09.038,2.161.114,3.229l.242,1.588c.1.524.258,1.038.384,1.556a18.955,18.955,0,0,0,2.776,5.716,18.6,18.6,0,0,0,10.163,7.108c.51.118,1.008.289,1.525.363l1.548.237c1.041.058,2.08.122,3.133.1l6.273,0,48.49.009,87.035.024,126.026.062,34.264.037,8.911.02c2.008.006,3.036.02,3.036.02s-1.028.013-3.036.02l-8.911.02-34.264.037-126.026.061L194.515,370l-48.49.009-6.273,0c-1.045.02-2.107-.042-3.169-.1l-1.577-.24c-.527-.075-1.034-.249-1.554-.369a18.947,18.947,0,0,1-10.355-7.238,19.318,19.318,0,0,1-2.831-5.823c-.129-.529-.287-1.052-.391-1.587l-.247-1.618c-.079-1.088-.134-2.185-.116-3.267q0-6.513,0-13.11c0-35.182-.007-72.113-.011-110.4q0-28.717,0-58.4,0-14.83,0-29.87c.009-1.256-.02-2.5.02-3.768a14.494,14.494,0,0,1,.613-3.76,14.924,14.924,0,0,1,1.635-3.449,13.912,13.912,0,0,1,2.509-2.881,13.415,13.415,0,0,1,3.2-2.1,15.2,15.2,0,0,1,1.782-.716c.308-.09.62-.163.93-.244a5.923,5.923,0,0,1,.942-.192c.317-.046.634-.1.953-.14l.961-.049c.643-.042,1.269-.012,1.9-.02h3.8l228.883.015,51.4.009,24.626,0,12.028,0h2.977c.5,0,.987-.01,1.489.026l.749.038c.249.019.495.07.741.1a13,13,0,0,1,5.494,2.179,13.162,13.162,0,0,1,5.627,9.892c.071.976.039,1.927.046,2.886s0,1.91,0,2.863q0,2.856,0,5.686,0,11.321-.005,22.216-.007,21.783-.013,41.761c-.027,53.209-.048,96.271-.062,126.033q0,5.58-.009,10.53,0,2.473,0,4.786c.006.771,0,1.528-.053,2.273-.027.372-.021.743-.075,1.105s-.111.719-.165,1.074a18.656,18.656,0,0,1-7.458,12.042l-.581.434-.6.367c-.4.232-.769.485-1.155.678a18.462,18.462,0,0,1-2.206.974l-1.008.367-.951.243-.863.219-.791.119c-.5.064-.932.161-1.311.173l-.949.043c-.508.022-.765.028-.765.028" transform="translate(-25.638 -25.89)" fill="#263238"/>
        <path id="Trazado_729781" data-name="Trazado 729781" d="M468.306,436.779H119.191a18.24,18.24,0,0,1-18.24-18.239V415.7a.7.7,0,0,1,.7-.7h381a.7.7,0,0,1,.7.7v6.028a15.054,15.054,0,0,1-15.054,15.054" transform="translate(-21.659 -89.038)" fill="#e0e0e0"/>
        <path id="Trazado_729782" data-name="Trazado 729782" d="M468.251,436.726s.174-.016.515-.036a12.035,12.035,0,0,0,1.523-.137,15.024,15.024,0,0,0,9.022-4.765,14.964,14.964,0,0,0,2.831-4.477,15.5,15.5,0,0,0,1.1-6.073q0-1.668,0-3.445,0-.888,0-1.8c0-.309.028-.613-.2-.8-.2-.214-.518-.164-.836-.168l-85.026.062-280.515.057H101.634a.536.536,0,0,0-.233.041.51.51,0,0,0-.291.336,3.9,3.9,0,0,0-.017.584v1.27c-.016.851.021,1.688.071,2.522a17.383,17.383,0,0,0,1.073,4.873,16.242,16.242,0,0,0,2.359,4.377,18.115,18.115,0,0,0,7.719,6.048,18.982,18.982,0,0,0,4.77,1.22c1.63.157,3.292.126,4.948.126h9.891l19.54,0,74.48.011,126.112.042,85.022.061,23.115.037,6.012.02c1.354.006,2.048.02,2.048.02s-.694.013-2.048.02l-6.012.02-23.115.037-85.022.062-126.112.042-74.48.011-19.54,0h-9.891c-1.652,0-3.313.034-4.991-.126a19.337,19.337,0,0,1-4.874-1.246,18.5,18.5,0,0,1-7.885-6.177,16.616,16.616,0,0,1-2.411-4.472,17.761,17.761,0,0,1-1.1-4.979c-.051-.855-.089-1.708-.072-2.552V416.1a3.539,3.539,0,0,1,.031-.684.9.9,0,0,1,.513-.594.956.956,0,0,1,.387-.073h15.022l280.515.057,85.026.062.476,0a.776.776,0,0,1,.7.65,4.366,4.366,0,0,1,.01.47q0,.914,0,1.8,0,1.777,0,3.445a15.618,15.618,0,0,1-1.123,6.117,15.053,15.053,0,0,1-2.866,4.5,14.409,14.409,0,0,1-3.436,2.786,14.181,14.181,0,0,1-5.652,1.953,11.369,11.369,0,0,1-1.528.119c-.342.014-.516.016-.516.016" transform="translate(-21.605 -88.985)" fill="#263238"/>
        <path id="Trazado_729783" data-name="Trazado 729783" d="M457.275,344.217H142.092a3.928,3.928,0,0,1-3.927-3.928V144.2a3.928,3.928,0,0,1,3.927-3.928H457.275A3.928,3.928,0,0,1,461.2,144.2V340.289a3.928,3.928,0,0,1-3.927,3.928" transform="translate(-29.644 -30.095)" fill="#727997"/>
        <path id="Trazado_729784" data-name="Trazado 729784" d="M457.221,344.164a6.406,6.406,0,0,0,.675-.072,3.9,3.9,0,0,0,3.215-3.722q0-1.986,0-4.6c-.009-6.979-.021-17.265-.037-30.512-.015-26.5-.035-64.84-.062-112.215Q461,175.272,461,155.856q0-4.849,0-9.795v-1.238a8.843,8.843,0,0,0-.042-1.217,3.759,3.759,0,0,0-3.144-3.185,7.683,7.683,0,0,0-1.228-.05h-1.259l-20.528.005-88.939.018-203.79.015a3.748,3.748,0,0,0-2.843,1.289,3.634,3.634,0,0,0-.763,1.4,5.244,5.244,0,0,0-.152,1.621V164.9q0,13.39,0,26.6,0,26.407,0,52,0,25.568-.005,50.186,0,12.3,0,24.332,0,6.015,0,11.961,0,2.972,0,5.928,0,1.477,0,2.95a7.093,7.093,0,0,0,.289,2.832,3.762,3.762,0,0,0,1.9,1.962,3.724,3.724,0,0,0,1.347.331c.467.022.968.006,1.449.011l5.819,0,11.523,0,22.578,0,43.173.009,77.495.024,112.209.062,30.508.037,7.934.019c1.787.007,2.7.02,2.7.02s-.917.013-2.7.02l-7.934.02-30.508.036-112.209.062-77.495.024-43.173.009-22.578,0-11.523,0H143.28c-.491,0-.963.012-1.469-.011a4.1,4.1,0,0,1-3.562-2.511,4.041,4.041,0,0,1-.314-1.5l0-1.475V335.9q0-2.955,0-5.928,0-5.945,0-11.961,0-12.031,0-24.332,0-24.6,0-50.186,0-25.567,0-52,0-13.2,0-26.6V151.467q0-3.368,0-6.748a5.662,5.662,0,0,1,.167-1.73,4.025,4.025,0,0,1,.844-1.545,4.135,4.135,0,0,1,3.137-1.423l203.79.015,88.939.018,20.528.006h1.259a7.816,7.816,0,0,1,1.276.054,4.065,4.065,0,0,1,3.4,3.449,9,9,0,0,1,.046,1.26v1.238q0,4.946,0,9.795-.006,19.394-.013,37.183c-.026,47.375-.047,85.716-.062,112.215-.016,13.247-.028,23.534-.036,30.512q-.009,2.616-.016,4.606a3.921,3.921,0,0,1-3.271,3.74,2.957,2.957,0,0,1-.508.049c-.113,0-.17,0-.17,0" transform="translate(-29.59 -30.042)" fill="#263238"/>
        <path id="Trazado_729785" data-name="Trazado 729785" d="M300.134,414.461l4.745,8.052h66.773l4.406-8.052Z" transform="translate(-64.394 -88.924)" fill="#263238"/>
        <path id="Trazado_729786" data-name="Trazado 729786" d="M346.31,130.755a2.648,2.648,0,1,1-2.648-2.649,2.647,2.647,0,0,1,2.648,2.649" transform="translate(-73.165 -27.485)" fill="#263238"/>
        <path id="Trazado_729787" data-name="Trazado 729787" d="M522.644,161.227H510.271a.888.888,0,0,1-.887-.888v-6.15a.884.884,0,0,1,.878-.887h12.382a.224.224,0,0,1,.226.227v2.027h1.324a.226.226,0,0,1,.227.226v2.964a.226.226,0,0,1-.227.226H522.87V161a.226.226,0,0,1-.226.227m-.227-7.472H510.262a.425.425,0,0,0-.425.434v6.15a.435.435,0,0,0,.434.434h12.146v-2.027a.227.227,0,0,1,.227-.227h1.324v-2.51h-1.324a.227.227,0,0,1-.227-.227Z" transform="translate(-109.29 -32.891)" fill="#263238"/>
        <path id="Trazado_729788" data-name="Trazado 729788" d="M511.246,159.409v-3.49a.753.753,0,0,1,.753-.753h5.823a.753.753,0,0,1,.753.753v3.49a.753.753,0,0,1-.753.753H512a.753.753,0,0,1-.753-.753" transform="translate(-109.689 -33.291)" fill="#263238"/>
      </g>
    </g>
    <g id="Grupo_1030939" data-name="Grupo 1030939">
      <g id="Grupo_1030938" data-name="Grupo 1030938" clip-path="url(#clip-path)">
        <path id="Trazado_729789" data-name="Trazado 729789" d="M238.8,260.43H34.278a7.741,7.741,0,0,1-7.741-7.741v-134a5.958,5.958,0,0,1,5.958-5.958H240.288a7.739,7.739,0,0,1,7.74,7.739V251.2a9.226,9.226,0,0,1-9.226,9.226" transform="translate(-5.694 -24.186)" fill="#fff"/>
        <rect id="Rectángulo_351000" data-name="Rectángulo 351000" width="36.439" height="14.618" transform="translate(61.949 141.386)" fill="#ffa031"/>
        <rect id="Rectángulo_351001" data-name="Rectángulo 351001" width="36.439" height="14.618" transform="translate(171.268 141.386)" fill="#ff725e"/>
        <rect id="Rectángulo_351002" data-name="Rectángulo 351002" width="36.439" height="14.618" transform="translate(171.268 170.419)" fill="#ffa031"/>
        <rect id="Rectángulo_351003" data-name="Rectángulo 351003" width="36.439" height="14.618" transform="translate(171.268 184.936)" fill="#ffa031"/>
        <rect id="Rectángulo_351004" data-name="Rectángulo 351004" width="36.439" height="14.618" transform="translate(98.388 170.682)" fill="#ffa031"/>
        <rect id="Rectángulo_351005" data-name="Rectángulo 351005" width="36.439" height="14.617" transform="translate(134.768 185.478)" fill="#ffa031"/>
        <rect id="Rectángulo_351006" data-name="Rectángulo 351006" width="36.439" height="15.209" transform="translate(98.388 214.475)" fill="#ebebeb"/>
        <rect id="Rectángulo_351007" data-name="Rectángulo 351007" width="36.439" height="14.617" transform="translate(171.268 214.678)" fill="#ffa031"/>
        <rect id="Rectángulo_351008" data-name="Rectángulo 351008" width="196.748" height="14.286" transform="translate(38.858 127.101)" fill="#e0e0e0"/>
        <rect id="Rectángulo_351009" data-name="Rectángulo 351009" width="34.494" height="102.89" transform="translate(27.455 127.101)" fill="#e0e0e0"/>
        <path id="Trazado_729790" data-name="Trazado 729790" d="M69.809,265.07H34.322V161.187H69.809Zm-34.494-.994h33.5v-101.9h-33.5Z" transform="translate(-7.364 -34.583)" fill="#e0e0e0"/>
        <path id="Trazado_729791" data-name="Trazado 729791" d="M248.029,129.483H26.538v-10.8a5.958,5.958,0,0,1,5.958-5.958H240.289a7.74,7.74,0,0,1,7.74,7.74Z" transform="translate(-5.694 -24.186)" fill="#e0e0e0"/>
        <rect id="Rectángulo_351010" data-name="Rectángulo 351010" width="34.102" height="9.59" transform="translate(27.846 111.405)" fill="#ebebeb"/>
        <rect id="Rectángulo_351011" data-name="Rectángulo 351011" width="32.887" height="9.59" transform="translate(65.941 111.405)" fill="#ebebeb"/>
        <rect id="Rectángulo_351012" data-name="Rectángulo 351012" width="32.887" height="9.59" transform="translate(102.01 111.405)" fill="#ebebeb"/>
        <rect id="Rectángulo_351013" data-name="Rectángulo 351013" width="32.887" height="9.59" transform="translate(138.079 111.405)" fill="#ebebeb"/>
        <rect id="Rectángulo_351014" data-name="Rectángulo 351014" width="32.887" height="9.59" transform="translate(174.146 111.405)" fill="#ebebeb"/>
        <rect id="Rectángulo_351015" data-name="Rectángulo 351015" width="27.033" height="9.59" transform="translate(210.216 111.405)" fill="#ebebeb"/>
        <path id="Trazado_729792" data-name="Trazado 729792" d="M34.9,264.333s.349-.009,1.018-.015l2.973-.015,11.507-.03,43.113-.068,149.541-.117-.244.244c0-31.727-.009-66.427-.015-102.568v-.014l.259.258L34.9,161.941l.192-.191c-.043,31.617-.079,57.239-.1,74.968-.02,8.871-.037,15.765-.048,20.45-.009,2.338-.016,4.124-.021,5.333s-.02,1.832-.02,1.832-.013-.6-.02-1.792-.012-2.975-.02-5.3c-.011-4.675-.027-11.555-.048-20.407-.024-17.756-.06-43.419-.1-75.085v-.192H34.9l208.152-.068h.258v.273c-.006,36.142-.01,70.842-.015,102.568v.244h-.243l-149.7-.117-43.057-.067-11.457-.031-2.945-.015c-.659,0-.988-.015-.988-.015" transform="translate(-7.447 -34.648)" fill="#263238"/>
        <path id="Trazado_729793" data-name="Trazado 729793" d="M243.605,179.937c0,.143-46.6.258-104.071.258-57.491,0-104.081-.115-104.081-.258s46.59-.258,104.081-.258c57.47,0,104.071.115,104.071.258" transform="translate(-7.607 -38.551)" fill="#263238"/>
        <path id="Trazado_729794" data-name="Trazado 729794" d="M243.605,198.547c0,.143-46.6.258-104.071.258-57.491,0-104.081-.115-104.081-.258s46.59-.258,104.081-.258c57.47,0,104.071.115,104.071.258" transform="translate(-7.607 -42.543)" fill="#263238"/>
        <path id="Trazado_729795" data-name="Trazado 729795" d="M243.605,217.158c0,.143-46.6.258-104.071.258-57.491,0-104.081-.115-104.081-.258s46.59-.258,104.081-.258c57.47,0,104.071.115,104.071.258" transform="translate(-7.607 -46.536)" fill="#263238"/>
        <path id="Trazado_729796" data-name="Trazado 729796" d="M243.605,235.768c0,.143-46.6.258-104.071.258-57.491,0-104.081-.115-104.081-.258s46.59-.258,104.081-.258c57.47,0,104.071.115,104.071.258" transform="translate(-7.607 -50.529)" fill="#263238"/>
        <path id="Trazado_729797" data-name="Trazado 729797" d="M243.605,254.379c0,.143-46.6.258-104.071.258-57.491,0-104.081-.115-104.081-.258s46.59-.258,104.081-.258c57.47,0,104.071.115,104.071.258" transform="translate(-7.607 -54.522)" fill="#263238"/>
        <path id="Trazado_729798" data-name="Trazado 729798" d="M243.605,272.989c0,.143-46.6.258-104.071.258-57.491,0-104.081-.115-104.081-.258s46.59-.258,104.081-.258c57.47,0,104.071.115,104.071.258" transform="translate(-7.607 -58.515)" fill="#263238"/>
        <path id="Trazado_729799" data-name="Trazado 729799" d="M78.8,264.867c-.143,0-.258-22.906-.258-51.155s.115-51.16.258-51.16.258,22.9.258,51.16-.115,51.155-.258,51.155" transform="translate(-16.851 -34.876)" fill="#263238"/>
        <path id="Trazado_729800" data-name="Trazado 729800" d="M125.193,264.56c-.143,0-.258-22.837-.258-51s.115-51.007.258-51.007.258,22.833.258,51.007-.115,51-.258,51" transform="translate(-26.805 -34.876)" fill="#263238"/>
        <path id="Trazado_729801" data-name="Trazado 729801" d="M171.586,264.867c-.143,0-.258-22.906-.258-51.155s.115-51.16.258-51.16.258,22.9.258,51.16-.115,51.155-.258,51.155" transform="translate(-36.759 -34.876)" fill="#263238"/>
        <path id="Trazado_729802" data-name="Trazado 729802" d="M217.98,264.867c-.143,0-.258-22.906-.258-51.155s.115-51.16.258-51.16.258,22.9.258,51.16-.115,51.155-.258,51.155" transform="translate(-46.713 -34.876)" fill="#263238"/>
        <path id="Trazado_729803" data-name="Trazado 729803" d="M264.373,264.867c-.143,0-.258-22.906-.258-51.155s.115-51.16.258-51.16.258,22.9.258,51.16-.115,51.155-.258,51.155" transform="translate(-56.667 -34.876)" fill="#263238"/>
        <path id="Trazado_729804" data-name="Trazado 729804" d="M41.869,122.8a2.114,2.114,0,1,1-2.113-2.175,2.145,2.145,0,0,1,2.113,2.175" transform="translate(-8.076 -25.88)" fill="#fff"/>
        <path id="Trazado_729805" data-name="Trazado 729805" d="M51.009,122.8a2.114,2.114,0,1,1-2.113-2.175,2.145,2.145,0,0,1,2.113,2.175" transform="translate(-10.037 -25.88)" fill="#fff"/>
        <path id="Trazado_729806" data-name="Trazado 729806" d="M60.148,122.8a2.114,2.114,0,1,1-2.113-2.175,2.145,2.145,0,0,1,2.113,2.175" transform="translate(-11.998 -25.88)" fill="#fff"/>
        <path id="Trazado_729807" data-name="Trazado 729807" d="M238.746,260.374s.159-.015.47-.035a9.9,9.9,0,0,0,1.386-.174,9.354,9.354,0,0,0,4.721-2.614,9.258,9.258,0,0,0,2.087-3.407,9.7,9.7,0,0,0,.308-1.093,11.472,11.472,0,0,0,.161-1.177c.059-.806.025-1.66.032-2.542-.005-3.532-.012-7.607-.019-12.193-.016-18.354-.038-44.9-.065-77.711q-.006-12.3-.013-25.749c-.011-4.473.017-9.054-.027-13.688a7.543,7.543,0,0,0-6.472-7.066,34.225,34.225,0,0,0-3.573-.085l-61.591.019-141.128.016H32.677a6.131,6.131,0,0,0-2.226.361,5.736,5.736,0,0,0-3.754,5.153c-.024.76-.006,1.547-.012,2.319v4.644q0,9.271,0,18.417,0,18.288,0,36.009c0,23.608-.009,46.38-.013,68.072q0,2.034,0,4.054a8.313,8.313,0,0,0,.681,3.851,7.577,7.577,0,0,0,6.02,4.382c.637.06,1.3.054,1.957.052H41.22l7.763,0,29.9.01,53.666.025,77.706.065,21.127.038,5.494.02c1.238.007,1.872.021,1.872.021s-.634.014-1.872.021l-5.494.02-21.127.039-77.706.065-53.666.025-29.9.01-7.763,0H35.326c-.656,0-1.318.011-2-.053a7.947,7.947,0,0,1-6.318-4.593,8.7,8.7,0,0,1-.716-4.006q0-2.021,0-4.054c0-21.693-.008-44.464-.013-68.072q0-17.706,0-36.009,0-9.143,0-18.417v-4.644c.005-.778-.013-1.543.013-2.335a6.118,6.118,0,0,1,.561-2.328,6.182,6.182,0,0,1,3.459-3.193,6.572,6.572,0,0,1,2.368-.386h2.345l141.128.016,61.591.019a33.863,33.863,0,0,1,3.62.09,7.875,7.875,0,0,1,6.752,7.381c.042,4.67.008,9.225.016,13.706q-.007,13.431-.013,25.749c-.027,32.807-.049,59.358-.064,77.711-.007,4.586-.013,8.661-.019,12.193-.011.884.02,1.73-.042,2.55a11.268,11.268,0,0,1-.168,1.19,9.913,9.913,0,0,1-.316,1.105,9.048,9.048,0,0,1-8.289,6.182c-.313.013-.472.013-.472.013" transform="translate(-5.637 -24.13)" fill="#263238"/>
      </g>
    </g>
    <g id="Grupo_1030956" data-name="Grupo 1030956">
      <g id="Grupo_1030955" data-name="Grupo 1030955" clip-path="url(#clip-path)">
        <path id="Trazado_729808" data-name="Trazado 729808" d="M429.98,301.032H259.765a5.953,5.953,0,0,1-5.953-5.953V58.678a5.92,5.92,0,0,1,5.92-5.92H429.451a7.109,7.109,0,0,1,7.108,7.109V294.454a6.579,6.579,0,0,1-6.579,6.579" transform="translate(-54.456 -11.319)" fill="#fff"/>
        <path id="Trazado_729809" data-name="Trazado 729809" d="M436.559,75.388H253.811V58.678a5.92,5.92,0,0,1,5.92-5.92H429.45a7.108,7.108,0,0,1,7.108,7.108Z" transform="translate(-54.456 -11.319)" fill="#e0e0e0"/>
        <path id="Trazado_729810" data-name="Trazado 729810" d="M271.7,65.862a3.006,3.006,0,1,1-3-2.851,2.929,2.929,0,0,1,3,2.851" transform="translate(-57.007 -13.519)" fill="#fff"/>
        <path id="Trazado_729811" data-name="Trazado 729811" d="M284.591,65.862a3.006,3.006,0,1,1-3-2.851,2.929,2.929,0,0,1,3,2.851" transform="translate(-59.772 -13.519)" fill="#fff"/>
        <path id="Trazado_729812" data-name="Trazado 729812" d="M297.478,65.862a3.006,3.006,0,1,1-3-2.851,2.929,2.929,0,0,1,3,2.851" transform="translate(-62.536 -13.519)" fill="#fff"/>
        <rect id="Rectángulo_351017" data-name="Rectángulo 351017" width="7.356" height="53.817" transform="translate(226.688 104.499)" fill="#ffa031"/>
        <rect id="Rectángulo_351018" data-name="Rectángulo 351018" width="7.357" height="35.538" transform="translate(240.89 122.777)" fill="#e3c8a6"/>
        <rect id="Rectángulo_351019" data-name="Rectángulo 351019" width="7.356" height="47.401" transform="translate(255.094 111.188)" fill="#ffa031"/>
        <rect id="Rectángulo_351020" data-name="Rectángulo 351020" width="7.357" height="51.738" transform="translate(269.296 106.577)" fill="#e3c8a6"/>
        <rect id="Rectángulo_351021" data-name="Rectángulo 351021" width="7.357" height="34.444" transform="translate(283.499 123.871)" fill="#ffa031"/>
        <rect id="Rectángulo_351022" data-name="Rectángulo 351022" width="7.357" height="27.689" transform="translate(297.702 130.626)" fill="#e3c8a6"/>
        <rect id="Rectángulo_351023" data-name="Rectángulo 351023" width="7.357" height="48.293" transform="translate(311.906 110.022)" fill="#ffa031"/>
        <rect id="Rectángulo_351024" data-name="Rectángulo 351024" width="7.356" height="39.586" transform="translate(326.109 118.73)" fill="#e3c8a6"/>
        <rect id="Rectángulo_351025" data-name="Rectángulo 351025" width="7.357" height="46.543" transform="translate(340.312 111.772)" fill="#ffa031"/>
        <rect id="Rectángulo_351026" data-name="Rectángulo 351026" width="7.356" height="31.709" transform="translate(354.515 126.606)" fill="#e3c8a6"/>
        <path id="Trazado_729813" data-name="Trazado 729813" d="M278.893,135.689s.009.082.014.242.008.41.014.716c.006.646.016,1.58.027,2.791.011,2.458.028,6.039.049,10.584.018,9.125.043,22.124.074,37.678l-.179-.178,48.8-.026,71.3.06,21.606.065,5.874.038,1.528.02c.344.007.521.021.521.021s-.177.013-.521.02l-1.528.02-5.874.038L399,187.846l-71.3.06-48.8-.026h-.179V187.7c.03-15.553.056-28.553.073-37.678.021-4.545.038-8.125.05-10.584.012-1.212.02-2.145.027-2.791.006-.306.011-.543.014-.716s.014-.242.014-.242" transform="translate(-59.799 -29.112)" fill="#263238"/>
        <path id="Trazado_729814" data-name="Trazado 729814" d="M321.1,114.363H281.442a2.009,2.009,0,0,1-2.008-2.008v-.507a2.008,2.008,0,0,1,2.008-2.008H321.1a2.008,2.008,0,0,1,2.008,2.008v.507a2.009,2.009,0,0,1-2.008,2.008" transform="translate(-59.953 -23.566)" fill="#e0e0e0"/>
        <path id="Trazado_729815" data-name="Trazado 729815" d="M415.864,230.291H276.229a2.009,2.009,0,0,1-2.008-2.008v-.507a2.008,2.008,0,0,1,2.008-2.008H415.864a2.008,2.008,0,0,1,2.008,2.008v.507a2.009,2.009,0,0,1-2.008,2.008" transform="translate(-58.835 -48.439)" fill="#e0e0e0"/>
        <path id="Trazado_729816" data-name="Trazado 729816" d="M415.864,262.318H276.229a2.009,2.009,0,0,1-2.008-2.008V259.8a2.008,2.008,0,0,1,2.008-2.008H415.864a2.008,2.008,0,0,1,2.008,2.008v.507a2.009,2.009,0,0,1-2.008,2.008" transform="translate(-58.835 -55.311)" fill="#e0e0e0"/>
        <path id="Trazado_729817" data-name="Trazado 729817" d="M350.189,246.234H276.228a2.009,2.009,0,0,1-2.008-2.008v-.507a2.008,2.008,0,0,1,2.008-2.008h73.961a2.008,2.008,0,0,1,2.008,2.008v.507a2.009,2.009,0,0,1-2.008,2.008" transform="translate(-58.835 -51.86)" fill="#e0e0e0"/>
        <path id="Trazado_729818" data-name="Trazado 729818" d="M438.561,246.234H386.386a2.008,2.008,0,0,1-2.008-2.008v-.507a2.007,2.007,0,0,1,2.008-2.008h52.176a2.008,2.008,0,0,1,2.008,2.008v.507a2.009,2.009,0,0,1-2.008,2.008" transform="translate(-82.469 -51.86)" fill="#e0e0e0"/>
        <path id="Trazado_729819" data-name="Trazado 729819" d="M329.6,278.4H277.421a2.008,2.008,0,0,1-2.008-2.008v-.507a2.007,2.007,0,0,1,2.008-2.008H329.6a2.008,2.008,0,0,1,2.008,2.008v.507A2.009,2.009,0,0,1,329.6,278.4" transform="translate(-59.091 -58.761)" fill="#e0e0e0"/>
        <path id="Trazado_729820" data-name="Trazado 729820" d="M429.924,300.977a7.175,7.175,0,0,0,2.148-.388,6.569,6.569,0,0,0,4.17-4.535,7.652,7.652,0,0,0,.215-2.221q0-1.189-.006-2.5,0-2.624-.009-5.735c-.005-4.145-.012-8.927-.019-14.309-.016-21.538-.038-52.7-.065-91.2-.008-19.252-.016-40.339-.025-62.976q0-16.979-.01-35.084,0-9.044,0-18.347V61.356c-.006-.775.022-1.566-.046-2.315a6.915,6.915,0,0,0-5.96-6.083,20.3,20.3,0,0,0-2.347-.068h-2.382l-165.617.016a5.717,5.717,0,0,0-5.856,4.432,11.8,11.8,0,0,0-.15,2.682V70.939q0,10.882,0,21.614,0,21.462,0,42.258c0,27.7-.009,54.428-.012,79.885s-.013,49.647-.019,72.286c.007,2.825-.02,5.647.016,8.406a5.721,5.721,0,0,0,1.579,3.622,5.791,5.791,0,0,0,3.5,1.759c.653.067,1.345.038,2.023.045h2.034l4.039,0,7.96,0,30.219.013,91.19.065,24.793.038,6.447.02c1.453.007,2.2.021,2.2.021s-.744.014-2.2.021l-6.447.02-24.793.038-91.19.065-30.219.013-7.96,0-4.039,0h-2.034c-.681-.007-1.355.025-2.061-.046a6.115,6.115,0,0,1-3.7-1.856,6.053,6.053,0,0,1-1.672-3.83c-.039-2.8-.013-5.592-.022-8.426-.006-22.639-.013-46.83-.019-72.286s-.008-52.18-.012-79.885q0-20.778,0-42.258,0-10.73,0-21.614,0-5.44,0-10.916v-1.37a6.616,6.616,0,0,1,.161-1.4,6.236,6.236,0,0,1,1.242-2.524,6.307,6.307,0,0,1,2.247-1.7,6.377,6.377,0,0,1,2.765-.525l165.617.016h2.382a20.33,20.33,0,0,1,2.4.071A7.287,7.287,0,0,1,436.641,59c.071.806.04,1.576.047,2.356v2.329q0,9.3,0,18.347,0,18.087-.01,35.084c-.009,22.637-.017,43.724-.025,62.976-.027,38.5-.049,69.658-.064,91.2-.007,5.383-.013,10.164-.019,14.309q-.006,3.109-.01,5.735,0,1.312,0,2.5a7.714,7.714,0,0,1-.227,2.242,6.6,6.6,0,0,1-4.236,4.553,6.457,6.457,0,0,1-1.609.331c-.368.015-.554.017-.554.017" transform="translate(-54.4 -11.264)" fill="#263238"/>
        <path id="Trazado_729821" data-name="Trazado 729821" d="M318.7,319.6a19.009,19.009,0,1,1-19.312-18.788A19.078,19.078,0,0,1,318.7,319.6m-28.095.453a9.089,9.089,0,1,0,8.942-9.276,9.119,9.119,0,0,0-8.942,9.276" transform="translate(-60.223 -64.538)" fill="#e0e0e0"/>
        <path id="Trazado_729822" data-name="Trazado 729822" d="M323.813,319.594a19.079,19.079,0,0,1-18.7,19.4l-.159-9.965a9.131,9.131,0,0,0-.291-18.259l-.159-9.964a19.07,19.07,0,0,1,19.312,18.787" transform="translate(-65.331 -64.538)" fill="#727997"/>
        <path id="Trazado_729823" data-name="Trazado 729823" d="M301.376,345.418a21.719,21.719,0,0,1-22.239-21.635l11.6-.188c.094,5.89,4.576,9.6,10.438,9.5Z" transform="translate(-59.89 -69.428)" fill="#ffa031"/>
        <path id="Trazado_729824" data-name="Trazado 729824" d="M345.945,322.16a19.009,19.009,0,1,1,19.313,18.788,19.078,19.078,0,0,1-19.313-18.788m28.095-.453a9.089,9.089,0,1,0-8.942,9.277,9.118,9.118,0,0,0,8.942-9.277" transform="translate(-74.223 -64.957)" fill="#727997"/>
        <path id="Trazado_729825" data-name="Trazado 729825" d="M345.945,322.16a19.079,19.079,0,0,1,18.7-19.4l.159,9.965a9.131,9.131,0,0,0,.291,18.259l.159,9.964a19.071,19.071,0,0,1-19.312-18.787" transform="translate(-74.223 -64.958)" fill="#ffa031"/>
        <path id="Trazado_729826" data-name="Trazado 729826" d="M367.583,300.807a21.719,21.719,0,0,1,22.239,21.635l-11.6.188c-.094-5.89-4.576-9.6-10.438-9.5Z" transform="translate(-78.866 -64.538)" fill="#e0e0e0"/>
        <path id="Trazado_729827" data-name="Trazado 729827" d="M432.9,301.118a19.009,19.009,0,1,1-18.788,19.312A19.079,19.079,0,0,1,432.9,301.118m.453,28.095a9.089,9.089,0,1,0-9.276-8.942,9.119,9.119,0,0,0,9.276,8.942" transform="translate(-88.849 -64.605)" fill="#727997"/>
        <path id="Trazado_729828" data-name="Trazado 729828" d="M432.9,301.119a19.079,19.079,0,0,1,19.4,18.7l-9.965.159a9.131,9.131,0,0,0-18.259.292l-9.964.159A19.071,19.071,0,0,1,432.9,301.119" transform="translate(-88.849 -64.605)" fill="#ffa031"/>
        <path id="Trazado_729829" data-name="Trazado 729829" d="M458.728,322.757A21.719,21.719,0,0,1,437.093,345l-.187-11.6c5.889-.094,9.6-4.575,9.5-10.438Z" transform="translate(-93.739 -69.248)" fill="#e0e0e0"/>
      </g>
    </g>
    <g id="Grupo_1030958" data-name="Grupo 1030958">
      <g id="Grupo_1030957" data-name="Grupo 1030957" clip-path="url(#clip-path)">
        <path id="Trazado_729830" data-name="Trazado 729830" d="M148.742,23.149V73.561a3.41,3.41,0,0,0,3.41,3.41h54.08a3.41,3.41,0,0,0,3.41-3.41V23.149a3.41,3.41,0,0,0-3.41-3.41h-54.08a3.41,3.41,0,0,0-3.41,3.41" transform="translate(-31.913 -4.235)" fill="#fafafa"/>
        <path id="Trazado_729831" data-name="Trazado 729831" d="M148.7,23.1a2.259,2.259,0,0,1,.034-.6,3.39,3.39,0,0,1,.707-1.592,3.44,3.44,0,0,1,2.491-1.274c1.128-.024,2.418-.018,3.877-.028l24.689-.064,17.05-.025,4.673-.005,2.394,0,1.21,0a4.6,4.6,0,0,1,1.255.115,3.571,3.571,0,0,1,2.6,2.652,5.281,5.281,0,0,1,.1,1.289q0,2.518,0,5.1c.005,13.782.011,28.934.016,44.836a3.643,3.643,0,0,1-1.287,2.769,3.558,3.558,0,0,1-1.379.721,5.371,5.371,0,0,1-1.517.13h-5.852l-11.44,0L166.7,77.11l-10.07-.008c-1.639-.009-3.227.013-4.84-.021a3.579,3.579,0,0,1-3.238-3.174c-.038-6.164,0-11.848,0-17.068.027-10.416.049-18.846.065-24.687.016-2.906.029-5.165.038-6.712q.014-1.137.02-1.745c.007-.393.021-.595.021-.595s.014.2.021.595.011.987.02,1.745c.009,1.547.022,3.806.038,6.712.016,5.841.038,14.272.065,24.687.014,5.208.029,10.91.046,17.031a3.234,3.234,0,0,0,2.932,2.862c1.552.027,3.183,0,4.809.01l10.07-.009,21.627-.013,11.44,0,5.852,0a4.964,4.964,0,0,0,1.411-.115,3.156,3.156,0,0,0,1.222-.639,3.231,3.231,0,0,0,1.141-2.456c.005-15.9.011-31.054.016-44.836q0-2.585,0-5.1a3.576,3.576,0,0,0-.555-2.28,3.232,3.232,0,0,0-1.869-1.312,4.181,4.181,0,0,0-1.166-.106l-1.21,0-2.394,0-4.673,0-17.05-.025-24.689-.065-3.871-.01a3.357,3.357,0,0,0-2.433,1.206,3.422,3.422,0,0,0-.73,1.547c-.075.385-.057.589-.075.588" transform="translate(-31.868 -4.186)" fill="#263238"/>
        <path id="Trazado_729832" data-name="Trazado 729832" d="M198.466,81.83c0,.1-6.961.178-15.548.178s-15.549-.08-15.549-.178,6.961-.178,15.549-.178,15.548.08,15.548.178" transform="translate(-35.909 -17.519)" fill="#263238"/>
        <path id="Trazado_729833" data-name="Trazado 729833" d="M193.434,85.465c0,.1-3.861.178-8.623.178s-8.624-.08-8.624-.178,3.86-.178,8.624-.178,8.623.08,8.623.178" transform="translate(-37.801 -18.299)" fill="#263238"/>
        <path id="Trazado_729834" data-name="Trazado 729834" d="M188.7,53.6l15.458.213A15.391,15.391,0,0,1,188.7,68.767h-.091Z" transform="translate(-40.466 -11.5)" fill="#455a64"/>
        <path id="Trazado_729835" data-name="Trazado 729835" d="M181.387,46.659l-.217,15.163a15.169,15.169,0,1,1,15.677-15.163Z" transform="translate(-35.6 -6.757)" fill="#ffa031"/>
      </g>
    </g>
    <g id="Grupo_1030963" data-name="Grupo 1030963">
      <g id="Grupo_1030962" data-name="Grupo 1030962" clip-path="url(#clip-path)">
        <path id="Trazado_729836" data-name="Trazado 729836" d="M225.716,413.522l-.529,14.048s14.1,5.256,14.255,7.862l-27.274-.049-.073-21.921Z" transform="translate(-45.506 -88.709)" fill="#455a64"/>
        <path id="Trazado_729837" data-name="Trazado 729837" d="M217.811,429.887a1.113,1.113,0,0,0-.772,1.27,1.07,1.07,0,0,0,1.251.776,1.175,1.175,0,0,0,.811-1.349,1.111,1.111,0,0,0-1.392-.664" transform="translate(-46.561 -92.223)" fill="#e0e0e0"/>
        <path id="Trazado_729838" data-name="Trazado 729838" d="M212.188,440.766l.079-2.21,26.12.874s1.214.53,1.074,1.385Z" transform="translate(-45.525 -94.093)" fill="#263238"/>
        <path id="Trazado_729839" data-name="Trazado 729839" d="M228.645,431.214c0,.134-.671.192-1.327.619-.668.41-1.006.987-1.129.934-.123-.026.078-.822.88-1.325s1.6-.35,1.575-.228" transform="translate(-48.523 -92.491)" fill="#fff"/>
        <path id="Trazado_729840" data-name="Trazado 729840" d="M232.47,432.746c.031.129-.547.354-1,.917-.47.55-.584,1.159-.717,1.152-.126.021-.216-.759.361-1.448s1.355-.748,1.357-.621" transform="translate(-49.488 -92.835)" fill="#fff"/>
        <path id="Trazado_729841" data-name="Trazado 729841" d="M234.982,436.5c-.121.028-.3-.638.038-1.367s.966-1.018,1.023-.906c.075.11-.33.5-.6,1.1s-.326,1.158-.459,1.17" transform="translate(-50.382 -93.159)" fill="#fff"/>
        <path id="Trazado_729842" data-name="Trazado 729842" d="M228.252,427.024c-.056.122-.667-.064-1.419-.013-.754.034-1.341.286-1.41.171-.077-.1.5-.588,1.384-.635s1.511.372,1.445.477" transform="translate(-48.364 -91.516)" fill="#fff"/>
        <path id="Trazado_729843" data-name="Trazado 729843" d="M184.362,414.646l-.757,16.991,3.275,13.611a1.742,1.742,0,0,1-2.923,1.642c-2.54-2.544-11.589-12.078-11.627-12.987-.06-1.442-.479-18.181-.479-18.181Z" transform="translate(-36.871 -88.963)" fill="#455a64"/>
        <path id="Trazado_729844" data-name="Trazado 729844" d="M185.587,452.264l-13.211-14.823-.016.72a2.743,2.743,0,0,0,.585,1.714c1.052,1.292,4.035,4.8,11.07,11.906a1.742,1.742,0,0,0,1.572.483" transform="translate(-36.98 -93.854)" fill="#263238"/>
        <g id="Grupo_1030961" data-name="Grupo 1030961" transform="translate(137.453 338.001)" opacity="0.6">
          <g id="Grupo_1030960" data-name="Grupo 1030960">
            <g id="Grupo_1030959" data-name="Grupo 1030959" clip-path="url(#clip-path-9)">
              <path id="Trazado_729845" data-name="Trazado 729845" d="M176.55,430.506a1.054,1.054,0,0,1,.258,1.383,1.013,1.013,0,0,1-1.368.268,1.111,1.111,0,0,1-.266-1.466,1.052,1.052,0,0,1,1.455-.122" transform="translate(-175 -430.329)" fill="#fff"/>
            </g>
          </g>
        </g>
        <path id="Trazado_729846" data-name="Trazado 729846" d="M184.454,446.231a3.758,3.758,0,0,1,3.485-1.622c.015-.042-.2-.178-.594-.243a2.779,2.779,0,0,0-2.7,1.255c-.2.345-.237.6-.195.61" transform="translate(-39.571 -95.334)" fill="#fff"/>
        <path id="Trazado_729847" data-name="Trazado 729847" d="M185.934,449.363a14.191,14.191,0,0,1,1.522-.7,14.159,14.159,0,0,1,1.665-.178,1.936,1.936,0,0,0-1.765-.182c-1.007.272-1.51,1.011-1.422,1.059" transform="translate(-39.891 -96.163)" fill="#fff"/>
        <path id="Trazado_729848" data-name="Trazado 729848" d="M181.666,442.447a17.378,17.378,0,0,1,2.275-1.236,17.307,17.307,0,0,1,2.535-.533,4.763,4.763,0,0,0-4.811,1.77" transform="translate(-38.976 -94.517)" fill="#fff"/>
        <path id="Trazado_729849" data-name="Trazado 729849" d="M181.411,436.189c.043.1.991-.269,2.214-.287,1.223-.035,2.186.3,2.224.192a4.322,4.322,0,0,0-4.439.094" transform="translate(-38.922 -93.443)" fill="#fff"/>
        <path id="Trazado_729850" data-name="Trazado 729850" d="M181.533,429.811a5.536,5.536,0,0,1,4.539.255c.029-.035-.152-.252-.539-.488a3.8,3.8,0,0,0-3.41-.191c-.411.189-.615.386-.591.423" transform="translate(-38.948 -92.059)" fill="#fff"/>
        <path id="Trazado_729851" data-name="Trazado 729851" d="M183.806,427.424a1.461,1.461,0,0,0,.038-.642,4.468,4.468,0,0,0-.475-1.7,1.982,1.982,0,0,0-.829-.965.7.7,0,0,0-.792.139,1.14,1.14,0,0,0-.286.762,2.464,2.464,0,0,0,2.109,2.325,2.856,2.856,0,0,0,2.838-1.433.994.994,0,0,0,.064-.824.688.688,0,0,0-.711-.379,2.438,2.438,0,0,0-1.133.558,4.981,4.981,0,0,0-1.189,1.3,1.537,1.537,0,0,0-.274.581,7.986,7.986,0,0,1,1.619-1.664,2.278,2.278,0,0,1,1-.462.364.364,0,0,1,.388.2.681.681,0,0,1-.074.539,2.553,2.553,0,0,1-2.475,1.214,2.139,2.139,0,0,1-1.818-1.949.825.825,0,0,1,.177-.54.38.38,0,0,1,.437-.083,1.789,1.789,0,0,1,.716.8,6.594,6.594,0,0,1,.671,2.214" transform="translate(-38.933 -90.982)" fill="#fff"/>
        <path id="Trazado_729852" data-name="Trazado 729852" d="M225.244,263.454a60.389,60.389,0,0,1,2.069,17.689c-.13,3.784-8.431,108.646-8.431,108.646l-17.182.729.672-98.255-1.394.365s-7.605,42.216-8.084,49.019c-.43,6.115-6.464,50.663-6.464,50.663l-15.647-.43,2.482-57.416,3.459-56.361,1.5-16.428Z" transform="translate(-36.642 -56.143)" fill="#12263f"/>
        <path id="Trazado_729853" data-name="Trazado 729853" d="M207.012,284.16a3.356,3.356,0,0,0,.734.374,8.312,8.312,0,0,0,2.16.654,4.485,4.485,0,0,0,1.583-.056,3.257,3.257,0,0,0,1.621-.865,3.932,3.932,0,0,0,.929-1.8c.174-.676.261-1.375.373-2.087.427-2.853.689-5.453.826-7.337.069-.943.108-1.706.126-2.234a3.6,3.6,0,0,0-.013-.823,3.6,3.6,0,0,0-.128.812c-.065.6-.145,1.344-.24,2.221-.2,1.875-.5,4.462-.93,7.307-.218,1.406-.346,2.835-1.183,3.7a3.57,3.57,0,0,1-2.934.9,9.67,9.67,0,0,1-2.138-.53,3.884,3.884,0,0,0-.785-.242" transform="translate(-44.415 -57.927)" fill="#455a64"/>
        <path id="Trazado_729854" data-name="Trazado 729854" d="M212.339,270.8c0-.016-.115-.085-.357-.09a1.541,1.541,0,0,0-.949.35,1.717,1.717,0,0,0-.667,1.358,1.7,1.7,0,0,0,2.946.965,1.716,1.716,0,0,0,.265-1.489,1.535,1.535,0,0,0-.558-.843c-.2-.14-.335-.156-.341-.14a1.949,1.949,0,0,1,.648,1.042,1.5,1.5,0,0,1-.275,1.22,1.394,1.394,0,0,1-2.351-.77,1.507,1.507,0,0,1,.5-1.147,1.941,1.941,0,0,1,1.139-.456" transform="translate(-45.134 -58.081)" fill="#455a64"/>
        <path id="Trazado_729855" data-name="Trazado 729855" d="M178.6,279.61a1.843,1.843,0,0,0,.589.067,10.928,10.928,0,0,0,1.611-.05,15.622,15.622,0,0,0,9.475-4.472,10.939,10.939,0,0,0,1.063-1.213,1.905,1.905,0,0,0,.324-.5c-.051-.04-.576.615-1.565,1.525a17.345,17.345,0,0,1-9.326,4.4c-1.331.185-2.17.174-2.17.239" transform="translate(-38.318 -58.668)" fill="#455a64"/>
        <path id="Trazado_729856" data-name="Trazado 729856" d="M261.864,190.155l9.521-18.955,7.239,3.676-6.2,21.187Z" transform="translate(-56.183 -36.731)" fill="#ffc09d"/>
        <path id="Trazado_729857" data-name="Trazado 729857" d="M283.046,168.565c1.071-1.771,2.345-3.7,2.345-3.7l1.04-1.777a2.357,2.357,0,0,1,.238.338,1.536,1.536,0,0,0,.5.588,1.23,1.23,0,0,0,1.353-.331,3.005,3.005,0,0,0,.9-2.832,2.964,2.964,0,0,0-1.917-2.108,2.178,2.178,0,0,0-.544-.649c-1.5-1.215-4.186-.38-4.186-.38l.277-.672s1.6-1.587,5.134-.356a2.3,2.3,0,0,0,1.635-.025,1.171,1.171,0,0,0,.717-.7c.278-.868-.265-1.286-2.462-2.084s-4.586-.841-5.9.023a15.667,15.667,0,0,0-1.773,1.286s2.144-6.211,2.264-6.61c.347-1.153.122-2.271-.625-2.572-.479-.193-1.228-.082-1.674,1.247-.385,1.151-5.834,12.449-5.834,12.449l-2.118,5.138-1.058,4.521,6.592,3,1.659-1.035a6.427,6.427,0,0,0,3.436-2.757" transform="translate(-58.221 -31.31)" fill="#ffc09d"/>
        <path id="Trazado_729858" data-name="Trazado 729858" d="M274.193,168.226a1.722,1.722,0,0,0,1.971-.328c.547-.463.922-1.095,1.435-1.594,1.532-1.5,4.063-1.62,5.522-3.187.2-.218.386-.551.217-.794-.157-.225-.494-.2-.765-.146l-6.961,1.325" transform="translate(-58.829 -34.788)" fill="#ffc09d"/>
        <path id="Trazado_729859" data-name="Trazado 729859" d="M275.611,163.446a2.847,2.847,0,0,1,.739-.22c.48-.116,1.177-.271,2.041-.454l3.037-.621.879-.174a1.406,1.406,0,0,1,1.06.042.592.592,0,0,1,.218.629,1.23,1.23,0,0,1-.28.508,4.718,4.718,0,0,1-.792.683,27.379,27.379,0,0,1-3.456,1.63,5.393,5.393,0,0,0-1.331.888c-.363.342-.649.733-.95,1.066a2.514,2.514,0,0,1-1.854,1.016c-.533-.013-.746-.265-.729-.269a2.057,2.057,0,0,0,.724.112,2.434,2.434,0,0,0,1.643-1.045c.278-.332.551-.736.934-1.12a5.544,5.544,0,0,1,1.4-.979,31.787,31.787,0,0,0,3.395-1.63A4.383,4.383,0,0,0,283,162.9c.2-.218.269-.482.13-.556-.139-.1-.459-.044-.756.016l-.881.161-3.052.536c-.87.147-1.576.259-2.064.328a2.842,2.842,0,0,1-.767.066" transform="translate(-58.829 -34.734)" fill="#ff9b6c"/>
        <path id="Trazado_729860" data-name="Trazado 729860" d="M285.771,160.341a2.933,2.933,0,0,1,.812-1.064,2.269,2.269,0,0,1,1.348-.431,5.784,5.784,0,0,1,1.765.309,9.234,9.234,0,0,0,1.811.423,2.983,2.983,0,0,0,1.529-.225,1.166,1.166,0,0,0,.661-.805.67.67,0,0,0,0-.38c-.025,0-.025.134-.1.354a1.1,1.1,0,0,1-.64.665,2.97,2.97,0,0,1-1.426.152,10.178,10.178,0,0,1-1.76-.434,5.6,5.6,0,0,0-1.847-.3,2.384,2.384,0,0,0-1.455.526,2.114,2.114,0,0,0-.616.838.725.725,0,0,0-.082.37" transform="translate(-61.312 -33.935)" fill="#ff9b6c"/>
        <path id="Trazado_729861" data-name="Trazado 729861" d="M285.15,148.732a7.419,7.419,0,0,0-.434,1.232c-.276.852-.606,1.868-.97,2.99-.382,1.118-.727,2.129-1.016,2.977a7.355,7.355,0,0,0-.39,1.247A5.863,5.863,0,0,0,282.9,156c.309-.746.7-1.792,1.09-2.96s.7-2.239.9-3.021a5.852,5.852,0,0,0,.258-1.282" transform="translate(-60.576 -31.911)" fill="#ff9b6c"/>
        <path id="Trazado_729862" data-name="Trazado 729862" d="M286.963,163.184a1.572,1.572,0,0,0,.409-.022,1.21,1.21,0,0,1,.973.268.645.645,0,0,1,.148.623,3.478,3.478,0,0,1-.329.785,1.458,1.458,0,0,0-.18,1.023,1.23,1.23,0,0,0,.783.8,1.424,1.424,0,0,0,1.117-.1,1.792,1.792,0,0,0,.752-.716,5.762,5.762,0,0,0,.511-1.6,3.353,3.353,0,0,0,.028-1.129.748.748,0,0,0-.152-.386c-.022.009.031.145.051.4a4.005,4.005,0,0,1-.108,1.082,6.187,6.187,0,0,1-.54,1.52,1.416,1.416,0,0,1-1.571.688.99.99,0,0,1-.626-.628,1.247,1.247,0,0,1,.151-.853,3.45,3.45,0,0,0,.324-.849.832.832,0,0,0-.232-.792,1.266,1.266,0,0,0-1.115-.236,1.069,1.069,0,0,0-.4.122" transform="translate(-61.569 -34.914)" fill="#ff9b6c"/>
        <path id="Trazado_729863" data-name="Trazado 729863" d="M290.611,166.267c-.011-.006-.09.115-.084.363a1.124,1.124,0,0,0,.509.876,1.52,1.52,0,0,0,1.506.026,2.506,2.506,0,0,0,1.16-1.44,2.982,2.982,0,0,0,.027-1.836,2.834,2.834,0,0,0-.812-1.255,2.7,2.7,0,0,0-.856-.524.78.78,0,0,0-.36-.079,4.672,4.672,0,0,1,1.088.737,2.793,2.793,0,0,1,.71,1.192,2.847,2.847,0,0,1-.043,1.685,2.325,2.325,0,0,1-1.024,1.309,1.349,1.349,0,0,1-1.3.029,1.064,1.064,0,0,1-.505-.73c-.036-.219,0-.346-.017-.352" transform="translate(-62.333 -34.842)" fill="#ff9b6c"/>
        <path id="Trazado_729864" data-name="Trazado 729864" d="M282.768,169.855c.009-.022-.2-.141-.6-.187a2.488,2.488,0,0,0-1.561.36l.189.13a7.15,7.15,0,0,0,.142-.875,5.558,5.558,0,0,0-.411-3.018,14.151,14.151,0,0,1,.152,2.995c-.03.3-.075.586-.126.848l-.057.291.246-.161a2.611,2.611,0,0,1,1.418-.412c.375,0,.6.064.608.031" transform="translate(-60.181 -35.672)" fill="#ff9b6c"/>
        <path id="Trazado_729865" data-name="Trazado 729865" d="M288.07,157.393c-.068.01.022.535.491.948s1,.448,1,.379-.425-.207-.827-.573-.594-.778-.665-.754" transform="translate(-61.802 -33.769)" fill="#ff9b6c"/>
        <path id="Trazado_729866" data-name="Trazado 729866" d="M272.086,179.907l-9.623-4.949-8.252,13.258L239.4,176.146a23.01,23.01,0,0,0-8.678-4.135l-.837,2.634,2.576,21.762s16.621,10.523,20.953,10.953c9.044.9,18.667-27.454,18.667-27.454" transform="translate(-49.323 -36.905)" fill="#4db1f0"/>
        <path id="Trazado_729867" data-name="Trazado 729867" d="M225.053,218.226l-1.86-30.642-4.458-16.025L204.741,169.9l-16.667,1.017L174,178.793l2.316,24.592,3.394,25.763-2.044,20.409c2.884,2.679,12.091,6.079,25.917,5.244a48.905,48.905,0,0,0,23.024-7.21Z" transform="translate(-37.332 -36.454)" fill="#4db1f0"/>
        <path id="Trazado_729868" data-name="Trazado 729868" d="M160.311,262.992c0-.633-6.628-32.975-6.512-34.491.913-11.91,6.7-31,8.466-36.981,2.66-9.032,8.041-10.64,8.041-10.64a37.7,37.7,0,0,1,4.231,10.234c1.9,6.806-.02,14.061-.02,14.061L169.1,227.146l3.4,34.89Z" transform="translate(-32.998 -38.808)" fill="#4db1f0"/>
        <path id="Trazado_729869" data-name="Trazado 729869" d="M234.17,187.027a7.684,7.684,0,0,1,.411,1.223c.247.793.55,1.955.885,3.4s.662,3.187.928,5.134.467,4.1.606,6.357c.263,4.523.368,8.612.535,11.569.08,1.425.145,2.605.2,3.5a7.742,7.742,0,0,1,.027,1.289,7.876,7.876,0,0,1-.185-1.276c-.1-.823-.206-2.019-.325-3.5-.242-2.956-.393-7.053-.655-11.562-.138-2.253-.328-4.395-.571-6.333s-.552-3.673-.838-5.123-.557-2.618-.756-3.421a7.766,7.766,0,0,1-.257-1.264" transform="translate(-50.241 -40.127)" fill="#263238"/>
        <path id="Trazado_729870" data-name="Trazado 729870" d="M261.7,202.584a4.721,4.721,0,0,1-.673-1.45,15.924,15.924,0,0,1-.806-3.776,16.324,16.324,0,0,1,.1-3.859,4.776,4.776,0,0,1,.389-1.55,39.421,39.421,0,0,0-.083,5.372,36.623,36.623,0,0,0,1.071,5.262" transform="translate(-55.816 -41.183)" fill="#263238"/>
        <path id="Trazado_729871" data-name="Trazado 729871" d="M178.741,212.531c.11.027-.969,4.743-2.408,10.533s-2.7,10.461-2.806,10.434.968-4.742,2.409-10.533,2.7-10.461,2.806-10.434" transform="translate(-37.229 -45.599)" fill="#263238"/>
        <path id="Trazado_729872" data-name="Trazado 729872" d="M178.4,196.381c-.115.051-.959-1.9-2.509-3.975s-3.154-3.463-3.072-3.559a14.865,14.865,0,0,1,5.581,7.534" transform="translate(-37.079 -40.517)" fill="#263238"/>
        <path id="Trazado_729873" data-name="Trazado 729873" d="M211.326,281.3a32.063,32.063,0,1,1-23.165,17.98,31.907,31.907,0,0,1,23.165-17.98m11.437,60.921a29.9,29.9,0,1,0-18.15-2.271,29.913,29.913,0,0,0,18.15,2.271" transform="translate(-39.724 -60.233)" fill="#455a64"/>
        <path id="Trazado_729874" data-name="Trazado 729874" d="M216.771,346.024a33.766,33.766,0,1,1,11.566-2.059,33.442,33.442,0,0,1-11.566,2.059m.065-62.031a28.437,28.437,0,1,0,11.959,2.666,28.412,28.412,0,0,0-11.959-2.666" transform="translate(-39.301 -59.809)" fill="#e0e0e0"/>
        <path id="Trazado_729875" data-name="Trazado 729875" d="M126.586,280.923l.284-.7c.609-1.5,1.942-2.367,2.978-1.946l46.873,19.071c.232.093.308.441.173.774l-2,4.908c-.136.335-.434.529-.664.434L127.358,284.4c-1.036-.421-1.382-1.976-.772-3.472" transform="translate(-27.095 -59.683)" fill="#e0e0e0"/>
        <path id="Trazado_729876" data-name="Trazado 729876" d="M232.52,307.727c.072.085-6.031,5.427-13.632,11.929s-13.822,11.709-13.9,11.624,6.031-5.425,13.634-11.93,13.822-11.708,13.894-11.623" transform="translate(-43.982 -66.023)" fill="#fff"/>
        <path id="Trazado_729877" data-name="Trazado 729877" d="M243.691,307.727c.072.085-5.068,4.622-11.481,10.135s-11.673,9.915-11.745,9.83,5.067-4.622,11.482-10.135,11.672-9.913,11.744-9.829" transform="translate(-47.301 -66.023)" fill="#fff"/>
        <path id="Trazado_729878" data-name="Trazado 729878" d="M248.074,313.216s-.022-.167-.046-.492-.053-.82-.093-1.444q-.029-.478-.064-1.064c-.042-.39-.124-.812-.193-1.272s-.152-.953-.235-1.481a16.617,16.617,0,0,0-.4-1.659,29.014,29.014,0,0,0-3.37-8.072,30.26,30.26,0,0,0-7.708-8.594l-1.31-.976c-.46-.3-.945-.577-1.424-.873-.489-.278-.952-.616-1.477-.854l-1.572-.753-.8-.379-.84-.306-1.7-.62c-.579-.191-1.184-.314-1.783-.477a15.328,15.328,0,0,0-1.832-.415,28.124,28.124,0,0,0-3.827-.442c-.653-.023-1.31-.086-1.972-.076l-2,.1c-.336.024-.675.021-1.011.066l-1.009.155c-.673.112-1.358.191-2.035.331a31.976,31.976,0,0,0-4.033,1.184,31.491,31.491,0,0,0-3.944,1.733c-.639.346-1.251.75-1.883,1.125-.309.2-.64.368-.935.591l-.89.667a27.685,27.685,0,0,0-6.394,6.42l-.7.931-.609.994-.608,1a7.488,7.488,0,0,0-.563,1.031l-1.027,2.132q-.409,1.115-.821,2.239a29.967,29.967,0,0,0,0,19.08l.82,2.24,1.027,2.133.258.529.3.5.608,1,.609,1,.7.931a27.695,27.695,0,0,0,6.394,6.422l.891.668c.295.223.625.392.935.591.632.375,1.245.778,1.884,1.125a31.561,31.561,0,0,0,3.945,1.734,32.03,32.03,0,0,0,4.034,1.184c.677.14,1.362.218,2.035.331l1.009.155c.335.045.675.042,1.011.066l2,.1c.663.009,1.32-.053,1.973-.076a28.114,28.114,0,0,0,3.827-.443,15.469,15.469,0,0,0,1.832-.414c.6-.163,1.2-.286,1.784-.478l1.7-.621.84-.306.8-.379,1.572-.754c.525-.238.988-.576,1.477-.854.479-.3.964-.571,1.424-.873l1.309-.976a30.237,30.237,0,0,0,7.707-8.594,28.987,28.987,0,0,0,3.37-8.07,16.453,16.453,0,0,0,.4-1.659q.126-.792.235-1.481c.069-.459.152-.881.193-1.271q.034-.584.064-1.064c.04-.624.071-1.1.093-1.444s.046-.492.046-.492.005.167,0,.493-.03.822-.053,1.448q-.02.48-.044,1.068c-.035.391-.112.816-.175,1.278s-.14.959-.218,1.49a16.179,16.179,0,0,1-.382,1.671,28.859,28.859,0,0,1-3.328,8.148,30.357,30.357,0,0,1-7.728,8.706l-1.318.99c-.463.306-.952.588-1.434.887-.492.284-.96.626-1.488.868l-1.586.767-.807.386-.848.312-1.719.633c-.584.195-1.2.322-1.8.488a15.583,15.583,0,0,1-1.851.425,28.456,28.456,0,0,1-3.868.458c-.66.025-1.325.09-2,.082l-2.026-.1c-.339-.023-.683-.02-1.023-.064l-1.021-.155c-.682-.111-1.375-.19-2.061-.331a32.27,32.27,0,0,1-4.085-1.19,31.832,31.832,0,0,1-4-1.75c-.647-.35-1.268-.756-1.909-1.136-.314-.2-.649-.372-.947-.6l-.9-.674a34.223,34.223,0,0,1-3.478-2.949,34.611,34.611,0,0,1-3.006-3.548l-.7-.943-.618-1.008-.617-1.014-.309-.509-.262-.536-1.042-2.161-.833-2.27a30.333,30.333,0,0,1,0-19.333q.417-1.138.833-2.268.523-1.084,1.041-2.16a7.691,7.691,0,0,1,.572-1.045l.617-1.014.618-1.007.7-.943a28.041,28.041,0,0,1,6.482-6.5l.9-.674c.3-.225.634-.4.947-.6.641-.379,1.261-.786,1.909-1.136a33.39,33.39,0,0,1,8.081-2.939c.685-.141,1.378-.22,2.06-.331l1.021-.155c.339-.044.683-.042,1.023-.064l2.026-.1c.67-.009,1.334.057,1.994.081a28.582,28.582,0,0,1,3.868.458,15.583,15.583,0,0,1,1.85.425c.606.166,1.217.293,1.8.488l1.72.632.848.313.807.385,1.585.767c.529.242,1,.585,1.488.868.483.3.971.58,1.434.887l1.319.99a30.343,30.343,0,0,1,7.728,8.705,28.849,28.849,0,0,1,3.33,8.149,16.446,16.446,0,0,1,.382,1.671q.117.8.218,1.49c.063.462.14.887.175,1.278q.024.588.044,1.068c.023.627.041,1.108.053,1.449s0,.493,0,.493" transform="translate(-40.123 -60.636)" fill="#263238"/>
        <path id="Trazado_729879" data-name="Trazado 729879" d="M250.454,333.809a9.416,9.416,0,0,1,.762-1.036,28.893,28.893,0,0,0,1.938-2.9,26.735,26.735,0,0,0,2.326-22.161,29.237,29.237,0,0,0-1.293-3.241,9.446,9.446,0,0,1-.532-1.172c.012-.006.078.087.193.273s.289.459.479.828a23.3,23.3,0,0,1,1.422,3.219,25.906,25.906,0,0,1-2.349,22.4,23.543,23.543,0,0,1-2.06,2.854c-.262.322-.492.55-.64.711s-.236.236-.245.227" transform="translate(-53.735 -65.073)" fill="#263238"/>
        <path id="Trazado_729880" data-name="Trazado 729880" d="M248.061,345.676c.055.1-.184.338-.534.537s-.679.284-.734.188.184-.338.534-.537.679-.284.734-.188" transform="translate(-52.948 -74.157)" fill="#263238"/>
        <path id="Trazado_729881" data-name="Trazado 729881" d="M196.89,328.338a1.578,1.578,0,0,1-.189-.364c-.105-.246-.281-.6-.455-1.08a27.432,27.432,0,0,1-1.228-4.135,29.791,29.791,0,0,1,7.165-26.528,27.386,27.386,0,0,1,3.143-2.953c.39-.326.722-.545.936-.7a1.559,1.559,0,0,1,.346-.219,15.45,15.45,0,0,1-1.182,1.044,32.437,32.437,0,0,0-3.032,3.023,30.477,30.477,0,0,0-7.1,26.28,32.5,32.5,0,0,0,1.1,4.139,15.173,15.173,0,0,1,.5,1.5" transform="translate(-41.696 -62.725)" fill="#fff"/>
        <path id="Trazado_729882" data-name="Trazado 729882" d="M219.477,289.823a8.273,8.273,0,0,1-3.619.3,8.273,8.273,0,0,1,3.619-.3" transform="translate(-46.313 -62.161)" fill="#fff"/>
        <path id="Trazado_729883" data-name="Trazado 729883" d="M172.808,284.366l.222,1.746,3.387,4.043,2.418,6.216-3.652-1.438s-1.563,7.477-2.177,7.676-2.37-.412-2.193-1.846a2.385,2.385,0,0,1-1.974.652c-1.1-.229-1.358-.937-1.238-2.3,0,0-1.279,1.042-2.044.393a2.358,2.358,0,0,1-.693-1.78s-1.665.145-1.894-.721a14.37,14.37,0,0,1-.093-4.271c.2-.94,1-4.78,1-4.78l-.617-2.758Z" transform="translate(-34.921 -61.011)" fill="#ffc09d"/>
        <path id="Trazado_729884" data-name="Trazado 729884" d="M173.826,299.754a14.005,14.005,0,0,0-.822,4.312,14,14,0,0,0,.822-4.312" transform="translate(-37.111 -64.313)" fill="#ff9b6c"/>
        <path id="Trazado_729885" data-name="Trazado 729885" d="M169.538,298.654a9.04,9.04,0,0,0-.693,3.453,9.048,9.048,0,0,0,.693-3.453" transform="translate(-36.218 -64.077)" fill="#ff9b6c"/>
        <path id="Trazado_729886" data-name="Trazado 729886" d="M165.981,297.641c-.1-.006-.181.669-.3,1.466a6.4,6.4,0,0,0-.244,1.468,2.352,2.352,0,0,0,.586-1.411,2.79,2.79,0,0,0-.038-1.522" transform="translate(-35.489 -63.86)" fill="#ff9b6c"/>
        <path id="Trazado_729887" data-name="Trazado 729887" d="M178.652,295.073a20.584,20.584,0,0,0-1.016,4.206,10.207,10.207,0,0,0,1.016-4.206" transform="translate(-38.108 -63.309)" fill="#ff9b6c"/>
        <path id="Trazado_729888" data-name="Trazado 729888" d="M189.59,145.333a53.881,53.881,0,0,1-2.668-8.91,18.82,18.82,0,0,1,.405-9.208c.148-.446,1.438-3.454,1.908-3.425.335.021-.426,2.811-.246,3.1a15.967,15.967,0,0,1,2.132,9.239,42.052,42.052,0,0,1-1.531,9.209" transform="translate(-40.023 -26.559)" fill="#263238"/>
        <path id="Trazado_729889" data-name="Trazado 729889" d="M215.322,130.154a13.784,13.784,0,0,0-13.518-12.91l-.845-.015c-7.779.319-11.257,7.288-10.724,15.055l1.312,27.335,2.645,2.561a8.5,8.5,0,0,0,14.022-3.579c-.057-2.191.088-2.034.1-2.035,0,0,7.491-1.031,7.713-8.5.108-3.63-.28-11.146-.708-17.914" transform="translate(-40.804 -25.152)" fill="#ffc09d"/>
        <path id="Trazado_729890" data-name="Trazado 729890" d="M210.628,166.482a18.048,18.048,0,0,1-9.675-3.044s2.276,5.474,9.741,4.931Z" transform="translate(-43.115 -35.066)" fill="#ff9b6c"/>
        <path id="Trazado_729891" data-name="Trazado 729891" d="M218.713,142.424a1.067,1.067,0,0,1-1.047,1.059,1.021,1.021,0,0,1-1.083-.981,1.067,1.067,0,0,1,1.046-1.06,1.022,1.022,0,0,1,1.084.982" transform="translate(-46.468 -30.347)" fill="#263238"/>
        <path id="Trazado_729892" data-name="Trazado 729892" d="M206.066,142.311a1.067,1.067,0,0,1-1.047,1.059,1.021,1.021,0,0,1-1.083-.981,1.067,1.067,0,0,1,1.046-1.06,1.022,1.022,0,0,1,1.084.982" transform="translate(-43.755 -30.322)" fill="#263238"/>
        <path id="Trazado_729893" data-name="Trazado 729893" d="M218.639,138.614c-.135.137-.932-.475-2.081-.492-1.146-.033-2,.543-2.121.4-.06-.063.079-.312.45-.573a2.931,2.931,0,0,1,1.7-.492,2.82,2.82,0,0,1,1.653.566c.349.277.464.531.4.592" transform="translate(-46.005 -29.491)" fill="#263238"/>
        <path id="Trazado_729894" data-name="Trazado 729894" d="M205.025,138.665c-.135.137-.934-.475-2.081-.492-1.146-.033-2,.543-2.121.4-.06-.064.078-.312.451-.573a2.926,2.926,0,0,1,1.7-.492,2.815,2.815,0,0,1,1.653.566c.347.277.463.531.4.592" transform="translate(-43.084 -29.502)" fill="#263238"/>
        <path id="Trazado_729895" data-name="Trazado 729895" d="M210.781,147.83a7.63,7.63,0,0,1,1.87-.3c.294-.025.572-.079.624-.278a1.489,1.489,0,0,0-.18-.872q-.4-1.071-.828-2.247a38.314,38.314,0,0,1-1.845-5.872,38.494,38.494,0,0,1,2.313,5.709c.276.789.54,1.541.791,2.261a1.694,1.694,0,0,1,.132,1.152.733.733,0,0,1-.489.42,1.988,1.988,0,0,1-.5.061,7.507,7.507,0,0,1-1.89-.031" transform="translate(-45.144 -29.663)" fill="#263238"/>
        <path id="Trazado_729896" data-name="Trazado 729896" d="M204.621,134.02c-.141.3-1.27.05-2.626.091-1.357.013-2.474.309-2.627.013-.068-.141.148-.415.613-.677a4.565,4.565,0,0,1,4-.08c.474.243.7.51.639.653" transform="translate(-42.772 -28.524)" fill="#263238"/>
        <path id="Trazado_729897" data-name="Trazado 729897" d="M219.137,133.255c-.174.3-1.13.236-2.213.458-1.089.189-1.958.6-2.226.383-.121-.109-.032-.4.315-.723a3.508,3.508,0,0,1,1.7-.807,3.455,3.455,0,0,1,1.873.13c.438.178.62.414.547.56" transform="translate(-46.053 -28.427)" fill="#263238"/>
        <path id="Trazado_729898" data-name="Trazado 729898" d="M189.525,143.312c-.126-.057-5.106-1.608-5.032,3.5s5.189,3.981,5.195,3.835-.163-7.337-.163-7.337" transform="translate(-39.583 -30.691)" fill="#ffc09d"/>
        <path id="Trazado_729899" data-name="Trazado 729899" d="M188.346,149.214c-.024-.016-.089.064-.239.135a.889.889,0,0,1-.664.023,2.2,2.2,0,0,1-1.048-1.961,2.943,2.943,0,0,1,.23-1.278,1.031,1.031,0,0,1,.66-.693.452.452,0,0,1,.529.236c.071.141.04.244.068.253s.108-.087.064-.3a.564.564,0,0,0-.206-.317.67.67,0,0,0-.493-.123,1.252,1.252,0,0,0-.919.806,3.022,3.022,0,0,0-.288,1.429,2.312,2.312,0,0,0,1.331,2.187.95.95,0,0,0,.812-.147c.156-.129.182-.243.165-.252" transform="translate(-39.914 -31.15)" fill="#ff9b6c"/>
        <path id="Trazado_729900" data-name="Trazado 729900" d="M211.11,121.653c.816-.475-1.728-3.095-3.781-3.97-3.1-1.321-7.812-2.07-10.625-1.2-3.386,1.046-6.179,2.808-7.818,5.951a20.1,20.1,0,0,0-2.016,10.312,6.1,6.1,0,0,0,.793,3.1c.74,1.113,2.125,1.792,2.1,3.352a2.139,2.139,0,0,0,.567,1.547c.957.973,2.079.012,2.583-.937,1.076-2.027,1.145-4.419,1.191-6.713a14.921,14.921,0,0,0-.437-4.851c-.269-.846-.69-1.642-.913-2.5a3.069,3.069,0,0,1,.3-2.559,3.2,3.2,0,0,1,.4-.429,5.328,5.328,0,0,1,5.262-1.129c2.9.95,7.849,2.356,9.109,1.349a7.874,7.874,0,0,0,2.234-2.374Z" transform="translate(-40.086 -24.911)" fill="#12263f"/>
        <path id="Trazado_729901" data-name="Trazado 729901" d="M210.593,153.814c.02.083-.262.249-.774.313a3.77,3.77,0,0,1-3.469-1.651c-.273-.438-.322-.76-.246-.8.171-.09.79.917,2.043,1.491,1.236.609,2.407.455,2.446.643" transform="translate(-44.213 -32.542)" fill="#263238"/>
        <path id="Trazado_729902" data-name="Trazado 729902" d="M189.109,171.611l2.063-4.246,12.111,5.765,4.871-5.057,1.269,2.94-6.14,6.967h-2.638L195.113,177Z" transform="translate(-40.574 -35.909)" fill="#4db1f0"/>
        <path id="Trazado_729903" data-name="Trazado 729903" d="M203.016,174.356a5.185,5.185,0,0,1-.461,1.449,15.923,15.923,0,0,1-1.949,3.4l-.1.133-.146-.085-2.962-1.721c-2.1-1.236-3.995-2.374-5.354-3.215a16.308,16.308,0,0,1-2.157-1.434,16.163,16.163,0,0,1,2.3,1.185c1.4.778,3.312,1.876,5.415,3.111l2.945,1.748-.245.049a26.621,26.621,0,0,0,2.711-4.621" transform="translate(-40.741 -37.092)" fill="#263238"/>
        <path id="Trazado_729904" data-name="Trazado 729904" d="M213,169.64a4.753,4.753,0,0,1,.09,1.909,10.257,10.257,0,0,1-1.453,4.38,9.9,9.9,0,0,1-1.389,1.79l-.136.139-.136-.134a13.6,13.6,0,0,1-1.942-2.389,3.469,3.469,0,0,1-.547-1.071,33.633,33.633,0,0,0,2.755,3.183l-.272.006a10.579,10.579,0,0,0,1.316-1.737,11.388,11.388,0,0,0,1.515-4.2c.178-1.144.126-1.872.2-1.875" transform="translate(-44.516 -36.397)" fill="#263238"/>
        <path id="Trazado_729905" data-name="Trazado 729905" d="M215.172,254.407a.787.787,0,0,1-.022-.205c-.006-.159-.014-.357-.024-.6-.013-.561-.03-1.333-.052-2.312-.029-2.007-.1-4.911-.208-8.5-.232-7.171-.723-17.079-1.9-27.963-.6-5.442-1.312-10.609-2.053-15.294-.778-4.679-1.541-8.883-2.292-12.391-.347-1.76-.717-3.34-1.026-4.732s-.584-2.587-.825-3.562c-.223-.952-.4-1.7-.528-2.25l-.127-.588a.748.748,0,0,1-.03-.2.735.735,0,0,1,.07.193c.045.153.1.343.167.578l.6,2.231c.264.969.569,2.159.892,3.549s.72,2.965,1.086,4.723c.788,3.5,1.582,7.709,2.381,12.39.763,4.688,1.489,9.861,2.087,15.312,1.182,10.9,1.628,20.821,1.787,28,.075,3.59.1,6.5.079,8.5-.011.979-.02,1.752-.025,2.312-.007.244-.013.441-.017.6a.785.785,0,0,1-.02.205" transform="translate(-44.215 -37.72)" fill="#263238"/>
      </g>
    </g>
  </g>
</svg>
