<svg id="Grupo_1030931" data-name="Grupo 1030931" xmlns="http://www.w3.org/2000/svg" xmlns:xlink="http://www.w3.org/1999/xlink" width="380.958" height="374.428" viewBox="0 0 380.958 374.428">
  <defs>
    <clipPath id="clip-path">
      <rect id="Rectángulo_350996" data-name="Rectángulo 350996" width="380.958" height="374.428" fill="none"/>
    </clipPath>
    <clipPath id="clip-path-6">
      <rect id="Rectángulo_350988" data-name="Rectángulo 350988" width="23.191" height="23.413" fill="none"/>
    </clipPath>
    <clipPath id="clip-path-7">
      <rect id="Rectángulo_350989" data-name="Rectángulo 350989" width="2.943" height="2.943" fill="none"/>
    </clipPath>
    <clipPath id="clip-path-8">
      <rect id="Rectángulo_350990" data-name="Rectángulo 350990" width="2.452" height="2.447" fill="none"/>
    </clipPath>
    <clipPath id="clip-path-9">
      <rect id="Rectángulo_350991" data-name="Rectángulo 350991" width="31.502" height="2.554" fill="none"/>
    </clipPath>
    <clipPath id="clip-path-10">
      <rect id="Rectángulo_350992" data-name="Rectángulo 350992" width="15.595" height="3.148" fill="none"/>
    </clipPath>
    <clipPath id="clip-path-11">
      <rect id="Rectángulo_350993" data-name="Rectángulo 350993" width="12.141" height="38.669" fill="none"/>
    </clipPath>
  </defs>
  <g id="Grupo_1030930" data-name="Grupo 1030930" clip-path="url(#clip-path)">
    <g id="Grupo_1030903" data-name="Grupo 1030903">
      <g id="Grupo_1030902" data-name="Grupo 1030902" clip-path="url(#clip-path)">
        <path id="Trazado_729623" data-name="Trazado 729623" d="M95.1,147.142a15.769,15.769,0,0,1,3.85-1.673l.793-3.811,6.439-.113.927,3.781a15.745,15.745,0,0,1,3.907,1.537l3.254-2.133L118.9,149.2l-2.017,3.326a15.762,15.762,0,0,1,1.673,3.852l3.811.793.113,6.439-3.781.927a15.816,15.816,0,0,1-1.537,3.906L119.3,171.7l-4.473,4.633-3.327-2.017a15.775,15.775,0,0,1-3.851,1.673l-.793,3.811-6.439.112-.927-3.781a15.8,15.8,0,0,1-3.906-1.537l-3.255,2.133-4.633-4.473,2.017-3.326a15.757,15.757,0,0,1-1.673-3.851l-3.811-.794-.113-6.439,3.781-.927a15.775,15.775,0,0,1,1.537-3.907L87.3,149.758l4.473-4.633Zm3.432,8.578a6.908,6.908,0,1,0,9.769-.172,6.908,6.908,0,0,0-9.769.172" transform="translate(-14.651 -24.655)" fill="#e0e0e0"/>
        <path id="Trazado_729624" data-name="Trazado 729624" d="M101.137,158.239a5.2,5.2,0,0,1,1.287-1.129,6.879,6.879,0,0,1,4.506-1.065,6.964,6.964,0,0,1,3.064,1.088,7.08,7.08,0,0,1,2.477,2.791,7.082,7.082,0,0,1,.667,4.066,7.049,7.049,0,0,1-5.831,6.041,7.091,7.091,0,0,1-4.088-.524,7.067,7.067,0,0,1-2.876-2.378,6.949,6.949,0,0,1-1.195-3.023,6.874,6.874,0,0,1,.907-4.542,5.219,5.219,0,0,1,1.083-1.325c.037.031-.417.453-.95,1.4a6.891,6.891,0,0,0-.763,4.423,6.753,6.753,0,0,0,3.943,5.11,6.762,6.762,0,0,0,3.874.475,6.695,6.695,0,0,0,5.512-5.711,6.763,6.763,0,0,0-.611-3.854,6.748,6.748,0,0,0-5.245-3.762,6.886,6.886,0,0,0-4.393.919c-.929.565-1.335,1.034-1.368,1" transform="translate(-17.258 -27.174)" fill="#e0e0e0"/>
        <path id="Trazado_729625" data-name="Trazado 729625" d="M95.069,147.117a1.428,1.428,0,0,1-.215-.113l-.638-.369-2.507-1.481.078-.011L87.341,149.8l.012-.125,2.146,3.245.039.059-.035.062a15.781,15.781,0,0,0-1.512,3.881l-.018.077-.077.019-3.778.937.107-.139c.04,2.027.083,4.179.128,6.438l-.124-.149,3.812.785.1.02.027.1a15.7,15.7,0,0,0,1.662,3.807l.054.088-.054.088-2.013,3.33-.028-.218,4.639,4.467-.23-.021,3.253-2.136.095-.062.1.055a15.7,15.7,0,0,0,3.861,1.515l.113.027.027.113c.292,1.184.609,2.476.929,3.78l-.192-.147,6.439-.116-.189.157c.25-1.2.52-2.5.793-3.811l.024-.117.116-.032a15.661,15.661,0,0,0,3.8-1.651l0,0,.1-.062.1.062,3.327,2.017-.245.031,4.474-4.632-.023.244q-1.075-1.644-2.131-3.255l-.064-.1.058-.1a15.624,15.624,0,0,0,1.52-3.858l.028-.113.112-.027,3.781-.924-.144.187q-.055-3.3-.107-6.439l.145.175-3.809-.8-.106-.022-.029-.1a15.635,15.635,0,0,0-1.649-3.81l-.054-.089.054-.088,2.022-3.323.027.2-4.624-4.482.188.017-3.26,2.125-.073.047-.074-.042a15.733,15.733,0,0,0-3.869-1.534l-.077-.019-.019-.077c-.332-1.375-.631-2.613-.914-3.783l.116.089-6.44.084.085-.07-.818,3.806-.008.038-.036.01a16.349,16.349,0,0,0-2.945,1.133L95.3,147a1.508,1.508,0,0,1-.231.117,2.056,2.056,0,0,1,.215-.146c.147-.091.37-.226.679-.391a15.285,15.285,0,0,1,2.939-1.2l-.045.048.769-3.816.014-.069.071,0,6.439-.141.092,0,.023.091.939,3.777-.095-.095a15.932,15.932,0,0,1,3.945,1.539l-.147,0,3.249-2.141.1-.067.088.084,4.642,4.464.094.091-.068.113L117,152.593v-.178a15.978,15.978,0,0,1,1.7,3.891l-.135-.126,3.811.789.143.03,0,.146q.058,3.139.12,6.438l0,.15-.146.036-3.78.93.14-.14a15.962,15.962,0,0,1-1.553,3.955l-.007-.2,2.134,3.254.086.13-.108.113-4.472,4.634-.11.113-.135-.082-3.327-2.017h.2l0,0a16.013,16.013,0,0,1-3.9,1.692l.14-.149c-.273,1.308-.543,2.607-.794,3.81l-.032.154-.157,0-6.44.11-.154,0-.037-.151c-.319-1.3-.635-2.6-.924-3.781l.14.14a16,16,0,0,1-3.952-1.558l.194-.007-3.256,2.13-.123.081-.107-.1-4.627-4.479-.1-.1.073-.121,2.022-3.323v.177A15.986,15.986,0,0,1,87.85,165.1l.124.116-3.809-.8-.121-.026,0-.124c-.035-2.259-.067-4.412-.1-6.44l0-.112.11-.027,3.783-.916-.095.095a15.925,15.925,0,0,1,1.561-3.932l0,.12-2.12-3.263-.045-.068.056-.057,4.5-4.607.036-.036.042.026,2.451,1.525.631.4a1.9,1.9,0,0,1,.213.146" transform="translate(-14.621 -24.63)" fill="#e0e0e0"/>
        <path id="Trazado_729626" data-name="Trazado 729626" d="M324.941,202.966a9.471,9.471,0,0,1,2.3-1l.475-2.281,3.854-.068.555,2.263a9.448,9.448,0,0,1,2.339.92l1.948-1.277,2.773,2.678-1.207,1.991a9.456,9.456,0,0,1,1,2.306l2.281.474.068,3.855-2.263.555a9.429,9.429,0,0,1-.92,2.338l1.277,1.948-2.678,2.774-1.991-1.207a9.449,9.449,0,0,1-2.3,1l-.475,2.282-3.855.068-.555-2.264a9.429,9.429,0,0,1-2.338-.92l-1.948,1.278L320.508,218l1.208-1.992a9.439,9.439,0,0,1-1-2.3l-2.281-.475-.068-3.854,2.264-.555a9.446,9.446,0,0,1,.92-2.339l-1.277-1.948,2.677-2.773ZM327,208.1a4.135,4.135,0,1,0,5.848-.1,4.135,4.135,0,0,0-5.848.1" transform="translate(-55.454 -34.77)" fill="#f5f5f5"/>
        <path id="Trazado_729627" data-name="Trazado 729627" d="M328.556,209.609a3.128,3.128,0,0,1,.77-.676,4.116,4.116,0,0,1,2.7-.638,4.172,4.172,0,0,1,1.834.652,4.233,4.233,0,0,1,1.482,1.671,4.236,4.236,0,0,1,.4,2.434,4.218,4.218,0,0,1-3.491,3.616,4.24,4.24,0,0,1-2.447-.314,4.231,4.231,0,0,1-1.722-1.423,4.168,4.168,0,0,1-.715-1.81,4.117,4.117,0,0,1,.543-2.719,3.127,3.127,0,0,1,.648-.793c.022.019-.249.272-.568.839a4.128,4.128,0,0,0-.457,2.648,4.042,4.042,0,0,0,2.361,3.059,4.034,4.034,0,0,0,2.319.284,4.005,4.005,0,0,0,3.3-3.418,4.033,4.033,0,0,0-.365-2.307,4.042,4.042,0,0,0-3.14-2.251,4.121,4.121,0,0,0-2.63.55c-.556.338-.8.619-.818.6" transform="translate(-57.014 -36.278)" fill="#f5f5f5"/>
        <path id="Trazado_729628" data-name="Trazado 729628" d="M324.923,202.951a.783.783,0,0,1-.129-.067c-.093-.055-.219-.127-.382-.221l-1.5-.886.047-.007-2.662,2.789.007-.075,1.284,1.944.023.034-.02.037a9.388,9.388,0,0,0-.905,2.324l-.012.046-.046.011-2.261.561.064-.083c.024,1.214.05,2.5.076,3.855l-.073-.091,2.282.472.058.011.017.059a9.357,9.357,0,0,0,1,2.278l.031.052-.031.055-1.2,1.992-.017-.13c.871.841,1.812,1.747,2.776,2.674l-.137-.012,1.946-1.278.057-.037.059.032a9.4,9.4,0,0,0,2.311.908l.067.016.017.068c.174.709.365,1.482.557,2.264l-.115-.088c1.221-.023,2.529-.046,3.854-.069l-.113.094c.15-.721.311-1.5.475-2.282l.014-.071.069-.018a9.334,9.334,0,0,0,2.273-.989h0l.062-.037.06.037,1.992,1.207-.146.02,2.678-2.773-.014.146-1.276-1.949-.039-.059.035-.061a9.339,9.339,0,0,0,.91-2.31l.017-.068.068-.017q1.148-.279,2.264-.552l-.086.112q-.033-1.975-.064-3.855l.087.1q-1.161-.243-2.28-.478l-.064-.012-.017-.061a9.318,9.318,0,0,0-.987-2.282l-.032-.053.032-.054,1.211-1.989.016.122-2.767-2.684.112.011-1.951,1.273-.044.027-.045-.024a9.392,9.392,0,0,0-2.316-.918l-.046-.012-.011-.045c-.2-.823-.378-1.566-.548-2.265l.069.054-3.855.05.051-.041-.49,2.277,0,.023-.022.007a9.8,9.8,0,0,0-1.763.679l-.415.216a.857.857,0,0,1-.138.069,1.091,1.091,0,0,1,.129-.087c.087-.054.221-.135.406-.234a9,9,0,0,1,1.759-.717l-.026.029c.126-.623.276-1.372.46-2.286l.008-.04.043,0c1.089-.023,2.361-.05,3.854-.084l.055,0,.014.055c.173.7.358,1.439.562,2.26l-.057-.057a9.55,9.55,0,0,1,2.361.922l-.088,0,1.945-1.282.06-.04.052.05,2.779,2.672.057.055-.041.067c-.391.647-.791,1.309-1.2,1.994v-.107a9.589,9.589,0,0,1,1.016,2.33l-.081-.076q1.121.234,2.282.473l.086.017,0,.088q.035,1.879.071,3.853l0,.091-.088.021-2.263.557.084-.083a9.585,9.585,0,0,1-.93,2.367l0-.121q.632.964,1.277,1.947l.051.079-.065.068-2.676,2.773-.066.069-.081-.05-1.991-1.208h.122l0,0a9.517,9.517,0,0,1-2.332,1.012l.083-.089c-.164.783-.325,1.561-.475,2.282l-.02.091-.094,0c-1.325.023-2.634.046-3.854.066l-.093,0-.022-.089-.553-2.264.083.083a9.547,9.547,0,0,1-2.365-.932l.116,0-1.95,1.275-.073.048-.064-.062c-.962-.93-1.9-1.837-2.77-2.681l-.061-.059.044-.072c.421-.692.835-1.373,1.211-1.989v.1a9.523,9.523,0,0,1-1.008-2.331l.074.069L318.4,213.3l-.073-.016,0-.073c-.021-1.353-.04-2.641-.059-3.855v-.068l.065-.016,2.264-.548-.056.057a9.545,9.545,0,0,1,.934-2.354l0,.073L320.2,204.55l-.026-.04.034-.034,2.693-2.758.021-.023.026.017,1.467.912.377.24a1.026,1.026,0,0,1,.128.087" transform="translate(-55.436 -34.755)" fill="#f5f5f5"/>
        <path id="Trazado_729629" data-name="Trazado 729629" d="M361.189,31.4a12.121,12.121,0,0,1,2.967-1.289l.611-2.937,4.962-.088L370.444,30a12.163,12.163,0,0,1,3.011,1.184l2.508-1.644,3.57,3.448-1.554,2.563a12.156,12.156,0,0,1,1.29,2.968l2.937.611.088,4.962-2.914.714a12.162,12.162,0,0,1-1.184,3.011l1.643,2.508L376.391,53.9l-2.563-1.555a12.188,12.188,0,0,1-2.968,1.29l-.611,2.937-4.962.088-.714-2.914a12.163,12.163,0,0,1-3.011-1.184L359.053,54.2l-3.571-3.448,1.555-2.563a12.145,12.145,0,0,1-1.29-2.968l-2.937-.611-.088-4.962,2.913-.714a12.2,12.2,0,0,1,1.185-3.011l-1.644-2.508,3.447-3.571Zm2.645,6.611a5.324,5.324,0,1,0,7.528-.132,5.324,5.324,0,0,0-7.528.132" transform="translate(-61.439 -4.718)" fill="#f5f5f5"/>
        <path id="Trazado_729630" data-name="Trazado 729630" d="M365.843,39.951a4.021,4.021,0,0,1,.991-.87,5.3,5.3,0,0,1,3.474-.822,5.359,5.359,0,0,1,2.36.839,5.445,5.445,0,0,1,1.909,2.15,5.471,5.471,0,0,1,.514,3.134,5.432,5.432,0,0,1-4.494,4.655,5.451,5.451,0,0,1-3.15-.4A5.456,5.456,0,0,1,365.23,46.8a5.364,5.364,0,0,1-.921-2.33,5.3,5.3,0,0,1,.7-3.5,4.035,4.035,0,0,1,.835-1.022c.029.025-.321.349-.732,1.08a5.315,5.315,0,0,0-.589,3.408,5.2,5.2,0,0,0,3.04,3.938,5.194,5.194,0,0,0,2.985.366,5.159,5.159,0,0,0,4.248-4.4,5.208,5.208,0,0,0-.471-2.97,5.2,5.2,0,0,0-4.042-2.9,5.308,5.308,0,0,0-3.386.708c-.716.435-1.028.8-1.054.769" transform="translate(-63.447 -6.659)" fill="#f5f5f5"/>
        <path id="Trazado_729631" data-name="Trazado 729631" d="M361.166,31.38a1.117,1.117,0,0,1-.165-.088l-.492-.284-1.932-1.141.06-.008-3.426,3.591.009-.1,1.654,2.5.03.045-.026.048a12.141,12.141,0,0,0-1.165,2.991L355.7,39l-.059.015-2.912.723.083-.107c.031,1.562.064,3.221.1,4.961l-.1-.116,2.937.606.075.015.021.073a12.131,12.131,0,0,0,1.281,2.934l.041.068-.041.069L355.575,50.8l-.021-.168,3.575,3.443-.177-.017,2.506-1.647.074-.048.077.043a12.113,12.113,0,0,0,2.975,1.168l.087.021.022.088c.224.913.469,1.908.716,2.913l-.148-.114,4.962-.089-.146.121.611-2.937.018-.09.089-.026a12.024,12.024,0,0,0,2.927-1.272l0,0,.08-.047.078.047,2.563,1.555-.188.025,3.448-3.57-.017.187q-.83-1.266-1.643-2.509L378,47.8l.044-.079a12.018,12.018,0,0,0,1.172-2.973l.021-.088.087-.021,2.914-.712-.111.144q-.042-2.541-.083-4.962l.112.135-2.937-.615-.081-.017-.022-.08a12.082,12.082,0,0,0-1.271-2.937l-.041-.069.041-.069q.8-1.317,1.558-2.561l.021.157L375.859,29.6l.145.014-2.512,1.638-.055.036-.058-.032a12.128,12.128,0,0,0-2.982-1.183l-.059-.015L370.324,30c-.255-1.06-.486-2.014-.7-2.915l.089.069-4.962.065.066-.055c-.252,1.171-.458,2.132-.63,2.933l-.007.029-.029.008a12.528,12.528,0,0,0-2.269.873l-.534.278a1.18,1.18,0,0,1-.178.091,1.5,1.5,0,0,1,.165-.112c.114-.07.286-.175.524-.3a11.748,11.748,0,0,1,2.265-.923l-.035.037c.162-.8.356-1.766.592-2.941l.011-.053.055,0,4.962-.109.071,0,.018.07.723,2.911-.073-.073a12.244,12.244,0,0,1,3.04,1.186l-.113,0,2.5-1.65.078-.051.068.065,3.577,3.44.073.07-.053.088-1.55,2.566v-.136a12.292,12.292,0,0,1,1.307,3l-.1-.1,2.937.608.11.022,0,.113q.045,2.419.092,4.962l0,.116-.113.027-2.913.717.108-.108a12.317,12.317,0,0,1-1.2,3.048l-.006-.154,1.645,2.507.066.1-.083.087-3.446,3.572-.085.088-.1-.063-2.564-1.555h.155a12.329,12.329,0,0,1-3,1.3l.107-.116c-.211,1.008-.419,2.01-.612,2.937l-.025.119-.121,0-4.962.085-.12,0-.028-.116c-.246-1.006-.489-2-.712-2.914l.107.108a12.306,12.306,0,0,1-3.046-1.2l.15,0-2.51,1.642-.1.062-.081-.078-3.567-3.452-.078-.076.057-.092L356.9,48.1v.136a12.286,12.286,0,0,1-1.3-3l.095.088-2.936-.617-.093-.02,0-.1c-.026-1.741-.051-3.4-.075-4.962l0-.087.084-.021,2.916-.706-.073.073a12.3,12.3,0,0,1,1.2-3.03l0,.092c-.588-.907-1.138-1.753-1.633-2.515l-.034-.053.043-.044,3.468-3.55.028-.029.032.021,1.889,1.175.486.309a1.466,1.466,0,0,1,.164.112" transform="translate(-61.416 -4.698)" fill="#f5f5f5"/>
        <path id="Trazado_729632" data-name="Trazado 729632" d="M263.493,58.236a9.47,9.47,0,0,1,2.3-1l.475-2.281,3.854-.068.555,2.263a9.447,9.447,0,0,1,2.339.92l1.948-1.277,2.773,2.678-1.207,1.991a9.46,9.46,0,0,1,1,2.306l2.281.474.068,3.855-2.263.555a9.447,9.447,0,0,1-.92,2.339l1.277,1.948L275.3,75.711,273.309,74.5a9.475,9.475,0,0,1-2.306,1l-.474,2.281-3.855.068-.555-2.264a9.427,9.427,0,0,1-2.338-.92l-1.948,1.278L259.06,73.27l1.207-1.992a9.47,9.47,0,0,1-1-2.3l-2.281-.475-.068-3.854,2.264-.555a9.446,9.446,0,0,1,.92-2.339L258.824,59.8l2.677-2.773Zm2.055,5.135a4.135,4.135,0,1,0,5.848-.1,4.136,4.136,0,0,0-5.848.1" transform="translate(-44.751 -9.56)" fill="#f5f5f5"/>
        <path id="Trazado_729633" data-name="Trazado 729633" d="M267.108,64.879a3.128,3.128,0,0,1,.77-.676,4.114,4.114,0,0,1,2.7-.638,4.172,4.172,0,0,1,1.834.652,4.233,4.233,0,0,1,1.482,1.671,4.236,4.236,0,0,1,.4,2.435,4.218,4.218,0,0,1-3.491,3.615,3.977,3.977,0,0,1-1.273.022,4.024,4.024,0,0,1-1.173-.335,4.239,4.239,0,0,1-1.722-1.424,4.158,4.158,0,0,1-.715-1.81,4.115,4.115,0,0,1,.543-2.718,3.123,3.123,0,0,1,.648-.794c.022.019-.249.272-.568.839a4.128,4.128,0,0,0-.458,2.648,4.042,4.042,0,0,0,2.361,3.059,4.035,4.035,0,0,0,2.319.284,4.008,4.008,0,0,0,3.3-3.418,4.052,4.052,0,0,0-.365-2.307,4.042,4.042,0,0,0-3.14-2.251,4.121,4.121,0,0,0-2.63.55c-.556.338-.8.619-.818.6" transform="translate(-46.311 -11.068)" fill="#f5f5f5"/>
        <path id="Trazado_729634" data-name="Trazado 729634" d="M263.475,58.221a.879.879,0,0,1-.129-.067c-.093-.055-.219-.128-.382-.221l-1.5-.886.047-.007-2.662,2.79.007-.076L260.14,61.7l.023.035-.02.038a9.386,9.386,0,0,0-.905,2.322l-.012.046-.046.011c-.7.175-1.467.366-2.261.562l.064-.083c.024,1.214.05,2.5.076,3.853l-.073-.09,2.282.471.058.013.017.057a9.356,9.356,0,0,0,1,2.278l.031.053-.031.054c-.374.617-.785,1.3-1.2,1.993l-.017-.131,2.777,2.674-.137-.012,1.946-1.28.057-.036.059.032a9.333,9.333,0,0,0,2.311.908l.067.016.017.068c.174.709.365,1.482.557,2.263l-.115-.088,3.854-.069-.113.093c.15-.72.311-1.5.475-2.282l.014-.069.069-.02a9.328,9.328,0,0,0,2.273-.988l0,0,.062-.036.06.036,1.992,1.207-.146.02,2.678-2.773-.014.146q-.644-.984-1.276-1.948l-.039-.059.035-.061a9.342,9.342,0,0,0,.91-2.31l.016-.068.068-.017,2.264-.553-.086.111q-.033-1.972-.064-3.854l.087.1-2.28-.477-.064-.013-.017-.061a9.3,9.3,0,0,0-.987-2.282l-.032-.053.032-.054,1.211-1.989.016.121c-.974-.944-1.893-1.834-2.767-2.683l.112.011-1.951,1.273-.044.029-.045-.026a9.36,9.36,0,0,0-2.316-.918L270.6,57.2l-.011-.045-.548-2.266.069.054-3.855.051.051-.042c-.2.909-.356,1.656-.49,2.278l0,.021-.021.007a9.874,9.874,0,0,0-1.763.678l-.415.216a.751.751,0,0,1-.138.07,1.309,1.309,0,0,1,.129-.088c.088-.054.221-.135.406-.233a9.043,9.043,0,0,1,1.759-.718l-.026.029c.126-.623.276-1.372.46-2.283l.008-.042h.043l3.854-.085.055,0,.014.055c.173.7.358,1.439.562,2.261l-.057-.057a9.5,9.5,0,0,1,2.361.921l-.088,0c.619-.409,1.261-.832,1.945-1.282l.06-.04.053.05,2.778,2.672.057.055-.041.068L276.6,61.5v-.107a9.615,9.615,0,0,1,1.016,2.329l-.081-.075q1.121.234,2.282.473l.086.017,0,.087q.035,1.88.071,3.854l0,.09-.088.023-2.263.556.084-.084a9.564,9.564,0,0,1-.93,2.368l0-.12,1.278,1.947.051.078-.065.068-2.677,2.773-.066.069-.081-.05-1.991-1.207h.122l0,0a9.591,9.591,0,0,1-2.332,1.012l.083-.089c-.164.783-.325,1.56-.475,2.282l-.02.092h-.094l-3.854.067h-.093l-.021-.089c-.191-.782-.38-1.555-.553-2.264l.083.083a9.548,9.548,0,0,1-2.365-.933l.116,0-1.95,1.275-.073.049-.064-.061-2.77-2.681-.061-.059.044-.072c.422-.693.835-1.373,1.211-1.989v.1a9.542,9.542,0,0,1-1.008-2.33l.074.068-2.281-.479-.073-.016,0-.074c-.021-1.353-.04-2.641-.059-3.854v-.068l.065-.016L259.144,64l-.056.057a9.513,9.513,0,0,1,.934-2.354l0,.072-1.269-1.954-.026-.04.034-.035,2.693-2.758.021-.022.026.017,1.467.912c.161.1.285.182.377.239a1.218,1.218,0,0,1,.128.088" transform="translate(-44.733 -9.545)" fill="#f5f5f5"/>
        <path id="Trazado_729635" data-name="Trazado 729635" d="M49.6,140.557a9.5,9.5,0,0,1,2.3-1l.475-2.281,3.854-.068.555,2.264a9.476,9.476,0,0,1,2.339.919l1.948-1.276,2.773,2.677-1.207,1.991a9.458,9.458,0,0,1,1,2.306l2.281.475L66,150.417l-2.263.555a9.446,9.446,0,0,1-.92,2.339l1.277,1.948-2.677,2.773-1.992-1.207a9.479,9.479,0,0,1-2.306,1l-.474,2.281-3.855.068-.555-2.264a9.4,9.4,0,0,1-2.338-.921l-1.948,1.278-2.774-2.677,1.207-1.992a9.5,9.5,0,0,1-1-2.3l-2.281-.476-.068-3.854,2.264-.554a9.446,9.446,0,0,1,.92-2.339l-1.277-1.949,2.677-2.773Zm2.055,5.135a4.136,4.136,0,1,0,5.848-.1,4.137,4.137,0,0,0-5.848.1" transform="translate(-7.495 -23.899)" fill="#f5f5f5"/>
        <path id="Trazado_729636" data-name="Trazado 729636" d="M53.219,147.2a3.129,3.129,0,0,1,.77-.676,4.11,4.11,0,0,1,2.7-.638,4.173,4.173,0,0,1,1.834.652A4.231,4.231,0,0,1,60,148.208a4.236,4.236,0,0,1,.4,2.435,4.218,4.218,0,0,1-3.491,3.616,3.954,3.954,0,0,1-1.273.021,4.023,4.023,0,0,1-1.173-.334,4.247,4.247,0,0,1-1.722-1.425,4.175,4.175,0,0,1-.173-4.527,3.141,3.141,0,0,1,.648-.794c.022.019-.249.272-.568.84a4.125,4.125,0,0,0-.458,2.647,4.041,4.041,0,0,0,2.361,3.06,4.052,4.052,0,0,0,2.319.284,4.008,4.008,0,0,0,3.3-3.419,4.054,4.054,0,0,0-.365-2.307,4.072,4.072,0,0,0-1.395-1.6,4.027,4.027,0,0,0-1.745-.648,4.116,4.116,0,0,0-2.63.549c-.556.338-.8.619-.818.6" transform="translate(-9.055 -25.407)" fill="#f5f5f5"/>
        <path id="Trazado_729637" data-name="Trazado 729637" d="M49.586,140.543a.849.849,0,0,1-.129-.068l-.382-.22-1.5-.887.047-.006-2.662,2.789.007-.075,1.284,1.943.023.035-.02.037a9.394,9.394,0,0,0-.905,2.323l-.012.046-.046.011-2.261.562.064-.083c.024,1.214.05,2.5.076,3.854l-.073-.09,2.282.471.058.012.017.057a9.344,9.344,0,0,0,1,2.278l.031.053-.031.054c-.374.618-.785,1.3-1.2,1.993l-.017-.13L48,158.174l-.137-.012,1.946-1.279.057-.037.059.033a9.364,9.364,0,0,0,2.311.907l.067.017.017.068c.174.709.365,1.482.557,2.263l-.115-.088,3.854-.069-.113.094c.15-.721.311-1.5.475-2.282l.014-.07.069-.019a9.33,9.33,0,0,0,2.273-.988h0l.062-.037.06.037,1.992,1.207-.147.019q1.359-1.4,2.679-2.772l-.014.145L62.7,153.36l-.039-.059.035-.061a9.327,9.327,0,0,0,.91-2.31l.017-.068.068-.016,2.264-.553-.086.111q-.033-1.973-.064-3.854l.087.1-2.28-.478-.064-.013-.017-.061a9.33,9.33,0,0,0-.987-2.282l-.032-.053.032-.053,1.211-1.989.016.121L61,139.164l.112.011-1.951,1.272-.044.029-.045-.026a9.394,9.394,0,0,0-2.316-.918l-.046-.012-.011-.045-.548-2.265.069.054-3.855.05.051-.042-.49,2.278,0,.022-.021.007a9.747,9.747,0,0,0-1.763.678l-.415.216a.929.929,0,0,1-.138.07,1.147,1.147,0,0,1,.129-.088c.088-.054.221-.135.406-.234a9.106,9.106,0,0,1,1.759-.717l-.026.029c.126-.623.276-1.372.46-2.284l.008-.042h.043l3.854-.084.055,0,.014.055c.173.7.358,1.439.562,2.261l-.057-.057a9.547,9.547,0,0,1,2.361.921l-.088,0,1.945-1.282.06-.04.052.05,2.779,2.672.057.055-.041.068-1.2,1.993v-.106a9.584,9.584,0,0,1,1.016,2.329l-.081-.074,2.282.472.086.017,0,.088q.035,1.88.071,3.854l0,.09-.088.022-2.263.556.084-.083a9.578,9.578,0,0,1-.93,2.368l0-.121,1.278,1.947.051.078-.065.068L61.479,158.1l-.066.069-.081-.05-1.991-1.207h.121a9.6,9.6,0,0,1-2.332,1.012l.083-.089c-.164.783-.325,1.56-.475,2.281l-.02.092h-.094l-3.854.066-.093,0-.021-.09-.553-2.264.083.084a9.581,9.581,0,0,1-2.365-.933l.116,0-1.95,1.275-.073.049-.064-.062-2.77-2.681-.061-.059.044-.073,1.211-1.989v.106a9.546,9.546,0,0,1-1.008-2.33l.074.069-2.281-.479-.073-.016,0-.074c-.021-1.353-.04-2.641-.059-3.854v-.068l.065-.017,2.264-.548-.056.057a9.539,9.539,0,0,1,.934-2.354l0,.072-1.269-1.953-.026-.04.034-.034,2.693-2.758.021-.022.026.017,1.467.913.377.239a1.076,1.076,0,0,1,.128.088" transform="translate(-7.477 -23.884)" fill="#f5f5f5"/>
        <path id="Trazado_729638" data-name="Trazado 729638" d="M68.418,211.652a29.9,29.9,0,0,1,7.3-3.174l1.5-7.229,12.214-.214,1.757,7.171a29.926,29.926,0,0,1,7.411,2.916l6.172-4.046,8.788,8.485-3.825,6.309a29.926,29.926,0,0,1,3.174,7.305l7.228,1.5.215,12.214-7.171,1.757a29.949,29.949,0,0,1-2.915,7.41l4.045,6.173-8.484,8.788-6.31-3.827a29.933,29.933,0,0,1-7.3,3.174l-1.5,7.229-12.213.214-1.758-7.171a29.947,29.947,0,0,1-7.41-2.915l-6.172,4.047-8.788-8.485,3.826-6.31a29.889,29.889,0,0,1-3.174-7.3l-7.228-1.5-.215-12.213,7.171-1.758a29.949,29.949,0,0,1,2.915-7.41l-4.046-6.173,8.484-8.788Zm6.511,16.27a13.1,13.1,0,1,0,18.528-.326A13.1,13.1,0,0,0,74.929,227.922Z" transform="translate(-8.288 -35.017)" fill="none" stroke="#e0e0e0" stroke-miterlimit="10" stroke-width="0.05"/>
        <path id="Trazado_729639" data-name="Trazado 729639" d="M79.873,232.7a9.9,9.9,0,0,1,2.439-2.141,13.046,13.046,0,0,1,8.549-2.021,13.2,13.2,0,0,1,5.81,2.064,13.413,13.413,0,0,1,4.7,5.294,13.435,13.435,0,0,1,1.265,7.711,13.367,13.367,0,0,1-11.061,11.458,13.432,13.432,0,0,1-7.753-.993,13.42,13.42,0,0,1-5.456-4.511,13.2,13.2,0,0,1-2.267-5.734,13.043,13.043,0,0,1,1.72-8.614,9.887,9.887,0,0,1,2.054-2.513c.071.06-.791.86-1.8,2.658a13.069,13.069,0,0,0-1.449,8.389,12.807,12.807,0,0,0,7.481,9.693,12.8,12.8,0,0,0,7.346.9,12.7,12.7,0,0,0,10.456-10.831,12.811,12.811,0,0,0-1.158-7.309,12.806,12.806,0,0,0-9.949-7.135,13.068,13.068,0,0,0-8.333,1.742c-1.762,1.072-2.531,1.962-2.594,1.893" transform="translate(-13.232 -39.794)" fill="#ebebeb"/>
        <path id="Trazado_729640" data-name="Trazado 729640" d="M68.361,211.6a2.844,2.844,0,0,1-.407-.215l-1.21-.7-4.757-2.809.149-.019L53.7,216.7l.022-.236,4.07,6.156.073.111-.064.117a29.885,29.885,0,0,0-2.869,7.361l-.035.145-.146.036-7.166,1.779.2-.265c.077,3.846.158,7.927.243,12.212l-.235-.284,7.231,1.49.184.039.052.181a29.7,29.7,0,0,0,3.152,7.221l.1.168-.1.168L54.6,259.411,54.548,259l8.8,8.474-.434-.041,6.168-4.052.181-.119.189.1a29.765,29.765,0,0,0,7.323,2.875l.214.052.052.214,1.763,7.171-.364-.281,12.213-.22-.358.3,1.5-7.228.046-.223.218-.062a29.644,29.644,0,0,0,7.206-3.13l.006,0,.2-.116.192.116,6.311,3.827-.464.06,8.486-8.786-.044.462-4.042-6.175-.123-.187.109-.194a29.572,29.572,0,0,0,2.884-7.318l.054-.215.214-.051,7.171-1.753-.273.354q-.1-6.254-.2-12.213l.275.332-7.226-1.513-.2-.042-.055-.2a29.662,29.662,0,0,0-3.128-7.228l-.1-.169.1-.168,3.837-6.3.05.386-8.77-8.5.358.034L98.7,211.3l-.137.089-.142-.079a29.8,29.8,0,0,0-7.338-2.911l-.146-.036-.035-.145c-.629-2.608-1.2-4.957-1.733-7.176l.22.169-12.215.16.162-.134c-.619,2.883-1.127,5.249-1.55,7.218l-.016.073-.07.02a31.011,31.011,0,0,0-5.585,2.148l-1.313.686a3.006,3.006,0,0,1-.439.223,3.813,3.813,0,0,1,.407-.277c.279-.172.7-.429,1.287-.742a28.917,28.917,0,0,1,5.576-2.271l-.085.092c.4-1.975.875-4.347,1.458-7.238l.026-.131.135,0,12.212-.268.177,0,.043.173c.551,2.216,1.134,4.561,1.782,7.165l-.181-.181a30.164,30.164,0,0,1,7.483,2.919l-.279.01,6.163-4.061.191-.126.167.16,8.8,8.466.179.173-.13.214-3.815,6.316v-.336a30.28,30.28,0,0,1,3.219,7.38l-.255-.238,7.23,1.5.27.056,0,.277q.111,5.957.227,12.213l.006.285-.278.069-7.17,1.764.267-.267a30.3,30.3,0,0,1-2.947,7.5l-.014-.382,4.048,6.171.164.249-.206.214-8.482,8.79-.208.216-.256-.156-6.311-3.825h.389l-.007,0a30.341,30.341,0,0,1-7.389,3.209l.264-.284c-.517,2.482-1.03,4.945-1.505,7.228l-.061.292-.3.005-12.213.21-.294.005-.07-.286c-.605-2.475-1.2-4.926-1.753-7.172l.266.266a30.362,30.362,0,0,1-7.5-2.956l.369-.013-6.177,4.04-.235.154-.2-.194-8.778-8.5-.192-.186.139-.229,3.835-6.3v.335a30.29,30.29,0,0,1-3.2-7.387l.235.219-7.226-1.519-.231-.049,0-.235c-.065-4.286-.128-8.367-.187-12.214l0-.214.208-.05,7.176-1.738-.181.181a30.236,30.236,0,0,1,2.962-7.458l.008.228-4.021-6.189-.083-.129.106-.108,8.535-8.739.068-.069.081.05,4.649,2.892,1.2.76a3.6,3.6,0,0,1,.4.277" transform="translate(-8.231 -34.969)" fill="#ebebeb"/>
        <path id="Trazado_729641" data-name="Trazado 729641" d="M322.525,63.724a20.151,20.151,0,0,1,5.294.814l3.449-3.572,7.025,4.26-1.572,4.71a20.089,20.089,0,0,1,3.17,4.317l4.964-.087,1.956,7.981-4.441,2.217a20.108,20.108,0,0,1-.815,5.294l3.572,3.449-4.26,7.026-4.71-1.573a20.169,20.169,0,0,1-4.317,3.17l.087,4.963-7.981,1.956-2.217-4.442a20.117,20.117,0,0,1-5.294-.815l-3.45,3.573-7.025-4.26L307.531,98a20.117,20.117,0,0,1-3.169-4.317l-4.964.087-1.956-7.981,4.441-2.216a20.116,20.116,0,0,1,.815-5.3l-3.573-3.449,4.26-7.025,4.711,1.572a20.117,20.117,0,0,1,4.317-3.169l-.087-4.964,7.98-1.956Zm-2.134,11.593A8.814,8.814,0,1,0,331.05,81.78a8.813,8.813,0,0,0-10.659-6.463" transform="translate(-51.81 -10.326)" fill="#e0e0e0"/>
        <path id="Trazado_729642" data-name="Trazado 729642" d="M323.772,78.626a6.653,6.653,0,0,1,2.156-.343,8.774,8.774,0,0,1,5.589,1.918,8.88,8.88,0,0,1,2.565,3.259,9.018,9.018,0,0,1,.774,4.7A9.042,9.042,0,0,1,332.809,93a8.994,8.994,0,0,1-10.4,2.55A9.041,9.041,0,0,1,318.35,92.2a9.029,9.029,0,0,1-1.486-4.524,8.887,8.887,0,0,1,.768-4.076,8.779,8.779,0,0,1,4.07-4.284,6.652,6.652,0,0,1,2.07-.693c.019.059-.759.206-1.979.866a8.793,8.793,0,0,0-3.834,4.253,8.614,8.614,0,0,0,.779,8.2,8.608,8.608,0,0,0,3.857,3.149,8.54,8.54,0,0,0,9.836-2.411,8.63,8.63,0,0,0,1.964-4.574,8.617,8.617,0,0,0-3.1-7.63,8.787,8.787,0,0,0-5.366-2c-1.388-.022-2.145.208-2.155.146" transform="translate(-55.19 -13.635)" fill="#e0e0e0"/>
        <path id="Trazado_729643" data-name="Trazado 729643" d="M322.47,63.7a2.016,2.016,0,0,1-.154-.268l-.438-.832-1.7-3.3.091.042-7.968,2,.1-.126c.032,1.5.069,3.175.107,4.963l0,.089-.079.044a20.122,20.122,0,0,0-4.273,3.159l-.072.07-.1-.032-4.715-1.559.211-.078-4.244,7.035-.032-.246,3.579,3.443.092.088-.036.121a20.045,20.045,0,0,0-.8,5.24l0,.131-.118.059-4.438,2.224.118-.255c.617,2.506,1.283,5.208,1.965,7.978l-.233-.179,4.964-.092.145,0,.069.127a20.041,20.041,0,0,0,3.135,4.263l.1.107-.047.14c-.492,1.476-1.028,3.086-1.57,4.712l-.107-.29,7.027,4.257-.31.04L316.2,103.2l.107-.111.146.044a19.957,19.957,0,0,0,5.223.8h0l.154,0,.068.135q1.116,2.237,2.217,4.441l-.286-.132,7.981-1.954-.191.248q-.042-2.507-.084-4.964l0-.15.131-.071a19.907,19.907,0,0,0,4.266-3.129l.107-.1.14.047,4.71,1.576-.282.1q2.185-3.595,4.267-7.021l.037.287L341.343,89.8l-.1-.1.039-.131a19.981,19.981,0,0,0,.814-5.235l0-.132.118-.059,4.445-2.209-.11.238c-.682-2.809-1.326-5.46-1.939-7.985l.191.148-4.963.074-.111,0-.052-.1a20.038,20.038,0,0,0-3.131-4.289l-.069-.073.031-.094c.578-1.71,1.1-3.25,1.589-4.706l.064.175-7.007-4.292.14-.018-3.473,3.551-.035.036-.047-.014a20.8,20.8,0,0,0-3.948-.781l-.993-.081a2,2,0,0,1-.329-.031,2.676,2.676,0,0,1,.331-.012c.22,0,.553.007,1,.04a19.507,19.507,0,0,1,3.987.709l-.081.021,3.426-3.595.063-.065.078.047,7.043,4.23.1.061-.038.114-1.557,4.715-.038-.168A20.3,20.3,0,0,1,340,74.148l-.162-.094,4.963-.1.154,0,.037.15c.623,2.521,1.277,5.17,1.971,7.977l.04.163-.151.075-4.436,2.225.121-.192a20.4,20.4,0,0,1-.817,5.355l-.06-.227,3.577,3.445.134.129-.1.159-4.253,7.029-.1.164-.183-.06-4.711-1.569.247-.056a20.372,20.372,0,0,1-4.369,3.211l.129-.221q.045,2.456.089,4.963l0,.2-.194.048-7.98,1.958-.2.048-.09-.181-2.217-4.44.22.14h0a20.4,20.4,0,0,1-5.355-.825l.253-.067-3.45,3.572-.14.145-.172-.1-7.024-4.264-.169-.1.063-.187,1.576-4.71.055.247a20.438,20.438,0,0,1-3.2-4.372l.215.125-4.964.082-.188,0-.045-.182-1.946-7.983-.043-.175.162-.08,4.444-2.211-.121.191a20.391,20.391,0,0,1,.832-5.349l.056.208-3.567-3.456-.114-.111.083-.135,4.276-7.015.075-.123.136.045,4.706,1.586-.168.038a20.308,20.308,0,0,1,4.361-3.18l-.077.132c-.024-1.788-.047-3.459-.067-4.964l0-.1.1-.024,7.991-1.909.064-.016.028.058,1.607,3.314.407.86a2.345,2.345,0,0,1,.131.3" transform="translate(-51.754 -10.306)" fill="#e0e0e0"/>
        <path id="Trazado_729644" data-name="Trazado 729644" d="M354.249,254.108a6.755,6.755,0,0,1,2.176-.346,8.854,8.854,0,0,1,5.641,1.936,8.951,8.951,0,0,1,2.589,3.289,9.1,9.1,0,0,1,.781,4.742,9.116,9.116,0,0,1-2.066,4.886,9.078,9.078,0,0,1-10.5,2.574,9.114,9.114,0,0,1-4.092-3.378,9.109,9.109,0,0,1-1.5-4.566,8.97,8.97,0,0,1,.775-4.114,8.853,8.853,0,0,1,4.108-4.323,6.714,6.714,0,0,1,2.089-.7c.019.061-.765.207-2,.875a8.875,8.875,0,0,0-3.87,4.293,8.694,8.694,0,0,0,.785,8.275,8.694,8.694,0,0,0,3.893,3.178,8.621,8.621,0,0,0,9.926-2.433,8.682,8.682,0,0,0,1.982-4.616,8.691,8.691,0,0,0-3.129-7.7,8.863,8.863,0,0,0-5.416-2.017c-1.4-.023-2.164.21-2.175.147" transform="translate(-60.488 -44.201)" fill="#ebebeb"/>
        <path id="Trazado_729645" data-name="Trazado 729645" d="M352.935,239.048a2.01,2.01,0,0,1-.156-.271l-.442-.84c-.4-.774-.97-1.889-1.714-3.335l.092.042-8.043,2.021.1-.128c.032,1.518.069,3.2.108,5.009l0,.09-.08.044a20.3,20.3,0,0,0-4.312,3.188l-.073.07-.1-.032-4.759-1.573.213-.078-4.284,7.1-.032-.249,3.612,3.474.092.089-.036.122a20.227,20.227,0,0,0-.805,5.289l0,.133-.12.06-4.479,2.244.12-.258c.623,2.529,1.295,5.257,1.983,8.052l-.235-.181,5.01-.093.146,0,.07.129a20.183,20.183,0,0,0,3.165,4.3l.1.107-.047.142-1.585,4.756-.107-.293,7.093,4.3-.314.041,3.481-3.606.107-.111.148.044a20.134,20.134,0,0,0,5.271.812h0l.155,0,.068.137q1.127,2.257,2.238,4.483l-.288-.134,8.055-1.972-.192.25q-.043-2.529-.086-5.01l0-.151.133-.073a20.1,20.1,0,0,0,4.307-3.157l.108-.1.141.048,4.753,1.591-.285.1,4.307-7.086.038.29-3.6-3.486-.1-.1.04-.132a20.18,20.18,0,0,0,.821-5.284l0-.134.119-.059,4.486-2.23-.111.24c-.688-2.834-1.338-5.511-1.957-8.058l.193.149-5.009.076-.111,0-.053-.1a20.215,20.215,0,0,0-3.16-4.329l-.07-.073.032-.1c.583-1.726,1.107-3.28,1.6-4.748l.065.176-7.071-4.331.141-.019-3.5,3.584-.036.036-.047-.014a21.032,21.032,0,0,0-3.985-.789l-1-.082a2.038,2.038,0,0,1-.332-.031,2.723,2.723,0,0,1,.334-.012c.222,0,.558.007,1.008.04a19.7,19.7,0,0,1,4.024.716l-.082.021,3.458-3.629.063-.066.078.048,7.109,4.269.1.062-.038.115c-.486,1.472-1,3.03-1.572,4.759l-.038-.169a20.477,20.477,0,0,1,3.239,4.387l-.164-.1,5.009-.1.155,0,.038.152c.629,2.545,1.29,5.218,1.989,8.05l.04.164-.152.076-4.478,2.245.121-.193a20.527,20.527,0,0,1-.824,5.4l-.06-.229,3.61,3.477.135.13-.1.161-4.293,7.095-.1.166-.185-.062-4.755-1.583.249-.057a20.56,20.56,0,0,1-4.409,3.241l.13-.224q.045,2.48.09,5.009l0,.2-.2.049-8.053,1.975-.2.049-.091-.182-2.239-4.482.223.141h0a20.6,20.6,0,0,1-5.4-.833l.254-.068-3.482,3.605-.141.146-.173-.106-7.089-4.3-.17-.1.063-.189c.549-1.64,1.093-3.264,1.591-4.753l.057.249a20.6,20.6,0,0,1-3.234-4.412l.216.125-5.01.083-.19,0-.045-.184c-.682-2.8-1.347-5.526-1.964-8.057l-.043-.177.163-.08L332,258.88l-.121.192a20.585,20.585,0,0,1,.84-5.4l.056.211-3.6-3.488-.116-.112.083-.136,4.316-7.081.076-.125.137.046,4.75,1.6-.168.038a20.5,20.5,0,0,1,4.4-3.21l-.078.134c-.024-1.8-.047-3.492-.067-5.009l0-.1.1-.024,8.066-1.927.064-.016.028.059,1.622,3.345.411.869a2.334,2.334,0,0,1,.132.306" transform="translate(-57.02 -40.841)" fill="#ebebeb"/>
        <path id="Trazado_729646" data-name="Trazado 729646" d="M36.884,422.11v25.471h78.329V422.11Z" transform="translate(-6.425 -73.525)" fill="#f5f5f5"/>
        <path id="Trazado_729647" data-name="Trazado 729647" d="M32.9,413.487v7.121H117.26v-7.121H32.9Z" transform="translate(-5.731 -72.023)" fill="#e0e0e0"/>
        <path id="Trazado_729648" data-name="Trazado 729648" d="M83.632,446.079H123.07V420.608h2.739v-7.121H81.988v6.462Z" transform="translate(-14.281 -72.023)" fill="#e0e0e0"/>
        <rect id="Rectángulo_350981" data-name="Rectángulo 350981" width="15.885" height="3.834" transform="translate(41.415 352.693)" fill="#e0e0e0"/>
        <rect id="Rectángulo_350982" data-name="Rectángulo 350982" width="20.398" height="8.096" transform="translate(39.37 361.32)" fill="#fff"/>
        <path id="Trazado_729649" data-name="Trazado 729649" d="M51.477,382.685v25.471h78.329V382.685Z" transform="translate(-8.967 -66.658)" fill="#f5f5f5"/>
        <path id="Trazado_729650" data-name="Trazado 729650" d="M47.5,374.062v7.121h84.355v-7.121H47.5Z" transform="translate(-8.273 -65.156)" fill="#e0e0e0"/>
        <path id="Trazado_729651" data-name="Trazado 729651" d="M98.225,406.654h39.438V381.183H140.4v-7.121H96.581v6.462Z" transform="translate(-16.823 -65.156)" fill="#e0e0e0"/>
        <rect id="Rectángulo_350983" data-name="Rectángulo 350983" width="15.885" height="3.834" transform="translate(53.466 320.134)" fill="#e0e0e0"/>
        <rect id="Rectángulo_350984" data-name="Rectángulo 350984" width="20.398" height="8.096" transform="translate(51.421 328.762)" fill="#fff"/>
      </g>
    </g>
    <g id="Grupo_1030905" data-name="Grupo 1030905">
      <g id="Grupo_1030904" data-name="Grupo 1030904" clip-path="url(#clip-path)">
        <path id="Trazado_729652" data-name="Trazado 729652" d="M380.958,452.908c0,.119-85.287.215-190.469.215-105.22,0-190.488-.1-190.488-.215s85.269-.215,190.488-.215c105.183,0,190.469.1,190.469.215" transform="translate(0 -78.852)" fill="#263238"/>
      </g>
    </g>
    <g id="Grupo_1030907" data-name="Grupo 1030907">
      <g id="Grupo_1030906" data-name="Grupo 1030906" clip-path="url(#clip-path)">
        <path id="Trazado_729653" data-name="Trazado 729653" d="M60.987,30.131a39.739,39.739,0,0,1,9.711-4.18l2.031-9.591,16.216-.228,2.3,9.528a39.723,39.723,0,0,1,9.826,3.9l8.214-5.343,11.628,11.305-5.109,8.36a39.7,39.7,0,0,1,4.18,9.712l9.589,2.031.229,16.215-9.528,2.3a39.733,39.733,0,0,1-3.905,9.824l5.343,8.214-11.3,11.628L102.047,98.7a39.7,39.7,0,0,1-9.712,4.179l-2.03,9.59-16.217.229-2.3-9.529a39.794,39.794,0,0,1-9.825-3.9l-8.214,5.343-11.628-11.3,5.109-8.361a39.7,39.7,0,0,1-4.18-9.712L33.46,73.2l-.229-16.216,9.53-2.3a39.753,39.753,0,0,1,3.9-9.824l-5.343-8.214,11.3-11.627Z" transform="translate(-5.788 -2.81)" fill="#ffa031" fill-rule="evenodd"/>
        <path id="Trazado_729654" data-name="Trazado 729654" d="M97.323,65.823a22.5,22.5,0,0,0-.52-3.407,13.434,13.434,0,0,0-1.567-3.7A13.878,13.878,0,0,0,78.57,52.825a13.01,13.01,0,0,0-3.5,1.886,12.7,12.7,0,0,0-2.922,2.939,13.77,13.77,0,0,0,0,16.345A15.649,15.649,0,0,0,73.5,75.6a15.488,15.488,0,0,0,1.568,1.335,13,13,0,0,0,3.5,1.887A13.92,13.92,0,0,0,95.236,72.93a13.444,13.444,0,0,0,1.567-3.7,22.336,22.336,0,0,0,.52-3.406.906.906,0,0,1,.011.228c0,.175-.007.4-.012.67a6.46,6.46,0,0,1-.09,1.085,9.844,9.844,0,0,1-.266,1.465,13.3,13.3,0,0,1-1.523,3.781,14.156,14.156,0,0,1-9.533,6.735,14.24,14.24,0,0,1-7.474-.594,13.356,13.356,0,0,1-3.608-1.929,13.027,13.027,0,0,1-3.018-3.02,14.154,14.154,0,0,1,0-16.844,13.02,13.02,0,0,1,3.017-3.019,13.356,13.356,0,0,1,3.608-1.929,14.237,14.237,0,0,1,7.474-.594,14.151,14.151,0,0,1,9.533,6.735,13.278,13.278,0,0,1,1.524,3.782,9.844,9.844,0,0,1,.266,1.465,6.453,6.453,0,0,1,.09,1.085c0,.274.009.495.012.67a.906.906,0,0,1-.011.228" transform="translate(-12.024 -8.991)" fill="#fff" stroke="#fff" stroke-width="1"/>
        <path id="Trazado_729655" data-name="Trazado 729655" d="M97.933,81.2c.084-.084,3.143,2.839,6.832,6.528s6.612,6.748,6.528,6.832-3.142-2.838-6.832-6.528-6.612-6.748-6.528-6.832" transform="translate(-17.058 -14.144)" fill="#fff" stroke="#fff" stroke-width="1"/>
        <path id="Trazado_729656" data-name="Trazado 729656" d="M193.568,103.6a51,51,0,0,1,12.465-5.366l2.606-12.31,20.814-.293,2.953,12.23a50.962,50.962,0,0,1,12.612,5.012l10.543-6.858,14.925,14.511-6.558,10.73a50.936,50.936,0,0,1,5.365,12.467l12.31,2.606.294,20.814L269.667,160.1a51,51,0,0,1-5.012,12.61l6.858,10.544L257,198.176l-10.731-6.558a51,51,0,0,1-12.467,5.365l-2.605,12.31-20.815.293-2.953-12.231a51.02,51.02,0,0,1-12.611-5.012L184.278,199.2l-14.926-14.51,6.557-10.731a50.98,50.98,0,0,1-5.365-12.467l-12.31-2.606-.293-20.814,12.232-2.954a50.981,50.981,0,0,1,5.011-12.61l-6.858-10.543,14.51-14.926Z" transform="translate(-27.511 -14.915)" fill="#4db1f0" fill-rule="evenodd"/>
        <path id="Trazado_729657" data-name="Trazado 729657" d="M221.388,177.154a2.078,2.078,0,0,1,.249-.012l.711-.013,2.734-.031,10.211-.071-.127.13c-.041-1.758-.088-3.729-.138-5.842l0-.1.093-.042a31.593,31.593,0,0,0,8.739-5.976,22.116,22.116,0,0,0,3.662-4.7,16.067,16.067,0,0,0,2.017-5.971,19.841,19.841,0,0,0-3.125-13.078,23.77,23.77,0,0,0-11.392-9.085,19.6,19.6,0,0,0-10.935-.759,21.479,21.479,0,0,0-9.5,4.389,19.4,19.4,0,0,0-5.735,7.921c-.254.751-.579,1.471-.766,2.225s-.365,1.5-.543,2.238a23.762,23.762,0,0,0-.391,4.412,20.366,20.366,0,0,0,.524,4.153,19.134,19.134,0,0,0,1.339,3.7,21.237,21.237,0,0,0,4.118,5.706,28.237,28.237,0,0,0,8.518,5.822l.052.023,0,.053q-.142,2.385-.218,3.642c-.026.4-.047.709-.063.936a3.1,3.1,0,0,1-.03.325,2.189,2.189,0,0,1,0-.3c.006-.224.015-.528.026-.921q.046-1.273.131-3.691l.049.075a27.886,27.886,0,0,1-8.65-5.778,21.382,21.382,0,0,1-4.21-5.756,19.322,19.322,0,0,1-1.383-3.757,20.638,20.638,0,0,1-.552-4.226,24.077,24.077,0,0,1,.379-4.486q.269-1.124.543-2.273c.188-.766.516-1.5.772-2.264a19.748,19.748,0,0,1,5.833-8.095A21.844,21.844,0,0,1,224,131.194a19.991,19.991,0,0,1,11.168.772,24.148,24.148,0,0,1,11.6,9.259,19.632,19.632,0,0,1,2.782,6.558,12.065,12.065,0,0,1,.31,1.713,11.114,11.114,0,0,1,.173,1.71c.016.571.047,1.137.05,1.7q-.077.844-.152,1.677a16.426,16.426,0,0,1-2.082,6.105,22.386,22.386,0,0,1-3.742,4.762,31.676,31.676,0,0,1-8.871,6l.091-.139c.035,2.112.067,4.084.1,5.843l0,.13h-.129l-10.288-.071-2.705-.031-.688-.013a1.426,1.426,0,0,1-.225-.012" transform="translate(-36.02 -22.773)" fill="#fff" stroke="#fff" stroke-linejoin="round" stroke-width="1"/>
        <path id="Trazado_729658" data-name="Trazado 729658" d="M238.534,191.579a59.58,59.58,0,0,1-7.144.219,59.44,59.44,0,0,1-7.144-.212,59.675,59.675,0,0,1,7.144-.218,59.583,59.583,0,0,1,7.144.211" transform="translate(-39.06 -33.333)" fill="#fff" stroke="#fff" stroke-linejoin="round" stroke-width="1"/>
        <path id="Trazado_729659" data-name="Trazado 729659" d="M234.884,198.12a8.644,8.644,0,0,1-5.037-.158,58.673,58.673,0,0,1,5.037.158" transform="translate(-40.036 -34.472)" fill="#fff" stroke="#fff" stroke-linejoin="round" stroke-width="1"/>
        <path id="Trazado_729660" data-name="Trazado 729660" d="M227.436,181.39a.962.962,0,0,1-.015-.236v-.691c.009-.639.023-1.529.04-2.657.055-2.34.133-5.669.229-9.769.055-2.065.115-4.323.179-6.745a4.548,4.548,0,0,0-.238-1.747,1.148,1.148,0,0,0-1.258-.837,1.667,1.667,0,0,0-1.108,1.25,2.565,2.565,0,0,0,.23,1.818,4.145,4.145,0,0,0,3.192,2.123,4.232,4.232,0,0,0,3.713-1.489,6.333,6.333,0,0,0,1.563-3.994,3.781,3.781,0,0,0-.436-2.112,1.554,1.554,0,0,0-1.749-.749,1.576,1.576,0,0,0-.837,1.715,4.275,4.275,0,0,0,.992,1.94,7.92,7.92,0,0,0,3.441,2.66,4.464,4.464,0,0,0,2.07.246,4.184,4.184,0,0,0,1.882-.785,3.271,3.271,0,0,0,1.181-1.568,2.372,2.372,0,0,0-.109-1.856,1.6,1.6,0,0,0-1.41-.96,1.959,1.959,0,0,0-1.48.885,8.422,8.422,0,0,0-.867,3.525c-.263,2.406-.434,4.659-.59,6.715-.277,4.091-.5,7.413-.659,9.747-.075,1.126-.135,2.013-.178,2.65-.023.283-.041.51-.056.69a1,1,0,0,1-.033.234.976.976,0,0,1-.011-.236c0-.18.007-.408.013-.691.023-.638.056-1.527.1-2.655.1-2.306.257-5.64.522-9.759.137-2.059.291-4.314.539-6.733.074-.606.134-1.217.239-1.846a4.563,4.563,0,0,1,.673-1.857,2.333,2.333,0,0,1,1.78-1.055,1.989,1.989,0,0,1,1.771,1.167,2.769,2.769,0,0,1,.14,2.164,3.679,3.679,0,0,1-1.318,1.77,4.581,4.581,0,0,1-2.069.869,4.87,4.87,0,0,1-2.269-.261,8.322,8.322,0,0,1-3.639-2.793,4.663,4.663,0,0,1-1.08-2.143,2,2,0,0,1,1.112-2.179,1.975,1.975,0,0,1,2.264.924,4.19,4.19,0,0,1,.5,2.354,6.748,6.748,0,0,1-1.679,4.263,4.648,4.648,0,0,1-4.077,1.614,4.539,4.539,0,0,1-3.5-2.357,2.956,2.956,0,0,1-.248-2.1,2.033,2.033,0,0,1,1.41-1.517,1.379,1.379,0,0,1,1.056.236,1.776,1.776,0,0,1,.615.837,4.889,4.889,0,0,1,.253,1.894c-.083,2.422-.161,4.68-.232,6.744-.154,4.1-.278,7.427-.366,9.764-.051,1.128-.092,2.016-.121,2.654-.018.282-.031.51-.043.69a.955.955,0,0,1-.029.235" transform="translate(-39.156 -27.009)" fill="#fff" stroke="#fff" stroke-linejoin="round" stroke-width="1"/>
        <path id="Trazado_729661" data-name="Trazado 729661" d="M237.58,194.852a39.249,39.249,0,0,1-5.8.215,39.254,39.254,0,0,1-5.8-.215,39.255,39.255,0,0,1,5.8-.215,39.25,39.25,0,0,1,5.8.215" transform="translate(-39.363 -33.903)" fill="#fff" stroke="#fff" stroke-linejoin="round" stroke-width="1"/>
        <path id="Trazado_729662" data-name="Trazado 729662" d="M361.794,145.093a33.061,33.061,0,0,1,8.032-3.607l1.566-8.012,13.5-.4,2.04,7.9a33.1,33.1,0,0,1,8.233,3.123l6.769-4.556,9.83,9.262-4.145,7.028a33.1,33.1,0,0,1,3.606,8.033l8.012,1.567.4,13.5-7.9,2.04a33.1,33.1,0,0,1-3.124,8.232l4.556,6.77L403.9,205.8l-7.029-4.146a33.069,33.069,0,0,1-8.033,3.607l-1.566,8.012-13.5.4-2.04-7.906a33.063,33.063,0,0,1-8.232-3.123l-6.77,4.556-9.83-9.262,4.146-7.028a33.085,33.085,0,0,1-3.607-8.033l-8.012-1.567-.4-13.5,7.9-2.041a33.121,33.121,0,0,1,3.123-8.231l-4.556-6.77,9.262-9.83Z" transform="translate(-59.054 -23.179)" fill="#ffa031" fill-rule="evenodd"/>
        <path id="Trazado_729663" data-name="Trazado 729663" d="M402.565,193.015a3.781,3.781,0,0,1-.655.043l-1.878.04-6.907.069-22.787.063H368.5v-.215c.026-8.512.05-16.145.066-21.7.028-2.725.051-4.94.067-6.521.017-.736.03-1.324.04-1.767a3.313,3.313,0,0,1,.042-.615,3.513,3.513,0,0,1,.042.615c.01.443.022,1.031.039,1.767.017,1.581.04,3.795.067,6.521.017,5.558.04,13.191.067,21.7l-.215-.215h1.624l22.787.063,6.907.069,1.878.04a3.712,3.712,0,0,1,.655.044" transform="translate(-64.187 -28.289)" fill="#fff" stroke="#fff" stroke-linejoin="round" stroke-width="1"/>
        <path id="Trazado_729664" data-name="Trazado 729664" d="M399.514,171.4a8.78,8.78,0,0,1-1.01.965l-2.858,2.509c-2.425,2.1-5.795,4.989-9.533,8.154l-.566.479-.145.123-.139-.13-4.24-3.94.264.007-6.227,5.136-1.807,1.445a4.028,4.028,0,0,1-.675.483,3.981,3.981,0,0,1,.591-.582l1.733-1.533,6.127-5.256.134-.115.13.121,4.26,3.918-.284-.006.566-.48c3.739-3.165,7.14-6.013,9.615-8.057l2.947-2.4a8.747,8.747,0,0,1,1.118-.837" transform="translate(-64.897 -29.855)" fill="#fff" stroke="#fff" stroke-linejoin="round" stroke-width="1"/>
        <path id="Trazado_729665" data-name="Trazado 729665" d="M403.511,178.413a10.646,10.646,0,0,1-.149-2.112c-.039-1.309-.064-3.123-.066-5.146l.215.215h-.366c-2.106,0-4.012-.024-5.392-.063a11.539,11.539,0,0,1-2.233-.152,11.539,11.539,0,0,1,2.233-.152c1.38-.04,3.286-.064,5.392-.064h.581v.215c0,2.022-.027,3.837-.066,5.146a10.641,10.641,0,0,1-.149,2.112" transform="translate(-68.893 -29.775)" fill="#fff" stroke="#fff" stroke-linejoin="round" stroke-width="1"/>
        <path id="Trazado_729666" data-name="Trazado 729666" d="M140.354,199.9a14.4,14.4,0,0,1-1.507-4.72,14.36,14.36,0,0,1,1.507,4.72" transform="translate(-24.18 -33.998)" fill="#263238"/>
        <path id="Trazado_729667" data-name="Trazado 729667" d="M150.25,220.491a33.226,33.226,0,0,1-4.926-8.566,43.909,43.909,0,0,1,2.516,4.253,44.244,44.244,0,0,1,2.41,4.313" transform="translate(-25.312 -36.914)" fill="#263238"/>
        <path id="Trazado_729668" data-name="Trazado 729668" d="M165.436,238.887a32.689,32.689,0,0,1-6.924-7.048,45.163,45.163,0,0,1,3.5,3.486,45.468,45.468,0,0,1,3.423,3.563" transform="translate(-27.609 -40.382)" fill="#263238"/>
        <path id="Trazado_729669" data-name="Trazado 729669" d="M184.871,252.708a31.864,31.864,0,0,1-8.54-4.972,46.381,46.381,0,0,1,4.293,2.448,47.105,47.105,0,0,1,4.247,2.525" transform="translate(-30.714 -43.151)" fill="#263238"/>
        <path id="Trazado_729670" data-name="Trazado 729670" d="M207.354,260.585a27.245,27.245,0,0,1-4.895-.772,28.548,28.548,0,0,1-4.706-1.551,28.588,28.588,0,0,1,4.808,1.133,30.165,30.165,0,0,1,4.793,1.19" transform="translate(-34.445 -44.982)" fill="#263238"/>
        <path id="Trazado_729671" data-name="Trazado 729671" d="M231.165,261.6a21.376,21.376,0,0,1-4.919.584,21.055,21.055,0,0,1-4.952-.152,44.683,44.683,0,0,1,4.933-.278,43.341,43.341,0,0,1,4.938-.154" transform="translate(-38.546 -45.558)" fill="#263238"/>
        <path id="Trazado_729672" data-name="Trazado 729672" d="M254.571,256.445a35.1,35.1,0,0,1-9.516,2.665,41.707,41.707,0,0,1,4.737-1.41,41.18,41.18,0,0,1,4.779-1.255" transform="translate(-42.685 -44.666)" fill="#263238"/>
        <path id="Trazado_729673" data-name="Trazado 729673" d="M276.386,246.313a34.374,34.374,0,0,1-8.7,4.685A42.043,42.043,0,0,1,272,248.59a42.776,42.776,0,0,1,4.386-2.278" transform="translate(-46.626 -42.903)" fill="#263238"/>
        <path id="Trazado_729674" data-name="Trazado 729674" d="M295.251,231.285a20.258,20.258,0,0,1-3.357,3.645A20.615,20.615,0,0,1,288,238a46.763,46.763,0,0,1,3.6-3.387,48.939,48.939,0,0,1,3.649-3.33" transform="translate(-50.165 -40.286)" fill="#263238"/>
        <path id="Trazado_729675" data-name="Trazado 729675" d="M308.978,211.436a20.619,20.619,0,0,1-2.031,4.519,19.339,19.339,0,0,1-2.739,4.13c-.1-.069,1.06-1.947,2.363-4.336a46.453,46.453,0,0,1,2.408-4.312" transform="translate(-52.987 -36.829)" fill="#263238"/>
        <path id="Trazado_729676" data-name="Trazado 729676" d="M317.529,188.957a28.534,28.534,0,0,1-1.34,4.763,28.487,28.487,0,0,1-1.747,4.629,28.719,28.719,0,0,1,1.339-4.764,28.674,28.674,0,0,1,1.747-4.628" transform="translate(-54.769 -32.913)" fill="#263238"/>
        <path id="Trazado_729677" data-name="Trazado 729677" d="M325.13,166.277a35.481,35.481,0,0,1-1.521,4.706,28.539,28.539,0,0,1-1.824,4.6,28.617,28.617,0,0,1,1.42-4.742c.434-1.3.911-2.439,1.267-3.262a4.935,4.935,0,0,1,.659-1.3" transform="translate(-56.047 -28.963)" fill="#263238"/>
        <path id="Trazado_729678" data-name="Trazado 729678" d="M335.435,144.853a44.185,44.185,0,0,1-2.338,4.353,40.576,40.576,0,0,1-2.467,4.283A22.185,22.185,0,0,1,332.72,149a21.142,21.142,0,0,1,2.714-4.145" transform="translate(-57.589 -25.231)" fill="#263238"/>
        <path id="Trazado_729679" data-name="Trazado 729679" d="M350.885,127.18c.074.1-1.662,1.468-3.652,3.319s-3.508,3.458-3.6,3.374a18.607,18.607,0,0,1,3.312-3.69,17.854,17.854,0,0,1,3.943-3" transform="translate(-59.854 -22.152)" fill="#263238"/>
        <path id="Trazado_729680" data-name="Trazado 729680" d="M372.018,117.081c.031.12-2.083.765-4.642,1.685s-4.6,1.772-4.651,1.66a19.272,19.272,0,0,1,4.506-2.065,19.9,19.9,0,0,1,4.787-1.28" transform="translate(-63.181 -20.391)" fill="#263238"/>
        <path id="Trazado_729681" data-name="Trazado 729681" d="M395.6,114.381c-.007.124-2.216.069-4.935.167s-4.922.274-4.937.15a19.788,19.788,0,0,1,4.923-.581,19.125,19.125,0,0,1,4.949.263" transform="translate(-67.188 -19.874)" fill="#263238"/>
        <path id="Trazado_729682" data-name="Trazado 729682" d="M418.789,119.637a46.544,46.544,0,0,1-4.67-1.611,48.221,48.221,0,0,1-4.642-1.691,20.379,20.379,0,0,1,4.786,1.286,20.693,20.693,0,0,1,4.525,2.017" transform="translate(-71.324 -20.261)" fill="#263238"/>
        <path id="Trazado_729683" data-name="Trazado 729683" d="M439.418,131.576c-.08.094-1.818-1.271-4.037-2.846a48.355,48.355,0,0,1-4-2.894,20.289,20.289,0,0,1,4.254,2.544,19.872,19.872,0,0,1,3.788,3.2" transform="translate(-75.139 -21.917)" fill="#263238"/>
        <path id="Trazado_729684" data-name="Trazado 729684" d="M452.5,145.219a8.7,8.7,0,0,1-1.588-1.9,8.6,8.6,0,0,1-1.352-2.078,10.935,10.935,0,0,1,2.94,3.981" transform="translate(-78.305 -24.601)" fill="#263238"/>
        <path id="Trazado_729685" data-name="Trazado 729685" d="M13.16,49.817s.045-.254.154-.747.279-1.233.5-2.187a56.181,56.181,0,0,1,2.747-8.166A61.552,61.552,0,0,1,23.39,26.932a67.544,67.544,0,0,1,12.6-12.9A66.76,66.76,0,0,1,55.2,3.644,70.827,70.827,0,0,1,67.06.777,76.171,76.171,0,0,1,79.978.029,66.927,66.927,0,0,1,93.469,1.738,61.188,61.188,0,0,1,106.84,6.46,60.42,60.42,0,0,1,119.067,14.6a57.892,57.892,0,0,1,10.151,11.209,55.87,55.87,0,0,1,6.8,13.509,63.574,63.574,0,0,1,3.1,14.364c.09,1.2.22,2.4.276,3.592q.042,1.794.083,3.57c.015,1.183-.064,2.363-.091,3.536-.107,1.169-.185,2.336-.336,3.488A52.174,52.174,0,0,1,135.5,81a101.836,101.836,0,0,1-5.867,11.535l-6.163,10.518a61.848,61.848,0,0,0-7.206,20.477,89.228,89.228,0,0,0-1.169,9.451c-.23,3-.324,5.839-.339,8.494a93.8,93.8,0,0,0,.641,13.588,53.8,53.8,0,0,0,1.887,8.385c.3.936.561,1.64.75,2.107.09.235.173.407.22.526s.069.18.069.18a19.3,19.3,0,0,1-1.121-2.787,51.812,51.812,0,0,1-1.97-8.387,92.345,92.345,0,0,1-.716-13.613c0-2.659.088-5.5.307-8.513a89.043,89.043,0,0,1,1.142-9.484,62.026,62.026,0,0,1,7.2-20.6l6.145-10.529a101.462,101.462,0,0,0,5.828-11.5,51.8,51.8,0,0,0,3.507-13.028c.149-1.142.225-2.3.33-3.46.026-1.164.1-2.334.087-3.511s-.056-2.361-.084-3.549c-.058-1.188-.187-2.376-.277-3.572a63.249,63.249,0,0,0-3.082-14.266,55.468,55.468,0,0,0-6.754-13.4,57.485,57.485,0,0,0-10.075-11.127,60.05,60.05,0,0,0-12.136-8.089,60.821,60.821,0,0,0-13.275-4.7A66.6,66.6,0,0,0,79.966.425a75.932,75.932,0,0,0-12.851.726,70.648,70.648,0,0,0-11.8,2.831A66.589,66.589,0,0,0,36.18,14.275a67.6,67.6,0,0,0-12.6,12.8,62.089,62.089,0,0,0-6.873,11.708,58.569,58.569,0,0,0-2.817,8.12q-.351,1.422-.535,2.174c-.124.49-.2.738-.2.738" transform="translate(-2.292 0)" fill="#263238"/>
      </g>
    </g>
    <g id="Grupo_1030927" data-name="Grupo 1030927">
      <g id="Grupo_1030926" data-name="Grupo 1030926" clip-path="url(#clip-path)">
        <path id="Trazado_729686" data-name="Trazado 729686" d="M256.553,425.129l12.391,4.347-.132,11.917c-5.933,1.673-6.763,4.673-6.763,4.673l12.4-.283,10.789-21.941-8.536-5.584-15.956-6.98" transform="translate(-44.687 -71.638)" fill="#ffa031"/>
        <g id="Grupo_1030910" data-name="Grupo 1030910" transform="translate(217.361 351.016)" opacity="0.6">
          <g id="Grupo_1030909" data-name="Grupo 1030909">
            <g id="Grupo_1030908" data-name="Grupo 1030908" clip-path="url(#clip-path-6)">
              <path id="Trazado_729687" data-name="Trazado 729687" d="M286.4,426.241l-10.789,21.941-12.4.283,1.355-1.9,10.071-.785,9.949-20.732Z" transform="translate(-263.208 -425.053)" fill="#fff"/>
            </g>
          </g>
        </g>
        <path id="Trazado_729688" data-name="Trazado 729688" d="M271.343,440.958c.095.125.8-.3,1.76-.292.96-.021,1.673.389,1.766.263.114-.1-.6-.823-1.77-.808s-1.872.743-1.756.837" transform="translate(-47.262 -76.662)" fill="#263238"/>
        <path id="Trazado_729689" data-name="Trazado 729689" d="M271.5,437.245c.126.085.661-.66,1.647-.875s1.784.22,1.862.089c.04-.057-.107-.261-.459-.443a2.322,2.322,0,0,0-2.823.632c-.241.315-.287.563-.226.6" transform="translate(-47.287 -75.906)" fill="#263238"/>
        <path id="Trazado_729690" data-name="Trazado 729690" d="M271.3,432.618c.137.065.544-.661,1.4-.979s1.638-.054,1.7-.194c.031-.064-.13-.233-.476-.353a2.152,2.152,0,0,0-2.5.946c-.179.32-.187.553-.122.58" transform="translate(-47.25 -75.071)" fill="#263238"/>
        <path id="Trazado_729691" data-name="Trazado 729691" d="M270.144,432.289c.152-.037.058-.818.43-1.657.348-.849.977-1.321.9-1.457-.043-.143-.963.206-1.4,1.243s-.063,1.939.071,1.871" transform="translate(-47.006 -74.75)" fill="#263238"/>
        <path id="Trazado_729692" data-name="Trazado 729692" d="M268.053,430.13a5.271,5.271,0,0,0,.292-1.665c.055-.6.111-1.2.167-1.816a3.955,3.955,0,0,0,0-1.155,1.007,1.007,0,0,0-.442-.616.776.776,0,0,0-.844.034,2.3,2.3,0,0,0-.7,1.1,4.143,4.143,0,0,0,.1,3c.442,1.012,1.064,1.374,1.088,1.329a13.637,13.637,0,0,1-.727-1.465,4.277,4.277,0,0,1-.187-1.7,3.975,3.975,0,0,1,.225-.976,1.973,1.973,0,0,1,.51-.831.222.222,0,0,1,.259-.019.477.477,0,0,1,.2.288,4.085,4.085,0,0,1,.014.987c-.016.619-.033,1.224-.05,1.823a5.292,5.292,0,0,0,.093,1.688" transform="translate(-46.384 -73.988)" fill="#263238"/>
        <path id="Trazado_729693" data-name="Trazado 729693" d="M267.165,431.7c.049-.032-.317-.574-1.271-.886a3.1,3.1,0,0,0-3.519,1.256.573.573,0,0,0,.054.481.7.7,0,0,0,.325.266,1.909,1.909,0,0,0,.581.117,5.564,5.564,0,0,0,1.009,0,5.346,5.346,0,0,0,1.642-.418c.888-.39,1.3-.841,1.258-.888-.05-.072-.532.254-1.392.527a6.125,6.125,0,0,1-1.543.277,5.792,5.792,0,0,1-.919-.028,1.577,1.577,0,0,1-.417-.083c-.107-.064-.078-.045-.077-.083a.978.978,0,0,1,.245-.295,2.84,2.84,0,0,1,.364-.292,3.027,3.027,0,0,1,2.294-.463,11.783,11.783,0,0,1,1.367.513" transform="translate(-45.696 -75.017)" fill="#263238"/>
        <g id="Grupo_1030913" data-name="Grupo 1030913" transform="translate(230.65 350.545)" opacity="0.6">
          <g id="Grupo_1030912" data-name="Grupo 1030912">
            <g id="Grupo_1030911" data-name="Grupo 1030911" clip-path="url(#clip-path-7)">
              <path id="Trazado_729694" data-name="Trazado 729694" d="M279.3,425.987a1.472,1.472,0,1,0,1.439-1.5,1.471,1.471,0,0,0-1.439,1.5" transform="translate(-279.3 -424.483)" fill="#fff"/>
            </g>
          </g>
        </g>
        <path id="Trazado_729695" data-name="Trazado 729695" d="M176.06,422.013l.168,16.236s-16.448,5.625-16.709,8.628l31.493.8.776-25.31Z" transform="translate(-27.786 -73.508)" fill="#ffa031"/>
        <g id="Grupo_1030916" data-name="Grupo 1030916" transform="translate(156.65 363.566)" opacity="0.6">
          <g id="Grupo_1030915" data-name="Grupo 1030915">
            <g id="Grupo_1030914" data-name="Grupo 1030914" clip-path="url(#clip-path-8)">
              <path id="Trazado_729696" data-name="Trazado 729696" d="M191.258,440.311a1.286,1.286,0,0,1,.851,1.491,1.237,1.237,0,0,1-1.47.857,1.358,1.358,0,0,1-.894-1.583,1.284,1.284,0,0,1,1.628-.723" transform="translate(-189.691 -440.25)" fill="#fff"/>
            </g>
          </g>
        </g>
        <g id="Grupo_1030919" data-name="Grupo 1030919" transform="translate(131.726 371.62)" opacity="0.6">
          <g id="Grupo_1030918" data-name="Grupo 1030918">
            <g id="Grupo_1030917" data-name="Grupo 1030917" clip-path="url(#clip-path-9)">
              <path id="Trazado_729697" data-name="Trazado 729697" d="M191.012,452.558,190.991,450l-30.188.184s-1.418.574-1.285,1.566Z" transform="translate(-159.51 -450.004)" fill="#fff"/>
            </g>
          </g>
        </g>
        <path id="Trazado_729698" data-name="Trazado 729698" d="M179.14,441.438c0,.154.768.244,1.512.757.758.495,1.131,1.17,1.274,1.113.142-.026-.064-.951-.975-1.558s-1.841-.454-1.811-.312" transform="translate(-31.203 -76.869)" fill="#263238"/>
        <path id="Trazado_729699" data-name="Trazado 729699" d="M175.1,443c-.039.148.62.427,1.126,1.091.524.648.638,1.355.792,1.353.144.027.273-.87-.372-1.684s-1.539-.906-1.547-.76" transform="translate(-30.499 -77.154)" fill="#263238"/>
        <path id="Trazado_729700" data-name="Trazado 729700" d="M172.457,447.181c.139.036.372-.727,0-1.579s-1.084-1.206-1.152-1.079c-.091.125.365.588.661,1.292.312.7.339,1.347.492,1.366" transform="translate(-29.836 -77.424)" fill="#263238"/>
        <path id="Trazado_729701" data-name="Trazado 729701" d="M179.589,436.87c.061.142.772-.052,1.639.029.87.064,1.538.372,1.622.243.092-.109-.554-.7-1.577-.776s-1.757.382-1.684.5" transform="translate(-31.281 -76.006)" fill="#263238"/>
        <g id="Grupo_1030922" data-name="Grupo 1030922" transform="translate(148.312 351.721)" opacity="0.3">
          <g id="Grupo_1030921" data-name="Grupo 1030921">
            <g id="Grupo_1030920" data-name="Grupo 1030920" clip-path="url(#clip-path-10)">
              <path id="Trazado_729702" data-name="Trazado 729702" d="M179.594,425.908l.026,2.894,15.482.254.087-2.6Z" transform="translate(-179.594 -425.908)"/>
            </g>
          </g>
        </g>
        <path id="Trazado_729703" data-name="Trazado 729703" d="M179.622,432.5a2.954,2.954,0,0,0,1.577.032,7.056,7.056,0,0,0,1.663-.465,7.307,7.307,0,0,0,.918-.458,1.922,1.922,0,0,0,.486-.358.672.672,0,0,0,.092-.817.843.843,0,0,0-.665-.368,2.042,2.042,0,0,0-.594.066,5.681,5.681,0,0,0-.989.311,5.574,5.574,0,0,0-1.479.917c-.747.658-1.012,1.226-.96,1.258.068.052.436-.42,1.194-.96a6.291,6.291,0,0,1,1.427-.756,5.782,5.782,0,0,1,.913-.256c.335-.079.619-.074.7.076.03.058.033.08-.039.176a1.6,1.6,0,0,1-.358.262,8.329,8.329,0,0,1-.846.455,8.692,8.692,0,0,1-1.539.545,10.846,10.846,0,0,0-1.5.339" transform="translate(-31.287 -74.91)" fill="#263238"/>
        <path id="Trazado_729704" data-name="Trazado 729704" d="M179.44,432.223a2.517,2.517,0,0,0,.455-1.513,5.143,5.143,0,0,0-.171-1.733,5.2,5.2,0,0,0-.377-.968,1.3,1.3,0,0,0-.986-.822.736.736,0,0,0-.67.423,2.12,2.12,0,0,0-.177.574,3.5,3.5,0,0,0-.028,1.063,3.628,3.628,0,0,0,.632,1.647c.595.832,1.231,1.031,1.246.979.053-.076-.476-.386-.927-1.183a3.632,3.632,0,0,1-.461-1.495,3.288,3.288,0,0,1,.052-.911c.058-.333.191-.6.315-.562.157,0,.417.26.538.53a5.26,5.26,0,0,1,.369.865,5.636,5.636,0,0,1,.265,1.581c.02.926-.159,1.5-.076,1.523" transform="translate(-30.91 -74.409)" fill="#263238"/>
        <path id="Trazado_729705" data-name="Trazado 729705" d="M251.838,404.1l-36.266-13.486,38.125-5.351,1.919-18.573-71.294,6.222-10.068,14.493,2.652,18.188,69.46,17.658Z" transform="translate(-30.352 -63.872)" fill="#263238"/>
        <path id="Trazado_729706" data-name="Trazado 729706" d="M174.358,409.91l-3.473-66.373a18.669,18.669,0,0,1,24.566-17.166l46.255,15.422,25.387,6.527s4.324,10.668,1.782,18.956c-2.488,8.113-11.379,13.51-19.2,11.19-9.716-2.88-54.325-22.063-54.325-22.063v54.048Z" transform="translate(-29.765 -56.682)" fill="#263238"/>
        <path id="Trazado_729707" data-name="Trazado 729707" d="M254.115,385.113a1.493,1.493,0,0,1-.276-.091l-.793-.306-3.033-1.213-11.125-4.538-36.643-15.122-1.865-.774.3-.2c-.026,15.017-.049,28.519-.066,38.3-.028,4.857-.051,8.788-.067,11.534-.017,1.339-.031,2.387-.04,3.128-.009.339-.016.608-.021.813a1.3,1.3,0,0,1-.021.277,1.457,1.457,0,0,1-.021-.277c0-.2-.012-.473-.021-.813-.009-.741-.022-1.79-.04-3.128-.016-2.746-.039-6.677-.068-11.534-.017-9.777-.04-23.278-.065-38.3v-.322l.3.124,1.866.773L239,378.684l11.073,4.664,3,1.288.776.345a1.5,1.5,0,0,1,.259.131" transform="translate(-34.88 -63.15)" fill="#455a64"/>
        <path id="Trazado_729708" data-name="Trazado 729708" d="M213.746,389.961a15.184,15.184,0,0,1,8.694,4.815c-.09.1-1.739-1.439-4.151-2.762-2.4-1.342-4.58-1.924-4.544-2.052" transform="translate(-37.231 -67.922)" fill="#455a64"/>
        <path id="Trazado_729709" data-name="Trazado 729709" d="M195.633,352.067a33.1,33.1,0,0,1,4.17,9.3c-.116.041-.965-2.075-2.117-4.637s-2.161-4.606-2.053-4.665" transform="translate(-34.075 -61.324)" fill="#455a64"/>
        <path id="Trazado_729710" data-name="Trazado 729710" d="M192.222,316.327l-8.18-1.529-8.594,8.767,1.586,5.583,10.02-3.69Z" transform="translate(-30.56 -54.833)" fill="#ffbe9d"/>
        <path id="Trazado_729711" data-name="Trazado 729711" d="M157.12,198.82l-2.214.187s-3.987.652-3.987.741-1.751,2.535-1.755,2.544l-1.605,2.481a2.309,2.309,0,0,0,2.242-.413l-.56,1.247a2.488,2.488,0,0,0,3.08-1.2,29.152,29.152,0,0,1,1.736-2.469l.726-.066c.06.149,2.86,4.1,2.918,4.005s2.383-2.334,2.383-2.334Z" transform="translate(-25.702 -34.631)" fill="#eb996e"/>
        <path id="Trazado_729712" data-name="Trazado 729712" d="M163.124,215.574l.654-12.253-6.208-7.036-6.829.414-2.794,1.95c.144.676,2.079,1.139,4.17.533a10.558,10.558,0,0,1,4.3-.145l2.63,4.583-1.738,1.917,2.228,11.753Z" transform="translate(-25.77 -34.19)" fill="#ffbe9d"/>
        <path id="Trazado_729713" data-name="Trazado 729713" d="M143.919,200.093h22.2a1.014,1.014,0,1,1,0,2.028h-22.2l-2.177-1.014Z" transform="translate(-24.689 -34.853)" fill="#263238"/>
        <path id="Trazado_729714" data-name="Trazado 729714" d="M157.116,219.154l-2.261-5.561a5.236,5.236,0,0,1-.381-2.226c.1-2,.247-6.009-.061-6.933-.414-1.241-2.069-5.484-1.138-6.105s2.221-.827,3.128,1.656,3.7,7.864,3.7,7.864l2.114,8.864Z" transform="translate(-26.649 -34.475)" fill="#ffbe9d"/>
        <path id="Trazado_729715" data-name="Trazado 729715" d="M159.789,207.281a16.718,16.718,0,0,1-1.285-2.373c-.743-1.472-1.752-3.611-2.828-5.824a1.631,1.631,0,0,0-1.312-.856,1.194,1.194,0,0,0-1.1.824,3.17,3.17,0,0,0,.044,1.453c.088.477.192.916.3,1.314.433,1.594.887,2.524.823,2.553a2.1,2.1,0,0,1-.377-.624,12.928,12.928,0,0,1-.737-1.843c-.127-.4-.249-.845-.355-1.329a3.407,3.407,0,0,1-.074-1.638,1.593,1.593,0,0,1,1.473-1.131,2.031,2.031,0,0,1,1.685,1.044c1.146,2.347,2.054,4.4,2.741,5.928a16.81,16.81,0,0,1,1.01,2.5" transform="translate(-26.616 -34.455)" fill="#eb996e"/>
        <path id="Trazado_729716" data-name="Trazado 729716" d="M280.947,350.852l-2.263-3.971-24.206-6.059,2.851,4.923Z" transform="translate(-44.326 -59.366)" fill="#ffbe9d"/>
        <path id="Trazado_729717" data-name="Trazado 729717" d="M155.432,222.567l15.236,36.1a14.025,14.025,0,0,0,7.593,7.518l32.873,13.5,7.653-21.177-32.013-11.335-20.8-29.65Z" transform="translate(-27.074 -37.889)" fill="#ffa031"/>
        <path id="Trazado_729718" data-name="Trazado 729718" d="M214.624,266.769c.034.846-3.553,27.116-3.553,32.483s10.277,11.191,10.277,11.191L232.6,334.338h40.08l-13.7-25.728L252.785,288a48.544,48.544,0,0,0-12.439-20.625l-6.692-4.478Z" transform="translate(-36.765 -45.792)" fill="#ffa031"/>
        <path id="Trazado_729719" data-name="Trazado 729719" d="M222.507,290.363l6.732,28.245-33.951-9.566L189.5,319.267l44.177,20.12a12.418,12.418,0,0,0,17.177-14.38l-9.892-38.646a9.449,9.449,0,0,0-18.455,4" transform="translate(-33.008 -48.641)" fill="#ffa031"/>
        <path id="Trazado_729720" data-name="Trazado 729720" d="M221.312,312.7a1.563,1.563,0,0,1-.391-.167c-.249-.121-.612-.312-1.07-.571a30.929,30.929,0,0,1-3.724-2.469,15.182,15.182,0,0,1-4.382-4.98c-1.088-2.35-1.011-5.242-.614-8.072.41-2.858,1-5.521,1.343-7.982.377-2.453.637-4.674.775-6.545s.168-3.389.163-4.439-.035-1.631,0-1.633a1.549,1.549,0,0,1,.069.419c.034.276.067.684.1,1.21a41.094,41.094,0,0,1-.026,4.464c-.1,1.883-.329,4.118-.685,6.583-.325,2.469-.9,5.156-1.309,7.981-.4,2.805-.467,5.615.547,7.848a15.267,15.267,0,0,0,4.212,4.909,37.455,37.455,0,0,0,3.62,2.563,16.3,16.3,0,0,1,1.375.882" transform="translate(-36.729 -48.047)" fill="#263238"/>
        <path id="Trazado_729721" data-name="Trazado 729721" d="M244.231,283.3a14.027,14.027,0,0,0-9.252-.625,9.434,9.434,0,0,1,9.252.625" transform="translate(-40.929 -49.076)" fill="#263238"/>
        <path id="Trazado_729722" data-name="Trazado 729722" d="M236.8,265.181a3.794,3.794,0,0,1-.613.685c-.413.421-1.026,1.015-1.8,1.734-1.542,1.44-3.731,3.368-6.244,5.383s-4.872,3.731-6.614,4.922c-.87.6-1.583,1.066-2.085,1.377a3.742,3.742,0,0,1-.8.448,3.8,3.8,0,0,1,.708-.587l2-1.486c1.693-1.253,4.015-3,6.522-5.01s4.718-3.894,6.309-5.274l1.887-1.631a3.789,3.789,0,0,1,.727-.562" transform="translate(-38.084 -46.19)" fill="#263238"/>
        <path id="Trazado_729723" data-name="Trazado 729723" d="M192.319,253.52c.043.119-1.189.642-2.553,1.54s-2.342,1.807-2.435,1.719a8.531,8.531,0,0,1,4.987-3.259" transform="translate(-32.629 -44.156)" fill="#263238"/>
        <path id="Trazado_729724" data-name="Trazado 729724" d="M229.538,307.235a2.694,2.694,0,0,1-.739.237,14.326,14.326,0,0,1-2.082.365,19.214,19.214,0,0,1-3.14.085,20.2,20.2,0,0,1-7.434-1.863,19.182,19.182,0,0,1-2.728-1.556,14.18,14.18,0,0,1-1.664-1.3c-.368-.339-.559-.535-.54-.557.052-.06.878.669,2.37,1.606a21.873,21.873,0,0,0,13.11,3.285c1.758-.123,2.83-.376,2.847-.3" transform="translate(-36.789 -52.715)" fill="#fafafa"/>
        <path id="Trazado_729725" data-name="Trazado 729725" d="M234.064,322.806a4.226,4.226,0,0,1-1.522.277,13.942,13.942,0,0,1-7.256-1.478,4.239,4.239,0,0,1-1.293-.851,31.546,31.546,0,0,0,4.907,1.659,31.489,31.489,0,0,0,5.165.392" transform="translate(-39.016 -55.869)" fill="#fafafa"/>
        <path id="Trazado_729726" data-name="Trazado 729726" d="M253.626,313.9a2.413,2.413,0,0,1-.63.378,18.839,18.839,0,0,1-1.823.819,27.938,27.938,0,0,1-12.97,1.8,19.058,19.058,0,0,1-1.977-.293,2.433,2.433,0,0,1-.709-.193c.012-.07,1.041.084,2.71.183a32.873,32.873,0,0,0,12.841-1.777c1.58-.548,2.528-.977,2.558-.913" transform="translate(-41.023 -54.675)" fill="#fafafa"/>
        <path id="Trazado_729727" data-name="Trazado 729727" d="M249.73,296.925c-.014.068-1.051-.127-2.737-.328a42.269,42.269,0,0,0-13.187.476c-1.667.321-2.687.59-2.706.524a2.52,2.52,0,0,1,.691-.277c.453-.155,1.119-.344,1.951-.543a34.381,34.381,0,0,1,13.294-.479c.844.14,1.523.279,1.985.4a2.5,2.5,0,0,1,.709.227" transform="translate(-40.254 -51.535)" fill="#fafafa"/>
        <path id="Trazado_729728" data-name="Trazado 729728" d="M257.908,340.986a4.289,4.289,0,0,1-.965-.191,24.564,24.564,0,0,1-2.56-.791,33.71,33.71,0,0,1-14.335-10.067,24.742,24.742,0,0,1-1.614-2.138,4.287,4.287,0,0,1-.507-.844c.064-.045.863,1.1,2.351,2.784a37.438,37.438,0,0,0,14.213,9.98c2.088.829,3.437,1.192,3.416,1.267" transform="translate(-41.443 -56.95)" fill="#fafafa"/>
        <path id="Trazado_729729" data-name="Trazado 729729" d="M225.235,340.206a9.158,9.158,0,0,1-.1-2.349A26.141,26.141,0,0,1,228,326.933a9.214,9.214,0,0,1,1.24-2,20.515,20.515,0,0,1-.966,2.131,32.356,32.356,0,0,0-2.833,10.809,20.829,20.829,0,0,1-.2,2.331" transform="translate(-39.213 -56.598)" fill="#fafafa"/>
        <path id="Trazado_729730" data-name="Trazado 729730" d="M200.5,329.8a6.639,6.639,0,0,1,.017-1.977,11.227,11.227,0,0,1,1.465-4.554,14.665,14.665,0,0,1,3.191-3.563,7.643,7.643,0,0,1,1.605-1.149,10.9,10.9,0,0,1-1.4,1.376,17.55,17.55,0,0,0-3.022,3.557,12.607,12.607,0,0,0-1.534,4.374,13.7,13.7,0,0,1-.318,1.936" transform="translate(-34.914 -55.488)" fill="#fafafa"/>
        <path id="Trazado_729731" data-name="Trazado 729731" d="M278.809,343.173a12.765,12.765,0,0,1-2.386,1.052,44.567,44.567,0,0,1-6.03,1.81,25.819,25.819,0,0,1-6.269.682,10.27,10.27,0,0,1-1.09-.073,6.461,6.461,0,0,1-.817-.114,2.21,2.21,0,0,1-.681-.178c.012-.075,1,.088,2.59.061a31.262,31.262,0,0,0,6.174-.8c2.381-.53,4.5-1.18,6.022-1.676a19.9,19.9,0,0,1,2.487-.766" transform="translate(-45.556 -59.774)" fill="#fafafa"/>
        <path id="Trazado_729732" data-name="Trazado 729732" d="M269.712,323.405c.046.022-.213.522-.907,1.031a12.367,12.367,0,0,1-2.916,1.531,18.326,18.326,0,0,1-3.15.928,5.1,5.1,0,0,1-1,.1c-.24.007-.386-.083-.365-.1.025-.031.492-.061,1.3-.3.8-.223,1.885-.576,3.062-1.032a18.009,18.009,0,0,0,2.9-1.382c.7-.421,1.022-.817,1.08-.78" transform="translate(-45.527 -56.332)" fill="#fafafa"/>
        <path id="Trazado_729733" data-name="Trazado 729733" d="M263.1,303.327c.021,0,.013.14-.126.3a2.768,2.768,0,0,1-.663.537,13.125,13.125,0,0,1-2.495,1.164,14.366,14.366,0,0,1-2.655.718c-.7.12-1.163.026-1.15-.031a11.1,11.1,0,0,1,1.089-.267c.666-.173,1.576-.465,2.569-.823a25.991,25.991,0,0,0,2.492-1.024,4.766,4.766,0,0,0,.7-.393c.154-.1.2-.188.243-.177" transform="translate(-44.594 -52.835)" fill="#fafafa"/>
        <path id="Trazado_729734" data-name="Trazado 729734" d="M226.258,292.078a6.9,6.9,0,0,1-1.941.076A24.858,24.858,0,0,1,215.228,290a6.9,6.9,0,0,1-1.7-.939c.058-.125,2.71,1.2,6.242,2.028,3.525.849,6.493.852,6.488.989" transform="translate(-37.193 -50.348)" fill="#fafafa"/>
        <path id="Trazado_729735" data-name="Trazado 729735" d="M256.527,283.673a11.692,11.692,0,0,1-5.743,2.34c-.015-.094,1.287-.52,2.867-1.181,1.59-.631,2.819-1.236,2.876-1.159" transform="translate(-43.683 -49.41)" fill="#fafafa"/>
        <path id="Trazado_729736" data-name="Trazado 729736" d="M235.317,270.677a3.588,3.588,0,0,1,1.149.912,10.471,10.471,0,0,1,2.9,6.356,3.569,3.569,0,0,1-.065,1.465,14.182,14.182,0,0,0-3.98-8.733" transform="translate(-40.988 -47.147)" fill="#fafafa"/>
        <path id="Trazado_729737" data-name="Trazado 729737" d="M203.518,280.429a2.966,2.966,0,0,1-.378-.779,13.326,13.326,0,0,1-.658-2.267,20.516,20.516,0,0,1,.057-7.758,40.863,40.863,0,0,1,2.249-7.427c.365-.922.678-1.661.9-2.167a3.3,3.3,0,0,1,.391-.77,3.39,3.39,0,0,1-.235.831l-.774,2.212a50.6,50.6,0,0,0-2.111,7.4,22.331,22.331,0,0,0-.181,7.626c.318,1.94.813,3.072.737,3.1" transform="translate(-35.21 -45.159)" fill="#fafafa"/>
        <path id="Trazado_729738" data-name="Trazado 729738" d="M180.289,271.653a3.179,3.179,0,0,1,.145-.832,20.151,20.151,0,0,1,.652-2.207,28.266,28.266,0,0,1,8.6-12.341,20.08,20.08,0,0,1,1.846-1.376,3.24,3.24,0,0,1,.731-.424c.043.062-.938.751-2.378,2.031a31.846,31.846,0,0,0-8.513,12.216c-.7,1.794-1.008,2.953-1.081,2.934" transform="translate(-31.402 -44.324)" fill="#fafafa"/>
        <path id="Trazado_729739" data-name="Trazado 729739" d="M181.1,240.144c0,.078-.941.121-2.392.533a22.4,22.4,0,0,0-5.366,2.4,25.4,25.4,0,0,0-4.66,3.6c-1.075,1.062-1.616,1.835-1.678,1.793-.025-.017.092-.222.325-.583a6.547,6.547,0,0,1,.462-.631,9.4,9.4,0,0,1,.671-.789,21.379,21.379,0,0,1,4.658-3.754,19.256,19.256,0,0,1,5.513-2.322,7.82,7.82,0,0,1,1.021-.189,5.623,5.623,0,0,1,.779-.076,2,2,0,0,1,.668.026" transform="translate(-29.089 -41.824)" fill="#fafafa"/>
        <path id="Trazado_729740" data-name="Trazado 729740" d="M171.875,226.435a20.916,20.916,0,0,0-13.6,3.44,6.813,6.813,0,0,1,1.676-1.3,16.737,16.737,0,0,1,9.834-2.487,6.852,6.852,0,0,1,2.1.352" transform="translate(-27.568 -39.374)" fill="#fafafa"/>
        <path id="Trazado_729741" data-name="Trazado 729741" d="M222.507,292.706a3.216,3.216,0,0,1,.167.539c.1.392.239.915.411,1.575.353,1.415.85,3.41,1.467,5.891l4.89,20.19.084.347-.344-.1-8.656-2.433-25.28-7.185.178-.073-4.3,7.447-1.187,2.014-.318.519a.756.756,0,0,1-.122.169.723.723,0,0,1,.083-.192l.281-.54q.408-.752,1.116-2.055c1-1.809,2.425-4.368,4.174-7.516l.059-.107.118.033,25.313,7.071,8.653,2.444-.26.249c-1.9-8.1-3.554-15.154-4.743-20.226-.568-2.494-1.024-4.5-1.348-5.919-.144-.666-.258-1.2-.344-1.591a3.282,3.282,0,0,1-.094-.557" transform="translate(-33.008 -50.985)" fill="#263238"/>
        <path id="Trazado_729742" data-name="Trazado 729742" d="M252,290.577a2.318,2.318,0,0,1,.165.485c.1.367.233.834.393,1.41.337,1.283.8,3.048,1.368,5.206,1.126,4.453,2.659,10.514,4.353,17.212.832,3.368,1.646,6.564,2.333,9.5a22.386,22.386,0,0,1,.647,7.972,11.234,11.234,0,0,1-1.9,5.041A5.934,5.934,0,0,1,258,338.843a15.9,15.9,0,0,0,1.218-1.538,11.511,11.511,0,0,0,1.733-4.985,22.666,22.666,0,0,0-.732-7.845c-.728-2.92-1.525-6.12-2.363-9.482l-4.231-17.242c-.511-2.171-.93-3.947-1.235-5.239-.128-.584-.233-1.058-.315-1.43a2.27,2.27,0,0,1-.081-.505" transform="translate(-43.893 -50.614)" fill="#263238"/>
        <g id="Grupo_1030925" data-name="Grupo 1030925" transform="translate(210.579 249.925)" opacity="0.3">
          <g id="Grupo_1030924" data-name="Grupo 1030924">
            <g id="Grupo_1030923" data-name="Grupo 1030923" clip-path="url(#clip-path-11)">
              <path id="Trazado_729743" data-name="Trazado 729743" d="M258.68,341.26c4.971.458,7.856-2.378,8.388-6.256a14,14,0,0,0-1.109-6.312c-3.047-8.935-6.128-17.944-10.964-26.052,1.826,8.113,4.156,15.9,5.982,24.016a25.158,25.158,0,0,1,.772,6.909,12.443,12.443,0,0,1-3.069,7.7" transform="translate(-254.995 -302.64)"/>
            </g>
          </g>
        </g>
        <path id="Trazado_729744" data-name="Trazado 729744" d="M237.309,253.612a10.112,10.112,0,0,0,12.846-7.681,5.942,5.942,0,0,0,5.125,1.362,9.777,9.777,0,0,0,4.781-2.58,11.939,11.939,0,0,0,4.013-8.969,8.744,8.744,0,0,0-5.426-7.858c-3.181-1.14-7.206.344-8.517,3.459-.591-1.769.927-4.158.564-5.988-.728-3.672-2.923-5.819-4.787-5.9" transform="translate(-41.335 -38.226)" fill="#263238"/>
        <path id="Trazado_729745" data-name="Trazado 729745" d="M239.889,250.891c3.637-6.341,4.679-14.788,5.6-22.094.433-3.44,1.194-8.336-1.15-10.486-2.511-2.3-2.752-5.858-5.638-7.636a8.634,8.634,0,0,0-9.519.11" transform="translate(-39.92 -36.457)" fill="#263238"/>
        <path id="Trazado_729746" data-name="Trazado 729746" d="M216.849,264.25V254.3s-10.363-1.831-10.977-10.135-.4-27.481-.4-27.481a27.316,27.316,0,0,1,28.355,1.8l-.419,29.235.02,9.523-8.484,6.885-8.1,6.377Z" transform="translate(-35.784 -37.197)" fill="#ffbe9d"/>
        <path id="Trazado_729747" data-name="Trazado 729747" d="M212.438,232.535c1.383-1.78,3.639-2.494,5.5-1.256a4.92,4.92,0,0,1,1.576,6.032,6.2,6.2,0,0,1-3.941,3.093s3.732,6.806,6.105,8.61c2.828,2.15,4.156,3.207,7.645,3.622,3.43.408,3.016.443,5-2.47a11.411,11.411,0,0,0,1.939-6.749q.159-9.188.316-18.374a27.09,27.09,0,0,0-.424-6.591,8.879,8.879,0,0,0-3.385-5.441c-1.962-1.324-4.443-1.43-6.675-2.168-2.791-.922-5.165-2.823-7.778-4.192s-5.813-2.183-8.427-.818c-1.877.979-3.132,2.919-4.957,4-2.6,1.535-6.142,1.2-7.4,5.152a6.9,6.9,0,0,0,.055,4.223c1.78,5.369,8.237,7.516,12.876,5.179.094.91-.769,2.938.168,5.81.3.918.41,2.319,1.8,2.341" transform="translate(-34.355 -35.73)" fill="#263238"/>
        <path id="Trazado_729748" data-name="Trazado 729748" d="M217.4,243.737c-.033.012-.031.157.112.358a1.191,1.191,0,0,0,.9.46,2.254,2.254,0,0,0,2.08-2.3,2.449,2.449,0,0,0-.6-1.756,2.393,2.393,0,0,0-1.263-.745c-.83-.176-1.306.14-1.272.195.021.094.495-.04,1.161.209a2.078,2.078,0,0,1,1.394,2.07,1.916,1.916,0,0,1-1.509,1.906c-.674.044-.948-.452-1.007-.4" transform="translate(-37.86 -41.752)" fill="#eb996e"/>
        <path id="Trazado_729749" data-name="Trazado 729749" d="M264.909,239.306a2.511,2.511,0,0,1-.235.78,8.794,8.794,0,0,1-1.1,1.933A9.669,9.669,0,0,1,257.4,245.8a9.489,9.489,0,0,1-7-1.809,8.573,8.573,0,0,1-1.6-1.544,2.52,2.52,0,0,1-.443-.684,17.424,17.424,0,0,0,2.223,1.98,9.587,9.587,0,0,0,6.758,1.632,9.79,9.79,0,0,0,5.993-3.543,18.4,18.4,0,0,0,1.578-2.527" transform="translate(-43.259 -41.683)" fill="#455a64"/>
        <path id="Trazado_729750" data-name="Trazado 729750" d="M263.807,237.679a1.978,1.978,0,0,1-.288.638,9.15,9.15,0,0,1-1.121,1.545,10.371,10.371,0,0,1-5.368,3.2,10.149,10.149,0,0,1-6.222-.587,8.779,8.779,0,0,1-1.664-.935c-.363-.267-.543-.44-.527-.461.045-.068.832.552,2.306,1.114a10.543,10.543,0,0,0,6.012.449,10.809,10.809,0,0,0,5.241-2.989c1.1-1.131,1.563-2.018,1.631-1.976" transform="translate(-43.305 -41.4)" fill="#455a64"/>
        <path id="Trazado_729751" data-name="Trazado 729751" d="M243.877,246.836a1.325,1.325,0,0,1-.344.191,3.859,3.859,0,0,1-1.093.288,5.927,5.927,0,0,1-3.956-1.091,11.5,11.5,0,0,1-3.723-4.839c-1.008-2.068-1.809-4.492-3.377-6.583a7.908,7.908,0,0,0-2.833-2.42,10.093,10.093,0,0,0-3.391-.894c-2.255-.23-4.34-.08-6.08-.319a9.759,9.759,0,0,1-3.937-1.227,6.076,6.076,0,0,1-.9-.679c-.184-.181-.275-.279-.265-.29.029-.034.41.356,1.248.824a10.188,10.188,0,0,0,3.888,1.068c1.71.2,3.774.017,6.086.228a10.356,10.356,0,0,1,3.535.909,8.265,8.265,0,0,1,2.991,2.54c1.625,2.171,2.414,4.625,3.392,6.672a11.432,11.432,0,0,0,3.537,4.759,5.929,5.929,0,0,0,3.768,1.175,7.087,7.087,0,0,0,1.453-.312" transform="translate(-37.272 -39.883)" fill="#455a64"/>
        <path id="Trazado_729752" data-name="Trazado 729752" d="M243,243.652a1.185,1.185,0,0,1-.37.036,4.118,4.118,0,0,1-1.061-.135,6.7,6.7,0,0,1-3.227-2.185,12.565,12.565,0,0,1-1.552-2.225c-.476-.851-.908-1.79-1.387-2.76a19.049,19.049,0,0,0-1.69-2.905,8.644,8.644,0,0,0-1.178-1.3,5.74,5.74,0,0,0-.715-.535,4.152,4.152,0,0,0-.771-.472,9.711,9.711,0,0,0-3.412-1,26.123,26.123,0,0,0-3.37-.173,46.1,46.1,0,0,1-5.777-.153,10.345,10.345,0,0,1-3.74-1.12,7.079,7.079,0,0,1-.882-.6c-.194-.145-.292-.227-.282-.239.025-.035.443.261,1.241.685a10.946,10.946,0,0,0,3.7.966,51.362,51.362,0,0,0,5.74.059,25.6,25.6,0,0,1,3.425.151,10.025,10.025,0,0,1,3.559,1.041,4.5,4.5,0,0,1,.816.5,6.276,6.276,0,0,1,.756.569,9,9,0,0,1,1.232,1.368,18.935,18.935,0,0,1,1.707,2.982c.473.979.892,1.921,1.344,2.762a12.7,12.7,0,0,0,1.469,2.2,6.8,6.8,0,0,0,3.043,2.222,10.358,10.358,0,0,0,1.385.259" transform="translate(-37.203 -39.694)" fill="#455a64"/>
        <path id="Trazado_729753" data-name="Trazado 729753" d="M250.985,249.214c-.019.019-.188-.112-.457-.385a8.235,8.235,0,0,1-1-1.278,10.17,10.17,0,0,1-.407-10.3,8.339,8.339,0,0,1,.9-1.355c.245-.295.4-.438.424-.42.059.045-.479.7-1.05,1.913a10.741,10.741,0,0,0,.4,10c.666,1.164,1.257,1.771,1.2,1.821" transform="translate(-43.182 -41.016)" fill="#e8505b"/>
      </g>
    </g>
    <g id="Grupo_1030929" data-name="Grupo 1030929">
      <g id="Grupo_1030928" data-name="Grupo 1030928" clip-path="url(#clip-path)">
        <path id="Trazado_729754" data-name="Trazado 729754" d="M390.794,383.659c5.7,1.989,13.129.211,18-3.347s8.38-8.659,11.489-13.831a20.518,20.518,0,0,0,3.041-7.049,7.618,7.618,0,0,0-2.169-7.057c-3.062-2.577-7.754-1.27-11.232.711a38.735,38.735,0,0,0-19.132,30.573" transform="translate(-68.07 -61.128)" fill="#ffa031"/>
        <path id="Trazado_729755" data-name="Trazado 729755" d="M398.2,405.166c3.421,4.514,9.3,6.524,14.958,6.786s11.248-1.3,16.537-3.331c1.918-.737,4.018-1.746,4.677-3.692a4.7,4.7,0,0,0-1-4.355,9.754,9.754,0,0,0-3.818-2.6,26.094,26.094,0,0,0-16.646-.9c-5.477,1.42-10.261,4.6-14.705,8.1" transform="translate(-69.36 -68.999)" fill="#ffa031"/>
        <path id="Trazado_729756" data-name="Trazado 729756" d="M390.2,353.828c4.716.094,8.286-4.037,10.421-8.243a30.554,30.554,0,0,0,2.809-19.051c-.431-2.41-1.343-5.009-3.5-6.168-2.191-1.178-5.043-.4-6.881,1.276a14.136,14.136,0,0,0-3.578,6.448c-2.531,8.192-1.986,17.606.728,25.738" transform="translate(-67.555 -55.704)" fill="#ffa031"/>
        <path id="Trazado_729757" data-name="Trazado 729757" d="M370.321,381.833c8.041-13.685,9.381-30.43,4.632-45.575-.771-2.457-2.225-5.269-4.794-5.431-2.846-.181-4.63,2.992-5.416,5.734-2.757,9.617-2.171,19.833-1.562,29.819.376,6.151,2.489,11.41,7.139,15.454" transform="translate(-63.172 -57.623)" fill="#ffa031"/>
        <path id="Trazado_729758" data-name="Trazado 729758" d="M356.122,394.889A32.894,32.894,0,0,0,336.609,374.2c-2.136-.8-4.85-1.262-6.443.372-1.562,1.6-1.08,4.282-.078,6.284,1.619,3.231,4.247,5.828,6.866,8.32,2.382,2.267,4.857,4.542,7.869,5.859s8.545,1.653,11.3-.143" transform="translate(-57.334 -65.052)" fill="#ffa031"/>
        <path id="Trazado_729759" data-name="Trazado 729759" d="M414.389,356.834c0,.006-.044.048-.14.125l-.433.335-1.685,1.26-1.223.9c-.439.34-.9.733-1.4,1.141-.994.832-2.171,1.727-3.355,2.853l-1.9,1.723c-.656.6-1.287,1.283-1.97,1.956-1.384,1.331-2.724,2.884-4.166,4.488a88.544,88.544,0,0,0-14.7,23.777c-.79,2.008-1.581,3.9-2.152,5.734-.3.912-.624,1.78-.87,2.637l-.694,2.466c-.477,1.562-.752,3.015-1.051,4.277-.14.633-.287,1.219-.394,1.764s-.183,1.044-.261,1.5q-.237,1.314-.373,2.07c-.044.218-.078.395-.107.538a.094.094,0,1,1-.039,0c.018-.145.041-.323.069-.543.073-.506.175-1.2.3-2.084l.229-1.506c.1-.548.234-1.137.364-1.775.28-1.268.538-2.73,1-4.3q.321-1.187.672-2.481c.239-.861.559-1.735.851-2.653.562-1.844,1.343-3.749,2.127-5.767a86.633,86.633,0,0,1,14.756-23.872c1.455-1.6,2.809-3.155,4.208-4.481.69-.672,1.329-1.349,1.992-1.948l1.918-1.71c1.2-1.117,2.391-2,3.4-2.818.511-.4.977-.788,1.424-1.12l1.245-.878,1.729-1.2.455-.3a.676.676,0,0,1,.162-.093" transform="translate(-65.749 -62.155)" fill="#263238"/>
        <path id="Trazado_729760" data-name="Trazado 729760" d="M425.11,402.455a3.1,3.1,0,0,1-.552-.092c-.36-.065-.882-.2-1.567-.318a44.188,44.188,0,0,0-5.821-.712,42.48,42.48,0,0,0-34.493,14.353,44.1,44.1,0,0,0-3.6,4.631c-.4.566-.671,1.034-.879,1.335a3.182,3.182,0,0,1-.324.457,3.052,3.052,0,0,1,.259-.5c.187-.314.436-.8.82-1.376a39.318,39.318,0,0,1,3.52-4.727,41.8,41.8,0,0,1,34.711-14.444,39.284,39.284,0,0,1,5.834.835c.683.137,1.2.3,1.555.388a3.093,3.093,0,0,1,.533.166" transform="translate(-65.82 -69.84)" fill="#263238"/>
        <path id="Trazado_729761" data-name="Trazado 729761" d="M395.341,327.1a.868.868,0,0,1-.031.212l-.128.615c-.126.565-.3,1.354-.529,2.356-.463,2.045-1.169,5-2.057,8.637-1.771,7.285-4.346,17.317-7.028,28.433-1.333,5.562-2.539,10.875-3.579,15.719-1.02,4.848-1.89,9.224-2.538,12.915-.347,1.842-.608,3.516-.856,4.984s-.448,2.733-.6,3.771c-.158,1.014-.282,1.813-.371,2.384-.044.255-.078.459-.107.619a.869.869,0,0,1-.049.209.909.909,0,0,1,.011-.214c.017-.162.04-.367.069-.624.072-.574.173-1.376.3-2.4.129-1.041.3-2.311.536-3.782s.47-3.151.8-5c.614-3.7,1.458-8.085,2.459-12.94,1.022-4.853,2.219-10.172,3.552-15.736,2.683-11.121,5.3-21.143,7.137-28.41.913-3.614,1.653-6.548,2.174-8.607.254-1,.455-1.778.6-2.34l.165-.606a.88.88,0,0,1,.069-.2" transform="translate(-65.749 -56.976)" fill="#263238"/>
        <path id="Trazado_729762" data-name="Trazado 729762" d="M375.579,409.675a.561.561,0,0,1-.051-.166c-.031-.133-.067-.295-.112-.493q-.145-.7-.4-1.905c-.341-1.656-.793-4.059-1.307-7.037-1.031-5.953-2.254-14.222-3.006-23.418-.364-4.6-.567-8.992-.656-12.988-.067-4-.031-7.6.093-10.618.037-1.511.136-2.875.2-4.074s.146-2.23.224-3.071l.178-1.938c.022-.2.041-.367.056-.5a.585.585,0,0,1,.032-.17.618.618,0,0,1,.007.173c0,.137-.012.3-.019.507-.026.475-.062,1.123-.107,1.941-.055.842-.118,1.874-.159,3.073s-.126,2.561-.146,4.071c-.09,3.017-.1,6.611-.012,10.6.107,3.99.321,8.374.685,12.966.751,9.181,1.929,17.445,2.892,23.405.481,2.98.892,5.39,1.188,7.053q.207,1.211.326,1.918c.031.2.055.366.075.5a.6.6,0,0,1,.013.173" transform="translate(-64.451 -59.796)" fill="#263238"/>
        <path id="Trazado_729763" data-name="Trazado 729763" d="M370.63,417.855a2.7,2.7,0,0,1-.21-.472l-.529-1.377q-.172-.455-.377-1L369,413.854l-.59-1.33c-.208-.471-.477-.946-.732-1.458l-.821-1.595-.978-1.681c-.646-1.18-1.481-2.353-2.287-3.63a85.925,85.925,0,0,0-6.057-7.74,95.17,95.17,0,0,0-6.95-6.957c-1.155-.975-2.214-1.95-3.283-2.766l-1.522-1.213-1.445-1.066c-.912-.692-1.77-1.27-2.525-1.776s-1.4-.95-1.95-1.278l-1.246-.789a2.759,2.759,0,0,1-.422-.3,2.567,2.567,0,0,1,.461.232l1.284.729c.562.311,1.229.726,1.99,1.228s1.64,1.055,2.565,1.736l1.465,1.05,1.541,1.2c1.082.809,2.153,1.779,3.319,2.751a90.071,90.071,0,0,1,7,6.967,81.791,81.791,0,0,1,6.062,7.8c.8,1.289,1.632,2.474,2.269,3.667l.963,1.7.8,1.615c.249.517.511,1,.711,1.476l.566,1.348.489,1.173.349,1.011.463,1.4a2.571,2.571,0,0,1,.137.5" transform="translate(-58.907 -66.238)" fill="#263238"/>
        <path id="Trazado_729764" data-name="Trazado 729764" d="M414.992,376.028c0,.06-.974.06-2.54.148a45.477,45.477,0,0,0-11.987,2.276c-1.488.493-2.394.85-2.417.794a2.39,2.39,0,0,1,.6-.328c.4-.191.986-.438,1.724-.719a36.193,36.193,0,0,1,12.067-2.292c.789-.01,1.427,0,1.867.037a2.4,2.4,0,0,1,.682.083" transform="translate(-69.334 -65.477)" fill="#263238"/>
        <path id="Trazado_729765" data-name="Trazado 729765" d="M424.215,410.1a18.457,18.457,0,0,0-8.044-8.663,5.662,5.662,0,0,1,1.634.723,14.436,14.436,0,0,1,5.81,6.257,5.649,5.649,0,0,1,.6,1.683" transform="translate(-72.49 -69.924)" fill="#263238"/>
        <path id="Trazado_729766" data-name="Trazado 729766" d="M399.622,340.554c.077.082-1.4,1.549-3.02,3.538s-2.763,3.729-2.859,3.669a22.654,22.654,0,0,1,5.879-7.207" transform="translate(-68.583 -59.319)" fill="#263238"/>
        <path id="Trazado_729767" data-name="Trazado 729767" d="M394.973,330.395a28.02,28.02,0,0,1,1.092,6.411,28.015,28.015,0,0,1-1.092-6.411" transform="translate(-68.793 -57.55)" fill="#263238"/>
        <path id="Trazado_729768" data-name="Trazado 729768" d="M375.7,362.276a79.158,79.158,0,0,1-5.045,9.732,79.452,79.452,0,0,1,5.045-9.732" transform="translate(-64.561 -63.103)" fill="#263238"/>
        <path id="Trazado_729769" data-name="Trazado 729769" d="M365.92,351.453a44.387,44.387,0,0,1,3.651,7.335,44.381,44.381,0,0,1-3.651-7.335" transform="translate(-63.736 -61.217)" fill="#263238"/>
        <path id="Trazado_729770" data-name="Trazado 729770" d="M348.463,388.308c-.025.109-1.622-.2-3.612-.339s-3.614-.064-3.624-.174a14.481,14.481,0,0,1,7.236.513" transform="translate(-59.436 -67.504)" fill="#263238"/>
        <path id="Trazado_729771" data-name="Trazado 729771" d="M360.871,421.2l4.476,23.542a3.3,3.3,0,0,0,3.242,2.684h13.225a3.3,3.3,0,0,0,3.255-2.76l3.892-23.466Z" transform="translate(-62.858 -73.366)" fill="#263238"/>
        <path id="Trazado_729772" data-name="Trazado 729772" d="M362.325,428.847h25.291l1.344-7.651H360.87Z" transform="translate(-62.858 -73.366)" fill="#455a64"/>
        <path id="Trazado_729773" data-name="Trazado 729773" d="M362.632,430.461l.53,2.79h24.373l.388-2.79Z" transform="translate(-63.165 -74.98)" fill="#fafafa"/>
      </g>
    </g>
  </g>
</svg>
