<svg xmlns="http://www.w3.org/2000/svg" xmlns:xlink="http://www.w3.org/1999/xlink" width="176" height="176" viewBox="0 0 176 176">
  <defs>
    <clipPath id="clip-path">
      <circle id="Elipse_8399" data-name="Elipse 8399" cx="88" cy="88" r="88" transform="translate(-0.368)" fill="#fff"/>
    </clipPath>
  </defs>
  <g id="Grupo_1036346" data-name="Grupo 1036346" transform="translate(-1079.999 -4142)">
    <g id="Grupo_1029851" data-name="Grupo 1029851" transform="translate(1080.367 4142)">
      <circle id="Elipse_8399-2" data-name="Elipse 8399" cx="88" cy="88" r="88" transform="translate(-0.368)" fill="#fff"/>
    </g>
    <g id="Grupo_1033605" data-name="Grupo 1033605" transform="translate(1080.367 4142)">
      <g id="Enmascarar_grupo_1030781" data-name="Enmascarar grupo 1030781" clip-path="url(#clip-path)">
        <g id="horno" transform="translate(8.239 -5.233)">
          <g id="Grupo_1033614" data-name="Grupo 1033614" transform="translate(32.591 2.34)">
            <g id="Grupo_1033606" data-name="Grupo 1033606" transform="translate(4.75 39.781)">
              <path id="Trazado_734730" data-name="Trazado 734730" d="M108.715,49.5l13.97,21.084h-84.1L52.553,49.5h56.162Z" transform="translate(-38.583 -49.5)" fill="#ccd1d9"/>
            </g>
            <g id="Grupo_1033607" data-name="Grupo 1033607" transform="translate(2.34 70.226)">
              <path id="Trazado_734731" data-name="Trazado 734731" d="M124.673,85.278v74.859h-9.384V129.716a35.078,35.078,0,1,0-70.156,0v30.421H35.75V85.278Z" transform="translate(-35.75 -85.278)" fill="#ccd1d9"/>
            </g>
            <g id="Grupo_1033608" data-name="Grupo 1033608" transform="translate(35.101)">
              <path id="Trazado_734732" data-name="Trazado 734732" d="M74.25,2.75h23.4V42.531H74.25Z" transform="translate(-74.25 -2.75)" fill="#aab2bd"/>
            </g>
            <g id="Grupo_1033609" data-name="Grupo 1033609" transform="translate(0 60.865)">
              <path id="Trazado_734733" data-name="Trazado 734733" d="M126.6,74.278v9.36H33v-9.36h93.6Z" transform="translate(-33 -74.278)" fill="#e6e9ed"/>
            </g>
            <g id="Grupo_1033610" data-name="Grupo 1033610" transform="translate(18.721 86.583)">
              <path id="Trazado_734734" data-name="Trazado 734734" d="M83.081,104.5a28.073,28.073,0,0,1,28.081,28.081H55A28.073,28.073,0,0,1,83.081,104.5Z" transform="translate(-55 -104.5)" fill="#ffa031"/>
            </g>
            <g id="Grupo_1033611" data-name="Grupo 1033611" transform="translate(18.721 114.664)">
              <path id="Trazado_734735" data-name="Trazado 734735" d="M111.162,167.921H55V137.5h56.162ZM66.7,160.9H99.462V149.2H66.7Z" transform="translate(-55 -137.5)" fill="#656d78"/>
            </g>
            <g id="Grupo_1033612" data-name="Grupo 1033612" transform="translate(30.421 126.364)">
              <path id="Trazado_734736" data-name="Trazado 734736" d="M68.75,151.25h32.761v11.7H68.75Z" transform="translate(-68.75 -151.25)" fill="#545c66"/>
            </g>
            <g id="Grupo_1033613" data-name="Grupo 1033613" transform="translate(11.724 79.563)">
              <path id="Trazado_734737" data-name="Trazado 734737" d="M116.933,131.351v30.421h-7V131.351a28.081,28.081,0,0,0-56.162,0v30.421h-7V131.351a35.078,35.078,0,1,1,70.156,0Z" transform="translate(-46.778 -96.25)" fill="#e6e9ed"/>
            </g>
          </g>
          <g id="Grupo_1033631" data-name="Grupo 1033631" transform="translate(30.258)">
            <g id="Grupo_1033615" data-name="Grupo 1033615" transform="translate(18.711 114.676)">
              <path id="Trazado_734738" data-name="Trazado 734738" d="M110.752,169.853H54.587a2.338,2.338,0,0,1-2.34-2.34V137.1a2.338,2.338,0,0,1,2.34-2.34h56.164a2.338,2.338,0,0,1,2.34,2.34v30.409A2.338,2.338,0,0,1,110.752,169.853Zm-53.824-4.68h51.484V139.444H56.927Z" transform="translate(-52.247 -134.764)" fill="#12263f"/>
            </g>
            <g id="Grupo_1033616" data-name="Grupo 1033616" transform="translate(30.412 126.364)">
              <path id="Trazado_734739" data-name="Trazado 734739" d="M101.1,164.881H68.337A2.338,2.338,0,0,1,66,162.54v-11.7a2.338,2.338,0,0,1,2.34-2.34H101.1a2.338,2.338,0,0,1,2.34,2.34v11.7A2.338,2.338,0,0,1,101.1,164.881ZM70.677,160.2H98.761v-7.02H70.677Z" transform="translate(-65.997 -148.5)" fill="#12263f"/>
            </g>
            <g id="Grupo_1033617" data-name="Grupo 1033617" transform="translate(18.714 86.576)">
              <path id="Trazado_734740" data-name="Trazado 734740" d="M110.752,134.5a2.338,2.338,0,0,1-2.34-2.34,25.741,25.741,0,1,0-51.482,0,2.34,2.34,0,0,1-4.68,0,30.421,30.421,0,1,1,60.842,0A2.338,2.338,0,0,1,110.752,134.5Z" transform="translate(-52.25 -101.742)" fill="#12263f"/>
            </g>
            <g id="Grupo_1033618" data-name="Grupo 1033618" transform="translate(11.707 79.57)">
              <path id="Trazado_734741" data-name="Trazado 734741" d="M116.531,133.276a2.338,2.338,0,0,1-2.34-2.34,32.747,32.747,0,1,0-65.494,0,2.34,2.34,0,0,1-4.68,0,37.427,37.427,0,1,1,74.854,0A2.338,2.338,0,0,1,116.531,133.276Z" transform="translate(-44.017 -93.508)" fill="#12263f"/>
            </g>
            <g id="Grupo_1033619" data-name="Grupo 1033619" transform="translate(81.875 114.657)">
              <path id="Trazado_734742" data-name="Trazado 734742" d="M128.815,169.85a2.338,2.338,0,0,1-2.34-2.34V137.082a2.34,2.34,0,1,1,4.68,0V167.51A2.338,2.338,0,0,1,128.815,169.85Z" transform="translate(-126.475 -134.742)" fill="#12263f"/>
            </g>
            <g id="Grupo_1033620" data-name="Grupo 1033620" transform="translate(11.714 114.657)">
              <path id="Trazado_734743" data-name="Trazado 734743" d="M46.365,169.85a2.338,2.338,0,0,1-2.34-2.34V137.082a2.34,2.34,0,1,1,4.68,0V167.51A2.338,2.338,0,0,1,46.365,169.85Z" transform="translate(-44.025 -134.742)" fill="#12263f"/>
            </g>
            <g id="Grupo_1033621" data-name="Grupo 1033621" transform="translate(2.342 70.216)">
              <path id="Trazado_734744" data-name="Trazado 734744" d="M124.255,162.065h-88.9a2.338,2.338,0,0,1-2.34-2.34V84.857a2.338,2.338,0,0,1,2.34-2.34h88.9a2.338,2.338,0,0,1,2.34,2.34v74.868A2.338,2.338,0,0,1,124.255,162.065Zm-86.564-4.68h84.224V87.2H37.691Z" transform="translate(-33.011 -82.517)" fill="#12263f"/>
            </g>
            <g id="Grupo_1033622" data-name="Grupo 1033622" transform="translate(0 60.861)">
              <path id="Trazado_734745" data-name="Trazado 734745" d="M126.187,85.558H32.6a2.338,2.338,0,0,1-2.34-2.34V73.862a2.338,2.338,0,0,1,2.34-2.34h93.589a2.338,2.338,0,0,1,2.34,2.34v9.356A2.338,2.338,0,0,1,126.187,85.558Zm-91.249-4.68h88.909V76.2H34.938Z" transform="translate(-30.258 -71.522)" fill="#12263f"/>
            </g>
            <g id="Grupo_1033623" data-name="Grupo 1033623" transform="translate(4.747 39.777)">
              <path id="Trazado_734746" data-name="Trazado 734746" d="M38.176,72.509a2.339,2.339,0,0,1-1.949-3.634L50.2,47.793a2.342,2.342,0,0,1,3.9,2.588L40.13,71.463A2.34,2.34,0,0,1,38.176,72.509Z" transform="translate(-35.837 -46.745)" fill="#12263f"/>
            </g>
            <g id="Grupo_1033624" data-name="Grupo 1033624" transform="translate(74.87 39.777)">
              <path id="Trazado_734747" data-name="Trazado 734747" d="M134.557,72.509a2.34,2.34,0,0,1-1.954-1.046l-13.97-21.082a2.342,2.342,0,1,1,3.9-2.588l13.97,21.082a2.339,2.339,0,0,1-1.949,3.634Z" transform="translate(-118.243 -46.745)" fill="#12263f"/>
            </g>
            <g id="Grupo_1033625" data-name="Grupo 1033625" transform="translate(18.718 39.779)">
              <path id="Trazado_734748" data-name="Trazado 734748" d="M110.748,51.427H54.6a2.34,2.34,0,1,1,0-4.68h56.153a2.34,2.34,0,1,1,0,4.68Z" transform="translate(-52.256 -46.747)" fill="#12263f"/>
            </g>
            <g id="Grupo_1033626" data-name="Grupo 1033626" transform="translate(35.094)">
              <path id="Trazado_734749" data-name="Trazado 734749" d="M73.84,44.459a2.338,2.338,0,0,1-2.34-2.34V2.34a2.34,2.34,0,0,1,4.68,0V42.119A2.338,2.338,0,0,1,73.84,44.459Z" transform="translate(-71.5)" fill="#12263f"/>
            </g>
            <g id="Grupo_1033627" data-name="Grupo 1033627" transform="translate(58.495)">
              <path id="Trazado_734750" data-name="Trazado 734750" d="M101.34,44.459A2.338,2.338,0,0,1,99,42.119V2.34a2.34,2.34,0,0,1,4.68,0V42.119A2.338,2.338,0,0,1,101.34,44.459Z" transform="translate(-99)" fill="#12263f"/>
            </g>
            <g id="Grupo_1033628" data-name="Grupo 1033628" transform="translate(46.795 95.943)">
              <path id="Trazado_734751" data-name="Trazado 734751" d="M87.59,129.138a2.338,2.338,0,0,1-2.34-2.34V115.09a2.34,2.34,0,1,1,4.68,0V126.8A2.338,2.338,0,0,1,87.59,129.138Z" transform="translate(-85.25 -112.75)" fill="#12263f"/>
            </g>
            <g id="Grupo_1033629" data-name="Grupo 1033629" transform="translate(56.155 100.623)">
              <path id="Trazado_734752" data-name="Trazado 734752" d="M98.59,129.95a2.338,2.338,0,0,1-2.34-2.34v-7.02a2.34,2.34,0,1,1,4.68,0v7.02A2.338,2.338,0,0,1,98.59,129.95Z" transform="translate(-96.25 -118.25)" fill="#12263f"/>
            </g>
            <g id="Grupo_1033630" data-name="Grupo 1033630" transform="translate(37.434 100.623)">
              <path id="Trazado_734753" data-name="Trazado 734753" d="M76.59,129.95a2.338,2.338,0,0,1-2.34-2.34v-7.02a2.34,2.34,0,1,1,4.68,0v7.02A2.338,2.338,0,0,1,76.59,129.95Z" transform="translate(-74.25 -118.25)" fill="#12263f"/>
            </g>
          </g>
        </g>
      </g>
    </g>
  </g>
</svg>
