<svg xmlns="http://www.w3.org/2000/svg" xmlns:xlink="http://www.w3.org/1999/xlink" width="92.668" height="92.668" viewBox="0 0 92.668 92.668">
  <defs>
    <clipPath id="clip-path">
      <path id="Trazado_728313" data-name="Trazado 728313" d="M46.334,0A46.334,46.334,0,1,1,0,46.334,46.334,46.334,0,0,1,46.334,0Z" transform="translate(210 4761)" fill="#d2e1f1"/>
    </clipPath>
  </defs>
  <g id="Grupo_1036341" data-name="Grupo 1036341" transform="translate(-206.666 -4880.666)">
    <g id="Grupo_1029629" data-name="Grupo 1029629" transform="translate(0 4471)">
      <g id="Grupo_1013412" data-name="Grupo 1013412" transform="translate(-14 3)">
        <path id="Trazado_710239" data-name="Trazado 710239" d="M44,0A44,44,0,1,1,0,44,44,44,0,0,1,44,0Z" transform="translate(224 409)" fill="#fff"/>
      </g>
    </g>
    <g id="Enmascarar_grupo_1026460" data-name="Enmascarar grupo 1026460" transform="translate(-3.334 119.666)" clip-path="url(#clip-path)">
      <g id="recursos-naturales" transform="translate(213.786 4769.333)">
        <g id="Grupo_1030242" data-name="Grupo 1030242" transform="translate(1.741 14.963)">
          <g id="Grupo_1030233" data-name="Grupo 1030233" transform="translate(28.565)">
            <path id="Trazado_728314" data-name="Trazado 728314" d="M54.117,18.24v2.72a1.364,1.364,0,0,1-1.36,1.36H33.713a1.364,1.364,0,0,1-1.36-1.36V18.24a1.364,1.364,0,0,1,1.36-1.36H52.757A1.364,1.364,0,0,1,54.117,18.24Z" transform="translate(-32.353 -16.88)" fill="#ffa031"/>
          </g>
          <g id="Grupo_1030234" data-name="Grupo 1030234" transform="translate(28.497 5.441)">
            <path id="Trazado_728315" data-name="Trazado 728315" d="M55.475,52.432H32.283a51.79,51.79,0,0,0,2.789-16.785V22.506H51.394v8.161h-1.36l3.727,11.168a5.436,5.436,0,0,0,1.714,10.6Z" transform="translate(-32.283 -22.506)" fill="#cc8027"/>
          </g>
          <g id="Grupo_1030235" data-name="Grupo 1030235" transform="translate(46.248 13.602)">
            <path id="Trazado_728316" data-name="Trazado 728316" d="M83.285,30.946,79.558,42.114a5.15,5.15,0,0,0-1.714-.286A5.439,5.439,0,0,0,72.4,47.269H61.521a5.439,5.439,0,0,0-5.441-5.441,5.15,5.15,0,0,0-1.714.286L50.639,30.946H83.285Z" transform="translate(-50.639 -30.946)" fill="#ccd1d9"/>
          </g>
          <g id="Grupo_1030236" data-name="Grupo 1030236" transform="translate(68.012 24.484)">
            <path id="Trazado_728317" data-name="Trazado 728317" d="M80.3,42.485a5.419,5.419,0,1,1-1.714-.286A5.15,5.15,0,0,1,80.3,42.485Z" transform="translate(-73.146 -42.199)" fill="#969faa"/>
          </g>
          <g id="Grupo_1030237" data-name="Grupo 1030237" transform="translate(46.248 24.484)">
            <path id="Trazado_728318" data-name="Trazado 728318" d="M56.08,42.2a5.472,5.472,0,1,1-1.714.286A5.15,5.15,0,0,1,56.08,42.2Z" transform="translate(-50.639 -42.199)" fill="#969faa"/>
          </g>
          <g id="Grupo_1030238" data-name="Grupo 1030238" transform="translate(0 35.366)">
            <path id="Trazado_728319" data-name="Trazado 728319" d="M71.751,75.23a41.8,41.8,0,0,1-52.914,2.72l.014-.014H42.26a2.728,2.728,0,0,0,2.72-2.72,2.74,2.74,0,0,0-2.72-2.72H24.577a2.728,2.728,0,0,1-2.72-2.72,2.74,2.74,0,0,1,2.72-2.72h8.161a2.728,2.728,0,0,0,2.72-2.72,2.74,2.74,0,0,0-2.72-2.72H5.588l-.014.014a41.31,41.31,0,0,1-2.516-7.2l-.245-.979H84.428l-.245.979A41.6,41.6,0,0,1,82.8,58.907l-.027-.014H46.341a2.72,2.72,0,0,0-2.72,2.72,2.74,2.74,0,0,0,2.72,2.72H54.5a2.728,2.728,0,0,1,2.72,2.72,2.74,2.74,0,0,1-2.72,2.72h-1.36a2.728,2.728,0,0,0-2.72,2.72,2.74,2.74,0,0,0,2.72,2.72H71.737Z" transform="translate(-2.813 -53.453)" fill="#69d6f4"/>
          </g>
          <g id="Grupo_1030239" data-name="Grupo 1030239" transform="translate(40.807 40.807)">
            <path id="Trazado_728320" data-name="Trazado 728320" d="M84.161,59.079l.027.014A41.815,41.815,0,0,1,73.143,75.416l-.014-.014H54.535a2.74,2.74,0,0,1-2.72-2.72,2.728,2.728,0,0,1,2.72-2.72h1.36a2.74,2.74,0,0,0,2.72-2.72,2.728,2.728,0,0,0-2.72-2.72H47.733a2.74,2.74,0,0,1-2.72-2.72,2.72,2.72,0,0,1,2.72-2.72Z" transform="translate(-45.013 -59.079)" fill="#065958"/>
          </g>
          <g id="Grupo_1030240" data-name="Grupo 1030240" transform="translate(2.761 43.528)">
            <path id="Trazado_728321" data-name="Trazado 728321" d="M18.945,78.216l-.014.014c-.326-.218-.639-.462-.952-.707A41.728,41.728,0,0,1,5.669,61.906l.014-.014H32.833a2.74,2.74,0,0,1,2.72,2.721,2.728,2.728,0,0,1-2.72,2.72H24.671a2.74,2.74,0,0,0-2.72,2.72,2.728,2.728,0,0,0,2.72,2.72H42.355a2.74,2.74,0,0,1,2.72,2.72,2.728,2.728,0,0,1-2.72,2.72Z" transform="translate(-5.669 -61.893)" fill="#065958"/>
          </g>
          <g id="Grupo_1030241" data-name="Grupo 1030241" transform="translate(1.36 5.441)">
            <path id="Trazado_728322" data-name="Trazado 728322" d="M16.462,22.506,25.984,44.27H4.22l9.522-21.764Z" transform="translate(-4.22 -22.506)" fill="#065958"/>
          </g>
        </g>
        <g id="Grupo_1030243" data-name="Grupo 1030243" transform="translate(0 0)">
          <path id="Trazado_728323" data-name="Trazado 728323" d="M45.013,12.289h2.72v-1.36a1.361,1.361,0,0,1,1.36-1.36h5.441a4.081,4.081,0,1,0,0-8.161H50.454v2.72h4.081a1.36,1.36,0,1,1,0,2.72H49.094a4.086,4.086,0,0,0-4.081,4.081Z" transform="translate(-2.464 -1.407)" fill="#12263f"/>
          <path id="Trazado_728324" data-name="Trazado 728324" d="M26.587,9.568H37.469a1.361,1.361,0,0,1,1.36,1.36v1.36h2.72v-1.36a4.086,4.086,0,0,0-4.081-4.081H26.587a1.36,1.36,0,1,1,0-2.72H38.829V1.407H26.587a4.081,4.081,0,0,0,0,8.161Z" transform="translate(-1.722 -1.407)" fill="#12263f"/>
          <path id="Trazado_728325" data-name="Trazado 728325" d="M42.2,1.407h2.72v2.72H42.2Z" transform="translate(-2.372 -1.407)" fill="#12263f"/>
          <path id="Trazado_728326" data-name="Trazado 728326" d="M81.613,50.84A6.712,6.712,0,0,0,79.594,40.9l3.942-11.821H51.723V23.635a2.723,2.723,0,0,0,2.72-2.72v-2.72a2.723,2.723,0,0,0-2.72-2.72H32.679a2.723,2.723,0,0,0-2.72,2.72v2.72a2.723,2.723,0,0,0,2.72,2.72V35.416A50.545,50.545,0,0,1,30.264,50.84H16.356V45.4h11.6L17.246,20.914h-4.5L2.034,45.4h11.6V50.84H1.013L1.678,53.5a43.173,43.173,0,0,0,83.768,0l.664-2.665ZM6.194,42.678l8.332-19.043h.94L23.8,42.678H16.356V40.521l3.682-3.682-1.923-1.923-1.759,1.759V32.835l-1.5-3.007L12.42,31.045l1.216,2.432v3.2l-1.759-1.759L9.954,36.839l3.682,3.682v2.157ZM76.207,50.84a4.081,4.081,0,1,1,4.081-4.081A4.086,4.086,0,0,1,76.207,50.84ZM50.362,46.759a4.081,4.081,0,1,1,4.081,4.081A4.086,4.086,0,0,1,50.362,46.759Zm10.745,1.36h8.436A6.754,6.754,0,0,0,70.8,50.84H59.849A6.738,6.738,0,0,0,61.107,48.119Zm15.907-8.08a6.586,6.586,0,0,0-.807-.082A6.814,6.814,0,0,0,69.543,45.4H61.107a6.813,6.813,0,0,0-6.664-5.441,6.585,6.585,0,0,0-.807.082L50.89,31.8H79.761ZM32.679,18.194H51.723l0,2.72H32.679ZM35.4,35.416V23.635H49v5.441H47.114L51.055,40.9a6.713,6.713,0,0,0-2.017,9.943H33.116A53.226,53.226,0,0,0,35.4,35.416ZM7.711,61.721H32.679a1.36,1.36,0,1,1,0,2.72H24.518a4.081,4.081,0,0,0,0,8.161H42.2a1.36,1.36,0,1,1,0,2.72H19.188a40.337,40.337,0,0,1-11.478-13.6ZM23.329,78.044H42.2a4.081,4.081,0,0,0,0-8.161H24.518a1.36,1.36,0,1,1,0-2.72h8.161a4.081,4.081,0,1,0,0-8.161H6.42A40.487,40.487,0,0,1,4.5,53.56H82.622c-.249.925-.545,1.825-.856,2.72H46.278a4.081,4.081,0,0,0,0,8.161h8.161a1.36,1.36,0,0,1,0,2.72h-1.36a4.081,4.081,0,1,0,0,8.161H67.934a40.413,40.413,0,0,1-44.605,2.72ZM71.157,72.6H53.083a1.36,1.36,0,0,1,0-2.72h1.36a4.081,4.081,0,0,0,0-8.161H46.282A1.36,1.36,0,0,1,46.276,59H80.7a40.286,40.286,0,0,1-9.546,13.6Z" transform="translate(-1.013 -1.871)" fill="#12263f"/>
        </g>
      </g>
    </g>
  </g>
</svg>
