<svg xmlns="http://www.w3.org/2000/svg" xmlns:xlink="http://www.w3.org/1999/xlink" width="88" height="88" viewBox="0 0 88 88">
  <defs>
    <clipPath id="clip-path">
      <path id="Trazado_710239" data-name="Trazado 710239" d="M44,0A44,44,0,1,1,0,44,44,44,0,0,1,44,0Z" transform="translate(224 409)" fill="#d2e1f1"/>
    </clipPath>
  </defs>
  <g id="Grupo_1036340" data-name="Grupo 1036340" transform="translate(-210 -5840)">
    <g id="Grupo_1013412" data-name="Grupo 1013412" transform="translate(-14 5431)">
      <path id="Trazado_710239-2" data-name="Trazado 710239" d="M44,0A44,44,0,1,1,0,44,44,44,0,0,1,44,0Z" transform="translate(224 409)" fill="#fff"/>
    </g>
    <g id="Enmascarar_grupo_1026461" data-name="Enmascarar grupo 1026461" transform="translate(-14 5431)" clip-path="url(#clip-path)">
      <g id="rompecabezas" transform="translate(237 423.936)">
        <path id="Trazado_728327" data-name="Trazado 728327" d="M76.185,42.294V67.716a1.815,1.815,0,0,1-1.557,1.991H51.114V42.294Zm0,0" transform="translate(-15.102 -12.496)" fill="#ffa031"/>
        <path id="Trazado_728328" data-name="Trazado 728328" d="M74.628,20.384H51.114v6.568a3.935,3.935,0,1,1,0,5.968v8.888h9.817a3.935,3.935,0,1,1,5.438,0h9.816V21.941a1.556,1.556,0,0,0-1.557-1.557Zm0,0" transform="translate(-15.102 -6.023)" fill="#115089"/>
        <path id="Trazado_728329" data-name="Trazado 728329" d="M80.841,42.294V67.716a1.815,1.815,0,0,1-1.557,1.991h3.667a1.815,1.815,0,0,0,1.557-1.991V42.294Zm0,0" transform="translate(-23.425 -12.496)" fill="#cc8027"/>
        <path id="Trazado_728330" data-name="Trazado 728330" d="M82.951,20.384H79.283a1.557,1.557,0,0,1,1.557,1.557V41.809h3.667V21.941a1.557,1.557,0,0,0-1.557-1.557Zm0,0" transform="translate(-23.424 -6.023)" fill="#467bff"/>
        <path id="Trazado_728331" data-name="Trazado 728331" d="M28.648,8.079a3.913,3.913,0,0,0-2.276.726V1.3H2.858A1.557,1.557,0,0,0,1.3,2.859V22.726h9.6a3.935,3.935,0,1,0,5.877,0h9.6v-7.5a3.935,3.935,0,1,0,2.276-7.145Zm0,0" transform="translate(-0.384 -0.385)" fill="#065958"/>
        <path id="Trazado_728332" data-name="Trazado 728332" d="M42.653,57.937a3.919,3.919,0,0,0-2.053.578V50.793H30.141a3.935,3.935,0,1,1-6.544,0H15.529V70.662a1.557,1.557,0,0,0,1.557,1.557H40.6V65.23a3.935,3.935,0,1,0,2.053-7.293Zm0,0" transform="translate(-4.588 -15.007)" fill="#4db1f0"/>
        <g id="Grupo_1030245" data-name="Grupo 1030245" transform="translate(11.619 0.917)">
          <path id="Trazado_728333" data-name="Trazado 728333" d="M33.956,8.079a3.926,3.926,0,0,1,1.392.254V1.3H31.681V5.879a2.213,2.213,0,0,0,2.251,2.2h.025Zm0,0" transform="translate(-20.979 -1.302)" fill="#006f6e"/>
          <path id="Trazado_728334" data-name="Trazado 728334" d="M19.748,31.711a1.321,1.321,0,0,0-1.275,1.653,3.939,3.939,0,0,1-1.982,4.445,3.934,3.934,0,0,0,4.772-6.1Zm0,0" transform="translate(-16.491 -10.286)" fill="#006f6e"/>
          <path id="Trazado_728335" data-name="Trazado 728335" d="M33.956,21.985h-.025a2.213,2.213,0,0,0-2.251,2.2v4.577h3.667V21.731a3.926,3.926,0,0,1-1.392.254Zm0,0" transform="translate(-20.979 -7.338)" fill="#006f6e"/>
          <path id="Trazado_728336" data-name="Trazado 728336" d="M39.348,10.921a3.908,3.908,0,0,0-1.831.455,3.935,3.935,0,0,1,0,6.961,3.934,3.934,0,1,0,1.831-7.416Zm0,0" transform="translate(-22.703 -4.144)" fill="#006f6e"/>
        </g>
        <path id="Trazado_728337" data-name="Trazado 728337" d="M53.259,60.933a3.918,3.918,0,0,0-1.834.453,3.935,3.935,0,0,1,0,6.964,3.935,3.935,0,1,0,1.834-7.417Zm0,0" transform="translate(-15.194 -18.003)" fill="#66d6e6"/>
        <path id="Trazado_728338" data-name="Trazado 728338" d="M18.3,24.958a4.848,4.848,0,0,0-.307-1.7h7.991a.917.917,0,0,0,.917-.917V16.288a4.852,4.852,0,1,0,0-9.318V.917A.917.917,0,0,0,25.988,0H2.474A2.477,2.477,0,0,0,0,2.474V22.342a.917.917,0,0,0,.917.917H8.907a4.852,4.852,0,1,0,9.4,1.7Zm-7.871,0a3.012,3.012,0,0,1,.764-2.006.917.917,0,0,0-.684-1.527H1.834V2.474a.641.641,0,0,1,.64-.64h22.6V8.42a.917.917,0,0,0,1.448.747,3.018,3.018,0,1,1,0,4.924.917.917,0,0,0-1.448.747v6.586h-8.68a.917.917,0,0,0-.685,1.527,3.018,3.018,0,1,1-5.272,2.006Zm0,0" fill="#12263f"/>
        <path id="Trazado_728339" data-name="Trazado 728339" d="M63.73,19.082H48.92a.917.917,0,1,0,0,1.834H63.73a.641.641,0,0,1,.64.64V40.507H57.208a4.852,4.852,0,1,0-8.914,0H41.133V34.115a4.852,4.852,0,1,0,0-9.127V20.916h4.12a.917.917,0,0,0,0-1.834H40.216A.917.917,0,0,0,39.3,20v6.569a.917.917,0,0,0,1.515.695,3.018,3.018,0,1,1,0,4.578.917.917,0,0,0-1.515.7v7.971H29.756a.917.917,0,0,0-.762,1.427,3.018,3.018,0,1,1-5.02,0,.917.917,0,0,0-.762-1.427H15.145a.917.917,0,0,0-.917.917v8.57a.917.917,0,0,0,1.834,0V42.341H21.8a4.852,4.852,0,1,0,9.368,0H39.3v6.8a.917.917,0,0,0,1.4.782,3.018,3.018,0,1,1,0,5.151.917.917,0,0,0-1.4.782v6.072H16.7a.641.641,0,0,1-.64-.64v-7.63a.917.917,0,0,0-1.834,0v7.63A2.477,2.477,0,0,0,16.7,63.766H63.73A2.477,2.477,0,0,0,66.2,61.291V21.556a2.477,2.477,0,0,0-2.474-2.474Zm0,42.85h-22.6V57.22a4.852,4.852,0,1,0,0-9.435V42.341h8.9a.917.917,0,0,0,.633-1.579,2.991,2.991,0,0,1-.933-2.18,3.018,3.018,0,1,1,5.1,2.181.917.917,0,0,0,.634,1.579h8.9V61.292a.641.641,0,0,1-.64.64Zm0,0" transform="translate(-4.204 -5.638)"/>
      </g>
    </g>
  </g>
</svg>
