<svg xmlns="http://www.w3.org/2000/svg" xmlns:xlink="http://www.w3.org/1999/xlink" width="394.798" height="324.412" viewBox="0 0 394.798 324.412">
  <defs>
    <clipPath id="clip-path">
      <rect id="Rectángulo_33841" data-name="Rectángulo 33841" width="353.874" height="295.116" fill="none"/>
    </clipPath>
    <clipPath id="clip-path-2">
      <rect id="Rectángulo_352580" data-name="Rectángulo 352580" width="368.167" height="320.685" transform="translate(0 -9)" fill="none"/>
    </clipPath>
    <clipPath id="clip-path-3">
      <rect id="Rectángulo_352536" data-name="Rectángulo 352536" width="368.167" height="311.684" fill="none"/>
    </clipPath>
    <clipPath id="clip-path-4">
      <rect id="Rectángulo_352535" data-name="Rectángulo 352535" width="148.086" height="132.841" fill="#065958"/>
    </clipPath>
    <clipPath id="clip-path-5">
      <rect id="Rectángulo_352544" data-name="Rectángulo 352544" width="111.497" height="38.817" fill="none"/>
    </clipPath>
    <clipPath id="clip-path-6">
      <rect id="Rectángulo_352537" data-name="Rectángulo 352537" width="10.91" height="1.726" fill="none"/>
    </clipPath>
    <clipPath id="clip-path-7">
      <rect id="Rectángulo_352541" data-name="Rectángulo 352541" width="5.673" height="4.133" fill="none"/>
    </clipPath>
    <clipPath id="clip-path-8">
      <rect id="Rectángulo_352542" data-name="Rectángulo 352542" width="1.705" height="0.747" fill="none"/>
    </clipPath>
    <clipPath id="clip-path-10">
      <rect id="Rectángulo_352572" data-name="Rectángulo 352572" width="6.055" height="96.249" fill="#3d8dc0"/>
    </clipPath>
  </defs>
  <g id="Grupo_1036292" data-name="Grupo 1036292" transform="translate(-180 -8511.617)">
    <g id="Grupo_1029808" data-name="Grupo 1029808" transform="translate(574.798 8816.573) rotate(-180)">
      <path id="Trazado_113636" data-name="Trazado 113636" d="M291.508,294.772A145.754,145.754,0,1,1,145.754,149.018,145.754,145.754,0,0,1,291.508,294.772" transform="translate(0 -149.018)" fill="#0078bb"/>
      <path id="Trazado_113637" data-name="Trazado 113637" d="M1199.467,544.095A105.615,105.615,0,1,1,1093.853,438.48a105.615,105.615,0,0,1,105.615,105.615" transform="translate(-820.505 -358.201)" fill="#065958"/>
      <path id="Trazado_113638" data-name="Trazado 113638" d="M1232.906,598.359a84.79,84.79,0,1,1-84.79-84.79,84.79,84.79,0,0,1,84.79,84.79" transform="translate(-874.769 -412.465)" fill="#fff"/>
      <path id="Trazado_113665" data-name="Trazado 113665" d="M129.99,381.385a3.257,3.257,0,1,1-3.257-3.257,3.257,3.257,0,0,1,3.257,3.257" transform="translate(-89.231 -314.587)" fill="#fff"/>
      <path id="Trazado_113666" data-name="Trazado 113666" d="M181.665,381.385a3.257,3.257,0,1,1-3.257-3.257,3.257,3.257,0,0,1,3.257,3.257" transform="translate(-126.575 -314.587)" fill="#fff"/>
      <path id="Trazado_113667" data-name="Trazado 113667" d="M233.34,381.385a3.257,3.257,0,1,1-3.257-3.257,3.257,3.257,0,0,1,3.257,3.257" transform="translate(-163.918 -314.587)" fill="#fff"/>
      <path id="Trazado_113668" data-name="Trazado 113668" d="M285.016,381.385a3.257,3.257,0,1,1-3.257-3.257,3.257,3.257,0,0,1,3.257,3.257" transform="translate(-201.262 -314.587)" fill="#fff"/>
      <path id="Trazado_113669" data-name="Trazado 113669" d="M336.69,381.385a3.257,3.257,0,1,1-3.257-3.257,3.257,3.257,0,0,1,3.257,3.257" transform="translate(-238.605 -314.587)" fill="#fff"/>
      <path id="Trazado_113670" data-name="Trazado 113670" d="M129.99,430.711a3.257,3.257,0,1,1-3.257-3.257,3.257,3.257,0,0,1,3.257,3.257" transform="translate(-89.231 -350.233)" fill="#fff"/>
      <path id="Trazado_113671" data-name="Trazado 113671" d="M181.665,430.711a3.257,3.257,0,1,1-3.257-3.257,3.257,3.257,0,0,1,3.257,3.257" transform="translate(-126.575 -350.233)" fill="#fff"/>
      <path id="Trazado_113672" data-name="Trazado 113672" d="M233.34,430.711a3.257,3.257,0,1,1-3.257-3.257,3.257,3.257,0,0,1,3.257,3.257" transform="translate(-163.918 -350.233)" fill="#fff"/>
      <path id="Trazado_113673" data-name="Trazado 113673" d="M285.016,430.711a3.257,3.257,0,1,1-3.257-3.257,3.257,3.257,0,0,1,3.257,3.257" transform="translate(-201.262 -350.233)" fill="#fff"/>
      <path id="Trazado_113674" data-name="Trazado 113674" d="M336.69,430.711a3.257,3.257,0,1,1-3.257-3.257,3.257,3.257,0,0,1,3.257,3.257" transform="translate(-238.605 -350.233)" fill="#fff"/>
      <path id="Trazado_113675" data-name="Trazado 113675" d="M129.99,480.038a3.257,3.257,0,1,1-3.257-3.257,3.257,3.257,0,0,1,3.257,3.257" transform="translate(-89.231 -385.88)" fill="#fff"/>
      <path id="Trazado_113676" data-name="Trazado 113676" d="M181.665,480.038a3.257,3.257,0,1,1-3.257-3.257,3.257,3.257,0,0,1,3.257,3.257" transform="translate(-126.575 -385.88)" fill="#fff"/>
      <path id="Trazado_113677" data-name="Trazado 113677" d="M233.34,480.038a3.257,3.257,0,1,1-3.257-3.257,3.257,3.257,0,0,1,3.257,3.257" transform="translate(-163.918 -385.88)" fill="#fff"/>
      <path id="Trazado_113678" data-name="Trazado 113678" d="M285.016,480.038a3.257,3.257,0,1,1-3.257-3.257,3.257,3.257,0,0,1,3.257,3.257" transform="translate(-201.262 -385.88)" fill="#fff"/>
      <path id="Trazado_113679" data-name="Trazado 113679" d="M336.69,480.038a3.257,3.257,0,1,1-3.257-3.257,3.257,3.257,0,0,1,3.257,3.257" transform="translate(-238.605 -385.88)" fill="#fff"/>
      <path id="Trazado_113680" data-name="Trazado 113680" d="M129.99,529.364a3.257,3.257,0,1,1-3.257-3.257,3.257,3.257,0,0,1,3.257,3.257" transform="translate(-89.231 -421.526)" fill="#fff"/>
      <path id="Trazado_113681" data-name="Trazado 113681" d="M181.665,529.364a3.257,3.257,0,1,1-3.257-3.257,3.257,3.257,0,0,1,3.257,3.257" transform="translate(-126.575 -421.526)" fill="#fff"/>
      <path id="Trazado_113682" data-name="Trazado 113682" d="M233.34,529.364a3.257,3.257,0,1,1-3.257-3.257,3.257,3.257,0,0,1,3.257,3.257" transform="translate(-163.918 -421.526)" fill="#fff"/>
      <path id="Trazado_113683" data-name="Trazado 113683" d="M285.016,529.364a3.257,3.257,0,1,1-3.257-3.257,3.257,3.257,0,0,1,3.257,3.257" transform="translate(-201.262 -421.526)" fill="#fff"/>
      <path id="Trazado_113684" data-name="Trazado 113684" d="M336.69,529.364a3.257,3.257,0,1,1-3.257-3.257,3.257,3.257,0,0,1,3.257,3.257" transform="translate(-238.605 -421.526)" fill="#fff"/>
      <path id="Trazado_113685" data-name="Trazado 113685" d="M129.99,578.69a3.257,3.257,0,1,1-3.257-3.257,3.257,3.257,0,0,1,3.257,3.257" transform="translate(-89.231 -457.172)" fill="#fff"/>
      <path id="Trazado_113686" data-name="Trazado 113686" d="M181.665,578.69a3.257,3.257,0,1,1-3.257-3.257,3.257,3.257,0,0,1,3.257,3.257" transform="translate(-126.575 -457.172)" fill="#fff"/>
      <path id="Trazado_113687" data-name="Trazado 113687" d="M233.34,578.69a3.257,3.257,0,1,1-3.257-3.257,3.257,3.257,0,0,1,3.257,3.257" transform="translate(-163.918 -457.172)" fill="#fff"/>
      <path id="Trazado_113688" data-name="Trazado 113688" d="M285.016,578.69a3.257,3.257,0,1,1-3.257-3.257,3.257,3.257,0,0,1,3.257,3.257" transform="translate(-201.262 -457.172)" fill="#fff"/>
      <path id="Trazado_113689" data-name="Trazado 113689" d="M336.69,578.69a3.257,3.257,0,1,1-3.257-3.257,3.257,3.257,0,0,1,3.257,3.257" transform="translate(-238.605 -457.172)" fill="#fff"/>
      <g id="Grupo_1002336" data-name="Grupo 1002336" transform="translate(39.426 9.84)" opacity="0.251">
        <g id="Grupo_80323" data-name="Grupo 80323" clip-path="url(#clip-path)">
          <path id="Trazado_113615" data-name="Trazado 113615" d="M226.121,290.472c-3.342-.259-6.753-.407-10.246-.38-18.481.14-36.557,5.21-55.153,5.014-39.4-.415-79.95-4.578-114-30.306C-28.722,207.8-3.993,85.7,58.547,35.57,91.779,8.934,133.171.789,172.828.036c51.05-.97,116.53,15.493,153.107,59.309C351.418,89.872,357.754,161,351.8,201.3c-4.742,32.079-22.538,62.33-45.019,79.938-28.036,21.96-51.807,11.469-80.657,9.237" transform="translate(0 0.004)" fill="#e0f4fe"/>
        </g>
      </g>
    </g>
    <g id="Grupo_1033401" data-name="Grupo 1033401" transform="translate(180 8524.344)">
      <g id="Grupo_1033400" data-name="Grupo 1033400" clip-path="url(#clip-path-2)">
        <path id="Trazado_733699" data-name="Trazado 733699" d="M1162.678,478.161h-29.8l4.652-164.619h20.5Z" transform="translate(-934.68 -258.689)" fill="#cc8027"/>
        <g id="Grupo_1033380" data-name="Grupo 1033380" transform="translate(0 0.001)">
          <g id="Grupo_1033379" data-name="Grupo 1033379" clip-path="url(#clip-path-3)">
            <path id="Trazado_733700" data-name="Trazado 733700" d="M894.931,23.875a9.04,9.04,0,0,0,9.041-9.078,6.555,6.555,0,0,1,6.578-6.54h1.54a4.126,4.126,0,0,0,4.126-4.1A4.2,4.2,0,0,0,912.017,0h-14.49a3.242,3.242,0,0,0-3.241,3.216,3.256,3.256,0,0,1-3.232,3.267h-8.33A8.022,8.022,0,0,0,874.7,14.51v4.355a3.83,3.83,0,0,1-3.8,3.831,3.855,3.855,0,0,0-3.864,3.827v.255a3.831,3.831,0,0,1-3.831,3.831H851.842a3.7,3.7,0,0,0-3.706,3.7,3.706,3.706,0,0,1-3.705,3.711h-6.907a9.048,9.048,0,0,0-9.048,9.049v5.462h29.042a5.991,5.991,0,0,0,5.991-5.992V43.128a3.143,3.143,0,0,1,3.144-3.143h3.259a3.144,3.144,0,0,0,3.144-3.144v-2.75a3.144,3.144,0,0,1,3.144-3.144h5.5a3.143,3.143,0,0,0,3.144-3.143v-.786a3.144,3.144,0,0,1,3.144-3.144Zm13.851-21.02a.766.766,0,0,1,.543-.225h.5a.769.769,0,1,1,0,1.537h-.5a.769.769,0,0,1-.543-1.312m-15.118,12.2a1.533,1.533,0,0,1,1.087-.45h1.011a1.537,1.537,0,1,1,0,3.074H894.75a1.536,1.536,0,0,1-1.087-2.623M854.879,37.529a.765.765,0,0,1-.543.225h-.506a.769.769,0,0,1,0-1.537h.506a.769.769,0,0,1,.543,1.312" transform="translate(-683.535 -0.005)" fill="#e8e8e8"/>
            <path id="Trazado_733701" data-name="Trazado 733701" d="M981.459,40.262h2.713a4.126,4.126,0,1,0,0-8.251h-2.713a4.126,4.126,0,1,0,0,8.251" transform="translate(-806.351 -26.412)" fill="#e8e8e8"/>
            <path id="Trazado_733702" data-name="Trazado 733702" d="M883.571,179.948h1.011a1.537,1.537,0,1,0,0-3.073h-1.011a1.537,1.537,0,0,0,0,3.073" transform="translate(-727.724 -145.932)" fill="#daefa3"/>
            <path id="Trazado_733703" data-name="Trazado 733703" d="M1243.069,0h-14.49a3.243,3.243,0,0,0-3.241,3.216,3.256,3.256,0,0,1-3.232,3.267h-8.33a8.022,8.022,0,0,0-8.022,8.022v4.355a3.83,3.83,0,0,1-3.8,3.831,3.855,3.855,0,0,0-3.864,3.827v.255a3.831,3.831,0,0,1-3.831,3.831h-11.367a3.7,3.7,0,0,0-3.706,3.7,3.706,3.706,0,0,1-3.706,3.711h-6.907a9.049,9.049,0,0,0-9.049,9.049v5.462h29.042a5.991,5.991,0,0,0,5.991-5.992V43.127a3.143,3.143,0,0,1,3.144-3.143h3.259a3.144,3.144,0,0,0,3.144-3.144V34.09a3.144,3.144,0,0,1,3.144-3.144h5.5A3.143,3.143,0,0,0,1215.9,27.8v-.786a3.144,3.144,0,0,1,3.144-3.144h6.944a9.04,9.04,0,0,0,9.041-9.078,6.555,6.555,0,0,1,6.578-6.54h1.541a4.126,4.126,0,0,0,4.125-4.1,4.2,4.2,0,0,0-4.2-4.154M1227.9,17.229a1.532,1.532,0,0,1-1.087.449h-1.01a1.537,1.537,0,1,1,0-3.074h1.01a1.538,1.538,0,0,1,1.087,2.624m13.526-13.288a.768.768,0,0,1-.544.225h-.5a.769.769,0,0,1,0-1.537h.5a.768.768,0,0,1,.544,1.312" transform="translate(-956.67 -0.004)" fill="#e8e8e8"/>
            <path id="Trazado_733704" data-name="Trazado 733704" d="M1554.612,176.875h-2.022a3.073,3.073,0,0,0,0,6.147h2.022a3.073,3.073,0,0,0,0-6.147" transform="translate(-1278.432 -145.932)" fill="#e8e8e8"/>
            <path id="Trazado_733705" data-name="Trazado 733705" d="M1217.943,478.161h14.9l-4.652-164.619h-10.25Z" transform="translate(-1004.867 -258.689)" fill="#99601d"/>
            <path id="Trazado_733706" data-name="Trazado 733706" d="M831.676,478.16H801.871l4.117-145.65.119-4.231.088-3.1.06-2.115.27-9.525h20.5l.27,9.525.06,2.115.088,3.1.119,4.231Z" transform="translate(-661.585 -258.688)" fill="#cc8027"/>
            <path id="Trazado_733707" data-name="Trazado 733707" d="M887.666,478.161h14.9l-4.652-164.619h-10.25Z" transform="translate(-732.371 -258.689)" fill="#99601d"/>
            <path id="Trazado_733708" data-name="Trazado 733708" d="M839.834,304.8H820.193a2.275,2.275,0,1,1,0-4.549h19.641a2.275,2.275,0,0,1,0,4.549" transform="translate(-674.825 -247.72)" fill="#99601d"/>
            <path id="Trazado_733709" data-name="Trazado 733709" d="M835.512,470.322H813.545a2.275,2.275,0,0,1,0-4.549h21.967a2.275,2.275,0,1,1,0,4.549" transform="translate(-669.341 -384.288)" fill="#99601d"/>
            <path id="Trazado_733710" data-name="Trazado 733710" d="M831.191,635.848H806.9a2.275,2.275,0,0,1,0-4.549h24.293a2.275,2.275,0,0,1,0,4.549" transform="translate(-663.856 -520.855)" fill="#99601d"/>
            <path id="Trazado_733711" data-name="Trazado 733711" d="M1170.833,304.8h-19.641a2.275,2.275,0,0,1,0-4.549h19.641a2.275,2.275,0,1,1,0,4.549" transform="translate(-947.917 -247.72)" fill="#99601d"/>
            <path id="Trazado_733712" data-name="Trazado 733712" d="M1166.512,470.322h-21.967a2.275,2.275,0,0,1,0-4.549h21.967a2.275,2.275,0,0,1,0,4.549" transform="translate(-942.433 -384.288)" fill="#99601d"/>
            <path id="Trazado_733713" data-name="Trazado 733713" d="M1162.19,635.848H1137.9a2.275,2.275,0,1,1,0-4.549h24.293a2.275,2.275,0,0,1,0,4.549" transform="translate(-936.947 -520.855)" fill="#99601d"/>
            <rect id="Rectángulo_352531" data-name="Rectángulo 352531" width="164.287" height="15.21" transform="translate(101.94 157.239)" fill="#71719e"/>
            <rect id="Rectángulo_352532" data-name="Rectángulo 352532" width="83.457" height="15.21" transform="translate(26.584 193.831)" fill="#71719e"/>
            <rect id="Rectángulo_352533" data-name="Rectángulo 352533" width="83.457" height="15.21" transform="translate(258.126 193.831)" fill="#71719e"/>
            <path id="Trazado_733714" data-name="Trazado 733714" d="M847.2,399.9l-.06-2.115H825.8l-.06,2.115Z" transform="translate(-681.281 -328.196)" fill="#ffa031"/>
            <path id="Trazado_733715" data-name="Trazado 733715" d="M847.743,370.1H826.585l.06-2.115h21.039Z" transform="translate(-681.976 -303.606)" fill="#ffa031"/>
            <path id="Trazado_733716" data-name="Trazado 733716" d="M1178.195,399.9l-.06-2.115H1156.8l-.06,2.115Z" transform="translate(-954.372 -328.196)" fill="#ffa031"/>
            <path id="Trazado_733717" data-name="Trazado 733717" d="M1178.742,370.1h-21.158l.06-2.115h21.039Z" transform="translate(-955.067 -303.606)" fill="#ffa031"/>
            <path id="Trazado_733862" data-name="Trazado 733862" d="M0,0H148.085V132.841H0Z" transform="translate(110.041 172.449)" fill="#a6d6d6"/>
            <g id="Grupo_1033378" data-name="Grupo 1033378" transform="translate(110.041 172.449)" opacity="0.6">
              <g id="Grupo_1033377" data-name="Grupo 1033377">
                <g id="Grupo_1033376" data-name="Grupo 1033376" clip-path="url(#clip-path-4)">
                  <path id="Trazado_733718" data-name="Trazado 733718" d="M777.079,1021.065v-.983h-8.746V985.72h-.983v34.362H638.723V985.72h-.983v34.362h-8.746v.983h8.746v63.019h-8.746v.983h8.746v33.493h.983v-33.493H767.35v33.493h.983v-33.493h8.746v-.983h-8.746v-63.019Zm-9.73,63.019H638.723v-63.019H767.35Z" transform="translate(-628.994 -985.72)" fill="#065958"/>
                </g>
              </g>
            </g>
            <path id="Trazado_733719" data-name="Trazado 733719" d="M845.061,1303.093h-111.5v-88.787a4.925,4.925,0,0,1,4.925-4.925H840.136a4.925,4.925,0,0,1,4.925,4.925Z" transform="translate(-605.229 -997.803)" fill="#2e2830"/>
            <path id="Trazado_733720" data-name="Trazado 733720" d="M775.223,1498.178s-15.283,15.82-2.145,32.993,56.013-.895,56.013-.895l-49.913-24.631Z" transform="translate(-633.431 -1236.076)" fill="#fd281d"/>
            <path id="Trazado_733721" data-name="Trazado 733721" d="M869.613,1342.167H771.6c-.886-9.723,6.743-18.547,6.743-18.547a14.262,14.262,0,0,0,3.158,3.261,16.318,16.318,0,0,1,5.824-11.517c.375-.394.6-.6.6-.6,1.133,4.792,3.937,6.5,3.954,6.5a35.161,35.161,0,0,1,6.177-14.366s2.745,3.792,5,4.939a19.288,19.288,0,0,1,2.56-11.8,8.888,8.888,0,0,0,2.9,2.278c-.154-8,5.111-11.654,10.5-15.71,0,0-.741,8.466,4.284,13.772a12.331,12.331,0,0,0,2.336,1.928c.281.179.549.352.807.52a6.184,6.184,0,0,1,.8-4.761c.392,1.624,2.682,3.067,5.238,4.819a35.949,35.949,0,0,1,3.834,2.923h0a10.771,10.771,0,0,1,3.964,7.1,18.06,18.06,0,0,0,5.107-9.621s6.533,4.516,9.8,10.973a11.606,11.606,0,0,0,.893-3.5c5.322,7.723,5.013,10.984,4.4,17.249a1.592,1.592,0,0,1,.32-.069,7.581,7.581,0,0,1,.672-.372,18.316,18.316,0,0,0,4.4-3.149v.019a30.849,30.849,0,0,1,3.754,17.73" transform="translate(-636.549 -1061.517)" fill="#fd281d"/>
            <path id="Trazado_733722" data-name="Trazado 733722" d="M931.955,1434.442H853.261a19.635,19.635,0,0,1,2.285-10.112,3.886,3.886,0,0,1,.205-.348,13.628,13.628,0,0,0,3.481,2.16,13.537,13.537,0,0,1,2.246-6.255l2.423,2.411c.4-2.6,1.71-5.48,4.81-8.566.473,1.456,2.618,3.682,4.184,4.8a9.491,9.491,0,0,1,1.243-6.944l3.2,2.489c-1.111-3.356,1.162-8.176,1.179-8.163a21.4,21.4,0,0,1,3.447,3.773c-.289-3.176,3.539-6.181,3.222-11.235.008-.019,6.684,6.85,7.851,13.682a11.593,11.593,0,0,0,1.938-2.745,16.052,16.052,0,0,0,1.465-4.407,0,0,0,0,1,0,0c.11-.587.2-1.211.266-1.874a12.113,12.113,0,0,1,4.084,3.96h0a12.851,12.851,0,0,1,1.753,4.22l1.888-2.63s4.143,2.585,3.142,9.1c1.632-3.252,6.886-6.781,6.886-6.781.658,1.913,2.822,3.309,2.748,9.924,1.392-.748,3.856-2.084,5.032-4.3a19.128,19.128,0,0,1,2.089,9.282,20.756,20.756,0,0,0,7.188-3.228,6.649,6.649,0,0,1,.337,1.967,37.6,37.6,0,0,1,.1,9.834" transform="translate(-703.968 -1153.792)" fill="#fd6700"/>
            <path id="Trazado_733723" data-name="Trazado 733723" d="M953.328,1504.634H896.065a6.624,6.624,0,0,1,.582-3.562c1.187,1.182,2.289,1.243,2.934,1.8a13.29,13.29,0,0,1,1.109-6.419,3.417,3.417,0,0,0,2.475,1.9c.336.095,2.034.43,2.4.61-.252-1.147,1.333-4.883,2.285-5.367a8.084,8.084,0,0,0,3.741,3.2,8.59,8.59,0,0,1,1.877-4.454s1.474,1.105,2.67,2.045a6.959,6.959,0,0,1,2.34-4.854c.05.654.764,1.129,1.348,1.936.233-1.732,1.363-4.451,4.211-7.938,1.578,4.333,5.6,8.324,5.6,8.324a7.965,7.965,0,0,0,3.073-4.042c3.152,4.912,3,7.275,3,7.275a21.331,21.331,0,0,0,3.037-2.364,20.408,20.408,0,0,1,1.594,5.843c2.735-.4,3.961-3.984,3.961-3.984,1.384,1.968,3.328,7.248,3.328,7.248a12.69,12.69,0,0,0,4.631-2.809,30.061,30.061,0,0,1,1.059,5.618" transform="translate(-739.258 -1223.984)" fill="#ffdb13"/>
          </g>
        </g>
        <g id="Grupo_1033391" data-name="Grupo 1033391" transform="translate(128.335 266.474)">
          <g id="Grupo_1033390" data-name="Grupo 1033390" clip-path="url(#clip-path-5)">
            <path id="Trazado_733724" data-name="Trazado 733724" d="M905.682,1560.676l9.314-6.068s.031-.369,1.011-.133a4.065,4.065,0,0,1,1.636.836l3.962-.7,1.272-.934s2.619-1.058,3.665-.865,3.157-.913,4.923.495a16.1,16.1,0,0,0,2.863,1.92,9.845,9.845,0,0,0,6,1.4c2.821-.034,2.9.889,4.4,0s3.236-2.018,3.236-2.018l3.189-2.313a6.757,6.757,0,0,0,.434,2.313c.452,1.129.427,2.617,1.345,3.339s4.023.722,4.023.722l-.243,3.216-25.393,4.627-15.087.212Z" transform="translate(-875.57 -1547.198)" fill="#7c6057"/>
            <path id="Trazado_733725" data-name="Trazado 733725" d="M889.25,1561.7l-.021-2.7a3.3,3.3,0,0,1-2.173-3.157l.008-1.556-.01-2.09,1.082,1.072,1.266-1.738.245.442.415.75.9-1.059,1.384.636,1.18-1.237-.095,1.288-.02,3.908a2.838,2.838,0,0,1-2.254,2.879l-.01,2.689.094.007a.44.44,0,0,1,.387.45l0,.566a.38.38,0,0,1-.391.4l-2.077-.136a.44.44,0,0,1-.387-.45l0-.566a.38.38,0,0,1,.391-.4Z" transform="translate(-860.202 -1546.175)" fill="#7c6057"/>
            <path id="Trazado_733726" data-name="Trazado 733726" d="M887.056,1558.038l.008-1.556-.01-2.091,1.082,1.073,1.266-1.738.245.442a10.8,10.8,0,0,0-.606,4.049,3.921,3.921,0,0,0,1.411,2.324l-.025,3.451-1.177-.093-.021-2.7a3.3,3.3,0,0,1-2.173-3.157" transform="translate(-860.202 -1548.379)" fill="#7c6057"/>
            <path id="Trazado_733727" data-name="Trazado 733727" d="M910.532,1562.482s.135,3.4-.347,4.086-1.159.955-1.393.57.917-1.19.992-1.9a22.44,22.44,0,0,1,.143-3.036c.179-.076.594-.193.606.28" transform="translate(-878.11 -1555.314)" fill="#7c6057"/>
            <path id="Trazado_733728" data-name="Trazado 733728" d="M900.578,1616.3s1.516.171,1.675.136.168-.338.056-.4a9.687,9.687,0,0,0-1.68-.088c-.179.032-.194.337-.051.353" transform="translate(-871.279 -1599.708)" fill="#7c6057"/>
            <path id="Trazado_733729" data-name="Trazado 733729" d="M902.384,1551.055l-1.18,1.237-1.384-.636-.9,1.059-.661-1.192-.471.646.995,1.479,1.144-1.538,1.41.654,1-.967Z" transform="translate(-869.055 -1546.175)" fill="#7c6057"/>
            <path id="Trazado_733730" data-name="Trazado 733730" d="M777.241,1569.038l-18.43,9.165-2.9,4.87-2.8.392-3.747,7.371,20.965-5.278,19.546-9.755Z" transform="translate(-746.595 -1561.012)" fill="#7c6057"/>
            <path id="Trazado_733731" data-name="Trazado 733731" d="M996.093,1576.833a3.4,3.4,0,1,0-4.185,2.356,3.4,3.4,0,0,0,4.185-2.356" transform="translate(-944.663 -1563.886)" fill="#313941"/>
            <path id="Trazado_733732" data-name="Trazado 733732" d="M1001.571,1583.323a1.937,1.937,0,1,0-2.387,1.344,1.937,1.937,0,0,0,2.387-1.344" transform="translate(-951.546 -1570.768)" fill="#121516"/>
            <path id="Trazado_733733" data-name="Trazado 733733" d="M996.06,1595.621l1.638-5.859a.569.569,0,0,1,.7-.395l.178.05a.568.568,0,0,1,.4.414l.382,1.588.354,1.467.008.032-.362,1.272-.62,2.179Z" transform="translate(-950.137 -1577.767)" fill="#92959e"/>
            <path id="Trazado_733734" data-name="Trazado 733734" d="M984.89,1612.562l.422-1.51a.7.7,0,0,1,.86-.484l5.26,1.471a.7.7,0,0,1,.484.86l-.422,1.51Z" transform="translate(-940.921 -1595.255)" fill="#2a8408"/>
            <path id="Trazado_733735" data-name="Trazado 733735" d="M773.54,1552.328h7.125l6.529-5.063,7.149,17.153L778.718,1571Z" transform="translate(-766.546 -1543.048)" fill="#e0b673"/>
            <path id="Trazado_733736" data-name="Trazado 733736" d="M682.594,1684.392l-.093.28-.282.847-.008.024-.423,1.268h0l-.342,1.025h0l-.8,2.39-.142.426-.647,1.942-.532,1.592h-3.7a19.036,19.036,0,0,1-9.819-3.415l2.011-2.324,5.226-1.451,1.382-.385h0l.867-.24,1.322-.367.6-2.175v0l.044-.162h0l.266-.961h0l.343-1.244h0l2.481,1.54.033.019h0l.25.155.414.257h0l.757.471Z" transform="translate(-677.659 -1653.767)" fill="#7c6057"/>
            <path id="Trazado_733737" data-name="Trazado 733737" d="M715.955,1682.02l-.229-2.747-1.949.163a1.184,1.184,0,0,0-1.082,1.278l.032.386a1.184,1.184,0,0,0,1.279,1.082Z" transform="translate(-716.343 -1651.962)" fill="#d8190b"/>
            <path id="Trazado_733738" data-name="Trazado 733738" d="M706.378,1686.962h0a.283.283,0,0,0-.306-.259l-1.882.157a.283.283,0,0,0,.047.565l1.882-.157a.283.283,0,0,0,.259-.306" transform="translate(-709.115 -1658.091)" fill="#d8190b"/>
            <path id="Trazado_733739" data-name="Trazado 733739" d="M743,1670.79l-.4-4.748a.275.275,0,0,0-.3-.251l-12.64,1.054a.413.413,0,0,0-.377.445l.373,4.473a.413.413,0,0,0,.445.377l12.64-1.054a.275.275,0,0,0,.251-.3" transform="translate(-730.033 -1640.838)" fill="#fc3117"/>
            <g id="Grupo_1033383" data-name="Grupo 1033383" transform="translate(0.573 25.835)" opacity="0.47">
              <g id="Grupo_1033382" data-name="Grupo 1033382">
                <g id="Grupo_1033381" data-name="Grupo 1033381" clip-path="url(#clip-path-6)">
                  <path id="Trazado_733740" data-name="Trazado 733740" d="M747.751,1671.241h0a.445.445,0,0,0-.48-.406l-10.02.835a.445.445,0,0,0,.074.887l10.02-.835a.445.445,0,0,0,.406-.48" transform="translate(-736.842 -1670.833)" fill="#feebc0"/>
                </g>
              </g>
            </g>
            <path id="Trazado_733741" data-name="Trazado 733741" d="M765.792,1615.056l-19.209.24-5.494.068h0l-.194,0-3.043.038h0l-1.247.016h-.227l-.865.012-1.931.024-5.582.07-6.416.08h0l-4.351.053-.545.007-3.494.043-4.575,1.967H693.69a19.114,19.114,0,0,1-2.739-.359,18.912,18.912,0,0,1-3.249-.98l5.557-4.086,1.023-.751.565-.416,2.869-2.109.758-.558.127-.094.753-.552.014-.012.5-.368,1.366-1.005h0l.976-.717.726-.533,1.135-.835h0l.143-.1h0l1.368-1.007h0l1.192-.875h0l.26-.192,5.724-4.209,8.005-5.885v0h0l3.2-2.35,1.284-.945.066.023,1.143.4.309.108.871.3.256.09,4.719,1.646h0l4.643,1.619h0l2.416.842.222.077h0l.176.062.491.172,1.253.436h0l.031.012,2.6.906,1.107.386.826.288,1.509.527.953.332c.944.8,1.946,1.719,2.972,2.711,1.805,1.742,3.688,3.707,5.464,5.634.03.032.057.063.088.094h0l.163.178h0l.16.175c.129.14.257.28.384.42l0,0v0c4.254,4.668,7.71,8.887,7.71,8.887" transform="translate(-695.725 -1577.255)" fill="#f9b234"/>
            <path id="Trazado_733742" data-name="Trazado 733742" d="M761.771,1668.511l6.78,13.027,1.976-.1-6.105-12.929Z" transform="translate(-756.837 -1643.082)" fill="#525e68"/>
            <path id="Trazado_733743" data-name="Trazado 733743" d="M719.642,1660.639,730.23,1674.5l2.063-.339-11.606-15.8Z" transform="translate(-722.078 -1634.713)" fill="#525e68"/>
            <path id="Trazado_733744" data-name="Trazado 733744" d="M706.961,1707.787l-1.6.959-.144.086-.106-.086-1.938-1.592-3.488-2.865-1.178-.968-2.15-1.766-2.292-1.882,1.336-.327.984-.242,2.223,1.826,1.489,1.223,2.994,2.459.73.6Z" transform="translate(-700.979 -1668.323)" fill="#525e68"/>
            <path id="Trazado_733745" data-name="Trazado 733745" d="M1249.463,1586.951l1.849-8.139-1.218-.955-1.575,8.427Z" transform="translate(-1158.429 -1568.289)" fill="#7c6057"/>
            <path id="Trazado_733746" data-name="Trazado 733746" d="M1236.543,1560.848l-.126,10.181,1.07.587.355-11.436Z" transform="translate(-1148.444 -1553.703)" fill="#7c6057"/>
            <path id="Trazado_733747" data-name="Trazado 733747" d="M1215.5,1569.611l-1.27-.573,1.827,8.223,1.175.146Z" transform="translate(-1130.137 -1561.012)" fill="#7c6057"/>
            <path id="Trazado_733748" data-name="Trazado 733748" d="M1119.687,1590.5l6.137-2.72,1.894.615,2.7-.723c.934-.5,3.106,0,3.106,0l2.433.561,5.4.178,3.664,1.411,3.1,3.092-4.236,4.2-16.167-3.69Z" transform="translate(-1052.136 -1576.204)" fill="#7c6057"/>
            <path id="Trazado_733749" data-name="Trazado 733749" d="M1409.145,1687.29a5.779,5.779,0,0,0-2.219,4.132,21.97,21.97,0,0,0-3.373-5.9,24.482,24.482,0,0,1,2.06,6.324,11.359,11.359,0,0,0-4.008-3.549,19.2,19.2,0,0,1,3.3,4.578h3.472c-.391-2.063.766-5.588.766-5.588" transform="translate(-1284.734 -1657.119)" fill="#7c6057"/>
            <path id="Trazado_733750" data-name="Trazado 733750" d="M1212.129,1654.359l6.137-2.72,1.894.615,2.7-.723c.934-.5,3.105,0,3.105,0l2.433.561,5.4.178,3.664,1.412,3.1,3.091-4.236,4.2-16.167-3.69Z" transform="translate(-1128.405 -1628.889)" fill="#7c6057"/>
            <path id="Trazado_733751" data-name="Trazado 733751" d="M1382.605,1708.208q-.226.142-.457.276-.4.235-.82.451a19.016,19.016,0,0,1-7.653,2.1h-3.134l.166-1.171.785-5.5-.641-2.485,4,1.671,1.306.546,2.4,1,1.19.5.528.717h0l.041.056.806,1.092.448.609.2.026Z" transform="translate(-1259.103 -1670.614)" fill="#7c6057"/>
            <path id="Trazado_733752" data-name="Trazado 733752" d="M1349.424,1648.124l-4.9,7.468-2.867,4.371h0l-1.274,1.941-.768,1.171h-5.828l4.2-6.4,1.123-1.714.029-.045,3.636-5.544,0,0-1.657-1.32.089-.136.466-.713-.872-1.125,1.035-.293.261-1.684,1.836-.344,1.663,1.324,3.426,2.728Z" transform="translate(-1228.781 -1622.654)" fill="#683e1e"/>
            <path id="Trazado_733753" data-name="Trazado 733753" d="M1235.072,1571.487l1.1-.156-.725-1.351,2.1-.047-1.663-1.324-6.348-5.055-3.829-3.049-2.816,4.295-10.227,15.6,3.829,3.049,10.227-15.6,6.348,5.055,1.141,1.769-.272-2.625,1.848,1.041Z" transform="translate(-1128.848 -1553.971)" fill="#683e1e"/>
            <path id="Trazado_733754" data-name="Trazado 733754" d="M1386.113,1668.747l1.148.907-9,13.5.09-2.569Z" transform="translate(-1265.471 -1643.277)" fill="#472c19"/>
            <path id="Trazado_733755" data-name="Trazado 733755" d="M1273.691,1604.568l.379,3.173-1.388-.35-.393,1.85-2.528.2-1.57-2.148-1.137,3.761-3.384-2.324,2.274-3.383,3.078-4.581Z" transform="translate(-1170.93 -1587.187)" fill="#4baee0"/>
            <path id="Trazado_733756" data-name="Trazado 733756" d="M1332.874,1659.838l-.078.115-.944,1.405-.671,1-.63.938-1.237,1.839-.215.32,0,.006s0,0,0,0l-1.22,1.814-4.294,6.389h-1.364l-.123-.8-.4-2.6.185-.129,2.448-1.718.221-2.858.714-.407.2-.113,1.728-.987.117-.066.008-.117.241-3.586.369-.3.972-.781v-.134l-.014-1.957,0-.528.956.779,1.2.981.189.154Z" transform="translate(-1218.804 -1633.241)" fill="#4baee0"/>
            <path id="Trazado_733757" data-name="Trazado 733757" d="M836.38,1660.626s2.025-6.932,8.664-9.66,10.139-.574,15.422-2.439,9-3.214,9-3.214l-1.35,15.983-10.046,1.742Z" transform="translate(-818.393 -1623.944)" fill="#e59c28"/>
            <path id="Trazado_733758" data-name="Trazado 733758" d="M1179.26,1625.984H1137l-.3-10.594-.035-1.232-.078-2.709-.127-4.418-.017-.608.439-.712,2.327-3.78.169-.273,3.372.384,2.777-3.192,3.375-.057,2.629,1.445,1.3.717,1.118.614,1.094.6.861.473.287.159,1,.55,2.357,1.3.119.065.76-.182h0l.076-.018h0l5.013-1.2,2.445-.585.38-.092h0l2.224-.532.522,3.8h0l.426,3.1h0l.318,2.3.4,2.928s0,0,0,0l.088.643,1,.735h0l1.018.751.471.348.77.566.654.48h0l.012.01.065.047,2.028,1.492.49,3.558v0l.277,2.017Z" transform="translate(-1065.954 -1585.561)" fill="#db982c"/>
            <path id="Trazado_733759" data-name="Trazado 733759" d="M1204.133,1696.668H1177.8l-.255-5.041-.088-1.719v0l-.02-.4v-.031l.126-.056h0l4.185-1.878.294-.131,4.8-2.155,1.259-.565.5-.224,3.92,1.253,4.013,5.23,6.538,4.92Z" transform="translate(-1099.779 -1656.245)" fill="#c9841f"/>
            <path id="Trazado_733760" data-name="Trazado 733760" d="M1207.656,1640.047l-1.413-.221-.223,1.878-2.5.427-1.761-2-.786,3.85-3.583-2a8.431,8.431,0,0,1,1.223-4.92,10.875,10.875,0,0,1,3.376-3.5l3.768,2.534,1.229.826Z" transform="translate(-1116.226 -1614.248)" fill="#2996cc"/>
            <path id="Trazado_733761" data-name="Trazado 733761" d="M1002.418,1627.825H956.069l.623-.816.186-.244.246-.322.539-.706.128-.169.182-.237,1.23-1.61,1.628-2.13.132-.173,1.37-1.795.127-.165.21-.276.058-.077.064-.083.287-.376.074-.1.02-.027.265-.346.011-.014.147-.193.544-.711.149-.193.126-.165.1-.137.054-.342,1.05-6.713.411-2.622.673-.809.267-.322.666-.8.467-.563.344-.414.846-1.017,1.761-2.119.014-.016.025.027.756.8.347.37.494.526.537.573.024.024,2.708,2.886,1.114,1.187.211.225.549-.007,4.937-.064.743-.01,4.531-.059.012.046.331,1.22,1.594,5.884.045.165.107.393.133.491.221.813.035.13.231.217,4.038,3.8.089.083,3.358,3.155Z" transform="translate(-917.142 -1587.402)" fill="#8e4b2e"/>
            <path id="Trazado_733762" data-name="Trazado 733762" d="M1042.752,1667.863h-28.558l1.762-2.382.278-.376.73-10.553,4.229-4.7.267-.3,5.178,5.516.222.236.028.03.281.3.506.54h.01l.8-.013h.018l.221,0,.267,0,.614-.01.1,0,.58-.009.208,0h.012l.266,0,.634-.01.306-.005.371-.006.255,0,.2,0h.065l.6-.01.521-.009.113,0,.852-.013,1.116-.019h.045l.14,0,.226.829.048.179,1.211,4.446Z" transform="translate(-965.098 -1627.441)" fill="#683727"/>
            <path id="Trazado_733763" data-name="Trazado 733763" d="M945.01,1717.556c1.052,1.6,1.354,3.314.676,3.823s-2.081-.376-3.133-1.978-1.354-3.313-.676-3.823,2.081.376,3.133,1.978" transform="translate(-905.135 -1681.796)" fill="#d1180e"/>
            <path id="Trazado_733764" data-name="Trazado 733764" d="M965.362,1684.463a6.048,6.048,0,0,1-.856,1.126c-.263.167-1.115.083-1.622.4S961,1689.97,961,1689.97s2.245-.63,2.746-.312,2.173,1.447,3.006,2.149,2.136-1.333,2.606-1.685-3.261-3.888-3.261-3.888Z" transform="translate(-921.213 -1656.244)" fill="#d1180e"/>
            <path id="Trazado_733765" data-name="Trazado 733765" d="M944.377,1706.239l-.283-.633s2.9-1.937,4.292-2.167.892,3.585.722,3.894a25.592,25.592,0,0,1-1.822,1.912s-2.052-1.658-2.074-1.732-.77-1.172-.77-1.172Z" transform="translate(-907.262 -1671.891)" fill="#df3a12"/>
            <path id="Trazado_733766" data-name="Trazado 733766" d="M988.259,1685.073c1.052,1.6,1.354,3.313.676,3.823s-2.081-.376-3.133-1.978-1.354-3.313-.676-3.823,2.081.376,3.133,1.978" transform="translate(-940.817 -1654.997)" fill="#7c7c7c"/>
            <path id="Trazado_733767" data-name="Trazado 733767" d="M991.109,1682.933c1.052,1.6,1.354,3.313.676,3.823s-2.081-.376-3.133-1.978-1.354-3.314-.676-3.823,2.081.376,3.133,1.978" transform="translate(-943.168 -1653.23)" fill="#7c7c7c"/>
            <path id="Trazado_733768" data-name="Trazado 733768" d="M989.175,1684.385c1.052,1.6,1.354,3.313.676,3.823s-2.081-.376-3.133-1.978-1.354-3.313-.676-3.823,2.081.376,3.133,1.978" transform="translate(-941.573 -1654.428)" fill="#d0d0d0"/>
            <path id="Trazado_733769" data-name="Trazado 733769" d="M993.754,1696.611l-.725-.268-.022.052-.124.32h0l-.242.617c0,.007-.006.017-.009.025a.457.457,0,0,0,.2.468.649.649,0,0,0,.18.1l.007,0h0l.282.105c.283.1.554-.007.588-.24l.007-.048v0l.124-.843v0l.028-.181Zm-.066,1.112c-.035.139-.256.179-.491.092a.731.731,0,0,1-.248-.149.277.277,0,0,1-.111-.257c.033-.121.2-.167.4-.12a.584.584,0,0,1,.092.028c.236.085.4.268.359.406m-.3-.5a.1.1,0,0,1-.028-.008l-.045-.019h0a.376.376,0,0,1-.238-.286v0a.2.2,0,0,1,.005-.045c.032-.126.211-.171.4-.1a.61.61,0,0,1,.118.062h0a.3.3,0,0,1,.161.292c-.032.119-.193.165-.371.109Z" transform="translate(-947.298 -1666.045)" fill="#7c7c7c"/>
            <path id="Trazado_733770" data-name="Trazado 733770" d="M959.821,1713.469a6.863,6.863,0,0,1,2.768-.48c.866.225,2.42,1.864,2.837,1.973s.585.491,1,.349c0,0-1.038,1.25-1.98,1.112s-2.338.73-2.278,1.228a2.6,2.6,0,0,1-.9,1.67c-.356.268-1.471.471-1.567-.483s.779-2.336.524-3.291-1.063-1.254-.407-2.078" transform="translate(-920.031 -1679.742)" fill="#a30905"/>
            <path id="Trazado_733771" data-name="Trazado 733771" d="M991.659,1688.566s.205-.335.782-.1a2.771,2.771,0,0,1,1.3,1.376c.137.41-.348.563-.783.467s-1.627-.981-1.3-1.739" transform="translate(-946.459 -1659.476)" fill="#414242"/>
            <rect id="Rectángulo_352538" data-name="Rectángulo 352538" width="10.668" height="5.893" transform="matrix(0.955, -0.298, 0.298, 0.955, 58.616, 13.564)" fill="#ffc881"/>
            <rect id="Rectángulo_352539" data-name="Rectángulo 352539" width="10.668" height="2.717" transform="translate(60.37 19.19) rotate(-17.32)" fill="#a2744d"/>
            <path id="Trazado_733772" data-name="Trazado 733772" d="M1065.222,1608.04l-1.755-5.626.9-1.721,1.755,5.626Z" transform="translate(-1005.752 -1587.129)" fill="#ffe3ca"/>
            <path id="Trazado_733773" data-name="Trazado 733773" d="M1074.4,1632.85l-.9,1.721,1.709.873Z" transform="translate(-1014.026 -1613.66)" fill="#a2744d"/>
            <rect id="Rectángulo_352540" data-name="Rectángulo 352540" width="1.742" height="5.929" transform="translate(56.042 15.769) rotate(-17.321)" fill="#ffc881"/>
            <path id="Trazado_733774" data-name="Trazado 733774" d="M1094.478,1600.668a1.867,1.867,0,1,0-2.339-1.227,1.867,1.867,0,0,0,2.339,1.227" transform="translate(-1029.337 -1584.096)" fill="#fff"/>
            <path id="Trazado_733775" data-name="Trazado 733775" d="M1301.323,1670.83l.786-1.632,1.632.413.308,1.066-.552,1.259a1.027,1.027,0,0,0,.637,1.669c1.477.529,4.621,2.374,2.752,3.754s-2.309-2.334-2.684,1.571-3.462,3.358-4.073,1.677a1.908,1.908,0,0,1,.714-2.457c.54-.306,1.8-.382,1.053-1.19s-2.057-1.52-2.543-.971.412,2.38-1.054,1.009c-1.687-1.578-3.264.761-2.956-1.42l.956-2.913,1.387-.287s1.2,2.72.972-.723a7.281,7.281,0,0,0-.544-1.8s.356-.506,1.59-.492c.654.008.661,1.6.661,1.6Z" transform="translate(-1197.03 -1643.649)" fill="#c1ccd6"/>
            <path id="Trazado_733776" data-name="Trazado 733776" d="M839.226,1689.847l-4.006,1.275a5.135,5.135,0,0,1-3.687,4.679l-2.314.7-3.1.976,1.095-2.1-3.163-1.08.544-.567.922-.962-1.988-.855.308-2.348-2.38-1.183,1.957-.452,5.812-1.769a4.411,4.411,0,0,1,5.312,2.021l4-1.222-.033-.142a.683.683,0,0,1,.49-.782l.841-.256a.591.591,0,0,1,.772.4l.753,3.146a.683.683,0,0,1-.49.782l-.841.256a.591.591,0,0,1-.772-.4Z" transform="translate(-806.081 -1657.309)" fill="#2b7554"/>
            <path id="Trazado_733777" data-name="Trazado 733777" d="M843.767,1706.657l-2.314.7-3.1.976,1.095-2.1-3.163-1.08.544-.567c1.956-.028,4.9-.2,6.29-.963a6.094,6.094,0,0,0,2.8-3.164l5.135-1.551.4,1.79-4.006,1.275a5.136,5.136,0,0,1-3.687,4.68" transform="translate(-818.315 -1668.165)" fill="#1b5439"/>
            <path id="Trazado_733778" data-name="Trazado 733778" d="M841.342,1695.768s4.983-1.764,6.226-1.365,1.952,1.281,1.488,1.806-2.188-.814-3.277-.6-4.379,1.416-4.574,1.185-.56-.793.136-1.028" transform="translate(-822.15 -1664.396)" fill="#46bc83"/>
            <path id="Trazado_733779" data-name="Trazado 733779" d="M925.843,1691.627s-.444-2.329-.569-2.549-.579-.093-.621.1a15.025,15.025,0,0,0,.642,2.535c.13.251.59.133.547-.087" transform="translate(-891.221 -1659.955)" fill="#46bc83"/>
            <path id="Trazado_733780" data-name="Trazado 733780" d="M821.458,1699.577l2.38,1.182-.308,2.348,1.988.855-1.466,1.529,1.176.4,1.738-2.157-2.811-.991.322-2.394-1.894-1.034Z" transform="translate(-806.081 -1668.499)" fill="#1b5439"/>
            <path id="Trazado_733781" data-name="Trazado 733781" d="M1414.583,1705.026l-.552.656.046.016q-.173.184-.351.362-.532.539-1.107,1.035a19.087,19.087,0,0,1-1.881,1.43h0q-.266.177-.537.345-.226.142-.457.276-.4.235-.82.451a2.538,2.538,0,0,1-.493-.6l-2.516.951.028.09a.439.439,0,0,1-.283.521l-.53.2a.38.38,0,0,1-.512-.223l-.614-1.988a.44.44,0,0,1,.282-.523l.53-.2a.38.38,0,0,1,.513.222l.024.078,2.519-.984c0-.036,0-.072,0-.108,0-.019,0-.037,0-.056a3.166,3.166,0,0,1,.788-2.02,3.452,3.452,0,0,1,1.388-.972l.466-.175.99-.373,1.95-.755-.616,1.393,1.3.353.772.21Z" transform="translate(-1286.698 -1671.277)" fill="#7c6057"/>
            <path id="Trazado_733782" data-name="Trazado 733782" d="M1416.482,1703.986l1.457-.547,1.949-.755-.616,1.393,2.076.563-.326.387a10.809,10.809,0,0,0-4,.879,3.921,3.921,0,0,0-1.668,2.147l-3.233,1.208-.333-1.132,2.519-.984a3.305,3.305,0,0,1,2.173-3.157" transform="translate(-1293.136 -1671.277)" fill="#7c6057"/>
            <path id="Trazado_733783" data-name="Trazado 733783" d="M1435.841,1734.733q-.265.177-.537.344c-.15.095-.3.186-.457.276a1.071,1.071,0,0,1-.377-.384.379.379,0,0,1,.022-.428c.186-.24.775.039,1.35.191" transform="translate(-1311.802 -1697.483)" fill="#7c6057"/>
            <path id="Trazado_733784" data-name="Trazado 733784" d="M1406.557,1736.575s.381,1.477.471,1.613.376.036.394-.091a9.665,9.665,0,0,0-.517-1.6c-.094-.156-.384-.061-.348.079" transform="translate(-1288.816 -1699.108)" fill="#7c6057"/>
            <path id="Trazado_733785" data-name="Trazado 733785" d="M1457.062,1713.918l.045.017q-.173.183-.351.362l-.615-.173.543-.771.484-.686.772.21Z" transform="translate(-1329.728 -1679.513)" fill="#7c6057"/>
            <path id="Trazado_733786" data-name="Trazado 733786" d="M1108.023,1611.963l-3.1.414-3.858-2.47,1.05-4.027,3.029.636,2.653-1.625,2.391,1.8Z" transform="translate(-1036.771 -1590.593)" fill="#683727"/>
            <path id="Trazado_733787" data-name="Trazado 733787" d="M937.91,1598.8a10.619,10.619,0,0,1,6.267,0c2.729,1.167,4.585,4.189,6.079,4.928,0,0-1.793,1.083-5.038.188-2.04-.563-3.474-.281-4.135.788-1.143,1.848-2.072,2.51-2.851,2.7-1.087.259-2.81-.748-2.353-2.259.591-1.955,2.545-2.487,2.588-4.107s-2.229-1.434-.556-2.234" transform="translate(-900.422 -1585.174)" fill="#af2323"/>
            <path id="Trazado_733788" data-name="Trazado 733788" d="M757.211,1754.217h.25l-.144.087Z" transform="translate(-753.074 -1713.794)" fill="#16272f"/>
            <path id="Trazado_733789" data-name="Trazado 733789" d="M804.216,1722.755H761.771l2.231-.823.656-.242.731-.269.014-.006,1.085-.4,1.831-.675.69-.254,1.052-.388,5.235-1.93.493-.181.971-.358,3.109-1.146,3.38.456,2.65.358,7.431,1,1.635.222,1.927.26.186.025.936.126.884.119,1.6.216.163.171,1.345,1.4.026.027Z" transform="translate(-756.836 -1682.332)" fill="#738391"/>
            <path id="Trazado_733790" data-name="Trazado 733790" d="M1238.4,1695.07s-1.268.563-.931.732.563.619,1.35.619h1.688s.675-.011-.45-1.075-1.657-1.007-1.657-1.007Z" transform="translate(-1149.268 -1664.391)" fill="#12749b"/>
            <path id="Trazado_733791" data-name="Trazado 733791" d="M1166.212,1645.929s-.8.563-.585.731.354.619.849.619h1.061s.424-.011-.283-1.075-1.042-1.007-1.042-1.007Z" transform="translate(-1090.008 -1623.847)" fill="#303c42"/>
            <path id="Trazado_733792" data-name="Trazado 733792" d="M718.966,1731.756h-9.952a19.11,19.11,0,0,1-2.739-.359l3.485-4.1.259-.306,1.875.374,1.269.254h0l.872.174,1.609.322,2.569,2.815Z" transform="translate(-711.05 -1691.334)" fill="#683727"/>
            <path id="Trazado_733793" data-name="Trazado 733793" d="M1216.427,1658.841l.787-3.849,1.76,1.995,2.5-.428.365-1.856,1.271.2-.668-3.125-.416-.28.5,2.781-1.088-.037-.3,1.828-2.063.536-1.8-2.25-1.2,3.863Z" transform="translate(-1131.657 -1629.045)" fill="#12749b"/>
            <path id="Trazado_733794" data-name="Trazado 733794" d="M1211.769,1636.426a7.474,7.474,0,0,1-7.144.968,10.876,10.876,0,0,1,3.376-3.5Z" transform="translate(-1122.214 -1614.52)" fill="#4ebbe5"/>
            <path id="Trazado_733795" data-name="Trazado 733795" d="M850.307,1644.11l-.353-.964-1.256.514-1.138-1.419.639-1.8-2.689.846.01-2.945a6.049,6.049,0,0,1,3.512-.944,7.8,7.8,0,0,1,3.372.9l-.279,3.246-.091,1.058Z" transform="translate(-825.925 -1617.412)" fill="#2996cc"/>
            <path id="Trazado_733796" data-name="Trazado 733796" d="M845.508,1654.768l2.689-.846-.639,1.8,1.138,1.419,1.291-.417.318.867,1.728-1.507.031-.358L850.492,1657l-.355-.7-1.251.448-1.054-1.108.786-1.913-2.842.591Z" transform="translate(-825.924 -1630.891)" fill="#12749b"/>
            <path id="Trazado_733797" data-name="Trazado 733797" d="M868.734,1641.555a5.363,5.363,0,0,1-3.093-4.146,7.807,7.807,0,0,1,3.372.9Z" transform="translate(-842.534 -1617.422)" fill="#4ebbe5"/>
            <path id="Trazado_733798" data-name="Trazado 733798" d="M1178.571,1692.483l.229,1,1.31-.352.95,1.55-.86,1.7,2.774-.5-.38,2.92a6.048,6.048,0,0,1-3.6.5,7.805,7.805,0,0,1-3.232-1.316l.684-3.185.223-1.039Z" transform="translate(-1098.399 -1662.86)" fill="#2996cc"/>
            <path id="Trazado_733799" data-name="Trazado 733799" d="M1186.9,1695.885l-2.774.5.86-1.7-.951-1.551-1.333.251-.206-.9-1.9,1.277-.076.352,1.72-1.071.265.735,1.3-.287.906,1.232-1.02,1.8,2.893-.229Z" transform="translate(-1102.321 -1662.86)" fill="#12749b"/>
            <path id="Trazado_733800" data-name="Trazado 733800" d="M790.391,1716.083l-.8,2.418-.313.951-.422,1.285-.479,1.457-.185.56H775.276l-.751-.822.656-.242.732-.269.013-.006,1.085-.4,1.831-.675.69-.254,1.052-.388,5.235-1.93.493-.181.971-.358Z" transform="translate(-767.359 -1682.332)" fill="#92a1ad"/>
            <path id="Trazado_733801" data-name="Trazado 733801" d="M954.88,1735.883h-10.5l2.044-1.172.348-.2.4-.227.851-.488.3-.17.053-.031,2.788-1.6.163.171,1.345,1.4.026.027Z" transform="translate(-907.5 -1695.46)" fill="#5a6a77"/>
            <path id="Trazado_733802" data-name="Trazado 733802" d="M1223.663,1735.708h-18.315l.963-.484.283-.142.315-.158.006,0,.468-.235.79-.4.3-.15.454-.229,2.259-1.135.213-.106.419-.211,1.342-.674,1.459.268,1.144.211,3.207.59.706.13.832.153.08.015.4.074.382.07.689.127.07.1.58.826.011.016Z" transform="translate(-1122.81 -1695.285)" fill="#738391"/>
            <path id="Trazado_733803" data-name="Trazado 733803" d="M1217.7,1731.783l-.343,1.422-.135.559-.182.756-.207.857-.079.33h-5.576l-.324-.484.283-.142.316-.158.006,0,.468-.235.79-.4.3-.15.454-.229,2.259-1.135.213-.106.419-.21Z" transform="translate(-1127.351 -1695.285)" fill="#92a1ad"/>
            <path id="Trazado_733804" data-name="Trazado 733804" d="M1288.676,1743.431h-4.53l.882-.69.15-.117.171-.134.367-.287.128-.1.023-.018,1.2-.941.07.1.58.826.011.016Z" transform="translate(-1187.823 -1703.008)" fill="#5a6a77"/>
            <path id="Trazado_733805" data-name="Trazado 733805" d="M761.771,1668.511l6.548,12.58.689-.254-6.189-12.326Z" transform="translate(-756.837 -1643.082)" fill="#5a6a77"/>
            <path id="Trazado_733806" data-name="Trazado 733806" d="M722.615,1659.508l10.469,14.294,1.032-.428-10.977-15.007Z" transform="translate(-724.531 -1634.713)" fill="#5a6a77"/>
            <path id="Trazado_733807" data-name="Trazado 733807" d="M701.707,1699.346l6.42,5.013,1.269.254-6.706-5.508Z" transform="translate(-707.28 -1668.324)" fill="#5a6a77"/>
            <path id="Trazado_733808" data-name="Trazado 733808" d="M814.267,1552.328l2.92,11.374,8.005-5.887-4.4-10.55Z" transform="translate(-800.148 -1543.048)" fill="#cca266"/>
            <path id="Trazado_733809" data-name="Trazado 733809" d="M1359.924,1665.784l-1.237,1.839-1.39-5.151.972-.781-.015-2.091Z" transform="translate(-1248.176 -1635.73)" fill="#87d5f4"/>
            <path id="Trazado_733810" data-name="Trazado 733810" d="M1370.23,1665.03l-.671,1-1.347-4.995,1.2.981Z" transform="translate(-1257.182 -1636.913)" fill="#87d5f4"/>
            <path id="Trazado_733811" data-name="Trazado 733811" d="M773.54,1552.328l6.7-1.583,6.956-3.481-6.827,5.338Z" transform="translate(-766.546 -1543.048)" fill="#684932"/>
            <path id="Trazado_733812" data-name="Trazado 733812" d="M1304.7,1695.71c-1.575-.03-2.025-.308-3.313-1.576s-3.551.368-5.341-.657l-.7,2.132c-.308,2.18,1.269-.158,2.956,1.42,1.466,1.371.569-.46,1.054-1.009s1.8.162,2.543.971-.512.884-1.053,1.19a1.909,1.909,0,0,0-.714,2.457c.611,1.681,3.7,2.228,4.073-1.677s.816-.19,2.684-1.571c.871-.644.652-1.389.021-2.054a9.243,9.243,0,0,1-2.21.373" transform="translate(-1197.03 -1663.681)" fill="#829199"/>
            <g id="Grupo_1033386" data-name="Grupo 1033386" transform="translate(37.601 29.823)" opacity="0.65">
              <g id="Grupo_1033385" data-name="Grupo 1033385">
                <g id="Grupo_1033384" data-name="Grupo 1033384" clip-path="url(#clip-path-7)">
                  <path id="Trazado_733813" data-name="Trazado 733813" d="M948.618,1697.555a14.8,14.8,0,0,1,2.707-1.322,1.5,1.5,0,0,0,1.107-1.266c.075-.436.413-1.188.694-1.215s.938-.22,1.031-.067-.9.549-1.137.866a5.971,5.971,0,0,0-.663,1.153,1.912,1.912,0,0,1-1.125,1,6.823,6.823,0,0,0-1.894.735c-.431.278-1.138.493-.719.113" transform="translate(-948.49 -1693.626)" fill="#e8e8e8"/>
                </g>
              </g>
            </g>
            <g id="Grupo_1033389" data-name="Grupo 1033389" transform="translate(24.457 30.481)" opacity="0.65">
              <g id="Grupo_1033388" data-name="Grupo 1033388">
                <g id="Grupo_1033387" data-name="Grupo 1033387" clip-path="url(#clip-path-8)">
                  <path id="Trazado_733814" data-name="Trazado 733814" d="M875.059,1697.972a1.349,1.349,0,0,0-.821-.525c-.466-.037-.9-.113-.878,0s.832.338,1.1.525.649.244.6,0" transform="translate(-873.359 -1697.387)" fill="#e8e8e8"/>
                </g>
              </g>
            </g>
            <path id="Trazado_733815" data-name="Trazado 733815" d="M1217.478,1638l-.175-.037s-1.025.637-1.181,1.163.041,1.143.545.722,1.184-1.357,1.512-1.021.5.439.473,0-1.174-.826-1.174-.826" transform="translate(-1131.657 -1617.881)" fill="#e8e8e8"/>
            <path id="Trazado_733816" data-name="Trazado 733816" d="M1280.467,1616.843l-6.484,1.838-.443.659,7.918-1.9-.863-.7Z" transform="translate(-1179.072 -1600.368)" fill="#368fb2"/>
            <path id="Trazado_733817" data-name="Trazado 733817" d="M1107.4,1669.849l1.6-3.8a.559.559,0,1,0-.986-.527l-1.6,3.8a.559.559,0,0,0,.987.527" transform="translate(-1041.134 -1640.372)" fill="#878787"/>
            <path id="Trazado_733818" data-name="Trazado 733818" d="M1097.006,1667.525l1.6-3.8a.559.559,0,1,0-.986-.527l-1.6,3.8a.559.559,0,0,0,.987.527" transform="translate(-1032.555 -1638.455)" fill="#878787"/>
            <path id="Trazado_733819" data-name="Trazado 733819" d="M1086.609,1665.2l1.6-3.8a.559.559,0,0,0-.987-.527l-1.6,3.8a.559.559,0,1,0,.986.527" transform="translate(-1023.977 -1636.537)" fill="#878787"/>
            <path id="Trazado_733820" data-name="Trazado 733820" d="M1141.071,1680.642h0a1.278,1.278,0,0,1-1.522.966l-.605-.135a1.274,1.274,0,0,1,.556-2.487l.605.135a1.278,1.278,0,0,1,.966,1.521" transform="translate(-1067.202 -1651.699)" fill="#8b8a86"/>
            <path id="Trazado_733821" data-name="Trazado 733821" d="M1131.418,1670.533l-.556,2.487-2,.9,1.129-5.05Z" transform="translate(-1059.708 -1643.377)" fill="#b2b2b2"/>
            <path id="Trazado_733822" data-name="Trazado 733822" d="M1118.852,1665.188l.047,5.313,1.7.381,1.129-5.05Z" transform="translate(-1051.446 -1640.341)" fill="#ccc"/>
            <path id="Trazado_733823" data-name="Trazado 733823" d="M1116.619,1665.747l.213,4.207a.559.559,0,1,1-1.117.057l-.214-4.207a.559.559,0,1,1,1.117-.057" transform="translate(-1048.682 -1640.363)" fill="#ccc"/>
            <path id="Trazado_733824" data-name="Trazado 733824" d="M1106.221,1663.422l.214,4.207a.559.559,0,1,1-1.117.057l-.214-4.207a.559.559,0,1,1,1.117-.057" transform="translate(-1040.104 -1638.445)" fill="#ccc"/>
            <path id="Trazado_733825" data-name="Trazado 733825" d="M1095.823,1661.1l.214,4.207a.559.559,0,1,1-1.117.057l-.214-4.207a.559.559,0,1,1,1.117-.057" transform="translate(-1031.525 -1636.528)" fill="#ccc"/>
            <path id="Trazado_733826" data-name="Trazado 733826" d="M1085.909,1667.044l.129,2.76a.559.559,0,0,1-1.117.057l-.129-2.76a.559.559,0,1,1,1.117-.057" transform="translate(-1023.345 -1641.434)" fill="#ccc"/>
            <path id="Trazado_733827" data-name="Trazado 733827" d="M1143.334,1678.379l-.543,2.43a.2.2,0,0,1-.382-.085l.543-2.43a.2.2,0,0,1,.382.085" transform="translate(-1070.879 -1651.027)" fill="#818181"/>
            <path id="Trazado_733828" data-name="Trazado 733828" d="M1146.844,1679.162l-.543,2.43a.2.2,0,1,1-.382-.085l.543-2.43a.2.2,0,1,1,.382.085" transform="translate(-1073.774 -1651.674)" fill="#818181"/>
            <path id="Trazado_733829" data-name="Trazado 733829" d="M1150.353,1679.948l-.543,2.43a.2.2,0,1,1-.382-.085l.543-2.43a.2.2,0,1,1,.382.085" transform="translate(-1076.67 -1652.321)" fill="#818181"/>
            <rect id="Rectángulo_352543" data-name="Rectángulo 352543" width="5.175" height="0.11" transform="translate(68.241 30.336) rotate(-77.4)" fill="#b2b2b2"/>
            <path id="Trazado_733830" data-name="Trazado 733830" d="M1143.179,1687.187l-.22.985a.07.07,0,1,1-.137-.031l.22-.986a.07.07,0,0,1,.137.031" transform="translate(-1071.221 -1658.42)" fill="#ccc"/>
            <path id="Trazado_733831" data-name="Trazado 733831" d="M1146.688,1687.972l-.22.985a.07.07,0,0,1-.137-.031l.22-.985a.07.07,0,1,1,.137.031" transform="translate(-1074.116 -1659.068)" fill="#ccc"/>
            <path id="Trazado_733832" data-name="Trazado 733832" d="M1150.2,1688.756l-.22.985a.07.07,0,1,1-.137-.031l.22-.985a.07.07,0,0,1,.137.031" transform="translate(-1077.011 -1659.715)" fill="#ccc"/>
            <path id="Trazado_733833" data-name="Trazado 733833" d="M1086.648,1674.783l.088,1.723a.133.133,0,0,1-.266.014l-.088-1.723a.133.133,0,1,1,.266-.013" transform="translate(-1024.657 -1648.153)" fill="#fff"/>
            <path id="Trazado_733834" data-name="Trazado 733834" d="M1097.042,1677.106l.088,1.723a.133.133,0,1,1-.266.014l-.087-1.723a.133.133,0,1,1,.266-.014" transform="translate(-1033.233 -1650.069)" fill="#fff"/>
            <path id="Trazado_733835" data-name="Trazado 733835" d="M1107.333,1679.407l.087,1.723a.133.133,0,1,1-.266.014l-.088-1.723a.133.133,0,0,1,.266-.014" transform="translate(-1041.723 -1651.968)" fill="#fff"/>
            <path id="Trazado_733836" data-name="Trazado 733836" d="M1117.931,1681.776l.088,1.723a.133.133,0,0,1-.266.014l-.088-1.724a.133.133,0,0,1,.266-.014" transform="translate(-1050.468 -1653.923)" fill="#fff"/>
            <path id="Trazado_733837" data-name="Trazado 733837" d="M895.194,1620.366a.464.464,0,1,1-.464-.464.464.464,0,0,1,.464.464" transform="translate(-866.152 -1602.977)" fill="#e59c28"/>
            <path id="Trazado_733838" data-name="Trazado 733838" d="M919.635,1616.507a.464.464,0,1,1-.464-.464.464.464,0,0,1,.464.464" transform="translate(-886.317 -1599.793)" fill="#e59c28"/>
            <path id="Trazado_733839" data-name="Trazado 733839" d="M909.666,1633.069a.464.464,0,1,1-.464-.464.464.464,0,0,1,.464.464" transform="translate(-878.092 -1613.458)" fill="#e59c28"/>
            <path id="Trazado_733840" data-name="Trazado 733840" d="M923.489,1649.47a.464.464,0,1,1-.464-.464.464.464,0,0,1,.464.464" transform="translate(-889.496 -1626.99)" fill="#e59c28"/>
            <path id="Trazado_733841" data-name="Trazado 733841" d="M1155.6,1666.68a.464.464,0,1,1-.464-.464.464.464,0,0,1,.464.464" transform="translate(-1081.002 -1641.189)" fill="#f9b234"/>
            <path id="Trazado_733842" data-name="Trazado 733842" d="M1185.509,1635.22a.464.464,0,1,1-.464-.464.464.464,0,0,1,.464.464" transform="translate(-1105.677 -1615.233)" fill="#f9b234"/>
            <path id="Trazado_733843" data-name="Trazado 733843" d="M1174.079,1680.183a.464.464,0,1,1-.464-.464.464.464,0,0,1,.464.464" transform="translate(-1096.246 -1652.329)" fill="#f9b234"/>
            <path id="Trazado_733844" data-name="Trazado 733844" d="M1070.325,1743.782l-.9-.937v-.638l.712-.369,1.463-.269s1,.413,1.136.488a6.027,6.027,0,0,1,.624,1.029v.7Z" transform="translate(-1010.667 -1703.36)" fill="#a30905"/>
          </g>
        </g>
        <g id="Grupo_1033399" data-name="Grupo 1033399" transform="translate(0 0.001)">
          <g id="Grupo_1033398" data-name="Grupo 1033398" clip-path="url(#clip-path-3)">
            <rect id="Rectángulo_352545" data-name="Rectángulo 352545" width="13.679" height="8.747" transform="translate(148.251 180.87)" fill="#2e2830"/>
            <rect id="Rectángulo_352546" data-name="Rectángulo 352546" width="13.679" height="8.747" transform="translate(128.335 180.87)" fill="#2e2830"/>
            <rect id="Rectángulo_352547" data-name="Rectángulo 352547" width="13.679" height="8.747" transform="translate(206.238 180.87)" fill="#2e2830"/>
            <rect id="Rectángulo_352548" data-name="Rectángulo 352548" width="13.679" height="8.747" transform="translate(226.153 180.87)" fill="#2e2830"/>
            <rect id="Rectángulo_352549" data-name="Rectángulo 352549" width="13.679" height="8.747" transform="translate(128.335 194.41)" fill="#2e2830"/>
            <rect id="Rectángulo_352550" data-name="Rectángulo 352550" width="13.679" height="8.747" transform="translate(148.251 194.41)" fill="#2e2830"/>
            <rect id="Rectángulo_352551" data-name="Rectángulo 352551" width="13.679" height="8.747" transform="translate(206.238 194.41)" fill="#2e2830"/>
            <rect id="Rectángulo_352552" data-name="Rectángulo 352552" width="13.679" height="8.747" transform="translate(226.153 194.41)" fill="#2e2830"/>
            <path id="Trazado_733845" data-name="Trazado 733845" d="M785.4,1442.741l-.551.21a.1.1,0,0,0,0,.177l.551.209a.1.1,0,0,1,.04.04l.21.552a.1.1,0,0,0,.177,0l.209-.552a.1.1,0,0,1,.04-.04l.551-.209a.1.1,0,0,0,0-.177l-.551-.21a.1.1,0,0,1-.04-.04l-.209-.551a.1.1,0,0,0-.177,0l-.21.551a.1.1,0,0,1-.04.04" transform="translate(-647.494 -1189.806)" fill="#fd6700"/>
            <path id="Trazado_733846" data-name="Trazado 733846" d="M798.489,1325.274l-.9.344a.165.165,0,0,0,0,.29l.9.344a.165.165,0,0,1,.066.066l.343.9a.166.166,0,0,0,.291,0l.343-.9a.166.166,0,0,1,.066-.066l.9-.344a.165.165,0,0,0,0-.29l-.9-.344a.168.168,0,0,1-.066-.066l-.343-.9a.166.166,0,0,0-.291,0l-.343.9a.166.166,0,0,1-.066.066" transform="translate(-657.978 -1092.55)" fill="#ffdb13"/>
            <path id="Trazado_733847" data-name="Trazado 733847" d="M1327.946,1274.381l-.573.218a.1.1,0,0,0,0,.184l.573.218a.1.1,0,0,1,.042.042l.218.573a.1.1,0,0,0,.184,0l.218-.573a.1.1,0,0,1,.042-.042l.573-.218a.1.1,0,0,0,0-.184l-.573-.218a.107.107,0,0,1-.042-.042l-.218-.573a.1.1,0,0,0-.184,0l-.218.573a.105.105,0,0,1-.042.042" transform="translate(-1095.107 -1050.88)" fill="#ffdb13"/>
            <path id="Trazado_733848" data-name="Trazado 733848" d="M872.4,1373.871l-.9.344a.165.165,0,0,0,0,.29l.9.343a.167.167,0,0,1,.066.066l.343.9a.165.165,0,0,0,.291,0l.343-.9a.168.168,0,0,1,.066-.066l.9-.343a.165.165,0,0,0,0-.29l-.9-.344a.165.165,0,0,1-.066-.066l-.343-.9a.166.166,0,0,0-.291,0l-.343.9a.164.164,0,0,1-.066.066" transform="translate(-718.955 -1132.645)" fill="#fd6700"/>
            <path id="Trazado_733849" data-name="Trazado 733849" d="M973.408,1289.542l-.514.2a.094.094,0,0,0,0,.165l.514.2a.1.1,0,0,1,.037.037l.2.514a.094.094,0,0,0,.165,0l.2-.514a.092.092,0,0,1,.037-.037l.514-.2a.094.094,0,0,0,0-.165l-.514-.2a.091.091,0,0,1-.037-.037l-.2-.514a.094.094,0,0,0-.165,0l-.2.514a.1.1,0,0,1-.037.037" transform="translate(-802.648 -1063.445)" fill="#fd6700"/>
            <path id="Trazado_733850" data-name="Trazado 733850" d="M1312.939,1382.05l-.629.239a.115.115,0,0,0,0,.2l.629.239a.114.114,0,0,1,.046.046l.239.629a.115.115,0,0,0,.2,0l.239-.629a.114.114,0,0,1,.046-.046l.629-.239a.115.115,0,0,0,0-.2l-.629-.239a.111.111,0,0,1-.046-.046l-.239-.629a.115.115,0,0,0-.2,0l-.239.629a.112.112,0,0,1-.046.046" transform="translate(-1082.675 -1139.659)" fill="#fd6700"/>
            <path id="Trazado_733851" data-name="Trazado 733851" d="M1150.088,1339.765l-.452.172a.083.083,0,0,0,0,.145l.452.172a.082.082,0,0,1,.033.033l.172.452a.083.083,0,0,0,.145,0l.172-.452a.084.084,0,0,1,.033-.033l.452-.172a.083.083,0,0,0,0-.145l-.452-.172a.087.087,0,0,1-.033-.033l-.172-.452a.083.083,0,0,0-.145,0l-.172.452a.085.085,0,0,1-.033.033" transform="translate(-948.474 -1104.941)" fill="#fd281d"/>
            <path id="Trazado_733852" data-name="Trazado 733852" d="M1325.848,1446.805l-1.2.457a.22.22,0,0,0,0,.387l1.2.457a.22.22,0,0,1,.088.088l.457,1.2a.22.22,0,0,0,.386,0l.457-1.2a.221.221,0,0,1,.088-.088l1.2-.457a.22.22,0,0,0,0-.387l-1.2-.457a.218.218,0,0,1-.088-.087l-.457-1.2a.22.22,0,0,0-.386,0l-.457,1.2a.218.218,0,0,1-.088.087" transform="translate(-1092.807 -1192.531)" fill="#ffdb13"/>
            <path id="Trazado_733853" data-name="Trazado 733853" d="M1110.685,1276.257l-1.2.457a.22.22,0,0,0,0,.386l1.2.458a.218.218,0,0,1,.088.087l.458,1.2a.22.22,0,0,0,.386,0l.457-1.2a.22.22,0,0,1,.088-.087l1.2-.458a.22.22,0,0,0,0-.386l-1.2-.457a.221.221,0,0,1-.088-.088l-.457-1.2a.22.22,0,0,0-.386,0l-.458,1.2a.218.218,0,0,1-.088.088" transform="translate(-915.286 -1051.82)" fill="#ffdb13"/>
            <path id="Trazado_733854" data-name="Trazado 733854" d="M1231.78,1303.647l-1.559.593a.285.285,0,0,0,0,.5l1.559.593a.284.284,0,0,1,.113.113l.593,1.56a.286.286,0,0,0,.5,0l.593-1.56a.285.285,0,0,1,.114-.113l1.56-.593a.285.285,0,0,0,0-.5l-1.56-.593a.286.286,0,0,1-.114-.113l-.593-1.56a.286.286,0,0,0-.5,0l-.593,1.56a.284.284,0,0,1-.113.113" transform="translate(-1014.874 -1074.075)" fill="#fd281d"/>
            <path id="Trazado_733855" data-name="Trazado 733855" d="M872.576,1277.441l-1.56.593a.285.285,0,0,0,0,.5l1.56.593a.286.286,0,0,1,.114.113l.592,1.56a.286.286,0,0,0,.5,0l.593-1.56a.284.284,0,0,1,.113-.113l1.559-.593a.285.285,0,0,0,0-.5l-1.559-.593a.284.284,0,0,1-.113-.113l-.593-1.56a.285.285,0,0,0-.5,0l-.592,1.56a.286.286,0,0,1-.114.113" transform="translate(-718.511 -1052.453)" fill="#fd281d"/>
            <rect id="Rectángulo_352553" data-name="Rectángulo 352553" width="74.467" height="96.249" transform="translate(35.574 209.041)" fill="#a6d6d6"/>
            <rect id="Rectángulo_352554" data-name="Rectángulo 352554" width="74.467" height="96.249" transform="translate(258.126 209.041)" fill="#a6d6d6"/>
            <path id="Trazado_733856" data-name="Trazado 733856" d="M991.8,1081l1.068.62-1.62-5.057-5.2,1.1,1.128.655-.632,1.1a3.776,3.776,0,0,0-.35.814,3.184,3.184,0,0,0,.688,2.636,4.447,4.447,0,0,0,3.169,1.162Z" transform="translate(-813.546 -888.22)" fill="#fff"/>
            <path id="Trazado_733857" data-name="Trazado 733857" d="M995.209,1119.9a7.49,7.49,0,0,1-1.871-.224,4.867,4.867,0,0,1-1.344-.559l3.068,4.467a3.784,3.784,0,0,0,3.119,1.642h3.158v-5.343h-5.58c-.185.011-.368.017-.549.017" transform="translate(-818.447 -923.329)" fill="#fff"/>
            <path id="Trazado_733858" data-name="Trazado 733858" d="M1052.687,1117.465v-1.278l-3.56,3.941,3.56,3.941v-1.261h1.319a3.783,3.783,0,0,0,2.617-1.051l0,0a2.6,2.6,0,0,0,.6-.981,4.424,4.424,0,0,0-.487-3.308Z" transform="translate(-865.584 -920.913)" fill="#fff"/>
            <path id="Trazado_733859" data-name="Trazado 733859" d="M1085.986,1079.536l-1.629-2.821-4.627,2.671,2.764,4.787a.489.489,0,0,1,.058.156,7.449,7.449,0,0,1,.676,1.7,5.155,5.155,0,0,1,.159,1.1l2.443-3.556a3.785,3.785,0,0,0,.158-4.034" transform="translate(-890.833 -888.347)" fill="#fff"/>
            <path id="Trazado_733860" data-name="Trazado 733860" d="M1012.813,1036.409a.482.482,0,0,1,.125-.143,7.389,7.389,0,0,1,2.537-2.406H1010.3a3.784,3.784,0,0,0-3.277,1.892l-2.051,3.552,4.627,2.671Z" transform="translate(-829.154 -852.99)" fill="#fff"/>
            <path id="Trazado_733861" data-name="Trazado 733861" d="M1054.881,1037.953l2.155,3.732-1.058.615,5.2,1.1,1.62-5.057-1.137.66-1.037-1.8a3.778,3.778,0,0,0-1.437-1.415h0a2.116,2.116,0,0,0-.943-.166,5.047,5.047,0,0,0-3.357,2.328" transform="translate(-870.332 -854.443)" fill="#fff"/>
            <rect id="Rectángulo_352555" data-name="Rectángulo 352555" width="27.424" height="26.333" transform="translate(59.095 279.202)" fill="#115089"/>
            <rect id="Rectángulo_352556" data-name="Rectángulo 352556" width="27.424" height="26.333" transform="translate(281.648 279.202)" fill="#115089"/>
            <rect id="Rectángulo_352557" data-name="Rectángulo 352557" width="51.995" height="2.859" transform="translate(46.81 256.679)" fill="#2e2830"/>
            <rect id="Rectángulo_352558" data-name="Rectángulo 352558" width="51.995" height="2.859" transform="translate(46.81 247.229)" fill="#2e2830"/>
            <rect id="Rectángulo_352559" data-name="Rectángulo 352559" width="51.995" height="2.859" transform="translate(46.81 237.78)" fill="#2e2830"/>
            <rect id="Rectángulo_352560" data-name="Rectángulo 352560" width="51.995" height="2.859" transform="translate(46.81 228.33)" fill="#2e2830"/>
            <rect id="Rectángulo_352561" data-name="Rectángulo 352561" width="51.995" height="2.859" transform="translate(46.81 218.881)" fill="#2e2830"/>
            <rect id="Rectángulo_352562" data-name="Rectángulo 352562" width="9.947" height="23.802" transform="translate(61.557 281.488)" fill="#283033"/>
            <rect id="Rectángulo_352563" data-name="Rectángulo 352563" width="9.947" height="23.802" transform="translate(74.11 281.488)" fill="#283033"/>
            <rect id="Rectángulo_352564" data-name="Rectángulo 352564" width="51.995" height="2.859" transform="translate(269.363 256.679)" fill="#2e2830"/>
            <rect id="Rectángulo_352565" data-name="Rectángulo 352565" width="51.995" height="2.859" transform="translate(269.363 247.229)" fill="#2e2830"/>
            <rect id="Rectángulo_352566" data-name="Rectángulo 352566" width="51.995" height="2.859" transform="translate(269.363 237.78)" fill="#2e2830"/>
            <rect id="Rectángulo_352567" data-name="Rectángulo 352567" width="51.995" height="2.859" transform="translate(269.363 228.33)" fill="#2e2830"/>
            <rect id="Rectángulo_352568" data-name="Rectángulo 352568" width="51.995" height="2.859" transform="translate(269.363 218.881)" fill="#2e2830"/>
            <rect id="Rectángulo_352569" data-name="Rectángulo 352569" width="9.947" height="23.802" transform="translate(284.11 281.488)" fill="#283033"/>
            <rect id="Rectángulo_352570" data-name="Rectángulo 352570" width="9.947" height="23.802" transform="translate(296.663 281.488)" fill="#283033"/>
            <g id="Grupo_1033394" data-name="Grupo 1033394" transform="translate(103.986 209.041)" opacity="0.6">
              <g id="Grupo_1033393" data-name="Grupo 1033393">
                <g id="Grupo_1033392" data-name="Grupo 1033392" clip-path="url(#clip-path-10)">
                  <rect id="Rectángulo_352571" data-name="Rectángulo 352571" width="6.055" height="96.249" fill="#3d8dc0"/>
                </g>
              </g>
            </g>
            <g id="Grupo_1033397" data-name="Grupo 1033397" transform="translate(258.127 209.041)" opacity="0.6">
              <g id="Grupo_1033396" data-name="Grupo 1033396">
                <g id="Grupo_1033395" data-name="Grupo 1033395" clip-path="url(#clip-path-10)">
                  <rect id="Rectángulo_352573" data-name="Rectángulo 352573" width="6.055" height="96.249" transform="translate(-0.001)" fill="#3d8dc0"/>
                </g>
              </g>
            </g>
            <rect id="Rectángulo_352575" data-name="Rectángulo 352575" width="164.287" height="7.605" transform="translate(101.94 157.239)" fill="#8b8bbc"/>
            <rect id="Rectángulo_352576" data-name="Rectángulo 352576" width="83.457" height="7.605" transform="translate(26.584 193.831)" fill="#8b8bbc"/>
            <rect id="Rectángulo_352577" data-name="Rectángulo 352577" width="83.457" height="7.605" transform="translate(258.126 193.831)" fill="#8b8bbc"/>
            <rect id="Rectángulo_352578" data-name="Rectángulo 352578" width="368.167" height="6.395" transform="translate(0 305.29)" fill="#954e32"/>
          </g>
        </g>
      </g>
    </g>
  </g>
</svg>
