<svg id="Grupo_1032103" data-name="Grupo 1032103" xmlns="http://www.w3.org/2000/svg" xmlns:xlink="http://www.w3.org/1999/xlink" width="279.269" height="294.969" viewBox="0 0 279.269 294.969">
  <defs>
    <clipPath id="clip-path">
      <rect id="Rectángulo_351763" data-name="Rectángulo 351763" width="279.269" height="294.969" fill="none"/>
    </clipPath>
    <clipPath id="clip-path-5">
      <rect id="Rectángulo_351724" data-name="Rectángulo 351724" width="12.273" height="26.138" fill="none"/>
    </clipPath>
    <clipPath id="clip-path-6">
      <rect id="Rectángulo_351725" data-name="Rectángulo 351725" width="22.939" height="14.354" fill="none"/>
    </clipPath>
    <clipPath id="clip-path-8">
      <rect id="Rectángulo_351731" data-name="Rectángulo 351731" width="6.216" height="9.006" fill="none"/>
    </clipPath>
    <clipPath id="clip-path-12">
      <rect id="Rectángulo_351756" data-name="Rectángulo 351756" width="57.88" height="43.807" fill="#cc8027"/>
    </clipPath>
    <clipPath id="clip-path-13">
      <rect id="Rectángulo_351758" data-name="Rectángulo 351758" width="22.882" height="31.901" fill="none"/>
    </clipPath>
    <clipPath id="clip-path-14">
      <rect id="Rectángulo_351759" data-name="Rectángulo 351759" width="47.593" height="15.223" fill="none"/>
    </clipPath>
    <clipPath id="clip-path-15">
      <rect id="Rectángulo_351760" data-name="Rectángulo 351760" width="47.006" height="45.919" fill="none"/>
    </clipPath>
    <clipPath id="clip-path-16">
      <rect id="Rectángulo_351761" data-name="Rectángulo 351761" width="4.38" height="29.452" fill="none"/>
    </clipPath>
  </defs>
  <g id="Grupo_1032102" data-name="Grupo 1032102" clip-path="url(#clip-path)">
    <rect id="Rectángulo_351712" data-name="Rectángulo 351712" width="32.202" height="8.519" transform="translate(14.278 178.362)" fill="#ebebeb"/>
    <g id="Grupo_1032061" data-name="Grupo 1032061">
      <g id="Grupo_1032060" data-name="Grupo 1032060" clip-path="url(#clip-path)">
        <path id="Trazado_731923" data-name="Trazado 731923" d="M33.118,291.463a.879.879,0,0,1-.011-.155c0-.114-.006-.257-.011-.437q-.009-.6-.024-1.677c-.013-1.471-.032-3.585-.056-6.251l.1.1-32.2.064c.073-.073-.165.163.163-.164v2.179q0,1.083,0,2.15,0,2.133,0,4.19l-.161-.16,22.948.073,6.774.046,1.831.021.479.01a1.308,1.308,0,0,1,.17.011.822.822,0,0,1-.15.011l-.459.01-1.8.021-6.737.046-23.06.073H.755v-.161q0-2.055,0-4.19,0-1.066,0-2.15,0-.541,0-1.087v-1.092c.329-.328.093-.091.166-.164l32.2.064h.1v.1c-.024,2.691-.042,4.825-.056,6.31q-.015,1.06-.024,1.654c0,.172-.008.31-.011.42a.745.745,0,0,1-.009.135" transform="translate(-0.254 -95.609)" fill="#e0e0e0"/>
        <rect id="Rectángulo_351713" data-name="Rectángulo 351713" width="32.202" height="8.519" transform="translate(136.931)" fill="#e8e8e8"/>
        <path id="Trazado_731924" data-name="Trazado 731924" d="M218.428,21.984a1.03,1.03,0,0,1-.01-.155c0-.114-.006-.257-.011-.437q-.009-.6-.024-1.677c-.013-1.471-.032-3.585-.056-6.251l.1.1-32.2.064c.073-.073-.165.163.162-.164v2.179q0,1.083,0,2.15,0,2.133,0,4.19l-.161-.161,22.949.073,6.774.046,1.831.021.479.01a1.151,1.151,0,0,1,.169.011.789.789,0,0,1-.149.011l-.459.01-1.8.021-6.737.046-23.061.073h-.16v-.161q0-2.055,0-4.19,0-1.066,0-2.15,0-.541,0-1.087V13.465c.328-.328.093-.091.166-.164l32.2.064h.1v.1c-.024,2.691-.042,4.825-.056,6.31q-.015,1.06-.024,1.654c0,.172-.008.31-.011.42a.623.623,0,0,1-.01.135" transform="translate(-62.912 -4.492)" fill="#e0e0e0"/>
        <path id="Trazado_731925" data-name="Trazado 731925" d="M249.854,297.71a1.028,1.028,0,0,1-.01-.155c0-.114-.006-.257-.011-.437q-.009-.6-.024-1.677c-.013-1.471-.032-3.585-.056-6.251l.1.1-32.2.064c.073-.073-.165.163.162-.164v2.179q0,1.083,0,2.15,0,2.133,0,4.19l-.161-.161,22.949.073,6.774.046,1.831.021.479.01a1.268,1.268,0,0,1,.169.011.792.792,0,0,1-.149.011l-.459.01-1.8.021-6.737.046-23.06.073h-.16v-.161q0-2.055,0-4.19,0-1.066,0-2.15,0-.541,0-1.087v-1.092c.328-.328.093-.091.166-.164l32.2.064h.1v.1c-.024,2.691-.042,4.826-.056,6.31q-.015,1.06-.024,1.654c0,.172-.008.31-.011.42a.627.627,0,0,1-.01.135" transform="translate(-73.537 -97.721)" fill="#e0e0e0"/>
        <path id="Trazado_731926" data-name="Trazado 731926" d="M263.015,284.829a.993.993,0,0,1-.013-.162c0-.122-.007-.271-.013-.451q-.011-.628-.029-1.708c-.015-1.493-.037-3.6-.064-6.2l.118.118-19.347.046c-.148.146.2-.2.163-.163v2.219q0,1.1,0,2.168c0,1.425,0,2.807-.006,4.131l-.156-.156,13.841.074,4.032.043,1.087.02a3.3,3.3,0,0,1,.389.019,2.269,2.269,0,0,1-.351.019l-1.054.02-4,.043-13.946.074h-.156v-.157c0-1.324,0-2.706-.006-4.131q0-1.069,0-2.168,0-.549,0-1.1V276.31c-.036.035.311-.311.165-.165l19.347.046h.119v.118c-.026,2.624-.048,4.758-.064,6.269q-.018,1.061-.029,1.681a5.023,5.023,0,0,1-.025.569" transform="translate(-82.333 -93.359)" fill="#e0e0e0"/>
        <rect id="Rectángulo_351714" data-name="Rectángulo 351714" width="71.67" height="55.279" transform="translate(69.365 238.953)" fill="#f5f5f5"/>
        <path id="Trazado_731927" data-name="Trazado 731927" d="M131.838,415.834c.1,0,.179-12.322.179-27.518s-.08-27.52-.179-27.52-.179,12.319-.179,27.52.08,27.518.179,27.518" transform="translate(-44.517 -121.993)" fill="#ebebeb"/>
        <rect id="Rectángulo_351715" data-name="Rectángulo 351715" width="5.494" height="6.211" transform="translate(75.442 281.649)" fill="#fafafa"/>
        <rect id="Rectángulo_351716" data-name="Rectángulo 351716" width="8.141" height="11.795" transform="translate(111.029 239.095)" fill="#ebebeb"/>
        <rect id="Rectángulo_351717" data-name="Rectángulo 351717" width="8.141" height="11.795" transform="translate(111.029 282.271)" fill="#ebebeb"/>
        <rect id="Rectángulo_351718" data-name="Rectángulo 351718" width="90.479" height="69.786" transform="translate(136.825 224.21)" fill="#ebebeb"/>
        <path id="Trazado_731928" data-name="Trazado 731928" d="M309.081,407.944c-.1,0-.179-15.555-.179-34.739s.08-34.743.179-34.743.179,15.552.179,34.743-.08,34.739-.179,34.739" transform="translate(-104.447 -114.441)" fill="#e0e0e0"/>
        <rect id="Rectángulo_351719" data-name="Rectángulo 351719" width="6.936" height="7.841" transform="translate(212.696 278.111)" fill="#fafafa"/>
        <rect id="Rectángulo_351720" data-name="Rectángulo 351720" width="10.278" height="14.891" transform="translate(164.427 224.389)" fill="#e0e0e0"/>
        <rect id="Rectángulo_351721" data-name="Rectángulo 351721" width="10.278" height="14.891" transform="translate(164.427 278.897)" fill="#e0e0e0"/>
      </g>
    </g>
    <g id="Grupo_1032063" data-name="Grupo 1032063">
      <g id="Grupo_1032062" data-name="Grupo 1032062" clip-path="url(#clip-path)">
        <path id="Trazado_731929" data-name="Trazado 731929" d="M279.269,445.307c0,.1-62.522.172-139.628.172C62.508,445.479,0,445.4,0,445.307s62.508-.172,139.641-.172c77.106,0,139.628.077,139.628.172" transform="translate(0 -150.51)" fill="#263238"/>
      </g>
    </g>
    <g id="Grupo_1032071" data-name="Grupo 1032071">
      <g id="Grupo_1032070" data-name="Grupo 1032070" clip-path="url(#clip-path)">
        <path id="Trazado_731930" data-name="Trazado 731930" d="M51.466,387.184s-2.873-19.747-2.633-31.236-.014-24.415-.014-24.415h1.323s-.9,22.805.079,36.559,3.543,19.092,3.543,19.092Z" transform="translate(-16.507 -112.099)" fill="#263238"/>
        <path id="Trazado_731931" data-name="Trazado 731931" d="M58.978,296.9a3.488,3.488,0,0,0-1.206-1.766,3.359,3.359,0,0,0-2.878.021c-4,1.414-7.544,8.87-9.16,12.792l5.31,17.889c9.583-8.89,11.242-20.553,7.935-28.937" transform="translate(-15.464 -99.683)" fill="#455a64"/>
        <path id="Trazado_731932" data-name="Trazado 731932" d="M60.173,296.391a1.051,1.051,0,0,1-.077.234l-.259.651c-.233.563-.559,1.382-.95,2.4-.782,2.031-1.778,4.871-2.668,8.071s-1.5,6.149-1.874,8.293c-.189,1.072-.332,1.941-.422,2.544-.046.281-.083.51-.113.692a1.055,1.055,0,0,1-.054.24.981.981,0,0,1,.011-.245c.019-.183.043-.415.072-.7.065-.606.184-1.481.354-2.558a76.082,76.082,0,0,1,4.552-16.4c.409-1.011.758-1.822,1.015-2.375.12-.258.219-.469.3-.635a1.053,1.053,0,0,1,.117-.216" transform="translate(-18.174 -100.216)" fill="#263238"/>
        <path id="Trazado_731933" data-name="Trazado 731933" d="M46,334.811a16.2,16.2,0,0,1-8.183-13.6c-.191-3.97,1.028-7.866,2.41-11.592a1.5,1.5,0,0,1,.563-.841,1.428,1.428,0,0,1,1.356.211c3.616,2.059,5.807,5.985,6.974,9.98a20.144,20.144,0,0,1,.818,8.207A13.633,13.633,0,0,1,46,334.811" transform="translate(-12.78 -104.369)" fill="#455a64"/>
        <path id="Trazado_731934" data-name="Trazado 731934" d="M48.388,336.3a1.017,1.017,0,0,1-.019-.24c0-.181-.008-.408-.013-.687,0-.6-.026-1.458-.075-2.522a68.991,68.991,0,0,0-.924-8.264c-.552-3.2-1.222-6.073-1.715-8.147-.244-1.015-.443-1.847-.589-2.456l-.154-.67a1.015,1.015,0,0,1-.039-.238,1.015,1.015,0,0,1,.082.226c.05.174.115.392.193.659.163.574.39,1.407.657,2.44.533,2.066,1.228,4.935,1.781,8.148a60.435,60.435,0,0,1,.863,8.3c.029,1.067.03,1.932,0,2.528-.011.279-.021.506-.028.687a.961.961,0,0,1-.024.239" transform="translate(-15.168 -105.859)" fill="#263238"/>
        <g id="Grupo_1032066" data-name="Grupo 1032066" transform="translate(25.017 204.304)" opacity="0.3">
          <g id="Grupo_1032065" data-name="Grupo 1032065">
            <g id="Grupo_1032064" data-name="Grupo 1032064" clip-path="url(#clip-path-5)">
              <path id="Trazado_731935" data-name="Trazado 731935" d="M46,334.811a16.2,16.2,0,0,1-8.183-13.6c-.191-3.97,1.028-7.866,2.41-11.592a1.5,1.5,0,0,1,.563-.841,1.428,1.428,0,0,1,1.356.211c3.616,2.059,5.807,5.985,6.974,9.98a20.144,20.144,0,0,1,.818,8.207A13.633,13.633,0,0,1,46,334.811" transform="translate(-37.798 -308.673)"/>
            </g>
          </g>
        </g>
        <path id="Trazado_731936" data-name="Trazado 731936" d="M58.674,393.6c4.9,1.076,8.93,4.531,13.655,6.21,3.126,1.111,6.662,1.5,9.158,3.691a7.756,7.756,0,0,0-3.4-3.381,60.96,60.96,0,0,0-12.378-5.909c-2.223-.767-4.635-1.408-6.9-.776" transform="translate(-19.839 -132.941)" fill="#455a64"/>
        <path id="Trazado_731937" data-name="Trazado 731937" d="M38.423,397.1c-6.134-.1-12.592-5.321-18.7-5.633,6.389-2.063,15.538-.378,18.7,5.633" transform="translate(-6.67 -132.08)" fill="#455a64"/>
        <path id="Trazado_731938" data-name="Trazado 731938" d="M51.6,374.358a19.963,19.963,0,0,1,9.806-.667,59.61,59.61,0,0,1,9.573,2.6c-.314-2.128-2.038-3.728-3.658-5.145a25.486,25.486,0,0,0-3.844-2.955,8.564,8.564,0,0,0-4.611-1.3,7.288,7.288,0,0,0-5.088,2.564,8.452,8.452,0,0,0-2.18,4.9" transform="translate(-17.446 -124.053)" fill="#455a64"/>
        <path id="Trazado_731939" data-name="Trazado 731939" d="M25.023,366.449c-3.861-3.3-9.71-2.974-14.785-2.86a120.412,120.412,0,0,1,22.929,14.289c.207-3.588-3.267-7.265-8.144-11.429" transform="translate(-3.462 -122.915)" fill="#455a64"/>
        <g id="Grupo_1032069" data-name="Grupo 1032069" transform="translate(6.776 240.608)" opacity="0.3">
          <g id="Grupo_1032068" data-name="Grupo 1032068">
            <g id="Grupo_1032067" data-name="Grupo 1032067" clip-path="url(#clip-path-6)">
              <path id="Trazado_731940" data-name="Trazado 731940" d="M25.023,366.449c-3.861-3.3-9.71-2.974-14.785-2.86a120.412,120.412,0,0,1,22.929,14.289c.207-3.588-3.267-7.265-8.144-11.429" transform="translate(-10.238 -363.523)"/>
            </g>
          </g>
        </g>
        <path id="Trazado_731941" data-name="Trazado 731941" d="M54.208,352.965a42.956,42.956,0,0,1,5.938-3.452c2.033-.923,3.929-2.394,5.891-3.457a64.216,64.216,0,0,0,7.087-5,18.4,18.4,0,0,1,7.761-3.7,15.263,15.263,0,0,0-7.063.408,45.529,45.529,0,0,0-6.648,2.587,32.421,32.421,0,0,0-8.538,4.95c-2.462,2.2-4.687,4.376-4.427,7.67" transform="translate(-18.322 -113.982)" fill="#455a64"/>
        <path id="Trazado_731942" data-name="Trazado 731942" d="M69.628,398.042a.756.756,0,0,1-.194-.084l-.535-.277c-.462-.246-1.125-.61-1.96-1.03-.413-.218-.871-.445-1.368-.679s-1.027-.485-1.593-.73a23.329,23.329,0,0,0-3.777-1.316,8.1,8.1,0,0,0-3.934-.1,11.2,11.2,0,0,0-1.667.5,8.516,8.516,0,0,0-1.346.691,8.617,8.617,0,0,0-1.691,1.4c-.355.381-.528.614-.544.6a.783.783,0,0,1,.111-.181,5.532,5.532,0,0,1,.37-.478,7.9,7.9,0,0,1,1.671-1.471,8.377,8.377,0,0,1,1.36-.729,11.117,11.117,0,0,1,1.69-.526,8.189,8.189,0,0,1,4.032.082,22.4,22.4,0,0,1,3.807,1.345c.567.251,1.1.5,1.592.752s.951.478,1.361.7c.828.439,1.481.824,1.93,1.093l.516.314a.76.76,0,0,1,.172.122" transform="translate(-17.25 -133.022)" fill="#263238"/>
        <path id="Trazado_731943" data-name="Trazado 731943" d="M41.062,395.812a1.413,1.413,0,0,1,.384.113,8.459,8.459,0,0,1,1,.434,12.138,12.138,0,0,1,5.125,4.924,8.492,8.492,0,0,1,.474.981,1.382,1.382,0,0,1,.128.38c-.035.015-.264-.5-.735-1.283a13.575,13.575,0,0,0-5.063-4.864c-.8-.44-1.325-.648-1.311-.684" transform="translate(-13.884 -133.832)" fill="#263238"/>
        <path id="Trazado_731944" data-name="Trazado 731944" d="M20.558,367.477a1.261,1.261,0,0,1,.261.077l.736.261,1.161.428c.452.168.944.416,1.5.661a35.436,35.436,0,0,1,7.986,5.088,38.983,38.983,0,0,1,3.724,3.667,40.92,40.92,0,0,1,2.643,3.349c.7.991,1.232,1.818,1.6,2.39l.42.657a1.319,1.319,0,0,1,.136.238,1.344,1.344,0,0,1-.172-.212c-.107-.143-.263-.357-.454-.636-.387-.558-.936-1.369-1.65-2.347s-1.611-2.106-2.668-3.3a40.806,40.806,0,0,0-3.715-3.634,37.35,37.35,0,0,0-7.909-5.114c-.549-.253-1.035-.51-1.481-.688l-1.144-.461-.72-.3a1.288,1.288,0,0,1-.247-.118" transform="translate(-6.951 -124.252)" fill="#263238"/>
        <path id="Trazado_731945" data-name="Trazado 731945" d="M60.383,372.741a2.164,2.164,0,0,1-.489-.063l-.563-.1c-.219-.042-.475-.044-.754-.072a7.715,7.715,0,0,0-4.216.831,7.629,7.629,0,0,0-1.918,1.424,8.685,8.685,0,0,0-1.233,1.524,12.606,12.606,0,0,0-.843,1.61,1.786,1.786,0,0,1,.125-.479,6.791,6.791,0,0,1,.587-1.213,8.135,8.135,0,0,1,1.221-1.585,7.466,7.466,0,0,1,6.291-2.268c.282.039.541.051.761.106l.562.141a2.124,2.124,0,0,1,.47.146" transform="translate(-17.029 -125.883)" fill="#263238"/>
        <path id="Trazado_731946" data-name="Trazado 731946" d="M66.406,344.072a1.311,1.311,0,0,1-.232.143l-.684.372c-.6.32-1.451.794-2.491,1.406s-2.256,1.384-3.554,2.312a29.688,29.688,0,0,0-3.967,3.324,10.1,10.1,0,0,0-1.623,2.1c-.4.772-.786,1.517-1.139,2.233a40.627,40.627,0,0,0-1.7,3.879,23.653,23.653,0,0,0-.829,2.732c-.157.657-.214,1.027-.235,1.023a1.3,1.3,0,0,1,.024-.271c.022-.177.06-.438.127-.77a20.335,20.335,0,0,1,.767-2.767,37.287,37.287,0,0,1,1.669-3.916c.349-.721.73-1.469,1.13-2.243a10.172,10.172,0,0,1,1.655-2.154,28.758,28.758,0,0,1,4.008-3.336c1.311-.923,2.544-1.675,3.592-2.282s1.923-1.051,2.53-1.349l.7-.336a1.3,1.3,0,0,1,.252-.1" transform="translate(-16.887 -116.338)" fill="#263238"/>
        <path id="Trazado_731947" data-name="Trazado 731947" d="M46.736,365.614a2.459,2.459,0,0,1-.122-.517l-.268-1.417a36.3,36.3,0,0,0-2.912-9.015l-.6-1.313a2.454,2.454,0,0,1-.2-.494,2.541,2.541,0,0,1,.273.456c.163.3.391.737.661,1.285a30.264,30.264,0,0,1,2.924,9.054c.1.6.165,1.092.2,1.432a2.456,2.456,0,0,1,.038.53" transform="translate(-14.417 -119.309)" fill="#263238"/>
        <path id="Trazado_731948" data-name="Trazado 731948" d="M39.571,342.019a16.655,16.655,0,0,0-1.995-6.622A21.864,21.864,0,0,0,22.76,324.348l13.716,20.445,1.772,3.649a10.494,10.494,0,0,0,1.323-6.423" transform="translate(-7.696 -109.669)" fill="#455a64"/>
        <rect id="Rectángulo_351726" data-name="Rectángulo 351726" width="31.897" height="5.653" transform="translate(19.655 272.643)" fill="#ffa031"/>
        <path id="Trazado_731949" data-name="Trazado 731949" d="M33.295,418.77l2.716,17.542H57.187l3.241-17.542Z" transform="translate(-11.258 -141.595)" fill="#ffa031"/>
        <path id="Trazado_731950" data-name="Trazado 731950" d="M61.442,420.418c0,.062-7.195.112-16.068.112s-16.07-.05-16.07-.112,7.193-.112,16.07-.112,16.068.05,16.068.112" transform="translate(-9.909 -142.115)" fill="#263238"/>
      </g>
    </g>
    <rect id="Rectángulo_351728" data-name="Rectángulo 351728" width="54.721" height="42.207" transform="translate(128.39 252.459)" fill="#ffa031"/>
    <rect id="Rectángulo_351729" data-name="Rectángulo 351729" width="4.195" height="4.742" transform="translate(133.03 285.059)" fill="#fafafa"/>
    <g id="Grupo_1032079" data-name="Grupo 1032079">
      <g id="Grupo_1032078" data-name="Grupo 1032078" clip-path="url(#clip-path)">
        <g id="Grupo_1032074" data-name="Grupo 1032074" transform="translate(160.202 252.569)" opacity="0.3">
          <g id="Grupo_1032073" data-name="Grupo 1032073">
            <g id="Grupo_1032072" data-name="Grupo 1032072" clip-path="url(#clip-path-8)">
              <rect id="Rectángulo_351730" data-name="Rectángulo 351730" width="6.216" height="9.006" fill="#fff"/>
            </g>
          </g>
        </g>
        <g id="Grupo_1032077" data-name="Grupo 1032077" transform="translate(160.202 285.534)" opacity="0.3">
          <g id="Grupo_1032076" data-name="Grupo 1032076">
            <g id="Grupo_1032075" data-name="Grupo 1032075" clip-path="url(#clip-path-8)">
              <rect id="Rectángulo_351732" data-name="Rectángulo 351732" width="6.216" height="9.006" transform="translate(0 0)" fill="#fff"/>
            </g>
          </g>
        </g>
        <path id="Trazado_731951" data-name="Trazado 731951" d="M214.461,424.453c-.165,0-.3-9.283-.3-20.731s.134-20.733.3-20.733.3,9.281.3,20.733-.134,20.731-.3,20.731" transform="translate(-72.413 -129.497)" fill="#263238"/>
      </g>
    </g>
    <rect id="Rectángulo_351735" data-name="Rectángulo 351735" width="3.257" height="125.633" transform="translate(31.413 32.782)" fill="#263238"/>
    <rect id="Rectángulo_351736" data-name="Rectángulo 351736" width="2.757" height="125.633" transform="translate(37.306 32.782)" fill="#263238"/>
    <rect id="Rectángulo_351737" data-name="Rectángulo 351737" width="10.124" height="103.849" transform="translate(43.258 32.783)" fill="#263238"/>
    <rect id="Rectángulo_351738" data-name="Rectángulo 351738" width="2.498" height="103.849" transform="translate(55.955 32.783)" fill="#263238"/>
    <rect id="Rectángulo_351739" data-name="Rectángulo 351739" width="2.498" height="103.849" transform="translate(64.154 32.783)" fill="#263238"/>
    <rect id="Rectángulo_351740" data-name="Rectángulo 351740" width="2.498" height="103.849" transform="translate(74.851 32.783)" fill="#263238"/>
    <rect id="Rectángulo_351741" data-name="Rectángulo 351741" width="2.498" height="103.849" transform="translate(83.757 32.783)" fill="#263238"/>
    <rect id="Rectángulo_351742" data-name="Rectángulo 351742" width="2.498" height="103.849" transform="translate(112.831 32.783)" fill="#263238"/>
    <rect id="Rectángulo_351743" data-name="Rectángulo 351743" width="5.39" height="121.868" transform="translate(155.601 32.782)" fill="#263238"/>
    <rect id="Rectángulo_351744" data-name="Rectángulo 351744" width="2.498" height="103.849" transform="translate(184.691 32.783)" fill="#263238"/>
    <rect id="Rectángulo_351745" data-name="Rectángulo 351745" width="2.498" height="103.849" transform="translate(195.574 32.783)" fill="#263238"/>
    <rect id="Rectángulo_351746" data-name="Rectángulo 351746" width="6.114" height="127.823" transform="translate(203.863 32.616)" fill="#263238"/>
    <rect id="Rectángulo_351747" data-name="Rectángulo 351747" width="2.498" height="103.849" transform="translate(136.857 32.783)" fill="#263238"/>
    <rect id="Rectángulo_351748" data-name="Rectángulo 351748" width="5.116" height="103.849" transform="translate(99.346 32.783)" fill="#263238"/>
    <rect id="Rectángulo_351749" data-name="Rectángulo 351749" width="5.116" height="103.849" transform="translate(120.546 32.783)" fill="#263238"/>
    <rect id="Rectángulo_351750" data-name="Rectángulo 351750" width="5.116" height="103.849" transform="translate(128.621 32.783)" fill="#263238"/>
    <rect id="Rectángulo_351751" data-name="Rectángulo 351751" width="5.116" height="103.849" transform="translate(166.821 32.783)" fill="#263238"/>
    <rect id="Rectángulo_351752" data-name="Rectángulo 351752" width="5.115" height="103.849" transform="translate(174.558 32.783)" fill="#263238"/>
    <rect id="Rectángulo_351753" data-name="Rectángulo 351753" width="9.614" height="103.849" transform="translate(142.553 32.783)" fill="#263238"/>
    <rect id="Rectángulo_351754" data-name="Rectángulo 351754" width="7.884" height="103.849" transform="translate(88.713 32.783)" fill="#263238"/>
    <path id="Trazado_731952" data-name="Trazado 731952" d="M78.283,215.012v22.255H75.994v-20.22H70.748v-2.035Z" transform="translate(-23.921 -72.7)" fill="#263238"/>
    <g id="Grupo_1032081" data-name="Grupo 1032081">
      <g id="Grupo_1032080" data-name="Grupo 1032080" clip-path="url(#clip-path)">
        <path id="Trazado_731953" data-name="Trazado 731953" d="M106.064,227.6a5.2,5.2,0,0,1,1.129,3.37,5.616,5.616,0,0,1-1.049,3.385,6.616,6.616,0,0,1-3,2.225,12.368,12.368,0,0,1-4.594.779,10.274,10.274,0,0,1-6.294-1.717,5.53,5.53,0,0,1-2.289-4.673,5.281,5.281,0,0,1,1.1-3.387,6.61,6.61,0,0,1,3.195-2.082,5.553,5.553,0,0,1-2.607-1.923,5.006,5.006,0,0,1-.89-2.973,5.091,5.091,0,0,1,2.114-4.292,9.225,9.225,0,0,1,5.675-1.59,10.919,10.919,0,0,1,4.118.715,6.228,6.228,0,0,1,2.75,2.05,5.107,5.107,0,0,1,.986,3.115,4.889,4.889,0,0,1-.922,2.973,5.762,5.762,0,0,1-2.639,1.923,6.762,6.762,0,0,1,3.227,2.1m-2.893,6.613a3.834,3.834,0,0,0,1.669-3.275,3.793,3.793,0,0,0-1.669-3.258,9.5,9.5,0,0,0-9.219,0,3.793,3.793,0,0,0-1.669,3.258,3.832,3.832,0,0,0,1.653,3.29,9.483,9.483,0,0,0,9.236-.015m-8.663-10.619a6.662,6.662,0,0,0,4.037,1.082,6.739,6.739,0,0,0,4.054-1.082,3.4,3.4,0,0,0,1.478-2.892,3.445,3.445,0,0,0-1.51-2.957,6.778,6.778,0,0,0-4.022-1.081,6.685,6.685,0,0,0-4.022,1.081,3.645,3.645,0,0,0-.016,5.85" transform="translate(-30.418 -72.603)" fill="#263238"/>
        <path id="Trazado_731954" data-name="Trazado 731954" d="M134.159,217.633q2.352,2.909,2.353,8.219a14.121,14.121,0,0,1-1.272,6.3,8.9,8.9,0,0,1-3.561,3.894,10.5,10.5,0,0,1-5.341,1.319,10.028,10.028,0,0,1-5.278-1.208l.922-1.845a7.766,7.766,0,0,0,4.324,1.049,7.38,7.38,0,0,0,5.786-2.336q2.1-2.336,2.1-6.788,0-.826-.1-1.812a6,6,0,0,1-2.639,2.814,8.466,8.466,0,0,1-4.165,1,8.793,8.793,0,0,1-3.894-.827,6.329,6.329,0,0,1-2.655-2.337,6.435,6.435,0,0,1-.954-3.513,6.571,6.571,0,0,1,.986-3.593,6.5,6.5,0,0,1,2.718-2.4,8.794,8.794,0,0,1,3.894-.843,8.2,8.2,0,0,1,6.772,2.909m-3.545,8.028a5,5,0,0,0,2.019-1.749,4.413,4.413,0,0,0,.731-2.479,4.321,4.321,0,0,0-.683-2.352,4.911,4.911,0,0,0-2.019-1.749,7.029,7.029,0,0,0-3.179-.668,5.752,5.752,0,0,0-3.926,1.319,4.433,4.433,0,0,0-1.51,3.513,4.384,4.384,0,0,0,1.51,3.5,6.034,6.034,0,0,0,4.085,1.3,6.626,6.626,0,0,0,2.973-.635" transform="translate(-40.503 -72.603)" fill="#263238"/>
        <path id="Trazado_731955" data-name="Trazado 731955" d="M155.423,215.012v22.255h-2.289v-20.22h-5.246v-2.035Z" transform="translate(-50.004 -72.7)" fill="#263238"/>
        <path id="Trazado_731956" data-name="Trazado 731956" d="M179.7,225.869a5.811,5.811,0,0,1,2.209,4.848,6.664,6.664,0,0,1-.905,3.466,6.17,6.17,0,0,1-2.718,2.4,10.19,10.19,0,0,1-4.451.874,13.166,13.166,0,0,1-4.531-.779,9.264,9.264,0,0,1-3.45-2.082l1.113-1.812a8.209,8.209,0,0,0,2.925,1.86,10.548,10.548,0,0,0,3.91.715,6.572,6.572,0,0,0,4.276-1.24,4.062,4.062,0,0,0,1.51-3.307,3.943,3.943,0,0,0-1.7-3.466q-1.7-1.175-5.738-1.176H167.41l1.144-11.159h12.177v2.035H170.557l-.762,7.09h2.861q4.832,0,7.042,1.733" transform="translate(-56.078 -72.7)" fill="#263238"/>
        <path id="Trazado_731957" data-name="Trazado 731957" d="M198.756,235.993a8.95,8.95,0,0,1-3.147-3.926,16.637,16.637,0,0,1,0-12.049,8.961,8.961,0,0,1,3.147-3.927,8.4,8.4,0,0,1,9.188,0,9.067,9.067,0,0,1,3.164,3.927,16.431,16.431,0,0,1,0,12.049,9.056,9.056,0,0,1-3.164,3.926,8.4,8.4,0,0,1-9.188,0m8.012-1.812a6.983,6.983,0,0,0,2.3-3.147,15.481,15.481,0,0,0,0-9.982,6.989,6.989,0,0,0-2.3-3.148,5.944,5.944,0,0,0-6.835,0,6.991,6.991,0,0,0-2.305,3.148,15.493,15.493,0,0,0,0,9.982,6.985,6.985,0,0,0,2.305,3.147,5.94,5.94,0,0,0,6.835,0" transform="translate(-65.758 -72.603)" fill="#263238"/>
        <path id="Trazado_731958" data-name="Trazado 731958" d="M267.552,214.655V216.2L258.7,235.808h-2.358l8.7-19.22H254.165v3.959h-2.146v-5.893Z" transform="translate(-85.213 -72.579)" fill="#263238"/>
        <path id="Trazado_731959" data-name="Trazado 731959" d="M293.744,233.782v1.934H278.906v-1.541l8.794-8.613a11.38,11.38,0,0,0,2.251-2.826,5.375,5.375,0,0,0,.589-2.4,3.545,3.545,0,0,0-1.284-2.917,5.694,5.694,0,0,0-3.671-1.042,7.248,7.248,0,0,0-5.772,2.358l-1.541-1.33a8.12,8.12,0,0,1,3.158-2.236,11.356,11.356,0,0,1,4.336-.786,7.923,7.923,0,0,1,5.122,1.526,5.09,5.09,0,0,1,1.889,4.186,7.171,7.171,0,0,1-.725,3.143,13.17,13.17,0,0,1-2.749,3.476l-7.193,7.072Z" transform="translate(-94.09 -72.487)" fill="#263238"/>
      </g>
    </g>
    <path id="Trazado_731960" data-name="Trazado 731960" d="M237.327,137.708l-13.216,14.929L242.1,159.49l13.338-16.275Z" transform="translate(-75.777 -46.562)" fill="#ffdeb7"/>
    <g id="Grupo_1032101" data-name="Grupo 1032101">
      <g id="Grupo_1032100" data-name="Grupo 1032100" clip-path="url(#clip-path)">
        <path id="Trazado_731961" data-name="Trazado 731961" d="M264.626,146.028s38.179,39.647,37.811,39.891-11.257,13.338-11.257,13.338L251.288,162.3Z" transform="translate(-84.966 -49.375)" fill="#ffa031"/>
        <path id="Trazado_731962" data-name="Trazado 731962" d="M224.111,160.264l38.056,36.587,19.823,7.22L242.1,167.116Z" transform="translate(-75.777 -54.189)" fill="#ff725e"/>
        <g id="Grupo_1032084" data-name="Grupo 1032084" transform="translate(148.334 106.075)" opacity="0.3">
          <g id="Grupo_1032083" data-name="Grupo 1032083">
            <g id="Grupo_1032082" data-name="Grupo 1032082" clip-path="url(#clip-path-12)">
              <path id="Trazado_731963" data-name="Trazado 731963" d="M224.111,160.264l38.056,36.587,19.823,7.22L242.1,167.116Z" transform="translate(-224.111 -160.264)" fill="#cc8027"/>
            </g>
          </g>
        </g>
        <path id="Trazado_731965" data-name="Trazado 731965" d="M291.738,175.5s4.354.164,4.846.657,4.354,8.3,4.354,8.3l1.315.822.373,11.609L291.049,197.9l-3.9,2.323-3.848-.347a1.351,1.351,0,0,1-1.275-1.183l-.309-2.491s1.586-.375,1.982.764l.145.537,2.133.156,2.278-1.684.148-.892-7.428.5L277.9,193.4s1.312-1.645,2.632-.962a7.948,7.948,0,0,1,1.014.493l6.209-1.462-11.98.116a2.3,2.3,0,0,1,2.372-2.538c1.834-.056,6.488-.549,6.488-.549s3.566-.3,3.714-1.485-10.054-3.913-10.549-5.2.1-2.575,2.476-1.832,9.211,3.665,11.143,3.516,3.665-1.882,3.763-2.625a10.981,10.981,0,0,0-.99-3.12s-2.642-.19-2.46-2.249" transform="translate(-93.246 -59.339)" fill="#ffc09d"/>
        <path id="Trazado_731966" data-name="Trazado 731966" d="M249.5,140.174c-.174-.053-5.253,5.728-5.253,5.728l3.9,1.194,5.5-5.662Z" transform="translate(-82.587 -47.396)" fill="#fff"/>
        <path id="Trazado_731967" data-name="Trazado 731967" d="M234.365,156.309c-.071-.064,2.982-3.56,6.817-7.809s7-7.642,7.074-7.578-2.982,3.56-6.818,7.809-7,7.641-7.073,7.578" transform="translate(-79.244 -47.649)" fill="#263238"/>
        <path id="Trazado_731968" data-name="Trazado 731968" d="M274,201.61c-.064.07-8.988-7.995-19.93-18.011s-19.764-18.2-19.7-18.268,8.987,7.993,19.932,18.013,19.762,18.2,19.7,18.266" transform="translate(-79.244 -55.902)" fill="#263238"/>
        <path id="Trazado_731969" data-name="Trazado 731969" d="M321.6,140.972l1.714,1.959c.124,9.681,9.986,23.178,9.986,23.178l5.188-21.958-1.886-8.382-5.658-.654-2.227-2.971Z" transform="translate(-108.741 -44.681)" fill="#636363"/>
        <path id="Trazado_731970" data-name="Trazado 731970" d="M304.14,113.576c-2.046.61-5.061,3.733-7.676,6.645-1.256,1.4-.568,3.841.76,5.171l1.7,1.7a3.537,3.537,0,0,0,4.716.259l1.182-.948a3.538,3.538,0,0,1,4.885.439l4.918,5.662a3.538,3.538,0,0,0,5.2.152l.023-.023a3.537,3.537,0,0,0,.214-4.7l-10.979-13.5a3.432,3.432,0,0,0-1.049-.874c-.8-.424-1.978-.546-3.892.025" transform="translate(-100.017 -38.272)" fill="#ffa031"/>
        <path id="Trazado_731971" data-name="Trazado 731971" d="M307.832,132.992a10.151,10.151,0,0,0,1.744,1.153s-.971,1.366-.037,2.3a4.15,4.15,0,0,0,2.244,1.076,2.264,2.264,0,0,0,1.818,2.37c1.984.467,7.514-.343,7.708-.849s.674-1.881-.609-2.192a15.215,15.215,0,0,0-3.014-.3s2.618-.974,1.066-3.074c-.712-.964-3.906-.01-3.906-.01l-2.391.272s2.187-1.541.482-3.094a1.307,1.307,0,0,0-2,0Z" transform="translate(-104.085 -44.015)" fill="#ffc09d"/>
        <path id="Trazado_731972" data-name="Trazado 731972" d="M321.675,125.486s-1.933-.248-1.487-1.438a14.4,14.4,0,0,1,2.578-3.768,2,2,0,0,1,2.082-.694,6.2,6.2,0,0,1,2.974,3.57c.348,1.785.694,3.867.4,4.71a8.523,8.523,0,0,1-.586,1.338l-3.407-4.19a5.8,5.8,0,0,1-2.552.473" transform="translate(-108.24 -40.403)" fill="#ffc09d"/>
        <path id="Trazado_731973" data-name="Trazado 731973" d="M306.489,128.022a4.881,4.881,0,0,1,.291-1.044l-.005.03a2.149,2.149,0,0,0-.332-1.065,9.538,9.538,0,0,0-1.035-1.1L302.7,122.1a2.7,2.7,0,0,0-2.623-.567,3.188,3.188,0,0,0-1.077.618l-.889.7-1.271,1.038c-.3.247-.455.384-.467.38a7.4,7.4,0,0,1,1.582-1.605c.261-.23.551-.479.868-.739a3.411,3.411,0,0,1,1.155-.7,2.987,2.987,0,0,1,2.954.613c1.011,1.015,1.906,1.966,2.691,2.79a8.552,8.552,0,0,1,1.03,1.185,2.227,2.227,0,0,1,.3,1.191v.019l0,.012a4.881,4.881,0,0,1-.454.984" transform="translate(-100.208 -40.937)" fill="#263238"/>
        <path id="Trazado_731974" data-name="Trazado 731974" d="M316.407,124.989a11.2,11.2,0,0,1-3.611,3.46,50.619,50.619,0,0,1,3.611-3.46" transform="translate(-105.762 -42.26)" fill="#263238"/>
        <path id="Trazado_731975" data-name="Trazado 731975" d="M314.22,135.341a10.714,10.714,0,0,1-3.781.593,10.72,10.72,0,0,1,3.781-.593" transform="translate(-104.966 -45.746)" fill="#ff9b6c"/>
        <path id="Trazado_731976" data-name="Trazado 731976" d="M320.277,139.551a12.512,12.512,0,0,1-6.512,1.246c0-.1,1.485-.175,3.276-.523s3.2-.819,3.237-.723" transform="translate(-106.091 -47.181)" fill="#ff9b6c"/>
        <path id="Trazado_731977" data-name="Trazado 731977" d="M327.641,123.765a2.592,2.592,0,0,1-1.923,2.82c-.044-.092.679-.451,1.207-1.243a10.863,10.863,0,0,0,.716-1.577" transform="translate(-110.132 -41.847)" fill="#ff9b6c"/>
        <path id="Trazado_731978" data-name="Trazado 731978" d="M298.22,126.731s2.51,3.528,3.635,3.6c.79.048,1.986-1.358,2.628-2.2a.851.851,0,0,0-.089-1.128l-2.718-2.636-.634-.169Z" transform="translate(-100.835 -41.993)" fill="#263238"/>
        <g id="Grupo_1032090" data-name="Grupo 1032090" transform="translate(180.938 82.202)" opacity="0.6">
          <g id="Grupo_1032089" data-name="Grupo 1032089">
            <g id="Grupo_1032088" data-name="Grupo 1032088" clip-path="url(#clip-path-13)">
              <path id="Trazado_731979" data-name="Trazado 731979" d="M289.947,126.626,273.37,139.974,288.837,156.1l7.342-28.136a.849.849,0,0,0-.108-.882l-2.8-2.714-.635-.169Z" transform="translate(-273.37 -124.195)" fill="#fff"/>
            </g>
          </g>
        </g>
        <path id="Trazado_731980" data-name="Trazado 731980" d="M377.821,52.5l-1.832,30.761c-.311,5.231-1.838,12.852-10.086,11.982-7.1-1.295-8.51-8.2-8.215-13.086.141-2.315.253-4.247.252-4.486,0,0-7.787-1.2-7.891-8.987-.05-3.762.477-11.519,1.036-18.53A14.5,14.5,0,0,1,365.53,36.814h.751c8.1.465,12.229,7.6,11.54,15.687" transform="translate(-118.358 -12.447)" fill="#ffc09d"/>
        <path id="Trazado_731981" data-name="Trazado 731981" d="M361.921,97.008A18.81,18.81,0,0,0,372.053,94S369.586,99.69,361.818,99Z" transform="translate(-122.339 -31.784)" fill="#ff9b6c"/>
        <path id="Trazado_731982" data-name="Trazado 731982" d="M371.246,62.586c.142.167,1.087-.487,2.387-.428,1.3.039,2.221.764,2.369.607.072-.069-.068-.367-.469-.694a3.25,3.25,0,0,0-1.888-.685,3.137,3.137,0,0,0-1.908.542c-.414.3-.562.583-.491.659" transform="translate(-125.521 -20.755)" fill="#263238"/>
        <path id="Trazado_731983" data-name="Trazado 731983" d="M370.477,68.407a1.051,1.051,0,0,0,1.015,1.06,1.006,1.006,0,0,0,1.083-.949,1.052,1.052,0,0,0-1.014-1.06,1.007,1.007,0,0,0-1.084.95" transform="translate(-125.266 -22.808)" fill="#263238"/>
        <path id="Trazado_731984" data-name="Trazado 731984" d="M363.811,71.377a7.893,7.893,0,0,0-1.943-.349c-.305-.031-.594-.091-.646-.3a1.549,1.549,0,0,1,.2-.905l.9-2.327a40.012,40.012,0,0,0,2.023-6.086,39.972,39.972,0,0,0-2.508,5.909q-.452,1.225-.863,2.34a1.771,1.771,0,0,0-.158,1.2.77.77,0,0,0,.5.446,2.086,2.086,0,0,0,.519.071,7.757,7.757,0,0,0,1.969,0" transform="translate(-121.982 -20.764)" fill="#263238"/>
        <path id="Trazado_731985" data-name="Trazado 731985" d="M371.224,56.466c.133.285,1.168.039,2.415.069,1.248,0,2.278.276,2.415-.005.06-.134-.142-.394-.571-.639a3.936,3.936,0,0,0-1.838-.463,3.892,3.892,0,0,0-1.842.414c-.433.234-.637.488-.578.624" transform="translate(-125.516 -18.741)" fill="#e0e0e0"/>
        <path id="Trazado_731986" data-name="Trazado 731986" d="M353.417,57.3c.119.244,1.149.057,2.378.107,1.23.028,2.234.281,2.382.045.065-.113-.122-.338-.536-.554a4.287,4.287,0,0,0-1.791-.43,4.433,4.433,0,0,0-1.835.314c-.438.19-.65.4-.6.518" transform="translate(-119.495 -19.092)" fill="#e0e0e0"/>
        <path id="Trazado_731987" data-name="Trazado 731987" d="M390.907,69.1c.133-.058,5.347-1.587,5.183,3.735s-5.474,4.059-5.478,3.906.3-7.641.3-7.641" transform="translate(-132.074 -23.28)" fill="#ffc09d"/>
        <path id="Trazado_731988" data-name="Trazado 731988" d="M393.158,75.662c.024-.017.091.068.245.144a.928.928,0,0,0,.693.036,2.3,2.3,0,0,0,1.125-2.025A3.066,3.066,0,0,0,395,72.481a1.072,1.072,0,0,0-.676-.733.471.471,0,0,0-.555.237c-.076.147-.046.254-.074.262s-.111-.093-.062-.311a.59.59,0,0,1,.22-.327.7.7,0,0,1,.517-.12,1.3,1.3,0,0,1,.943.855,3.148,3.148,0,0,1,.276,1.494,2.409,2.409,0,0,1-1.424,2.256.991.991,0,0,1-.843-.167c-.161-.136-.185-.256-.167-.265" transform="translate(-132.934 -24.169)" fill="#ff9b6c"/>
        <path id="Trazado_731989" data-name="Trazado 731989" d="M383.329,47.754c-.971-1.951-1.068-4.2-1.522-6.334s-1.461-4.379-3.456-5.257l-.048.017a5.6,5.6,0,0,0-5.652.122,7.277,7.277,0,0,0-5.077-6.043,18.015,18.015,0,0,0-9.646.064c-2.054.659-4.1,2.166-6.621,4.415a26.162,26.162,0,0,0-2.943,3.086l-2.861,7.06,1.732,3.935c.1.267.207.533.338.8l0-.017,1.232,8.119c.271-2.17.659-9.759.93-11.93a12.179,12.179,0,0,0,8.946-3.375c1.284-1.232,2.338-2.816,3.987-3.489,2.125-.867,4.517.048,6.625.954l-.085-.089a9.743,9.743,0,0,1,2.841,2.379,30.272,30.272,0,0,0,.387,12.876c.158.633.62,1.945,1.21,2.223,1.158.547,1.567-.644,2.33-1.237a3.163,3.163,0,0,1,2.205-.377,47.636,47.636,0,0,0,1.853-5.4,4.846,4.846,0,0,0,2.217.309q-.283-.845-.567-1.69a2.538,2.538,0,0,0,.923.5.865.865,0,0,0,.932-.329c.232-.392-.009-.881-.212-1.289" transform="translate(-116.822 -10.019)" fill="#e0e0e0"/>
        <path id="Trazado_731990" data-name="Trazado 731990" d="M382.744,40.787a6.579,6.579,0,0,1,.725.766,5.563,5.563,0,0,1,1,2.655,9.769,9.769,0,0,1,.056,1.981c-.048.713-.16,1.472-.273,2.272A20.437,20.437,0,0,0,384.014,51a8.912,8.912,0,0,0,.078,1.352,2.791,2.791,0,0,0,.453,1.338,1.17,1.17,0,0,0,1.066.446,1.739,1.739,0,0,0,1.023-.484,4.017,4.017,0,0,0,.888-1.914l-.164.008a6.485,6.485,0,0,0,.825,1.689,2.308,2.308,0,0,0,1.446.929,1.5,1.5,0,0,0,.808-.082,1.291,1.291,0,0,0,.581-.5,1.33,1.33,0,0,0,.214-.674.963.963,0,0,0-.205-.62l-.087.067a5.008,5.008,0,0,0,1.573,1.367,4.513,4.513,0,0,0,.5.237.84.84,0,0,0,.181.059.973.973,0,0,0-.169-.087c-.112-.056-.278-.137-.483-.261a5.161,5.161,0,0,1-1.514-1.381l-.087.068a.994.994,0,0,1-.031,1.154,1.165,1.165,0,0,1-.524.438,1.355,1.355,0,0,1-.732.066,2.164,2.164,0,0,1-1.341-.88,6.391,6.391,0,0,1-.792-1.652l-.094-.256-.07.264a3.893,3.893,0,0,1-.846,1.829,1.569,1.569,0,0,1-.915.433.987.987,0,0,1-.905-.378,2.641,2.641,0,0,1-.417-1.251A8.871,8.871,0,0,1,384.192,51a20.8,20.8,0,0,1,.228-2.514c.108-.8.215-1.563.257-2.285a9.719,9.719,0,0,0-.079-2.009,5.485,5.485,0,0,0-1.074-2.68,3.15,3.15,0,0,0-.781-.723" transform="translate(-129.414 -13.791)" fill="#fff"/>
        <path id="Trazado_731991" data-name="Trazado 731991" d="M345.752,44.205s.018.022.058.058l.183.155a2.582,2.582,0,0,0,.312.234,4.122,4.122,0,0,0,.453.282,6.887,6.887,0,0,0,3.27.835,8.792,8.792,0,0,0,4.795-1.389,15.226,15.226,0,0,0,4.346-4.336c.631-.9,1.158-1.824,1.728-2.675a10.288,10.288,0,0,1,1.9-2.231,5.292,5.292,0,0,1,2.328-1.193,3.789,3.789,0,0,1,1.185-.051,4.159,4.159,0,0,1,1.062.285,4.489,4.489,0,0,1,2.335,2.283,5.385,5.385,0,0,1,.316,1.189.253.253,0,0,0,0-.081c-.006-.065-.012-.144-.02-.24a3.872,3.872,0,0,0-.231-.895,4.4,4.4,0,0,0-.782-1.237,4.542,4.542,0,0,0-1.569-1.138,4.275,4.275,0,0,0-1.094-.305,3.924,3.924,0,0,0-1.233.042,5.427,5.427,0,0,0-2.405,1.212,10.377,10.377,0,0,0-1.939,2.261c-.577.856-1.1,1.782-1.729,2.67a15.233,15.233,0,0,1-4.285,4.3,8.741,8.741,0,0,1-4.706,1.4,6.99,6.99,0,0,1-3.237-.768,11.047,11.047,0,0,1-1.041-.666" transform="translate(-116.906 -11.403)" fill="#fff"/>
        <path id="Trazado_731992" data-name="Trazado 731992" d="M353.34,62.036c.142.167,1.087-.487,2.387-.429,1.3.039,2.221.764,2.369.608.072-.069-.067-.367-.469-.694a3.255,3.255,0,0,0-1.888-.686,3.141,3.141,0,0,0-1.908.543c-.414.3-.561.583-.491.659" transform="translate(-119.466 -20.569)" fill="#263238"/>
        <path id="Trazado_731993" data-name="Trazado 731993" d="M354.476,68.034a1.051,1.051,0,0,0,1.015,1.06,1.006,1.006,0,0,0,1.083-.949,1.052,1.052,0,0,0-1.014-1.06,1.006,1.006,0,0,0-1.084.95" transform="translate(-119.856 -22.682)" fill="#263238"/>
        <path id="Trazado_731994" data-name="Trazado 731994" d="M347.251,40.733a3.323,3.323,0,0,1-2.851,1.383,8.13,8.13,0,0,1-1.135-.408c-.393.207-.381,1.511-.141,1.884a6.945,6.945,0,0,0,.764.891c-1.314.609-2.454.2-3.782-.375a6.672,6.672,0,0,0,3.637,5.574,2.34,2.34,0,0,0,2.136.168,2.69,2.69,0,0,0,1.039-1.612,29.21,29.21,0,0,0,1.375-7.065Z" transform="translate(-114.997 -13.773)" fill="#e0e0e0"/>
        <path id="Trazado_731995" data-name="Trazado 731995" d="M364.691,81.5c-.011.044.285.171.8.167a3.109,3.109,0,0,0,2.951-2.306c.126-.5.075-.814.03-.815s-.1.3-.284.731a3.388,3.388,0,0,1-2.718,2.124c-.465.069-.768.041-.777.1" transform="translate(-123.31 -26.557)" fill="#263238"/>
        <path id="Trazado_731996" data-name="Trazado 731996" d="M351.017,398.3l4.609,16.356s-14.679,10.292-14.115,13.4l31.274-8.015-6.16-25.785Z" transform="translate(-115.467 -133.305)" fill="#455a64"/>
        <path id="Trazado_731997" data-name="Trazado 731997" d="M376.286,419.224a1.333,1.333,0,0,1,1.248,1.268,1.282,1.282,0,0,1-1.215,1.277A1.406,1.406,0,0,1,375,420.42c.06-.659.78-1.347,1.407-1.185" transform="translate(-126.796 -141.744)" fill="#e0e0e0"/>
        <path id="Trazado_731998" data-name="Trazado 731998" d="M372.752,431.893l-.72-2.574-29.716,8.647s-1.24.978-.838,1.942Z" transform="translate(-115.434 -145.162)" fill="#263238"/>
        <path id="Trazado_731999" data-name="Trazado 731999" d="M362.654,425.021c.043.156.824.03,1.7.341.882.287,1.435.866,1.56.768.134-.067-.322-.944-1.387-1.3s-1.939.057-1.871.192" transform="translate(-122.62 -143.595)" fill="#263238"/>
        <path id="Trazado_732000" data-name="Trazado 732000" d="M358.4,428.637c0,.161.728.257,1.408.786.7.508,1,1.191,1.152,1.144.15-.012.032-.955-.827-1.6s-1.767-.484-1.733-.334" transform="translate(-121.182 -144.886)" fill="#263238"/>
        <path id="Trazado_732001" data-name="Trazado 732001" d="M355.772,434.323c.147,0,.169-.839-.433-1.594s-1.4-.915-1.432-.768c-.055.151.521.492,1.005,1.121s.7,1.266.859,1.242" transform="translate(-119.663 -146.038)" fill="#263238"/>
        <path id="Trazado_732002" data-name="Trazado 732002" d="M361.035,418.682c.1.126.747-.269,1.624-.43.875-.179,1.619-.055,1.666-.21.061-.136-.737-.547-1.768-.341s-1.628.878-1.522.982" transform="translate(-122.07 -141.215)" fill="#263238"/>
        <path id="Trazado_732003" data-name="Trazado 732003" d="M362.731,401.89l.485,17.876S345.7,427.3,345.426,430.571l34.719-.277-.075-28.591Z" transform="translate(-116.796 -135.825)" fill="#455a64"/>
        <path id="Trazado_732004" data-name="Trazado 732004" d="M388.094,427.17a1.455,1.455,0,0,1,.993,1.65,1.362,1.362,0,0,1-1.587,1.023,1.536,1.536,0,0,1-1.043-1.753,1.405,1.405,0,0,1,1.767-.876" transform="translate(-130.653 -144.416)" fill="#e0e0e0"/>
        <path id="Trazado_732005" data-name="Trazado 732005" d="M380.149,443.7l-.129-3.158-33.245,1.343s-1.54.7-1.357,1.816Z" transform="translate(-116.788 -148.958)" fill="#263238"/>
        <path id="Trazado_732006" data-name="Trazado 732006" d="M372.812,429.555c.007.173.855.246,1.694.8.852.529,1.288,1.278,1.444,1.208.156-.035-.1-1.071-1.131-1.721s-2.044-.443-2.006-.285" transform="translate(-126.055 -145.186)" fill="#263238"/>
        <path id="Trazado_732007" data-name="Trazado 732007" d="M367.023,432c-.038.169.7.458,1.281,1.188.6.712.753,1.506.922,1.5.16.026.269-.993-.471-1.886s-1.729-.964-1.732-.8" transform="translate(-124.098 -146.046)" fill="#263238"/>
        <path id="Trazado_732008" data-name="Trazado 732008" d="M363.093,437.407c.154.036.384-.834-.059-1.782s-1.238-1.32-1.309-1.175c-.095.144.424.65.776,1.434.369.774.424,1.506.592,1.522" transform="translate(-122.303 -146.887)" fill="#263238"/>
        <path id="Trazado_732009" data-name="Trazado 732009" d="M372.311,422.729c.072.157.849-.088,1.807-.029.96.039,1.708.363,1.8.213.1-.126-.636-.764-1.766-.817s-1.921.5-1.837.633" transform="translate(-125.884 -142.718)" fill="#263238"/>
        <path id="Trazado_732010" data-name="Trazado 732010" d="M380.008,220.143l1.132,8.252a30.06,30.06,0,0,1,.013,8.074l-.766,5.713s-1.541,42.668-1.615,41.108c0,0,.831,31.286,1.455,37.928,1.133,12.068.114,34.241.114,34.241H360.6L353.49,285.37l-4.414-43.71L341.4,221.766Z" transform="translate(-115.434 -74.435)" fill="#12263f"/>
        <path id="Trazado_732011" data-name="Trazado 732011" d="M329.51,222.559l.217,8.35,1.187,60.7a30.791,30.791,0,0,0,1.651,8.357l16.168,46.626.923,3.192,11.875-2.941L352.7,221.412Z" transform="translate(-111.415 -74.864)" fill="#12263f"/>
        <path id="Trazado_732012" data-name="Trazado 732012" d="M353.074,253.441a1.679,1.679,0,0,0-.007.295c0,.212.009.5.017.863.023.78.057,1.894.1,3.319.08,2.882.281,7.05.567,12.2.6,10.292,1.718,24.5,3.462,40.127,1.718,15.639,3.613,29.751,5,39.962.7,5.089,1.274,9.213,1.672,12.088.2,1.41.361,2.512.472,3.284l.132.853a1.655,1.655,0,0,0,.058.289,1.82,1.82,0,0,0-.02-.294c-.024-.211-.055-.5-.1-.858-.1-.773-.23-1.879-.4-3.294-.37-2.878-.9-7.009-1.555-12.1-1.319-10.219-3.174-24.335-4.89-39.968-1.744-15.626-2.9-29.818-3.57-40.1-.319-5.143-.561-9.307-.685-12.187l-.169-3.315c-.022-.364-.04-.649-.053-.862a1.741,1.741,0,0,0-.031-.293" transform="translate(-119.38 -85.694)" fill="#455a64"/>
        <path id="Trazado_732013" data-name="Trazado 732013" d="M363.283,424.684a3.509,3.509,0,0,1,.06.753q.02.827.051,2.1l-.221-.018a.109.109,0,0,0,.05.112c.05.024.065.012.059.015h.005s.009,0,0,0l-.017.006-.043.018-.091.042-.189.09-.394.2-.849.431-1.924.989-4.536,2.344a62.893,62.893,0,0,0-7.346,4.088,8.615,8.615,0,0,0-1.825,1.737,3.5,3.5,0,0,0-.447.807,1.49,1.49,0,0,1,.336-.882,7.856,7.856,0,0,1,1.788-1.855,52.437,52.437,0,0,1,7.336-4.2c1.626-.841,3.171-1.627,4.554-2.316l1.943-.955.862-.411.4-.185.2-.086.1-.04.052-.019.031-.011.027-.006.018,0s.013-.009.064.016a.119.119,0,0,1,.056.115l-.238.684.017-.7q.031-1.272.051-2.1a3.521,3.521,0,0,1,.06-.753" transform="translate(-116.862 -143.595)" fill="#263238"/>
        <g id="Grupo_1032093" data-name="Grupo 1032093" transform="translate(218.378 149.301)" opacity="0.3">
          <g id="Grupo_1032092" data-name="Grupo 1032092">
            <g id="Grupo_1032091" data-name="Grupo 1032091" clip-path="url(#clip-path-14)">
              <path id="Trazado_732014" data-name="Trazado 732014" d="M329.937,235.653s6.462,3.489,18.565,4.863a42.739,42.739,0,0,0,29.029-7.1l-.9-7.845-46.689,3.078Z" transform="translate(-329.937 -225.572)"/>
            </g>
          </g>
        </g>
        <path id="Trazado_732015" data-name="Trazado 732015" d="M377.058,110.044c5.877,8.2,3.4,28.336,3.4,28.336l-2.747,42.032,0,4.972s.21,4.093-14.627,9.039-36.757-3.71-36.757-3.71,4.03-30.669,6.979-47.691q.579-3.337,1.163-6.232a62.879,62.879,0,0,1,15.89-30.724l.138-.148,18-4.241a38.86,38.86,0,0,1,8.561,8.367" transform="translate(-110.337 -34.379)" fill="#ffa031"/>
        <path id="Trazado_732016" data-name="Trazado 732016" d="M326.956,227.3s14.786,7.291,28,5.529a53.64,53.64,0,0,0,22.752-8.895v4.613s-10.464,8.747-24.883,8.737a74.576,74.576,0,0,1-26.5-5.236Z" transform="translate(-110.337 -75.718)" fill="#e0e0e0"/>
        <path id="Trazado_732017" data-name="Trazado 732017" d="M334.085,176.648l47.454,3.27-.712,11.266-48.172-5.136Z" transform="translate(-112.478 -59.729)" fill="#e0e0e0"/>
        <g id="Grupo_1032096" data-name="Grupo 1032096" transform="translate(217.856 98.591)" opacity="0.3">
          <g id="Grupo_1032095" data-name="Grupo 1032095">
            <g id="Grupo_1032094" data-name="Grupo 1032094" clip-path="url(#clip-path-15)">
              <path id="Trazado_732018" data-name="Trazado 732018" d="M329.15,192.912s4.214,3.169,13.629,1.457,24.4-3.853,27.681-6.706a17.06,17.06,0,0,0,5.61-11.7c.382-4.709-.659-27-.659-27L360.187,176.1l-30.181,10.7Z" transform="translate(-329.149 -148.957)"/>
            </g>
          </g>
        </g>
        <path id="Trazado_732019" data-name="Trazado 732019" d="M361.95,108.085c4.564,0,9.432,7.377,9.929,11.707s-1.259,39.238-1.972,43.214c-1.435,7.994-8.011,9.407-8.011,9.407s-15.764,4.551-26.373,5.38a34.072,34.072,0,0,1-18.141-3.5l-2.577.164.645-13.279,2.676.448,29.1-7.128s-1.856-29.839-1.69-30.337c0,0,1.492-16.072,16.412-16.08" transform="translate(-106.442 -36.546)" fill="#636363"/>
        <path id="Trazado_732020" data-name="Trazado 732020" d="M322.124,184.88a1.89,1.89,0,0,1,.4-.132l1.156-.314,4.268-1.093,14.111-3.479,7.609-1.89.085-.021.064.06c.677.638,1.338,1.246,1.983,1.806a20.943,20.943,0,0,0,1.941,1.465,16.8,16.8,0,0,1,3.057,2.636,11.8,11.8,0,0,1,1.5,2.162c.144.269.244.482.308.628a.79.79,0,0,1,.081.228c-.019.009-.165-.285-.479-.8a13.254,13.254,0,0,0-1.555-2.084,17.393,17.393,0,0,0-3.066-2.546,20.638,20.638,0,0,1-1.98-1.458c-.657-.559-1.324-1.162-2.009-1.8l.148.038-7.606,1.917L328,183.577l-4.294.986-1.172.251a1.959,1.959,0,0,1-.414.065" transform="translate(-108.917 -60.168)" fill="#263238"/>
        <path id="Trazado_732021" data-name="Trazado 732021" d="M373.434,106.428c-1.089-.14-18.233,6.4-20.3,25.1-.643,5.807.016,18.631,7.26,20.683s21.819-4.252,21.819-4.252,6.782-24.56,5.25-28.982-7.749-11.742-14.026-12.551" transform="translate(-119.337 -35.985)" fill="#636363"/>
        <path id="Trazado_732022" data-name="Trazado 732022" d="M364.315,130.79a1.138,1.138,0,0,1,.013.321c-.008.249-.018.551-.029.915-.038.849-.089,1.984-.152,3.362-.129,2.837-.283,6.758-.369,11.091s-.089,8.259-.084,11.1c0,1.379,0,2.516,0,3.365-.005.364-.01.666-.013.915a.161.161,0,1,1-.069,0c-.014-.249-.031-.551-.052-.914-.038-.794-.077-1.944-.111-3.365-.068-2.842-.1-6.77-.017-11.11s.279-8.262.47-11.1c.1-1.418.185-2.565.261-3.356.038-.363.069-.663.094-.911a1.122,1.122,0,0,1,.056-.316" transform="translate(-122.868 -44.223)" fill="#263238"/>
        <g id="Grupo_1032099" data-name="Grupo 1032099" transform="translate(236.934 88.531)" opacity="0.3">
          <g id="Grupo_1032098" data-name="Grupo 1032098">
            <g id="Grupo_1032097" data-name="Grupo 1032097" clip-path="url(#clip-path-16)">
              <path id="Trazado_732023" data-name="Trazado 732023" d="M357.981,149.137c-.227,6.992,3.732,14.073,3.732,14.073l.639-29.452c-2.88,2.393-4.183,9.587-4.371,15.379" transform="translate(-357.972 -133.758)"/>
            </g>
          </g>
        </g>
        <path id="Trazado_732024" data-name="Trazado 732024" d="M368.635,104.13c-8.415,1.688-16.752,8.776-22.186,17.646s-7.085,32.489-7.085,32.489l5.449.181s-2.306-13.344,3.538-29.818,20.328-19.375,20.328-19.375Z" transform="translate(-114.746 -35.209)" fill="#e0e0e0"/>
        <path id="Trazado_732025" data-name="Trazado 732025" d="M400.327,125.773a1.467,1.467,0,0,1,.032.363c.007.277.015.622.026,1.043.019.906.013,2.217-.013,3.838-.05,3.24-.249,7.712-.532,12.645s-.521,9.4-.633,12.634c-.05,1.581-.092,2.877-.122,3.831-.016.421-.028.765-.039,1.042a1.448,1.448,0,0,1-.037.363,1.466,1.466,0,0,1-.032-.363c-.007-.277-.015-.622-.025-1.043-.019-.906-.014-2.217.013-3.837.05-3.24.249-7.713.532-12.647s.521-9.4.633-12.631c.05-1.581.092-2.878.122-3.832.016-.421.028-.766.039-1.042a1.446,1.446,0,0,1,.037-.363" transform="translate(-134.89 -42.527)" fill="#263238"/>
        <path id="Trazado_732026" data-name="Trazado 732026" d="M382.1,111.666a23.851,23.851,0,0,0-2.568-.819A11.306,11.306,0,0,0,368.02,115a23.787,23.787,0,0,0-1.455,2.269,2.568,2.568,0,0,1,.249-.689,9.831,9.831,0,0,1,1.011-1.727,11.047,11.047,0,0,1,11.766-4.241,9.823,9.823,0,0,1,1.88.684,2.564,2.564,0,0,1,.631.372" transform="translate(-123.943 -37.281)" fill="#263238"/>
        <path id="Trazado_732027" data-name="Trazado 732027" d="M358.662,103.093l20.735-5.35.331,3.224-8.035,1.244-14.673,6.846Z" transform="translate(-120.716 -33.049)" fill="#455a64"/>
        <path id="Trazado_732028" data-name="Trazado 732028" d="M383.718,105.25s13.41,2.532,15.652,13.2c0,0-.811-5.75-3.806-8.716-6.041-5.981-11.976-5.609-11.976-5.609Z" transform="translate(-129.7 -35.206)" fill="#e0e0e0"/>
        <path id="Trazado_732029" data-name="Trazado 732029" d="M383.469,103.7c.094-.017.21.375.258.874s.01.905-.085.907-.21-.389-.258-.874-.009-.892.085-.907" transform="translate(-129.624 -35.062)" fill="#263238"/>
      </g>
    </g>
  </g>
</svg>
