<svg id="Grupo_1032570" data-name="Grupo 1032570" xmlns="http://www.w3.org/2000/svg" xmlns:xlink="http://www.w3.org/1999/xlink" width="412.985" height="307.764" viewBox="0 0 412.985 307.764">
  <defs>
    <clipPath id="clip-path">
      <rect id="Rectángulo_351989" data-name="Rectángulo 351989" width="412.985" height="307.764" fill="none"/>
    </clipPath>
    <clipPath id="clip-path-5">
      <rect id="Rectángulo_351933" data-name="Rectángulo 351933" width="55.058" height="43.832" fill="#ffa031"/>
    </clipPath>
    <clipPath id="clip-path-6">
      <rect id="Rectángulo_351935" data-name="Rectángulo 351935" width="19.485" height="43.832" fill="#ffa031"/>
    </clipPath>
    <clipPath id="clip-path-7">
      <rect id="Rectángulo_351939" data-name="Rectángulo 351939" width="6.953" height="16.574" fill="none"/>
    </clipPath>
    <clipPath id="clip-path-8">
      <rect id="Rectángulo_351941" data-name="Rectángulo 351941" width="6.953" height="7.773" fill="none"/>
    </clipPath>
    <clipPath id="clip-path-13">
      <rect id="Rectángulo_351955" data-name="Rectángulo 351955" width="55.058" height="33.519" fill="#ffa031"/>
    </clipPath>
    <clipPath id="clip-path-14">
      <rect id="Rectángulo_351957" data-name="Rectángulo 351957" width="19.485" height="33.519" fill="none"/>
    </clipPath>
    <clipPath id="clip-path-15">
      <rect id="Rectángulo_351961" data-name="Rectángulo 351961" width="6.953" height="11.418" fill="none"/>
    </clipPath>
    <clipPath id="clip-path-18">
      <rect id="Rectángulo_351965" data-name="Rectángulo 351965" width="7.271" height="8.546" fill="none"/>
    </clipPath>
    <clipPath id="clip-path-19">
      <rect id="Rectángulo_351968" data-name="Rectángulo 351968" width="56.508" height="38.661" fill="#ffa031"/>
    </clipPath>
    <clipPath id="clip-path-20">
      <rect id="Rectángulo_351970" data-name="Rectángulo 351970" width="39.624" height="36.479" fill="#ffa031"/>
    </clipPath>
    <clipPath id="clip-path-21">
      <rect id="Rectángulo_351974" data-name="Rectángulo 351974" width="4.421" height="11.253" fill="none"/>
    </clipPath>
    <clipPath id="clip-path-22">
      <rect id="Rectángulo_351976" data-name="Rectángulo 351976" width="3.974" height="7.786" fill="none"/>
    </clipPath>
    <clipPath id="clip-path-23">
      <rect id="Rectángulo_351977" data-name="Rectángulo 351977" width="9.166" height="9.897" fill="none"/>
    </clipPath>
    <clipPath id="clip-path-24">
      <rect id="Rectángulo_351978" data-name="Rectángulo 351978" width="11.668" height="47.616" fill="none"/>
    </clipPath>
    <clipPath id="clip-path-26">
      <rect id="Rectángulo_351980" data-name="Rectángulo 351980" width="3.472" height="17.236" fill="none"/>
    </clipPath>
    <clipPath id="clip-path-27">
      <rect id="Rectángulo_351981" data-name="Rectángulo 351981" width="6.757" height="5.992" fill="none"/>
    </clipPath>
    <clipPath id="clip-path-28">
      <rect id="Rectángulo_351982" data-name="Rectángulo 351982" width="42.628" height="131.003" fill="#c9d3dd"/>
    </clipPath>
    <clipPath id="clip-path-29">
      <rect id="Rectángulo_351983" data-name="Rectángulo 351983" width="14.537" height="49.791" fill="none"/>
    </clipPath>
    <clipPath id="clip-path-30">
      <rect id="Rectángulo_351984" data-name="Rectángulo 351984" width="27.586" height="137.004" fill="#c9d3dd"/>
    </clipPath>
    <clipPath id="clip-path-31">
      <rect id="Rectángulo_351985" data-name="Rectángulo 351985" width="1.413" height="3.951" fill="none"/>
    </clipPath>
    <clipPath id="clip-path-32">
      <rect id="Rectángulo_351986" data-name="Rectángulo 351986" width="1.412" height="3.951" fill="none"/>
    </clipPath>
  </defs>
  <g id="Grupo_1032569" data-name="Grupo 1032569" clip-path="url(#clip-path)">
    <rect id="Rectángulo_351903" data-name="Rectángulo 351903" width="412.985" height="0.206" transform="translate(0 270.461)" fill="#ebebeb"/>
    <rect id="Rectángulo_351904" data-name="Rectángulo 351904" width="15.6" height="0.206" transform="translate(344.247 283.756)" fill="#ebebeb"/>
    <rect id="Rectángulo_351905" data-name="Rectángulo 351905" width="24.344" height="0.206" transform="translate(242.053 282.315)" fill="#ebebeb"/>
    <rect id="Rectángulo_351906" data-name="Rectángulo 351906" width="38.912" height="0.206" transform="translate(304.508 276.086)" fill="#ebebeb"/>
    <rect id="Rectángulo_351907" data-name="Rectángulo 351907" width="9.062" height="0.206" transform="translate(43.33 277.473)" fill="#ebebeb"/>
    <rect id="Rectángulo_351908" data-name="Rectángulo 351908" width="31.846" height="0.206" transform="translate(59.745 277.473)" fill="#ebebeb"/>
    <rect id="Rectángulo_351909" data-name="Rectángulo 351909" width="44.724" height="0.206" transform="translate(141.241 280.961)" fill="#ebebeb"/>
    <g id="Grupo_1032479" data-name="Grupo 1032479">
      <g id="Grupo_1032478" data-name="Grupo 1032478" clip-path="url(#clip-path)">
        <path id="Trazado_732662" data-name="Trazado 732662" d="M202.416,233.623H42.922a4.72,4.72,0,0,1-4.715-4.715V4.715A4.72,4.72,0,0,1,42.922,0H202.416a4.72,4.72,0,0,1,4.714,4.715V228.909a4.72,4.72,0,0,1-4.714,4.715M42.922.206a4.513,4.513,0,0,0-4.508,4.508V228.909a4.513,4.513,0,0,0,4.508,4.508H202.416a4.513,4.513,0,0,0,4.507-4.508V4.715A4.513,4.513,0,0,0,202.416.206Z" transform="translate(-6.649)" fill="#ebebeb"/>
        <path id="Trazado_732663" data-name="Trazado 732663" d="M418.713,233.623H259.219a4.719,4.719,0,0,1-4.714-4.715V4.715A4.72,4.72,0,0,1,259.219,0H418.713a4.72,4.72,0,0,1,4.715,4.715V228.909a4.72,4.72,0,0,1-4.715,4.715M259.219.206a4.513,4.513,0,0,0-4.507,4.508V228.909a4.513,4.513,0,0,0,4.507,4.508H418.713a4.513,4.513,0,0,0,4.508-4.508V4.715A4.513,4.513,0,0,0,418.713.206Z" transform="translate(-44.291)" fill="#ebebeb"/>
        <rect id="Rectángulo_351910" data-name="Rectángulo 351910" width="15.601" height="0.206" transform="translate(344.247 283.756)" fill="#ebebeb"/>
        <rect id="Rectángulo_351911" data-name="Rectángulo 351911" width="24.344" height="0.206" transform="translate(242.054 282.315)" fill="#ebebeb"/>
        <rect id="Rectángulo_351912" data-name="Rectángulo 351912" width="38.913" height="0.206" transform="translate(304.508 276.086)" fill="#ebebeb"/>
        <rect id="Rectángulo_351913" data-name="Rectángulo 351913" width="9.062" height="0.206" transform="translate(43.33 277.473)" fill="#ebebeb"/>
        <rect id="Rectángulo_351914" data-name="Rectángulo 351914" width="31.845" height="0.206" transform="translate(59.745 277.473)" fill="#ebebeb"/>
        <rect id="Rectángulo_351915" data-name="Rectángulo 351915" width="44.724" height="0.206" transform="translate(141.241 280.961)" fill="#ebebeb"/>
        <path id="Trazado_732664" data-name="Trazado 732664" d="M148.734,295.7a22.338,22.338,0,1,0,22.338-22.338A22.338,22.338,0,0,0,148.734,295.7" transform="translate(-25.884 -47.572)" fill="#e0e0e0"/>
        <path id="Trazado_732665" data-name="Trazado 732665" d="M322.8,295.7a22.338,22.338,0,1,0,22.338-22.338A22.338,22.338,0,0,0,322.8,295.7" transform="translate(-56.177 -47.572)" fill="#e0e0e0"/>
        <path id="Trazado_732666" data-name="Trazado 732666" d="M79.386,181.687,56.111,229.176v44.61H146.2v-92.1Z" transform="translate(-9.765 -31.619)" fill="#f5f5f5"/>
        <path id="Trazado_732667" data-name="Trazado 732667" d="M85.674,191.978,70.709,222.511v10.219h36.876V191.978Z" transform="translate(-12.305 -33.41)" fill="#ebebeb"/>
        <rect id="Rectángulo_351916" data-name="Rectángulo 351916" width="15.686" height="92.098" transform="translate(107.048 150.069)" fill="#e0e0e0"/>
        <rect id="Rectángulo_351917" data-name="Rectángulo 351917" width="214.186" height="107.568" transform="translate(113.403 134.599)" fill="#ebebeb"/>
        <rect id="Rectángulo_351918" data-name="Rectángulo 351918" width="281.242" height="7.465" transform="translate(46.346 242.167)" fill="#e6e6e6"/>
        <path id="Trazado_732668" data-name="Trazado 732668" d="M61.07,295.7a22.338,22.338,0,1,0,22.338-22.338A22.338,22.338,0,0,0,61.07,295.7" transform="translate(-10.628 -47.572)" fill="#e6e6e6"/>
        <path id="Trazado_732669" data-name="Trazado 732669" d="M85.085,286.3a11.072,11.072,0,1,1-11.071,11.071A11.084,11.084,0,0,1,85.085,286.3m0-3.3A14.376,14.376,0,1,0,99.46,297.373,14.375,14.375,0,0,0,85.085,283" transform="translate(-12.306 -49.25)" fill="#f5f5f5"/>
        <path id="Trazado_732670" data-name="Trazado 732670" d="M235.141,295.7a22.338,22.338,0,1,0,22.338-22.338A22.338,22.338,0,0,0,235.141,295.7" transform="translate(-40.921 -47.572)" fill="#e6e6e6"/>
        <path id="Trazado_732671" data-name="Trazado 732671" d="M259.156,286.3a11.072,11.072,0,1,1-11.071,11.071A11.084,11.084,0,0,1,259.156,286.3m0-3.3a14.376,14.376,0,1,0,14.375,14.375A14.375,14.375,0,0,0,259.156,283" transform="translate(-42.599 -49.25)" fill="#f5f5f5"/>
        <rect id="Rectángulo_351919" data-name="Rectángulo 351919" width="73.167" height="97.441" transform="translate(251.002 141.789)" fill="#e0e0e0"/>
        <rect id="Rectángulo_351920" data-name="Rectángulo 351920" width="20.957" height="29.138" transform="translate(266.628 210.092)" fill="#fafafa"/>
        <rect id="Rectángulo_351921" data-name="Rectángulo 351921" width="5.375" height="9.978" transform="translate(274.419 210.092)" fill="#f5f5f5"/>
        <rect id="Rectángulo_351922" data-name="Rectángulo 351922" width="20.957" height="22.635" transform="translate(290.345 216.594)" fill="#fafafa"/>
        <rect id="Rectángulo_351923" data-name="Rectángulo 351923" width="2.76" height="22.635" transform="translate(287.585 216.594)" fill="#ebebeb"/>
        <rect id="Rectángulo_351924" data-name="Rectángulo 351924" width="5.375" height="9.978" transform="translate(298.137 216.594)" fill="#f5f5f5"/>
        <rect id="Rectángulo_351925" data-name="Rectángulo 351925" width="42.471" height="97.441" transform="translate(324.168 141.789)" fill="#f0f0f0"/>
        <rect id="Rectángulo_351926" data-name="Rectángulo 351926" width="15.627" height="97.441" transform="translate(251.001 141.789)" fill="#f0f0f0"/>
        <path id="Trazado_732672" data-name="Trazado 732672" d="M260.83,215.253a33.566,33.566,0,1,1-33.566-33.566,33.566,33.566,0,0,1,33.566,33.566" transform="translate(-33.709 -31.619)" fill="#fff"/>
        <rect id="Rectángulo_351927" data-name="Rectángulo 351927" width="10.805" height="38.06" transform="translate(188.152 164.604)" fill="#ebebeb"/>
        <rect id="Rectángulo_351928" data-name="Rectángulo 351928" width="38.06" height="10.805" transform="translate(174.525 178.231)" fill="#ebebeb"/>
        <path id="Trazado_732673" data-name="Trazado 732673" d="M272.695,50.773a30.95,30.95,0,1,1-30.95-30.949,30.95,30.95,0,0,1,30.95,30.949" transform="translate(-36.684 -3.45)" fill="#fafafa"/>
        <path id="Trazado_732674" data-name="Trazado 732674" d="M295.631,64.777a33.98,33.98,0,1,1-33.98-33.98,33.98,33.98,0,0,1,33.98,33.98" transform="translate(-39.622 -5.36)" fill="#fafafa"/>
        <path id="Trazado_732675" data-name="Trazado 732675" d="M238.284,72.511a27.4,27.4,0,1,1-27.4-27.4,27.4,27.4,0,0,1,27.4,27.4" transform="translate(-31.932 -7.851)" fill="#fafafa"/>
        <path id="Trazado_732676" data-name="Trazado 732676" d="M192.769,79.661A15.239,15.239,0,1,1,177.53,64.422a15.239,15.239,0,0,1,15.239,15.239" transform="translate(-28.243 -11.211)" fill="#fafafa"/>
        <path id="Trazado_732677" data-name="Trazado 732677" d="M318.822,79.227a17.3,17.3,0,1,1-17.3-17.3,17.3,17.3,0,0,1,17.3,17.3" transform="translate(-49.464 -10.778)" fill="#fafafa"/>
        <path id="Trazado_732678" data-name="Trazado 732678" d="M364.876,36.17a22,22,0,1,0,22-22,22,22,0,0,0-22,22" transform="translate(-63.499 -2.465)" fill="#f5f5f5"/>
        <path id="Trazado_732679" data-name="Trazado 732679" d="M347.358,42.769a16.721,16.721,0,1,0,16.721-16.72,16.72,16.72,0,0,0-16.721,16.72" transform="translate(-60.45 -4.533)" fill="#f5f5f5"/>
        <path id="Trazado_732680" data-name="Trazado 732680" d="M389.853,46.536A19.478,19.478,0,1,0,409.33,27.059a19.477,19.477,0,0,0-19.477,19.477" transform="translate(-67.846 -4.709)" fill="#f5f5f5"/>
        <path id="Trazado_732681" data-name="Trazado 732681" d="M417.2,42.329a11.837,11.837,0,1,0,11.838-11.838A11.838,11.838,0,0,0,417.2,42.329" transform="translate(-72.605 -5.306)" fill="#f5f5f5"/>
        <path id="Trazado_732682" data-name="Trazado 732682" d="M129.015,40.159A19.151,19.151,0,1,0,109.864,59.31a19.151,19.151,0,0,0,19.151-19.151" transform="translate(-15.787 -3.656)" fill="#f5f5f5"/>
        <path id="Trazado_732683" data-name="Trazado 732683" d="M146.2,36.353a14.553,14.553,0,1,0-14.553,14.553A14.552,14.552,0,0,0,146.2,36.353" transform="translate(-20.378 -3.794)" fill="#f5f5f5"/>
        <path id="Trazado_732684" data-name="Trazado 732684" d="M108.2,32.062A16.953,16.953,0,1,0,91.25,49.014,16.952,16.952,0,0,0,108.2,32.062" transform="translate(-12.93 -2.63)" fill="#f5f5f5"/>
        <path id="Trazado_732685" data-name="Trazado 732685" d="M87.2,38.527a10.3,10.3,0,1,0-10.3,10.3,10.3,10.3,0,0,0,10.3-10.3" transform="translate(-11.59 -4.912)" fill="#f5f5f5"/>
      </g>
    </g>
    <g id="Grupo_1032481" data-name="Grupo 1032481">
      <g id="Grupo_1032480" data-name="Grupo 1032480" clip-path="url(#clip-path)">
        <path id="Trazado_732686" data-name="Trazado 732686" d="M376.4,359.315c0,5.166-71.7,9.352-160.147,9.352s-160.147-4.187-160.147-9.352,71.7-9.352,160.147-9.352S376.4,354.151,376.4,359.315" transform="translate(-9.765 -60.904)" fill="#f5f5f5"/>
      </g>
    </g>
    <rect id="Rectángulo_351931" data-name="Rectángulo 351931" width="55.058" height="43.832" transform="translate(61.214 251.827)" fill="#407bff"/>
    <g id="Grupo_1032519" data-name="Grupo 1032519">
      <g id="Grupo_1032518" data-name="Grupo 1032518" clip-path="url(#clip-path)">
        <g id="Grupo_1032484" data-name="Grupo 1032484" transform="translate(61.214 251.827)" opacity="0.7">
          <g id="Grupo_1032483" data-name="Grupo 1032483">
            <g id="Grupo_1032482" data-name="Grupo 1032482" clip-path="url(#clip-path-5)">
              <rect id="Rectángulo_351932" data-name="Rectángulo 351932" width="55.058" height="43.832" transform="translate(0)" fill="#ffa031"/>
            </g>
          </g>
        </g>
        <g id="Grupo_1032487" data-name="Grupo 1032487" transform="translate(96.787 251.827)" opacity="0.4">
          <g id="Grupo_1032486" data-name="Grupo 1032486">
            <g id="Grupo_1032485" data-name="Grupo 1032485" clip-path="url(#clip-path-6)">
              <rect id="Rectángulo_351934" data-name="Rectángulo 351934" width="19.485" height="43.832" fill="#ffa031"/>
            </g>
          </g>
        </g>
        <path id="Trazado_732687" data-name="Trazado 732687" d="M133.207,329.667c0,4.6-1.9,8.322-4.245,8.322s-4.245-3.726-4.245-8.322,1.9-8.322,4.245-8.322,4.245,3.726,4.245,8.322" transform="translate(-21.705 -55.923)" fill="#fff"/>
        <rect id="Rectángulo_351936" data-name="Rectángulo 351936" width="1.597" height="10.239" transform="translate(106.459 268.624)" fill="#407bff"/>
        <rect id="Rectángulo_351937" data-name="Rectángulo 351937" width="6.063" height="2.698" transform="translate(104.227 272.395)" fill="#ffa031"/>
        <g id="Grupo_1032490" data-name="Grupo 1032490" transform="translate(75.524 279.085)" opacity="0.7">
          <g id="Grupo_1032489" data-name="Grupo 1032489">
            <g id="Grupo_1032488" data-name="Grupo 1032488" clip-path="url(#clip-path-7)">
              <rect id="Rectángulo_351938" data-name="Rectángulo 351938" width="6.953" height="16.574" transform="translate(0 0)" fill="#fff"/>
            </g>
          </g>
        </g>
        <g id="Grupo_1032493" data-name="Grupo 1032493" transform="translate(75.524 251.827)" opacity="0.7">
          <g id="Grupo_1032492" data-name="Grupo 1032492">
            <g id="Grupo_1032491" data-name="Grupo 1032491" clip-path="url(#clip-path-8)">
              <rect id="Rectángulo_351940" data-name="Rectángulo 351940" width="6.953" height="7.773" transform="translate(0)" fill="#fff"/>
            </g>
          </g>
        </g>
        <rect id="Rectángulo_351942" data-name="Rectángulo 351942" width="55.058" height="43.832" transform="translate(105.358 251.827)" fill="#407bff"/>
        <g id="Grupo_1032496" data-name="Grupo 1032496" transform="translate(105.358 251.827)" opacity="0.7">
          <g id="Grupo_1032495" data-name="Grupo 1032495">
            <g id="Grupo_1032494" data-name="Grupo 1032494" clip-path="url(#clip-path-5)">
              <rect id="Rectángulo_351943" data-name="Rectángulo 351943" width="55.058" height="43.832" fill="#ffa031"/>
            </g>
          </g>
        </g>
        <g id="Grupo_1032499" data-name="Grupo 1032499" transform="translate(140.931 251.827)" opacity="0.4">
          <g id="Grupo_1032498" data-name="Grupo 1032498">
            <g id="Grupo_1032497" data-name="Grupo 1032497" clip-path="url(#clip-path-6)">
              <rect id="Rectángulo_351945" data-name="Rectángulo 351945" width="19.485" height="43.832" fill="#ffa031"/>
            </g>
          </g>
        </g>
        <path id="Trazado_732688" data-name="Trazado 732688" d="M186.652,329.667c0,4.6-1.9,8.322-4.245,8.322s-4.245-3.726-4.245-8.322,1.9-8.322,4.245-8.322,4.245,3.726,4.245,8.322" transform="translate(-31.005 -55.923)" fill="#fff"/>
        <rect id="Rectángulo_351947" data-name="Rectángulo 351947" width="1.597" height="10.239" transform="translate(150.603 268.624)" fill="#ffa031"/>
        <rect id="Rectángulo_351948" data-name="Rectángulo 351948" width="6.063" height="2.698" transform="translate(148.371 272.395)" fill="#ffa031"/>
        <g id="Grupo_1032502" data-name="Grupo 1032502" transform="translate(119.667 251.827)" opacity="0.7">
          <g id="Grupo_1032501" data-name="Grupo 1032501">
            <g id="Grupo_1032500" data-name="Grupo 1032500" clip-path="url(#clip-path-7)">
              <rect id="Rectángulo_351949" data-name="Rectángulo 351949" width="6.953" height="16.574" fill="#fff"/>
            </g>
          </g>
        </g>
        <g id="Grupo_1032505" data-name="Grupo 1032505" transform="translate(119.667 287.886)" opacity="0.7">
          <g id="Grupo_1032504" data-name="Grupo 1032504">
            <g id="Grupo_1032503" data-name="Grupo 1032503" clip-path="url(#clip-path-8)">
              <rect id="Rectángulo_351951" data-name="Rectángulo 351951" width="6.953" height="7.773" transform="translate(0 0)" fill="#fff"/>
            </g>
          </g>
        </g>
        <rect id="Rectángulo_351953" data-name="Rectángulo 351953" width="55.058" height="33.519" transform="translate(87.195 218.308)" fill="#407bff"/>
        <g id="Grupo_1032508" data-name="Grupo 1032508" transform="translate(87.195 218.308)" opacity="0.7">
          <g id="Grupo_1032507" data-name="Grupo 1032507">
            <g id="Grupo_1032506" data-name="Grupo 1032506" clip-path="url(#clip-path-13)">
              <rect id="Rectángulo_351954" data-name="Rectángulo 351954" width="55.058" height="33.519" fill="#ffa031"/>
            </g>
          </g>
        </g>
        <g id="Grupo_1032511" data-name="Grupo 1032511" transform="translate(122.769 218.308)" opacity="0.4">
          <g id="Grupo_1032510" data-name="Grupo 1032510">
            <g id="Grupo_1032509" data-name="Grupo 1032509" clip-path="url(#clip-path-14)">
              <rect id="Rectángulo_351956" data-name="Rectángulo 351956" width="19.485" height="33.519" fill="#407bff"/>
            </g>
          </g>
        </g>
        <path id="Trazado_732689" data-name="Trazado 732689" d="M164.663,282.843c0,4.6-1.9,8.322-4.245,8.322s-4.245-3.726-4.245-8.322,1.9-8.322,4.245-8.322,4.245,3.726,4.245,8.322" transform="translate(-27.179 -47.775)" fill="#fff"/>
        <rect id="Rectángulo_351958" data-name="Rectángulo 351958" width="1.597" height="10.239" transform="translate(132.44 229.949)" fill="#407bff"/>
        <rect id="Rectángulo_351959" data-name="Rectángulo 351959" width="6.063" height="2.698" transform="translate(130.209 233.719)" fill="#407bff"/>
        <g id="Grupo_1032514" data-name="Grupo 1032514" transform="translate(101.505 218.308)" opacity="0.7">
          <g id="Grupo_1032513" data-name="Grupo 1032513">
            <g id="Grupo_1032512" data-name="Grupo 1032512" clip-path="url(#clip-path-15)">
              <rect id="Rectángulo_351960" data-name="Rectángulo 351960" width="6.953" height="11.417" fill="#fff"/>
            </g>
          </g>
        </g>
        <g id="Grupo_1032517" data-name="Grupo 1032517" transform="translate(101.505 244.054)" opacity="0.7">
          <g id="Grupo_1032516" data-name="Grupo 1032516">
            <g id="Grupo_1032515" data-name="Grupo 1032515" clip-path="url(#clip-path-8)">
              <rect id="Rectángulo_351962" data-name="Rectángulo 351962" width="6.953" height="7.773" transform="translate(0 0)" fill="#fff"/>
            </g>
          </g>
        </g>
      </g>
    </g>
    <g id="Grupo_1032542" data-name="Grupo 1032542">
      <g id="Grupo_1032541" data-name="Grupo 1032541" clip-path="url(#clip-path)">
        <path id="Trazado_732690" data-name="Trazado 732690" d="M182.437,101.088l2.941,4.9c1.013,1.641,2.021,3.285,3.059,4.9,2.068,3.241,4.207,6.419,6.454,9.432.558.765,1.14,1.476,1.7,2.222.286.368.584.71.876,1.066l.439.531.22.266c.036.041,0,0-.026-.021l-.075-.065-.145-.11c-.4-.257-.558-.229-.513-.188a1.134,1.134,0,0,0,.511.181,11.263,11.263,0,0,0,2.15.1,89.191,89.191,0,0,0,11.024-1.575l2.049,4.885a42.734,42.734,0,0,1-5.565,3.032,34.744,34.744,0,0,1-6.216,2.2,17.659,17.659,0,0,1-3.789.518,11.2,11.2,0,0,1-2.439-.2,7.921,7.921,0,0,1-3.2-1.426c-.145-.111-.286-.22-.428-.352l-.211-.194-.156-.153-.281-.287-.562-.573c-.371-.384-.757-.763-1.115-1.153-.7-.783-1.451-1.551-2.111-2.357a112.082,112.082,0,0,1-7.522-9.88c-1.149-1.7-2.268-3.413-3.338-5.157s-2.084-3.479-3.1-5.376Z" transform="translate(-30.12 -17.592)" fill="#ff8b7b"/>
        <path id="Trazado_732691" data-name="Trazado 732691" d="M216.911,127.724l5.911-5.515,4.4,6.718s-3.983,4.849-8.723,2.647Z" transform="translate(-37.749 -21.268)" fill="#407bff"/>
        <path id="Trazado_732692" data-name="Trazado 732692" d="M231.42,120.594l.829,3.669a1.626,1.626,0,0,1-.578,1.635l-3.2,2.527-4.4-6.718,5.114-2.244a1.627,1.627,0,0,1,2.24,1.131" transform="translate(-38.994 -20.766)" fill="#407bff"/>
        <path id="Trazado_732693" data-name="Trazado 732693" d="M204.857,351.546a.167.167,0,0,1-.092-.149.165.165,0,0,1,.111-.158c.34-.121,3.344-1.161,4.128-.572a.532.532,0,0,1,.214.478.935.935,0,0,1-.42.762c-.858.574-2.825.025-3.92-.354a.09.09,0,0,1-.021-.008m3.89-.646c-.5-.254-2.1.118-3.285.495,1.508.468,2.668.558,3.15.236a.611.611,0,0,0,.272-.505.2.2,0,0,0-.081-.191.408.408,0,0,0-.056-.035" transform="translate(-35.635 -60.995)" fill="#407bff"/>
        <path id="Trazado_732694" data-name="Trazado 732694" d="M206.224,348.423a1.231,1.231,0,0,1,.959-.164c.445.112.541.358.548.546.018.812-1.859,2.1-2.753,2.362a.152.152,0,0,1-.121-.019c-.017,0-.025-.012-.04-.024a.186.186,0,0,1-.047-.158,4.775,4.775,0,0,1,1.455-2.543m1.176.393c0-.027,0-.107-.134-.172a.693.693,0,0,0-.168-.061l-.069-.011a.9.9,0,0,0-.634.135,3.974,3.974,0,0,0-1.217,2.028c.933-.4,2.229-1.437,2.223-1.919" transform="translate(-35.635 -60.601)" fill="#407bff"/>
        <path id="Trazado_732695" data-name="Trazado 732695" d="M196.753,349.058l7.04-.111-.439-16.365-7.041.111Z" transform="translate(-34.164 -57.879)" fill="#ff8b7b"/>
        <path id="Trazado_732696" data-name="Trazado 732696" d="M203.591,351.407l-7.691.121a.544.544,0,0,0-.544.491l-.67,6.292a1.148,1.148,0,0,0,1.157,1.238c2.769-.09,6.76-.316,10.247-.371,4.078-.064,3.681.1,8.463.028,2.891-.045,3.357-2.986,2.116-3.232-5.649-1.121-6.218-1.18-11.317-4.045a3.536,3.536,0,0,0-1.76-.523" transform="translate(-33.88 -61.155)" fill="#12263f"/>
        <g id="Grupo_1032522" data-name="Grupo 1032522" transform="translate(162.146 274.707)" opacity="0.2">
          <g id="Grupo_1032521" data-name="Grupo 1032521">
            <g id="Grupo_1032520" data-name="Grupo 1032520" clip-path="url(#clip-path-18)">
              <path id="Trazado_732697" data-name="Trazado 732697" d="M203.352,332.587l.228,8.436-7.043.111-.228-8.436Z" transform="translate(-196.309 -332.587)"/>
            </g>
          </g>
        </g>
        <path id="Trazado_732698" data-name="Trazado 732698" d="M184.342,63.35c-.27,5.28.2,15.643-3.639,18.977,2.634,2.851,6.994,5.126,13.124,5.5s4.729-3.048,3.249-5.306c-5.681-1.522-4.662-6.572-3.4-10.539Z" transform="translate(-31.448 -11.025)" fill="#ff8b7b"/>
        <path id="Trazado_732699" data-name="Trazado 732699" d="M177.459,84.555c.154-1.481,1.073-4.443,5.056-3.422s8.682.664,12.257.868,3.776,4.692,3.776,4.692Z" transform="translate(-30.883 -14.083)" fill="#407bff"/>
        <path id="Trazado_732700" data-name="Trazado 732700" d="M176.832,84.116c8.481-.091,19.063.942,24.811,2.753a3.79,3.79,0,0,1,2.657,3.416c.34,6.392,1.267,27.44,2.062,60.244,0,0-37.738.611-37.738.611a397.982,397.982,0,0,0-2.965-54.249,11.388,11.388,0,0,1,11.173-12.775" transform="translate(-28.815 -14.638)" fill="#12263f"/>
        <rect id="Rectángulo_351966" data-name="Rectángulo 351966" width="32.158" height="52.822" transform="translate(179.542 111.202) rotate(-82.638)" fill="#407bff"/>
        <g id="Grupo_1032525" data-name="Grupo 1032525" transform="translate(179.541 79.309)" opacity="0.7">
          <g id="Grupo_1032524" data-name="Grupo 1032524">
            <g id="Grupo_1032523" data-name="Grupo 1032523" clip-path="url(#clip-path-19)">
              <rect id="Rectángulo_351967" data-name="Rectángulo 351967" width="32.158" height="52.822" transform="translate(0 31.893) rotate(-82.638)" fill="#ffa031"/>
            </g>
          </g>
        </g>
        <g id="Grupo_1032528" data-name="Grupo 1032528" transform="translate(196.425 81.491)" opacity="0.4">
          <g id="Grupo_1032527" data-name="Grupo 1032527">
            <g id="Grupo_1032526" data-name="Grupo 1032526" clip-path="url(#clip-path-20)">
              <rect id="Rectángulo_351969" data-name="Rectángulo 351969" width="32.158" height="35.799" transform="translate(0 31.892) rotate(-82.638)" fill="#ffa031"/>
            </g>
          </g>
        </g>
        <path id="Trazado_732701" data-name="Trazado 732701" d="M269.494,120.269a7.8,7.8,0,1,1-6.712-8.917,7.892,7.892,0,0,1,6.712,8.917" transform="translate(-44.196 -19.367)" fill="#fff"/>
        <rect id="Rectángulo_351971" data-name="Rectángulo 351971" width="9.823" height="2.935" transform="translate(215.48 104.585) rotate(-82.643)" fill="#ffa031"/>
        <rect id="Rectángulo_351972" data-name="Rectángulo 351972" width="2.588" height="11.138" transform="translate(211.875 100.473) rotate(-82.646)" fill="#ffa031"/>
        <g id="Grupo_1032531" data-name="Grupo 1032531" transform="translate(188.883 80.165)" opacity="0.7">
          <g id="Grupo_1032530" data-name="Grupo 1032530">
            <g id="Grupo_1032529" data-name="Grupo 1032529" clip-path="url(#clip-path-21)">
              <rect id="Rectángulo_351973" data-name="Rectángulo 351973" width="10.953" height="3.042" transform="translate(0 10.863) rotate(-82.637)" fill="#fff"/>
            </g>
          </g>
        </g>
        <g id="Grupo_1032534" data-name="Grupo 1032534" transform="translate(186.166 104.662)" opacity="0.7">
          <g id="Grupo_1032533" data-name="Grupo 1032533">
            <g id="Grupo_1032532" data-name="Grupo 1032532" clip-path="url(#clip-path-22)">
              <rect id="Rectángulo_351975" data-name="Rectángulo 351975" width="7.457" height="3.042" transform="matrix(0.128, -0.992, 0.992, 0.128, 0, 7.395)" fill="#fff"/>
            </g>
          </g>
        </g>
        <path id="Trazado_732702" data-name="Trazado 732702" d="M213.171,98.653c.18.836.428,1.836.647,2.765l.714,2.839c.5,1.889,1.013,3.775,1.582,5.633s1.154,3.7,1.819,5.5,1.341,3.571,2.123,5.257c.392.843.786,1.674,1.207,2.476.206.408.431.788.644,1.185l.338.568.169.285.021.036c.008.013-.021-.03-.031-.042l-.09-.112c-.066-.07-.13-.141-.2-.207a2.45,2.45,0,0,0-.79-.512.862.862,0,0,0-.382-.083c-.1.026.063.095.307.116a9.694,9.694,0,0,0,2.137-.151,92.626,92.626,0,0,0,11.071-3.052l2.614,4.607a45.276,45.276,0,0,1-5.3,3.757,35.724,35.724,0,0,1-6.063,3.007,16.762,16.762,0,0,1-3.881.978,9.9,9.9,0,0,1-2.747-.036,7.684,7.684,0,0,1-1.839-.551,6.883,6.883,0,0,1-2.033-1.4,5.336,5.336,0,0,1-.45-.495l-.208-.263-.12-.164-.254-.356-.5-.713c-.314-.479-.646-.956-.942-1.44-.608-.965-1.18-1.937-1.7-2.922a77.143,77.143,0,0,1-5.1-12.027c-.677-2.037-1.293-4.082-1.834-6.148-.278-1.032-.529-2.069-.766-3.114-.246-1.062-.444-2.058-.66-3.228Z" transform="translate(-35.27 -17.168)" fill="#ff8b7b"/>
        <path id="Trazado_732703" data-name="Trazado 732703" d="M198.621,91.225c-3.368,5.928,5.67,25.713,5.67,25.713l14-5.344s-.542-10.017-4.233-17.749c-3.79-7.939-11.74-9.126-15.437-2.62" transform="translate(-34.435 -15.145)" fill="#12263f"/>
        <path id="Trazado_732704" data-name="Trazado 732704" d="M250.471,122.29l-2.55.221a13.448,13.448,0,0,0-4.231,1.078l-3.8,1.665a1.066,1.066,0,0,0-.584,1.312l1.493,4.506a1.061,1.061,0,0,0,1.125.724,20.176,20.176,0,0,0,5.885-1.342l3.235-1.309a1.474,1.474,0,0,0,.857-1.341l.163-3.712a1.632,1.632,0,0,0-1.592-1.8" transform="translate(-41.637 -21.281)" fill="#407bff"/>
        <path id="Trazado_732705" data-name="Trazado 732705" d="M242.133,125.622c.765-.885,1.687-4.571,1.133-5.519s-1.39,1.468-1.939,2.114c-1.514,1.783-2.774,3.59-1.7,4.111s1.176.833,2.508-.705" transform="translate(-41.632 -20.864)" fill="#407bff"/>
        <path id="Trazado_732706" data-name="Trazado 732706" d="M205.89,57.911c.046.567.385,1,.756.965s.634-.52.586-1.087-.385-1-.755-.965-.634.52-.587,1.087" transform="translate(-35.83 -9.889)" fill="#263238"/>
        <path id="Trazado_732707" data-name="Trazado 732707" d="M205.062,58.1a20.15,20.15,0,0,0,3.107,4.6,3.3,3.3,0,0,1-2.667.755Z" transform="translate(-35.687 -10.111)" fill="#ff5652"/>
        <path id="Trazado_732708" data-name="Trazado 732708" d="M203.49,54.166a.332.332,0,0,1-.264-.51,3.349,3.349,0,0,1,2.6-1.621.331.331,0,0,1,.338.327.337.337,0,0,1-.329.341,2.677,2.677,0,0,0-2.043,1.307.338.338,0,0,1-.3.157" transform="translate(-35.358 -9.055)" fill="#263238"/>
        <path id="Trazado_732709" data-name="Trazado 732709" d="M182.422,54.782c1,6.922,1.232,11.027,5.043,14.279,5.733,4.892,14.067.92,15.158-6.179.982-6.391-.818-16.637-7.862-18.785a9.638,9.638,0,0,0-12.339,10.686" transform="translate(-31.729 -7.598)" fill="#ff8b7b"/>
        <path id="Trazado_732710" data-name="Trazado 732710" d="M197.551,56.885a3.269,3.269,0,0,0,.817-4.93c-1.123-1.327-3.115-3.625-1.991-4.6s6.9-2.962,4.78-6.946-6.618-6.434-9.58-3.472-3.881,1.43-8.682.817-6.946,4.289-5.311,6.23-4.29,2.911-2.349,5.465c-3.626,1.889-.1,7.814,2.757,10.367s.919,6.843,5.822,8.427,15.934-5.818,13.738-11.361" transform="translate(-30.227 -6.201)" fill="#12263f"/>
        <path id="Trazado_732711" data-name="Trazado 732711" d="M201.532,70.095a.462.462,0,0,1-.4-.224c-.155-.261-3.783-6.429-1.26-9.9.861-1.184,1.763-1.749,2.69-1.676,1.524.118,2.618,1.891,3.4,3.422a.46.46,0,1,1-.819.419c-.358-.7-1.448-2.83-2.654-2.925-.588-.04-1.216.392-1.876,1.3-2.168,2.984,1.271,8.831,1.307,8.89a.461.461,0,0,1-.159.63.455.455,0,0,1-.235.065" transform="translate(-34.629 -10.144)" fill="#407bff"/>
        <path id="Trazado_732712" data-name="Trazado 732712" d="M148.39,348.59a.167.167,0,0,1,0-.307c.33-.147,3.242-1.419,4.07-.894a.53.53,0,0,1,.25.46.935.935,0,0,1-.358.794c-.811.639-2.814.246-3.936-.045a.093.093,0,0,1-.021-.007m3.828-.949c-.52-.214-2.089.282-3.236.752,1.54.348,2.7.347,3.159-.012a.611.611,0,0,0,.232-.525.2.2,0,0,0-.095-.183.4.4,0,0,0-.059-.031" transform="translate(-25.806 -60.434)" fill="#407bff"/>
        <path id="Trazado_732713" data-name="Trazado 732713" d="M149.536,345.387a1.257,1.257,0,0,1,.941-.229c.457.07.58.316.6.5.079.809-1.687,2.233-2.558,2.567a.2.2,0,0,1-.122-.009.064.064,0,0,1-.044-.017.183.183,0,0,1-.062-.159,4.737,4.737,0,0,1,1.248-2.654m1.2.307c0-.026-.008-.106-.15-.158a1.149,1.149,0,0,0-.167-.053.735.735,0,0,0-.14-.009.956.956,0,0,0-.554.184,3.865,3.865,0,0,0-1.046,2.119c.9-.466,2.11-1.6,2.057-2.083" transform="translate(-25.806 -60.065)" fill="#407bff"/>
        <path id="Trazado_732714" data-name="Trazado 732714" d="M139.822,344.69l6.8,1.77,4.594-15.764-6.8-1.77Z" transform="translate(-24.333 -57.243)" fill="#ff8b7b"/>
        <path id="Trazado_732715" data-name="Trazado 732715" d="M146.424,348.1l-7.444-1.94a.544.544,0,0,0-.656.328L136,352.366a1.149,1.149,0,0,0,.785,1.5c2.693.653,3.592.668,6.967,1.548,3.947,1.029,4.629,3.175,9.411,3.215,2.892.025,3.425-2.891,2.194-3.18-3.9-.915-6.115-4.307-7.373-6.383a2.487,2.487,0,0,0-1.556-.975" transform="translate(-23.655 -60.238)" fill="#12263f"/>
        <g id="Grupo_1032537" data-name="Grupo 1032537" transform="translate(117.712 271.686)" opacity="0.2">
          <g id="Grupo_1032536" data-name="Grupo 1032536">
            <g id="Grupo_1032535" data-name="Grupo 1032535" clip-path="url(#clip-path-23)">
              <path id="Trazado_732716" data-name="Trazado 732716" d="M151.678,330.7l-2.367,8.126-6.8-1.77,2.367-8.127Z" transform="translate(-142.513 -328.929)"/>
            </g>
          </g>
        </g>
        <path id="Trazado_732717" data-name="Trazado 732717" d="M156.422,232.53c4.065-26.486,2.331-52.272,8.027-67.352l24.938-.4s-10.817,48.3-15.684,69.42c-5.057,21.963-21.111,72.921-21.111,72.921l-11-2.886s8.37-52.59,14.835-71.7" transform="translate(-24.64 -28.676)" fill="#4db1f0"/>
        <g id="Grupo_1032540" data-name="Grupo 1032540" transform="translate(149.791 150.766)" opacity="0.2">
          <g id="Grupo_1032539" data-name="Grupo 1032539">
            <g id="Grupo_1032538" data-name="Grupo 1032538" clip-path="url(#clip-path-24)">
              <path id="Trazado_732718" data-name="Trazado 732718" d="M181.352,213.195c0,5.236.385,10.907.912,16.954,3.22-14.135,7.72-34.125,10.756-47.616-9.167,6.833-11.668,17.347-11.668,30.663" transform="translate(-181.352 -182.532)"/>
            </g>
          </g>
        </g>
        <path id="Trazado_732719" data-name="Trazado 732719" d="M198.2,61.5a5.592,5.592,0,0,0,2.692,3.353c1.744.935,3.064-.518,2.952-2.386-.1-1.683-1.128-4.2-3.059-4.36A2.553,2.553,0,0,0,198.2,61.5" transform="translate(-34.473 -10.111)" fill="#ff8b7b"/>
        <path id="Trazado_732720" data-name="Trazado 732720" d="M204.712,59.877c2.166.387,2.5,2.6,2.5,3.575s-1.954,8.375-5.918,9.779-3.964.46-3.377-.548,5.9-6.014,6.792-12.806" transform="translate(-34.395 -10.42)" fill="#407bff"/>
        <path id="Trazado_732721" data-name="Trazado 732721" d="M189.659,232.718c-3.4-27.746-7.97-53.065-4.43-67.8l24.307-.392s-1.408,49.406-2.584,70.87c-1.22,22.316-2.932,74.708-2.932,74.708l-11.944.182s-4.069-49.571-2.417-77.569" transform="translate(-32.013 -28.632)" fill="#4db1f0"/>
        <path id="Trazado_732722" data-name="Trazado 732722" d="M205.986,340.06l-14.2.223-.8-4.6,15.829-.491Z" transform="translate(-33.237 -58.333)" fill="#12263f"/>
        <path id="Trazado_732723" data-name="Trazado 732723" d="M153.089,338.618l-13.742-3.581.458-4.646,15.385,3.759Z" transform="translate(-24.25 -57.497)" fill="#12263f"/>
      </g>
    </g>
    <g id="Grupo_1032568" data-name="Grupo 1032568">
      <g id="Grupo_1032567" data-name="Grupo 1032567" clip-path="url(#clip-path)">
        <path id="Trazado_732724" data-name="Trazado 732724" d="M345.737,59.133c-8.677,7.014-10.886,18.335-7.761,23.465,4.442,7.293,22.3,9.232,30.769,4.839,3.94-2.043,7.5-25.22-3.937-29.651-4.318-6.235-14.158-2.625-19.071,1.346" transform="translate(-58.583 -9.471)" fill="#12263f"/>
        <path id="Trazado_732725" data-name="Trazado 732725" d="M380.3,324.813l-6.3,4.488-17.67-16.809,7.608-8.244Z" transform="translate(-62.011 -52.948)" fill="#ffc3bd"/>
        <path id="Trazado_732726" data-name="Trazado 732726" d="M375.449,331.353l6.381-5.9a.592.592,0,0,1,.783-.056l5.014,4.06a1.2,1.2,0,0,1-.053,1.789c-2.257,2.022-3.44,2.891-6.247,5.487-1.726,1.6-5.146,5.068-7.53,7.273-2.333,2.157-4.513.113-3.7-1.005,3.638-5.015,4.269-7.873,4.7-10.44a2.131,2.131,0,0,1,.653-1.206" transform="translate(-64.377 -56.607)" fill="#12263f"/>
        <path id="Trazado_732727" data-name="Trazado 732727" d="M374.505,335.7a3.052,3.052,0,0,1-1.674.947.9.9,0,0,1-.8-.389.556.556,0,0,1-.076-.547c.372-1,3.619-2.011,3.988-2.124a.164.164,0,0,1,.188.064.178.178,0,0,1-.012.2,14.158,14.158,0,0,1-1.615,1.844m-2.01-.165a.777.777,0,0,0-.21.278.211.211,0,0,0,.035.219.581.581,0,0,0,.521.26c.608-.028,1.589-.842,2.67-2.2a10.412,10.412,0,0,0-3.016,1.445" transform="translate(-64.724 -58.053)" fill="#407bff"/>
        <path id="Trazado_732728" data-name="Trazado 732728" d="M376.156,333.626a.183.183,0,0,1-.065.04c-.937.339-3.316.43-3.758-.27-.1-.166-.157-.443.183-.824a1.4,1.4,0,0,1,.942-.472c1.219-.1,2.648,1.209,2.708,1.265a.167.167,0,0,1,.046.166.2.2,0,0,1-.057.1m-3.308-.907a1.009,1.009,0,0,0-.078.079c-.225.25-.157.358-.135.392.265.42,1.993.482,3.038.236a3.758,3.758,0,0,0-2.212-.973,1,1,0,0,0-.613.265" transform="translate(-64.783 -57.794)" fill="#407bff"/>
        <path id="Trazado_732729" data-name="Trazado 732729" d="M366.079,348.117l-7.471.258-1.434-26.087,10.372.148Z" transform="translate(-62.159 -56.087)" fill="#ffc3bd"/>
        <path id="Trazado_732730" data-name="Trazado 732730" d="M355.939,350.973l8.38-.059a.538.538,0,0,1,.561.5l.505,6.62a1.309,1.309,0,0,1-1.286,1.335c-2.918-.03-4.315-.191-8-.165-2.267.017-5.6.275-8.726.3-3.063.022-3.088-3.071-1.765-3.36,5.931-1.3,6.972-3.038,9.053-4.7a2.088,2.088,0,0,1,1.278-.467" transform="translate(-60.001 -61.069)" fill="#12263f"/>
        <path id="Trazado_732731" data-name="Trazado 732731" d="M336.62,112.936c-.445,1.761-.935,3.444-1.44,5.154s-1.03,3.4-1.594,5.094c-1.131,3.388-2.342,6.748-3.855,10.142-.381.85-.777,1.706-1.238,2.578a22.159,22.159,0,0,1-1.665,2.742,9.084,9.084,0,0,1-1.648,1.777,4.964,4.964,0,0,1-2.3.967,6.335,6.335,0,0,1-1.451.046,9.814,9.814,0,0,1-1.947-.383c-.553-.162-1.049-.344-1.526-.532a33.5,33.5,0,0,1-5.048-2.662,45.551,45.551,0,0,1-4.445-3.223,2.115,2.115,0,0,1,1.982-3.648l.06.019,4.895,1.564a47.619,47.619,0,0,0,4.666,1.3,9.511,9.511,0,0,0,1,.166,1.929,1.929,0,0,0,.646,0c.035-.011.024-.036-.144-.023a2.2,2.2,0,0,0-1.1.473l-.1.078c-.024.021-.009,0-.015.008l-.007,0-.01,0s-.015.023.017-.035c.05-.09.087-.116.163-.259a15.767,15.767,0,0,0,.915-1.821c.311-.7.62-1.444.913-2.209,1.168-3.072,2.209-6.345,3.217-9.618l1.493-4.938,1.445-4.938,0-.017a4.2,4.2,0,0,1,8.11,2.21" transform="translate(-53.547 -18.743)" fill="#4db1f0"/>
        <path id="Trazado_732732" data-name="Trazado 732732" d="M303.205,128.109l-2.778-.666a1.472,1.472,0,0,0-1.782,1.118l-.8,3.686a1.472,1.472,0,0,0,.8,1.637l4.293,2.076a6.6,6.6,0,0,0,3.807,2.266,2.072,2.072,0,0,0,2.137-1.4l.312-.866a2.122,2.122,0,0,0-.273-1.958l-2.889-4.013a4.9,4.9,0,0,0-2.822-1.884" transform="translate(-51.828 -22.172)" fill="#12263f"/>
        <path id="Trazado_732733" data-name="Trazado 732733" d="M307.851,134.144c-.3-1.149.453-5.18,1.3-5.91s.788,1.747.963,2.705c.428,2.338,1.393,4.162.618,5.69-.548,1.08-2.35-.486-2.878-2.485" transform="translate(-53.563 -22.293)" fill="#263238"/>
        <path id="Trazado_732734" data-name="Trazado 732734" d="M332.077,112.4c-.368,6.557-.386,17.369.584,35.2l30.067.981c.731-11.2,1.452-18.508,7.9-38.434a6.347,6.347,0,0,0-5.015-8.236c-1.66-.263-3.481-.5-5.324-.653a94.488,94.488,0,0,0-13.652-.444c-1.243.073-2.524.182-3.774.308A12.016,12.016,0,0,0,332.077,112.4" transform="translate(-57.751 -17.526)" fill="#4db1f0"/>
        <path id="Trazado_732735" data-name="Trazado 732735" d="M349.29,100.826s-4.282.695-.9,9.829a46.748,46.748,0,0,0,14.557-9.384Z" transform="translate(-60.403 -17.547)" fill="#fff"/>
        <path id="Trazado_732736" data-name="Trazado 732736" d="M361.55,121.6a3.706,3.706,0,1,1-2.833-4.758,3.929,3.929,0,0,1,2.833,4.758" transform="translate(-61.647 -20.323)" fill="#fff"/>
        <g id="Grupo_1032545" data-name="Grupo 1032545" transform="translate(306.557 95.87)" opacity="0.2">
          <g id="Grupo_1032544" data-name="Grupo 1032544">
            <g id="Grupo_1032543" data-name="Grupo 1032543" clip-path="url(#clip-path-26)">
              <path id="Trazado_732737" data-name="Trazado 732737" d="M371.51,116.069c-.373,4.549-.679,12.349.258,17.236.679-3.256,1.59-6.9,2.853-11.264Z" transform="translate(-371.148 -116.069)"/>
            </g>
          </g>
        </g>
        <path id="Trazado_732738" data-name="Trazado 732738" d="M363.338,82.5c-1.332,4.412-3.056,12.519-.3,15.583,0,0-4.587,3.8-13.881,7.692-3.525-7.122.229-8.137.229-8.137,5.024-1.023,5.288-4.7,4.8-8.178Z" transform="translate(-60.501 -14.357)" fill="#ffc3bd"/>
        <g id="Grupo_1032548" data-name="Grupo 1032548" transform="translate(293.691 71.57)" opacity="0.2">
          <g id="Grupo_1032547" data-name="Grupo 1032547">
            <g id="Grupo_1032546" data-name="Grupo 1032546" clip-path="url(#clip-path-27)">
              <path id="Trazado_732739" data-name="Trazado 732739" d="M362.183,86.649l-6.612,3.528a14.062,14.062,0,0,1,.161,2.464c1.424.046,5.033-1.231,6.3-3.591a3.461,3.461,0,0,0,.154-2.4" transform="translate(-355.571 -86.649)"/>
            </g>
          </g>
        </g>
        <path id="Trazado_732740" data-name="Trazado 732740" d="M367.861,68.965c-.8,7.357-.985,10.487-4.891,14.1-5.874,5.43-14.734,2.836-16.145-4.611-1.27-6.7.255-17.606,7.615-20.2a10.092,10.092,0,0,1,13.42,10.714" transform="translate(-60.288 -10.032)" fill="#ffc3bd"/>
        <path id="Trazado_732741" data-name="Trazado 732741" d="M359.875,58.956c-5.079,2.919,5.835,14.265,8.593,14.112,4.68-2.755,4.755-8.412,2.149-11.112s-4.513-6.58-10.743-3" transform="translate(-62.397 -10.009)" fill="#12263f"/>
        <path id="Trazado_732742" data-name="Trazado 732742" d="M365.231,83a.467.467,0,0,1-.081-.927c3.279-.576,5.347-1.64,5.825-3a2.907,2.907,0,0,0-.871-2.77,1.618,1.618,0,0,0-1.168-.569c-1.962-.134-4.749,2.365-5.8,3.3l-.216.191a.467.467,0,1,1-.615-.7l.211-.187c1.238-1.1,4.147-3.69,6.479-3.534a2.541,2.541,0,0,1,1.812.885,3.732,3.732,0,0,1,1.051,3.7c-.611,1.74-2.813,2.954-6.545,3.609a.452.452,0,0,1-.08.007" transform="translate(-63.024 -13.017)" fill="#407bff"/>
        <path id="Trazado_732743" data-name="Trazado 732743" d="M363.341,58.262c3.608,1.678-12.94,1.734-16.353,6.094,2.847-4.329,7.069-10.411,16.353-6.094" transform="translate(-60.386 -9.882)" fill="#263238"/>
        <path id="Trazado_732744" data-name="Trazado 732744" d="M329.84,157.47s-15.507,65.964-14.123,82.867c1.618,19.766,33.479,48.136,33.479,48.136l9.063-9.879s-19.237-21.744-26.529-38.742c2.339-17,23.653-65.423,22.755-81.577Z" transform="translate(-54.929 -27.404)" fill="#407bff"/>
        <g id="Grupo_1032551" data-name="Grupo 1032551" transform="translate(260.7 130.066)" opacity="0.4">
          <g id="Grupo_1032550" data-name="Grupo 1032550">
            <g id="Grupo_1032549" data-name="Grupo 1032549" clip-path="url(#clip-path-28)">
              <path id="Trazado_732745" data-name="Trazado 732745" d="M329.84,157.47s-15.507,65.964-14.123,82.867c1.618,19.766,33.479,48.136,33.479,48.136l9.063-9.879s-19.237-21.744-26.529-38.742c2.339-17,23.653-65.423,22.755-81.577Z" transform="translate(-315.629 -157.47)" fill="#c9d3dd"/>
            </g>
          </g>
        </g>
        <path id="Trazado_732746" data-name="Trazado 732746" d="M366.625,304.79l-10.879,9.786-3.209-2,11.887-11.292Z" transform="translate(-61.352 -52.432)" fill="#407bff"/>
        <g id="Grupo_1032554" data-name="Grupo 1032554" transform="translate(278.167 155.45)" opacity="0.3">
          <g id="Grupo_1032553" data-name="Grupo 1032553">
            <g id="Grupo_1032552" data-name="Grupo 1032552" clip-path="url(#clip-path-29)">
              <path id="Trazado_732747" data-name="Trazado 732747" d="M345.525,191.272c-8.708,12.067-9.135,34.258-8.592,46.723,2.99-11.455,9.391-28.23,14.381-43.637-.116-5.921-1.712-8.735-5.789-3.086" transform="translate(-336.776 -188.203)" fill="#407bff"/>
            </g>
          </g>
        </g>
        <path id="Trazado_732748" data-name="Trazado 732748" d="M339.633,157.158s6.1,57.144,8.033,76.663c2.3,23.174,5.67,60.341,5.67,60.341l11.157-.463s2.447-31.509.629-52.273c.333-27.56,5.146-66.009-1.038-83.028Z" transform="translate(-59.106 -27.35)" fill="#407bff"/>
        <g id="Grupo_1032557" data-name="Grupo 1032557" transform="translate(280.527 129.808)" opacity="0.4">
          <g id="Grupo_1032556" data-name="Grupo 1032556">
            <g id="Grupo_1032555" data-name="Grupo 1032555" clip-path="url(#clip-path-30)">
              <path id="Trazado_732749" data-name="Trazado 732749" d="M339.633,157.158s6.1,57.144,8.033,76.663c2.3,23.174,5.67,60.341,5.67,60.341l11.157-.463s2.447-31.509.629-52.273c.333-27.56,5.146-66.009-1.038-83.028Z" transform="translate(-339.633 -157.158)" fill="#c9d3dd"/>
            </g>
          </g>
        </g>
        <path id="Trazado_732750" data-name="Trazado 732750" d="M367.868,323.926l-12.794-.361-.895-4.026,14.475-.4Z" transform="translate(-61.637 -55.539)" fill="#407bff"/>
        <path id="Trazado_732751" data-name="Trazado 732751" d="M357.51,73.167c-.029.6-.371,1.073-.762,1.054s-.689-.52-.659-1.122.368-1.072.762-1.054.687.521.659,1.122" transform="translate(-61.969 -12.538)" fill="#263238"/>
        <path id="Trazado_732752" data-name="Trazado 732752" d="M349.289,72.777c-.029.6-.37,1.073-.762,1.054s-.688-.52-.66-1.121.37-1.073.763-1.055.687.521.659,1.122" transform="translate(-60.539 -12.47)" fill="#263238"/>
        <path id="Trazado_732753" data-name="Trazado 732753" d="M348.7,71.6l-1.423-.484s.687,1.162,1.423.484" transform="translate(-60.436 -12.377)" fill="#263238"/>
        <path id="Trazado_732754" data-name="Trazado 732754" d="M351.573,74.239a16.055,16.055,0,0,1-2.323,3.733,2.587,2.587,0,0,0,2.122.5Z" transform="translate(-60.78 -12.92)" fill="#ed847e"/>
        <path id="Trazado_732755" data-name="Trazado 732755" d="M355.762,81.8a5.741,5.741,0,0,1-1.012.039.177.177,0,0,1,.017-.353,4.762,4.762,0,0,0,3.968-1.676.176.176,0,0,1,.287.206,4.931,4.931,0,0,1-3.26,1.784" transform="translate(-61.708 -13.876)" fill="#263238"/>
        <path id="Trazado_732756" data-name="Trazado 732756" d="M372.781,78.675a5.407,5.407,0,0,1-3.382,2.371c-1.854.4-2.666-1.289-2.054-2.978.55-1.521,2.178-3.56,3.993-3.2a2.429,2.429,0,0,1,1.443,3.806" transform="translate(-63.894 -13.022)" fill="#ffc3bd"/>
        <path id="Trazado_732757" data-name="Trazado 732757" d="M359.707,70.261a.355.355,0,0,1-.179-.214,2.813,2.813,0,0,0-1.7-1.9.353.353,0,1,1,.2-.677,3.5,3.5,0,0,1,2.181,2.374.353.353,0,0,1-.5.415" transform="translate(-62.228 -11.74)" fill="#263238"/>
        <path id="Trazado_732758" data-name="Trazado 732758" d="M346.677,68.813a.353.353,0,0,1-.33-.559,3.5,3.5,0,0,1,2.856-1.5.353.353,0,0,1-.039.705,2.791,2.791,0,0,0-2.248,1.208.351.351,0,0,1-.24.141" transform="translate(-60.263 -11.618)" fill="#263238"/>
        <path id="Trazado_732759" data-name="Trazado 732759" d="M353.276,351.731a.983.983,0,0,1-.156-.857.664.664,0,0,1,.385-.5c.895-.4,3.061,1.047,3.3,1.213a.166.166,0,0,1,.065.178.2.2,0,0,1-.143.142c-.981.235-2.726.536-3.383-.1a.931.931,0,0,1-.073-.078m2.973-.073c-.885-.552-2.149-1.173-2.62-.963a.275.275,0,0,0-.162.225.634.634,0,0,0,.138.626c.354.342,1.328.379,2.644.112" transform="translate(-61.448 -60.963)" fill="#407bff"/>
        <path id="Trazado_732760" data-name="Trazado 732760" d="M356.1,350.695a2.834,2.834,0,0,1-.828-2.015.678.678,0,0,1,.628-.5.864.864,0,0,1,.732.23c.758.71.627,2.859.621,2.95a.2.2,0,0,1-.1.154.178.178,0,0,1-.176,0,3.7,3.7,0,0,1-.878-.824m.354-1.935a.993.993,0,0,0-.074-.08.541.541,0,0,0-.461-.146c-.227.029-.282.13-.3.213-.137.513.627,1.716,1.3,2.276a4.236,4.236,0,0,0-.458-2.263" transform="translate(-61.823 -60.592)" fill="#407bff"/>
        <path id="Trazado_732761" data-name="Trazado 732761" d="M363.376,156.256l.48,2.746c.083.214-.187.421-.534.41L332.377,158.4c-.271-.009-.482-.151-.48-.324l.017-2.729c0-.189.254-.341.55-.331l30.446.994a.5.5,0,0,1,.466.244" transform="translate(-57.76 -26.978)" fill="#fff"/>
        <path id="Trazado_732762" data-name="Trazado 732762" d="M364.552,159.694l.815.026c.163.006.295-.075.295-.179l-.007-3.547c0-.1-.134-.192-.3-.2l-.816-.026c-.162,0-.295.075-.295.179l.007,3.547c0,.1.133.193.3.2" transform="translate(-63.39 -27.108)" fill="#407bff"/>
        <g id="Grupo_1032560" data-name="Grupo 1032560" transform="translate(300.86 128.661)" opacity="0.4">
          <g id="Grupo_1032559" data-name="Grupo 1032559">
            <g id="Grupo_1032558" data-name="Grupo 1032558" clip-path="url(#clip-path-31)">
              <path id="Trazado_732763" data-name="Trazado 732763" d="M364.552,159.694l.815.026c.163.006.295-.075.295-.179l-.007-3.547c0-.1-.134-.192-.3-.2l-.816-.026c-.162,0-.295.075-.295.179l.007,3.547c0,.1.133.193.3.2" transform="translate(-364.25 -155.77)" fill="#fff"/>
            </g>
          </g>
        </g>
        <path id="Trazado_732764" data-name="Trazado 732764" d="M335.151,158.735l.815.026c.163.006.3-.075.295-.179l-.007-3.547c0-.1-.134-.192-.3-.2l-.815-.026c-.163,0-.3.075-.295.179l.007,3.547c0,.1.133.193.3.2" transform="translate(-58.273 -26.942)" fill="#407bff"/>
        <g id="Grupo_1032563" data-name="Grupo 1032563" transform="translate(276.576 127.869)" opacity="0.4">
          <g id="Grupo_1032562" data-name="Grupo 1032562">
            <g id="Grupo_1032561" data-name="Grupo 1032561" clip-path="url(#clip-path-32)">
              <path id="Trazado_732765" data-name="Trazado 732765" d="M335.151,158.735l.815.026c.163.006.3-.075.295-.179l-.007-3.547c0-.1-.134-.192-.3-.2l-.815-.026c-.163,0-.3.075-.295.179l.007,3.547c0,.1.133.193.3.2" transform="translate(-334.849 -154.81)" fill="#fff"/>
            </g>
          </g>
        </g>
        <path id="Trazado_732766" data-name="Trazado 732766" d="M349.852,159.214l.815.026c.163.006.3-.075.295-.178l-.007-3.548c0-.1-.134-.192-.3-.2l-.815-.026c-.163,0-.3.075-.295.179l.007,3.547c0,.1.133.193.3.2" transform="translate(-60.832 -27.025)" fill="#407bff"/>
        <g id="Grupo_1032566" data-name="Grupo 1032566" transform="translate(288.717 128.265)" opacity="0.4">
          <g id="Grupo_1032565" data-name="Grupo 1032565">
            <g id="Grupo_1032564" data-name="Grupo 1032564" clip-path="url(#clip-path-31)">
              <path id="Trazado_732767" data-name="Trazado 732767" d="M349.852,159.214l.815.026c.163.006.3-.075.295-.178l-.007-3.548c0-.1-.134-.192-.3-.2l-.815-.026c-.163,0-.3.075-.295.179l.007,3.547c0,.1.133.193.3.2" transform="translate(-349.549 -155.29)" fill="#fff"/>
            </g>
          </g>
        </g>
        <path id="Trazado_732768" data-name="Trazado 732768" d="M373.285,107c1.126,4.811,2.029,9.556,2.73,14.43.349,2.431.677,4.878.879,7.371a56.847,56.847,0,0,1,.192,7.748c-.048.693-.112,1.4-.224,2.147-.055.375-.144.784-.22,1.171l-.174.648a6.409,6.409,0,0,1-.278.837,5.892,5.892,0,0,1-1.436,2.067,6.676,6.676,0,0,1-1.716,1.128,9.006,9.006,0,0,1-2.83.733,19.631,19.631,0,0,1-4.379-.1c-1.338-.169-2.608-.424-3.851-.706a76.438,76.438,0,0,1-14.042-4.915,2.091,2.091,0,0,1,1.294-3.951l.064.014c4.588.972,9.292,1.906,13.791,2.412,1.122.125,2.233.2,3.287.222a12.472,12.472,0,0,0,2.807-.183,1.546,1.546,0,0,0,.626-.227c-.008-.01-.087.012-.226.132a1.641,1.641,0,0,0-.436.587c-.073.206-.027.031-.021-.025l.045-.224.07-.606c.037-.444.054-.935.06-1.441a56.448,56.448,0,0,0-.5-6.628c-.3-2.282-.623-4.593-1.027-6.9-.806-4.61-1.729-9.3-2.684-13.858l-.012-.054a4.2,4.2,0,0,1,8.207-1.82" transform="translate(-60.337 -18.056)" fill="#4db1f0"/>
        <path id="Trazado_732769" data-name="Trazado 732769" d="M341.481,135.086l-2.519-.429a1.471,1.471,0,0,0-1.7,1.235l-.554,3.733a1.472,1.472,0,0,0,.905,1.58l4.421,1.785s3.636,2.84,6.519,1.494l-.014-3.081-3.625-4.344a5.718,5.718,0,0,0-3.431-1.973" transform="translate(-58.594 -23.431)" fill="#12263f"/>
        <path id="Trazado_732770" data-name="Trazado 732770" d="M356.919,71.993l-1.423-.484s.687,1.162,1.423.484" transform="translate(-61.867 -12.445)" fill="#263238"/>
        <path id="Trazado_732771" data-name="Trazado 732771" d="M361.218,79.382l1.384,2.9a1.152,1.152,0,0,1,.107.62c-.168,1.569,2.526,7.642-12.266,6.958-4.35-.2-4.871-8.494-4.426-11.107a1.113,1.113,0,0,1,.857-.91l3.189-.687a1.04,1.04,0,0,1,.392-.01l9.96,1.625a1.085,1.085,0,0,1,.8.61" transform="translate(-60.195 -13.423)" fill="#407bff"/>
      </g>
    </g>
  </g>
</svg>
