<svg xmlns="http://www.w3.org/2000/svg" xmlns:xlink="http://www.w3.org/1999/xlink" width="190" height="198" viewBox="0 0 190 198">
  <defs>
    <clipPath id="clip-path">
      <circle id="Elipse_8399" data-name="Elipse 8399" cx="95" cy="95" r="95" fill="#fff"/>
    </clipPath>
  </defs>
  <g id="Grupo_1036338" data-name="Grupo 1036338" transform="translate(-296 -6687.123)">
    <g id="Grupo_1029804" data-name="Grupo 1029804" transform="translate(296 6695.123)">
      <circle id="Elipse_8399-2" data-name="Elipse 8399" cx="95" cy="95" r="95" fill="#fff"/>
    </g>
    <g id="Grupo_1033367" data-name="Grupo 1033367" transform="translate(296 6687.123)">
      <g id="Enmascarar_grupo_1026479" data-name="Enmascarar grupo 1026479" clip-path="url(#clip-path)">
        <g id="carbohidratos" transform="translate(9 28.736)">
          <g id="Grupo_1033370" data-name="Grupo 1033370" transform="translate(2.346 2.338)">
            <ellipse id="Elipse_8456" data-name="Elipse 8456" cx="30.669" cy="59.296" rx="30.669" ry="59.296" transform="translate(90.958)" fill="#ffa031"/>
            <path id="Trazado_733693" data-name="Trazado 733693" d="M125.331,97.422a8.064,8.064,0,0,0-6.462-7.9,5.25,5.25,0,0,0-7.08-5.839,6.686,6.686,0,0,0-8.988-5.047,6.745,6.745,0,0,0-11.33-3.622,5.944,5.944,0,0,0-9.031-3.435,7.425,7.425,0,0,0-11.879,0,5.942,5.942,0,0,0-9.03,3.435A6.745,6.745,0,0,0,50.2,78.635a6.686,6.686,0,0,0-8.988,5.047,5.237,5.237,0,0,0-7.08,5.839,8.064,8.064,0,0,0-6.454,7.9Z" transform="translate(-14.161 -38.126)" fill="#d2e1f1"/>
            <rect id="Rectángulo_352530" data-name="Rectángulo 352530" width="72.613" height="11.319" transform="translate(26.036 107.274)" fill="#4db1f0"/>
            <path id="Trazado_733694" data-name="Trazado 733694" d="M37.354,151.46S11.318,139.5,11.318,103.483H136c0,36.021-26.037,47.977-26.037,47.977Z" transform="translate(-11.318 -44.186)" fill="#4db1f0"/>
            <path id="Trazado_733695" data-name="Trazado 733695" d="M118.836,124.6h25.829a32.062,32.062,0,0,1,32.062,32.062v3.109a6.68,6.68,0,0,1-6.68,6.68H93.453a6.68,6.68,0,0,1-6.68-6.68V156.66A32.062,32.062,0,0,1,118.836,124.6Z" transform="translate(-24.431 -47.856)" fill="#ffa031"/>
          </g>
          <g id="Grupo_1033371" data-name="Grupo 1033371">
            <circle id="Elipse_8457" data-name="Elipse 8457" cx="2.588" cy="2.588" r="2.588" transform="matrix(0.987, -0.159, 0.159, 0.987, 41.496, 49.754)" fill="#12263f"/>
            <circle id="Elipse_8458" data-name="Elipse 8458" cx="2.588" cy="2.588" r="2.588" transform="translate(62.287 42.01)" fill="#12263f"/>
            <circle id="Elipse_8459" data-name="Elipse 8459" cx="2.588" cy="2.588" r="2.588" transform="translate(81.359 49.098)" fill="#12263f"/>
            <circle id="Elipse_8460" data-name="Elipse 8460" cx="2.588" cy="2.588" r="2.588" transform="translate(115.684 24.031)" fill="#12263f"/>
            <path id="Trazado_733696" data-name="Trazado 733696" d="M178.156,113.3a2.588,2.588,0,1,0-2.588-2.588,2.588,2.588,0,0,0,2.588,2.588Z" transform="translate(-37.517 -42.655)" fill="#12263f"/>
            <circle id="Elipse_8461" data-name="Elipse 8461" cx="2.588" cy="2.588" r="2.588" transform="translate(119.591 44.734)" fill="#12263f"/>
            <circle id="Elipse_8462" data-name="Elipse 8462" cx="2.588" cy="2.588" r="2.588" transform="translate(136.738 37.871)" fill="#12263f"/>
            <path id="Trazado_733697" data-name="Trazado 733697" d="M165.459,90.519q0-2.167-.077-4.294a2.3,2.3,0,0,0-2.419-2.254,2.341,2.341,0,0,0-2.254,2.421q.072,2.044.075,4.127a103.354,103.354,0,0,1-3.524,27.253A34.381,34.381,0,0,0,136.122,106a67.964,67.964,0,0,0,1.727-15.483,2.338,2.338,0,0,0-2.338-2.338H124.036a10.435,10.435,0,0,0-6.113-7.266,7.656,7.656,0,0,0-7.9-6.828,9.056,9.056,0,0,0-3.973-4.081c4.222-21.554,14.936-36.445,26.4-36.445,8.756,0,17.209,8.558,22.612,22.89a2.338,2.338,0,1,0,4.375-1.649c-6.208-16.471-16.046-25.917-26.986-25.917-13.931,0-26.227,16.022-30.965,40.094-.16.007-.318-.008-.48.008A9.084,9.084,0,0,0,89.044,64.7a8.283,8.283,0,0,0-9.4-2.878,9.774,9.774,0,0,0-12.941,0A8.283,8.283,0,0,0,57.3,64.7a9.092,9.092,0,0,0-11.966,4.291,8.351,8.351,0,0,0-.858-.041,9.036,9.036,0,0,0-8.159,5.142,7.654,7.654,0,0,0-7.9,6.828A10.435,10.435,0,0,0,22.3,88.181H10.825a2.338,2.338,0,0,0-2.338,2.338A61.739,61.739,0,0,0,14.9,118.906a2.338,2.338,0,0,0,4.164-2.128A56.16,56.16,0,0,1,13.2,92.857H133.135a61.586,61.586,0,0,1-1.755,12.779c-.108,0-.214-.008-.321-.008H105.23a34.446,34.446,0,0,0-34.177,30.53H37.41a42.482,42.482,0,0,1-11.623-9.477,2.338,2.338,0,1,0-3.512,3.086A48.255,48.255,0,0,0,34.53,139.91v9.906a2.338,2.338,0,0,0,2.338,2.338H156.441a9.028,9.028,0,0,0,9.017-9.018v-3.107a34.174,34.174,0,0,0-4.765-17.439A105.607,105.607,0,0,0,165.459,90.519ZM31.265,84.908a2.337,2.337,0,0,0,1.841-2.695,2.9,2.9,0,0,1,3.938-3.254A2.341,2.341,0,0,0,40.181,77.2a4.346,4.346,0,0,1,5.849-3.284,2.338,2.338,0,0,0,3.137-1.758,4.409,4.409,0,0,1,7.406-2.363,2.335,2.335,0,0,0,3.885-1.082,3.607,3.607,0,0,1,5.477-2.085,2.338,2.338,0,0,0,3.159-.534,5.089,5.089,0,0,1,8.149,0,2.338,2.338,0,0,0,3.159.534,3.607,3.607,0,0,1,5.477,2.085,2.337,2.337,0,0,0,3.885,1.081,4.409,4.409,0,0,1,7.406,2.365,2.337,2.337,0,0,0,3.135,1.759,4.347,4.347,0,0,1,5.85,3.284,2.341,2.341,0,0,0,3.137,1.763,2.895,2.895,0,0,1,3.937,3.254,2.337,2.337,0,0,0,1.84,2.693,5.71,5.71,0,0,1,4.063,3.27H27.2A5.711,5.711,0,0,1,31.265,84.908ZM39.2,140.831H70.83v2.3a8.965,8.965,0,0,0,1.118,4.342H39.2Zm121.584,2.3a4.347,4.347,0,0,1-4.342,4.342H79.847a4.347,4.347,0,0,1-4.342-4.342v-3.1A29.758,29.758,0,0,1,102.892,110.4v9.973a2.338,2.338,0,0,0,4.676,0V110.3h8.239v10.073a2.338,2.338,0,0,0,4.676,0V110.3h8.239v10.073a2.338,2.338,0,0,0,4.676,0V110.4a29.758,29.758,0,0,1,27.386,29.624Z" transform="translate(-8.48 -28.885)" fill="#12263f"/>
            <path id="Trazado_733698" data-name="Trazado 733698" d="M190.173,76.568c.393,1.87.737,3.814,1.026,5.763a2.338,2.338,0,1,0,4.626-.684c-.3-2.04-.668-4.072-1.069-6.037a2.338,2.338,0,0,0-4.577.958Z" transform="translate(-40.047 -36.682)" fill="#12263f"/>
          </g>
        </g>
      </g>
    </g>
  </g>
</svg>
