<svg id="Grupo_1032632" data-name="Grupo 1032632" xmlns="http://www.w3.org/2000/svg" xmlns:xlink="http://www.w3.org/1999/xlink" width="418.206" height="260.079" viewBox="0 0 418.206 260.079">
  <defs>
    <clipPath id="clip-path">
      <rect id="Rectángulo_352017" data-name="Rectángulo 352017" width="418.206" height="260.079" fill="none"/>
    </clipPath>
    <clipPath id="clip-path-6">
      <rect id="Rectángulo_351993" data-name="Rectángulo 351993" width="41.116" height="23.138" fill="none"/>
    </clipPath>
    <clipPath id="clip-path-7">
      <rect id="Rectángulo_351994" data-name="Rectángulo 351994" width="3.412" height="47.179" fill="none"/>
    </clipPath>
    <clipPath id="clip-path-8">
      <rect id="Rectángulo_351995" data-name="Rectángulo 351995" width="3.438" height="45.613" fill="none"/>
    </clipPath>
    <clipPath id="clip-path-12">
      <rect id="Rectángulo_351999" data-name="Rectángulo 351999" width="17.046" height="2.835" fill="none"/>
    </clipPath>
    <clipPath id="clip-path-13">
      <rect id="Rectángulo_352000" data-name="Rectángulo 352000" width="11.758" height="6.298" fill="none"/>
    </clipPath>
    <clipPath id="clip-path-14">
      <rect id="Rectángulo_352001" data-name="Rectángulo 352001" width="7.331" height="15.915" fill="none"/>
    </clipPath>
    <clipPath id="clip-path-15">
      <rect id="Rectángulo_352006" data-name="Rectángulo 352006" width="30.985" height="27.253" fill="none"/>
    </clipPath>
    <clipPath id="clip-path-16">
      <rect id="Rectángulo_352007" data-name="Rectángulo 352007" width="17.5" height="4.194" fill="none"/>
    </clipPath>
    <clipPath id="clip-path-18">
      <rect id="Rectángulo_352009" data-name="Rectángulo 352009" width="28.678" height="18.917" fill="none"/>
    </clipPath>
    <clipPath id="clip-path-19">
      <rect id="Rectángulo_352010" data-name="Rectángulo 352010" width="11.737" height="34.834" fill="none"/>
    </clipPath>
    <clipPath id="clip-path-20">
      <rect id="Rectángulo_352011" data-name="Rectángulo 352011" width="16.978" height="6.111" fill="none"/>
    </clipPath>
    <clipPath id="clip-path-21">
      <rect id="Rectángulo_352012" data-name="Rectángulo 352012" width="13.524" height="2.656" fill="none"/>
    </clipPath>
    <clipPath id="clip-path-22">
      <rect id="Rectángulo_352013" data-name="Rectángulo 352013" width="39.21" height="27.996" fill="none"/>
    </clipPath>
    <clipPath id="clip-path-23">
      <rect id="Rectángulo_352014" data-name="Rectángulo 352014" width="12.924" height="10.955" fill="none"/>
    </clipPath>
  </defs>
  <g id="Grupo_1032631" data-name="Grupo 1032631" clip-path="url(#clip-path)">
    <g id="Grupo_1032572" data-name="Grupo 1032572">
      <g id="Grupo_1032571" data-name="Grupo 1032571" clip-path="url(#clip-path)">
        <path id="Trazado_732772" data-name="Trazado 732772" d="M82.781,20.326c.343-2.492-3.174-4.542-5.817-4.756a14.967,14.967,0,0,1-3.764-.325c-2.587-.9-3.62-4.244-6.145-5.308-1.887-.8-4.06-.087-5.889.833s-3.637,2.08-5.681,2.211c-1.778.114-3.709-.545-5.264.323-1.159.647-1.767,1.983-2.835,2.77a6.762,6.762,0,0,1-3.706,1.005,10.437,10.437,0,0,0-3.82.624,3.02,3.02,0,0,0-1.913,3.065Z" transform="translate(-15.822 -4.003)" fill="#ebebeb"/>
        <path id="Trazado_732773" data-name="Trazado 732773" d="M556.355,10.735c.343-2.492-3.174-4.542-5.817-4.756a14.94,14.94,0,0,1-3.764-.325c-2.587-.9-3.62-4.244-6.145-5.308-1.887-.8-4.06-.087-5.889.833s-3.638,2.08-5.681,2.211c-1.778.114-3.709-.545-5.265.323-1.159.647-1.766,1.983-2.834,2.77a6.763,6.763,0,0,1-3.706,1.005,10.437,10.437,0,0,0-3.82.624,3.02,3.02,0,0,0-1.913,3.065Z" transform="translate(-213.473 0)" fill="#ebebeb"/>
        <path id="Trazado_732774" data-name="Trazado 732774" d="M260.337,126.764c.232-1.687-2.149-3.075-3.937-3.219a10.167,10.167,0,0,1-2.547-.22c-1.751-.611-2.451-2.872-4.159-3.593a4.887,4.887,0,0,0-3.986.564,10.4,10.4,0,0,1-3.845,1.5c-1.2.077-2.511-.369-3.563.218-.785.438-1.2,1.342-1.919,1.876a4.574,4.574,0,0,1-2.508.68,7.056,7.056,0,0,0-2.586.423,2.043,2.043,0,0,0-1.295,2.074Z" transform="translate(-95.978 -49.874)" fill="#f5f5f5"/>
        <path id="Trazado_732775" data-name="Trazado 732775" d="M672.629,69.127c.232-1.687-2.149-3.075-3.937-3.218a10.168,10.168,0,0,1-2.547-.22c-1.751-.611-2.451-2.872-4.159-3.593A4.887,4.887,0,0,0,658,62.66a10.4,10.4,0,0,1-3.845,1.5c-1.2.077-2.51-.369-3.563.218-.784.438-1.2,1.342-1.919,1.876a4.574,4.574,0,0,1-2.508.68,7.056,7.056,0,0,0-2.586.423,2.043,2.043,0,0,0-1.295,2.074Z" transform="translate(-268.053 -25.819)" fill="#f5f5f5"/>
        <path id="Trazado_732776" data-name="Trazado 732776" d="M424.919,186.047H236.464A37.309,37.309,0,0,1,199.2,148.781v-75.8a8.315,8.315,0,0,0-8.306-8.306H124.086a5.417,5.417,0,0,0-5.411,5.41v28.03a33.544,33.544,0,0,1-33.506,33.506H21.284V103.529H85.169a5.417,5.417,0,0,0,5.411-5.411V70.088a33.543,33.543,0,0,1,33.506-33.505h66.806a36.442,36.442,0,0,1,36.4,36.4v75.8a9.182,9.182,0,0,0,9.171,9.171H424.919Z" transform="translate(-8.883 -15.268)" fill="#ebebeb"/>
        <path id="Trazado_732777" data-name="Trazado 732777" d="M212.482,64.323h0a3.381,3.381,0,0,1-3.381-3.381V26.228a3.381,3.381,0,0,1,6.762,0V60.942a3.381,3.381,0,0,1-3.381,3.381" transform="translate(-87.27 -9.535)" fill="#e0e0e0"/>
        <path id="Trazado_732778" data-name="Trazado 732778" d="M169.5,116.856h0a3.381,3.381,0,0,1-3.381,3.381H131.4a3.381,3.381,0,1,1,0-6.762h34.714a3.381,3.381,0,0,1,3.381,3.381" transform="translate(-53.432 -47.36)" fill="#e0e0e0"/>
        <path id="Trazado_732779" data-name="Trazado 732779" d="M91.869,184.177h0a3.381,3.381,0,0,1-3.381-3.381V146.082a3.381,3.381,0,1,1,6.762,0V180.8a3.381,3.381,0,0,1-3.381,3.381" transform="translate(-36.931 -59.558)" fill="#e0e0e0"/>
        <path id="Trazado_732780" data-name="Trazado 732780" d="M353.278,121.231h0a3.381,3.381,0,0,1-3.381,3.381H315.183a3.381,3.381,0,0,1,0-6.762H349.9a3.381,3.381,0,0,1,3.381,3.381" transform="translate(-130.134 -49.186)" fill="#e0e0e0"/>
        <path id="Trazado_732781" data-name="Trazado 732781" d="M353.278,219.1h0a3.381,3.381,0,0,1-3.381,3.381H315.183a3.381,3.381,0,0,1,0-6.762H349.9a3.381,3.381,0,0,1,3.381,3.381" transform="translate(-130.134 -90.032)" fill="#e0e0e0"/>
        <path id="Trazado_732782" data-name="Trazado 732782" d="M543.078,231.845h0a3.381,3.381,0,0,1,3.381,3.381V269.94a3.381,3.381,0,0,1-6.762,0V235.226a3.381,3.381,0,0,1,3.381-3.381" transform="translate(-225.248 -96.763)" fill="#e0e0e0"/>
        <path id="Trazado_732783" data-name="Trazado 732783" d="M659.877,231.845h0a3.381,3.381,0,0,1,3.381,3.381V269.94a3.381,3.381,0,0,1-6.762,0V235.226a3.381,3.381,0,0,1,3.381-3.381" transform="translate(-273.995 -96.763)" fill="#e0e0e0"/>
        <path id="Trazado_732784" data-name="Trazado 732784" d="M303.577,66.55h0a3.381,3.381,0,0,1-3.381-3.381V28.455a3.381,3.381,0,0,1,6.762,0V63.169a3.381,3.381,0,0,1-3.381,3.381" transform="translate(-125.29 -10.465)" fill="#e0e0e0"/>
      </g>
    </g>
    <g id="Grupo_1032574" data-name="Grupo 1032574">
      <g id="Grupo_1032573" data-name="Grupo 1032573" clip-path="url(#clip-path)">
        <path id="Trazado_732785" data-name="Trazado 732785" d="M417.2,432.111c0,.084-92.039.152-205.548.152-113.549,0-205.569-.068-205.569-.152s92.02-.151,205.569-.151c113.509,0,205.548.068,205.548.151" transform="translate(-2.539 -180.283)" fill="#263238"/>
      </g>
    </g>
    <g id="Grupo_1032576" data-name="Grupo 1032576">
      <g id="Grupo_1032575" data-name="Grupo 1032575" clip-path="url(#clip-path)">
        <path id="Trazado_732786" data-name="Trazado 732786" d="M647.931,368.523a6.943,6.943,0,0,1,3.6,4.075,12.249,12.249,0,0,1,.478,5.519c-.406,3.582-2.441,7.2-4.633,10.06-3.016-2.633-3.71-7.225-3.916-9.577-.325-3.717,1.344-10.632,4.474-10.078" transform="translate(-268.537 -153.794)" fill="#ffa031"/>
        <path id="Trazado_732787" data-name="Trazado 732787" d="M656.127,407.077a5.922,5.922,0,0,1,1.913-5.63,7.863,7.863,0,0,1,5.8-1.811,3.31,3.31,0,0,1,2.546,1.143,2.533,2.533,0,0,1,.04,2.567,5.132,5.132,0,0,1-1.9,1.871c-2.614,1.64-5.444,2.747-8.4,1.86" transform="translate(-273.785 -166.782)" fill="#ffa031"/>
        <path id="Trazado_732788" data-name="Trazado 732788" d="M649.582,420.594a4.2,4.2,0,0,1,.108-.735c.094-.517.217-1.186.364-1.989a20.8,20.8,0,0,1,2.053-6.355,12.722,12.722,0,0,1,4.56-4.846,8.653,8.653,0,0,1,1.86-.823,5.2,5.2,0,0,1,.536-.136.546.546,0,0,1,.191-.026,13.5,13.5,0,0,0-2.491,1.143,13.133,13.133,0,0,0-4.427,4.815,22.375,22.375,0,0,0-2.1,6.265c-.182.833-.331,1.509-.446,1.973a3.913,3.913,0,0,1-.207.714" transform="translate(-271.108 -169.315)" fill="#263238"/>
        <path id="Trazado_732789" data-name="Trazado 732789" d="M649.672,377.777a1.505,1.505,0,0,1,.037.321c.015.239.033.545.055.923.043.8.09,1.963.136,3.4.093,2.87.166,6.837.147,11.219s-.127,8.35-.245,11.219c-.058,1.434-.115,2.6-.166,3.4-.026.379-.047.685-.063.923a1.461,1.461,0,0,1-.04.321,1.56,1.56,0,0,1-.013-.323c0-.239.008-.545.014-.925.02-.835.048-1.988.082-3.4.07-2.87.149-6.834.168-11.215s-.026-8.343-.071-11.213c-.022-1.411-.04-2.564-.053-3.4,0-.379,0-.686-.006-.925a1.546,1.546,0,0,1,.016-.323" transform="translate(-271.085 -157.669)" fill="#263238"/>
        <path id="Trazado_732790" data-name="Trazado 732790" d="M639.172,408.544a13.853,13.853,0,0,0-7.564-10.148c-1.008-.483-2.324-.8-3.153-.049s-.644,2.1-.238,3.142a11.836,11.836,0,0,0,10.884,7.349" transform="translate(-262.049 -166.068)" fill="#ffa031"/>
        <path id="Trazado_732791" data-name="Trazado 732791" d="M635.123,404.582a3.583,3.583,0,0,1,.64.279,6.7,6.7,0,0,1,.723.386c.271.169.6.334.921.577a12.091,12.091,0,0,1,1.053.793,13.543,13.543,0,0,1,1.121,1.018,15.373,15.373,0,0,1,2.13,2.737,15.114,15.114,0,0,1,1.4,3.173,13.17,13.17,0,0,1,.354,1.474,11.3,11.3,0,0,1,.181,1.307,10.294,10.294,0,0,1,.05,1.086,6.171,6.171,0,0,1-.025.819,3.527,3.527,0,0,1-.077.694c-.059,0,.044-1-.132-2.581a12.113,12.113,0,0,0-.21-1.284,13.9,13.9,0,0,0-.372-1.444,15.708,15.708,0,0,0-1.4-3.11,16.076,16.076,0,0,0-2.078-2.7,14.448,14.448,0,0,0-1.088-1.021c-.346-.316-.7-.568-1.02-.808-1.3-.929-2.2-1.342-2.178-1.393" transform="translate(-265.075 -168.856)" fill="#263238"/>
      </g>
    </g>
    <path id="Trazado_732792" data-name="Trazado 732792" d="M308.681,351.856l8.6,9.121v37.7H326.5v-37.7l8.97-8.722Z" transform="translate(-128.831 -146.851)" fill="#e0e0e0"/>
    <g id="Grupo_1032593" data-name="Grupo 1032593">
      <g id="Grupo_1032592" data-name="Grupo 1032592" clip-path="url(#clip-path)">
        <path id="Trazado_732793" data-name="Trazado 732793" d="M308.681,351.856l26.786.279.291,0-.209.2-8.959,8.734.041-.1c0,8.7.009,18.543.015,28.925,0,2.976,0,5.908,0,8.779v.15h-.151l-9.213,0h-.147v-.146c.024-15.49.045-28.749.059-37.7l.023.06-8.536-9.181,8.664,9.061.023.025v.035c.014,8.955.035,22.213.059,37.7l-.146-.146,9.213,0-.15.15c0-2.871,0-5.8,0-8.779.005-10.381.01-20.221.015-28.925v-.058l.041-.04,8.983-8.71.082.206-26.783-.519" transform="translate(-128.831 -146.851)" fill="#263238"/>
        <path id="Trazado_732794" data-name="Trazado 732794" d="M332.621,367.613a70.872,70.872,0,0,1-9.263,0,70.872,70.872,0,0,1,9.263,0" transform="translate(-134.957 -153.364)" fill="#263238"/>
        <path id="Trazado_732795" data-name="Trazado 732795" d="M265.927,262.034h-.366L0,259.439l.416-46.823,250.655,2.462a7.923,7.923,0,0,0,7.993-7.923v-35.73a39.973,39.973,0,0,1,39.973-39.973H418.206v46.825H313.812a7.923,7.923,0,0,0-7.923,7.923v35.861a39.973,39.973,0,0,1-39.963,39.973" transform="translate(0 -54.863)" fill="#455a64"/>
        <path id="Trazado_732796" data-name="Trazado 732796" d="M106.4,321.835h0a3.149,3.149,0,0,1-3.15-3.15v-48.1a3.15,3.15,0,1,1,6.3,0v48.1a3.149,3.149,0,0,1-3.15,3.15" transform="translate(-43.091 -111.618)" fill="#455a64"/>
        <path id="Trazado_732797" data-name="Trazado 732797" d="M106.287,321.726a3.781,3.781,0,0,0,1.14-.248,3.129,3.129,0,0,0,1.925-2.521c.034-2.918-.02-7.176-.022-12.42s-.02-11.5-.033-18.432c0-3.469-.006-7.11-.009-10.884q0-2.832,0-5.757a12.5,12.5,0,0,0-.039-1.443,2.919,2.919,0,0,0-.526-1.289,2.992,2.992,0,0,0-4.865,0,2.926,2.926,0,0,0-.528,1.289,12.359,12.359,0,0,0-.04,1.442q0,2.925,0,5.759c0,3.775-.006,7.417-.009,10.887-.012,6.936-.023,13.182-.032,18.434s-.057,9.5-.023,12.418a3.129,3.129,0,0,0,1.926,2.521,3.776,3.776,0,0,0,1.139.248s-.1.005-.3,0a3.058,3.058,0,0,1-.861-.192,3.111,3.111,0,0,1-1.189-.8,3.159,3.159,0,0,1-.831-1.763c-.072-2.946-.05-7.183-.075-12.433-.009-5.251-.02-11.5-.033-18.434,0-3.47-.006-7.112-.009-10.887q0-2.832,0-5.759a12.383,12.383,0,0,1,.043-1.488,3.22,3.22,0,0,1,.581-1.42,3.295,3.295,0,0,1,5.357,0,3.223,3.223,0,0,1,.579,1.42,12.5,12.5,0,0,1,.042,1.488q0,2.923,0,5.757c0,3.774-.006,7.415-.009,10.884-.012,6.935-.023,13.181-.033,18.432-.026,5.25,0,9.487-.075,12.434a3.157,3.157,0,0,1-.831,1.764,3.1,3.1,0,0,1-1.189.8,3.065,3.065,0,0,1-.861.192c-.2,0-.3,0-.3,0" transform="translate(-42.982 -111.51)" fill="#263238"/>
        <path id="Trazado_732798" data-name="Trazado 732798" d="M495.294,210.687h0a3.15,3.15,0,0,1-4.3,1.153l-51.216-29.57a3.15,3.15,0,0,1,3.15-5.455l51.215,29.57a3.149,3.149,0,0,1,1.153,4.3" transform="translate(-182.888 -73.619)" fill="#455a64"/>
        <path id="Trazado_732799" data-name="Trazado 732799" d="M495.188,210.58a3.583,3.583,0,0,0,.379-1.331,3.127,3.127,0,0,0-.328-1.627,3.089,3.089,0,0,0-.637-.851,4.769,4.769,0,0,0-1.01-.682l-12.836-7.355-19.018-10.943-11.225-6.47-5.936-3.425-1.513-.873a3.374,3.374,0,0,0-1.573-.573,2.993,2.993,0,0,0-2.711,4.686,3.363,3.363,0,0,0,1.281,1.078l1.513.873,5.935,3.43L458.727,193l18.987,11,12.787,7.438a4.713,4.713,0,0,0,1.1.534,3.073,3.073,0,0,0,1.055.126,3.119,3.119,0,0,0,1.573-.53,3.576,3.576,0,0,0,.964-.993,3.3,3.3,0,0,1-.184.306,3.157,3.157,0,0,1-3.437,1.19,4.843,4.843,0,0,1-1.126-.532l-12.836-7.355-19.019-10.944-11.228-6.471-5.938-3.426-1.513-.873a3.676,3.676,0,0,1-1.379-1.168,3.3,3.3,0,0,1,2.985-5.159,3.683,3.683,0,0,1,1.7.612l1.513.873,5.934,3.429,11.216,6.486,18.985,11,12.788,7.439a4.841,4.841,0,0,1,1.024.708,3.158,3.158,0,0,1,.688,3.572,3.346,3.346,0,0,1-.174.312" transform="translate(-182.782 -73.512)" fill="#263238"/>
        <path id="Trazado_732800" data-name="Trazado 732800" d="M642.309,179.227h0a3.149,3.149,0,0,1-3.15-3.15v-48.1a3.149,3.149,0,1,1,6.3,0v48.1a3.15,3.15,0,0,1-3.149,3.15" transform="translate(-266.76 -52.099)" fill="#455a64"/>
        <path id="Trazado_732801" data-name="Trazado 732801" d="M642.2,179.118a3.771,3.771,0,0,0,1.138-.248,3.128,3.128,0,0,0,1.926-2.521c.033-2.918-.02-7.176-.022-12.42s-.02-11.5-.033-18.432c0-3.469-.006-7.11-.009-10.884q0-2.832,0-5.758a12.481,12.481,0,0,0-.039-1.442,2.919,2.919,0,0,0-.526-1.289,2.992,2.992,0,0,0-4.865,0,2.926,2.926,0,0,0-.528,1.289,12.475,12.475,0,0,0-.04,1.442q0,2.925,0,5.759c0,3.775-.006,7.417-.009,10.887-.012,6.936-.023,13.182-.033,18.433s-.056,9.5-.022,12.419a3.127,3.127,0,0,0,1.925,2.52,3.774,3.774,0,0,0,1.14.248s-.1.005-.3,0a3.048,3.048,0,0,1-.861-.192,3.109,3.109,0,0,1-1.189-.8,3.16,3.16,0,0,1-.831-1.763c-.072-2.946-.05-7.183-.075-12.434-.009-5.251-.02-11.5-.033-18.433,0-3.47-.005-7.112-.008-10.887q0-2.832,0-5.759a12.407,12.407,0,0,1,.043-1.488,3.216,3.216,0,0,1,.581-1.42,3.295,3.295,0,0,1,5.357,0,3.222,3.222,0,0,1,.579,1.42,12.381,12.381,0,0,1,.042,1.487q0,2.924,0,5.758c0,3.774-.006,7.415-.008,10.884-.012,6.935-.024,13.181-.033,18.432-.026,5.25,0,9.487-.075,12.434a3.162,3.162,0,0,1-.831,1.764,3.1,3.1,0,0,1-1.189.8,3.051,3.051,0,0,1-.861.192c-.2,0-.3,0-.3,0" transform="translate(-266.65 -51.991)" fill="#263238"/>
        <path id="Trazado_732802" data-name="Trazado 732802" d="M390.022,321.835h0a3.15,3.15,0,0,1-3.15-3.15v-48.1a3.15,3.15,0,1,1,6.3,0v48.1a3.149,3.149,0,0,1-3.15,3.15" transform="translate(-161.465 -111.618)" fill="#455a64"/>
        <path id="Trazado_732803" data-name="Trazado 732803" d="M389.913,321.726a3.781,3.781,0,0,0,1.14-.248,3.129,3.129,0,0,0,1.925-2.521c.034-2.918-.02-7.176-.022-12.42s-.02-11.5-.033-18.432c0-3.469-.006-7.11-.009-10.884q0-2.832,0-5.757a12.491,12.491,0,0,0-.039-1.443,2.919,2.919,0,0,0-.526-1.289,2.992,2.992,0,0,0-4.865,0,2.927,2.927,0,0,0-.528,1.289,12.368,12.368,0,0,0-.04,1.442q0,2.925,0,5.759c0,3.775-.006,7.417-.009,10.887-.012,6.936-.023,13.182-.032,18.434s-.057,9.5-.023,12.418a3.128,3.128,0,0,0,1.926,2.521,3.779,3.779,0,0,0,1.139.248s-.1.005-.3,0a3.058,3.058,0,0,1-.861-.192,3.111,3.111,0,0,1-1.189-.8,3.163,3.163,0,0,1-.831-1.763c-.072-2.946-.049-7.183-.075-12.433-.009-5.251-.02-11.5-.033-18.434,0-3.47-.005-7.112-.009-10.887q0-2.832,0-5.759a12.387,12.387,0,0,1,.042-1.488,3.221,3.221,0,0,1,.581-1.42,3.295,3.295,0,0,1,5.357,0,3.223,3.223,0,0,1,.579,1.42,12.5,12.5,0,0,1,.042,1.488q0,2.923,0,5.757c0,3.774-.006,7.415-.009,10.884-.012,6.935-.023,13.181-.033,18.432-.026,5.25,0,9.487-.075,12.434a3.161,3.161,0,0,1-.831,1.764,3.111,3.111,0,0,1-1.189.8,3.064,3.064,0,0,1-.861.192c-.2,0-.3,0-.3,0" transform="translate(-161.356 -111.51)" fill="#263238"/>
        <path id="Trazado_732804" data-name="Trazado 732804" d="M274.459,321.835h0a3.149,3.149,0,0,1-3.15-3.15v-48.1a3.15,3.15,0,1,1,6.3,0v48.1a3.149,3.149,0,0,1-3.15,3.15" transform="translate(-113.234 -111.618)" fill="#455a64"/>
        <path id="Trazado_732805" data-name="Trazado 732805" d="M274.35,321.726a3.781,3.781,0,0,0,1.14-.248,3.129,3.129,0,0,0,1.925-2.521c.034-2.918-.02-7.176-.022-12.42s-.02-11.5-.033-18.432c0-3.469-.006-7.11-.009-10.884q0-2.832,0-5.757a12.491,12.491,0,0,0-.039-1.443,2.919,2.919,0,0,0-.526-1.289,2.992,2.992,0,0,0-4.865,0,2.926,2.926,0,0,0-.528,1.289,12.354,12.354,0,0,0-.04,1.442q0,2.925,0,5.759c0,3.775-.006,7.417-.009,10.887-.012,6.936-.023,13.182-.032,18.434s-.056,9.5-.023,12.418a3.129,3.129,0,0,0,1.926,2.521,3.776,3.776,0,0,0,1.139.248s-.1.005-.3,0a3.058,3.058,0,0,1-.861-.192,3.111,3.111,0,0,1-1.189-.8,3.16,3.16,0,0,1-.831-1.763c-.072-2.946-.049-7.183-.075-12.433-.009-5.251-.02-11.5-.033-18.434,0-3.47-.006-7.112-.009-10.887q0-2.832,0-5.759a12.387,12.387,0,0,1,.042-1.488,3.221,3.221,0,0,1,.581-1.42,3.295,3.295,0,0,1,5.357,0,3.223,3.223,0,0,1,.579,1.42,12.51,12.51,0,0,1,.042,1.488q0,2.923,0,5.757c0,3.774-.006,7.415-.009,10.884-.012,6.935-.023,13.181-.033,18.432-.026,5.25,0,9.487-.075,12.434a3.158,3.158,0,0,1-.831,1.764,3.105,3.105,0,0,1-1.189.8,3.064,3.064,0,0,1-.861.192c-.2,0-.3,0-.3,0" transform="translate(-113.124 -111.51)" fill="#263238"/>
        <g id="Grupo_1032579" data-name="Grupo 1032579" transform="translate(268.539 108.637)" opacity="0.3">
          <g id="Grupo_1032578" data-name="Grupo 1032578">
            <g id="Grupo_1032577" data-name="Grupo 1032577" clip-path="url(#clip-path-6)">
              <path id="Trazado_732806" data-name="Trazado 732806" d="M460.9,186.457s22.006,3.575,41.116,23.138Z" transform="translate(-460.901 -186.457)"/>
            </g>
          </g>
        </g>
        <g id="Grupo_1032582" data-name="Grupo 1032582" transform="translate(231.706 160.568)" opacity="0.3">
          <g id="Grupo_1032581" data-name="Grupo 1032581">
            <g id="Grupo_1032580" data-name="Grupo 1032580" clip-path="url(#clip-path-7)">
              <path id="Trazado_732807" data-name="Trazado 732807" d="M397.683,275.588s7.677,20.931,0,47.179Z" transform="translate(-397.683 -275.588)"/>
            </g>
          </g>
        </g>
        <g id="Grupo_1032585" data-name="Grupo 1032585" transform="translate(164.374 160.568)" opacity="0.3">
          <g id="Grupo_1032584" data-name="Grupo 1032584">
            <g id="Grupo_1032583" data-name="Grupo 1032583" clip-path="url(#clip-path-8)">
              <path id="Trazado_732808" data-name="Trazado 732808" d="M282.218,275.588s7.58,19.365-.1,45.613Z" transform="translate(-282.12 -275.588)"/>
            </g>
          </g>
        </g>
        <g id="Grupo_1032588" data-name="Grupo 1032588" transform="translate(66.068 160.568)" opacity="0.3">
          <g id="Grupo_1032587" data-name="Grupo 1032587">
            <g id="Grupo_1032586" data-name="Grupo 1032586" clip-path="url(#clip-path-8)">
              <path id="Trazado_732809" data-name="Trazado 732809" d="M113.493,275.588s7.58,19.365-.1,45.613Z" transform="translate(-113.395 -275.588)"/>
            </g>
          </g>
        </g>
        <g id="Grupo_1032591" data-name="Grupo 1032591" transform="translate(378.698 75.88)" opacity="0.3">
          <g id="Grupo_1032590" data-name="Grupo 1032590">
            <g id="Grupo_1032589" data-name="Grupo 1032589" clip-path="url(#clip-path-7)">
              <path id="Trazado_732810" data-name="Trazado 732810" d="M649.97,130.235s7.677,20.931,0,47.179Z" transform="translate(-649.97 -130.235)"/>
            </g>
          </g>
        </g>
        <path id="Trazado_732811" data-name="Trazado 732811" d="M25.519,351.062l8.685,9.211v38.075h9.305V360.273l9.059-8.808Z" transform="translate(-10.651 -146.519)" fill="#e0e0e0"/>
        <path id="Trazado_732812" data-name="Trazado 732812" d="M25.519,351.062l27.051.282.291,0-.209.2L43.6,360.371l.041-.1c0,8.789.009,18.726.015,29.21,0,3.006,0,5.966,0,8.865v.151h-.15l-9.3,0h-.147v-.147c.024-15.643.045-29.032.059-38.075l.024.059-8.621-9.27,8.748,9.151.024.024v.036c.014,9.043.035,22.432.059,38.075L34.2,398.2l9.3,0-.151.15c0-2.9,0-5.859,0-8.865.005-10.484.01-20.421.015-29.21v-.058l.041-.04,9.072-8.8.082.206-27.047-.523" transform="translate(-10.651 -146.519)" fill="#263238"/>
        <path id="Trazado_732813" data-name="Trazado 732813" d="M49.7,366.976a36.171,36.171,0,0,1-4.677.152,36.177,36.177,0,0,1-4.677-.152,36.2,36.2,0,0,1,4.677-.151,36.2,36.2,0,0,1,4.677.151" transform="translate(-16.837 -153.098)" fill="#263238"/>
        <path id="Trazado_732814" data-name="Trazado 732814" d="M559.362,211.21l9.108,9.659v119.11h9.757V220.869l9.935-9.659Z" transform="translate(-233.456 -88.151)" fill="#e0e0e0"/>
        <path id="Trazado_732815" data-name="Trazado 732815" d="M559.362,211.146l28.8-.089h.218l-.157.153L578.3,220.88l.032-.075c.012,27.462.028,66.292.046,109.292v9.97h-10.06v-.151c.04-53.47.073-98.161.089-119.11l.017.042-9.063-9.7,9.153,9.616.016.017v.025c.016,20.949.05,65.64.089,119.11l-.15-.15h9.757l-.151.152V330.1c.018-43,.034-81.831.046-109.292v-.045l.032-.031,9.946-9.647.062.152-28.8-.089" transform="translate(-233.456 -88.087)" fill="#263238"/>
        <path id="Trazado_732816" data-name="Trazado 732816" d="M584.714,227.9a79.481,79.481,0,0,1-9.809,0,79.473,79.473,0,0,1,9.809,0" transform="translate(-239.943 -95.055)" fill="#263238"/>
        <path id="Trazado_732817" data-name="Trazado 732817" d="M343.151,354.228c0,.084-13.665.064-30.516-.044s-30.517-.263-30.517-.347,13.662-.065,30.519.044,30.515.263,30.514.347" transform="translate(-117.745 -147.656)" fill="#263238"/>
      </g>
    </g>
    <g id="Grupo_1032610" data-name="Grupo 1032610">
      <g id="Grupo_1032609" data-name="Grupo 1032609" clip-path="url(#clip-path)">
        <path id="Trazado_732818" data-name="Trazado 732818" d="M524.816,64.217a38.261,38.261,0,0,0-1.9,24.98,37.668,37.668,0,0,0,2.551,6.795,1.471,1.471,0,0,0,1.993.523,1.488,1.488,0,0,0,.523-1.993,35.025,35.025,0,0,1-.647-28.834,1.5,1.5,0,0,0-.523-1.993,1.467,1.467,0,0,0-1.993.523" transform="translate(-217.716 -26.506)" fill="#e0e0e0"/>
        <path id="Trazado_732819" data-name="Trazado 732819" d="M527.7,99.876l6.1-8.911a1.466,1.466,0,0,0-.523-1.993,1.494,1.494,0,0,0-1.993.523l-6.1,8.911a1.465,1.465,0,0,0,.523,1.993,1.492,1.492,0,0,0,1.993-.523" transform="translate(-219.108 -37.055)" fill="#e0e0e0"/>
        <path id="Trazado_732820" data-name="Trazado 732820" d="M523.622,90.336a53.209,53.209,0,0,0,8.148-.1,1.457,1.457,0,1,0,0-2.913,53.207,53.207,0,0,1-8.148.1,1.464,1.464,0,0,0-1.457,1.457,1.491,1.491,0,0,0,1.457,1.457" transform="translate(-217.931 -36.444)" fill="#e0e0e0"/>
        <path id="Trazado_732821" data-name="Trazado 732821" d="M525.557,71.442a90.432,90.432,0,0,1,5.664,9.255,1.469,1.469,0,0,0,1.993.523,1.488,1.488,0,0,0,.522-1.993,90.42,90.42,0,0,0-5.664-9.255,1.457,1.457,0,1,0-2.515,1.471" transform="translate(-219.259 -28.9)" fill="#e0e0e0"/>
        <path id="Trazado_732822" data-name="Trazado 732822" d="M419.727,385.069l-1.575,17.924s17.69,7.62,17.722,10.961l-34.863-1.8,1.308-28.028Z" transform="translate(-167.366 -160.317)" fill="#455a64"/>
        <path id="Trazado_732823" data-name="Trazado 732823" d="M411.285,412.929a1.425,1.425,0,0,0-1.069,1.574,1.369,1.369,0,0,0,1.55,1.073,1.5,1.5,0,0,0,1.123-1.673,1.421,1.421,0,0,0-1.736-.937" transform="translate(-171.2 -172.321)" fill="#e0e0e0"/>
        <path id="Trazado_732824" data-name="Trazado 732824" d="M400.9,431.538l.124-2.716,33.518,1.948s1.517.756,1.285,1.84Z" transform="translate(-167.321 -178.973)" fill="#e0e0e0"/>
        <path id="Trazado_732825" data-name="Trazado 732825" d="M429.069,416.123c-.015.17-.87.2-1.736.707-.879.481-1.349,1.2-1.5,1.12-.156-.041.151-1.046,1.21-1.637s2.072-.345,2.028-.19" transform="translate(-177.709 -173.594)" fill="#263238"/>
        <path id="Trazado_732826" data-name="Trazado 732826" d="M435.817,419.121c.03.167-.722.418-1.337,1.108-.636.672-.822,1.443-.991,1.427-.161.019-.228-.985.554-1.828s1.779-.87,1.774-.707" transform="translate(-180.878 -174.891)" fill="#263238"/>
        <path id="Trazado_732827" data-name="Trazado 732827" d="M440.61,424.817c-.157.028-.35-.834.136-1.744s1.3-1.24,1.366-1.094c.089.145-.454.618-.841,1.372-.4.743-.491,1.458-.661,1.466" transform="translate(-183.821 -176.103)" fill="#263238"/>
        <path id="Trazado_732828" data-name="Trazado 732828" d="M428.651,408.675c-.079.152-.848-.124-1.814-.108-.966,0-1.732.28-1.813.129-.092-.128.672-.72,1.809-.722s1.908.572,1.817.7" transform="translate(-177.385 -170.272)" fill="#263238"/>
        <path id="Trazado_732829" data-name="Trazado 732829" d="M411.734,67.209c-.1,2.11-.281,4.413-1.728,5.952a8.071,8.071,0,0,1-4.91,2.009,10.9,10.9,0,0,1-3.033.094,4.577,4.577,0,0,1-2.7-1.285,2.923,2.923,0,0,1-.744-2.805,3.166,3.166,0,0,1-3.029-1.2,4.018,4.018,0,0,1-.681-3.253,5.539,5.539,0,0,1,1.732-2.9,3.058,3.058,0,0,1-.865-3.558c.745-2.183,2.311-2.543,3.621-2.158a2.22,2.22,0,0,1,1.349-3.441L403,54.231Z" transform="translate(-164.783 -22.634)" fill="#263238"/>
        <path id="Trazado_732830" data-name="Trazado 732830" d="M449.684,46.76a3.288,3.288,0,0,0-2.968-4.818l-5.12,1.172q1.1,4.316,2.207,8.633a4.417,4.417,0,0,0,1.083,2.275,2.986,2.986,0,0,0,2.265.643,4.5,4.5,0,0,0,2.533-7.9" transform="translate(-184.305 -17.505)" fill="#263238"/>
        <path id="Trazado_732831" data-name="Trazado 732831" d="M423.324,78.542a7.983,7.983,0,0,1-8.562-7.169l-2.587-26c-.917-6.963,2.37-13.3,9.355-14.024l.65-.029A12.554,12.554,0,0,1,435.2,42.29c.762,6.039,1.526,12.721,1.632,15.975.22,6.735-6.466,8.085-6.466,8.085-.015,0,.777,4.438.951,6.408.391,4.425-3.566,5.44-7.995,5.784" transform="translate(-171.963 -13.067)" fill="#b56760"/>
        <path id="Trazado_732832" data-name="Trazado 732832" d="M436.9,89.662a16.278,16.278,0,0,1-8.881-2.2s2.472,4.809,9.162,3.9Z" transform="translate(-178.639 -36.504)" fill="#8a4a43"/>
        <path id="Trazado_732833" data-name="Trazado 732833" d="M447.972,59.466a.963.963,0,0,1-.883,1.012.921.921,0,0,1-1.03-.823.963.963,0,0,1,.882-1.012.921.921,0,0,1,1.031.823" transform="translate(-186.166 -24.473)" fill="#263238"/>
        <path id="Trazado_732834" data-name="Trazado 732834" d="M446.584,54.182c-.114.131-.866-.376-1.9-.326-1.034.034-1.769.6-1.887.479-.057-.054.054-.285.374-.541a2.643,2.643,0,0,1,1.5-.539,2.536,2.536,0,0,1,1.52.417c.329.23.447.452.391.51" transform="translate(-184.8 -22.226)" fill="#263238"/>
        <path id="Trazado_732835" data-name="Trazado 732835" d="M431.24,60.575a.962.962,0,0,1-.883,1.011.92.92,0,0,1-1.03-.822.963.963,0,0,1,.883-1.012.921.921,0,0,1,1.031.823" transform="translate(-179.183 -24.936)" fill="#263238"/>
        <path id="Trazado_732836" data-name="Trazado 732836" d="M429.225,55.683c-.114.131-.867-.375-1.9-.326s-1.769.6-1.887.48c-.058-.054.052-.285.374-.541a2.636,2.636,0,0,1,1.5-.539,2.538,2.538,0,0,1,1.52.416c.329.23.447.452.391.51" transform="translate(-177.555 -22.852)" fill="#263238"/>
        <path id="Trazado_732837" data-name="Trazado 732837" d="M438.308,63.544a6.831,6.831,0,0,1,1.666-.379c.263-.039.511-.1.547-.285a1.349,1.349,0,0,0-.212-.775l-.872-1.976a34.528,34.528,0,0,1-1.991-5.183,34.75,34.75,0,0,1,2.4,5.01q.44,1.042.84,1.99a1.53,1.53,0,0,1,.184,1.031.66.66,0,0,1-.417.406,1.778,1.778,0,0,1-.446.083,6.728,6.728,0,0,1-1.7.079" transform="translate(-182.569 -22.932)" fill="#263238"/>
        <path id="Trazado_732838" data-name="Trazado 732838" d="M436.192,73.715a1.33,1.33,0,0,0-.973-1.021,1.357,1.357,0,0,0-.859.111,1.071,1.071,0,0,0-.542.653.488.488,0,0,0-.019.139.634.634,0,0,0-.072.251,1.668,1.668,0,0,0,.51,1.436,1.2,1.2,0,0,0,.858.3,1.125,1.125,0,0,0,.767-.39,1.7,1.7,0,0,0,.329-1.475" transform="translate(-181.019 -30.329)" fill="#8a4a43"/>
        <path id="Trazado_732839" data-name="Trazado 732839" d="M433.658,71.167c.168-.017.221,1.105,1.218,1.859s2.187.576,2.2.733c.019.07-.257.23-.761.267a2.8,2.8,0,0,1-1.836-.549,2.438,2.438,0,0,1-.949-1.562c-.064-.467.049-.751.126-.748" transform="translate(-180.931 -29.702)" fill="#263238"/>
        <path id="Trazado_732840" data-name="Trazado 732840" d="M428.549,49.7c-.09.286-1.128.2-2.335.4-1.211.177-2.174.576-2.346.332-.078-.118.082-.39.465-.68A4.116,4.116,0,0,1,427.9,49.2c.454.159.688.371.65.506" transform="translate(-176.897 -20.456)" fill="#263238"/>
        <path id="Trazado_732841" data-name="Trazado 732841" d="M445.787,47.632c-.171.243-.895.031-1.753.058-.858,0-1.575.23-1.753-.009-.079-.116.025-.357.332-.593a2.538,2.538,0,0,1,2.825-.04c.314.227.424.465.349.583" transform="translate(-184.58 -19.465)" fill="#263238"/>
        <path id="Trazado_732842" data-name="Trazado 732842" d="M410.251,63.64c-.117-.044-4.687-1.16-4.332,3.436s4.895,3.292,4.892,3.16-.56-6.6-.56-6.6" transform="translate(-169.406 -26.498)" fill="#b56760"/>
        <path id="Trazado_732843" data-name="Trazado 732843" d="M410.121,69.707c-.021-.013-.076.062-.206.135a.8.8,0,0,1-.6.058,1.986,1.986,0,0,1-1.054-1.707,2.663,2.663,0,0,1,.136-1.164.93.93,0,0,1,.555-.661.409.409,0,0,1,.49.183c.071.124.049.218.074.224s.093-.084.041-.272a.513.513,0,0,0-.2-.274.6.6,0,0,0-.452-.083,1.126,1.126,0,0,0-.781.777,2.723,2.723,0,0,0-.179,1.3,2.084,2.084,0,0,0,1.321,1.895.858.858,0,0,0,.722-.178c.134-.125.15-.229.133-.236" transform="translate(-170.253 -27.602)" fill="#8a4a43"/>
        <path id="Trazado_732844" data-name="Trazado 732844" d="M415.989,44.771a3.516,3.516,0,0,0-2.16-.661,10.739,10.739,0,0,0-5.75,1.407,5.127,5.127,0,0,0-2.211,2.172A2.555,2.555,0,0,0,406.3,50.6a3.231,3.231,0,0,0,3.043,5.636,2.1,2.1,0,0,0,3.288,1.33,3.293,3.293,0,0,0,.767-.811c.79-1.2.708-3.344.352-4.734a3.062,3.062,0,0,0,2.255-1.435,5.942,5.942,0,0,0,.84-2.613,3.594,3.594,0,0,0-.859-3.2" transform="translate(-169.029 -18.406)" fill="#263238"/>
        <path id="Trazado_732845" data-name="Trazado 732845" d="M411.838,23.057c-.308.09-7.665,2.929-8.734,8.877s-.255,7.608-.255,7.608a3.754,3.754,0,0,0-.694.8c-.262.418.464,2.137,1.427,1.789,6.949-4.383,15.7-6.009,25.545-7.147l7.492-1.2c2.138-.065,2.793-.731,1.829-1.128-.739-.3-7.055-1.821-7.055-1.821l-1.3-.682-3.732-3.841s.295-.654-.537-1.041-7.907-3.992-13.988-2.215" transform="translate(-167.821 -9.419)" fill="#ffa031"/>
        <g id="Grupo_1032596" data-name="Grupo 1032596" transform="translate(237.559 15.168)" opacity="0.3">
          <g id="Grupo_1032595" data-name="Grupo 1032595">
            <g id="Grupo_1032594" data-name="Grupo 1032594" clip-path="url(#clip-path-12)">
              <path id="Trazado_732846" data-name="Trazado 732846" d="M407.729,28.868s8.007-2.532,11.938-1.306l-.458-.152,3.695,1.016a2.2,2.2,0,0,0,1.871-.054,16.438,16.438,0,0,0-5.7-2.048c-3.6-.656-9.123-.354-11.346,2.545" transform="translate(-407.729 -26.033)"/>
            </g>
          </g>
        </g>
        <path id="Trazado_732847" data-name="Trazado 732847" d="M407.535,28.844a5.927,5.927,0,0,1,.664-.59,10.312,10.312,0,0,1,2.064-1.264,12.283,12.283,0,0,1,3.44-1.02,10.3,10.3,0,0,1,4.378.207,18.53,18.53,0,0,1,2.144.778c.674.292,1.337.54,1.948.84a11.127,11.127,0,0,0,1.74.775,3.575,3.575,0,0,0,1.632.086c2.019-.268,3.2-.867,3.086-.982a.326.326,0,0,1-.137.183,2.633,2.633,0,0,1-.588.3,11.09,11.09,0,0,1-2.349.589,3.655,3.655,0,0,1-1.673-.075,11.017,11.017,0,0,1-1.761-.771c-.6-.292-1.271-.54-1.945-.83a18.736,18.736,0,0,0-2.13-.771,10.312,10.312,0,0,0-4.327-.213,12.447,12.447,0,0,0-3.42.986,10.87,10.87,0,0,0-2.071,1.222c-.228.171-.4.31-.514.408s-.181.142-.181.142" transform="translate(-170.089 -10.781)" fill="#263238"/>
        <g id="Grupo_1032599" data-name="Grupo 1032599" transform="translate(234.779 20.054)" opacity="0.3">
          <g id="Grupo_1032598" data-name="Grupo 1032598">
            <g id="Grupo_1032597" data-name="Grupo 1032597" clip-path="url(#clip-path-13)">
              <path id="Trazado_732848" data-name="Trazado 732848" d="M403.1,39.353a18.612,18.612,0,0,0,3.941-1.305c1.5-.569,3.006-1.064,4.483-1.7,1.12-.486,2.459-.97,3.1-1.924a1.721,1.721,0,0,1-.285,1.667A8.28,8.28,0,0,1,412,37.555a43.668,43.668,0,0,1-9.038,3.163,10.226,10.226,0,0,1,.135-1.365" transform="translate(-402.958 -34.42)"/>
            </g>
          </g>
        </g>
        <path id="Trazado_732849" data-name="Trazado 732849" d="M403.124,35.668c-.872.541-1.4.9-1.314,1.694.074.664.327,1.452.995,1.472a1.633,1.633,0,0,0,.593-.132l9.849-3.535a1.524,1.524,0,0,0,.869-.568,1.038,1.038,0,0,0-.556-1.344,2.847,2.847,0,0,0-1.6-.117,34.1,34.1,0,0,0-8.83,2.53" transform="translate(-167.695 -13.806)" fill="#ffa031"/>
        <path id="Trazado_732850" data-name="Trazado 732850" d="M414.438,34.5a.989.989,0,0,0,.208-.482,1.288,1.288,0,0,0-.6-1.22,3.192,3.192,0,0,0-2.107-.151c-.809.16-1.7.348-2.619.577a27.218,27.218,0,0,0-4.613,1.536c-.57.251-1.017.484-1.327.646l-.353.191a.547.547,0,0,1-.128.059.6.6,0,0,1,.115-.081l.343-.211c.3-.176.745-.422,1.313-.685a24.894,24.894,0,0,1,4.62-1.578c.926-.23,1.815-.415,2.627-.569a3.233,3.233,0,0,1,2.177.191,1.329,1.329,0,0,1,.607,1.3.874.874,0,0,1-.156.376.47.47,0,0,1-.1.1" transform="translate(-168.152 -13.538)" fill="#263238"/>
        <path id="Trazado_732851" data-name="Trazado 732851" d="M441.164,31.065l-6.4.8.8,1.721,6.921-1.165Z" transform="translate(-181.451 -12.965)" fill="#fff"/>
        <path id="Trazado_732852" data-name="Trazado 732852" d="M430.6,40.672c-.01-.034,2.777-.858,6.225-1.841s6.25-1.751,6.26-1.718-2.777.858-6.225,1.841-6.249,1.751-6.259,1.718" transform="translate(-179.716 -15.49)" fill="#263238"/>
        <path id="Trazado_732853" data-name="Trazado 732853" d="M482.225,69.56,466.38,86.744l-18.988,3.67,5.536,16.489,17.313-5.921a15.669,15.669,0,0,0,7.881-5.907c4.1-6.067,11.1-18.68,11.1-18.68Z" transform="translate(-186.724 -29.032)" fill="#ffa031"/>
        <path id="Trazado_732854" data-name="Trazado 732854" d="M489.084,86.569l9.119,9.889,2.66-4.427-8.414-9.111Z" transform="translate(-204.124 -34.607)" fill="#fff"/>
        <path id="Trazado_732855" data-name="Trazado 732855" d="M510.866,57.827s7.493-6.069,9.031-6.231,2.59-.567,3.642.324a17.018,17.018,0,0,1,3.378,4.3,6.6,6.6,0,0,1-.295,2.6,7.518,7.518,0,0,0-1.831-2.185c-.576-.439-2.8-1.077-3.121,1.028a10.208,10.208,0,0,0,0,3.48l1.241-.173.816,2.576-8.2.349L513.36,67.99l-6.184-6.024Z" transform="translate(-211.676 -21.437)" fill="#b56760"/>
        <g id="Grupo_1032602" data-name="Grupo 1032602" transform="translate(260.894 61.383)" opacity="0.3">
          <g id="Grupo_1032601" data-name="Grupo 1032601">
            <g id="Grupo_1032600" data-name="Grupo 1032600" clip-path="url(#clip-path-14)">
              <path id="Trazado_732856" data-name="Trazado 732856" d="M447.779,105.354a13.569,13.569,0,0,1,6.248,6.442,17.464,17.464,0,0,1,.741,9.473Z" transform="translate(-447.779 -105.354)"/>
            </g>
          </g>
        </g>
        <path id="Trazado_732857" data-name="Trazado 732857" d="M406.077,273.213c-2.736,12.764-5.752,52.189-5.752,52.189l19.263.636,6.943-39.781s3.131-13.955,5.047-21.657c1.707-6.861,7.45-59.8,7.45-59.8l-33.365.777s-1.273,3.033-2.135,11.17c-.7,6.609-.663,10.3-.145,13.568a13.8,13.8,0,0,0,2.078,5.392l2.478,5.342Z" transform="translate(-167.08 -85.476)" fill="#ffa031"/>
        <rect id="Rectángulo_352002" data-name="Rectángulo 352002" width="5.961" height="9.959" transform="translate(330.971 64.13)" fill="#e0e0e0"/>
        <rect id="Rectángulo_352003" data-name="Rectángulo 352003" width="18.562" height="2.716" transform="translate(325.085 73.79)" fill="#e0e0e0"/>
        <rect id="Rectángulo_352004" data-name="Rectángulo 352004" width="7.772" height="4.15" transform="translate(316.572 48.435)" fill="#e0e0e0"/>
        <rect id="Rectángulo_352005" data-name="Rectángulo 352005" width="19.907" height="24.596" transform="translate(323.74 39.911)" fill="#e0e0e0"/>
        <path id="Trazado_732858" data-name="Trazado 732858" d="M574.354,84.632A5.735,5.735,0,1,1,568.62,78.9a5.734,5.734,0,0,1,5.734,5.734" transform="translate(-234.926 -32.929)" fill="#fff"/>
        <path id="Trazado_732859" data-name="Trazado 732859" d="M574.224,84.524c-.043,0-.017-.511-.248-1.383a5.718,5.718,0,0,0-2.095-3.073,5.593,5.593,0,0,0-5.288-.772,5.583,5.583,0,0,0-2.578,1.944,5.543,5.543,0,0,0,0,6.568,5.587,5.587,0,0,0,2.579,1.944,5.59,5.59,0,0,0,5.288-.773,5.716,5.716,0,0,0,2.095-3.073c.231-.872.205-1.386.248-1.383a1.4,1.4,0,0,1,.018.368,2.571,2.571,0,0,1-.027.446,3.975,3.975,0,0,1-.1.6,5.709,5.709,0,0,1-2.076,3.244,5.794,5.794,0,0,1-2.462,1.121,5.887,5.887,0,0,1-3.1-.238,5.89,5.89,0,0,1-2.752-2.049,5.867,5.867,0,0,1,0-6.99,5.9,5.9,0,0,1,2.751-2.049,5.884,5.884,0,0,1,3.1-.238,5.794,5.794,0,0,1,2.462,1.121,5.708,5.708,0,0,1,2.077,3.243,3.9,3.9,0,0,1,.1.6,2.514,2.514,0,0,1,.028.446,1.4,1.4,0,0,1-.018.368" transform="translate(-234.796 -32.821)" fill="#263238"/>
        <path id="Trazado_732860" data-name="Trazado 732860" d="M555.527,68.393a2.518,2.518,0,0,1,.347-.017l1.045-.017,4.013-.04,14.5-.078h.151v.153c.009,7.038.019,15.5.031,24.593.04-.037-.346.347-.185.184h-5.31l-5.12,0-9.475-.015h-.164v-.163c.033-7.326.062-13.488.082-17.837.018-2.139.033-3.831.043-5.007q.012-.842.019-1.313a3.713,3.713,0,0,1,.019-.439.71.71,0,0,1,.009.125c0,.091.006.206.009.35q.007.482.019,1.345c.01,1.184.025,2.889.043,5.044.02,4.323.048,10.449.082,17.731l-.163-.163L565,92.811l5.12,0h5.31c.164-.163-.218.222-.179.18.011-9.1.022-17.555.03-24.593l.151.151-14.407-.078-4.047-.04-1.074-.017a3.528,3.528,0,0,1-.379-.017" transform="translate(-231.786 -28.481)" fill="#263238"/>
        <path id="Trazado_732861" data-name="Trazado 732861" d="M576.161,126.517c0,.1-4.106.182-9.171.182s-9.171-.082-9.171-.182,4.105-.182,9.171-.182,9.171.082,9.171.182" transform="translate(-232.812 -52.727)" fill="#263238"/>
        <path id="Trazado_732862" data-name="Trazado 732862" d="M571.713,85.7l1.594.5.6-4.249Z" transform="translate(-238.61 -34.201)" fill="#ff725e"/>
        <path id="Trazado_732863" data-name="Trazado 732863" d="M534.491,92.478c1.724-1.49,2.316-2.705,3.058-5.446a49.3,49.3,0,0,0,1.561-10,34.856,34.856,0,0,0-1.76-13.545,7.133,7.133,0,0,0-1.492-2.445c-.78-.82-1.919-1.62-3.13-1.122-2.2.905-.556,3.468,0,4.245a19.019,19.019,0,0,1,1.929,6.622A66.91,66.91,0,0,1,533.236,88.1a16.96,16.96,0,0,0-.842,3.57s1.528,1.064,1.7,1.1a1.423,1.423,0,0,0,.4-.293" transform="translate(-221.875 -24.946)" fill="#e0e0e0"/>
        <path id="Trazado_732864" data-name="Trazado 732864" d="M534.385,92.371a.646.646,0,0,1-.114.115c-.04.036-.09.08-.154.13a.4.4,0,0,1-.12.072.464.464,0,0,1-.153-.06c-.373-.206-.9-.553-1.588-1.017l-.026-.017,0-.028a14.325,14.325,0,0,1,.449-2.264c.22-.859.532-1.8.718-2.877a70.989,70.989,0,0,0,.923-7.64c.105-1.453.181-2.988.194-4.591a27.1,27.1,0,0,0-.312-4.97,20.057,20.057,0,0,0-.658-2.535,15.393,15.393,0,0,0-1.009-2.479,5.971,5.971,0,0,1-1.163-2.576,1.788,1.788,0,0,1,.419-1.434,1.953,1.953,0,0,1,.621-.446,2,2,0,0,1,.729-.225,2.721,2.721,0,0,1,1.845.547,6.114,6.114,0,0,1,1.341,1.31,9.825,9.825,0,0,1,1.5,3.292,33.287,33.287,0,0,1,1.21,6.689,44.068,44.068,0,0,1-.6,11.464c-.288,1.612-.62,3.057-.974,4.309a13.351,13.351,0,0,1-1.2,3.114,7.179,7.179,0,0,1-1.324,1.642c-.176.165-.315.285-.412.362a.853.853,0,0,1-.15.112c-.01-.012.182-.176.519-.518a7.623,7.623,0,0,0,1.264-1.657,13.626,13.626,0,0,0,1.14-3.1c.337-1.25.653-2.693.926-4.3a44.633,44.633,0,0,0,.53-11.4,33.337,33.337,0,0,0-1.216-6.628,9.564,9.564,0,0,0-1.458-3.195,5.843,5.843,0,0,0-1.273-1.243,2.424,2.424,0,0,0-1.638-.495,1.7,1.7,0,0,0-.631.2,1.661,1.661,0,0,0-.53.378,1.482,1.482,0,0,0-.342,1.2,5.732,5.732,0,0,0,1.116,2.449,15.406,15.406,0,0,1,1.037,2.547,20.289,20.289,0,0,1,.661,2.574,27.113,27.113,0,0,1,.3,5.025c-.019,1.611-.1,3.151-.217,4.608a68.213,68.213,0,0,1-.988,7.658c-.2,1.085-.527,2.035-.757,2.88a15.1,15.1,0,0,0-.485,2.225l-.023-.045c.676.477,1.194.839,1.553,1.059a.939.939,0,0,0,.118.06.424.424,0,0,0,.1-.058l.16-.117a.723.723,0,0,1,.132-.093" transform="translate(-221.769 -24.839)" fill="#263238"/>
        <path id="Trazado_732865" data-name="Trazado 732865" d="M410.475,95.319l-.551,3.3c-1.98,3.6-6.663,10.645-6.018,21.448.8,13.4,2.033,38.623,2.033,38.623l-.057.349a5.74,5.74,0,0,0,1.788,5.165l.024.023,30.463.655a7.05,7.05,0,0,0,5.826-7.891l-4.8-35.777-9.258-21.121-.868-1.811-1.041-.629Z" transform="translate(-168.549 -39.782)" fill="#ffa031"/>
        <path id="Trazado_732866" data-name="Trazado 732866" d="M404.318,144.1l.731,13.478,35.8-.252-.774-13.035Z" transform="translate(-168.746 -60.142)" fill="#fff"/>
        <path id="Trazado_732867" data-name="Trazado 732867" d="M430.6,99.055a6.582,6.582,0,0,1-.063.9,22.464,22.464,0,0,0-.075,2.455l0,.139-.139-.028c-1.789-.357-4.215-.782-6.9-1.138-2.837-.379-5.418-.649-7.283-.872-.933-.11-1.687-.2-2.208-.277a4.276,4.276,0,0,1-.8-.145,4.179,4.179,0,0,1,.817.027l2.217.182c1.87.168,4.456.4,7.3.785,2.689.357,5.121.813,6.9,1.22l-.135.111a17.094,17.094,0,0,1,.176-2.472,3.941,3.941,0,0,1,.186-.891" transform="translate(-172.427 -41.342)" fill="#263238"/>
        <path id="Trazado_732868" data-name="Trazado 732868" d="M457.029,123.936a5.208,5.208,0,0,1-.387-.817c-.249-.584-.575-1.345-.965-2.261-.811-1.91-1.944-4.545-3.228-7.439l-3.331-7.4-1.006-2.244a5.2,5.2,0,0,1-.334-.84,5.239,5.239,0,0,1,.441.789c.266.516.64,1.269,1.094,2.2.907,1.869,2.127,4.467,3.414,7.365s2.388,5.547,3.149,7.481c.381.967.68,1.753.876,2.3a5.137,5.137,0,0,1,.277.86" transform="translate(-186.884 -42.963)" fill="#263238"/>
        <path id="Trazado_732869" data-name="Trazado 732869" d="M441.819,212.687a1.472,1.472,0,0,1-.338.059l-.974.112c-.847.092-2.074.2-3.592.322-3.036.237-7.238.469-11.885.542s-8.857-.031-11.9-.174c-1.521-.07-2.751-.144-3.6-.21l-.977-.082a1.475,1.475,0,0,1-.34-.049,1.448,1.448,0,0,1,.343-.012l.979.024,3.6.114c3.041.088,7.243.156,11.885.085s8.839-.272,11.875-.454l3.6-.225.979-.055a1.475,1.475,0,0,1,.343,0" transform="translate(-170.373 -88.764)" fill="#263238"/>
        <path id="Trazado_732870" data-name="Trazado 732870" d="M516.025,113.618l4.468-4.841a2.081,2.081,0,0,1,1.529-.669h1.555s-.488,2.543,1.348,2.755a2.381,2.381,0,0,0,2.479-1.453s2.749,1.24,2.466,3.077a4.2,4.2,0,0,1-1.13,2.543,3.638,3.638,0,0,1,.141,2.684,4.22,4.22,0,0,1-1.7,1.7,8.592,8.592,0,0,1-1.978,1.836c-.847.424-7.116.737-7.116.737l-5.464,5.609-4.021-8.824Z" transform="translate(-212.272 -45.12)" fill="#b56760"/>
        <g id="Grupo_1032605" data-name="Grupo 1032605" transform="translate(241.689 76.513)" opacity="0.3">
          <g id="Grupo_1032604" data-name="Grupo 1032604">
            <g id="Grupo_1032603" data-name="Grupo 1032603" clip-path="url(#clip-path-15)">
              <path id="Trazado_732871" data-name="Trazado 732871" d="M414.826,131.322s-.343,2.789,3.358,8.34,9.675,15.242,17.869,17.364,9.75,1.447,9.75,1.447l-1.353-10.084Z" transform="translate(-414.818 -131.322)"/>
            </g>
          </g>
        </g>
        <path id="Trazado_732872" data-name="Trazado 732872" d="M412.363,114.116a19.653,19.653,0,0,0,6.292,13.257c5.709,5.355,16.806,17.043,23.985,17.2,10.236.223,31.405-17.917,31.405-17.917l-4.379-11.462-26.253,12.585L429.932,110.2a12.786,12.786,0,0,0-9.308-5.067,8.007,8.007,0,0,0-6.207,1.956c-1.753,1.669-2.191,4.339-2.054,7.025" transform="translate(-172.094 -43.87)" fill="#ffa031"/>
        <path id="Trazado_732873" data-name="Trazado 732873" d="M487.754,131.74l5.336,14.473,4.464-3.161-4.771-13.67Z" transform="translate(-203.569 -53.999)" fill="#fff"/>
        <path id="Trazado_732874" data-name="Trazado 732874" d="M412.348,114.058s-.037-.3-.044-.881a12.627,12.627,0,0,1,.213-2.557,6.792,6.792,0,0,1,1.855-3.646,6.922,6.922,0,0,1,2.206-1.411,8.766,8.766,0,0,1,2.907-.582,12.331,12.331,0,0,1,6.627,1.681,13.259,13.259,0,0,1,3.058,2.437c.467.493.884,1.046,1.309,1.6l1.3,1.683,11.733,15.258-.167-.04L469.586,115l.147-.071.059.153,3.121,8.169,1.258,3.293.038.1-.082.068a153.472,153.472,0,0,1-13.24,9.968c-2.23,1.475-4.459,2.867-6.721,4.089a40.925,40.925,0,0,1-6.887,3.063,17.143,17.143,0,0,1-3.562.774,10.42,10.42,0,0,1-1.8-.008,10.672,10.672,0,0,1-1.729-.379,23.416,23.416,0,0,1-6-3.091,81.62,81.62,0,0,1-9.295-7.7c-1.347-1.258-2.608-2.477-3.8-3.63l-1.737-1.676c-.563-.538-1.118-1.055-1.621-1.588a20.246,20.246,0,0,1-4.051-6.273,18.56,18.56,0,0,1-1.211-4.563c-.072-.535-.1-.946-.115-1.222s-.017-.418-.017-.418.021.14.047.415.062.684.144,1.217a19.093,19.093,0,0,0,1.258,4.528,20.285,20.285,0,0,0,4.065,6.2c.5.526,1.056,1.036,1.624,1.574l1.746,1.669c1.2,1.147,2.461,2.36,3.811,3.612a82.046,82.046,0,0,0,9.29,7.649,23.215,23.215,0,0,0,5.934,3.044,10.39,10.39,0,0,0,1.684.366,10.254,10.254,0,0,0,1.744,0,16.9,16.9,0,0,0,3.5-.768,40.787,40.787,0,0,0,6.834-3.052c2.251-1.219,4.472-2.61,6.695-4.083a154.359,154.359,0,0,0,13.207-9.953l-.043.17-1.258-3.293-3.12-8.169.206.082-26.259,12.571-.1.048-.067-.088-11.7-15.286-1.29-1.687a20.364,20.364,0,0,0-1.29-1.585,13.107,13.107,0,0,0-3-2.412,12.187,12.187,0,0,0-6.524-1.688,8.651,8.651,0,0,0-2.86.554,6.822,6.822,0,0,0-2.172,1.368,6.734,6.734,0,0,0-1.857,3.572,13.339,13.339,0,0,0-.253,2.54c0,.29,0,.51,0,.658s0,.223,0,.223" transform="translate(-172.079 -43.812)" fill="#263238"/>
        <path id="Trazado_732875" data-name="Trazado 732875" d="M464.963,149.708a16.552,16.552,0,0,1,.133-2.689,16.627,16.627,0,0,1,.269-2.679,15.486,15.486,0,0,1-.4,5.368" transform="translate(-194.045 -60.242)" fill="#263238"/>
        <g id="Grupo_1032608" data-name="Grupo 1032608" transform="translate(241.551 58.209)" opacity="0.3">
          <g id="Grupo_1032607" data-name="Grupo 1032607">
            <g id="Grupo_1032606" data-name="Grupo 1032606" clip-path="url(#clip-path-16)">
              <path id="Trazado_732876" data-name="Trazado 732876" d="M414.581,100.538c-.1.031,17.5,3.562,17.5,3.562l-.875-4.194-.25,2.866s-15.019-2.648-16.375-2.234" transform="translate(-414.581 -99.905)"/>
            </g>
          </g>
        </g>
        <path id="Trazado_732877" data-name="Trazado 732877" d="M405.7,172.407a1.5,1.5,0,0,1-.034-.347c-.01-.26-.023-.59-.038-1-.023-.865-.075-2.115-.153-3.659-.15-3.089-.478-7.348-.865-12.054s-.681-8.975-.776-12.071c-.051-1.547-.07-2.8-.057-3.667.008-.406.013-.736.018-1a1.487,1.487,0,0,1,.027-.347,1.526,1.526,0,0,1,.034.347c.01.26.023.59.039,1,.023.864.075,2.114.153,3.658.15,3.089.478,7.349.865,12.056s.681,8.973.776,12.068c.051,1.547.07,2.8.057,3.667-.008.406-.013.736-.019,1a1.517,1.517,0,0,1-.027.347" transform="translate(-168.52 -57.708)" fill="#263238"/>
      </g>
    </g>
    <g id="Grupo_1032630" data-name="Grupo 1032630">
      <g id="Grupo_1032629" data-name="Grupo 1032629" clip-path="url(#clip-path)">
        <path id="Trazado_732878" data-name="Trazado 732878" d="M212.977,404.228l16.433-5.621s11.232,14.816,14.37,14.073l-9.753-32.254-25.964,7.707Z" transform="translate(-86.837 -158.775)" fill="#455a64"/>
        <path id="Trazado_732879" data-name="Trazado 732879" d="M237.119,394.259a1.376,1.376,0,0,1,1.228-1.365,1.322,1.322,0,0,1,1.364,1.2,1.451,1.451,0,0,1-1.307,1.439c-.676-.03-1.413-.748-1.28-1.411" transform="translate(-98.959 -163.977)" fill="#e0e0e0"/>
        <path id="Trazado_732880" data-name="Trazado 732880" d="M251.975,380.034l-2.516.744,9.577,30.96s1.059,1.247,2.021.779Z" transform="translate(-104.114 -158.611)" fill="#e0e0e0"/>
        <path id="Trazado_732881" data-name="Trazado 732881" d="M244.406,410.122c.156-.052-.011-.862.262-1.79.248-.935.809-1.541.7-1.667-.075-.136-.945.383-1.254,1.513s.156,2.022.29,1.944" transform="translate(-101.839 -169.717)" fill="#263238"/>
        <path id="Trazado_732882" data-name="Trazado 732882" d="M248.733,415.674c.164-.01.225-.773.729-1.51.482-.751,1.162-1.1,1.108-1.259-.02-.156-.976.014-1.585.942s-.4,1.869-.252,1.827" transform="translate(-103.744 -172.309)" fill="#263238"/>
        <path id="Trazado_732883" data-name="Trazado 732883" d="M255.1,418.834c-.01-.153-.863-.135-1.6.531s-.861,1.506-.71,1.533c.156.05.474-.569,1.091-1.106s1.253-.8,1.222-.958" transform="translate(-105.478 -174.772)" fill="#263238"/>
        <path id="Trazado_732884" data-name="Trazado 732884" d="M237.184,411.659c.124-.11-.312-.766-.521-1.674-.227-.9-.138-1.687-.3-1.729-.142-.057-.52.8-.259,1.862s.978,1.656,1.078,1.541" transform="translate(-98.504 -170.389)" fill="#263238"/>
        <path id="Trazado_732885" data-name="Trazado 732885" d="M192.1,344.587c-.633-.175-28.463,29.68-29.1,34.613s.379,9.235,3.668,12.018,40.733-6.325,40.733-6.325l-3.542-15.686,13.535-4.554-12.1-22.138Z" transform="translate(-67.957 -142.952)" fill="#ffa031"/>
        <g id="Grupo_1032613" data-name="Grupo 1032613" transform="translate(116.667 206.8)" opacity="0.3">
          <g id="Grupo_1032612" data-name="Grupo 1032612">
            <g id="Grupo_1032611" data-name="Grupo 1032611" clip-path="url(#clip-path-18)">
              <path id="Trazado_732886" data-name="Trazado 732886" d="M201.13,356.388l-.891.958s15.952,16.734,20.846,16.5l7.832-2.653-26.5-16.261Z" transform="translate(-200.239 -354.936)"/>
            </g>
          </g>
        </g>
        <path id="Trazado_732887" data-name="Trazado 732887" d="M214.766,389.026c.023.08-5.787,1.859-12.977,3.971s-13.039,3.76-13.063,3.68,5.786-1.858,12.978-3.971,13.038-3.76,13.062-3.68" transform="translate(-78.767 -162.363)" fill="#263238"/>
        <path id="Trazado_732888" data-name="Trazado 732888" d="M166.925,388.632l5.409,17.16s-15.626,11.262-14.935,14.53l33.65-9.293-7.331-27.085Z" transform="translate(-65.683 -160.243)" fill="#455a64"/>
        <path id="Trazado_732889" data-name="Trazado 732889" d="M199.244,414a1.425,1.425,0,0,1,1.383,1.306,1.37,1.37,0,0,1-1.282,1.383,1.5,1.5,0,0,1-1.457-1.391,1.421,1.421,0,0,1,1.493-1.29" transform="translate(-82.59 -172.781)" fill="#e0e0e0"/>
        <path id="Trazado_732890" data-name="Trazado 732890" d="M191.215,429.754l-.707-2.625L158.2,436.272s-1.319,1.066-.858,2.074Z" transform="translate(-65.629 -178.267)" fill="#e0e0e0"/>
        <path id="Trazado_732891" data-name="Trazado 732891" d="M182.029,421.132c.051.163.893.01,1.848.316.962.28,1.575.876,1.709.77.143-.074-.374-.988-1.536-1.337s-2.1.111-2.021.252" transform="translate(-75.97 -175.603)" fill="#263238"/>
        <path id="Trazado_732892" data-name="Trazado 732892" d="M176.666,425.474c.006.17.795.252,1.545.794.766.519,1.114,1.231,1.276,1.179.161-.017.009-1.01-.936-1.665s-1.925-.464-1.885-.307" transform="translate(-73.733 -177.511)" fill="#263238"/>
        <path id="Trazado_732893" data-name="Trazado 732893" d="M173.736,431.993c.159-.006.161-.89-.509-1.673s-1.538-.929-1.57-.774c-.055.161.577.506,1.117,1.158.556.639.794,1.319.962,1.289" transform="translate(-71.641 -179.252)" fill="#263238"/>
        <path id="Trazado_732894" data-name="Trazado 732894" d="M180.651,413.634c.11.131.8-.3,1.747-.5.943-.213,1.751-.1,1.8-.265.062-.145-.812-.558-1.923-.315s-1.739.971-1.623,1.077" transform="translate(-75.391 -172.154)" fill="#263238"/>
        <g id="Grupo_1032616" data-name="Grupo 1032616" transform="translate(113.87 210.584)" opacity="0.3">
          <g id="Grupo_1032615" data-name="Grupo 1032615">
            <g id="Grupo_1032614" data-name="Grupo 1032614" clip-path="url(#clip-path-19)">
              <path id="Trazado_732895" data-name="Trazado 732895" d="M207.176,395.911l-2.071-8.137,1.543-.719-9.412-25.624-1.8,1.563,7.4,23.473,2.646,9.8Z" transform="translate(-195.439 -361.431)"/>
            </g>
          </g>
        </g>
        <path id="Trazado_732896" data-name="Trazado 732896" d="M166.944,311.53a13.21,13.21,0,0,0-10.592,2.27,9.716,9.716,0,0,0-3.952,9.719c1.518,10.626,15.1,46.9,15.1,46.9l18.789-5.649c.107-.033.213-.342.154-.247-.154.247-9.534-29.97-9.3-29.615.253.38,18.963,15.474,26.738,18.253a17.239,17.239,0,0,0,19.695-5.88c1.821-2.548,1.95-13.734,0-19.646,0,0-54.226-15.373-55.238-15.752a11.18,11.18,0,0,0-1.395-.351" transform="translate(-63.551 -129.902)" fill="#ffa031"/>
        <path id="Trazado_732897" data-name="Trazado 732897" d="M176.139,330.712a25.477,25.477,0,0,1,11.015,17.9" transform="translate(-73.513 -138.026)" fill="#ff725e"/>
        <path id="Trazado_732898" data-name="Trazado 732898" d="M223.748,346.722s-.073.122-.226.356a11.478,11.478,0,0,1-.745,1,17,17,0,0,1-3.621,3.158,19.054,19.054,0,0,1-3.089,1.656,17.861,17.861,0,0,1-4.038,1.124,16.915,16.915,0,0,1-4.841.008,17.271,17.271,0,0,1-5.2-1.653c-.868-.412-1.732-.887-2.617-1.369-.865-.518-1.774-1.01-2.657-1.584-.894-.559-1.807-1.13-2.717-1.746-.921-.6-1.845-1.235-2.782-1.888-3.753-2.607-7.688-5.553-11.764-8.8l-1.53-1.24c-.255-.217-.505-.418-.767-.651l-.2-.187c.088-.006-.232-.019.192-.02.04-.151.011-.041.022-.065l.013.055.032.118.14.479,1.2,3.886,2.546,8.053,5.468,17.148.045.142-.143.043-19.032,5.727-.136.041-.049-.133c-1.232-3.309-2.517-6.835-3.795-10.408-2.719-7.623-5.308-15.09-7.585-22.377-1.141-3.641-2.209-7.239-3.051-10.819-.231-.889-.388-1.793-.551-2.691a12,12,0,0,1-.237-2.718,9.447,9.447,0,0,1,1.562-5.094,12.441,12.441,0,0,1,8.657-5.128,13.5,13.5,0,0,1,4.922.245l1.18.3,1.144.341,2.259.674,16.617,4.957,24.057,7.2,6.537,1.972,1.7.52c.382.119.576.187.576.187s-.2-.048-.584-.157l-1.706-.491-6.554-1.918-24.092-7.109-16.636-4.924-2.261-.67-1.145-.339-1.151-.291a13.237,13.237,0,0,0-4.826-.232,12.771,12.771,0,0,0-4.708,1.588,11.3,11.3,0,0,0-3.752,3.43,9.168,9.168,0,0,0-1.51,4.947,11.717,11.717,0,0,0,.235,2.664c.163.889.318,1.784.55,2.671.841,3.565,1.91,7.158,3.052,10.8,2.278,7.279,4.869,14.743,7.587,22.363,1.278,3.572,2.561,7.1,3.792,10.4l-.185-.092,19.035-5.718-.1.185-5.452-17.154-2.535-8.057q-.607-1.971-1.2-3.891l-.14-.484-.033-.123-.016-.067c.007-.045-.028.045.014-.127.308.083.21-.041.235.015l.168.152.749.636,1.525,1.24c4.066,3.251,7.991,6.2,11.733,8.816.935.654,1.856,1.291,2.773,1.892.907.617,1.817,1.19,2.707,1.75.881.576,1.785,1.069,2.645,1.588.88.482,1.74.959,2.6,1.371a17.144,17.144,0,0,0,5.142,1.656,16.787,16.787,0,0,0,4.8.012,17.842,17.842,0,0,0,4.011-1.094,19.145,19.145,0,0,0,3.082-1.627,17.351,17.351,0,0,0,3.636-3.109c.345-.423.613-.741.763-.977s.248-.341.248-.341" transform="translate(-63.455 -129.808)" fill="#263238"/>
        <path id="Trazado_732899" data-name="Trazado 732899" d="M180.225,337.576a7.712,7.712,0,0,1,1.549.866,23.634,23.634,0,0,1,3.358,2.66,20.868,20.868,0,0,1,2.792,3.254,12.389,12.389,0,0,1,.686,1.1,1.458,1.458,0,0,1,.2.435c-.042.025-.4-.546-1.06-1.413a26.762,26.762,0,0,0-2.827-3.16,31.63,31.63,0,0,0-3.271-2.7,15.2,15.2,0,0,1-1.427-1.042" transform="translate(-75.219 -140.89)" fill="#263238"/>
        <path id="Trazado_732900" data-name="Trazado 732900" d="M191.23,333.985a6.517,6.517,0,0,1,.661,1.421,25.593,25.593,0,0,1,1.637,7.363,6.53,6.53,0,0,1,0,1.567,10.315,10.315,0,0,1-.217-1.546c-.117-.954-.312-2.267-.629-3.7s-.7-2.7-1-3.614a10.427,10.427,0,0,1-.459-1.493" transform="translate(-79.81 -139.392)" fill="#263238"/>
        <path id="Trazado_732901" data-name="Trazado 732901" d="M201.7,192.722l5.607,25.862c.953,4.4,1.455,11.053-5.567,12.243-6.171.573-8.937-4.814-9.822-8.92-.42-1.947-.774-3.57-.831-3.767,0,0-6.718.808-8.606-5.6-.912-3.1-2.272-9.635-3.434-15.563a12.452,12.452,0,0,1,8.857-14.376l.621-.174c6.805-1.49,11.873,3.456,13.175,10.3" transform="translate(-74.631 -76.024)" fill="#ffbe9d"/>
        <path id="Trazado_732902" data-name="Trazado 732902" d="M199.88,240.455a16.146,16.146,0,0,0,7.683-4.832s-.687,5.435-7.272,6.66Z" transform="translate(-83.422 -98.34)" fill="#eb996e"/>
        <path id="Trazado_732903" data-name="Trazado 732903" d="M182.4,212c.147.1,1-.358,2.236-.372s2.165.4,2.294.3c.063-.048-.09-.234-.5-.428a4.245,4.245,0,0,0-1.842-.365,3.875,3.875,0,0,0-1.773.426c-.371.208-.491.4-.419.444" transform="translate(-76.118 -88.116)" fill="#263238"/>
        <path id="Trazado_732904" data-name="Trazado 732904" d="M199.92,208.078c.175.024.734-.755,1.832-1.315s2.107-.6,2.176-.754c.036-.07-.182-.165-.629-.157a4.3,4.3,0,0,0-1.8.493,3.926,3.926,0,0,0-1.4,1.158c-.24.347-.264.567-.179.575" transform="translate(-83.42 -85.914)" fill="#263238"/>
        <path id="Trazado_732905" data-name="Trazado 732905" d="M200.487,212.306a.737.737,0,0,0,.886.524.705.705,0,0,0,.552-.845.738.738,0,0,0-.885-.524.705.705,0,0,0-.552.846" transform="translate(-83.667 -88.247)" fill="#263238"/>
        <path id="Trazado_732906" data-name="Trazado 732906" d="M184.344,216.047a.737.737,0,0,0,.886.524.7.7,0,0,0,.552-.845.738.738,0,0,0-.885-.524.705.705,0,0,0-.552.846" transform="translate(-76.93 -89.808)" fill="#263238"/>
        <path id="Trazado_732907" data-name="Trazado 732907" d="M195.285,216.293a6.773,6.773,0,0,0-1.687.161c-.26.045-.513.062-.6-.1a1.337,1.337,0,0,1-.042-.8q.1-1.016.207-2.132a34.291,34.291,0,0,0,.263-5.5,34.352,34.352,0,0,0-.706,5.467q-.09,1.118-.172,2.135a1.517,1.517,0,0,0,.147,1.028.661.661,0,0,0,.519.252,1.754,1.754,0,0,0,.446-.061,6.7,6.7,0,0,0,1.628-.455" transform="translate(-80.351 -86.78)" fill="#263238"/>
        <path id="Trazado_732908" data-name="Trazado 732908" d="M198.652,200.134c.155.221.993-.14,2.053-.3,1.056-.182,1.968-.1,2.042-.362.031-.123-.178-.313-.578-.457a3.38,3.38,0,0,0-1.623-.119,3.346,3.346,0,0,0-1.5.623c-.332.262-.467.508-.4.614" transform="translate(-82.902 -82.992)" fill="#263238"/>
        <path id="Trazado_732909" data-name="Trazado 732909" d="M181.536,207.183c.155.174.964-.219,1.991-.461,1.024-.262,1.913-.285,1.98-.514.027-.108-.179-.251-.572-.334a3.7,3.7,0,0,0-1.581.059,3.811,3.811,0,0,0-1.444.685c-.318.258-.445.482-.375.567" transform="translate(-75.758 -85.898)" fill="#263238"/>
        <path id="Trazado_732910" data-name="Trazado 732910" d="M219.492,208.181c.1-.078,4.055-2.55,5.15,1.889s-3.587,4.623-3.626,4.5-1.524-6.387-1.524-6.387" transform="translate(-91.607 -86.571)" fill="#ffbe9d"/>
        <path id="Trazado_732911" data-name="Trazado 732911" d="M223.387,213.544c.016-.019.091.035.237.063a.8.8,0,0,0,.581-.131,1.971,1.971,0,0,0,.461-1.936,2.629,2.629,0,0,0-.49-1.053.918.918,0,0,0-.728-.45.4.4,0,0,0-.4.325c-.029.139.021.22,0,.234s-.114-.051-.123-.243a.506.506,0,0,1,.106-.321.6.6,0,0,1,.4-.218,1.118,1.118,0,0,1,.978.488,2.705,2.705,0,0,1,.573,1.171,2.068,2.068,0,0,1-.655,2.2.852.852,0,0,1-.736.057c-.165-.076-.213-.17-.2-.181" transform="translate(-93.038 -87.564)" fill="#eb996e"/>
        <path id="Trazado_732912" data-name="Trazado 732912" d="M200.158,224.83c-.072-.1.752-.545,1.2-1.493a5.129,5.129,0,0,0,.382-1.3c.064-.351.122-.576.173-.57s.082.227.082.6a3.37,3.37,0,0,1-.309,1.427,2.733,2.733,0,0,1-.965,1.109c-.313.208-.543.264-.563.228" transform="translate(-83.536 -92.433)" fill="#263238"/>
        <path id="Trazado_732913" data-name="Trazado 732913" d="M167.826,191.306a1.238,1.238,0,0,0-.524,1.119,1.455,1.455,0,0,0,1.3,1.2,1.853,1.853,0,0,0,1.639-.8,2.646,2.646,0,0,0-.441.671,1.172,1.172,0,0,0,1.99,1.194l.015-.019a11.623,11.623,0,0,1,.73.94l0,.008.048.059c.146.2.295.393.466.582l0-.015,2.146,2.629c-.278-1.857-.962-4.423-1.24-6.281a10.461,10.461,0,0,0,6.616-4.862c.777-1.317,1.282-2.87,2.49-3.808,1.556-1.209,3.746-1.007,5.7-.745l-.091-.054a8.354,8.354,0,0,1,2.9,1.31,26,26,0,0,0,3.3,10.557c.278.486.963,1.465,1.515,1.559,1.084.183,1.147-.9,1.641-1.563a2.714,2.714,0,0,1,1.736-.823,40.749,40.749,0,0,0,.282-4.9l.3-1.713-.571-1.738c-1.254-1.388.558-2.606-.311-4.264s-2.222-3.283-4.076-3.547l-.035.025a4.808,4.808,0,0,0-4.647,1.409,6.251,6.251,0,0,0-5.6-3.822,15.472,15.472,0,0,0-7.962,2.285,16.984,16.984,0,0,0-4.453,5.184c-.658,1.03-.926,4.107-1.408,5.23Z" transform="translate(-69.822 -73.294)" fill="#263238"/>
        <path id="Trazado_732914" data-name="Trazado 732914" d="M184.74,170.415c.333-.01,8.5.425,11.472,5.95s2.7,7.423,2.7,7.423a3.894,3.894,0,0,1,.942.566c.393.329.23,2.257-.833,2.224-8.265-2.091-17.42-.881-27.5,1.162l-7.776,1.227c-2.13.623-2.991.177-2.167-.525.632-.538,6.375-4.065,6.375-4.065l1.061-1.09,2.447-4.99s-.5-.551.195-1.2,6.517-6.482,13.088-6.683" transform="translate(-67.307 -71.124)" fill="#ffa031"/>
        <path id="Trazado_732915" data-name="Trazado 732915" d="M174.559,191.485s.105-.013.3-.05l.863-.167c.746-.16,1.836-.337,3.185-.537a60.8,60.8,0,0,1,10.629-.491,93.432,93.432,0,0,1,10.6,1.07c1.349.2,2.438.387,3.191.51l.868.141c.2.031.3.04.3.04s-.1-.027-.3-.066l-.863-.165c-.75-.139-1.837-.339-3.186-.552a87.292,87.292,0,0,0-10.609-1.11,58.2,58.2,0,0,0-10.647.53c-2.7.409-4.337.845-4.337.845" transform="translate(-72.854 -79.323)" fill="#263238"/>
        <g id="Grupo_1032619" data-name="Grupo 1032619" transform="translate(108.232 100.457)" opacity="0.3">
          <g id="Grupo_1032618" data-name="Grupo 1032618">
            <g id="Grupo_1032617" data-name="Grupo 1032617" clip-path="url(#clip-path-20)">
              <path id="Trazado_732916" data-name="Trazado 732916" d="M202.739,173.479s-8.713.076-12.2,2.55l.4-.3-3.318,2.19a2.288,2.288,0,0,1-1.864.548,17.063,17.063,0,0,1,4.965-3.854c3.343-1.805,8.887-3.283,12.013-1.137" transform="translate(-185.761 -172.417)"/>
            </g>
          </g>
        </g>
        <path id="Trazado_732917" data-name="Trazado 732917" d="M199.944,173.533a6.114,6.114,0,0,0-.845-.368,10.74,10.74,0,0,0-2.442-.584,12.755,12.755,0,0,0-3.722.1,10.7,10.7,0,0,0-4.253,1.612,19.206,19.206,0,0,0-1.864,1.458c-.572.505-1.145.963-1.652,1.455a11.566,11.566,0,0,1-1.468,1.324,3.711,3.711,0,0,1-1.582.61c-2.079.385-3.432.172-3.361.024a.34.34,0,0,0,.195.136,2.735,2.735,0,0,0,.677.106,11.494,11.494,0,0,0,2.506-.174,3.8,3.8,0,0,0,1.627-.611,11.472,11.472,0,0,0,1.49-1.327c.5-.482,1.081-.941,1.652-1.444a19.506,19.506,0,0,1,1.853-1.446,10.7,10.7,0,0,1,4.2-1.6,12.935,12.935,0,0,1,3.69-.127,11.328,11.328,0,0,1,2.437.54c.28.095.494.177.638.238s.224.082.224.082" transform="translate(-74.604 -71.99)" fill="#263238"/>
        <g id="Grupo_1032622" data-name="Grupo 1032622" transform="translate(117.11 106.398)" opacity="0.3">
          <g id="Grupo_1032621" data-name="Grupo 1032621">
            <g id="Grupo_1032620" data-name="Grupo 1032620" clip-path="url(#clip-path-21)">
              <path id="Trazado_732918" data-name="Trazado 732918" d="M213.951,183.777a19.3,19.3,0,0,1-4.307-.02c-1.668-.077-3.309-.083-4.971-.239-1.262-.119-2.738-.165-3.674-.9a1.786,1.786,0,0,0,.818,1.553,8.581,8.581,0,0,0,2.773.7,45.312,45.312,0,0,0,9.933.214,10.619,10.619,0,0,0-.572-1.3" transform="translate(-200.999 -182.614)"/>
            </g>
          </g>
        </g>
        <path id="Trazado_732919" data-name="Trazado 732919" d="M212.438,179.482c1.034.253,1.673.434,1.841,1.249.14.679.144,1.538-.508,1.772a1.7,1.7,0,0,1-.627.06l-10.854-.321a1.588,1.588,0,0,1-1.041-.281,1.078,1.078,0,0,1,.117-1.5,2.957,2.957,0,0,1,1.545-.632,35.433,35.433,0,0,1,9.526-.343" transform="translate(-83.886 -74.84)" fill="#ffa031"/>
        <path id="Trazado_732920" data-name="Trazado 732920" d="M201.366,181.83a1.027,1.027,0,0,1-.36-.409,1.333,1.333,0,0,1,.2-1.4,3.31,3.31,0,0,1,2.03-.828c.849-.1,1.785-.2,2.769-.272a28.349,28.349,0,0,1,5.045.032c.644.065,1.16.151,1.517.212l.41.074a.643.643,0,0,0,.145.017.576.576,0,0,0-.139-.043l-.406-.1c-.355-.076-.871-.177-1.515-.253a25.854,25.854,0,0,0-5.065-.071c-.988.071-1.924.174-2.775.283a3.358,3.358,0,0,0-2.086.888,1.381,1.381,0,0,0-.179,1.481.914.914,0,0,0,.275.32.516.516,0,0,0,.132.066" transform="translate(-83.815 -74.584)" fill="#263238"/>
        <path id="Trazado_732921" data-name="Trazado 732921" d="M176.82,185.724l6.577-1.267-.239,1.955-7.2,1.076Z" transform="translate(-73.437 -76.985)" fill="#fff"/>
        <path id="Trazado_732922" data-name="Trazado 732922" d="M186.653,193.748c0-.037-3.016.047-6.733.186s-6.73.281-6.728.318,3.015-.047,6.734-.186,6.729-.281,6.728-.318" transform="translate(-72.283 -80.859)" fill="#263238"/>
        <path id="Trazado_732923" data-name="Trazado 732923" d="M56.29,258.87h-5.1V247.753a6.014,6.014,0,0,1,5.964-6.048h5.332v5.173H57.153a.871.871,0,0,0-.863.876Z" transform="translate(-21.364 -100.878)" fill="#e0e0e0"/>
        <path id="Trazado_732924" data-name="Trazado 732924" d="M64.433,250.131a2.526,2.526,0,0,1,1.733-3.054c2.639-.776,6.721-1.749,7.834-.733,1.683,1.536,5.706,5.268,5.706,5.268l8.56,2.049.512,7.682-15.071-4.316s-4.1.219-3.731-1.976c0,0-2.049-.8-1.756-2.049s1.975-1.536,1.975-1.536l-.366-2.2-5.375.942Z" transform="translate(-26.858 -102.632)" fill="#ffbe9d"/>
        <path id="Trazado_732925" data-name="Trazado 732925" d="M70.254,243.405a5.158,5.158,0,1,1-5.158-5.158,5.158,5.158,0,0,1,5.158,5.158" transform="translate(-25.016 -99.435)" fill="#fff"/>
        <path id="Trazado_732926" data-name="Trazado 732926" d="M64.886,248.645a5.449,5.449,0,1,1,5.449-5.449,5.455,5.455,0,0,1-5.449,5.449m0-10.316a4.867,4.867,0,1,0,4.867,4.866,4.872,4.872,0,0,0-4.867-4.866" transform="translate(-24.807 -99.226)" fill="#e0e0e0"/>
        <path id="Trazado_732927" data-name="Trazado 732927" d="M74.583,251.006l-6.8-1.756s-1.829-.512-.878,1.464,3.8,1.536,4.9,2.707,1.719,3.146,6.256,3.877" transform="translate(-27.807 -104.002)" fill="#ffbe9d"/>
        <path id="Trazado_732928" data-name="Trazado 732928" d="M77.954,257.2a4.63,4.63,0,0,1-.9-.112,9.691,9.691,0,0,1-2.348-.759,6.461,6.461,0,0,1-1.425-.961,10.4,10.4,0,0,1-1.292-1.476,3.254,3.254,0,0,0-.7-.715,3.615,3.615,0,0,0-.961-.425,17.865,17.865,0,0,1-2.211-.709,3.473,3.473,0,0,1-1-.7,3.21,3.21,0,0,1-.609-1.021,2.365,2.365,0,0,1-.132-.582.742.742,0,0,1,.23-.608.919.919,0,0,1,.589-.185,2.021,2.021,0,0,1,.552.076l3.512.94,2.361.66a5.093,5.093,0,0,1,.855.281,5.109,5.109,0,0,1-.885-.167l-2.386-.566-3.53-.877a1.092,1.092,0,0,0-.88.059c-.2.161-.132.544-.008.866a2.955,2.955,0,0,0,.549.917,3.21,3.21,0,0,0,.911.629,18.753,18.753,0,0,0,2.173.7,3.85,3.85,0,0,1,1.032.468,3.48,3.48,0,0,1,.759.783,10.516,10.516,0,0,0,1.242,1.462,6.4,6.4,0,0,0,1.352.956,10.975,10.975,0,0,0,2.276.834,5.7,5.7,0,0,1,.87.228" transform="translate(-27.703 -103.901)" fill="#eb996e"/>
        <path id="Trazado_732929" data-name="Trazado 732929" d="M67.676,244.624l.766-.444-2.231-3.012Z" transform="translate(-27.634 -100.654)" fill="#ff725e"/>
        <path id="Trazado_732930" data-name="Trazado 732930" d="M60.7,240.912c.035.038-.25.306-.547.844a5.693,5.693,0,0,0-.664,2.282,5.97,5.97,0,0,0,.271,2.364,8.293,8.293,0,0,1,.357.946,2.218,2.218,0,0,1-.557-.87,5.207,5.207,0,0,1-.373-2.466,5.021,5.021,0,0,1,.783-2.368c.362-.539.712-.759.729-.732" transform="translate(-24.694 -100.546)" fill="#263238"/>
        <path id="Trazado_732931" data-name="Trazado 732931" d="M104.89,255.8l28.86,3.206,24.584-5.717.225,20.349s-26.85-.951-28.606-1.1-25.669-3.289-25.669-3.289Z" transform="translate(-43.524 -105.715)" fill="#ffa031"/>
        <path id="Trazado_732932" data-name="Trazado 732932" d="M114.792,258.668l-.157,13.622,5.142.67.112-13.725Z" transform="translate(-47.844 -107.958)" fill="#fff"/>
        <path id="Trazado_732933" data-name="Trazado 732933" d="M212.789,232.018l2.157,1.812,14.429,4.847,8.321,12.3s3.879,36.59,3.665,39.793.164,3.8.164,3.8l-43.9-12.478-2.354-19.965,1.035-17.708,2.128-3.322,2.416,3.949,4.26-5.952Z" transform="translate(-81.5 -96.835)" fill="#ffa031"/>
        <path id="Trazado_732934" data-name="Trazado 732934" d="M238.894,285.488l-43.944-1.672.81,7.155,43.95,2.722Z" transform="translate(-81.364 -118.453)" fill="#fff"/>
        <path id="Trazado_732935" data-name="Trazado 732935" d="M192.519,268.8a1.08,1.08,0,0,1,.079.284c.046.223.1.5.17.826.144.718.325,1.762.533,3.054.418,2.585.884,6.171,1.347,10.136s.9,7.552,1.258,10.141c.18,1.26.327,2.3.438,3.066.045.334.083.609.113.835a1.124,1.124,0,0,1,.02.294,1.041,1.041,0,0,1-.08-.284c-.045-.223-.1-.5-.17-.826-.144-.718-.326-1.761-.533-3.054-.417-2.585-.884-6.172-1.347-10.137s-.9-7.55-1.258-10.14c-.179-1.26-.327-2.3-.437-3.066-.045-.334-.083-.609-.114-.835a1.075,1.075,0,0,1-.019-.295" transform="translate(-80.348 -112.188)" fill="#263238"/>
        <path id="Trazado_732936" data-name="Trazado 732936" d="M204.848,246.641a2.265,2.265,0,0,1,.315-.415l.946-1.1,3.361-3.777.093-.1.106.095,3.011,2.708.25.226-.222.021c1.81-2.371,3.452-4.5,4.649-6.02l1.429-1.794a4.551,4.551,0,0,1,.555-.632,4.536,4.536,0,0,1-.463.7l-1.353,1.852c-1.154,1.558-2.768,3.7-4.576,6.075l-.1.131-.122-.11-.251-.227-3-2.723.2-.01-3.442,3.7-1.005,1.045a2.2,2.2,0,0,1-.383.352" transform="translate(-85.495 -98.434)" fill="#263238"/>
        <path id="Trazado_732937" data-name="Trazado 732937" d="M200.949,253.176a8.451,8.451,0,0,1-1.884-2.056l.238,0c-.163.219-.329.456-.491.705a15.146,15.146,0,0,0-1.063,1.925l-.088.191-.118-.165a5.767,5.767,0,0,1-.767-1.2,5.794,5.794,0,0,1,.957,1.056l-.206.026a10.77,10.77,0,0,1,1.03-2c.167-.255.34-.5.51-.717l.124-.16.114.164c.9,1.3,1.7,2.173,1.644,2.226" transform="translate(-82.125 -104.668)" fill="#263238"/>
        <path id="Trazado_732938" data-name="Trazado 732938" d="M147.819,276.077l16.247,13.176,3.92-4.707-15.865-13.394Z" transform="translate(-61.694 -113.168)" fill="#263238"/>
        <path id="Trazado_732939" data-name="Trazado 732939" d="M142.6,271.84a14.468,14.468,0,0,0-5.2-3.577,9.536,9.536,0,0,0-6.83-.327l-.216-.541a9.976,9.976,0,0,1,7.283.336,14.739,14.739,0,0,1,5.417,3.749Z" transform="translate(-54.405 -111.379)" fill="#263238"/>
        <path id="Trazado_732940" data-name="Trazado 732940" d="M164.756,283.407a19.634,19.634,0,0,1,4.226.957c1.084.56,4.222,2.649,4.222,2.649l6.346,1.2-1.516,10.477-4.245-2.105-9.355.929s-2.036-.466-2.037-1.922a3.849,3.849,0,0,1-1.813-2.744,42.134,42.134,0,0,1-2.729-3.92c-.224-.634,1.047-2.135,1.047-2.135s2.669,2.264,4.294,2.618,3.09-.285,3.23-1.328c.283-2.115-1.67-4.674-1.67-4.674" transform="translate(-65.871 -118.283)" fill="#e0e0e0"/>
        <g id="Grupo_1032625" data-name="Grupo 1032625" transform="translate(115.667 162.407)" opacity="0.3">
          <g id="Grupo_1032624" data-name="Grupo 1032624">
            <g id="Grupo_1032623" data-name="Grupo 1032623" clip-path="url(#clip-path-22)">
              <path id="Trazado_732941" data-name="Trazado 732941" d="M198.636,299.537s21.295,7.636,28.44,7.183c6.052-.385,9.031-3.221,9.511-7.183s1.147-20.794,1.147-20.794l-11.426,19.81-27.785-.873Z" transform="translate(-198.523 -278.743)"/>
            </g>
          </g>
        </g>
        <path id="Trazado_732942" data-name="Trazado 732942" d="M227.808,283.425a129.753,129.753,0,0,0,3.215-12.8l2.655-14.021a15.266,15.266,0,0,0-3.453-10.053,9.611,9.611,0,0,0-7.434-3.859c-6.893.03-6.648,12.734-6.648,12.734l-1.877,18.186-26.965-4.4-1.711,12.965,31.713,6.841a9.432,9.432,0,0,0,7.778-1.5,8.251,8.251,0,0,0,2.726-4.1" transform="translate(-77.458 -101.292)" fill="#ffa031"/>
        <path id="Trazado_732943" data-name="Trazado 732943" d="M245.83,244.6c0,.051-.55.068-1.4.291a7.37,7.37,0,0,0-4.964,4.289c-.343.805-.44,1.349-.49,1.339a3.529,3.529,0,0,1,.29-1.418,6.909,6.909,0,0,1,5.114-4.419,3.526,3.526,0,0,1,1.446-.082" transform="translate(-99.736 -102.07)" fill="#263238"/>
        <path id="Trazado_732944" data-name="Trazado 732944" d="M199.674,290.149l-.958,13.492,5.526,1.192.849-13.8Z" transform="translate(-82.936 -121.097)" fill="#fff"/>
        <path id="Trazado_732945" data-name="Trazado 732945" d="M233.558,265.73s-.011.115-.048.337-.1.559-.171.983l-.686,3.778c-.3,1.643-.675,3.648-1.1,5.974-.222,1.164-.436,2.41-.707,3.728s-.57,2.7-.9,4.158-.7,2.972-1.125,4.545c-.209.787-.442,1.586-.693,2.4a16.819,16.819,0,0,1-.925,2.429,7.719,7.719,0,0,1-1.57,2.2,8.353,8.353,0,0,1-2.346,1.513,9.792,9.792,0,0,1-5.722.6l-25.073-5.394-7.045-1.521-.136-.029.019-.138c.593-4.476,1.167-8.813,1.716-12.964l.02-.148.147.024,26.959,4.435-.121.093,1.423-13.328c.172-1.556.307-2.766.4-3.6.048-.4.084-.711.111-.932s.047-.316.047-.316,0,.109-.017.319-.047.532-.082.936c-.079.834-.2,2.046-.344,3.6-.313,3.146-.766,7.691-1.329,13.338l-.011.11-.11-.017-26.972-4.356.167-.124c-.546,4.152-1.116,8.49-1.7,12.967l-.118-.167,7.045,1.519,25.061,5.416a9.53,9.53,0,0,0,5.564-.567,8.11,8.11,0,0,0,2.273-1.455,7.469,7.469,0,0,0,1.523-2.125,16.582,16.582,0,0,0,.918-2.391c.252-.805.487-1.6.7-2.384.429-1.567.8-3.083,1.142-4.533s.646-2.835.925-4.148.5-2.56.729-3.721c.45-2.322.838-4.324,1.155-5.964l.742-3.767.2-.978c.047-.22.079-.332.079-.332" transform="translate(-77.338 -110.413)" fill="#263238"/>
        <path id="Trazado_732946" data-name="Trazado 732946" d="M237.643,300.32a14.752,14.752,0,0,1-1.772-2.4l-1.134-1.762a1.239,1.239,0,0,0-.649-.482c0-.017.085-.056.249-.025a1.11,1.11,0,0,1,.565.371c.362.433.758,1.045,1.222,1.731a14.777,14.777,0,0,1,1.52,2.567" transform="translate(-97.699 -123.389)" fill="#263238"/>
        <g id="Grupo_1032628" data-name="Grupo 1032628" transform="translate(120.3 138.23)" opacity="0.3">
          <g id="Grupo_1032627" data-name="Grupo 1032627">
            <g id="Grupo_1032626" data-name="Grupo 1032626" clip-path="url(#clip-path-23)">
              <path id="Trazado_732947" data-name="Trazado 732947" d="M206.474,246.184l3.654-2.251,4.031,4.269,5.239-10.955-5.89,7.723-3.255-2.942Z" transform="translate(-206.474 -237.248)"/>
            </g>
          </g>
        </g>
        <rect id="Rectángulo_352015" data-name="Rectángulo 352015" width="6.639" height="16.984" transform="translate(20.907 140.917)" fill="#e0e0e0"/>
        <path id="Trazado_732948" data-name="Trazado 732948" d="M44.255,222.537a8.543,8.543,0,1,1-8.543-8.64,8.592,8.592,0,0,1,8.543,8.64" transform="translate(-11.339 -89.272)" fill="#fff"/>
        <path id="Trazado_732949" data-name="Trazado 732949" d="M35.5,231.26a8.932,8.932,0,1,1,8.835-8.931A8.894,8.894,0,0,1,35.5,231.26m0-17.28a8.349,8.349,0,1,0,8.252,8.349A8.31,8.31,0,0,0,35.5,213.98" transform="translate(-11.131 -89.063)" fill="#e0e0e0"/>
        <path id="Trazado_732950" data-name="Trazado 732950" d="M40.01,224.716l1.634.474,1.324-6.072Z" transform="translate(-16.698 -91.451)" fill="#ff725e"/>
        <path id="Trazado_732951" data-name="Trazado 732951" d="M42.851,242.3a2.957,2.957,0,0,1-1.15.634,8.223,8.223,0,0,1-3.141.424,9.708,9.708,0,0,1-3.1-.647,3.4,3.4,0,0,1-1.148-.633c.024-.044.465.188,1.221.431a11.808,11.808,0,0,0,3.042.545,9.563,9.563,0,0,0,3.06-.325c.761-.22,1.19-.476,1.217-.43" transform="translate(-14.32 -101.031)" fill="#263238"/>
        <path id="Trazado_732952" data-name="Trazado 732952" d="M49.624,270.982c0,.084-7.593.09-16.956.015s-16.956-.205-16.955-.289,7.592-.09,16.958-.015,16.954.205,16.954.289" transform="translate(-6.558 -112.955)" fill="#263238"/>
      </g>
    </g>
  </g>
</svg>
