<svg id="Grupo_1032635" data-name="Grupo 1032635" xmlns="http://www.w3.org/2000/svg" xmlns:xlink="http://www.w3.org/1999/xlink" width="445.795" height="209.456" viewBox="0 0 445.795 209.456">
  <defs>
    <clipPath id="clip-path">
      <rect id="Rectángulo_352038" data-name="Rectángulo 352038" width="445.795" height="209.456" fill="none"/>
    </clipPath>
  </defs>
  <rect id="Rectángulo_352018" data-name="Rectángulo 352018" width="102.965" height="10.079" transform="translate(0 109.828)" fill="#012968"/>
  <g id="Grupo_1032634" data-name="Grupo 1032634">
    <g id="Grupo_1032633" data-name="Grupo 1032633" clip-path="url(#clip-path)">
      <path id="Trazado_732953" data-name="Trazado 732953" d="M378.577,288.648H363.2v-16.6a15.375,15.375,0,0,1,15.374,15.374Z" transform="translate(-259.435 -194.322)" fill="#012968"/>
      <path id="Trazado_732954" data-name="Trazado 732954" d="M361.914,310.779l-5.231-14.855a3,3,0,0,0-2.856-1.931H329.1V329.9h32.6l.359-18.2a2.644,2.644,0,0,0-.15-.93" transform="translate(-235.078 -209.998)" fill="#65b3c6"/>
      <rect id="Rectángulo_352019" data-name="Rectángulo 352019" width="32.816" height="4.449" transform="translate(94.026 104.51)" fill="#ffa031"/>
      <path id="Trazado_732955" data-name="Trazado 732955" d="M437.988,404.266h0a2.592,2.592,0,0,1-2.592-2.592v-.984a2.592,2.592,0,0,1,2.592-2.592Z" transform="translate(-311.002 -284.36)" fill="#ffa031"/>
      <path id="Trazado_732956" data-name="Trazado 732956" d="M388.114,318.366h-13.2a1.482,1.482,0,0,1-1.483-1.482V306.025a1.482,1.482,0,0,1,1.483-1.483h9.874a1.482,1.482,0,0,1,1.417,1.048l3.329,10.858a1.482,1.482,0,0,1-1.417,1.917" transform="translate(-266.738 -217.534)" fill="#f7ede7"/>
      <path id="Trazado_732957" data-name="Trazado 732957" d="M387.71,325.423l1.822,5.941a1.483,1.483,0,0,1-1.418,1.917h-13.2a1.482,1.482,0,0,1-1.483-1.482v-6.375Z" transform="translate(-266.738 -232.448)" fill="#fff8f3"/>
      <path id="Trazado_732958" data-name="Trazado 732958" d="M394.04,407.853a7.353,7.353,0,1,1-7.353-7.353,7.353,7.353,0,0,1,7.353,7.353" transform="translate(-270.957 -286.076)" fill="#05173e"/>
      <path id="Trazado_732959" data-name="Trazado 732959" d="M398.752,407.022a7.054,7.054,0,1,1-7.041-7.491,7.277,7.277,0,0,1,7.041,7.491" transform="translate(-274.769 -285.384)" fill="#05173e"/>
      <path id="Trazado_732960" data-name="Trazado 732960" d="M404.12,415.719a3.475,3.475,0,1,1-3.462-3.769,3.625,3.625,0,0,1,3.462,3.769" transform="translate(-283.716 -294.254)" fill="#012968"/>
      <rect id="Rectángulo_352020" data-name="Rectángulo 352020" width="15.593" height="25.833" transform="translate(78.433 83.995)" fill="#012968"/>
      <rect id="Rectángulo_352021" data-name="Rectángulo 352021" width="25.335" height="6.27" transform="translate(78.433 77.725)" fill="#012968"/>
      <rect id="Rectángulo_352022" data-name="Rectángulo 352022" width="1.021" height="25.833" transform="translate(93.006 83.995)" fill="#05173e"/>
      <path id="Trazado_732961" data-name="Trazado 732961" d="M339.362,312.64h0a4.084,4.084,0,0,1-4.084-4.084v-4.517a4.084,4.084,0,1,1,8.168,0v4.517a4.084,4.084,0,0,1-4.084,4.084" transform="translate(-239.488 -214.257)" fill="#016589"/>
      <rect id="Rectángulo_352023" data-name="Rectángulo 352023" width="66.738" height="5.318" transform="translate(22.834 104.51)" fill="#ffa031"/>
      <rect id="Rectángulo_352024" data-name="Rectángulo 352024" width="59.269" height="12.379" transform="translate(13.069 92.131)" fill="#016589"/>
      <path id="Trazado_732962" data-name="Trazado 732962" d="M83.327,362.956H22a.568.568,0,1,1,0-1.136H83.327a.568.568,0,1,1,0,1.136" transform="translate(-15.31 -258.447)" fill="#05173e"/>
      <path id="Trazado_732963" data-name="Trazado 732963" d="M83.327,330.186H22a.568.568,0,0,1,0-1.137H83.327a.568.568,0,1,1,0,1.137" transform="translate(-15.31 -235.039)" fill="#05173e"/>
      <rect id="Rectángulo_352025" data-name="Rectángulo 352025" width="1.097" height="9.363" transform="translate(11.556 94.579)" fill="#05173e"/>
      <rect id="Rectángulo_352026" data-name="Rectángulo 352026" width="1.097" height="9.363" transform="translate(17.191 94.579)" fill="#05173e"/>
      <rect id="Rectángulo_352027" data-name="Rectángulo 352027" width="1.097" height="9.363" transform="translate(22.826 94.579)" fill="#05173e"/>
      <rect id="Rectángulo_352028" data-name="Rectángulo 352028" width="1.097" height="9.363" transform="translate(28.46 94.579)" fill="#05173e"/>
      <rect id="Rectángulo_352029" data-name="Rectángulo 352029" width="1.097" height="9.363" transform="translate(34.095 94.579)" fill="#05173e"/>
      <rect id="Rectángulo_352030" data-name="Rectángulo 352030" width="1.097" height="9.363" transform="translate(39.73 94.579)" fill="#05173e"/>
      <rect id="Rectángulo_352031" data-name="Rectángulo 352031" width="1.097" height="9.363" transform="translate(45.365 94.579)" fill="#05173e"/>
      <rect id="Rectángulo_352032" data-name="Rectángulo 352032" width="1.097" height="9.363" transform="translate(50.999 94.579)" fill="#05173e"/>
      <rect id="Rectángulo_352033" data-name="Rectángulo 352033" width="1.097" height="9.363" transform="translate(56.634 94.579)" fill="#05173e"/>
      <rect id="Rectángulo_352034" data-name="Rectángulo 352034" width="1.097" height="9.363" transform="translate(62.269 94.579)" fill="#05173e"/>
      <path id="Trazado_732964" data-name="Trazado 732964" d="M424.5,340.852h0a2.208,2.208,0,0,1-2.208-2.208v-3.154a2.208,2.208,0,1,1,4.416,0v3.154a2.208,2.208,0,0,1-2.208,2.208" transform="translate(-301.644 -238.061)" fill="#05173e"/>
      <path id="Trazado_732965" data-name="Trazado 732965" d="M427.793,340.447v-3.155a1.487,1.487,0,0,0-1.487-1.487h0a1.487,1.487,0,0,0-1.487,1.487v3.155a1.487,1.487,0,1,0,2.974,0" transform="translate(-303.447 -239.864)" fill="#f7ede7"/>
      <rect id="Rectángulo_352035" data-name="Rectángulo 352035" width="15.593" height="6.27" transform="translate(78.433 77.725)" fill="#65b3c6"/>
      <path id="Trazado_732966" data-name="Trazado 732966" d="M19.9,406.944a7.142,7.142,0,0,1-7.041,7.239,7.242,7.242,0,0,1,0-14.479,7.142,7.142,0,0,1,7.041,7.24" transform="translate(-4.156 -285.507)" fill="#05173e"/>
      <path id="Trazado_732967" data-name="Trazado 732967" d="M27.509,405.182c0,4.234-3.152,7.666-7.041,7.666s-7.041-3.432-7.041-7.666,3.152-7.666,7.041-7.666,7.041,3.432,7.041,7.666" transform="translate(-9.592 -283.944)" fill="#05173e"/>
      <path id="Trazado_732968" data-name="Trazado 732968" d="M32.878,414.923a3.626,3.626,0,0,1-3.462,3.769,3.783,3.783,0,0,1,0-7.539,3.626,3.626,0,0,1,3.462,3.769" transform="translate(-18.539 -293.686)" fill="#012968"/>
      <path id="Trazado_732969" data-name="Trazado 732969" d="M319.621,408.349a7.043,7.043,0,1,1-7.041-7.24,7.142,7.142,0,0,1,7.041,7.24" transform="translate(-218.246 -286.511)" fill="#05173e"/>
      <path id="Trazado_732970" data-name="Trazado 732970" d="M327.228,406.587c0,4.234-3.152,7.666-7.041,7.666s-7.041-3.432-7.041-7.666,3.152-7.665,7.041-7.665,7.041,3.432,7.041,7.665" transform="translate(-223.68 -284.949)" fill="#05173e"/>
      <path id="Trazado_732971" data-name="Trazado 732971" d="M332.6,416.328a3.474,3.474,0,1,1-3.462-3.769,3.625,3.625,0,0,1,3.462,3.769" transform="translate(-232.628 -294.689)" fill="#012968"/>
      <path id="Trazado_732972" data-name="Trazado 732972" d="M108.811,411.637a7.043,7.043,0,1,1-7.041-7.239,7.142,7.142,0,0,1,7.041,7.239" transform="translate(-67.665 -288.86)" fill="#05173e"/>
      <path id="Trazado_732973" data-name="Trazado 732973" d="M116.418,409.877c0,4.234-3.152,7.666-7.041,7.666s-7.041-3.432-7.041-7.666,3.152-7.666,7.041-7.666,7.041,3.432,7.041,7.666" transform="translate(-73.099 -287.298)" fill="#05173e"/>
      <path id="Trazado_732974" data-name="Trazado 732974" d="M121.788,419.618a3.475,3.475,0,1,1-3.462-3.769,3.626,3.626,0,0,1,3.462,3.769" transform="translate(-82.047 -297.039)" fill="#012968"/>
      <path id="Trazado_732975" data-name="Trazado 732975" d="M236.7,336.915h-1.447V326.087a.724.724,0,1,1,1.447,0Z" transform="translate(-168.038 -232.406)" fill="#ffa031"/>
      <path id="Trazado_732976" data-name="Trazado 732976" d="M303.455,336.915h-1.447V326.087a.724.724,0,1,1,1.447,0Z" transform="translate(-215.723 -232.406)" fill="#ffa031"/>
      <path id="Trazado_732977" data-name="Trazado 732977" d="M252.862,321.877h0a.914.914,0,0,1-.913-.914V308.321a.914.914,0,0,1,1.827,0v12.642a.914.914,0,0,1-.914.914" transform="translate(-179.966 -219.58)" fill="#65b3c6"/>
      <path id="Trazado_732978" data-name="Trazado 732978" d="M252.595,320.963V308.32a.914.914,0,0,1,.59-.855.914.914,0,0,0-1.236.855v12.643a.913.913,0,0,0,.913.914.9.9,0,0,0,.323-.059.914.914,0,0,1-.59-.855" transform="translate(-179.966 -219.58)" fill="#016589"/>
      <path id="Trazado_732979" data-name="Trazado 732979" d="M240.971,321.877h0a.914.914,0,0,1-.913-.914V308.321a.913.913,0,0,1,1.827,0v12.642a.914.914,0,0,1-.913.914" transform="translate(-171.473 -219.58)" fill="#65b3c6"/>
      <path id="Trazado_732980" data-name="Trazado 732980" d="M296.527,321.877h0a.914.914,0,0,1-.913-.914V308.321a.913.913,0,1,1,1.827,0v12.642a.914.914,0,0,1-.913.914" transform="translate(-211.156 -219.58)" fill="#65b3c6"/>
      <path id="Trazado_732981" data-name="Trazado 732981" d="M296.338,320.963V308.32a.914.914,0,0,1,.551-.839.914.914,0,0,0-1.275.839v12.643a.914.914,0,0,0,1.275.839.914.914,0,0,1-.551-.839" transform="translate(-211.156 -219.58)" fill="#016589"/>
      <path id="Trazado_732982" data-name="Trazado 732982" d="M290.133,321.877h0a.914.914,0,0,1-.914-.914V308.321a.914.914,0,0,1,1.827,0v12.642a.914.914,0,0,1-.913.914" transform="translate(-206.588 -219.58)" fill="#65b3c6"/>
      <path id="Trazado_732983" data-name="Trazado 732983" d="M289.865,320.963V308.32a.914.914,0,0,1,.591-.855.914.914,0,0,0-1.237.855v12.643a.913.913,0,0,0,1.237.855.914.914,0,0,1-.591-.855" transform="translate(-206.588 -219.58)" fill="#016589"/>
      <path id="Trazado_732984" data-name="Trazado 732984" d="M283.738,321.877h0a.914.914,0,0,1-.913-.914V308.321a.913.913,0,0,1,1.827,0v12.642a.914.914,0,0,1-.913.914" transform="translate(-202.021 -219.58)" fill="#65b3c6"/>
      <path id="Trazado_732985" data-name="Trazado 732985" d="M283.314,320.963V308.32a.914.914,0,0,1,.669-.88.914.914,0,0,0-1.158.88v12.643a.913.913,0,0,0,1.158.88.914.914,0,0,1-.669-.88" transform="translate(-202.021 -219.58)" fill="#016589"/>
      <path id="Trazado_732986" data-name="Trazado 732986" d="M277.343,321.877h0a.914.914,0,0,1-.913-.914V308.321a.914.914,0,0,1,1.827,0v12.642a.914.914,0,0,1-.914.914" transform="translate(-197.453 -219.58)" fill="#65b3c6"/>
      <path id="Trazado_732987" data-name="Trazado 732987" d="M277.009,320.963V308.32a.913.913,0,0,1,.624-.866.913.913,0,0,0-1.2.866v12.643a.913.913,0,0,0,1.2.867.914.914,0,0,1-.624-.867" transform="translate(-197.453 -219.58)" fill="#016589"/>
      <path id="Trazado_732988" data-name="Trazado 732988" d="M270.949,321.877h0a.914.914,0,0,1-.913-.914V308.321a.913.913,0,0,1,1.827,0v12.642a.914.914,0,0,1-.913.914" transform="translate(-192.886 -219.58)" fill="#65b3c6"/>
      <path id="Trazado_732989" data-name="Trazado 732989" d="M270.78,320.963V308.32a.914.914,0,0,1,.541-.834.914.914,0,0,0-1.285.834v12.643a.913.913,0,0,0,1.285.834.913.913,0,0,1-.541-.834" transform="translate(-192.886 -219.58)" fill="#016589"/>
      <path id="Trazado_732990" data-name="Trazado 732990" d="M259.256,321.877h0a.914.914,0,0,1-.913-.914V308.321a.914.914,0,0,1,1.827,0v12.642a.914.914,0,0,1-.914.914" transform="translate(-184.533 -219.58)" fill="#65b3c6"/>
      <path id="Trazado_732991" data-name="Trazado 732991" d="M258.911,320.963V308.32a.914.914,0,0,1,.629-.868.914.914,0,0,0-1.2.868v12.643a.914.914,0,0,0,1.2.869.914.914,0,0,1-.629-.869" transform="translate(-184.533 -219.58)" fill="#016589"/>
      <path id="Trazado_732992" data-name="Trazado 732992" d="M246.467,321.877h0a.914.914,0,0,1-.913-.914V308.321a.914.914,0,0,1,1.827,0v12.642a.914.914,0,0,1-.914.914" transform="translate(-175.398 -219.58)" fill="#65b3c6"/>
      <path id="Trazado_732993" data-name="Trazado 732993" d="M246.318,320.963V308.32a.914.914,0,0,1,.532-.83.914.914,0,0,0-1.3.83v12.643a.913.913,0,0,0,1.3.83.914.914,0,0,1-.532-.83" transform="translate(-175.398 -219.58)" fill="#016589"/>
      <path id="Trazado_732994" data-name="Trazado 732994" d="M400.5,276.287h-5.662v-3.158a2.831,2.831,0,0,1,5.662,0Z" transform="translate(-282.034 -193.073)" fill="#ffa031"/>
      <rect id="Rectángulo_352036" data-name="Rectángulo 352036" width="7.007" height="0.805" transform="translate(112.135 83.214)" fill="#05173e"/>
      <path id="Trazado_732995" data-name="Trazado 732995" d="M565.994,224.174l1.072,8.885s5.29,2.969,7.911,1.3c2.2-1.4.561-4.111.561-4.111s-2.662-4.462-2.945-6.984-6.6.909-6.6.909" transform="translate(-404.288 -158.817)" fill="#f7a491"/>
      <path id="Trazado_732996" data-name="Trazado 732996" d="M572.593,223.265c-.283-2.521-6.6.909-6.6.909l.089.737a4.1,4.1,0,0,0,1.066.987,9.346,9.346,0,0,0,6.645,1.007,13.48,13.48,0,0,1-1.2-3.639" transform="translate(-404.288 -158.817)" fill="#f47458"/>
      <path id="Trazado_732997" data-name="Trazado 732997" d="M558.024,175.39c-.2-.064-1.245,10.122,1.487,12.823s7.9,3.442,9.67,1.183c1.956-2.5,1.482-13.393-2.716-16.125s-8.442,2.119-8.442,2.119" transform="translate(-398.335 -123.171)" fill="#f7a491"/>
      <path id="Trazado_732998" data-name="Trazado 732998" d="M551.953,156.346a11.425,11.425,0,0,0-5.863,3.551c-1.433.215-3.362,1.063-5.27,4.418a8.14,8.14,0,0,0,2.606,10.643,13.472,13.472,0,0,1,4.214,4.861L547.357,177c.3-1.006-.1-.792-.25-1.831a5.953,5.953,0,0,0-.531-1.843c-.745-1.445,1.411-2.493,1.983-3.734.441-.956.39-3.107,1.082-4.686l.849-1.216s2-1.638,4.02-1.263,1.481-7.029-2.557-6.077" transform="translate(-385.568 -111.617)" fill="#05173e"/>
      <path id="Trazado_732999" data-name="Trazado 732999" d="M563.645,203.8c.063,1.237-.475,2.268-1.2,2.305s-1.366-.936-1.429-2.173.475-2.268,1.2-2.3,1.366.936,1.429,2.172" transform="translate(-400.728 -144.024)" fill="#f7a491"/>
      <path id="Trazado_733000" data-name="Trazado 733000" d="M476.311,676.144a1.474,1.474,0,0,0,1.3-2.056c-.688-1.622-2-3.646-4.141-3.646h0c-1.366-2.732-2.732-5.873-2.363-6.249a27.207,27.207,0,0,1,4.467-2.867l-2.125-7.87s-13.265,9.976-13.186,10.1c5.995,9.69,7.841,11.15,9.409,12.384.463.365,4.266.287,6.642.2" transform="translate(-328.762 -466.761)" fill="#12263f"/>
      <path id="Trazado_733001" data-name="Trazado 733001" d="M814.083,665.423c-.725-1.559-7.733-17.062-7.733-17.062l-7.117,3.365,7.26,14.238c-1.369.491-1.088,5.466-1.1,5.523,0,0,16.245,1.157,20.839-.176,1.708-.5-6.665-3.859-12.151-5.887" transform="translate(-570.889 -463.122)" fill="#12263f"/>
      <path id="Trazado_733002" data-name="Trazado 733002" d="M634.7,284.92c-5.137-1.566-9.933-2.323-10.287-2.643,0,0-14.349-30.631-21.744-26.492-2.4,1.346,4.053,10.72,4.053,10.72s11.946,26.124,12.59,26.992c.334.45,7.524,2.078,14.97,1.313.062-.117.417-8.381.417-9.89" transform="translate(-430.104 -182.431)" fill="#ffa031"/>
      <path id="Trazado_733003" data-name="Trazado 733003" d="M617.773,402.318s6.946,5.971,7.05,6.05c13.389,10.219,28.3,28.995,29.712,31.3,3.448,5.632,17.756,46.3,17.756,46.3l-9.708,3.093L639.9,450.374l-38.448-27.729Z" transform="translate(-429.616 -287.374)" fill="#12263f"/>
      <path id="Trazado_733004" data-name="Trazado 733004" d="M541.121,402.318l-21.007,9.8-.1,9.113-.287,33.8s-9.44,7.177-12.188,8.674c-4.245,2.312-18.126,13.65-18.126,13.65s.483,3.017,4.856,8.616c0,0,42.267-15.633,43.473-16.84,1.753-1.755,5.439-57.329,5.439-57.329Z" transform="translate(-349.587 -287.374)" fill="#1c466d"/>
      <path id="Trazado_733005" data-name="Trazado 733005" d="M589.309,302.043s-8.432-16.306-9.287-19.36c-.8-2.857-4.037-30.141-20.769-34.754-.376-1.375-.852-2.982-.852-2.982H546.708v1.332l.66,3.506c-.226.129-.351.207-.351.207a17.928,17.928,0,0,0-4.483,2.683c-3.526,3.7-.079,11.081,1.054,13.989,5.344,13.72,7.43,20,8.474,25.243s0,24.087,0,24.087,30.575-8.97,37.244-13.95" transform="translate(-386.426 -174.965)" fill="#b16f22"/>
      <path id="Trazado_733006" data-name="Trazado 733006" d="M508.812,280.41c-3.885,10.246-6.2,32.346-.909,34.814s24-2.741,24-2.741l2.083-6.659-14.746-3.152s4.752-23.6,2.167-27.192-8.711-5.316-12.6,4.93" transform="translate(-360.587 -194.777)" fill="#ffa031"/>
      <path id="Trazado_733007" data-name="Trazado 733007" d="M509.841,642.6c-1.068.83-2.109,1.649-3.067,2.408.759,1.68,1.664,3.509,2.729,5.4q1.485,2.638,3.134,4.982l3.666-1.369a60.888,60.888,0,0,1-6.463-11.422" transform="translate(-361.987 -459.008)" fill="#65b3c6"/>
      <path id="Trazado_733008" data-name="Trazado 733008" d="M800.989,669.682a61.311,61.311,0,0,0,10.312-4.414c-.39-1.09-.822-2.3-1.288-3.592a58.156,58.156,0,0,1-10.982,4.664Z" transform="translate(-570.745 -472.633)" fill="#65b3c6"/>
      <path id="Trazado_733009" data-name="Trazado 733009" d="M614.4,422.912c-.715.323-1.517.669-2.416,1.039-4.284,1.764-10.053,3.781-17.147,6-5.022,1.568-10.008,3.014-14.137,4.174-.039,1.406-.085,2.746-.132,3.941,4.423-1.233,10-2.841,15.615-4.6,7.252-2.269,13.145-4.34,17.515-6.154.876-.364,1.674-.711,2.4-1.041-.493-.968-1.076-2.119-1.7-3.358" transform="translate(-414.696 -302.084)" fill="#fff8f3"/>
      <path id="Trazado_733010" data-name="Trazado 733010" d="M618.333,306.055c-.362-1.343-8.726-32.259-12.742-40.734a37.712,37.712,0,0,0-10.582-13.314l-1.5-7.061h-.721l1.587,7.473.112.08a36.633,36.633,0,0,1,10.465,13.124c3.988,8.415,12.328,39.24,12.7,40.613v.1l.681-.278" transform="translate(-423.427 -174.964)" fill="#ffa031"/>
      <path id="Trazado_733011" data-name="Trazado 733011" d="M511.944,178.465s1.933,12.7-3.038,19.748-8.424,8.01-12.981,8.01-10.081-2.762-10.081-2.762l8.562-14.086Z" transform="translate(-347.036 -127.477)" fill="#12263f"/>
      <path id="Trazado_733012" data-name="Trazado 733012" d="M572.848,199.682c-4.089,1.631-7.095-2.211-9-7.223a41.425,41.425,0,0,1-2.409-11c-.094-1.271-.162-2.531-.185-3.812-.007-.371-.012-.743-.012-1.119h2.486c-.035,1.549,0,3.151.085,4.728a37.514,37.514,0,0,0,2.646,12.189c1.419,3.172,3.478,5.393,6.342,4.785,1.147-.571.94-3.551.543-4.773a9.486,9.486,0,0,0-1.1-2.115,10.382,10.382,0,0,0,.508-2.444c2.383,4.6,3.019,9.611.092,10.779" transform="translate(-400.895 -126.097)" fill="#fff8f3"/>
      <path id="Trazado_733013" data-name="Trazado 733013" d="M531.485,154.4a72.472,72.472,0,0,1-9.806,3.314c-3.9.836-6.7,3.474-9.782,5.739-4.514,3.313-9.688,2.547-14.937,2.547,0,0,5.8-2.9,7.6-6.491s-.621-7.665,3.453-11.739a11.13,11.13,0,0,1,9.886-2.794c3.671.675,5.764,2.838,8.274,5.349Z" transform="translate(-354.977 -103.408)" fill="#ffa031"/>
      <path id="Trazado_733014" data-name="Trazado 733014" d="M500.218,189.235c-.794,0-1.585-.017-2.368-.034s-1.575-.034-2.359-.034a.587.587,0,0,1,0-1.175c3.564,0,7.271.355,10.739-.566,3.683-.979,5.9-4.037,10.73-6.11,4.231-1.815,8.619-3.132,12.831-4.88a.588.588,0,0,1,.45,1.085c-4.219,1.751-8.652,3.087-12.818,4.874-6.989,3-6.759,6.839-17.206,6.839" transform="translate(-353.508 -125.991)" fill="#65b3c6"/>
      <path id="Trazado_733015" data-name="Trazado 733015" d="M729.064,356.242l.534-2a2.115,2.115,0,0,0-.786-.644c-1.864-.5-5.094,2.5-5.094,2.5-.961-.157-9.52-2.163-13.408-2.414-.648,2.016.607,10.164-.033,12.179,4.062-.322,11.7-2.672,12.221-2.82s5.719,3.151,7.719,2.683c1.408-.33,2.412-3.012,3.529-6.462.83-2.565-1.264-2.035-1.264-2.035a3.35,3.35,0,0,1-3.419-.986" transform="translate(-507.235 -252.532)" fill="#12263f"/>
      <path id="Trazado_733016" data-name="Trazado 733016" d="M226.624,323.832c.874,5.049,5.419,11.635,3.2,17.506-1.379,3.411-2.575,8.379-.129,11.13,3.164,3.583,8.387.634,15.867,3.28,10.772,3.86,10.407,14.745,2.657,21.036C241.738,382.1,233.932,382,222.334,390.2a32.123,32.123,0,0,0-8.1,7.881c-2.91,4.256-4.387,11.2-.556,15.367,3.348,3.646,9.02,4.2,13.6,5.1,8.6,1.657,22.27,7.827,31.364,2.287,8.265-5.036,8.541-28.821,9.034-32.718a47.3,47.3,0,0,1,4.126-14.494c7.877-17.138,22.676-24.661,39.932-33.154,3.611-1.777,7.08-3.739,11.012-4.6a2.061,2.061,0,0,1,2.451,1.575c.592,2.72-3.83,3.08-5.543,3.692a86.038,86.038,0,0,0-13.2,6.414c-15,8.468-26.452,13.669-33.164,31.932-5.145,14.365-.649,31.421-8.845,41.874-5.071,6.468-13.7,6.183-21.343,4.663-1.683-.338-3.266-.789-4.847-1.26-3.152-.947-6.2-2.02-9.255-2.8-5.746-1.512-14.787-1.589-18.379-7.65a15.931,15.931,0,0,1-.5-14.743c.292-.38,1.833-5.273,10.732-11.477a70.571,70.571,0,0,1,16.3-8.294c6.453-2.327,15.695-7.06,14.32-15.377-.748-3.386-3.4-5.462-6.639-6.65-6.09-2.21-10.32-.257-14.415-2.266-2.794-1.359-4.66-4.349-3.944-9.419.94-6.355,3.586-5.657.993-13.741-2.1-6.553-3.687-6.267-2.833-24.212a.823.823,0,0,1,1.644.071c-.158,4-.285,11.654.343,15.629" transform="translate(-148.975 -219.542)" fill="#65b3c6"/>
      <path id="Trazado_733017" data-name="Trazado 733017" d="M659.169,350.343l-62.123,11.1,2.867,11.384,59.97-19.649Z" transform="translate(-426.468 -250.249)" fill="#016589"/>
      <rect id="Rectángulo_352037" data-name="Rectángulo 352037" width="3.715" height="17.154" transform="translate(167.941 110.33) rotate(-14.136)" fill="#016589"/>
      <path id="Trazado_733018" data-name="Trazado 733018" d="M591.068,378.034l.293-.235a17.393,17.393,0,0,0-2.02-1.23c-1.864-.5-5.256,2.1-5.256,2.1a110.694,110.694,0,0,0-11.227-1.818c-.648,2.016-1.412,9.968-2.052,11.984,4.062-.322,10.85-1.537,11.374-1.685s-.215,1.038,7.892,1.978c1.436.166,7.449.114,8.566-3.337.83-2.565-6.4-2.385-7.92-5.519a1.68,1.68,0,0,1,.349-2.24" transform="translate(-407.725 -268.937)" fill="#12263f"/>
      <path id="Trazado_733019" data-name="Trazado 733019" d="M768.813,355.023s1.841,1.762,3.133,1.41-.423-2.055-.423-2.055l-.786-.644Z" transform="translate(-549.16 -252.671)" fill="#05173e"/>
      <path id="Trazado_733020" data-name="Trazado 733020" d="M764.76,361.6s2.186.979,2.186,2.135-2.273,6.409-2.273,6.409l-8.333-2.078s1.762-3.763,2.859-4.076,4.533-2.98,5.561-2.389" transform="translate(-540.251 -258.227)" fill="#12263f"/>
      <path id="Trazado_733021" data-name="Trazado 733021" d="M893.7,403.965s117.453,1.083,139.635-2.154c108.3-15.807,4.9-126.45,4.9-126.45s1.879,78.633-10.809,87.21-18.768,8.08-3.7-22.234c11.239-22.612-9.458-40.352-9.458-40.352s6.363,14.824-12.464,29.217c-16.939,12.95-22.4,16.566-22.4,36.3s-10.255-30.22-10.255-30.22.329,61.706-75.452,68.679" transform="translate(-638.365 -196.689)" fill="#ffa031"/>
      <path id="Trazado_733022" data-name="Trazado 733022" d="M1219.421,267.989c-6.143-13.837-33-23.495-54.831-7.064,11.224-4.25,22.224-3.475,30.542.092,2.73.991,7.514,4.314,10.867,7.7,3.6,3.353,5.776,6.77,9.07,7.176,4.71.736,6.194-3.983,4.353-7.905" transform="translate(-831.862 -180.211)" fill="#ffa031"/>
      <path id="Trazado_733023" data-name="Trazado 733023" d="M1299.5,206.341c10.049-8.405,9.065-29.693,3.227-43.6-10.646-27.3-48.2-42.6-78.489-35.31-11.749,2.5-18.034,7.917-18.428,6.857-.287-.222,66.059-17.651,85.659,41.065,4.466,13.378,2.1,36.154,8.031,30.988" transform="translate(-861.301 -89.729)" fill="#ffa031"/>
      <path id="Trazado_733024" data-name="Trazado 733024" d="M1150.637,97.785a2.79,2.79,0,1,1-2.79-2.79,2.79,2.79,0,0,1,2.79,2.79" transform="translate(-817.91 -67.855)" fill="#ffa031"/>
      <path id="Trazado_733025" data-name="Trazado 733025" d="M1030.011,158.311A2.311,2.311,0,1,1,1027.7,156a2.311,2.311,0,0,1,2.311,2.311" transform="translate(-732.432 -111.43)" fill="#ffa031"/>
      <path id="Trazado_733026" data-name="Trazado 733026" d="M1225.079,39.492a1.248,1.248,0,1,1-1.248-1.248,1.248,1.248,0,0,1,1.248,1.248" transform="translate(-873.287 -27.318)" fill="#ff7768"/>
      <path id="Trazado_733027" data-name="Trazado 733027" d="M1089.541,3.7a3.7,3.7,0,1,1-3.7-3.7,3.7,3.7,0,0,1,3.7,3.7" transform="translate(-772.968)" fill="#ffa031"/>
      <path id="Trazado_733028" data-name="Trazado 733028" d="M1451.365,89.619a3.26,3.26,0,1,1-3.26-3.26,3.26,3.26,0,0,1,3.26,3.26" transform="translate(-1032.048 -61.686)" fill="#ffa031"/>
      <path id="Trazado_733029" data-name="Trazado 733029" d="M872.23,340.835c2.246,1.508,4.627,2.924,6.055,2.129,1.433-.754.74-4.566-2.676-6.95-4.831-3.235-12.55-3.161-17.878.374-1.409.909-2.1,1.754-2.159,1.694a15.2,15.2,0,0,1,8.156-1.126c4.954.623,7.553,3.316,8.5,3.88" transform="translate(-611.133 -238.332)" fill="#65b3c6"/>
      <path id="Trazado_733030" data-name="Trazado 733030" d="M817.577,245.2s89.492-46.68,91.7-41.68c1.823,4.135-91.7,41.68-91.7,41.68" transform="translate(-583.992 -145.106)" fill="#65b3c6"/>
      <path id="Trazado_733031" data-name="Trazado 733031" d="M900.826,246.545s94.153-36.73,98.148-30.574-98.148,30.574-98.148,30.574" transform="translate(-643.457 -153.77)" fill="#65b3c6"/>
      <path id="Trazado_733032" data-name="Trazado 733032" d="M882.457,259.872c.627,0,10.5-1.461,10.5-9.137s-7.755-4.383-5.248,1.194c1.559,3.467-5.248,7.943-5.248,7.943" transform="translate(-630.336 -175.877)" fill="#65b3c6"/>
    </g>
  </g>
</svg>
