<svg xmlns="http://www.w3.org/2000/svg" width="1240" height="434.424" viewBox="0 0 1240 434.424">
  <g id="Grupo_1036337" data-name="Grupo 1036337" transform="translate(-180 -395)">
    <path id="Trazado_727728" data-name="Trazado 727728" d="M0,0H28.378V815.584" transform="translate(305.077 455.877) rotate(-90)" fill="none" stroke="#707070" stroke-width="2"/>
    <path id="Trazado_727736" data-name="Trazado 727736" d="M-11949.333-9666" transform="translate(12254.333 10259.773)" fill="none" stroke="#707070" stroke-width="2"/>
    <path id="Trazado_727761" data-name="Trazado 727761" d="M574.573,0H589.8V694.817H571.228" transform="translate(455 1291.618) rotate(-90)" fill="none" stroke="#707070" stroke-width="2"/>
    <path id="Trazado_734712" data-name="Trazado 734712" d="M690.466,229.65V287.56" transform="translate(1020.35 1117.966) rotate(-90)" fill="none" stroke="#707070" stroke-width="2"/>
    <path id="Trazado_727738" data-name="Trazado 727738" d="M-11949.333-9666v50.586" transform="translate(12749.333 10342.94)" fill="none" stroke="#707070" stroke-width="2"/>
    <path id="Trazado_727762" data-name="Trazado 727762" d="M-11949.333-9666v9.237" transform="translate(-8541.001 12376.833) rotate(90)" fill="none" stroke="#707070" stroke-width="2"/>
    <path id="Trazado_727740" data-name="Trazado 727740" d="M-11949.333-9666v176.091" transform="translate(12749.41 10126)" fill="none" stroke="#707070" stroke-width="2"/>
    <path id="Trazado_736443" data-name="Trazado 736443" d="M0,0,.174,28" transform="translate(304.5 491.999)" fill="none" stroke="#707070" stroke-width="2"/>
    <path id="Trazado_736444" data-name="Trazado 736444" d="M8.5,0,17,14H0Z" transform="translate(313.5 534.153) rotate(180)" fill="#707070"/>
    <path id="Trazado_736459" data-name="Trazado 736459" d="M0,0V28" transform="translate(455 711.103)" fill="none" stroke="#707070" stroke-width="2"/>
    <path id="Trazado_736460" data-name="Trazado 736460" d="M8.5,0,17,14H0Z" transform="translate(463.5 753.103) rotate(180)" fill="#707070"/>
    <path id="Trazado_736461" data-name="Trazado 736461" d="M0,0V28" transform="translate(800 711.103)" fill="none" stroke="#707070" stroke-width="2"/>
    <path id="Trazado_736462" data-name="Trazado 736462" d="M8.5,0,17,14H0Z" transform="translate(808.5 753.103) rotate(180)" fill="#707070"/>
    <path id="Trazado_736463" data-name="Trazado 736463" d="M0,0V28" transform="translate(1150.001 711.103)" fill="none" stroke="#707070" stroke-width="2"/>
    <path id="Trazado_736464" data-name="Trazado 736464" d="M8.5,0,17,14H0Z" transform="translate(1158.501 753.103) rotate(180)" fill="#707070"/>
    <path id="Trazado_736445" data-name="Trazado 736445" d="M0,0,.422,89.688" transform="translate(1008.078 427.5)" fill="none" stroke="#707070" stroke-width="2"/>
    <path id="Trazado_734713" data-name="Trazado 734713" d="M.423-1.994v.333L0,87.559" transform="translate(1306.5 429.629)" fill="none" stroke="#707070" stroke-width="2"/>
    <path id="Trazado_736446" data-name="Trazado 736446" d="M8.5,0,17,14H0Z" transform="translate(1017 531.188) rotate(180)" fill="#707070"/>
    <path id="Trazado_736447" data-name="Trazado 736447" d="M8.5,0,17,14H0Z" transform="translate(1315 531.188) rotate(180)" fill="#707070"/>
    <path id="Trazado_736448" data-name="Trazado 736448" d="M6.865-5.752H3.525V0H1.641V-14.219H6.348a5.571,5.571,0,0,1,3.7,1.094,3.935,3.935,0,0,1,1.294,3.184,3.828,3.828,0,0,1-.718,2.314,4.285,4.285,0,0,1-2,1.475l3.34,6.035V0H9.951ZM3.525-7.285H6.406a3.249,3.249,0,0,0,2.222-.724,2.448,2.448,0,0,0,.825-1.937,2.578,2.578,0,0,0-.786-2.025A3.329,3.329,0,0,0,6.4-12.686H3.525ZM18.066.2a4.617,4.617,0,0,1-3.5-1.411A5.237,5.237,0,0,1,13.223-4.99v-.332a6.341,6.341,0,0,1,.6-2.808,4.685,4.685,0,0,1,1.68-1.934,4.223,4.223,0,0,1,2.339-.7,3.957,3.957,0,0,1,3.2,1.357,5.877,5.877,0,0,1,1.143,3.887v.752H15.029a3.756,3.756,0,0,0,.913,2.524,2.87,2.87,0,0,0,2.222.962,3.147,3.147,0,0,0,1.621-.391,4.073,4.073,0,0,0,1.162-1.035l1.1.859A4.437,4.437,0,0,1,18.066.2Zm-.225-9.473a2.41,2.41,0,0,0-1.836.8,3.868,3.868,0,0,0-.918,2.231h5.293v-.137a3.441,3.441,0,0,0-.742-2.134A2.269,2.269,0,0,0,17.842-9.277ZM30.8,0a3.8,3.8,0,0,1-.254-1.113A4.031,4.031,0,0,1,27.539.2a3.73,3.73,0,0,1-2.563-.884,2.859,2.859,0,0,1-1-2.241,2.987,2.987,0,0,1,1.255-2.563,5.916,5.916,0,0,1,3.53-.913h1.758v-.83a2.029,2.029,0,0,0-.566-1.509,2.276,2.276,0,0,0-1.67-.562,2.634,2.634,0,0,0-1.621.488,1.439,1.439,0,0,0-.654,1.182H24.189a2.493,2.493,0,0,1,.562-1.528,3.832,3.832,0,0,1,1.523-1.167,5.125,5.125,0,0,1,2.114-.43,4.177,4.177,0,0,1,2.861.913,3.294,3.294,0,0,1,1.074,2.515v4.863A5.946,5.946,0,0,0,32.7-.156V0Zm-3-1.377a3.175,3.175,0,0,0,1.611-.439,2.658,2.658,0,0,0,1.1-1.143V-5.127H29.1q-3.32,0-3.32,1.943a1.645,1.645,0,0,0,.566,1.328A2.177,2.177,0,0,0,27.8-1.377ZM37.119,0H35.313V-15h1.807Zm4.854,0H40.166V-10.566h1.807ZM40.02-13.369a1.078,1.078,0,0,1,.269-.742,1.008,1.008,0,0,1,.8-.3,1.024,1.024,0,0,1,.8.3,1.067,1.067,0,0,1,.273.742,1.032,1.032,0,0,1-.273.732,1.043,1.043,0,0,1-.8.293,1.026,1.026,0,0,1-.8-.293A1.043,1.043,0,0,1,40.02-13.369ZM46.563-1.475h6.182V0H44.355V-1.328l5.83-7.744H44.443v-1.494h8.008v1.279ZM61.3,0a3.8,3.8,0,0,1-.254-1.113A4.031,4.031,0,0,1,58.037.2a3.73,3.73,0,0,1-2.563-.884,2.859,2.859,0,0,1-1-2.241,2.987,2.987,0,0,1,1.255-2.563,5.916,5.916,0,0,1,3.53-.913h1.758v-.83a2.029,2.029,0,0,0-.566-1.509,2.276,2.276,0,0,0-1.67-.562,2.634,2.634,0,0,0-1.621.488A1.439,1.439,0,0,0,56.5-7.637H54.688a2.493,2.493,0,0,1,.562-1.528,3.832,3.832,0,0,1,1.523-1.167,5.125,5.125,0,0,1,2.114-.43,4.177,4.177,0,0,1,2.861.913,3.294,3.294,0,0,1,1.074,2.515v4.863a5.946,5.946,0,0,0,.371,2.314V0Zm-3-1.377a3.175,3.175,0,0,0,1.611-.439,2.658,2.658,0,0,0,1.1-1.143V-5.127H59.6q-3.32,0-3.32,1.943a1.645,1.645,0,0,0,.566,1.328A2.177,2.177,0,0,0,58.3-1.377ZM72.568,0H70.762V-15h1.807Zm9.414,0a3.8,3.8,0,0,1-.254-1.113A4.031,4.031,0,0,1,78.721.2a3.73,3.73,0,0,1-2.563-.884,2.859,2.859,0,0,1-1-2.241,2.987,2.987,0,0,1,1.255-2.563,5.916,5.916,0,0,1,3.53-.913H81.7v-.83a2.029,2.029,0,0,0-.566-1.509,2.276,2.276,0,0,0-1.67-.562,2.634,2.634,0,0,0-1.621.488,1.439,1.439,0,0,0-.654,1.182H75.371a2.493,2.493,0,0,1,.562-1.528,3.832,3.832,0,0,1,1.523-1.167,5.125,5.125,0,0,1,2.114-.43,4.177,4.177,0,0,1,2.861.913,3.294,3.294,0,0,1,1.074,2.515v4.863a5.946,5.946,0,0,0,.371,2.314V0Zm-3-1.377A3.175,3.175,0,0,0,80.6-1.816a2.658,2.658,0,0,0,1.1-1.143V-5.127H80.283q-3.32,0-3.32,1.943a1.645,1.645,0,0,0,.566,1.328A2.177,2.177,0,0,0,78.984-1.377Z" transform="translate(1150.001 430.54)" fill="#12263f"/>
    <path id="Trazado_736458" data-name="Trazado 736458" d="M5.84-6.338a8.817,8.817,0,0,1-3.511-1.7,3.256,3.256,0,0,1-1.1-2.5,3.439,3.439,0,0,1,1.343-2.778,5.337,5.337,0,0,1,3.491-1.1,5.825,5.825,0,0,1,2.612.566,4.3,4.3,0,0,1,1.777,1.563,4,4,0,0,1,.63,2.178H9.2a2.6,2.6,0,0,0-.82-2.034,3.336,3.336,0,0,0-2.314-.74,3.415,3.415,0,0,0-2.163.611,2.04,2.04,0,0,0-.776,1.7A1.835,1.835,0,0,0,3.862-9.1,7.232,7.232,0,0,0,6.372-8,11.645,11.645,0,0,1,9.146-6.9,4.209,4.209,0,0,1,10.63-5.5a3.577,3.577,0,0,1,.483,1.885A3.322,3.322,0,0,1,9.766-.845,5.746,5.746,0,0,1,6.162.2,6.683,6.683,0,0,1,3.428-.366,4.6,4.6,0,0,1,1.47-1.9,3.754,3.754,0,0,1,.781-4.121H2.666a2.449,2.449,0,0,0,.952,2.036,4.009,4.009,0,0,0,2.544.747,3.685,3.685,0,0,0,2.275-.605,1.967,1.967,0,0,0,.791-1.65A1.931,1.931,0,0,0,8.5-5.21,8.444,8.444,0,0,0,5.84-6.338ZM17.617.2a4.617,4.617,0,0,1-3.5-1.411A5.237,5.237,0,0,1,12.773-4.99v-.332a6.341,6.341,0,0,1,.6-2.808,4.685,4.685,0,0,1,1.68-1.934,4.223,4.223,0,0,1,2.339-.7A3.957,3.957,0,0,1,20.6-9.4a5.877,5.877,0,0,1,1.143,3.887v.752H14.58a3.756,3.756,0,0,0,.913,2.524,2.87,2.87,0,0,0,2.222.962,3.147,3.147,0,0,0,1.621-.391A4.073,4.073,0,0,0,20.5-2.705l1.1.859A4.437,4.437,0,0,1,17.617.2Zm-.225-9.473a2.41,2.41,0,0,0-1.836.8,3.868,3.868,0,0,0-.918,2.231h5.293v-.137a3.441,3.441,0,0,0-.742-2.134A2.269,2.269,0,0,0,17.393-9.277ZM33.164.2a4.617,4.617,0,0,1-3.5-1.411A5.237,5.237,0,0,1,28.32-4.99v-.332a6.341,6.341,0,0,1,.6-2.808,4.685,4.685,0,0,1,1.68-1.934,4.223,4.223,0,0,1,2.339-.7,3.957,3.957,0,0,1,3.2,1.357,5.877,5.877,0,0,1,1.143,3.887v.752H30.127a3.756,3.756,0,0,0,.913,2.524,2.87,2.87,0,0,0,2.222.962,3.147,3.147,0,0,0,1.621-.391,4.073,4.073,0,0,0,1.162-1.035l1.1.859A4.437,4.437,0,0,1,33.164.2Zm-.225-9.473a2.41,2.41,0,0,0-1.836.8,3.868,3.868,0,0,0-.918,2.231h5.293v-.137a3.441,3.441,0,0,0-.742-2.134A2.269,2.269,0,0,0,32.939-9.277Zm8.145-1.289.059,1.328a3.851,3.851,0,0,1,3.164-1.523q3.35,0,3.379,3.779V0H45.879V-6.992a2.432,2.432,0,0,0-.522-1.689,2.094,2.094,0,0,0-1.6-.547,2.607,2.607,0,0,0-1.543.469,3.183,3.183,0,0,0-1.035,1.23V0H39.375V-10.566ZM54.648-1.279a2.6,2.6,0,0,0,1.689-.586,2.061,2.061,0,0,0,.8-1.465h1.709A3.276,3.276,0,0,1,58.223-1.6,4.116,4.116,0,0,1,56.685-.293,4.438,4.438,0,0,1,54.648.2a4.353,4.353,0,0,1-3.433-1.44,5.737,5.737,0,0,1-1.274-3.94v-.3a6.361,6.361,0,0,1,.566-2.744A4.314,4.314,0,0,1,52.134-10.1a4.619,4.619,0,0,1,2.5-.664A4.238,4.238,0,0,1,57.593-9.7a3.8,3.8,0,0,1,1.255,2.764H57.139a2.49,2.49,0,0,0-.776-1.685,2.415,2.415,0,0,0-1.724-.659,2.529,2.529,0,0,0-2.134.991,4.655,4.655,0,0,0-.757,2.866v.342A4.562,4.562,0,0,0,52.5-2.266,2.541,2.541,0,0,0,54.648-1.279ZM67.4,0a3.8,3.8,0,0,1-.254-1.113A4.031,4.031,0,0,1,64.141.2a3.73,3.73,0,0,1-2.563-.884,2.859,2.859,0,0,1-1-2.241,2.987,2.987,0,0,1,1.255-2.563,5.916,5.916,0,0,1,3.53-.913h1.758v-.83a2.029,2.029,0,0,0-.566-1.509,2.276,2.276,0,0,0-1.67-.562,2.634,2.634,0,0,0-1.621.488,1.439,1.439,0,0,0-.654,1.182H60.791a2.493,2.493,0,0,1,.562-1.528,3.832,3.832,0,0,1,1.523-1.167,5.125,5.125,0,0,1,2.114-.43,4.177,4.177,0,0,1,2.861.913,3.294,3.294,0,0,1,1.074,2.515v4.863A5.946,5.946,0,0,0,69.3-.156V0Zm-3-1.377a3.175,3.175,0,0,0,1.611-.439,2.658,2.658,0,0,0,1.1-1.143V-5.127H65.7q-3.32,0-3.32,1.943a1.645,1.645,0,0,0,.566,1.328A2.177,2.177,0,0,0,64.4-1.377ZM76.865-8.945a5.414,5.414,0,0,0-.889-.068A2.381,2.381,0,0,0,73.564-7.5V0H71.758V-10.566h1.758l.029,1.221a2.813,2.813,0,0,1,2.52-1.416,1.846,1.846,0,0,1,.8.137ZM77.91-5.371A6.21,6.21,0,0,1,79.053-9.3a3.654,3.654,0,0,1,3.027-1.46A3.635,3.635,0,0,1,85.1-9.395l.088-1.172h1.65V-.254A4.3,4.3,0,0,1,85.62,2.979,4.487,4.487,0,0,1,82.354,4.16a5.435,5.435,0,0,1-2.236-.488,3.85,3.85,0,0,1-1.67-1.338l.938-1.084a3.533,3.533,0,0,0,2.842,1.436,2.768,2.768,0,0,0,2.056-.742,2.837,2.837,0,0,0,.737-2.09v-.908A3.713,3.713,0,0,1,82.061.2a3.609,3.609,0,0,1-3-1.494A6.529,6.529,0,0,1,77.91-5.371Zm1.816.205a4.738,4.738,0,0,0,.732,2.808A2.38,2.38,0,0,0,82.51-1.338a2.646,2.646,0,0,0,2.51-1.553V-7.715a2.677,2.677,0,0,0-2.49-1.514A2.4,2.4,0,0,0,80.469-8.2,5.16,5.16,0,0,0,79.727-5.166ZM96.084,0a3.8,3.8,0,0,1-.254-1.113A4.031,4.031,0,0,1,92.822.2a3.73,3.73,0,0,1-2.563-.884,2.859,2.859,0,0,1-1-2.241,2.987,2.987,0,0,1,1.255-2.563,5.916,5.916,0,0,1,3.53-.913H95.8v-.83a2.029,2.029,0,0,0-.566-1.509,2.276,2.276,0,0,0-1.67-.562,2.634,2.634,0,0,0-1.621.488,1.439,1.439,0,0,0-.654,1.182H89.473a2.493,2.493,0,0,1,.562-1.528,3.832,3.832,0,0,1,1.523-1.167,5.125,5.125,0,0,1,2.114-.43,4.177,4.177,0,0,1,2.861.913,3.294,3.294,0,0,1,1.074,2.515v4.863a5.946,5.946,0,0,0,.371,2.314V0Zm-3-1.377A3.175,3.175,0,0,0,94.7-1.816a2.658,2.658,0,0,0,1.1-1.143V-5.127H94.385q-3.32,0-3.32,1.943a1.645,1.645,0,0,0,.566,1.328A2.177,2.177,0,0,0,93.086-1.377Zm11.865-3.994A6.19,6.19,0,0,1,106.1-9.282a3.644,3.644,0,0,1,3.018-1.479,3.665,3.665,0,0,1,2.939,1.27V-15h1.807V0h-1.66l-.088-1.133A3.679,3.679,0,0,1,109.1.2a3.609,3.609,0,0,1-2.993-1.5,6.26,6.26,0,0,1-1.157-3.926Zm1.807.205a4.687,4.687,0,0,0,.742,2.813,2.4,2.4,0,0,0,2.051,1.016,2.636,2.636,0,0,0,2.51-1.543V-7.734a2.656,2.656,0,0,0-2.49-1.494A2.411,2.411,0,0,0,107.5-8.2,5.16,5.16,0,0,0,106.758-5.166ZM121.055.2a4.617,4.617,0,0,1-3.5-1.411,5.237,5.237,0,0,1-1.348-3.774v-.332a6.341,6.341,0,0,1,.6-2.808,4.685,4.685,0,0,1,1.68-1.934,4.223,4.223,0,0,1,2.339-.7,3.957,3.957,0,0,1,3.2,1.357,5.877,5.877,0,0,1,1.143,3.887v.752h-7.158a3.756,3.756,0,0,0,.913,2.524,2.87,2.87,0,0,0,2.222.962,3.147,3.147,0,0,0,1.621-.391,4.073,4.073,0,0,0,1.162-1.035l1.1.859A4.437,4.437,0,0,1,121.055.2Zm-.225-9.473a2.41,2.41,0,0,0-1.836.8,3.869,3.869,0,0,0-.918,2.231h5.293v-.137a3.441,3.441,0,0,0-.742-2.134A2.269,2.269,0,0,0,120.83-9.277Z" transform="translate(736.577 662.091)" fill="#12263f"/>
    <path id="Trazado_736449" data-name="Trazado 736449" d="M0,0H297V65H0Z" transform="translate(651.577 395)" fill="#115089"/>
    <path id="Trazado_736450" data-name="Trazado 736450" d="M-96.807-11.572h-4.268V0H-104.5V-11.572h-4.189v-2.646h11.885ZM-91.27.2a5.432,5.432,0,0,1-3.936-1.45,5.008,5.008,0,0,1-1.5-3.774V-5.3a6.489,6.489,0,0,1,.6-2.861,4.395,4.395,0,0,1,1.753-1.919,5.292,5.292,0,0,1,2.734-.679A4.574,4.574,0,0,1-88.105-9.38a5.43,5.43,0,0,1,1.289,3.853v1.279h-6.543a2.372,2.372,0,0,0,.771,1.4,2.3,2.3,0,0,0,1.543.508A2.958,2.958,0,0,0-88.6-3.437l1.5,1.777A4.2,4.2,0,0,1-88.843-.308,5.891,5.891,0,0,1-91.27.2Zm-.371-8.418q-1.445,0-1.719,1.914h3.32v-.254a1.63,1.63,0,0,0-.4-1.226A1.593,1.593,0,0,0-91.641-8.223Zm-.039-6.787H-88.2l-2.715,3.066-2.686,0ZM-81.025-2.344a1.464,1.464,0,0,0,1.074-.376,1.379,1.379,0,0,0,.371-1.05h3.086A3.653,3.653,0,0,1-77.739-.918,4.631,4.631,0,0,1-80.947.2,4.689,4.689,0,0,1-84.58-1.25a5.7,5.7,0,0,1-1.328-4v-.137a6.436,6.436,0,0,1,.591-2.827,4.3,4.3,0,0,1,1.7-1.885,5.081,5.081,0,0,1,2.637-.659,4.573,4.573,0,0,1,3.271,1.143,4.053,4.053,0,0,1,1.211,3.1H-79.58a1.806,1.806,0,0,0-.4-1.26,1.382,1.382,0,0,0-1.074-.439q-1.279,0-1.494,1.631a11.508,11.508,0,0,0-.068,1.426,4.52,4.52,0,0,0,.381,2.207A1.319,1.319,0,0,0-81.025-2.344Zm8.945-8.223.107,1.24a3.583,3.583,0,0,1,3.018-1.436,3.015,3.015,0,0,1,2.466.986,4.7,4.7,0,0,1,.845,2.969V0h-3.3V-6.67a1.783,1.783,0,0,0-.322-1.177,1.491,1.491,0,0,0-1.172-.376,1.569,1.569,0,0,0-1.436.762V0h-3.291V-10.566ZM-60.352,0h-3.3V-10.566h3.3Zm-3.5-13.291a1.469,1.469,0,0,1,.508-1.152,1.916,1.916,0,0,1,1.318-.449,1.916,1.916,0,0,1,1.318.449,1.469,1.469,0,0,1,.508,1.152,1.469,1.469,0,0,1-.508,1.152,1.916,1.916,0,0,1-1.318.449,1.916,1.916,0,0,1-1.318-.449A1.469,1.469,0,0,1-63.848-13.291Zm9.99,10.947a1.464,1.464,0,0,0,1.074-.376,1.379,1.379,0,0,0,.371-1.05h3.086A3.653,3.653,0,0,1-50.571-.918,4.631,4.631,0,0,1-53.779.2,4.689,4.689,0,0,1-57.412-1.25a5.7,5.7,0,0,1-1.328-4v-.137a6.436,6.436,0,0,1,.591-2.827,4.3,4.3,0,0,1,1.7-1.885,5.081,5.081,0,0,1,2.637-.659,4.573,4.573,0,0,1,3.271,1.143,4.053,4.053,0,0,1,1.211,3.1h-3.086a1.807,1.807,0,0,0-.4-1.26,1.382,1.382,0,0,0-1.074-.439q-1.279,0-1.494,1.631a11.507,11.507,0,0,0-.068,1.426,4.52,4.52,0,0,0,.381,2.207A1.319,1.319,0,0,0-53.857-2.344ZM-41.982,0a3.716,3.716,0,0,1-.312-.947A3.06,3.06,0,0,1-44.834.2a3.749,3.749,0,0,1-2.539-.9,2.875,2.875,0,0,1-1.045-2.271,2.955,2.955,0,0,1,1.27-2.6,6.468,6.468,0,0,1,3.691-.879h1.016v-.559q0-1.462-1.26-1.462a1.03,1.03,0,0,0-1.172,1.158h-3.291a2.95,2.95,0,0,1,1.3-2.487,5.479,5.479,0,0,1,3.325-.956,4.8,4.8,0,0,1,3.193.986,3.429,3.429,0,0,1,1.2,2.705v4.678a4.79,4.79,0,0,0,.449,2.227V0Zm-2.061-2.148a1.836,1.836,0,0,0,1.021-.264,1.653,1.653,0,0,0,.581-.6V-4.7H-43.4q-1.719,0-1.719,1.543a.942.942,0,0,0,.3.728A1.1,1.1,0,0,0-44.043-2.148Zm12.256-.82a.76.76,0,0,0-.439-.674A6.685,6.685,0,0,0-33.9-4.17a7.615,7.615,0,0,1-2.031-.718,3.4,3.4,0,0,1-1.221-1.079,2.577,2.577,0,0,1-.42-1.455,2.92,2.92,0,0,1,1.2-2.4,4.948,4.948,0,0,1,3.145-.942,5.482,5.482,0,0,1,3.359.947,2.962,2.962,0,0,1,1.27,2.49h-3.3q0-1.27-1.338-1.27a1.326,1.326,0,0,0-.869.288.892.892,0,0,0-.352.718.819.819,0,0,0,.43.713,4.06,4.06,0,0,0,1.372.449A11.857,11.857,0,0,1-31-6.006a3.007,3.007,0,0,1,2.383,2.939A2.767,2.767,0,0,1-29.9-.713,5.631,5.631,0,0,1-33.223.2a5.747,5.747,0,0,1-2.422-.488A4.05,4.05,0,0,1-37.3-1.621a3.007,3.007,0,0,1-.6-1.768h3.076a1.272,1.272,0,0,0,.488,1.069,2.009,2.009,0,0,0,1.2.337,1.58,1.58,0,0,0,1.011-.273A.875.875,0,0,0-31.787-2.969Zm9.277-2.393a6.455,6.455,0,0,1,1.084-3.955A3.568,3.568,0,0,1-18.4-10.762a3.035,3.035,0,0,1,2.383,1.113V-15h3.3V0h-2.959l-.166-1.133A3.116,3.116,0,0,1-18.418.2,3.562,3.562,0,0,1-21.406-1.25,6.659,6.659,0,0,1-22.51-5.361Zm3.291.205q0,2.813,1.641,2.813a1.62,1.62,0,0,0,1.563-.918V-7.285a1.576,1.576,0,0,0-1.543-.937q-1.523,0-1.65,2.461ZM-5.732.2a5.432,5.432,0,0,1-3.936-1.45,5.008,5.008,0,0,1-1.5-3.774V-5.3a6.489,6.489,0,0,1,.6-2.861,4.395,4.395,0,0,1,1.753-1.919,5.292,5.292,0,0,1,2.734-.679A4.574,4.574,0,0,1-2.568-9.38,5.43,5.43,0,0,1-1.279-5.527v1.279H-7.822a2.372,2.372,0,0,0,.771,1.4,2.3,2.3,0,0,0,1.543.508A2.958,2.958,0,0,0-3.066-3.437l1.5,1.777A4.2,4.2,0,0,1-3.306-.308,5.891,5.891,0,0,1-5.732.2ZM-6.1-8.223q-1.445,0-1.719,1.914H-4.5v-.254a1.63,1.63,0,0,0-.4-1.226A1.593,1.593,0,0,0-6.1-8.223ZM8.857-13.193v2.627H10.6v2.285H8.857v4.834a1.234,1.234,0,0,0,.215.83,1.152,1.152,0,0,0,.85.234,4.828,4.828,0,0,0,.82-.059V-.088A6.074,6.074,0,0,1,8.887.2a3.448,3.448,0,0,1-2.51-.8,3.282,3.282,0,0,1-.811-2.432V-8.281H4.219v-2.285H5.566v-2.627Zm9.424,5.605L17.2-7.666a1.947,1.947,0,0,0-1.992.977V0H11.914V-10.566H15l.107,1.357a2.548,2.548,0,0,1,2.314-1.553,3.209,3.209,0,0,1,.918.117ZM25.127,0a3.716,3.716,0,0,1-.312-.947A3.06,3.06,0,0,1,22.275.2a3.749,3.749,0,0,1-2.539-.9,2.875,2.875,0,0,1-1.045-2.271,2.955,2.955,0,0,1,1.27-2.6,6.468,6.468,0,0,1,3.691-.879h1.016v-.559q0-1.462-1.26-1.462a1.03,1.03,0,0,0-1.172,1.158H18.945a2.95,2.95,0,0,1,1.3-2.487,5.479,5.479,0,0,1,3.325-.956,4.8,4.8,0,0,1,3.193.986,3.429,3.429,0,0,1,1.2,2.705v4.678a4.79,4.79,0,0,0,.449,2.227V0ZM23.066-2.148a1.836,1.836,0,0,0,1.021-.264,1.653,1.653,0,0,0,.581-.6V-4.7h-.957q-1.719,0-1.719,1.543a.942.942,0,0,0,.3.728A1.1,1.1,0,0,0,23.066-2.148ZM33.623-13.193v2.627h1.738v2.285H33.623v4.834a1.234,1.234,0,0,0,.215.83,1.152,1.152,0,0,0,.85.234,4.828,4.828,0,0,0,.82-.059V-.088A6.074,6.074,0,0,1,33.652.2a3.448,3.448,0,0,1-2.51-.8,3.282,3.282,0,0,1-.811-2.432V-8.281H28.984v-2.285h1.348v-2.627ZM42.607,0a3.716,3.716,0,0,1-.312-.947A3.06,3.06,0,0,1,39.756.2a3.749,3.749,0,0,1-2.539-.9,2.875,2.875,0,0,1-1.045-2.271,2.955,2.955,0,0,1,1.27-2.6,6.468,6.468,0,0,1,3.691-.879h1.016v-.559q0-1.462-1.26-1.462a1.03,1.03,0,0,0-1.172,1.158H36.426a2.95,2.95,0,0,1,1.3-2.487,5.479,5.479,0,0,1,3.325-.956,4.8,4.8,0,0,1,3.193.986,3.429,3.429,0,0,1,1.2,2.705v4.678A4.79,4.79,0,0,0,45.9-.166V0ZM40.547-2.148a1.836,1.836,0,0,0,1.021-.264,1.653,1.653,0,0,0,.581-.6V-4.7h-.957q-1.719,0-1.719,1.543a.942.942,0,0,0,.3.728A1.1,1.1,0,0,0,40.547-2.148Zm9.834-8.418.107,1.24a3.633,3.633,0,0,1,3.018-1.436A2.675,2.675,0,0,1,56.211-9.17a3.516,3.516,0,0,1,3.105-1.592q3.213,0,3.3,3.887V0h-3.3V-6.67a2.014,2.014,0,0,0-.273-1.182,1.164,1.164,0,0,0-1-.371,1.559,1.559,0,0,0-1.455.869l.01.137V0H53.3V-6.65a2.117,2.117,0,0,0-.264-1.2,1.161,1.161,0,0,0-1.006-.371,1.578,1.578,0,0,0-1.445.869V0H47.295V-10.566ZM67.969,0h-3.3V-10.566h3.3Zm-3.5-13.291a1.469,1.469,0,0,1,.508-1.152,1.916,1.916,0,0,1,1.318-.449,1.916,1.916,0,0,1,1.318.449,1.469,1.469,0,0,1,.508,1.152,1.469,1.469,0,0,1-.508,1.152,1.916,1.916,0,0,1-1.318.449,1.916,1.916,0,0,1-1.318-.449A1.469,1.469,0,0,1,64.473-13.291ZM75.107.2a5.432,5.432,0,0,1-3.936-1.45,5.008,5.008,0,0,1-1.5-3.774V-5.3a6.489,6.489,0,0,1,.6-2.861,4.395,4.395,0,0,1,1.753-1.919,5.292,5.292,0,0,1,2.734-.679A4.574,4.574,0,0,1,78.271-9.38a5.43,5.43,0,0,1,1.289,3.853v1.279H73.018a2.372,2.372,0,0,0,.771,1.4,2.3,2.3,0,0,0,1.543.508,2.958,2.958,0,0,0,2.441-1.094l1.5,1.777A4.2,4.2,0,0,1,77.534-.308,5.891,5.891,0,0,1,75.107.2Zm-.371-8.418q-1.445,0-1.719,1.914h3.32v-.254a1.63,1.63,0,0,0-.4-1.226A1.593,1.593,0,0,0,74.736-8.223Zm9.17-2.344.107,1.24a3.583,3.583,0,0,1,3.018-1.436,3.015,3.015,0,0,1,2.466.986,4.7,4.7,0,0,1,.845,2.969V0h-3.3V-6.67a1.783,1.783,0,0,0-.322-1.177,1.491,1.491,0,0,0-1.172-.376,1.569,1.569,0,0,0-1.436.762V0H80.82V-10.566ZM96-13.193v2.627h1.738v2.285H96v4.834a1.234,1.234,0,0,0,.215.83,1.152,1.152,0,0,0,.85.234,4.828,4.828,0,0,0,.82-.059V-.088A6.074,6.074,0,0,1,96.025.2a3.448,3.448,0,0,1-2.51-.8,3.282,3.282,0,0,1-.811-2.432V-8.281H91.357v-2.285h1.348v-2.627ZM98.32-5.381A6.236,6.236,0,0,1,98.936-8.2a4.4,4.4,0,0,1,1.768-1.9,5.323,5.323,0,0,1,2.705-.664,4.858,4.858,0,0,1,3.74,1.47,5.64,5.64,0,0,1,1.367,4v.117a5.472,5.472,0,0,1-1.372,3.921A4.871,4.871,0,0,1,103.428.2,4.927,4.927,0,0,1,99.8-1.157,5.29,5.29,0,0,1,98.33-4.824Zm3.291.205a3.932,3.932,0,0,0,.459,2.148,1.529,1.529,0,0,0,1.357.684q1.758,0,1.8-2.705v-.332q0-2.842-1.816-2.842-1.65,0-1.787,2.451Z" transform="translate(800.577 433)" fill="#fff"/>
    <path id="Trazado_736451" data-name="Trazado 736451" d="M0,0H250V65.476H0Z" transform="translate(875 542.891)" fill="#4db1f0"/>
    <path id="Trazado_736452" data-name="Trazado 736452" d="M-78.311-5.264l2.8.889A6.286,6.286,0,0,1-77.651-.894a6.114,6.114,0,0,1-3.8,1.138A6.158,6.158,0,0,1-86.143-1.7a7.455,7.455,0,0,1-1.836-5.327,7.826,7.826,0,0,1,1.846-5.552,6.329,6.329,0,0,1,4.854-1.978,5.955,5.955,0,0,1,4.268,1.553,5.647,5.647,0,0,1,1.465,2.637l-2.861.684a3.035,3.035,0,0,0-1.06-1.758,3.036,3.036,0,0,0-1.958-.645,3.257,3.257,0,0,0-2.583,1.143A5.6,5.6,0,0,0-85-7.246a6.005,6.005,0,0,0,.977,3.867,3.171,3.171,0,0,0,2.539,1.152A2.9,2.9,0,0,0-79.5-2.959,4.254,4.254,0,0,0-78.311-5.264ZM-71-7.207l-2.49-.449a3.879,3.879,0,0,1,1.445-2.227,5.289,5.289,0,0,1,3.047-.723,6.566,6.566,0,0,1,2.734.435A2.727,2.727,0,0,1-65-9.067a5.659,5.659,0,0,1,.366,2.456l-.029,3.2a11.12,11.12,0,0,0,.132,2.017A5.886,5.886,0,0,0-64.033,0h-2.715q-.107-.273-.264-.811-.068-.244-.1-.322a4.947,4.947,0,0,1-1.5,1.025,4.307,4.307,0,0,1-1.709.342,3.534,3.534,0,0,1-2.524-.869,2.889,2.889,0,0,1-.923-2.2A2.949,2.949,0,0,1-73.35-4.4a2.744,2.744,0,0,1,1.177-1.055,9.2,9.2,0,0,1,2.183-.64,14.951,14.951,0,0,0,2.666-.674v-.273a1.421,1.421,0,0,0-.391-1.128,2.341,2.341,0,0,0-1.475-.337,1.964,1.964,0,0,0-1.143.288A2,2,0,0,0-71-7.207Zm3.672,2.227a17.153,17.153,0,0,1-1.67.42,5.03,5.03,0,0,0-1.494.479,1.145,1.145,0,0,0-.537.967,1.346,1.346,0,0,0,.43,1A1.5,1.5,0,0,0-69.5-1.7a2.377,2.377,0,0,0,1.416-.488,1.719,1.719,0,0,0,.654-.908,5.419,5.419,0,0,0,.107-1.338ZM-59.3,0h-2.744V-10.371h2.549V-8.9a4.432,4.432,0,0,1,1.177-1.377,2.165,2.165,0,0,1,1.187-.332,3.483,3.483,0,0,1,1.807.518l-.85,2.393a2.408,2.408,0,0,0-1.289-.449,1.523,1.523,0,0,0-.977.317,2.17,2.17,0,0,0-.63,1.147A16.3,16.3,0,0,0-59.3-3.2Zm7.207-7.207-2.49-.449a3.879,3.879,0,0,1,1.445-2.227,5.289,5.289,0,0,1,3.047-.723,6.566,6.566,0,0,1,2.734.435,2.727,2.727,0,0,1,1.265,1.1,5.659,5.659,0,0,1,.366,2.456l-.029,3.2a11.12,11.12,0,0,0,.132,2.017A5.886,5.886,0,0,0-45.127,0h-2.715q-.107-.273-.264-.811-.068-.244-.1-.322a4.947,4.947,0,0,1-1.5,1.025,4.307,4.307,0,0,1-1.709.342A3.534,3.534,0,0,1-53.94-.635a2.889,2.889,0,0,1-.923-2.2,2.949,2.949,0,0,1,.42-1.567,2.744,2.744,0,0,1,1.177-1.055,9.2,9.2,0,0,1,2.183-.64,14.951,14.951,0,0,0,2.666-.674v-.273a1.421,1.421,0,0,0-.391-1.128,2.341,2.341,0,0,0-1.475-.337,1.964,1.964,0,0,0-1.143.288A2,2,0,0,0-52.09-7.207Zm3.672,2.227a17.153,17.153,0,0,1-1.67.42,5.03,5.03,0,0,0-1.494.479,1.144,1.144,0,0,0-.537.967,1.346,1.346,0,0,0,.43,1A1.5,1.5,0,0,0-50.6-1.7a2.376,2.376,0,0,0,1.416-.488,1.719,1.719,0,0,0,.654-.908,5.419,5.419,0,0,0,.107-1.338ZM-33.975-7.3l-2.705.488a1.963,1.963,0,0,0-.62-1.221,1.873,1.873,0,0,0-1.255-.41,2.05,2.05,0,0,0-1.636.708,3.628,3.628,0,0,0-.61,2.368,4.2,4.2,0,0,0,.62,2.607A2.036,2.036,0,0,0-38.516-2a1.849,1.849,0,0,0,1.279-.444,2.672,2.672,0,0,0,.7-1.528l2.7.459a4.783,4.783,0,0,1-1.611,2.8,4.988,4.988,0,0,1-3.193.947A4.748,4.748,0,0,1-42.271-1.2a5.566,5.566,0,0,1-1.353-3.975,5.579,5.579,0,0,1,1.357-4,4.821,4.821,0,0,1,3.672-1.431,5.009,5.009,0,0,1,3.013.815A4.518,4.518,0,0,1-33.975-7.3Zm6.836-3.066v2.188h-1.875V-4a10.4,10.4,0,0,0,.054,1.479.6.6,0,0,0,.244.347.774.774,0,0,0,.464.137,3.55,3.55,0,0,0,1.1-.264l.234,2.129a5.455,5.455,0,0,1-2.168.41A3.439,3.439,0,0,1-30.42-.015a1.953,1.953,0,0,1-.874-.645,2.544,2.544,0,0,1-.386-1.069,13.3,13.3,0,0,1-.088-1.934V-8.184h-1.26v-2.187h1.26v-2.061l2.754-1.6v3.662Zm7.91,7.07,2.734.459a4.485,4.485,0,0,1-1.665,2.29,4.891,4.891,0,0,1-2.847.786,4.64,4.64,0,0,1-4-1.768,5.938,5.938,0,0,1-1.025-3.574,5.727,5.727,0,0,1,1.348-4.038,4.438,4.438,0,0,1,3.408-1.46,4.6,4.6,0,0,1,3.652,1.528,6.762,6.762,0,0,1,1.279,4.683h-6.875a2.776,2.776,0,0,0,.664,1.9,2.077,2.077,0,0,0,1.582.679,1.68,1.68,0,0,0,1.084-.352A2.171,2.171,0,0,0-19.229-3.3Zm.156-2.773a2.642,2.642,0,0,0-.615-1.812,1.888,1.888,0,0,0-1.426-.62,1.906,1.906,0,0,0-1.484.654,2.532,2.532,0,0,0-.576,1.777ZM-11.484,0h-2.744V-10.371h2.549V-8.9A4.432,4.432,0,0,1-10.5-10.273a2.165,2.165,0,0,1,1.187-.332,3.483,3.483,0,0,1,1.807.518L-8.359-7.7a2.408,2.408,0,0,0-1.289-.449,1.523,1.523,0,0,0-.977.317,2.17,2.17,0,0,0-.63,1.147A16.3,16.3,0,0,0-11.484-3.2Zm5.156-11.777v-2.539h2.744v2.539ZM-6.328,0V-10.371h2.744V0Zm4.453,0V-2.139L2.012-6.6Q2.969-7.7,3.428-8.154q-.479.029-1.26.039l-3.662.02v-2.275H7.08v1.943L3.115-3.857l-1.4,1.514q1.143-.068,1.416-.068H7.383V0ZM11.279-7.207l-2.49-.449a3.879,3.879,0,0,1,1.445-2.227,5.289,5.289,0,0,1,3.047-.723,6.566,6.566,0,0,1,2.734.435,2.727,2.727,0,0,1,1.265,1.1,5.659,5.659,0,0,1,.366,2.456l-.029,3.2a11.12,11.12,0,0,0,.132,2.017A5.886,5.886,0,0,0,18.242,0H15.527q-.107-.273-.264-.811-.068-.244-.1-.322a4.947,4.947,0,0,1-1.5,1.025,4.307,4.307,0,0,1-1.709.342A3.534,3.534,0,0,1,9.429-.635a2.889,2.889,0,0,1-.923-2.2A2.949,2.949,0,0,1,8.926-4.4,2.744,2.744,0,0,1,10.1-5.454a9.2,9.2,0,0,1,2.183-.64,14.951,14.951,0,0,0,2.666-.674v-.273a1.421,1.421,0,0,0-.391-1.128,2.341,2.341,0,0,0-1.475-.337,1.964,1.964,0,0,0-1.143.288A2,2,0,0,0,11.279-7.207ZM14.951-4.98a17.153,17.153,0,0,1-1.67.42,5.03,5.03,0,0,0-1.494.479,1.144,1.144,0,0,0-.537.967,1.346,1.346,0,0,0,.43,1,1.5,1.5,0,0,0,1.094.42,2.376,2.376,0,0,0,1.416-.488,1.719,1.719,0,0,0,.654-.908,5.419,5.419,0,0,0,.107-1.338ZM29.395-7.3l-2.705.488a1.963,1.963,0,0,0-.62-1.221,1.873,1.873,0,0,0-1.255-.41,2.05,2.05,0,0,0-1.636.708,3.628,3.628,0,0,0-.61,2.368,4.2,4.2,0,0,0,.62,2.607A2.036,2.036,0,0,0,24.854-2a1.849,1.849,0,0,0,1.279-.444,2.672,2.672,0,0,0,.7-1.528l2.7.459a4.783,4.783,0,0,1-1.611,2.8,4.988,4.988,0,0,1-3.193.947A4.748,4.748,0,0,1,21.1-1.2a5.566,5.566,0,0,1-1.353-3.975,5.579,5.579,0,0,1,1.357-4,4.821,4.821,0,0,1,3.672-1.431,5.009,5.009,0,0,1,3.013.815A4.518,4.518,0,0,1,29.395-7.3Zm2.08-4.473v-2.539h2.744v2.539ZM31.475,0V-10.371h2.744V0ZM36.4-5.332a5.61,5.61,0,0,1,.674-2.646,4.625,4.625,0,0,1,1.909-1.953,5.666,5.666,0,0,1,2.759-.674A5.178,5.178,0,0,1,45.6-9.077a5.28,5.28,0,0,1,1.5,3.862,5.343,5.343,0,0,1-1.519,3.9A5.133,5.133,0,0,1,41.758.234a6.022,6.022,0,0,1-2.72-.645A4.421,4.421,0,0,1,37.07-2.3,6.3,6.3,0,0,1,36.4-5.332Zm2.813.146a3.436,3.436,0,0,0,.732,2.363A2.327,2.327,0,0,0,41.748-2a2.312,2.312,0,0,0,1.8-.82,3.483,3.483,0,0,0,.728-2.383,3.42,3.42,0,0,0-.728-2.344,2.312,2.312,0,0,0-1.8-.82,2.327,2.327,0,0,0-1.807.82A3.436,3.436,0,0,0,39.209-5.186Zm1.152-6.455,1.348-2.92h3.076L42.1-11.641ZM58.682,0H55.938V-5.293a8.181,8.181,0,0,0-.176-2.173,1.524,1.524,0,0,0-.571-.767,1.633,1.633,0,0,0-.952-.273,2.2,2.2,0,0,0-1.279.391,1.968,1.968,0,0,0-.776,1.035,8.948,8.948,0,0,0-.21,2.383V0H49.229V-10.371h2.549v1.523A4.153,4.153,0,0,1,55.2-10.605a4.117,4.117,0,0,1,1.66.327,2.782,2.782,0,0,1,1.138.835,3.025,3.025,0,0,1,.537,1.152,8.571,8.571,0,0,1,.151,1.846ZM76.533,0H73.984V-1.523A4.118,4.118,0,0,1,72.485-.2a3.846,3.846,0,0,1-1.743.435,3.95,3.95,0,0,1-3.062-1.44,5.859,5.859,0,0,1-1.274-4.019,5.791,5.791,0,0,1,1.24-4.009,4.043,4.043,0,0,1,3.135-1.372A3.883,3.883,0,0,1,73.789-9.16v-5.156h2.744ZM69.209-5.41a4.749,4.749,0,0,0,.459,2.4,2.074,2.074,0,0,0,1.855,1.074,2.02,2.02,0,0,0,1.611-.806A3.719,3.719,0,0,0,73.8-5.146a4.07,4.07,0,0,0-.645-2.573,2.04,2.04,0,0,0-1.65-.786,2.062,2.062,0,0,0-1.636.776A3.508,3.508,0,0,0,69.209-5.41ZM85.244-3.3l2.734.459a4.485,4.485,0,0,1-1.665,2.29,4.891,4.891,0,0,1-2.847.786,4.64,4.64,0,0,1-4-1.768,5.938,5.938,0,0,1-1.025-3.574,5.727,5.727,0,0,1,1.348-4.038,4.438,4.438,0,0,1,3.408-1.46,4.6,4.6,0,0,1,3.652,1.528,6.762,6.762,0,0,1,1.279,4.683H81.25a2.776,2.776,0,0,0,.664,1.9,2.077,2.077,0,0,0,1.582.679,1.68,1.68,0,0,0,1.084-.352A2.171,2.171,0,0,0,85.244-3.3ZM85.4-6.074a2.642,2.642,0,0,0-.615-1.812,1.888,1.888,0,0,0-1.426-.62,1.906,1.906,0,0,0-1.484.654A2.532,2.532,0,0,0,81.3-6.074ZM-90.962,22h-2.744V11.629h2.549V13.1a4.432,4.432,0,0,1,1.177-1.377,2.165,2.165,0,0,1,1.187-.332,3.483,3.483,0,0,1,1.807.518l-.85,2.393a2.408,2.408,0,0,0-1.289-.449,1.523,1.523,0,0,0-.977.317,2.17,2.17,0,0,0-.63,1.147,16.3,16.3,0,0,0-.229,3.477ZM-79.8,18.7l2.734.459a4.485,4.485,0,0,1-1.665,2.29,4.891,4.891,0,0,1-2.847.786,4.64,4.64,0,0,1-4-1.768,5.938,5.938,0,0,1-1.025-3.574,5.727,5.727,0,0,1,1.348-4.038,4.438,4.438,0,0,1,3.408-1.46A4.6,4.6,0,0,1-78.2,12.923a6.762,6.762,0,0,1,1.279,4.683h-6.875a2.776,2.776,0,0,0,.664,1.9,2.077,2.077,0,0,0,1.582.679,1.68,1.68,0,0,0,1.084-.352A2.171,2.171,0,0,0-79.8,18.7Zm.156-2.773a2.642,2.642,0,0,0-.615-1.812,1.888,1.888,0,0,0-1.426-.62,1.906,1.906,0,0,0-1.484.654,2.532,2.532,0,0,0-.576,1.777Zm3.994,3.115,2.754-.42a2.018,2.018,0,0,0,.713,1.216,2.409,2.409,0,0,0,1.5.415,2.715,2.715,0,0,0,1.6-.391.872.872,0,0,0,.361-.732.72.72,0,0,0-.2-.518,2.187,2.187,0,0,0-.918-.361,14.8,14.8,0,0,1-4.209-1.338,2.672,2.672,0,0,1-1.23-2.334A2.876,2.876,0,0,1-74.2,12.313a4.971,4.971,0,0,1,3.3-.918,5.758,5.758,0,0,1,3.164.693,3.544,3.544,0,0,1,1.426,2.051l-2.588.479a1.6,1.6,0,0,0-.63-.928,2.3,2.3,0,0,0-1.323-.322,2.981,2.981,0,0,0-1.553.3.65.65,0,0,0-.312.557.606.606,0,0,0,.273.5,10.3,10.3,0,0,0,2.563.771,7.631,7.631,0,0,1,3.062,1.221,2.537,2.537,0,0,1,.859,2.041,3.133,3.133,0,0,1-1.191,2.451,5.274,5.274,0,0,1-3.525,1.025,5.785,5.785,0,0,1-3.354-.859A3.959,3.959,0,0,1-75.649,19.041Zm12.09-8.818V7.684h2.744v2.539Zm0,11.777V11.629h2.744V22Zm15.068,0H-51.04V20.477a4.118,4.118,0,0,1-1.5,1.323,3.846,3.846,0,0,1-1.743.435,3.95,3.95,0,0,1-3.062-1.44,5.859,5.859,0,0,1-1.274-4.019,5.791,5.791,0,0,1,1.24-4.009,4.043,4.043,0,0,1,3.135-1.372,3.883,3.883,0,0,1,3.008,1.445V7.684h2.744Zm-7.324-5.41a4.749,4.749,0,0,0,.459,2.4A2.074,2.074,0,0,0-53.5,20.066a2.02,2.02,0,0,0,1.611-.806,3.719,3.719,0,0,0,.664-2.407,4.07,4.07,0,0,0-.645-2.573,2.04,2.04,0,0,0-1.65-.786,2.062,2.062,0,0,0-1.636.776A3.508,3.508,0,0,0-55.815,16.59ZM-38.96,22V20.447a4,4,0,0,1-1.489,1.309,4.175,4.175,0,0,1-1.948.479,3.809,3.809,0,0,1-1.875-.459,2.71,2.71,0,0,1-1.2-1.289,5.752,5.752,0,0,1-.371-2.295V11.629H-43.1v4.766a13.216,13.216,0,0,0,.151,2.681,1.462,1.462,0,0,0,.552.781,1.7,1.7,0,0,0,1.016.288,2.159,2.159,0,0,0,1.26-.386,1.962,1.962,0,0,0,.762-.957,11.109,11.109,0,0,0,.205-2.8V11.629h2.744V22Zm4.756-5.332a5.61,5.61,0,0,1,.674-2.646,4.625,4.625,0,0,1,1.909-1.953,5.666,5.666,0,0,1,2.759-.674A5.178,5.178,0,0,1-25,12.923a5.28,5.28,0,0,1,1.5,3.862,5.343,5.343,0,0,1-1.519,3.9,5.133,5.133,0,0,1-3.823,1.548,6.022,6.022,0,0,1-2.72-.645A4.421,4.421,0,0,1-33.53,19.7,6.3,6.3,0,0,1-34.2,16.668Zm2.813.146a3.436,3.436,0,0,0,.732,2.363,2.327,2.327,0,0,0,1.807.82,2.312,2.312,0,0,0,1.8-.82,3.483,3.483,0,0,0,.728-2.383,3.42,3.42,0,0,0-.728-2.344,2.312,2.312,0,0,0-1.8-.82,2.327,2.327,0,0,0-1.807.82A3.436,3.436,0,0,0-31.392,16.814Zm9.072,2.227,2.754-.42a2.018,2.018,0,0,0,.713,1.216,2.409,2.409,0,0,0,1.5.415,2.715,2.715,0,0,0,1.6-.391.872.872,0,0,0,.361-.732.721.721,0,0,0-.2-.518,2.187,2.187,0,0,0-.918-.361,14.8,14.8,0,0,1-4.209-1.338,2.672,2.672,0,0,1-1.23-2.334,2.876,2.876,0,0,1,1.064-2.266,4.971,4.971,0,0,1,3.3-.918,5.758,5.758,0,0,1,3.164.693,3.544,3.544,0,0,1,1.426,2.051l-2.588.479a1.6,1.6,0,0,0-.63-.928,2.3,2.3,0,0,0-1.323-.322,2.981,2.981,0,0,0-1.553.3.65.65,0,0,0-.312.557.606.606,0,0,0,.273.5,10.3,10.3,0,0,0,2.563.771,7.631,7.631,0,0,1,3.062,1.221,2.537,2.537,0,0,1,.859,2.041,3.133,3.133,0,0,1-1.191,2.451,5.274,5.274,0,0,1-3.525,1.025,5.785,5.785,0,0,1-3.354-.859A3.959,3.959,0,0,1-22.319,19.041Zm17.568-7.412h2.559v1.523a3.829,3.829,0,0,1,1.348-1.27,3.715,3.715,0,0,1,1.885-.488,3.954,3.954,0,0,1,3.066,1.416,5.731,5.731,0,0,1,1.26,3.945A5.905,5.905,0,0,1,4.1,20.794a3.955,3.955,0,0,1-3.076,1.44,3.5,3.5,0,0,1-1.558-.342,5.25,5.25,0,0,1-1.47-1.172v5.225H-4.751Zm2.715,5.01a4,4,0,0,0,.693,2.583,2.121,2.121,0,0,0,1.689.835,1.983,1.983,0,0,0,1.592-.767,3.95,3.95,0,0,0,.635-2.515,3.749,3.749,0,0,0-.654-2.422A2.024,2.024,0,0,0,.3,13.563a2.105,2.105,0,0,0-1.67.776A3.456,3.456,0,0,0-2.036,16.639ZM13.55,18.7l2.734.459a4.485,4.485,0,0,1-1.665,2.29,4.891,4.891,0,0,1-2.847.786,4.64,4.64,0,0,1-4-1.768,5.938,5.938,0,0,1-1.025-3.574,5.727,5.727,0,0,1,1.348-4.038,4.438,4.438,0,0,1,3.408-1.46,4.6,4.6,0,0,1,3.652,1.528,6.762,6.762,0,0,1,1.279,4.683H9.556a2.776,2.776,0,0,0,.664,1.9,2.077,2.077,0,0,0,1.582.679,1.68,1.68,0,0,0,1.084-.352A2.171,2.171,0,0,0,13.55,18.7Zm.156-2.773a2.642,2.642,0,0,0-.615-1.812,1.98,1.98,0,0,0-2.91.034A2.532,2.532,0,0,0,9.6,15.926ZM18.667,22V7.684h2.744V22Zm5.557-11.777V7.684h2.744v2.539Zm0,11.777V11.629h2.744V22Zm5.3.684,3.135.381a1.07,1.07,0,0,0,.361.752,2.063,2.063,0,0,0,1.23.293,3.2,3.2,0,0,0,1.611-.322,1.328,1.328,0,0,0,.547-.693,4.166,4.166,0,0,0,.127-1.26V20.32A3.713,3.713,0,0,1,33.433,22a3.823,3.823,0,0,1-3.311-1.768,6.008,6.008,0,0,1-.957-3.477,5.718,5.718,0,0,1,1.255-3.984,4.049,4.049,0,0,1,3.12-1.377,3.8,3.8,0,0,1,3.174,1.689V11.629h2.568v9.307a9.273,9.273,0,0,1-.3,2.744,3.4,3.4,0,0,1-.85,1.426,3.759,3.759,0,0,1-1.46.811,7.685,7.685,0,0,1-2.31.293,5.978,5.978,0,0,1-3.74-.9,2.834,2.834,0,0,1-1.1-2.29Q29.517,22.879,29.526,22.684ZM31.978,16.6a3.74,3.74,0,0,0,.64,2.417,1.978,1.978,0,0,0,1.577.767,2.18,2.18,0,0,0,1.7-.786,3.427,3.427,0,0,0,.693-2.329,3.632,3.632,0,0,0-.664-2.393,2.11,2.11,0,0,0-1.68-.781,2.026,2.026,0,0,0-1.626.767A3.6,3.6,0,0,0,31.978,16.6ZM44.624,22H41.88V11.629h2.549V13.1a4.432,4.432,0,0,1,1.177-1.377,2.165,2.165,0,0,1,1.187-.332,3.483,3.483,0,0,1,1.807.518l-.85,2.393a2.408,2.408,0,0,0-1.289-.449,1.523,1.523,0,0,0-.977.317,2.17,2.17,0,0,0-.63,1.147,16.3,16.3,0,0,0-.229,3.477Zm4.521-5.332a5.61,5.61,0,0,1,.674-2.646,4.625,4.625,0,0,1,1.909-1.953,5.666,5.666,0,0,1,2.759-.674,5.178,5.178,0,0,1,3.857,1.528,5.28,5.28,0,0,1,1.5,3.862,5.343,5.343,0,0,1-1.519,3.9,5.133,5.133,0,0,1-3.823,1.548,6.022,6.022,0,0,1-2.72-.645,4.421,4.421,0,0,1-1.968-1.89A6.3,6.3,0,0,1,49.146,16.668Zm2.813.146a3.436,3.436,0,0,0,.732,2.363,2.394,2.394,0,0,0,3.608,0,3.483,3.483,0,0,0,.728-2.383,3.42,3.42,0,0,0-.728-2.344,2.394,2.394,0,0,0-3.608,0A3.436,3.436,0,0,0,51.958,16.814Zm9.072,2.227,2.754-.42a2.018,2.018,0,0,0,.713,1.216,2.409,2.409,0,0,0,1.5.415,2.715,2.715,0,0,0,1.6-.391.872.872,0,0,0,.361-.732.72.72,0,0,0-.2-.518,2.187,2.187,0,0,0-.918-.361,14.8,14.8,0,0,1-4.209-1.338,2.672,2.672,0,0,1-1.23-2.334,2.876,2.876,0,0,1,1.064-2.266,4.971,4.971,0,0,1,3.3-.918,5.758,5.758,0,0,1,3.164.693,3.544,3.544,0,0,1,1.426,2.051l-2.588.479a1.6,1.6,0,0,0-.63-.928,2.3,2.3,0,0,0-1.323-.322,2.981,2.981,0,0,0-1.553.3.65.65,0,0,0-.312.557.606.606,0,0,0,.273.5A10.3,10.3,0,0,0,66.8,15.5a7.631,7.631,0,0,1,3.062,1.221,2.537,2.537,0,0,1,.859,2.041,3.133,3.133,0,0,1-1.191,2.451A5.274,5.274,0,0,1,66,22.234a5.785,5.785,0,0,1-3.354-.859A3.959,3.959,0,0,1,61.03,19.041Zm11.455-2.373a5.61,5.61,0,0,1,.674-2.646,4.625,4.625,0,0,1,1.909-1.953,5.666,5.666,0,0,1,2.759-.674,5.178,5.178,0,0,1,3.857,1.528,5.28,5.28,0,0,1,1.5,3.862,5.343,5.343,0,0,1-1.519,3.9,5.133,5.133,0,0,1-3.823,1.548,6.022,6.022,0,0,1-2.72-.645,4.421,4.421,0,0,1-1.968-1.89A6.3,6.3,0,0,1,72.485,16.668Zm2.813.146a3.436,3.436,0,0,0,.732,2.363,2.394,2.394,0,0,0,3.608,0,3.483,3.483,0,0,0,.728-2.383,3.42,3.42,0,0,0-.728-2.344,2.394,2.394,0,0,0-3.608,0A3.436,3.436,0,0,0,75.3,16.814Zm9.072,2.227,2.754-.42a2.018,2.018,0,0,0,.713,1.216,2.409,2.409,0,0,0,1.5.415,2.715,2.715,0,0,0,1.6-.391.872.872,0,0,0,.361-.732.72.72,0,0,0-.2-.518,2.187,2.187,0,0,0-.918-.361,14.8,14.8,0,0,1-4.209-1.338,2.672,2.672,0,0,1-1.23-2.334,2.876,2.876,0,0,1,1.064-2.266,4.971,4.971,0,0,1,3.3-.918,5.758,5.758,0,0,1,3.164.693,3.544,3.544,0,0,1,1.426,2.051l-2.588.479a1.6,1.6,0,0,0-.63-.928,2.3,2.3,0,0,0-1.323-.322,2.981,2.981,0,0,0-1.553.3.65.65,0,0,0-.312.557.606.606,0,0,0,.273.5,10.3,10.3,0,0,0,2.563.771A7.631,7.631,0,0,1,93.2,16.717a2.537,2.537,0,0,1,.859,2.041,3.133,3.133,0,0,1-1.191,2.451,5.274,5.274,0,0,1-3.525,1.025,5.785,5.785,0,0,1-3.354-.859A3.959,3.959,0,0,1,84.37,19.041Z" transform="translate(1000 571.891)"/>
    <path id="Trazado_736453" data-name="Trazado 736453" d="M0,0H250V65.476H0Z" transform="translate(180 541.403)" fill="#4db1f0"/>
    <path id="Trazado_736454" data-name="Trazado 736454" d="M-80.254,0V-14.316h4.326l2.6,9.766,2.568-9.766h4.336V0h-2.686V-11.27L-71.953,0h-2.783l-2.832-11.27V0Zm22.686-3.3,2.734.459A4.485,4.485,0,0,1-56.5-.552a4.891,4.891,0,0,1-2.847.786,4.64,4.64,0,0,1-4-1.768,5.938,5.938,0,0,1-1.025-3.574,5.727,5.727,0,0,1,1.348-4.038,4.438,4.438,0,0,1,3.408-1.46,4.6,4.6,0,0,1,3.652,1.528,6.762,6.762,0,0,1,1.279,4.683h-6.875A2.776,2.776,0,0,0-60.9-2.5a2.077,2.077,0,0,0,1.582.679,1.68,1.68,0,0,0,1.084-.352A2.171,2.171,0,0,0-57.568-3.3Zm.156-2.773a2.642,2.642,0,0,0-.615-1.812,1.888,1.888,0,0,0-1.426-.62,1.906,1.906,0,0,0-1.484.654,2.532,2.532,0,0,0-.576,1.777Zm9.717-4.3v2.188H-49.57V-4a10.4,10.4,0,0,0,.054,1.479.6.6,0,0,0,.244.347.774.774,0,0,0,.464.137,3.55,3.55,0,0,0,1.1-.264l.234,2.129a5.455,5.455,0,0,1-2.168.41,3.439,3.439,0,0,1-1.338-.249,1.953,1.953,0,0,1-.874-.645,2.544,2.544,0,0,1-.386-1.069,13.3,13.3,0,0,1-.088-1.934V-8.184h-1.26v-2.187h1.26v-2.061l2.754-1.6v3.662Zm1.27,5.039a5.61,5.61,0,0,1,.674-2.646,4.625,4.625,0,0,1,1.909-1.953,5.666,5.666,0,0,1,2.759-.674,5.178,5.178,0,0,1,3.857,1.528,5.28,5.28,0,0,1,1.5,3.862,5.343,5.343,0,0,1-1.519,3.9A5.133,5.133,0,0,1-41.064.234a6.022,6.022,0,0,1-2.72-.645A4.421,4.421,0,0,1-45.752-2.3,6.3,6.3,0,0,1-46.426-5.332Zm2.813.146a3.436,3.436,0,0,0,.732,2.363A2.327,2.327,0,0,0-41.074-2a2.312,2.312,0,0,0,1.8-.82,3.483,3.483,0,0,0,.728-2.383,3.42,3.42,0,0,0-.728-2.344,2.312,2.312,0,0,0-1.8-.82,2.327,2.327,0,0,0-1.807.82A3.436,3.436,0,0,0-43.613-5.186ZM-24.062,0h-2.549V-1.523A4.118,4.118,0,0,1-28.11-.2a3.846,3.846,0,0,1-1.743.435,3.95,3.95,0,0,1-3.062-1.44,5.859,5.859,0,0,1-1.274-4.019,5.791,5.791,0,0,1,1.24-4.009,4.043,4.043,0,0,1,3.135-1.372A3.883,3.883,0,0,1-26.807-9.16v-5.156h2.744Zm-7.324-5.41a4.749,4.749,0,0,0,.459,2.4,2.074,2.074,0,0,0,1.855,1.074,2.02,2.02,0,0,0,1.611-.806A3.719,3.719,0,0,0-26.8-5.146a4.07,4.07,0,0,0-.645-2.573,2.04,2.04,0,0,0-1.65-.786,2.062,2.062,0,0,0-1.636.776A3.508,3.508,0,0,0-31.387-5.41Zm9.395.078a5.61,5.61,0,0,1,.674-2.646,4.625,4.625,0,0,1,1.909-1.953,5.666,5.666,0,0,1,2.759-.674,5.178,5.178,0,0,1,3.857,1.528,5.28,5.28,0,0,1,1.5,3.862,5.343,5.343,0,0,1-1.519,3.9A5.133,5.133,0,0,1-16.631.234a6.022,6.022,0,0,1-2.72-.645A4.421,4.421,0,0,1-21.318-2.3,6.3,6.3,0,0,1-21.992-5.332Zm2.813.146a3.436,3.436,0,0,0,.732,2.363A2.327,2.327,0,0,0-16.641-2a2.312,2.312,0,0,0,1.8-.82,3.483,3.483,0,0,0,.728-2.383,3.42,3.42,0,0,0-.728-2.344,2.312,2.312,0,0,0-1.8-.82,2.327,2.327,0,0,0-1.807.82A3.436,3.436,0,0,0-19.18-5.186ZM-9.141,0V-14.316H-6.4V0Zm4.922-5.332a5.61,5.61,0,0,1,.674-2.646A4.625,4.625,0,0,1-1.636-9.932a5.666,5.666,0,0,1,2.759-.674A5.178,5.178,0,0,1,4.98-9.077a5.28,5.28,0,0,1,1.5,3.862,5.343,5.343,0,0,1-1.519,3.9A5.133,5.133,0,0,1,1.143.234,6.022,6.022,0,0,1-1.577-.41,4.421,4.421,0,0,1-3.545-2.3,6.3,6.3,0,0,1-4.219-5.332Zm2.813.146A3.436,3.436,0,0,0-.674-2.822,2.327,2.327,0,0,0,1.133-2a2.312,2.312,0,0,0,1.8-.82,3.483,3.483,0,0,0,.728-2.383,3.42,3.42,0,0,0-.728-2.344,2.312,2.312,0,0,0-1.8-.82,2.327,2.327,0,0,0-1.807.82A3.436,3.436,0,0,0-1.406-5.186ZM8.379.684l3.135.381a1.07,1.07,0,0,0,.361.752,2.063,2.063,0,0,0,1.23.293,3.2,3.2,0,0,0,1.611-.322,1.328,1.328,0,0,0,.547-.693,4.166,4.166,0,0,0,.127-1.26V-1.68A3.713,3.713,0,0,1,12.285,0,3.823,3.823,0,0,1,8.975-1.768a6.008,6.008,0,0,1-.957-3.477A5.718,5.718,0,0,1,9.272-9.229a4.049,4.049,0,0,1,3.12-1.377,3.8,3.8,0,0,1,3.174,1.689v-1.455h2.568v9.307a9.273,9.273,0,0,1-.3,2.744,3.4,3.4,0,0,1-.85,1.426,3.759,3.759,0,0,1-1.46.811,7.685,7.685,0,0,1-2.31.293,5.978,5.978,0,0,1-3.74-.9,2.834,2.834,0,0,1-1.1-2.29Q8.369.879,8.379.684ZM10.83-5.4a3.74,3.74,0,0,0,.64,2.417,1.978,1.978,0,0,0,1.577.767A2.18,2.18,0,0,0,14.746-3a3.427,3.427,0,0,0,.693-2.329,3.632,3.632,0,0,0-.664-2.393,2.11,2.11,0,0,0-1.68-.781,2.026,2.026,0,0,0-1.626.767A3.6,3.6,0,0,0,10.83-5.4ZM20.85,0V-10.371h2.744V0Zm-.205-11.641,1.348-2.92h3.076l-2.686,2.92Zm7.813,4.434-2.49-.449a3.879,3.879,0,0,1,1.445-2.227,5.289,5.289,0,0,1,3.047-.723,6.566,6.566,0,0,1,2.734.435,2.727,2.727,0,0,1,1.265,1.1,5.659,5.659,0,0,1,.366,2.456l-.029,3.2a11.12,11.12,0,0,0,.132,2.017A5.886,5.886,0,0,0,35.42,0H32.705q-.107-.273-.264-.811-.068-.244-.1-.322a4.947,4.947,0,0,1-1.5,1.025,4.307,4.307,0,0,1-1.709.342,3.534,3.534,0,0,1-2.524-.869,2.889,2.889,0,0,1-.923-2.2A2.949,2.949,0,0,1,26.1-4.4,2.744,2.744,0,0,1,27.28-5.454a9.2,9.2,0,0,1,2.183-.64,14.951,14.951,0,0,0,2.666-.674v-.273a1.421,1.421,0,0,0-.391-1.128,2.341,2.341,0,0,0-1.475-.337,1.964,1.964,0,0,0-1.143.288A2,2,0,0,0,28.457-7.207ZM32.129-4.98a17.153,17.153,0,0,1-1.67.42,5.03,5.03,0,0,0-1.494.479,1.145,1.145,0,0,0-.537.967,1.346,1.346,0,0,0,.43,1,1.5,1.5,0,0,0,1.094.42,2.376,2.376,0,0,0,1.416-.488,1.719,1.719,0,0,0,.654-.908,5.419,5.419,0,0,0,.107-1.338Zm4.434,2.021,2.754-.42a2.018,2.018,0,0,0,.713,1.216,2.409,2.409,0,0,0,1.5.415,2.715,2.715,0,0,0,1.6-.391.872.872,0,0,0,.361-.732.721.721,0,0,0-.2-.518,2.187,2.187,0,0,0-.918-.361,14.8,14.8,0,0,1-4.209-1.338,2.672,2.672,0,0,1-1.23-2.334,2.876,2.876,0,0,1,1.064-2.266,4.971,4.971,0,0,1,3.3-.918,5.758,5.758,0,0,1,3.164.693A3.544,3.544,0,0,1,45.9-7.861l-2.588.479a1.6,1.6,0,0,0-.63-.928,2.3,2.3,0,0,0-1.323-.322,2.981,2.981,0,0,0-1.553.3.65.65,0,0,0-.312.557.606.606,0,0,0,.273.5,10.3,10.3,0,0,0,2.563.771,7.631,7.631,0,0,1,3.062,1.221,2.537,2.537,0,0,1,.859,2.041A3.133,3.133,0,0,1,45.059-.791,5.274,5.274,0,0,1,41.533.234a5.785,5.785,0,0,1-3.354-.859A3.959,3.959,0,0,1,36.563-2.959ZM63.721,0H61.172V-1.523A4.118,4.118,0,0,1,59.673-.2,3.846,3.846,0,0,1,57.93.234a3.95,3.95,0,0,1-3.062-1.44,5.859,5.859,0,0,1-1.274-4.019,5.791,5.791,0,0,1,1.24-4.009,4.043,4.043,0,0,1,3.135-1.372A3.883,3.883,0,0,1,60.977-9.16v-5.156h2.744ZM56.4-5.41a4.749,4.749,0,0,0,.459,2.4,2.074,2.074,0,0,0,1.855,1.074,2.02,2.02,0,0,0,1.611-.806,3.719,3.719,0,0,0,.664-2.407,4.07,4.07,0,0,0-.645-2.573,2.04,2.04,0,0,0-1.65-.786,2.062,2.062,0,0,0-1.636.776A3.508,3.508,0,0,0,56.4-5.41ZM72.432-3.3l2.734.459A4.485,4.485,0,0,1,73.5-.552a4.891,4.891,0,0,1-2.847.786,4.64,4.64,0,0,1-4-1.768,5.938,5.938,0,0,1-1.025-3.574,5.727,5.727,0,0,1,1.348-4.038,4.438,4.438,0,0,1,3.408-1.46,4.6,4.6,0,0,1,3.652,1.528,6.762,6.762,0,0,1,1.279,4.683H68.438A2.776,2.776,0,0,0,69.1-2.5a2.077,2.077,0,0,0,1.582.679,1.68,1.68,0,0,0,1.084-.352A2.171,2.171,0,0,0,72.432-3.3Zm.156-2.773a2.642,2.642,0,0,0-.615-1.812,1.888,1.888,0,0,0-1.426-.62,1.906,1.906,0,0,0-1.484.654,2.532,2.532,0,0,0-.576,1.777Zm-116.372,17.7h2.529v1.416a4.07,4.07,0,0,1,3.232-1.65,3.481,3.481,0,0,1,1.729.41,3.152,3.152,0,0,1,1.2,1.24,4.791,4.791,0,0,1,1.475-1.24,3.618,3.618,0,0,1,1.689-.41A3.763,3.763,0,0,1-30,11.858a2.842,2.842,0,0,1,1.182,1.362,5.909,5.909,0,0,1,.283,2.148V22h-2.744V16.072a4.41,4.41,0,0,0-.283-1.992,1.3,1.3,0,0,0-1.172-.586,1.87,1.87,0,0,0-1.084.352,1.95,1.95,0,0,0-.732,1.03,7.413,7.413,0,0,0-.225,2.144V22h-2.744V16.316a7.884,7.884,0,0,0-.146-1.953,1.246,1.246,0,0,0-.454-.654,1.435,1.435,0,0,0-.835-.215,2,2,0,0,0-1.143.342,1.875,1.875,0,0,0-.728.986,7.331,7.331,0,0,0-.22,2.139V22h-2.744ZM-18.97,22V20.447a4,4,0,0,1-1.489,1.309,4.175,4.175,0,0,1-1.948.479,3.809,3.809,0,0,1-1.875-.459,2.71,2.71,0,0,1-1.2-1.289,5.752,5.752,0,0,1-.371-2.295V11.629h2.744v4.766a13.216,13.216,0,0,0,.151,2.681,1.462,1.462,0,0,0,.552.781,1.7,1.7,0,0,0,1.016.288,2.159,2.159,0,0,0,1.26-.386,1.962,1.962,0,0,0,.762-.957,11.109,11.109,0,0,0,.205-2.8V11.629h2.744V22Zm11.4-3.3,2.734.459A4.485,4.485,0,0,1-6.5,21.448a4.891,4.891,0,0,1-2.847.786,4.64,4.64,0,0,1-4-1.768,5.938,5.938,0,0,1-1.025-3.574,5.727,5.727,0,0,1,1.348-4.038,4.438,4.438,0,0,1,3.408-1.46,4.6,4.6,0,0,1,3.652,1.528,6.762,6.762,0,0,1,1.279,4.683h-6.875a2.776,2.776,0,0,0,.664,1.9,2.077,2.077,0,0,0,1.582.679,1.68,1.68,0,0,0,1.084-.352A2.171,2.171,0,0,0-7.573,18.7Zm.156-2.773a2.642,2.642,0,0,0-.615-1.812,1.888,1.888,0,0,0-1.426-.62,1.906,1.906,0,0,0-1.484.654,2.532,2.532,0,0,0-.576,1.777Zm3.994,3.115,2.754-.42a2.018,2.018,0,0,0,.713,1.216,2.409,2.409,0,0,0,1.5.415,2.715,2.715,0,0,0,1.6-.391.872.872,0,0,0,.361-.732.721.721,0,0,0-.2-.518A2.187,2.187,0,0,0,2.4,18.25a14.8,14.8,0,0,1-4.209-1.338,2.672,2.672,0,0,1-1.23-2.334,2.876,2.876,0,0,1,1.064-2.266,4.971,4.971,0,0,1,3.3-.918,5.758,5.758,0,0,1,3.164.693,3.544,3.544,0,0,1,1.426,2.051l-2.588.479a1.6,1.6,0,0,0-.63-.928,2.3,2.3,0,0,0-1.323-.322,2.981,2.981,0,0,0-1.553.3.65.65,0,0,0-.312.557.606.606,0,0,0,.273.5,10.3,10.3,0,0,0,2.563.771,7.631,7.631,0,0,1,3.062,1.221,2.537,2.537,0,0,1,.859,2.041,3.133,3.133,0,0,1-1.191,2.451,5.274,5.274,0,0,1-3.525,1.025,5.785,5.785,0,0,1-3.354-.859A3.959,3.959,0,0,1-3.423,19.041Zm16.846-7.412v2.188H11.548V18a10.4,10.4,0,0,0,.054,1.479.6.6,0,0,0,.244.347.774.774,0,0,0,.464.137,3.55,3.55,0,0,0,1.1-.264l.234,2.129a5.455,5.455,0,0,1-2.168.41,3.439,3.439,0,0,1-1.338-.249,1.953,1.953,0,0,1-.874-.645,2.544,2.544,0,0,1-.386-1.069,13.3,13.3,0,0,1-.088-1.934V13.816H7.534V11.629h1.26V9.568l2.754-1.6v3.662ZM17.954,22H15.21V11.629h2.549V13.1a4.432,4.432,0,0,1,1.177-1.377,2.165,2.165,0,0,1,1.187-.332,3.483,3.483,0,0,1,1.807.518l-.85,2.393a2.408,2.408,0,0,0-1.289-.449,1.523,1.523,0,0,0-.977.317,2.17,2.17,0,0,0-.63,1.147,16.3,16.3,0,0,0-.229,3.477Zm11.162-3.3,2.734.459a4.485,4.485,0,0,1-1.665,2.29,4.891,4.891,0,0,1-2.847.786,4.64,4.64,0,0,1-4-1.768,5.938,5.938,0,0,1-1.025-3.574,5.727,5.727,0,0,1,1.348-4.038,4.438,4.438,0,0,1,3.408-1.46,4.6,4.6,0,0,1,3.652,1.528A6.762,6.762,0,0,1,32,17.605H25.122a2.776,2.776,0,0,0,.664,1.9,2.077,2.077,0,0,0,1.582.679,1.68,1.68,0,0,0,1.084-.352A2.171,2.171,0,0,0,29.116,18.7Zm.156-2.773a2.642,2.642,0,0,0-.615-1.812,1.98,1.98,0,0,0-2.91.034,2.532,2.532,0,0,0-.576,1.777Zm4.326.742a5.61,5.61,0,0,1,.674-2.646,4.625,4.625,0,0,1,1.909-1.953,5.666,5.666,0,0,1,2.759-.674A5.178,5.178,0,0,1,42.8,12.923a5.28,5.28,0,0,1,1.5,3.862,5.343,5.343,0,0,1-1.519,3.9,5.133,5.133,0,0,1-3.823,1.548,6.022,6.022,0,0,1-2.72-.645,4.421,4.421,0,0,1-1.968-1.89A6.3,6.3,0,0,1,33.6,16.668Zm2.813.146a3.436,3.436,0,0,0,.732,2.363,2.394,2.394,0,0,0,3.608,0,3.483,3.483,0,0,0,.728-2.383,3.42,3.42,0,0,0-.728-2.344,2.394,2.394,0,0,0-3.608,0A3.436,3.436,0,0,0,36.411,16.814Z" transform="translate(305 570.402)"/>
    <path id="Trazado_734754" data-name="Trazado 734754" d="M0,0H250V65.476H0Z" transform="translate(330 763.948)" fill="#e4f3fd"/>
    <path id="Trazado_736465" data-name="Trazado 736465" d="M-68.437,0h-3.145l-1.25-3.252h-5.723L-79.736,0H-82.8l5.576-14.316h3.057ZM-73.76-5.664l-1.973-5.312-1.934,5.313ZM-66.924,0V-14.316h2.744V0Zm5.352-10.371h2.529v1.416a4.07,4.07,0,0,1,3.232-1.65,3.481,3.481,0,0,1,1.729.41,3.152,3.152,0,0,1,1.2,1.24,4.791,4.791,0,0,1,1.475-1.24,3.618,3.618,0,0,1,1.689-.41,3.763,3.763,0,0,1,1.934.464A2.842,2.842,0,0,1-46.6-8.779a5.909,5.909,0,0,1,.283,2.148V0h-2.744V-5.928a4.41,4.41,0,0,0-.283-1.992,1.3,1.3,0,0,0-1.172-.586,1.87,1.87,0,0,0-1.084.352,1.95,1.95,0,0,0-.732,1.03,7.413,7.413,0,0,0-.225,2.144V0H-55.3V-5.684a7.884,7.884,0,0,0-.146-1.953,1.246,1.246,0,0,0-.454-.654,1.435,1.435,0,0,0-.835-.215,2,2,0,0,0-1.143.342,1.875,1.875,0,0,0-.728.986,7.331,7.331,0,0,0-.22,2.139V0h-2.744Zm20.039,3.164-2.49-.449a3.879,3.879,0,0,1,1.445-2.227,5.289,5.289,0,0,1,3.047-.723,6.566,6.566,0,0,1,2.734.435,2.727,2.727,0,0,1,1.265,1.1,5.659,5.659,0,0,1,.366,2.456l-.029,3.2a11.12,11.12,0,0,0,.132,2.017A5.886,5.886,0,0,0-34.57,0h-2.715q-.107-.273-.264-.811-.068-.244-.1-.322a4.947,4.947,0,0,1-1.5,1.025,4.307,4.307,0,0,1-1.709.342,3.534,3.534,0,0,1-2.524-.869,2.889,2.889,0,0,1-.923-2.2,2.949,2.949,0,0,1,.42-1.567A2.744,2.744,0,0,1-42.71-5.454a9.2,9.2,0,0,1,2.183-.64,14.951,14.951,0,0,0,2.666-.674v-.273a1.421,1.421,0,0,0-.391-1.128,2.341,2.341,0,0,0-1.475-.337,1.964,1.964,0,0,0-1.143.288A2,2,0,0,0-41.533-7.207Zm3.672,2.227a17.153,17.153,0,0,1-1.67.42,5.03,5.03,0,0,0-1.494.479,1.144,1.144,0,0,0-.537.967,1.346,1.346,0,0,0,.43,1,1.5,1.5,0,0,0,1.094.42,2.376,2.376,0,0,0,1.416-.488,1.719,1.719,0,0,0,.654-.908,5.419,5.419,0,0,0,.107-1.338ZM-23.418-7.3l-2.705.488a1.963,1.963,0,0,0-.62-1.221A1.873,1.873,0,0,0-28-8.447a2.05,2.05,0,0,0-1.636.708,3.628,3.628,0,0,0-.61,2.368,4.2,4.2,0,0,0,.62,2.607A2.036,2.036,0,0,0-27.959-2a1.849,1.849,0,0,0,1.279-.444,2.672,2.672,0,0,0,.7-1.528l2.7.459a4.783,4.783,0,0,1-1.611,2.8,4.988,4.988,0,0,1-3.193.947A4.748,4.748,0,0,1-31.714-1.2a5.566,5.566,0,0,1-1.353-3.975,5.579,5.579,0,0,1,1.357-4,4.821,4.821,0,0,1,3.672-1.431,5.009,5.009,0,0,1,3.013.815A4.518,4.518,0,0,1-23.418-7.3Zm8.086,4,2.734.459a4.485,4.485,0,0,1-1.665,2.29,4.891,4.891,0,0,1-2.847.786,4.64,4.64,0,0,1-4-1.768,5.938,5.938,0,0,1-1.025-3.574,5.727,5.727,0,0,1,1.348-4.038,4.438,4.438,0,0,1,3.408-1.46A4.6,4.6,0,0,1-13.73-9.077a6.762,6.762,0,0,1,1.279,4.683h-6.875a2.776,2.776,0,0,0,.664,1.9,2.077,2.077,0,0,0,1.582.679A1.68,1.68,0,0,0-16-2.168,2.171,2.171,0,0,0-15.332-3.3Zm.156-2.773a2.642,2.642,0,0,0-.615-1.812,1.888,1.888,0,0,0-1.426-.62,1.906,1.906,0,0,0-1.484.654,2.532,2.532,0,0,0-.576,1.777ZM-.781,0H-3.525V-5.293A8.181,8.181,0,0,0-3.7-7.466a1.524,1.524,0,0,0-.571-.767,1.633,1.633,0,0,0-.952-.273A2.2,2.2,0,0,0-6.5-8.115,1.968,1.968,0,0,0-7.28-7.08,8.948,8.948,0,0,0-7.49-4.7V0h-2.744V-10.371h2.549v1.523a4.153,4.153,0,0,1,3.418-1.758,4.117,4.117,0,0,1,1.66.327,2.782,2.782,0,0,1,1.138.835A3.025,3.025,0,0,1-.933-8.291,8.571,8.571,0,0,1-.781-6.445ZM4.053-7.207l-2.49-.449A3.879,3.879,0,0,1,3.008-9.883a5.289,5.289,0,0,1,3.047-.723,6.566,6.566,0,0,1,2.734.435,2.727,2.727,0,0,1,1.265,1.1,5.659,5.659,0,0,1,.366,2.456l-.029,3.2a11.12,11.12,0,0,0,.132,2.017A5.886,5.886,0,0,0,11.016,0H8.3q-.107-.273-.264-.811-.068-.244-.1-.322a4.947,4.947,0,0,1-1.5,1.025A4.307,4.307,0,0,1,4.727.234,3.534,3.534,0,0,1,2.2-.635a2.889,2.889,0,0,1-.923-2.2A2.949,2.949,0,0,1,1.7-4.4,2.744,2.744,0,0,1,2.876-5.454a9.2,9.2,0,0,1,2.183-.64,14.951,14.951,0,0,0,2.666-.674v-.273a1.421,1.421,0,0,0-.391-1.128,2.341,2.341,0,0,0-1.475-.337,1.964,1.964,0,0,0-1.143.288A2,2,0,0,0,4.053-7.207ZM7.725-4.98a17.153,17.153,0,0,1-1.67.42,5.03,5.03,0,0,0-1.494.479,1.144,1.144,0,0,0-.537.967,1.346,1.346,0,0,0,.43,1,1.5,1.5,0,0,0,1.094.42,2.376,2.376,0,0,0,1.416-.488A1.719,1.719,0,0,0,7.617-3.1a5.419,5.419,0,0,0,.107-1.338Zm5.2-5.391h2.529v1.416a4.07,4.07,0,0,1,3.232-1.65,3.481,3.481,0,0,1,1.729.41,3.152,3.152,0,0,1,1.2,1.24,4.791,4.791,0,0,1,1.475-1.24,3.618,3.618,0,0,1,1.689-.41,3.763,3.763,0,0,1,1.934.464,2.842,2.842,0,0,1,1.182,1.362,5.909,5.909,0,0,1,.283,2.148V0H25.43V-5.928a4.41,4.41,0,0,0-.283-1.992,1.3,1.3,0,0,0-1.172-.586,1.87,1.87,0,0,0-1.084.352,1.95,1.95,0,0,0-.732,1.03,7.412,7.412,0,0,0-.225,2.144V0H19.189V-5.684a7.884,7.884,0,0,0-.146-1.953,1.246,1.246,0,0,0-.454-.654,1.435,1.435,0,0,0-.835-.215,2,2,0,0,0-1.143.342,1.875,1.875,0,0,0-.728.986,7.331,7.331,0,0,0-.22,2.139V0H12.92Zm17.988-1.406v-2.539h2.744v2.539ZM30.908,0V-10.371h2.744V0ZM42.471-3.3l2.734.459A4.485,4.485,0,0,1,43.54-.552a4.891,4.891,0,0,1-2.847.786,4.64,4.64,0,0,1-4-1.768,5.938,5.938,0,0,1-1.025-3.574,5.727,5.727,0,0,1,1.348-4.038,4.438,4.438,0,0,1,3.408-1.46,4.6,4.6,0,0,1,3.652,1.528,6.762,6.762,0,0,1,1.279,4.683H38.477a2.776,2.776,0,0,0,.664,1.9,2.077,2.077,0,0,0,1.582.679,1.68,1.68,0,0,0,1.084-.352A2.171,2.171,0,0,0,42.471-3.3Zm.156-2.773a2.642,2.642,0,0,0-.615-1.812,1.888,1.888,0,0,0-1.426-.62,1.906,1.906,0,0,0-1.484.654,2.532,2.532,0,0,0-.576,1.777ZM57.021,0H54.277V-5.293A8.181,8.181,0,0,0,54.1-7.466a1.524,1.524,0,0,0-.571-.767,1.633,1.633,0,0,0-.952-.273,2.2,2.2,0,0,0-1.279.391,1.968,1.968,0,0,0-.776,1.035,8.948,8.948,0,0,0-.21,2.383V0H47.568V-10.371h2.549v1.523a4.153,4.153,0,0,1,3.418-1.758,4.117,4.117,0,0,1,1.66.327,2.782,2.782,0,0,1,1.138.835,3.025,3.025,0,0,1,.537,1.152,8.571,8.571,0,0,1,.151,1.846Zm7.539-10.371v2.188H62.686V-4a10.4,10.4,0,0,0,.054,1.479.6.6,0,0,0,.244.347.774.774,0,0,0,.464.137,3.55,3.55,0,0,0,1.1-.264l.234,2.129a5.455,5.455,0,0,1-2.168.41,3.439,3.439,0,0,1-1.338-.249,1.953,1.953,0,0,1-.874-.645,2.544,2.544,0,0,1-.386-1.069,13.3,13.3,0,0,1-.088-1.934V-8.184h-1.26v-2.187h1.26v-2.061l2.754-1.6v3.662Zm1.27,5.039A5.61,5.61,0,0,1,66.5-7.979a4.625,4.625,0,0,1,1.909-1.953,5.666,5.666,0,0,1,2.759-.674,5.178,5.178,0,0,1,3.857,1.528,5.28,5.28,0,0,1,1.5,3.862,5.343,5.343,0,0,1-1.519,3.9A5.133,5.133,0,0,1,71.191.234a6.022,6.022,0,0,1-2.72-.645A4.421,4.421,0,0,1,66.5-2.3,6.3,6.3,0,0,1,65.83-5.332Zm2.813.146a3.436,3.436,0,0,0,.732,2.363A2.327,2.327,0,0,0,71.182-2a2.312,2.312,0,0,0,1.8-.82,3.483,3.483,0,0,0,.728-2.383,3.42,3.42,0,0,0-.728-2.344,2.312,2.312,0,0,0-1.8-.82,2.327,2.327,0,0,0-1.807.82A3.436,3.436,0,0,0,68.643-5.186ZM-36.04,11.629v2.188h-1.875V18a10.4,10.4,0,0,0,.054,1.479.6.6,0,0,0,.244.347.774.774,0,0,0,.464.137,3.55,3.55,0,0,0,1.1-.264l.234,2.129a5.455,5.455,0,0,1-2.168.41,3.439,3.439,0,0,1-1.338-.249,1.953,1.953,0,0,1-.874-.645,2.544,2.544,0,0,1-.386-1.069,13.3,13.3,0,0,1-.088-1.934V13.816h-1.26V11.629h1.26V9.568l2.754-1.6v3.662Zm7.91,7.07,2.734.459a4.485,4.485,0,0,1-1.665,2.29,4.891,4.891,0,0,1-2.847.786,4.64,4.64,0,0,1-4-1.768,5.938,5.938,0,0,1-1.025-3.574,5.727,5.727,0,0,1,1.348-4.038,4.438,4.438,0,0,1,3.408-1.46,4.6,4.6,0,0,1,3.652,1.528,6.762,6.762,0,0,1,1.279,4.683h-6.875a2.776,2.776,0,0,0,.664,1.9,2.077,2.077,0,0,0,1.582.679,1.68,1.68,0,0,0,1.084-.352A2.171,2.171,0,0,0-28.13,18.7Zm.156-2.773a2.642,2.642,0,0,0-.615-1.812,1.888,1.888,0,0,0-1.426-.62,1.906,1.906,0,0,0-1.484.654,2.532,2.532,0,0,0-.576,1.777Zm4.756-4.3h2.529v1.416a4.07,4.07,0,0,1,3.232-1.65,3.481,3.481,0,0,1,1.729.41,3.152,3.152,0,0,1,1.2,1.24,4.791,4.791,0,0,1,1.475-1.24,3.618,3.618,0,0,1,1.689-.41,3.763,3.763,0,0,1,1.934.464,2.842,2.842,0,0,1,1.182,1.362,5.909,5.909,0,0,1,.283,2.148V22h-2.744V16.072a4.41,4.41,0,0,0-.283-1.992,1.3,1.3,0,0,0-1.172-.586,1.87,1.87,0,0,0-1.084.352,1.95,1.95,0,0,0-.732,1.03A7.413,7.413,0,0,0-14.2,17.02V22h-2.744V16.316a7.884,7.884,0,0,0-.146-1.953,1.246,1.246,0,0,0-.454-.654,1.435,1.435,0,0,0-.835-.215,2,2,0,0,0-1.143.342,1.875,1.875,0,0,0-.728.986,7.331,7.331,0,0,0-.22,2.139V22h-2.744Zm17.91,0h2.559v1.523A3.829,3.829,0,0,1-1.4,11.883a3.715,3.715,0,0,1,1.885-.488A3.954,3.954,0,0,1,3.55,12.811a5.731,5.731,0,0,1,1.26,3.945,5.905,5.905,0,0,1-1.27,4.038,3.955,3.955,0,0,1-3.076,1.44,3.5,3.5,0,0,1-1.558-.342,5.25,5.25,0,0,1-1.47-1.172v5.225H-5.308Zm2.715,5.01A4,4,0,0,0-1.9,19.222a2.121,2.121,0,0,0,1.689.835,1.983,1.983,0,0,0,1.592-.767,3.95,3.95,0,0,0,.635-2.515,3.749,3.749,0,0,0-.654-2.422,2.024,2.024,0,0,0-1.621-.791,2.105,2.105,0,0,0-1.67.776A3.456,3.456,0,0,0-2.593,16.639Zm8.945.029a5.61,5.61,0,0,1,.674-2.646,4.625,4.625,0,0,1,1.909-1.953,5.666,5.666,0,0,1,2.759-.674,5.178,5.178,0,0,1,3.857,1.528,5.28,5.28,0,0,1,1.5,3.862,5.343,5.343,0,0,1-1.519,3.9,5.133,5.133,0,0,1-3.823,1.548,6.022,6.022,0,0,1-2.72-.645A4.421,4.421,0,0,1,7.026,19.7,6.3,6.3,0,0,1,6.353,16.668Zm2.813.146A3.436,3.436,0,0,0,9.9,19.178a2.394,2.394,0,0,0,3.608,0,3.483,3.483,0,0,0,.728-2.383,3.42,3.42,0,0,0-.728-2.344,2.394,2.394,0,0,0-3.608,0A3.436,3.436,0,0,0,9.165,16.814ZM21.831,22H19.087V11.629h2.549V13.1a4.432,4.432,0,0,1,1.177-1.377A2.165,2.165,0,0,1,24,11.395a3.483,3.483,0,0,1,1.807.518l-.85,2.393a2.408,2.408,0,0,0-1.289-.449,1.523,1.523,0,0,0-.977.317,2.17,2.17,0,0,0-.63,1.147,16.3,16.3,0,0,0-.229,3.477Zm7.207-7.207-2.49-.449a3.879,3.879,0,0,1,1.445-2.227,5.289,5.289,0,0,1,3.047-.723,6.566,6.566,0,0,1,2.734.435,2.727,2.727,0,0,1,1.265,1.1,5.659,5.659,0,0,1,.366,2.456l-.029,3.2a11.12,11.12,0,0,0,.132,2.017A5.886,5.886,0,0,0,36,22H33.286q-.107-.273-.264-.811-.068-.244-.1-.322a4.947,4.947,0,0,1-1.5,1.025,4.307,4.307,0,0,1-1.709.342,3.534,3.534,0,0,1-2.524-.869,2.889,2.889,0,0,1-.923-2.2,2.949,2.949,0,0,1,.42-1.567,2.744,2.744,0,0,1,1.177-1.055,9.2,9.2,0,0,1,2.183-.64,14.951,14.951,0,0,0,2.666-.674v-.273a1.421,1.421,0,0,0-.391-1.128,2.341,2.341,0,0,0-1.475-.337,1.964,1.964,0,0,0-1.143.288A2,2,0,0,0,29.038,14.793ZM32.71,17.02a17.153,17.153,0,0,1-1.67.42,5.03,5.03,0,0,0-1.494.479,1.145,1.145,0,0,0-.537.967,1.346,1.346,0,0,0,.43,1,1.5,1.5,0,0,0,1.094.42,2.376,2.376,0,0,0,1.416-.488A1.719,1.719,0,0,0,32.6,18.9a5.419,5.419,0,0,0,.107-1.338ZM38.11,22V7.684h2.744V22Z" transform="translate(455 792.947)"/>
    <path id="Trazado_734755" data-name="Trazado 734755" d="M0,0H250V65.476H0Z" transform="translate(674.577 763.948)" fill="#e4f3fd"/>
    <path id="Trazado_736466" data-name="Trazado 736466" d="M-84.546,0H-87.69l-1.25-3.252h-5.723L-95.845,0h-3.066l5.576-14.316h3.057Zm-5.322-5.664-1.973-5.312-1.934,5.313Zm6.758-4.707h2.559v1.523a3.829,3.829,0,0,1,1.348-1.27,3.715,3.715,0,0,1,1.885-.488,3.954,3.954,0,0,1,3.066,1.416,5.731,5.731,0,0,1,1.26,3.945,5.905,5.905,0,0,1-1.27,4.038A3.955,3.955,0,0,1-77.339.234,3.5,3.5,0,0,1-78.9-.107a5.25,5.25,0,0,1-1.47-1.172V3.945H-83.11Zm2.715,5.01A4,4,0,0,0-79.7-2.778a2.121,2.121,0,0,0,1.689.835,1.983,1.983,0,0,0,1.592-.767,3.95,3.95,0,0,0,.635-2.515,3.749,3.749,0,0,0-.654-2.422,2.024,2.024,0,0,0-1.621-.791,2.105,2.105,0,0,0-1.67.776A3.456,3.456,0,0,0-80.4-5.361ZM-68.188,0h-2.744V-10.371h2.549V-8.9a4.432,4.432,0,0,1,1.177-1.377,2.165,2.165,0,0,1,1.187-.332,3.483,3.483,0,0,1,1.807.518l-.85,2.393a2.408,2.408,0,0,0-1.289-.449,1.523,1.523,0,0,0-.977.317,2.17,2.17,0,0,0-.63,1.147A16.3,16.3,0,0,0-68.188-3.2Zm4.521-5.332a5.61,5.61,0,0,1,.674-2.646,4.625,4.625,0,0,1,1.909-1.953,5.666,5.666,0,0,1,2.759-.674,5.178,5.178,0,0,1,3.857,1.528,5.28,5.28,0,0,1,1.5,3.862,5.343,5.343,0,0,1-1.519,3.9A5.133,5.133,0,0,1-58.306.234a6.022,6.022,0,0,1-2.72-.645A4.421,4.421,0,0,1-62.993-2.3,6.3,6.3,0,0,1-63.667-5.332Zm2.813.146a3.436,3.436,0,0,0,.732,2.363A2.327,2.327,0,0,0-58.315-2a2.312,2.312,0,0,0,1.8-.82,3.483,3.483,0,0,0,.728-2.383,3.42,3.42,0,0,0-.728-2.344,2.312,2.312,0,0,0-1.8-.82,2.327,2.327,0,0,0-1.807.82A3.436,3.436,0,0,0-60.854-5.186ZM-47.964,0l-4.18-10.371h2.881l1.953,5.293.566,1.768q.225-.674.283-.889.137-.439.293-.879l1.973-5.293h2.822L-45.493,0Zm14.277-3.3,2.734.459a4.485,4.485,0,0,1-1.665,2.29,4.891,4.891,0,0,1-2.847.786,4.64,4.64,0,0,1-4-1.768,5.938,5.938,0,0,1-1.025-3.574,5.727,5.727,0,0,1,1.348-4.038,4.438,4.438,0,0,1,3.408-1.46,4.6,4.6,0,0,1,3.652,1.528,6.762,6.762,0,0,1,1.279,4.683h-6.875a2.776,2.776,0,0,0,.664,1.9,2.077,2.077,0,0,0,1.582.679,1.68,1.68,0,0,0,1.084-.352A2.171,2.171,0,0,0-33.687-3.3Zm.156-2.773a2.642,2.642,0,0,0-.615-1.812,1.888,1.888,0,0,0-1.426-.62,1.906,1.906,0,0,0-1.484.654,2.532,2.532,0,0,0-.576,1.777Zm14-1.23-2.705.488a1.963,1.963,0,0,0-.62-1.221,1.873,1.873,0,0,0-1.255-.41,2.05,2.05,0,0,0-1.636.708,3.628,3.628,0,0,0-.61,2.368,4.2,4.2,0,0,0,.62,2.607A2.036,2.036,0,0,0-24.067-2a1.849,1.849,0,0,0,1.279-.444,2.672,2.672,0,0,0,.7-1.528l2.7.459A4.783,4.783,0,0,1-21-.713a4.988,4.988,0,0,1-3.193.947A4.748,4.748,0,0,1-27.822-1.2a5.566,5.566,0,0,1-1.353-3.975,5.579,5.579,0,0,1,1.357-4,4.821,4.821,0,0,1,3.672-1.431,5.009,5.009,0,0,1,3.013.815A4.518,4.518,0,0,1-19.526-7.3Zm4.814-7.012v5.264a4.047,4.047,0,0,1,3.174-1.553,4.031,4.031,0,0,1,1.709.352,2.793,2.793,0,0,1,1.147.9,3.257,3.257,0,0,1,.527,1.211,10.825,10.825,0,0,1,.142,2.061V0h-2.744V-5.479a8.112,8.112,0,0,0-.156-2.07,1.359,1.359,0,0,0-.552-.7,1.775,1.775,0,0,0-.991-.259,2.274,2.274,0,0,0-1.221.332,1.916,1.916,0,0,0-.786,1A5.978,5.978,0,0,0-14.712-5.2V0h-2.744V-14.316ZM-3.179-7.207l-2.49-.449A3.879,3.879,0,0,1-4.224-9.883a5.289,5.289,0,0,1,3.047-.723,6.566,6.566,0,0,1,2.734.435,2.727,2.727,0,0,1,1.265,1.1,5.659,5.659,0,0,1,.366,2.456l-.029,3.2a11.12,11.12,0,0,0,.132,2.017A5.886,5.886,0,0,0,3.784,0H1.069Q.962-.273.806-.811q-.068-.244-.1-.322A4.947,4.947,0,0,1-.8-.107,4.307,4.307,0,0,1-2.5.234,3.534,3.534,0,0,1-5.029-.635a2.889,2.889,0,0,1-.923-2.2A2.949,2.949,0,0,1-5.532-4.4,2.744,2.744,0,0,1-4.355-5.454a9.2,9.2,0,0,1,2.183-.64A14.951,14.951,0,0,0,.493-6.768v-.273A1.421,1.421,0,0,0,.1-8.169a2.341,2.341,0,0,0-1.475-.337,1.964,1.964,0,0,0-1.143.288A2,2,0,0,0-3.179-7.207ZM.493-4.98a17.153,17.153,0,0,1-1.67.42,5.03,5.03,0,0,0-1.494.479,1.144,1.144,0,0,0-.537.967,1.346,1.346,0,0,0,.43,1,1.5,1.5,0,0,0,1.094.42A2.376,2.376,0,0,0-.269-2.187,1.719,1.719,0,0,0,.386-3.1,5.419,5.419,0,0,0,.493-4.434Zm5.2-5.391H8.218v1.416a4.07,4.07,0,0,1,3.232-1.65,3.481,3.481,0,0,1,1.729.41,3.152,3.152,0,0,1,1.2,1.24,4.791,4.791,0,0,1,1.475-1.24,3.618,3.618,0,0,1,1.689-.41,3.763,3.763,0,0,1,1.934.464,2.842,2.842,0,0,1,1.182,1.362,5.909,5.909,0,0,1,.283,2.148V0H18.2V-5.928a4.41,4.41,0,0,0-.283-1.992,1.3,1.3,0,0,0-1.172-.586,1.87,1.87,0,0,0-1.084.352,1.95,1.95,0,0,0-.732,1.03A7.413,7.413,0,0,0,14.7-4.98V0H11.958V-5.684a7.884,7.884,0,0,0-.146-1.953,1.246,1.246,0,0,0-.454-.654,1.435,1.435,0,0,0-.835-.215,2,2,0,0,0-1.143.342,1.875,1.875,0,0,0-.728.986,7.331,7.331,0,0,0-.22,2.139V0H5.688Zm17.988-1.406v-2.539h2.744v2.539ZM23.677,0V-10.371h2.744V0ZM35.239-3.3l2.734.459a4.485,4.485,0,0,1-1.665,2.29,4.891,4.891,0,0,1-2.847.786,4.64,4.64,0,0,1-4-1.768,5.938,5.938,0,0,1-1.025-3.574A5.727,5.727,0,0,1,29.78-9.146a4.438,4.438,0,0,1,3.408-1.46,4.6,4.6,0,0,1,3.652,1.528A6.762,6.762,0,0,1,38.12-4.395H31.245a2.776,2.776,0,0,0,.664,1.9,2.077,2.077,0,0,0,1.582.679,1.68,1.68,0,0,0,1.084-.352A2.171,2.171,0,0,0,35.239-3.3ZM35.4-6.074a2.642,2.642,0,0,0-.615-1.812,1.888,1.888,0,0,0-1.426-.62,1.906,1.906,0,0,0-1.484.654,2.532,2.532,0,0,0-.576,1.777ZM49.79,0H47.046V-5.293a8.181,8.181,0,0,0-.176-2.173,1.524,1.524,0,0,0-.571-.767,1.633,1.633,0,0,0-.952-.273,2.2,2.2,0,0,0-1.279.391,1.968,1.968,0,0,0-.776,1.035,8.948,8.948,0,0,0-.21,2.383V0H40.337V-10.371h2.549v1.523A4.153,4.153,0,0,1,46.3-10.605a4.117,4.117,0,0,1,1.66.327,2.782,2.782,0,0,1,1.138.835,3.025,3.025,0,0,1,.537,1.152,8.571,8.571,0,0,1,.151,1.846Zm7.539-10.371v2.188H55.454V-4a10.4,10.4,0,0,0,.054,1.479.6.6,0,0,0,.244.347.774.774,0,0,0,.464.137,3.55,3.55,0,0,0,1.1-.264l.234,2.129a5.455,5.455,0,0,1-2.168.41,3.439,3.439,0,0,1-1.338-.249,1.953,1.953,0,0,1-.874-.645,2.544,2.544,0,0,1-.386-1.069A13.3,13.3,0,0,1,52.7-3.662V-8.184H51.44v-2.187H52.7v-2.061l2.754-1.6v3.662ZM58.6-5.332a5.61,5.61,0,0,1,.674-2.646,4.625,4.625,0,0,1,1.909-1.953,5.666,5.666,0,0,1,2.759-.674A5.178,5.178,0,0,1,67.8-9.077a5.28,5.28,0,0,1,1.5,3.862,5.343,5.343,0,0,1-1.519,3.9A5.133,5.133,0,0,1,63.96.234,6.022,6.022,0,0,1,61.24-.41,4.421,4.421,0,0,1,59.272-2.3,6.3,6.3,0,0,1,58.6-5.332Zm2.813.146a3.436,3.436,0,0,0,.732,2.363A2.327,2.327,0,0,0,63.95-2a2.312,2.312,0,0,0,1.8-.82,3.483,3.483,0,0,0,.728-2.383,3.42,3.42,0,0,0-.728-2.344,2.312,2.312,0,0,0-1.8-.82,2.327,2.327,0,0,0-1.807.82A3.436,3.436,0,0,0,61.411-5.186ZM86.519,0H83.97V-1.523A4.118,4.118,0,0,1,82.471-.2a3.846,3.846,0,0,1-1.743.435,3.95,3.95,0,0,1-3.062-1.44,5.859,5.859,0,0,1-1.274-4.019,5.791,5.791,0,0,1,1.24-4.009,4.043,4.043,0,0,1,3.135-1.372A3.883,3.883,0,0,1,83.774-9.16v-5.156h2.744ZM79.194-5.41a4.749,4.749,0,0,0,.459,2.4,2.074,2.074,0,0,0,1.855,1.074,2.02,2.02,0,0,0,1.611-.806,3.719,3.719,0,0,0,.664-2.407A4.07,4.07,0,0,0,83.14-7.72a2.04,2.04,0,0,0-1.65-.786,2.062,2.062,0,0,0-1.636.776A3.508,3.508,0,0,0,79.194-5.41ZM95.229-3.3l2.734.459A4.485,4.485,0,0,1,96.3-.552a4.891,4.891,0,0,1-2.847.786,4.64,4.64,0,0,1-4-1.768,5.938,5.938,0,0,1-1.025-3.574,5.727,5.727,0,0,1,1.348-4.038,4.438,4.438,0,0,1,3.408-1.46,4.6,4.6,0,0,1,3.652,1.528A6.762,6.762,0,0,1,98.11-4.395H91.235A2.776,2.776,0,0,0,91.9-2.5a2.077,2.077,0,0,0,1.582.679,1.68,1.68,0,0,0,1.084-.352A2.171,2.171,0,0,0,95.229-3.3Zm.156-2.773a2.642,2.642,0,0,0-.615-1.812,1.888,1.888,0,0,0-1.426-.62,1.906,1.906,0,0,0-1.484.654,2.532,2.532,0,0,0-.576,1.777ZM-37.617,22h-2.744V11.629h2.549V13.1a4.432,4.432,0,0,1,1.177-1.377,2.165,2.165,0,0,1,1.187-.332,3.483,3.483,0,0,1,1.807.518l-.85,2.393a2.408,2.408,0,0,0-1.289-.449,1.523,1.523,0,0,0-.977.317,2.17,2.17,0,0,0-.63,1.147,16.3,16.3,0,0,0-.229,3.477Zm11.162-3.3,2.734.459a4.485,4.485,0,0,1-1.665,2.29,4.891,4.891,0,0,1-2.847.786,4.64,4.64,0,0,1-4-1.768,5.938,5.938,0,0,1-1.025-3.574,5.727,5.727,0,0,1,1.348-4.038,4.438,4.438,0,0,1,3.408-1.46,4.6,4.6,0,0,1,3.652,1.528,6.762,6.762,0,0,1,1.279,4.683h-6.875a2.776,2.776,0,0,0,.664,1.9,2.077,2.077,0,0,0,1.582.679,1.68,1.68,0,0,0,1.084-.352A2.171,2.171,0,0,0-26.455,18.7Zm.156-2.773a2.642,2.642,0,0,0-.615-1.812,1.888,1.888,0,0,0-1.426-.62,1.906,1.906,0,0,0-1.484.654,2.532,2.532,0,0,0-.576,1.777Zm3.994,3.115,2.754-.42a2.018,2.018,0,0,0,.713,1.216,2.409,2.409,0,0,0,1.5.415,2.715,2.715,0,0,0,1.6-.391.872.872,0,0,0,.361-.732.721.721,0,0,0-.2-.518,2.187,2.187,0,0,0-.918-.361,14.8,14.8,0,0,1-4.209-1.338,2.672,2.672,0,0,1-1.23-2.334,2.876,2.876,0,0,1,1.064-2.266,4.971,4.971,0,0,1,3.3-.918,5.758,5.758,0,0,1,3.164.693,3.544,3.544,0,0,1,1.426,2.051l-2.588.479a1.6,1.6,0,0,0-.63-.928,2.3,2.3,0,0,0-1.323-.322,2.981,2.981,0,0,0-1.553.3.65.65,0,0,0-.312.557.606.606,0,0,0,.273.5,10.3,10.3,0,0,0,2.563.771,7.631,7.631,0,0,1,3.062,1.221,2.537,2.537,0,0,1,.859,2.041,3.133,3.133,0,0,1-1.191,2.451,5.274,5.274,0,0,1-3.525,1.025,5.785,5.785,0,0,1-3.354-.859A3.959,3.959,0,0,1-22.3,19.041Zm12.09-8.818V7.684h2.744v2.539Zm0,11.777V11.629h2.744V22ZM4.854,22H2.3V20.477A4.118,4.118,0,0,1,.806,21.8a3.846,3.846,0,0,1-1.743.435A3.95,3.95,0,0,1-4,20.794a5.859,5.859,0,0,1-1.274-4.019,5.791,5.791,0,0,1,1.24-4.009A4.043,4.043,0,0,1-.9,11.395,3.883,3.883,0,0,1,2.109,12.84V7.684H4.854Zm-7.324-5.41a4.749,4.749,0,0,0,.459,2.4A2.074,2.074,0,0,0-.156,20.066a2.02,2.02,0,0,0,1.611-.806,3.719,3.719,0,0,0,.664-2.407,4.07,4.07,0,0,0-.645-2.573,2.04,2.04,0,0,0-1.65-.786,2.062,2.062,0,0,0-1.636.776A3.508,3.508,0,0,0-2.471,16.59ZM14.385,22V20.447A4,4,0,0,1,12.9,21.756a4.175,4.175,0,0,1-1.948.479,3.809,3.809,0,0,1-1.875-.459,2.71,2.71,0,0,1-1.2-1.289A5.752,5.752,0,0,1,7.5,18.191V11.629h2.744v4.766a13.216,13.216,0,0,0,.151,2.681,1.462,1.462,0,0,0,.552.781,1.7,1.7,0,0,0,1.016.288,2.159,2.159,0,0,0,1.26-.386,1.962,1.962,0,0,0,.762-.957,11.109,11.109,0,0,0,.205-2.8V11.629h2.744V22Zm4.756-5.332a5.61,5.61,0,0,1,.674-2.646,4.625,4.625,0,0,1,1.909-1.953,5.666,5.666,0,0,1,2.759-.674,5.178,5.178,0,0,1,3.857,1.528,5.28,5.28,0,0,1,1.5,3.862,5.343,5.343,0,0,1-1.519,3.9A5.133,5.133,0,0,1,24.5,22.234a6.022,6.022,0,0,1-2.72-.645,4.421,4.421,0,0,1-1.968-1.89A6.3,6.3,0,0,1,19.141,16.668Zm2.813.146a3.436,3.436,0,0,0,.732,2.363,2.394,2.394,0,0,0,3.608,0,3.483,3.483,0,0,0,.728-2.383,3.42,3.42,0,0,0-.728-2.344,2.394,2.394,0,0,0-3.608,0A3.436,3.436,0,0,0,21.953,16.814Zm9.072,2.227,2.754-.42a2.018,2.018,0,0,0,.713,1.216,2.409,2.409,0,0,0,1.5.415,2.715,2.715,0,0,0,1.6-.391.872.872,0,0,0,.361-.732.721.721,0,0,0-.2-.518,2.187,2.187,0,0,0-.918-.361,14.8,14.8,0,0,1-4.209-1.338,2.672,2.672,0,0,1-1.23-2.334,2.876,2.876,0,0,1,1.064-2.266,4.971,4.971,0,0,1,3.3-.918,5.758,5.758,0,0,1,3.164.693,3.544,3.544,0,0,1,1.426,2.051l-2.588.479a1.6,1.6,0,0,0-.63-.928,2.3,2.3,0,0,0-1.323-.322,2.981,2.981,0,0,0-1.553.3.65.65,0,0,0-.312.557.606.606,0,0,0,.273.5,10.3,10.3,0,0,0,2.563.771,7.631,7.631,0,0,1,3.062,1.221,2.537,2.537,0,0,1,.859,2.041,3.133,3.133,0,0,1-1.191,2.451A5.274,5.274,0,0,1,36,22.234a5.785,5.785,0,0,1-3.354-.859A3.959,3.959,0,0,1,31.025,19.041Z" transform="translate(799.577 792.947)"/>
    <path id="Trazado_734756" data-name="Trazado 734756" d="M0,0H250V65.476H0Z" transform="translate(1020 763.948)" fill="#e4f3fd"/>
    <path id="Trazado_736467" data-name="Trazado 736467" d="M-47,0V-11.895H-51.25v-2.422h11.377v2.422h-4.238V0Zm10.5,0h-2.744V-10.371H-36.7V-8.9a4.432,4.432,0,0,1,1.177-1.377,2.165,2.165,0,0,1,1.187-.332,3.483,3.483,0,0,1,1.807.518l-.85,2.393a2.408,2.408,0,0,0-1.289-.449,1.523,1.523,0,0,0-.977.317,2.17,2.17,0,0,0-.63,1.147A16.3,16.3,0,0,0-36.5-3.2ZM-29.3-7.207l-2.49-.449a3.879,3.879,0,0,1,1.445-2.227,5.289,5.289,0,0,1,3.047-.723,6.566,6.566,0,0,1,2.734.435,2.727,2.727,0,0,1,1.265,1.1,5.659,5.659,0,0,1,.366,2.456l-.029,3.2a11.12,11.12,0,0,0,.132,2.017A5.886,5.886,0,0,0-22.334,0h-2.715q-.107-.273-.264-.811-.068-.244-.1-.322a4.947,4.947,0,0,1-1.5,1.025,4.307,4.307,0,0,1-1.709.342,3.534,3.534,0,0,1-2.524-.869,2.889,2.889,0,0,1-.923-2.2A2.949,2.949,0,0,1-31.65-4.4a2.744,2.744,0,0,1,1.177-1.055,9.2,9.2,0,0,1,2.183-.64,14.951,14.951,0,0,0,2.666-.674v-.273a1.421,1.421,0,0,0-.391-1.128,2.341,2.341,0,0,0-1.475-.337,1.964,1.964,0,0,0-1.143.288A2,2,0,0,0-29.3-7.207Zm3.672,2.227a17.153,17.153,0,0,1-1.67.42,5.03,5.03,0,0,0-1.494.479,1.145,1.145,0,0,0-.537.967,1.346,1.346,0,0,0,.43,1A1.5,1.5,0,0,0-27.8-1.7a2.376,2.376,0,0,0,1.416-.488,1.719,1.719,0,0,0,.654-.908,5.419,5.419,0,0,0,.107-1.338ZM-10.791,0h-2.744V-5.293a8.181,8.181,0,0,0-.176-2.173,1.524,1.524,0,0,0-.571-.767,1.633,1.633,0,0,0-.952-.273,2.2,2.2,0,0,0-1.279.391A1.968,1.968,0,0,0-17.29-7.08,8.948,8.948,0,0,0-17.5-4.7V0h-2.744V-10.371H-17.7v1.523a4.153,4.153,0,0,1,3.418-1.758,4.117,4.117,0,0,1,1.66.327,2.782,2.782,0,0,1,1.138.835,3.025,3.025,0,0,1,.537,1.152,8.571,8.571,0,0,1,.151,1.846Zm1.816-2.959,2.754-.42a2.018,2.018,0,0,0,.713,1.216A2.409,2.409,0,0,0-4-1.748a2.715,2.715,0,0,0,1.6-.391.872.872,0,0,0,.361-.732.721.721,0,0,0-.2-.518,2.187,2.187,0,0,0-.918-.361A14.8,14.8,0,0,1-7.363-5.088a2.672,2.672,0,0,1-1.23-2.334A2.876,2.876,0,0,1-7.529-9.687a4.971,4.971,0,0,1,3.3-.918,5.758,5.758,0,0,1,3.164.693A3.544,3.544,0,0,1,.361-7.861l-2.588.479a1.6,1.6,0,0,0-.63-.928A2.3,2.3,0,0,0-4.18-8.633a2.981,2.981,0,0,0-1.553.3.65.65,0,0,0-.312.557.606.606,0,0,0,.273.5A10.3,10.3,0,0,0-3.208-6.5,7.631,7.631,0,0,1-.146-5.283,2.537,2.537,0,0,1,.713-3.242,3.133,3.133,0,0,1-.479-.791,5.274,5.274,0,0,1-4,.234,5.785,5.785,0,0,1-7.358-.625,3.959,3.959,0,0,1-8.975-2.959ZM3.037-10.371H5.6v1.523a3.829,3.829,0,0,1,1.348-1.27,3.715,3.715,0,0,1,1.885-.488,3.954,3.954,0,0,1,3.066,1.416,5.731,5.731,0,0,1,1.26,3.945,5.905,5.905,0,0,1-1.27,4.038A3.955,3.955,0,0,1,8.809.234,3.5,3.5,0,0,1,7.251-.107a5.25,5.25,0,0,1-1.47-1.172V3.945H3.037Zm2.715,5.01a4,4,0,0,0,.693,2.583,2.121,2.121,0,0,0,1.689.835A1.983,1.983,0,0,0,9.727-2.71a3.95,3.95,0,0,0,.635-2.515,3.749,3.749,0,0,0-.654-2.422,2.024,2.024,0,0,0-1.621-.791,2.105,2.105,0,0,0-1.67.776A3.456,3.456,0,0,0,5.752-5.361Zm8.945.029a5.61,5.61,0,0,1,.674-2.646A4.625,4.625,0,0,1,17.28-9.932a5.666,5.666,0,0,1,2.759-.674A5.178,5.178,0,0,1,23.9-9.077a5.28,5.28,0,0,1,1.5,3.862,5.343,5.343,0,0,1-1.519,3.9A5.133,5.133,0,0,1,20.059.234a6.022,6.022,0,0,1-2.72-.645A4.421,4.421,0,0,1,15.371-2.3,6.3,6.3,0,0,1,14.7-5.332Zm2.813.146a3.436,3.436,0,0,0,.732,2.363A2.327,2.327,0,0,0,20.049-2a2.312,2.312,0,0,0,1.8-.82,3.483,3.483,0,0,0,.728-2.383,3.42,3.42,0,0,0-.728-2.344,2.312,2.312,0,0,0-1.8-.82,2.327,2.327,0,0,0-1.807.82A3.436,3.436,0,0,0,17.51-5.186ZM30.176,0H27.432V-10.371H29.98V-8.9a4.432,4.432,0,0,1,1.177-1.377,2.165,2.165,0,0,1,1.187-.332,3.483,3.483,0,0,1,1.807.518L33.3-7.7a2.408,2.408,0,0,0-1.289-.449,1.523,1.523,0,0,0-.977.317,2.17,2.17,0,0,0-.63,1.147A16.3,16.3,0,0,0,30.176-3.2Zm9.912-10.371v2.188H38.213V-4a10.4,10.4,0,0,0,.054,1.479.6.6,0,0,0,.244.347.774.774,0,0,0,.464.137,3.55,3.55,0,0,0,1.1-.264l.234,2.129a5.455,5.455,0,0,1-2.168.41,3.439,3.439,0,0,1-1.338-.249,1.953,1.953,0,0,1-.874-.645,2.544,2.544,0,0,1-.386-1.069,13.3,13.3,0,0,1-.088-1.934V-8.184H34.2v-2.187h1.26v-2.061l2.754-1.6v3.662ZM48-3.3l2.734.459a4.485,4.485,0,0,1-1.665,2.29,4.891,4.891,0,0,1-2.847.786,4.64,4.64,0,0,1-4-1.768,5.938,5.938,0,0,1-1.025-3.574,5.727,5.727,0,0,1,1.348-4.038,4.438,4.438,0,0,1,3.408-1.46A4.6,4.6,0,0,1,49.6-9.077a6.762,6.762,0,0,1,1.279,4.683H44a2.776,2.776,0,0,0,.664,1.9,2.077,2.077,0,0,0,1.582.679,1.68,1.68,0,0,0,1.084-.352A2.171,2.171,0,0,0,48-3.3Zm.156-2.773a2.642,2.642,0,0,0-.615-1.812,1.888,1.888,0,0,0-1.426-.62,1.906,1.906,0,0,0-1.484.654,2.532,2.532,0,0,0-.576,1.777ZM-38.545,22V7.684h6.084a10.413,10.413,0,0,1,3.335.386,3.29,3.29,0,0,1,1.665,1.372,4.124,4.124,0,0,1,.625,2.256,3.822,3.822,0,0,1-.947,2.661,4.549,4.549,0,0,1-2.832,1.323,6.744,6.744,0,0,1,1.548,1.2,16.316,16.316,0,0,1,1.646,2.324L-25.674,22h-3.457l-2.09-3.115a20.207,20.207,0,0,0-1.523-2.1,2.218,2.218,0,0,0-.869-.6,4.764,4.764,0,0,0-1.455-.161h-.586V22Zm2.891-8.262h2.139a11.044,11.044,0,0,0,2.6-.176,1.557,1.557,0,0,0,.811-.605,1.864,1.864,0,0,0,.293-1.074,1.717,1.717,0,0,0-.386-1.167,1.77,1.77,0,0,0-1.089-.562q-.352-.049-2.109-.049h-2.256ZM-24.111,22V7.684H-13.5v2.422h-7.725v3.174h7.188v2.412h-7.187v3.9h8V22ZM-11.5,17.342l2.813-.273a3.431,3.431,0,0,0,1.03,2.08,3.115,3.115,0,0,0,2.095.664,3.219,3.219,0,0,0,2.1-.591,1.758,1.758,0,0,0,.708-1.382,1.3,1.3,0,0,0-.3-.864,2.381,2.381,0,0,0-1.04-.62q-.508-.176-2.314-.625a7.852,7.852,0,0,1-3.262-1.416,3.725,3.725,0,0,1-1.318-2.881,3.68,3.68,0,0,1,.62-2.046,3.882,3.882,0,0,1,1.787-1.45,7.163,7.163,0,0,1,2.817-.5A6.043,6.043,0,0,1-1.7,8.621,4.171,4.171,0,0,1-.273,11.775l-2.891.127a2.455,2.455,0,0,0-.8-1.587,2.914,2.914,0,0,0-1.831-.483,3.3,3.3,0,0,0-1.973.518,1.043,1.043,0,0,0-.459.889,1.1,1.1,0,0,0,.43.869,7.6,7.6,0,0,0,2.656.957,14.018,14.018,0,0,1,3.12,1.03A4.021,4.021,0,0,1-.435,15.55a4.256,4.256,0,0,1,.571,2.28,4.216,4.216,0,0,1-.684,2.3,4.1,4.1,0,0,1-1.934,1.6,8.109,8.109,0,0,1-3.115.522A6.2,6.2,0,0,1-9.766,21,5.459,5.459,0,0,1-11.5,17.342ZM2.568,22V7.684H7.207a16.821,16.821,0,0,1,3.438.215,3.754,3.754,0,0,1,2.061,1.4,4.444,4.444,0,0,1,.83,2.788,4.671,4.671,0,0,1-.479,2.217,3.925,3.925,0,0,1-1.216,1.411,4.19,4.19,0,0,1-1.5.679,16.5,16.5,0,0,1-3,.205H5.459V22ZM5.459,10.105v4.063H7.041a7.475,7.475,0,0,0,2.285-.225,1.9,1.9,0,0,0,.9-.7,1.924,1.924,0,0,0,.327-1.113,1.849,1.849,0,0,0-.459-1.289A2,2,0,0,0,8.936,10.2a13.894,13.894,0,0,0-2.08-.1ZM15.908,22V7.684H26.523v2.422H18.8v3.174h7.188v2.412H18.8v3.9h8V22Zm13.418,0V7.8h2.891V19.588H39.4V22Z" transform="translate(1145 792.947)"/>
    <path id="Trazado_736455" data-name="Trazado 736455" d="M0,0H250V65.476H0Z" transform="translate(1170 542.891)" fill="#4db1f0"/>
    <path id="Trazado_736456" data-name="Trazado 736456" d="M-70.415-4.658l2.813-.273a3.431,3.431,0,0,0,1.03,2.08,3.115,3.115,0,0,0,2.095.664,3.219,3.219,0,0,0,2.1-.591,1.758,1.758,0,0,0,.708-1.382,1.3,1.3,0,0,0-.3-.864A2.381,2.381,0,0,0-63-5.645q-.508-.176-2.314-.625a7.852,7.852,0,0,1-3.262-1.416A3.725,3.725,0,0,1-69.9-10.566a3.68,3.68,0,0,1,.62-2.046,3.883,3.883,0,0,1,1.787-1.45,7.163,7.163,0,0,1,2.817-.5,6.043,6.043,0,0,1,4.058,1.182,4.171,4.171,0,0,1,1.431,3.154l-2.891.127a2.455,2.455,0,0,0-.8-1.587,2.914,2.914,0,0,0-1.831-.483,3.3,3.3,0,0,0-1.973.518,1.043,1.043,0,0,0-.459.889,1.1,1.1,0,0,0,.43.869,7.6,7.6,0,0,0,2.656.957,14.018,14.018,0,0,1,3.12,1.03A4.021,4.021,0,0,1-59.346-6.45a4.256,4.256,0,0,1,.571,2.28,4.216,4.216,0,0,1-.684,2.3,4.1,4.1,0,0,1-1.934,1.6,8.109,8.109,0,0,1-3.115.522A6.2,6.2,0,0,1-68.677-1,5.459,5.459,0,0,1-70.415-4.658ZM-50.356-3.3l2.734.459a4.485,4.485,0,0,1-1.665,2.29,4.891,4.891,0,0,1-2.847.786,4.64,4.64,0,0,1-4-1.768,5.938,5.938,0,0,1-1.025-3.574,5.727,5.727,0,0,1,1.348-4.038,4.438,4.438,0,0,1,3.408-1.46,4.6,4.6,0,0,1,3.652,1.528,6.762,6.762,0,0,1,1.279,4.683h-6.875a2.776,2.776,0,0,0,.664,1.9,2.077,2.077,0,0,0,1.582.679,1.68,1.68,0,0,0,1.084-.352A2.171,2.171,0,0,0-50.356-3.3Zm.156-2.773a2.642,2.642,0,0,0-.615-1.812,1.888,1.888,0,0,0-1.426-.62,1.906,1.906,0,0,0-1.484.654A2.532,2.532,0,0,0-54.3-6.074Zm4.883-4.3h2.559v1.523a3.829,3.829,0,0,1,1.348-1.27,3.715,3.715,0,0,1,1.885-.488A3.954,3.954,0,0,1-36.46-9.189,5.731,5.731,0,0,1-35.2-5.244a5.905,5.905,0,0,1-1.27,4.038A3.955,3.955,0,0,1-39.546.234,3.5,3.5,0,0,1-41.1-.107a5.25,5.25,0,0,1-1.47-1.172V3.945h-2.744Zm2.715,5.01a4,4,0,0,0,.693,2.583,2.121,2.121,0,0,0,1.689.835,1.983,1.983,0,0,0,1.592-.767,3.95,3.95,0,0,0,.635-2.515,3.749,3.749,0,0,0-.654-2.422,2.024,2.024,0,0,0-1.621-.791,2.105,2.105,0,0,0-1.67.776A3.456,3.456,0,0,0-42.6-5.361Zm11.631-1.846-2.49-.449a3.879,3.879,0,0,1,1.445-2.227,5.289,5.289,0,0,1,3.047-.723,6.566,6.566,0,0,1,2.734.435,2.727,2.727,0,0,1,1.265,1.1A5.659,5.659,0,0,1-24.6-6.611l-.029,3.2A11.12,11.12,0,0,0-24.5-1.392,5.886,5.886,0,0,0-24.009,0h-2.715q-.107-.273-.264-.811-.068-.244-.1-.322a4.947,4.947,0,0,1-1.5,1.025A4.307,4.307,0,0,1-30.3.234a3.534,3.534,0,0,1-2.524-.869,2.889,2.889,0,0,1-.923-2.2,2.949,2.949,0,0,1,.42-1.567,2.744,2.744,0,0,1,1.177-1.055,9.2,9.2,0,0,1,2.183-.64A14.951,14.951,0,0,0-27.3-6.768v-.273a1.421,1.421,0,0,0-.391-1.128,2.341,2.341,0,0,0-1.475-.337,1.964,1.964,0,0,0-1.143.288A2,2,0,0,0-30.972-7.207ZM-27.3-4.98a17.153,17.153,0,0,1-1.67.42,5.03,5.03,0,0,0-1.494.479A1.145,1.145,0,0,0-31-3.115a1.346,1.346,0,0,0,.43,1,1.5,1.5,0,0,0,1.094.42,2.376,2.376,0,0,0,1.416-.488,1.719,1.719,0,0,0,.654-.908A5.419,5.419,0,0,0-27.3-4.434ZM-19.272,0h-2.744V-10.371h2.549V-8.9a4.432,4.432,0,0,1,1.177-1.377,2.165,2.165,0,0,1,1.187-.332,3.483,3.483,0,0,1,1.807.518l-.85,2.393a2.408,2.408,0,0,0-1.289-.449,1.523,1.523,0,0,0-.977.317,2.17,2.17,0,0,0-.63,1.147A16.3,16.3,0,0,0-19.272-3.2Zm7.207-7.207-2.49-.449A3.879,3.879,0,0,1-13.11-9.883a5.289,5.289,0,0,1,3.047-.723,6.566,6.566,0,0,1,2.734.435,2.727,2.727,0,0,1,1.265,1.1A5.659,5.659,0,0,1-5.7-6.611l-.029,3.2A11.12,11.12,0,0,0-5.6-1.392,5.886,5.886,0,0,0-5.1,0H-7.817q-.107-.273-.264-.811-.068-.244-.1-.322a4.947,4.947,0,0,1-1.5,1.025,4.307,4.307,0,0,1-1.709.342,3.534,3.534,0,0,1-2.524-.869,2.889,2.889,0,0,1-.923-2.2,2.949,2.949,0,0,1,.42-1.567,2.744,2.744,0,0,1,1.177-1.055,9.2,9.2,0,0,1,2.183-.64,14.951,14.951,0,0,0,2.666-.674v-.273a1.421,1.421,0,0,0-.391-1.128,2.341,2.341,0,0,0-1.475-.337,1.964,1.964,0,0,0-1.143.288A2,2,0,0,0-12.065-7.207ZM-8.394-4.98a17.153,17.153,0,0,1-1.67.42,5.03,5.03,0,0,0-1.494.479,1.144,1.144,0,0,0-.537.967,1.346,1.346,0,0,0,.43,1,1.5,1.5,0,0,0,1.094.42,2.376,2.376,0,0,0,1.416-.488A1.719,1.719,0,0,0-8.5-3.1a5.419,5.419,0,0,0,.107-1.338ZM6.05-7.3l-2.705.488a1.963,1.963,0,0,0-.62-1.221,1.873,1.873,0,0,0-1.255-.41,2.05,2.05,0,0,0-1.636.708,3.628,3.628,0,0,0-.61,2.368,4.2,4.2,0,0,0,.62,2.607A2.036,2.036,0,0,0,1.509-2a1.849,1.849,0,0,0,1.279-.444,2.672,2.672,0,0,0,.7-1.528l2.7.459a4.783,4.783,0,0,1-1.611,2.8A4.988,4.988,0,0,1,1.382.234,4.748,4.748,0,0,1-2.246-1.2,5.566,5.566,0,0,1-3.6-5.176a5.579,5.579,0,0,1,1.357-4,4.821,4.821,0,0,1,3.672-1.431,5.009,5.009,0,0,1,3.013.815A4.518,4.518,0,0,1,6.05-7.3Zm2.08-4.473v-2.539h2.744v2.539ZM8.13,0V-10.371h2.744V0Zm4.922-5.332a5.61,5.61,0,0,1,.674-2.646,4.625,4.625,0,0,1,1.909-1.953,5.666,5.666,0,0,1,2.759-.674,5.178,5.178,0,0,1,3.857,1.528,5.28,5.28,0,0,1,1.5,3.862,5.343,5.343,0,0,1-1.519,3.9A5.133,5.133,0,0,1,18.413.234a6.022,6.022,0,0,1-2.72-.645A4.421,4.421,0,0,1,13.726-2.3,6.3,6.3,0,0,1,13.052-5.332Zm2.813.146A3.436,3.436,0,0,0,16.6-2.822,2.327,2.327,0,0,0,18.4-2a2.312,2.312,0,0,0,1.8-.82,3.483,3.483,0,0,0,.728-2.383,3.42,3.42,0,0,0-.728-2.344,2.312,2.312,0,0,0-1.8-.82,2.327,2.327,0,0,0-1.807.82A3.436,3.436,0,0,0,15.864-5.186Zm1.152-6.455,1.348-2.92H21.44l-2.686,2.92ZM35.337,0H32.593V-5.293a8.181,8.181,0,0,0-.176-2.173,1.524,1.524,0,0,0-.571-.767,1.633,1.633,0,0,0-.952-.273,2.2,2.2,0,0,0-1.279.391,1.968,1.968,0,0,0-.776,1.035,8.948,8.948,0,0,0-.21,2.383V0H25.884V-10.371h2.549v1.523a4.153,4.153,0,0,1,3.418-1.758,4.117,4.117,0,0,1,1.66.327,2.782,2.782,0,0,1,1.138.835,3.025,3.025,0,0,1,.537,1.152,8.571,8.571,0,0,1,.151,1.846ZM53.188,0H50.64V-1.523A4.118,4.118,0,0,1,49.141-.2,3.846,3.846,0,0,1,47.4.234a3.95,3.95,0,0,1-3.062-1.44,5.859,5.859,0,0,1-1.274-4.019A5.791,5.791,0,0,1,44.3-9.233a4.043,4.043,0,0,1,3.135-1.372A3.883,3.883,0,0,1,50.444-9.16v-5.156h2.744ZM45.864-5.41a4.749,4.749,0,0,0,.459,2.4,2.074,2.074,0,0,0,1.855,1.074,2.02,2.02,0,0,0,1.611-.806,3.719,3.719,0,0,0,.664-2.407A4.07,4.07,0,0,0,49.81-7.72a2.04,2.04,0,0,0-1.65-.786,2.062,2.062,0,0,0-1.636.776A3.508,3.508,0,0,0,45.864-5.41ZM61.9-3.3l2.734.459a4.485,4.485,0,0,1-1.665,2.29,4.891,4.891,0,0,1-2.847.786,4.64,4.64,0,0,1-4-1.768,5.938,5.938,0,0,1-1.025-3.574A5.727,5.727,0,0,1,56.44-9.146a4.438,4.438,0,0,1,3.408-1.46A4.6,4.6,0,0,1,63.5-9.077,6.762,6.762,0,0,1,64.78-4.395H57.905a2.776,2.776,0,0,0,.664,1.9,2.077,2.077,0,0,0,1.582.679,1.68,1.68,0,0,0,1.084-.352A2.171,2.171,0,0,0,61.9-3.3Zm.156-2.773a2.642,2.642,0,0,0-.615-1.812,1.888,1.888,0,0,0-1.426-.62,1.906,1.906,0,0,0-1.484.654,2.532,2.532,0,0,0-.576,1.777ZM-37.617,22h-2.744V11.629h2.549V13.1a4.432,4.432,0,0,1,1.177-1.377,2.165,2.165,0,0,1,1.187-.332,3.483,3.483,0,0,1,1.807.518l-.85,2.393a2.408,2.408,0,0,0-1.289-.449,1.523,1.523,0,0,0-.977.317,2.17,2.17,0,0,0-.63,1.147,16.3,16.3,0,0,0-.229,3.477Zm11.162-3.3,2.734.459a4.485,4.485,0,0,1-1.665,2.29,4.891,4.891,0,0,1-2.847.786,4.64,4.64,0,0,1-4-1.768,5.938,5.938,0,0,1-1.025-3.574,5.727,5.727,0,0,1,1.348-4.038,4.438,4.438,0,0,1,3.408-1.46,4.6,4.6,0,0,1,3.652,1.528,6.762,6.762,0,0,1,1.279,4.683h-6.875a2.776,2.776,0,0,0,.664,1.9,2.077,2.077,0,0,0,1.582.679,1.68,1.68,0,0,0,1.084-.352A2.171,2.171,0,0,0-26.455,18.7Zm.156-2.773a2.642,2.642,0,0,0-.615-1.812,1.888,1.888,0,0,0-1.426-.62,1.906,1.906,0,0,0-1.484.654,2.532,2.532,0,0,0-.576,1.777Zm3.994,3.115,2.754-.42a2.018,2.018,0,0,0,.713,1.216,2.409,2.409,0,0,0,1.5.415,2.715,2.715,0,0,0,1.6-.391.872.872,0,0,0,.361-.732.721.721,0,0,0-.2-.518,2.187,2.187,0,0,0-.918-.361,14.8,14.8,0,0,1-4.209-1.338,2.672,2.672,0,0,1-1.23-2.334,2.876,2.876,0,0,1,1.064-2.266,4.971,4.971,0,0,1,3.3-.918,5.758,5.758,0,0,1,3.164.693,3.544,3.544,0,0,1,1.426,2.051l-2.588.479a1.6,1.6,0,0,0-.63-.928,2.3,2.3,0,0,0-1.323-.322,2.981,2.981,0,0,0-1.553.3.65.65,0,0,0-.312.557.606.606,0,0,0,.273.5,10.3,10.3,0,0,0,2.563.771,7.631,7.631,0,0,1,3.062,1.221,2.537,2.537,0,0,1,.859,2.041,3.133,3.133,0,0,1-1.191,2.451,5.274,5.274,0,0,1-3.525,1.025,5.785,5.785,0,0,1-3.354-.859A3.959,3.959,0,0,1-22.3,19.041Zm12.09-8.818V7.684h2.744v2.539Zm0,11.777V11.629h2.744V22ZM4.854,22H2.3V20.477A4.118,4.118,0,0,1,.806,21.8a3.846,3.846,0,0,1-1.743.435A3.95,3.95,0,0,1-4,20.794a5.859,5.859,0,0,1-1.274-4.019,5.791,5.791,0,0,1,1.24-4.009A4.043,4.043,0,0,1-.9,11.395,3.883,3.883,0,0,1,2.109,12.84V7.684H4.854Zm-7.324-5.41a4.749,4.749,0,0,0,.459,2.4A2.074,2.074,0,0,0-.156,20.066a2.02,2.02,0,0,0,1.611-.806,3.719,3.719,0,0,0,.664-2.407,4.07,4.07,0,0,0-.645-2.573,2.04,2.04,0,0,0-1.65-.786,2.062,2.062,0,0,0-1.636.776A3.508,3.508,0,0,0-2.471,16.59ZM14.385,22V20.447A4,4,0,0,1,12.9,21.756a4.175,4.175,0,0,1-1.948.479,3.809,3.809,0,0,1-1.875-.459,2.71,2.71,0,0,1-1.2-1.289A5.752,5.752,0,0,1,7.5,18.191V11.629h2.744v4.766a13.216,13.216,0,0,0,.151,2.681,1.462,1.462,0,0,0,.552.781,1.7,1.7,0,0,0,1.016.288,2.159,2.159,0,0,0,1.26-.386,1.962,1.962,0,0,0,.762-.957,11.109,11.109,0,0,0,.205-2.8V11.629h2.744V22Zm4.756-5.332a5.61,5.61,0,0,1,.674-2.646,4.625,4.625,0,0,1,1.909-1.953,5.666,5.666,0,0,1,2.759-.674,5.178,5.178,0,0,1,3.857,1.528,5.28,5.28,0,0,1,1.5,3.862,5.343,5.343,0,0,1-1.519,3.9A5.133,5.133,0,0,1,24.5,22.234a6.022,6.022,0,0,1-2.72-.645,4.421,4.421,0,0,1-1.968-1.89A6.3,6.3,0,0,1,19.141,16.668Zm2.813.146a3.436,3.436,0,0,0,.732,2.363,2.394,2.394,0,0,0,3.608,0,3.483,3.483,0,0,0,.728-2.383,3.42,3.42,0,0,0-.728-2.344,2.394,2.394,0,0,0-3.608,0A3.436,3.436,0,0,0,21.953,16.814Zm9.072,2.227,2.754-.42a2.018,2.018,0,0,0,.713,1.216,2.409,2.409,0,0,0,1.5.415,2.715,2.715,0,0,0,1.6-.391.872.872,0,0,0,.361-.732.721.721,0,0,0-.2-.518,2.187,2.187,0,0,0-.918-.361,14.8,14.8,0,0,1-4.209-1.338,2.672,2.672,0,0,1-1.23-2.334,2.876,2.876,0,0,1,1.064-2.266,4.971,4.971,0,0,1,3.3-.918,5.758,5.758,0,0,1,3.164.693,3.544,3.544,0,0,1,1.426,2.051l-2.588.479a1.6,1.6,0,0,0-.63-.928,2.3,2.3,0,0,0-1.323-.322,2.981,2.981,0,0,0-1.553.3.65.65,0,0,0-.312.557.606.606,0,0,0,.273.5,10.3,10.3,0,0,0,2.563.771,7.631,7.631,0,0,1,3.062,1.221,2.537,2.537,0,0,1,.859,2.041,3.133,3.133,0,0,1-1.191,2.451A5.274,5.274,0,0,1,36,22.234a5.785,5.785,0,0,1-3.354-.859A3.959,3.959,0,0,1,31.025,19.041Z" transform="translate(1295 571.891)"/>
    <path id="Trazado_736457" data-name="Trazado 736457" d="M11.66-14.219v9.668A4.535,4.535,0,0,1,10.4-1.26,5.1,5.1,0,0,1,6.992.176l-.5.02a5.322,5.322,0,0,1-3.721-1.26A4.505,4.505,0,0,1,1.367-4.531v-9.687H3.223V-4.59a3.252,3.252,0,0,0,.85,2.4,3.265,3.265,0,0,0,2.422.854,3.287,3.287,0,0,0,2.437-.85A3.246,3.246,0,0,0,9.775-4.58v-9.639Zm5.127,1.094v2.559H18.76v1.4H16.787v6.561a1.467,1.467,0,0,0,.264.953,1.11,1.11,0,0,0,.9.318,4.374,4.374,0,0,0,.859-.117V0A5.268,5.268,0,0,1,17.422.2,2.25,2.25,0,0,1,15.6-.537a3.147,3.147,0,0,1-.615-2.08V-9.17H13.057v-1.4H14.98v-2.559ZM22.832,0H21.025V-10.566h1.807ZM20.879-13.369a1.078,1.078,0,0,1,.269-.742,1.008,1.008,0,0,1,.8-.3,1.024,1.024,0,0,1,.8.3,1.067,1.067,0,0,1,.273.742,1.032,1.032,0,0,1-.273.732,1.043,1.043,0,0,1-.8.293,1.026,1.026,0,0,1-.8-.293A1.043,1.043,0,0,1,20.879-13.369ZM27.686,0H25.879V-15h1.807Zm4.854,0H30.732V-10.566h1.807ZM30.586-13.369a1.078,1.078,0,0,1,.269-.742,1.008,1.008,0,0,1,.8-.3,1.024,1.024,0,0,1,.8.3,1.067,1.067,0,0,1,.273.742,1.032,1.032,0,0,1-.273.732,1.043,1.043,0,0,1-.8.293,1.026,1.026,0,0,1-.8-.293A1.043,1.043,0,0,1,30.586-13.369ZM37.129-1.475h6.182V0H34.922V-1.328l5.83-7.744H35.01v-1.494h8.008v1.279ZM51.865,0a3.8,3.8,0,0,1-.254-1.113A4.031,4.031,0,0,1,48.6.2,3.73,3.73,0,0,1,46.04-.688a2.859,2.859,0,0,1-1-2.241,2.987,2.987,0,0,1,1.255-2.563,5.916,5.916,0,0,1,3.53-.913h1.758v-.83a2.029,2.029,0,0,0-.566-1.509,2.276,2.276,0,0,0-1.67-.562,2.634,2.634,0,0,0-1.621.488,1.439,1.439,0,0,0-.654,1.182H45.254a2.493,2.493,0,0,1,.562-1.528,3.832,3.832,0,0,1,1.523-1.167,5.125,5.125,0,0,1,2.114-.43,4.177,4.177,0,0,1,2.861.913,3.294,3.294,0,0,1,1.074,2.515v4.863A5.946,5.946,0,0,0,53.76-.156V0Zm-3-1.377a3.175,3.175,0,0,0,1.611-.439,2.658,2.658,0,0,0,1.1-1.143V-5.127H50.166q-3.32,0-3.32,1.943a1.645,1.645,0,0,0,.566,1.328A2.177,2.177,0,0,0,48.867-1.377Z" transform="translate(277.5 483.248)" fill="#12263f"/>
  </g>
</svg>
